<?xml version="1.0" encoding="UTF-8" standalone="no"?>
<!DOCTYPE svg PUBLIC "-//W3C//DTD SVG 1.1//EN"
 "http://www.w3.org/Graphics/SVG/1.1/DTD/svg11.dtd">
<!-- Generated by graphviz version 2.43.0 (0)
 -->
<!-- Title: src/groupdef.h Pages: 1 -->
<!--zoomable 412 -->

<svg id="main" version="1.1" xmlns="http://www.w3.org/2000/svg" xmlns:xlink="http://www.w3.org/1999/xlink" xml:space="preserve" onload="init(evt)">

<style type="text/css"><![CDATA[
.node, .edge {opacity: 0.7;}
.node.selected, .edge.selected {opacity: 1;}
.edge:hover path { stroke: red; }
.edge:hover polygon { stroke: red; fill: red; }
]]></style>

<defs>
  <circle id="rim" cx="0" cy="0" r="7"/>
  <circle id="rim2" cx="0" cy="0" r="3.5"/>
  <g id="zoomPlus">
    <use xlink:href="#rim" fill="#404040"><set attributeName="fill" to="#808080" begin="zoomplus.mouseover" end="zoomplus.mouseout"/></use>
    <path d="M-4,0h8M0,-4v8" fill="none" stroke="white" stroke-width="1.5" pointer-events="none"/>
  </g>
  <g id="zoomMin">
    <use xlink:href="#rim" fill="#404040"><set attributeName="fill" to="#808080" begin="zoomminus.mouseover" end="zoomminus.mouseout"/></use>
    <path d="M-4,0h8" fill="none" stroke="white" stroke-width="1.5" pointer-events="none"/>
  </g>
  <g id="arrowUp" transform="translate(30 24)">
    <use xlink:href="#rim"/>
    <path pointer-events="none" fill="none" stroke="white" stroke-width="1.5" d="M0,-3.0v7 M-2.5,-0.5L0,-3.0L2.5,-0.5"/>
  </g>
  <g id="arrowRight" transform="rotate(90) translate(36 -43)">
    <use xlink:href="#rim"/>
    <path pointer-events="none" fill="none" stroke="white" stroke-width="1.5" d="M0,-3.0v7 M-2.5,-0.5L0,-3.0L2.5,-0.5"/>
  </g>
  <g id="arrowDown" transform="rotate(180) translate(-30 -48)">
    <use xlink:href="#rim"/>
    <path pointer-events="none" fill="none" stroke="white" stroke-width="1.5" d="M0,-3.0v7 M-2.5,-0.5L0,-3.0L2.5,-0.5"/>
  </g>
  <g id="arrowLeft" transform="rotate(270) translate(-36 17)">
    <use xlink:href="#rim"/>
    <path pointer-events="none" fill="none" stroke="white" stroke-width="1.5" d="M0,-3.0v7 M-2.5,-0.5L0,-3.0L2.5,-0.5"/>
  </g>
  <g id="resetDef">
    <use xlink:href="#rim2" fill="#404040"><set attributeName="fill" to="#808080" begin="reset.mouseover" end="reset.mouseout"/></use>
  </g>
</defs>
<script type="application/ecmascript">
var viewWidth = 771;
var viewHeight = 412;
var sectionId = 'dynsection-0';
</script>
<script type="application/ecmascript" xlink:href="../../svg.min.js"/>
<svg id="graph" class="graph">
<g id="viewport">
<title>src/groupdef.h</title>
<!-- Node1 -->
<g id="Node000001" class="node">
<title>Node1</title>
<g id="a_Node000001"><a xlink:title=" ">
<polygon fill="#999999" stroke="#666666" points="548.35,-404 462.35,-404 462.35,-385 548.35,-385 548.35,-404"/>
<text text-anchor="middle" x="505.35" y="-392" font-family="Helvetica,sans-Serif" font-size="10.00">src/groupdef.h</text>
</a>
</g>
</g>
<!-- Node2 -->
<g id="Node000002" class="node">
<title>Node2</title>
<g id="a_Node000002"><a xlink:title=" ">
<polygon fill="#e0e0e0" stroke="#999999" points="716.35,-129 658.35,-129 658.35,-110 716.35,-110 716.35,-129"/>
<text text-anchor="middle" x="687.35" y="-117" font-family="Helvetica,sans-Serif" font-size="10.00">memory</text>
</a>
</g>
</g>
<!-- Node1&#45;&gt;Node2 -->
<g id="edge1_Node000001_Node000002" class="edge">
<title>Node1&#45;&gt;Node2</title>
<g id="a_edge1_Node000001_Node000002"><a xlink:title=" ">
<path fill="none" stroke="#63b8ff" d="M548.53,-394.05C621.98,-392.48 763.35,-377.52 763.35,-285.5 763.35,-285.5 763.35,-285.5 763.35,-228.5 763.35,-189.47 729.74,-154.58 707.22,-135.6"/>
<polygon fill="#63b8ff" stroke="#63b8ff" points="709.2,-132.7 699.22,-129.12 704.79,-138.14 709.2,-132.7"/>
</a>
</g>
</g>
<!-- Node3 -->
<g id="Node000003" class="node">
<title>Node3</title>
<g id="a_Node000003"><a xlink:href="../../df/da1/definition_8h.html" target="_top" xlink:title=" ">
<polygon fill="white" stroke="#666666" points="442.85,-294 371.85,-294 371.85,-275 442.85,-275 442.85,-294"/>
<text text-anchor="middle" x="407.35" y="-282" font-family="Helvetica,sans-Serif" font-size="10.00">definition.h</text>
</a>
</g>
</g>
<!-- Node1&#45;&gt;Node3 -->
<g id="edge2_Node000001_Node000003" class="edge">
<title>Node1&#45;&gt;Node3</title>
<g id="a_edge2_Node000001_Node000003"><a xlink:title=" ">
<path fill="none" stroke="#63b8ff" d="M497.33,-384.66C480.88,-366.54 443.11,-324.91 422.11,-301.77"/>
<polygon fill="#63b8ff" stroke="#63b8ff" points="424.52,-299.21 415.21,-294.16 419.33,-303.92 424.52,-299.21"/>
</a>
</g>
</g>
<!-- Node19 -->
<g id="Node000019" class="node">
<title>Node19</title>
<g id="a_Node000019"><a xlink:href="../../da/de1/linkedmap_8h.html" target="_top" xlink:title=" ">
<polygon fill="white" stroke="#666666" points="155.85,-184 78.85,-184 78.85,-165 155.85,-165 155.85,-184"/>
<text text-anchor="middle" x="117.35" y="-172" font-family="Helvetica,sans-Serif" font-size="10.00">linkedmap.h</text>
</a>
</g>
</g>
<!-- Node1&#45;&gt;Node19 -->
<g id="edge50_Node000001_Node000019" class="edge">
<title>Node1&#45;&gt;Node19</title>
<g id="a_edge50_Node000001_Node000019"><a xlink:title=" ">
<path fill="none" stroke="#63b8ff" d="M462.28,-393.71C388.57,-391.71 237.74,-376.95 150.35,-294 122.69,-267.75 117.56,-220.46 116.99,-194.26"/>
<polygon fill="#63b8ff" stroke="#63b8ff" points="120.49,-194.14 116.98,-184.15 113.49,-194.15 120.49,-194.14"/>
</a>
</g>
</g>
<!-- Node21 -->
<g id="Node000021" class="node">
<title>Node21</title>
<g id="a_Node000021"><a xlink:href="../../d6/d15/dirdef_8h.html" target="_top" xlink:title=" ">
<polygon fill="white" stroke="#666666" points="346.85,-349 293.85,-349 293.85,-330 346.85,-330 346.85,-349"/>
<text text-anchor="middle" x="320.35" y="-337" font-family="Helvetica,sans-Serif" font-size="10.00">dirdef.h</text>
</a>
</g>
</g>
<!-- Node1&#45;&gt;Node21 -->
<g id="edge33_Node000001_Node000021" class="edge">
<title>Node1&#45;&gt;Node21</title>
<g id="a_edge33_Node000001_Node000021"><a xlink:title=" ">
<path fill="none" stroke="#63b8ff" d="M475.62,-384.98C443.27,-375.72 391.53,-360.89 356.76,-350.93"/>
<polygon fill="#63b8ff" stroke="#63b8ff" points="357.57,-347.52 347,-348.13 355.65,-354.25 357.57,-347.52"/>
</a>
</g>
</g>
<!-- Node23 -->
<g id="Node000023" class="node">
<title>Node23</title>
<g id="a_Node000023"><a xlink:href="../../db/d51/layout_8h.html" target="_top" xlink:title=" ">
<polygon fill="white" stroke="#666666" points="695.35,-239 639.35,-239 639.35,-220 695.35,-220 695.35,-239"/>
<text text-anchor="middle" x="667.35" y="-227" font-family="Helvetica,sans-Serif" font-size="10.00">layout.h</text>
</a>
</g>
</g>
<!-- Node1&#45;&gt;Node23 -->
<g id="edge39_Node000001_Node000023" class="edge">
<title>Node1&#45;&gt;Node23</title>
<g id="a_edge39_Node000001_Node000023"><a xlink:title=" ">
<path fill="none" stroke="#63b8ff" d="M518.47,-384.76C541.97,-368.7 591.97,-332.58 626.35,-294 638.87,-279.95 650.23,-261.71 657.8,-248.38"/>
<polygon fill="#63b8ff" stroke="#63b8ff" points="661.05,-249.75 662.81,-239.3 654.92,-246.37 661.05,-249.75"/>
</a>
</g>
</g>
<!-- Node24 -->
<g id="Node000024" class="node">
<title>Node24</title>
<g id="a_Node000024"><a xlink:href="../../d9/d11/membergroup_8h.html" target="_top" xlink:title=" ">
<polygon fill="white" stroke="#666666" points="616.85,-294 521.85,-294 521.85,-275 616.85,-275 616.85,-294"/>
<text text-anchor="middle" x="569.35" y="-282" font-family="Helvetica,sans-Serif" font-size="10.00">membergroup.h</text>
</a>
</g>
</g>
<!-- Node1&#45;&gt;Node24 -->
<g id="edge44_Node000001_Node000024" class="edge">
<title>Node1&#45;&gt;Node24</title>
<g id="a_edge44_Node000001_Node000024"><a xlink:title=" ">
<path fill="none" stroke="#63b8ff" d="M510.59,-384.66C521.14,-366.85 545.13,-326.37 558.97,-303.01"/>
<polygon fill="#63b8ff" stroke="#63b8ff" points="562.13,-304.55 564.22,-294.16 556.11,-300.98 562.13,-304.55"/>
</a>
</g>
</g>
<!-- Node4 -->
<g id="Node000004" class="node">
<title>Node4</title>
<g id="a_Node000004"><a xlink:title=" ">
<polygon fill="#e0e0e0" stroke="#999999" points="417.85,-129 370.85,-129 370.85,-110 417.85,-110 417.85,-129"/>
<text text-anchor="middle" x="394.35" y="-117" font-family="Helvetica,sans-Serif" font-size="10.00">vector</text>
</a>
</g>
</g>
<!-- Node3&#45;&gt;Node4 -->
<g id="edge3_Node000003_Node000004" class="edge">
<title>Node3&#45;&gt;Node4</title>
<g id="a_edge3_Node000003_Node000004"><a xlink:title=" ">
<path fill="none" stroke="#63b8ff" d="M406.65,-274.74C404.62,-249.31 398.7,-175.08 395.88,-139.69"/>
<polygon fill="#63b8ff" stroke="#63b8ff" points="399.33,-139 395.05,-129.31 392.36,-139.55 399.33,-139"/>
</a>
</g>
</g>
<!-- Node5 -->
<g id="Node000005" class="node">
<title>Node5</title>
<g id="a_Node000005"><a xlink:href="../../d9/d49/types_8h.html" target="_top" xlink:title="This file contains a number of basic enums and types.">
<polygon fill="white" stroke="#666666" points="582.85,-184 529.85,-184 529.85,-165 582.85,-165 582.85,-184"/>
<text text-anchor="middle" x="556.35" y="-172" font-family="Helvetica,sans-Serif" font-size="10.00">types.h</text>
</a>
</g>
</g>
<!-- Node3&#45;&gt;Node5 -->
<g id="edge4_Node000003_Node000005" class="edge">
<title>Node3&#45;&gt;Node5</title>
<g id="a_edge4_Node000003_Node000005"><a xlink:title=" ">
<path fill="none" stroke="#63b8ff" d="M419.29,-274.84C444.68,-256.44 504.29,-213.23 535.88,-190.34"/>
<polygon fill="#63b8ff" stroke="#63b8ff" points="538.31,-192.9 544.35,-184.2 534.2,-187.23 538.31,-192.9"/>
</a>
</g>
</g>
<!-- Node17 -->
<g id="Node000017" class="node">
<title>Node17</title>
<g id="a_Node000017"><a xlink:href="../../d1/d02/reflist_8h.html" target="_top" xlink:title=" ">
<polygon fill="white" stroke="#666666" points="368.85,-239 315.85,-239 315.85,-220 368.85,-220 368.85,-239"/>
<text text-anchor="middle" x="342.35" y="-227" font-family="Helvetica,sans-Serif" font-size="10.00">reflist.h</text>
</a>
</g>
</g>
<!-- Node3&#45;&gt;Node17 -->
<g id="edge18_Node000003_Node000017" class="edge">
<title>Node3&#45;&gt;Node17</title>
<g id="a_edge18_Node000003_Node000017"><a xlink:title=" ">
<path fill="none" stroke="#63b8ff" d="M396.91,-274.98C387.2,-267.07 372.53,-255.11 360.85,-245.58"/>
<polygon fill="#63b8ff" stroke="#63b8ff" points="362.94,-242.78 352.98,-239.17 358.52,-248.2 362.94,-242.78"/>
</a>
</g>
</g>
<!-- Node20 -->
<g id="Node000020" class="node">
<title>Node20</title>
<g id="a_Node000020"><a xlink:href="../../d7/dfc/construct_8h.html" target="_top" xlink:title=" ">
<polygon fill="white" stroke="#666666" points="511.85,-184 440.85,-184 440.85,-165 511.85,-165 511.85,-184"/>
<text text-anchor="middle" x="476.35" y="-172" font-family="Helvetica,sans-Serif" font-size="10.00">construct.h</text>
</a>
</g>
</g>
<!-- Node3&#45;&gt;Node20 -->
<g id="edge32_Node000003_Node000020" class="edge">
<title>Node3&#45;&gt;Node20</title>
<g id="a_edge32_Node000003_Node000020"><a xlink:title=" ">
<path fill="none" stroke="#63b8ff" d="M412.99,-274.66C424.42,-256.77 450.47,-216 465.36,-192.69"/>
<polygon fill="#63b8ff" stroke="#63b8ff" points="468.38,-194.47 470.82,-184.16 462.48,-190.7 468.38,-194.47"/>
</a>
</g>
</g>
<!-- Node6 -->
<g id="Node000006" class="node">
<title>Node6</title>
<g id="a_Node000006"><a xlink:href="../../d7/d5c/qcstring_8h.html" target="_top" xlink:title=" ">
<polygon fill="white" stroke="#666666" points="333.85,-129 268.85,-129 268.85,-110 333.85,-110 333.85,-129"/>
<text text-anchor="middle" x="301.35" y="-117" font-family="Helvetica,sans-Serif" font-size="10.00">qcstring.h</text>
</a>
</g>
</g>
<!-- Node5&#45;&gt;Node6 -->
<g id="edge5_Node000005_Node000006" class="edge">
<title>Node5&#45;&gt;Node6</title>
<g id="a_edge5_Node000005_Node000006"><a xlink:title=" ">
<path fill="none" stroke="#63b8ff" d="M529.62,-166.9C526.83,-166.24 524.03,-165.6 521.35,-165 459.77,-151.3 388.09,-137.13 343.72,-128.57"/>
<polygon fill="#63b8ff" stroke="#63b8ff" points="344.34,-125.12 333.86,-126.67 343.02,-132 344.34,-125.12"/>
</a>
</g>
</g>
<!-- Node7 -->
<g id="Node000007" class="node">
<title>Node7</title>
<g id="a_Node000007"><a xlink:title=" ">
<polygon fill="#e0e0e0" stroke="#999999" points="199.35,-19 155.35,-19 155.35,0 199.35,0 199.35,-19"/>
<text text-anchor="middle" x="177.35" y="-7" font-family="Helvetica,sans-Serif" font-size="10.00">string</text>
</a>
</g>
</g>
<!-- Node6&#45;&gt;Node7 -->
<g id="edge6_Node000006_Node000007" class="edge">
<title>Node6&#45;&gt;Node7</title>
<g id="a_edge6_Node000006_Node000007"><a xlink:title=" ">
<path fill="none" stroke="#63b8ff" d="M268.59,-112.35C245.36,-106.34 215.1,-94.94 196.35,-74 185.31,-61.68 180.68,-43.17 178.74,-29.31"/>
<polygon fill="#63b8ff" stroke="#63b8ff" points="182.18,-28.58 177.66,-19 175.22,-29.31 182.18,-28.58"/>
</a>
</g>
</g>
<!-- Node8 -->
<g id="Node000008" class="node">
<title>Node8</title>
<g id="a_Node000008"><a xlink:title=" ">
<polygon fill="#e0e0e0" stroke="#999999" points="416.85,-74 343.85,-74 343.85,-55 416.85,-55 416.85,-74"/>
<text text-anchor="middle" x="380.35" y="-62" font-family="Helvetica,sans-Serif" font-size="10.00">string_view</text>
</a>
</g>
</g>
<!-- Node6&#45;&gt;Node8 -->
<g id="edge7_Node000006_Node000008" class="edge">
<title>Node6&#45;&gt;Node8</title>
<g id="a_edge7_Node000006_Node000008"><a xlink:title=" ">
<path fill="none" stroke="#63b8ff" d="M314.04,-109.98C326.18,-101.84 344.71,-89.41 359.09,-79.76"/>
<polygon fill="#63b8ff" stroke="#63b8ff" points="361.07,-82.65 367.42,-74.17 357.17,-76.84 361.07,-82.65"/>
</a>
</g>
</g>
<!-- Node9 -->
<g id="Node000009" class="node">
<title>Node9</title>
<g id="a_Node000009"><a xlink:title=" ">
<polygon fill="#e0e0e0" stroke="#999999" points="149.35,-74 85.35,-74 85.35,-55 149.35,-55 149.35,-74"/>
<text text-anchor="middle" x="117.35" y="-62" font-family="Helvetica,sans-Serif" font-size="10.00">algorithm</text>
</a>
</g>
</g>
<!-- Node6&#45;&gt;Node9 -->
<g id="edge8_Node000006_Node000009" class="edge">
<title>Node6&#45;&gt;Node9</title>
<g id="a_edge8_Node000006_Node000009"><a xlink:title=" ">
<path fill="none" stroke="#63b8ff" d="M271.79,-109.98C240.63,-101.01 191.38,-86.82 156.89,-76.89"/>
<polygon fill="#63b8ff" stroke="#63b8ff" points="157.72,-73.49 147.14,-74.08 155.78,-80.21 157.72,-73.49"/>
</a>
</g>
</g>
<!-- Node10 -->
<g id="Node000010" class="node">
<title>Node10</title>
<g id="a_Node000010"><a xlink:title=" ">
<polygon fill="#e0e0e0" stroke="#999999" points="66.85,-74 17.85,-74 17.85,-55 66.85,-55 66.85,-74"/>
<text text-anchor="middle" x="42.35" y="-62" font-family="Helvetica,sans-Serif" font-size="10.00">cctype</text>
</a>
</g>
</g>
<!-- Node6&#45;&gt;Node10 -->
<g id="edge9_Node000006_Node000010" class="edge">
<title>Node6&#45;&gt;Node10</title>
<g id="a_edge9_Node000006_Node000010"><a xlink:title=" ">
<path fill="none" stroke="#63b8ff" d="M268.83,-112.59C226.87,-104.86 151.39,-90.56 77.18,-74.09"/>
<polygon fill="#63b8ff" stroke="#63b8ff" points="77.72,-70.63 67.2,-71.86 76.19,-77.46 77.72,-70.63"/>
</a>
</g>
</g>
<!-- Node11 -->
<g id="Node000011" class="node">
<title>Node11</title>
<g id="a_Node000011"><a xlink:title=" ">
<polygon fill="#e0e0e0" stroke="#999999" points="485.35,-74 435.35,-74 435.35,-55 485.35,-55 485.35,-74"/>
<text text-anchor="middle" x="460.35" y="-62" font-family="Helvetica,sans-Serif" font-size="10.00">cstring</text>
</a>
</g>
</g>
<!-- Node6&#45;&gt;Node11 -->
<g id="edge10_Node000006_Node000011" class="edge">
<title>Node6&#45;&gt;Node11</title>
<g id="a_edge10_Node000006_Node000011"><a xlink:title=" ">
<path fill="none" stroke="#63b8ff" d="M326.89,-109.98C353.63,-101.07 395.78,-87.02 425.55,-77.1"/>
<polygon fill="#63b8ff" stroke="#63b8ff" points="426.75,-80.39 435.13,-73.91 424.53,-73.75 426.75,-80.39"/>
</a>
</g>
</g>
<!-- Node12 -->
<g id="Node000012" class="node">
<title>Node12</title>
<g id="a_Node000012"><a xlink:title=" ">
<polygon fill="#e0e0e0" stroke="#999999" points="587.35,-74 541.35,-74 541.35,-55 587.35,-55 587.35,-74"/>
<text text-anchor="middle" x="564.35" y="-62" font-family="Helvetica,sans-Serif" font-size="10.00">cstdio</text>
</a>
</g>
</g>
<!-- Node6&#45;&gt;Node12 -->
<g id="edge11_Node000006_Node000012" class="edge">
<title>Node6&#45;&gt;Node12</title>
<g id="a_edge11_Node000006_Node000012"><a xlink:title=" ">
<path fill="none" stroke="#63b8ff" d="M333.97,-112.41C377.97,-104.12 458.71,-88.64 527.35,-74 528.62,-73.73 529.91,-73.45 531.22,-73.17"/>
<polygon fill="#63b8ff" stroke="#63b8ff" points="532.28,-76.51 541.28,-70.92 530.76,-69.68 532.28,-76.51"/>
</a>
</g>
</g>
<!-- Node13 -->
<g id="Node000013" class="node">
<title>Node13</title>
<g id="a_Node000013"><a xlink:title=" ">
<polygon fill="#e0e0e0" stroke="#999999" points="654.85,-74 605.85,-74 605.85,-55 654.85,-55 654.85,-74"/>
<text text-anchor="middle" x="630.35" y="-62" font-family="Helvetica,sans-Serif" font-size="10.00">cstdlib</text>
</a>
</g>
</g>
<!-- Node6&#45;&gt;Node13 -->
<g id="edge12_Node000006_Node000013" class="edge">
<title>Node6&#45;&gt;Node13</title>
<g id="a_edge12_Node000006_Node000013"><a xlink:title=" ">
<path fill="none" stroke="#63b8ff" d="M333.88,-113.77C399.75,-104.17 546.25,-82.7 595.44,-73.9"/>
<polygon fill="#63b8ff" stroke="#63b8ff" points="596.35,-77.29 605.53,-72 595.05,-70.41 596.35,-77.29"/>
</a>
</g>
</g>
<!-- Node14 -->
<g id="Node000014" class="node">
<title>Node14</title>
<g id="a_Node000014"><a xlink:title=" ">
<polygon fill="#e0e0e0" stroke="#999999" points="433.35,-19 383.35,-19 383.35,0 433.35,0 433.35,-19"/>
<text text-anchor="middle" x="408.35" y="-7" font-family="Helvetica,sans-Serif" font-size="10.00">cstdint</text>
</a>
</g>
</g>
<!-- Node6&#45;&gt;Node14 -->
<g id="edge13_Node000006_Node000014" class="edge">
<title>Node6&#45;&gt;Node14</title>
<g id="a_edge13_Node000006_Node000014"><a xlink:title=" ">
<path fill="none" stroke="#63b8ff" d="M334.09,-113.22C386.5,-104.43 484.37,-86.55 494.35,-74 512.86,-50.74 474.54,-31.73 443.26,-20.75"/>
<polygon fill="#63b8ff" stroke="#63b8ff" points="444.03,-17.32 433.43,-17.48 441.81,-23.96 444.03,-17.32"/>
</a>
</g>
</g>
<!-- Node15 -->
<g id="Node000015" class="node">
<title>Node15</title>
<g id="a_Node000015"><a xlink:title=" ">
<polygon fill="#e0e0e0" stroke="#999999" points="262.85,-74 205.85,-74 205.85,-55 262.85,-55 262.85,-74"/>
<text text-anchor="middle" x="234.35" y="-62" font-family="Helvetica,sans-Serif" font-size="10.00">ostream</text>
</a>
</g>
</g>
<!-- Node6&#45;&gt;Node15 -->
<g id="edge14_Node000006_Node000015" class="edge">
<title>Node6&#45;&gt;Node15</title>
<g id="a_edge14_Node000006_Node000015"><a xlink:title=" ">
<path fill="none" stroke="#63b8ff" d="M290.58,-109.98C280.58,-102.07 265.46,-90.11 253.42,-80.58"/>
<polygon fill="#63b8ff" stroke="#63b8ff" points="255.32,-77.63 245.31,-74.17 250.98,-83.12 255.32,-77.63"/>
</a>
</g>
</g>
<!-- Node16 -->
<g id="Node000016" class="node">
<title>Node16</title>
<g id="a_Node000016"><a xlink:href="../../db/d7c/utf8_8h.html" target="_top" xlink:title="Various UTF8 related helper functions.">
<polygon fill="white" stroke="#666666" points="325.85,-74 280.85,-74 280.85,-55 325.85,-55 325.85,-74"/>
<text text-anchor="middle" x="303.35" y="-62" font-family="Helvetica,sans-Serif" font-size="10.00">utf8.h</text>
</a>
</g>
</g>
<!-- Node6&#45;&gt;Node16 -->
<g id="edge15_Node000006_Node000016" class="edge">
<title>Node6&#45;&gt;Node16</title>
<g id="a_edge15_Node000006_Node000016"><a xlink:title=" ">
<path fill="none" stroke="#63b8ff" d="M301.68,-109.75C301.94,-102.8 302.32,-92.85 302.65,-84.13"/>
<polygon fill="#63b8ff" stroke="#63b8ff" points="306.14,-84.21 303.02,-74.09 299.15,-83.95 306.14,-84.21"/>
</a>
</g>
</g>
<!-- Node16&#45;&gt;Node7 -->
<g id="edge17_Node000016_Node000007" class="edge">
<title>Node16&#45;&gt;Node7</title>
<g id="a_edge17_Node000016_Node000007"><a xlink:title=" ">
<path fill="none" stroke="#63b8ff" d="M283.1,-54.98C262.65,-46.38 230.82,-32.99 207.42,-23.15"/>
<polygon fill="#63b8ff" stroke="#63b8ff" points="208.54,-19.82 197.96,-19.17 205.82,-26.27 208.54,-19.82"/>
</a>
</g>
</g>
<!-- Node16&#45;&gt;Node14 -->
<g id="edge16_Node000016_Node000014" class="edge">
<title>Node16&#45;&gt;Node14</title>
<g id="a_edge16_Node000016_Node000014"><a xlink:title=" ">
<path fill="none" stroke="#63b8ff" d="M320.22,-54.98C336.96,-46.54 362.85,-33.47 382.24,-23.68"/>
<polygon fill="#63b8ff" stroke="#63b8ff" points="383.82,-26.8 391.17,-19.17 380.67,-20.55 383.82,-26.8"/>
</a>
</g>
</g>
<!-- Node17&#45;&gt;Node2 -->
<g id="edge21_Node000017_Node000002" class="edge">
<title>Node17&#45;&gt;Node2</title>
<g id="a_edge21_Node000017_Node000002"><a xlink:title=" ">
<path fill="none" stroke="#63b8ff" d="M351.37,-219.91C366.55,-205.97 398.77,-178.62 431.35,-165 503.97,-134.65 596.52,-125 648.1,-121.93"/>
<polygon fill="#63b8ff" stroke="#63b8ff" points="648.36,-125.42 658.15,-121.38 647.98,-118.43 648.36,-125.42"/>
</a>
</g>
</g>
<!-- Node17&#45;&gt;Node4 -->
<g id="edge19_Node000017_Node000004" class="edge">
<title>Node17&#45;&gt;Node4</title>
<g id="a_edge19_Node000017_Node000004"><a xlink:title=" ">
<path fill="none" stroke="#63b8ff" d="M343.72,-219.91C345.97,-207.34 351.11,-183.44 360.35,-165 365.4,-154.91 372.86,-144.83 379.5,-136.82"/>
<polygon fill="#63b8ff" stroke="#63b8ff" points="382.34,-138.88 386.24,-129.03 377.05,-134.3 382.34,-138.88"/>
</a>
</g>
</g>
<!-- Node17&#45;&gt;Node6 -->
<g id="edge22_Node000017_Node000006" class="edge">
<title>Node17&#45;&gt;Node6</title>
<g id="a_edge22_Node000017_Node000006"><a xlink:title=" ">
<path fill="none" stroke="#63b8ff" d="M338.09,-219.75C333.84,-210.86 327.26,-196.63 322.35,-184 316.55,-169.1 310.92,-151.86 306.95,-139.11"/>
<polygon fill="#63b8ff" stroke="#63b8ff" points="310.2,-137.77 303.92,-129.23 303.5,-139.81 310.2,-137.77"/>
</a>
</g>
</g>
<!-- Node18 -->
<g id="Node000018" class="node">
<title>Node18</title>
<g id="a_Node000018"><a xlink:title=" ">
<polygon fill="#e0e0e0" stroke="#999999" points="244.85,-129 151.85,-129 151.85,-110 244.85,-110 244.85,-129"/>
<text text-anchor="middle" x="198.35" y="-117" font-family="Helvetica,sans-Serif" font-size="10.00">unordered_map</text>
</a>
</g>
</g>
<!-- Node17&#45;&gt;Node18 -->
<g id="edge20_Node000017_Node000018" class="edge">
<title>Node17&#45;&gt;Node18</title>
<g id="a_edge20_Node000017_Node000018"><a xlink:title=" ">
<path fill="none" stroke="#63b8ff" d="M330.56,-219.66C305.87,-201.14 248.45,-158.08 218.05,-135.28"/>
<polygon fill="#63b8ff" stroke="#63b8ff" points="219.99,-132.36 209.89,-129.16 215.79,-137.96 219.99,-132.36"/>
</a>
</g>
</g>
<!-- Node17&#45;&gt;Node19 -->
<g id="edge23_Node000017_Node000019" class="edge">
<title>Node17&#45;&gt;Node19</title>
<g id="a_edge23_Node000017_Node000019"><a xlink:title=" ">
<path fill="none" stroke="#63b8ff" d="M315.65,-222.21C278.21,-213.39 209.54,-197.22 163.66,-186.41"/>
<polygon fill="#63b8ff" stroke="#63b8ff" points="164.2,-182.94 153.67,-184.05 162.6,-189.75 164.2,-182.94"/>
</a>
</g>
</g>
<!-- Node17&#45;&gt;Node20 -->
<g id="edge31_Node000017_Node000020" class="edge">
<title>Node17&#45;&gt;Node20</title>
<g id="a_edge31_Node000017_Node000020"><a xlink:title=" ">
<path fill="none" stroke="#63b8ff" d="M363.88,-219.98C385.82,-211.3 420.09,-197.75 445.04,-187.88"/>
<polygon fill="#63b8ff" stroke="#63b8ff" points="446.42,-191.1 454.43,-184.17 443.84,-184.59 446.42,-191.1"/>
</a>
</g>
</g>
<!-- Node19&#45;&gt;Node2 -->
<g id="edge26_Node000019_Node000002" class="edge">
<title>Node19&#45;&gt;Node2</title>
<g id="a_edge26_Node000019_Node000002"><a xlink:title=" ">
<path fill="none" stroke="#63b8ff" d="M156.08,-169.9C259.88,-160.25 543.52,-133.87 648.02,-124.16"/>
<polygon fill="#63b8ff" stroke="#63b8ff" points="648.5,-127.63 658.13,-123.22 647.85,-120.66 648.5,-127.63"/>
</a>
</g>
</g>
<!-- Node19&#45;&gt;Node4 -->
<g id="edge25_Node000019_Node000004" class="edge">
<title>Node19&#45;&gt;Node4</title>
<g id="a_edge25_Node000019_Node000004"><a xlink:title=" ">
<path fill="none" stroke="#63b8ff" d="M155.86,-166.13C210.38,-155.7 309.16,-136.8 360.81,-126.92"/>
<polygon fill="#63b8ff" stroke="#63b8ff" points="361.63,-130.32 370.79,-125.01 360.31,-123.45 361.63,-130.32"/>
</a>
</g>
</g>
<!-- Node19&#45;&gt;Node6 -->
<g id="edge30_Node000019_Node000006" class="edge">
<title>Node19&#45;&gt;Node6</title>
<g id="a_edge30_Node000019_Node000006"><a xlink:title=" ">
<path fill="none" stroke="#63b8ff" d="M146.91,-164.98C178.07,-156.01 227.32,-141.82 261.81,-131.89"/>
<polygon fill="#63b8ff" stroke="#63b8ff" points="262.91,-135.21 271.55,-129.08 260.98,-128.49 262.91,-135.21"/>
</a>
</g>
</g>
<!-- Node19&#45;&gt;Node7 -->
<g id="edge27_Node000019_Node000007" class="edge">
<title>Node19&#45;&gt;Node7</title>
<g id="a_edge27_Node000019_Node000007"><a xlink:title=" ">
<path fill="none" stroke="#63b8ff" d="M98.2,-164.9C58.67,-145.99 -25.52,-98.95 8.35,-55 24.94,-33.48 101.06,-20.29 145.28,-14.3"/>
<polygon fill="#63b8ff" stroke="#63b8ff" points="145.79,-17.77 155.25,-13 144.88,-10.83 145.79,-17.77"/>
</a>
</g>
</g>
<!-- Node19&#45;&gt;Node9 -->
<g id="edge28_Node000019_Node000009" class="edge">
<title>Node19&#45;&gt;Node9</title>
<g id="a_edge28_Node000019_Node000009"><a xlink:title=" ">
<path fill="none" stroke="#63b8ff" d="M117.35,-164.66C117.35,-147.17 117.35,-107.8 117.35,-84.27"/>
<polygon fill="#63b8ff" stroke="#63b8ff" points="120.85,-84.16 117.35,-74.16 113.85,-84.16 120.85,-84.16"/>
</a>
</g>
</g>
<!-- Node19&#45;&gt;Node10 -->
<g id="edge29_Node000019_Node000010" class="edge">
<title>Node19&#45;&gt;Node10</title>
<g id="a_edge29_Node000019_Node000010"><a xlink:title=" ">
<path fill="none" stroke="#63b8ff" d="M111.21,-164.66C98.73,-146.69 70.22,-105.64 54.07,-82.38"/>
<polygon fill="#63b8ff" stroke="#63b8ff" points="56.94,-80.38 48.36,-74.16 51.19,-84.37 56.94,-80.38"/>
</a>
</g>
</g>
<!-- Node19&#45;&gt;Node18 -->
<g id="edge24_Node000019_Node000018" class="edge">
<title>Node19&#45;&gt;Node18</title>
<g id="a_edge24_Node000019_Node000018"><a xlink:title=" ">
<path fill="none" stroke="#63b8ff" d="M130.36,-164.98C142.81,-156.84 161.8,-144.41 176.56,-134.76"/>
<polygon fill="#63b8ff" stroke="#63b8ff" points="178.65,-137.57 185.1,-129.17 174.81,-131.72 178.65,-137.57"/>
</a>
</g>
</g>
<!-- Node21&#45;&gt;Node3 -->
<g id="edge38_Node000021_Node000003" class="edge">
<title>Node21&#45;&gt;Node3</title>
<g id="a_edge38_Node000021_Node000003"><a xlink:title=" ">
<path fill="none" stroke="#63b8ff" d="M334.33,-329.98C347.82,-321.77 368.48,-309.18 384.39,-299.49"/>
<polygon fill="#63b8ff" stroke="#63b8ff" points="386.4,-302.36 393.12,-294.17 382.75,-296.38 386.4,-302.36"/>
</a>
</g>
</g>
<!-- Node21&#45;&gt;Node4 -->
<g id="edge34_Node000021_Node000004" class="edge">
<title>Node21&#45;&gt;Node4</title>
<g id="a_edge34_Node000021_Node000004"><a xlink:title=" ">
<path fill="none" stroke="#63b8ff" d="M316.81,-329.89C309.15,-309.97 292.79,-259.37 306.35,-220 318.82,-183.81 352.1,-152.73 373.98,-135.34"/>
<polygon fill="#63b8ff" stroke="#63b8ff" points="376.22,-138.03 382.01,-129.16 371.95,-132.48 376.22,-138.03"/>
</a>
</g>
</g>
<!-- Node21&#45;&gt;Node6 -->
<g id="edge36_Node000021_Node000006" class="edge">
<title>Node21&#45;&gt;Node6</title>
<g id="a_edge36_Node000021_Node000006"><a xlink:title=" ">
<path fill="none" stroke="#63b8ff" d="M293.8,-330.18C276.94,-323.36 256.46,-311.88 246.35,-294 218.13,-244.09 221.65,-216.74 246.35,-165 252.44,-152.23 264.19,-141.94 275.27,-134.49"/>
<polygon fill="#63b8ff" stroke="#63b8ff" points="277.25,-137.38 283.89,-129.12 273.55,-131.43 277.25,-137.38"/>
</a>
</g>
</g>
<!-- Node21&#45;&gt;Node19 -->
<g id="edge37_Node000021_Node000019" class="edge">
<title>Node21&#45;&gt;Node19</title>
<g id="a_edge37_Node000021_Node000019"><a xlink:title=" ">
<path fill="none" stroke="#63b8ff" d="M293.56,-337.19C260.8,-334.23 205.39,-324.69 170.35,-294 140.07,-267.48 126.25,-220.3 120.65,-194.19"/>
<polygon fill="#63b8ff" stroke="#63b8ff" points="124.04,-193.25 118.68,-184.11 117.17,-194.6 124.04,-193.25"/>
</a>
</g>
</g>
<!-- Node22 -->
<g id="Node000022" class="node">
<title>Node22</title>
<g id="a_Node000022"><a xlink:title=" ">
<polygon fill="#e0e0e0" stroke="#999999" points="545.35,-239 507.35,-239 507.35,-220 545.35,-220 545.35,-239"/>
<text text-anchor="middle" x="526.35" y="-227" font-family="Helvetica,sans-Serif" font-size="10.00">map</text>
</a>
</g>
</g>
<!-- Node21&#45;&gt;Node22 -->
<g id="edge35_Node000021_Node000022" class="edge">
<title>Node21&#45;&gt;Node22</title>
<g id="a_edge35_Node000021_Node000022"><a xlink:title=" ">
<path fill="none" stroke="#63b8ff" d="M346.92,-332.6C374.29,-325.82 417.59,-313.11 451.35,-294 474.4,-280.95 497.08,-260.38 511.35,-246.2"/>
<polygon fill="#63b8ff" stroke="#63b8ff" points="513.85,-248.66 518.37,-239.07 508.86,-243.75 513.85,-248.66"/>
</a>
</g>
</g>
<!-- Node23&#45;&gt;Node2 -->
<g id="edge40_Node000023_Node000002" class="edge">
<title>Node23&#45;&gt;Node2</title>
<g id="a_edge40_Node000023_Node000002"><a xlink:title=" ">
<path fill="none" stroke="#63b8ff" d="M668.99,-219.66C672.22,-202.17 679.51,-162.8 683.87,-139.27"/>
<polygon fill="#63b8ff" stroke="#63b8ff" points="687.37,-139.63 685.74,-129.16 680.48,-138.35 687.37,-139.63"/>
</a>
</g>
</g>
<!-- Node23&#45;&gt;Node4 -->
<g id="edge41_Node000023_Node000004" class="edge">
<title>Node23&#45;&gt;Node4</title>
<g id="a_edge41_Node000023_Node000004"><a xlink:title=" ">
<path fill="none" stroke="#63b8ff" d="M664.23,-219.91C658.7,-205.98 645.8,-178.64 625.35,-165 593.51,-143.76 484.48,-129.77 428.34,-123.8"/>
<polygon fill="#63b8ff" stroke="#63b8ff" points="428.49,-120.29 418.19,-122.74 427.77,-127.26 428.49,-120.29"/>
</a>
</g>
</g>
<!-- Node23&#45;&gt;Node5 -->
<g id="edge42_Node000023_Node000005" class="edge">
<title>Node23&#45;&gt;Node5</title>
<g id="a_edge42_Node000023_Node000005"><a xlink:title=" ">
<path fill="none" stroke="#63b8ff" d="M649.51,-219.98C631.74,-211.5 604.2,-198.35 583.67,-188.54"/>
<polygon fill="#63b8ff" stroke="#63b8ff" points="585.04,-185.32 574.51,-184.17 582.02,-191.64 585.04,-185.32"/>
</a>
</g>
</g>
<!-- Node23&#45;&gt;Node20 -->
<g id="edge43_Node000023_Node000020" class="edge">
<title>Node23&#45;&gt;Node20</title>
<g id="a_edge43_Node000023_Node000020"><a xlink:title=" ">
<path fill="none" stroke="#63b8ff" d="M639.17,-220.68C606.92,-211.73 553.83,-197 517.08,-186.8"/>
<polygon fill="#63b8ff" stroke="#63b8ff" points="517.75,-183.36 507.18,-184.06 515.88,-190.1 517.75,-183.36"/>
</a>
</g>
</g>
<!-- Node24&#45;&gt;Node2 -->
<g id="edge47_Node000024_Node000002" class="edge">
<title>Node24&#45;&gt;Node2</title>
<g id="a_edge47_Node000024_Node000002"><a xlink:title=" ">
<path fill="none" stroke="#63b8ff" d="M616.9,-281.35C647.26,-277.21 684.53,-266.39 704.35,-239 726.08,-208.95 709.26,-163.23 697.07,-138.27"/>
<polygon fill="#63b8ff" stroke="#63b8ff" points="700.11,-136.52 692.41,-129.24 693.89,-139.73 700.11,-136.52"/>
</a>
</g>
</g>
<!-- Node24&#45;&gt;Node4 -->
<g id="edge45_Node000024_Node000004" class="edge">
<title>Node24&#45;&gt;Node4</title>
<g id="a_edge45_Node000024_Node000004"><a xlink:title=" ">
<path fill="none" stroke="#63b8ff" d="M575.12,-274.95C588.59,-253.81 619.06,-198.38 592.35,-165 572.16,-139.77 479.23,-127.85 428.18,-123.12"/>
<polygon fill="#63b8ff" stroke="#63b8ff" points="428.23,-119.61 417.96,-122.21 427.61,-126.58 428.23,-119.61"/>
</a>
</g>
</g>
<!-- Node24&#45;&gt;Node5 -->
<g id="edge48_Node000024_Node000005" class="edge">
<title>Node24&#45;&gt;Node5</title>
<g id="a_edge48_Node000024_Node000005"><a xlink:title=" ">
<path fill="none" stroke="#63b8ff" d="M568.28,-274.66C566.18,-257.17 561.44,-217.8 558.61,-194.27"/>
<polygon fill="#63b8ff" stroke="#63b8ff" points="562.06,-193.67 557.39,-184.16 555.11,-194.51 562.06,-193.67"/>
</a>
</g>
</g>
<!-- Node24&#45;&gt;Node17 -->
<g id="edge49_Node000024_Node000017" class="edge">
<title>Node24&#45;&gt;Node17</title>
<g id="a_edge49_Node000024_Node000017"><a xlink:title=" ">
<path fill="none" stroke="#63b8ff" d="M532.88,-274.98C490.62,-265.12 421.38,-248.95 379.03,-239.06"/>
<polygon fill="#63b8ff" stroke="#63b8ff" points="379.67,-235.62 369.13,-236.75 378.08,-242.44 379.67,-235.62"/>
</a>
</g>
</g>
<!-- Node24&#45;&gt;Node22 -->
<g id="edge46_Node000024_Node000022" class="edge">
<title>Node24&#45;&gt;Node22</title>
<g id="a_edge46_Node000024_Node000022"><a xlink:title=" ">
<path fill="none" stroke="#63b8ff" d="M562.25,-274.75C556.17,-267.26 547.26,-256.28 539.84,-247.13"/>
<polygon fill="#63b8ff" stroke="#63b8ff" points="542.34,-244.65 533.32,-239.09 536.9,-249.06 542.34,-244.65"/>
</a>
</g>
</g>
</g>
</svg>

<g id="navigator" transform="translate(0 0)" fill="#404254">
  <rect fill="#f2f5e9" fill-opacity="0.5" stroke="#606060" stroke-width=".5" x="0" y="0" width="60" height="60"/>
  <use id="zoomplus" xlink:href="#zoomPlus" x="17" y="9" onmousedown="handleZoom(evt,'in')"/>
  <use id="zoomminus" xlink:href="#zoomMin" x="42" y="9" onmousedown="handleZoom(evt,'out')"/>
  <use id="reset" xlink:href="#resetDef" x="30" y="36" onmousedown="handleReset()"/>
   <use id="arrowup" xlink:href="#arrowUp" x="0" y="0" onmousedown="handlePan(0,-1)"/>
  <use id="arrowright" xlink:href="#arrowRight" x="0" y="0" onmousedown="handlePan(1,0)"/>
  <use id="arrowdown" xlink:href="#arrowDown" x="0" y="0" onmousedown="handlePan(0,1)"/>
  <use id="arrowleft" xlink:href="#arrowLeft" x="0" y="0" onmousedown="handlePan(-1,0)"/>
</g>
<svg viewBox="0 0 15 15" width="100%" height="30px" preserveAspectRatio="xMaxYMin meet">
 <g id="arrow_out" transform="scale(0.3 0.3)">
  <a xlink:href="groupdef_8h__incl_org.svg" target="_base">
   <rect id="button" ry="5" rx="5" y="6" x="6" height="38" width="38"
        fill="#f2f5e9" fill-opacity="0.5" stroke="#606060" stroke-width="1.0"/>
   <path id="arrow"
     d="M 11.500037,31.436501 C 11.940474,20.09759 22.043105,11.32322 32.158766,21.979434 L 37.068811,17.246167 C 37.068811,17.246167 37.088388,32 37.088388,32 L 22.160133,31.978069 C 22.160133,31.978069 26.997745,27.140456 26.997745,27.140456 C 18.528582,18.264221 13.291696,25.230495 11.500037,31.436501 z"
     style="fill:#404040;"/>
  </a>
 </g>
</svg>

<style type='text/css'>
<![CDATA[
[data-mouse-over-selected='false'] { opacity: 0.7; }
[data-mouse-over-selected='true']  { opacity: 1.0; }
]]>
</style>
<script type="application/ecmascript"><![CDATA[
document.addEventListener('DOMContentLoaded', (event) => {
  highlightEdges();
  highlightAdjacentNodes();
});
]]></script>
</svg>
