<?xml version="1.0" encoding="UTF-8" standalone="no"?>
<!DOCTYPE svg PUBLIC "-//W3C//DTD SVG 1.1//EN"
 "http://www.w3.org/Graphics/SVG/1.1/DTD/svg11.dtd">
<!-- Generated by graphviz version 2.43.0 (0)
 -->
<!-- Title: FortranCodeParser::Private Pages: 1 -->
<!--zoomable 294 -->

<svg id="main" version="1.1" xmlns="http://www.w3.org/2000/svg" xmlns:xlink="http://www.w3.org/1999/xlink" xml:space="preserve" onload="init(evt)">

<style type="text/css"><![CDATA[
.node, .edge {opacity: 0.7;}
.node.selected, .edge.selected {opacity: 1;}
.edge:hover path { stroke: red; }
.edge:hover polygon { stroke: red; fill: red; }
]]></style>

<defs>
  <circle id="rim" cx="0" cy="0" r="7"/>
  <circle id="rim2" cx="0" cy="0" r="3.5"/>
  <g id="zoomPlus">
    <use xlink:href="#rim" fill="#404040"><set attributeName="fill" to="#808080" begin="zoomplus.mouseover" end="zoomplus.mouseout"/></use>
    <path d="M-4,0h8M0,-4v8" fill="none" stroke="white" stroke-width="1.5" pointer-events="none"/>
  </g>
  <g id="zoomMin">
    <use xlink:href="#rim" fill="#404040"><set attributeName="fill" to="#808080" begin="zoomminus.mouseover" end="zoomminus.mouseout"/></use>
    <path d="M-4,0h8" fill="none" stroke="white" stroke-width="1.5" pointer-events="none"/>
  </g>
  <g id="arrowUp" transform="translate(30 24)">
    <use xlink:href="#rim"/>
    <path pointer-events="none" fill="none" stroke="white" stroke-width="1.5" d="M0,-3.0v7 M-2.5,-0.5L0,-3.0L2.5,-0.5"/>
  </g>
  <g id="arrowRight" transform="rotate(90) translate(36 -43)">
    <use xlink:href="#rim"/>
    <path pointer-events="none" fill="none" stroke="white" stroke-width="1.5" d="M0,-3.0v7 M-2.5,-0.5L0,-3.0L2.5,-0.5"/>
  </g>
  <g id="arrowDown" transform="rotate(180) translate(-30 -48)">
    <use xlink:href="#rim"/>
    <path pointer-events="none" fill="none" stroke="white" stroke-width="1.5" d="M0,-3.0v7 M-2.5,-0.5L0,-3.0L2.5,-0.5"/>
  </g>
  <g id="arrowLeft" transform="rotate(270) translate(-36 17)">
    <use xlink:href="#rim"/>
    <path pointer-events="none" fill="none" stroke="white" stroke-width="1.5" d="M0,-3.0v7 M-2.5,-0.5L0,-3.0L2.5,-0.5"/>
  </g>
  <g id="resetDef">
    <use xlink:href="#rim2" fill="#404040"><set attributeName="fill" to="#808080" begin="reset.mouseover" end="reset.mouseout"/></use>
  </g>
</defs>
<script type="application/ecmascript">
var viewWidth = 741;
var viewHeight = 294;
var sectionId = 'dynsection-0';
</script>
<script type="application/ecmascript" xlink:href="../../svg.min.js"/>
<svg id="graph" class="graph">
<g id="viewport">
<title>FortranCodeParser::Private</title>
<!-- Node1 -->
<g id="Node000001" class="node">
<title>Node1</title>
<g id="a_Node000001"><a xlink:title=" ">
<polygon fill="#999999" stroke="#666666" points="390.75,-30 278.75,-30 278.75,0 390.75,0 390.75,-30"/>
<text text-anchor="start" x="286.75" y="-18" font-family="Helvetica,sans-Serif" font-size="10.00">FortranCodeParser::</text>
<text text-anchor="middle" x="334.75" y="-7" font-family="Helvetica,sans-Serif" font-size="10.00">Private</text>
</a>
</g>
</g>
<!-- Node2 -->
<g id="Node000002" class="node">
<title>Node2</title>
<g id="a_Node000002"><a xlink:href="../../d9/de9/structfortrancode_y_y__state.html" target="_top" xlink:title=" ">
<polygon fill="white" stroke="#666666" points="392.25,-96 277.25,-96 277.25,-77 392.25,-77 392.25,-96"/>
<text text-anchor="middle" x="334.75" y="-84" font-family="Helvetica,sans-Serif" font-size="10.00">fortrancodeYY_state</text>
</a>
</g>
</g>
<!-- Node2&#45;&gt;Node1 -->
<g id="edge1_Node000001_Node000002" class="edge">
<title>Node2&#45;&gt;Node1</title>
<g id="a_edge1_Node000001_Node000002"><a xlink:title=" ">
<path fill="none" stroke="#9a32cd" stroke-dasharray="5,2" d="M334.75,-66.71C334.75,-55.19 334.75,-40.68 334.75,-30.14"/>
<polygon fill="#9a32cd" stroke="#9a32cd" points="331.25,-66.98 334.75,-76.98 338.25,-66.98 331.25,-66.98"/>
</a>
</g>
<text text-anchor="middle" x="348.75" y="-51" font-family="Helvetica,sans-Serif" font-size="10.00" fill="grey"> state</text>
</g>
<!-- Node3 -->
<g id="Node000003" class="node">
<title>Node3</title>
<g id="a_Node000003"><a xlink:href="../../d9/d45/class_q_c_string.html" target="_top" xlink:title="This is an alternative implementation of QCString.">
<polygon fill="white" stroke="#666666" points="77.25,-280.5 18.25,-280.5 18.25,-261.5 77.25,-261.5 77.25,-280.5"/>
<text text-anchor="middle" x="47.75" y="-268.5" font-family="Helvetica,sans-Serif" font-size="10.00">QCString</text>
</a>
</g>
</g>
<!-- Node3&#45;&gt;Node2 -->
<g id="edge2_Node000002_Node000003" class="edge">
<title>Node3&#45;&gt;Node2</title>
<g id="a_edge2_Node000002_Node000003"><a xlink:title=" ">
<path fill="none" stroke="#9a32cd" stroke-dasharray="5,2" d="M34.02,-252.96C14.49,-226.56 -16.13,-175.42 10.75,-143 43.86,-103.08 193.27,-91.87 277.15,-88.72"/>
<polygon fill="#9a32cd" stroke="#9a32cd" points="31.49,-255.41 40.36,-261.2 37.03,-251.14 31.49,-255.41"/>
</a>
</g>
<text text-anchor="middle" x="47.75" y="-201" font-family="Helvetica,sans-Serif" font-size="10.00" fill="grey"> currentModule</text>
<text text-anchor="middle" x="47.75" y="-190" font-family="Helvetica,sans-Serif" font-size="10.00" fill="grey">docBlock</text>
<text text-anchor="middle" x="47.75" y="-179" font-family="Helvetica,sans-Serif" font-size="10.00" fill="grey">exampleFile</text>
<text text-anchor="middle" x="47.75" y="-168" font-family="Helvetica,sans-Serif" font-size="10.00" fill="grey">exampleName</text>
<text text-anchor="middle" x="47.75" y="-157" font-family="Helvetica,sans-Serif" font-size="10.00" fill="grey">fileName</text>
<text text-anchor="middle" x="47.75" y="-146" font-family="Helvetica,sans-Serif" font-size="10.00" fill="grey">str</text>
</g>
<!-- Node6 -->
<g id="Node000006" class="node">
<title>Node6</title>
<g id="a_Node000006"><a xlink:href="../../de/dd6/class_use_entry.html" target="_top" xlink:title="data of an use&#45;statement">
<polygon fill="white" stroke="#666666" points="155.25,-185.5 94.25,-185.5 94.25,-166.5 155.25,-166.5 155.25,-185.5"/>
<text text-anchor="middle" x="124.75" y="-173.5" font-family="Helvetica,sans-Serif" font-size="10.00">UseEntry</text>
</a>
</g>
</g>
<!-- Node3&#45;&gt;Node6 -->
<g id="edge6_Node000006_Node000003" class="edge">
<title>Node3&#45;&gt;Node6</title>
<g id="a_edge6_Node000006_Node000003"><a xlink:title=" ">
<path fill="none" stroke="#9a32cd" stroke-dasharray="5,2" d="M61.39,-253.53C77.85,-233.65 104.9,-200.98 117.67,-185.56"/>
<polygon fill="#9a32cd" stroke="#9a32cd" points="58.54,-251.48 54.86,-261.42 63.93,-255.95 58.54,-251.48"/>
</a>
</g>
<text text-anchor="middle" x="101.75" y="-230" font-family="Helvetica,sans-Serif" font-size="10.00" fill="grey"> module</text>
</g>
<!-- Node4 -->
<g id="Node000004" class="node">
<title>Node4</title>
<g id="a_Node000004"><a xlink:href="../../d2/d76/class_use_map.html" target="_top" xlink:title="module name &#45;&gt; list of ONLY/remote entries (module name = name of the module, which can be accessed v...">
<polygon fill="white" stroke="#666666" points="229.75,-185.5 173.75,-185.5 173.75,-166.5 229.75,-166.5 229.75,-185.5"/>
<text text-anchor="middle" x="201.75" y="-173.5" font-family="Helvetica,sans-Serif" font-size="10.00">UseMap</text>
</a>
</g>
</g>
<!-- Node4&#45;&gt;Node2 -->
<g id="edge3_Node000002_Node000004" class="edge">
<title>Node4&#45;&gt;Node2</title>
<g id="a_edge3_Node000002_Node000004"><a xlink:title=" ">
<path fill="none" stroke="#9a32cd" stroke-dasharray="5,2" d="M210.77,-157.15C218.54,-143.47 231,-125.1 246.75,-114 258.49,-105.73 272.85,-100 286.54,-96.04"/>
<polygon fill="#9a32cd" stroke="#9a32cd" points="207.6,-155.65 205.95,-166.11 213.77,-158.96 207.6,-155.65"/>
</a>
</g>
<text text-anchor="middle" x="280.25" y="-117" font-family="Helvetica,sans-Serif" font-size="10.00" fill="grey"> useMembers</text>
</g>
<!-- Node5 -->
<g id="Node000005" class="node">
<title>Node5</title>
<g id="a_Node000005"><a xlink:title=" ">
<polygon fill="white" stroke="#666666" points="262.75,-286 140.75,-286 140.75,-256 262.75,-256 262.75,-286"/>
<text text-anchor="start" x="148.75" y="-274" font-family="Helvetica,sans-Serif" font-size="10.00">std::map&lt; std::string,</text>
<text text-anchor="middle" x="201.75" y="-263" font-family="Helvetica,sans-Serif" font-size="10.00"> UseEntry &gt;</text>
</a>
</g>
</g>
<!-- Node5&#45;&gt;Node4 -->
<g id="edge4_Node000004_Node000005" class="edge">
<title>Node5&#45;&gt;Node4</title>
<g id="a_edge4_Node000004_Node000005"><a xlink:title=" ">
<path fill="none" stroke="#63b8ff" d="M201.75,-245.75C201.75,-226 201.75,-199.24 201.75,-185.67"/>
<polygon fill="#63b8ff" stroke="#63b8ff" points="198.25,-245.88 201.75,-255.88 205.25,-245.88 198.25,-245.88"/>
</a>
</g>
</g>
<!-- Node6&#45;&gt;Node2 -->
<g id="edge5_Node000002_Node000006" class="edge">
<title>Node6&#45;&gt;Node2</title>
<g id="a_edge5_Node000002_Node000006"><a xlink:title=" ">
<path fill="none" stroke="#9a32cd" stroke-dasharray="5,2" d="M136.48,-157.88C147.12,-143.76 164.11,-124.42 183.75,-114 212.32,-98.84 247.78,-92.1 277.16,-89.21"/>
<polygon fill="#9a32cd" stroke="#9a32cd" points="133.46,-156.1 130.45,-166.25 139.13,-160.19 133.46,-156.1"/>
</a>
</g>
<text text-anchor="middle" x="206.75" y="-117" font-family="Helvetica,sans-Serif" font-size="10.00" fill="grey"> useEntry</text>
</g>
<!-- Node7 -->
<g id="Node000007" class="node">
<title>Node7</title>
<g id="a_Node000007"><a xlink:href="../../db/d8e/class_output_code_list.html" target="_top" xlink:title="Class representing a list of different code generators.">
<polygon fill="white" stroke="#666666" points="339.75,-185.5 247.75,-185.5 247.75,-166.5 339.75,-166.5 339.75,-185.5"/>
<text text-anchor="middle" x="293.75" y="-173.5" font-family="Helvetica,sans-Serif" font-size="10.00">OutputCodeList</text>
</a>
</g>
</g>
<!-- Node7&#45;&gt;Node2 -->
<g id="edge7_Node000002_Node000007" class="edge">
<title>Node7&#45;&gt;Node2</title>
<g id="a_edge7_Node000002_Node000007"><a xlink:title=" ">
<path fill="none" stroke="#9a32cd" stroke-dasharray="5,2" d="M302.13,-157.13C310.83,-138.57 324.07,-110.3 330.69,-96.17"/>
<polygon fill="#9a32cd" stroke="#9a32cd" points="298.91,-155.75 297.84,-166.29 305.25,-158.72 298.91,-155.75"/>
</a>
</g>
<text text-anchor="middle" x="334.25" y="-117" font-family="Helvetica,sans-Serif" font-size="10.00" fill="grey"> code</text>
</g>
<!-- Node8 -->
<g id="Node000008" class="node">
<title>Node8</title>
<g id="a_Node000008"><a xlink:href="../../d5/dcc/class_definition.html" target="_top" xlink:title="The common base class of all entity definitions found in the sources.">
<polygon fill="white" stroke="#666666" points="478.75,-280.5 414.75,-280.5 414.75,-261.5 478.75,-261.5 478.75,-280.5"/>
<text text-anchor="middle" x="446.75" y="-268.5" font-family="Helvetica,sans-Serif" font-size="10.00">Definition</text>
</a>
</g>
</g>
<!-- Node8&#45;&gt;Node2 -->
<g id="edge8_Node000002_Node000008" class="edge">
<title>Node8&#45;&gt;Node2</title>
<g id="a_edge8_Node000002_Node000008"><a xlink:title=" ">
<path fill="none" stroke="#9a32cd" stroke-dasharray="5,2" d="M427.29,-254.55C414.03,-243.17 396.93,-226.64 385.75,-209 361.76,-171.11 371.54,-154.24 351.75,-114 348.67,-107.72 344.42,-101.1 340.94,-96.04"/>
<polygon fill="#9a32cd" stroke="#9a32cd" points="425.41,-257.55 435.34,-261.26 429.89,-252.17 425.41,-257.55"/>
</a>
</g>
<text text-anchor="middle" x="428.25" y="-179" font-family="Helvetica,sans-Serif" font-size="10.00" fill="grey"> currentDefinition</text>
<text text-anchor="middle" x="428.25" y="-168" font-family="Helvetica,sans-Serif" font-size="10.00" fill="grey">searchCtx</text>
</g>
<!-- Node9 -->
<g id="Node000009" class="node">
<title>Node9</title>
<g id="a_Node000009"><a xlink:href="../../de/db0/class_file_def.html" target="_top" xlink:title="A model of a file symbol.">
<polygon fill="white" stroke="#666666" points="530.25,-185.5 479.25,-185.5 479.25,-166.5 530.25,-166.5 530.25,-185.5"/>
<text text-anchor="middle" x="504.75" y="-173.5" font-family="Helvetica,sans-Serif" font-size="10.00">FileDef</text>
</a>
</g>
</g>
<!-- Node8&#45;&gt;Node9 -->
<g id="edge11_Node000009_Node000008" class="edge">
<title>Node8&#45;&gt;Node9</title>
<g id="a_edge11_Node000009_Node000008"><a xlink:title=" ">
<path fill="none" stroke="#63b8ff" d="M457.53,-252.72C469.97,-232.78 489.93,-200.77 499.42,-185.56"/>
<polygon fill="#63b8ff" stroke="#63b8ff" points="454.43,-251.08 452.11,-261.42 460.37,-254.78 454.43,-251.08"/>
</a>
</g>
</g>
<!-- Node11 -->
<g id="Node000011" class="node">
<title>Node11</title>
<g id="a_Node000011"><a xlink:href="../../da/d09/class_member_def.html" target="_top" xlink:title="A model of a class/file/namespace member symbol.">
<polygon fill="white" stroke="#666666" points="622.75,-185.5 548.75,-185.5 548.75,-166.5 622.75,-166.5 622.75,-185.5"/>
<text text-anchor="middle" x="585.75" y="-173.5" font-family="Helvetica,sans-Serif" font-size="10.00">MemberDef</text>
</a>
</g>
</g>
<!-- Node8&#45;&gt;Node11 -->
<g id="edge13_Node000011_Node000008" class="edge">
<title>Node8&#45;&gt;Node11</title>
<g id="a_edge13_Node000011_Node000008"><a xlink:title=" ">
<path fill="none" stroke="#63b8ff" d="M468.57,-255.93C487.49,-243.67 515.56,-225.35 539.75,-209 551.36,-201.16 564.47,-192.01 573.71,-185.51"/>
<polygon fill="#63b8ff" stroke="#63b8ff" points="466.57,-253.06 460.07,-261.43 470.37,-258.93 466.57,-253.06"/>
</a>
</g>
</g>
<!-- Node9&#45;&gt;Node2 -->
<g id="edge9_Node000002_Node000009" class="edge">
<title>Node9&#45;&gt;Node2</title>
<g id="a_edge9_Node000002_Node000009"><a xlink:title=" ">
<path fill="none" stroke="#9a32cd" stroke-dasharray="5,2" d="M487.6,-159.58C480.79,-153.93 472.7,-147.75 464.75,-143 430.43,-122.46 387.11,-105.58 360.17,-96.02"/>
<polygon fill="#9a32cd" stroke="#9a32cd" points="485.57,-162.46 495.44,-166.33 490.14,-157.15 485.57,-162.46"/>
</a>
</g>
<text text-anchor="middle" x="464.75" y="-117" font-family="Helvetica,sans-Serif" font-size="10.00" fill="grey"> sourceFileDef</text>
</g>
<!-- Node10 -->
<g id="Node000010" class="node">
<title>Node10</title>
<g id="a_Node000010"><a xlink:href="../../d0/d46/class_definition_mutable.html" target="_top" xlink:title=" ">
<polygon fill="white" stroke="#666666" points="600.75,-280.5 496.75,-280.5 496.75,-261.5 600.75,-261.5 600.75,-280.5"/>
<text text-anchor="middle" x="548.75" y="-268.5" font-family="Helvetica,sans-Serif" font-size="10.00">DefinitionMutable</text>
</a>
</g>
</g>
<!-- Node10&#45;&gt;Node9 -->
<g id="edge10_Node000009_Node000010" class="edge">
<title>Node10&#45;&gt;Node9</title>
<g id="a_edge10_Node000009_Node000010"><a xlink:title=" ">
<path fill="none" stroke="#63b8ff" d="M540.32,-252.17C530.87,-232.2 515.94,-200.63 508.81,-185.56"/>
<polygon fill="#63b8ff" stroke="#63b8ff" points="537.25,-253.87 544.69,-261.42 543.58,-250.88 537.25,-253.87"/>
</a>
</g>
</g>
<!-- Node11&#45;&gt;Node2 -->
<g id="edge12_Node000002_Node000011" class="edge">
<title>Node11&#45;&gt;Node2</title>
<g id="a_edge12_Node000002_Node000011"><a xlink:title=" ">
<path fill="none" stroke="#9a32cd" stroke-dasharray="5,2" d="M569.45,-159.05C553.9,-144.83 529.15,-124.67 503.75,-114 468.57,-99.22 426.13,-92.61 392.58,-89.68"/>
<polygon fill="#9a32cd" stroke="#9a32cd" points="567.41,-161.93 577.09,-166.24 572.21,-156.83 567.41,-161.93"/>
</a>
</g>
<text text-anchor="middle" x="570.75" y="-117" font-family="Helvetica,sans-Serif" font-size="10.00" fill="grey"> currentMemberDef</text>
</g>
<!-- Node12 -->
<g id="Node000012" class="node">
<title>Node12</title>
<g id="a_Node000012"><a xlink:href="../../d5/dae/class_tooltip_manager.html" target="_top" xlink:title="Class that manages the tooltips for a source file.">
<polygon fill="white" stroke="#666666" points="732.75,-185.5 640.75,-185.5 640.75,-166.5 732.75,-166.5 732.75,-185.5"/>
<text text-anchor="middle" x="686.75" y="-173.5" font-family="Helvetica,sans-Serif" font-size="10.00">TooltipManager</text>
</a>
</g>
</g>
<!-- Node12&#45;&gt;Node2 -->
<g id="edge14_Node000002_Node000012" class="edge">
<title>Node12&#45;&gt;Node2</title>
<g id="a_edge14_Node000002_Node000012"><a xlink:title=" ">
<path fill="none" stroke="#9a32cd" stroke-dasharray="5,2" d="M674.63,-158.33C663.07,-143.88 644.28,-123.78 622.75,-114 583.04,-95.95 464.57,-90.2 392.54,-88.36"/>
<polygon fill="#9a32cd" stroke="#9a32cd" points="671.99,-160.65 680.85,-166.46 677.55,-156.39 671.99,-160.65"/>
</a>
</g>
<text text-anchor="middle" x="677.75" y="-117" font-family="Helvetica,sans-Serif" font-size="10.00" fill="grey"> tooltipManager</text>
</g>
</g>
</svg>

<g id="navigator" transform="translate(0 0)" fill="#404254">
  <rect fill="#f2f5e9" fill-opacity="0.5" stroke="#606060" stroke-width=".5" x="0" y="0" width="60" height="60"/>
  <use id="zoomplus" xlink:href="#zoomPlus" x="17" y="9" onmousedown="handleZoom(evt,'in')"/>
  <use id="zoomminus" xlink:href="#zoomMin" x="42" y="9" onmousedown="handleZoom(evt,'out')"/>
  <use id="reset" xlink:href="#resetDef" x="30" y="36" onmousedown="handleReset()"/>
   <use id="arrowup" xlink:href="#arrowUp" x="0" y="0" onmousedown="handlePan(0,-1)"/>
  <use id="arrowright" xlink:href="#arrowRight" x="0" y="0" onmousedown="handlePan(1,0)"/>
  <use id="arrowdown" xlink:href="#arrowDown" x="0" y="0" onmousedown="handlePan(0,1)"/>
  <use id="arrowleft" xlink:href="#arrowLeft" x="0" y="0" onmousedown="handlePan(-1,0)"/>
</g>
<svg viewBox="0 0 15 15" width="100%" height="30px" preserveAspectRatio="xMaxYMin meet">
 <g id="arrow_out" transform="scale(0.3 0.3)">
  <a xlink:href="struct_fortran_code_parser_1_1_private__coll__graph_org.svg" target="_base">
   <rect id="button" ry="5" rx="5" y="6" x="6" height="38" width="38"
        fill="#f2f5e9" fill-opacity="0.5" stroke="#606060" stroke-width="1.0"/>
   <path id="arrow"
     d="M 11.500037,31.436501 C 11.940474,20.09759 22.043105,11.32322 32.158766,21.979434 L 37.068811,17.246167 C 37.068811,17.246167 37.088388,32 37.088388,32 L 22.160133,31.978069 C 22.160133,31.978069 26.997745,27.140456 26.997745,27.140456 C 18.528582,18.264221 13.291696,25.230495 11.500037,31.436501 z"
     style="fill:#404040;"/>
  </a>
 </g>
</svg>

<style type='text/css'>
<![CDATA[
[data-mouse-over-selected='false'] { opacity: 0.7; }
[data-mouse-over-selected='true']  { opacity: 1.0; }
]]>
</style>
<script type="application/ecmascript"><![CDATA[
document.addEventListener('DOMContentLoaded', (event) => {
  highlightEdges();
  highlightAdjacentNodes();
});
]]></script>
</svg>
