<?xml version="1.0" encoding="UTF-8" standalone="no"?>
<!DOCTYPE svg PUBLIC "-//W3C//DTD SVG 1.1//EN"
 "http://www.w3.org/Graphics/SVG/1.1/DTD/svg11.dtd">
<!-- Generated by graphviz version 2.43.0 (0)
 -->
<!-- Title: MemberContext::Private Pages: 1 -->
<svg width="228pt" height="160pt"
 viewBox="0.00 0.00 228.00 160.00" xmlns="http://www.w3.org/2000/svg" xmlns:xlink="http://www.w3.org/1999/xlink">
<g id="graph0" class="graph" transform="scale(1 1) rotate(0) translate(4 156)">
<title>MemberContext::Private</title>
<!-- Node1 -->
<g id="Node000001" class="node">
<title>Node1</title>
<g id="a_Node000001"><a xlink:title=" ">
<polygon fill="#999999" stroke="#666666" points="143,-19 7,-19 7,0 143,0 143,-19"/>
<text text-anchor="middle" x="75" y="-7" font-family="Helvetica,sans-Serif" font-size="10.00">MemberContext::Private</text>
</a>
</g>
</g>
<!-- Node2 -->
<g id="Node000002" class="node">
<title>Node2</title>
<g id="a_Node000002"><a xlink:href="../../d6/d49/class_definition_context.html" target="_top" xlink:title=" ">
<polygon fill="white" stroke="#666666" points="150,-86 0,-86 0,-56 150,-56 150,-86"/>
<text text-anchor="start" x="8" y="-74" font-family="Helvetica,sans-Serif" font-size="10.00">DefinitionContext&lt;</text>
<text text-anchor="middle" x="75" y="-63" font-family="Helvetica,sans-Serif" font-size="10.00"> MemberContext::Private &gt;</text>
</a>
</g>
</g>
<!-- Node2&#45;&gt;Node1 -->
<g id="edge1_Node000001_Node000002" class="edge">
<title>Node2&#45;&gt;Node1</title>
<g id="a_edge1_Node000001_Node000002"><a xlink:title=" ">
<path fill="none" stroke="#63b8ff" d="M75,-45.79C75,-36.36 75,-26.15 75,-19.16"/>
<polygon fill="#63b8ff" stroke="#63b8ff" points="71.5,-45.9 75,-55.9 78.5,-45.9 71.5,-45.9"/>
</a>
</g>
</g>
<!-- Node3 -->
<g id="Node000003" class="node">
<title>Node3</title>
<g id="a_Node000003"><a xlink:href="../../d6/d49/class_definition_context.html" target="_top" xlink:title=" ">
<polygon fill="white" stroke="#666666" points="140.5,-152 9.5,-152 9.5,-133 140.5,-133 140.5,-152"/>
<text text-anchor="middle" x="75" y="-140" font-family="Helvetica,sans-Serif" font-size="10.00">DefinitionContext&lt; T &gt;</text>
</a>
</g>
</g>
<!-- Node3&#45;&gt;Node2 -->
<g id="edge2_Node000002_Node000003" class="edge">
<title>Node3&#45;&gt;Node2</title>
<g id="a_edge2_Node000002_Node000003"><a xlink:title=" ">
<path fill="none" stroke="orange" stroke-dasharray="5,2" d="M75,-122.71C75,-111.19 75,-96.68 75,-86.14"/>
<polygon fill="orange" stroke="orange" points="71.5,-122.98 75,-132.98 78.5,-122.98 71.5,-122.98"/>
</a>
</g>
<text text-anchor="middle" x="147.5" y="-107" font-family="Helvetica,sans-Serif" font-size="10.00" fill="grey"> &lt; MemberContext::Private &gt;</text>
</g>
</g>
</svg>
