<?xml version="1.0" encoding="UTF-8" standalone="no"?>
<!DOCTYPE svg PUBLIC "-//W3C//DTD SVG 1.1//EN"
 "http://www.w3.org/Graphics/SVG/1.1/DTD/svg11.dtd">
<!-- Generated by graphviz version 2.43.0 (0)
 -->
<!-- Title: src/regex.cpp Pages: 1 -->
<svg width="668pt" height="137pt"
 viewBox="0.00 0.00 668.00 137.00" xmlns="http://www.w3.org/2000/svg" xmlns:xlink="http://www.w3.org/1999/xlink">
<g id="graph0" class="graph" transform="scale(1 1) rotate(0) translate(4 133)">
<title>src/regex.cpp</title>
<!-- Node1 -->
<g id="Node000001" class="node">
<title>Node1</title>
<g id="a_Node000001"><a xlink:title=" ">
<polygon fill="#999999" stroke="#666666" points="490,-129 408,-129 408,-110 490,-110 490,-129"/>
<text text-anchor="middle" x="449" y="-117" font-family="Helvetica,sans-Serif" font-size="10.00">src/regex.cpp</text>
</a>
</g>
</g>
<!-- Node2 -->
<g id="Node000002" class="node">
<title>Node2</title>
<g id="a_Node000002"><a xlink:href="../../d1/d21/regex_8h.html" target="_top" xlink:title=" ">
<polygon fill="white" stroke="#666666" points="282.5,-74 229.5,-74 229.5,-55 282.5,-55 282.5,-74"/>
<text text-anchor="middle" x="256" y="-62" font-family="Helvetica,sans-Serif" font-size="10.00">regex.h</text>
</a>
</g>
</g>
<!-- Node1&#45;&gt;Node2 -->
<g id="edge1_Node000001_Node000002" class="edge">
<title>Node1&#45;&gt;Node2</title>
<g id="a_edge1_Node000001_Node000002"><a xlink:title=" ">
<path fill="none" stroke="#63b8ff" d="M417.99,-109.98C383.71,-100.57 328.54,-85.42 292.28,-75.46"/>
<polygon fill="#63b8ff" stroke="#63b8ff" points="293.15,-72.07 282.58,-72.8 291.3,-78.82 293.15,-72.07"/>
</a>
</g>
</g>
<!-- Node6 -->
<g id="Node000006" class="node">
<title>Node6</title>
<g id="a_Node000006"><a xlink:title=" ">
<polygon fill="#e0e0e0" stroke="#999999" points="436.5,-19 389.5,-19 389.5,0 436.5,0 436.5,-19"/>
<text text-anchor="middle" x="413" y="-7" font-family="Helvetica,sans-Serif" font-size="10.00">vector</text>
</a>
</g>
</g>
<!-- Node1&#45;&gt;Node6 -->
<g id="edge9_Node000001_Node000006" class="edge">
<title>Node1&#45;&gt;Node6</title>
<g id="a_edge9_Node000001_Node000006"><a xlink:title=" ">
<path fill="none" stroke="#63b8ff" d="M425.22,-109.92C409.57,-102.89 390.33,-91.25 381,-74 372.35,-57.99 384.27,-39.37 395.94,-26.44"/>
<polygon fill="#63b8ff" stroke="#63b8ff" points="398.52,-28.81 402.99,-19.21 393.5,-23.93 398.52,-28.81"/>
</a>
</g>
</g>
<!-- Node9 -->
<g id="Node000009" class="node">
<title>Node9</title>
<g id="a_Node000009"><a xlink:title=" ">
<polygon fill="#e0e0e0" stroke="#999999" points="440,-74 390,-74 390,-55 440,-55 440,-74"/>
<text text-anchor="middle" x="415" y="-62" font-family="Helvetica,sans-Serif" font-size="10.00">cstdint</text>
</a>
</g>
</g>
<!-- Node1&#45;&gt;Node9 -->
<g id="edge8_Node000001_Node000009" class="edge">
<title>Node1&#45;&gt;Node9</title>
<g id="a_edge8_Node000001_Node000009"><a xlink:title=" ">
<path fill="none" stroke="#63b8ff" d="M443.39,-109.75C438.68,-102.42 431.83,-91.73 426.03,-82.7"/>
<polygon fill="#63b8ff" stroke="#63b8ff" points="428.86,-80.62 420.51,-74.09 422.96,-84.4 428.86,-80.62"/>
</a>
</g>
</g>
<!-- Node10 -->
<g id="Node000010" class="node">
<title>Node10</title>
<g id="a_Node000010"><a xlink:title=" ">
<polygon fill="#e0e0e0" stroke="#999999" points="507.5,-74 458.5,-74 458.5,-55 507.5,-55 507.5,-74"/>
<text text-anchor="middle" x="483" y="-62" font-family="Helvetica,sans-Serif" font-size="10.00">cctype</text>
</a>
</g>
</g>
<!-- Node1&#45;&gt;Node10 -->
<g id="edge10_Node000001_Node000010" class="edge">
<title>Node1&#45;&gt;Node10</title>
<g id="a_edge10_Node000001_Node000010"><a xlink:title=" ">
<path fill="none" stroke="#63b8ff" d="M454.61,-109.75C459.32,-102.42 466.17,-91.73 471.97,-82.7"/>
<polygon fill="#63b8ff" stroke="#63b8ff" points="475.04,-84.4 477.49,-74.09 469.14,-80.62 475.04,-84.4"/>
</a>
</g>
</g>
<!-- Node11 -->
<g id="Node000011" class="node">
<title>Node11</title>
<g id="a_Node000011"><a xlink:title=" ">
<polygon fill="#e0e0e0" stroke="#999999" points="578,-74 526,-74 526,-55 578,-55 578,-74"/>
<text text-anchor="middle" x="552" y="-62" font-family="Helvetica,sans-Serif" font-size="10.00">cassert</text>
</a>
</g>
</g>
<!-- Node1&#45;&gt;Node11 -->
<g id="edge11_Node000001_Node000011" class="edge">
<title>Node1&#45;&gt;Node11</title>
<g id="a_edge11_Node000001_Node000011"><a xlink:title=" ">
<path fill="none" stroke="#63b8ff" d="M465.55,-109.98C481.89,-101.57 507.13,-88.59 526.13,-78.81"/>
<polygon fill="#63b8ff" stroke="#63b8ff" points="527.86,-81.86 535.15,-74.17 524.66,-75.63 527.86,-81.86"/>
</a>
</g>
</g>
<!-- Node12 -->
<g id="Node000012" class="node">
<title>Node12</title>
<g id="a_Node000012"><a xlink:title=" ">
<polygon fill="#e0e0e0" stroke="#999999" points="660,-74 596,-74 596,-55 660,-55 660,-74"/>
<text text-anchor="middle" x="628" y="-62" font-family="Helvetica,sans-Serif" font-size="10.00">algorithm</text>
</a>
</g>
</g>
<!-- Node1&#45;&gt;Node12 -->
<g id="edge12_Node000001_Node000012" class="edge">
<title>Node1&#45;&gt;Node12</title>
<g id="a_edge12_Node000001_Node000012"><a xlink:title=" ">
<path fill="none" stroke="#63b8ff" d="M477.76,-109.98C507.94,-101.05 555.57,-86.94 589.1,-77.02"/>
<polygon fill="#63b8ff" stroke="#63b8ff" points="590.42,-80.28 599.02,-74.08 588.43,-73.57 590.42,-80.28"/>
</a>
</g>
</g>
<!-- Node3 -->
<g id="Node000003" class="node">
<title>Node3</title>
<g id="a_Node000003"><a xlink:title=" ">
<polygon fill="#e0e0e0" stroke="#999999" points="58,-19 0,-19 0,0 58,0 58,-19"/>
<text text-anchor="middle" x="29" y="-7" font-family="Helvetica,sans-Serif" font-size="10.00">memory</text>
</a>
</g>
</g>
<!-- Node2&#45;&gt;Node3 -->
<g id="edge2_Node000002_Node000003" class="edge">
<title>Node2&#45;&gt;Node3</title>
<g id="a_edge2_Node000002_Node000003"><a xlink:title=" ">
<path fill="none" stroke="#63b8ff" d="M229.07,-57.21C189.11,-47.88 113.9,-30.32 67.94,-19.59"/>
<polygon fill="#63b8ff" stroke="#63b8ff" points="68.58,-16.15 58.04,-17.28 66.98,-22.96 68.58,-16.15"/>
</a>
</g>
</g>
<!-- Node4 -->
<g id="Node000004" class="node">
<title>Node4</title>
<g id="a_Node000004"><a xlink:title=" ">
<polygon fill="#e0e0e0" stroke="#999999" points="120,-19 76,-19 76,0 120,0 120,-19"/>
<text text-anchor="middle" x="98" y="-7" font-family="Helvetica,sans-Serif" font-size="10.00">string</text>
</a>
</g>
</g>
<!-- Node2&#45;&gt;Node4 -->
<g id="edge3_Node000002_Node000004" class="edge">
<title>Node2&#45;&gt;Node4</title>
<g id="a_edge3_Node000002_Node000004"><a xlink:title=" ">
<path fill="none" stroke="#63b8ff" d="M230.61,-54.98C203.23,-45.8 159.56,-31.15 129.88,-21.19"/>
<polygon fill="#63b8ff" stroke="#63b8ff" points="130.6,-17.74 120.01,-17.88 128.38,-24.38 130.6,-17.74"/>
</a>
</g>
</g>
<!-- Node5 -->
<g id="Node000005" class="node">
<title>Node5</title>
<g id="a_Node000005"><a xlink:title=" ">
<polygon fill="#e0e0e0" stroke="#999999" points="211.5,-19 138.5,-19 138.5,0 211.5,0 211.5,-19"/>
<text text-anchor="middle" x="175" y="-7" font-family="Helvetica,sans-Serif" font-size="10.00">string_view</text>
</a>
</g>
</g>
<!-- Node2&#45;&gt;Node5 -->
<g id="edge4_Node000002_Node000005" class="edge">
<title>Node2&#45;&gt;Node5</title>
<g id="a_edge4_Node000002_Node000005"><a xlink:title=" ">
<path fill="none" stroke="#63b8ff" d="M242.99,-54.98C230.54,-46.84 211.54,-34.41 196.79,-24.76"/>
<polygon fill="#63b8ff" stroke="#63b8ff" points="198.54,-21.72 188.25,-19.17 194.7,-27.57 198.54,-21.72"/>
</a>
</g>
</g>
<!-- Node2&#45;&gt;Node6 -->
<g id="edge5_Node000002_Node000006" class="edge">
<title>Node2&#45;&gt;Node6</title>
<g id="a_edge5_Node000002_Node000006"><a xlink:title=" ">
<path fill="none" stroke="#63b8ff" d="M281.22,-54.98C307.9,-45.98 350.11,-31.73 379.55,-21.79"/>
<polygon fill="#63b8ff" stroke="#63b8ff" points="381.02,-24.99 389.38,-18.47 378.78,-18.36 381.02,-24.99"/>
</a>
</g>
</g>
<!-- Node7 -->
<g id="Node000007" class="node">
<title>Node7</title>
<g id="a_Node000007"><a xlink:title=" ">
<polygon fill="#e0e0e0" stroke="#999999" points="282.5,-19 229.5,-19 229.5,0 282.5,0 282.5,-19"/>
<text text-anchor="middle" x="256" y="-7" font-family="Helvetica,sans-Serif" font-size="10.00">iterator</text>
</a>
</g>
</g>
<!-- Node2&#45;&gt;Node7 -->
<g id="edge6_Node000002_Node000007" class="edge">
<title>Node2&#45;&gt;Node7</title>
<g id="a_edge6_Node000002_Node000007"><a xlink:title=" ">
<path fill="none" stroke="#63b8ff" d="M256,-54.75C256,-47.8 256,-37.85 256,-29.13"/>
<polygon fill="#63b8ff" stroke="#63b8ff" points="259.5,-29.09 256,-19.09 252.5,-29.09 259.5,-29.09"/>
</a>
</g>
</g>
<!-- Node8 -->
<g id="Node000008" class="node">
<title>Node8</title>
<g id="a_Node000008"><a xlink:href="../../d7/dfc/construct_8h.html" target="_top" xlink:title=" ">
<polygon fill="white" stroke="#666666" points="371.5,-19 300.5,-19 300.5,0 371.5,0 371.5,-19"/>
<text text-anchor="middle" x="336" y="-7" font-family="Helvetica,sans-Serif" font-size="10.00">construct.h</text>
</a>
</g>
</g>
<!-- Node2&#45;&gt;Node8 -->
<g id="edge7_Node000002_Node000008" class="edge">
<title>Node2&#45;&gt;Node8</title>
<g id="a_edge7_Node000002_Node000008"><a xlink:title=" ">
<path fill="none" stroke="#63b8ff" d="M268.85,-54.98C281.14,-46.84 299.91,-34.41 314.48,-24.76"/>
<polygon fill="#63b8ff" stroke="#63b8ff" points="316.51,-27.61 322.91,-19.17 312.64,-21.78 316.51,-27.61"/>
</a>
</g>
</g>
</g>
</svg>
