<?xml version="1.0" encoding="UTF-8" standalone="no"?>
<!DOCTYPE svg PUBLIC "-//W3C//DTD SVG 1.1//EN"
 "http://www.w3.org/Graphics/SVG/1.1/DTD/svg11.dtd">
<!-- Generated by graphviz version 2.43.0 (0)
 -->
<!-- Title: LexOutlineParser::Private Pages: 1 -->
<svg width="323pt" height="259pt"
 viewBox="0.00 0.00 322.50 259.00" xmlns="http://www.w3.org/2000/svg" xmlns:xlink="http://www.w3.org/1999/xlink">
<g id="graph0" class="graph" transform="scale(1 1) rotate(0) translate(4 255)">
<title>LexOutlineParser::Private</title>
<!-- Node1 -->
<g id="Node000001" class="node">
<title>Node1</title>
<g id="a_Node000001"><a xlink:title=" ">
<polygon fill="#999999" stroke="#666666" points="229.5,-19 89.5,-19 89.5,0 229.5,0 229.5,-19"/>
<text text-anchor="middle" x="159.5" y="-7" font-family="Helvetica,sans-Serif" font-size="10.00">LexOutlineParser::Private</text>
</a>
</g>
</g>
<!-- Node2 -->
<g id="Node000002" class="node">
<title>Node2</title>
<g id="a_Node000002"><a xlink:href="../../d9/d1c/structlexscanner_y_y__state.html" target="_top" xlink:title=" ">
<polygon fill="white" stroke="#666666" points="215.5,-85 103.5,-85 103.5,-66 215.5,-66 215.5,-85"/>
<text text-anchor="middle" x="159.5" y="-73" font-family="Helvetica,sans-Serif" font-size="10.00">lexscannerYY_state</text>
</a>
</g>
</g>
<!-- Node2&#45;&gt;Node1 -->
<g id="edge1_Node000001_Node000002" class="edge">
<title>Node2&#45;&gt;Node1</title>
<g id="a_edge1_Node000001_Node000002"><a xlink:title=" ">
<path fill="none" stroke="#9a32cd" stroke-dasharray="5,2" d="M159.5,-55.58C159.5,-43.63 159.5,-28.72 159.5,-19.41"/>
<polygon fill="#9a32cd" stroke="#9a32cd" points="156,-55.87 159.5,-65.87 163,-55.87 156,-55.87"/>
</a>
</g>
<text text-anchor="middle" x="173.5" y="-40" font-family="Helvetica,sans-Serif" font-size="10.00" fill="grey"> state</text>
</g>
<!-- Node3 -->
<g id="Node000003" class="node">
<title>Node3</title>
<g id="a_Node000003"><a xlink:href="../../df/d21/class_c_outline_parser.html" target="_top" xlink:title="C&#45;like language parser using state&#45;based lexical scanning.">
<polygon fill="white" stroke="#666666" points="107,-195 18,-195 18,-176 107,-176 107,-195"/>
<text text-anchor="middle" x="62.5" y="-183" font-family="Helvetica,sans-Serif" font-size="10.00">COutlineParser</text>
</a>
</g>
</g>
<!-- Node3&#45;&gt;Node2 -->
<g id="edge2_Node000002_Node000003" class="edge">
<title>Node3&#45;&gt;Node2</title>
<g id="a_edge2_Node000002_Node000003"><a xlink:title=" ">
<path fill="none" stroke="#9a32cd" stroke-dasharray="5,2" d="M61.94,-165.64C62.42,-147.41 65.99,-120.12 81.5,-103 88.99,-94.73 99.16,-89.04 109.67,-85.13"/>
<polygon fill="#9a32cd" stroke="#9a32cd" points="58.44,-165.65 61.96,-175.64 65.44,-165.63 58.44,-165.65"/>
</a>
</g>
<text text-anchor="middle" x="118.5" y="-128" font-family="Helvetica,sans-Serif" font-size="10.00" fill="grey"> cOutlineParser</text>
</g>
<!-- Node4 -->
<g id="Node000004" class="node">
<title>Node4</title>
<g id="a_Node000004"><a xlink:href="../../d5/d79/class_outline_parser_interface.html" target="_top" xlink:title="Abstract interface for outline parsers.">
<polygon fill="white" stroke="#666666" points="125,-251 0,-251 0,-232 125,-232 125,-251"/>
<text text-anchor="middle" x="62.5" y="-239" font-family="Helvetica,sans-Serif" font-size="10.00">OutlineParserInterface</text>
</a>
</g>
</g>
<!-- Node4&#45;&gt;Node3 -->
<g id="edge3_Node000003_Node000004" class="edge">
<title>Node4&#45;&gt;Node3</title>
<g id="a_edge3_Node000003_Node000004"><a xlink:title=" ">
<path fill="none" stroke="#63b8ff" d="M62.5,-221.3C62.5,-212.41 62.5,-202.28 62.5,-195.25"/>
<polygon fill="#63b8ff" stroke="#63b8ff" points="59,-221.58 62.5,-231.58 66,-221.58 59,-221.58"/>
</a>
</g>
</g>
<!-- Node5 -->
<g id="Node000005" class="node">
<title>Node5</title>
<g id="a_Node000005"><a xlink:href="../../d9/d45/class_q_c_string.html" target="_top" xlink:title="This is an alternative implementation of QCString.">
<polygon fill="white" stroke="#666666" points="189,-195 130,-195 130,-176 189,-176 189,-195"/>
<text text-anchor="middle" x="159.5" y="-183" font-family="Helvetica,sans-Serif" font-size="10.00">QCString</text>
</a>
</g>
</g>
<!-- Node5&#45;&gt;Node2 -->
<g id="edge4_Node000002_Node000005" class="edge">
<title>Node5&#45;&gt;Node2</title>
<g id="a_edge4_Node000002_Node000005"><a xlink:title=" ">
<path fill="none" stroke="#9a32cd" stroke-dasharray="5,2" d="M159.5,-165.48C159.5,-141.84 159.5,-102.5 159.5,-85.16"/>
<polygon fill="#9a32cd" stroke="#9a32cd" points="156,-165.66 159.5,-175.66 163,-165.66 156,-165.66"/>
</a>
</g>
<text text-anchor="middle" x="196.5" y="-150" font-family="Helvetica,sans-Serif" font-size="10.00" fill="grey"> cCodeBuffer</text>
<text text-anchor="middle" x="196.5" y="-139" font-family="Helvetica,sans-Serif" font-size="10.00" fill="grey">delimiter</text>
<text text-anchor="middle" x="196.5" y="-128" font-family="Helvetica,sans-Serif" font-size="10.00" fill="grey">docBlockName</text>
<text text-anchor="middle" x="196.5" y="-117" font-family="Helvetica,sans-Serif" font-size="10.00" fill="grey">fileName</text>
<text text-anchor="middle" x="196.5" y="-106" font-family="Helvetica,sans-Serif" font-size="10.00" fill="grey">prefix</text>
</g>
<!-- Node6 -->
<g id="Node000006" class="node">
<title>Node6</title>
<g id="a_Node000006"><a xlink:href="../../dd/df8/class_clang_t_u_parser.html" target="_top" xlink:title="Clang parser object for a single translation unit, which consists of a source file and the directly o...">
<polygon fill="white" stroke="#666666" points="300.5,-195 212.5,-195 212.5,-176 300.5,-176 300.5,-195"/>
<text text-anchor="middle" x="256.5" y="-183" font-family="Helvetica,sans-Serif" font-size="10.00">ClangTUParser</text>
</a>
</g>
</g>
<!-- Node6&#45;&gt;Node2 -->
<g id="edge5_Node000002_Node000006" class="edge">
<title>Node6&#45;&gt;Node2</title>
<g id="a_edge5_Node000002_Node000006"><a xlink:title=" ">
<path fill="none" stroke="#9a32cd" stroke-dasharray="5,2" d="M256.24,-165.63C254.99,-147.39 250.34,-120.09 234.5,-103 226.8,-94.69 216.34,-88.99 205.68,-85.07"/>
<polygon fill="#9a32cd" stroke="#9a32cd" points="252.74,-165.79 256.65,-175.64 259.74,-165.5 252.74,-165.79"/>
</a>
</g>
<text text-anchor="middle" x="284.5" y="-128" font-family="Helvetica,sans-Serif" font-size="10.00" fill="grey"> clangParser</text>
</g>
</g>
</svg>
