<?xml version="1.0" encoding="UTF-8" standalone="no"?>
<!DOCTYPE svg PUBLIC "-//W3C//DTD SVG 1.1//EN"
 "http://www.w3.org/Graphics/SVG/1.1/DTD/svg11.dtd">
<!-- Generated by graphviz version 2.43.0 (0)
 -->
<!-- Title: DotGfxHierarchyTable Pages: 1 -->
<svg width="259pt" height="283pt"
 viewBox="0.00 0.00 259.45 283.00" xmlns="http://www.w3.org/2000/svg" xmlns:xlink="http://www.w3.org/1999/xlink">
<g id="graph0" class="graph" transform="scale(1 1) rotate(0) translate(4 279)">
<title>DotGfxHierarchyTable</title>
<!-- Node1 -->
<g id="Node000001" class="node">
<title>Node1</title>
<g id="a_Node000001"><a xlink:title="Represents a graphical class hierarchy.">
<polygon fill="#999999" stroke="#666666" points="134.45,-19 10.45,-19 10.45,0 134.45,0 134.45,-19"/>
<text text-anchor="middle" x="72.45" y="-7" font-family="Helvetica,sans-Serif" font-size="10.00">DotGfxHierarchyTable</text>
</a>
</g>
</g>
<!-- Node2 -->
<g id="Node000002" class="node">
<title>Node2</title>
<g id="a_Node000002"><a xlink:href="../../d0/d32/class_dot_graph.html" target="_top" xlink:title="A dot graph.">
<polygon fill="white" stroke="#666666" points="247.95,-158 184.95,-158 184.95,-139 247.95,-139 247.95,-158"/>
<text text-anchor="middle" x="216.45" y="-146" font-family="Helvetica,sans-Serif" font-size="10.00">DotGraph</text>
</a>
</g>
</g>
<!-- Node2&#45;&gt;Node1 -->
<g id="edge1_Node000001_Node000002" class="edge">
<title>Node2&#45;&gt;Node1</title>
<g id="a_edge1_Node000001_Node000002"><a xlink:title=" ">
<path fill="none" stroke="#63b8ff" d="M216.67,-128.66C215.89,-104.02 210.67,-61.15 185.45,-37 177.45,-29.33 155.46,-23.36 132.98,-19.05"/>
<polygon fill="#63b8ff" stroke="#63b8ff" points="213.18,-128.88 216.77,-138.85 220.18,-128.82 213.18,-128.88"/>
</a>
</g>
</g>
<!-- Node5 -->
<g id="Node000005" class="node">
<title>Node5</title>
<g id="a_Node000005"><a xlink:href="../../dd/d7e/class_dot_node.html" target="_top" xlink:title="A node in a dot graph.">
<polygon fill="white" stroke="#666666" points="101.95,-85 42.95,-85 42.95,-66 101.95,-66 101.95,-85"/>
<text text-anchor="middle" x="72.45" y="-73" font-family="Helvetica,sans-Serif" font-size="10.00">DotNode</text>
</a>
</g>
</g>
<!-- Node2&#45;&gt;Node5 -->
<g id="edge6_Node000005_Node000002" class="edge">
<title>Node2&#45;&gt;Node5</title>
<g id="a_edge6_Node000005_Node000002"><a xlink:title=" ">
<path fill="none" stroke="#9a32cd" stroke-dasharray="5,2" d="M192.75,-133.88C176.54,-124.74 154.44,-112.67 134.45,-103 121.18,-96.58 105.95,-90.06 93.91,-85.09"/>
<polygon fill="#9a32cd" stroke="#9a32cd" points="191.13,-136.98 201.56,-138.87 194.59,-130.89 191.13,-136.98"/>
</a>
</g>
<text text-anchor="middle" x="178.45" y="-106" font-family="Helvetica,sans-Serif" font-size="10.00" fill="grey"> m_graph</text>
</g>
<!-- Node3 -->
<g id="Node000003" class="node">
<title>Node3</title>
<g id="a_Node000003"><a xlink:href="../../d2/dc2/class_dir.html" target="_top" xlink:title="Class representing a directory in the file system.">
<polygon fill="white" stroke="#666666" points="236.95,-275 205.95,-275 205.95,-256 236.95,-256 236.95,-275"/>
<text text-anchor="middle" x="221.45" y="-263" font-family="Helvetica,sans-Serif" font-size="10.00">Dir</text>
</a>
</g>
</g>
<!-- Node3&#45;&gt;Node2 -->
<g id="edge2_Node000002_Node000003" class="edge">
<title>Node3&#45;&gt;Node2</title>
<g id="a_edge2_Node000002_Node000003"><a xlink:title=" ">
<path fill="none" stroke="#9a32cd" stroke-dasharray="5,2" d="M220.64,-245.75C219.54,-220.56 217.64,-176.82 216.83,-158.24"/>
<polygon fill="#9a32cd" stroke="#9a32cd" points="217.15,-246.02 221.08,-255.86 224.14,-245.71 217.15,-246.02"/>
</a>
</g>
<text text-anchor="middle" x="235.95" y="-208" font-family="Helvetica,sans-Serif" font-size="10.00" fill="grey"> m_dir</text>
</g>
<!-- Node4 -->
<g id="Node000004" class="node">
<title>Node4</title>
<g id="a_Node000004"><a xlink:href="../../d9/d45/class_q_c_string.html" target="_top" xlink:title="This is an alternative implementation of QCString.">
<polygon fill="white" stroke="#666666" points="68.95,-275 9.95,-275 9.95,-256 68.95,-256 68.95,-275"/>
<text text-anchor="middle" x="39.45" y="-263" font-family="Helvetica,sans-Serif" font-size="10.00">QCString</text>
</a>
</g>
</g>
<!-- Node4&#45;&gt;Node1 -->
<g id="edge4_Node000001_Node000004" class="edge">
<title>Node4&#45;&gt;Node1</title>
<g id="a_edge4_Node000001_Node000004"><a xlink:title=" ">
<path fill="none" stroke="#9a32cd" stroke-dasharray="5,2" d="M29.76,-246.71C14.68,-216.62 -11.06,-153.96 5.45,-103 16.95,-67.54 47.69,-34.27 63.22,-19.11"/>
<polygon fill="#9a32cd" stroke="#9a32cd" points="26.84,-248.68 34.57,-255.93 33.05,-245.44 26.84,-248.68"/>
</a>
</g>
<text text-anchor="middle" x="28.45" y="-106" font-family="Helvetica,sans-Serif" font-size="10.00" fill="grey"> m_prefix</text>
</g>
<!-- Node4&#45;&gt;Node2 -->
<g id="edge3_Node000002_Node000004" class="edge">
<title>Node4&#45;&gt;Node2</title>
<g id="a_edge3_Node000002_Node000004"><a xlink:title=" ">
<path fill="none" stroke="#9a32cd" stroke-dasharray="5,2" d="M57.15,-249.21C77.73,-231.87 113.16,-203.35 146.45,-183 162.32,-173.3 181.42,-164.33 195.66,-158.11"/>
<polygon fill="#9a32cd" stroke="#9a32cd" points="54.63,-246.76 49.29,-255.9 59.17,-252.09 54.63,-246.76"/>
</a>
</g>
<text text-anchor="middle" x="180.45" y="-230" font-family="Helvetica,sans-Serif" font-size="10.00" fill="grey"> m_absPath</text>
<text text-anchor="middle" x="180.45" y="-219" font-family="Helvetica,sans-Serif" font-size="10.00" fill="grey">m_baseName</text>
<text text-anchor="middle" x="180.45" y="-208" font-family="Helvetica,sans-Serif" font-size="10.00" fill="grey">m_fileName</text>
<text text-anchor="middle" x="180.45" y="-197" font-family="Helvetica,sans-Serif" font-size="10.00" fill="grey">m_relPath</text>
<text text-anchor="middle" x="180.45" y="-186" font-family="Helvetica,sans-Serif" font-size="10.00" fill="grey">m_theGraph</text>
</g>
<!-- Node4&#45;&gt;Node5 -->
<g id="edge7_Node000005_Node000004" class="edge">
<title>Node4&#45;&gt;Node5</title>
<g id="a_edge7_Node000005_Node000004"><a xlink:title=" ">
<path fill="none" stroke="#9a32cd" stroke-dasharray="5,2" d="M39.02,-245.74C38.83,-219.8 39.99,-171.7 49.45,-132 53.57,-114.75 62.36,-95.94 67.8,-85.24"/>
<polygon fill="#9a32cd" stroke="#9a32cd" points="35.52,-246.04 39.17,-255.99 42.52,-245.93 35.52,-246.04"/>
</a>
</g>
<text text-anchor="middle" x="72.95" y="-157" font-family="Helvetica,sans-Serif" font-size="10.00" fill="grey"> m_label</text>
<text text-anchor="middle" x="72.95" y="-146" font-family="Helvetica,sans-Serif" font-size="10.00" fill="grey">m_tooltip</text>
<text text-anchor="middle" x="72.95" y="-135" font-family="Helvetica,sans-Serif" font-size="10.00" fill="grey">m_url</text>
</g>
<!-- Node5&#45;&gt;Node1 -->
<g id="edge5_Node000001_Node000005" class="edge">
<title>Node5&#45;&gt;Node1</title>
<g id="a_edge5_Node000001_Node000005"><a xlink:title=" ">
<path fill="none" stroke="#9a32cd" stroke-dasharray="5,2" d="M72.45,-55.58C72.45,-43.63 72.45,-28.72 72.45,-19.41"/>
<polygon fill="#9a32cd" stroke="#9a32cd" points="68.95,-55.87 72.45,-65.87 75.95,-55.87 68.95,-55.87"/>
</a>
</g>
<text text-anchor="middle" x="126.95" y="-40" font-family="Helvetica,sans-Serif" font-size="10.00" fill="grey"> m_rootSubgraphNode</text>
</g>
<!-- Node6 -->
<g id="Node000006" class="node">
<title>Node6</title>
<g id="a_Node000006"><a xlink:href="../../d1/dcf/class_class_def.html" target="_top" xlink:title="A abstract class representing of a compound symbol.">
<polygon fill="white" stroke="#666666" points="165.45,-158 105.45,-158 105.45,-139 165.45,-139 165.45,-158"/>
<text text-anchor="middle" x="135.45" y="-146" font-family="Helvetica,sans-Serif" font-size="10.00">ClassDef</text>
</a>
</g>
</g>
<!-- Node6&#45;&gt;Node5 -->
<g id="edge8_Node000005_Node000006" class="edge">
<title>Node6&#45;&gt;Node5</title>
<g id="a_edge8_Node000005_Node000006"><a xlink:title=" ">
<path fill="none" stroke="#9a32cd" stroke-dasharray="5,2" d="M96.87,-134.57C87.67,-129.61 78.93,-122.91 73.45,-114 68.13,-105.34 68.93,-93.31 70.36,-85.23"/>
<polygon fill="#9a32cd" stroke="#9a32cd" points="95.6,-137.84 106.13,-138.98 98.6,-131.52 95.6,-137.84"/>
</a>
</g>
<text text-anchor="middle" x="103.95" y="-106" font-family="Helvetica,sans-Serif" font-size="10.00" fill="grey"> m_classDef</text>
</g>
<!-- Node7 -->
<g id="Node000007" class="node">
<title>Node7</title>
<g id="a_Node000007"><a xlink:href="../../d5/dcc/class_definition.html" target="_top" xlink:title="The common base class of all entity definitions found in the sources.">
<polygon fill="white" stroke="#666666" points="187.45,-275 123.45,-275 123.45,-256 187.45,-256 187.45,-275"/>
<text text-anchor="middle" x="155.45" y="-263" font-family="Helvetica,sans-Serif" font-size="10.00">Definition</text>
</a>
</g>
</g>
<!-- Node7&#45;&gt;Node6 -->
<g id="edge9_Node000006_Node000007" class="edge">
<title>Node7&#45;&gt;Node6</title>
<g id="a_edge9_Node000006_Node000007"><a xlink:title=" ">
<path fill="none" stroke="#63b8ff" d="M152.31,-245.96C149.5,-229.44 145.24,-204.6 141.45,-183 139.96,-174.5 138.22,-164.8 137,-158.03"/>
<polygon fill="#63b8ff" stroke="#63b8ff" points="148.88,-246.66 154,-255.93 155.78,-245.49 148.88,-246.66"/>
</a>
</g>
</g>
</g>
</svg>
