<?xml version="1.0" encoding="UTF-8" standalone="no"?>
<!DOCTYPE svg PUBLIC "-//W3C//DTD SVG 1.1//EN"
 "http://www.w3.org/Graphics/SVG/1.1/DTD/svg11.dtd">
<!-- Generated by graphviz version 2.43.0 (0)
 -->
<!-- Title: fmt::formatter&lt; MethodTypes &gt; Pages: 1 -->
<svg width="181pt" height="160pt"
 viewBox="0.00 0.00 181.00 160.00" xmlns="http://www.w3.org/2000/svg" xmlns:xlink="http://www.w3.org/1999/xlink">
<g id="graph0" class="graph" transform="scale(1 1) rotate(0) translate(4 156)">
<title>fmt::formatter&lt; MethodTypes &gt;</title>
<!-- Node1 -->
<g id="Node000001" class="node">
<title>Node1</title>
<g id="a_Node000001"><a xlink:title="adds support for formatting MethodTypes">
<polygon fill="#999999" stroke="#666666" points="173,-19 0,-19 0,0 173,0 173,-19"/>
<text text-anchor="middle" x="86.5" y="-7" font-family="Helvetica,sans-Serif" font-size="10.00">fmt::formatter&lt; MethodTypes &gt;</text>
</a>
</g>
</g>
<!-- Node2 -->
<g id="Node000002" class="node">
<title>Node2</title>
<g id="a_Node000002"><a xlink:href="../../db/d75/structfmt_1_1formatter.html" target="_top" xlink:title=" ">
<polygon fill="white" stroke="#666666" points="143,-86 30,-86 30,-56 143,-56 143,-86"/>
<text text-anchor="start" x="38" y="-74" font-family="Helvetica,sans-Serif" font-size="10.00">fmt::formatter&lt; std</text>
<text text-anchor="middle" x="86.5" y="-63" font-family="Helvetica,sans-Serif" font-size="10.00">::string &gt;</text>
</a>
</g>
</g>
<!-- Node2&#45;&gt;Node1 -->
<g id="edge1_Node000001_Node000002" class="edge">
<title>Node2&#45;&gt;Node1</title>
<g id="a_edge1_Node000001_Node000002"><a xlink:title=" ">
<path fill="none" stroke="#63b8ff" d="M86.5,-45.79C86.5,-36.36 86.5,-26.15 86.5,-19.16"/>
<polygon fill="#63b8ff" stroke="#63b8ff" points="83,-45.9 86.5,-55.9 90,-45.9 83,-45.9"/>
</a>
</g>
</g>
<!-- Node3 -->
<g id="Node000003" class="node">
<title>Node3</title>
<g id="a_Node000003"><a xlink:href="../../db/d75/structfmt_1_1formatter.html" target="_top" xlink:title=" ">
<polygon fill="white" stroke="#666666" points="144,-152 29,-152 29,-133 144,-133 144,-152"/>
<text text-anchor="middle" x="86.5" y="-140" font-family="Helvetica,sans-Serif" font-size="10.00">fmt::formatter&lt; T &gt;</text>
</a>
</g>
</g>
<!-- Node3&#45;&gt;Node2 -->
<g id="edge2_Node000002_Node000003" class="edge">
<title>Node3&#45;&gt;Node2</title>
<g id="a_edge2_Node000002_Node000003"><a xlink:title=" ">
<path fill="none" stroke="orange" stroke-dasharray="5,2" d="M86.5,-122.71C86.5,-111.19 86.5,-96.68 86.5,-86.14"/>
<polygon fill="orange" stroke="orange" points="83,-122.98 86.5,-132.98 90,-122.98 83,-122.98"/>
</a>
</g>
<text text-anchor="middle" x="124" y="-107" font-family="Helvetica,sans-Serif" font-size="10.00" fill="grey"> &lt; std::string &gt;</text>
</g>
</g>
</svg>
