<?xml version="1.0" encoding="UTF-8" standalone="no"?>
<!DOCTYPE svg PUBLIC "-//W3C//DTD SVG 1.1//EN"
 "http://www.w3.org/Graphics/SVG/1.1/DTD/svg11.dtd">
<!-- Generated by graphviz version 2.43.0 (0)
 -->
<!-- Title: src/dotclassgraph.h Pages: 1 -->
<!--zoomable 412 -->

<svg id="main" version="1.1" xmlns="http://www.w3.org/2000/svg" xmlns:xlink="http://www.w3.org/1999/xlink" xml:space="preserve" onload="init(evt)">
<style type="text/css"><![CDATA[
.node, .edge {opacity: 0.7;}
.node.selected, .edge.selected {opacity: 1;}
.edge:hover path { stroke: red; }
.edge:hover polygon { stroke: red; fill: red; }
]]></style>

<defs>
  <circle id="rim" cx="0" cy="0" r="7"/>
  <circle id="rim2" cx="0" cy="0" r="3.5"/>
  <g id="zoomPlus">
    <use xlink:href="#rim" fill="#404040"><set attributeName="fill" to="#808080" begin="zoomplus.mouseover" end="zoomplus.mouseout"/></use>
    <path d="M-4,0h8M0,-4v8" fill="none" stroke="white" stroke-width="1.5" pointer-events="none"/>
  </g>
  <g id="zoomMin">
    <use xlink:href="#rim" fill="#404040"><set attributeName="fill" to="#808080" begin="zoomminus.mouseover" end="zoomminus.mouseout"/></use>
    <path d="M-4,0h8" fill="none" stroke="white" stroke-width="1.5" pointer-events="none"/>
  </g>
  <g id="arrowUp" transform="translate(30 24)">
    <use xlink:href="#rim"/>
    <path pointer-events="none" fill="none" stroke="white" stroke-width="1.5" d="M0,-3.0v7 M-2.5,-0.5L0,-3.0L2.5,-0.5"/>
  </g>
  <g id="arrowRight" transform="rotate(90) translate(36 -43)">
    <use xlink:href="#rim"/>
    <path pointer-events="none" fill="none" stroke="white" stroke-width="1.5" d="M0,-3.0v7 M-2.5,-0.5L0,-3.0L2.5,-0.5"/>
  </g>
  <g id="arrowDown" transform="rotate(180) translate(-30 -48)">
    <use xlink:href="#rim"/>
    <path pointer-events="none" fill="none" stroke="white" stroke-width="1.5" d="M0,-3.0v7 M-2.5,-0.5L0,-3.0L2.5,-0.5"/>
  </g>
  <g id="arrowLeft" transform="rotate(270) translate(-36 17)">
    <use xlink:href="#rim"/>
    <path pointer-events="none" fill="none" stroke="white" stroke-width="1.5" d="M0,-3.0v7 M-2.5,-0.5L0,-3.0L2.5,-0.5"/>
  </g>
  <g id="resetDef">
    <use xlink:href="#rim2" fill="#404040"><set attributeName="fill" to="#808080" begin="reset.mouseover" end="reset.mouseout"/></use>
  </g>
</defs>
<script type="application/ecmascript">
var viewWidth = 1184;
var viewHeight = 412;
var sectionId = 'dynsection-0';
</script>
<script type="application/ecmascript" xlink:href="../../svg.min.js"/>
<svg id="graph" class="graph">
<g id="viewport">
<title>src/dotclassgraph.h</title>
<!-- Node1 -->
<g id="Node000001" class="node">
<title>Node1</title>
<g id="a_Node000001"><a xlink:title=" ">
<polygon fill="#999999" stroke="#666666" points="1083.55,-404 972.55,-404 972.55,-385 1083.55,-385 1083.55,-404"/>
<text text-anchor="middle" x="1028.05" y="-392" font-family="Helvetica,sans-Serif" font-size="10.00">src/dotclassgraph.h</text>
</a>
</g>
</g>
<!-- Node2 -->
<g id="Node000002" class="node">
<title>Node2</title>
<g id="a_Node000002"><a xlink:title=" ">
<polygon fill="#e0e0e0" stroke="#999999" points="986.05,-129 928.05,-129 928.05,-110 986.05,-110 986.05,-129"/>
<text text-anchor="middle" x="957.05" y="-117" font-family="Helvetica,sans-Serif" font-size="10.00">memory</text>
</a>
</g>
</g>
<!-- Node1&#45;&gt;Node2 -->
<g id="edge1_Node000001_Node000002" class="edge">
<title>Node1&#45;&gt;Node2</title>
<g id="a_edge1_Node000001_Node000002"><a xlink:title=" ">
<path fill="none" stroke="#63b8ff" d="M1041.23,-384.84C1064.41,-368.45 1110.05,-330.47 1110.05,-285.5 1110.05,-285.5 1110.05,-285.5 1110.05,-228.5 1110.05,-172.73 1041.36,-143.21 996.03,-129.8"/>
<polygon fill="#63b8ff" stroke="#63b8ff" points="996.76,-126.37 986.19,-127.03 994.87,-133.11 996.76,-126.37"/>
</a>
</g>
</g>
<!-- Node3 -->
<g id="Node000003" class="node">
<title>Node3</title>
<g id="a_Node000003"><a xlink:href="../../d1/da6/classdef_8h.html" target="_top" xlink:title=" ">
<polygon fill="white" stroke="#666666" points="648.55,-349 583.55,-349 583.55,-330 648.55,-330 648.55,-349"/>
<text text-anchor="middle" x="616.05" y="-337" font-family="Helvetica,sans-Serif" font-size="10.00">classdef.h</text>
</a>
</g>
</g>
<!-- Node1&#45;&gt;Node3 -->
<g id="edge2_Node000001_Node000003" class="edge">
<title>Node1&#45;&gt;Node3</title>
<g id="a_edge2_Node000001_Node000003"><a xlink:title=" ">
<path fill="none" stroke="#63b8ff" d="M972.49,-386.35C889.21,-375.64 733.79,-355.65 658.76,-345.99"/>
<polygon fill="#63b8ff" stroke="#63b8ff" points="659.09,-342.51 648.72,-344.7 658.19,-349.45 659.09,-342.51"/>
</a>
</g>
</g>
<!-- Node29 -->
<g id="Node000029" class="node">
<title>Node29</title>
<g id="a_Node000029"><a xlink:href="../../d8/d3b/dotnode_8h.html" target="_top" xlink:title=" ">
<polygon fill="white" stroke="#666666" points="927.55,-294 862.55,-294 862.55,-275 927.55,-275 927.55,-294"/>
<text text-anchor="middle" x="895.05" y="-282" font-family="Helvetica,sans-Serif" font-size="10.00">dotnode.h</text>
</a>
</g>
</g>
<!-- Node1&#45;&gt;Node29 -->
<g id="edge54_Node000001_Node000029" class="edge">
<title>Node1&#45;&gt;Node29</title>
<g id="a_edge54_Node000001_Node000029"><a xlink:title=" ">
<path fill="none" stroke="#63b8ff" d="M1017.17,-384.66C994.45,-366.22 941.78,-323.45 913.61,-300.57"/>
<polygon fill="#63b8ff" stroke="#63b8ff" points="915.68,-297.75 905.71,-294.16 911.27,-303.18 915.68,-297.75"/>
</a>
</g>
</g>
<!-- Node32 -->
<g id="Node000032" class="node">
<title>Node32</title>
<g id="a_Node000032"><a xlink:href="../../d0/daa/dotgraph_8h.html" target="_top" xlink:title=" ">
<polygon fill="white" stroke="#666666" points="1043.55,-239 974.55,-239 974.55,-220 1043.55,-220 1043.55,-239"/>
<text text-anchor="middle" x="1009.05" y="-227" font-family="Helvetica,sans-Serif" font-size="10.00">dotgraph.h</text>
</a>
</g>
</g>
<!-- Node1&#45;&gt;Node32 -->
<g id="edge69_Node000001_Node000032" class="edge">
<title>Node1&#45;&gt;Node32</title>
<g id="a_edge69_Node000001_Node000032"><a xlink:title=" ">
<path fill="none" stroke="#63b8ff" d="M1027.03,-384.74C1024.07,-359.31 1015.41,-285.08 1011.29,-249.69"/>
<polygon fill="#63b8ff" stroke="#63b8ff" points="1014.71,-248.83 1010.08,-239.31 1007.76,-249.64 1014.71,-248.83"/>
</a>
</g>
</g>
<!-- Node3&#45;&gt;Node2 -->
<g id="edge3_Node000003_Node000002" class="edge">
<title>Node3&#45;&gt;Node2</title>
<g id="a_edge3_Node000003_Node000002"><a xlink:title=" ">
<path fill="none" stroke="#63b8ff" d="M648.74,-336.73C742.66,-330.82 1009.32,-308.13 1053.05,-239 1066.48,-217.77 1042.65,-177.58 1032.05,-165 1020.53,-151.32 1003.67,-140.79 988.86,-133.42"/>
<polygon fill="#63b8ff" stroke="#63b8ff" points="990.03,-130.1 979.49,-129.02 987.06,-136.44 990.03,-130.1"/>
</a>
</g>
</g>
<!-- Node4 -->
<g id="Node000004" class="node">
<title>Node4</title>
<g id="a_Node000004"><a xlink:title=" ">
<polygon fill="#e0e0e0" stroke="#999999" points="446.55,-129 399.55,-129 399.55,-110 446.55,-110 446.55,-129"/>
<text text-anchor="middle" x="423.05" y="-117" font-family="Helvetica,sans-Serif" font-size="10.00">vector</text>
</a>
</g>
</g>
<!-- Node3&#45;&gt;Node4 -->
<g id="edge4_Node000003_Node000004" class="edge">
<title>Node3&#45;&gt;Node4</title>
<g id="a_edge4_Node000003_Node000004"><a xlink:title=" ">
<path fill="none" stroke="#63b8ff" d="M583.33,-333.01C536.64,-323.25 452.32,-298.05 414.05,-239 394.21,-208.38 406.07,-163.52 415.31,-138.7"/>
<polygon fill="#63b8ff" stroke="#63b8ff" points="418.68,-139.7 419.13,-129.11 412.18,-137.11 418.68,-139.7"/>
</a>
</g>
</g>
<!-- Node5 -->
<g id="Node000005" class="node">
<title>Node5</title>
<g id="a_Node000005"><a xlink:title=" ">
<polygon fill="#e0e0e0" stroke="#999999" points="300.05,-184 214.05,-184 214.05,-165 300.05,-165 300.05,-184"/>
<text text-anchor="middle" x="257.05" y="-172" font-family="Helvetica,sans-Serif" font-size="10.00">unordered_set</text>
</a>
</g>
</g>
<!-- Node3&#45;&gt;Node5 -->
<g id="edge5_Node000003_Node000005" class="edge">
<title>Node3&#45;&gt;Node5</title>
<g id="a_edge5_Node000003_Node000005"><a xlink:title=" ">
<path fill="none" stroke="#63b8ff" d="M583.34,-337.48C514.26,-334.73 356.36,-325.13 314.05,-294 280.91,-269.61 266.18,-220.82 260.36,-194.08"/>
<polygon fill="#63b8ff" stroke="#63b8ff" points="263.77,-193.24 258.39,-184.11 256.9,-194.59 263.77,-193.24"/>
</a>
</g>
</g>
<!-- Node6 -->
<g id="Node000006" class="node">
<title>Node6</title>
<g id="a_Node000006"><a xlink:href="../../d5/d75/containers_8h.html" target="_top" xlink:title=" ">
<polygon fill="white" stroke="#666666" points="186.55,-239 109.55,-239 109.55,-220 186.55,-220 186.55,-239"/>
<text text-anchor="middle" x="148.05" y="-227" font-family="Helvetica,sans-Serif" font-size="10.00">containers.h</text>
</a>
</g>
</g>
<!-- Node3&#45;&gt;Node6 -->
<g id="edge6_Node000003_Node000006" class="edge">
<title>Node3&#45;&gt;Node6</title>
<g id="a_edge6_Node000003_Node000006"><a xlink:title=" ">
<path fill="none" stroke="#63b8ff" d="M583.11,-338.67C519,-338.09 373.7,-332.23 259.05,-294 224.77,-282.57 189.22,-260.01 167.86,-245.09"/>
<polygon fill="#63b8ff" stroke="#63b8ff" points="169.8,-242.17 159.62,-239.22 165.74,-247.87 169.8,-242.17"/>
</a>
</g>
</g>
<!-- Node13 -->
<g id="Node000013" class="node">
<title>Node13</title>
<g id="a_Node000013"><a xlink:href="../../df/da1/definition_8h.html" target="_top" xlink:title=" ">
<polygon fill="white" stroke="#666666" points="587.55,-294 516.55,-294 516.55,-275 587.55,-275 587.55,-294"/>
<text text-anchor="middle" x="552.05" y="-282" font-family="Helvetica,sans-Serif" font-size="10.00">definition.h</text>
</a>
</g>
</g>
<!-- Node3&#45;&gt;Node13 -->
<g id="edge15_Node000003_Node000013" class="edge">
<title>Node3&#45;&gt;Node13</title>
<g id="a_edge15_Node000003_Node000013"><a xlink:title=" ">
<path fill="none" stroke="#63b8ff" d="M605.77,-329.98C596.22,-322.07 581.77,-310.11 570.27,-300.58"/>
<polygon fill="#63b8ff" stroke="#63b8ff" points="572.46,-297.85 562.52,-294.17 567.99,-303.24 572.46,-297.85"/>
</a>
</g>
</g>
<!-- Node26 -->
<g id="Node000026" class="node">
<title>Node26</title>
<g id="a_Node000026"><a xlink:href="../../df/d9b/arguments_8h.html" target="_top" xlink:title=" ">
<polygon fill="white" stroke="#666666" points="758.05,-184 680.05,-184 680.05,-165 758.05,-165 758.05,-184"/>
<text text-anchor="middle" x="719.05" y="-172" font-family="Helvetica,sans-Serif" font-size="10.00">arguments.h</text>
</a>
</g>
</g>
<!-- Node3&#45;&gt;Node26 -->
<g id="edge44_Node000003_Node000026" class="edge">
<title>Node3&#45;&gt;Node26</title>
<g id="a_edge44_Node000003_Node000026"><a xlink:title=" ">
<path fill="none" stroke="#63b8ff" d="M615.29,-329.79C613.91,-308.77 613.16,-254.42 638.05,-220 648.64,-205.36 665.59,-194.98 681.25,-187.96"/>
<polygon fill="#63b8ff" stroke="#63b8ff" points="682.88,-191.08 690.77,-184.01 680.19,-184.61 682.88,-191.08"/>
</a>
</g>
</g>
<!-- Node27 -->
<g id="Node000027" class="node">
<title>Node27</title>
<g id="a_Node000027"><a xlink:href="../../d9/d11/membergroup_8h.html" target="_top" xlink:title=" ">
<polygon fill="white" stroke="#666666" points="739.55,-294 644.55,-294 644.55,-275 739.55,-275 739.55,-294"/>
<text text-anchor="middle" x="692.05" y="-282" font-family="Helvetica,sans-Serif" font-size="10.00">membergroup.h</text>
</a>
</g>
</g>
<!-- Node3&#45;&gt;Node27 -->
<g id="edge47_Node000003_Node000027" class="edge">
<title>Node3&#45;&gt;Node27</title>
<g id="a_edge47_Node000003_Node000027"><a xlink:title=" ">
<path fill="none" stroke="#63b8ff" d="M628.26,-329.98C639.83,-321.92 657.43,-309.65 671.21,-300.03"/>
<polygon fill="#63b8ff" stroke="#63b8ff" points="673.42,-302.76 679.62,-294.17 669.41,-297.02 673.42,-302.76"/>
</a>
</g>
</g>
<!-- Node28 -->
<g id="Node000028" class="node">
<title>Node28</title>
<g id="a_Node000028"><a xlink:title=" ">
<polygon fill="#e0e0e0" stroke="#999999" points="844.55,-294 757.55,-294 757.55,-275 844.55,-275 844.55,-294"/>
<text text-anchor="middle" x="801.05" y="-282" font-family="Helvetica,sans-Serif" font-size="10.00">configvalues.h</text>
</a>
</g>
</g>
<!-- Node3&#45;&gt;Node28 -->
<g id="edge53_Node000003_Node000028" class="edge">
<title>Node3&#45;&gt;Node28</title>
<g id="a_edge53_Node000003_Node000028"><a xlink:title=" ">
<path fill="none" stroke="#63b8ff" d="M645.78,-329.98C677.1,-321.01 726.62,-306.82 761.29,-296.89"/>
<polygon fill="#63b8ff" stroke="#63b8ff" points="762.45,-300.2 771.1,-294.08 760.52,-293.47 762.45,-300.2"/>
</a>
</g>
</g>
<!-- Node6&#45;&gt;Node4 -->
<g id="edge7_Node000006_Node000004" class="edge">
<title>Node6&#45;&gt;Node4</title>
<g id="a_edge7_Node000006_Node000004"><a xlink:title=" ">
<path fill="none" stroke="#63b8ff" d="M153.13,-219.9C161.85,-205.95 181.08,-178.59 205.05,-165 275.22,-125.22 306.03,-145.78 389.42,-128.92"/>
<polygon fill="#63b8ff" stroke="#63b8ff" points="390.26,-132.32 399.3,-126.8 388.79,-125.48 390.26,-132.32"/>
</a>
</g>
</g>
<!-- Node6&#45;&gt;Node5 -->
<g id="edge12_Node000006_Node000005" class="edge">
<title>Node6&#45;&gt;Node5</title>
<g id="a_edge12_Node000006_Node000005"><a xlink:title=" ">
<path fill="none" stroke="#63b8ff" d="M165.56,-219.98C183.02,-211.5 210.06,-198.35 230.22,-188.54"/>
<polygon fill="#63b8ff" stroke="#63b8ff" points="231.76,-191.69 239.22,-184.17 228.7,-185.4 231.76,-191.69"/>
</a>
</g>
</g>
<!-- Node7 -->
<g id="Node000007" class="node">
<title>Node7</title>
<g id="a_Node000007"><a xlink:title=" ">
<polygon fill="#e0e0e0" stroke="#999999" points="968.05,-19 924.05,-19 924.05,0 968.05,0 968.05,-19"/>
<text text-anchor="middle" x="946.05" y="-7" font-family="Helvetica,sans-Serif" font-size="10.00">string</text>
</a>
</g>
</g>
<!-- Node6&#45;&gt;Node7 -->
<g id="edge8_Node000006_Node000007" class="edge">
<title>Node6&#45;&gt;Node7</title>
<g id="a_edge8_Node000006_Node000007"><a xlink:title=" ">
<path fill="none" stroke="#63b8ff" d="M150.3,-219.69C154.08,-206.42 162.82,-181.13 178.05,-165 213.14,-127.84 232.27,-130.6 279.05,-110 347.87,-79.69 365.5,-70.63 439.05,-55 530.48,-35.58 817.07,-17.86 913.8,-12.3"/>
<polygon fill="#63b8ff" stroke="#63b8ff" points="914.07,-15.79 923.86,-11.73 913.67,-8.8 914.07,-15.79"/>
</a>
</g>
</g>
<!-- Node8 -->
<g id="Node000008" class="node">
<title>Node8</title>
<g id="a_Node000008"><a xlink:title=" ">
<polygon fill="#e0e0e0" stroke="#999999" points="534.55,-74 461.55,-74 461.55,-55 534.55,-55 534.55,-74"/>
<text text-anchor="middle" x="498.05" y="-62" font-family="Helvetica,sans-Serif" font-size="10.00">string_view</text>
</a>
</g>
</g>
<!-- Node6&#45;&gt;Node8 -->
<g id="edge9_Node000006_Node000008" class="edge">
<title>Node6&#45;&gt;Node8</title>
<g id="a_edge9_Node000006_Node000008"><a xlink:title=" ">
<path fill="none" stroke="#63b8ff" d="M109.2,-224.82C57.69,-218.43 -23.37,-202.2 7.05,-165 62.99,-96.59 339.46,-74.09 451.14,-67.72"/>
<polygon fill="#63b8ff" stroke="#63b8ff" points="451.63,-71.2 461.42,-67.15 451.24,-64.21 451.63,-71.2"/>
</a>
</g>
</g>
<!-- Node9 -->
<g id="Node000009" class="node">
<title>Node9</title>
<g id="a_Node000009"><a xlink:title=" ">
<polygon fill="#e0e0e0" stroke="#999999" points="120.05,-184 88.05,-184 88.05,-165 120.05,-165 120.05,-184"/>
<text text-anchor="middle" x="104.05" y="-172" font-family="Helvetica,sans-Serif" font-size="10.00">set</text>
</a>
</g>
</g>
<!-- Node6&#45;&gt;Node9 -->
<g id="edge10_Node000006_Node000009" class="edge">
<title>Node6&#45;&gt;Node9</title>
<g id="a_edge10_Node000006_Node000009"><a xlink:title=" ">
<path fill="none" stroke="#63b8ff" d="M140.79,-219.75C134.51,-212.18 125.26,-201.05 117.62,-191.84"/>
<polygon fill="#63b8ff" stroke="#63b8ff" points="120.26,-189.55 111.18,-184.09 114.88,-194.02 120.26,-189.55"/>
</a>
</g>
</g>
<!-- Node10 -->
<g id="Node000010" class="node">
<title>Node10</title>
<g id="a_Node000010"><a xlink:title=" ">
<polygon fill="#e0e0e0" stroke="#999999" points="928.05,-184 890.05,-184 890.05,-165 928.05,-165 928.05,-184"/>
<text text-anchor="middle" x="909.05" y="-172" font-family="Helvetica,sans-Serif" font-size="10.00">map</text>
</a>
</g>
</g>
<!-- Node6&#45;&gt;Node10 -->
<g id="edge11_Node000006_Node000010" class="edge">
<title>Node6&#45;&gt;Node10</title>
<g id="a_edge11_Node000006_Node000010"><a xlink:title=" ">
<path fill="none" stroke="#63b8ff" d="M186.57,-225.82C320.18,-216.51 761.91,-185.75 879.88,-177.53"/>
<polygon fill="#63b8ff" stroke="#63b8ff" points="880.23,-181.02 889.96,-176.83 879.74,-174.03 880.23,-181.02"/>
</a>
</g>
</g>
<!-- Node11 -->
<g id="Node000011" class="node">
<title>Node11</title>
<g id="a_Node000011"><a xlink:title=" ">
<polygon fill="#e0e0e0" stroke="#999999" points="381.55,-129 288.55,-129 288.55,-110 381.55,-110 381.55,-129"/>
<text text-anchor="middle" x="335.05" y="-117" font-family="Helvetica,sans-Serif" font-size="10.00">unordered_map</text>
</a>
</g>
</g>
<!-- Node6&#45;&gt;Node11 -->
<g id="edge13_Node000006_Node000011" class="edge">
<title>Node6&#45;&gt;Node11</title>
<g id="a_edge13_Node000006_Node000011"><a xlink:title=" ">
<path fill="none" stroke="#63b8ff" d="M109.53,-223.67C61.14,-216.09 -12.22,-198.66 17.05,-165 50.25,-126.83 196.2,-120.42 278.35,-119.91"/>
<polygon fill="#63b8ff" stroke="#63b8ff" points="278.54,-123.41 288.53,-119.88 278.52,-116.41 278.54,-123.41"/>
</a>
</g>
</g>
<!-- Node12 -->
<g id="Node000012" class="node">
<title>Node12</title>
<g id="a_Node000012"><a xlink:title=" ">
<polygon fill="#e0e0e0" stroke="#999999" points="69.55,-184 26.55,-184 26.55,-165 69.55,-165 69.55,-184"/>
<text text-anchor="middle" x="48.05" y="-172" font-family="Helvetica,sans-Serif" font-size="10.00">stack</text>
</a>
</g>
</g>
<!-- Node6&#45;&gt;Node12 -->
<g id="edge14_Node000006_Node000012" class="edge">
<title>Node6&#45;&gt;Node12</title>
<g id="a_edge14_Node000006_Node000012"><a xlink:title=" ">
<path fill="none" stroke="#63b8ff" d="M131.98,-219.98C116.19,-211.61 91.83,-198.7 73.42,-188.95"/>
<polygon fill="#63b8ff" stroke="#63b8ff" points="74.89,-185.76 64.41,-184.17 71.61,-191.95 74.89,-185.76"/>
</a>
</g>
</g>
<!-- Node13&#45;&gt;Node4 -->
<g id="edge16_Node000013_Node000004" class="edge">
<title>Node13&#45;&gt;Node4</title>
<g id="a_edge16_Node000013_Node000004"><a xlink:title=" ">
<path fill="none" stroke="#63b8ff" d="M516.33,-281.14C487.46,-277.16 448.38,-266.64 428.05,-239 406.48,-209.67 412.32,-164.32 418,-139.07"/>
<polygon fill="#63b8ff" stroke="#63b8ff" points="421.41,-139.85 420.42,-129.3 414.62,-138.17 421.41,-139.85"/>
</a>
</g>
</g>
<!-- Node14 -->
<g id="Node000014" class="node">
<title>Node14</title>
<g id="a_Node000014"><a xlink:href="../../d9/d49/types_8h.html" target="_top" xlink:title="This file contains a number of basic enums and types.">
<polygon fill="white" stroke="#666666" points="699.55,-239 646.55,-239 646.55,-220 699.55,-220 699.55,-239"/>
<text text-anchor="middle" x="673.05" y="-227" font-family="Helvetica,sans-Serif" font-size="10.00">types.h</text>
</a>
</g>
</g>
<!-- Node13&#45;&gt;Node14 -->
<g id="edge17_Node000013_Node000014" class="edge">
<title>Node13&#45;&gt;Node14</title>
<g id="a_edge17_Node000013_Node000014"><a xlink:title=" ">
<path fill="none" stroke="#63b8ff" d="M571.49,-274.98C591.05,-266.42 621.43,-253.11 643.88,-243.28"/>
<polygon fill="#63b8ff" stroke="#63b8ff" points="645.5,-246.39 653.26,-239.17 642.69,-239.98 645.5,-246.39"/>
</a>
</g>
</g>
<!-- Node24 -->
<g id="Node000024" class="node">
<title>Node24</title>
<g id="a_Node000024"><a xlink:href="../../d1/d02/reflist_8h.html" target="_top" xlink:title=" ">
<polygon fill="white" stroke="#666666" points="587.55,-239 534.55,-239 534.55,-220 587.55,-220 587.55,-239"/>
<text text-anchor="middle" x="561.05" y="-227" font-family="Helvetica,sans-Serif" font-size="10.00">reflist.h</text>
</a>
</g>
</g>
<!-- Node13&#45;&gt;Node24 -->
<g id="edge31_Node000013_Node000024" class="edge">
<title>Node13&#45;&gt;Node24</title>
<g id="a_edge31_Node000013_Node000024"><a xlink:title=" ">
<path fill="none" stroke="#63b8ff" d="M553.54,-274.75C554.72,-267.8 556.41,-257.85 557.89,-249.13"/>
<polygon fill="#63b8ff" stroke="#63b8ff" points="561.37,-249.53 559.59,-239.09 554.47,-248.36 561.37,-249.53"/>
</a>
</g>
</g>
<!-- Node15 -->
<g id="Node000015" class="node">
<title>Node15</title>
<g id="a_Node000015"><a xlink:href="../../d7/d5c/qcstring_8h.html" target="_top" xlink:title=" ">
<polygon fill="white" stroke="#666666" points="796.55,-129 731.55,-129 731.55,-110 796.55,-110 796.55,-129"/>
<text text-anchor="middle" x="764.05" y="-117" font-family="Helvetica,sans-Serif" font-size="10.00">qcstring.h</text>
</a>
</g>
</g>
<!-- Node14&#45;&gt;Node15 -->
<g id="edge18_Node000014_Node000015" class="edge">
<title>Node14&#45;&gt;Node15</title>
<g id="a_edge18_Node000014_Node000015"><a xlink:title=" ">
<path fill="none" stroke="#63b8ff" d="M699.72,-223.92C721.99,-218.53 752.37,-207.19 767.05,-184 775.53,-170.61 773.55,-152.26 770.18,-138.73"/>
<polygon fill="#63b8ff" stroke="#63b8ff" points="773.53,-137.7 767.35,-129.1 766.81,-139.68 773.53,-137.7"/>
</a>
</g>
</g>
<!-- Node15&#45;&gt;Node7 -->
<g id="edge19_Node000015_Node000007" class="edge">
<title>Node15&#45;&gt;Node7</title>
<g id="a_edge19_Node000015_Node000007"><a xlink:title=" ">
<path fill="none" stroke="#63b8ff" d="M796.61,-116.16C871.95,-110.42 1053.23,-94.59 1071.05,-74 1100.09,-40.45 1024.38,-22.48 978.39,-14.92"/>
<polygon fill="#63b8ff" stroke="#63b8ff" points="978.66,-11.42 968.24,-13.34 977.58,-18.33 978.66,-11.42"/>
</a>
</g>
</g>
<!-- Node15&#45;&gt;Node8 -->
<g id="edge20_Node000015_Node000008" class="edge">
<title>Node15&#45;&gt;Node8</title>
<g id="a_edge20_Node000015_Node000008"><a xlink:title=" ">
<path fill="none" stroke="#63b8ff" d="M731.43,-112C684.65,-102.68 598.23,-85.46 544.7,-74.79"/>
<polygon fill="#63b8ff" stroke="#63b8ff" points="545.27,-71.34 534.78,-72.82 543.9,-78.2 545.27,-71.34"/>
</a>
</g>
</g>
<!-- Node16 -->
<g id="Node000016" class="node">
<title>Node16</title>
<g id="a_Node000016"><a xlink:title=" ">
<polygon fill="#e0e0e0" stroke="#999999" points="617.05,-74 553.05,-74 553.05,-55 617.05,-55 617.05,-74"/>
<text text-anchor="middle" x="585.05" y="-62" font-family="Helvetica,sans-Serif" font-size="10.00">algorithm</text>
</a>
</g>
</g>
<!-- Node15&#45;&gt;Node16 -->
<g id="edge21_Node000015_Node000016" class="edge">
<title>Node15&#45;&gt;Node16</title>
<g id="a_edge21_Node000015_Node000016"><a xlink:title=" ">
<path fill="none" stroke="#63b8ff" d="M735.29,-109.98C705.11,-101.05 657.48,-86.94 623.95,-77.02"/>
<polygon fill="#63b8ff" stroke="#63b8ff" points="624.62,-73.57 614.04,-74.08 622.63,-80.28 624.62,-73.57"/>
</a>
</g>
</g>
<!-- Node17 -->
<g id="Node000017" class="node">
<title>Node17</title>
<g id="a_Node000017"><a xlink:title=" ">
<polygon fill="#e0e0e0" stroke="#999999" points="684.55,-74 635.55,-74 635.55,-55 684.55,-55 684.55,-74"/>
<text text-anchor="middle" x="660.05" y="-62" font-family="Helvetica,sans-Serif" font-size="10.00">cctype</text>
</a>
</g>
</g>
<!-- Node15&#45;&gt;Node17 -->
<g id="edge22_Node000015_Node000017" class="edge">
<title>Node15&#45;&gt;Node17</title>
<g id="a_edge22_Node000015_Node000017"><a xlink:title=" ">
<path fill="none" stroke="#63b8ff" d="M747.34,-109.98C730.84,-101.57 705.35,-88.59 686.17,-78.81"/>
<polygon fill="#63b8ff" stroke="#63b8ff" points="687.56,-75.59 677.07,-74.17 684.39,-81.83 687.56,-75.59"/>
</a>
</g>
</g>
<!-- Node18 -->
<g id="Node000018" class="node">
<title>Node18</title>
<g id="a_Node000018"><a xlink:title=" ">
<polygon fill="#e0e0e0" stroke="#999999" points="855.05,-74 805.05,-74 805.05,-55 855.05,-55 855.05,-74"/>
<text text-anchor="middle" x="830.05" y="-62" font-family="Helvetica,sans-Serif" font-size="10.00">cstring</text>
</a>
</g>
</g>
<!-- Node15&#45;&gt;Node18 -->
<g id="edge23_Node000015_Node000018" class="edge">
<title>Node15&#45;&gt;Node18</title>
<g id="a_edge23_Node000015_Node000018"><a xlink:title=" ">
<path fill="none" stroke="#63b8ff" d="M774.66,-109.98C784.51,-102.07 799.4,-90.11 811.27,-80.58"/>
<polygon fill="#63b8ff" stroke="#63b8ff" points="813.65,-83.16 819.25,-74.17 809.27,-77.7 813.65,-83.16"/>
</a>
</g>
</g>
<!-- Node19 -->
<g id="Node000019" class="node">
<title>Node19</title>
<g id="a_Node000019"><a xlink:title=" ">
<polygon fill="#e0e0e0" stroke="#999999" points="919.05,-74 873.05,-74 873.05,-55 919.05,-55 919.05,-74"/>
<text text-anchor="middle" x="896.05" y="-62" font-family="Helvetica,sans-Serif" font-size="10.00">cstdio</text>
</a>
</g>
</g>
<!-- Node15&#45;&gt;Node19 -->
<g id="edge24_Node000015_Node000019" class="edge">
<title>Node15&#45;&gt;Node19</title>
<g id="a_edge24_Node000015_Node000019"><a xlink:title=" ">
<path fill="none" stroke="#63b8ff" d="M785.26,-109.98C806.78,-101.34 840.33,-87.87 864.88,-78.02"/>
<polygon fill="#63b8ff" stroke="#63b8ff" points="866.48,-81.14 874.46,-74.17 863.87,-74.65 866.48,-81.14"/>
</a>
</g>
</g>
<!-- Node20 -->
<g id="Node000020" class="node">
<title>Node20</title>
<g id="a_Node000020"><a xlink:title=" ">
<polygon fill="#e0e0e0" stroke="#999999" points="986.55,-74 937.55,-74 937.55,-55 986.55,-55 986.55,-74"/>
<text text-anchor="middle" x="962.05" y="-62" font-family="Helvetica,sans-Serif" font-size="10.00">cstdlib</text>
</a>
</g>
</g>
<!-- Node15&#45;&gt;Node20 -->
<g id="edge25_Node000015_Node000020" class="edge">
<title>Node15&#45;&gt;Node20</title>
<g id="a_edge25_Node000015_Node000020"><a xlink:title=" ">
<path fill="none" stroke="#63b8ff" d="M795.86,-109.98C831.94,-100.33 890.54,-84.64 927.65,-74.71"/>
<polygon fill="#63b8ff" stroke="#63b8ff" points="928.76,-78.04 937.51,-72.07 926.95,-71.27 928.76,-78.04"/>
</a>
</g>
</g>
<!-- Node21 -->
<g id="Node000021" class="node">
<title>Node21</title>
<g id="a_Node000021"><a xlink:title=" ">
<polygon fill="#e0e0e0" stroke="#999999" points="763.05,-19 713.05,-19 713.05,0 763.05,0 763.05,-19"/>
<text text-anchor="middle" x="738.05" y="-7" font-family="Helvetica,sans-Serif" font-size="10.00">cstdint</text>
</a>
</g>
</g>
<!-- Node15&#45;&gt;Node21 -->
<g id="edge26_Node000015_Node000021" class="edge">
<title>Node15&#45;&gt;Node21</title>
<g id="a_edge26_Node000015_Node000021"><a xlink:title=" ">
<path fill="none" stroke="#63b8ff" d="M755.57,-109.85C748,-101.47 737.45,-88.01 733.05,-74 728.49,-59.47 730.28,-42.21 732.91,-29.35"/>
<polygon fill="#63b8ff" stroke="#63b8ff" points="736.38,-29.9 735.3,-19.36 729.57,-28.27 736.38,-29.9"/>
</a>
</g>
</g>
<!-- Node22 -->
<g id="Node000022" class="node">
<title>Node22</title>
<g id="a_Node000022"><a xlink:title=" ">
<polygon fill="#e0e0e0" stroke="#999999" points="1061.55,-74 1004.55,-74 1004.55,-55 1061.55,-55 1061.55,-74"/>
<text text-anchor="middle" x="1033.05" y="-62" font-family="Helvetica,sans-Serif" font-size="10.00">ostream</text>
</a>
</g>
</g>
<!-- Node15&#45;&gt;Node22 -->
<g id="edge27_Node000015_Node000022" class="edge">
<title>Node15&#45;&gt;Node22</title>
<g id="a_edge27_Node000015_Node000022"><a xlink:title=" ">
<path fill="none" stroke="#63b8ff" d="M796.78,-112.61C839.85,-104.77 918.12,-90.24 994.17,-74.34"/>
<polygon fill="#63b8ff" stroke="#63b8ff" points="995.33,-77.67 1004.39,-72.19 993.89,-70.82 995.33,-77.67"/>
</a>
</g>
</g>
<!-- Node23 -->
<g id="Node000023" class="node">
<title>Node23</title>
<g id="a_Node000023"><a xlink:href="../../db/d7c/utf8_8h.html" target="_top" xlink:title="Various UTF8 related helper functions.">
<polygon fill="white" stroke="#666666" points="786.55,-74 741.55,-74 741.55,-55 786.55,-55 786.55,-74"/>
<text text-anchor="middle" x="764.05" y="-62" font-family="Helvetica,sans-Serif" font-size="10.00">utf8.h</text>
</a>
</g>
</g>
<!-- Node15&#45;&gt;Node23 -->
<g id="edge28_Node000015_Node000023" class="edge">
<title>Node15&#45;&gt;Node23</title>
<g id="a_edge28_Node000015_Node000023"><a xlink:title=" ">
<path fill="none" stroke="#63b8ff" d="M764.05,-109.75C764.05,-102.8 764.05,-92.85 764.05,-84.13"/>
<polygon fill="#63b8ff" stroke="#63b8ff" points="767.55,-84.09 764.05,-74.09 760.55,-84.09 767.55,-84.09"/>
</a>
</g>
</g>
<!-- Node23&#45;&gt;Node7 -->
<g id="edge30_Node000023_Node000007" class="edge">
<title>Node23&#45;&gt;Node7</title>
<g id="a_edge30_Node000023_Node000007"><a xlink:title=" ">
<path fill="none" stroke="#63b8ff" d="M786.73,-56.89C818.87,-47.54 877.81,-30.37 914.29,-19.75"/>
<polygon fill="#63b8ff" stroke="#63b8ff" points="915.32,-23.1 923.94,-16.94 913.36,-16.38 915.32,-23.1"/>
</a>
</g>
</g>
<!-- Node23&#45;&gt;Node21 -->
<g id="edge29_Node000023_Node000021" class="edge">
<title>Node23&#45;&gt;Node21</title>
<g id="a_edge29_Node000023_Node000021"><a xlink:title=" ">
<path fill="none" stroke="#63b8ff" d="M759.76,-54.75C756.24,-47.57 751.14,-37.18 746.77,-28.27"/>
<polygon fill="#63b8ff" stroke="#63b8ff" points="749.81,-26.53 742.27,-19.09 743.53,-29.61 749.81,-26.53"/>
</a>
</g>
</g>
<!-- Node24&#45;&gt;Node2 -->
<g id="edge34_Node000024_Node000002" class="edge">
<title>Node24&#45;&gt;Node2</title>
<g id="a_edge34_Node000024_Node000002"><a xlink:title=" ">
<path fill="none" stroke="#63b8ff" d="M587.62,-223.73C627.07,-216.42 703.36,-201.47 767.05,-184 823.24,-168.59 887.26,-146.16 924.79,-132.49"/>
<polygon fill="#63b8ff" stroke="#63b8ff" points="926.01,-135.77 934.2,-129.05 923.6,-129.2 926.01,-135.77"/>
</a>
</g>
</g>
<!-- Node24&#45;&gt;Node4 -->
<g id="edge32_Node000024_Node000004" class="edge">
<title>Node24&#45;&gt;Node4</title>
<g id="a_edge32_Node000024_Node000004"><a xlink:title=" ">
<path fill="none" stroke="#63b8ff" d="M550.12,-219.98C538.64,-211.02 520.07,-196.53 504.05,-184 482.91,-167.46 458.7,-148.47 442.29,-135.6"/>
<polygon fill="#63b8ff" stroke="#63b8ff" points="444.08,-132.55 434.05,-129.13 439.76,-138.06 444.08,-132.55"/>
</a>
</g>
</g>
<!-- Node24&#45;&gt;Node11 -->
<g id="edge33_Node000024_Node000011" class="edge">
<title>Node24&#45;&gt;Node11</title>
<g id="a_edge33_Node000024_Node000011"><a xlink:title=" ">
<path fill="none" stroke="#63b8ff" d="M542.94,-219.84C503.33,-200.92 408.85,-155.77 362.14,-133.45"/>
<polygon fill="#63b8ff" stroke="#63b8ff" points="363.47,-130.2 352.94,-129.05 360.45,-136.52 363.47,-130.2"/>
</a>
</g>
</g>
<!-- Node24&#45;&gt;Node15 -->
<g id="edge35_Node000024_Node000015" class="edge">
<title>Node24&#45;&gt;Node15</title>
<g id="a_edge35_Node000024_Node000015"><a xlink:title=" ">
<path fill="none" stroke="#63b8ff" d="M575.1,-219.93C595.82,-207.38 635.94,-183.5 671.05,-165 692.49,-153.7 717.27,-141.91 735.85,-133.3"/>
<polygon fill="#63b8ff" stroke="#63b8ff" points="737.34,-136.47 744.96,-129.11 734.41,-130.11 737.34,-136.47"/>
</a>
</g>
</g>
<!-- Node25 -->
<g id="Node000025" class="node">
<title>Node25</title>
<g id="a_Node000025"><a xlink:href="../../da/de1/linkedmap_8h.html" target="_top" xlink:title=" ">
<polygon fill="white" stroke="#666666" points="623.55,-184 546.55,-184 546.55,-165 623.55,-165 623.55,-184"/>
<text text-anchor="middle" x="585.05" y="-172" font-family="Helvetica,sans-Serif" font-size="10.00">linkedmap.h</text>
</a>
</g>
</g>
<!-- Node24&#45;&gt;Node25 -->
<g id="edge36_Node000024_Node000025" class="edge">
<title>Node24&#45;&gt;Node25</title>
<g id="a_edge36_Node000024_Node000025"><a xlink:title=" ">
<path fill="none" stroke="#63b8ff" d="M565.01,-219.75C568.27,-212.57 572.97,-202.18 577.01,-193.27"/>
<polygon fill="#63b8ff" stroke="#63b8ff" points="580.23,-194.64 581.16,-184.09 573.85,-191.75 580.23,-194.64"/>
</a>
</g>
</g>
<!-- Node25&#45;&gt;Node2 -->
<g id="edge39_Node000025_Node000002" class="edge">
<title>Node25&#45;&gt;Node2</title>
<g id="a_edge39_Node000025_Node000002"><a xlink:title=" ">
<path fill="none" stroke="#63b8ff" d="M623.81,-167.98C695.11,-157.82 846.32,-136.28 917.91,-126.08"/>
<polygon fill="#63b8ff" stroke="#63b8ff" points="918.47,-129.53 927.87,-124.66 917.48,-122.6 918.47,-129.53"/>
</a>
</g>
</g>
<!-- Node25&#45;&gt;Node4 -->
<g id="edge38_Node000025_Node000004" class="edge">
<title>Node25&#45;&gt;Node4</title>
<g id="a_edge38_Node000025_Node000004"><a xlink:title=" ">
<path fill="none" stroke="#63b8ff" d="M559.02,-164.98C531.14,-155.86 486.8,-141.36 456.38,-131.4"/>
<polygon fill="#63b8ff" stroke="#63b8ff" points="457.24,-128 446.64,-128.22 455.06,-134.65 457.24,-128"/>
</a>
</g>
</g>
<!-- Node25&#45;&gt;Node7 -->
<g id="edge40_Node000025_Node000007" class="edge">
<title>Node25&#45;&gt;Node7</title>
<g id="a_edge40_Node000025_Node000007"><a xlink:title=" ">
<path fill="none" stroke="#63b8ff" d="M561.46,-164.94C513.38,-146.28 411.92,-100.01 453.05,-55 468.64,-37.94 806.13,-18.13 913.53,-12.24"/>
<polygon fill="#63b8ff" stroke="#63b8ff" points="913.97,-15.72 923.76,-11.68 913.59,-8.73 913.97,-15.72"/>
</a>
</g>
</g>
<!-- Node25&#45;&gt;Node11 -->
<g id="edge37_Node000025_Node000011" class="edge">
<title>Node25&#45;&gt;Node11</title>
<g id="a_edge37_Node000025_Node000011"><a xlink:title=" ">
<path fill="none" stroke="#63b8ff" d="M546.54,-165.33C503.19,-156.15 432.62,-141.19 385.05,-131.1"/>
<polygon fill="#63b8ff" stroke="#63b8ff" points="385.78,-127.68 375.27,-129.03 384.32,-134.52 385.78,-127.68"/>
</a>
</g>
</g>
<!-- Node25&#45;&gt;Node15 -->
<g id="edge43_Node000025_Node000015" class="edge">
<title>Node25&#45;&gt;Node15</title>
<g id="a_edge43_Node000025_Node000015"><a xlink:title=" ">
<path fill="none" stroke="#63b8ff" d="M613.81,-164.98C643.99,-156.05 691.63,-141.94 725.15,-132.02"/>
<polygon fill="#63b8ff" stroke="#63b8ff" points="726.47,-135.28 735.07,-129.08 724.48,-128.57 726.47,-135.28"/>
</a>
</g>
</g>
<!-- Node25&#45;&gt;Node16 -->
<g id="edge41_Node000025_Node000016" class="edge">
<title>Node25&#45;&gt;Node16</title>
<g id="a_edge41_Node000025_Node000016"><a xlink:title=" ">
<path fill="none" stroke="#63b8ff" d="M585.05,-164.66C585.05,-147.17 585.05,-107.8 585.05,-84.27"/>
<polygon fill="#63b8ff" stroke="#63b8ff" points="588.55,-84.16 585.05,-74.16 581.55,-84.16 588.55,-84.16"/>
</a>
</g>
</g>
<!-- Node25&#45;&gt;Node17 -->
<g id="edge42_Node000025_Node000017" class="edge">
<title>Node25&#45;&gt;Node17</title>
<g id="a_edge42_Node000025_Node000017"><a xlink:title=" ">
<path fill="none" stroke="#63b8ff" d="M591.19,-164.66C603.67,-146.69 632.18,-105.64 648.33,-82.38"/>
<polygon fill="#63b8ff" stroke="#63b8ff" points="651.21,-84.37 654.04,-74.16 645.46,-80.38 651.21,-84.37"/>
</a>
</g>
</g>
<!-- Node26&#45;&gt;Node4 -->
<g id="edge45_Node000026_Node000004" class="edge">
<title>Node26&#45;&gt;Node4</title>
<g id="a_edge45_Node000026_Node000004"><a xlink:title=" ">
<path fill="none" stroke="#63b8ff" d="M680.05,-166.52C621.5,-156.03 511.88,-136.41 456.66,-126.52"/>
<polygon fill="#63b8ff" stroke="#63b8ff" points="457.15,-123.05 446.69,-124.73 455.92,-129.94 457.15,-123.05"/>
</a>
</g>
</g>
<!-- Node26&#45;&gt;Node15 -->
<g id="edge46_Node000026_Node000015" class="edge">
<title>Node26&#45;&gt;Node15</title>
<g id="a_edge46_Node000026_Node000015"><a xlink:title=" ">
<path fill="none" stroke="#63b8ff" d="M726.48,-164.75C732.9,-157.18 742.36,-146.05 750.17,-136.84"/>
<polygon fill="#63b8ff" stroke="#63b8ff" points="752.95,-138.98 756.76,-129.09 747.62,-134.45 752.95,-138.98"/>
</a>
</g>
</g>
<!-- Node27&#45;&gt;Node2 -->
<g id="edge50_Node000027_Node000002" class="edge">
<title>Node27&#45;&gt;Node2</title>
<g id="a_edge50_Node000027_Node000002"><a xlink:title=" ">
<path fill="none" stroke="#63b8ff" d="M703.6,-274.94C720.67,-262.41 753.75,-238.55 783.05,-220 834.92,-187.16 897.93,-152.33 932.1,-133.85"/>
<polygon fill="#63b8ff" stroke="#63b8ff" points="933.79,-136.91 940.94,-129.09 930.47,-130.75 933.79,-136.91"/>
</a>
</g>
</g>
<!-- Node27&#45;&gt;Node4 -->
<g id="edge48_Node000027_Node000004" class="edge">
<title>Node27&#45;&gt;Node4</title>
<g id="a_edge48_Node000027_Node000004"><a xlink:title=" ">
<path fill="none" stroke="#63b8ff" d="M644.44,-278.17C609.58,-272.57 562.24,-261.31 526.05,-239 483.87,-213 449.66,-164.17 433.37,-138.05"/>
<polygon fill="#63b8ff" stroke="#63b8ff" points="436.2,-135.98 428.02,-129.24 430.22,-139.61 436.2,-135.98"/>
</a>
</g>
</g>
<!-- Node27&#45;&gt;Node10 -->
<g id="edge49_Node000027_Node000010" class="edge">
<title>Node27&#45;&gt;Node10</title>
<g id="a_edge49_Node000027_Node000010"><a xlink:title=" ">
<path fill="none" stroke="#63b8ff" d="M709.44,-274.84C747.39,-255.96 837.81,-210.96 882.76,-188.59"/>
<polygon fill="#63b8ff" stroke="#63b8ff" points="884.49,-191.64 891.88,-184.05 881.37,-185.37 884.49,-191.64"/>
</a>
</g>
</g>
<!-- Node27&#45;&gt;Node14 -->
<g id="edge51_Node000027_Node000014" class="edge">
<title>Node27&#45;&gt;Node14</title>
<g id="a_edge51_Node000027_Node000014"><a xlink:title=" ">
<path fill="none" stroke="#63b8ff" d="M688.91,-274.75C686.37,-267.65 682.7,-257.4 679.52,-248.56"/>
<polygon fill="#63b8ff" stroke="#63b8ff" points="682.8,-247.32 676.13,-239.09 676.21,-249.68 682.8,-247.32"/>
</a>
</g>
</g>
<!-- Node27&#45;&gt;Node24 -->
<g id="edge52_Node000027_Node000024" class="edge">
<title>Node27&#45;&gt;Node24</title>
<g id="a_edge52_Node000027_Node000024"><a xlink:title=" ">
<path fill="none" stroke="#63b8ff" d="M671,-274.98C649.65,-266.34 616.35,-252.87 591.99,-243.02"/>
<polygon fill="#63b8ff" stroke="#63b8ff" points="593.06,-239.68 582.48,-239.17 590.44,-246.17 593.06,-239.68"/>
</a>
</g>
</g>
<!-- Node29&#45;&gt;Node4 -->
<g id="edge55_Node000029_Node000004" class="edge">
<title>Node29&#45;&gt;Node4</title>
<g id="a_edge55_Node000029_Node000004"><a xlink:title=" ">
<path fill="none" stroke="#63b8ff" d="M872.99,-274.99C838.44,-261.89 769.26,-236.55 709.05,-220 634.16,-199.42 610.78,-211.25 538.05,-184 521.84,-177.93 519.19,-173.39 504.05,-165 485.16,-154.53 463.75,-142.77 447.68,-133.97"/>
<polygon fill="#63b8ff" stroke="#63b8ff" points="449.35,-130.9 438.9,-129.16 445.99,-137.04 449.35,-130.9"/>
</a>
</g>
</g>
<!-- Node29&#45;&gt;Node10 -->
<g id="edge56_Node000029_Node000010" class="edge">
<title>Node29&#45;&gt;Node10</title>
<g id="a_edge56_Node000029_Node000010"><a xlink:title=" ">
<path fill="none" stroke="#63b8ff" d="M884.87,-274.66C872.25,-262.57 853.41,-240.09 862.05,-220 867.2,-208.03 877.34,-197.76 886.88,-190.12"/>
<polygon fill="#63b8ff" stroke="#63b8ff" points="889.04,-192.88 894.98,-184.11 884.86,-187.26 889.04,-192.88"/>
</a>
</g>
</g>
<!-- Node29&#45;&gt;Node14 -->
<g id="edge59_Node000029_Node000014" class="edge">
<title>Node29&#45;&gt;Node14</title>
<g id="a_edge59_Node000029_Node000014"><a xlink:title=" ">
<path fill="none" stroke="#63b8ff" d="M862.29,-275.68C821.51,-265.94 752.06,-249.36 709.59,-239.22"/>
<polygon fill="#63b8ff" stroke="#63b8ff" points="710.21,-235.77 699.67,-236.86 708.59,-242.58 710.21,-235.77"/>
</a>
</g>
</g>
<!-- Node30 -->
<g id="Node000030" class="node">
<title>Node30</title>
<g id="a_Node000030"><a xlink:title=" ">
<polygon fill="#e0e0e0" stroke="#999999" points="917.55,-239 870.55,-239 870.55,-220 917.55,-220 917.55,-239"/>
<text text-anchor="middle" x="894.05" y="-227" font-family="Helvetica,sans-Serif" font-size="10.00">deque</text>
</a>
</g>
</g>
<!-- Node29&#45;&gt;Node30 -->
<g id="edge57_Node000029_Node000030" class="edge">
<title>Node29&#45;&gt;Node30</title>
<g id="a_edge57_Node000029_Node000030"><a xlink:title=" ">
<path fill="none" stroke="#63b8ff" d="M894.89,-274.75C894.76,-267.8 894.57,-257.85 894.4,-249.13"/>
<polygon fill="#63b8ff" stroke="#63b8ff" points="897.9,-249.02 894.21,-239.09 890.9,-249.15 897.9,-249.02"/>
</a>
</g>
</g>
<!-- Node31 -->
<g id="Node000031" class="node">
<title>Node31</title>
<g id="a_Node000031"><a xlink:title=" ">
<polygon fill="#e0e0e0" stroke="#999999" points="1006.05,-184 946.05,-184 946.05,-165 1006.05,-165 1006.05,-184"/>
<text text-anchor="middle" x="976.05" y="-172" font-family="Helvetica,sans-Serif" font-size="10.00">iostream</text>
</a>
</g>
</g>
<!-- Node29&#45;&gt;Node31 -->
<g id="edge58_Node000029_Node000031" class="edge">
<title>Node29&#45;&gt;Node31</title>
<g id="a_edge58_Node000029_Node000031"><a xlink:title=" ">
<path fill="none" stroke="#63b8ff" d="M901.68,-274.66C915.16,-256.69 945.95,-215.64 963.39,-192.38"/>
<polygon fill="#63b8ff" stroke="#63b8ff" points="966.36,-194.26 969.56,-184.16 960.76,-190.06 966.36,-194.26"/>
</a>
</g>
</g>
<!-- Node29&#45;&gt;Node32 -->
<g id="edge60_Node000029_Node000032" class="edge">
<title>Node29&#45;&gt;Node32</title>
<g id="a_edge60_Node000029_Node000032"><a xlink:title=" ">
<path fill="none" stroke="#63b8ff" d="M913.37,-274.98C931.71,-266.46 960.16,-253.23 981.28,-243.41"/>
<polygon fill="#63b8ff" stroke="#63b8ff" points="982.81,-246.56 990.4,-239.17 979.86,-240.21 982.81,-246.56"/>
</a>
</g>
</g>
<!-- Node32&#45;&gt;Node10 -->
<g id="edge62_Node000032_Node000010" class="edge">
<title>Node32&#45;&gt;Node10</title>
<g id="a_edge62_Node000032_Node000010"><a xlink:title=" ">
<path fill="none" stroke="#63b8ff" d="M992.98,-219.98C977.19,-211.61 952.83,-198.7 934.42,-188.95"/>
<polygon fill="#63b8ff" stroke="#63b8ff" points="935.89,-185.76 925.41,-184.17 932.61,-191.95 935.89,-185.76"/>
</a>
</g>
</g>
<!-- Node32&#45;&gt;Node15 -->
<g id="edge63_Node000032_Node000015" class="edge">
<title>Node32&#45;&gt;Node15</title>
<g id="a_edge63_Node000032_Node000015"><a xlink:title=" ">
<path fill="none" stroke="#63b8ff" d="M1013.31,-219.96C1019.31,-206.59 1028.14,-180.61 1015.05,-165 988.99,-133.92 871.57,-124.53 806.98,-121.71"/>
<polygon fill="#63b8ff" stroke="#63b8ff" points="806.84,-118.2 796.71,-121.29 806.56,-125.19 806.84,-118.2"/>
</a>
</g>
</g>
<!-- Node32&#45;&gt;Node31 -->
<g id="edge61_Node000032_Node000031" class="edge">
<title>Node32&#45;&gt;Node31</title>
<g id="a_edge61_Node000032_Node000031"><a xlink:title=" ">
<path fill="none" stroke="#63b8ff" d="M1003.6,-219.75C999.04,-212.42 992.38,-201.73 986.76,-192.7"/>
<polygon fill="#63b8ff" stroke="#63b8ff" points="989.66,-190.73 981.4,-184.09 983.71,-194.43 989.66,-190.73"/>
</a>
</g>
</g>
<!-- Node33 -->
<g id="Node000033" class="node">
<title>Node33</title>
<g id="a_Node000033"><a xlink:href="../../df/d9c/dir_8h.html" target="_top" xlink:title=" ">
<polygon fill="white" stroke="#666666" points="1176.05,-184 1138.05,-184 1138.05,-165 1176.05,-165 1176.05,-184"/>
<text text-anchor="middle" x="1157.05" y="-172" font-family="Helvetica,sans-Serif" font-size="10.00">dir.h</text>
</a>
</g>
</g>
<!-- Node32&#45;&gt;Node33 -->
<g id="edge64_Node000032_Node000033" class="edge">
<title>Node32&#45;&gt;Node33</title>
<g id="a_edge64_Node000032_Node000033"><a xlink:title=" ">
<path fill="none" stroke="#63b8ff" d="M1032.83,-219.98C1058.88,-210.65 1100.66,-195.69 1128.48,-185.73"/>
<polygon fill="#63b8ff" stroke="#63b8ff" points="1129.8,-188.98 1138.04,-182.31 1127.44,-182.39 1129.8,-188.98"/>
</a>
</g>
</g>
<!-- Node33&#45;&gt;Node2 -->
<g id="edge66_Node000033_Node000002" class="edge">
<title>Node33&#45;&gt;Node2</title>
<g id="a_edge66_Node000033_Node000002"><a xlink:title=" ">
<path fill="none" stroke="#63b8ff" d="M1137.87,-168.42C1105.29,-159.78 1038.51,-142.09 995.86,-130.78"/>
<polygon fill="#63b8ff" stroke="#63b8ff" points="996.66,-127.37 986.09,-128.2 994.86,-134.14 996.66,-127.37"/>
</a>
</g>
</g>
<!-- Node33&#45;&gt;Node7 -->
<g id="edge65_Node000033_Node000007" class="edge">
<title>Node33&#45;&gt;Node7</title>
<g id="a_edge65_Node000033_Node000007"><a xlink:title=" ">
<path fill="none" stroke="#63b8ff" d="M1158.55,-164.66C1160.32,-152.2 1162.42,-128.88 1157.05,-110 1149.2,-82.36 1146.24,-71.97 1123.05,-55 1079.69,-23.27 1016.12,-14.05 978.14,-11.44"/>
<polygon fill="#63b8ff" stroke="#63b8ff" points="978.32,-7.95 968.14,-10.87 977.92,-14.94 978.32,-7.95"/>
</a>
</g>
</g>
<!-- Node34 -->
<g id="Node000034" class="node">
<title>Node34</title>
<g id="a_Node000034"><a xlink:href="../../df/d45/fileinfo_8h.html" target="_top" xlink:title=" ">
<polygon fill="white" stroke="#666666" points="1147.55,-129 1088.55,-129 1088.55,-110 1147.55,-110 1147.55,-129"/>
<text text-anchor="middle" x="1118.05" y="-117" font-family="Helvetica,sans-Serif" font-size="10.00">fileinfo.h</text>
</a>
</g>
</g>
<!-- Node33&#45;&gt;Node34 -->
<g id="edge67_Node000033_Node000034" class="edge">
<title>Node33&#45;&gt;Node34</title>
<g id="a_edge67_Node000033_Node000034"><a xlink:title=" ">
<path fill="none" stroke="#63b8ff" d="M1150.61,-164.75C1145.16,-157.34 1137.19,-146.5 1130.5,-137.41"/>
<polygon fill="#63b8ff" stroke="#63b8ff" points="1133.12,-135.07 1124.37,-129.09 1127.48,-139.22 1133.12,-135.07"/>
</a>
</g>
</g>
<!-- Node34&#45;&gt;Node7 -->
<g id="edge68_Node000034_Node000007" class="edge">
<title>Node34&#45;&gt;Node7</title>
<g id="a_edge68_Node000034_Node000007"><a xlink:title=" ">
<path fill="none" stroke="#63b8ff" d="M1118.74,-109.84C1119.31,-96.3 1118.31,-70.1 1104.05,-55 1071.52,-20.54 1014.58,-12.07 978.67,-10.37"/>
<polygon fill="#63b8ff" stroke="#63b8ff" points="978.36,-6.86 968.25,-10.04 978.14,-13.85 978.36,-6.86"/>
</a>
</g>
</g>
</g>
</svg>

<g id="navigator" transform="translate(0 0)" fill="#404254">
  <rect fill="#f2f5e9" fill-opacity="0.5" stroke="#606060" stroke-width=".5" x="0" y="0" width="60" height="60"/>
  <use id="zoomplus" xlink:href="#zoomPlus" x="17" y="9" onmousedown="handleZoom(evt,'in')"/>
  <use id="zoomminus" xlink:href="#zoomMin" x="42" y="9" onmousedown="handleZoom(evt,'out')"/>
  <use id="reset" xlink:href="#resetDef" x="30" y="36" onmousedown="handleReset()"/>
   <use id="arrowup" xlink:href="#arrowUp" x="0" y="0" onmousedown="handlePan(0,-1)"/>
  <use id="arrowright" xlink:href="#arrowRight" x="0" y="0" onmousedown="handlePan(1,0)"/>
  <use id="arrowdown" xlink:href="#arrowDown" x="0" y="0" onmousedown="handlePan(0,1)"/>
  <use id="arrowleft" xlink:href="#arrowLeft" x="0" y="0" onmousedown="handlePan(-1,0)"/>
</g>
<svg viewBox="0 0 15 15" width="100%" height="30px" preserveAspectRatio="xMaxYMin meet">
 <g id="arrow_out" transform="scale(0.3 0.3)">
  <a xlink:href="dotclassgraph_8h__incl_org.svg" target="_base">
   <rect id="button" ry="5" rx="5" y="6" x="6" height="38" width="38"
        fill="#f2f5e9" fill-opacity="0.5" stroke="#606060" stroke-width="1.0"/>
   <path id="arrow"
     d="M 11.500037,31.436501 C 11.940474,20.09759 22.043105,11.32322 32.158766,21.979434 L 37.068811,17.246167 C 37.068811,17.246167 37.088388,32 37.088388,32 L 22.160133,31.978069 C 22.160133,31.978069 26.997745,27.140456 26.997745,27.140456 C 18.528582,18.264221 13.291696,25.230495 11.500037,31.436501 z"
     style="fill:#404040;"/>
  </a>
 </g>
</svg>

<style type='text/css'>
<![CDATA[
[data-mouse-over-selected='false'] { opacity: 0.7; }
[data-mouse-over-selected='true']  { opacity: 1.0; }
]]>
</style>
<script type="application/ecmascript"><![CDATA[
document.addEventListener('DOMContentLoaded', (event) => {
  highlightEdges();
  highlightAdjacentNodes();
});
]]></script>
</svg>
