<?xml version="1.0" encoding="UTF-8" standalone="no"?>
<!DOCTYPE svg PUBLIC "-//W3C//DTD SVG 1.1//EN"
 "http://www.w3.org/Graphics/SVG/1.1/DTD/svg11.dtd">
<!-- Generated by graphviz version 2.43.0 (0)
 -->
<!-- Title: src/dotclassgraph.h Pages: 1 -->
<svg width="1302pt" height="412pt"
 viewBox="0.00 0.00 1301.77 412.00" xmlns="http://www.w3.org/2000/svg" xmlns:xlink="http://www.w3.org/1999/xlink">
<g id="graph0" class="graph" transform="scale(1 1) rotate(0) translate(4 408)">
<title>src/dotclassgraph.h</title>
<!-- Node1 -->
<g id="Node000001" class="node">
<title>Node1</title>
<g id="a_Node000001"><a xlink:title=" ">
<polygon fill="#999999" stroke="#666666" points="1200.27,-404 1089.27,-404 1089.27,-385 1200.27,-385 1200.27,-404"/>
<text text-anchor="middle" x="1144.77" y="-392" font-family="Helvetica,sans-Serif" font-size="10.00">src/dotclassgraph.h</text>
</a>
</g>
</g>
<!-- Node2 -->
<g id="Node000002" class="node">
<title>Node2</title>
<g id="a_Node000002"><a xlink:title=" ">
<polygon fill="#e0e0e0" stroke="#999999" points="1053.77,-129 995.77,-129 995.77,-110 1053.77,-110 1053.77,-129"/>
<text text-anchor="middle" x="1024.77" y="-117" font-family="Helvetica,sans-Serif" font-size="10.00">memory</text>
</a>
</g>
</g>
<!-- Node1&#45;&gt;Node2 -->
<g id="edge1_Node000001_Node000002" class="edge">
<title>Node1&#45;&gt;Node2</title>
<g id="a_edge1_Node000001_Node000002"><a xlink:title=" ">
<path fill="none" stroke="#63b8ff" d="M1158.11,-384.88C1181.57,-368.56 1227.77,-330.67 1227.77,-285.5 1227.77,-285.5 1227.77,-285.5 1227.77,-228.5 1227.77,-155.06 1122.95,-131.4 1063.95,-123.9"/>
<polygon fill="#63b8ff" stroke="#63b8ff" points="1064.19,-120.4 1053.86,-122.71 1063.38,-127.35 1064.19,-120.4"/>
</a>
</g>
</g>
<!-- Node3 -->
<g id="Node000003" class="node">
<title>Node3</title>
<g id="a_Node000003"><a xlink:href="../../d1/da6/classdef_8h.html" target="_top" xlink:title=" ">
<polygon fill="white" stroke="#666666" points="633.27,-349 568.27,-349 568.27,-330 633.27,-330 633.27,-349"/>
<text text-anchor="middle" x="600.77" y="-337" font-family="Helvetica,sans-Serif" font-size="10.00">classdef.h</text>
</a>
</g>
</g>
<!-- Node1&#45;&gt;Node3 -->
<g id="edge2_Node000001_Node000003" class="edge">
<title>Node1&#45;&gt;Node3</title>
<g id="a_edge2_Node000001_Node000003"><a xlink:title=" ">
<path fill="none" stroke="#63b8ff" d="M1089.11,-388.08C980.16,-377.46 740.88,-354.15 643.39,-344.65"/>
<polygon fill="#63b8ff" stroke="#63b8ff" points="643.6,-341.16 633.31,-343.67 642.92,-348.12 643.6,-341.16"/>
</a>
</g>
</g>
<!-- Node30 -->
<g id="Node000030" class="node">
<title>Node30</title>
<g id="a_Node000030"><a xlink:href="../../d8/d3b/dotnode_8h.html" target="_top" xlink:title=" ">
<polygon fill="white" stroke="#666666" points="1045.27,-294 980.27,-294 980.27,-275 1045.27,-275 1045.27,-294"/>
<text text-anchor="middle" x="1012.77" y="-282" font-family="Helvetica,sans-Serif" font-size="10.00">dotnode.h</text>
</a>
</g>
</g>
<!-- Node1&#45;&gt;Node30 -->
<g id="edge56_Node000001_Node000030" class="edge">
<title>Node1&#45;&gt;Node30</title>
<g id="a_edge56_Node000001_Node000030"><a xlink:title=" ">
<path fill="none" stroke="#63b8ff" d="M1133.97,-384.66C1111.42,-366.22 1059.15,-323.45 1031.19,-300.57"/>
<polygon fill="#63b8ff" stroke="#63b8ff" points="1033.31,-297.78 1023.35,-294.16 1028.88,-303.2 1033.31,-297.78"/>
</a>
</g>
</g>
<!-- Node33 -->
<g id="Node000033" class="node">
<title>Node33</title>
<g id="a_Node000033"><a xlink:href="../../d0/daa/dotgraph_8h.html" target="_top" xlink:title=" ">
<polygon fill="white" stroke="#666666" points="1123.27,-239 1054.27,-239 1054.27,-220 1123.27,-220 1123.27,-239"/>
<text text-anchor="middle" x="1088.77" y="-227" font-family="Helvetica,sans-Serif" font-size="10.00">dotgraph.h</text>
</a>
</g>
</g>
<!-- Node1&#45;&gt;Node33 -->
<g id="edge72_Node000001_Node000033" class="edge">
<title>Node1&#45;&gt;Node33</title>
<g id="a_edge72_Node000001_Node000033"><a xlink:title=" ">
<path fill="none" stroke="#63b8ff" d="M1141.76,-384.74C1132.95,-359.09 1107.08,-283.78 1095.05,-248.78"/>
<polygon fill="#63b8ff" stroke="#63b8ff" points="1098.36,-247.63 1091.8,-239.31 1091.74,-249.9 1098.36,-247.63"/>
</a>
</g>
</g>
<!-- Node3&#45;&gt;Node2 -->
<g id="edge3_Node000003_Node000002" class="edge">
<title>Node3&#45;&gt;Node2</title>
<g id="a_edge3_Node000003_Node000002"><a xlink:title=" ">
<path fill="none" stroke="#63b8ff" d="M633.42,-337.1C723.85,-332.93 976.08,-319.32 1054.77,-294 1101.21,-279.06 1118.14,-276.15 1149.77,-239 1171.93,-212.97 1191.12,-192.47 1170.77,-165 1146.47,-132.19 1098.54,-122.76 1064.23,-120.44"/>
<polygon fill="#63b8ff" stroke="#63b8ff" points="1064.22,-116.94 1054.05,-119.94 1063.87,-123.93 1064.22,-116.94"/>
</a>
</g>
</g>
<!-- Node4 -->
<g id="Node000004" class="node">
<title>Node4</title>
<g id="a_Node000004"><a xlink:title=" ">
<polygon fill="#e0e0e0" stroke="#999999" points="547.27,-129 500.27,-129 500.27,-110 547.27,-110 547.27,-129"/>
<text text-anchor="middle" x="523.77" y="-117" font-family="Helvetica,sans-Serif" font-size="10.00">vector</text>
</a>
</g>
</g>
<!-- Node3&#45;&gt;Node4 -->
<g id="edge4_Node000003_Node000004" class="edge">
<title>Node3&#45;&gt;Node4</title>
<g id="a_edge4_Node000003_Node000004"><a xlink:title=" ">
<path fill="none" stroke="#63b8ff" d="M571.2,-329.95C533.13,-317.16 468.58,-289.04 440.77,-239 433.98,-226.78 426.08,-192.08 442.77,-165 453.33,-147.87 472.98,-136.85 490.28,-130.06"/>
<polygon fill="#63b8ff" stroke="#63b8ff" points="491.87,-133.2 500.1,-126.53 489.51,-126.61 491.87,-133.2"/>
</a>
</g>
</g>
<!-- Node5 -->
<g id="Node000005" class="node">
<title>Node5</title>
<g id="a_Node000005"><a xlink:title=" ">
<polygon fill="#e0e0e0" stroke="#999999" points="327.77,-184 241.77,-184 241.77,-165 327.77,-165 327.77,-184"/>
<text text-anchor="middle" x="284.77" y="-172" font-family="Helvetica,sans-Serif" font-size="10.00">unordered_set</text>
</a>
</g>
</g>
<!-- Node3&#45;&gt;Node5 -->
<g id="edge5_Node000003_Node000005" class="edge">
<title>Node3&#45;&gt;Node5</title>
<g id="a_edge5_Node000003_Node000005"><a xlink:title=" ">
<path fill="none" stroke="#63b8ff" d="M567.82,-336.56C506.28,-332.34 376.92,-320.51 341.77,-294 308.92,-269.22 294.07,-220.59 288.16,-193.98"/>
<polygon fill="#63b8ff" stroke="#63b8ff" points="291.57,-193.16 286.15,-184.05 284.71,-194.55 291.57,-193.16"/>
</a>
</g>
</g>
<!-- Node6 -->
<g id="Node000006" class="node">
<title>Node6</title>
<g id="a_Node000006"><a xlink:href="../../d5/d75/containers_8h.html" target="_top" xlink:title=" ">
<polygon fill="white" stroke="#666666" points="214.27,-239 137.27,-239 137.27,-220 214.27,-220 214.27,-239"/>
<text text-anchor="middle" x="175.77" y="-227" font-family="Helvetica,sans-Serif" font-size="10.00">containers.h</text>
</a>
</g>
</g>
<!-- Node3&#45;&gt;Node6 -->
<g id="edge6_Node000003_Node000006" class="edge">
<title>Node3&#45;&gt;Node6</title>
<g id="a_edge6_Node000003_Node000006"><a xlink:title=" ">
<path fill="none" stroke="#63b8ff" d="M568.19,-337.9C510.1,-335.96 385.47,-327.83 286.77,-294 252.59,-282.28 217.01,-259.8 195.62,-244.97"/>
<polygon fill="#63b8ff" stroke="#63b8ff" points="197.55,-242.06 187.37,-239.14 193.51,-247.77 197.55,-242.06"/>
</a>
</g>
</g>
<!-- Node13 -->
<g id="Node000013" class="node">
<title>Node13</title>
<g id="a_Node000013"><a xlink:href="../../df/da1/definition_8h.html" target="_top" xlink:title=" ">
<polygon fill="white" stroke="#666666" points="636.27,-294 565.27,-294 565.27,-275 636.27,-275 636.27,-294"/>
<text text-anchor="middle" x="600.77" y="-282" font-family="Helvetica,sans-Serif" font-size="10.00">definition.h</text>
</a>
</g>
</g>
<!-- Node3&#45;&gt;Node13 -->
<g id="edge15_Node000003_Node000013" class="edge">
<title>Node3&#45;&gt;Node13</title>
<g id="a_edge15_Node000003_Node000013"><a xlink:title=" ">
<path fill="none" stroke="#63b8ff" d="M600.77,-329.75C600.77,-322.8 600.77,-312.85 600.77,-304.13"/>
<polygon fill="#63b8ff" stroke="#63b8ff" points="604.27,-304.09 600.77,-294.09 597.27,-304.09 604.27,-304.09"/>
</a>
</g>
</g>
<!-- Node27 -->
<g id="Node000027" class="node">
<title>Node27</title>
<g id="a_Node000027"><a xlink:href="../../df/d9b/arguments_8h.html" target="_top" xlink:title=" ">
<polygon fill="white" stroke="#666666" points="575.77,-184 497.77,-184 497.77,-165 575.77,-165 575.77,-184"/>
<text text-anchor="middle" x="536.77" y="-172" font-family="Helvetica,sans-Serif" font-size="10.00">arguments.h</text>
</a>
</g>
</g>
<!-- Node3&#45;&gt;Node27 -->
<g id="edge46_Node000003_Node000027" class="edge">
<title>Node3&#45;&gt;Node27</title>
<g id="a_edge46_Node000003_Node000027"><a xlink:title=" ">
<path fill="none" stroke="#63b8ff" d="M588.61,-329.71C578.4,-321.63 564.3,-308.7 556.77,-294 540.26,-261.77 536.94,-218.76 536.52,-194.41"/>
<polygon fill="#63b8ff" stroke="#63b8ff" points="540.02,-194.08 536.5,-184.09 533.02,-194.09 540.02,-194.08"/>
</a>
</g>
</g>
<!-- Node28 -->
<g id="Node000028" class="node">
<title>Node28</title>
<g id="a_Node000028"><a xlink:href="../../d9/d11/membergroup_8h.html" target="_top" xlink:title=" ">
<polygon fill="white" stroke="#666666" points="854.27,-294 759.27,-294 759.27,-275 854.27,-275 854.27,-294"/>
<text text-anchor="middle" x="806.77" y="-282" font-family="Helvetica,sans-Serif" font-size="10.00">membergroup.h</text>
</a>
</g>
</g>
<!-- Node3&#45;&gt;Node28 -->
<g id="edge49_Node000003_Node000028" class="edge">
<title>Node3&#45;&gt;Node28</title>
<g id="a_edge49_Node000003_Node000028"><a xlink:title=" ">
<path fill="none" stroke="#63b8ff" d="M633.41,-330.1C668.61,-321.05 724.81,-306.59 763.64,-296.6"/>
<polygon fill="#63b8ff" stroke="#63b8ff" points="764.79,-299.92 773.6,-294.03 763.04,-293.14 764.79,-299.92"/>
</a>
</g>
</g>
<!-- Node29 -->
<g id="Node000029" class="node">
<title>Node29</title>
<g id="a_Node000029"><a xlink:title=" ">
<polygon fill="#e0e0e0" stroke="#999999" points="741.27,-294 654.27,-294 654.27,-275 741.27,-275 741.27,-294"/>
<text text-anchor="middle" x="697.77" y="-282" font-family="Helvetica,sans-Serif" font-size="10.00">configvalues.h</text>
</a>
</g>
</g>
<!-- Node3&#45;&gt;Node29 -->
<g id="edge55_Node000003_Node000029" class="edge">
<title>Node3&#45;&gt;Node29</title>
<g id="a_edge55_Node000003_Node000029"><a xlink:title=" ">
<path fill="none" stroke="#63b8ff" d="M616.36,-329.98C631.54,-321.69 654.87,-308.94 672.67,-299.22"/>
<polygon fill="#63b8ff" stroke="#63b8ff" points="674.8,-302.04 681.9,-294.17 671.45,-295.89 674.8,-302.04"/>
</a>
</g>
</g>
<!-- Node6&#45;&gt;Node4 -->
<g id="edge7_Node000006_Node000004" class="edge">
<title>Node6&#45;&gt;Node4</title>
<g id="a_edge7_Node000006_Node000004"><a xlink:title=" ">
<path fill="none" stroke="#63b8ff" d="M180.79,-219.79C189.42,-205.69 208.53,-178.1 232.77,-165 255.06,-152.95 417.46,-132.86 489.5,-124.42"/>
<polygon fill="#63b8ff" stroke="#63b8ff" points="490.33,-127.85 499.85,-123.22 489.52,-120.9 490.33,-127.85"/>
</a>
</g>
</g>
<!-- Node6&#45;&gt;Node5 -->
<g id="edge12_Node000006_Node000005" class="edge">
<title>Node6&#45;&gt;Node5</title>
<g id="a_edge12_Node000006_Node000005"><a xlink:title=" ">
<path fill="none" stroke="#63b8ff" d="M193.28,-219.98C210.74,-211.5 237.78,-198.35 257.94,-188.54"/>
<polygon fill="#63b8ff" stroke="#63b8ff" points="259.48,-191.69 266.94,-184.17 256.42,-185.4 259.48,-191.69"/>
</a>
</g>
</g>
<!-- Node7 -->
<g id="Node000007" class="node">
<title>Node7</title>
<g id="a_Node000007"><a xlink:title=" ">
<polygon fill="#e0e0e0" stroke="#999999" points="1080.77,-19 1036.77,-19 1036.77,0 1080.77,0 1080.77,-19"/>
<text text-anchor="middle" x="1058.77" y="-7" font-family="Helvetica,sans-Serif" font-size="10.00">string</text>
</a>
</g>
</g>
<!-- Node6&#45;&gt;Node7 -->
<g id="edge8_Node000006_Node000007" class="edge">
<title>Node6&#45;&gt;Node7</title>
<g id="a_edge8_Node000006_Node000007"><a xlink:title=" ">
<path fill="none" stroke="#63b8ff" d="M137.21,-227.52C77.55,-224.54 -26.93,-212.57 6.77,-165 92.02,-44.69 175.23,-84.16 319.77,-55 457.97,-27.12 902,-14.34 1026.21,-11.26"/>
<polygon fill="#63b8ff" stroke="#63b8ff" points="1026.66,-14.75 1036.57,-11.01 1026.49,-7.75 1026.66,-14.75"/>
</a>
</g>
</g>
<!-- Node8 -->
<g id="Node000008" class="node">
<title>Node8</title>
<g id="a_Node000008"><a xlink:title=" ">
<polygon fill="#e0e0e0" stroke="#999999" points="401.27,-74 328.27,-74 328.27,-55 401.27,-55 401.27,-74"/>
<text text-anchor="middle" x="364.77" y="-62" font-family="Helvetica,sans-Serif" font-size="10.00">string_view</text>
</a>
</g>
</g>
<!-- Node6&#45;&gt;Node8 -->
<g id="edge9_Node000006_Node000008" class="edge">
<title>Node6&#45;&gt;Node8</title>
<g id="a_edge9_Node000006_Node000008"><a xlink:title=" ">
<path fill="none" stroke="#63b8ff" d="M178.15,-219.81C182.09,-206.68 191.03,-181.59 205.77,-165 242.15,-124.06 299.36,-93.97 334.32,-78.14"/>
<polygon fill="#63b8ff" stroke="#63b8ff" points="335.83,-81.3 343.56,-74.06 333,-74.9 335.83,-81.3"/>
</a>
</g>
</g>
<!-- Node9 -->
<g id="Node000009" class="node">
<title>Node9</title>
<g id="a_Node000009"><a xlink:title=" ">
<polygon fill="#e0e0e0" stroke="#999999" points="147.77,-184 115.77,-184 115.77,-165 147.77,-165 147.77,-184"/>
<text text-anchor="middle" x="131.77" y="-172" font-family="Helvetica,sans-Serif" font-size="10.00">set</text>
</a>
</g>
</g>
<!-- Node6&#45;&gt;Node9 -->
<g id="edge10_Node000006_Node000009" class="edge">
<title>Node6&#45;&gt;Node9</title>
<g id="a_edge10_Node000006_Node000009"><a xlink:title=" ">
<path fill="none" stroke="#63b8ff" d="M168.5,-219.75C162.23,-212.18 152.98,-201.05 145.34,-191.84"/>
<polygon fill="#63b8ff" stroke="#63b8ff" points="147.98,-189.55 138.9,-184.09 142.6,-194.02 147.98,-189.55"/>
</a>
</g>
</g>
<!-- Node10 -->
<g id="Node000010" class="node">
<title>Node10</title>
<g id="a_Node000010"><a xlink:title=" ">
<polygon fill="#e0e0e0" stroke="#999999" points="1045.77,-184 1007.77,-184 1007.77,-165 1045.77,-165 1045.77,-184"/>
<text text-anchor="middle" x="1026.77" y="-172" font-family="Helvetica,sans-Serif" font-size="10.00">map</text>
</a>
</g>
</g>
<!-- Node6&#45;&gt;Node10 -->
<g id="edge11_Node000006_Node000010" class="edge">
<title>Node6&#45;&gt;Node10</title>
<g id="a_edge11_Node000006_Node000010"><a xlink:title=" ">
<path fill="none" stroke="#63b8ff" d="M214.28,-226.51C324.65,-220.73 651.59,-203.16 922.77,-184 948.01,-182.22 976.66,-179.85 997.49,-178.07"/>
<polygon fill="#63b8ff" stroke="#63b8ff" points="997.95,-181.54 1007.61,-177.19 997.35,-174.57 997.95,-181.54"/>
</a>
</g>
</g>
<!-- Node11 -->
<g id="Node000011" class="node">
<title>Node11</title>
<g id="a_Node000011"><a xlink:title=" ">
<polygon fill="#e0e0e0" stroke="#999999" points="440.27,-129 347.27,-129 347.27,-110 440.27,-110 440.27,-129"/>
<text text-anchor="middle" x="393.77" y="-117" font-family="Helvetica,sans-Serif" font-size="10.00">unordered_map</text>
</a>
</g>
</g>
<!-- Node6&#45;&gt;Node11 -->
<g id="edge13_Node000006_Node000011" class="edge">
<title>Node6&#45;&gt;Node11</title>
<g id="a_edge13_Node000006_Node000011"><a xlink:title=" ">
<path fill="none" stroke="#63b8ff" d="M153.85,-219.95C127.28,-208.36 88.23,-186.63 106.77,-165 135.79,-131.13 261.79,-122.82 336.85,-120.92"/>
<polygon fill="#63b8ff" stroke="#63b8ff" points="337.17,-124.41 347.09,-120.69 337.01,-117.42 337.17,-124.41"/>
</a>
</g>
</g>
<!-- Node12 -->
<g id="Node000012" class="node">
<title>Node12</title>
<g id="a_Node000012"><a xlink:title=" ">
<polygon fill="#e0e0e0" stroke="#999999" points="59.27,-184 16.27,-184 16.27,-165 59.27,-165 59.27,-184"/>
<text text-anchor="middle" x="37.77" y="-172" font-family="Helvetica,sans-Serif" font-size="10.00">stack</text>
</a>
</g>
</g>
<!-- Node6&#45;&gt;Node12 -->
<g id="edge14_Node000006_Node000012" class="edge">
<title>Node6&#45;&gt;Node12</title>
<g id="a_edge14_Node000006_Node000012"><a xlink:title=" ">
<path fill="none" stroke="#63b8ff" d="M153.6,-219.98C130.73,-211.2 94.87,-197.43 69.1,-187.53"/>
<polygon fill="#63b8ff" stroke="#63b8ff" points="70.02,-184.14 59.43,-183.82 67.51,-190.67 70.02,-184.14"/>
</a>
</g>
</g>
<!-- Node13&#45;&gt;Node4 -->
<g id="edge16_Node000013_Node000004" class="edge">
<title>Node13&#45;&gt;Node4</title>
<g id="a_edge16_Node000013_Node000004"><a xlink:title=" ">
<path fill="none" stroke="#63b8ff" d="M565.13,-283.7C530.88,-281.74 480.74,-272.78 455.77,-239 436.22,-212.55 440.13,-193.93 455.77,-165 463.35,-150.98 477.48,-140.67 490.9,-133.53"/>
<polygon fill="#63b8ff" stroke="#63b8ff" points="492.54,-136.62 499.99,-129.08 489.47,-130.33 492.54,-136.62"/>
</a>
</g>
</g>
<!-- Node14 -->
<g id="Node000014" class="node">
<title>Node14</title>
<g id="a_Node000014"><a xlink:href="../../d9/d49/types_8h.html" target="_top" xlink:title="This file contains a number of basic enums and types.">
<polygon fill="white" stroke="#666666" points="818.27,-239 765.27,-239 765.27,-220 818.27,-220 818.27,-239"/>
<text text-anchor="middle" x="791.77" y="-227" font-family="Helvetica,sans-Serif" font-size="10.00">types.h</text>
</a>
</g>
</g>
<!-- Node13&#45;&gt;Node14 -->
<g id="edge17_Node000013_Node000014" class="edge">
<title>Node13&#45;&gt;Node14</title>
<g id="a_edge17_Node000013_Node000014"><a xlink:title=" ">
<path fill="none" stroke="#63b8ff" d="M631.46,-274.98C665.15,-265.64 719.21,-250.64 755.1,-240.67"/>
<polygon fill="#63b8ff" stroke="#63b8ff" points="756.46,-243.93 765.16,-237.88 754.59,-237.18 756.46,-243.93"/>
</a>
</g>
</g>
<!-- Node24 -->
<g id="Node000024" class="node">
<title>Node24</title>
<g id="a_Node000024"><a xlink:href="../../d1/d02/reflist_8h.html" target="_top" xlink:title=" ">
<polygon fill="white" stroke="#666666" points="708.27,-239 655.27,-239 655.27,-220 708.27,-220 708.27,-239"/>
<text text-anchor="middle" x="681.77" y="-227" font-family="Helvetica,sans-Serif" font-size="10.00">reflist.h</text>
</a>
</g>
</g>
<!-- Node13&#45;&gt;Node24 -->
<g id="edge31_Node000013_Node000024" class="edge">
<title>Node13&#45;&gt;Node24</title>
<g id="a_edge31_Node000013_Node000024"><a xlink:title=" ">
<path fill="none" stroke="#63b8ff" d="M613.78,-274.98C626.23,-266.84 645.23,-254.41 659.98,-244.76"/>
<polygon fill="#63b8ff" stroke="#63b8ff" points="662.07,-247.57 668.52,-239.17 658.24,-241.72 662.07,-247.57"/>
</a>
</g>
</g>
<!-- Node26 -->
<g id="Node000026" class="node">
<title>Node26</title>
<g id="a_Node000026"><a xlink:href="../../d7/dfc/construct_8h.html" target="_top" xlink:title=" ">
<polygon fill="white" stroke="#666666" points="913.27,-184 842.27,-184 842.27,-165 913.27,-165 913.27,-184"/>
<text text-anchor="middle" x="877.77" y="-172" font-family="Helvetica,sans-Serif" font-size="10.00">construct.h</text>
</a>
</g>
</g>
<!-- Node13&#45;&gt;Node26 -->
<g id="edge45_Node000013_Node000026" class="edge">
<title>Node13&#45;&gt;Node26</title>
<g id="a_edge45_Node000013_Node000026"><a xlink:title=" ">
<path fill="none" stroke="#63b8ff" d="M625.23,-274.92C649.08,-266.39 686.26,-252.64 717.77,-239 735.47,-231.34 739.03,-227.56 756.77,-220 785.18,-207.89 818.12,-195.91 842.45,-187.43"/>
<polygon fill="#63b8ff" stroke="#63b8ff" points="843.67,-190.71 851.98,-184.14 841.39,-184.1 843.67,-190.71"/>
</a>
</g>
</g>
<!-- Node15 -->
<g id="Node000015" class="node">
<title>Node15</title>
<g id="a_Node000015"><a xlink:href="../../d7/d5c/qcstring_8h.html" target="_top" xlink:title=" ">
<polygon fill="white" stroke="#666666" points="897.27,-129 832.27,-129 832.27,-110 897.27,-110 897.27,-129"/>
<text text-anchor="middle" x="864.77" y="-117" font-family="Helvetica,sans-Serif" font-size="10.00">qcstring.h</text>
</a>
</g>
</g>
<!-- Node14&#45;&gt;Node15 -->
<g id="edge18_Node000014_Node000015" class="edge">
<title>Node14&#45;&gt;Node15</title>
<g id="a_edge18_Node000014_Node000015"><a xlink:title=" ">
<path fill="none" stroke="#63b8ff" d="M818.5,-221.22C854.96,-211.01 916.51,-192.74 922.77,-184 936.03,-165.5 912.93,-146.51 892.07,-134.18"/>
<polygon fill="#63b8ff" stroke="#63b8ff" points="893.52,-130.99 883.09,-129.17 890.11,-137.1 893.52,-130.99"/>
</a>
</g>
</g>
<!-- Node15&#45;&gt;Node7 -->
<g id="edge19_Node000015_Node000007" class="edge">
<title>Node15&#45;&gt;Node7</title>
<g id="a_edge19_Node000015_Node000007"><a xlink:title=" ">
<path fill="none" stroke="#63b8ff" d="M887.16,-109.86C907.79,-101.59 939.01,-88.29 964.77,-74 991.56,-59.14 1020.5,-38.9 1039.08,-25.3"/>
<polygon fill="#63b8ff" stroke="#63b8ff" points="1041.36,-27.96 1047.32,-19.21 1037.2,-22.34 1041.36,-27.96"/>
</a>
</g>
</g>
<!-- Node15&#45;&gt;Node8 -->
<g id="edge20_Node000015_Node000008" class="edge">
<title>Node15&#45;&gt;Node8</title>
<g id="a_edge20_Node000015_Node000008"><a xlink:title=" ">
<path fill="none" stroke="#63b8ff" d="M831.96,-115.02C745.62,-105.87 511.82,-81.09 411.51,-70.45"/>
<polygon fill="#63b8ff" stroke="#63b8ff" points="411.69,-66.95 401.37,-69.38 410.95,-73.91 411.69,-66.95"/>
</a>
</g>
</g>
<!-- Node16 -->
<g id="Node000016" class="node">
<title>Node16</title>
<g id="a_Node000016"><a xlink:title=" ">
<polygon fill="#e0e0e0" stroke="#999999" points="687.77,-74 623.77,-74 623.77,-55 687.77,-55 687.77,-74"/>
<text text-anchor="middle" x="655.77" y="-62" font-family="Helvetica,sans-Serif" font-size="10.00">algorithm</text>
</a>
</g>
</g>
<!-- Node15&#45;&gt;Node16 -->
<g id="edge21_Node000015_Node000016" class="edge">
<title>Node15&#45;&gt;Node16</title>
<g id="a_edge21_Node000015_Node000016"><a xlink:title=" ">
<path fill="none" stroke="#63b8ff" d="M832.11,-110.22C795.89,-101.03 737.34,-86.18 697.74,-76.14"/>
<polygon fill="#63b8ff" stroke="#63b8ff" points="698.41,-72.7 687.85,-73.64 696.69,-79.49 698.41,-72.7"/>
</a>
</g>
</g>
<!-- Node17 -->
<g id="Node000017" class="node">
<title>Node17</title>
<g id="a_Node000017"><a xlink:title=" ">
<polygon fill="#e0e0e0" stroke="#999999" points="755.27,-74 706.27,-74 706.27,-55 755.27,-55 755.27,-74"/>
<text text-anchor="middle" x="730.77" y="-62" font-family="Helvetica,sans-Serif" font-size="10.00">cctype</text>
</a>
</g>
</g>
<!-- Node15&#45;&gt;Node17 -->
<g id="edge22_Node000015_Node000017" class="edge">
<title>Node15&#45;&gt;Node17</title>
<g id="a_edge22_Node000015_Node000017"><a xlink:title=" ">
<path fill="none" stroke="#63b8ff" d="M843.24,-109.98C821.3,-101.3 787.03,-87.75 762.08,-77.88"/>
<polygon fill="#63b8ff" stroke="#63b8ff" points="763.28,-74.59 752.69,-74.17 760.7,-81.1 763.28,-74.59"/>
</a>
</g>
</g>
<!-- Node18 -->
<g id="Node000018" class="node">
<title>Node18</title>
<g id="a_Node000018"><a xlink:title=" ">
<polygon fill="#e0e0e0" stroke="#999999" points="823.77,-74 773.77,-74 773.77,-55 823.77,-55 823.77,-74"/>
<text text-anchor="middle" x="798.77" y="-62" font-family="Helvetica,sans-Serif" font-size="10.00">cstring</text>
</a>
</g>
</g>
<!-- Node15&#45;&gt;Node18 -->
<g id="edge23_Node000015_Node000018" class="edge">
<title>Node15&#45;&gt;Node18</title>
<g id="a_edge23_Node000015_Node000018"><a xlink:title=" ">
<path fill="none" stroke="#63b8ff" d="M854.17,-109.98C844.31,-102.07 829.42,-90.11 817.56,-80.58"/>
<polygon fill="#63b8ff" stroke="#63b8ff" points="819.56,-77.7 809.57,-74.17 815.17,-83.16 819.56,-77.7"/>
</a>
</g>
</g>
<!-- Node19 -->
<g id="Node000019" class="node">
<title>Node19</title>
<g id="a_Node000019"><a xlink:title=" ">
<polygon fill="#e0e0e0" stroke="#999999" points="887.77,-74 841.77,-74 841.77,-55 887.77,-55 887.77,-74"/>
<text text-anchor="middle" x="864.77" y="-62" font-family="Helvetica,sans-Serif" font-size="10.00">cstdio</text>
</a>
</g>
</g>
<!-- Node15&#45;&gt;Node19 -->
<g id="edge24_Node000015_Node000019" class="edge">
<title>Node15&#45;&gt;Node19</title>
<g id="a_edge24_Node000015_Node000019"><a xlink:title=" ">
<path fill="none" stroke="#63b8ff" d="M864.77,-109.75C864.77,-102.8 864.77,-92.85 864.77,-84.13"/>
<polygon fill="#63b8ff" stroke="#63b8ff" points="868.27,-84.09 864.77,-74.09 861.27,-84.09 868.27,-84.09"/>
</a>
</g>
</g>
<!-- Node20 -->
<g id="Node000020" class="node">
<title>Node20</title>
<g id="a_Node000020"><a xlink:title=" ">
<polygon fill="#e0e0e0" stroke="#999999" points="955.27,-74 906.27,-74 906.27,-55 955.27,-55 955.27,-74"/>
<text text-anchor="middle" x="930.77" y="-62" font-family="Helvetica,sans-Serif" font-size="10.00">cstdlib</text>
</a>
</g>
</g>
<!-- Node15&#45;&gt;Node20 -->
<g id="edge25_Node000015_Node000020" class="edge">
<title>Node15&#45;&gt;Node20</title>
<g id="a_edge25_Node000015_Node000020"><a xlink:title=" ">
<path fill="none" stroke="#63b8ff" d="M875.37,-109.98C885.23,-102.07 900.12,-90.11 911.99,-80.58"/>
<polygon fill="#63b8ff" stroke="#63b8ff" points="914.37,-83.16 919.97,-74.17 909.98,-77.7 914.37,-83.16"/>
</a>
</g>
</g>
<!-- Node21 -->
<g id="Node000021" class="node">
<title>Node21</title>
<g id="a_Node000021"><a xlink:title=" ">
<polygon fill="#e0e0e0" stroke="#999999" points="1198.77,-19 1148.77,-19 1148.77,0 1198.77,0 1198.77,-19"/>
<text text-anchor="middle" x="1173.77" y="-7" font-family="Helvetica,sans-Serif" font-size="10.00">cstdint</text>
</a>
</g>
</g>
<!-- Node15&#45;&gt;Node21 -->
<g id="edge26_Node000015_Node000021" class="edge">
<title>Node15&#45;&gt;Node21</title>
<g id="a_edge26_Node000015_Node000021"><a xlink:title=" ">
<path fill="none" stroke="#63b8ff" d="M897.42,-116.3C974.43,-110.77 1162.33,-95.22 1180.77,-74 1191.44,-61.73 1187.59,-42.68 1182.35,-28.65"/>
<polygon fill="#63b8ff" stroke="#63b8ff" points="1185.43,-26.93 1178.3,-19.09 1178.98,-29.66 1185.43,-26.93"/>
</a>
</g>
</g>
<!-- Node22 -->
<g id="Node000022" class="node">
<title>Node22</title>
<g id="a_Node000022"><a xlink:title=" ">
<polygon fill="#e0e0e0" stroke="#999999" points="1069.27,-74 1012.27,-74 1012.27,-55 1069.27,-55 1069.27,-74"/>
<text text-anchor="middle" x="1040.77" y="-62" font-family="Helvetica,sans-Serif" font-size="10.00">ostream</text>
</a>
</g>
</g>
<!-- Node15&#45;&gt;Node22 -->
<g id="edge27_Node000015_Node000022" class="edge">
<title>Node15&#45;&gt;Node22</title>
<g id="a_edge27_Node000015_Node000022"><a xlink:title=" ">
<path fill="none" stroke="#63b8ff" d="M893.05,-109.98C922.72,-101.05 969.56,-86.94 1002.52,-77.02"/>
<polygon fill="#63b8ff" stroke="#63b8ff" points="1003.71,-80.32 1012.27,-74.08 1001.69,-73.61 1003.71,-80.32"/>
</a>
</g>
</g>
<!-- Node23 -->
<g id="Node000023" class="node">
<title>Node23</title>
<g id="a_Node000023"><a xlink:href="../../db/d7c/utf8_8h.html" target="_top" xlink:title="Various UTF8 related helper functions.">
<polygon fill="white" stroke="#666666" points="1171.27,-74 1126.27,-74 1126.27,-55 1171.27,-55 1171.27,-74"/>
<text text-anchor="middle" x="1148.77" y="-62" font-family="Helvetica,sans-Serif" font-size="10.00">utf8.h</text>
</a>
</g>
</g>
<!-- Node15&#45;&gt;Node23 -->
<g id="edge28_Node000015_Node000023" class="edge">
<title>Node15&#45;&gt;Node23</title>
<g id="a_edge28_Node000015_Node000023"><a xlink:title=" ">
<path fill="none" stroke="#63b8ff" d="M897.35,-112.42C951.96,-102.23 1061.37,-81.81 1116.07,-71.6"/>
<polygon fill="#63b8ff" stroke="#63b8ff" points="1116.74,-75.04 1125.93,-69.76 1115.46,-68.16 1116.74,-75.04"/>
</a>
</g>
</g>
<!-- Node23&#45;&gt;Node7 -->
<g id="edge30_Node000023_Node000007" class="edge">
<title>Node23&#45;&gt;Node7</title>
<g id="a_edge30_Node000023_Node000007"><a xlink:title=" ">
<path fill="none" stroke="#63b8ff" d="M1134.31,-54.98C1120.35,-46.77 1098.98,-34.18 1082.52,-24.49"/>
<polygon fill="#63b8ff" stroke="#63b8ff" points="1083.89,-21.23 1073.49,-19.17 1080.33,-27.26 1083.89,-21.23"/>
</a>
</g>
</g>
<!-- Node23&#45;&gt;Node21 -->
<g id="edge29_Node000023_Node000021" class="edge">
<title>Node23&#45;&gt;Node21</title>
<g id="a_edge29_Node000023_Node000021"><a xlink:title=" ">
<path fill="none" stroke="#63b8ff" d="M1152.9,-54.75C1156.28,-47.57 1161.19,-37.18 1165.39,-28.27"/>
<polygon fill="#63b8ff" stroke="#63b8ff" points="1168.62,-29.63 1169.72,-19.09 1162.29,-26.64 1168.62,-29.63"/>
</a>
</g>
</g>
<!-- Node24&#45;&gt;Node2 -->
<g id="edge34_Node000024_Node000002" class="edge">
<title>Node24&#45;&gt;Node2</title>
<g id="a_edge34_Node000024_Node000002"><a xlink:title=" ">
<path fill="none" stroke="#63b8ff" d="M702.11,-219.9C741.98,-203.05 827.12,-167.15 833.77,-165 885.37,-148.34 946.7,-135.18 985.67,-127.62"/>
<polygon fill="#63b8ff" stroke="#63b8ff" points="986.4,-131.05 995.56,-125.73 985.08,-124.17 986.4,-131.05"/>
</a>
</g>
</g>
<!-- Node24&#45;&gt;Node4 -->
<g id="edge32_Node000024_Node000004" class="edge">
<title>Node24&#45;&gt;Node4</title>
<g id="a_edge32_Node000024_Node000004"><a xlink:title=" ">
<path fill="none" stroke="#63b8ff" d="M669.11,-219.84C642.07,-201.36 578.43,-157.86 545.05,-135.05"/>
<polygon fill="#63b8ff" stroke="#63b8ff" points="546.72,-131.95 536.49,-129.2 542.77,-137.73 546.72,-131.95"/>
</a>
</g>
</g>
<!-- Node24&#45;&gt;Node11 -->
<g id="edge33_Node000024_Node000011" class="edge">
<title>Node24&#45;&gt;Node11</title>
<g id="a_edge33_Node000024_Node000011"><a xlink:title=" ">
<path fill="none" stroke="#63b8ff" d="M655.23,-225.47C617.12,-220.44 545.27,-208.42 488.77,-184 459.82,-171.49 430.19,-150.03 411.89,-135.56"/>
<polygon fill="#63b8ff" stroke="#63b8ff" points="413.85,-132.64 403.87,-129.08 409.45,-138.09 413.85,-132.64"/>
</a>
</g>
</g>
<!-- Node24&#45;&gt;Node15 -->
<g id="edge35_Node000024_Node000015" class="edge">
<title>Node24&#45;&gt;Node15</title>
<g id="a_edge35_Node000024_Node000015"><a xlink:title=" ">
<path fill="none" stroke="#63b8ff" d="M696.44,-219.84C728.1,-201.16 803.1,-156.9 841.39,-134.3"/>
<polygon fill="#63b8ff" stroke="#63b8ff" points="843.46,-137.14 850.29,-129.05 839.9,-131.12 843.46,-137.14"/>
</a>
</g>
</g>
<!-- Node25 -->
<g id="Node000025" class="node">
<title>Node25</title>
<g id="a_Node000025"><a xlink:href="../../da/de1/linkedmap_8h.html" target="_top" xlink:title=" ">
<polygon fill="white" stroke="#666666" points="747.27,-184 670.27,-184 670.27,-165 747.27,-165 747.27,-184"/>
<text text-anchor="middle" x="708.77" y="-172" font-family="Helvetica,sans-Serif" font-size="10.00">linkedmap.h</text>
</a>
</g>
</g>
<!-- Node24&#45;&gt;Node25 -->
<g id="edge36_Node000024_Node000025" class="edge">
<title>Node24&#45;&gt;Node25</title>
<g id="a_edge36_Node000024_Node000025"><a xlink:title=" ">
<path fill="none" stroke="#63b8ff" d="M686.23,-219.75C689.89,-212.57 695.18,-202.18 699.72,-193.27"/>
<polygon fill="#63b8ff" stroke="#63b8ff" points="702.97,-194.59 704.39,-184.09 696.74,-191.41 702.97,-194.59"/>
</a>
</g>
</g>
<!-- Node24&#45;&gt;Node26 -->
<g id="edge44_Node000024_Node000026" class="edge">
<title>Node24&#45;&gt;Node26</title>
<g id="a_edge44_Node000024_Node000026"><a xlink:title=" ">
<path fill="none" stroke="#63b8ff" d="M708.61,-221.24C741.53,-212.34 797.68,-197.16 836.19,-186.74"/>
<polygon fill="#63b8ff" stroke="#63b8ff" points="837.33,-190.06 846.07,-184.07 835.5,-183.3 837.33,-190.06"/>
</a>
</g>
</g>
<!-- Node25&#45;&gt;Node2 -->
<g id="edge39_Node000025_Node000002" class="edge">
<title>Node25&#45;&gt;Node2</title>
<g id="a_edge39_Node000025_Node000002"><a xlink:title=" ">
<path fill="none" stroke="#63b8ff" d="M747.52,-167C808.12,-156.84 924.69,-137.29 985.57,-127.07"/>
<polygon fill="#63b8ff" stroke="#63b8ff" points="986.27,-130.51 995.56,-125.4 985.11,-123.6 986.27,-130.51"/>
</a>
</g>
</g>
<!-- Node25&#45;&gt;Node4 -->
<g id="edge38_Node000025_Node000004" class="edge">
<title>Node25&#45;&gt;Node4</title>
<g id="a_edge38_Node000025_Node000004"><a xlink:title=" ">
<path fill="none" stroke="#63b8ff" d="M679.05,-164.98C645.77,-155.45 591.96,-140.03 557.23,-130.09"/>
<polygon fill="#63b8ff" stroke="#63b8ff" points="558.12,-126.7 547.54,-127.31 556.19,-133.43 558.12,-126.7"/>
</a>
</g>
</g>
<!-- Node25&#45;&gt;Node7 -->
<g id="edge40_Node000025_Node000007" class="edge">
<title>Node25&#45;&gt;Node7</title>
<g id="a_edge40_Node000025_Node000007"><a xlink:title=" ">
<path fill="none" stroke="#63b8ff" d="M692.71,-164.86C657.5,-144.87 579.36,-94.14 614.77,-55 642.32,-24.55 928.87,-14.01 1026.44,-11.29"/>
<polygon fill="#63b8ff" stroke="#63b8ff" points="1026.69,-14.79 1036.6,-11.02 1026.5,-7.79 1026.69,-14.79"/>
</a>
</g>
</g>
<!-- Node25&#45;&gt;Node11 -->
<g id="edge37_Node000025_Node000011" class="edge">
<title>Node25&#45;&gt;Node11</title>
<g id="a_edge37_Node000025_Node000011"><a xlink:title=" ">
<path fill="none" stroke="#63b8ff" d="M670.15,-167C615.21,-157.76 514.15,-140.75 450.64,-130.07"/>
<polygon fill="#63b8ff" stroke="#63b8ff" points="450.84,-126.55 440.4,-128.35 449.68,-133.46 450.84,-126.55"/>
</a>
</g>
</g>
<!-- Node25&#45;&gt;Node15 -->
<g id="edge43_Node000025_Node000015" class="edge">
<title>Node25&#45;&gt;Node15</title>
<g id="a_edge43_Node000025_Node000015"><a xlink:title=" ">
<path fill="none" stroke="#63b8ff" d="M733.83,-164.98C759.8,-156.16 800.58,-142.31 829.73,-132.41"/>
<polygon fill="#63b8ff" stroke="#63b8ff" points="831.17,-135.61 839.51,-129.08 828.92,-128.99 831.17,-135.61"/>
</a>
</g>
</g>
<!-- Node25&#45;&gt;Node16 -->
<g id="edge41_Node000025_Node000016" class="edge">
<title>Node25&#45;&gt;Node16</title>
<g id="a_edge41_Node000025_Node000016"><a xlink:title=" ">
<path fill="none" stroke="#63b8ff" d="M704.43,-164.66C695.73,-146.93 676,-106.73 664.52,-83.32"/>
<polygon fill="#63b8ff" stroke="#63b8ff" points="667.57,-81.59 660.02,-74.16 661.28,-84.68 667.57,-81.59"/>
</a>
</g>
</g>
<!-- Node25&#45;&gt;Node17 -->
<g id="edge42_Node000025_Node000017" class="edge">
<title>Node25&#45;&gt;Node17</title>
<g id="a_edge42_Node000025_Node000017"><a xlink:title=" ">
<path fill="none" stroke="#63b8ff" d="M710.57,-164.66C714.13,-147.17 722.15,-107.8 726.95,-84.27"/>
<polygon fill="#63b8ff" stroke="#63b8ff" points="730.44,-84.66 729.01,-74.16 723.58,-83.26 730.44,-84.66"/>
</a>
</g>
</g>
<!-- Node27&#45;&gt;Node4 -->
<g id="edge47_Node000027_Node000004" class="edge">
<title>Node27&#45;&gt;Node4</title>
<g id="a_edge47_Node000027_Node000004"><a xlink:title=" ">
<path fill="none" stroke="#63b8ff" d="M534.62,-164.75C532.9,-157.72 530.42,-147.62 528.27,-138.84"/>
<polygon fill="#63b8ff" stroke="#63b8ff" points="531.66,-137.97 525.88,-129.09 524.86,-139.63 531.66,-137.97"/>
</a>
</g>
</g>
<!-- Node27&#45;&gt;Node15 -->
<g id="edge48_Node000027_Node000015" class="edge">
<title>Node27&#45;&gt;Node15</title>
<g id="a_edge48_Node000027_Node000015"><a xlink:title=" ">
<path fill="none" stroke="#63b8ff" d="M576.01,-167.16C637.86,-157.17 757.58,-137.82 821.72,-127.46"/>
<polygon fill="#63b8ff" stroke="#63b8ff" points="822.58,-130.86 831.89,-125.81 821.46,-123.95 822.58,-130.86"/>
</a>
</g>
</g>
<!-- Node28&#45;&gt;Node2 -->
<g id="edge52_Node000028_Node000002" class="edge">
<title>Node28&#45;&gt;Node2</title>
<g id="a_edge52_Node000028_Node000002"><a xlink:title=" ">
<path fill="none" stroke="#63b8ff" d="M818.18,-274.97C853.35,-248.68 960.32,-168.69 1004.92,-135.34"/>
<polygon fill="#63b8ff" stroke="#63b8ff" points="1007.29,-137.94 1013.21,-129.15 1003.1,-132.33 1007.29,-137.94"/>
</a>
</g>
</g>
<!-- Node28&#45;&gt;Node4 -->
<g id="edge50_Node000028_Node000004" class="edge">
<title>Node28&#45;&gt;Node4</title>
<g id="a_edge50_Node000028_Node000004"><a xlink:title=" ">
<path fill="none" stroke="#63b8ff" d="M759.01,-275.72C678.26,-261.47 520.4,-228.5 488.77,-184 477.8,-168.56 491.82,-149.33 505.24,-136.11"/>
<polygon fill="#63b8ff" stroke="#63b8ff" points="507.88,-138.43 512.88,-129.08 503.15,-133.27 507.88,-138.43"/>
</a>
</g>
</g>
<!-- Node28&#45;&gt;Node10 -->
<g id="edge51_Node000028_Node000010" class="edge">
<title>Node28&#45;&gt;Node10</title>
<g id="a_edge51_Node000028_Node000010"><a xlink:title=" ">
<path fill="none" stroke="#63b8ff" d="M824.4,-274.84C862.87,-255.96 954.55,-210.96 1000.11,-188.59"/>
<polygon fill="#63b8ff" stroke="#63b8ff" points="1001.93,-191.6 1009.36,-184.05 998.84,-185.31 1001.93,-191.6"/>
</a>
</g>
</g>
<!-- Node28&#45;&gt;Node14 -->
<g id="edge53_Node000028_Node000014" class="edge">
<title>Node28&#45;&gt;Node14</title>
<g id="a_edge53_Node000028_Node000014"><a xlink:title=" ">
<path fill="none" stroke="#63b8ff" d="M804.29,-274.75C802.31,-267.72 799.45,-257.62 796.96,-248.84"/>
<polygon fill="#63b8ff" stroke="#63b8ff" points="800.29,-247.76 794.2,-239.09 793.56,-249.66 800.29,-247.76"/>
</a>
</g>
</g>
<!-- Node28&#45;&gt;Node24 -->
<g id="edge54_Node000028_Node000024" class="edge">
<title>Node28&#45;&gt;Node24</title>
<g id="a_edge54_Node000028_Node000024"><a xlink:title=" ">
<path fill="none" stroke="#63b8ff" d="M786.69,-274.98C766.4,-266.38 734.82,-252.99 711.6,-243.15"/>
<polygon fill="#63b8ff" stroke="#63b8ff" points="712.79,-239.85 702.22,-239.17 710.06,-246.3 712.79,-239.85"/>
</a>
</g>
</g>
<!-- Node30&#45;&gt;Node4 -->
<g id="edge57_Node000030_Node000004" class="edge">
<title>Node30&#45;&gt;Node4</title>
<g id="a_edge57_Node000030_Node000004"><a xlink:title=" ">
<path fill="none" stroke="#63b8ff" d="M990.54,-274.92C956.07,-261.84 887.46,-236.66 827.77,-220 755.06,-199.71 733.37,-207.92 661.77,-184 650.61,-180.27 587.89,-150.86 550.96,-133.4"/>
<polygon fill="#63b8ff" stroke="#63b8ff" points="552.27,-130.14 541.73,-129.03 549.27,-136.47 552.27,-130.14"/>
</a>
</g>
</g>
<!-- Node30&#45;&gt;Node10 -->
<g id="edge58_Node000030_Node000010" class="edge">
<title>Node30&#45;&gt;Node10</title>
<g id="a_edge58_Node000030_Node000010"><a xlink:title=" ">
<path fill="none" stroke="#63b8ff" d="M1002.86,-274.63C990.6,-262.52 972.29,-240 980.77,-220 985.75,-208.25 995.52,-198.09 1004.78,-190.45"/>
<polygon fill="#63b8ff" stroke="#63b8ff" points="1007.17,-193.03 1012.99,-184.18 1002.92,-187.47 1007.17,-193.03"/>
</a>
</g>
</g>
<!-- Node30&#45;&gt;Node14 -->
<g id="edge61_Node000030_Node000014" class="edge">
<title>Node30&#45;&gt;Node14</title>
<g id="a_edge61_Node000030_Node000014"><a xlink:title=" ">
<path fill="none" stroke="#63b8ff" d="M980.16,-275.68C939.67,-265.97 870.8,-249.45 828.5,-239.31"/>
<polygon fill="#63b8ff" stroke="#63b8ff" points="829.14,-235.86 818.6,-236.94 827.51,-242.67 829.14,-235.86"/>
</a>
</g>
</g>
<!-- Node31 -->
<g id="Node000031" class="node">
<title>Node31</title>
<g id="a_Node000031"><a xlink:title=" ">
<polygon fill="#e0e0e0" stroke="#999999" points="1036.27,-239 989.27,-239 989.27,-220 1036.27,-220 1036.27,-239"/>
<text text-anchor="middle" x="1012.77" y="-227" font-family="Helvetica,sans-Serif" font-size="10.00">deque</text>
</a>
</g>
</g>
<!-- Node30&#45;&gt;Node31 -->
<g id="edge59_Node000030_Node000031" class="edge">
<title>Node30&#45;&gt;Node31</title>
<g id="a_edge59_Node000030_Node000031"><a xlink:title=" ">
<path fill="none" stroke="#63b8ff" d="M1012.77,-274.75C1012.77,-267.8 1012.77,-257.85 1012.77,-249.13"/>
<polygon fill="#63b8ff" stroke="#63b8ff" points="1016.27,-249.09 1012.77,-239.09 1009.27,-249.09 1016.27,-249.09"/>
</a>
</g>
</g>
<!-- Node32 -->
<g id="Node000032" class="node">
<title>Node32</title>
<g id="a_Node000032"><a xlink:title=" ">
<polygon fill="#e0e0e0" stroke="#999999" points="1161.77,-184 1101.77,-184 1101.77,-165 1161.77,-165 1161.77,-184"/>
<text text-anchor="middle" x="1131.77" y="-172" font-family="Helvetica,sans-Serif" font-size="10.00">iostream</text>
</a>
</g>
</g>
<!-- Node30&#45;&gt;Node32 -->
<g id="edge60_Node000030_Node000032" class="edge">
<title>Node30&#45;&gt;Node32</title>
<g id="a_edge60_Node000030_Node000032"><a xlink:title=" ">
<path fill="none" stroke="#63b8ff" d="M1045.43,-281.31C1073.77,-277.49 1113.23,-267.09 1132.77,-239 1141.81,-226 1140.4,-207.6 1137.41,-193.96"/>
<polygon fill="#63b8ff" stroke="#63b8ff" points="1140.78,-193 1134.85,-184.22 1134.01,-194.78 1140.78,-193"/>
</a>
</g>
</g>
<!-- Node30&#45;&gt;Node33 -->
<g id="edge62_Node000030_Node000033" class="edge">
<title>Node30&#45;&gt;Node33</title>
<g id="a_edge62_Node000030_Node000033"><a xlink:title=" ">
<path fill="none" stroke="#63b8ff" d="M1024.98,-274.98C1036.55,-266.92 1054.15,-254.65 1067.93,-245.03"/>
<polygon fill="#63b8ff" stroke="#63b8ff" points="1070.14,-247.76 1076.34,-239.17 1066.13,-242.02 1070.14,-247.76"/>
</a>
</g>
</g>
<!-- Node33&#45;&gt;Node10 -->
<g id="edge64_Node000033_Node000010" class="edge">
<title>Node33&#45;&gt;Node10</title>
<g id="a_edge64_Node000033_Node000010"><a xlink:title=" ">
<path fill="none" stroke="#63b8ff" d="M1078.81,-219.98C1069.64,-212.15 1055.83,-200.34 1044.74,-190.86"/>
<polygon fill="#63b8ff" stroke="#63b8ff" points="1046.79,-188.01 1036.91,-184.17 1042.24,-193.33 1046.79,-188.01"/>
</a>
</g>
</g>
<!-- Node33&#45;&gt;Node15 -->
<g id="edge65_Node000033_Node000015" class="edge">
<title>Node33&#45;&gt;Node15</title>
<g id="a_edge65_Node000033_Node000015"><a xlink:title=" ">
<path fill="none" stroke="#63b8ff" d="M1086.55,-219.58C1082.6,-205.68 1073.02,-179.01 1054.77,-165 1012.03,-132.2 949.08,-122.98 907.51,-120.7"/>
<polygon fill="#63b8ff" stroke="#63b8ff" points="907.57,-117.2 897.43,-120.26 907.27,-124.19 907.57,-117.2"/>
</a>
</g>
</g>
<!-- Node33&#45;&gt;Node26 -->
<g id="edge71_Node000033_Node000026" class="edge">
<title>Node33&#45;&gt;Node26</title>
<g id="a_edge71_Node000033_Node000026"><a xlink:title=" ">
<path fill="none" stroke="#63b8ff" d="M1054.87,-219.98C1018.76,-210.91 961.45,-196.52 921.85,-186.57"/>
<polygon fill="#63b8ff" stroke="#63b8ff" points="922.49,-183.12 911.94,-184.08 920.78,-189.91 922.49,-183.12"/>
</a>
</g>
</g>
<!-- Node33&#45;&gt;Node32 -->
<g id="edge63_Node000033_Node000032" class="edge">
<title>Node33&#45;&gt;Node32</title>
<g id="a_edge63_Node000033_Node000032"><a xlink:title=" ">
<path fill="none" stroke="#63b8ff" d="M1095.87,-219.75C1101.94,-212.26 1110.86,-201.28 1118.28,-192.13"/>
<polygon fill="#63b8ff" stroke="#63b8ff" points="1121.22,-194.06 1124.8,-184.09 1115.78,-189.65 1121.22,-194.06"/>
</a>
</g>
</g>
<!-- Node34 -->
<g id="Node000034" class="node">
<title>Node34</title>
<g id="a_Node000034"><a xlink:href="../../df/d9c/dir_8h.html" target="_top" xlink:title=" ">
<polygon fill="white" stroke="#666666" points="1293.77,-184 1255.77,-184 1255.77,-165 1293.77,-165 1293.77,-184"/>
<text text-anchor="middle" x="1274.77" y="-172" font-family="Helvetica,sans-Serif" font-size="10.00">dir.h</text>
</a>
</g>
</g>
<!-- Node33&#45;&gt;Node34 -->
<g id="edge66_Node000033_Node000034" class="edge">
<title>Node33&#45;&gt;Node34</title>
<g id="a_edge66_Node000033_Node000034"><a xlink:title=" ">
<path fill="none" stroke="#63b8ff" d="M1118.65,-219.98C1153.65,-210.01 1211.21,-193.61 1245.8,-183.75"/>
<polygon fill="#63b8ff" stroke="#63b8ff" points="1247.09,-187.03 1255.75,-180.92 1245.17,-180.29 1247.09,-187.03"/>
</a>
</g>
</g>
<!-- Node34&#45;&gt;Node2 -->
<g id="edge68_Node000034_Node000002" class="edge">
<title>Node34&#45;&gt;Node2</title>
<g id="a_edge68_Node000034_Node000002"><a xlink:title=" ">
<path fill="none" stroke="#63b8ff" d="M1255.62,-168.39C1251.09,-167.23 1246.27,-166.04 1241.77,-165 1179.85,-150.69 1107.45,-136.31 1063.9,-127.92"/>
<polygon fill="#63b8ff" stroke="#63b8ff" points="1064.48,-124.46 1054,-126.01 1063.16,-131.34 1064.48,-124.46"/>
</a>
</g>
</g>
<!-- Node34&#45;&gt;Node7 -->
<g id="edge67_Node000034_Node000007" class="edge">
<title>Node34&#45;&gt;Node7</title>
<g id="a_edge67_Node000034_Node000007"><a xlink:title=" ">
<path fill="none" stroke="#63b8ff" d="M1270.09,-164.7C1258.11,-142.98 1224.21,-86.34 1180.77,-55 1153.65,-35.44 1117.01,-23.6 1090.98,-17.11"/>
<polygon fill="#63b8ff" stroke="#63b8ff" points="1091.76,-13.7 1081.22,-14.8 1090.14,-20.51 1091.76,-13.7"/>
</a>
</g>
</g>
<!-- Node35 -->
<g id="Node000035" class="node">
<title>Node35</title>
<g id="a_Node000035"><a xlink:href="../../df/d45/fileinfo_8h.html" target="_top" xlink:title=" ">
<polygon fill="white" stroke="#666666" points="1183.27,-129 1124.27,-129 1124.27,-110 1183.27,-110 1183.27,-129"/>
<text text-anchor="middle" x="1153.77" y="-117" font-family="Helvetica,sans-Serif" font-size="10.00">fileinfo.h</text>
</a>
</g>
</g>
<!-- Node34&#45;&gt;Node35 -->
<g id="edge69_Node000034_Node000035" class="edge">
<title>Node34&#45;&gt;Node35</title>
<g id="a_edge69_Node000034_Node000035"><a xlink:title=" ">
<path fill="none" stroke="#63b8ff" d="M1255.6,-165.1C1235.98,-156.51 1205.25,-143.05 1182.68,-133.16"/>
<polygon fill="#63b8ff" stroke="#63b8ff" points="1183.82,-129.84 1173.25,-129.03 1181.01,-136.25 1183.82,-129.84"/>
</a>
</g>
</g>
<!-- Node35&#45;&gt;Node7 -->
<g id="edge70_Node000035_Node000007" class="edge">
<title>Node35&#45;&gt;Node7</title>
<g id="a_edge70_Node000035_Node000007"><a xlink:title=" ">
<path fill="none" stroke="#63b8ff" d="M1146,-109.66C1130.05,-91.54 1093.44,-49.91 1073.08,-26.77"/>
<polygon fill="#63b8ff" stroke="#63b8ff" points="1075.62,-24.36 1066.39,-19.16 1070.36,-28.98 1075.62,-24.36"/>
</a>
</g>
</g>
</g>
</svg>
