<?xml version="1.0" encoding="UTF-8" standalone="no"?>
<!DOCTYPE svg PUBLIC "-//W3C//DTD SVG 1.1//EN"
 "http://www.w3.org/Graphics/SVG/1.1/DTD/svg11.dtd">
<!-- Generated by graphviz version 2.43.0 (0)
 -->
<!-- Title: FileDefImpl Pages: 1 -->
<!--zoomable 665 -->

<svg id="main" version="1.1" xmlns="http://www.w3.org/2000/svg" xmlns:xlink="http://www.w3.org/1999/xlink" xml:space="preserve" onload="init(evt)">
<style type="text/css"><![CDATA[
.node, .edge {opacity: 0.7;}
.node.selected, .edge.selected {opacity: 1;}
.edge:hover path { stroke: red; }
.edge:hover polygon { stroke: red; fill: red; }
]]></style>

<defs>
  <circle id="rim" cx="0" cy="0" r="7"/>
  <circle id="rim2" cx="0" cy="0" r="3.5"/>
  <g id="zoomPlus">
    <use xlink:href="#rim" fill="#404040"><set attributeName="fill" to="#808080" begin="zoomplus.mouseover" end="zoomplus.mouseout"/></use>
    <path d="M-4,0h8M0,-4v8" fill="none" stroke="white" stroke-width="1.5" pointer-events="none"/>
  </g>
  <g id="zoomMin">
    <use xlink:href="#rim" fill="#404040"><set attributeName="fill" to="#808080" begin="zoomminus.mouseover" end="zoomminus.mouseout"/></use>
    <path d="M-4,0h8" fill="none" stroke="white" stroke-width="1.5" pointer-events="none"/>
  </g>
  <g id="arrowUp" transform="translate(30 24)">
    <use xlink:href="#rim"/>
    <path pointer-events="none" fill="none" stroke="white" stroke-width="1.5" d="M0,-3.0v7 M-2.5,-0.5L0,-3.0L2.5,-0.5"/>
  </g>
  <g id="arrowRight" transform="rotate(90) translate(36 -43)">
    <use xlink:href="#rim"/>
    <path pointer-events="none" fill="none" stroke="white" stroke-width="1.5" d="M0,-3.0v7 M-2.5,-0.5L0,-3.0L2.5,-0.5"/>
  </g>
  <g id="arrowDown" transform="rotate(180) translate(-30 -48)">
    <use xlink:href="#rim"/>
    <path pointer-events="none" fill="none" stroke="white" stroke-width="1.5" d="M0,-3.0v7 M-2.5,-0.5L0,-3.0L2.5,-0.5"/>
  </g>
  <g id="arrowLeft" transform="rotate(270) translate(-36 17)">
    <use xlink:href="#rim"/>
    <path pointer-events="none" fill="none" stroke="white" stroke-width="1.5" d="M0,-3.0v7 M-2.5,-0.5L0,-3.0L2.5,-0.5"/>
  </g>
  <g id="resetDef">
    <use xlink:href="#rim2" fill="#404040"><set attributeName="fill" to="#808080" begin="reset.mouseover" end="reset.mouseout"/></use>
  </g>
</defs>
<script type="application/ecmascript">
var viewWidth = 1064;
var viewHeight = 665;
var sectionId = 'dynsection-1';
</script>
<script type="application/ecmascript" xlink:href="../../svg.min.js"/>
<svg id="graph" class="graph">
<g id="viewport">
<title>FileDefImpl</title>
<!-- Node1 -->
<g id="Node000001" class="node">
<title>Node1</title>
<g id="a_Node000001"><a xlink:title=" ">
<polygon fill="#999999" stroke="#666666" points="1056,-253.98 983,-253.98 983,-234.98 1056,-234.98 1056,-253.98"/>
<text text-anchor="middle" x="1019.5" y="-241.98" font-family="Helvetica,sans-Serif" font-size="10.00">FileDefImpl</text>
</a>
</g>
</g>
<!-- Node2 -->
<g id="Node000002" class="node">
<title>Node2</title>
<g id="a_Node000002"><a xlink:href="../../dd/d10/class_definition_mixin.html" target="_top" xlink:title=" ">
<polygon fill="white" stroke="#666666" points="835,-601.98 687,-601.98 687,-582.98 835,-582.98 835,-601.98"/>
<text text-anchor="middle" x="761" y="-589.98" font-family="Helvetica,sans-Serif" font-size="10.00">DefinitionMixin&lt; FileDef &gt;</text>
</a>
</g>
</g>
<!-- Node2&#45;&gt;Node1 -->
<g id="edge1_Node000001_Node000002" class="edge">
<title>Node2&#45;&gt;Node1</title>
<g id="a_edge1_Node000001_Node000002"><a xlink:title=" ">
<path fill="none" stroke="#63b8ff" d="M845.43,-590.06C887.02,-584.39 934.75,-570.38 965,-537.48 1004.46,-494.56 1015.91,-299.91 1018.08,-254.14"/>
<polygon fill="#63b8ff" stroke="#63b8ff" points="844.79,-586.61 835.29,-591.29 845.64,-593.56 844.79,-586.61"/>
</a>
</g>
</g>
<!-- Node3 -->
<g id="Node000003" class="node">
<title>Node3</title>
<g id="a_Node000003"><a xlink:href="../../de/db0/class_file_def.html" target="_top" xlink:title="A model of a file symbol.">
<polygon fill="white" stroke="#666666" points="411,-577.98 360,-577.98 360,-558.98 411,-558.98 411,-577.98"/>
<text text-anchor="middle" x="385.5" y="-565.98" font-family="Helvetica,sans-Serif" font-size="10.00">FileDef</text>
</a>
</g>
</g>
<!-- Node3&#45;&gt;Node2 -->
<g id="edge2_Node000002_Node000003" class="edge">
<title>Node3&#45;&gt;Node2</title>
<g id="a_edge2_Node000002_Node000003"><a xlink:title=" ">
<path fill="none" stroke="#63b8ff" d="M421.13,-570.7C481.41,-574.58 606.79,-582.63 686.99,-587.79"/>
<polygon fill="#63b8ff" stroke="#63b8ff" points="421.21,-567.2 411.01,-570.05 420.76,-574.19 421.21,-567.2"/>
</a>
</g>
</g>
<!-- Node4 -->
<g id="Node000004" class="node">
<title>Node4</title>
<g id="a_Node000004"><a xlink:href="../../d0/d46/class_definition_mutable.html" target="_top" xlink:title=" ">
<polygon fill="white" stroke="#666666" points="120.5,-502.98 16.5,-502.98 16.5,-483.98 120.5,-483.98 120.5,-502.98"/>
<text text-anchor="middle" x="68.5" y="-490.98" font-family="Helvetica,sans-Serif" font-size="10.00">DefinitionMutable</text>
</a>
</g>
</g>
<!-- Node4&#45;&gt;Node3 -->
<g id="edge3_Node000003_Node000004" class="edge">
<title>Node4&#45;&gt;Node3</title>
<g id="a_edge3_Node000003_Node000004"><a xlink:title=" ">
<path fill="none" stroke="#63b8ff" d="M118.11,-505.96C124.52,-507.96 130.96,-510.14 137,-512.48 145.34,-515.7 146.55,-518.56 155,-521.48 227.27,-546.46 317.16,-560.1 359.82,-565.58"/>
<polygon fill="#63b8ff" stroke="#63b8ff" points="118.69,-502.49 108.11,-502.99 116.7,-509.19 118.69,-502.49"/>
</a>
</g>
</g>
<!-- Node15 -->
<g id="Node000015" class="node">
<title>Node15</title>
<g id="a_Node000015"><a xlink:href="../../d4/dd4/class_dir_def.html" target="_top" xlink:title="A model of a directory symbol.">
<polygon fill="white" stroke="#666666" points="409.5,-532.98 361.5,-532.98 361.5,-513.98 409.5,-513.98 409.5,-532.98"/>
<text text-anchor="middle" x="385.5" y="-520.98" font-family="Helvetica,sans-Serif" font-size="10.00">DirDef</text>
</a>
</g>
</g>
<!-- Node4&#45;&gt;Node15 -->
<g id="edge17_Node000015_Node000004" class="edge">
<title>Node4&#45;&gt;Node15</title>
<g id="a_edge17_Node000015_Node000004"><a xlink:title=" ">
<path fill="none" stroke="#63b8ff" d="M130.9,-499.32C201.37,-506.04 313.41,-516.71 361.42,-521.28"/>
<polygon fill="#63b8ff" stroke="#63b8ff" points="131.1,-495.83 120.81,-498.36 130.43,-502.8 131.1,-495.83"/>
</a>
</g>
</g>
<!-- Node16 -->
<g id="Node000016" class="node">
<title>Node16</title>
<g id="a_Node000016"><a xlink:href="../../d0/ded/class_module_def.html" target="_top" xlink:title=" ">
<polygon fill="white" stroke="#666666" points="420.5,-483.98 350.5,-483.98 350.5,-464.98 420.5,-464.98 420.5,-483.98"/>
<text text-anchor="middle" x="385.5" y="-471.98" font-family="Helvetica,sans-Serif" font-size="10.00">ModuleDef</text>
</a>
</g>
</g>
<!-- Node4&#45;&gt;Node16 -->
<g id="edge20_Node000016_Node000004" class="edge">
<title>Node4&#45;&gt;Node16</title>
<g id="a_edge20_Node000016_Node000004"><a xlink:title=" ">
<path fill="none" stroke="#63b8ff" d="M99.81,-480.03C115.86,-473.63 136.12,-466.69 155,-463.48 223.62,-451.79 305.32,-461.15 350.39,-468.29"/>
<polygon fill="#63b8ff" stroke="#63b8ff" points="98.32,-476.86 90.4,-483.9 100.98,-483.33 98.32,-476.86"/>
</a>
</g>
</g>
<!-- Node5 -->
<g id="Node000005" class="node">
<title>Node5</title>
<g id="a_Node000005"><a xlink:href="../../d5/dcc/class_definition.html" target="_top" xlink:title="The common base class of all entity definitions found in the sources.">
<polygon fill="white" stroke="#666666" points="100.5,-539.98 36.5,-539.98 36.5,-520.98 100.5,-520.98 100.5,-539.98"/>
<text text-anchor="middle" x="68.5" y="-527.98" font-family="Helvetica,sans-Serif" font-size="10.00">Definition</text>
</a>
</g>
</g>
<!-- Node5&#45;&gt;Node3 -->
<g id="edge4_Node000003_Node000005" class="edge">
<title>Node5&#45;&gt;Node3</title>
<g id="a_edge4_Node000003_Node000005"><a xlink:title=" ">
<path fill="none" stroke="#63b8ff" d="M100.18,-543.78C116.2,-550.07 136.31,-556.96 155,-560.48 228.46,-574.31 317.43,-572.17 359.78,-570.04"/>
<polygon fill="#63b8ff" stroke="#63b8ff" points="101.37,-540.49 90.79,-539.98 98.75,-546.98 101.37,-540.49"/>
</a>
</g>
</g>
<!-- Node5&#45;&gt;Node15 -->
<g id="edge18_Node000015_Node000005" class="edge">
<title>Node5&#45;&gt;Node15</title>
<g id="a_edge18_Node000015_Node000005"><a xlink:title=" ">
<path fill="none" stroke="#63b8ff" d="M110.75,-529.56C177.74,-528.07 308.04,-525.18 361.13,-524"/>
<polygon fill="#63b8ff" stroke="#63b8ff" points="110.49,-526.07 100.57,-529.79 110.64,-533.06 110.49,-526.07"/>
</a>
</g>
</g>
<!-- Node5&#45;&gt;Node16 -->
<g id="edge21_Node000016_Node000005" class="edge">
<title>Node5&#45;&gt;Node16</title>
<g id="a_edge21_Node000016_Node000005"><a xlink:title=" ">
<path fill="none" stroke="#63b8ff" d="M110.51,-523.19C173.26,-512.03 291.98,-490.93 350.35,-480.55"/>
<polygon fill="#63b8ff" stroke="#63b8ff" points="109.8,-519.76 100.57,-524.95 111.02,-526.65 109.8,-519.76"/>
</a>
</g>
</g>
<!-- Node6 -->
<g id="Node000006" class="node">
<title>Node6</title>
<g id="a_Node000006"><a xlink:href="../../d3/ddf/class_definition_impl.html" target="_top" xlink:title=" ">
<polygon fill="white" stroke="#666666" points="111.5,-656.98 25.5,-656.98 25.5,-637.98 111.5,-637.98 111.5,-656.98"/>
<text text-anchor="middle" x="68.5" y="-644.98" font-family="Helvetica,sans-Serif" font-size="10.00">DefinitionImpl</text>
</a>
</g>
</g>
<!-- Node6&#45;&gt;Node2 -->
<g id="edge5_Node000002_Node000006" class="edge">
<title>Node6&#45;&gt;Node2</title>
<g id="a_edge5_Node000002_Node000006"><a xlink:title=" ">
<path fill="none" stroke="#9a32cd" stroke-dasharray="5,2" d="M121.95,-648.74C226.71,-650.4 468.99,-649.85 669,-616.48 689.47,-613.06 712.02,-607.13 729.56,-602.02"/>
<polygon fill="#9a32cd" stroke="#9a32cd" points="121.7,-645.24 111.65,-648.57 121.58,-652.24 121.7,-645.24"/>
</a>
</g>
<text text-anchor="middle" x="385.5" y="-649.48" font-family="Helvetica,sans-Serif" font-size="10.00" fill="grey"> m_impl</text>
</g>
<!-- Node7 -->
<g id="Node000007" class="node">
<title>Node7</title>
<g id="a_Node000007"><a xlink:href="../../dd/d10/class_definition_mixin.html" target="_top" xlink:title=" ">
<polygon fill="white" stroke="#666666" points="454,-614.98 317,-614.98 317,-595.98 454,-595.98 454,-614.98"/>
<text text-anchor="middle" x="385.5" y="-602.98" font-family="Helvetica,sans-Serif" font-size="10.00">DefinitionMixin&lt; Base &gt;</text>
</a>
</g>
</g>
<!-- Node6&#45;&gt;Node7 -->
<g id="edge8_Node000007_Node000006" class="edge">
<title>Node6&#45;&gt;Node7</title>
<g id="a_edge8_Node000007_Node000006"><a xlink:title=" ">
<path fill="none" stroke="#9a32cd" stroke-dasharray="5,2" d="M121.57,-638.6C132.59,-636.82 144.17,-635.02 155,-633.48 209.34,-625.72 271.11,-618.26 316.87,-612.99"/>
<polygon fill="#9a32cd" stroke="#9a32cd" points="120.94,-635.16 111.63,-640.23 122.06,-642.07 120.94,-635.16"/>
</a>
</g>
<text text-anchor="middle" x="220" y="-636.48" font-family="Helvetica,sans-Serif" font-size="10.00" fill="grey"> m_impl</text>
</g>
<!-- Node7&#45;&gt;Node2 -->
<g id="edge6_Node000002_Node000007" class="edge">
<title>Node7&#45;&gt;Node2</title>
<g id="a_edge6_Node000002_Node000007"><a xlink:title=" ">
<path fill="none" stroke="orange" stroke-dasharray="5,2" d="M464.4,-602.77C529.85,-600.49 622.7,-597.26 686.8,-595.03"/>
<polygon fill="orange" stroke="orange" points="464.01,-599.28 454.14,-603.12 464.25,-606.27 464.01,-599.28"/>
</a>
</g>
<text text-anchor="middle" x="577.5" y="-604.48" font-family="Helvetica,sans-Serif" font-size="10.00" fill="grey"> &lt; FileDef &gt;</text>
</g>
<!-- Node8 -->
<g id="Node000008" class="node">
<title>Node8</title>
<g id="a_Node000008"><a xlink:title=" ">
<polygon fill="white" stroke="#666666" points="89,-608.98 48,-608.98 48,-589.98 89,-589.98 89,-608.98"/>
<text text-anchor="middle" x="68.5" y="-596.98" font-family="Helvetica,sans-Serif" font-size="10.00">Base</text>
</a>
</g>
</g>
<!-- Node8&#45;&gt;Node7 -->
<g id="edge7_Node000007_Node000008" class="edge">
<title>Node8&#45;&gt;Node7</title>
<g id="a_edge7_Node000007_Node000008"><a xlink:title=" ">
<path fill="none" stroke="#63b8ff" d="M99.25,-600.04C148.8,-600.99 249.43,-602.9 316.92,-604.19"/>
<polygon fill="#63b8ff" stroke="#63b8ff" points="99.27,-596.54 89.2,-599.85 99.14,-603.54 99.27,-596.54"/>
</a>
</g>
</g>
<!-- Node9 -->
<g id="Node000009" class="node">
<title>Node9</title>
<g id="a_Node000009"><a xlink:href="../../d5/d53/class_include_info_list.html" target="_top" xlink:title=" ">
<polygon fill="white" stroke="#666666" points="805,-439.98 717,-439.98 717,-420.98 805,-420.98 805,-439.98"/>
<text text-anchor="middle" x="761" y="-427.98" font-family="Helvetica,sans-Serif" font-size="10.00">IncludeInfoList</text>
</a>
</g>
</g>
<!-- Node9&#45;&gt;Node1 -->
<g id="edge9_Node000001_Node000009" class="edge">
<title>Node9&#45;&gt;Node1</title>
<g id="a_edge9_Node000001_Node000009"><a xlink:title=" ">
<path fill="none" stroke="#9a32cd" stroke-dasharray="5,2" d="M815.2,-433.39C867.49,-435.11 942.59,-434.19 965,-416.48 1017,-375.36 1019.57,-284.39 1018.91,-254.33"/>
<polygon fill="#9a32cd" stroke="#9a32cd" points="815.2,-429.89 805.07,-433.01 814.94,-436.88 815.2,-429.89"/>
</a>
</g>
<text text-anchor="middle" x="909" y="-447.48" font-family="Helvetica,sans-Serif" font-size="10.00" fill="grey"> m_includeList</text>
<text text-anchor="middle" x="909" y="-436.48" font-family="Helvetica,sans-Serif" font-size="10.00" fill="grey">m_includedByList</text>
</g>
<!-- Node10 -->
<g id="Node000010" class="node">
<title>Node10</title>
<g id="a_Node000010"><a xlink:title=" ">
<polygon fill="white" stroke="#666666" points="458,-439.98 313,-439.98 313,-420.98 458,-420.98 458,-439.98"/>
<text text-anchor="middle" x="385.5" y="-427.98" font-family="Helvetica,sans-Serif" font-size="10.00">std::vector&lt; IncludeInfo &gt;</text>
</a>
</g>
</g>
<!-- Node10&#45;&gt;Node9 -->
<g id="edge10_Node000009_Node000010" class="edge">
<title>Node10&#45;&gt;Node9</title>
<g id="a_edge10_Node000009_Node000010"><a xlink:title=" ">
<path fill="none" stroke="#63b8ff" d="M468.17,-430.48C544.77,-430.48 656.32,-430.48 716.92,-430.48"/>
<polygon fill="#63b8ff" stroke="#63b8ff" points="468.07,-426.98 458.07,-430.48 468.07,-433.98 468.07,-426.98"/>
</a>
</g>
</g>
<!-- Node11 -->
<g id="Node000011" class="node">
<title>Node11</title>
<g id="a_Node000011"><a xlink:href="../../d2/db7/class_linked_ref_map.html" target="_top" xlink:title=" ">
<polygon fill="white" stroke="#666666" points="669,-42.98 486,-42.98 486,-23.98 669,-23.98 669,-42.98"/>
<text text-anchor="middle" x="577.5" y="-30.98" font-family="Helvetica,sans-Serif" font-size="10.00">LinkedRefMap&lt; NamespaceDef &gt;</text>
</a>
</g>
</g>
<!-- Node11&#45;&gt;Node1 -->
<g id="edge11_Node000001_Node000011" class="edge">
<title>Node11&#45;&gt;Node1</title>
<g id="a_edge11_Node000001_Node000011"><a xlink:title=" ">
<path fill="none" stroke="#9a32cd" stroke-dasharray="5,2" d="M620.55,-21.39C698.16,-1.86 865.08,26.77 965,-54.48 993.98,-78.04 1012.4,-199.25 1017.23,-234.72"/>
<polygon fill="#9a32cd" stroke="#9a32cd" points="619.45,-18.06 610.65,-23.95 621.21,-24.83 619.45,-18.06"/>
</a>
</g>
<text text-anchor="middle" x="761" y="-11.48" font-family="Helvetica,sans-Serif" font-size="10.00" fill="grey"> m_usingDirList</text>
</g>
<!-- Node12 -->
<g id="Node000012" class="node">
<title>Node12</title>
<g id="a_Node000012"><a xlink:href="../../d2/db7/class_linked_ref_map.html" target="_top" xlink:title="Container class representing a vector of objects with keys.">
<polygon fill="white" stroke="#666666" points="137,-181.48 0,-181.48 0,-151.48 137,-151.48 137,-181.48"/>
<text text-anchor="start" x="8" y="-169.48" font-family="Helvetica,sans-Serif" font-size="10.00">LinkedRefMap&lt; T, Hash,</text>
<text text-anchor="middle" x="68.5" y="-158.48" font-family="Helvetica,sans-Serif" font-size="10.00"> KeyEqual, Map &gt;</text>
</a>
</g>
</g>
<!-- Node12&#45;&gt;Node11 -->
<g id="edge12_Node000011_Node000012" class="edge">
<title>Node12&#45;&gt;Node11</title>
<g id="a_edge12_Node000011_Node000012"><a xlink:title=" ">
<path fill="none" stroke="orange" stroke-dasharray="5,2" d="M86.05,-143.34C101.56,-123.46 126.57,-95.68 155,-80.48 258.41,-25.2 396.27,-20.51 485.71,-24.86"/>
<polygon fill="orange" stroke="orange" points="83.26,-141.23 80,-151.31 88.83,-145.46 83.26,-141.23"/>
</a>
</g>
<text text-anchor="middle" x="220" y="-83.48" font-family="Helvetica,sans-Serif" font-size="10.00" fill="grey"> &lt; NamespaceDef &gt;</text>
</g>
<!-- Node13 -->
<g id="Node000013" class="node">
<title>Node13</title>
<g id="a_Node000013"><a xlink:href="../../d2/db7/class_linked_ref_map.html" target="_top" xlink:title=" ">
<polygon fill="white" stroke="#666666" points="461.5,-261.98 309.5,-261.98 309.5,-242.98 461.5,-242.98 461.5,-261.98"/>
<text text-anchor="middle" x="385.5" y="-249.98" font-family="Helvetica,sans-Serif" font-size="10.00">LinkedRefMap&lt; ClassDef &gt;</text>
</a>
</g>
</g>
<!-- Node12&#45;&gt;Node13 -->
<g id="edge14_Node000013_Node000012" class="edge">
<title>Node12&#45;&gt;Node13</title>
<g id="a_edge14_Node000013_Node000012"><a xlink:title=" ">
<path fill="none" stroke="orange" stroke-dasharray="5,2" d="M114.85,-185.35C127.7,-190.32 141.79,-195.42 155,-199.48 215.6,-218.07 286.95,-233.57 333.82,-242.92"/>
<polygon fill="orange" stroke="orange" points="115.88,-182 105.3,-181.59 113.32,-188.51 115.88,-182"/>
</a>
</g>
<text text-anchor="middle" x="220" y="-235.48" font-family="Helvetica,sans-Serif" font-size="10.00" fill="grey"> &lt; ClassDef &gt;</text>
</g>
<!-- Node22 -->
<g id="Node000022" class="node">
<title>Node22</title>
<g id="a_Node000022"><a xlink:href="../../d2/db7/class_linked_ref_map.html" target="_top" xlink:title=" ">
<polygon fill="white" stroke="#666666" points="447,-224.48 324,-224.48 324,-194.48 447,-194.48 447,-224.48"/>
<text text-anchor="start" x="332" y="-212.48" font-family="Helvetica,sans-Serif" font-size="10.00">LinkedRefMap&lt; const</text>
<text text-anchor="middle" x="385.5" y="-201.48" font-family="Helvetica,sans-Serif" font-size="10.00"> NamespaceDef &gt;</text>
</a>
</g>
</g>
<!-- Node12&#45;&gt;Node22 -->
<g id="edge28_Node000022_Node000012" class="edge">
<title>Node12&#45;&gt;Node22</title>
<g id="a_edge28_Node000022_Node000012"><a xlink:title=" ">
<path fill="none" stroke="orange" stroke-dasharray="5,2" d="M147.41,-172.42C188.48,-176.06 239.61,-181.39 285,-188.48 297.65,-190.45 311.11,-192.99 323.91,-195.62"/>
<polygon fill="orange" stroke="orange" points="147.46,-168.91 137.2,-171.53 146.85,-175.88 147.46,-168.91"/>
</a>
</g>
<text text-anchor="middle" x="220" y="-191.48" font-family="Helvetica,sans-Serif" font-size="10.00" fill="grey"> &lt; const NamespaceDef &gt;</text>
</g>
<!-- Node25 -->
<g id="Node000025" class="node">
<title>Node25</title>
<g id="a_Node000025"><a xlink:href="../../d2/db7/class_linked_ref_map.html" target="_top" xlink:title=" ">
<polygon fill="white" stroke="#666666" points="468,-79.98 303,-79.98 303,-60.98 468,-60.98 468,-79.98"/>
<text text-anchor="middle" x="385.5" y="-67.98" font-family="Helvetica,sans-Serif" font-size="10.00">LinkedRefMap&lt; ConceptDef &gt;</text>
</a>
</g>
</g>
<!-- Node12&#45;&gt;Node25 -->
<g id="edge33_Node000025_Node000012" class="edge">
<title>Node12&#45;&gt;Node25</title>
<g id="a_edge33_Node000025_Node000012"><a xlink:title=" ">
<path fill="none" stroke="orange" stroke-dasharray="5,2" d="M120.99,-148.02C168.03,-131.52 239.7,-107.26 303,-89.48 315.03,-86.1 328.17,-82.85 340.33,-80.02"/>
<polygon fill="orange" stroke="orange" points="119.6,-144.8 111.33,-151.42 121.93,-151.4 119.6,-144.8"/>
</a>
</g>
<text text-anchor="middle" x="220" y="-137.48" font-family="Helvetica,sans-Serif" font-size="10.00" fill="grey"> &lt; ConceptDef &gt;</text>
</g>
<!-- Node13&#45;&gt;Node1 -->
<g id="edge13_Node000001_Node000013" class="edge">
<title>Node13&#45;&gt;Node1</title>
<g id="a_edge13_Node000001_Node000013"><a xlink:title=" ">
<path fill="none" stroke="#9a32cd" stroke-dasharray="5,2" d="M471.72,-249.25C531.87,-247.13 614.36,-244.56 687,-243.48 752.77,-242.49 769.22,-243.3 835,-243.48 886.45,-243.62 946.02,-243.98 982.98,-244.23"/>
<polygon fill="#9a32cd" stroke="#9a32cd" points="471.38,-245.76 461.51,-249.61 471.63,-252.75 471.38,-245.76"/>
</a>
</g>
<text text-anchor="middle" x="761" y="-246.48" font-family="Helvetica,sans-Serif" font-size="10.00" fill="grey"> m_usingDeclList</text>
</g>
<!-- Node23 -->
<g id="Node000023" class="node">
<title>Node23</title>
<g id="a_Node000023"><a xlink:href="../../da/d08/class_class_linked_ref_map.html" target="_top" xlink:title=" ">
<polygon fill="white" stroke="#666666" points="817,-281.98 705,-281.98 705,-262.98 817,-262.98 817,-281.98"/>
<text text-anchor="middle" x="761" y="-269.98" font-family="Helvetica,sans-Serif" font-size="10.00">ClassLinkedRefMap</text>
</a>
</g>
</g>
<!-- Node13&#45;&gt;Node23 -->
<g id="edge30_Node000023_Node000013" class="edge">
<title>Node13&#45;&gt;Node23</title>
<g id="a_edge30_Node000023_Node000013"><a xlink:title=" ">
<path fill="none" stroke="#63b8ff" d="M471.98,-257.05C543.57,-260.89 643.62,-266.25 704.99,-269.53"/>
<polygon fill="#63b8ff" stroke="#63b8ff" points="471.81,-253.54 461.63,-256.5 471.43,-260.53 471.81,-253.54"/>
</a>
</g>
</g>
<!-- Node14 -->
<g id="Node000014" class="node">
<title>Node14</title>
<g id="a_Node000014"><a xlink:href="../../d9/d45/class_q_c_string.html" target="_top" xlink:title="This is an alternative implementation of QCString.">
<polygon fill="white" stroke="#666666" points="790.5,-337.98 731.5,-337.98 731.5,-318.98 790.5,-318.98 790.5,-337.98"/>
<text text-anchor="middle" x="761" y="-325.98" font-family="Helvetica,sans-Serif" font-size="10.00">QCString</text>
</a>
</g>
</g>
<!-- Node14&#45;&gt;Node1 -->
<g id="edge15_Node000001_Node000014" class="edge">
<title>Node14&#45;&gt;Node1</title>
<g id="a_edge15_Node000001_Node000014"><a xlink:title=" ">
<path fill="none" stroke="#9a32cd" stroke-dasharray="5,2" d="M801.01,-327.62C851.8,-325.94 937.38,-320.98 965,-306.48 987.91,-294.45 1005.29,-268.19 1013.42,-254.01"/>
<polygon fill="#9a32cd" stroke="#9a32cd" points="800.62,-324.13 790.73,-327.93 800.83,-331.13 800.62,-324.13"/>
</a>
</g>
<text text-anchor="middle" x="909" y="-404.48" font-family="Helvetica,sans-Serif" font-size="10.00" fill="grey"> m_docname</text>
<text text-anchor="middle" x="909" y="-393.48" font-family="Helvetica,sans-Serif" font-size="10.00" fill="grey">m_fileName</text>
<text text-anchor="middle" x="909" y="-382.48" font-family="Helvetica,sans-Serif" font-size="10.00" fill="grey">m_filePath</text>
<text text-anchor="middle" x="909" y="-371.48" font-family="Helvetica,sans-Serif" font-size="10.00" fill="grey">m_fileVersion</text>
<text text-anchor="middle" x="909" y="-360.48" font-family="Helvetica,sans-Serif" font-size="10.00" fill="grey">m_inclByDepFileName</text>
<text text-anchor="middle" x="909" y="-349.48" font-family="Helvetica,sans-Serif" font-size="10.00" fill="grey">m_inclDepFileName</text>
<text text-anchor="middle" x="909" y="-338.48" font-family="Helvetica,sans-Serif" font-size="10.00" fill="grey">m_outputDiskName</text>
<text text-anchor="middle" x="909" y="-327.48" font-family="Helvetica,sans-Serif" font-size="10.00" fill="grey">m_path</text>
</g>
<!-- Node15&#45;&gt;Node1 -->
<g id="edge16_Node000001_Node000015" class="edge">
<title>Node15&#45;&gt;Node1</title>
<g id="a_edge16_Node000001_Node000015"><a xlink:title=" ">
<path fill="none" stroke="#9a32cd" stroke-dasharray="5,2" d="M419.91,-526.19C530.8,-534.46 884.2,-554.56 965,-482.48 1000.16,-451.11 1014.62,-294.48 1017.8,-254.03"/>
<polygon fill="#9a32cd" stroke="#9a32cd" points="419.9,-522.68 409.66,-525.41 419.36,-529.66 419.9,-522.68"/>
</a>
</g>
<text text-anchor="middle" x="761" y="-537.48" font-family="Helvetica,sans-Serif" font-size="10.00" fill="grey"> m_dir</text>
</g>
<!-- Node16&#45;&gt;Node1 -->
<g id="edge19_Node000001_Node000016" class="edge">
<title>Node16&#45;&gt;Node1</title>
<g id="a_edge19_Node000001_Node000016"><a xlink:title=" ">
<path fill="none" stroke="#9a32cd" stroke-dasharray="5,2" d="M430.77,-476.36C558.93,-481.38 923.75,-492.59 965,-459.48 998.07,-432.93 1013.86,-292.61 1017.61,-254.2"/>
<polygon fill="#9a32cd" stroke="#9a32cd" points="430.67,-472.85 420.54,-475.95 430.39,-479.84 430.67,-472.85"/>
</a>
</g>
<text text-anchor="middle" x="761" y="-484.48" font-family="Helvetica,sans-Serif" font-size="10.00" fill="grey"> m_moduleDef</text>
</g>
<!-- Node17 -->
<g id="Node000017" class="node">
<title>Node17</title>
<g id="a_Node000017"><a xlink:href="../../dd/d5a/class_member_lists.html" target="_top" xlink:title=" ">
<polygon fill="white" stroke="#666666" points="801,-159.98 721,-159.98 721,-140.98 801,-140.98 801,-159.98"/>
<text text-anchor="middle" x="761" y="-147.98" font-family="Helvetica,sans-Serif" font-size="10.00">MemberLists</text>
</a>
</g>
</g>
<!-- Node17&#45;&gt;Node1 -->
<g id="edge22_Node000001_Node000017" class="edge">
<title>Node17&#45;&gt;Node1</title>
<g id="a_edge22_Node000001_Node000017"><a xlink:title=" ">
<path fill="none" stroke="#9a32cd" stroke-dasharray="5,2" d="M811.18,-143.76C854.57,-140.29 918.03,-141.4 965,-168.48 991.42,-183.71 1007.99,-217.87 1014.85,-234.71"/>
<polygon fill="#9a32cd" stroke="#9a32cd" points="810.79,-140.28 801.15,-144.67 811.43,-147.25 810.79,-140.28"/>
</a>
</g>
<text text-anchor="middle" x="909" y="-171.48" font-family="Helvetica,sans-Serif" font-size="10.00" fill="grey"> m_memberLists</text>
</g>
<!-- Node18 -->
<g id="Node000018" class="node">
<title>Node18</title>
<g id="a_Node000018"><a xlink:title=" ">
<polygon fill="white" stroke="#666666" points="452.5,-176.48 318.5,-176.48 318.5,-146.48 452.5,-146.48 452.5,-176.48"/>
<text text-anchor="start" x="326.5" y="-164.48" font-family="Helvetica,sans-Serif" font-size="10.00">std::vector&lt; std::unique</text>
<text text-anchor="middle" x="385.5" y="-153.48" font-family="Helvetica,sans-Serif" font-size="10.00">_ptr&lt; MemberList &gt; &gt;</text>
</a>
</g>
</g>
<!-- Node18&#45;&gt;Node17 -->
<g id="edge23_Node000017_Node000018" class="edge">
<title>Node18&#45;&gt;Node17</title>
<g id="a_edge23_Node000017_Node000018"><a xlink:title=" ">
<path fill="none" stroke="#63b8ff" d="M463.14,-159.22C541.48,-156.91 660.03,-153.42 720.9,-151.63"/>
<polygon fill="#63b8ff" stroke="#63b8ff" points="462.74,-155.73 452.84,-159.52 462.94,-162.73 462.74,-155.73"/>
</a>
</g>
</g>
<!-- Node19 -->
<g id="Node000019" class="node">
<title>Node19</title>
<g id="a_Node000019"><a xlink:href="../../df/d11/class_member_group_list.html" target="_top" xlink:title=" ">
<polygon fill="white" stroke="#666666" points="813,-122.98 709,-122.98 709,-103.98 813,-103.98 813,-122.98"/>
<text text-anchor="middle" x="761" y="-110.98" font-family="Helvetica,sans-Serif" font-size="10.00">MemberGroupList</text>
</a>
</g>
</g>
<!-- Node19&#45;&gt;Node1 -->
<g id="edge24_Node000001_Node000019" class="edge">
<title>Node19&#45;&gt;Node1</title>
<g id="a_edge24_Node000001_Node000019"><a xlink:title=" ">
<path fill="none" stroke="#9a32cd" stroke-dasharray="5,2" d="M817.38,-102.55C861.27,-97.06 922.14,-96.87 965,-126.48 1002.57,-152.43 1014.2,-211.42 1017.4,-234.74"/>
<polygon fill="#9a32cd" stroke="#9a32cd" points="816.88,-99.09 807.45,-103.92 817.83,-106.02 816.88,-99.09"/>
</a>
</g>
<text text-anchor="middle" x="909" y="-129.48" font-family="Helvetica,sans-Serif" font-size="10.00" fill="grey"> m_memberGroups</text>
</g>
<!-- Node20 -->
<g id="Node000020" class="node">
<title>Node20</title>
<g id="a_Node000020"><a xlink:title=" ">
<polygon fill="white" stroke="#666666" points="455,-128.48 316,-128.48 316,-98.48 455,-98.48 455,-128.48"/>
<text text-anchor="start" x="324" y="-116.48" font-family="Helvetica,sans-Serif" font-size="10.00">std::vector&lt; std::unique</text>
<text text-anchor="middle" x="385.5" y="-105.48" font-family="Helvetica,sans-Serif" font-size="10.00">_ptr&lt; MemberGroup &gt; &gt;</text>
</a>
</g>
</g>
<!-- Node20&#45;&gt;Node19 -->
<g id="edge25_Node000019_Node000020" class="edge">
<title>Node20&#45;&gt;Node19</title>
<g id="a_edge25_Node000019_Node000020"><a xlink:title=" ">
<path fill="none" stroke="#63b8ff" d="M465.12,-113.48C538.49,-113.48 645.81,-113.48 708.73,-113.48"/>
<polygon fill="#63b8ff" stroke="#63b8ff" points="465.01,-109.98 455.01,-113.48 465.01,-116.98 465.01,-109.98"/>
</a>
</g>
</g>
<!-- Node21 -->
<g id="Node000021" class="node">
<title>Node21</title>
<g id="a_Node000021"><a xlink:href="../../da/df0/class_namespace_linked_ref_map.html" target="_top" xlink:title=" ">
<polygon fill="white" stroke="#666666" points="832.5,-196.98 689.5,-196.98 689.5,-177.98 832.5,-177.98 832.5,-196.98"/>
<text text-anchor="middle" x="761" y="-184.98" font-family="Helvetica,sans-Serif" font-size="10.00">NamespaceLinkedRefMap</text>
</a>
</g>
</g>
<!-- Node21&#45;&gt;Node1 -->
<g id="edge26_Node000001_Node000021" class="edge">
<title>Node21&#45;&gt;Node1</title>
<g id="a_edge26_Node000001_Node000021"><a xlink:title=" ">
<path fill="none" stroke="#9a32cd" stroke-dasharray="5,2" d="M842.81,-183.41C880.99,-184.08 926.52,-188.72 965,-203.48 982.7,-210.27 999.42,-224.88 1009.32,-234.7"/>
<polygon fill="#9a32cd" stroke="#9a32cd" points="842.79,-179.91 832.76,-183.32 842.73,-186.91 842.79,-179.91"/>
</a>
</g>
<text text-anchor="middle" x="909" y="-206.48" font-family="Helvetica,sans-Serif" font-size="10.00" fill="grey"> m_namespaces</text>
</g>
<!-- Node22&#45;&gt;Node21 -->
<g id="edge27_Node000021_Node000022" class="edge">
<title>Node22&#45;&gt;Node21</title>
<g id="a_edge27_Node000021_Node000022"><a xlink:title=" ">
<path fill="none" stroke="#63b8ff" d="M457.73,-205.28C524.25,-201.36 622.96,-195.55 689.31,-191.64"/>
<polygon fill="#63b8ff" stroke="#63b8ff" points="457.12,-201.81 447.34,-205.89 457.53,-208.8 457.12,-201.81"/>
</a>
</g>
</g>
<!-- Node23&#45;&gt;Node1 -->
<g id="edge29_Node000001_Node000023" class="edge">
<title>Node23&#45;&gt;Node1</title>
<g id="a_edge29_Node000001_Node000023"><a xlink:title=" ">
<path fill="none" stroke="#9a32cd" stroke-dasharray="5,2" d="M827.38,-265.28C836,-264.34 844.71,-263.38 853,-262.48 897.82,-257.58 949.47,-251.97 982.99,-248.33"/>
<polygon fill="#9a32cd" stroke="#9a32cd" points="826.9,-261.82 817.34,-266.39 827.66,-268.77 826.9,-261.82"/>
</a>
</g>
<text text-anchor="middle" x="909" y="-298.48" font-family="Helvetica,sans-Serif" font-size="10.00" fill="grey"> m_classes</text>
<text text-anchor="middle" x="909" y="-287.48" font-family="Helvetica,sans-Serif" font-size="10.00" fill="grey">m_exceptions</text>
<text text-anchor="middle" x="909" y="-276.48" font-family="Helvetica,sans-Serif" font-size="10.00" fill="grey">m_interfaces</text>
<text text-anchor="middle" x="909" y="-265.48" font-family="Helvetica,sans-Serif" font-size="10.00" fill="grey">m_structs</text>
</g>
<!-- Node24 -->
<g id="Node000024" class="node">
<title>Node24</title>
<g id="a_Node000024"><a xlink:href="../../d4/daa/class_concept_linked_ref_map.html" target="_top" xlink:title=" ">
<polygon fill="white" stroke="#666666" points="823.5,-84.98 698.5,-84.98 698.5,-65.98 823.5,-65.98 823.5,-84.98"/>
<text text-anchor="middle" x="761" y="-72.98" font-family="Helvetica,sans-Serif" font-size="10.00">ConceptLinkedRefMap</text>
</a>
</g>
</g>
<!-- Node24&#45;&gt;Node1 -->
<g id="edge31_Node000001_Node000024" class="edge">
<title>Node24&#45;&gt;Node1</title>
<g id="a_edge31_Node000001_Node000024"><a xlink:title=" ">
<path fill="none" stroke="#9a32cd" stroke-dasharray="5,2" d="M808.77,-63.99C853.48,-55.92 920.49,-51.8 965,-85.48 1014.01,-122.56 1018.57,-206.53 1018.66,-234.9"/>
<polygon fill="#9a32cd" stroke="#9a32cd" points="807.9,-60.59 798.75,-65.93 809.23,-67.47 807.9,-60.59"/>
</a>
</g>
<text text-anchor="middle" x="909" y="-88.48" font-family="Helvetica,sans-Serif" font-size="10.00" fill="grey"> m_concepts</text>
</g>
<!-- Node25&#45;&gt;Node24 -->
<g id="edge32_Node000024_Node000025" class="edge">
<title>Node25&#45;&gt;Node24</title>
<g id="a_edge32_Node000024_Node000025"><a xlink:title=" ">
<path fill="none" stroke="#63b8ff" d="M478.36,-71.71C546.83,-72.62 638.47,-73.85 698.35,-74.65"/>
<polygon fill="#63b8ff" stroke="#63b8ff" points="478.05,-68.2 468,-71.57 477.96,-75.2 478.05,-68.2"/>
</a>
</g>
</g>
</g>
</svg>

<g id="navigator" transform="translate(0 0)" fill="#404254">
  <rect fill="#f2f5e9" fill-opacity="0.5" stroke="#606060" stroke-width=".5" x="0" y="0" width="60" height="60"/>
  <use id="zoomplus" xlink:href="#zoomPlus" x="17" y="9" onmousedown="handleZoom(evt,'in')"/>
  <use id="zoomminus" xlink:href="#zoomMin" x="42" y="9" onmousedown="handleZoom(evt,'out')"/>
  <use id="reset" xlink:href="#resetDef" x="30" y="36" onmousedown="handleReset()"/>
   <use id="arrowup" xlink:href="#arrowUp" x="0" y="0" onmousedown="handlePan(0,-1)"/>
  <use id="arrowright" xlink:href="#arrowRight" x="0" y="0" onmousedown="handlePan(1,0)"/>
  <use id="arrowdown" xlink:href="#arrowDown" x="0" y="0" onmousedown="handlePan(0,1)"/>
  <use id="arrowleft" xlink:href="#arrowLeft" x="0" y="0" onmousedown="handlePan(-1,0)"/>
</g>
<svg viewBox="0 0 15 15" width="100%" height="30px" preserveAspectRatio="xMaxYMin meet">
 <g id="arrow_out" transform="scale(0.3 0.3)">
  <a xlink:href="class_file_def_impl__coll__graph_org.svg" target="_base">
   <rect id="button" ry="5" rx="5" y="6" x="6" height="38" width="38"
        fill="#f2f5e9" fill-opacity="0.5" stroke="#606060" stroke-width="1.0"/>
   <path id="arrow"
     d="M 11.500037,31.436501 C 11.940474,20.09759 22.043105,11.32322 32.158766,21.979434 L 37.068811,17.246167 C 37.068811,17.246167 37.088388,32 37.088388,32 L 22.160133,31.978069 C 22.160133,31.978069 26.997745,27.140456 26.997745,27.140456 C 18.528582,18.264221 13.291696,25.230495 11.500037,31.436501 z"
     style="fill:#404040;"/>
  </a>
 </g>
</svg>

<style type='text/css'>
<![CDATA[
[data-mouse-over-selected='false'] { opacity: 0.7; }
[data-mouse-over-selected='true']  { opacity: 1.0; }
]]>
</style>
<script type="application/ecmascript"><![CDATA[
document.addEventListener('DOMContentLoaded', (event) => {
  highlightEdges();
  highlightAdjacentNodes();
});
]]></script>
</svg>
