<?xml version="1.0" encoding="UTF-8" standalone="no"?>
<!DOCTYPE svg PUBLIC "-//W3C//DTD SVG 1.1//EN"
 "http://www.w3.org/Graphics/SVG/1.1/DTD/svg11.dtd">
<!-- Generated by graphviz version 2.43.0 (0)
 -->
<!-- Title: FileDefImpl Pages: 1 -->
<svg width="1064pt" height="602pt"
 viewBox="0.00 0.00 1064.00 601.75" xmlns="http://www.w3.org/2000/svg" xmlns:xlink="http://www.w3.org/1999/xlink">
<g id="graph0" class="graph" transform="scale(1 1) rotate(0) translate(4 597.75)">
<title>FileDefImpl</title>
<!-- Node1 -->
<g id="Node000001" class="node">
<title>Node1</title>
<g id="a_Node000001"><a xlink:title=" ">
<polygon fill="#999999" stroke="#666666" points="1056,-222.25 983,-222.25 983,-203.25 1056,-203.25 1056,-222.25"/>
<text text-anchor="middle" x="1019.5" y="-210.25" font-family="Helvetica,sans-Serif" font-size="10.00">FileDefImpl</text>
</a>
</g>
</g>
<!-- Node2 -->
<g id="Node000002" class="node">
<title>Node2</title>
<g id="a_Node000002"><a xlink:href="../../dd/d10/class_definition_mixin.html" target="_top" xlink:title=" ">
<polygon fill="white" stroke="#666666" points="835,-539.25 687,-539.25 687,-520.25 835,-520.25 835,-539.25"/>
<text text-anchor="middle" x="761" y="-527.25" font-family="Helvetica,sans-Serif" font-size="10.00">DefinitionMixin&lt; FileDef &gt;</text>
</a>
</g>
</g>
<!-- Node2&#45;&gt;Node1 -->
<g id="edge1_Node000001_Node000002" class="edge">
<title>Node2&#45;&gt;Node1</title>
<g id="a_edge1_Node000001_Node000002"><a xlink:title=" ">
<path fill="none" stroke="#63b8ff" d="M845.52,-529.28C886.88,-524.59 934.39,-511.73 965,-479.75 1001.61,-441.5 1015.11,-265.77 1017.92,-222.43"/>
<polygon fill="#63b8ff" stroke="#63b8ff" points="845.03,-525.82 835.43,-530.29 845.72,-532.78 845.03,-525.82"/>
</a>
</g>
</g>
<!-- Node3 -->
<g id="Node000003" class="node">
<title>Node3</title>
<g id="a_Node000003"><a xlink:href="../../de/db0/class_file_def.html" target="_top" xlink:title="A model of a file symbol.">
<polygon fill="white" stroke="#666666" points="411,-514.25 360,-514.25 360,-495.25 411,-495.25 411,-514.25"/>
<text text-anchor="middle" x="385.5" y="-502.25" font-family="Helvetica,sans-Serif" font-size="10.00">FileDef</text>
</a>
</g>
</g>
<!-- Node3&#45;&gt;Node2 -->
<g id="edge2_Node000002_Node000003" class="edge">
<title>Node3&#45;&gt;Node2</title>
<g id="a_edge2_Node000002_Node000003"><a xlink:title=" ">
<path fill="none" stroke="#63b8ff" d="M421.13,-507.07C481.41,-511.11 606.79,-519.5 686.99,-524.87"/>
<polygon fill="#63b8ff" stroke="#63b8ff" points="421.22,-503.57 411.01,-506.39 420.75,-510.55 421.22,-503.57"/>
</a>
</g>
</g>
<!-- Node4 -->
<g id="Node000004" class="node">
<title>Node4</title>
<g id="a_Node000004"><a xlink:href="../../d0/d46/class_definition_mutable.html" target="_top" xlink:title=" ">
<polygon fill="white" stroke="#666666" points="120.5,-451.25 16.5,-451.25 16.5,-432.25 120.5,-432.25 120.5,-451.25"/>
<text text-anchor="middle" x="68.5" y="-439.25" font-family="Helvetica,sans-Serif" font-size="10.00">DefinitionMutable</text>
</a>
</g>
</g>
<!-- Node4&#45;&gt;Node3 -->
<g id="edge3_Node000003_Node000004" class="edge">
<title>Node4&#45;&gt;Node3</title>
<g id="a_edge3_Node000003_Node000004"><a xlink:title=" ">
<path fill="none" stroke="#63b8ff" d="M124.32,-453.41C134.52,-455.55 145.08,-457.74 155,-459.75 229.4,-474.88 317.57,-491.92 359.69,-500.01"/>
<polygon fill="#63b8ff" stroke="#63b8ff" points="124.8,-449.94 114.29,-451.31 123.36,-456.79 124.8,-449.94"/>
</a>
</g>
</g>
<!-- Node15 -->
<g id="Node000015" class="node">
<title>Node15</title>
<g id="a_Node000015"><a xlink:href="../../d4/dd4/class_dir_def.html" target="_top" xlink:title="A model of a directory symbol.">
<polygon fill="white" stroke="#666666" points="409.5,-470.25 361.5,-470.25 361.5,-451.25 409.5,-451.25 409.5,-470.25"/>
<text text-anchor="middle" x="385.5" y="-458.25" font-family="Helvetica,sans-Serif" font-size="10.00">DirDef</text>
</a>
</g>
</g>
<!-- Node4&#45;&gt;Node15 -->
<g id="edge17_Node000015_Node000004" class="edge">
<title>Node4&#45;&gt;Node15</title>
<g id="a_edge17_Node000015_Node000004"><a xlink:title=" ">
<path fill="none" stroke="#63b8ff" d="M130.57,-442.83C173.75,-443.89 232.98,-445.92 285,-449.75 311.17,-451.68 341.09,-455.16 361.22,-457.69"/>
<polygon fill="#63b8ff" stroke="#63b8ff" points="130.58,-439.33 120.5,-442.6 130.42,-446.33 130.58,-439.33"/>
</a>
</g>
</g>
<!-- Node5 -->
<g id="Node000005" class="node">
<title>Node5</title>
<g id="a_Node000005"><a xlink:href="../../d5/dcc/class_definition.html" target="_top" xlink:title="The common base class of all entity definitions found in the sources.">
<polygon fill="white" stroke="#666666" points="100.5,-495.25 36.5,-495.25 36.5,-476.25 100.5,-476.25 100.5,-495.25"/>
<text text-anchor="middle" x="68.5" y="-483.25" font-family="Helvetica,sans-Serif" font-size="10.00">Definition</text>
</a>
</g>
</g>
<!-- Node5&#45;&gt;Node3 -->
<g id="edge4_Node000003_Node000005" class="edge">
<title>Node5&#45;&gt;Node3</title>
<g id="a_edge4_Node000003_Node000005"><a xlink:title=" ">
<path fill="none" stroke="#63b8ff" d="M110.98,-491.88C124.94,-493.73 140.62,-495.58 155,-496.75 229.31,-502.82 317.51,-504.29 359.66,-504.64"/>
<polygon fill="#63b8ff" stroke="#63b8ff" points="111.08,-488.36 100.7,-490.48 110.13,-495.3 111.08,-488.36"/>
</a>
</g>
</g>
<!-- Node5&#45;&gt;Node15 -->
<g id="edge18_Node000015_Node000005" class="edge">
<title>Node5&#45;&gt;Node15</title>
<g id="a_edge18_Node000015_Node000005"><a xlink:title=" ">
<path fill="none" stroke="#63b8ff" d="M110.75,-482.48C177.74,-477.16 308.04,-466.82 361.13,-462.61"/>
<polygon fill="#63b8ff" stroke="#63b8ff" points="110.26,-479.01 100.57,-483.29 110.81,-485.99 110.26,-479.01"/>
</a>
</g>
</g>
<!-- Node6 -->
<g id="Node000006" class="node">
<title>Node6</title>
<g id="a_Node000006"><a xlink:href="../../d3/ddf/class_definition_impl.html" target="_top" xlink:title=" ">
<polygon fill="white" stroke="#666666" points="111.5,-593.25 25.5,-593.25 25.5,-574.25 111.5,-574.25 111.5,-593.25"/>
<text text-anchor="middle" x="68.5" y="-581.25" font-family="Helvetica,sans-Serif" font-size="10.00">DefinitionImpl</text>
</a>
</g>
</g>
<!-- Node6&#45;&gt;Node2 -->
<g id="edge5_Node000002_Node000006" class="edge">
<title>Node6&#45;&gt;Node2</title>
<g id="a_edge5_Node000002_Node000006"><a xlink:title=" ">
<path fill="none" stroke="#9a32cd" stroke-dasharray="5,2" d="M121.92,-584.84C226.63,-586.18 468.82,-585.09 669,-552.75 688.79,-549.56 710.57,-544.12 727.86,-539.34"/>
<polygon fill="#9a32cd" stroke="#9a32cd" points="121.67,-581.34 111.62,-584.7 121.57,-588.34 121.67,-581.34"/>
</a>
</g>
<text text-anchor="middle" x="385.5" y="-585.75" font-family="Helvetica,sans-Serif" font-size="10.00" fill="grey"> m_impl</text>
</g>
<!-- Node7 -->
<g id="Node000007" class="node">
<title>Node7</title>
<g id="a_Node000007"><a xlink:href="../../dd/d10/class_definition_mixin.html" target="_top" xlink:title=" ">
<polygon fill="white" stroke="#666666" points="454,-551.25 317,-551.25 317,-532.25 454,-532.25 454,-551.25"/>
<text text-anchor="middle" x="385.5" y="-539.25" font-family="Helvetica,sans-Serif" font-size="10.00">DefinitionMixin&lt; Base &gt;</text>
</a>
</g>
</g>
<!-- Node6&#45;&gt;Node7 -->
<g id="edge8_Node000007_Node000006" class="edge">
<title>Node6&#45;&gt;Node7</title>
<g id="a_edge8_Node000007_Node000006"><a xlink:title=" ">
<path fill="none" stroke="#9a32cd" stroke-dasharray="5,2" d="M121.57,-574.88C132.59,-573.1 144.17,-571.3 155,-569.75 209.34,-561.99 271.11,-554.53 316.87,-549.27"/>
<polygon fill="#9a32cd" stroke="#9a32cd" points="120.94,-571.44 111.63,-576.5 122.06,-578.34 120.94,-571.44"/>
</a>
</g>
<text text-anchor="middle" x="220" y="-572.75" font-family="Helvetica,sans-Serif" font-size="10.00" fill="grey"> m_impl</text>
</g>
<!-- Node7&#45;&gt;Node2 -->
<g id="edge6_Node000002_Node000007" class="edge">
<title>Node7&#45;&gt;Node2</title>
<g id="a_edge6_Node000002_Node000007"><a xlink:title=" ">
<path fill="none" stroke="orange" stroke-dasharray="5,2" d="M464.4,-539.25C529.85,-537.15 622.7,-534.16 686.8,-532.11"/>
<polygon fill="orange" stroke="orange" points="464.02,-535.76 454.14,-539.58 464.25,-542.76 464.02,-535.76"/>
</a>
</g>
<text text-anchor="middle" x="577.5" y="-540.75" font-family="Helvetica,sans-Serif" font-size="10.00" fill="grey"> &lt; FileDef &gt;</text>
</g>
<!-- Node8 -->
<g id="Node000008" class="node">
<title>Node8</title>
<g id="a_Node000008"><a xlink:title=" ">
<polygon fill="white" stroke="#666666" points="89,-545.25 48,-545.25 48,-526.25 89,-526.25 89,-545.25"/>
<text text-anchor="middle" x="68.5" y="-533.25" font-family="Helvetica,sans-Serif" font-size="10.00">Base</text>
</a>
</g>
</g>
<!-- Node8&#45;&gt;Node7 -->
<g id="edge7_Node000007_Node000008" class="edge">
<title>Node8&#45;&gt;Node7</title>
<g id="a_edge7_Node000007_Node000008"><a xlink:title=" ">
<path fill="none" stroke="#63b8ff" d="M99.25,-536.32C148.8,-537.26 249.43,-539.18 316.92,-540.47"/>
<polygon fill="#63b8ff" stroke="#63b8ff" points="99.27,-532.82 89.2,-536.13 99.14,-539.82 99.27,-532.82"/>
</a>
</g>
</g>
<!-- Node9 -->
<g id="Node000009" class="node">
<title>Node9</title>
<g id="a_Node000009"><a xlink:href="../../d5/d53/class_include_info_list.html" target="_top" xlink:title=" ">
<polygon fill="white" stroke="#666666" points="805,-429.25 717,-429.25 717,-410.25 805,-410.25 805,-429.25"/>
<text text-anchor="middle" x="761" y="-417.25" font-family="Helvetica,sans-Serif" font-size="10.00">IncludeInfoList</text>
</a>
</g>
</g>
<!-- Node9&#45;&gt;Node1 -->
<g id="edge9_Node000001_Node000009" class="edge">
<title>Node9&#45;&gt;Node1</title>
<g id="a_edge9_Node000001_Node000009"><a xlink:title=" ">
<path fill="none" stroke="#9a32cd" stroke-dasharray="5,2" d="M815.4,-420.21C867.84,-419.55 943.07,-415.24 965,-396.75 1019.44,-350.87 1020.25,-253.12 1019.05,-222.28"/>
<polygon fill="#9a32cd" stroke="#9a32cd" points="815.21,-416.71 805.24,-420.3 815.27,-423.71 815.21,-416.71"/>
</a>
</g>
<text text-anchor="middle" x="909" y="-432.75" font-family="Helvetica,sans-Serif" font-size="10.00" fill="grey"> m_includeList</text>
<text text-anchor="middle" x="909" y="-421.75" font-family="Helvetica,sans-Serif" font-size="10.00" fill="grey">m_includedByList</text>
</g>
<!-- Node10 -->
<g id="Node000010" class="node">
<title>Node10</title>
<g id="a_Node000010"><a xlink:title=" ">
<polygon fill="white" stroke="#666666" points="458,-429.25 313,-429.25 313,-410.25 458,-410.25 458,-429.25"/>
<text text-anchor="middle" x="385.5" y="-417.25" font-family="Helvetica,sans-Serif" font-size="10.00">std::vector&lt; IncludeInfo &gt;</text>
</a>
</g>
</g>
<!-- Node10&#45;&gt;Node9 -->
<g id="edge10_Node000009_Node000010" class="edge">
<title>Node10&#45;&gt;Node9</title>
<g id="a_edge10_Node000009_Node000010"><a xlink:title=" ">
<path fill="none" stroke="#63b8ff" d="M468.17,-419.75C544.77,-419.75 656.32,-419.75 716.92,-419.75"/>
<polygon fill="#63b8ff" stroke="#63b8ff" points="468.07,-416.25 458.07,-419.75 468.07,-423.25 468.07,-416.25"/>
</a>
</g>
</g>
<!-- Node11 -->
<g id="Node000011" class="node">
<title>Node11</title>
<g id="a_Node000011"><a xlink:href="../../d2/db7/class_linked_ref_map.html" target="_top" xlink:title=" ">
<polygon fill="white" stroke="#666666" points="669,-40.25 486,-40.25 486,-21.25 669,-21.25 669,-40.25"/>
<text text-anchor="middle" x="577.5" y="-28.25" font-family="Helvetica,sans-Serif" font-size="10.00">LinkedRefMap&lt; NamespaceDef &gt;</text>
</a>
</g>
</g>
<!-- Node11&#45;&gt;Node1 -->
<g id="edge11_Node000001_Node000011" class="edge">
<title>Node11&#45;&gt;Node1</title>
<g id="a_edge11_Node000001_Node000011"><a xlink:title=" ">
<path fill="none" stroke="#9a32cd" stroke-dasharray="5,2" d="M622.96,-18.79C701.28,-0.59 865,24.17 965,-54.75 1012.74,-92.43 1018.16,-174.61 1018.56,-202.93"/>
<polygon fill="#9a32cd" stroke="#9a32cd" points="621.85,-15.46 612.94,-21.19 623.48,-22.26 621.85,-15.46"/>
</a>
</g>
<text text-anchor="middle" x="761" y="-9.75" font-family="Helvetica,sans-Serif" font-size="10.00" fill="grey"> m_usingDirList</text>
</g>
<!-- Node12 -->
<g id="Node000012" class="node">
<title>Node12</title>
<g id="a_Node000012"><a xlink:href="../../d2/db7/class_linked_ref_map.html" target="_top" xlink:title="Container class representing a vector of objects with keys.">
<polygon fill="white" stroke="#666666" points="137,-178.75 0,-178.75 0,-148.75 137,-148.75 137,-178.75"/>
<text text-anchor="start" x="8" y="-166.75" font-family="Helvetica,sans-Serif" font-size="10.00">LinkedRefMap&lt; T, Hash,</text>
<text text-anchor="middle" x="68.5" y="-155.75" font-family="Helvetica,sans-Serif" font-size="10.00"> KeyEqual, Map &gt;</text>
</a>
</g>
</g>
<!-- Node12&#45;&gt;Node11 -->
<g id="edge12_Node000011_Node000012" class="edge">
<title>Node12&#45;&gt;Node11</title>
<g id="a_edge12_Node000011_Node000012"><a xlink:title=" ">
<path fill="none" stroke="orange" stroke-dasharray="5,2" d="M86.05,-140.61C101.56,-120.74 126.57,-92.95 155,-77.75 258.41,-22.48 396.27,-17.78 485.71,-22.13"/>
<polygon fill="orange" stroke="orange" points="83.26,-138.51 80,-148.59 88.83,-142.74 83.26,-138.51"/>
</a>
</g>
<text text-anchor="middle" x="220" y="-80.75" font-family="Helvetica,sans-Serif" font-size="10.00" fill="grey"> &lt; NamespaceDef &gt;</text>
</g>
<!-- Node13 -->
<g id="Node000013" class="node">
<title>Node13</title>
<g id="a_Node000013"><a xlink:href="../../d2/db7/class_linked_ref_map.html" target="_top" xlink:title=" ">
<polygon fill="white" stroke="#666666" points="461.5,-259.25 309.5,-259.25 309.5,-240.25 461.5,-240.25 461.5,-259.25"/>
<text text-anchor="middle" x="385.5" y="-247.25" font-family="Helvetica,sans-Serif" font-size="10.00">LinkedRefMap&lt; ClassDef &gt;</text>
</a>
</g>
</g>
<!-- Node12&#45;&gt;Node13 -->
<g id="edge14_Node000013_Node000012" class="edge">
<title>Node12&#45;&gt;Node13</title>
<g id="a_edge14_Node000013_Node000012"><a xlink:title=" ">
<path fill="none" stroke="orange" stroke-dasharray="5,2" d="M103.17,-184C118.52,-192.45 137.2,-201.69 155,-207.75 205.14,-224.82 263.92,-235.41 309.45,-241.69"/>
<polygon fill="orange" stroke="orange" points="104.51,-180.74 94.08,-178.87 101.07,-186.83 104.51,-180.74"/>
</a>
</g>
<text text-anchor="middle" x="220" y="-240.75" font-family="Helvetica,sans-Serif" font-size="10.00" fill="grey"> &lt; ClassDef &gt;</text>
</g>
<!-- Node21 -->
<g id="Node000021" class="node">
<title>Node21</title>
<g id="a_Node000021"><a xlink:href="../../d2/db7/class_linked_ref_map.html" target="_top" xlink:title=" ">
<polygon fill="white" stroke="#666666" points="447,-221.75 324,-221.75 324,-191.75 447,-191.75 447,-221.75"/>
<text text-anchor="start" x="332" y="-209.75" font-family="Helvetica,sans-Serif" font-size="10.00">LinkedRefMap&lt; const</text>
<text text-anchor="middle" x="385.5" y="-198.75" font-family="Helvetica,sans-Serif" font-size="10.00"> NamespaceDef &gt;</text>
</a>
</g>
</g>
<!-- Node12&#45;&gt;Node21 -->
<g id="edge25_Node000021_Node000012" class="edge">
<title>Node12&#45;&gt;Node21</title>
<g id="a_edge25_Node000021_Node000012"><a xlink:title=" ">
<path fill="none" stroke="orange" stroke-dasharray="5,2" d="M147.05,-174.34C201.62,-181.79 273.61,-191.62 323.96,-198.49"/>
<polygon fill="orange" stroke="orange" points="147.46,-170.86 137.08,-172.98 146.51,-177.8 147.46,-170.86"/>
</a>
</g>
<text text-anchor="middle" x="220" y="-195.75" font-family="Helvetica,sans-Serif" font-size="10.00" fill="grey"> &lt; const NamespaceDef &gt;</text>
</g>
<!-- Node24 -->
<g id="Node000024" class="node">
<title>Node24</title>
<g id="a_Node000024"><a xlink:href="../../d2/db7/class_linked_ref_map.html" target="_top" xlink:title=" ">
<polygon fill="white" stroke="#666666" points="468,-77.25 303,-77.25 303,-58.25 468,-58.25 468,-77.25"/>
<text text-anchor="middle" x="385.5" y="-65.25" font-family="Helvetica,sans-Serif" font-size="10.00">LinkedRefMap&lt; ConceptDef &gt;</text>
</a>
</g>
</g>
<!-- Node12&#45;&gt;Node24 -->
<g id="edge30_Node000024_Node000012" class="edge">
<title>Node12&#45;&gt;Node24</title>
<g id="a_edge30_Node000024_Node000012"><a xlink:title=" ">
<path fill="none" stroke="orange" stroke-dasharray="5,2" d="M120.99,-145.3C168.03,-128.8 239.7,-104.53 303,-86.75 315.03,-83.38 328.17,-80.12 340.33,-77.29"/>
<polygon fill="orange" stroke="orange" points="119.6,-142.08 111.33,-148.7 121.93,-148.68 119.6,-142.08"/>
</a>
</g>
<text text-anchor="middle" x="220" y="-134.75" font-family="Helvetica,sans-Serif" font-size="10.00" fill="grey"> &lt; ConceptDef &gt;</text>
</g>
<!-- Node13&#45;&gt;Node1 -->
<g id="edge13_Node000001_Node000013" class="edge">
<title>Node13&#45;&gt;Node1</title>
<g id="a_edge13_Node000001_Node000013"><a xlink:title=" ">
<path fill="none" stroke="#9a32cd" stroke-dasharray="5,2" d="M420.04,-262.97C529.65,-305.2 875.42,-430.46 965,-366.75 1013.44,-332.3 1018.41,-250.75 1018.63,-222.55"/>
<polygon fill="#9a32cd" stroke="#9a32cd" points="421.07,-259.62 410.48,-259.27 418.54,-266.14 421.07,-259.62"/>
</a>
</g>
<text text-anchor="middle" x="761" y="-383.75" font-family="Helvetica,sans-Serif" font-size="10.00" fill="grey"> m_usingDeclList</text>
</g>
<!-- Node22 -->
<g id="Node000022" class="node">
<title>Node22</title>
<g id="a_Node000022"><a xlink:href="../../da/d08/class_class_linked_ref_map.html" target="_top" xlink:title=" ">
<polygon fill="white" stroke="#666666" points="817,-248.25 705,-248.25 705,-229.25 817,-229.25 817,-248.25"/>
<text text-anchor="middle" x="761" y="-236.25" font-family="Helvetica,sans-Serif" font-size="10.00">ClassLinkedRefMap</text>
</a>
</g>
</g>
<!-- Node13&#45;&gt;Node22 -->
<g id="edge27_Node000022_Node000013" class="edge">
<title>Node13&#45;&gt;Node22</title>
<g id="a_edge27_Node000022_Node000013"><a xlink:title=" ">
<path fill="none" stroke="#63b8ff" d="M471.98,-247.24C543.57,-245.13 643.62,-242.18 704.99,-240.37"/>
<polygon fill="#63b8ff" stroke="#63b8ff" points="471.53,-243.75 461.63,-247.54 471.73,-250.74 471.53,-243.75"/>
</a>
</g>
</g>
<!-- Node14 -->
<g id="Node000014" class="node">
<title>Node14</title>
<g id="a_Node000014"><a xlink:href="../../d9/d45/class_q_c_string.html" target="_top" xlink:title="This is an alternative implementation of QCString.">
<polygon fill="white" stroke="#666666" points="790.5,-289.25 731.5,-289.25 731.5,-270.25 790.5,-270.25 790.5,-289.25"/>
<text text-anchor="middle" x="761" y="-277.25" font-family="Helvetica,sans-Serif" font-size="10.00">QCString</text>
</a>
</g>
</g>
<!-- Node14&#45;&gt;Node1 -->
<g id="edge15_Node000001_Node000014" class="edge">
<title>Node14&#45;&gt;Node1</title>
<g id="a_edge15_Node000001_Node000014"><a xlink:title=" ">
<path fill="none" stroke="#9a32cd" stroke-dasharray="5,2" d="M801.09,-278.22C851.59,-275.78 936.39,-269.97 965,-257.75 983.53,-249.84 1000.52,-233.27 1010.18,-222.59"/>
<polygon fill="#9a32cd" stroke="#9a32cd" points="800.7,-274.73 790.87,-278.69 801.02,-281.73 800.7,-274.73"/>
</a>
</g>
<text text-anchor="middle" x="909" y="-354.75" font-family="Helvetica,sans-Serif" font-size="10.00" fill="grey"> m_docname</text>
<text text-anchor="middle" x="909" y="-343.75" font-family="Helvetica,sans-Serif" font-size="10.00" fill="grey">m_fileName</text>
<text text-anchor="middle" x="909" y="-332.75" font-family="Helvetica,sans-Serif" font-size="10.00" fill="grey">m_filePath</text>
<text text-anchor="middle" x="909" y="-321.75" font-family="Helvetica,sans-Serif" font-size="10.00" fill="grey">m_fileVersion</text>
<text text-anchor="middle" x="909" y="-310.75" font-family="Helvetica,sans-Serif" font-size="10.00" fill="grey">m_inclByDepFileName</text>
<text text-anchor="middle" x="909" y="-299.75" font-family="Helvetica,sans-Serif" font-size="10.00" fill="grey">m_inclDepFileName</text>
<text text-anchor="middle" x="909" y="-288.75" font-family="Helvetica,sans-Serif" font-size="10.00" fill="grey">m_outputDiskName</text>
<text text-anchor="middle" x="909" y="-277.75" font-family="Helvetica,sans-Serif" font-size="10.00" fill="grey">m_path</text>
</g>
<!-- Node15&#45;&gt;Node1 -->
<g id="edge16_Node000001_Node000015" class="edge">
<title>Node15&#45;&gt;Node1</title>
<g id="a_edge16_Node000001_Node000015"><a xlink:title=" ">
<path fill="none" stroke="#9a32cd" stroke-dasharray="5,2" d="M419.7,-464.9C529.9,-477.92 881.38,-513.19 965,-444.75 1000.51,-415.69 1014.66,-262.57 1017.8,-222.41"/>
<polygon fill="#9a32cd" stroke="#9a32cd" points="419.85,-461.4 409.51,-463.68 419.02,-468.35 419.85,-461.4"/>
</a>
</g>
<text text-anchor="middle" x="761" y="-487.75" font-family="Helvetica,sans-Serif" font-size="10.00" fill="grey"> m_dir</text>
</g>
<!-- Node16 -->
<g id="Node000016" class="node">
<title>Node16</title>
<g id="a_Node000016"><a xlink:href="../../dd/d5a/class_member_lists.html" target="_top" xlink:title=" ">
<polygon fill="white" stroke="#666666" points="801,-163.25 721,-163.25 721,-144.25 801,-144.25 801,-163.25"/>
<text text-anchor="middle" x="761" y="-151.25" font-family="Helvetica,sans-Serif" font-size="10.00">MemberLists</text>
</a>
</g>
</g>
<!-- Node16&#45;&gt;Node1 -->
<g id="edge19_Node000001_Node000016" class="edge">
<title>Node16&#45;&gt;Node1</title>
<g id="a_edge19_Node000001_Node000016"><a xlink:title=" ">
<path fill="none" stroke="#9a32cd" stroke-dasharray="5,2" d="M811.41,-143.76C853.98,-137.54 916.1,-134.3 965,-155.75 987.12,-165.46 1004.35,-189.23 1012.79,-202.81"/>
<polygon fill="#9a32cd" stroke="#9a32cd" points="810.64,-140.34 801.3,-145.35 811.72,-147.25 810.64,-140.34"/>
</a>
</g>
<text text-anchor="middle" x="909" y="-158.75" font-family="Helvetica,sans-Serif" font-size="10.00" fill="grey"> m_memberLists</text>
</g>
<!-- Node17 -->
<g id="Node000017" class="node">
<title>Node17</title>
<g id="a_Node000017"><a xlink:title=" ">
<polygon fill="white" stroke="#666666" points="452.5,-173.75 318.5,-173.75 318.5,-143.75 452.5,-143.75 452.5,-173.75"/>
<text text-anchor="start" x="326.5" y="-161.75" font-family="Helvetica,sans-Serif" font-size="10.00">std::vector&lt; std::unique</text>
<text text-anchor="middle" x="385.5" y="-150.75" font-family="Helvetica,sans-Serif" font-size="10.00">_ptr&lt; MemberList &gt; &gt;</text>
</a>
</g>
</g>
<!-- Node17&#45;&gt;Node16 -->
<g id="edge20_Node000016_Node000017" class="edge">
<title>Node17&#45;&gt;Node16</title>
<g id="a_edge20_Node000016_Node000017"><a xlink:title=" ">
<path fill="none" stroke="#63b8ff" d="M463.14,-157.73C541.48,-156.68 660.03,-155.09 720.9,-154.28"/>
<polygon fill="#63b8ff" stroke="#63b8ff" points="462.8,-154.23 452.84,-157.87 462.89,-161.23 462.8,-154.23"/>
</a>
</g>
</g>
<!-- Node18 -->
<g id="Node000018" class="node">
<title>Node18</title>
<g id="a_Node000018"><a xlink:href="../../df/d11/class_member_group_list.html" target="_top" xlink:title=" ">
<polygon fill="white" stroke="#666666" points="813,-120.25 709,-120.25 709,-101.25 813,-101.25 813,-120.25"/>
<text text-anchor="middle" x="761" y="-108.25" font-family="Helvetica,sans-Serif" font-size="10.00">MemberGroupList</text>
</a>
</g>
</g>
<!-- Node18&#45;&gt;Node1 -->
<g id="edge21_Node000001_Node000018" class="edge">
<title>Node18&#45;&gt;Node1</title>
<g id="a_edge21_Node000001_Node000018"><a xlink:title=" ">
<path fill="none" stroke="#9a32cd" stroke-dasharray="5,2" d="M823.02,-100.53C865.81,-96.56 922.69,-98 965,-123.75 995.03,-142.03 1010.35,-184.1 1015.95,-203.12"/>
<polygon fill="#9a32cd" stroke="#9a32cd" points="822.6,-97.06 813.02,-101.58 823.33,-104.02 822.6,-97.06"/>
</a>
</g>
<text text-anchor="middle" x="909" y="-126.75" font-family="Helvetica,sans-Serif" font-size="10.00" fill="grey"> m_memberGroups</text>
</g>
<!-- Node19 -->
<g id="Node000019" class="node">
<title>Node19</title>
<g id="a_Node000019"><a xlink:title=" ">
<polygon fill="white" stroke="#666666" points="455,-125.75 316,-125.75 316,-95.75 455,-95.75 455,-125.75"/>
<text text-anchor="start" x="324" y="-113.75" font-family="Helvetica,sans-Serif" font-size="10.00">std::vector&lt; std::unique</text>
<text text-anchor="middle" x="385.5" y="-102.75" font-family="Helvetica,sans-Serif" font-size="10.00">_ptr&lt; MemberGroup &gt; &gt;</text>
</a>
</g>
</g>
<!-- Node19&#45;&gt;Node18 -->
<g id="edge22_Node000018_Node000019" class="edge">
<title>Node19&#45;&gt;Node18</title>
<g id="a_edge22_Node000018_Node000019"><a xlink:title=" ">
<path fill="none" stroke="#63b8ff" d="M465.12,-110.75C538.49,-110.75 645.81,-110.75 708.73,-110.75"/>
<polygon fill="#63b8ff" stroke="#63b8ff" points="465.01,-107.25 455.01,-110.75 465.01,-114.25 465.01,-107.25"/>
</a>
</g>
</g>
<!-- Node20 -->
<g id="Node000020" class="node">
<title>Node20</title>
<g id="a_Node000020"><a xlink:href="../../da/df0/class_namespace_linked_ref_map.html" target="_top" xlink:title=" ">
<polygon fill="white" stroke="#666666" points="832.5,-204.25 689.5,-204.25 689.5,-185.25 832.5,-185.25 832.5,-204.25"/>
<text text-anchor="middle" x="761" y="-192.25" font-family="Helvetica,sans-Serif" font-size="10.00">NamespaceLinkedRefMap</text>
</a>
</g>
</g>
<!-- Node20&#45;&gt;Node1 -->
<g id="edge23_Node000001_Node000020" class="edge">
<title>Node20&#45;&gt;Node1</title>
<g id="a_edge23_Node000001_Node000020"><a xlink:title=" ">
<path fill="none" stroke="#9a32cd" stroke-dasharray="5,2" d="M805.98,-182.89C847.7,-173.64 911.76,-164.66 965,-179.75 980.96,-184.28 996.83,-195.06 1007.09,-203.08"/>
<polygon fill="#9a32cd" stroke="#9a32cd" points="805.08,-179.51 796.13,-185.18 806.66,-186.33 805.08,-179.51"/>
</a>
</g>
<text text-anchor="middle" x="909" y="-182.75" font-family="Helvetica,sans-Serif" font-size="10.00" fill="grey"> m_namespaces</text>
</g>
<!-- Node21&#45;&gt;Node20 -->
<g id="edge24_Node000020_Node000021" class="edge">
<title>Node21&#45;&gt;Node20</title>
<g id="a_edge24_Node000020_Node000021"><a xlink:title=" ">
<path fill="none" stroke="#63b8ff" d="M457.73,-204.47C524.25,-202.33 622.96,-199.16 689.31,-197.02"/>
<polygon fill="#63b8ff" stroke="#63b8ff" points="457.22,-200.98 447.34,-204.8 457.45,-207.98 457.22,-200.98"/>
</a>
</g>
</g>
<!-- Node22&#45;&gt;Node1 -->
<g id="edge26_Node000001_Node000022" class="edge">
<title>Node22&#45;&gt;Node1</title>
<g id="a_edge26_Node000001_Node000022"><a xlink:title=" ">
<path fill="none" stroke="#9a32cd" stroke-dasharray="5,2" d="M799.19,-226.17C815.49,-221.27 834.99,-216.24 853,-213.75 897.4,-207.63 949.15,-208.6 982.8,-210.29"/>
<polygon fill="#9a32cd" stroke="#9a32cd" points="798,-222.87 789.49,-229.18 800.07,-229.55 798,-222.87"/>
</a>
</g>
<text text-anchor="middle" x="909" y="-249.75" font-family="Helvetica,sans-Serif" font-size="10.00" fill="grey"> m_classes</text>
<text text-anchor="middle" x="909" y="-238.75" font-family="Helvetica,sans-Serif" font-size="10.00" fill="grey">m_exceptions</text>
<text text-anchor="middle" x="909" y="-227.75" font-family="Helvetica,sans-Serif" font-size="10.00" fill="grey">m_interfaces</text>
<text text-anchor="middle" x="909" y="-216.75" font-family="Helvetica,sans-Serif" font-size="10.00" fill="grey">m_structs</text>
</g>
<!-- Node23 -->
<g id="Node000023" class="node">
<title>Node23</title>
<g id="a_Node000023"><a xlink:href="../../d4/daa/class_concept_linked_ref_map.html" target="_top" xlink:title=" ">
<polygon fill="white" stroke="#666666" points="823.5,-82.25 698.5,-82.25 698.5,-63.25 823.5,-63.25 823.5,-82.25"/>
<text text-anchor="middle" x="761" y="-70.25" font-family="Helvetica,sans-Serif" font-size="10.00">ConceptLinkedRefMap</text>
</a>
</g>
</g>
<!-- Node23&#45;&gt;Node1 -->
<g id="edge28_Node000001_Node000023" class="edge">
<title>Node23&#45;&gt;Node1</title>
<g id="a_edge28_Node000001_Node000023"><a xlink:title=" ">
<path fill="none" stroke="#9a32cd" stroke-dasharray="5,2" d="M813.89,-61.67C858.13,-55.29 921.32,-53.77 965,-84.75 1005.27,-113.32 1015.35,-178.22 1017.77,-202.94"/>
<polygon fill="#9a32cd" stroke="#9a32cd" points="813.25,-58.23 803.92,-63.24 814.34,-65.15 813.25,-58.23"/>
</a>
</g>
<text text-anchor="middle" x="909" y="-87.75" font-family="Helvetica,sans-Serif" font-size="10.00" fill="grey"> m_concepts</text>
</g>
<!-- Node24&#45;&gt;Node23 -->
<g id="edge29_Node000023_Node000024" class="edge">
<title>Node24&#45;&gt;Node23</title>
<g id="a_edge29_Node000023_Node000024"><a xlink:title=" ">
<path fill="none" stroke="#63b8ff" d="M478.36,-68.98C546.83,-69.9 638.47,-71.13 698.35,-71.93"/>
<polygon fill="#63b8ff" stroke="#63b8ff" points="478.05,-65.48 468,-68.84 477.96,-72.48 478.05,-65.48"/>
</a>
</g>
</g>
</g>
</svg>
