<?xml version="1.0" encoding="UTF-8" standalone="no"?>
<!DOCTYPE svg PUBLIC "-//W3C//DTD SVG 1.1//EN"
 "http://www.w3.org/Graphics/SVG/1.1/DTD/svg11.dtd">
<!-- Generated by graphviz version 2.43.0 (0)
 -->
<!-- Title: src/indexlist.h Pages: 1 -->
<!--zoomable 82 -->

<svg id="main" version="1.1" xmlns="http://www.w3.org/2000/svg" xmlns:xlink="http://www.w3.org/1999/xlink" xml:space="preserve" onload="init(evt)">
<style type="text/css"><![CDATA[
.node, .edge {opacity: 0.7;}
.node.selected, .edge.selected {opacity: 1;}
.edge:hover path { stroke: red; }
.edge:hover polygon { stroke: red; fill: red; }
]]></style>

<defs>
  <circle id="rim" cx="0" cy="0" r="7"/>
  <circle id="rim2" cx="0" cy="0" r="3.5"/>
  <g id="zoomPlus">
    <use xlink:href="#rim" fill="#404040"><set attributeName="fill" to="#808080" begin="zoomplus.mouseover" end="zoomplus.mouseout"/></use>
    <path d="M-4,0h8M0,-4v8" fill="none" stroke="white" stroke-width="1.5" pointer-events="none"/>
  </g>
  <g id="zoomMin">
    <use xlink:href="#rim" fill="#404040"><set attributeName="fill" to="#808080" begin="zoomminus.mouseover" end="zoomminus.mouseout"/></use>
    <path d="M-4,0h8" fill="none" stroke="white" stroke-width="1.5" pointer-events="none"/>
  </g>
  <g id="arrowUp" transform="translate(30 24)">
    <use xlink:href="#rim"/>
    <path pointer-events="none" fill="none" stroke="white" stroke-width="1.5" d="M0,-3.0v7 M-2.5,-0.5L0,-3.0L2.5,-0.5"/>
  </g>
  <g id="arrowRight" transform="rotate(90) translate(36 -43)">
    <use xlink:href="#rim"/>
    <path pointer-events="none" fill="none" stroke="white" stroke-width="1.5" d="M0,-3.0v7 M-2.5,-0.5L0,-3.0L2.5,-0.5"/>
  </g>
  <g id="arrowDown" transform="rotate(180) translate(-30 -48)">
    <use xlink:href="#rim"/>
    <path pointer-events="none" fill="none" stroke="white" stroke-width="1.5" d="M0,-3.0v7 M-2.5,-0.5L0,-3.0L2.5,-0.5"/>
  </g>
  <g id="arrowLeft" transform="rotate(270) translate(-36 17)">
    <use xlink:href="#rim"/>
    <path pointer-events="none" fill="none" stroke="white" stroke-width="1.5" d="M0,-3.0v7 M-2.5,-0.5L0,-3.0L2.5,-0.5"/>
  </g>
  <g id="resetDef">
    <use xlink:href="#rim2" fill="#404040"><set attributeName="fill" to="#808080" begin="reset.mouseover" end="reset.mouseout"/></use>
  </g>
</defs>
<script type="application/ecmascript">
var viewWidth = 1566;
var viewHeight = 82;
var sectionId = 'dynsection-1';
</script>
<script type="application/ecmascript" xlink:href="../../svg.min.js"/>
<svg id="graph" class="graph">
<g id="viewport">
<title>src/indexlist.h</title>
<!-- Node1 -->
<g id="Node000001" class="node">
<title>Node1</title>
<g id="a_Node000001"><a xlink:title=" ">
<polygon fill="#999999" stroke="#666666" points="820.5,-74 735.5,-74 735.5,-55 820.5,-55 820.5,-74"/>
<text text-anchor="middle" x="778" y="-62" font-family="Helvetica,sans-Serif" font-size="10.00">src/indexlist.h</text>
</a>
</g>
</g>
<!-- Node2 -->
<g id="Node000002" class="node">
<title>Node2</title>
<g id="a_Node000002"><a xlink:href="../../d3/dea/definition_8cpp.html" target="_top" xlink:title=" ">
<polygon fill="white" stroke="#666666" points="100,-19 0,-19 0,0 100,0 100,-19"/>
<text text-anchor="middle" x="50" y="-7" font-family="Helvetica,sans-Serif" font-size="10.00">src/definition.cpp</text>
</a>
</g>
</g>
<!-- Node1&#45;&gt;Node2 -->
<g id="edge1_Node000001_Node000002" class="edge">
<title>Node1&#45;&gt;Node2</title>
<g id="a_edge1_Node000001_Node000002"><a xlink:title=" ">
<path fill="none" stroke="#63b8ff" d="M725.12,-61.36C611.9,-56.48 337.73,-43.05 109,-19 106.12,-18.7 103.16,-18.36 100.18,-18"/>
<polygon fill="#63b8ff" stroke="#63b8ff" points="725.11,-64.87 735.25,-61.79 725.41,-57.87 725.11,-64.87"/>
</a>
</g>
</g>
<!-- Node3 -->
<g id="Node000003" class="node">
<title>Node3</title>
<g id="a_Node000003"><a xlink:href="../../da/d0d/diagram_8cpp.html" target="_top" xlink:title=" ">
<polygon fill="white" stroke="#666666" points="213.5,-19 118.5,-19 118.5,0 213.5,0 213.5,-19"/>
<text text-anchor="middle" x="166" y="-7" font-family="Helvetica,sans-Serif" font-size="10.00">src/diagram.cpp</text>
</a>
</g>
</g>
<!-- Node1&#45;&gt;Node3 -->
<g id="edge2_Node000001_Node000003" class="edge">
<title>Node1&#45;&gt;Node3</title>
<g id="a_edge2_Node000001_Node000003"><a xlink:title=" ">
<path fill="none" stroke="#63b8ff" d="M725.32,-60.53C626.44,-54.68 406.42,-40.35 222,-19 219.26,-18.68 216.46,-18.33 213.63,-17.96"/>
<polygon fill="#63b8ff" stroke="#63b8ff" points="725.16,-64.03 735.35,-61.12 725.57,-57.04 725.16,-64.03"/>
</a>
</g>
</g>
<!-- Node4 -->
<g id="Node000004" class="node">
<title>Node4</title>
<g id="a_Node000004"><a xlink:href="../../da/d17/docparser_8cpp.html" target="_top" xlink:title=" ">
<polygon fill="white" stroke="#666666" points="332.5,-19 231.5,-19 231.5,0 332.5,0 332.5,-19"/>
<text text-anchor="middle" x="282" y="-7" font-family="Helvetica,sans-Serif" font-size="10.00">src/docparser.cpp</text>
</a>
</g>
</g>
<!-- Node1&#45;&gt;Node4 -->
<g id="edge3_Node000001_Node000004" class="edge">
<title>Node1&#45;&gt;Node4</title>
<g id="a_edge3_Node000001_Node000004"><a xlink:title=" ">
<path fill="none" stroke="#63b8ff" d="M725.16,-58.78C643.06,-51.29 479.98,-35.81 342,-19 338.97,-18.63 335.86,-18.24 332.72,-17.83"/>
<polygon fill="#63b8ff" stroke="#63b8ff" points="724.96,-62.27 735.24,-59.69 725.59,-55.3 724.96,-62.27"/>
</a>
</g>
</g>
<!-- Node5 -->
<g id="Node000005" class="node">
<title>Node5</title>
<g id="a_Node000005"><a xlink:href="../../de/daa/dot_8cpp.html" target="_top" xlink:title=" ">
<polygon fill="white" stroke="#666666" points="421,-19 351,-19 351,0 421,0 421,-19"/>
<text text-anchor="middle" x="386" y="-7" font-family="Helvetica,sans-Serif" font-size="10.00">src/dot.cpp</text>
</a>
</g>
</g>
<!-- Node1&#45;&gt;Node5 -->
<g id="edge4_Node000001_Node000005" class="edge">
<title>Node1&#45;&gt;Node5</title>
<g id="a_edge4_Node000001_Node000005"><a xlink:title=" ">
<path fill="none" stroke="#63b8ff" d="M725.2,-57.81C656.89,-50.2 534.25,-35.72 430,-19 427.08,-18.53 424.06,-18.02 421.03,-17.48"/>
<polygon fill="#63b8ff" stroke="#63b8ff" points="724.96,-61.3 735.29,-58.92 725.73,-54.34 724.96,-61.3"/>
</a>
</g>
</g>
<!-- Node6 -->
<g id="Node000006" class="node">
<title>Node6</title>
<g id="a_Node000006"><a xlink:href="../../de/d45/dotgraph_8cpp.html" target="_top" xlink:title=" ">
<polygon fill="white" stroke="#666666" points="537,-19 439,-19 439,0 537,0 537,-19"/>
<text text-anchor="middle" x="488" y="-7" font-family="Helvetica,sans-Serif" font-size="10.00">src/dotgraph.cpp</text>
</a>
</g>
</g>
<!-- Node1&#45;&gt;Node6 -->
<g id="edge5_Node000001_Node000006" class="edge">
<title>Node1&#45;&gt;Node6</title>
<g id="a_edge5_Node000001_Node000006"><a xlink:title=" ">
<path fill="none" stroke="#63b8ff" d="M725.08,-53.83C670.7,-43.89 586.85,-28.57 534.82,-19.06"/>
<polygon fill="#63b8ff" stroke="#63b8ff" points="724.74,-57.32 735.21,-55.68 726,-50.44 724.74,-57.32"/>
</a>
</g>
</g>
<!-- Node7 -->
<g id="Node000007" class="node">
<title>Node7</title>
<g id="a_Node000007"><a xlink:href="../../dc/d98/doxygen_8cpp.html" target="_top" xlink:title=" ">
<polygon fill="white" stroke="#666666" points="651,-19 555,-19 555,0 651,0 651,-19"/>
<text text-anchor="middle" x="603" y="-7" font-family="Helvetica,sans-Serif" font-size="10.00">src/doxygen.cpp</text>
</a>
</g>
</g>
<!-- Node1&#45;&gt;Node7 -->
<g id="edge6_Node000001_Node000007" class="edge">
<title>Node1&#45;&gt;Node7</title>
<g id="a_edge6_Node000001_Node000007"><a xlink:title=" ">
<path fill="none" stroke="#63b8ff" d="M740.21,-52.06C707.5,-42.15 660.93,-28.04 631.34,-19.08"/>
<polygon fill="#63b8ff" stroke="#63b8ff" points="739.3,-55.44 749.88,-54.98 741.33,-48.74 739.3,-55.44"/>
</a>
</g>
</g>
<!-- Node8 -->
<g id="Node000008" class="node">
<title>Node8</title>
<g id="a_Node000008"><a xlink:href="../../d7/d5b/formula_8cpp.html" target="_top" xlink:title=" ">
<polygon fill="white" stroke="#666666" points="761,-19 669,-19 669,0 761,0 761,-19"/>
<text text-anchor="middle" x="715" y="-7" font-family="Helvetica,sans-Serif" font-size="10.00">src/formula.cpp</text>
</a>
</g>
</g>
<!-- Node1&#45;&gt;Node8 -->
<g id="edge7_Node000001_Node000008" class="edge">
<title>Node1&#45;&gt;Node8</title>
<g id="a_edge7_Node000001_Node000008"><a xlink:title=" ">
<path fill="none" stroke="#63b8ff" d="M759.96,-48.32C748.73,-38.87 734.68,-27.06 725.31,-19.17"/>
<polygon fill="#63b8ff" stroke="#63b8ff" points="757.97,-51.23 767.88,-54.98 762.48,-45.87 757.97,-51.23"/>
</a>
</g>
</g>
<!-- Node9 -->
<g id="Node000009" class="node">
<title>Node9</title>
<g id="a_Node000009"><a xlink:href="../../da/db0/htmldocvisitor_8cpp.html" target="_top" xlink:title=" ">
<polygon fill="white" stroke="#666666" points="903,-19 779,-19 779,0 903,0 903,-19"/>
<text text-anchor="middle" x="841" y="-7" font-family="Helvetica,sans-Serif" font-size="10.00">src/htmldocvisitor.cpp</text>
</a>
</g>
</g>
<!-- Node1&#45;&gt;Node9 -->
<g id="edge8_Node000001_Node000009" class="edge">
<title>Node1&#45;&gt;Node9</title>
<g id="a_edge8_Node000001_Node000009"><a xlink:title=" ">
<path fill="none" stroke="#63b8ff" d="M796.04,-48.32C807.27,-38.87 821.32,-27.06 830.69,-19.17"/>
<polygon fill="#63b8ff" stroke="#63b8ff" points="793.52,-45.87 788.12,-54.98 798.03,-51.23 793.52,-45.87"/>
</a>
</g>
</g>
<!-- Node10 -->
<g id="Node000010" class="node">
<title>Node10</title>
<g id="a_Node000010"><a xlink:href="../../d8/d6e/htmlgen_8cpp.html" target="_top" xlink:title=" ">
<polygon fill="white" stroke="#666666" points="1016.5,-19 921.5,-19 921.5,0 1016.5,0 1016.5,-19"/>
<text text-anchor="middle" x="969" y="-7" font-family="Helvetica,sans-Serif" font-size="10.00">src/htmlgen.cpp</text>
</a>
</g>
</g>
<!-- Node1&#45;&gt;Node10 -->
<g id="edge9_Node000001_Node000010" class="edge">
<title>Node1&#45;&gt;Node10</title>
<g id="a_edge9_Node000001_Node000010"><a xlink:title=" ">
<path fill="none" stroke="#63b8ff" d="M818.78,-52.18C854.5,-42.27 905.63,-28.08 938.07,-19.08"/>
<polygon fill="#63b8ff" stroke="#63b8ff" points="817.39,-48.94 808.69,-54.98 819.26,-55.68 817.39,-48.94"/>
</a>
</g>
</g>
<!-- Node11 -->
<g id="Node000011" class="node">
<title>Node11</title>
<g id="a_Node000011"><a xlink:href="../../db/d14/index_8cpp.html" target="_top" xlink:title="This file contains functions for the various index pages.">
<polygon fill="white" stroke="#666666" points="1115.5,-19 1034.5,-19 1034.5,0 1115.5,0 1115.5,-19"/>
<text text-anchor="middle" x="1075" y="-7" font-family="Helvetica,sans-Serif" font-size="10.00">src/index.cpp</text>
</a>
</g>
</g>
<!-- Node1&#45;&gt;Node11 -->
<g id="edge10_Node000001_Node000011" class="edge">
<title>Node1&#45;&gt;Node11</title>
<g id="a_edge10_Node000001_Node000011"><a xlink:title=" ">
<path fill="none" stroke="#63b8ff" d="M830.66,-54.1C888.92,-43.71 981.54,-27.18 1034.43,-17.74"/>
<polygon fill="#63b8ff" stroke="#63b8ff" points="829.78,-50.7 820.55,-55.91 831.01,-57.6 829.78,-50.7"/>
</a>
</g>
</g>
<!-- Node12 -->
<g id="Node000012" class="node">
<title>Node12</title>
<g id="a_Node000012"><a xlink:href="../../db/d33/msc_8cpp.html" target="_top" xlink:title=" ">
<polygon fill="white" stroke="#666666" points="1208,-19 1134,-19 1134,0 1208,0 1208,-19"/>
<text text-anchor="middle" x="1171" y="-7" font-family="Helvetica,sans-Serif" font-size="10.00">src/msc.cpp</text>
</a>
</g>
</g>
<!-- Node1&#45;&gt;Node12 -->
<g id="edge11_Node000001_Node000012" class="edge">
<title>Node1&#45;&gt;Node12</title>
<g id="a_edge11_Node000001_Node000012"><a xlink:title=" ">
<path fill="none" stroke="#63b8ff" d="M830.62,-57.67C898.72,-49.91 1020.98,-35.27 1125,-19 1127.89,-18.55 1130.87,-18.06 1133.87,-17.54"/>
<polygon fill="#63b8ff" stroke="#63b8ff" points="830.12,-54.2 820.57,-58.81 830.9,-61.16 830.12,-54.2"/>
</a>
</g>
</g>
<!-- Node13 -->
<g id="Node000013" class="node">
<title>Node13</title>
<g id="a_Node000013"><a xlink:href="../../d7/d5b/plantuml_8cpp.html" target="_top" xlink:title=" ">
<polygon fill="white" stroke="#666666" points="1324,-19 1226,-19 1226,0 1324,0 1324,-19"/>
<text text-anchor="middle" x="1275" y="-7" font-family="Helvetica,sans-Serif" font-size="10.00">src/plantuml.cpp</text>
</a>
</g>
</g>
<!-- Node1&#45;&gt;Node13 -->
<g id="edge12_Node000001_Node000013" class="edge">
<title>Node1&#45;&gt;Node13</title>
<g id="a_edge12_Node000001_Node000013"><a xlink:title=" ">
<path fill="none" stroke="#63b8ff" d="M830.89,-58.9C913.46,-51.56 1077.93,-36.23 1217,-19 1219.93,-18.64 1222.94,-18.25 1225.97,-17.84"/>
<polygon fill="#63b8ff" stroke="#63b8ff" points="830.41,-55.43 820.76,-59.8 831.03,-62.41 830.41,-55.43"/>
</a>
</g>
</g>
<!-- Node14 -->
<g id="Node000014" class="node">
<title>Node14</title>
<g id="a_Node000014"><a xlink:href="../../d9/d2f/searchindex__js_8cpp.html" target="_top" xlink:title=" ">
<polygon fill="white" stroke="#666666" points="1469.5,-19 1342.5,-19 1342.5,0 1469.5,0 1469.5,-19"/>
<text text-anchor="middle" x="1406" y="-7" font-family="Helvetica,sans-Serif" font-size="10.00">src/searchindex_js.cpp</text>
</a>
</g>
</g>
<!-- Node1&#45;&gt;Node14 -->
<g id="edge13_Node000001_Node000014" class="edge">
<title>Node1&#45;&gt;Node14</title>
<g id="a_edge13_Node000001_Node000014"><a xlink:title=" ">
<path fill="none" stroke="#63b8ff" d="M830.53,-59.92C929.11,-53.06 1148.57,-37.13 1333,-19 1336.05,-18.7 1339.17,-18.38 1342.31,-18.05"/>
<polygon fill="#63b8ff" stroke="#63b8ff" points="830.25,-56.43 820.52,-60.61 830.74,-63.41 830.25,-56.43"/>
</a>
</g>
</g>
<!-- Node15 -->
<g id="Node000015" class="node">
<title>Node15</title>
<g id="a_Node000015"><a xlink:href="../../df/d2d/util_8cpp.html" target="_top" xlink:title=" ">
<polygon fill="white" stroke="#666666" points="1558,-19 1488,-19 1488,0 1558,0 1558,-19"/>
<text text-anchor="middle" x="1523" y="-7" font-family="Helvetica,sans-Serif" font-size="10.00">src/util.cpp</text>
</a>
</g>
</g>
<!-- Node1&#45;&gt;Node15 -->
<g id="edge14_Node000001_Node000015" class="edge">
<title>Node1&#45;&gt;Node15</title>
<g id="a_edge14_Node000001_Node000015"><a xlink:title=" ">
<path fill="none" stroke="#63b8ff" d="M830.99,-62.44C948.23,-59.59 1238.29,-49.76 1479,-19 1481.78,-18.64 1484.65,-18.22 1487.52,-17.76"/>
<polygon fill="#63b8ff" stroke="#63b8ff" points="830.77,-58.94 820.85,-62.68 830.93,-65.94 830.77,-58.94"/>
</a>
</g>
</g>
</g>
</svg>

<g id="navigator" transform="translate(0 0)" fill="#404254">
  <rect fill="#f2f5e9" fill-opacity="0.5" stroke="#606060" stroke-width=".5" x="0" y="0" width="60" height="60"/>
  <use id="zoomplus" xlink:href="#zoomPlus" x="17" y="9" onmousedown="handleZoom(evt,'in')"/>
  <use id="zoomminus" xlink:href="#zoomMin" x="42" y="9" onmousedown="handleZoom(evt,'out')"/>
  <use id="reset" xlink:href="#resetDef" x="30" y="36" onmousedown="handleReset()"/>
   <use id="arrowup" xlink:href="#arrowUp" x="0" y="0" onmousedown="handlePan(0,-1)"/>
  <use id="arrowright" xlink:href="#arrowRight" x="0" y="0" onmousedown="handlePan(1,0)"/>
  <use id="arrowdown" xlink:href="#arrowDown" x="0" y="0" onmousedown="handlePan(0,1)"/>
  <use id="arrowleft" xlink:href="#arrowLeft" x="0" y="0" onmousedown="handlePan(-1,0)"/>
</g>
<svg viewBox="0 0 15 15" width="100%" height="30px" preserveAspectRatio="xMaxYMin meet">
 <g id="arrow_out" transform="scale(0.3 0.3)">
  <a xlink:href="indexlist_8h__dep__incl_org.svg" target="_base">
   <rect id="button" ry="5" rx="5" y="6" x="6" height="38" width="38"
        fill="#f2f5e9" fill-opacity="0.5" stroke="#606060" stroke-width="1.0"/>
   <path id="arrow"
     d="M 11.500037,31.436501 C 11.940474,20.09759 22.043105,11.32322 32.158766,21.979434 L 37.068811,17.246167 C 37.068811,17.246167 37.088388,32 37.088388,32 L 22.160133,31.978069 C 22.160133,31.978069 26.997745,27.140456 26.997745,27.140456 C 18.528582,18.264221 13.291696,25.230495 11.500037,31.436501 z"
     style="fill:#404040;"/>
  </a>
 </g>
</svg>

<style type='text/css'>
<![CDATA[
[data-mouse-over-selected='false'] { opacity: 0.7; }
[data-mouse-over-selected='true']  { opacity: 1.0; }
]]>
</style>
<script type="application/ecmascript"><![CDATA[
document.addEventListener('DOMContentLoaded', (event) => {
  highlightEdges();
  highlightAdjacentNodes();
});
]]></script>
</svg>
