<?xml version="1.0" encoding="UTF-8" standalone="no"?>
<!DOCTYPE svg PUBLIC "-//W3C//DTD SVG 1.1//EN"
 "http://www.w3.org/Graphics/SVG/1.1/DTD/svg11.dtd">
<!-- Generated by graphviz version 2.43.0 (0)
 -->
<!-- Title: anonymous_namespace{tagreader.cpp}::TagConceptInfo Pages: 1 -->
<svg width="299pt" height="182pt"
 viewBox="0.00 0.00 298.50 182.00" xmlns="http://www.w3.org/2000/svg" xmlns:xlink="http://www.w3.org/1999/xlink">
<g id="graph0" class="graph" transform="scale(1 1) rotate(0) translate(4 178)">
<title>anonymous_namespace{tagreader.cpp}::TagConceptInfo</title>
<!-- Node1 -->
<g id="Node000001" class="node">
<title>Node1</title>
<g id="a_Node000001"><a xlink:title="Container for concept specific info that can be read from a tagfile.">
<polygon fill="#999999" stroke="#666666" points="176,-30 0,-30 0,0 176,0 176,-30"/>
<text text-anchor="start" x="8" y="-18" font-family="Helvetica,sans-Serif" font-size="10.00">anonymous_namespace</text>
<text text-anchor="middle" x="88" y="-7" font-family="Helvetica,sans-Serif" font-size="10.00">{tagreader.cpp}::TagConceptInfo</text>
</a>
</g>
</g>
<!-- Node2 -->
<g id="Node000002" class="node">
<title>Node2</title>
<g id="a_Node000002"><a xlink:href="../../d8/da1/structanonymous__namespace_02tagreader_8cpp_03_1_1_tag_compound_info.html" target="_top" xlink:title="Base class for all compound types.">
<polygon fill="white" stroke="#666666" points="290.5,-97 101.5,-97 101.5,-67 290.5,-67 290.5,-97"/>
<text text-anchor="start" x="109.5" y="-85" font-family="Helvetica,sans-Serif" font-size="10.00">anonymous_namespace</text>
<text text-anchor="middle" x="196" y="-74" font-family="Helvetica,sans-Serif" font-size="10.00">{tagreader.cpp}::TagCompoundInfo</text>
</a>
</g>
</g>
<!-- Node2&#45;&gt;Node1 -->
<g id="edge1_Node000001_Node000002" class="edge">
<title>Node2&#45;&gt;Node1</title>
<g id="a_edge1_Node000001_Node000002"><a xlink:title=" ">
<path fill="none" stroke="#63b8ff" d="M163.63,-61.52C146.82,-51.4 126.66,-39.27 111.39,-30.08"/>
<polygon fill="#63b8ff" stroke="#63b8ff" points="162.19,-64.74 172.57,-66.9 165.8,-58.74 162.19,-64.74"/>
</a>
</g>
</g>
<!-- Node3 -->
<g id="Node000003" class="node">
<title>Node3</title>
<g id="a_Node000003"><a xlink:href="../../d9/d45/class_q_c_string.html" target="_top" xlink:title="This is an alternative implementation of QCString.">
<polygon fill="white" stroke="#666666" points="89.5,-174 30.5,-174 30.5,-155 89.5,-155 89.5,-174"/>
<text text-anchor="middle" x="60" y="-162" font-family="Helvetica,sans-Serif" font-size="10.00">QCString</text>
</a>
</g>
</g>
<!-- Node3&#45;&gt;Node1 -->
<g id="edge3_Node000001_Node000003" class="edge">
<title>Node3&#45;&gt;Node1</title>
<g id="a_edge3_Node000001_Node000003"><a xlink:title=" ">
<path fill="none" stroke="#9a32cd" stroke-dasharray="5,2" d="M55.05,-144.89C50.67,-125.12 46.07,-93.18 54,-67 58.13,-53.35 67.25,-40.02 75.01,-30.41"/>
<polygon fill="#9a32cd" stroke="#9a32cd" points="51.69,-145.86 57.45,-154.75 58.49,-144.2 51.69,-145.86"/>
</a>
</g>
<text text-anchor="middle" x="73.5" y="-79.5" font-family="Helvetica,sans-Serif" font-size="10.00" fill="grey"> clangId</text>
</g>
<!-- Node3&#45;&gt;Node2 -->
<g id="edge2_Node000002_Node000003" class="edge">
<title>Node3&#45;&gt;Node2</title>
<g id="a_edge2_Node000002_Node000003"><a xlink:title=" ">
<path fill="none" stroke="#9a32cd" stroke-dasharray="5,2" d="M83.28,-149.72C108.03,-135.07 146.96,-112.03 171.98,-97.22"/>
<polygon fill="#9a32cd" stroke="#9a32cd" points="81.38,-146.78 74.55,-154.89 84.94,-152.8 81.38,-146.78"/>
</a>
</g>
<text text-anchor="middle" x="163" y="-129" font-family="Helvetica,sans-Serif" font-size="10.00" fill="grey"> filename</text>
<text text-anchor="middle" x="163" y="-118" font-family="Helvetica,sans-Serif" font-size="10.00" fill="grey">name</text>
</g>
</g>
</svg>
