<?xml version="1.0" encoding="UTF-8" standalone="no"?>
<!DOCTYPE svg PUBLIC "-//W3C//DTD SVG 1.1//EN"
 "http://www.w3.org/Graphics/SVG/1.1/DTD/svg11.dtd">
<!-- Generated by graphviz version 2.43.0 (0)
 -->
<!-- Title: src/dir.h Pages: 1 -->
<svg width="155pt" height="137pt"
 viewBox="0.00 0.00 155.12 137.00" xmlns="http://www.w3.org/2000/svg" xmlns:xlink="http://www.w3.org/1999/xlink">
<g id="graph0" class="graph" transform="scale(1 1) rotate(0) translate(4 133)">
<title>src/dir.h</title>
<!-- Node1 -->
<g id="Node000001" class="node">
<title>Node1</title>
<g id="a_Node000001"><a xlink:title=" ">
<polygon fill="#999999" stroke="#666666" points="68.12,-129 13.12,-129 13.12,-110 68.12,-110 68.12,-129"/>
<text text-anchor="middle" x="40.62" y="-117" font-family="Helvetica,sans-Serif" font-size="10.00">src/dir.h</text>
</a>
</g>
</g>
<!-- Node2 -->
<g id="Node000002" class="node">
<title>Node2</title>
<g id="a_Node000002"><a xlink:title=" ">
<polygon fill="#e0e0e0" stroke="#999999" points="72.62,-19 28.62,-19 28.62,0 72.62,0 72.62,-19"/>
<text text-anchor="middle" x="50.62" y="-7" font-family="Helvetica,sans-Serif" font-size="10.00">string</text>
</a>
</g>
</g>
<!-- Node1&#45;&gt;Node2 -->
<g id="edge1_Node000001_Node000002" class="edge">
<title>Node1&#45;&gt;Node2</title>
<g id="a_edge1_Node000001_Node000002"><a xlink:title=" ">
<path fill="none" stroke="#63b8ff" d="M29.16,-109.84C14.93,-97.97 -6.42,-75.72 2.62,-55 7.9,-42.92 18.25,-32.65 27.99,-25.03"/>
<polygon fill="#63b8ff" stroke="#63b8ff" points="30.22,-27.74 36.26,-19.04 26.11,-22.07 30.22,-27.74"/>
</a>
</g>
</g>
<!-- Node3 -->
<g id="Node000003" class="node">
<title>Node3</title>
<g id="a_Node000003"><a xlink:title=" ">
<polygon fill="#e0e0e0" stroke="#999999" points="69.62,-74 11.62,-74 11.62,-55 69.62,-55 69.62,-74"/>
<text text-anchor="middle" x="40.62" y="-62" font-family="Helvetica,sans-Serif" font-size="10.00">memory</text>
</a>
</g>
</g>
<!-- Node1&#45;&gt;Node3 -->
<g id="edge2_Node000001_Node000003" class="edge">
<title>Node1&#45;&gt;Node3</title>
<g id="a_edge2_Node000001_Node000003"><a xlink:title=" ">
<path fill="none" stroke="#63b8ff" d="M40.62,-109.75C40.62,-102.8 40.62,-92.85 40.62,-84.13"/>
<polygon fill="#63b8ff" stroke="#63b8ff" points="44.12,-84.09 40.62,-74.09 37.12,-84.09 44.12,-84.09"/>
</a>
</g>
</g>
<!-- Node4 -->
<g id="Node000004" class="node">
<title>Node4</title>
<g id="a_Node000004"><a xlink:href="../../df/d45/fileinfo_8h.html" target="_top" xlink:title=" ">
<polygon fill="white" stroke="#666666" points="147.12,-74 88.12,-74 88.12,-55 147.12,-55 147.12,-74"/>
<text text-anchor="middle" x="117.62" y="-62" font-family="Helvetica,sans-Serif" font-size="10.00">fileinfo.h</text>
</a>
</g>
</g>
<!-- Node1&#45;&gt;Node4 -->
<g id="edge3_Node000001_Node000004" class="edge">
<title>Node1&#45;&gt;Node4</title>
<g id="a_edge3_Node000001_Node000004"><a xlink:title=" ">
<path fill="none" stroke="#63b8ff" d="M52.99,-109.98C64.71,-101.92 82.54,-89.65 96.51,-80.03"/>
<polygon fill="#63b8ff" stroke="#63b8ff" points="98.77,-82.72 105.03,-74.17 94.81,-76.96 98.77,-82.72"/>
</a>
</g>
</g>
<!-- Node4&#45;&gt;Node2 -->
<g id="edge4_Node000004_Node000002" class="edge">
<title>Node4&#45;&gt;Node2</title>
<g id="a_edge4_Node000004_Node000002"><a xlink:title=" ">
<path fill="none" stroke="#63b8ff" d="M106.86,-54.98C96.86,-47.07 81.74,-35.11 69.69,-25.58"/>
<polygon fill="#63b8ff" stroke="#63b8ff" points="71.6,-22.63 61.58,-19.17 67.26,-28.12 71.6,-22.63"/>
</a>
</g>
</g>
</g>
</svg>
