<?xml version="1.0" encoding="UTF-8" standalone="no"?>
<!DOCTYPE svg PUBLIC "-//W3C//DTD SVG 1.1//EN"
 "http://www.w3.org/Graphics/SVG/1.1/DTD/svg11.dtd">
<!-- Generated by graphviz version 2.43.0 (0)
 -->
<!-- Title: src/definition.h Pages: 1 -->
<svg width="754pt" height="302pt"
 viewBox="0.00 0.00 753.50 302.00" xmlns="http://www.w3.org/2000/svg" xmlns:xlink="http://www.w3.org/1999/xlink">
<g id="graph0" class="graph" transform="scale(1 1) rotate(0) translate(4 298)">
<title>src/definition.h</title>
<!-- Node1 -->
<g id="Node000001" class="node">
<title>Node1</title>
<g id="a_Node000001"><a xlink:title=" ">
<polygon fill="#999999" stroke="#666666" points="276,-294 187,-294 187,-275 276,-275 276,-294"/>
<text text-anchor="middle" x="231.5" y="-282" font-family="Helvetica,sans-Serif" font-size="10.00">src/definition.h</text>
</a>
</g>
</g>
<!-- Node2 -->
<g id="Node000002" class="node">
<title>Node2</title>
<g id="a_Node000002"><a xlink:title=" ">
<polygon fill="#e0e0e0" stroke="#999999" points="47,-129 0,-129 0,-110 47,-110 47,-129"/>
<text text-anchor="middle" x="23.5" y="-117" font-family="Helvetica,sans-Serif" font-size="10.00">vector</text>
</a>
</g>
</g>
<!-- Node1&#45;&gt;Node2 -->
<g id="edge1_Node000001_Node000002" class="edge">
<title>Node1&#45;&gt;Node2</title>
<g id="a_edge1_Node000001_Node000002"><a xlink:title=" ">
<path fill="none" stroke="#63b8ff" d="M218.85,-274.77C206.06,-265.9 185.77,-251.69 168.5,-239 136.05,-215.16 127.71,-209.45 96.5,-184 77.13,-168.2 55.62,-149.32 40.99,-136.27"/>
<polygon fill="#63b8ff" stroke="#63b8ff" points="43.03,-133.4 33.25,-129.33 38.36,-138.61 43.03,-133.4"/>
</a>
</g>
</g>
<!-- Node3 -->
<g id="Node000003" class="node">
<title>Node3</title>
<g id="a_Node000003"><a xlink:href="../../d9/d49/types_8h.html" target="_top" xlink:title="This file contains a number of basic enums and types.">
<polygon fill="white" stroke="#666666" points="402,-239 349,-239 349,-220 402,-220 402,-239"/>
<text text-anchor="middle" x="375.5" y="-227" font-family="Helvetica,sans-Serif" font-size="10.00">types.h</text>
</a>
</g>
</g>
<!-- Node1&#45;&gt;Node3 -->
<g id="edge2_Node000001_Node000003" class="edge">
<title>Node1&#45;&gt;Node3</title>
<g id="a_edge2_Node000001_Node000003"><a xlink:title=" ">
<path fill="none" stroke="#63b8ff" d="M254.64,-274.98C278.32,-266.27 315.37,-252.63 342.21,-242.75"/>
<polygon fill="#63b8ff" stroke="#63b8ff" points="343.77,-245.91 351.94,-239.17 341.35,-239.34 343.77,-245.91"/>
</a>
</g>
</g>
<!-- Node15 -->
<g id="Node000015" class="node">
<title>Node15</title>
<g id="a_Node000015"><a xlink:href="../../d1/d02/reflist_8h.html" target="_top" xlink:title=" ">
<polygon fill="white" stroke="#666666" points="231,-239 178,-239 178,-220 231,-220 231,-239"/>
<text text-anchor="middle" x="204.5" y="-227" font-family="Helvetica,sans-Serif" font-size="10.00">reflist.h</text>
</a>
</g>
</g>
<!-- Node1&#45;&gt;Node15 -->
<g id="edge16_Node000001_Node000015" class="edge">
<title>Node1&#45;&gt;Node15</title>
<g id="a_edge16_Node000001_Node000015"><a xlink:title=" ">
<path fill="none" stroke="#63b8ff" d="M227.04,-274.75C223.38,-267.57 218.09,-257.18 213.55,-248.27"/>
<polygon fill="#63b8ff" stroke="#63b8ff" points="216.53,-246.41 208.88,-239.09 210.3,-249.59 216.53,-246.41"/>
</a>
</g>
</g>
<!-- Node19 -->
<g id="Node000019" class="node">
<title>Node19</title>
<g id="a_Node000019"><a xlink:href="../../d7/dfc/construct_8h.html" target="_top" xlink:title=" ">
<polygon fill="white" stroke="#666666" points="371,-184 300,-184 300,-165 371,-165 371,-184"/>
<text text-anchor="middle" x="335.5" y="-172" font-family="Helvetica,sans-Serif" font-size="10.00">construct.h</text>
</a>
</g>
</g>
<!-- Node1&#45;&gt;Node19 -->
<g id="edge30_Node000001_Node000019" class="edge">
<title>Node1&#45;&gt;Node19</title>
<g id="a_edge30_Node000001_Node000019"><a xlink:title=" ">
<path fill="none" stroke="#63b8ff" d="M240.01,-274.66C257.54,-256.46 297.9,-214.55 320.12,-191.47"/>
<polygon fill="#63b8ff" stroke="#63b8ff" points="322.75,-193.79 327.16,-184.16 317.7,-188.93 322.75,-193.79"/>
</a>
</g>
</g>
<!-- Node4 -->
<g id="Node000004" class="node">
<title>Node4</title>
<g id="a_Node000004"><a xlink:href="../../d7/d5c/qcstring_8h.html" target="_top" xlink:title=" ">
<polygon fill="white" stroke="#666666" points="413,-129 348,-129 348,-110 413,-110 413,-129"/>
<text text-anchor="middle" x="380.5" y="-117" font-family="Helvetica,sans-Serif" font-size="10.00">qcstring.h</text>
</a>
</g>
</g>
<!-- Node3&#45;&gt;Node4 -->
<g id="edge3_Node000003_Node000004" class="edge">
<title>Node3&#45;&gt;Node4</title>
<g id="a_edge3_Node000003_Node000004"><a xlink:title=" ">
<path fill="none" stroke="#63b8ff" d="M376.74,-219.99C377.98,-211.05 379.8,-196.57 380.5,-184 381.34,-169 381.29,-151.97 381.05,-139.33"/>
<polygon fill="#63b8ff" stroke="#63b8ff" points="384.55,-139.05 380.81,-129.14 377.55,-139.22 384.55,-139.05"/>
</a>
</g>
</g>
<!-- Node5 -->
<g id="Node000005" class="node">
<title>Node5</title>
<g id="a_Node000005"><a xlink:title=" ">
<polygon fill="#e0e0e0" stroke="#999999" points="745.5,-19 701.5,-19 701.5,0 745.5,0 745.5,-19"/>
<text text-anchor="middle" x="723.5" y="-7" font-family="Helvetica,sans-Serif" font-size="10.00">string</text>
</a>
</g>
</g>
<!-- Node4&#45;&gt;Node5 -->
<g id="edge4_Node000004_Node000005" class="edge">
<title>Node4&#45;&gt;Node5</title>
<g id="a_edge4_Node000004_Node000005"><a xlink:title=" ">
<path fill="none" stroke="#63b8ff" d="M413.21,-118.36C486.58,-117.37 661.22,-111.07 704.5,-74 717.33,-63.01 721.69,-43.75 723.08,-29.32"/>
<polygon fill="#63b8ff" stroke="#63b8ff" points="726.59,-29.21 723.66,-19.02 719.6,-28.81 726.59,-29.21"/>
</a>
</g>
</g>
<!-- Node6 -->
<g id="Node000006" class="node">
<title>Node6</title>
<g id="a_Node000006"><a xlink:title=" ">
<polygon fill="#e0e0e0" stroke="#999999" points="563,-74 490,-74 490,-55 563,-55 563,-74"/>
<text text-anchor="middle" x="526.5" y="-62" font-family="Helvetica,sans-Serif" font-size="10.00">string_view</text>
</a>
</g>
</g>
<!-- Node4&#45;&gt;Node6 -->
<g id="edge5_Node000004_Node000006" class="edge">
<title>Node4&#45;&gt;Node6</title>
<g id="a_edge5_Node000004_Node000006"><a xlink:title=" ">
<path fill="none" stroke="#63b8ff" d="M403.96,-109.98C428.08,-101.23 465.87,-87.51 493.1,-77.62"/>
<polygon fill="#63b8ff" stroke="#63b8ff" points="494.41,-80.87 502.62,-74.17 492.02,-74.29 494.41,-80.87"/>
</a>
</g>
</g>
<!-- Node7 -->
<g id="Node000007" class="node">
<title>Node7</title>
<g id="a_Node000007"><a xlink:title=" ">
<polygon fill="#e0e0e0" stroke="#999999" points="228.5,-74 164.5,-74 164.5,-55 228.5,-55 228.5,-74"/>
<text text-anchor="middle" x="196.5" y="-62" font-family="Helvetica,sans-Serif" font-size="10.00">algorithm</text>
</a>
</g>
</g>
<!-- Node4&#45;&gt;Node7 -->
<g id="edge6_Node000004_Node000007" class="edge">
<title>Node4&#45;&gt;Node7</title>
<g id="a_edge6_Node000004_Node000007"><a xlink:title=" ">
<path fill="none" stroke="#63b8ff" d="M350.94,-109.98C319.78,-101.01 270.53,-86.82 236.04,-76.89"/>
<polygon fill="#63b8ff" stroke="#63b8ff" points="236.87,-73.49 226.29,-74.08 234.93,-80.21 236.87,-73.49"/>
</a>
</g>
</g>
<!-- Node8 -->
<g id="Node000008" class="node">
<title>Node8</title>
<g id="a_Node000008"><a xlink:title=" ">
<polygon fill="#e0e0e0" stroke="#999999" points="146,-74 97,-74 97,-55 146,-55 146,-74"/>
<text text-anchor="middle" x="121.5" y="-62" font-family="Helvetica,sans-Serif" font-size="10.00">cctype</text>
</a>
</g>
</g>
<!-- Node4&#45;&gt;Node8 -->
<g id="edge7_Node000004_Node000008" class="edge">
<title>Node4&#45;&gt;Node8</title>
<g id="a_edge7_Node000004_Node000008"><a xlink:title=" ">
<path fill="none" stroke="#63b8ff" d="M347.98,-112.59C306.02,-104.86 230.54,-90.56 156.33,-74.09"/>
<polygon fill="#63b8ff" stroke="#63b8ff" points="156.87,-70.63 146.35,-71.86 155.35,-77.46 156.87,-70.63"/>
</a>
</g>
</g>
<!-- Node9 -->
<g id="Node000009" class="node">
<title>Node9</title>
<g id="a_Node000009"><a xlink:title=" ">
<polygon fill="#e0e0e0" stroke="#999999" points="631.5,-74 581.5,-74 581.5,-55 631.5,-55 631.5,-74"/>
<text text-anchor="middle" x="606.5" y="-62" font-family="Helvetica,sans-Serif" font-size="10.00">cstring</text>
</a>
</g>
</g>
<!-- Node4&#45;&gt;Node9 -->
<g id="edge8_Node000004_Node000009" class="edge">
<title>Node4&#45;&gt;Node9</title>
<g id="a_edge8_Node000004_Node000009"><a xlink:title=" ">
<path fill="none" stroke="#63b8ff" d="M413.15,-111.11C449.45,-102.86 510.06,-88.96 571.41,-74.23"/>
<polygon fill="#63b8ff" stroke="#63b8ff" points="572.36,-77.6 581.26,-71.86 570.72,-70.8 572.36,-77.6"/>
</a>
</g>
</g>
<!-- Node10 -->
<g id="Node000010" class="node">
<title>Node10</title>
<g id="a_Node000010"><a xlink:title=" ">
<polygon fill="#e0e0e0" stroke="#999999" points="695.5,-74 649.5,-74 649.5,-55 695.5,-55 695.5,-74"/>
<text text-anchor="middle" x="672.5" y="-62" font-family="Helvetica,sans-Serif" font-size="10.00">cstdio</text>
</a>
</g>
</g>
<!-- Node4&#45;&gt;Node10 -->
<g id="edge9_Node000004_Node000010" class="edge">
<title>Node4&#45;&gt;Node10</title>
<g id="a_edge9_Node000004_Node000010"><a xlink:title=" ">
<path fill="none" stroke="#63b8ff" d="M413.11,-113.88C460.75,-106.93 552.36,-92.77 639.69,-74.01"/>
<polygon fill="#63b8ff" stroke="#63b8ff" points="640.46,-77.42 649.49,-71.88 638.97,-70.58 640.46,-77.42"/>
</a>
</g>
</g>
<!-- Node11 -->
<g id="Node000011" class="node">
<title>Node11</title>
<g id="a_Node000011"><a xlink:title=" ">
<polygon fill="#e0e0e0" stroke="#999999" points="334,-74 285,-74 285,-55 334,-55 334,-74"/>
<text text-anchor="middle" x="309.5" y="-62" font-family="Helvetica,sans-Serif" font-size="10.00">cstdlib</text>
</a>
</g>
</g>
<!-- Node4&#45;&gt;Node11 -->
<g id="edge10_Node000004_Node000011" class="edge">
<title>Node4&#45;&gt;Node11</title>
<g id="a_edge10_Node000004_Node000011"><a xlink:title=" ">
<path fill="none" stroke="#63b8ff" d="M369.09,-109.98C358.39,-102 342.16,-89.88 329.34,-80.31"/>
<polygon fill="#63b8ff" stroke="#63b8ff" points="331.22,-77.35 321.11,-74.17 327.03,-82.96 331.22,-77.35"/>
</a>
</g>
</g>
<!-- Node12 -->
<g id="Node000012" class="node">
<title>Node12</title>
<g id="a_Node000012"><a xlink:title=" ">
<polygon fill="#e0e0e0" stroke="#999999" points="378.5,-19 328.5,-19 328.5,0 378.5,0 378.5,-19"/>
<text text-anchor="middle" x="353.5" y="-7" font-family="Helvetica,sans-Serif" font-size="10.00">cstdint</text>
</a>
</g>
</g>
<!-- Node4&#45;&gt;Node12 -->
<g id="edge11_Node000004_Node000012" class="edge">
<title>Node4&#45;&gt;Node12</title>
<g id="a_edge11_Node000004_Node000012"><a xlink:title=" ">
<path fill="none" stroke="#63b8ff" d="M347.84,-114.26C323.37,-109.18 291.46,-98.1 275.5,-74 260.67,-51.6 291.84,-33.19 319.07,-22.06"/>
<polygon fill="#63b8ff" stroke="#63b8ff" points="320.39,-25.3 328.46,-18.44 317.87,-18.77 320.39,-25.3"/>
</a>
</g>
</g>
<!-- Node13 -->
<g id="Node000013" class="node">
<title>Node13</title>
<g id="a_Node000013"><a xlink:title=" ">
<polygon fill="#e0e0e0" stroke="#999999" points="409,-74 352,-74 352,-55 409,-55 409,-74"/>
<text text-anchor="middle" x="380.5" y="-62" font-family="Helvetica,sans-Serif" font-size="10.00">ostream</text>
</a>
</g>
</g>
<!-- Node4&#45;&gt;Node13 -->
<g id="edge12_Node000004_Node000013" class="edge">
<title>Node4&#45;&gt;Node13</title>
<g id="a_edge12_Node000004_Node000013"><a xlink:title=" ">
<path fill="none" stroke="#63b8ff" d="M380.5,-109.75C380.5,-102.8 380.5,-92.85 380.5,-84.13"/>
<polygon fill="#63b8ff" stroke="#63b8ff" points="384,-84.09 380.5,-74.09 377,-84.09 384,-84.09"/>
</a>
</g>
</g>
<!-- Node14 -->
<g id="Node000014" class="node">
<title>Node14</title>
<g id="a_Node000014"><a xlink:href="../../db/d7c/utf8_8h.html" target="_top" xlink:title="Various UTF8 related helper functions.">
<polygon fill="white" stroke="#666666" points="472,-74 427,-74 427,-55 472,-55 472,-74"/>
<text text-anchor="middle" x="449.5" y="-62" font-family="Helvetica,sans-Serif" font-size="10.00">utf8.h</text>
</a>
</g>
</g>
<!-- Node4&#45;&gt;Node14 -->
<g id="edge13_Node000004_Node000014" class="edge">
<title>Node4&#45;&gt;Node14</title>
<g id="a_edge13_Node000004_Node000014"><a xlink:title=" ">
<path fill="none" stroke="#63b8ff" d="M391.59,-109.98C401.99,-102 417.76,-89.88 430.22,-80.31"/>
<polygon fill="#63b8ff" stroke="#63b8ff" points="432.41,-83.04 438.21,-74.17 428.15,-77.49 432.41,-83.04"/>
</a>
</g>
</g>
<!-- Node14&#45;&gt;Node5 -->
<g id="edge15_Node000014_Node000005" class="edge">
<title>Node14&#45;&gt;Node5</title>
<g id="a_edge15_Node000014_Node000005"><a xlink:title=" ">
<path fill="none" stroke="#63b8ff" d="M472.17,-57.24C475.3,-56.45 478.47,-55.68 481.5,-55 556.13,-38.25 644.75,-23.16 691.28,-15.61"/>
<polygon fill="#63b8ff" stroke="#63b8ff" points="692.05,-19.03 701.36,-13.98 690.93,-12.12 692.05,-19.03"/>
</a>
</g>
</g>
<!-- Node14&#45;&gt;Node12 -->
<g id="edge14_Node000014_Node000012" class="edge">
<title>Node14&#45;&gt;Node12</title>
<g id="a_edge14_Node000014_Node000012"><a xlink:title=" ">
<path fill="none" stroke="#63b8ff" d="M434.08,-54.98C419.05,-46.69 395.96,-33.94 378.34,-24.22"/>
<polygon fill="#63b8ff" stroke="#63b8ff" points="379.65,-20.94 369.2,-19.17 376.27,-27.07 379.65,-20.94"/>
</a>
</g>
</g>
<!-- Node15&#45;&gt;Node2 -->
<g id="edge17_Node000015_Node000002" class="edge">
<title>Node15&#45;&gt;Node2</title>
<g id="a_edge17_Node000015_Node000002"><a xlink:title=" ">
<path fill="none" stroke="#63b8ff" d="M190.11,-219.99C175.01,-211.04 150.57,-196.56 129.5,-184 100.93,-166.97 68.08,-147.27 46.62,-134.39"/>
<polygon fill="#63b8ff" stroke="#63b8ff" points="48.27,-131.29 37.89,-129.15 44.66,-137.3 48.27,-131.29"/>
</a>
</g>
</g>
<!-- Node15&#45;&gt;Node4 -->
<g id="edge20_Node000015_Node000004" class="edge">
<title>Node15&#45;&gt;Node4</title>
<g id="a_edge20_Node000015_Node000004"><a xlink:title=" ">
<path fill="none" stroke="#63b8ff" d="M214.93,-219.85C230.7,-206.99 261.82,-182.49 290.5,-165 310.09,-153.05 333.33,-141.63 351.28,-133.35"/>
<polygon fill="#63b8ff" stroke="#63b8ff" points="353,-136.41 360.66,-129.08 350.11,-130.04 353,-136.41"/>
</a>
</g>
</g>
<!-- Node16 -->
<g id="Node000016" class="node">
<title>Node16</title>
<g id="a_Node000016"><a xlink:title=" ">
<polygon fill="#e0e0e0" stroke="#999999" points="235,-129 142,-129 142,-110 235,-110 235,-129"/>
<text text-anchor="middle" x="188.5" y="-117" font-family="Helvetica,sans-Serif" font-size="10.00">unordered_map</text>
</a>
</g>
</g>
<!-- Node15&#45;&gt;Node16 -->
<g id="edge18_Node000015_Node000016" class="edge">
<title>Node15&#45;&gt;Node16</title>
<g id="a_edge18_Node000015_Node000016"><a xlink:title=" ">
<path fill="none" stroke="#63b8ff" d="M190.13,-219.96C178.63,-212.21 163.32,-199.62 156.5,-184 149.37,-167.67 160.46,-149.56 171.49,-136.87"/>
<polygon fill="#63b8ff" stroke="#63b8ff" points="174.22,-139.07 178.53,-129.39 169.13,-134.27 174.22,-139.07"/>
</a>
</g>
</g>
<!-- Node17 -->
<g id="Node000017" class="node">
<title>Node17</title>
<g id="a_Node000017"><a xlink:title=" ">
<polygon fill="#e0e0e0" stroke="#999999" points="123.5,-129 65.5,-129 65.5,-110 123.5,-110 123.5,-129"/>
<text text-anchor="middle" x="94.5" y="-117" font-family="Helvetica,sans-Serif" font-size="10.00">memory</text>
</a>
</g>
</g>
<!-- Node15&#45;&gt;Node17 -->
<g id="edge19_Node000015_Node000017" class="edge">
<title>Node15&#45;&gt;Node17</title>
<g id="a_edge19_Node000015_Node000017"><a xlink:title=" ">
<path fill="none" stroke="#63b8ff" d="M192.88,-219.8C181.63,-211.17 164.3,-197.34 150.5,-184 134.9,-168.91 118.66,-150.1 107.72,-136.89"/>
<polygon fill="#63b8ff" stroke="#63b8ff" points="110.39,-134.63 101.35,-129.1 104.97,-139.06 110.39,-134.63"/>
</a>
</g>
</g>
<!-- Node18 -->
<g id="Node000018" class="node">
<title>Node18</title>
<g id="a_Node000018"><a xlink:href="../../da/de1/linkedmap_8h.html" target="_top" xlink:title=" ">
<polygon fill="white" stroke="#666666" points="243,-184 166,-184 166,-165 243,-165 243,-184"/>
<text text-anchor="middle" x="204.5" y="-172" font-family="Helvetica,sans-Serif" font-size="10.00">linkedmap.h</text>
</a>
</g>
</g>
<!-- Node15&#45;&gt;Node18 -->
<g id="edge21_Node000015_Node000018" class="edge">
<title>Node15&#45;&gt;Node18</title>
<g id="a_edge21_Node000015_Node000018"><a xlink:title=" ">
<path fill="none" stroke="#63b8ff" d="M204.5,-219.75C204.5,-212.8 204.5,-202.85 204.5,-194.13"/>
<polygon fill="#63b8ff" stroke="#63b8ff" points="208,-194.09 204.5,-184.09 201,-194.09 208,-194.09"/>
</a>
</g>
</g>
<!-- Node15&#45;&gt;Node19 -->
<g id="edge29_Node000015_Node000019" class="edge">
<title>Node15&#45;&gt;Node19</title>
<g id="a_edge29_Node000015_Node000019"><a xlink:title=" ">
<path fill="none" stroke="#63b8ff" d="M225.55,-219.98C246.91,-211.34 280.2,-197.87 304.56,-188.02"/>
<polygon fill="#63b8ff" stroke="#63b8ff" points="306.11,-191.17 314.07,-184.17 303.49,-184.68 306.11,-191.17"/>
</a>
</g>
</g>
<!-- Node18&#45;&gt;Node2 -->
<g id="edge23_Node000018_Node000002" class="edge">
<title>Node18&#45;&gt;Node2</title>
<g id="a_edge23_Node000018_Node000002"><a xlink:title=" ">
<path fill="none" stroke="#63b8ff" d="M175.42,-164.98C143.09,-155.52 90.96,-140.25 56.96,-130.3"/>
<polygon fill="#63b8ff" stroke="#63b8ff" points="57.61,-126.84 47.03,-127.39 55.64,-133.56 57.61,-126.84"/>
</a>
</g>
</g>
<!-- Node18&#45;&gt;Node4 -->
<g id="edge28_Node000018_Node000004" class="edge">
<title>Node18&#45;&gt;Node4</title>
<g id="a_edge28_Node000018_Node000004"><a xlink:title=" ">
<path fill="none" stroke="#63b8ff" d="M232.78,-164.98C262.45,-156.05 309.29,-141.94 342.25,-132.02"/>
<polygon fill="#63b8ff" stroke="#63b8ff" points="343.43,-135.32 352,-129.08 341.42,-128.61 343.43,-135.32"/>
</a>
</g>
</g>
<!-- Node18&#45;&gt;Node5 -->
<g id="edge25_Node000018_Node000005" class="edge">
<title>Node18&#45;&gt;Node5</title>
<g id="a_edge25_Node000018_Node000005"><a xlink:title=" ">
<path fill="none" stroke="#63b8ff" d="M243.37,-168.92C358.8,-154.94 693.53,-111.46 724.5,-74 734.7,-61.66 733.01,-42.89 729.63,-28.96"/>
<polygon fill="#63b8ff" stroke="#63b8ff" points="732.9,-27.67 726.76,-19.03 726.18,-29.61 732.9,-27.67"/>
</a>
</g>
</g>
<!-- Node18&#45;&gt;Node7 -->
<g id="edge26_Node000018_Node000007" class="edge">
<title>Node18&#45;&gt;Node7</title>
<g id="a_edge26_Node000018_Node000007"><a xlink:title=" ">
<path fill="none" stroke="#63b8ff" d="M229.07,-164.95C255.51,-154.28 291.95,-134.43 277.5,-110 268.64,-95.02 252.74,-84.74 237.36,-77.88"/>
<polygon fill="#63b8ff" stroke="#63b8ff" points="238.5,-74.56 227.92,-74.03 235.86,-81.04 238.5,-74.56"/>
</a>
</g>
</g>
<!-- Node18&#45;&gt;Node8 -->
<g id="edge27_Node000018_Node000008" class="edge">
<title>Node18&#45;&gt;Node8</title>
<g id="a_edge27_Node000018_Node000008"><a xlink:title=" ">
<path fill="none" stroke="#63b8ff" d="M216.57,-164.87C232.42,-152.46 256.78,-128.97 243.5,-110 238.22,-102.46 189.99,-86.42 155.78,-75.8"/>
<polygon fill="#63b8ff" stroke="#63b8ff" points="156.71,-72.42 146.12,-72.83 154.65,-79.11 156.71,-72.42"/>
</a>
</g>
</g>
<!-- Node18&#45;&gt;Node16 -->
<g id="edge22_Node000018_Node000016" class="edge">
<title>Node18&#45;&gt;Node16</title>
<g id="a_edge22_Node000018_Node000016"><a xlink:title=" ">
<path fill="none" stroke="#63b8ff" d="M201.86,-164.75C199.74,-157.72 196.69,-147.62 194.04,-138.84"/>
<polygon fill="#63b8ff" stroke="#63b8ff" points="197.33,-137.65 191.09,-129.09 190.63,-139.67 197.33,-137.65"/>
</a>
</g>
</g>
<!-- Node18&#45;&gt;Node17 -->
<g id="edge24_Node000018_Node000017" class="edge">
<title>Node18&#45;&gt;Node17</title>
<g id="a_edge24_Node000018_Node000017"><a xlink:title=" ">
<path fill="none" stroke="#63b8ff" d="M186.83,-164.98C169.21,-156.5 141.92,-143.35 121.57,-133.54"/>
<polygon fill="#63b8ff" stroke="#63b8ff" points="123.02,-130.36 112.49,-129.17 119.98,-136.66 123.02,-130.36"/>
</a>
</g>
</g>
</g>
</svg>
