<?xml version="1.0" encoding="UTF-8" standalone="no"?>
<!DOCTYPE svg PUBLIC "-//W3C//DTD SVG 1.1//EN"
 "http://www.w3.org/Graphics/SVG/1.1/DTD/svg11.dtd">
<!-- Generated by graphviz version 2.43.0 (0)
 -->
<!-- Title: TranslatorAdapter_1_8_4 Pages: 1 -->
<svg width="3008pt" height="433pt"
 viewBox="0.00 0.00 3008.00 433.00" xmlns="http://www.w3.org/2000/svg" xmlns:xlink="http://www.w3.org/1999/xlink">
<g id="graph0" class="graph" transform="scale(1 1) rotate(0) translate(4 429)">
<title>TranslatorAdapter_1_8_4</title>
<!-- Node1 -->
<g id="Node000001" class="node">
<title>Node1</title>
<g id="a_Node000001"><a xlink:title=" ">
<polygon fill="#999999" stroke="#666666" points="1982,-74 1845,-74 1845,-55 1982,-55 1982,-74"/>
<text text-anchor="middle" x="1913.5" y="-62" font-family="Helvetica,sans-Serif" font-size="10.00">TranslatorAdapter_1_8_4</text>
</a>
</g>
</g>
<!-- Node13 -->
<g id="Node000013" class="node">
<title>Node13</title>
<g id="a_Node000013"><a xlink:href="../../d2/d75/class_translator_adapter__1__8__2.html" target="_top" xlink:title=" ">
<polygon fill="white" stroke="#666666" points="2155,-130 2018,-130 2018,-111 2155,-111 2155,-130"/>
<text text-anchor="middle" x="2086.5" y="-118" font-family="Helvetica,sans-Serif" font-size="10.00">TranslatorAdapter_1_8_2</text>
</a>
</g>
</g>
<!-- Node1&#45;&gt;Node13 -->
<g id="edge12_Node000001_Node000013" class="edge">
<title>Node1&#45;&gt;Node13</title>
<g id="a_edge12_Node000001_Node000013"><a xlink:title=" ">
<path fill="none" stroke="#63b8ff" d="M1949.45,-77.67C1969.42,-85.03 1994.98,-94.16 2018,-101.5 2028.32,-104.79 2039.63,-108.09 2049.98,-111"/>
<polygon fill="#63b8ff" stroke="#63b8ff" points="1950.45,-74.31 1939.85,-74.12 1948.01,-80.87 1950.45,-74.31"/>
</a>
</g>
</g>
<!-- Node35 -->
<g id="Node000035" class="node">
<title>Node35</title>
<g id="a_Node000035"><a xlink:href="../../d2/d07/class_translator_esperanto.html" target="_top" xlink:title=" ">
<polygon fill="white" stroke="#666666" points="2143,-93 2030,-93 2030,-74 2143,-74 2143,-93"/>
<text text-anchor="middle" x="2086.5" y="-81" font-family="Helvetica,sans-Serif" font-size="10.00">TranslatorEsperanto</text>
</a>
</g>
</g>
<!-- Node1&#45;&gt;Node35 -->
<g id="edge34_Node000001_Node000035" class="edge">
<title>Node1&#45;&gt;Node35</title>
<g id="a_edge34_Node000001_Node000035"><a xlink:title=" ">
<path fill="none" stroke="#63b8ff" d="M1992.22,-73.14C2004.95,-74.55 2017.91,-75.99 2029.96,-77.33"/>
<polygon fill="#63b8ff" stroke="#63b8ff" points="1992.41,-69.64 1982.08,-72.01 1991.64,-76.59 1992.41,-69.64"/>
</a>
</g>
</g>
<!-- Node36 -->
<g id="Node000036" class="node">
<title>Node36</title>
<g id="a_Node000036"><a xlink:href="../../d8/d83/class_translator_latvian.html" target="_top" xlink:title=" ">
<polygon fill="white" stroke="#666666" points="2137,-56 2036,-56 2036,-37 2137,-37 2137,-56"/>
<text text-anchor="middle" x="2086.5" y="-44" font-family="Helvetica,sans-Serif" font-size="10.00">TranslatorLatvian</text>
</a>
</g>
</g>
<!-- Node1&#45;&gt;Node36 -->
<g id="edge35_Node000001_Node000036" class="edge">
<title>Node1&#45;&gt;Node36</title>
<g id="a_edge35_Node000001_Node000036"><a xlink:title=" ">
<path fill="none" stroke="#63b8ff" d="M1992.26,-56.31C2007.06,-54.76 2022.18,-53.17 2035.81,-51.73"/>
<polygon fill="#63b8ff" stroke="#63b8ff" points="1991.66,-52.86 1982.08,-57.39 1992.4,-59.82 1991.66,-52.86"/>
</a>
</g>
</g>
<!-- Node37 -->
<g id="Node000037" class="node">
<title>Node37</title>
<g id="a_Node000037"><a xlink:href="../../d1/d56/class_translator_ukrainian.html" target="_top" xlink:title=" ">
<polygon fill="white" stroke="#666666" points="2142.5,-19 2030.5,-19 2030.5,0 2142.5,0 2142.5,-19"/>
<text text-anchor="middle" x="2086.5" y="-7" font-family="Helvetica,sans-Serif" font-size="10.00">TranslatorUkrainian</text>
</a>
</g>
</g>
<!-- Node1&#45;&gt;Node37 -->
<g id="edge36_Node000001_Node000037" class="edge">
<title>Node1&#45;&gt;Node37</title>
<g id="a_edge36_Node000001_Node000037"><a xlink:title=" ">
<path fill="none" stroke="#63b8ff" d="M1949.01,-51.35C1969.02,-43.94 1994.78,-34.73 2018,-27.5 2027.5,-24.54 2037.83,-21.63 2047.5,-19.04"/>
<polygon fill="#63b8ff" stroke="#63b8ff" points="1947.55,-48.17 1939.4,-54.94 1949.99,-54.72 1947.55,-48.17"/>
</a>
</g>
</g>
<!-- Node2 -->
<g id="Node000002" class="node">
<title>Node2</title>
<g id="a_Node000002"><a xlink:href="../../d4/d2e/class_translator_adapter__1__8__15.html" target="_top" xlink:title=" ">
<polygon fill="white" stroke="#666666" points="1809,-74 1666,-74 1666,-55 1809,-55 1809,-74"/>
<text text-anchor="middle" x="1737.5" y="-62" font-family="Helvetica,sans-Serif" font-size="10.00">TranslatorAdapter_1_8_15</text>
</a>
</g>
</g>
<!-- Node2&#45;&gt;Node1 -->
<g id="edge1_Node000001_Node000002" class="edge">
<title>Node2&#45;&gt;Node1</title>
<g id="a_edge1_Node000001_Node000002"><a xlink:title=" ">
<path fill="none" stroke="#63b8ff" d="M1819.12,-64.5C1827.77,-64.5 1836.5,-64.5 1844.98,-64.5"/>
<polygon fill="#63b8ff" stroke="#63b8ff" points="1819.02,-61 1809.02,-64.5 1819.02,-68 1819.02,-61"/>
</a>
</g>
</g>
<!-- Node3 -->
<g id="Node000003" class="node">
<title>Node3</title>
<g id="a_Node000003"><a xlink:href="../../de/dde/class_translator_adapter__1__8__19.html" target="_top" xlink:title=" ">
<polygon fill="white" stroke="#666666" points="1630,-74 1487,-74 1487,-55 1630,-55 1630,-74"/>
<text text-anchor="middle" x="1558.5" y="-62" font-family="Helvetica,sans-Serif" font-size="10.00">TranslatorAdapter_1_8_19</text>
</a>
</g>
</g>
<!-- Node3&#45;&gt;Node2 -->
<g id="edge2_Node000002_Node000003" class="edge">
<title>Node3&#45;&gt;Node2</title>
<g id="a_edge2_Node000002_Node000003"><a xlink:title=" ">
<path fill="none" stroke="#63b8ff" d="M1640.49,-64.5C1648.97,-64.5 1657.54,-64.5 1665.89,-64.5"/>
<polygon fill="#63b8ff" stroke="#63b8ff" points="1640.22,-61 1630.22,-64.5 1640.22,-68 1640.22,-61"/>
</a>
</g>
</g>
<!-- Node4 -->
<g id="Node000004" class="node">
<title>Node4</title>
<g id="a_Node000004"><a xlink:href="../../d3/d2e/class_translator_adapter__1__9__2.html" target="_top" xlink:title=" ">
<polygon fill="white" stroke="#666666" points="1451,-74 1314,-74 1314,-55 1451,-55 1451,-74"/>
<text text-anchor="middle" x="1382.5" y="-62" font-family="Helvetica,sans-Serif" font-size="10.00">TranslatorAdapter_1_9_2</text>
</a>
</g>
</g>
<!-- Node4&#45;&gt;Node3 -->
<g id="edge3_Node000003_Node000004" class="edge">
<title>Node4&#45;&gt;Node3</title>
<g id="a_edge3_Node000003_Node000004"><a xlink:title=" ">
<path fill="none" stroke="#63b8ff" d="M1461.47,-64.5C1469.89,-64.5 1478.42,-64.5 1486.75,-64.5"/>
<polygon fill="#63b8ff" stroke="#63b8ff" points="1461.27,-61 1451.27,-64.5 1461.27,-68 1461.27,-61"/>
</a>
</g>
</g>
<!-- Node5 -->
<g id="Node000005" class="node">
<title>Node5</title>
<g id="a_Node000005"><a xlink:href="../../d0/d33/class_translator_adapter__1__9__4.html" target="_top" xlink:title=" ">
<polygon fill="white" stroke="#666666" points="1278,-74 1141,-74 1141,-55 1278,-55 1278,-74"/>
<text text-anchor="middle" x="1209.5" y="-62" font-family="Helvetica,sans-Serif" font-size="10.00">TranslatorAdapter_1_9_4</text>
</a>
</g>
</g>
<!-- Node5&#45;&gt;Node4 -->
<g id="edge4_Node000004_Node000005" class="edge">
<title>Node5&#45;&gt;Node4</title>
<g id="a_edge4_Node000004_Node000005"><a xlink:title=" ">
<path fill="none" stroke="#63b8ff" d="M1288.1,-64.5C1296.69,-64.5 1305.39,-64.5 1313.85,-64.5"/>
<polygon fill="#63b8ff" stroke="#63b8ff" points="1288.08,-61 1278.08,-64.5 1288.08,-68 1288.08,-61"/>
</a>
</g>
</g>
<!-- Node6 -->
<g id="Node000006" class="node">
<title>Node6</title>
<g id="a_Node000006"><a xlink:href="../../dd/dba/class_translator_adapter__1__9__5.html" target="_top" xlink:title=" ">
<polygon fill="white" stroke="#666666" points="1105,-74 968,-74 968,-55 1105,-55 1105,-74"/>
<text text-anchor="middle" x="1036.5" y="-62" font-family="Helvetica,sans-Serif" font-size="10.00">TranslatorAdapter_1_9_5</text>
</a>
</g>
</g>
<!-- Node6&#45;&gt;Node5 -->
<g id="edge5_Node000005_Node000006" class="edge">
<title>Node6&#45;&gt;Node5</title>
<g id="a_edge5_Node000005_Node000006"><a xlink:title=" ">
<path fill="none" stroke="#63b8ff" d="M1115.1,-64.5C1123.69,-64.5 1132.39,-64.5 1140.85,-64.5"/>
<polygon fill="#63b8ff" stroke="#63b8ff" points="1115.08,-61 1105.08,-64.5 1115.08,-68 1115.08,-61"/>
</a>
</g>
</g>
<!-- Node7 -->
<g id="Node000007" class="node">
<title>Node7</title>
<g id="a_Node000007"><a xlink:href="../../db/d71/class_translator_adapter__1__9__6.html" target="_top" xlink:title=" ">
<polygon fill="white" stroke="#666666" points="932,-74 795,-74 795,-55 932,-55 932,-74"/>
<text text-anchor="middle" x="863.5" y="-62" font-family="Helvetica,sans-Serif" font-size="10.00">TranslatorAdapter_1_9_6</text>
</a>
</g>
</g>
<!-- Node7&#45;&gt;Node6 -->
<g id="edge6_Node000006_Node000007" class="edge">
<title>Node7&#45;&gt;Node6</title>
<g id="a_edge6_Node000006_Node000007"><a xlink:title=" ">
<path fill="none" stroke="#63b8ff" d="M942.1,-64.5C950.69,-64.5 959.39,-64.5 967.85,-64.5"/>
<polygon fill="#63b8ff" stroke="#63b8ff" points="942.08,-61 932.08,-64.5 942.08,-68 942.08,-61"/>
</a>
</g>
</g>
<!-- Node8 -->
<g id="Node000008" class="node">
<title>Node8</title>
<g id="a_Node000008"><a xlink:href="../../d7/d9d/class_translator_adapter__1__9__8.html" target="_top" xlink:title=" ">
<polygon fill="white" stroke="#666666" points="759,-74 622,-74 622,-55 759,-55 759,-74"/>
<text text-anchor="middle" x="690.5" y="-62" font-family="Helvetica,sans-Serif" font-size="10.00">TranslatorAdapter_1_9_8</text>
</a>
</g>
</g>
<!-- Node8&#45;&gt;Node7 -->
<g id="edge7_Node000007_Node000008" class="edge">
<title>Node8&#45;&gt;Node7</title>
<g id="a_edge7_Node000007_Node000008"><a xlink:title=" ">
<path fill="none" stroke="#63b8ff" d="M769.1,-64.5C777.69,-64.5 786.39,-64.5 794.85,-64.5"/>
<polygon fill="#63b8ff" stroke="#63b8ff" points="769.08,-61 759.08,-64.5 769.08,-68 769.08,-61"/>
</a>
</g>
</g>
<!-- Node9 -->
<g id="Node000009" class="node">
<title>Node9</title>
<g id="a_Node000009"><a xlink:href="../../de/d34/class_translator_adapter__1__10__0.html" target="_top" xlink:title=" ">
<polygon fill="white" stroke="#666666" points="586,-74 443,-74 443,-55 586,-55 586,-74"/>
<text text-anchor="middle" x="514.5" y="-62" font-family="Helvetica,sans-Serif" font-size="10.00">TranslatorAdapter_1_10_0</text>
</a>
</g>
</g>
<!-- Node9&#45;&gt;Node8 -->
<g id="edge8_Node000008_Node000009" class="edge">
<title>Node9&#45;&gt;Node8</title>
<g id="a_edge8_Node000008_Node000009"><a xlink:title=" ">
<path fill="none" stroke="#63b8ff" d="M596.12,-64.5C604.77,-64.5 613.5,-64.5 621.98,-64.5"/>
<polygon fill="#63b8ff" stroke="#63b8ff" points="596.02,-61 586.02,-64.5 596.02,-68 596.02,-61"/>
</a>
</g>
</g>
<!-- Node10 -->
<g id="Node000010" class="node">
<title>Node10</title>
<g id="a_Node000010"><a xlink:href="../../d8/d55/class_translator_adapter__1__11__0.html" target="_top" xlink:title=" ">
<polygon fill="white" stroke="#666666" points="407,-74 264,-74 264,-55 407,-55 407,-74"/>
<text text-anchor="middle" x="335.5" y="-62" font-family="Helvetica,sans-Serif" font-size="10.00">TranslatorAdapter_1_11_0</text>
</a>
</g>
</g>
<!-- Node10&#45;&gt;Node9 -->
<g id="edge9_Node000009_Node000010" class="edge">
<title>Node10&#45;&gt;Node9</title>
<g id="a_edge9_Node000009_Node000010"><a xlink:title=" ">
<path fill="none" stroke="#63b8ff" d="M417.49,-64.5C425.97,-64.5 434.54,-64.5 442.89,-64.5"/>
<polygon fill="#63b8ff" stroke="#63b8ff" points="417.22,-61 407.22,-64.5 417.22,-68 417.22,-61"/>
</a>
</g>
</g>
<!-- Node11 -->
<g id="Node000011" class="node">
<title>Node11</title>
<g id="a_Node000011"><a xlink:href="../../db/d6c/class_translator_adapter_base.html" target="_top" xlink:title="Base of the translator adapter tree.">
<polygon fill="white" stroke="#666666" points="228,-74 101,-74 101,-55 228,-55 228,-74"/>
<text text-anchor="middle" x="164.5" y="-62" font-family="Helvetica,sans-Serif" font-size="10.00">TranslatorAdapterBase</text>
</a>
</g>
</g>
<!-- Node11&#45;&gt;Node10 -->
<g id="edge10_Node000010_Node000011" class="edge">
<title>Node11&#45;&gt;Node10</title>
<g id="a_edge10_Node000010_Node000011"><a xlink:title=" ">
<path fill="none" stroke="#63b8ff" d="M238.56,-64.5C246.95,-64.5 255.49,-64.5 263.84,-64.5"/>
<polygon fill="#63b8ff" stroke="#63b8ff" points="238.43,-61 228.43,-64.5 238.43,-68 238.43,-61"/>
</a>
</g>
</g>
<!-- Node12 -->
<g id="Node000012" class="node">
<title>Node12</title>
<g id="a_Node000012"><a xlink:href="../../d8/dfb/class_translator.html" target="_top" xlink:title="Abstract base class for all translatable text fragments.">
<polygon fill="white" stroke="#666666" points="65,-74 0,-74 0,-55 65,-55 65,-74"/>
<text text-anchor="middle" x="32.5" y="-62" font-family="Helvetica,sans-Serif" font-size="10.00">Translator</text>
</a>
</g>
</g>
<!-- Node12&#45;&gt;Node11 -->
<g id="edge11_Node000011_Node000012" class="edge">
<title>Node12&#45;&gt;Node11</title>
<g id="a_edge11_Node000011_Node000012"><a xlink:title=" ">
<path fill="none" stroke="#63b8ff" d="M75.54,-64.5C83.6,-64.5 92.2,-64.5 100.75,-64.5"/>
<polygon fill="#63b8ff" stroke="#63b8ff" points="75.3,-61 65.3,-64.5 75.3,-68 75.3,-61"/>
</a>
</g>
</g>
<!-- Node14 -->
<g id="Node000014" class="node">
<title>Node14</title>
<g id="a_Node000014"><a xlink:href="../../de/d49/class_translator_adapter__1__8__0.html" target="_top" xlink:title="Adapter class for languages that only contain translations up to version 1.8.0.">
<polygon fill="white" stroke="#666666" points="2328,-148 2191,-148 2191,-129 2328,-129 2328,-148"/>
<text text-anchor="middle" x="2259.5" y="-136" font-family="Helvetica,sans-Serif" font-size="10.00">TranslatorAdapter_1_8_0</text>
</a>
</g>
</g>
<!-- Node13&#45;&gt;Node14 -->
<g id="edge13_Node000013_Node000014" class="edge">
<title>Node13&#45;&gt;Node14</title>
<g id="a_edge13_Node000013_Node000014"><a xlink:title=" ">
<path fill="none" stroke="#63b8ff" d="M2165.1,-128.67C2173.69,-129.57 2182.39,-130.49 2190.85,-131.38"/>
<polygon fill="#63b8ff" stroke="#63b8ff" points="2165.4,-125.18 2155.08,-127.61 2164.66,-132.14 2165.4,-125.18"/>
</a>
</g>
</g>
<!-- Node34 -->
<g id="Node000034" class="node">
<title>Node34</title>
<g id="a_Node000034"><a xlink:href="../../d9/d82/class_translator_croatian.html" target="_top" xlink:title=" ">
<polygon fill="white" stroke="#666666" points="2312.5,-111 2206.5,-111 2206.5,-92 2312.5,-92 2312.5,-111"/>
<text text-anchor="middle" x="2259.5" y="-99" font-family="Helvetica,sans-Serif" font-size="10.00">TranslatorCroatian</text>
</a>
</g>
</g>
<!-- Node13&#45;&gt;Node34 -->
<g id="edge33_Node000013_Node000034" class="edge">
<title>Node13&#45;&gt;Node34</title>
<g id="a_edge33_Node000013_Node000034"><a xlink:title=" ">
<path fill="none" stroke="#63b8ff" d="M2165.19,-111.87C2179.16,-110.32 2193.41,-108.73 2206.44,-107.28"/>
<polygon fill="#63b8ff" stroke="#63b8ff" points="2164.64,-108.41 2155.08,-112.99 2165.41,-115.36 2164.64,-108.41"/>
</a>
</g>
</g>
<!-- Node15 -->
<g id="Node000015" class="node">
<title>Node15</title>
<g id="a_Node000015"><a xlink:href="../../da/d24/class_translator_adapter__1__7__5.html" target="_top" xlink:title="Adapter class for languages that only contain translations up to version 1.7.5.">
<polygon fill="white" stroke="#666666" points="2501,-222 2364,-222 2364,-203 2501,-203 2501,-222"/>
<text text-anchor="middle" x="2432.5" y="-210" font-family="Helvetica,sans-Serif" font-size="10.00">TranslatorAdapter_1_7_5</text>
</a>
</g>
</g>
<!-- Node14&#45;&gt;Node15 -->
<g id="edge14_Node000014_Node000015" class="edge">
<title>Node14&#45;&gt;Node15</title>
<g id="a_edge14_Node000014_Node000015"><a xlink:title=" ">
<path fill="none" stroke="#63b8ff" d="M2284.82,-153.34C2305.35,-165.4 2335.83,-182.2 2364,-193.5 2372.93,-197.08 2382.77,-200.26 2392.12,-202.95"/>
<polygon fill="#63b8ff" stroke="#63b8ff" points="2286.51,-150.27 2276.13,-148.17 2282.93,-156.29 2286.51,-150.27"/>
</a>
</g>
</g>
<!-- Node30 -->
<g id="Node000030" class="node">
<title>Node30</title>
<g id="a_Node000030"><a xlink:href="../../da/db8/class_translator_armenian.html" target="_top" xlink:title=" ">
<polygon fill="white" stroke="#666666" points="2488.5,-185 2376.5,-185 2376.5,-166 2488.5,-166 2488.5,-185"/>
<text text-anchor="middle" x="2432.5" y="-173" font-family="Helvetica,sans-Serif" font-size="10.00">TranslatorArmenian</text>
</a>
</g>
</g>
<!-- Node14&#45;&gt;Node30 -->
<g id="edge29_Node000014_Node000030" class="edge">
<title>Node14&#45;&gt;Node30</title>
<g id="a_edge29_Node000014_Node000030"><a xlink:title=" ">
<path fill="none" stroke="#63b8ff" d="M2314.35,-150.15C2337.84,-155.23 2365.04,-161.12 2387.32,-165.94"/>
<polygon fill="#63b8ff" stroke="#63b8ff" points="2315.05,-146.72 2304.54,-148.03 2313.57,-153.56 2315.05,-146.72"/>
</a>
</g>
</g>
<!-- Node31 -->
<g id="Node000031" class="node">
<title>Node31</title>
<g id="a_Node000031"><a xlink:href="../../d9/dc1/class_translator_catalan.html" target="_top" xlink:title=" ">
<polygon fill="white" stroke="#666666" points="2483.5,-148 2381.5,-148 2381.5,-129 2483.5,-129 2483.5,-148"/>
<text text-anchor="middle" x="2432.5" y="-136" font-family="Helvetica,sans-Serif" font-size="10.00">TranslatorCatalan</text>
</a>
</g>
</g>
<!-- Node14&#45;&gt;Node31 -->
<g id="edge30_Node000014_Node000031" class="edge">
<title>Node14&#45;&gt;Node31</title>
<g id="a_edge30_Node000014_Node000031"><a xlink:title=" ">
<path fill="none" stroke="#63b8ff" d="M2338.15,-138.5C2352.8,-138.5 2367.76,-138.5 2381.28,-138.5"/>
<polygon fill="#63b8ff" stroke="#63b8ff" points="2338.08,-135 2328.08,-138.5 2338.08,-142 2338.08,-135"/>
</a>
</g>
</g>
<!-- Node32 -->
<g id="Node000032" class="node">
<title>Node32</title>
<g id="a_Node000032"><a xlink:href="../../d7/d21/class_translator_danish.html" target="_top" xlink:title=" ">
<polygon fill="white" stroke="#666666" points="2481.5,-111 2383.5,-111 2383.5,-92 2481.5,-92 2481.5,-111"/>
<text text-anchor="middle" x="2432.5" y="-99" font-family="Helvetica,sans-Serif" font-size="10.00">TranslatorDanish</text>
</a>
</g>
</g>
<!-- Node14&#45;&gt;Node32 -->
<g id="edge31_Node000014_Node000032" class="edge">
<title>Node14&#45;&gt;Node32</title>
<g id="a_edge31_Node000014_Node000032"><a xlink:title=" ">
<path fill="none" stroke="#63b8ff" d="M2314.35,-126.85C2337.84,-121.77 2365.04,-115.88 2387.32,-111.06"/>
<polygon fill="#63b8ff" stroke="#63b8ff" points="2313.57,-123.44 2304.54,-128.97 2315.05,-130.28 2313.57,-123.44"/>
</a>
</g>
</g>
<!-- Node33 -->
<g id="Node000033" class="node">
<title>Node33</title>
<g id="a_Node000033"><a xlink:href="../../df/dc8/class_translator_indonesian.html" target="_top" xlink:title=" ">
<polygon fill="white" stroke="#666666" points="2491.5,-74 2373.5,-74 2373.5,-55 2491.5,-55 2491.5,-74"/>
<text text-anchor="middle" x="2432.5" y="-62" font-family="Helvetica,sans-Serif" font-size="10.00">TranslatorIndonesian</text>
</a>
</g>
</g>
<!-- Node14&#45;&gt;Node33 -->
<g id="edge32_Node000014_Node000033" class="edge">
<title>Node14&#45;&gt;Node33</title>
<g id="a_edge32_Node000014_Node000033"><a xlink:title=" ">
<path fill="none" stroke="#63b8ff" d="M2316.42,-125.32C2320.44,-123.6 2324.35,-121.67 2328,-119.5 2347.72,-107.77 2344.2,-94.1 2364,-82.5 2369.86,-79.07 2376.39,-76.28 2383.01,-74.01"/>
<polygon fill="#63b8ff" stroke="#63b8ff" points="2314.97,-122.13 2306.86,-128.95 2317.46,-128.67 2314.97,-122.13"/>
</a>
</g>
</g>
<!-- Node16 -->
<g id="Node000016" class="node">
<title>Node16</title>
<g id="a_Node000016"><a xlink:href="../../d3/da1/class_translator_adapter__1__6__0.html" target="_top" xlink:title="Adapter class for languages that only contain translations up to version 1.6.0.">
<polygon fill="white" stroke="#666666" points="2674,-259 2537,-259 2537,-240 2674,-240 2674,-259"/>
<text text-anchor="middle" x="2605.5" y="-247" font-family="Helvetica,sans-Serif" font-size="10.00">TranslatorAdapter_1_6_0</text>
</a>
</g>
</g>
<!-- Node15&#45;&gt;Node16 -->
<g id="edge15_Node000015_Node000016" class="edge">
<title>Node15&#45;&gt;Node16</title>
<g id="a_edge15_Node000015_Node000016"><a xlink:title=" ">
<path fill="none" stroke="#63b8ff" d="M2487.35,-224.15C2510.84,-229.23 2538.04,-235.12 2560.32,-239.94"/>
<polygon fill="#63b8ff" stroke="#63b8ff" points="2488.05,-220.72 2477.54,-222.03 2486.57,-227.56 2488.05,-220.72"/>
</a>
</g>
</g>
<!-- Node28 -->
<g id="Node000028" class="node">
<title>Node28</title>
<g id="a_Node000028"><a xlink:href="../../d5/d43/class_translator_persian.html" target="_top" xlink:title=" ">
<polygon fill="white" stroke="#666666" points="2656,-222 2555,-222 2555,-203 2656,-203 2656,-222"/>
<text text-anchor="middle" x="2605.5" y="-210" font-family="Helvetica,sans-Serif" font-size="10.00">TranslatorPersian</text>
</a>
</g>
</g>
<!-- Node15&#45;&gt;Node28 -->
<g id="edge27_Node000015_Node000028" class="edge">
<title>Node15&#45;&gt;Node28</title>
<g id="a_edge27_Node000015_Node000028"><a xlink:title=" ">
<path fill="none" stroke="#63b8ff" d="M2511.26,-212.5C2526.06,-212.5 2541.18,-212.5 2554.81,-212.5"/>
<polygon fill="#63b8ff" stroke="#63b8ff" points="2511.08,-209 2501.08,-212.5 2511.08,-216 2511.08,-209"/>
</a>
</g>
</g>
<!-- Node29 -->
<g id="Node000029" class="node">
<title>Node29</title>
<g id="a_Node000029"><a xlink:href="../../dd/d80/class_translator_turkish.html" target="_top" xlink:title=" ">
<polygon fill="white" stroke="#666666" points="2655,-185 2556,-185 2556,-166 2655,-166 2655,-185"/>
<text text-anchor="middle" x="2605.5" y="-173" font-family="Helvetica,sans-Serif" font-size="10.00">TranslatorTurkish</text>
</a>
</g>
</g>
<!-- Node15&#45;&gt;Node29 -->
<g id="edge28_Node000015_Node000029" class="edge">
<title>Node15&#45;&gt;Node29</title>
<g id="a_edge28_Node000015_Node000029"><a xlink:title=" ">
<path fill="none" stroke="#63b8ff" d="M2487.35,-200.85C2510.84,-195.77 2538.04,-189.88 2560.32,-185.06"/>
<polygon fill="#63b8ff" stroke="#63b8ff" points="2486.57,-197.44 2477.54,-202.97 2488.05,-204.28 2486.57,-197.44"/>
</a>
</g>
</g>
<!-- Node17 -->
<g id="Node000017" class="node">
<title>Node17</title>
<g id="a_Node000017"><a xlink:href="../../d4/d2b/class_translator_adapter__1__4__6.html" target="_top" xlink:title="Adapter class for languages that only contain translations up to version 1.4.6.">
<polygon fill="white" stroke="#666666" points="2847,-370 2710,-370 2710,-351 2847,-351 2847,-370"/>
<text text-anchor="middle" x="2778.5" y="-358" font-family="Helvetica,sans-Serif" font-size="10.00">TranslatorAdapter_1_4_6</text>
</a>
</g>
</g>
<!-- Node16&#45;&gt;Node17 -->
<g id="edge16_Node000016_Node000017" class="edge">
<title>Node16&#45;&gt;Node17</title>
<g id="a_edge16_Node000016_Node000017"><a xlink:title=" ">
<path fill="none" stroke="#63b8ff" d="M2621.01,-266.8C2639.54,-287.78 2673.59,-322.79 2710,-342.5 2716.29,-345.91 2723.27,-348.7 2730.28,-350.98"/>
<polygon fill="#63b8ff" stroke="#63b8ff" points="2623.46,-264.28 2614.27,-259 2618.17,-268.86 2623.46,-264.28"/>
</a>
</g>
</g>
<!-- Node22 -->
<g id="Node000022" class="node">
<title>Node22</title>
<g id="a_Node000022"><a xlink:href="../../d3/d65/class_translator_afrikaans.html" target="_top" xlink:title=" ">
<polygon fill="white" stroke="#666666" points="2833.5,-333 2723.5,-333 2723.5,-314 2833.5,-314 2833.5,-333"/>
<text text-anchor="middle" x="2778.5" y="-321" font-family="Helvetica,sans-Serif" font-size="10.00">TranslatorAfrikaans</text>
</a>
</g>
</g>
<!-- Node16&#45;&gt;Node22 -->
<g id="edge21_Node000016_Node000022" class="edge">
<title>Node16&#45;&gt;Node22</title>
<g id="a_edge21_Node000016_Node000022"><a xlink:title=" ">
<path fill="none" stroke="#63b8ff" d="M2630.82,-264.34C2651.35,-276.4 2681.83,-293.2 2710,-304.5 2718.93,-308.08 2728.77,-311.26 2738.12,-313.95"/>
<polygon fill="#63b8ff" stroke="#63b8ff" points="2632.51,-261.27 2622.13,-259.17 2628.93,-267.29 2632.51,-261.27"/>
</a>
</g>
</g>
<!-- Node23 -->
<g id="Node000023" class="node">
<title>Node23</title>
<g id="a_Node000023"><a xlink:href="../../de/df7/class_translator_finnish.html" target="_top" xlink:title=" ">
<polygon fill="white" stroke="#666666" points="2828,-296 2729,-296 2729,-277 2828,-277 2828,-296"/>
<text text-anchor="middle" x="2778.5" y="-284" font-family="Helvetica,sans-Serif" font-size="10.00">TranslatorFinnish</text>
</a>
</g>
</g>
<!-- Node16&#45;&gt;Node23 -->
<g id="edge22_Node000016_Node000023" class="edge">
<title>Node16&#45;&gt;Node23</title>
<g id="a_edge22_Node000016_Node000023"><a xlink:title=" ">
<path fill="none" stroke="#63b8ff" d="M2660.35,-261.15C2683.84,-266.23 2711.04,-272.12 2733.32,-276.94"/>
<polygon fill="#63b8ff" stroke="#63b8ff" points="2661.05,-257.72 2650.54,-259.03 2659.57,-264.56 2661.05,-257.72"/>
</a>
</g>
</g>
<!-- Node24 -->
<g id="Node000024" class="node">
<title>Node24</title>
<g id="a_Node000024"><a xlink:href="../../d9/ddf/class_translator_macedonian.html" target="_top" xlink:title=" ">
<polygon fill="white" stroke="#666666" points="2840.5,-259 2716.5,-259 2716.5,-240 2840.5,-240 2840.5,-259"/>
<text text-anchor="middle" x="2778.5" y="-247" font-family="Helvetica,sans-Serif" font-size="10.00">TranslatorMacedonian</text>
</a>
</g>
</g>
<!-- Node16&#45;&gt;Node24 -->
<g id="edge23_Node000016_Node000024" class="edge">
<title>Node16&#45;&gt;Node24</title>
<g id="a_edge23_Node000016_Node000024"><a xlink:title=" ">
<path fill="none" stroke="#63b8ff" d="M2684.28,-249.5C2695,-249.5 2705.88,-249.5 2716.24,-249.5"/>
<polygon fill="#63b8ff" stroke="#63b8ff" points="2684.08,-246 2674.08,-249.5 2684.08,-253 2684.08,-246"/>
</a>
</g>
</g>
<!-- Node25 -->
<g id="Node000025" class="node">
<title>Node25</title>
<g id="a_Node000025"><a xlink:href="../../d5/d0a/class_translator_serbian.html" target="_top" xlink:title=" ">
<polygon fill="white" stroke="#666666" points="2829,-222 2728,-222 2728,-203 2829,-203 2829,-222"/>
<text text-anchor="middle" x="2778.5" y="-210" font-family="Helvetica,sans-Serif" font-size="10.00">TranslatorSerbian</text>
</a>
</g>
</g>
<!-- Node16&#45;&gt;Node25 -->
<g id="edge24_Node000016_Node000025" class="edge">
<title>Node16&#45;&gt;Node25</title>
<g id="a_edge24_Node000016_Node000025"><a xlink:title=" ">
<path fill="none" stroke="#63b8ff" d="M2660.35,-237.85C2683.84,-232.77 2711.04,-226.88 2733.32,-222.06"/>
<polygon fill="#63b8ff" stroke="#63b8ff" points="2659.57,-234.44 2650.54,-239.97 2661.05,-241.28 2659.57,-234.44"/>
</a>
</g>
</g>
<!-- Node26 -->
<g id="Node000026" class="node">
<title>Node26</title>
<g id="a_Node000026"><a xlink:href="../../dc/d03/class_translator_serbian_cyrillic.html" target="_top" xlink:title=" ">
<polygon fill="white" stroke="#666666" points="2846,-185 2711,-185 2711,-166 2846,-166 2846,-185"/>
<text text-anchor="middle" x="2778.5" y="-173" font-family="Helvetica,sans-Serif" font-size="10.00">TranslatorSerbianCyrillic</text>
</a>
</g>
</g>
<!-- Node16&#45;&gt;Node26 -->
<g id="edge25_Node000016_Node000026" class="edge">
<title>Node16&#45;&gt;Node26</title>
<g id="a_edge25_Node000016_Node000026"><a xlink:title=" ">
<path fill="none" stroke="#63b8ff" d="M2662.42,-236.32C2666.44,-234.6 2670.35,-232.67 2674,-230.5 2693.72,-218.77 2690.2,-205.1 2710,-193.5 2715.86,-190.07 2722.39,-187.28 2729.01,-185.01"/>
<polygon fill="#63b8ff" stroke="#63b8ff" points="2660.97,-233.13 2652.86,-239.95 2663.46,-239.67 2660.97,-233.13"/>
</a>
</g>
</g>
<!-- Node27 -->
<g id="Node000027" class="node">
<title>Node27</title>
<g id="a_Node000027"><a xlink:href="../../df/d20/class_translator_vietnamese.html" target="_top" xlink:title=" ">
<polygon fill="white" stroke="#666666" points="2840,-148 2717,-148 2717,-129 2840,-129 2840,-148"/>
<text text-anchor="middle" x="2778.5" y="-136" font-family="Helvetica,sans-Serif" font-size="10.00">TranslatorVietnamese</text>
</a>
</g>
</g>
<!-- Node16&#45;&gt;Node27 -->
<g id="edge26_Node000016_Node000027" class="edge">
<title>Node16&#45;&gt;Node27</title>
<g id="a_edge26_Node000016_Node000027"><a xlink:title=" ">
<path fill="none" stroke="#63b8ff" d="M2667.48,-235.18C2669.77,-233.76 2671.96,-232.21 2674,-230.5 2702.06,-207.04 2681.78,-179.76 2710,-156.5 2714.12,-153.11 2718.81,-150.35 2723.77,-148.1"/>
<polygon fill="#63b8ff" stroke="#63b8ff" points="2665.48,-232.27 2658.21,-239.97 2668.7,-238.49 2665.48,-232.27"/>
</a>
</g>
</g>
<!-- Node18 -->
<g id="Node000018" class="node">
<title>Node18</title>
<g id="a_Node000018"><a xlink:href="../../d3/de9/class_translator_arabic.html" target="_top" xlink:title=" ">
<polygon fill="white" stroke="#666666" points="2989,-425 2894,-425 2894,-406 2989,-406 2989,-425"/>
<text text-anchor="middle" x="2941.5" y="-413" font-family="Helvetica,sans-Serif" font-size="10.00">TranslatorArabic</text>
</a>
</g>
</g>
<!-- Node17&#45;&gt;Node18 -->
<g id="edge17_Node000017_Node000018" class="edge">
<title>Node17&#45;&gt;Node18</title>
<g id="a_edge17_Node000017_Node000018"><a xlink:title=" ">
<path fill="none" stroke="#63b8ff" d="M2814.94,-373.57C2834.87,-380.81 2860.25,-389.88 2883,-397.5 2891.43,-400.33 2900.6,-403.26 2909.09,-405.92"/>
<polygon fill="#63b8ff" stroke="#63b8ff" points="2815.94,-370.2 2805.35,-370.06 2813.54,-376.78 2815.94,-370.2"/>
</a>
</g>
</g>
<!-- Node19 -->
<g id="Node000019" class="node">
<title>Node19</title>
<g id="a_Node000019"><a xlink:href="../../dc/d53/class_translator_lithuanian.html" target="_top" xlink:title=" ">
<polygon fill="white" stroke="#666666" points="2999.5,-388 2883.5,-388 2883.5,-369 2999.5,-369 2999.5,-388"/>
<text text-anchor="middle" x="2941.5" y="-376" font-family="Helvetica,sans-Serif" font-size="10.00">TranslatorLithuanian</text>
</a>
</g>
</g>
<!-- Node17&#45;&gt;Node19 -->
<g id="edge18_Node000017_Node000019" class="edge">
<title>Node17&#45;&gt;Node19</title>
<g id="a_edge18_Node000017_Node000019"><a xlink:title=" ">
<path fill="none" stroke="#63b8ff" d="M2857.53,-369.22C2866.27,-370.2 2875.05,-371.18 2883.46,-372.12"/>
<polygon fill="#63b8ff" stroke="#63b8ff" points="2857.64,-365.71 2847.31,-368.08 2856.86,-372.67 2857.64,-365.71"/>
</a>
</g>
</g>
<!-- Node20 -->
<g id="Node000020" class="node">
<title>Node20</title>
<g id="a_Node000020"><a xlink:href="../../dd/d38/class_translator_norwegian.html" target="_top" xlink:title=" ">
<polygon fill="white" stroke="#666666" points="3000,-351 2883,-351 2883,-332 3000,-332 3000,-351"/>
<text text-anchor="middle" x="2941.5" y="-339" font-family="Helvetica,sans-Serif" font-size="10.00">TranslatorNorwegian</text>
</a>
</g>
</g>
<!-- Node17&#45;&gt;Node20 -->
<g id="edge19_Node000017_Node000020" class="edge">
<title>Node17&#45;&gt;Node20</title>
<g id="a_edge19_Node000017_Node000020"><a xlink:title=" ">
<path fill="none" stroke="#63b8ff" d="M2857.38,-351.31C2866,-350.29 2874.66,-349.27 2882.96,-348.29"/>
<polygon fill="#63b8ff" stroke="#63b8ff" points="2856.83,-347.85 2847.31,-352.5 2857.65,-354.8 2856.83,-347.85"/>
</a>
</g>
</g>
<!-- Node21 -->
<g id="Node000021" class="node">
<title>Node21</title>
<g id="a_Node000021"><a xlink:href="../../dd/d0b/class_translator_slovene.html" target="_top" xlink:title=" ">
<polygon fill="white" stroke="#666666" points="2993.5,-314 2889.5,-314 2889.5,-295 2993.5,-295 2993.5,-314"/>
<text text-anchor="middle" x="2941.5" y="-302" font-family="Helvetica,sans-Serif" font-size="10.00">TranslatorSlovene</text>
</a>
</g>
</g>
<!-- Node17&#45;&gt;Node21 -->
<g id="edge20_Node000017_Node000021" class="edge">
<title>Node17&#45;&gt;Node21</title>
<g id="a_edge20_Node000017_Node000021"><a xlink:title=" ">
<path fill="none" stroke="#63b8ff" d="M2831.39,-348.07C2836.72,-346.37 2842.01,-344.52 2847,-342.5 2863.97,-335.65 2866.18,-329.72 2883,-322.5 2890.31,-319.37 2898.34,-316.51 2906.03,-314.03"/>
<polygon fill="#63b8ff" stroke="#63b8ff" points="2830.37,-344.72 2821.79,-350.94 2832.38,-351.42 2830.37,-344.72"/>
</a>
</g>
</g>
</g>
</svg>
