<?xml version="1.0" encoding="UTF-8" standalone="no"?>
<!DOCTYPE svg PUBLIC "-//W3C//DTD SVG 1.1//EN"
 "http://www.w3.org/Graphics/SVG/1.1/DTD/svg11.dtd">
<!-- Generated by graphviz version 2.43.0 (0)
 -->
<!-- Title: ConceptDefImpl Pages: 1 -->
<svg width="370pt" height="272pt"
 viewBox="0.00 0.00 370.00 272.00" xmlns="http://www.w3.org/2000/svg" xmlns:xlink="http://www.w3.org/1999/xlink">
<g id="graph0" class="graph" transform="scale(1 1) rotate(0) translate(4 268)">
<title>ConceptDefImpl</title>
<!-- Node1 -->
<g id="Node000001" class="node">
<title>Node1</title>
<g id="a_Node000001"><a xlink:title=" ">
<polygon fill="#999999" stroke="#666666" points="243.5,-19 148.5,-19 148.5,0 243.5,0 243.5,-19"/>
<text text-anchor="middle" x="196" y="-7" font-family="Helvetica,sans-Serif" font-size="10.00">ConceptDefImpl</text>
</a>
</g>
</g>
<!-- Node2 -->
<g id="Node000002" class="node">
<title>Node2</title>
<g id="a_Node000002"><a xlink:href="../../dd/d10/class_definition_mixin.html" target="_top" xlink:title=" ">
<polygon fill="white" stroke="#666666" points="267,-86 125,-86 125,-56 267,-56 267,-86"/>
<text text-anchor="start" x="133" y="-74" font-family="Helvetica,sans-Serif" font-size="10.00">DefinitionMixin&lt; Concept</text>
<text text-anchor="middle" x="196" y="-63" font-family="Helvetica,sans-Serif" font-size="10.00">DefMutable &gt;</text>
</a>
</g>
</g>
<!-- Node2&#45;&gt;Node1 -->
<g id="edge1_Node000001_Node000002" class="edge">
<title>Node2&#45;&gt;Node1</title>
<g id="a_edge1_Node000001_Node000002"><a xlink:title=" ">
<path fill="none" stroke="#63b8ff" d="M196,-45.79C196,-36.36 196,-26.15 196,-19.16"/>
<polygon fill="#63b8ff" stroke="#63b8ff" points="192.5,-45.9 196,-55.9 199.5,-45.9 192.5,-45.9"/>
</a>
</g>
</g>
<!-- Node3 -->
<g id="Node000003" class="node">
<title>Node3</title>
<g id="a_Node000003"><a xlink:href="../../d4/deb/class_concept_def_mutable.html" target="_top" xlink:title=" ">
<polygon fill="white" stroke="#666666" points="181.5,-152 68.5,-152 68.5,-133 181.5,-133 181.5,-152"/>
<text text-anchor="middle" x="125" y="-140" font-family="Helvetica,sans-Serif" font-size="10.00">ConceptDefMutable</text>
</a>
</g>
</g>
<!-- Node3&#45;&gt;Node2 -->
<g id="edge2_Node000002_Node000003" class="edge">
<title>Node3&#45;&gt;Node2</title>
<g id="a_edge2_Node000002_Node000003"><a xlink:title=" ">
<path fill="none" stroke="#63b8ff" d="M140.97,-125.87C153.15,-113.95 169.78,-97.67 181.56,-86.14"/>
<polygon fill="#63b8ff" stroke="#63b8ff" points="138.4,-123.48 133.71,-132.98 143.3,-128.48 138.4,-123.48"/>
</a>
</g>
</g>
<!-- Node4 -->
<g id="Node000004" class="node">
<title>Node4</title>
<g id="a_Node000004"><a xlink:href="../../d0/d46/class_definition_mutable.html" target="_top" xlink:title=" ">
<polygon fill="white" stroke="#666666" points="104,-208 0,-208 0,-189 104,-189 104,-208"/>
<text text-anchor="middle" x="52" y="-196" font-family="Helvetica,sans-Serif" font-size="10.00">DefinitionMutable</text>
</a>
</g>
</g>
<!-- Node4&#45;&gt;Node3 -->
<g id="edge3_Node000003_Node000004" class="edge">
<title>Node4&#45;&gt;Node3</title>
<g id="a_edge3_Node000003_Node000004"><a xlink:title=" ">
<path fill="none" stroke="#63b8ff" d="M72.14,-182.6C85.28,-172.88 101.98,-160.53 113.06,-152.33"/>
<polygon fill="#63b8ff" stroke="#63b8ff" points="69.69,-180.06 63.73,-188.82 73.85,-185.69 69.69,-180.06"/>
</a>
</g>
</g>
<!-- Node5 -->
<g id="Node000005" class="node">
<title>Node5</title>
<g id="a_Node000005"><a xlink:href="../../d6/d8d/class_concept_def.html" target="_top" xlink:title=" ">
<polygon fill="white" stroke="#666666" points="196,-208 122,-208 122,-189 196,-189 196,-208"/>
<text text-anchor="middle" x="159" y="-196" font-family="Helvetica,sans-Serif" font-size="10.00">ConceptDef</text>
</a>
</g>
</g>
<!-- Node5&#45;&gt;Node3 -->
<g id="edge4_Node000003_Node000005" class="edge">
<title>Node5&#45;&gt;Node3</title>
<g id="a_edge4_Node000003_Node000005"><a xlink:title=" ">
<path fill="none" stroke="#63b8ff" d="M148.02,-180.07C142.17,-170.77 135.23,-159.75 130.51,-152.25"/>
<polygon fill="#63b8ff" stroke="#63b8ff" points="145.1,-181.99 153.39,-188.58 151.02,-178.26 145.1,-181.99"/>
</a>
</g>
</g>
<!-- Node6 -->
<g id="Node000006" class="node">
<title>Node6</title>
<g id="a_Node000006"><a xlink:href="../../d5/dcc/class_definition.html" target="_top" xlink:title="The common base class of all entity definitions found in the sources.">
<polygon fill="white" stroke="#666666" points="191,-264 127,-264 127,-245 191,-245 191,-264"/>
<text text-anchor="middle" x="159" y="-252" font-family="Helvetica,sans-Serif" font-size="10.00">Definition</text>
</a>
</g>
</g>
<!-- Node6&#45;&gt;Node5 -->
<g id="edge5_Node000005_Node000006" class="edge">
<title>Node6&#45;&gt;Node5</title>
<g id="a_edge5_Node000005_Node000006"><a xlink:title=" ">
<path fill="none" stroke="#63b8ff" d="M159,-234.3C159,-225.41 159,-215.28 159,-208.25"/>
<polygon fill="#63b8ff" stroke="#63b8ff" points="155.5,-234.58 159,-244.58 162.5,-234.58 155.5,-234.58"/>
</a>
</g>
</g>
<!-- Node7 -->
<g id="Node000007" class="node">
<title>Node7</title>
<g id="a_Node000007"><a xlink:href="../../dd/d10/class_definition_mixin.html" target="_top" xlink:title=" ">
<polygon fill="white" stroke="#666666" points="336.5,-152 199.5,-152 199.5,-133 336.5,-133 336.5,-152"/>
<text text-anchor="middle" x="268" y="-140" font-family="Helvetica,sans-Serif" font-size="10.00">DefinitionMixin&lt; Base &gt;</text>
</a>
</g>
</g>
<!-- Node7&#45;&gt;Node2 -->
<g id="edge6_Node000002_Node000007" class="edge">
<title>Node7&#45;&gt;Node2</title>
<g id="a_edge6_Node000002_Node000007"><a xlink:title=" ">
<path fill="none" stroke="orange" stroke-dasharray="5,2" d="M251.81,-125.87C239.46,-113.95 222.59,-97.67 210.65,-86.14"/>
<polygon fill="orange" stroke="orange" points="249.55,-128.55 259.17,-132.98 254.41,-123.51 249.55,-128.55"/>
</a>
</g>
<text text-anchor="middle" x="300.5" y="-107" font-family="Helvetica,sans-Serif" font-size="10.00" fill="grey"> &lt; ConceptDefMutable &gt;</text>
</g>
<!-- Node8 -->
<g id="Node000008" class="node">
<title>Node8</title>
<g id="a_Node000008"><a xlink:title=" ">
<polygon fill="white" stroke="#666666" points="288.5,-208 247.5,-208 247.5,-189 288.5,-189 288.5,-208"/>
<text text-anchor="middle" x="268" y="-196" font-family="Helvetica,sans-Serif" font-size="10.00">Base</text>
</a>
</g>
</g>
<!-- Node8&#45;&gt;Node7 -->
<g id="edge7_Node000007_Node000008" class="edge">
<title>Node8&#45;&gt;Node7</title>
<g id="a_edge7_Node000007_Node000008"><a xlink:title=" ">
<path fill="none" stroke="#63b8ff" d="M268,-178.3C268,-169.41 268,-159.28 268,-152.25"/>
<polygon fill="#63b8ff" stroke="#63b8ff" points="264.5,-178.58 268,-188.58 271.5,-178.58 264.5,-178.58"/>
</a>
</g>
</g>
</g>
</svg>
