<?xml version="1.0" encoding="UTF-8" standalone="no"?>
<!DOCTYPE svg PUBLIC "-//W3C//DTD SVG 1.1//EN"
 "http://www.w3.org/Graphics/SVG/1.1/DTD/svg11.dtd">
<!-- Generated by graphviz version 2.43.0 (0)
 -->
<!-- Title: GenericNodeListContext Pages: 1 -->
<svg width="485pt" height="937pt"
 viewBox="0.00 0.00 485.00 936.50" xmlns="http://www.w3.org/2000/svg" xmlns:xlink="http://www.w3.org/1999/xlink">
<g id="graph0" class="graph" transform="scale(1 1) rotate(0) translate(4 932.5)">
<title>GenericNodeListContext</title>
<!-- Node1 -->
<g id="Node000001" class="node">
<title>Node1</title>
<g id="a_Node000001"><a xlink:title="standard template list implementation">
<polygon fill="#999999" stroke="#666666" points="266,-473 131,-473 131,-454 266,-454 266,-473"/>
<text text-anchor="middle" x="198.5" y="-461" font-family="Helvetica,sans-Serif" font-size="10.00">GenericNodeListContext</text>
</a>
</g>
</g>
<!-- Node3 -->
<g id="Node000003" class="node">
<title>Node3</title>
<g id="a_Node000003"><a xlink:href="../../d6/db0/class_all_members_list_context_1_1_private.html" target="_top" xlink:title=" ">
<polygon fill="white" stroke="#666666" points="455,-928.5 324,-928.5 324,-898.5 455,-898.5 455,-928.5"/>
<text text-anchor="start" x="332" y="-916.5" font-family="Helvetica,sans-Serif" font-size="10.00">AllMembersListContext</text>
<text text-anchor="middle" x="389.5" y="-905.5" font-family="Helvetica,sans-Serif" font-size="10.00">::Private</text>
</a>
</g>
</g>
<!-- Node1&#45;&gt;Node3 -->
<g id="edge2_Node000001_Node000003" class="edge">
<title>Node1&#45;&gt;Node3</title>
<g id="a_edge2_Node000001_Node000003"><a xlink:title=" ">
<path fill="none" stroke="#63b8ff" d="M201.59,-483.12C210.04,-558.65 243.94,-829.4 302,-889.5 308.06,-895.78 315.61,-900.46 323.71,-903.94"/>
<polygon fill="#63b8ff" stroke="#63b8ff" points="205.06,-482.65 200.5,-473.09 198.1,-483.41 205.06,-482.65"/>
</a>
</g>
</g>
<!-- Node4 -->
<g id="Node000004" class="node">
<title>Node4</title>
<g id="a_Node000004"><a xlink:href="../../d7/dc4/class_argument_list_context_1_1_private.html" target="_top" xlink:title=" ">
<polygon fill="white" stroke="#666666" points="449.5,-880.5 329.5,-880.5 329.5,-850.5 449.5,-850.5 449.5,-880.5"/>
<text text-anchor="start" x="337.5" y="-868.5" font-family="Helvetica,sans-Serif" font-size="10.00">ArgumentListContext</text>
<text text-anchor="middle" x="389.5" y="-857.5" font-family="Helvetica,sans-Serif" font-size="10.00">::Private</text>
</a>
</g>
</g>
<!-- Node1&#45;&gt;Node4 -->
<g id="edge3_Node000001_Node000004" class="edge">
<title>Node1&#45;&gt;Node4</title>
<g id="a_edge3_Node000001_Node000004"><a xlink:title=" ">
<path fill="none" stroke="#63b8ff" d="M202.23,-483.12C212.37,-553.1 249.89,-789.09 302,-841.5 309.47,-849.02 319.08,-854.23 329.16,-857.84"/>
<polygon fill="#63b8ff" stroke="#63b8ff" points="205.67,-482.44 200.8,-473.03 198.74,-483.43 205.67,-482.44"/>
</a>
</g>
</g>
<!-- Node5 -->
<g id="Node000005" class="node">
<title>Node5</title>
<g id="a_Node000005"><a xlink:href="../../d4/d4e/class_class_list_context_1_1_private.html" target="_top" xlink:title=" ">
<polygon fill="white" stroke="#666666" points="459,-832 320,-832 320,-813 459,-813 459,-832"/>
<text text-anchor="middle" x="389.5" y="-820" font-family="Helvetica,sans-Serif" font-size="10.00">ClassListContext::Private</text>
</a>
</g>
</g>
<!-- Node1&#45;&gt;Node5 -->
<g id="edge4_Node000001_Node000005" class="edge">
<title>Node1&#45;&gt;Node5</title>
<g id="a_edge4_Node000001_Node000005"><a xlink:title=" ">
<path fill="none" stroke="#63b8ff" d="M199.04,-483.18C198.82,-541.55 206.59,-715.13 302,-803.5 307.19,-808.31 313.31,-812 319.85,-814.82"/>
<polygon fill="#63b8ff" stroke="#63b8ff" points="202.54,-483.15 199.17,-473.1 195.54,-483.06 202.54,-483.15"/>
</a>
</g>
</g>
<!-- Node6 -->
<g id="Node000006" class="node">
<title>Node6</title>
<g id="a_Node000006"><a xlink:href="../../d3/d67/class_concept_list_context_1_1_private.html" target="_top" xlink:title=" ">
<polygon fill="white" stroke="#666666" points="445.5,-794.5 333.5,-794.5 333.5,-764.5 445.5,-764.5 445.5,-794.5"/>
<text text-anchor="start" x="341.5" y="-782.5" font-family="Helvetica,sans-Serif" font-size="10.00">ConceptListContext</text>
<text text-anchor="middle" x="389.5" y="-771.5" font-family="Helvetica,sans-Serif" font-size="10.00">::Private</text>
</a>
</g>
</g>
<!-- Node1&#45;&gt;Node6 -->
<g id="edge5_Node000001_Node000006" class="edge">
<title>Node1&#45;&gt;Node6</title>
<g id="a_edge5_Node000001_Node000006"><a xlink:title=" ">
<path fill="none" stroke="#63b8ff" d="M200.41,-483.28C203.92,-535.75 220.84,-679.6 302,-755.5 310.65,-763.59 321.79,-768.99 333.17,-772.59"/>
<polygon fill="#63b8ff" stroke="#63b8ff" points="203.9,-483.06 199.83,-473.27 196.91,-483.46 203.9,-483.06"/>
</a>
</g>
</g>
<!-- Node7 -->
<g id="Node000007" class="node">
<title>Node7</title>
<g id="a_Node000007"><a xlink:href="../../d7/d7d/class_dir_list_context_1_1_private.html" target="_top" xlink:title=" ">
<polygon fill="white" stroke="#666666" points="453,-746 326,-746 326,-727 453,-727 453,-746"/>
<text text-anchor="middle" x="389.5" y="-734" font-family="Helvetica,sans-Serif" font-size="10.00">DirListContext::Private</text>
</a>
</g>
</g>
<!-- Node1&#45;&gt;Node7 -->
<g id="edge6_Node000001_Node000007" class="edge">
<title>Node1&#45;&gt;Node7</title>
<g id="a_edge6_Node000001_Node000007"><a xlink:title=" ">
<path fill="none" stroke="#63b8ff" d="M201.33,-483.16C206.88,-531.17 228.03,-654.98 302,-717.5 308.93,-723.36 317.26,-727.52 325.97,-730.47"/>
<polygon fill="#63b8ff" stroke="#63b8ff" points="204.8,-482.73 200.27,-473.15 197.84,-483.46 204.8,-482.73"/>
</a>
</g>
</g>
<!-- Node8 -->
<g id="Node000008" class="node">
<title>Node8</title>
<g id="a_Node000008"><a xlink:href="../../da/d6f/class_example_list_context_1_1_private.html" target="_top" xlink:title=" ">
<polygon fill="white" stroke="#666666" points="447,-708.5 332,-708.5 332,-678.5 447,-678.5 447,-708.5"/>
<text text-anchor="start" x="340" y="-696.5" font-family="Helvetica,sans-Serif" font-size="10.00">ExampleListContext</text>
<text text-anchor="middle" x="389.5" y="-685.5" font-family="Helvetica,sans-Serif" font-size="10.00">::Private</text>
</a>
</g>
</g>
<!-- Node1&#45;&gt;Node8 -->
<g id="edge7_Node000001_Node000008" class="edge">
<title>Node1&#45;&gt;Node8</title>
<g id="a_edge7_Node000001_Node000008"><a xlink:title=" ">
<path fill="none" stroke="#63b8ff" d="M203.66,-483.34C213.34,-524.48 241.32,-619.43 302,-669.5 310.53,-676.54 320.99,-681.52 331.64,-685.05"/>
<polygon fill="#63b8ff" stroke="#63b8ff" points="207.05,-482.45 201.45,-473.45 200.22,-483.98 207.05,-482.45"/>
</a>
</g>
</g>
<!-- Node9 -->
<g id="Node000009" class="node">
<title>Node9</title>
<g id="a_Node000009"><a xlink:href="../../d1/d6e/class_file_list_context_1_1_private.html" target="_top" xlink:title=" ">
<polygon fill="white" stroke="#666666" points="454.5,-660 324.5,-660 324.5,-641 454.5,-641 454.5,-660"/>
<text text-anchor="middle" x="389.5" y="-648" font-family="Helvetica,sans-Serif" font-size="10.00">FileListContext::Private</text>
</a>
</g>
</g>
<!-- Node1&#45;&gt;Node9 -->
<g id="edge8_Node000001_Node000009" class="edge">
<title>Node1&#45;&gt;Node9</title>
<g id="a_edge8_Node000001_Node000009"><a xlink:title=" ">
<path fill="none" stroke="#63b8ff" d="M205.65,-483.04C217.89,-518.57 248.81,-593.56 302,-631.5 308.63,-636.23 316.23,-639.82 324.1,-642.53"/>
<polygon fill="#63b8ff" stroke="#63b8ff" points="208.91,-481.76 202.45,-473.37 202.27,-483.96 208.91,-481.76"/>
</a>
</g>
</g>
<!-- Node10 -->
<g id="Node000010" class="node">
<title>Node10</title>
<g id="a_Node000010"><a xlink:href="../../dc/d85/class_include_info_list_context_1_1_private.html" target="_top" xlink:title=" ">
<polygon fill="white" stroke="#666666" points="452.5,-622.5 326.5,-622.5 326.5,-592.5 452.5,-592.5 452.5,-622.5"/>
<text text-anchor="start" x="334.5" y="-610.5" font-family="Helvetica,sans-Serif" font-size="10.00">IncludeInfoListContext</text>
<text text-anchor="middle" x="389.5" y="-599.5" font-family="Helvetica,sans-Serif" font-size="10.00">::Private</text>
</a>
</g>
</g>
<!-- Node1&#45;&gt;Node10 -->
<g id="edge9_Node000001_Node000010" class="edge">
<title>Node1&#45;&gt;Node10</title>
<g id="a_edge9_Node000001_Node000010"><a xlink:title=" ">
<path fill="none" stroke="#63b8ff" d="M210.27,-481.98C226.66,-508.49 260.43,-557.01 302,-583.5 309.36,-588.19 317.64,-591.98 326.08,-595.03"/>
<polygon fill="#63b8ff" stroke="#63b8ff" points="213.19,-480.05 205.03,-473.3 207.19,-483.67 213.19,-480.05"/>
</a>
</g>
</g>
<!-- Node11 -->
<g id="Node000011" class="node">
<title>Node11</title>
<g id="a_Node000011"><a xlink:href="../../d3/dfa/class_inheritance_list_context_1_1_private.html" target="_top" xlink:title=" ">
<polygon fill="white" stroke="#666666" points="453,-574.5 326,-574.5 326,-544.5 453,-544.5 453,-574.5"/>
<text text-anchor="start" x="334" y="-562.5" font-family="Helvetica,sans-Serif" font-size="10.00">InheritanceListContext</text>
<text text-anchor="middle" x="389.5" y="-551.5" font-family="Helvetica,sans-Serif" font-size="10.00">::Private</text>
</a>
</g>
</g>
<!-- Node1&#45;&gt;Node11 -->
<g id="edge10_Node000001_Node000011" class="edge">
<title>Node1&#45;&gt;Node11</title>
<g id="a_edge10_Node000001_Node000011"><a xlink:title=" ">
<path fill="none" stroke="#63b8ff" d="M218.24,-479.66C237.9,-495.87 270.32,-520.53 302,-535.5 309.47,-539.03 317.55,-542.13 325.67,-544.82"/>
<polygon fill="#63b8ff" stroke="#63b8ff" points="220.3,-476.82 210.39,-473.08 215.8,-482.18 220.3,-476.82"/>
</a>
</g>
</g>
<!-- Node12 -->
<g id="Node000012" class="node">
<title>Node12</title>
<g id="a_Node000012"><a xlink:href="../../d0/de8/class_inherited_member_info_list_context_1_1_private.html" target="_top" xlink:title=" ">
<polygon fill="white" stroke="#666666" points="477,-526.5 302,-526.5 302,-496.5 477,-496.5 477,-526.5"/>
<text text-anchor="start" x="310" y="-514.5" font-family="Helvetica,sans-Serif" font-size="10.00">InheritedMemberInfoListContext</text>
<text text-anchor="middle" x="389.5" y="-503.5" font-family="Helvetica,sans-Serif" font-size="10.00">::Private</text>
</a>
</g>
</g>
<!-- Node1&#45;&gt;Node12 -->
<g id="edge11_Node000001_Node000012" class="edge">
<title>Node1&#45;&gt;Node12</title>
<g id="a_edge11_Node000001_Node000012"><a xlink:title=" ">
<path fill="none" stroke="#63b8ff" d="M247.22,-475.62C272.11,-481.94 302.79,-489.73 329.19,-496.44"/>
<polygon fill="#63b8ff" stroke="#63b8ff" points="247.85,-472.17 237.29,-473.1 246.12,-478.95 247.85,-472.17"/>
</a>
</g>
</g>
<!-- Node13 -->
<g id="Node000013" class="node">
<title>Node13</title>
<g id="a_Node000013"><a xlink:href="../../d3/d09/class_member_group_list_context_1_1_private.html" target="_top" xlink:title=" ">
<polygon fill="white" stroke="#666666" points="460.5,-478.5 318.5,-478.5 318.5,-448.5 460.5,-448.5 460.5,-478.5"/>
<text text-anchor="start" x="326.5" y="-466.5" font-family="Helvetica,sans-Serif" font-size="10.00">MemberGroupListContext</text>
<text text-anchor="middle" x="389.5" y="-455.5" font-family="Helvetica,sans-Serif" font-size="10.00">::Private</text>
</a>
</g>
</g>
<!-- Node1&#45;&gt;Node13 -->
<g id="edge12_Node000001_Node000013" class="edge">
<title>Node1&#45;&gt;Node13</title>
<g id="a_edge12_Node000001_Node000013"><a xlink:title=" ">
<path fill="none" stroke="#63b8ff" d="M276.17,-463.5C290.1,-463.5 304.57,-463.5 318.3,-463.5"/>
<polygon fill="#63b8ff" stroke="#63b8ff" points="276.13,-460 266.13,-463.5 276.13,-467 276.13,-460"/>
</a>
</g>
</g>
<!-- Node14 -->
<g id="Node000014" class="node">
<title>Node14</title>
<g id="a_Node000014"><a xlink:href="../../df/db1/class_member_list_context_1_1_private.html" target="_top" xlink:title=" ">
<polygon fill="white" stroke="#666666" points="449,-430.5 330,-430.5 330,-400.5 449,-400.5 449,-430.5"/>
<text text-anchor="start" x="338" y="-418.5" font-family="Helvetica,sans-Serif" font-size="10.00">MemberListContext::</text>
<text text-anchor="middle" x="389.5" y="-407.5" font-family="Helvetica,sans-Serif" font-size="10.00">Private</text>
</a>
</g>
</g>
<!-- Node1&#45;&gt;Node14 -->
<g id="edge13_Node000001_Node000014" class="edge">
<title>Node1&#45;&gt;Node14</title>
<g id="a_edge13_Node000001_Node000014"><a xlink:title=" ">
<path fill="none" stroke="#63b8ff" d="M247.31,-451.36C272.41,-444.98 303.39,-437.12 329.93,-430.38"/>
<polygon fill="#63b8ff" stroke="#63b8ff" points="246.12,-448.05 237.29,-453.9 247.85,-454.83 246.12,-448.05"/>
</a>
</g>
</g>
<!-- Node15 -->
<g id="Node000015" class="node">
<title>Node15</title>
<g id="a_Node000015"><a xlink:href="../../da/d0c/class_module_list_context_1_1_private.html" target="_top" xlink:title=" ">
<polygon fill="white" stroke="#666666" points="446.5,-382.5 332.5,-382.5 332.5,-352.5 446.5,-352.5 446.5,-382.5"/>
<text text-anchor="start" x="340.5" y="-370.5" font-family="Helvetica,sans-Serif" font-size="10.00">ModuleListContext::</text>
<text text-anchor="middle" x="389.5" y="-359.5" font-family="Helvetica,sans-Serif" font-size="10.00">Private</text>
</a>
</g>
</g>
<!-- Node1&#45;&gt;Node15 -->
<g id="edge14_Node000001_Node000015" class="edge">
<title>Node1&#45;&gt;Node15</title>
<g id="a_edge14_Node000001_Node000015"><a xlink:title=" ">
<path fill="none" stroke="#63b8ff" d="M218.24,-447.34C237.9,-431.13 270.32,-406.47 302,-391.5 311.44,-387.04 321.86,-383.27 332.11,-380.13"/>
<polygon fill="#63b8ff" stroke="#63b8ff" points="215.8,-444.82 210.39,-453.92 220.3,-450.18 215.8,-444.82"/>
</a>
</g>
</g>
<!-- Node16 -->
<g id="Node000016" class="node">
<title>Node16</title>
<g id="a_Node000016"><a xlink:href="../../d1/d49/class_namespace_list_context_1_1_private.html" target="_top" xlink:title=" ">
<polygon fill="white" stroke="#666666" points="454.5,-334.5 324.5,-334.5 324.5,-304.5 454.5,-304.5 454.5,-334.5"/>
<text text-anchor="start" x="332.5" y="-322.5" font-family="Helvetica,sans-Serif" font-size="10.00">NamespaceListContext</text>
<text text-anchor="middle" x="389.5" y="-311.5" font-family="Helvetica,sans-Serif" font-size="10.00">::Private</text>
</a>
</g>
</g>
<!-- Node1&#45;&gt;Node16 -->
<g id="edge15_Node000001_Node000016" class="edge">
<title>Node1&#45;&gt;Node16</title>
<g id="a_edge15_Node000001_Node000016"><a xlink:title=" ">
<path fill="none" stroke="#63b8ff" d="M210.27,-445.02C226.66,-418.51 260.43,-369.99 302,-343.5 308.83,-339.15 316.46,-335.57 324.28,-332.64"/>
<polygon fill="#63b8ff" stroke="#63b8ff" points="207.19,-443.33 205.03,-453.7 213.19,-446.95 207.19,-443.33"/>
</a>
</g>
</g>
<!-- Node17 -->
<g id="Node000017" class="node">
<title>Node17</title>
<g id="a_Node000017"><a xlink:href="../../d7/db8/class_nesting_context_1_1_private.html" target="_top" xlink:title=" ">
<polygon fill="white" stroke="#666666" points="456,-286 323,-286 323,-267 456,-267 456,-286"/>
<text text-anchor="middle" x="389.5" y="-274" font-family="Helvetica,sans-Serif" font-size="10.00">NestingContext::Private</text>
</a>
</g>
</g>
<!-- Node1&#45;&gt;Node17 -->
<g id="edge16_Node000001_Node000017" class="edge">
<title>Node1&#45;&gt;Node17</title>
<g id="a_edge16_Node000001_Node000017"><a xlink:title=" ">
<path fill="none" stroke="#63b8ff" d="M205.65,-443.96C217.89,-408.43 248.81,-333.44 302,-295.5 308.26,-291.04 315.37,-287.59 322.77,-284.94"/>
<polygon fill="#63b8ff" stroke="#63b8ff" points="202.27,-443.04 202.45,-453.63 208.91,-445.24 202.27,-443.04"/>
</a>
</g>
</g>
<!-- Node18 -->
<g id="Node000018" class="node">
<title>Node18</title>
<g id="a_Node000018"><a xlink:href="../../dc/d0a/class_page_list_context_1_1_private.html" target="_top" xlink:title=" ">
<polygon fill="white" stroke="#666666" points="457.5,-249 321.5,-249 321.5,-230 457.5,-230 457.5,-249"/>
<text text-anchor="middle" x="389.5" y="-237" font-family="Helvetica,sans-Serif" font-size="10.00">PageListContext::Private</text>
</a>
</g>
</g>
<!-- Node1&#45;&gt;Node18 -->
<g id="edge17_Node000001_Node000018" class="edge">
<title>Node1&#45;&gt;Node18</title>
<g id="a_edge17_Node000001_Node000018"><a xlink:title=" ">
<path fill="none" stroke="#63b8ff" d="M203.28,-443.92C212.35,-402.49 239.42,-305.78 302,-257.5 307.71,-253.1 314.24,-249.7 321.09,-247.1"/>
<polygon fill="#63b8ff" stroke="#63b8ff" points="199.82,-443.34 201.22,-453.84 206.68,-444.76 199.82,-443.34"/>
</a>
</g>
</g>
<!-- Node19 -->
<g id="Node000019" class="node">
<title>Node19</title>
<g id="a_Node000019"><a xlink:href="../../d7/d01/class_search_indices_context_1_1_private.html" target="_top" xlink:title=" ">
<polygon fill="white" stroke="#666666" points="450.5,-211.5 328.5,-211.5 328.5,-181.5 450.5,-181.5 450.5,-211.5"/>
<text text-anchor="start" x="336.5" y="-199.5" font-family="Helvetica,sans-Serif" font-size="10.00">SearchIndicesContext</text>
<text text-anchor="middle" x="389.5" y="-188.5" font-family="Helvetica,sans-Serif" font-size="10.00">::Private</text>
</a>
</g>
</g>
<!-- Node1&#45;&gt;Node19 -->
<g id="edge18_Node000001_Node000019" class="edge">
<title>Node1&#45;&gt;Node19</title>
<g id="a_edge18_Node000001_Node000019"><a xlink:title=" ">
<path fill="none" stroke="#63b8ff" d="M202,-443.7C208.9,-397.43 232.57,-281.53 302,-220.5 309.49,-213.91 318.64,-209.12 328.16,-205.64"/>
<polygon fill="#63b8ff" stroke="#63b8ff" points="198.49,-443.5 200.58,-453.89 205.42,-444.46 198.49,-443.5"/>
</a>
</g>
</g>
<!-- Node20 -->
<g id="Node000020" class="node">
<title>Node20</title>
<g id="a_Node000020"><a xlink:href="../../d4/d0d/class_symbol_group_list_context_1_1_private.html" target="_top" xlink:title=" ">
<polygon fill="white" stroke="#666666" points="458.5,-163.5 320.5,-163.5 320.5,-133.5 458.5,-133.5 458.5,-163.5"/>
<text text-anchor="start" x="328.5" y="-151.5" font-family="Helvetica,sans-Serif" font-size="10.00">SymbolGroupListContext</text>
<text text-anchor="middle" x="389.5" y="-140.5" font-family="Helvetica,sans-Serif" font-size="10.00">::Private</text>
</a>
</g>
</g>
<!-- Node1&#45;&gt;Node20 -->
<g id="edge19_Node000001_Node000020" class="edge">
<title>Node1&#45;&gt;Node20</title>
<g id="a_edge19_Node000001_Node000020"><a xlink:title=" ">
<path fill="none" stroke="#63b8ff" d="M200.45,-443.45C204.07,-390.89 221.22,-247.97 302,-172.5 307.35,-167.5 313.66,-163.53 320.38,-160.37"/>
<polygon fill="#63b8ff" stroke="#63b8ff" points="196.94,-443.57 199.85,-453.76 203.93,-443.98 196.94,-443.57"/>
</a>
</g>
</g>
<!-- Node21 -->
<g id="Node000021" class="node">
<title>Node21</title>
<g id="a_Node000021"><a xlink:href="../../d6/d8b/class_symbol_indices_context_1_1_private.html" target="_top" xlink:title=" ">
<polygon fill="white" stroke="#666666" points="452.5,-115.5 326.5,-115.5 326.5,-85.5 452.5,-85.5 452.5,-115.5"/>
<text text-anchor="start" x="334.5" y="-103.5" font-family="Helvetica,sans-Serif" font-size="10.00">SymbolIndicesContext</text>
<text text-anchor="middle" x="389.5" y="-92.5" font-family="Helvetica,sans-Serif" font-size="10.00">::Private</text>
</a>
</g>
</g>
<!-- Node1&#45;&gt;Node21 -->
<g id="edge20_Node000001_Node000021" class="edge">
<title>Node1&#45;&gt;Node21</title>
<g id="a_edge20_Node000001_Node000021"><a xlink:title=" ">
<path fill="none" stroke="#63b8ff" d="M199.29,-443.73C199.8,-385.81 209.45,-214.95 302,-124.5 308.8,-117.86 317.27,-113.01 326.23,-109.5"/>
<polygon fill="#63b8ff" stroke="#63b8ff" points="195.79,-443.75 199.29,-453.75 202.79,-443.75 195.79,-443.75"/>
</a>
</g>
</g>
<!-- Node22 -->
<g id="Node000022" class="node">
<title>Node22</title>
<g id="a_Node000022"><a xlink:href="../../da/d36/class_symbol_list_context_1_1_private.html" target="_top" xlink:title=" ">
<polygon fill="white" stroke="#666666" points="447,-67.5 332,-67.5 332,-37.5 447,-37.5 447,-67.5"/>
<text text-anchor="start" x="340" y="-55.5" font-family="Helvetica,sans-Serif" font-size="10.00">SymbolListContext::</text>
<text text-anchor="middle" x="389.5" y="-44.5" font-family="Helvetica,sans-Serif" font-size="10.00">Private</text>
</a>
</g>
</g>
<!-- Node1&#45;&gt;Node22 -->
<g id="edge21_Node000001_Node000022" class="edge">
<title>Node1&#45;&gt;Node22</title>
<g id="a_edge21_Node000001_Node000022"><a xlink:title=" ">
<path fill="none" stroke="#63b8ff" d="M202.17,-443.42C212.07,-371.79 248.89,-130.23 302,-76.5 310.11,-68.3 320.75,-62.83 331.8,-59.21"/>
<polygon fill="#63b8ff" stroke="#63b8ff" points="198.64,-443.36 200.77,-453.74 205.58,-444.3 198.64,-443.36"/>
</a>
</g>
</g>
<!-- Node23 -->
<g id="Node000023" class="node">
<title>Node23</title>
<g id="a_Node000023"><a xlink:href="../../db/da0/class_used_files_context_1_1_private.html" target="_top" xlink:title=" ">
<polygon fill="white" stroke="#666666" points="461,-19 318,-19 318,0 461,0 461,-19"/>
<text text-anchor="middle" x="389.5" y="-7" font-family="Helvetica,sans-Serif" font-size="10.00">UsedFilesContext::Private</text>
</a>
</g>
</g>
<!-- Node1&#45;&gt;Node23 -->
<g id="edge22_Node000001_Node000023" class="edge">
<title>Node1&#45;&gt;Node23</title>
<g id="a_edge22_Node000001_Node000023"><a xlink:title=" ">
<path fill="none" stroke="#63b8ff" d="M201.43,-443.37C209.28,-365.9 241.27,-88.31 302,-28.5 306.6,-23.97 312.02,-20.41 317.87,-17.63"/>
<polygon fill="#63b8ff" stroke="#63b8ff" points="197.92,-443.37 200.41,-453.66 204.88,-444.06 197.92,-443.37"/>
</a>
</g>
</g>
<!-- Node2 -->
<g id="Node000002" class="node">
<title>Node2</title>
<g id="a_Node000002"><a xlink:href="../../d6/d88/class_template_list_intf.html" target="_top" xlink:title="Abstract read&#45;only interface for a context value of type list.">
<polygon fill="white" stroke="#666666" points="95,-473 0,-473 0,-454 95,-454 95,-473"/>
<text text-anchor="middle" x="47.5" y="-461" font-family="Helvetica,sans-Serif" font-size="10.00">TemplateListIntf</text>
</a>
</g>
</g>
<!-- Node2&#45;&gt;Node1 -->
<g id="edge1_Node000001_Node000002" class="edge">
<title>Node2&#45;&gt;Node1</title>
<g id="a_edge1_Node000001_Node000002"><a xlink:title=" ">
<path fill="none" stroke="#63b8ff" d="M105.5,-463.5C113.75,-463.5 122.31,-463.5 130.74,-463.5"/>
<polygon fill="#63b8ff" stroke="#63b8ff" points="105.24,-460 95.24,-463.5 105.24,-467 105.24,-460"/>
</a>
</g>
</g>
</g>
</svg>
