<?xml version="1.0" encoding="UTF-8" standalone="no"?>
<!DOCTYPE svg PUBLIC "-//W3C//DTD SVG 1.1//EN"
 "http://www.w3.org/Graphics/SVG/1.1/DTD/svg11.dtd">
<!-- Generated by graphviz version 2.43.0 (0)
 -->
<!-- Title: src/ftvhelp.h Pages: 1 -->
<svg width="641pt" height="247pt"
 viewBox="0.00 0.00 640.50 247.00" xmlns="http://www.w3.org/2000/svg" xmlns:xlink="http://www.w3.org/1999/xlink">
<g id="graph0" class="graph" transform="scale(1 1) rotate(0) translate(4 243)">
<title>src/ftvhelp.h</title>
<!-- Node1 -->
<g id="Node000001" class="node">
<title>Node1</title>
<g id="a_Node000001"><a xlink:title=" ">
<polygon fill="#999999" stroke="#666666" points="324.5,-239 247.5,-239 247.5,-220 324.5,-220 324.5,-239"/>
<text text-anchor="middle" x="286" y="-227" font-family="Helvetica,sans-Serif" font-size="10.00">src/ftvhelp.h</text>
</a>
</g>
</g>
<!-- Node2 -->
<g id="Node000002" class="node">
<title>Node2</title>
<g id="a_Node000002"><a xlink:title=" ">
<polygon fill="#e0e0e0" stroke="#999999" points="179,-129 121,-129 121,-110 179,-110 179,-129"/>
<text text-anchor="middle" x="150" y="-117" font-family="Helvetica,sans-Serif" font-size="10.00">memory</text>
</a>
</g>
</g>
<!-- Node1&#45;&gt;Node2 -->
<g id="edge1_Node000001_Node000002" class="edge">
<title>Node1&#45;&gt;Node2</title>
<g id="a_edge1_Node000001_Node000002"><a xlink:title=" ">
<path fill="none" stroke="#63b8ff" d="M274.87,-219.66C251.64,-201.22 197.78,-158.45 168.98,-135.57"/>
<polygon fill="#63b8ff" stroke="#63b8ff" points="170.91,-132.64 160.9,-129.16 166.56,-138.12 170.91,-132.64"/>
</a>
</g>
</g>
<!-- Node3 -->
<g id="Node000003" class="node">
<title>Node3</title>
<g id="a_Node000003"><a xlink:title=" ">
<polygon fill="#e0e0e0" stroke="#999999" points="244.5,-129 197.5,-129 197.5,-110 244.5,-110 244.5,-129"/>
<text text-anchor="middle" x="221" y="-117" font-family="Helvetica,sans-Serif" font-size="10.00">vector</text>
</a>
</g>
</g>
<!-- Node1&#45;&gt;Node3 -->
<g id="edge2_Node000001_Node000003" class="edge">
<title>Node1&#45;&gt;Node3</title>
<g id="a_edge2_Node000001_Node000003"><a xlink:title=" ">
<path fill="none" stroke="#63b8ff" d="M280.68,-219.66C269.96,-201.85 245.6,-161.37 231.54,-138.01"/>
<polygon fill="#63b8ff" stroke="#63b8ff" points="234.37,-135.92 226.21,-129.16 228.37,-139.53 234.37,-135.92"/>
</a>
</g>
</g>
<!-- Node4 -->
<g id="Node000004" class="node">
<title>Node4</title>
<g id="a_Node000004"><a xlink:href="../../d7/d5c/qcstring_8h.html" target="_top" xlink:title=" ">
<polygon fill="white" stroke="#666666" points="327.5,-129 262.5,-129 262.5,-110 327.5,-110 327.5,-129"/>
<text text-anchor="middle" x="295" y="-117" font-family="Helvetica,sans-Serif" font-size="10.00">qcstring.h</text>
</a>
</g>
</g>
<!-- Node1&#45;&gt;Node4 -->
<g id="edge3_Node000001_Node000004" class="edge">
<title>Node1&#45;&gt;Node4</title>
<g id="a_edge3_Node000001_Node000004"><a xlink:title=" ">
<path fill="none" stroke="#63b8ff" d="M286.74,-219.66C288.19,-202.17 291.47,-162.8 293.44,-139.27"/>
<polygon fill="#63b8ff" stroke="#63b8ff" points="296.94,-139.41 294.28,-129.16 289.96,-138.83 296.94,-139.41"/>
</a>
</g>
</g>
<!-- Node15 -->
<g id="Node000015" class="node">
<title>Node15</title>
<g id="a_Node000015"><a xlink:href="../../d7/dfc/construct_8h.html" target="_top" xlink:title=" ">
<polygon fill="white" stroke="#666666" points="546.5,-129 475.5,-129 475.5,-110 546.5,-110 546.5,-129"/>
<text text-anchor="middle" x="511" y="-117" font-family="Helvetica,sans-Serif" font-size="10.00">construct.h</text>
</a>
</g>
</g>
<!-- Node1&#45;&gt;Node15 -->
<g id="edge16_Node000001_Node000015" class="edge">
<title>Node1&#45;&gt;Node15</title>
<g id="a_edge16_Node000001_Node000015"><a xlink:title=" ">
<path fill="none" stroke="#63b8ff" d="M307.56,-220C328.95,-211.41 362.57,-197.52 391,-184 424.83,-167.92 462.9,-147.33 486.91,-134.03"/>
<polygon fill="#63b8ff" stroke="#63b8ff" points="488.65,-137.07 495.68,-129.15 485.24,-130.95 488.65,-137.07"/>
</a>
</g>
</g>
<!-- Node16 -->
<g id="Node000016" class="node">
<title>Node16</title>
<g id="a_Node000016"><a xlink:href="../../d5/d61/indexlist_8h.html" target="_top" xlink:title=" ">
<polygon fill="white" stroke="#666666" points="382,-184 314,-184 314,-165 382,-165 382,-184"/>
<text text-anchor="middle" x="348" y="-172" font-family="Helvetica,sans-Serif" font-size="10.00">indexlist.h</text>
</a>
</g>
</g>
<!-- Node1&#45;&gt;Node16 -->
<g id="edge17_Node000001_Node000016" class="edge">
<title>Node1&#45;&gt;Node16</title>
<g id="a_edge17_Node000001_Node000016"><a xlink:title=" ">
<path fill="none" stroke="#63b8ff" d="M295.96,-219.98C305.13,-212.15 318.94,-200.34 330.03,-190.86"/>
<polygon fill="#63b8ff" stroke="#63b8ff" points="332.53,-193.33 337.86,-184.17 327.98,-188.01 332.53,-193.33"/>
</a>
</g>
</g>
<!-- Node5 -->
<g id="Node000005" class="node">
<title>Node5</title>
<g id="a_Node000005"><a xlink:title=" ">
<polygon fill="#e0e0e0" stroke="#999999" points="44,-19 0,-19 0,0 44,0 44,-19"/>
<text text-anchor="middle" x="22" y="-7" font-family="Helvetica,sans-Serif" font-size="10.00">string</text>
</a>
</g>
</g>
<!-- Node4&#45;&gt;Node5 -->
<g id="edge4_Node000004_Node000005" class="edge">
<title>Node4&#45;&gt;Node5</title>
<g id="a_edge4_Node000004_Node000005"><a xlink:title=" ">
<path fill="none" stroke="#63b8ff" d="M262.47,-111.77C259.27,-111.15 256.08,-110.55 253,-110 202.08,-100.87 56.94,-113.04 23,-74 12.5,-61.92 13.59,-43.12 16.5,-29.1"/>
<polygon fill="#63b8ff" stroke="#63b8ff" points="19.96,-29.66 19.03,-19.11 13.18,-27.94 19.96,-29.66"/>
</a>
</g>
</g>
<!-- Node6 -->
<g id="Node000006" class="node">
<title>Node6</title>
<g id="a_Node000006"><a xlink:title=" ">
<polygon fill="#e0e0e0" stroke="#999999" points="207.5,-74 134.5,-74 134.5,-55 207.5,-55 207.5,-74"/>
<text text-anchor="middle" x="171" y="-62" font-family="Helvetica,sans-Serif" font-size="10.00">string_view</text>
</a>
</g>
</g>
<!-- Node4&#45;&gt;Node6 -->
<g id="edge5_Node000004_Node000006" class="edge">
<title>Node4&#45;&gt;Node6</title>
<g id="a_edge5_Node000004_Node000006"><a xlink:title=" ">
<path fill="none" stroke="#63b8ff" d="M275.08,-109.98C254.95,-101.38 223.62,-87.99 200.59,-78.15"/>
<polygon fill="#63b8ff" stroke="#63b8ff" points="201.86,-74.88 191.29,-74.17 199.1,-81.32 201.86,-74.88"/>
</a>
</g>
</g>
<!-- Node7 -->
<g id="Node000007" class="node">
<title>Node7</title>
<g id="a_Node000007"><a xlink:title=" ">
<polygon fill="#e0e0e0" stroke="#999999" points="290,-74 226,-74 226,-55 290,-55 290,-74"/>
<text text-anchor="middle" x="258" y="-62" font-family="Helvetica,sans-Serif" font-size="10.00">algorithm</text>
</a>
</g>
</g>
<!-- Node4&#45;&gt;Node7 -->
<g id="edge6_Node000004_Node000007" class="edge">
<title>Node4&#45;&gt;Node7</title>
<g id="a_edge6_Node000004_Node000007"><a xlink:title=" ">
<path fill="none" stroke="#63b8ff" d="M288.89,-109.75C283.72,-102.34 276.15,-91.5 269.81,-82.41"/>
<polygon fill="#63b8ff" stroke="#63b8ff" points="272.59,-80.29 264,-74.09 266.85,-84.29 272.59,-80.29"/>
</a>
</g>
</g>
<!-- Node8 -->
<g id="Node000008" class="node">
<title>Node8</title>
<g id="a_Node000008"><a xlink:title=" ">
<polygon fill="#e0e0e0" stroke="#999999" points="357.5,-74 308.5,-74 308.5,-55 357.5,-55 357.5,-74"/>
<text text-anchor="middle" x="333" y="-62" font-family="Helvetica,sans-Serif" font-size="10.00">cctype</text>
</a>
</g>
</g>
<!-- Node4&#45;&gt;Node8 -->
<g id="edge7_Node000004_Node000008" class="edge">
<title>Node4&#45;&gt;Node8</title>
<g id="a_edge7_Node000004_Node000008"><a xlink:title=" ">
<path fill="none" stroke="#63b8ff" d="M301.27,-109.75C306.59,-102.34 314.36,-91.5 320.88,-82.41"/>
<polygon fill="#63b8ff" stroke="#63b8ff" points="323.86,-84.26 326.84,-74.09 318.17,-80.18 323.86,-84.26"/>
</a>
</g>
</g>
<!-- Node9 -->
<g id="Node000009" class="node">
<title>Node9</title>
<g id="a_Node000009"><a xlink:title=" ">
<polygon fill="#e0e0e0" stroke="#999999" points="426,-74 376,-74 376,-55 426,-55 426,-74"/>
<text text-anchor="middle" x="401" y="-62" font-family="Helvetica,sans-Serif" font-size="10.00">cstring</text>
</a>
</g>
</g>
<!-- Node4&#45;&gt;Node9 -->
<g id="edge8_Node000004_Node000009" class="edge">
<title>Node4&#45;&gt;Node9</title>
<g id="a_edge8_Node000004_Node000009"><a xlink:title=" ">
<path fill="none" stroke="#63b8ff" d="M312.03,-109.98C328.93,-101.54 355.06,-88.47 374.64,-78.68"/>
<polygon fill="#63b8ff" stroke="#63b8ff" points="376.28,-81.77 383.66,-74.17 373.15,-75.51 376.28,-81.77"/>
</a>
</g>
</g>
<!-- Node10 -->
<g id="Node000010" class="node">
<title>Node10</title>
<g id="a_Node000010"><a xlink:title=" ">
<polygon fill="#e0e0e0" stroke="#999999" points="490,-74 444,-74 444,-55 490,-55 490,-74"/>
<text text-anchor="middle" x="467" y="-62" font-family="Helvetica,sans-Serif" font-size="10.00">cstdio</text>
</a>
</g>
</g>
<!-- Node4&#45;&gt;Node10 -->
<g id="edge9_Node000004_Node000010" class="edge">
<title>Node4&#45;&gt;Node10</title>
<g id="a_edge9_Node000004_Node000010"><a xlink:title=" ">
<path fill="none" stroke="#63b8ff" d="M322.63,-109.98C352.97,-100.64 401.64,-85.64 433.97,-75.68"/>
<polygon fill="#63b8ff" stroke="#63b8ff" points="435.32,-78.92 443.85,-72.63 433.26,-72.23 435.32,-78.92"/>
</a>
</g>
</g>
<!-- Node11 -->
<g id="Node000011" class="node">
<title>Node11</title>
<g id="a_Node000011"><a xlink:title=" ">
<polygon fill="#e0e0e0" stroke="#999999" points="557.5,-74 508.5,-74 508.5,-55 557.5,-55 557.5,-74"/>
<text text-anchor="middle" x="533" y="-62" font-family="Helvetica,sans-Serif" font-size="10.00">cstdlib</text>
</a>
</g>
</g>
<!-- Node4&#45;&gt;Node11 -->
<g id="edge10_Node000004_Node000011" class="edge">
<title>Node4&#45;&gt;Node11</title>
<g id="a_edge10_Node000004_Node000011"><a xlink:title=" ">
<path fill="none" stroke="#63b8ff" d="M327.57,-111.71C366.01,-103.63 432.08,-89.53 498.36,-74.09"/>
<polygon fill="#63b8ff" stroke="#63b8ff" points="499.2,-77.49 508.14,-71.81 497.6,-70.68 499.2,-77.49"/>
</a>
</g>
</g>
<!-- Node12 -->
<g id="Node000012" class="node">
<title>Node12</title>
<g id="a_Node000012"><a xlink:title=" ">
<polygon fill="#e0e0e0" stroke="#999999" points="121,-19 71,-19 71,0 121,0 121,-19"/>
<text text-anchor="middle" x="96" y="-7" font-family="Helvetica,sans-Serif" font-size="10.00">cstdint</text>
</a>
</g>
</g>
<!-- Node4&#45;&gt;Node12 -->
<g id="edge11_Node000004_Node000012" class="edge">
<title>Node4&#45;&gt;Node12</title>
<g id="a_edge11_Node000004_Node000012"><a xlink:title=" ">
<path fill="none" stroke="#63b8ff" d="M262.5,-111.57C216.17,-101.45 135.57,-82.89 125,-74 111.4,-62.56 103.87,-43.4 99.91,-29.11"/>
<polygon fill="#63b8ff" stroke="#63b8ff" points="103.3,-28.23 97.54,-19.34 96.5,-29.88 103.3,-28.23"/>
</a>
</g>
</g>
<!-- Node13 -->
<g id="Node000013" class="node">
<title>Node13</title>
<g id="a_Node000013"><a xlink:title=" ">
<polygon fill="#e0e0e0" stroke="#999999" points="632.5,-74 575.5,-74 575.5,-55 632.5,-55 632.5,-74"/>
<text text-anchor="middle" x="604" y="-62" font-family="Helvetica,sans-Serif" font-size="10.00">ostream</text>
</a>
</g>
</g>
<!-- Node4&#45;&gt;Node13 -->
<g id="edge12_Node000004_Node000013" class="edge">
<title>Node4&#45;&gt;Node13</title>
<g id="a_edge12_Node000004_Node000013"><a xlink:title=" ">
<path fill="none" stroke="#63b8ff" d="M327.65,-111.58C330.47,-111.03 333.28,-110.49 336,-110 435.04,-92.03 463.22,-93.53 565.25,-74.23"/>
<polygon fill="#63b8ff" stroke="#63b8ff" points="566.2,-77.61 575.36,-72.29 564.88,-70.73 566.2,-77.61"/>
</a>
</g>
</g>
<!-- Node14 -->
<g id="Node000014" class="node">
<title>Node14</title>
<g id="a_Node000014"><a xlink:href="../../db/d7c/utf8_8h.html" target="_top" xlink:title="Various UTF8 related helper functions.">
<polygon fill="white" stroke="#666666" points="77.5,-74 32.5,-74 32.5,-55 77.5,-55 77.5,-74"/>
<text text-anchor="middle" x="55" y="-62" font-family="Helvetica,sans-Serif" font-size="10.00">utf8.h</text>
</a>
</g>
</g>
<!-- Node4&#45;&gt;Node14 -->
<g id="edge13_Node000004_Node000014" class="edge">
<title>Node4&#45;&gt;Node14</title>
<g id="a_edge13_Node000004_Node000014"><a xlink:title=" ">
<path fill="none" stroke="#63b8ff" d="M262.28,-111.43C222.14,-102.74 152.02,-87.47 92,-74 90.55,-73.68 89.07,-73.34 87.58,-73"/>
<polygon fill="#63b8ff" stroke="#63b8ff" points="88.22,-69.56 77.69,-70.75 86.66,-76.38 88.22,-69.56"/>
</a>
</g>
</g>
<!-- Node14&#45;&gt;Node5 -->
<g id="edge15_Node000014_Node000005" class="edge">
<title>Node14&#45;&gt;Node5</title>
<g id="a_edge15_Node000014_Node000005"><a xlink:title=" ">
<path fill="none" stroke="#63b8ff" d="M49.55,-54.75C44.99,-47.42 38.33,-36.73 32.71,-27.7"/>
<polygon fill="#63b8ff" stroke="#63b8ff" points="35.6,-25.73 27.35,-19.09 29.66,-29.43 35.6,-25.73"/>
</a>
</g>
</g>
<!-- Node14&#45;&gt;Node12 -->
<g id="edge14_Node000014_Node000012" class="edge">
<title>Node14&#45;&gt;Node12</title>
<g id="a_edge14_Node000014_Node000012"><a xlink:title=" ">
<path fill="none" stroke="#63b8ff" d="M61.77,-54.75C67.56,-47.26 76.06,-36.28 83.14,-27.13"/>
<polygon fill="#63b8ff" stroke="#63b8ff" points="86.01,-29.14 89.36,-19.09 80.47,-24.86 86.01,-29.14"/>
</a>
</g>
</g>
<!-- Node16&#45;&gt;Node2 -->
<g id="edge20_Node000016_Node000002" class="edge">
<title>Node16&#45;&gt;Node2</title>
<g id="a_edge20_Node000016_Node000002"><a xlink:title=" ">
<path fill="none" stroke="#63b8ff" d="M316.19,-164.98C281.61,-155.73 226.34,-140.94 189.14,-130.98"/>
<polygon fill="#63b8ff" stroke="#63b8ff" points="189.72,-127.51 179.15,-128.3 187.91,-134.27 189.72,-127.51"/>
</a>
</g>
</g>
<!-- Node16&#45;&gt;Node3 -->
<g id="edge19_Node000016_Node000003" class="edge">
<title>Node16&#45;&gt;Node3</title>
<g id="a_edge19_Node000016_Node000003"><a xlink:title=" ">
<path fill="none" stroke="#63b8ff" d="M327.6,-164.98C306.98,-156.38 274.89,-142.99 251.31,-133.15"/>
<polygon fill="#63b8ff" stroke="#63b8ff" points="252.35,-129.79 241.78,-129.17 249.66,-136.25 252.35,-129.79"/>
</a>
</g>
</g>
<!-- Node16&#45;&gt;Node4 -->
<g id="edge22_Node000016_Node000004" class="edge">
<title>Node16&#45;&gt;Node4</title>
<g id="a_edge22_Node000016_Node000004"><a xlink:title=" ">
<path fill="none" stroke="#63b8ff" d="M339.25,-164.75C331.53,-157.03 320.1,-145.6 310.78,-136.28"/>
<polygon fill="#63b8ff" stroke="#63b8ff" points="313.14,-133.69 303.59,-129.09 308.19,-138.64 313.14,-133.69"/>
</a>
</g>
</g>
<!-- Node16&#45;&gt;Node15 -->
<g id="edge23_Node000016_Node000015" class="edge">
<title>Node16&#45;&gt;Node15</title>
<g id="a_edge23_Node000016_Node000015"><a xlink:title=" ">
<path fill="none" stroke="#63b8ff" d="M374.19,-164.98C401.44,-156.13 444.3,-142.19 474.78,-132.28"/>
<polygon fill="#63b8ff" stroke="#63b8ff" points="476.18,-135.5 484.61,-129.08 474.01,-128.85 476.18,-135.5"/>
</a>
</g>
</g>
<!-- Node17 -->
<g id="Node000017" class="node">
<title>Node17</title>
<g id="a_Node000017"><a xlink:title=" ">
<polygon fill="#e0e0e0" stroke="#999999" points="390.5,-129 345.5,-129 345.5,-110 390.5,-110 390.5,-129"/>
<text text-anchor="middle" x="368" y="-117" font-family="Helvetica,sans-Serif" font-size="10.00">utility</text>
</a>
</g>
</g>
<!-- Node16&#45;&gt;Node17 -->
<g id="edge18_Node000016_Node000017" class="edge">
<title>Node16&#45;&gt;Node17</title>
<g id="a_edge18_Node000016_Node000017"><a xlink:title=" ">
<path fill="none" stroke="#63b8ff" d="M351.3,-164.75C353.98,-157.65 357.85,-147.4 361.19,-138.56"/>
<polygon fill="#63b8ff" stroke="#63b8ff" points="364.5,-139.68 364.76,-129.09 357.95,-137.21 364.5,-139.68"/>
</a>
</g>
</g>
<!-- Node18 -->
<g id="Node000018" class="node">
<title>Node18</title>
<g id="a_Node000018"><a xlink:title=" ">
<polygon fill="#e0e0e0" stroke="#999999" points="457,-129 409,-129 409,-110 457,-110 457,-129"/>
<text text-anchor="middle" x="433" y="-117" font-family="Helvetica,sans-Serif" font-size="10.00">mutex</text>
</a>
</g>
</g>
<!-- Node16&#45;&gt;Node18 -->
<g id="edge21_Node000016_Node000018" class="edge">
<title>Node16&#45;&gt;Node18</title>
<g id="a_edge21_Node000016_Node000018"><a xlink:title=" ">
<path fill="none" stroke="#63b8ff" d="M361.66,-164.98C374.84,-156.77 395.03,-144.18 410.57,-134.49"/>
<polygon fill="#63b8ff" stroke="#63b8ff" points="412.46,-137.43 419.09,-129.17 408.76,-131.49 412.46,-137.43"/>
</a>
</g>
</g>
</g>
</svg>
