<?xml version="1.0" encoding="UTF-8" standalone="no"?>
<!DOCTYPE svg PUBLIC "-//W3C//DTD SVG 1.1//EN"
 "http://www.w3.org/Graphics/SVG/1.1/DTD/svg11.dtd">
<!-- Generated by graphviz version 2.43.0 (0)
 -->
<!-- Title: RefListManager Pages: 1 -->
<svg width="133pt" height="160pt"
 viewBox="0.00 0.00 133.00 160.00" xmlns="http://www.w3.org/2000/svg" xmlns:xlink="http://www.w3.org/1999/xlink">
<g id="graph0" class="graph" transform="scale(1 1) rotate(0) translate(4 156)">
<title>RefListManager</title>
<!-- Node1 -->
<g id="Node000001" class="node">
<title>Node1</title>
<g id="a_Node000001"><a xlink:title=" ">
<polygon fill="#999999" stroke="#666666" points="109,-19 16,-19 16,0 109,0 109,-19"/>
<text text-anchor="middle" x="62.5" y="-7" font-family="Helvetica,sans-Serif" font-size="10.00">RefListManager</text>
</a>
</g>
</g>
<!-- Node2 -->
<g id="Node000002" class="node">
<title>Node2</title>
<g id="a_Node000002"><a xlink:href="../../d0/d2c/class_linked_map.html" target="_top" xlink:title=" ">
<polygon fill="white" stroke="#666666" points="125,-75 0,-75 0,-56 125,-56 125,-75"/>
<text text-anchor="middle" x="62.5" y="-63" font-family="Helvetica,sans-Serif" font-size="10.00">LinkedMap&lt; RefList &gt;</text>
</a>
</g>
</g>
<!-- Node2&#45;&gt;Node1 -->
<g id="edge1_Node000001_Node000002" class="edge">
<title>Node2&#45;&gt;Node1</title>
<g id="a_edge1_Node000001_Node000002"><a xlink:title=" ">
<path fill="none" stroke="#63b8ff" d="M62.5,-45.3C62.5,-36.41 62.5,-26.28 62.5,-19.25"/>
<polygon fill="#63b8ff" stroke="#63b8ff" points="59,-45.58 62.5,-55.58 66,-45.58 59,-45.58"/>
</a>
</g>
</g>
<!-- Node3 -->
<g id="Node000003" class="node">
<title>Node3</title>
<g id="a_Node000003"><a xlink:href="../../d0/d2c/class_linked_map.html" target="_top" xlink:title="Container class representing a vector of objects with keys.">
<polygon fill="white" stroke="#666666" points="122.5,-152 2.5,-152 2.5,-122 122.5,-122 122.5,-152"/>
<text text-anchor="start" x="10.5" y="-140" font-family="Helvetica,sans-Serif" font-size="10.00">LinkedMap&lt; T, Hash,</text>
<text text-anchor="middle" x="62.5" y="-129" font-family="Helvetica,sans-Serif" font-size="10.00"> KeyEqual, Map &gt;</text>
</a>
</g>
</g>
<!-- Node3&#45;&gt;Node2 -->
<g id="edge2_Node000002_Node000003" class="edge">
<title>Node3&#45;&gt;Node2</title>
<g id="a_edge2_Node000002_Node000003"><a xlink:title=" ">
<path fill="none" stroke="orange" stroke-dasharray="5,2" d="M62.5,-111.56C62.5,-98.95 62.5,-84.35 62.5,-75.27"/>
<polygon fill="orange" stroke="orange" points="59,-111.94 62.5,-121.94 66,-111.94 59,-111.94"/>
</a>
</g>
<text text-anchor="middle" x="92.5" y="-96" font-family="Helvetica,sans-Serif" font-size="10.00" fill="grey"> &lt; RefList &gt;</text>
</g>
</g>
</svg>
