<?xml version="1.0" encoding="UTF-8" standalone="no"?>
<!DOCTYPE svg PUBLIC "-//W3C//DTD SVG 1.1//EN"
 "http://www.w3.org/Graphics/SVG/1.1/DTD/svg11.dtd">
<!-- Generated by graphviz version 2.43.0 (0)
 -->
<!-- Title: Graphical Class Hierarchy Pages: 1 -->
<svg width="250pt" height="175pt"
 viewBox="0.00 0.00 250.00 175.00" xmlns="http://www.w3.org/2000/svg" xmlns:xlink="http://www.w3.org/1999/xlink">
<g id="graph0" class="graph" transform="scale(1 1) rotate(0) translate(4 171)">
<title>Graphical Class Hierarchy</title>
<!-- Node0 -->
<g id="Node000000" class="node">
<title>Node0</title>
<g id="a_Node000000"><a xlink:href="d3/d8e/class_output_generator.html" target="_top" xlink:title="Base class for shared implementation for all output generators.">
<polygon fill="white" stroke="#666666" points="98,-111 0,-111 0,-92 98,-92 98,-111"/>
<text text-anchor="middle" x="49" y="-99" font-family="Helvetica,sans-Serif" font-size="10.00">OutputGenerator</text>
</a>
</g>
</g>
<!-- Node1 -->
<g id="Node000001" class="node">
<title>Node1</title>
<g id="a_Node000001"><a xlink:href="d1/d72/class_docbook_generator.html" target="_top" xlink:title=" ">
<polygon fill="white" stroke="#666666" points="242,-130 134,-130 134,-111 242,-111 242,-130"/>
<text text-anchor="middle" x="188" y="-118" font-family="Helvetica,sans-Serif" font-size="10.00">DocbookGenerator</text>
</a>
</g>
</g>
<!-- Node0&#45;&gt;Node1 -->
<g id="edge219_Node000000_Node000001" class="edge">
<title>Node0&#45;&gt;Node1</title>
<g id="a_edge219_Node000000_Node000001"><a xlink:title=" ">
<path fill="none" stroke="#63b8ff" d="M108.36,-109.59C116.72,-110.75 125.28,-111.94 133.54,-113.09"/>
<polygon fill="#63b8ff" stroke="#63b8ff" points="108.69,-106.11 98.3,-108.2 107.73,-113.04 108.69,-106.11"/>
</a>
</g>
</g>
<!-- Node3 -->
<g id="Node000003" class="node">
<title>Node3</title>
<g id="a_Node000003"><a xlink:href="d7/d41/class_html_generator.html" target="_top" xlink:title="Generator for HTML output.">
<polygon fill="white" stroke="#666666" points="232.5,-93 143.5,-93 143.5,-74 232.5,-74 232.5,-93"/>
<text text-anchor="middle" x="188" y="-81" font-family="Helvetica,sans-Serif" font-size="10.00">HtmlGenerator</text>
</a>
</g>
</g>
<!-- Node0&#45;&gt;Node3 -->
<g id="edge220_Node000000_Node000003" class="edge">
<title>Node0&#45;&gt;Node3</title>
<g id="a_edge220_Node000000_Node000003"><a xlink:title=" ">
<path fill="none" stroke="#63b8ff" d="M108.42,-93.82C120.1,-92.29 132.17,-90.7 143.25,-89.25"/>
<polygon fill="#63b8ff" stroke="#63b8ff" points="107.76,-90.38 98.3,-95.15 108.67,-97.32 107.76,-90.38"/>
</a>
</g>
</g>
<!-- Node4 -->
<g id="Node000004" class="node">
<title>Node4</title>
<g id="a_Node000004"><a xlink:href="d3/d77/class_latex_generator.html" target="_top" xlink:title="Generator for LaTeX output.">
<polygon fill="white" stroke="#666666" points="234,-56 142,-56 142,-37 234,-37 234,-56"/>
<text text-anchor="middle" x="188" y="-44" font-family="Helvetica,sans-Serif" font-size="10.00">LatexGenerator</text>
</a>
</g>
</g>
<!-- Node0&#45;&gt;Node4 -->
<g id="edge221_Node000000_Node000004" class="edge">
<title>Node0&#45;&gt;Node4</title>
<g id="a_edge221_Node000000_Node000004"><a xlink:title=" ">
<path fill="none" stroke="#63b8ff" d="M86.49,-88.28C90.4,-86.72 94.3,-85.11 98,-83.5 114.4,-76.35 117.55,-72.53 134,-65.5 141.82,-62.16 150.45,-58.89 158.43,-56.04"/>
<polygon fill="#63b8ff" stroke="#63b8ff" points="84.93,-85.13 76.86,-91.99 87.45,-91.66 84.93,-85.13"/>
</a>
</g>
</g>
<!-- Node5 -->
<g id="Node000005" class="node">
<title>Node5</title>
<g id="a_Node000005"><a xlink:href="de/da5/class_man_generator.html" target="_top" xlink:title="Generator for Man page output.">
<polygon fill="white" stroke="#666666" points="231,-19 145,-19 145,0 231,0 231,-19"/>
<text text-anchor="middle" x="188" y="-7" font-family="Helvetica,sans-Serif" font-size="10.00">ManGenerator</text>
</a>
</g>
</g>
<!-- Node0&#45;&gt;Node5 -->
<g id="edge222_Node000000_Node000005" class="edge">
<title>Node0&#45;&gt;Node5</title>
<g id="a_edge222_Node000000_Node000005"><a xlink:title=" ">
<path fill="none" stroke="#63b8ff" d="M93.06,-87.03C94.79,-85.93 96.44,-84.76 98,-83.5 121.02,-64.92 110.69,-45.72 134,-27.5 138.36,-24.09 143.41,-21.3 148.62,-19.04"/>
<polygon fill="#63b8ff" stroke="#63b8ff" points="91.16,-84.08 84.02,-91.9 94.48,-90.24 91.16,-84.08"/>
</a>
</g>
</g>
<!-- Node6 -->
<g id="Node000006" class="node">
<title>Node6</title>
<g id="a_Node000006"><a xlink:href="d0/da4/class_r_t_f_generator.html" target="_top" xlink:title="Generator for RTF output.">
<polygon fill="white" stroke="#666666" points="229.5,-167 146.5,-167 146.5,-148 229.5,-148 229.5,-167"/>
<text text-anchor="middle" x="188" y="-155" font-family="Helvetica,sans-Serif" font-size="10.00">RTFGenerator</text>
</a>
</g>
</g>
<!-- Node0&#45;&gt;Node6 -->
<g id="edge223_Node000000_Node000006" class="edge">
<title>Node0&#45;&gt;Node6</title>
<g id="a_edge223_Node000000_Node000006"><a xlink:title=" ">
<path fill="none" stroke="#63b8ff" d="M79.16,-115.54C95.18,-123.03 115.51,-132.2 134,-139.5 141.41,-142.43 149.51,-145.33 157.1,-147.91"/>
<polygon fill="#63b8ff" stroke="#63b8ff" points="80.33,-112.22 69.79,-111.11 77.34,-118.55 80.33,-112.22"/>
</a>
</g>
</g>
<!-- Node2 -->
<g id="Node000002" class="node">
<title>Node2</title>
<g id="a_Node000002"><a xlink:href="d9/de9/class_output_gen_intf.html" target="_top" xlink:title="Abstract interface for output generators.">
<polygon fill="white" stroke="#666666" points="92,-74 6,-74 6,-55 92,-55 92,-74"/>
<text text-anchor="middle" x="49" y="-62" font-family="Helvetica,sans-Serif" font-size="10.00">OutputGenIntf</text>
</a>
</g>
</g>
<!-- Node2&#45;&gt;Node1 -->
<g id="edge224_Node000002_Node000001" class="edge">
<title>Node2&#45;&gt;Node1</title>
<g id="a_edge224_Node000002_Node000001"><a xlink:title=" ">
<path fill="none" stroke="#63b8ff" d="M85.09,-77.88C89.47,-79.7 93.86,-81.59 98,-83.5 114.44,-91.06 117.38,-95.35 134,-102.5 141.05,-105.54 148.8,-108.41 156.14,-110.94"/>
<polygon fill="#63b8ff" stroke="#63b8ff" points="86.21,-74.55 75.63,-74.05 83.58,-81.04 86.21,-74.55"/>
</a>
</g>
</g>
<!-- Node2&#45;&gt;Node3 -->
<g id="edge225_Node000002_Node000003" class="edge">
<title>Node2&#45;&gt;Node3</title>
<g id="a_edge225_Node000002_Node000003"><a xlink:title=" ">
<path fill="none" stroke="#63b8ff" d="M102.34,-71.76C115.85,-73.63 130.24,-75.63 143.26,-77.43"/>
<polygon fill="#63b8ff" stroke="#63b8ff" points="102.61,-68.26 92.22,-70.36 101.65,-75.2 102.61,-68.26"/>
</a>
</g>
</g>
<!-- Node2&#45;&gt;Node4 -->
<g id="edge226_Node000002_Node000004" class="edge">
<title>Node2&#45;&gt;Node4</title>
<g id="a_edge226_Node000002_Node000004"><a xlink:title=" ">
<path fill="none" stroke="#63b8ff" d="M102.43,-57.61C115.41,-55.91 129.22,-54.09 141.83,-52.44"/>
<polygon fill="#63b8ff" stroke="#63b8ff" points="101.68,-54.18 92.22,-58.95 102.59,-61.12 101.68,-54.18"/>
</a>
</g>
</g>
<!-- Node2&#45;&gt;Node5 -->
<g id="edge227_Node000002_Node000005" class="edge">
<title>Node2&#45;&gt;Node5</title>
<g id="a_edge227_Node000002_Node000005"><a xlink:title=" ">
<path fill="none" stroke="#63b8ff" d="M79.84,-50.6C95.77,-43.37 115.8,-34.58 134,-27.5 141.52,-24.57 149.73,-21.65 157.4,-19.04"/>
<polygon fill="#63b8ff" stroke="#63b8ff" points="78.14,-47.52 70.5,-54.87 81.05,-53.89 78.14,-47.52"/>
</a>
</g>
</g>
<!-- Node2&#45;&gt;Node6 -->
<g id="edge228_Node000002_Node000006" class="edge">
<title>Node2&#45;&gt;Node6</title>
<g id="a_edge228_Node000002_Node000006"><a xlink:title=" ">
<path fill="none" stroke="#63b8ff" d="M91.48,-78.88C93.78,-80.3 95.97,-81.83 98,-83.5 120.85,-102.29 110.69,-121.28 134,-139.5 138.36,-142.91 143.41,-145.7 148.62,-147.96"/>
<polygon fill="#63b8ff" stroke="#63b8ff" points="92.75,-75.6 82.27,-74.04 89.49,-81.79 92.75,-75.6"/>
</a>
</g>
</g>
</g>
</svg>
