<?xml version="1.0" encoding="UTF-8" standalone="no"?>
<!DOCTYPE svg PUBLIC "-//W3C//DTD SVG 1.1//EN"
 "http://www.w3.org/Graphics/SVG/1.1/DTD/svg11.dtd">
<!-- Generated by graphviz version 2.43.0 (0)
 -->
<!-- Title: Graphical Class Hierarchy Pages: 1 -->
<svg width="330pt" height="360pt"
 viewBox="0.00 0.00 330.00 360.00" xmlns="http://www.w3.org/2000/svg" xmlns:xlink="http://www.w3.org/1999/xlink">
<g id="graph0" class="graph" transform="scale(1 1) rotate(0) translate(4 356)">
<title>Graphical Class Hierarchy</title>
<!-- Node0 -->
<g id="Node000000" class="node">
<title>Node0</title>
<g id="a_Node000000"><a xlink:href="db/d75/structfmt_1_1formatter.html" target="_top" xlink:title=" ">
<polygon fill="white" stroke="#666666" points="113,-190.5 0,-190.5 0,-160.5 113,-160.5 113,-190.5"/>
<text text-anchor="start" x="8" y="-178.5" font-family="Helvetica,sans-Serif" font-size="10.00">fmt::formatter&lt; std</text>
<text text-anchor="middle" x="56.5" y="-167.5" font-family="Helvetica,sans-Serif" font-size="10.00">::string &gt;</text>
</a>
</g>
</g>
<!-- Node1 -->
<g id="Node000001" class="node">
<title>Node1</title>
<g id="a_Node000001"><a xlink:href="d5/de6/structfmt_1_1formatter_3_01_entry_type_01_4.html" target="_top" xlink:title="adds support for formatting EntryType">
<polygon fill="white" stroke="#666666" points="314,-352 157,-352 157,-333 314,-333 314,-352"/>
<text text-anchor="middle" x="235.5" y="-340" font-family="Helvetica,sans-Serif" font-size="10.00">fmt::formatter&lt; EntryType &gt;</text>
</a>
</g>
</g>
<!-- Node0&#45;&gt;Node1 -->
<g id="edge153_Node000000_Node000001" class="edge">
<title>Node0&#45;&gt;Node1</title>
<g id="a_edge153_Node000000_Node000001"><a xlink:title=" ">
<path fill="none" stroke="#63b8ff" d="M65.58,-200.11C77.96,-233.75 104.92,-293.44 149,-324.5 153.84,-327.91 159.18,-330.69 164.77,-332.97"/>
<polygon fill="#63b8ff" stroke="#63b8ff" points="68.84,-198.83 62.21,-190.57 62.24,-201.17 68.84,-198.83"/>
</a>
</g>
</g>
<!-- Node2 -->
<g id="Node000002" class="node">
<title>Node2</title>
<g id="a_Node000002"><a xlink:href="d9/d4a/structfmt_1_1formatter_3_01_member_type_01_4.html" target="_top" xlink:title="adds support for formatting MemberType">
<polygon fill="white" stroke="#666666" points="321.5,-315 149.5,-315 149.5,-296 321.5,-296 321.5,-315"/>
<text text-anchor="middle" x="235.5" y="-303" font-family="Helvetica,sans-Serif" font-size="10.00">fmt::formatter&lt; MemberType &gt;</text>
</a>
</g>
</g>
<!-- Node0&#45;&gt;Node2 -->
<g id="edge154_Node000000_Node000002" class="edge">
<title>Node0&#45;&gt;Node2</title>
<g id="a_edge154_Node000000_Node000002"><a xlink:title=" ">
<path fill="none" stroke="#63b8ff" d="M70.37,-199.42C85.61,-225.34 113.47,-265.88 149,-287.5 154.57,-290.89 160.68,-293.65 167,-295.89"/>
<polygon fill="#63b8ff" stroke="#63b8ff" points="73.33,-197.55 65.33,-190.6 67.25,-201.02 73.33,-197.55"/>
</a>
</g>
</g>
<!-- Node3 -->
<g id="Node000003" class="node">
<title>Node3</title>
<g id="a_Node000003"><a xlink:href="d2/d84/structfmt_1_1formatter_3_01_method_types_01_4.html" target="_top" xlink:title="adds support for formatting MethodTypes">
<polygon fill="white" stroke="#666666" points="322,-278 149,-278 149,-259 322,-259 322,-278"/>
<text text-anchor="middle" x="235.5" y="-266" font-family="Helvetica,sans-Serif" font-size="10.00">fmt::formatter&lt; MethodTypes &gt;</text>
</a>
</g>
</g>
<!-- Node0&#45;&gt;Node3 -->
<g id="edge155_Node000000_Node000003" class="edge">
<title>Node0&#45;&gt;Node3</title>
<g id="a_edge155_Node000000_Node000003"><a xlink:title=" ">
<path fill="none" stroke="#63b8ff" d="M78.8,-198.07C96.11,-215.06 122.02,-237.56 149,-250.5 156.11,-253.91 163.86,-256.68 171.7,-258.92"/>
<polygon fill="#63b8ff" stroke="#63b8ff" points="81.01,-195.33 71.47,-190.71 76.04,-200.26 81.01,-195.33"/>
</a>
</g>
</g>
<!-- Node4 -->
<g id="Node000004" class="node">
<title>Node4</title>
<g id="a_Node000004"><a xlink:href="d3/d53/structfmt_1_1formatter_3_01_protection_01_4.html" target="_top" xlink:title="adds support for formatting Protected">
<polygon fill="white" stroke="#666666" points="314.5,-241 156.5,-241 156.5,-222 314.5,-222 314.5,-241"/>
<text text-anchor="middle" x="235.5" y="-229" font-family="Helvetica,sans-Serif" font-size="10.00">fmt::formatter&lt; Protection &gt;</text>
</a>
</g>
</g>
<!-- Node0&#45;&gt;Node4 -->
<g id="edge156_Node000000_Node000004" class="edge">
<title>Node0&#45;&gt;Node4</title>
<g id="a_edge156_Node000000_Node000004"><a xlink:title=" ">
<path fill="none" stroke="#63b8ff" d="M98.87,-194.6C114.36,-201.24 132.26,-208.31 149,-213.5 159.43,-216.73 170.76,-219.57 181.65,-221.98"/>
<polygon fill="#63b8ff" stroke="#63b8ff" points="100.13,-191.33 89.57,-190.54 97.33,-197.75 100.13,-191.33"/>
</a>
</g>
</g>
<!-- Node5 -->
<g id="Node000005" class="node">
<title>Node5</title>
<g id="a_Node000005"><a xlink:href="d1/dc4/structfmt_1_1formatter_3_01_q_c_string_01_4.html" target="_top" xlink:title="adds support for formatting QCString">
<polygon fill="white" stroke="#666666" points="311.5,-204 159.5,-204 159.5,-185 311.5,-185 311.5,-204"/>
<text text-anchor="middle" x="235.5" y="-192" font-family="Helvetica,sans-Serif" font-size="10.00">fmt::formatter&lt; QCString &gt;</text>
</a>
</g>
</g>
<!-- Node0&#45;&gt;Node5 -->
<g id="edge157_Node000000_Node000005" class="edge">
<title>Node0&#45;&gt;Node5</title>
<g id="a_edge157_Node000000_Node000005"><a xlink:title=" ">
<path fill="none" stroke="#63b8ff" d="M123.21,-182.55C134.99,-183.82 147.36,-185.15 159.39,-186.44"/>
<polygon fill="#63b8ff" stroke="#63b8ff" points="123.33,-179.05 113.02,-181.46 122.59,-186.01 123.33,-179.05"/>
</a>
</g>
</g>
<!-- Node6 -->
<g id="Node000006" class="node">
<title>Node6</title>
<g id="a_Node000006"><a xlink:href="db/dff/structfmt_1_1formatter_3_01_relates_type_01_4.html" target="_top" xlink:title="adds support for formatting RelatesType">
<polygon fill="white" stroke="#666666" points="319.5,-167 151.5,-167 151.5,-148 319.5,-148 319.5,-167"/>
<text text-anchor="middle" x="235.5" y="-155" font-family="Helvetica,sans-Serif" font-size="10.00">fmt::formatter&lt; RelatesType &gt;</text>
</a>
</g>
</g>
<!-- Node0&#45;&gt;Node6 -->
<g id="edge158_Node000000_Node000006" class="edge">
<title>Node0&#45;&gt;Node6</title>
<g id="a_edge158_Node000000_Node000006"><a xlink:title=" ">
<path fill="none" stroke="#63b8ff" d="M123.19,-168.82C132.36,-167.89 141.87,-166.92 151.3,-165.96"/>
<polygon fill="#63b8ff" stroke="#63b8ff" points="122.61,-165.36 113.02,-169.85 123.32,-172.32 122.61,-165.36"/>
</a>
</g>
</g>
<!-- Node7 -->
<g id="Node000007" class="node">
<title>Node7</title>
<g id="a_Node000007"><a xlink:href="db/db7/structfmt_1_1formatter_3_01_relationship_01_4.html" target="_top" xlink:title="adds support for formatting RelationShip">
<polygon fill="white" stroke="#666666" points="320.5,-130 150.5,-130 150.5,-111 320.5,-111 320.5,-130"/>
<text text-anchor="middle" x="235.5" y="-118" font-family="Helvetica,sans-Serif" font-size="10.00">fmt::formatter&lt; Relationship &gt;</text>
</a>
</g>
</g>
<!-- Node0&#45;&gt;Node7 -->
<g id="edge159_Node000000_Node000007" class="edge">
<title>Node0&#45;&gt;Node7</title>
<g id="a_edge159_Node000000_Node000007"><a xlink:title=" ">
<path fill="none" stroke="#63b8ff" d="M101.69,-156.5C116.55,-150.55 133.33,-144.29 149,-139.5 160.63,-135.94 173.34,-132.75 185.33,-130.05"/>
<polygon fill="#63b8ff" stroke="#63b8ff" points="100.18,-153.34 92.24,-160.35 102.82,-159.82 100.18,-153.34"/>
</a>
</g>
</g>
<!-- Node8 -->
<g id="Node000008" class="node">
<title>Node8</title>
<g id="a_Node000008"><a xlink:href="db/dad/structfmt_1_1formatter_3_01_specifier_01_4.html" target="_top" xlink:title="adds support for formatting Specifier">
<polygon fill="white" stroke="#666666" points="311,-93 160,-93 160,-74 311,-74 311,-93"/>
<text text-anchor="middle" x="235.5" y="-81" font-family="Helvetica,sans-Serif" font-size="10.00">fmt::formatter&lt; Specifier &gt;</text>
</a>
</g>
</g>
<!-- Node0&#45;&gt;Node8 -->
<g id="edge160_Node000000_Node000008" class="edge">
<title>Node0&#45;&gt;Node8</title>
<g id="a_edge160_Node000000_Node000008"><a xlink:title=" ">
<path fill="none" stroke="#63b8ff" d="M79.26,-153.34C96.66,-136.89 122.45,-115.2 149,-102.5 157.09,-98.63 166,-95.53 174.91,-93.06"/>
<polygon fill="#63b8ff" stroke="#63b8ff" points="76.64,-151 71.89,-160.47 81.51,-156.03 76.64,-151"/>
</a>
</g>
</g>
<!-- Node9 -->
<g id="Node000009" class="node">
<title>Node9</title>
<g id="a_Node000009"><a xlink:href="df/dca/structfmt_1_1formatter_3_01_src_lang_ext_01_4.html" target="_top" xlink:title="adds support for formatting SrcLangExt">
<polygon fill="white" stroke="#666666" points="317,-56 154,-56 154,-37 317,-37 317,-56"/>
<text text-anchor="middle" x="235.5" y="-44" font-family="Helvetica,sans-Serif" font-size="10.00">fmt::formatter&lt; SrcLangExt &gt;</text>
</a>
</g>
</g>
<!-- Node0&#45;&gt;Node9 -->
<g id="edge161_Node000000_Node000009" class="edge">
<title>Node0&#45;&gt;Node9</title>
<g id="a_edge161_Node000000_Node000009"><a xlink:title=" ">
<path fill="none" stroke="#63b8ff" d="M70.77,-151.67C86.19,-126.26 114.06,-86.82 149,-65.5 155.36,-61.62 162.42,-58.53 169.67,-56.07"/>
<polygon fill="#63b8ff" stroke="#63b8ff" points="67.72,-149.94 65.66,-160.33 73.75,-153.5 67.72,-149.94"/>
</a>
</g>
</g>
<!-- Node10 -->
<g id="Node000010" class="node">
<title>Node10</title>
<g id="a_Node000010"><a xlink:href="db/d8f/structfmt_1_1formatter_3_01_type_specifier_01_4.html" target="_top" xlink:title="adds support for formatting TypeSpecifier">
<polygon fill="white" stroke="#666666" points="322,-19 149,-19 149,0 322,0 322,-19"/>
<text text-anchor="middle" x="235.5" y="-7" font-family="Helvetica,sans-Serif" font-size="10.00">fmt::formatter&lt; TypeSpecifier &gt;</text>
</a>
</g>
</g>
<!-- Node0&#45;&gt;Node10 -->
<g id="edge162_Node000000_Node000010" class="edge">
<title>Node0&#45;&gt;Node10</title>
<g id="a_edge162_Node000000_Node000010"><a xlink:title=" ">
<path fill="none" stroke="#63b8ff" d="M65.92,-150.77C78.55,-117.57 105.65,-59.21 149,-28.5 154.46,-24.63 160.57,-21.53 166.94,-19.05"/>
<polygon fill="#63b8ff" stroke="#63b8ff" points="62.62,-149.62 62.46,-160.21 69.19,-152.02 62.62,-149.62"/>
</a>
</g>
</g>
</g>
</svg>
