<?xml version="1.0" encoding="UTF-8" standalone="no"?>
<!DOCTYPE svg PUBLIC "-//W3C//DTD SVG 1.1//EN"
 "http://www.w3.org/Graphics/SVG/1.1/DTD/svg11.dtd">
<!-- Generated by graphviz version 2.43.0 (0)
 -->
<!-- Title: Graphical Class Hierarchy Pages: 1 -->
<svg width="239pt" height="64pt"
 viewBox="0.00 0.00 239.00 64.00" xmlns="http://www.w3.org/2000/svg" xmlns:xlink="http://www.w3.org/1999/xlink">
<g id="graph0" class="graph" transform="scale(1 1) rotate(0) translate(4 60)">
<title>Graphical Class Hierarchy</title>
<!-- Node0 -->
<g id="Node000000" class="node">
<title>Node0</title>
<g id="a_Node000000"><a xlink:href="d4/d9c/class_template_escape_intf.html" target="_top" xlink:title="Interface used to escape characters in a string.">
<polygon fill="white" stroke="#666666" points="113,-37 0,-37 0,-18 113,-18 113,-37"/>
<text text-anchor="middle" x="56.5" y="-25" font-family="Helvetica,sans-Serif" font-size="10.00">TemplateEscapeIntf</text>
</a>
</g>
</g>
<!-- Node1 -->
<g id="Node000001" class="node">
<title>Node1</title>
<g id="a_Node000001"><a xlink:href="dc/d97/class_html_escaper.html" target="_top" xlink:title=" ">
<polygon fill="white" stroke="#666666" points="229.5,-56 150.5,-56 150.5,-37 229.5,-37 229.5,-56"/>
<text text-anchor="middle" x="190" y="-44" font-family="Helvetica,sans-Serif" font-size="10.00">HtmlEscaper</text>
</a>
</g>
</g>
<!-- Node0&#45;&gt;Node1 -->
<g id="edge293_Node000000_Node000001" class="edge">
<title>Node0&#45;&gt;Node1</title>
<g id="a_edge293_Node000000_Node000001"><a xlink:title=" ">
<path fill="none" stroke="#63b8ff" d="M123.27,-37C132.51,-38.34 141.76,-39.67 150.27,-40.9"/>
<polygon fill="#63b8ff" stroke="#63b8ff" points="123.67,-33.52 113.27,-35.56 122.66,-40.45 123.67,-33.52"/>
</a>
</g>
</g>
<!-- Node2 -->
<g id="Node000002" class="node">
<title>Node2</title>
<g id="a_Node000002"><a xlink:href="da/dd3/class_latex_escaper.html" target="_top" xlink:title=" ">
<polygon fill="white" stroke="#666666" points="231,-19 149,-19 149,0 231,0 231,-19"/>
<text text-anchor="middle" x="190" y="-7" font-family="Helvetica,sans-Serif" font-size="10.00">LatexEscaper</text>
</a>
</g>
</g>
<!-- Node0&#45;&gt;Node2 -->
<g id="edge294_Node000000_Node000002" class="edge">
<title>Node0&#45;&gt;Node2</title>
<g id="a_edge294_Node000000_Node000002"><a xlink:title=" ">
<path fill="none" stroke="#63b8ff" d="M123.38,-18.48C132.02,-17.3 140.66,-16.12 148.7,-15.02"/>
<polygon fill="#63b8ff" stroke="#63b8ff" points="122.7,-15.04 113.27,-19.87 123.65,-21.98 122.7,-15.04"/>
</a>
</g>
</g>
</g>
</svg>
