<?xml version="1.0" encoding="UTF-8" standalone="no"?>
<!DOCTYPE svg PUBLIC "-//W3C//DTD SVG 1.1//EN"
 "http://www.w3.org/Graphics/SVG/1.1/DTD/svg11.dtd">
<!-- Generated by graphviz version 2.43.0 (0)
 -->
<!-- Title: Graphical Class Hierarchy Pages: 1 -->
<svg width="427pt" height="374pt"
 viewBox="0.00 0.00 427.00 374.00" xmlns="http://www.w3.org/2000/svg" xmlns:xlink="http://www.w3.org/1999/xlink">
<g id="graph0" class="graph" transform="scale(1 1) rotate(0) translate(4 370)">
<title>Graphical Class Hierarchy</title>
<!-- Node0 -->
<g id="Node000000" class="node">
<title>Node0</title>
<g id="a_Node000000"><a xlink:href="d8/da1/structanonymous__namespace_02tagreader_8cpp_03_1_1_tag_compound_info.html" target="_top" xlink:title="Base class for all compound types.">
<polygon fill="white" stroke="#666666" points="189,-198 0,-198 0,-168 189,-168 189,-198"/>
<text text-anchor="start" x="8" y="-186" font-family="Helvetica,sans-Serif" font-size="10.00">anonymous_namespace</text>
<text text-anchor="middle" x="94.5" y="-175" font-family="Helvetica,sans-Serif" font-size="10.00">{tagreader.cpp}::TagCompoundInfo</text>
</a>
</g>
</g>
<!-- Node1 -->
<g id="Node000001" class="node">
<title>Node1</title>
<g id="a_Node000001"><a xlink:href="d6/dbb/structanonymous__namespace_02tagreader_8cpp_03_1_1_tag_class_info.html" target="_top" xlink:title="Container for class specific info that can be read from a tagfile.">
<polygon fill="white" stroke="#666666" points="403.5,-366 240.5,-366 240.5,-336 403.5,-336 403.5,-366"/>
<text text-anchor="start" x="248.5" y="-354" font-family="Helvetica,sans-Serif" font-size="10.00">anonymous_namespace</text>
<text text-anchor="middle" x="322" y="-343" font-family="Helvetica,sans-Serif" font-size="10.00">{tagreader.cpp}::TagClassInfo</text>
</a>
</g>
</g>
<!-- Node0&#45;&gt;Node1 -->
<g id="edge1_Node000000_Node000001" class="edge">
<title>Node0&#45;&gt;Node1</title>
<g id="a_edge1_Node000000_Node000001"><a xlink:title=" ">
<path fill="none" stroke="#63b8ff" d="M110.2,-206.73C131.46,-239.01 173.91,-296.26 225,-327 230.74,-330.45 236.96,-333.41 243.38,-335.95"/>
<polygon fill="#63b8ff" stroke="#63b8ff" points="113.14,-204.83 104.77,-198.33 107.26,-208.63 113.14,-204.83"/>
</a>
</g>
</g>
<!-- Node2 -->
<g id="Node000002" class="node">
<title>Node2</title>
<g id="a_Node000002"><a xlink:href="da/d0a/structanonymous__namespace_02tagreader_8cpp_03_1_1_tag_concept_info.html" target="_top" xlink:title="Container for concept specific info that can be read from a tagfile.">
<polygon fill="white" stroke="#666666" points="410,-318 234,-318 234,-288 410,-288 410,-318"/>
<text text-anchor="start" x="242" y="-306" font-family="Helvetica,sans-Serif" font-size="10.00">anonymous_namespace</text>
<text text-anchor="middle" x="322" y="-295" font-family="Helvetica,sans-Serif" font-size="10.00">{tagreader.cpp}::TagConceptInfo</text>
</a>
</g>
</g>
<!-- Node0&#45;&gt;Node2 -->
<g id="edge2_Node000000_Node000002" class="edge">
<title>Node0&#45;&gt;Node2</title>
<g id="a_edge2_Node000000_Node000002"><a xlink:title=" ">
<path fill="none" stroke="#63b8ff" d="M119.02,-204.97C143.63,-226.82 184.31,-259.77 225,-279 232.22,-282.41 239.99,-285.38 247.86,-287.95"/>
<polygon fill="#63b8ff" stroke="#63b8ff" points="121.08,-202.12 111.31,-198.02 116.39,-207.32 121.08,-202.12"/>
</a>
</g>
</g>
<!-- Node3 -->
<g id="Node000003" class="node">
<title>Node3</title>
<g id="a_Node000003"><a xlink:href="d9/da7/structanonymous__namespace_02tagreader_8cpp_03_1_1_tag_dir_info.html" target="_top" xlink:title="Container for directory specific info that can be read from a tagfile.">
<polygon fill="white" stroke="#666666" points="397.5,-270 246.5,-270 246.5,-240 397.5,-240 397.5,-270"/>
<text text-anchor="start" x="254.5" y="-258" font-family="Helvetica,sans-Serif" font-size="10.00">anonymous_namespace</text>
<text text-anchor="middle" x="322" y="-247" font-family="Helvetica,sans-Serif" font-size="10.00">{tagreader.cpp}::TagDirInfo</text>
</a>
</g>
</g>
<!-- Node0&#45;&gt;Node3 -->
<g id="edge3_Node000000_Node000003" class="edge">
<title>Node0&#45;&gt;Node3</title>
<g id="a_edge3_Node000000_Node000003"><a xlink:title=" ">
<path fill="none" stroke="#63b8ff" d="M142.2,-201.72C166.64,-211.16 197.19,-222.4 225,-231 235.18,-234.15 246.05,-237.18 256.7,-239.96"/>
<polygon fill="#63b8ff" stroke="#63b8ff" points="143.4,-198.44 132.81,-198.07 140.86,-204.96 143.4,-198.44"/>
</a>
</g>
</g>
<!-- Node4 -->
<g id="Node000004" class="node">
<title>Node4</title>
<g id="a_Node000004"><a xlink:href="d4/d4b/structanonymous__namespace_02tagreader_8cpp_03_1_1_tag_file_info.html" target="_top" xlink:title="Container for file specific info that can be read from a tagfile.">
<polygon fill="white" stroke="#666666" points="399,-222 245,-222 245,-192 399,-192 399,-222"/>
<text text-anchor="start" x="253" y="-210" font-family="Helvetica,sans-Serif" font-size="10.00">anonymous_namespace</text>
<text text-anchor="middle" x="322" y="-199" font-family="Helvetica,sans-Serif" font-size="10.00">{tagreader.cpp}::TagFileInfo</text>
</a>
</g>
</g>
<!-- Node0&#45;&gt;Node4 -->
<g id="edge4_Node000000_Node000004" class="edge">
<title>Node0&#45;&gt;Node4</title>
<g id="a_edge4_Node000000_Node000004"><a xlink:title=" ">
<path fill="none" stroke="#63b8ff" d="M199.21,-194.04C214.55,-195.67 230.12,-197.33 244.76,-198.89"/>
<polygon fill="#63b8ff" stroke="#63b8ff" points="199.49,-190.55 189.17,-192.97 198.75,-197.51 199.49,-190.55"/>
</a>
</g>
</g>
<!-- Node5 -->
<g id="Node000005" class="node">
<title>Node5</title>
<g id="a_Node000005"><a xlink:href="d3/d8e/structanonymous__namespace_02tagreader_8cpp_03_1_1_tag_group_info.html" target="_top" xlink:title="Container for group specific info that can be read from a tagfile.">
<polygon fill="white" stroke="#666666" points="405,-174 239,-174 239,-144 405,-144 405,-174"/>
<text text-anchor="start" x="247" y="-162" font-family="Helvetica,sans-Serif" font-size="10.00">anonymous_namespace</text>
<text text-anchor="middle" x="322" y="-151" font-family="Helvetica,sans-Serif" font-size="10.00">{tagreader.cpp}::TagGroupInfo</text>
</a>
</g>
</g>
<!-- Node0&#45;&gt;Node5 -->
<g id="edge5_Node000000_Node000005" class="edge">
<title>Node0&#45;&gt;Node5</title>
<g id="a_edge5_Node000000_Node000005"><a xlink:title=" ">
<path fill="none" stroke="#63b8ff" d="M199.26,-171.96C212.51,-170.55 225.92,-169.12 238.76,-167.75"/>
<polygon fill="#63b8ff" stroke="#63b8ff" points="198.75,-168.49 189.17,-173.03 199.49,-175.45 198.75,-168.49"/>
</a>
</g>
</g>
<!-- Node6 -->
<g id="Node000006" class="node">
<title>Node6</title>
<g id="a_Node000006"><a xlink:href="d3/d36/structanonymous__namespace_02tagreader_8cpp_03_1_1_tag_namespace_info.html" target="_top" xlink:title="Container for namespace specific info that can be read from a tagfile.">
<polygon fill="white" stroke="#666666" points="419,-126 225,-126 225,-96 419,-96 419,-126"/>
<text text-anchor="start" x="233" y="-114" font-family="Helvetica,sans-Serif" font-size="10.00">anonymous_namespace</text>
<text text-anchor="middle" x="322" y="-103" font-family="Helvetica,sans-Serif" font-size="10.00">{tagreader.cpp}::TagNamespaceInfo</text>
</a>
</g>
</g>
<!-- Node0&#45;&gt;Node6 -->
<g id="edge6_Node000000_Node000006" class="edge">
<title>Node0&#45;&gt;Node6</title>
<g id="a_edge6_Node000000_Node000006"><a xlink:title=" ">
<path fill="none" stroke="#63b8ff" d="M142.2,-164.28C166.64,-154.84 197.19,-143.6 225,-135 235.18,-131.85 246.05,-128.82 256.7,-126.04"/>
<polygon fill="#63b8ff" stroke="#63b8ff" points="140.86,-161.04 132.81,-167.93 143.4,-167.56 140.86,-161.04"/>
</a>
</g>
</g>
<!-- Node7 -->
<g id="Node000007" class="node">
<title>Node7</title>
<g id="a_Node000007"><a xlink:href="d3/da0/structanonymous__namespace_02tagreader_8cpp_03_1_1_tag_package_info.html" target="_top" xlink:title="Container for package specific info that can be read from a tagfile.">
<polygon fill="white" stroke="#666666" points="410,-78 234,-78 234,-48 410,-48 410,-78"/>
<text text-anchor="start" x="242" y="-66" font-family="Helvetica,sans-Serif" font-size="10.00">anonymous_namespace</text>
<text text-anchor="middle" x="322" y="-55" font-family="Helvetica,sans-Serif" font-size="10.00">{tagreader.cpp}::TagPackageInfo</text>
</a>
</g>
</g>
<!-- Node0&#45;&gt;Node7 -->
<g id="edge7_Node000000_Node000007" class="edge">
<title>Node0&#45;&gt;Node7</title>
<g id="a_edge7_Node000000_Node000007"><a xlink:title=" ">
<path fill="none" stroke="#63b8ff" d="M119.02,-161.03C143.63,-139.18 184.31,-106.23 225,-87 232.22,-83.59 239.99,-80.62 247.86,-78.05"/>
<polygon fill="#63b8ff" stroke="#63b8ff" points="116.39,-158.68 111.31,-167.98 121.08,-163.88 116.39,-158.68"/>
</a>
</g>
</g>
<!-- Node8 -->
<g id="Node000008" class="node">
<title>Node8</title>
<g id="a_Node000008"><a xlink:href="d2/d70/structanonymous__namespace_02tagreader_8cpp_03_1_1_tag_page_info.html" target="_top" xlink:title="Container for page specific info that can be read from a tagfile.">
<polygon fill="white" stroke="#666666" points="402,-30 242,-30 242,0 402,0 402,-30"/>
<text text-anchor="start" x="250" y="-18" font-family="Helvetica,sans-Serif" font-size="10.00">anonymous_namespace</text>
<text text-anchor="middle" x="322" y="-7" font-family="Helvetica,sans-Serif" font-size="10.00">{tagreader.cpp}::TagPageInfo</text>
</a>
</g>
</g>
<!-- Node0&#45;&gt;Node8 -->
<g id="edge8_Node000000_Node000008" class="edge">
<title>Node0&#45;&gt;Node8</title>
<g id="a_edge8_Node000000_Node000008"><a xlink:title=" ">
<path fill="none" stroke="#63b8ff" d="M110.2,-159.27C131.46,-126.99 173.91,-69.74 225,-39 230.74,-35.55 236.96,-32.59 243.38,-30.05"/>
<polygon fill="#63b8ff" stroke="#63b8ff" points="107.26,-157.37 104.77,-167.67 113.14,-161.17 107.26,-157.37"/>
</a>
</g>
</g>
</g>
</svg>
