<?xml version="1.0" encoding="UTF-8" standalone="no"?>
<!DOCTYPE svg PUBLIC "-//W3C//DTD SVG 1.1//EN"
 "http://www.w3.org/Graphics/SVG/1.1/DTD/svg11.dtd">
<!-- Generated by graphviz version 2.43.0 (0)
 -->
<!-- Title: Graphical Class Hierarchy Pages: 1 -->
<svg width="232pt" height="508pt"
 viewBox="0.00 0.00 232.00 508.00" xmlns="http://www.w3.org/2000/svg" xmlns:xlink="http://www.w3.org/1999/xlink">
<g id="graph0" class="graph" transform="scale(1 1) rotate(0) translate(4 504)">
<title>Graphical Class Hierarchy</title>
<!-- Node0 -->
<g id="Node000000" class="node">
<title>Node0</title>
<g id="a_Node000000"><a xlink:title=" ">
<polygon fill="#e0e0e0" stroke="#999999" points="68,-259 0,-259 0,-240 68,-240 68,-259"/>
<text text-anchor="middle" x="34" y="-247" font-family="Helvetica,sans-Serif" font-size="10.00">std::vector</text>
</a>
</g>
</g>
<!-- Node1 -->
<g id="Node000001" class="node">
<title>Node1</title>
<g id="a_Node000001"><a xlink:href="d6/d69/class_constraint_class_list.html" target="_top" xlink:title=" ">
<polygon fill="white" stroke="#666666" points="219,-500 109,-500 109,-481 219,-481 219,-500"/>
<text text-anchor="middle" x="164" y="-488" font-family="Helvetica,sans-Serif" font-size="10.00">ConstraintClassList</text>
</a>
</g>
</g>
<!-- Node0&#45;&gt;Node1 -->
<g id="edge241_Node000000_Node000001" class="edge">
<title>Node0&#45;&gt;Node1</title>
<g id="a_edge241_Node000000_Node000001"><a xlink:title=" ">
<path fill="none" stroke="#63b8ff" d="M35.24,-269.15C36.84,-312.2 46.8,-415.53 104,-472.5 107.41,-475.9 111.45,-478.66 115.79,-480.9"/>
<polygon fill="#63b8ff" stroke="#63b8ff" points="38.73,-269.04 34.98,-259.13 31.74,-269.22 38.73,-269.04"/>
</a>
</g>
</g>
<!-- Node2 -->
<g id="Node000002" class="node">
<title>Node2</title>
<g id="a_Node000002"><a xlink:href="dc/d2a/class_dir_list.html" target="_top" xlink:title="A list of directories.">
<polygon fill="white" stroke="#666666" points="188,-463 140,-463 140,-444 188,-444 188,-463"/>
<text text-anchor="middle" x="164" y="-451" font-family="Helvetica,sans-Serif" font-size="10.00">DirList</text>
</a>
</g>
</g>
<!-- Node0&#45;&gt;Node2 -->
<g id="edge242_Node000000_Node000002" class="edge">
<title>Node0&#45;&gt;Node2</title>
<g id="a_edge242_Node000000_Node000002"><a xlink:title=" ">
<path fill="none" stroke="#63b8ff" d="M36.69,-269.45C40.97,-307.31 55.62,-389.9 104,-435.5 113.66,-444.61 127.81,-449.12 139.83,-451.34"/>
<polygon fill="#63b8ff" stroke="#63b8ff" points="40.14,-268.82 35.67,-259.22 33.18,-269.52 40.14,-268.82"/>
</a>
</g>
</g>
<!-- Node3 -->
<g id="Node000003" class="node">
<title>Node3</title>
<g id="a_Node000003"><a xlink:href="d1/d48/class_example_list.html" target="_top" xlink:title=" ">
<polygon fill="white" stroke="#666666" points="202.5,-426 125.5,-426 125.5,-407 202.5,-407 202.5,-426"/>
<text text-anchor="middle" x="164" y="-414" font-family="Helvetica,sans-Serif" font-size="10.00">ExampleList</text>
</a>
</g>
</g>
<!-- Node0&#45;&gt;Node3 -->
<g id="edge243_Node000000_Node000003" class="edge">
<title>Node0&#45;&gt;Node3</title>
<g id="a_edge243_Node000000_Node000003"><a xlink:title=" ">
<path fill="none" stroke="#63b8ff" d="M38.68,-268.98C45.7,-300.76 64.01,-363.66 104,-398.5 110.06,-403.78 117.63,-407.5 125.31,-410.14"/>
<polygon fill="#63b8ff" stroke="#63b8ff" points="42.1,-268.23 36.65,-259.14 35.24,-269.64 42.1,-268.23"/>
</a>
</g>
</g>
<!-- Node4 -->
<g id="Node000004" class="node">
<title>Node4</title>
<g id="a_Node000004"><a xlink:href="d0/d18/class_file_list.html" target="_top" xlink:title=" ">
<polygon fill="white" stroke="#666666" points="189.5,-389 138.5,-389 138.5,-370 189.5,-370 189.5,-389"/>
<text text-anchor="middle" x="164" y="-377" font-family="Helvetica,sans-Serif" font-size="10.00">FileList</text>
</a>
</g>
</g>
<!-- Node0&#45;&gt;Node4 -->
<g id="edge244_Node000000_Node000004" class="edge">
<title>Node0&#45;&gt;Node4</title>
<g id="a_edge244_Node000000_Node000004"><a xlink:title=" ">
<path fill="none" stroke="#63b8ff" d="M41.85,-268.71C51.74,-293.71 72.36,-337.08 104,-361.5 113.92,-369.16 127.09,-373.57 138.48,-376.11"/>
<polygon fill="#63b8ff" stroke="#63b8ff" points="45.08,-267.35 38.27,-259.23 38.53,-269.82 45.08,-267.35"/>
</a>
</g>
</g>
<!-- Node5 -->
<g id="Node000005" class="node">
<title>Node5</title>
<g id="a_Node000005"><a xlink:href="dd/db9/class_file_name.html" target="_top" xlink:title="Class representing all files with a certain base name.">
<polygon fill="white" stroke="#666666" points="195.5,-352 132.5,-352 132.5,-333 195.5,-333 195.5,-352"/>
<text text-anchor="middle" x="164" y="-340" font-family="Helvetica,sans-Serif" font-size="10.00">FileName</text>
</a>
</g>
</g>
<!-- Node0&#45;&gt;Node5 -->
<g id="edge245_Node000000_Node000005" class="edge">
<title>Node0&#45;&gt;Node5</title>
<g id="a_edge245_Node000000_Node000005"><a xlink:title=" ">
<path fill="none" stroke="#63b8ff" d="M47.24,-267.58C59.66,-284.6 80.37,-309.63 104,-324.5 112.52,-329.86 122.74,-333.71 132.26,-336.44"/>
<polygon fill="#63b8ff" stroke="#63b8ff" points="49.86,-265.22 41.23,-259.07 44.14,-269.26 49.86,-265.22"/>
</a>
</g>
</g>
<!-- Node6 -->
<g id="Node000006" class="node">
<title>Node6</title>
<g id="a_Node000006"><a xlink:href="d3/d3b/class_group_list.html" target="_top" xlink:title=" ">
<polygon fill="white" stroke="#666666" points="195.5,-315 132.5,-315 132.5,-296 195.5,-296 195.5,-315"/>
<text text-anchor="middle" x="164" y="-303" font-family="Helvetica,sans-Serif" font-size="10.00">GroupList</text>
</a>
</g>
</g>
<!-- Node0&#45;&gt;Node6 -->
<g id="edge246_Node000000_Node000006" class="edge">
<title>Node0&#45;&gt;Node6</title>
<g id="a_edge246_Node000000_Node000006"><a xlink:title=" ">
<path fill="none" stroke="#63b8ff" d="M58.94,-264.29C71.94,-271.91 88.49,-280.95 104,-287.5 112.98,-291.29 123.03,-294.66 132.25,-297.43"/>
<polygon fill="#63b8ff" stroke="#63b8ff" points="60.54,-261.17 50.16,-259.05 56.95,-267.18 60.54,-261.17"/>
</a>
</g>
</g>
<!-- Node7 -->
<g id="Node000007" class="node">
<title>Node7</title>
<g id="a_Node000007"><a xlink:href="db/d4d/class_html_attrib_list.html" target="_top" xlink:title="Class representing a list of HTML attributes.">
<polygon fill="white" stroke="#666666" points="206.5,-278 121.5,-278 121.5,-259 206.5,-259 206.5,-278"/>
<text text-anchor="middle" x="164" y="-266" font-family="Helvetica,sans-Serif" font-size="10.00">HtmlAttribList</text>
</a>
</g>
</g>
<!-- Node0&#45;&gt;Node7 -->
<g id="edge247_Node000000_Node000007" class="edge">
<title>Node0&#45;&gt;Node7</title>
<g id="a_edge247_Node000000_Node000007"><a xlink:title=" ">
<path fill="none" stroke="#63b8ff" d="M78.51,-255.96C92.29,-258 107.49,-260.26 121.16,-262.29"/>
<polygon fill="#63b8ff" stroke="#63b8ff" points="78.7,-252.45 68.3,-254.44 77.67,-259.37 78.7,-252.45"/>
</a>
</g>
</g>
<!-- Node8 -->
<g id="Node000008" class="node">
<title>Node8</title>
<g id="a_Node000008"><a xlink:href="d5/d53/class_include_info_list.html" target="_top" xlink:title=" ">
<polygon fill="white" stroke="#666666" points="208,-241 120,-241 120,-222 208,-222 208,-241"/>
<text text-anchor="middle" x="164" y="-229" font-family="Helvetica,sans-Serif" font-size="10.00">IncludeInfoList</text>
</a>
</g>
</g>
<!-- Node0&#45;&gt;Node8 -->
<g id="edge248_Node000000_Node000008" class="edge">
<title>Node0&#45;&gt;Node8</title>
<g id="a_edge248_Node000000_Node000008"><a xlink:title=" ">
<path fill="none" stroke="#63b8ff" d="M78.22,-243.42C91.6,-241.54 106.35,-239.47 119.73,-237.58"/>
<polygon fill="#63b8ff" stroke="#63b8ff" points="77.71,-239.96 68.3,-244.82 78.69,-246.89 77.71,-239.96"/>
</a>
</g>
</g>
<!-- Node9 -->
<g id="Node000009" class="node">
<title>Node9</title>
<g id="a_Node000009"><a xlink:href="df/d11/class_member_group_list.html" target="_top" xlink:title=" ">
<polygon fill="white" stroke="#666666" points="216,-204 112,-204 112,-185 216,-185 216,-204"/>
<text text-anchor="middle" x="164" y="-192" font-family="Helvetica,sans-Serif" font-size="10.00">MemberGroupList</text>
</a>
</g>
</g>
<!-- Node0&#45;&gt;Node9 -->
<g id="edge249_Node000000_Node000009" class="edge">
<title>Node0&#45;&gt;Node9</title>
<g id="a_edge249_Node000000_Node000009"><a xlink:title=" ">
<path fill="none" stroke="#63b8ff" d="M60.1,-235.09C72.97,-228.04 89.05,-219.75 104,-213.5 112.24,-210.05 121.34,-206.84 129.87,-204.08"/>
<polygon fill="#63b8ff" stroke="#63b8ff" points="58.39,-232.04 51.35,-239.96 61.79,-238.16 58.39,-232.04"/>
</a>
</g>
</g>
<!-- Node10 -->
<g id="Node000010" class="node">
<title>Node10</title>
<g id="a_Node000010"><a xlink:href="d4/d15/class_member_group_ref_list.html" target="_top" xlink:title=" ">
<polygon fill="white" stroke="#666666" points="224,-167 104,-167 104,-148 224,-148 224,-167"/>
<text text-anchor="middle" x="164" y="-155" font-family="Helvetica,sans-Serif" font-size="10.00">MemberGroupRefList</text>
</a>
</g>
</g>
<!-- Node0&#45;&gt;Node10 -->
<g id="edge250_Node000000_Node000010" class="edge">
<title>Node0&#45;&gt;Node10</title>
<g id="a_edge250_Node000000_Node000010"><a xlink:title=" ">
<path fill="none" stroke="#63b8ff" d="M47.6,-231.72C60.15,-215.23 80.85,-191.1 104,-176.5 110.01,-172.71 116.84,-169.61 123.67,-167.1"/>
<polygon fill="#63b8ff" stroke="#63b8ff" points="44.62,-229.87 41.5,-239.99 50.25,-234.02 44.62,-229.87"/>
</a>
</g>
</g>
<!-- Node11 -->
<g id="Node000011" class="node">
<title>Node11</title>
<g id="a_Node000011"><a xlink:href="dd/d5a/class_member_lists.html" target="_top" xlink:title=" ">
<polygon fill="white" stroke="#666666" points="204,-130 124,-130 124,-111 204,-111 204,-130"/>
<text text-anchor="middle" x="164" y="-118" font-family="Helvetica,sans-Serif" font-size="10.00">MemberLists</text>
</a>
</g>
</g>
<!-- Node0&#45;&gt;Node11 -->
<g id="edge251_Node000000_Node000011" class="edge">
<title>Node0&#45;&gt;Node11</title>
<g id="a_edge251_Node000000_Node000011"><a xlink:title=" ">
<path fill="none" stroke="#63b8ff" d="M42.13,-230.38C52.24,-205.85 73,-163.61 104,-139.5 109.86,-134.94 116.85,-131.46 123.93,-128.81"/>
<polygon fill="#63b8ff" stroke="#63b8ff" points="38.76,-229.4 38.35,-239.99 45.27,-231.96 38.76,-229.4"/>
</a>
</g>
</g>
<!-- Node12 -->
<g id="Node000012" class="node">
<title>Node12</title>
<g id="a_Node000012"><a xlink:href="d7/dc2/class_module_list.html" target="_top" xlink:title=" ">
<polygon fill="white" stroke="#666666" points="199,-93 129,-93 129,-74 199,-74 199,-93"/>
<text text-anchor="middle" x="164" y="-81" font-family="Helvetica,sans-Serif" font-size="10.00">ModuleList</text>
</a>
</g>
</g>
<!-- Node0&#45;&gt;Node12 -->
<g id="edge252_Node000000_Node000012" class="edge">
<title>Node0&#45;&gt;Node12</title>
<g id="a_edge252_Node000000_Node000012"><a xlink:title=" ">
<path fill="none" stroke="#63b8ff" d="M39.02,-229.47C46.38,-197.96 64.98,-136.84 104,-102.5 111.03,-96.31 120.09,-92.14 129,-89.32"/>
<polygon fill="#63b8ff" stroke="#63b8ff" points="35.51,-229.13 36.8,-239.64 42.35,-230.62 35.51,-229.13"/>
</a>
</g>
</g>
<!-- Node13 -->
<g id="Node000013" class="node">
<title>Node13</title>
<g id="a_Node000013"><a xlink:href="df/d10/class_nav_index_entry_list.html" target="_top" xlink:title=" ">
<polygon fill="white" stroke="#666666" points="217,-56 111,-56 111,-37 217,-37 217,-56"/>
<text text-anchor="middle" x="164" y="-44" font-family="Helvetica,sans-Serif" font-size="10.00">NavIndexEntryList</text>
</a>
</g>
</g>
<!-- Node0&#45;&gt;Node13 -->
<g id="edge253_Node000000_Node000013" class="edge">
<title>Node0&#45;&gt;Node13</title>
<g id="a_edge253_Node000000_Node000013"><a xlink:title=" ">
<path fill="none" stroke="#63b8ff" d="M36.82,-229.83C41.33,-192.48 56.35,-110.95 104,-65.5 108.05,-61.64 112.89,-58.56 118.03,-56.11"/>
<polygon fill="#63b8ff" stroke="#63b8ff" points="33.33,-229.6 35.74,-239.92 40.29,-230.35 33.33,-229.6"/>
</a>
</g>
</g>
<!-- Node14 -->
<g id="Node000014" class="node">
<title>Node14</title>
<g id="a_Node000014"><a xlink:href="dd/d1c/class_uses_class_list.html" target="_top" xlink:title=" ">
<polygon fill="white" stroke="#666666" points="206,-19 122,-19 122,0 206,0 206,-19"/>
<text text-anchor="middle" x="164" y="-7" font-family="Helvetica,sans-Serif" font-size="10.00">UsesClassList</text>
</a>
</g>
</g>
<!-- Node0&#45;&gt;Node14 -->
<g id="edge254_Node000000_Node000014" class="edge">
<title>Node0&#45;&gt;Node14</title>
<g id="a_edge254_Node000000_Node000014"><a xlink:title=" ">
<path fill="none" stroke="#63b8ff" d="M35.37,-229.82C37.26,-187.11 47.76,-85.25 104,-28.5 108.92,-23.53 115.15,-19.86 121.7,-17.15"/>
<polygon fill="#63b8ff" stroke="#63b8ff" points="31.87,-229.88 35.04,-239.99 38.86,-230.11 31.87,-229.88"/>
</a>
</g>
</g>
</g>
</svg>
