<?xml version="1.0" encoding="UTF-8" standalone="no"?>
<!DOCTYPE svg PUBLIC "-//W3C//DTD SVG 1.1//EN"
 "http://www.w3.org/Graphics/SVG/1.1/DTD/svg11.dtd">
<!-- Generated by graphviz version 2.43.0 (0)
 -->
<!-- Title: DocIndexEntry Pages: 1 -->
<svg width="1292pt" height="490pt"
 viewBox="0.00 0.00 1292.00 489.50" xmlns="http://www.w3.org/2000/svg" xmlns:xlink="http://www.w3.org/1999/xlink">
<g id="graph0" class="graph" transform="scale(1 1) rotate(0) translate(4 485.5)">
<title>DocIndexEntry</title>
<!-- Node1 -->
<g id="Node000001" class="node">
<title>Node1</title>
<g id="a_Node000001"><a xlink:title="Node representing an entry in the index.">
<polygon fill="#999999" stroke="#666666" points="1284,-397 1196,-397 1196,-378 1284,-378 1284,-397"/>
<text text-anchor="middle" x="1240" y="-385" font-family="Helvetica,sans-Serif" font-size="10.00">DocIndexEntry</text>
</a>
</g>
</g>
<!-- Node2 -->
<g id="Node000002" class="node">
<title>Node2</title>
<g id="a_Node000002"><a xlink:href="../../d9/d0e/class_doc_node.html" target="_top" xlink:title="Abstract node interface with type information.">
<polygon fill="white" stroke="#666666" points="1159,-330 1098,-330 1098,-311 1159,-311 1159,-330"/>
<text text-anchor="middle" x="1128.5" y="-318" font-family="Helvetica,sans-Serif" font-size="10.00">DocNode</text>
</a>
</g>
</g>
<!-- Node2&#45;&gt;Node1 -->
<g id="edge1_Node000001_Node000002" class="edge">
<title>Node2&#45;&gt;Node1</title>
<g id="a_edge1_Node000001_Node000002"><a xlink:title=" ">
<path fill="none" stroke="#63b8ff" d="M1159.93,-334.66C1166.01,-337.74 1172.28,-341.1 1178,-344.5 1195.37,-354.84 1214.22,-368.54 1226.3,-377.67"/>
<polygon fill="#63b8ff" stroke="#63b8ff" points="1161.16,-331.36 1150.64,-330.09 1158.07,-337.64 1161.16,-331.36"/>
</a>
</g>
</g>
<!-- Node3 -->
<g id="Node000003" class="node">
<title>Node3</title>
<g id="a_Node000003"><a xlink:href="../../da/d02/class_doc_parser.html" target="_top" xlink:title=" ">
<polygon fill="white" stroke="#666666" points="1013,-311 948,-311 948,-292 1013,-292 1013,-311"/>
<text text-anchor="middle" x="980.5" y="-299" font-family="Helvetica,sans-Serif" font-size="10.00">DocParser</text>
</a>
</g>
</g>
<!-- Node3&#45;&gt;Node2 -->
<g id="edge2_Node000002_Node000003" class="edge">
<title>Node3&#45;&gt;Node2</title>
<g id="a_edge2_Node000002_Node000003"><a xlink:title=" ">
<path fill="none" stroke="#9a32cd" stroke-dasharray="5,2" d="M1023.35,-306.95C1047.17,-310.05 1076.44,-313.85 1097.87,-316.64"/>
<polygon fill="#9a32cd" stroke="#9a32cd" points="1023.55,-303.44 1013.18,-305.62 1022.64,-310.38 1023.55,-303.44"/>
</a>
</g>
<text text-anchor="middle" x="1055.5" y="-316.5" font-family="Helvetica,sans-Serif" font-size="10.00" fill="grey"> m_parser</text>
</g>
<!-- Node4 -->
<g id="Node000004" class="node">
<title>Node4</title>
<g id="a_Node000004"><a xlink:href="../../de/dad/class_i_doc_parser.html" target="_top" xlink:title="opaque parser interface">
<polygon fill="white" stroke="#666666" points="845,-329 777,-329 777,-310 845,-310 845,-329"/>
<text text-anchor="middle" x="811" y="-317" font-family="Helvetica,sans-Serif" font-size="10.00">IDocParser</text>
</a>
</g>
</g>
<!-- Node4&#45;&gt;Node3 -->
<g id="edge3_Node000003_Node000004" class="edge">
<title>Node4&#45;&gt;Node3</title>
<g id="a_edge3_Node000003_Node000004"><a xlink:title=" ">
<path fill="none" stroke="#63b8ff" d="M855.34,-314.84C884.3,-311.73 921.73,-307.71 947.89,-304.9"/>
<polygon fill="#63b8ff" stroke="#63b8ff" points="854.66,-311.4 845.09,-315.94 855.41,-318.36 854.66,-311.4"/>
</a>
</g>
</g>
<!-- Node5 -->
<g id="Node000005" class="node">
<title>Node5</title>
<g id="a_Node000005"><a xlink:href="../../d8/d7d/struct_doc_parser_context.html" target="_top" xlink:title="Parser&#39;s context to store all global variables.">
<polygon fill="white" stroke="#666666" points="863,-253 759,-253 759,-234 863,-234 863,-253"/>
<text text-anchor="middle" x="811" y="-241" font-family="Helvetica,sans-Serif" font-size="10.00">DocParserContext</text>
</a>
</g>
</g>
<!-- Node5&#45;&gt;Node3 -->
<g id="edge4_Node000003_Node000005" class="edge">
<title>Node5&#45;&gt;Node3</title>
<g id="a_edge4_Node000003_Node000005"><a xlink:title=" ">
<path fill="none" stroke="#9a32cd" stroke-dasharray="5,2" d="M873,-253.39C891.7,-257.5 912.06,-263.08 930,-270.5 943.31,-276 957.08,-284.94 966.71,-291.81"/>
<polygon fill="#9a32cd" stroke="#9a32cd" points="873.61,-249.95 863.1,-251.32 872.17,-256.8 873.61,-249.95"/>
</a>
</g>
<text text-anchor="middle" x="905.5" y="-273.5" font-family="Helvetica,sans-Serif" font-size="10.00" fill="grey"> context</text>
</g>
<!-- Node6 -->
<g id="Node000006" class="node">
<title>Node6</title>
<g id="a_Node000006"><a xlink:href="../../d5/dcc/class_definition.html" target="_top" xlink:title="The common base class of all entity definitions found in the sources.">
<polygon fill="white" stroke="#666666" points="293,-442 229,-442 229,-423 293,-423 293,-442"/>
<text text-anchor="middle" x="261" y="-430" font-family="Helvetica,sans-Serif" font-size="10.00">Definition</text>
</a>
</g>
</g>
<!-- Node6&#45;&gt;Node1 -->
<g id="edge19_Node000001_Node000006" class="edge">
<title>Node6&#45;&gt;Node1</title>
<g id="a_edge19_Node000001_Node000006"><a xlink:title=" ">
<path fill="none" stroke="#9a32cd" stroke-dasharray="5,2" d="M303.31,-440.63C363.71,-451.79 479.79,-470.5 579.5,-470.5 579.5,-470.5 579.5,-470.5 1129.5,-470.5 1177.69,-470.5 1218.01,-418.82 1232.87,-397.02"/>
<polygon fill="#9a32cd" stroke="#9a32cd" points="303.87,-437.18 293.4,-438.77 302.58,-444.06 303.87,-437.18"/>
</a>
</g>
<text text-anchor="middle" x="905.5" y="-473.5" font-family="Helvetica,sans-Serif" font-size="10.00" fill="grey"> m_scope</text>
</g>
<!-- Node6&#45;&gt;Node5 -->
<g id="edge5_Node000005_Node000006" class="edge">
<title>Node6&#45;&gt;Node5</title>
<g id="a_edge5_Node000005_Node000006"><a xlink:title=" ">
<path fill="none" stroke="#9a32cd" stroke-dasharray="5,2" d="M302.81,-423.52C373.02,-407.47 520.64,-371.16 640,-324.5 695.17,-302.93 705.13,-289.13 759,-264.5 767.62,-260.56 777.2,-256.52 785.71,-253.06"/>
<polygon fill="#9a32cd" stroke="#9a32cd" points="302,-420.11 293.02,-425.74 303.55,-426.94 302,-420.11"/>
</a>
</g>
<text text-anchor="middle" x="580.5" y="-366.5" font-family="Helvetica,sans-Serif" font-size="10.00" fill="grey"> scope</text>
</g>
<!-- Node12 -->
<g id="Node000012" class="node">
<title>Node12</title>
<g id="a_Node000012"><a xlink:href="../../da/d09/class_member_def.html" target="_top" xlink:title="A model of a class/file/namespace member symbol.">
<polygon fill="white" stroke="#666666" points="617.5,-442 543.5,-442 543.5,-423 617.5,-423 617.5,-442"/>
<text text-anchor="middle" x="580.5" y="-430" font-family="Helvetica,sans-Serif" font-size="10.00">MemberDef</text>
</a>
</g>
</g>
<!-- Node6&#45;&gt;Node12 -->
<g id="edge12_Node000012_Node000006" class="edge">
<title>Node6&#45;&gt;Node12</title>
<g id="a_edge12_Node000012_Node000006"><a xlink:title=" ">
<path fill="none" stroke="#63b8ff" d="M303.3,-432.5C365.81,-432.5 483.49,-432.5 543.02,-432.5"/>
<polygon fill="#63b8ff" stroke="#63b8ff" points="303.02,-429 293.02,-432.5 303.02,-436 303.02,-429"/>
</a>
</g>
</g>
<!-- Node7 -->
<g id="Node000007" class="node">
<title>Node7</title>
<g id="a_Node000007"><a xlink:href="../../d9/d45/class_q_c_string.html" target="_top" xlink:title="This is an alternative implementation of QCString.">
<polygon fill="white" stroke="#666666" points="290.5,-252 231.5,-252 231.5,-233 290.5,-233 290.5,-252"/>
<text text-anchor="middle" x="261" y="-240" font-family="Helvetica,sans-Serif" font-size="10.00">QCString</text>
</a>
</g>
</g>
<!-- Node7&#45;&gt;Node1 -->
<g id="edge18_Node000001_Node000007" class="edge">
<title>Node7&#45;&gt;Node1</title>
<g id="a_edge18_Node000001_Node000007"><a xlink:title=" ">
<path fill="none" stroke="#9a32cd" stroke-dasharray="5,2" d="M296.05,-255.57C345.05,-273.84 438.61,-306.78 521,-324.5 647.44,-351.7 680.67,-358.5 810,-358.5 810,-358.5 810,-358.5 1129.5,-358.5 1160.38,-358.5 1194.56,-369.41 1216.39,-377.84"/>
<polygon fill="#9a32cd" stroke="#9a32cd" points="297.17,-252.25 286.58,-252.01 294.71,-258.8 297.17,-252.25"/>
</a>
</g>
<text text-anchor="middle" x="905.5" y="-361.5" font-family="Helvetica,sans-Serif" font-size="10.00" fill="grey"> m_entry</text>
</g>
<!-- Node7&#45;&gt;Node5 -->
<g id="edge6_Node000005_Node000007" class="edge">
<title>Node7&#45;&gt;Node5</title>
<g id="a_edge6_Node000005_Node000007"><a xlink:title=" ">
<path fill="none" stroke="#9a32cd" stroke-dasharray="5,2" d="M300.93,-242.57C397.9,-242.75 650.27,-243.21 758.97,-243.41"/>
<polygon fill="#9a32cd" stroke="#9a32cd" points="300.7,-239.07 290.69,-242.55 300.68,-246.07 300.7,-239.07"/>
</a>
</g>
<text text-anchor="middle" x="580.5" y="-312.5" font-family="Helvetica,sans-Serif" font-size="10.00" fill="grey"> context</text>
<text text-anchor="middle" x="580.5" y="-301.5" font-family="Helvetica,sans-Serif" font-size="10.00" fill="grey">exampleName</text>
<text text-anchor="middle" x="580.5" y="-290.5" font-family="Helvetica,sans-Serif" font-size="10.00" fill="grey">fileName</text>
<text text-anchor="middle" x="580.5" y="-279.5" font-family="Helvetica,sans-Serif" font-size="10.00" fill="grey">includeFileName</text>
<text text-anchor="middle" x="580.5" y="-268.5" font-family="Helvetica,sans-Serif" font-size="10.00" fill="grey">includeFileText</text>
<text text-anchor="middle" x="580.5" y="-257.5" font-family="Helvetica,sans-Serif" font-size="10.00" fill="grey">relPath</text>
<text text-anchor="middle" x="580.5" y="-246.5" font-family="Helvetica,sans-Serif" font-size="10.00" fill="grey">searchUrl</text>
</g>
<!-- Node13 -->
<g id="Node000013" class="node">
<title>Node13</title>
<g id="a_Node000013"><a xlink:href="../../d6/df4/struct_token_info.html" target="_top" xlink:title="Data associated with a token used by the comment block parser.">
<polygon fill="white" stroke="#666666" points="612,-149 549,-149 549,-130 612,-130 612,-149"/>
<text text-anchor="middle" x="580.5" y="-137" font-family="Helvetica,sans-Serif" font-size="10.00">TokenInfo</text>
</a>
</g>
</g>
<!-- Node7&#45;&gt;Node13 -->
<g id="edge14_Node000013_Node000007" class="edge">
<title>Node7&#45;&gt;Node13</title>
<g id="a_edge14_Node000013_Node000007"><a xlink:title=" ">
<path fill="none" stroke="#9a32cd" stroke-dasharray="5,2" d="M273.1,-224.06C289.03,-199.61 320.91,-157.57 361,-140.5 423.3,-113.98 504.95,-123.96 548.68,-132.43"/>
<polygon fill="#9a32cd" stroke="#9a32cd" points="269.99,-222.44 267.62,-232.77 275.91,-226.17 269.99,-222.44"/>
</a>
</g>
<text text-anchor="middle" x="432" y="-220.5" font-family="Helvetica,sans-Serif" font-size="10.00" fill="grey"> attribsStr</text>
<text text-anchor="middle" x="432" y="-209.5" font-family="Helvetica,sans-Serif" font-size="10.00" fill="grey">chars</text>
<text text-anchor="middle" x="432" y="-198.5" font-family="Helvetica,sans-Serif" font-size="10.00" fill="grey">name</text>
<text text-anchor="middle" x="432" y="-187.5" font-family="Helvetica,sans-Serif" font-size="10.00" fill="grey">sectionId</text>
<text text-anchor="middle" x="432" y="-176.5" font-family="Helvetica,sans-Serif" font-size="10.00" fill="grey">simpleSectName</text>
<text text-anchor="middle" x="432" y="-165.5" font-family="Helvetica,sans-Serif" font-size="10.00" fill="grey">simpleSectText</text>
<text text-anchor="middle" x="432" y="-154.5" font-family="Helvetica,sans-Serif" font-size="10.00" fill="grey">text</text>
<text text-anchor="middle" x="432" y="-143.5" font-family="Helvetica,sans-Serif" font-size="10.00" fill="grey">verb</text>
</g>
<!-- Node8 -->
<g id="Node000008" class="node">
<title>Node8</title>
<g id="a_Node000008"><a xlink:href="../../d9/d82/class_iterable_stack.html" target="_top" xlink:title=" ">
<polygon fill="white" stroke="#666666" points="640,-83.5 521,-83.5 521,-53.5 640,-53.5 640,-83.5"/>
<text text-anchor="start" x="529" y="-71.5" font-family="Helvetica,sans-Serif" font-size="10.00">IterableStack&lt; const</text>
<text text-anchor="middle" x="580.5" y="-60.5" font-family="Helvetica,sans-Serif" font-size="10.00"> DocNodeVariant * &gt;</text>
</a>
</g>
</g>
<!-- Node8&#45;&gt;Node5 -->
<g id="edge7_Node000005_Node000008" class="edge">
<title>Node8&#45;&gt;Node5</title>
<g id="a_edge7_Node000005_Node000008"><a xlink:title=" ">
<path fill="none" stroke="#9a32cd" stroke-dasharray="5,2" d="M632.45,-87.58C665.67,-101.65 708.7,-123.09 741,-150.5 770.59,-175.61 794.78,-215.72 804.9,-233.94"/>
<polygon fill="#9a32cd" stroke="#9a32cd" points="633.5,-84.22 622.92,-83.63 630.82,-90.69 633.5,-84.22"/>
</a>
</g>
<text text-anchor="middle" x="699.5" y="-164.5" font-family="Helvetica,sans-Serif" font-size="10.00" fill="grey"> initialStyleStack</text>
<text text-anchor="middle" x="699.5" y="-153.5" font-family="Helvetica,sans-Serif" font-size="10.00" fill="grey">styleStack</text>
</g>
<!-- Node9 -->
<g id="Node000009" class="node">
<title>Node9</title>
<g id="a_Node000009"><a xlink:title=" ">
<polygon fill="white" stroke="#666666" points="343,-41 179,-41 179,0 343,0 343,-41"/>
<text text-anchor="start" x="187" y="-29" font-family="Helvetica,sans-Serif" font-size="10.00">std::stack&lt; const DocNode</text>
<text text-anchor="start" x="187" y="-18" font-family="Helvetica,sans-Serif" font-size="10.00">Variant * , std::deque</text>
<text text-anchor="middle" x="261" y="-7" font-family="Helvetica,sans-Serif" font-size="10.00">&lt;const DocNodeVariant * &gt; &gt;</text>
</a>
</g>
</g>
<!-- Node9&#45;&gt;Node8 -->
<g id="edge8_Node000008_Node000009" class="edge">
<title>Node9&#45;&gt;Node8</title>
<g id="a_edge8_Node000008_Node000009"><a xlink:title=" ">
<path fill="none" stroke="#63b8ff" d="M353.27,-34.3C407.22,-42.45 473.95,-52.54 520.91,-59.64"/>
<polygon fill="#63b8ff" stroke="#63b8ff" points="353.76,-30.83 343.35,-32.8 352.72,-37.75 353.76,-30.83"/>
</a>
</g>
</g>
<!-- Node10 -->
<g id="Node000010" class="node">
<title>Node10</title>
<g id="a_Node000010"><a xlink:href="../../d9/d82/class_iterable_stack.html" target="_top" xlink:title=" ">
<polygon fill="white" stroke="#666666" points="342.5,-78 179.5,-78 179.5,-59 342.5,-59 342.5,-78"/>
<text text-anchor="middle" x="261" y="-66" font-family="Helvetica,sans-Serif" font-size="10.00">IterableStack&lt; T, Container &gt;</text>
</a>
</g>
</g>
<!-- Node10&#45;&gt;Node8 -->
<g id="edge9_Node000008_Node000010" class="edge">
<title>Node10&#45;&gt;Node8</title>
<g id="a_edge9_Node000008_Node000010"><a xlink:title=" ">
<path fill="none" stroke="orange" stroke-dasharray="5,2" d="M352.79,-68.5C406.71,-68.5 473.52,-68.5 520.61,-68.5"/>
<polygon fill="orange" stroke="orange" points="352.53,-65 342.53,-68.5 352.53,-72 352.53,-65"/>
</a>
</g>
<text text-anchor="middle" x="432" y="-71.5" font-family="Helvetica,sans-Serif" font-size="10.00" fill="grey"> &lt; const DocNodeVariant * &gt;</text>
</g>
<!-- Node11 -->
<g id="Node000011" class="node">
<title>Node11</title>
<g id="a_Node000011"><a xlink:title=" ">
<polygon fill="white" stroke="#666666" points="122,-82.5 20,-82.5 20,-52.5 122,-52.5 122,-82.5"/>
<text text-anchor="start" x="28" y="-70.5" font-family="Helvetica,sans-Serif" font-size="10.00">std::stack&lt; T, std</text>
<text text-anchor="middle" x="71" y="-59.5" font-family="Helvetica,sans-Serif" font-size="10.00">::deque&lt; T &gt; &gt;</text>
</a>
</g>
</g>
<!-- Node11&#45;&gt;Node10 -->
<g id="edge10_Node000010_Node000011" class="edge">
<title>Node11&#45;&gt;Node10</title>
<g id="a_edge10_Node000010_Node000011"><a xlink:title=" ">
<path fill="none" stroke="#63b8ff" d="M132.48,-67.82C147.4,-67.9 163.62,-67.99 179.34,-68.07"/>
<polygon fill="#63b8ff" stroke="#63b8ff" points="132.4,-64.32 122.38,-67.77 132.36,-71.32 132.4,-64.32"/>
</a>
</g>
</g>
<!-- Node12&#45;&gt;Node1 -->
<g id="edge20_Node000001_Node000012" class="edge">
<title>Node12&#45;&gt;Node1</title>
<g id="a_edge20_Node000001_Node000012"><a xlink:title=" ">
<path fill="none" stroke="#9a32cd" stroke-dasharray="5,2" d="M627.8,-431.86C673.96,-431.27 746.88,-430.5 810,-430.5 810,-430.5 810,-430.5 1129.5,-430.5 1165.85,-430.5 1204.59,-409.71 1224.82,-397.04"/>
<polygon fill="#9a32cd" stroke="#9a32cd" points="627.47,-428.36 617.51,-431.99 627.56,-435.36 627.47,-428.36"/>
</a>
</g>
<text text-anchor="middle" x="980.5" y="-433.5" font-family="Helvetica,sans-Serif" font-size="10.00" fill="grey"> m_member</text>
</g>
<!-- Node12&#45;&gt;Node5 -->
<g id="edge11_Node000005_Node000012" class="edge">
<title>Node12&#45;&gt;Node5</title>
<g id="a_edge11_Node000005_Node000012"><a xlink:title=" ">
<path fill="none" stroke="#9a32cd" stroke-dasharray="5,2" d="M616.52,-419.16C624.35,-415.9 632.54,-412.25 640,-408.5 686.84,-384.92 710.51,-390.16 741,-347.5 762.95,-316.79 734.77,-293.45 759,-264.5 763.06,-259.65 768.41,-255.91 774.12,-253.02"/>
<polygon fill="#9a32cd" stroke="#9a32cd" points="615.17,-415.93 607.22,-422.94 617.8,-422.42 615.17,-415.93"/>
</a>
</g>
<text text-anchor="middle" x="699.5" y="-402.5" font-family="Helvetica,sans-Serif" font-size="10.00" fill="grey"> memberDef</text>
</g>
<!-- Node13&#45;&gt;Node5 -->
<g id="edge13_Node000005_Node000013" class="edge">
<title>Node13&#45;&gt;Node5</title>
<g id="a_edge13_Node000005_Node000013"><a xlink:title=" ">
<path fill="none" stroke="#9a32cd" stroke-dasharray="5,2" d="M611.97,-153.37C659.07,-174.8 748.37,-215.45 788.96,-233.93"/>
<polygon fill="#9a32cd" stroke="#9a32cd" points="613.14,-150.05 602.59,-149.1 610.24,-156.43 613.14,-150.05"/>
</a>
</g>
<text text-anchor="middle" x="699.5" y="-213.5" font-family="Helvetica,sans-Serif" font-size="10.00" fill="grey"> token</text>
</g>
<!-- Node14 -->
<g id="Node000014" class="node">
<title>Node14</title>
<g id="a_Node000014"><a xlink:href="../../db/d4d/class_html_attrib_list.html" target="_top" xlink:title="Class representing a list of HTML attributes.">
<polygon fill="white" stroke="#666666" points="303.5,-118 218.5,-118 218.5,-99 303.5,-99 303.5,-118"/>
<text text-anchor="middle" x="261" y="-106" font-family="Helvetica,sans-Serif" font-size="10.00">HtmlAttribList</text>
</a>
</g>
</g>
<!-- Node14&#45;&gt;Node13 -->
<g id="edge15_Node000013_Node000014" class="edge">
<title>Node14&#45;&gt;Node13</title>
<g id="a_edge15_Node000013_Node000014"><a xlink:title=" ">
<path fill="none" stroke="#9a32cd" stroke-dasharray="5,2" d="M313.97,-101.82C363.2,-96.95 438.92,-93.27 503,-106.5 524.67,-110.98 547.77,-121.89 562.84,-129.95"/>
<polygon fill="#9a32cd" stroke="#9a32cd" points="313.47,-98.35 303.88,-102.87 314.19,-105.31 313.47,-98.35"/>
</a>
</g>
<text text-anchor="middle" x="432" y="-109.5" font-family="Helvetica,sans-Serif" font-size="10.00" fill="grey"> attribs</text>
</g>
<!-- Node15 -->
<g id="Node000015" class="node">
<title>Node15</title>
<g id="a_Node000015"><a xlink:title=" ">
<polygon fill="white" stroke="#666666" points="142,-120 0,-120 0,-101 142,-101 142,-120"/>
<text text-anchor="middle" x="71" y="-108" font-family="Helvetica,sans-Serif" font-size="10.00">std::vector&lt; HtmlAttrib &gt;</text>
</a>
</g>
</g>
<!-- Node15&#45;&gt;Node14 -->
<g id="edge16_Node000014_Node000015" class="edge">
<title>Node15&#45;&gt;Node14</title>
<g id="a_edge16_Node000014_Node000015"><a xlink:title=" ">
<path fill="none" stroke="#63b8ff" d="M152.05,-109.65C174.87,-109.41 198.82,-109.15 218.34,-108.94"/>
<polygon fill="#63b8ff" stroke="#63b8ff" points="151.97,-106.15 142,-109.76 152.04,-113.15 151.97,-106.15"/>
</a>
</g>
</g>
<!-- Node16 -->
<g id="Node000016" class="node">
<title>Node16</title>
<g id="a_Node000016"><a xlink:href="../../d1/d7f/class_doc_tokenizer.html" target="_top" xlink:title=" ">
<polygon fill="white" stroke="#666666" points="851.5,-292 770.5,-292 770.5,-273 851.5,-273 851.5,-292"/>
<text text-anchor="middle" x="811" y="-280" font-family="Helvetica,sans-Serif" font-size="10.00">DocTokenizer</text>
</a>
</g>
</g>
<!-- Node16&#45;&gt;Node3 -->
<g id="edge17_Node000003_Node000016" class="edge">
<title>Node16&#45;&gt;Node3</title>
<g id="a_edge17_Node000003_Node000016"><a xlink:title=" ">
<path fill="none" stroke="#9a32cd" stroke-dasharray="5,2" d="M861.77,-284.93C882.87,-286.32 907.7,-288.41 930,-291.5 935.82,-292.31 941.98,-293.38 947.91,-294.52"/>
<polygon fill="#9a32cd" stroke="#9a32cd" points="861.93,-281.43 851.73,-284.31 861.5,-288.42 861.93,-281.43"/>
</a>
</g>
<text text-anchor="middle" x="905.5" y="-294.5" font-family="Helvetica,sans-Serif" font-size="10.00" fill="grey"> tokenizer</text>
</g>
</g>
</svg>
