<?xml version="1.0" encoding="UTF-8" standalone="no"?>
<!DOCTYPE svg PUBLIC "-//W3C//DTD SVG 1.1//EN"
 "http://www.w3.org/Graphics/SVG/1.1/DTD/svg11.dtd">
<!-- Generated by graphviz version 2.43.0 (0)
 -->
<!-- Title: CCodeParser::Private Pages: 1 -->
<svg width="832pt" height="562pt"
 viewBox="0.00 0.00 832.00 561.50" xmlns="http://www.w3.org/2000/svg" xmlns:xlink="http://www.w3.org/1999/xlink">
<g id="graph0" class="graph" transform="scale(1 1) rotate(0) translate(4 557.5)">
<title>CCodeParser::Private</title>
<!-- Node1 -->
<g id="Node000001" class="node">
<title>Node1</title>
<g id="a_Node000001"><a xlink:title=" ">
<polygon fill="#999999" stroke="#666666" points="824,-199 705,-199 705,-180 824,-180 824,-199"/>
<text text-anchor="middle" x="764.5" y="-187" font-family="Helvetica,sans-Serif" font-size="10.00">CCodeParser::Private</text>
</a>
</g>
</g>
<!-- Node2 -->
<g id="Node000002" class="node">
<title>Node2</title>
<g id="a_Node000002"><a xlink:href="../../da/d28/structcode_y_y__state.html" target="_top" xlink:title=" ">
<polygon fill="white" stroke="#666666" points="641,-199 559,-199 559,-180 641,-180 641,-199"/>
<text text-anchor="middle" x="600" y="-187" font-family="Helvetica,sans-Serif" font-size="10.00">codeYY_state</text>
</a>
</g>
</g>
<!-- Node2&#45;&gt;Node1 -->
<g id="edge1_Node000001_Node000002" class="edge">
<title>Node2&#45;&gt;Node1</title>
<g id="a_edge1_Node000001_Node000002"><a xlink:title=" ">
<path fill="none" stroke="#9a32cd" stroke-dasharray="5,2" d="M651.39,-189.5C668.29,-189.5 687.29,-189.5 704.77,-189.5"/>
<polygon fill="#9a32cd" stroke="#9a32cd" points="651.17,-186 641.17,-189.5 651.17,-193 651.17,-186"/>
</a>
</g>
<text text-anchor="middle" x="673" y="-192.5" font-family="Helvetica,sans-Serif" font-size="10.00" fill="grey"> state</text>
</g>
<!-- Node3 -->
<g id="Node000003" class="node">
<title>Node3</title>
<g id="a_Node000003"><a xlink:href="../../db/d8e/class_output_code_list.html" target="_top" xlink:title="Class representing a list of different code generators.">
<polygon fill="white" stroke="#666666" points="439,-547 347,-547 347,-528 439,-528 439,-547"/>
<text text-anchor="middle" x="393" y="-535" font-family="Helvetica,sans-Serif" font-size="10.00">OutputCodeList</text>
</a>
</g>
</g>
<!-- Node3&#45;&gt;Node2 -->
<g id="edge2_Node000002_Node000003" class="edge">
<title>Node3&#45;&gt;Node2</title>
<g id="a_edge2_Node000002_Node000003"><a xlink:title=" ">
<path fill="none" stroke="#9a32cd" stroke-dasharray="5,2" d="M449.47,-542.92C480.39,-542.77 517.33,-536.81 541,-513.5 587.21,-467.99 597.07,-248.44 598.71,-199.28"/>
<polygon fill="#9a32cd" stroke="#9a32cd" points="449.29,-539.42 439.24,-542.77 449.19,-546.42 449.29,-539.42"/>
</a>
</g>
<text text-anchor="middle" x="500" y="-545.5" font-family="Helvetica,sans-Serif" font-size="10.00" fill="grey"> code</text>
</g>
<!-- Node4 -->
<g id="Node000004" class="node">
<title>Node4</title>
<g id="a_Node000004"><a xlink:href="../../d9/d45/class_q_c_string.html" target="_top" xlink:title="This is an alternative implementation of QCString.">
<polygon fill="white" stroke="#666666" points="207.5,-373 148.5,-373 148.5,-354 207.5,-354 207.5,-373"/>
<text text-anchor="middle" x="178" y="-361" font-family="Helvetica,sans-Serif" font-size="10.00">QCString</text>
</a>
</g>
</g>
<!-- Node4&#45;&gt;Node2 -->
<g id="edge3_Node000002_Node000004" class="edge">
<title>Node4&#45;&gt;Node2</title>
<g id="a_edge3_Node000002_Node000004"><a xlink:title=" ">
<path fill="none" stroke="#9a32cd" stroke-dasharray="5,2" d="M217.88,-371.4C248.02,-376.13 290.64,-379.79 327,-371.5 339.86,-368.57 530.85,-276.93 541,-268.5 565.48,-248.17 585.14,-215.39 593.97,-199.19"/>
<polygon fill="#9a32cd" stroke="#9a32cd" points="218.21,-367.9 207.77,-369.69 217.05,-374.81 218.21,-367.9"/>
</a>
</g>
<text text-anchor="middle" x="393" y="-475.5" font-family="Helvetica,sans-Serif" font-size="10.00" fill="grey"> args</text>
<text text-anchor="middle" x="393" y="-464.5" font-family="Helvetica,sans-Serif" font-size="10.00" fill="grey">classScope</text>
<text text-anchor="middle" x="393" y="-453.5" font-family="Helvetica,sans-Serif" font-size="10.00" fill="grey">curClassName</text>
<text text-anchor="middle" x="393" y="-442.5" font-family="Helvetica,sans-Serif" font-size="10.00" fill="grey">delimiter</text>
<text text-anchor="middle" x="393" y="-431.5" font-family="Helvetica,sans-Serif" font-size="10.00" fill="grey">exampleFile</text>
<text text-anchor="middle" x="393" y="-420.5" font-family="Helvetica,sans-Serif" font-size="10.00" fill="grey">exampleName</text>
<text text-anchor="middle" x="393" y="-409.5" font-family="Helvetica,sans-Serif" font-size="10.00" fill="grey">fileName</text>
<text text-anchor="middle" x="393" y="-398.5" font-family="Helvetica,sans-Serif" font-size="10.00" fill="grey">name</text>
<text text-anchor="middle" x="393" y="-387.5" font-family="Helvetica,sans-Serif" font-size="10.00" fill="grey">parmName</text>
<text text-anchor="middle" x="393" y="-376.5" font-family="Helvetica,sans-Serif" font-size="10.00" fill="grey">parmType</text>
<text text-anchor="middle" x="393" y="-365.5" font-family="Helvetica,sans-Serif" font-size="10.00" fill="grey">...</text>
</g>
<!-- Node9 -->
<g id="Node000009" class="node">
<title>Node9</title>
<g id="a_Node000009"><a xlink:href="../../d8/d10/struct_obj_c_call_ctx.html" target="_top" xlink:title=" ">
<polygon fill="white" stroke="#666666" points="430.5,-279 355.5,-279 355.5,-260 430.5,-260 430.5,-279"/>
<text text-anchor="middle" x="393" y="-267" font-family="Helvetica,sans-Serif" font-size="10.00">ObjCCallCtx</text>
</a>
</g>
</g>
<!-- Node4&#45;&gt;Node9 -->
<g id="edge11_Node000009_Node000004" class="edge">
<title>Node4&#45;&gt;Node9</title>
<g id="a_edge11_Node000009_Node000004"><a xlink:title=" ">
<path fill="none" stroke="#9a32cd" stroke-dasharray="5,2" d="M207.35,-349.45C215.52,-345.65 224.53,-341.7 233,-338.5 273.77,-323.08 287.31,-328.52 327,-310.5 346.2,-301.79 366.46,-288.21 379.16,-279.09"/>
<polygon fill="#9a32cd" stroke="#9a32cd" points="205.74,-346.33 198.21,-353.79 208.74,-352.66 205.74,-346.33"/>
</a>
</g>
<text text-anchor="middle" x="280" y="-363.5" font-family="Helvetica,sans-Serif" font-size="10.00" fill="grey"> format</text>
<text text-anchor="middle" x="280" y="-352.5" font-family="Helvetica,sans-Serif" font-size="10.00" fill="grey">methodName</text>
<text text-anchor="middle" x="280" y="-341.5" font-family="Helvetica,sans-Serif" font-size="10.00" fill="grey">objectTypeOrName</text>
</g>
<!-- Node5 -->
<g id="Node000005" class="node">
<title>Node5</title>
<g id="a_Node000005"><a xlink:href="../../de/db0/class_file_def.html" target="_top" xlink:title="A model of a file symbol.">
<polygon fill="white" stroke="#666666" points="203.5,-191 152.5,-191 152.5,-172 203.5,-172 203.5,-191"/>
<text text-anchor="middle" x="178" y="-179" font-family="Helvetica,sans-Serif" font-size="10.00">FileDef</text>
</a>
</g>
</g>
<!-- Node5&#45;&gt;Node2 -->
<g id="edge4_Node000002_Node000005" class="edge">
<title>Node5&#45;&gt;Node2</title>
<g id="a_edge4_Node000002_Node000005"><a xlink:title=" ">
<path fill="none" stroke="#9a32cd" stroke-dasharray="5,2" d="M214.05,-180.76C220.36,-180.65 226.87,-180.56 233,-180.5 325.44,-179.64 348.59,-177.87 441,-180.5 481.1,-181.64 526.85,-184.41 558.76,-186.58"/>
<polygon fill="#9a32cd" stroke="#9a32cd" points="213.66,-177.26 203.73,-180.95 213.79,-184.26 213.66,-177.26"/>
</a>
</g>
<text text-anchor="middle" x="393" y="-183.5" font-family="Helvetica,sans-Serif" font-size="10.00" fill="grey"> sourceFileDef</text>
</g>
<!-- Node6 -->
<g id="Node000006" class="node">
<title>Node6</title>
<g id="a_Node000006"><a xlink:href="../../d0/d46/class_definition_mutable.html" target="_top" xlink:title=" ">
<polygon fill="white" stroke="#666666" points="104,-191 0,-191 0,-172 104,-172 104,-191"/>
<text text-anchor="middle" x="52" y="-179" font-family="Helvetica,sans-Serif" font-size="10.00">DefinitionMutable</text>
</a>
</g>
</g>
<!-- Node6&#45;&gt;Node5 -->
<g id="edge5_Node000005_Node000006" class="edge">
<title>Node6&#45;&gt;Node5</title>
<g id="a_edge5_Node000005_Node000006"><a xlink:title=" ">
<path fill="none" stroke="#63b8ff" d="M114.41,-181.5C127.88,-181.5 141.39,-181.5 152.4,-181.5"/>
<polygon fill="#63b8ff" stroke="#63b8ff" points="114.15,-178 104.15,-181.5 114.15,-185 114.15,-178"/>
</a>
</g>
</g>
<!-- Node7 -->
<g id="Node000007" class="node">
<title>Node7</title>
<g id="a_Node000007"><a xlink:href="../../d5/dcc/class_definition.html" target="_top" xlink:title="The common base class of all entity definitions found in the sources.">
<polygon fill="white" stroke="#666666" points="84,-291 20,-291 20,-272 84,-272 84,-291"/>
<text text-anchor="middle" x="52" y="-279" font-family="Helvetica,sans-Serif" font-size="10.00">Definition</text>
</a>
</g>
</g>
<!-- Node7&#45;&gt;Node2 -->
<g id="edge7_Node000002_Node000007" class="edge">
<title>Node7&#45;&gt;Node2</title>
<g id="a_edge7_Node000002_Node000007"><a xlink:title=" ">
<path fill="none" stroke="#9a32cd" stroke-dasharray="5,2" d="M65.38,-299.58C81.01,-321.39 109.67,-358.14 141,-382.5 252.3,-469.02 319.75,-557.42 441,-485.5 553.23,-418.94 590.03,-242.23 597.47,-199.1"/>
<polygon fill="#9a32cd" stroke="#9a32cd" points="68.12,-297.4 59.51,-291.23 62.4,-301.42 68.12,-297.4"/>
</a>
</g>
<text text-anchor="middle" x="280" y="-521.5" font-family="Helvetica,sans-Serif" font-size="10.00" fill="grey"> currentDefinition</text>
<text text-anchor="middle" x="280" y="-510.5" font-family="Helvetica,sans-Serif" font-size="10.00" fill="grey">searchCtx</text>
</g>
<!-- Node7&#45;&gt;Node5 -->
<g id="edge6_Node000005_Node000007" class="edge">
<title>Node7&#45;&gt;Node5</title>
<g id="a_edge6_Node000005_Node000007"><a xlink:title=" ">
<path fill="none" stroke="#63b8ff" d="M71.3,-264.98C88.8,-249.4 116.13,-225.66 141,-206.5 147.87,-201.21 155.76,-195.67 162.4,-191.16"/>
<polygon fill="#63b8ff" stroke="#63b8ff" points="68.67,-262.63 63.55,-271.91 73.34,-267.85 68.67,-262.63"/>
</a>
</g>
</g>
<!-- Node8 -->
<g id="Node000008" class="node">
<title>Node8</title>
<g id="a_Node000008"><a xlink:href="../../da/d09/class_member_def.html" target="_top" xlink:title="A model of a class/file/namespace member symbol.">
<polygon fill="white" stroke="#666666" points="215,-234 141,-234 141,-215 215,-215 215,-234"/>
<text text-anchor="middle" x="178" y="-222" font-family="Helvetica,sans-Serif" font-size="10.00">MemberDef</text>
</a>
</g>
</g>
<!-- Node7&#45;&gt;Node8 -->
<g id="edge9_Node000008_Node000007" class="edge">
<title>Node7&#45;&gt;Node8</title>
<g id="a_edge9_Node000008_Node000007"><a xlink:title=" ">
<path fill="none" stroke="#63b8ff" d="M82.93,-267.74C105.58,-257.33 136.13,-243.29 156.18,-234.07"/>
<polygon fill="#63b8ff" stroke="#63b8ff" points="81.38,-264.6 73.75,-271.96 84.3,-270.96 81.38,-264.6"/>
</a>
</g>
</g>
<!-- Node11 -->
<g id="Node000011" class="node">
<title>Node11</title>
<g id="a_Node000011"><a xlink:href="../../d1/dcf/class_class_def.html" target="_top" xlink:title="A abstract class representing of a compound symbol.">
<polygon fill="white" stroke="#666666" points="208,-314 148,-314 148,-295 208,-295 208,-314"/>
<text text-anchor="middle" x="178" y="-302" font-family="Helvetica,sans-Serif" font-size="10.00">ClassDef</text>
</a>
</g>
</g>
<!-- Node7&#45;&gt;Node11 -->
<g id="edge14_Node000011_Node000007" class="edge">
<title>Node7&#45;&gt;Node11</title>
<g id="a_edge14_Node000011_Node000007"><a xlink:title=" ">
<path fill="none" stroke="#63b8ff" d="M94.28,-289.16C111.83,-292.41 131.88,-296.13 147.85,-299.09"/>
<polygon fill="#63b8ff" stroke="#63b8ff" points="94.76,-285.69 84.29,-287.3 93.48,-292.57 94.76,-285.69"/>
</a>
</g>
</g>
<!-- Node8&#45;&gt;Node2 -->
<g id="edge8_Node000002_Node000008" class="edge">
<title>Node8&#45;&gt;Node2</title>
<g id="a_edge8_Node000002_Node000008"><a xlink:title=" ">
<path fill="none" stroke="#9a32cd" stroke-dasharray="5,2" d="M225.09,-221.57C293.92,-217.05 427.64,-207.72 541,-196.5 546.75,-195.93 552.82,-195.27 558.77,-194.58"/>
<polygon fill="#9a32cd" stroke="#9a32cd" points="224.76,-218.08 215.01,-222.23 225.22,-225.07 224.76,-218.08"/>
</a>
</g>
<text text-anchor="middle" x="393" y="-215.5" font-family="Helvetica,sans-Serif" font-size="10.00" fill="grey"> currentMemberDef</text>
</g>
<!-- Node8&#45;&gt;Node9 -->
<g id="edge15_Node000009_Node000008" class="edge">
<title>Node8&#45;&gt;Node9</title>
<g id="a_edge15_Node000009_Node000008"><a xlink:title=" ">
<path fill="none" stroke="#9a32cd" stroke-dasharray="5,2" d="M225.16,-226.33C254.69,-228.35 293.58,-232.59 327,-241.5 343.38,-245.87 360.99,-253.66 373.74,-259.92"/>
<polygon fill="#9a32cd" stroke="#9a32cd" points="225.33,-222.84 215.13,-225.71 224.9,-229.82 225.33,-222.84"/>
</a>
</g>
<text text-anchor="middle" x="280" y="-255.5" font-family="Helvetica,sans-Serif" font-size="10.00" fill="grey"> method</text>
<text text-anchor="middle" x="280" y="-244.5" font-family="Helvetica,sans-Serif" font-size="10.00" fill="grey">objectVar</text>
</g>
<!-- Node9&#45;&gt;Node2 -->
<g id="edge10_Node000002_Node000009" class="edge">
<title>Node9&#45;&gt;Node2</title>
<g id="a_edge10_Node000002_Node000009"><a xlink:title=" ">
<path fill="none" stroke="#9a32cd" stroke-dasharray="5,2" d="M440.78,-259.95C470.31,-253 508.83,-242.22 541,-227.5 557.86,-219.79 575.42,-207.6 586.74,-199.12"/>
<polygon fill="#9a32cd" stroke="#9a32cd" points="439.69,-256.6 430.73,-262.25 441.26,-263.43 439.69,-256.6"/>
</a>
</g>
<text text-anchor="middle" x="500" y="-256.5" font-family="Helvetica,sans-Serif" font-size="10.00" fill="grey"> currentCtx</text>
</g>
<!-- Node10 -->
<g id="Node000010" class="node">
<title>Node10</title>
<g id="a_Node000010"><a xlink:href="../../d3/d30/class_text_stream.html" target="_top" xlink:title="Text streaming class that buffers data.">
<polygon fill="white" stroke="#666666" points="214,-277 142,-277 142,-258 214,-258 214,-277"/>
<text text-anchor="middle" x="178" y="-265" font-family="Helvetica,sans-Serif" font-size="10.00">TextStream</text>
</a>
</g>
</g>
<!-- Node10&#45;&gt;Node9 -->
<g id="edge12_Node000009_Node000010" class="edge">
<title>Node10&#45;&gt;Node9</title>
<g id="a_edge12_Node000009_Node000010"><a xlink:title=" ">
<path fill="none" stroke="#9a32cd" stroke-dasharray="5,2" d="M224.22,-267.92C263.28,-268.29 319.01,-268.81 355.35,-269.16"/>
<polygon fill="#9a32cd" stroke="#9a32cd" points="224.21,-264.42 214.17,-267.83 224.14,-271.42 224.21,-264.42"/>
</a>
</g>
<text text-anchor="middle" x="280" y="-271.5" font-family="Helvetica,sans-Serif" font-size="10.00" fill="grey"> comment</text>
</g>
<!-- Node11&#45;&gt;Node9 -->
<g id="edge13_Node000009_Node000011" class="edge">
<title>Node11&#45;&gt;Node9</title>
<g id="a_edge13_Node000009_Node000011"><a xlink:title=" ">
<path fill="none" stroke="#9a32cd" stroke-dasharray="5,2" d="M218.27,-298.71C248.12,-294.23 290.19,-287.76 327,-281.5 336.16,-279.94 346.04,-278.17 355.25,-276.47"/>
<polygon fill="#9a32cd" stroke="#9a32cd" points="217.62,-295.27 208.24,-300.21 218.65,-302.19 217.62,-295.27"/>
</a>
</g>
<text text-anchor="middle" x="280" y="-298.5" font-family="Helvetica,sans-Serif" font-size="10.00" fill="grey"> objectType</text>
</g>
<!-- Node12 -->
<g id="Node000012" class="node">
<title>Node12</title>
<g id="a_Node000012"><a xlink:href="../../d4/df2/class_variable_context.html" target="_top" xlink:title=" ">
<polygon fill="white" stroke="#666666" points="440.5,-130 345.5,-130 345.5,-111 440.5,-111 440.5,-130"/>
<text text-anchor="middle" x="393" y="-118" font-family="Helvetica,sans-Serif" font-size="10.00">VariableContext</text>
</a>
</g>
</g>
<!-- Node12&#45;&gt;Node2 -->
<g id="edge16_Node000002_Node000012" class="edge">
<title>Node12&#45;&gt;Node2</title>
<g id="a_edge16_Node000002_Node000012"><a xlink:title=" ">
<path fill="none" stroke="#9a32cd" stroke-dasharray="5,2" d="M450.89,-121.42C479.01,-123.64 512.86,-129.05 541,-141.5 561.32,-150.49 580.23,-168.71 590.64,-179.93"/>
<polygon fill="#9a32cd" stroke="#9a32cd" points="451.03,-117.92 440.81,-120.74 450.55,-124.91 451.03,-117.92"/>
</a>
</g>
<text text-anchor="middle" x="500" y="-144.5" font-family="Helvetica,sans-Serif" font-size="10.00" fill="grey"> theVarContext</text>
</g>
<!-- Node13 -->
<g id="Node000013" class="node">
<title>Node13</title>
<g id="a_Node000013"><a xlink:href="../../de/da0/class_call_context.html" target="_top" xlink:title="Represents the call context.">
<polygon fill="white" stroke="#666666" points="430,-93 356,-93 356,-74 430,-74 430,-93"/>
<text text-anchor="middle" x="393" y="-81" font-family="Helvetica,sans-Serif" font-size="10.00">CallContext</text>
</a>
</g>
</g>
<!-- Node13&#45;&gt;Node2 -->
<g id="edge17_Node000002_Node000013" class="edge">
<title>Node13&#45;&gt;Node2</title>
<g id="a_edge17_Node000002_Node000013"><a xlink:title=" ">
<path fill="none" stroke="#9a32cd" stroke-dasharray="5,2" d="M440.29,-81.64C470.98,-82.49 510.98,-87.76 541,-106.5 569.63,-124.37 587.94,-162.12 595.31,-179.88"/>
<polygon fill="#9a32cd" stroke="#9a32cd" points="440.31,-78.14 430.27,-81.51 440.22,-85.14 440.31,-78.14"/>
</a>
</g>
<text text-anchor="middle" x="500" y="-109.5" font-family="Helvetica,sans-Serif" font-size="10.00" fill="grey"> theCallContext</text>
</g>
<!-- Node14 -->
<g id="Node000014" class="node">
<title>Node14</title>
<g id="a_Node000014"><a xlink:href="../../da/d0c/class_symbol_resolver.html" target="_top" xlink:title="Helper class to find a class definition or check if A symbol is accessible in a given scope.">
<polygon fill="white" stroke="#666666" points="441,-56 345,-56 345,-37 441,-37 441,-56"/>
<text text-anchor="middle" x="393" y="-44" font-family="Helvetica,sans-Serif" font-size="10.00">SymbolResolver</text>
</a>
</g>
</g>
<!-- Node14&#45;&gt;Node2 -->
<g id="edge18_Node000002_Node000014" class="edge">
<title>Node14&#45;&gt;Node2</title>
<g id="a_edge18_Node000002_Node000014"><a xlink:title=" ">
<path fill="none" stroke="#9a32cd" stroke-dasharray="5,2" d="M451.45,-42.4C480.78,-43.16 515.55,-48.77 541,-67.5 579.53,-95.86 593.48,-156.49 597.56,-179.95"/>
<polygon fill="#9a32cd" stroke="#9a32cd" points="451.35,-38.9 441.32,-42.32 451.29,-45.9 451.35,-38.9"/>
</a>
</g>
<text text-anchor="middle" x="500" y="-70.5" font-family="Helvetica,sans-Serif" font-size="10.00" fill="grey"> symbolResolver</text>
</g>
<!-- Node15 -->
<g id="Node000015" class="node">
<title>Node15</title>
<g id="a_Node000015"><a xlink:href="../../d5/dae/class_tooltip_manager.html" target="_top" xlink:title="Class that manages the tooltips for a source file.">
<polygon fill="white" stroke="#666666" points="439,-19 347,-19 347,0 439,0 439,-19"/>
<text text-anchor="middle" x="393" y="-7" font-family="Helvetica,sans-Serif" font-size="10.00">TooltipManager</text>
</a>
</g>
</g>
<!-- Node15&#45;&gt;Node2 -->
<g id="edge19_Node000002_Node000015" class="edge">
<title>Node15&#45;&gt;Node2</title>
<g id="a_edge19_Node000002_Node000015"><a xlink:title=" ">
<path fill="none" stroke="#9a32cd" stroke-dasharray="5,2" d="M449.55,-3.06C479.62,-2.58 515.67,-7.25 541,-27.5 590.23,-66.86 597.71,-151.39 598.82,-179.89"/>
<polygon fill="#9a32cd" stroke="#9a32cd" points="449.07,0.42 439.2,-3.43 449.32,-6.57 449.07,0.42"/>
</a>
</g>
<text text-anchor="middle" x="500" y="-30.5" font-family="Helvetica,sans-Serif" font-size="10.00" fill="grey"> tooltipManager</text>
</g>
</g>
</svg>
