<?xml version="1.0" encoding="UTF-8" standalone="no"?>
<!DOCTYPE svg PUBLIC "-//W3C//DTD SVG 1.1//EN"
 "http://www.w3.org/Graphics/SVG/1.1/DTD/svg11.dtd">
<!-- Generated by graphviz version 2.43.0 (0)
 -->
<!-- Title: LinkedMap&lt; T, Hash, KeyEqual, Map &gt; Pages: 1 -->
<!--zoomable 732 -->

<svg id="main" version="1.1" xmlns="http://www.w3.org/2000/svg" xmlns:xlink="http://www.w3.org/1999/xlink" xml:space="preserve" onload="init(evt)">

<style type="text/css"><![CDATA[
.node, .edge {opacity: 0.7;}
.node.selected, .edge.selected {opacity: 1;}
.edge:hover path { stroke: red; }
.edge:hover polygon { stroke: red; fill: red; }
]]></style>

<defs>
  <circle id="rim" cx="0" cy="0" r="7"/>
  <circle id="rim2" cx="0" cy="0" r="3.5"/>
  <g id="zoomPlus">
    <use xlink:href="#rim" fill="#404040"><set attributeName="fill" to="#808080" begin="zoomplus.mouseover" end="zoomplus.mouseout"/></use>
    <path d="M-4,0h8M0,-4v8" fill="none" stroke="white" stroke-width="1.5" pointer-events="none"/>
  </g>
  <g id="zoomMin">
    <use xlink:href="#rim" fill="#404040"><set attributeName="fill" to="#808080" begin="zoomminus.mouseover" end="zoomminus.mouseout"/></use>
    <path d="M-4,0h8" fill="none" stroke="white" stroke-width="1.5" pointer-events="none"/>
  </g>
  <g id="arrowUp" transform="translate(30 24)">
    <use xlink:href="#rim"/>
    <path pointer-events="none" fill="none" stroke="white" stroke-width="1.5" d="M0,-3.0v7 M-2.5,-0.5L0,-3.0L2.5,-0.5"/>
  </g>
  <g id="arrowRight" transform="rotate(90) translate(36 -43)">
    <use xlink:href="#rim"/>
    <path pointer-events="none" fill="none" stroke="white" stroke-width="1.5" d="M0,-3.0v7 M-2.5,-0.5L0,-3.0L2.5,-0.5"/>
  </g>
  <g id="arrowDown" transform="rotate(180) translate(-30 -48)">
    <use xlink:href="#rim"/>
    <path pointer-events="none" fill="none" stroke="white" stroke-width="1.5" d="M0,-3.0v7 M-2.5,-0.5L0,-3.0L2.5,-0.5"/>
  </g>
  <g id="arrowLeft" transform="rotate(270) translate(-36 17)">
    <use xlink:href="#rim"/>
    <path pointer-events="none" fill="none" stroke="white" stroke-width="1.5" d="M0,-3.0v7 M-2.5,-0.5L0,-3.0L2.5,-0.5"/>
  </g>
  <g id="resetDef">
    <use xlink:href="#rim2" fill="#404040"><set attributeName="fill" to="#808080" begin="reset.mouseover" end="reset.mouseout"/></use>
  </g>
</defs>
<script type="application/ecmascript">
var viewWidth = 705;
var viewHeight = 732;
var sectionId = 'dynsection-0';
</script>
<script type="application/ecmascript" xlink:href="../../svg.min.js"/>
<svg id="graph" class="graph">
<g id="viewport">
<title>LinkedMap&lt; T, Hash, KeyEqual, Map &gt;</title>
<!-- Node1 -->
<g id="Node000001" class="node">
<title>Node1</title>
<g id="a_Node000001"><a xlink:title="Container class representing a vector of objects with keys.">
<polygon fill="#999999" stroke="#666666" points="120,-352.97 0,-352.97 0,-322.97 120,-322.97 120,-352.97"/>
<text text-anchor="start" x="8" y="-340.97" font-family="Helvetica,sans-Serif" font-size="10.00">LinkedMap&lt; T, Hash,</text>
<text text-anchor="middle" x="60" y="-329.97" font-family="Helvetica,sans-Serif" font-size="10.00"> KeyEqual, Map &gt;</text>
</a>
</g>
</g>
<!-- Node2 -->
<g id="Node000002" class="node">
<title>Node2</title>
<g id="a_Node000002"><a xlink:href="../../d0/d2c/class_linked_map.html" target="_top" xlink:title=" ">
<polygon fill="white" stroke="#666666" points="479.5,-706.47 344.5,-706.47 344.5,-687.47 479.5,-687.47 479.5,-706.47"/>
<text text-anchor="middle" x="412" y="-694.47" font-family="Helvetica,sans-Serif" font-size="10.00">LinkedMap&lt; ClassDef &gt;</text>
</a>
</g>
</g>
<!-- Node1&#45;&gt;Node2 -->
<g id="edge1_Node000001_Node000002" class="edge">
<title>Node1&#45;&gt;Node2</title>
<g id="a_edge1_Node000001_Node000002"><a xlink:title=" ">
<path fill="none" stroke="orange" stroke-dasharray="5,2" d="M63.17,-363.4C69.73,-433.71 91.78,-628.25 138,-668.97 201.37,-724.8 307.86,-716.74 367.38,-706.5"/>
<polygon fill="orange" stroke="orange" points="66.64,-362.87 62.25,-353.22 59.67,-363.5 66.64,-362.87"/>
</a>
</g>
<text text-anchor="middle" x="221" y="-715.97" font-family="Helvetica,sans-Serif" font-size="10.00" fill="grey"> &lt; ClassDef &gt;</text>
</g>
<!-- Node4 -->
<g id="Node000004" class="node">
<title>Node4</title>
<g id="a_Node000004"><a xlink:href="../../d0/d2c/class_linked_map.html" target="_top" xlink:title=" ">
<polygon fill="white" stroke="#666666" points="486.5,-669.47 337.5,-669.47 337.5,-650.47 486.5,-650.47 486.5,-669.47"/>
<text text-anchor="middle" x="412" y="-657.47" font-family="Helvetica,sans-Serif" font-size="10.00">LinkedMap&lt; ConceptDef &gt;</text>
</a>
</g>
</g>
<!-- Node1&#45;&gt;Node4 -->
<g id="edge3_Node000001_Node000004" class="edge">
<title>Node1&#45;&gt;Node4</title>
<g id="a_edge3_Node000001_Node000004"><a xlink:title=" ">
<path fill="none" stroke="orange" stroke-dasharray="5,2" d="M63.93,-363.12C72,-427.66 96.71,-596.6 138,-631.97 152.9,-644.74 261.69,-652.67 337.35,-656.7"/>
<polygon fill="orange" stroke="orange" points="67.38,-362.51 62.7,-353.01 60.44,-363.36 67.38,-362.51"/>
</a>
</g>
<text text-anchor="middle" x="221" y="-656.97" font-family="Helvetica,sans-Serif" font-size="10.00" fill="grey"> &lt; ConceptDef &gt;</text>
</g>
<!-- Node6 -->
<g id="Node000006" class="node">
<title>Node6</title>
<g id="a_Node000006"><a xlink:href="../../d0/d2c/class_linked_map.html" target="_top" xlink:title=" ">
<polygon fill="white" stroke="#666666" points="477.5,-632.47 346.5,-632.47 346.5,-613.47 477.5,-613.47 477.5,-632.47"/>
<text text-anchor="middle" x="412" y="-620.47" font-family="Helvetica,sans-Serif" font-size="10.00">LinkedMap&lt; UsedDir &gt;</text>
</a>
</g>
</g>
<!-- Node1&#45;&gt;Node6 -->
<g id="edge5_Node000001_Node000006" class="edge">
<title>Node1&#45;&gt;Node6</title>
<g id="a_edge5_Node000001_Node000006"><a xlink:title=" ">
<path fill="none" stroke="orange" stroke-dasharray="5,2" d="M60.12,-363.33C59.81,-415.85 67.29,-536.5 138,-594.97 153.72,-607.97 270.57,-616.11 346.22,-620.07"/>
<polygon fill="orange" stroke="orange" points="63.62,-363.25 60.28,-353.2 56.62,-363.14 63.62,-363.25"/>
</a>
</g>
<text text-anchor="middle" x="221" y="-619.97" font-family="Helvetica,sans-Serif" font-size="10.00" fill="grey"> &lt; UsedDir &gt;</text>
</g>
<!-- Node8 -->
<g id="Node000008" class="node">
<title>Node8</title>
<g id="a_Node000008"><a xlink:href="../../d0/d2c/class_linked_map.html" target="_top" xlink:title=" ">
<polygon fill="white" stroke="#666666" points="473.5,-595.47 350.5,-595.47 350.5,-576.47 473.5,-576.47 473.5,-595.47"/>
<text text-anchor="middle" x="412" y="-583.47" font-family="Helvetica,sans-Serif" font-size="10.00">LinkedMap&lt; DirDef &gt;</text>
</a>
</g>
</g>
<!-- Node1&#45;&gt;Node8 -->
<g id="edge7_Node000001_Node000008" class="edge">
<title>Node1&#45;&gt;Node8</title>
<g id="a_edge7_Node000001_Node000008"><a xlink:title=" ">
<path fill="none" stroke="orange" stroke-dasharray="5,2" d="M61.59,-363.25C64.18,-410.05 76.98,-509.81 138,-557.97 154.29,-570.83 274.89,-579.16 350.25,-583.17"/>
<polygon fill="orange" stroke="orange" points="65.08,-362.91 61.15,-353.07 58.09,-363.21 65.08,-362.91"/>
</a>
</g>
<text text-anchor="middle" x="221" y="-582.97" font-family="Helvetica,sans-Serif" font-size="10.00" fill="grey"> &lt; DirDef &gt;</text>
</g>
<!-- Node10 -->
<g id="Node000010" class="node">
<title>Node10</title>
<g id="a_Node000010"><a xlink:href="../../d0/d2c/class_linked_map.html" target="_top" xlink:title=" ">
<polygon fill="white" stroke="#666666" points="485,-558.47 339,-558.47 339,-539.47 485,-539.47 485,-558.47"/>
<text text-anchor="middle" x="412" y="-546.47" font-family="Helvetica,sans-Serif" font-size="10.00">LinkedMap&lt; DirRelation &gt;</text>
</a>
</g>
</g>
<!-- Node1&#45;&gt;Node10 -->
<g id="edge9_Node000001_Node000010" class="edge">
<title>Node1&#45;&gt;Node10</title>
<g id="a_edge9_Node000001_Node000010"><a xlink:title=" ">
<path fill="none" stroke="orange" stroke-dasharray="5,2" d="M63.51,-363.17C69.04,-403.95 86.22,-483.7 138,-521.97 153.85,-533.69 263.3,-541.54 338.71,-545.63"/>
<polygon fill="orange" stroke="orange" points="66.95,-362.5 62.27,-353 60.01,-363.35 66.95,-362.5"/>
</a>
</g>
<text text-anchor="middle" x="221" y="-545.97" font-family="Helvetica,sans-Serif" font-size="10.00" fill="grey"> &lt; DirRelation &gt;</text>
</g>
<!-- Node12 -->
<g id="Node000012" class="node">
<title>Node12</title>
<g id="a_Node000012"><a xlink:href="../../d0/d2c/class_linked_map.html" target="_top" xlink:title=" ">
<polygon fill="white" stroke="#666666" points="494.5,-521.47 329.5,-521.47 329.5,-458.47 494.5,-458.47 494.5,-521.47"/>
<text text-anchor="start" x="337.5" y="-509.47" font-family="Helvetica,sans-Serif" font-size="10.00">LinkedMap&lt; FileName,</text>
<text text-anchor="start" x="337.5" y="-498.47" font-family="Helvetica,sans-Serif" font-size="10.00"> FileNameFn, FileNameFn,</text>
<text text-anchor="start" x="337.5" y="-487.47" font-family="Helvetica,sans-Serif" font-size="10.00"> std::unordered_multimap</text>
<text text-anchor="start" x="337.5" y="-476.47" font-family="Helvetica,sans-Serif" font-size="10.00">&lt; std::string, FileName *,</text>
<text text-anchor="middle" x="412" y="-465.47" font-family="Helvetica,sans-Serif" font-size="10.00"> FileNameFn, FileNameFn &gt; &gt;</text>
</a>
</g>
</g>
<!-- Node1&#45;&gt;Node12 -->
<g id="edge11_Node000001_Node000012" class="edge">
<title>Node1&#45;&gt;Node12</title>
<g id="a_edge11_Node000001_Node000012"><a xlink:title=" ">
<path fill="none" stroke="orange" stroke-dasharray="5,2" d="M70.83,-362.36C82.67,-388.36 105.16,-428.53 138,-448.97 146.18,-454.06 251.73,-468.93 329.14,-479.28"/>
<polygon fill="orange" stroke="orange" points="74.02,-360.93 66.82,-353.16 67.61,-363.73 74.02,-360.93"/>
</a>
</g>
<text text-anchor="start" x="138" y="-510.97" font-family="Helvetica,sans-Serif" font-size="10.00" fill="grey"> &lt; FileName, FileNameFn,</text>
<text text-anchor="start" x="138" y="-499.97" font-family="Helvetica,sans-Serif" font-size="10.00" fill="grey"> FileNameFn, std::unordered</text>
<text text-anchor="start" x="138" y="-488.97" font-family="Helvetica,sans-Serif" font-size="10.00" fill="grey">_multimap&lt; std::string, FileName</text>
<text text-anchor="middle" x="221" y="-477.97" font-family="Helvetica,sans-Serif" font-size="10.00" fill="grey"> *, FileNameFn, FileNameFn &gt; &gt;</text>
</g>
<!-- Node14 -->
<g id="Node000014" class="node">
<title>Node14</title>
<g id="a_Node000014"><a xlink:href="../../d0/d2c/class_linked_map.html" target="_top" xlink:title=" ">
<polygon fill="white" stroke="#666666" points="475.5,-440.47 348.5,-440.47 348.5,-421.47 475.5,-421.47 475.5,-440.47"/>
<text text-anchor="middle" x="412" y="-428.47" font-family="Helvetica,sans-Serif" font-size="10.00">LinkedMap&lt; FilePair &gt;</text>
</a>
</g>
</g>
<!-- Node1&#45;&gt;Node14 -->
<g id="edge13_Node000001_Node000014" class="edge">
<title>Node1&#45;&gt;Node14</title>
<g id="a_edge13_Node000001_Node000014"><a xlink:title=" ">
<path fill="none" stroke="orange" stroke-dasharray="5,2" d="M80.58,-360.4C94.9,-375.17 115.65,-393.48 138,-402.97 205.75,-431.75 291.16,-435.99 348.24,-434.83"/>
<polygon fill="orange" stroke="orange" points="83.1,-357.97 73.71,-353.06 77.99,-362.75 83.1,-357.97"/>
</a>
</g>
<text text-anchor="middle" x="221" y="-436.97" font-family="Helvetica,sans-Serif" font-size="10.00" fill="grey"> &lt; FilePair &gt;</text>
</g>
<!-- Node16 -->
<g id="Node000016" class="node">
<title>Node16</title>
<g id="a_Node000016"><a xlink:href="../../d0/d2c/class_linked_map.html" target="_top" xlink:title=" ">
<polygon fill="white" stroke="#666666" points="481,-403.47 343,-403.47 343,-384.47 481,-384.47 481,-403.47"/>
<text text-anchor="middle" x="412" y="-391.47" font-family="Helvetica,sans-Serif" font-size="10.00">LinkedMap&lt; GroupDef &gt;</text>
</a>
</g>
</g>
<!-- Node1&#45;&gt;Node16 -->
<g id="edge15_Node000001_Node000016" class="edge">
<title>Node1&#45;&gt;Node16</title>
<g id="a_edge15_Node000001_Node000016"><a xlink:title=" ">
<path fill="none" stroke="orange" stroke-dasharray="5,2" d="M108.04,-356.4C117.82,-359.68 128.15,-362.76 138,-364.97 206.82,-380.47 287.31,-387.74 342.98,-391.12"/>
<polygon fill="orange" stroke="orange" points="109.08,-353.05 98.48,-353.07 106.77,-359.66 109.08,-353.05"/>
</a>
</g>
<text text-anchor="middle" x="221" y="-390.97" font-family="Helvetica,sans-Serif" font-size="10.00" fill="grey"> &lt; GroupDef &gt;</text>
</g>
<!-- Node18 -->
<g id="Node000018" class="node">
<title>Node18</title>
<g id="a_Node000018"><a xlink:href="../../d0/d2c/class_linked_map.html" target="_top" xlink:title=" ">
<polygon fill="white" stroke="#666666" points="502,-366.47 322,-366.47 322,-347.47 502,-347.47 502,-366.47"/>
<text text-anchor="middle" x="412" y="-354.47" font-family="Helvetica,sans-Serif" font-size="10.00">LinkedMap&lt; MemberNameInfo &gt;</text>
</a>
</g>
</g>
<!-- Node1&#45;&gt;Node18 -->
<g id="edge17_Node000001_Node000018" class="edge">
<title>Node1&#45;&gt;Node18</title>
<g id="a_edge17_Node000001_Node000018"><a xlink:title=" ">
<path fill="none" stroke="orange" stroke-dasharray="5,2" d="M130.69,-341.76C185.54,-344.73 262.36,-348.9 321.71,-352.13"/>
<polygon fill="orange" stroke="orange" points="130.55,-338.24 120.37,-341.2 130.17,-345.23 130.55,-338.24"/>
</a>
</g>
<text text-anchor="middle" x="221" y="-352.97" font-family="Helvetica,sans-Serif" font-size="10.00" fill="grey"> &lt; MemberNameInfo &gt;</text>
</g>
<!-- Node20 -->
<g id="Node000020" class="node">
<title>Node20</title>
<g id="a_Node000020"><a xlink:href="../../d0/d2c/class_linked_map.html" target="_top" xlink:title=" ">
<polygon fill="white" stroke="#666666" points="492.5,-329.47 331.5,-329.47 331.5,-310.47 492.5,-310.47 492.5,-329.47"/>
<text text-anchor="middle" x="412" y="-317.47" font-family="Helvetica,sans-Serif" font-size="10.00">LinkedMap&lt; MemberName &gt;</text>
</a>
</g>
</g>
<!-- Node1&#45;&gt;Node20 -->
<g id="edge19_Node000001_Node000020" class="edge">
<title>Node1&#45;&gt;Node20</title>
<g id="a_edge19_Node000001_Node000020"><a xlink:title=" ">
<path fill="none" stroke="orange" stroke-dasharray="5,2" d="M130.25,-323.87C132.86,-323.54 135.45,-323.23 138,-322.97 202.84,-316.36 276.78,-315.98 331.35,-317.05"/>
<polygon fill="orange" stroke="orange" points="129.51,-320.44 120.11,-325.34 130.51,-327.37 129.51,-320.44"/>
</a>
</g>
<text text-anchor="middle" x="221" y="-325.97" font-family="Helvetica,sans-Serif" font-size="10.00" fill="grey"> &lt; MemberName &gt;</text>
</g>
<!-- Node22 -->
<g id="Node000022" class="node">
<title>Node22</title>
<g id="a_Node000022"><a xlink:href="../../d0/d2c/class_linked_map.html" target="_top" xlink:title=" ">
<polygon fill="white" stroke="#666666" points="484.5,-292.47 339.5,-292.47 339.5,-273.47 484.5,-273.47 484.5,-292.47"/>
<text text-anchor="middle" x="412" y="-280.47" font-family="Helvetica,sans-Serif" font-size="10.00">LinkedMap&lt; ModuleDef &gt;</text>
</a>
</g>
</g>
<!-- Node1&#45;&gt;Node22 -->
<g id="edge21_Node000001_Node000022" class="edge">
<title>Node1&#45;&gt;Node22</title>
<g id="a_edge21_Node000001_Node000022"><a xlink:title=" ">
<path fill="none" stroke="orange" stroke-dasharray="5,2" d="M95.11,-318.13C108.11,-311.5 123.34,-304.82 138,-300.97 204.73,-283.44 283.62,-280.01 339.39,-280.32"/>
<polygon fill="orange" stroke="orange" points="93.28,-315.13 86.07,-322.9 96.55,-321.32 93.28,-315.13"/>
</a>
</g>
<text text-anchor="middle" x="221" y="-303.97" font-family="Helvetica,sans-Serif" font-size="10.00" fill="grey"> &lt; ModuleDef &gt;</text>
</g>
<!-- Node24 -->
<g id="Node000024" class="node">
<title>Node24</title>
<g id="a_Node000024"><a xlink:href="../../d0/d2c/class_linked_map.html" target="_top" xlink:title=" ">
<polygon fill="white" stroke="#666666" points="495.5,-255.47 328.5,-255.47 328.5,-236.47 495.5,-236.47 495.5,-255.47"/>
<text text-anchor="middle" x="412" y="-243.47" font-family="Helvetica,sans-Serif" font-size="10.00">LinkedMap&lt; NamespaceDef &gt;</text>
</a>
</g>
</g>
<!-- Node1&#45;&gt;Node24 -->
<g id="edge23_Node000001_Node000024" class="edge">
<title>Node1&#45;&gt;Node24</title>
<g id="a_edge23_Node000001_Node000024"><a xlink:title=" ">
<path fill="none" stroke="orange" stroke-dasharray="5,2" d="M78.02,-314.85C92.02,-297.78 113.51,-275.74 138,-264.97 197.91,-238.64 272.39,-235.14 328.42,-237.53"/>
<polygon fill="orange" stroke="orange" points="75.22,-312.74 71.76,-322.75 80.71,-317.08 75.22,-312.74"/>
</a>
</g>
<text text-anchor="middle" x="221" y="-267.97" font-family="Helvetica,sans-Serif" font-size="10.00" fill="grey"> &lt; NamespaceDef &gt;</text>
</g>
<!-- Node26 -->
<g id="Node000026" class="node">
<title>Node26</title>
<g id="a_Node000026"><a xlink:href="../../d0/d2c/class_linked_map.html" target="_top" xlink:title=" ">
<polygon fill="white" stroke="#666666" points="478,-218.47 346,-218.47 346,-199.47 478,-199.47 478,-218.47"/>
<text text-anchor="middle" x="412" y="-206.47" font-family="Helvetica,sans-Serif" font-size="10.00">LinkedMap&lt; PageDef &gt;</text>
</a>
</g>
</g>
<!-- Node1&#45;&gt;Node26 -->
<g id="edge25_Node000001_Node000026" class="edge">
<title>Node1&#45;&gt;Node26</title>
<g id="a_edge25_Node000001_Node000026"><a xlink:title=" ">
<path fill="none" stroke="orange" stroke-dasharray="5,2" d="M69.38,-313.32C80.33,-285.4 102.4,-241.18 138,-220.97 172.19,-201.56 276.55,-202.26 345.88,-205.16"/>
<polygon fill="orange" stroke="orange" points="66.06,-312.2 65.85,-322.79 72.62,-314.64 66.06,-312.2"/>
</a>
</g>
<text text-anchor="middle" x="221" y="-223.97" font-family="Helvetica,sans-Serif" font-size="10.00" fill="grey"> &lt; PageDef &gt;</text>
</g>
<!-- Node28 -->
<g id="Node000028" class="node">
<title>Node28</title>
<g id="a_Node000028"><a xlink:href="../../d0/d2c/class_linked_map.html" target="_top" xlink:title=" ">
<polygon fill="white" stroke="#666666" points="474.5,-181.47 349.5,-181.47 349.5,-162.47 474.5,-162.47 474.5,-181.47"/>
<text text-anchor="middle" x="412" y="-169.47" font-family="Helvetica,sans-Serif" font-size="10.00">LinkedMap&lt; RefList &gt;</text>
</a>
</g>
</g>
<!-- Node1&#45;&gt;Node28 -->
<g id="edge27_Node000001_Node000028" class="edge">
<title>Node1&#45;&gt;Node28</title>
<g id="a_edge27_Node000001_Node000028"><a xlink:title=" ">
<path fill="none" stroke="orange" stroke-dasharray="5,2" d="M65.86,-312.92C74.05,-278.19 94.22,-216.51 138,-187.97 208.21,-142.22 311.37,-151.95 368.68,-162.41"/>
<polygon fill="orange" stroke="orange" points="62.42,-312.24 63.69,-322.76 69.26,-313.75 62.42,-312.24"/>
</a>
</g>
<text text-anchor="middle" x="221" y="-190.97" font-family="Helvetica,sans-Serif" font-size="10.00" fill="grey"> &lt; RefList &gt;</text>
</g>
<!-- Node30 -->
<g id="Node000030" class="node">
<title>Node30</title>
<g id="a_Node000030"><a xlink:href="../../d0/d2c/class_linked_map.html" target="_top" xlink:title=" ">
<polygon fill="white" stroke="#666666" points="485,-144.47 339,-144.47 339,-125.47 485,-125.47 485,-144.47"/>
<text text-anchor="middle" x="412" y="-132.47" font-family="Helvetica,sans-Serif" font-size="10.00">LinkedMap&lt; SectionInfo &gt;</text>
</a>
</g>
</g>
<!-- Node1&#45;&gt;Node30 -->
<g id="edge29_Node000001_Node000030" class="edge">
<title>Node1&#45;&gt;Node30</title>
<g id="a_edge29_Node000001_Node000030"><a xlink:title=" ">
<path fill="none" stroke="orange" stroke-dasharray="5,2" d="M62.17,-312.6C65.73,-268.41 80.11,-178.19 138,-137.97 169.29,-116.24 268.93,-120.62 338.74,-126.88"/>
<polygon fill="orange" stroke="orange" points="58.66,-312.57 61.48,-322.79 65.65,-313.05 58.66,-312.57"/>
</a>
</g>
<text text-anchor="middle" x="221" y="-140.97" font-family="Helvetica,sans-Serif" font-size="10.00" fill="grey"> &lt; SectionInfo &gt;</text>
</g>
<!-- Node32 -->
<g id="Node000032" class="node">
<title>Node32</title>
<g id="a_Node000032"><a xlink:href="../../d0/d2c/class_linked_map.html" target="_top" xlink:title=" ">
<polygon fill="white" stroke="#666666" points="477.5,-107.47 346.5,-107.47 346.5,-88.47 477.5,-88.47 477.5,-107.47"/>
<text text-anchor="middle" x="412" y="-95.47" font-family="Helvetica,sans-Serif" font-size="10.00">LinkedMap&lt; Formula &gt;</text>
</a>
</g>
</g>
<!-- Node1&#45;&gt;Node32 -->
<g id="edge31_Node000001_Node000032" class="edge">
<title>Node1&#45;&gt;Node32</title>
<g id="a_edge31_Node000001_Node000032"><a xlink:title=" ">
<path fill="none" stroke="orange" stroke-dasharray="5,2" d="M60.79,-312.75C61.91,-263.72 72.17,-156.09 138,-106.97 169.74,-83.29 276.24,-86.68 346.46,-91.89"/>
<polygon fill="orange" stroke="orange" points="57.29,-312.78 60.67,-322.82 64.29,-312.86 57.29,-312.78"/>
</a>
</g>
<text text-anchor="middle" x="221" y="-109.97" font-family="Helvetica,sans-Serif" font-size="10.00" fill="grey"> &lt; Formula &gt;</text>
</g>
<!-- Node33 -->
<g id="Node000033" class="node">
<title>Node33</title>
<g id="a_Node000033"><a xlink:href="../../d0/d2c/class_linked_map.html" target="_top" xlink:title=" ">
<polygon fill="white" stroke="#666666" points="483,-70.47 341,-70.47 341,-51.47 483,-51.47 483,-70.47"/>
<text text-anchor="middle" x="412" y="-58.47" font-family="Helvetica,sans-Serif" font-size="10.00">LinkedMap&lt; IndexField &gt;</text>
</a>
</g>
</g>
<!-- Node1&#45;&gt;Node33 -->
<g id="edge32_Node000001_Node000033" class="edge">
<title>Node1&#45;&gt;Node33</title>
<g id="a_edge32_Node000001_Node000033"><a xlink:title=" ">
<path fill="none" stroke="orange" stroke-dasharray="5,2" d="M64.66,-312.46C73.85,-252.21 99.96,-103.94 138,-73.97 168.33,-50.08 270.43,-51.31 340.79,-55.38"/>
<polygon fill="orange" stroke="orange" points="61.15,-312.23 63.14,-322.63 68.08,-313.26 61.15,-312.23"/>
</a>
</g>
<text text-anchor="middle" x="221" y="-76.97" font-family="Helvetica,sans-Serif" font-size="10.00" fill="grey"> &lt; IndexField &gt;</text>
</g>
<!-- Node34 -->
<g id="Node000034" class="node">
<title>Node34</title>
<g id="a_Node000034"><a xlink:href="../../d0/d2c/class_linked_map.html" target="_top" xlink:title=" ">
<polygon fill="white" stroke="#666666" points="492.5,-33.47 331.5,-33.47 331.5,-14.47 492.5,-14.47 492.5,-33.47"/>
<text text-anchor="middle" x="412" y="-21.47" font-family="Helvetica,sans-Serif" font-size="10.00">LinkedMap&lt; PreIncludeInfo &gt;</text>
</a>
</g>
</g>
<!-- Node1&#45;&gt;Node34 -->
<g id="edge33_Node000001_Node000034" class="edge">
<title>Node1&#45;&gt;Node34</title>
<g id="a_edge33_Node000001_Node000034"><a xlink:title=" ">
<path fill="none" stroke="orange" stroke-dasharray="5,2" d="M63.77,-312.29C71.45,-246.39 95.29,-74 138,-38.97 206.64,17.31 320.67,-0.63 377.15,-14.39"/>
<polygon fill="orange" stroke="orange" points="60.25,-312.28 62.6,-322.61 67.2,-313.07 60.25,-312.28"/>
</a>
</g>
<text text-anchor="middle" x="221" y="-41.97" font-family="Helvetica,sans-Serif" font-size="10.00" fill="grey"> &lt; PreIncludeInfo &gt;</text>
</g>
<!-- Node3 -->
<g id="Node000003" class="node">
<title>Node3</title>
<g id="a_Node000003"><a xlink:href="../../d0/d10/class_class_linked_map.html" target="_top" xlink:title=" ">
<polygon fill="white" stroke="#666666" points="665.5,-706.47 570.5,-706.47 570.5,-687.47 665.5,-687.47 665.5,-706.47"/>
<text text-anchor="middle" x="618" y="-694.47" font-family="Helvetica,sans-Serif" font-size="10.00">ClassLinkedMap</text>
</a>
</g>
</g>
<!-- Node2&#45;&gt;Node3 -->
<g id="edge2_Node000002_Node000003" class="edge">
<title>Node2&#45;&gt;Node3</title>
<g id="a_edge2_Node000002_Node000003"><a xlink:title=" ">
<path fill="none" stroke="#63b8ff" d="M489.75,-696.97C516.82,-696.97 546.43,-696.97 570.27,-696.97"/>
<polygon fill="#63b8ff" stroke="#63b8ff" points="489.51,-693.47 479.51,-696.97 489.51,-700.47 489.51,-693.47"/>
</a>
</g>
</g>
<!-- Node5 -->
<g id="Node000005" class="node">
<title>Node5</title>
<g id="a_Node000005"><a xlink:href="../../db/ded/class_concept_linked_map.html" target="_top" xlink:title=" ">
<polygon fill="white" stroke="#666666" points="672.5,-669.47 563.5,-669.47 563.5,-650.47 672.5,-650.47 672.5,-669.47"/>
<text text-anchor="middle" x="618" y="-657.47" font-family="Helvetica,sans-Serif" font-size="10.00">ConceptLinkedMap</text>
</a>
</g>
</g>
<!-- Node4&#45;&gt;Node5 -->
<g id="edge4_Node000004_Node000005" class="edge">
<title>Node4&#45;&gt;Node5</title>
<g id="a_edge4_Node000004_Node000005"><a xlink:title=" ">
<path fill="none" stroke="#63b8ff" d="M496.86,-659.97C519.31,-659.97 542.97,-659.97 563.3,-659.97"/>
<polygon fill="#63b8ff" stroke="#63b8ff" points="496.65,-656.47 486.65,-659.97 496.65,-663.47 496.65,-656.47"/>
</a>
</g>
</g>
<!-- Node7 -->
<g id="Node000007" class="node">
<title>Node7</title>
<g id="a_Node000007"><a xlink:href="../../dd/dd7/class_dir_def_1_1_used_dir_linked_map.html" target="_top" xlink:title=" ">
<polygon fill="white" stroke="#666666" points="690.5,-632.47 545.5,-632.47 545.5,-613.47 690.5,-613.47 690.5,-632.47"/>
<text text-anchor="middle" x="618" y="-620.47" font-family="Helvetica,sans-Serif" font-size="10.00">DirDef::UsedDirLinkedMap</text>
</a>
</g>
</g>
<!-- Node6&#45;&gt;Node7 -->
<g id="edge6_Node000006_Node000007" class="edge">
<title>Node6&#45;&gt;Node7</title>
<g id="a_edge6_Node000006_Node000007"><a xlink:title=" ">
<path fill="none" stroke="#63b8ff" d="M487.58,-622.97C506.47,-622.97 526.7,-622.97 545.44,-622.97"/>
<polygon fill="#63b8ff" stroke="#63b8ff" points="487.55,-619.47 477.55,-622.97 487.55,-626.47 487.55,-619.47"/>
</a>
</g>
</g>
<!-- Node9 -->
<g id="Node000009" class="node">
<title>Node9</title>
<g id="a_Node000009"><a xlink:href="../../de/d40/class_dir_linked_map.html" target="_top" xlink:title="A linked map of directories.">
<polygon fill="white" stroke="#666666" points="659.5,-595.47 576.5,-595.47 576.5,-576.47 659.5,-576.47 659.5,-595.47"/>
<text text-anchor="middle" x="618" y="-583.47" font-family="Helvetica,sans-Serif" font-size="10.00">DirLinkedMap</text>
</a>
</g>
</g>
<!-- Node8&#45;&gt;Node9 -->
<g id="edge8_Node000008_Node000009" class="edge">
<title>Node8&#45;&gt;Node9</title>
<g id="a_edge8_Node000008_Node000009"><a xlink:title=" ">
<path fill="none" stroke="#63b8ff" d="M483.94,-585.97C514.81,-585.97 549.88,-585.97 576.26,-585.97"/>
<polygon fill="#63b8ff" stroke="#63b8ff" points="483.65,-582.47 473.65,-585.97 483.65,-589.47 483.65,-582.47"/>
</a>
</g>
</g>
<!-- Node11 -->
<g id="Node000011" class="node">
<title>Node11</title>
<g id="a_Node000011"><a xlink:href="../../d4/d03/class_dir_relation_linked_map.html" target="_top" xlink:title=" ">
<polygon fill="white" stroke="#666666" points="680,-558.47 556,-558.47 556,-539.47 680,-539.47 680,-558.47"/>
<text text-anchor="middle" x="618" y="-546.47" font-family="Helvetica,sans-Serif" font-size="10.00">DirRelationLinkedMap</text>
</a>
</g>
</g>
<!-- Node10&#45;&gt;Node11 -->
<g id="edge10_Node000010_Node000011" class="edge">
<title>Node10&#45;&gt;Node11</title>
<g id="a_edge10_Node000010_Node000011"><a xlink:title=" ">
<path fill="none" stroke="#63b8ff" d="M495.32,-548.97C515.49,-548.97 536.72,-548.97 555.7,-548.97"/>
<polygon fill="#63b8ff" stroke="#63b8ff" points="495.21,-545.47 485.21,-548.97 495.21,-552.47 495.21,-545.47"/>
</a>
</g>
</g>
<!-- Node13 -->
<g id="Node000013" class="node">
<title>Node13</title>
<g id="a_Node000013"><a xlink:href="../../d0/d2c/class_file_name_linked_map.html" target="_top" xlink:title="Ordered dictionary of FileName objects.">
<polygon fill="white" stroke="#666666" points="676,-499.47 560,-499.47 560,-480.47 676,-480.47 676,-499.47"/>
<text text-anchor="middle" x="618" y="-487.47" font-family="Helvetica,sans-Serif" font-size="10.00">FileNameLinkedMap</text>
</a>
</g>
</g>
<!-- Node12&#45;&gt;Node13 -->
<g id="edge12_Node000012_Node000013" class="edge">
<title>Node12&#45;&gt;Node13</title>
<g id="a_edge12_Node000012_Node000013"><a xlink:title=" ">
<path fill="none" stroke="#63b8ff" d="M504.57,-489.97C523.36,-489.97 542.63,-489.97 559.78,-489.97"/>
<polygon fill="#63b8ff" stroke="#63b8ff" points="504.51,-486.47 494.51,-489.97 504.51,-493.47 504.51,-486.47"/>
</a>
</g>
</g>
<!-- Node15 -->
<g id="Node000015" class="node">
<title>Node15</title>
<g id="a_Node000015"><a xlink:href="../../d3/d29/class_file_pair_linked_map.html" target="_top" xlink:title="A linked map of file pairs.">
<polygon fill="white" stroke="#666666" points="670,-440.47 566,-440.47 566,-421.47 670,-421.47 670,-440.47"/>
<text text-anchor="middle" x="618" y="-428.47" font-family="Helvetica,sans-Serif" font-size="10.00">FilePairLinkedMap</text>
</a>
</g>
</g>
<!-- Node14&#45;&gt;Node15 -->
<g id="edge14_Node000014_Node000015" class="edge">
<title>Node14&#45;&gt;Node15</title>
<g id="a_edge14_Node000014_Node000015"><a xlink:title=" ">
<path fill="none" stroke="#63b8ff" d="M485.6,-430.97C512.12,-430.97 541.55,-430.97 565.82,-430.97"/>
<polygon fill="#63b8ff" stroke="#63b8ff" points="485.59,-427.47 475.59,-430.97 485.59,-434.47 485.59,-427.47"/>
</a>
</g>
</g>
<!-- Node17 -->
<g id="Node000017" class="node">
<title>Node17</title>
<g id="a_Node000017"><a xlink:href="../../d3/dbd/class_group_linked_map.html" target="_top" xlink:title=" ">
<polygon fill="white" stroke="#666666" points="667,-403.47 569,-403.47 569,-384.47 667,-384.47 667,-403.47"/>
<text text-anchor="middle" x="618" y="-391.47" font-family="Helvetica,sans-Serif" font-size="10.00">GroupLinkedMap</text>
</a>
</g>
</g>
<!-- Node16&#45;&gt;Node17 -->
<g id="edge16_Node000016_Node000017" class="edge">
<title>Node16&#45;&gt;Node17</title>
<g id="a_edge16_Node000016_Node000017"><a xlink:title=" ">
<path fill="none" stroke="#63b8ff" d="M491.46,-393.97C517.52,-393.97 545.76,-393.97 568.84,-393.97"/>
<polygon fill="#63b8ff" stroke="#63b8ff" points="491.21,-390.47 481.21,-393.97 491.21,-397.47 491.21,-390.47"/>
</a>
</g>
</g>
<!-- Node19 -->
<g id="Node000019" class="node">
<title>Node19</title>
<g id="a_Node000019"><a xlink:href="../../de/d04/class_member_name_info_linked_map.html" target="_top" xlink:title=" ">
<polygon fill="white" stroke="#666666" points="697,-366.47 539,-366.47 539,-347.47 697,-347.47 697,-366.47"/>
<text text-anchor="middle" x="618" y="-354.47" font-family="Helvetica,sans-Serif" font-size="10.00">MemberNameInfoLinkedMap</text>
</a>
</g>
</g>
<!-- Node18&#45;&gt;Node19 -->
<g id="edge18_Node000018_Node000019" class="edge">
<title>Node18&#45;&gt;Node19</title>
<g id="a_edge18_Node000018_Node000019"><a xlink:title=" ">
<path fill="none" stroke="#63b8ff" d="M512.25,-356.97C521.19,-356.97 530.16,-356.97 538.88,-356.97"/>
<polygon fill="#63b8ff" stroke="#63b8ff" points="512.18,-353.47 502.18,-356.97 512.18,-360.47 512.18,-353.47"/>
</a>
</g>
</g>
<!-- Node21 -->
<g id="Node000021" class="node">
<title>Node21</title>
<g id="a_Node000021"><a xlink:href="../../da/d3d/class_member_name_linked_map.html" target="_top" xlink:title="Ordered dictionary of MemberName objects.">
<polygon fill="white" stroke="#666666" points="687.5,-329.47 548.5,-329.47 548.5,-310.47 687.5,-310.47 687.5,-329.47"/>
<text text-anchor="middle" x="618" y="-317.47" font-family="Helvetica,sans-Serif" font-size="10.00">MemberNameLinkedMap</text>
</a>
</g>
</g>
<!-- Node20&#45;&gt;Node21 -->
<g id="edge20_Node000020_Node000021" class="edge">
<title>Node20&#45;&gt;Node21</title>
<g id="a_edge20_Node000020_Node000021"><a xlink:title=" ">
<path fill="none" stroke="#63b8ff" d="M503.15,-319.97C518.27,-319.97 533.75,-319.97 548.23,-319.97"/>
<polygon fill="#63b8ff" stroke="#63b8ff" points="502.75,-316.47 492.75,-319.97 502.75,-323.47 502.75,-316.47"/>
</a>
</g>
</g>
<!-- Node23 -->
<g id="Node000023" class="node">
<title>Node23</title>
<g id="a_Node000023"><a xlink:href="../../df/d8e/class_module_linked_map.html" target="_top" xlink:title=" ">
<polygon fill="white" stroke="#666666" points="670.5,-292.47 565.5,-292.47 565.5,-273.47 670.5,-273.47 670.5,-292.47"/>
<text text-anchor="middle" x="618" y="-280.47" font-family="Helvetica,sans-Serif" font-size="10.00">ModuleLinkedMap</text>
</a>
</g>
</g>
<!-- Node22&#45;&gt;Node23 -->
<g id="edge22_Node000022_Node000023" class="edge">
<title>Node22&#45;&gt;Node23</title>
<g id="a_edge22_Node000022_Node000023"><a xlink:title=" ">
<path fill="none" stroke="#63b8ff" d="M494.75,-282.97C518.61,-282.97 544.01,-282.97 565.44,-282.97"/>
<polygon fill="#63b8ff" stroke="#63b8ff" points="494.64,-279.47 484.64,-282.97 494.64,-286.47 494.64,-279.47"/>
</a>
</g>
</g>
<!-- Node25 -->
<g id="Node000025" class="node">
<title>Node25</title>
<g id="a_Node000025"><a xlink:href="../../d7/d60/class_namespace_linked_map.html" target="_top" xlink:title=" ">
<polygon fill="white" stroke="#666666" points="681.5,-255.47 554.5,-255.47 554.5,-236.47 681.5,-236.47 681.5,-255.47"/>
<text text-anchor="middle" x="618" y="-243.47" font-family="Helvetica,sans-Serif" font-size="10.00">NamespaceLinkedMap</text>
</a>
</g>
</g>
<!-- Node24&#45;&gt;Node25 -->
<g id="edge24_Node000024_Node000025" class="edge">
<title>Node24&#45;&gt;Node25</title>
<g id="a_edge24_Node000024_Node000025"><a xlink:title=" ">
<path fill="none" stroke="#63b8ff" d="M505.83,-245.97C522.23,-245.97 538.94,-245.97 554.26,-245.97"/>
<polygon fill="#63b8ff" stroke="#63b8ff" points="505.68,-242.47 495.68,-245.97 505.68,-249.47 505.68,-242.47"/>
</a>
</g>
</g>
<!-- Node27 -->
<g id="Node000027" class="node">
<title>Node27</title>
<g id="a_Node000027"><a xlink:href="../../d9/d5e/class_page_linked_map.html" target="_top" xlink:title=" ">
<polygon fill="white" stroke="#666666" points="664,-218.47 572,-218.47 572,-199.47 664,-199.47 664,-218.47"/>
<text text-anchor="middle" x="618" y="-206.47" font-family="Helvetica,sans-Serif" font-size="10.00">PageLinkedMap</text>
</a>
</g>
</g>
<!-- Node26&#45;&gt;Node27 -->
<g id="edge26_Node000026_Node000027" class="edge">
<title>Node26&#45;&gt;Node27</title>
<g id="a_edge26_Node000026_Node000027"><a xlink:title=" ">
<path fill="none" stroke="#63b8ff" d="M488.3,-208.97C516.36,-208.97 547.32,-208.97 571.85,-208.97"/>
<polygon fill="#63b8ff" stroke="#63b8ff" points="488.11,-205.47 478.11,-208.97 488.11,-212.47 488.11,-205.47"/>
</a>
</g>
</g>
<!-- Node29 -->
<g id="Node000029" class="node">
<title>Node29</title>
<g id="a_Node000029"><a xlink:href="../../d7/d5a/class_ref_list_manager.html" target="_top" xlink:title=" ">
<polygon fill="white" stroke="#666666" points="664.5,-181.47 571.5,-181.47 571.5,-162.47 664.5,-162.47 664.5,-181.47"/>
<text text-anchor="middle" x="618" y="-169.47" font-family="Helvetica,sans-Serif" font-size="10.00">RefListManager</text>
</a>
</g>
</g>
<!-- Node28&#45;&gt;Node29 -->
<g id="edge28_Node000028_Node000029" class="edge">
<title>Node28&#45;&gt;Node29</title>
<g id="a_edge28_Node000028_Node000029"><a xlink:title=" ">
<path fill="none" stroke="#63b8ff" d="M484.77,-171.97C513.55,-171.97 545.85,-171.97 571.33,-171.97"/>
<polygon fill="#63b8ff" stroke="#63b8ff" points="484.76,-168.47 474.76,-171.97 484.76,-175.47 484.76,-168.47"/>
</a>
</g>
</g>
<!-- Node31 -->
<g id="Node000031" class="node">
<title>Node31</title>
<g id="a_Node000031"><a xlink:href="../../df/df5/class_section_manager.html" target="_top" xlink:title="singleton class that owns the list of all sections">
<polygon fill="white" stroke="#666666" points="665.5,-144.47 570.5,-144.47 570.5,-125.47 665.5,-125.47 665.5,-144.47"/>
<text text-anchor="middle" x="618" y="-132.47" font-family="Helvetica,sans-Serif" font-size="10.00">SectionManager</text>
</a>
</g>
</g>
<!-- Node30&#45;&gt;Node31 -->
<g id="edge30_Node000030_Node000031" class="edge">
<title>Node30&#45;&gt;Node31</title>
<g id="a_edge30_Node000030_Node000031"><a xlink:title=" ">
<path fill="none" stroke="#63b8ff" d="M495.29,-134.97C520.85,-134.97 548.14,-134.97 570.38,-134.97"/>
<polygon fill="#63b8ff" stroke="#63b8ff" points="495.21,-131.47 485.21,-134.97 495.21,-138.47 495.21,-131.47"/>
</a>
</g>
</g>
</g>
</svg>

<g id="navigator" transform="translate(0 0)" fill="#404254">
  <rect fill="#f2f5e9" fill-opacity="0.5" stroke="#606060" stroke-width=".5" x="0" y="0" width="60" height="60"/>
  <use id="zoomplus" xlink:href="#zoomPlus" x="17" y="9" onmousedown="handleZoom(evt,'in')"/>
  <use id="zoomminus" xlink:href="#zoomMin" x="42" y="9" onmousedown="handleZoom(evt,'out')"/>
  <use id="reset" xlink:href="#resetDef" x="30" y="36" onmousedown="handleReset()"/>
   <use id="arrowup" xlink:href="#arrowUp" x="0" y="0" onmousedown="handlePan(0,-1)"/>
  <use id="arrowright" xlink:href="#arrowRight" x="0" y="0" onmousedown="handlePan(1,0)"/>
  <use id="arrowdown" xlink:href="#arrowDown" x="0" y="0" onmousedown="handlePan(0,1)"/>
  <use id="arrowleft" xlink:href="#arrowLeft" x="0" y="0" onmousedown="handlePan(-1,0)"/>
</g>
<svg viewBox="0 0 15 15" width="100%" height="30px" preserveAspectRatio="xMaxYMin meet">
 <g id="arrow_out" transform="scale(0.3 0.3)">
  <a xlink:href="class_linked_map__inherit__graph_org.svg" target="_base">
   <rect id="button" ry="5" rx="5" y="6" x="6" height="38" width="38"
        fill="#f2f5e9" fill-opacity="0.5" stroke="#606060" stroke-width="1.0"/>
   <path id="arrow"
     d="M 11.500037,31.436501 C 11.940474,20.09759 22.043105,11.32322 32.158766,21.979434 L 37.068811,17.246167 C 37.068811,17.246167 37.088388,32 37.088388,32 L 22.160133,31.978069 C 22.160133,31.978069 26.997745,27.140456 26.997745,27.140456 C 18.528582,18.264221 13.291696,25.230495 11.500037,31.436501 z"
     style="fill:#404040;"/>
  </a>
 </g>
</svg>

<style type='text/css'>
<![CDATA[
[data-mouse-over-selected='false'] { opacity: 0.7; }
[data-mouse-over-selected='true']  { opacity: 1.0; }
]]>
</style>
<script type="application/ecmascript"><![CDATA[
document.addEventListener('DOMContentLoaded', (event) => {
  highlightEdges();
  highlightAdjacentNodes();
});
]]></script>
</svg>
