<?xml version="1.0" encoding="UTF-8" standalone="no"?>
<!DOCTYPE svg PUBLIC "-//W3C//DTD SVG 1.1//EN"
 "http://www.w3.org/Graphics/SVG/1.1/DTD/svg11.dtd">
<!-- Generated by graphviz version 2.43.0 (0)
 -->
<!-- Title: LinkedMap&lt; T, Hash, KeyEqual, Map &gt; Pages: 1 -->
<svg width="705pt" height="695pt"
 viewBox="0.00 0.00 705.00 694.68" xmlns="http://www.w3.org/2000/svg" xmlns:xlink="http://www.w3.org/1999/xlink">
<g id="graph0" class="graph" transform="scale(1 1) rotate(0) translate(4 690.68)">
<title>LinkedMap&lt; T, Hash, KeyEqual, Map &gt;</title>
<!-- Node1 -->
<g id="Node000001" class="node">
<title>Node1</title>
<g id="a_Node000001"><a xlink:title="Container class representing a vector of objects with keys.">
<polygon fill="#999999" stroke="#666666" points="120,-334.68 0,-334.68 0,-304.68 120,-304.68 120,-334.68"/>
<text text-anchor="start" x="8" y="-322.68" font-family="Helvetica,sans-Serif" font-size="10.00">LinkedMap&lt; T, Hash,</text>
<text text-anchor="middle" x="60" y="-311.68" font-family="Helvetica,sans-Serif" font-size="10.00"> KeyEqual, Map &gt;</text>
</a>
</g>
</g>
<!-- Node2 -->
<g id="Node000002" class="node">
<title>Node2</title>
<g id="a_Node000002"><a xlink:href="../../d0/d2c/class_linked_map.html" target="_top" xlink:title=" ">
<polygon fill="white" stroke="#666666" points="479.5,-669.18 344.5,-669.18 344.5,-650.18 479.5,-650.18 479.5,-669.18"/>
<text text-anchor="middle" x="412" y="-657.18" font-family="Helvetica,sans-Serif" font-size="10.00">LinkedMap&lt; ClassDef &gt;</text>
</a>
</g>
</g>
<!-- Node1&#45;&gt;Node2 -->
<g id="edge1_Node000001_Node000002" class="edge">
<title>Node1&#45;&gt;Node2</title>
<g id="a_edge1_Node000001_Node000002"><a xlink:title=" ">
<path fill="none" stroke="orange" stroke-dasharray="5,2" d="M63.54,-344.99C70.87,-412.39 94.32,-593.71 138,-631.68 201.47,-686.84 307.19,-679.25 366.73,-669.21"/>
<polygon fill="orange" stroke="orange" points="67,-344.41 62.47,-334.83 60.04,-345.15 67,-344.41"/>
</a>
</g>
<text text-anchor="middle" x="221" y="-678.68" font-family="Helvetica,sans-Serif" font-size="10.00" fill="grey"> &lt; ClassDef &gt;</text>
</g>
<!-- Node4 -->
<g id="Node000004" class="node">
<title>Node4</title>
<g id="a_Node000004"><a xlink:href="../../d0/d2c/class_linked_map.html" target="_top" xlink:title=" ">
<polygon fill="white" stroke="#666666" points="486.5,-632.18 337.5,-632.18 337.5,-613.18 486.5,-613.18 486.5,-632.18"/>
<text text-anchor="middle" x="412" y="-620.18" font-family="Helvetica,sans-Serif" font-size="10.00">LinkedMap&lt; ConceptDef &gt;</text>
</a>
</g>
</g>
<!-- Node1&#45;&gt;Node4 -->
<g id="edge3_Node000001_Node000004" class="edge">
<title>Node1&#45;&gt;Node4</title>
<g id="a_edge3_Node000001_Node000004"><a xlink:title=" ">
<path fill="none" stroke="orange" stroke-dasharray="5,2" d="M64.42,-344.86C73.33,-406.45 99.28,-562.06 138,-594.68 153.01,-607.32 261.77,-615.29 337.39,-619.36"/>
<polygon fill="orange" stroke="orange" points="67.87,-344.24 63,-334.83 60.94,-345.22 67.87,-344.24"/>
</a>
</g>
<text text-anchor="middle" x="221" y="-619.68" font-family="Helvetica,sans-Serif" font-size="10.00" fill="grey"> &lt; ConceptDef &gt;</text>
</g>
<!-- Node6 -->
<g id="Node000006" class="node">
<title>Node6</title>
<g id="a_Node000006"><a xlink:href="../../d0/d2c/class_linked_map.html" target="_top" xlink:title=" ">
<polygon fill="white" stroke="#666666" points="477.5,-595.18 346.5,-595.18 346.5,-576.18 477.5,-576.18 477.5,-595.18"/>
<text text-anchor="middle" x="412" y="-583.18" font-family="Helvetica,sans-Serif" font-size="10.00">LinkedMap&lt; UsedDir &gt;</text>
</a>
</g>
</g>
<!-- Node1&#45;&gt;Node6 -->
<g id="edge5_Node000001_Node000006" class="edge">
<title>Node1&#45;&gt;Node6</title>
<g id="a_edge5_Node000001_Node000006"><a xlink:title=" ">
<path fill="none" stroke="orange" stroke-dasharray="5,2" d="M60.82,-344.88C61.97,-394.47 72.23,-504.49 138,-557.68 153.86,-570.5 270.67,-578.7 346.26,-582.72"/>
<polygon fill="orange" stroke="orange" points="64.32,-344.67 60.7,-334.72 57.32,-344.76 64.32,-344.67"/>
</a>
</g>
<text text-anchor="middle" x="221" y="-582.68" font-family="Helvetica,sans-Serif" font-size="10.00" fill="grey"> &lt; UsedDir &gt;</text>
</g>
<!-- Node8 -->
<g id="Node000008" class="node">
<title>Node8</title>
<g id="a_Node000008"><a xlink:href="../../d0/d2c/class_linked_map.html" target="_top" xlink:title=" ">
<polygon fill="white" stroke="#666666" points="473.5,-558.18 350.5,-558.18 350.5,-539.18 473.5,-539.18 473.5,-558.18"/>
<text text-anchor="middle" x="412" y="-546.18" font-family="Helvetica,sans-Serif" font-size="10.00">LinkedMap&lt; DirDef &gt;</text>
</a>
</g>
</g>
<!-- Node1&#45;&gt;Node8 -->
<g id="edge7_Node000001_Node000008" class="edge">
<title>Node1&#45;&gt;Node8</title>
<g id="a_edge7_Node000001_Node000008"><a xlink:title=" ">
<path fill="none" stroke="orange" stroke-dasharray="5,2" d="M62.54,-344.96C66.68,-388.66 81.93,-477.74 138,-520.68 154.48,-533.3 275.01,-541.71 350.3,-545.79"/>
<polygon fill="orange" stroke="orange" points="66.02,-344.56 61.71,-334.88 59.04,-345.14 66.02,-344.56"/>
</a>
</g>
<text text-anchor="middle" x="221" y="-545.68" font-family="Helvetica,sans-Serif" font-size="10.00" fill="grey"> &lt; DirDef &gt;</text>
</g>
<!-- Node10 -->
<g id="Node000010" class="node">
<title>Node10</title>
<g id="a_Node000010"><a xlink:href="../../d0/d2c/class_linked_map.html" target="_top" xlink:title=" ">
<polygon fill="white" stroke="#666666" points="485,-521.18 339,-521.18 339,-502.18 485,-502.18 485,-521.18"/>
<text text-anchor="middle" x="412" y="-509.18" font-family="Helvetica,sans-Serif" font-size="10.00">LinkedMap&lt; DirRelation &gt;</text>
</a>
</g>
</g>
<!-- Node1&#45;&gt;Node10 -->
<g id="edge9_Node000001_Node000010" class="edge">
<title>Node1&#45;&gt;Node10</title>
<g id="a_edge9_Node000001_Node000010"><a xlink:title=" ">
<path fill="none" stroke="orange" stroke-dasharray="5,2" d="M64.86,-344.99C72.03,-382.38 91.16,-451.49 138,-484.68 154.08,-496.07 263.47,-504.01 338.8,-508.21"/>
<polygon fill="orange" stroke="orange" points="68.27,-344.15 63.08,-334.91 61.38,-345.37 68.27,-344.15"/>
</a>
</g>
<text text-anchor="middle" x="221" y="-508.68" font-family="Helvetica,sans-Serif" font-size="10.00" fill="grey"> &lt; DirRelation &gt;</text>
</g>
<!-- Node12 -->
<g id="Node000012" class="node">
<title>Node12</title>
<g id="a_Node000012"><a xlink:href="../../d0/d2c/class_linked_map.html" target="_top" xlink:title=" ">
<polygon fill="white" stroke="#666666" points="494.5,-484.18 329.5,-484.18 329.5,-421.18 494.5,-421.18 494.5,-484.18"/>
<text text-anchor="start" x="337.5" y="-472.18" font-family="Helvetica,sans-Serif" font-size="10.00">LinkedMap&lt; FileName,</text>
<text text-anchor="start" x="337.5" y="-461.18" font-family="Helvetica,sans-Serif" font-size="10.00"> FileNameFn, FileNameFn,</text>
<text text-anchor="start" x="337.5" y="-450.18" font-family="Helvetica,sans-Serif" font-size="10.00"> std::unordered_multimap</text>
<text text-anchor="start" x="337.5" y="-439.18" font-family="Helvetica,sans-Serif" font-size="10.00">&lt; std::string, FileName *,</text>
<text text-anchor="middle" x="412" y="-428.18" font-family="Helvetica,sans-Serif" font-size="10.00"> FileNameFn, FileNameFn &gt; &gt;</text>
</a>
</g>
</g>
<!-- Node1&#45;&gt;Node12 -->
<g id="edge11_Node000001_Node000012" class="edge">
<title>Node1&#45;&gt;Node12</title>
<g id="a_edge11_Node000001_Node000012"><a xlink:title=" ">
<path fill="none" stroke="orange" stroke-dasharray="5,2" d="M75.67,-343.52C89.27,-363.46 111.39,-390.95 138,-405.68 154.65,-414.89 255.03,-430.67 329.27,-441.38"/>
<polygon fill="orange" stroke="orange" points="78.45,-341.38 70.03,-334.96 72.61,-345.23 78.45,-341.38"/>
</a>
</g>
<text text-anchor="start" x="138" y="-472.68" font-family="Helvetica,sans-Serif" font-size="10.00" fill="grey"> &lt; FileName, FileNameFn,</text>
<text text-anchor="start" x="138" y="-461.68" font-family="Helvetica,sans-Serif" font-size="10.00" fill="grey"> FileNameFn, std::unordered</text>
<text text-anchor="start" x="138" y="-450.68" font-family="Helvetica,sans-Serif" font-size="10.00" fill="grey">_multimap&lt; std::string, FileName</text>
<text text-anchor="middle" x="221" y="-439.68" font-family="Helvetica,sans-Serif" font-size="10.00" fill="grey"> *, FileNameFn, FileNameFn &gt; &gt;</text>
</g>
<!-- Node14 -->
<g id="Node000014" class="node">
<title>Node14</title>
<g id="a_Node000014"><a xlink:href="../../d0/d2c/class_linked_map.html" target="_top" xlink:title=" ">
<polygon fill="white" stroke="#666666" points="475.5,-403.18 348.5,-403.18 348.5,-384.18 475.5,-384.18 475.5,-403.18"/>
<text text-anchor="middle" x="412" y="-391.18" font-family="Helvetica,sans-Serif" font-size="10.00">LinkedMap&lt; FilePair &gt;</text>
</a>
</g>
</g>
<!-- Node1&#45;&gt;Node14 -->
<g id="edge13_Node000001_Node000014" class="edge">
<title>Node1&#45;&gt;Node14</title>
<g id="a_edge13_Node000001_Node000014"><a xlink:title=" ">
<path fill="none" stroke="orange" stroke-dasharray="5,2" d="M90.38,-340.26C104.21,-348.93 121.3,-358.25 138,-363.68 207.61,-386.3 291.89,-392.58 348.23,-393.98"/>
<polygon fill="orange" stroke="orange" points="92.09,-337.2 81.8,-334.7 88.29,-343.07 92.09,-337.2"/>
</a>
</g>
<text text-anchor="middle" x="221" y="-393.68" font-family="Helvetica,sans-Serif" font-size="10.00" fill="grey"> &lt; FilePair &gt;</text>
</g>
<!-- Node16 -->
<g id="Node000016" class="node">
<title>Node16</title>
<g id="a_Node000016"><a xlink:href="../../d0/d2c/class_linked_map.html" target="_top" xlink:title=" ">
<polygon fill="white" stroke="#666666" points="481,-366.18 343,-366.18 343,-347.18 481,-347.18 481,-366.18"/>
<text text-anchor="middle" x="412" y="-354.18" font-family="Helvetica,sans-Serif" font-size="10.00">LinkedMap&lt; GroupDef &gt;</text>
</a>
</g>
</g>
<!-- Node1&#45;&gt;Node16 -->
<g id="edge15_Node000001_Node000016" class="edge">
<title>Node1&#45;&gt;Node16</title>
<g id="a_edge15_Node000001_Node000016"><a xlink:title=" ">
<path fill="none" stroke="orange" stroke-dasharray="5,2" d="M130.3,-331.64C132.9,-332.01 135.47,-332.35 138,-332.68 207.61,-341.6 287.63,-348.21 342.96,-352.2"/>
<polygon fill="orange" stroke="orange" points="130.61,-328.15 120.2,-330.16 129.59,-335.07 130.61,-328.15"/>
</a>
</g>
<text text-anchor="middle" x="221" y="-351.68" font-family="Helvetica,sans-Serif" font-size="10.00" fill="grey"> &lt; GroupDef &gt;</text>
</g>
<!-- Node18 -->
<g id="Node000018" class="node">
<title>Node18</title>
<g id="a_Node000018"><a xlink:href="../../d0/d2c/class_linked_map.html" target="_top" xlink:title=" ">
<polygon fill="white" stroke="#666666" points="502,-329.18 322,-329.18 322,-310.18 502,-310.18 502,-329.18"/>
<text text-anchor="middle" x="412" y="-317.18" font-family="Helvetica,sans-Serif" font-size="10.00">LinkedMap&lt; MemberNameInfo &gt;</text>
</a>
</g>
</g>
<!-- Node1&#45;&gt;Node18 -->
<g id="edge17_Node000001_Node000018" class="edge">
<title>Node1&#45;&gt;Node18</title>
<g id="a_edge17_Node000001_Node000018"><a xlink:title=" ">
<path fill="none" stroke="orange" stroke-dasharray="5,2" d="M130.69,-319.68C185.54,-319.68 262.36,-319.68 321.71,-319.68"/>
<polygon fill="orange" stroke="orange" points="130.37,-316.18 120.37,-319.68 130.37,-323.18 130.37,-316.18"/>
</a>
</g>
<text text-anchor="middle" x="221" y="-322.68" font-family="Helvetica,sans-Serif" font-size="10.00" fill="grey"> &lt; MemberNameInfo &gt;</text>
</g>
<!-- Node20 -->
<g id="Node000020" class="node">
<title>Node20</title>
<g id="a_Node000020"><a xlink:href="../../d0/d2c/class_linked_map.html" target="_top" xlink:title=" ">
<polygon fill="white" stroke="#666666" points="492.5,-292.18 331.5,-292.18 331.5,-273.18 492.5,-273.18 492.5,-292.18"/>
<text text-anchor="middle" x="412" y="-280.18" font-family="Helvetica,sans-Serif" font-size="10.00">LinkedMap&lt; MemberName &gt;</text>
</a>
</g>
</g>
<!-- Node1&#45;&gt;Node20 -->
<g id="edge19_Node000001_Node000020" class="edge">
<title>Node1&#45;&gt;Node20</title>
<g id="a_edge19_Node000001_Node000020"><a xlink:title=" ">
<path fill="none" stroke="orange" stroke-dasharray="5,2" d="M130.28,-305.8C132.88,-305.4 135.46,-305.02 138,-304.68 202.77,-295.79 276.72,-290.1 331.3,-286.74"/>
<polygon fill="orange" stroke="orange" points="129.47,-302.39 120.16,-307.46 130.6,-309.3 129.47,-302.39"/>
</a>
</g>
<text text-anchor="middle" x="221" y="-307.68" font-family="Helvetica,sans-Serif" font-size="10.00" fill="grey"> &lt; MemberName &gt;</text>
</g>
<!-- Node22 -->
<g id="Node000022" class="node">
<title>Node22</title>
<g id="a_Node000022"><a xlink:href="../../d0/d2c/class_linked_map.html" target="_top" xlink:title=" ">
<polygon fill="white" stroke="#666666" points="495.5,-255.18 328.5,-255.18 328.5,-236.18 495.5,-236.18 495.5,-255.18"/>
<text text-anchor="middle" x="412" y="-243.18" font-family="Helvetica,sans-Serif" font-size="10.00">LinkedMap&lt; NamespaceDef &gt;</text>
</a>
</g>
</g>
<!-- Node1&#45;&gt;Node22 -->
<g id="edge21_Node000001_Node000022" class="edge">
<title>Node1&#45;&gt;Node22</title>
<g id="a_edge21_Node000001_Node000022"><a xlink:title=" ">
<path fill="none" stroke="orange" stroke-dasharray="5,2" d="M89.34,-298.67C103.29,-289.43 120.78,-279.39 138,-273.68 199.73,-253.2 273.24,-246.6 328.43,-244.9"/>
<polygon fill="orange" stroke="orange" points="86.99,-296.04 80.72,-304.58 90.95,-301.81 86.99,-296.04"/>
</a>
</g>
<text text-anchor="middle" x="221" y="-276.68" font-family="Helvetica,sans-Serif" font-size="10.00" fill="grey"> &lt; NamespaceDef &gt;</text>
</g>
<!-- Node24 -->
<g id="Node000024" class="node">
<title>Node24</title>
<g id="a_Node000024"><a xlink:href="../../d0/d2c/class_linked_map.html" target="_top" xlink:title=" ">
<polygon fill="white" stroke="#666666" points="478,-218.18 346,-218.18 346,-199.18 478,-199.18 478,-218.18"/>
<text text-anchor="middle" x="412" y="-206.18" font-family="Helvetica,sans-Serif" font-size="10.00">LinkedMap&lt; PageDef &gt;</text>
</a>
</g>
</g>
<!-- Node1&#45;&gt;Node24 -->
<g id="edge23_Node000001_Node000024" class="edge">
<title>Node1&#45;&gt;Node24</title>
<g id="a_edge23_Node000001_Node000024"><a xlink:title=" ">
<path fill="none" stroke="orange" stroke-dasharray="5,2" d="M74.29,-295.75C87.47,-274.62 109.74,-245 138,-230.68 203,-197.74 288.01,-196.35 345.78,-200.55"/>
<polygon fill="orange" stroke="orange" points="71.19,-294.12 69.05,-304.5 77.19,-297.72 71.19,-294.12"/>
</a>
</g>
<text text-anchor="middle" x="221" y="-233.68" font-family="Helvetica,sans-Serif" font-size="10.00" fill="grey"> &lt; PageDef &gt;</text>
</g>
<!-- Node26 -->
<g id="Node000026" class="node">
<title>Node26</title>
<g id="a_Node000026"><a xlink:href="../../d0/d2c/class_linked_map.html" target="_top" xlink:title=" ">
<polygon fill="white" stroke="#666666" points="474.5,-181.18 349.5,-181.18 349.5,-162.18 474.5,-162.18 474.5,-181.18"/>
<text text-anchor="middle" x="412" y="-169.18" font-family="Helvetica,sans-Serif" font-size="10.00">LinkedMap&lt; RefList &gt;</text>
</a>
</g>
</g>
<!-- Node1&#45;&gt;Node26 -->
<g id="edge25_Node000001_Node000026" class="edge">
<title>Node1&#45;&gt;Node26</title>
<g id="a_edge25_Node000001_Node000026"><a xlink:title=" ">
<path fill="none" stroke="orange" stroke-dasharray="5,2" d="M67.2,-294.51C76.57,-262.49 97.68,-208.39 138,-183.68 210.2,-139.43 314.44,-151.05 370.94,-162.14"/>
<polygon fill="orange" stroke="orange" points="63.75,-293.88 64.46,-304.45 70.49,-295.74 63.75,-293.88"/>
</a>
</g>
<text text-anchor="middle" x="221" y="-186.68" font-family="Helvetica,sans-Serif" font-size="10.00" fill="grey"> &lt; RefList &gt;</text>
</g>
<!-- Node28 -->
<g id="Node000028" class="node">
<title>Node28</title>
<g id="a_Node000028"><a xlink:href="../../d0/d2c/class_linked_map.html" target="_top" xlink:title=" ">
<polygon fill="white" stroke="#666666" points="485,-144.18 339,-144.18 339,-125.18 485,-125.18 485,-144.18"/>
<text text-anchor="middle" x="412" y="-132.18" font-family="Helvetica,sans-Serif" font-size="10.00">LinkedMap&lt; SectionInfo &gt;</text>
</a>
</g>
</g>
<!-- Node1&#45;&gt;Node28 -->
<g id="edge27_Node000001_Node000028" class="edge">
<title>Node1&#45;&gt;Node28</title>
<g id="a_edge27_Node000001_Node000028"><a xlink:title=" ">
<path fill="none" stroke="orange" stroke-dasharray="5,2" d="M63.11,-294.65C68.07,-253.48 84.49,-172.5 138,-136.68 169.66,-115.48 269.2,-120.12 338.89,-126.5"/>
<polygon fill="orange" stroke="orange" points="59.62,-294.35 62.03,-304.67 66.58,-295.1 59.62,-294.35"/>
</a>
</g>
<text text-anchor="middle" x="221" y="-139.68" font-family="Helvetica,sans-Serif" font-size="10.00" fill="grey"> &lt; SectionInfo &gt;</text>
</g>
<!-- Node30 -->
<g id="Node000030" class="node">
<title>Node30</title>
<g id="a_Node000030"><a xlink:href="../../d0/d2c/class_linked_map.html" target="_top" xlink:title=" ">
<polygon fill="white" stroke="#666666" points="477.5,-107.18 346.5,-107.18 346.5,-88.18 477.5,-88.18 477.5,-107.18"/>
<text text-anchor="middle" x="412" y="-95.18" font-family="Helvetica,sans-Serif" font-size="10.00">LinkedMap&lt; Formula &gt;</text>
</a>
</g>
</g>
<!-- Node1&#45;&gt;Node30 -->
<g id="edge29_Node000001_Node000030" class="edge">
<title>Node1&#45;&gt;Node30</title>
<g id="a_edge29_Node000001_Node000030"><a xlink:title=" ">
<path fill="none" stroke="orange" stroke-dasharray="5,2" d="M61.59,-294.45C64.2,-248.31 77.04,-150.98 138,-106.68 169.98,-83.43 276.13,-86.65 346.25,-91.72"/>
<polygon fill="orange" stroke="orange" points="58.1,-294.37 61.15,-304.51 65.09,-294.68 58.1,-294.37"/>
</a>
</g>
<text text-anchor="middle" x="221" y="-109.68" font-family="Helvetica,sans-Serif" font-size="10.00" fill="grey"> &lt; Formula &gt;</text>
</g>
<!-- Node31 -->
<g id="Node000031" class="node">
<title>Node31</title>
<g id="a_Node000031"><a xlink:href="../../d0/d2c/class_linked_map.html" target="_top" xlink:title=" ">
<polygon fill="white" stroke="#666666" points="483,-70.18 341,-70.18 341,-51.18 483,-51.18 483,-70.18"/>
<text text-anchor="middle" x="412" y="-58.18" font-family="Helvetica,sans-Serif" font-size="10.00">LinkedMap&lt; IndexField &gt;</text>
</a>
</g>
</g>
<!-- Node1&#45;&gt;Node31 -->
<g id="edge30_Node000001_Node000031" class="edge">
<title>Node1&#45;&gt;Node31</title>
<g id="a_edge30_Node000001_Node000031"><a xlink:title=" ">
<path fill="none" stroke="orange" stroke-dasharray="5,2" d="M60.27,-294.39C60.31,-243.14 68.53,-127.31 138,-73.68 168.56,-50.08 270.6,-51.23 340.89,-55.2"/>
<polygon fill="orange" stroke="orange" points="56.77,-294.62 60.37,-304.58 63.77,-294.55 56.77,-294.62"/>
</a>
</g>
<text text-anchor="middle" x="221" y="-76.68" font-family="Helvetica,sans-Serif" font-size="10.00" fill="grey"> &lt; IndexField &gt;</text>
</g>
<!-- Node32 -->
<g id="Node000032" class="node">
<title>Node32</title>
<g id="a_Node000032"><a xlink:href="../../d0/d2c/class_linked_map.html" target="_top" xlink:title=" ">
<polygon fill="white" stroke="#666666" points="492.5,-33.18 331.5,-33.18 331.5,-14.18 492.5,-14.18 492.5,-33.18"/>
<text text-anchor="middle" x="412" y="-21.18" font-family="Helvetica,sans-Serif" font-size="10.00">LinkedMap&lt; PreIncludeInfo &gt;</text>
</a>
</g>
</g>
<!-- Node1&#45;&gt;Node32 -->
<g id="edge31_Node000001_Node000032" class="edge">
<title>Node1&#45;&gt;Node32</title>
<g id="a_edge31_Node000001_Node000032"><a xlink:title=" ">
<path fill="none" stroke="orange" stroke-dasharray="5,2" d="M64.18,-294.27C72.62,-231.39 97.71,-71.2 138,-38.68 206.89,16.93 320.29,-0.52 376.79,-14.1"/>
<polygon fill="orange" stroke="orange" points="60.67,-294.13 62.84,-304.5 67.61,-295.04 60.67,-294.13"/>
</a>
</g>
<text text-anchor="middle" x="221" y="-41.68" font-family="Helvetica,sans-Serif" font-size="10.00" fill="grey"> &lt; PreIncludeInfo &gt;</text>
</g>
<!-- Node3 -->
<g id="Node000003" class="node">
<title>Node3</title>
<g id="a_Node000003"><a xlink:href="../../d0/d10/class_class_linked_map.html" target="_top" xlink:title=" ">
<polygon fill="white" stroke="#666666" points="665.5,-669.18 570.5,-669.18 570.5,-650.18 665.5,-650.18 665.5,-669.18"/>
<text text-anchor="middle" x="618" y="-657.18" font-family="Helvetica,sans-Serif" font-size="10.00">ClassLinkedMap</text>
</a>
</g>
</g>
<!-- Node2&#45;&gt;Node3 -->
<g id="edge2_Node000002_Node000003" class="edge">
<title>Node2&#45;&gt;Node3</title>
<g id="a_edge2_Node000002_Node000003"><a xlink:title=" ">
<path fill="none" stroke="#63b8ff" d="M489.75,-659.68C516.82,-659.68 546.43,-659.68 570.27,-659.68"/>
<polygon fill="#63b8ff" stroke="#63b8ff" points="489.51,-656.18 479.51,-659.68 489.51,-663.18 489.51,-656.18"/>
</a>
</g>
</g>
<!-- Node5 -->
<g id="Node000005" class="node">
<title>Node5</title>
<g id="a_Node000005"><a xlink:href="../../db/ded/class_concept_linked_map.html" target="_top" xlink:title=" ">
<polygon fill="white" stroke="#666666" points="672.5,-632.18 563.5,-632.18 563.5,-613.18 672.5,-613.18 672.5,-632.18"/>
<text text-anchor="middle" x="618" y="-620.18" font-family="Helvetica,sans-Serif" font-size="10.00">ConceptLinkedMap</text>
</a>
</g>
</g>
<!-- Node4&#45;&gt;Node5 -->
<g id="edge4_Node000004_Node000005" class="edge">
<title>Node4&#45;&gt;Node5</title>
<g id="a_edge4_Node000004_Node000005"><a xlink:title=" ">
<path fill="none" stroke="#63b8ff" d="M496.86,-622.68C519.31,-622.68 542.97,-622.68 563.3,-622.68"/>
<polygon fill="#63b8ff" stroke="#63b8ff" points="496.65,-619.18 486.65,-622.68 496.65,-626.18 496.65,-619.18"/>
</a>
</g>
</g>
<!-- Node7 -->
<g id="Node000007" class="node">
<title>Node7</title>
<g id="a_Node000007"><a xlink:href="../../dd/dd7/class_dir_def_1_1_used_dir_linked_map.html" target="_top" xlink:title=" ">
<polygon fill="white" stroke="#666666" points="690.5,-595.18 545.5,-595.18 545.5,-576.18 690.5,-576.18 690.5,-595.18"/>
<text text-anchor="middle" x="618" y="-583.18" font-family="Helvetica,sans-Serif" font-size="10.00">DirDef::UsedDirLinkedMap</text>
</a>
</g>
</g>
<!-- Node6&#45;&gt;Node7 -->
<g id="edge6_Node000006_Node000007" class="edge">
<title>Node6&#45;&gt;Node7</title>
<g id="a_edge6_Node000006_Node000007"><a xlink:title=" ">
<path fill="none" stroke="#63b8ff" d="M487.58,-585.68C506.47,-585.68 526.7,-585.68 545.44,-585.68"/>
<polygon fill="#63b8ff" stroke="#63b8ff" points="487.55,-582.18 477.55,-585.68 487.55,-589.18 487.55,-582.18"/>
</a>
</g>
</g>
<!-- Node9 -->
<g id="Node000009" class="node">
<title>Node9</title>
<g id="a_Node000009"><a xlink:href="../../de/d40/class_dir_linked_map.html" target="_top" xlink:title="A linked map of directories.">
<polygon fill="white" stroke="#666666" points="659.5,-558.18 576.5,-558.18 576.5,-539.18 659.5,-539.18 659.5,-558.18"/>
<text text-anchor="middle" x="618" y="-546.18" font-family="Helvetica,sans-Serif" font-size="10.00">DirLinkedMap</text>
</a>
</g>
</g>
<!-- Node8&#45;&gt;Node9 -->
<g id="edge8_Node000008_Node000009" class="edge">
<title>Node8&#45;&gt;Node9</title>
<g id="a_edge8_Node000008_Node000009"><a xlink:title=" ">
<path fill="none" stroke="#63b8ff" d="M483.94,-548.68C514.81,-548.68 549.88,-548.68 576.26,-548.68"/>
<polygon fill="#63b8ff" stroke="#63b8ff" points="483.65,-545.18 473.65,-548.68 483.65,-552.18 483.65,-545.18"/>
</a>
</g>
</g>
<!-- Node11 -->
<g id="Node000011" class="node">
<title>Node11</title>
<g id="a_Node000011"><a xlink:href="../../d4/d03/class_dir_relation_linked_map.html" target="_top" xlink:title=" ">
<polygon fill="white" stroke="#666666" points="680,-521.18 556,-521.18 556,-502.18 680,-502.18 680,-521.18"/>
<text text-anchor="middle" x="618" y="-509.18" font-family="Helvetica,sans-Serif" font-size="10.00">DirRelationLinkedMap</text>
</a>
</g>
</g>
<!-- Node10&#45;&gt;Node11 -->
<g id="edge10_Node000010_Node000011" class="edge">
<title>Node10&#45;&gt;Node11</title>
<g id="a_edge10_Node000010_Node000011"><a xlink:title=" ">
<path fill="none" stroke="#63b8ff" d="M495.32,-511.68C515.49,-511.68 536.72,-511.68 555.7,-511.68"/>
<polygon fill="#63b8ff" stroke="#63b8ff" points="495.21,-508.18 485.21,-511.68 495.21,-515.18 495.21,-508.18"/>
</a>
</g>
</g>
<!-- Node13 -->
<g id="Node000013" class="node">
<title>Node13</title>
<g id="a_Node000013"><a xlink:href="../../d0/d2c/class_file_name_linked_map.html" target="_top" xlink:title="Ordered dictionary of FileName objects.">
<polygon fill="white" stroke="#666666" points="676,-462.18 560,-462.18 560,-443.18 676,-443.18 676,-462.18"/>
<text text-anchor="middle" x="618" y="-450.18" font-family="Helvetica,sans-Serif" font-size="10.00">FileNameLinkedMap</text>
</a>
</g>
</g>
<!-- Node12&#45;&gt;Node13 -->
<g id="edge12_Node000012_Node000013" class="edge">
<title>Node12&#45;&gt;Node13</title>
<g id="a_edge12_Node000012_Node000013"><a xlink:title=" ">
<path fill="none" stroke="#63b8ff" d="M504.57,-452.68C523.36,-452.68 542.63,-452.68 559.78,-452.68"/>
<polygon fill="#63b8ff" stroke="#63b8ff" points="504.51,-449.18 494.51,-452.68 504.51,-456.18 504.51,-449.18"/>
</a>
</g>
</g>
<!-- Node15 -->
<g id="Node000015" class="node">
<title>Node15</title>
<g id="a_Node000015"><a xlink:href="../../d3/d29/class_file_pair_linked_map.html" target="_top" xlink:title="A linked map of file pairs.">
<polygon fill="white" stroke="#666666" points="670,-403.18 566,-403.18 566,-384.18 670,-384.18 670,-403.18"/>
<text text-anchor="middle" x="618" y="-391.18" font-family="Helvetica,sans-Serif" font-size="10.00">FilePairLinkedMap</text>
</a>
</g>
</g>
<!-- Node14&#45;&gt;Node15 -->
<g id="edge14_Node000014_Node000015" class="edge">
<title>Node14&#45;&gt;Node15</title>
<g id="a_edge14_Node000014_Node000015"><a xlink:title=" ">
<path fill="none" stroke="#63b8ff" d="M485.6,-393.68C512.12,-393.68 541.55,-393.68 565.82,-393.68"/>
<polygon fill="#63b8ff" stroke="#63b8ff" points="485.59,-390.18 475.59,-393.68 485.59,-397.18 485.59,-390.18"/>
</a>
</g>
</g>
<!-- Node17 -->
<g id="Node000017" class="node">
<title>Node17</title>
<g id="a_Node000017"><a xlink:href="../../d3/dbd/class_group_linked_map.html" target="_top" xlink:title=" ">
<polygon fill="white" stroke="#666666" points="667,-366.18 569,-366.18 569,-347.18 667,-347.18 667,-366.18"/>
<text text-anchor="middle" x="618" y="-354.18" font-family="Helvetica,sans-Serif" font-size="10.00">GroupLinkedMap</text>
</a>
</g>
</g>
<!-- Node16&#45;&gt;Node17 -->
<g id="edge16_Node000016_Node000017" class="edge">
<title>Node16&#45;&gt;Node17</title>
<g id="a_edge16_Node000016_Node000017"><a xlink:title=" ">
<path fill="none" stroke="#63b8ff" d="M491.46,-356.68C517.52,-356.68 545.76,-356.68 568.84,-356.68"/>
<polygon fill="#63b8ff" stroke="#63b8ff" points="491.21,-353.18 481.21,-356.68 491.21,-360.18 491.21,-353.18"/>
</a>
</g>
</g>
<!-- Node19 -->
<g id="Node000019" class="node">
<title>Node19</title>
<g id="a_Node000019"><a xlink:href="../../de/d04/class_member_name_info_linked_map.html" target="_top" xlink:title=" ">
<polygon fill="white" stroke="#666666" points="697,-329.18 539,-329.18 539,-310.18 697,-310.18 697,-329.18"/>
<text text-anchor="middle" x="618" y="-317.18" font-family="Helvetica,sans-Serif" font-size="10.00">MemberNameInfoLinkedMap</text>
</a>
</g>
</g>
<!-- Node18&#45;&gt;Node19 -->
<g id="edge18_Node000018_Node000019" class="edge">
<title>Node18&#45;&gt;Node19</title>
<g id="a_edge18_Node000018_Node000019"><a xlink:title=" ">
<path fill="none" stroke="#63b8ff" d="M512.25,-319.68C521.19,-319.68 530.16,-319.68 538.88,-319.68"/>
<polygon fill="#63b8ff" stroke="#63b8ff" points="512.18,-316.18 502.18,-319.68 512.18,-323.18 512.18,-316.18"/>
</a>
</g>
</g>
<!-- Node21 -->
<g id="Node000021" class="node">
<title>Node21</title>
<g id="a_Node000021"><a xlink:href="../../da/d3d/class_member_name_linked_map.html" target="_top" xlink:title="Ordered dictionary of MemberName objects.">
<polygon fill="white" stroke="#666666" points="687.5,-292.18 548.5,-292.18 548.5,-273.18 687.5,-273.18 687.5,-292.18"/>
<text text-anchor="middle" x="618" y="-280.18" font-family="Helvetica,sans-Serif" font-size="10.00">MemberNameLinkedMap</text>
</a>
</g>
</g>
<!-- Node20&#45;&gt;Node21 -->
<g id="edge20_Node000020_Node000021" class="edge">
<title>Node20&#45;&gt;Node21</title>
<g id="a_edge20_Node000020_Node000021"><a xlink:title=" ">
<path fill="none" stroke="#63b8ff" d="M503.15,-282.68C518.27,-282.68 533.75,-282.68 548.23,-282.68"/>
<polygon fill="#63b8ff" stroke="#63b8ff" points="502.75,-279.18 492.75,-282.68 502.75,-286.18 502.75,-279.18"/>
</a>
</g>
</g>
<!-- Node23 -->
<g id="Node000023" class="node">
<title>Node23</title>
<g id="a_Node000023"><a xlink:href="../../d7/d60/class_namespace_linked_map.html" target="_top" xlink:title=" ">
<polygon fill="white" stroke="#666666" points="681.5,-255.18 554.5,-255.18 554.5,-236.18 681.5,-236.18 681.5,-255.18"/>
<text text-anchor="middle" x="618" y="-243.18" font-family="Helvetica,sans-Serif" font-size="10.00">NamespaceLinkedMap</text>
</a>
</g>
</g>
<!-- Node22&#45;&gt;Node23 -->
<g id="edge22_Node000022_Node000023" class="edge">
<title>Node22&#45;&gt;Node23</title>
<g id="a_edge22_Node000022_Node000023"><a xlink:title=" ">
<path fill="none" stroke="#63b8ff" d="M505.83,-245.68C522.23,-245.68 538.94,-245.68 554.26,-245.68"/>
<polygon fill="#63b8ff" stroke="#63b8ff" points="505.68,-242.18 495.68,-245.68 505.68,-249.18 505.68,-242.18"/>
</a>
</g>
</g>
<!-- Node25 -->
<g id="Node000025" class="node">
<title>Node25</title>
<g id="a_Node000025"><a xlink:href="../../d9/d5e/class_page_linked_map.html" target="_top" xlink:title=" ">
<polygon fill="white" stroke="#666666" points="664,-218.18 572,-218.18 572,-199.18 664,-199.18 664,-218.18"/>
<text text-anchor="middle" x="618" y="-206.18" font-family="Helvetica,sans-Serif" font-size="10.00">PageLinkedMap</text>
</a>
</g>
</g>
<!-- Node24&#45;&gt;Node25 -->
<g id="edge24_Node000024_Node000025" class="edge">
<title>Node24&#45;&gt;Node25</title>
<g id="a_edge24_Node000024_Node000025"><a xlink:title=" ">
<path fill="none" stroke="#63b8ff" d="M488.3,-208.68C516.36,-208.68 547.32,-208.68 571.85,-208.68"/>
<polygon fill="#63b8ff" stroke="#63b8ff" points="488.11,-205.18 478.11,-208.68 488.11,-212.18 488.11,-205.18"/>
</a>
</g>
</g>
<!-- Node27 -->
<g id="Node000027" class="node">
<title>Node27</title>
<g id="a_Node000027"><a xlink:href="../../d7/d5a/class_ref_list_manager.html" target="_top" xlink:title=" ">
<polygon fill="white" stroke="#666666" points="664.5,-181.18 571.5,-181.18 571.5,-162.18 664.5,-162.18 664.5,-181.18"/>
<text text-anchor="middle" x="618" y="-169.18" font-family="Helvetica,sans-Serif" font-size="10.00">RefListManager</text>
</a>
</g>
</g>
<!-- Node26&#45;&gt;Node27 -->
<g id="edge26_Node000026_Node000027" class="edge">
<title>Node26&#45;&gt;Node27</title>
<g id="a_edge26_Node000026_Node000027"><a xlink:title=" ">
<path fill="none" stroke="#63b8ff" d="M484.77,-171.68C513.55,-171.68 545.85,-171.68 571.33,-171.68"/>
<polygon fill="#63b8ff" stroke="#63b8ff" points="484.76,-168.18 474.76,-171.68 484.76,-175.18 484.76,-168.18"/>
</a>
</g>
</g>
<!-- Node29 -->
<g id="Node000029" class="node">
<title>Node29</title>
<g id="a_Node000029"><a xlink:href="../../df/df5/class_section_manager.html" target="_top" xlink:title="singleton class that owns the list of all sections">
<polygon fill="white" stroke="#666666" points="665.5,-144.18 570.5,-144.18 570.5,-125.18 665.5,-125.18 665.5,-144.18"/>
<text text-anchor="middle" x="618" y="-132.18" font-family="Helvetica,sans-Serif" font-size="10.00">SectionManager</text>
</a>
</g>
</g>
<!-- Node28&#45;&gt;Node29 -->
<g id="edge28_Node000028_Node000029" class="edge">
<title>Node28&#45;&gt;Node29</title>
<g id="a_edge28_Node000028_Node000029"><a xlink:title=" ">
<path fill="none" stroke="#63b8ff" d="M495.29,-134.68C520.85,-134.68 548.14,-134.68 570.38,-134.68"/>
<polygon fill="#63b8ff" stroke="#63b8ff" points="495.21,-131.18 485.21,-134.68 495.21,-138.18 495.21,-131.18"/>
</a>
</g>
</g>
</g>
</svg>
