<?xml version="1.0" encoding="UTF-8" standalone="no"?>
<!DOCTYPE svg PUBLIC "-//W3C//DTD SVG 1.1//EN"
 "http://www.w3.org/Graphics/SVG/1.1/DTD/svg11.dtd">
<!-- Generated by graphviz version 2.43.0 (0)
 -->
<!-- Title: CallContext::Ctx Pages: 1 -->
<svg width="199pt" height="162pt"
 viewBox="0.00 0.00 198.50 162.00" xmlns="http://www.w3.org/2000/svg" xmlns:xlink="http://www.w3.org/1999/xlink">
<g id="graph0" class="graph" transform="scale(1 1) rotate(0) translate(4 158)">
<title>CallContext::Ctx</title>
<!-- Node1 -->
<g id="Node000001" class="node">
<title>Node1</title>
<g id="a_Node000001"><a xlink:title=" ">
<polygon fill="#999999" stroke="#666666" points="96,-19 0,-19 0,0 96,0 96,-19"/>
<text text-anchor="middle" x="48" y="-7" font-family="Helvetica,sans-Serif" font-size="10.00">CallContext::Ctx</text>
</a>
</g>
</g>
<!-- Node2 -->
<g id="Node000002" class="node">
<title>Node2</title>
<g id="a_Node000002"><a xlink:href="../../d9/d45/class_q_c_string.html" target="_top" xlink:title="This is an alternative implementation of QCString.">
<polygon fill="white" stroke="#666666" points="77.5,-154 18.5,-154 18.5,-135 77.5,-135 77.5,-154"/>
<text text-anchor="middle" x="48" y="-142" font-family="Helvetica,sans-Serif" font-size="10.00">QCString</text>
</a>
</g>
</g>
<!-- Node2&#45;&gt;Node1 -->
<g id="edge1_Node000001_Node000002" class="edge">
<title>Node2&#45;&gt;Node1</title>
<g id="a_edge1_Node000001_Node000002"><a xlink:title=" ">
<path fill="none" stroke="#9a32cd" stroke-dasharray="5,2" d="M45.07,-124.97C43.52,-114.21 41.78,-100.37 41,-88 39.42,-62.92 43.83,-33.37 46.36,-19.09"/>
<polygon fill="#9a32cd" stroke="#9a32cd" points="41.61,-125.52 46.57,-134.88 48.54,-124.47 41.61,-125.52"/>
</a>
</g>
<text text-anchor="middle" x="56.5" y="-80" font-family="Helvetica,sans-Serif" font-size="10.00" fill="grey"> name</text>
<text text-anchor="middle" x="56.5" y="-69" font-family="Helvetica,sans-Serif" font-size="10.00" fill="grey">type</text>
</g>
<!-- Node3 -->
<g id="Node000003" class="node">
<title>Node3</title>
<g id="a_Node000003"><a xlink:href="../../de/ddb/class_scoped_type_variant.html" target="_top" xlink:title=" ">
<polygon fill="white" stroke="#666666" points="190.5,-86.5 81.5,-86.5 81.5,-67.5 190.5,-67.5 190.5,-86.5"/>
<text text-anchor="middle" x="136" y="-74.5" font-family="Helvetica,sans-Serif" font-size="10.00">ScopedTypeVariant</text>
</a>
</g>
</g>
<!-- Node2&#45;&gt;Node3 -->
<g id="edge3_Node000003_Node000002" class="edge">
<title>Node2&#45;&gt;Node3</title>
<g id="a_edge3_Node000003_Node000002"><a xlink:title=" ">
<path fill="none" stroke="#9a32cd" stroke-dasharray="5,2" d="M67.87,-128.71C85.33,-115.71 110.13,-97.26 124.49,-86.57"/>
<polygon fill="#9a32cd" stroke="#9a32cd" points="65.44,-126.16 59.5,-134.94 69.62,-131.77 65.44,-126.16"/>
</a>
</g>
<text text-anchor="middle" x="120" y="-109" font-family="Helvetica,sans-Serif" font-size="10.00" fill="grey"> m_name</text>
</g>
<!-- Node3&#45;&gt;Node1 -->
<g id="edge2_Node000001_Node000003" class="edge">
<title>Node3&#45;&gt;Node1</title>
<g id="a_edge2_Node000001_Node000003"><a xlink:title=" ">
<path fill="none" stroke="#9a32cd" stroke-dasharray="5,2" d="M116.13,-61.21C98.67,-48.21 73.87,-29.76 59.51,-19.07"/>
<polygon fill="#9a32cd" stroke="#9a32cd" points="114.38,-64.27 124.5,-67.44 118.56,-58.66 114.38,-64.27"/>
</a>
</g>
<text text-anchor="middle" x="106.5" y="-40" font-family="Helvetica,sans-Serif" font-size="10.00" fill="grey"> stv</text>
</g>
</g>
</svg>
