<?xml version="1.0" encoding="UTF-8" standalone="no"?>
<!DOCTYPE svg PUBLIC "-//W3C//DTD SVG 1.1//EN"
 "http://www.w3.org/Graphics/SVG/1.1/DTD/svg11.dtd">
<!-- Generated by graphviz version 2.43.0 (0)
 -->
<!-- Title: DotGraph Pages: 1 -->
<svg width="148pt" height="137pt"
 viewBox="0.00 0.00 147.50 137.00" xmlns="http://www.w3.org/2000/svg" xmlns:xlink="http://www.w3.org/1999/xlink">
<g id="graph0" class="graph" transform="scale(1 1) rotate(0) translate(4 133)">
<title>DotGraph</title>
<!-- Node1 -->
<g id="Node000001" class="node">
<title>Node1</title>
<g id="a_Node000001"><a xlink:title="A dot graph.">
<polygon fill="#999999" stroke="#666666" points="78,-19 15,-19 15,0 78,0 78,-19"/>
<text text-anchor="middle" x="46.5" y="-7" font-family="Helvetica,sans-Serif" font-size="10.00">DotGraph</text>
</a>
</g>
</g>
<!-- Node2 -->
<g id="Node000002" class="node">
<title>Node2</title>
<g id="a_Node000002"><a xlink:href="../../d2/dc2/class_dir.html" target="_top" xlink:title="Class representing a directory in the file system.">
<polygon fill="white" stroke="#666666" points="31,-129 0,-129 0,-110 31,-110 31,-129"/>
<text text-anchor="middle" x="15.5" y="-117" font-family="Helvetica,sans-Serif" font-size="10.00">Dir</text>
</a>
</g>
</g>
<!-- Node2&#45;&gt;Node1 -->
<g id="edge1_Node000001_Node000002" class="edge">
<title>Node2&#45;&gt;Node1</title>
<g id="a_edge1_Node000001_Node000002"><a xlink:title=" ">
<path fill="none" stroke="#9a32cd" stroke-dasharray="5,2" d="M14.97,-99.23C15.16,-82.22 17.1,-57.09 25.5,-37 28.31,-30.28 33.32,-23.86 37.75,-19.01"/>
<polygon fill="#9a32cd" stroke="#9a32cd" points="11.47,-99.57 15.05,-109.54 18.47,-99.51 11.47,-99.57"/>
</a>
</g>
<text text-anchor="middle" x="41" y="-62" font-family="Helvetica,sans-Serif" font-size="10.00" fill="grey"> m_dir</text>
</g>
<!-- Node3 -->
<g id="Node000003" class="node">
<title>Node3</title>
<g id="a_Node000003"><a xlink:href="../../d9/d45/class_q_c_string.html" target="_top" xlink:title="This is an alternative implementation of QCString.">
<polygon fill="white" stroke="#666666" points="108,-129 49,-129 49,-110 108,-110 108,-129"/>
<text text-anchor="middle" x="78.5" y="-117" font-family="Helvetica,sans-Serif" font-size="10.00">QCString</text>
</a>
</g>
</g>
<!-- Node3&#45;&gt;Node1 -->
<g id="edge2_Node000001_Node000003" class="edge">
<title>Node3&#45;&gt;Node1</title>
<g id="a_edge2_Node000001_Node000003"><a xlink:title=" ">
<path fill="none" stroke="#9a32cd" stroke-dasharray="5,2" d="M74.01,-99.82C69.88,-83.2 63.38,-58.3 56.5,-37 54.57,-31.01 52.07,-24.39 50.05,-19.26"/>
<polygon fill="#9a32cd" stroke="#9a32cd" points="70.69,-100.97 76.46,-109.85 77.49,-99.31 70.69,-100.97"/>
</a>
</g>
<text text-anchor="middle" x="105.5" y="-84" font-family="Helvetica,sans-Serif" font-size="10.00" fill="grey"> m_absPath</text>
<text text-anchor="middle" x="105.5" y="-73" font-family="Helvetica,sans-Serif" font-size="10.00" fill="grey">m_baseName</text>
<text text-anchor="middle" x="105.5" y="-62" font-family="Helvetica,sans-Serif" font-size="10.00" fill="grey">m_fileName</text>
<text text-anchor="middle" x="105.5" y="-51" font-family="Helvetica,sans-Serif" font-size="10.00" fill="grey">m_relPath</text>
<text text-anchor="middle" x="105.5" y="-40" font-family="Helvetica,sans-Serif" font-size="10.00" fill="grey">m_theGraph</text>
</g>
</g>
</svg>
