<?xml version="1.0" encoding="UTF-8" standalone="no"?>
<!DOCTYPE svg PUBLIC "-//W3C//DTD SVG 1.1//EN"
 "http://www.w3.org/Graphics/SVG/1.1/DTD/svg11.dtd">
<!-- Generated by graphviz version 2.43.0 (0)
 -->
<!-- Title: src/memberdef.h Pages: 1 -->
<!--zoomable 412 -->

<svg id="main" version="1.1" xmlns="http://www.w3.org/2000/svg" xmlns:xlink="http://www.w3.org/1999/xlink" xml:space="preserve" onload="init(evt)">
<style type="text/css"><![CDATA[
.node, .edge {opacity: 0.7;}
.node.selected, .edge.selected {opacity: 1;}
.edge:hover path { stroke: red; }
.edge:hover polygon { stroke: red; fill: red; }
]]></style>

<defs>
  <circle id="rim" cx="0" cy="0" r="7"/>
  <circle id="rim2" cx="0" cy="0" r="3.5"/>
  <g id="zoomPlus">
    <use xlink:href="#rim" fill="#404040"><set attributeName="fill" to="#808080" begin="zoomplus.mouseover" end="zoomplus.mouseout"/></use>
    <path d="M-4,0h8M0,-4v8" fill="none" stroke="white" stroke-width="1.5" pointer-events="none"/>
  </g>
  <g id="zoomMin">
    <use xlink:href="#rim" fill="#404040"><set attributeName="fill" to="#808080" begin="zoomminus.mouseover" end="zoomminus.mouseout"/></use>
    <path d="M-4,0h8" fill="none" stroke="white" stroke-width="1.5" pointer-events="none"/>
  </g>
  <g id="arrowUp" transform="translate(30 24)">
    <use xlink:href="#rim"/>
    <path pointer-events="none" fill="none" stroke="white" stroke-width="1.5" d="M0,-3.0v7 M-2.5,-0.5L0,-3.0L2.5,-0.5"/>
  </g>
  <g id="arrowRight" transform="rotate(90) translate(36 -43)">
    <use xlink:href="#rim"/>
    <path pointer-events="none" fill="none" stroke="white" stroke-width="1.5" d="M0,-3.0v7 M-2.5,-0.5L0,-3.0L2.5,-0.5"/>
  </g>
  <g id="arrowDown" transform="rotate(180) translate(-30 -48)">
    <use xlink:href="#rim"/>
    <path pointer-events="none" fill="none" stroke="white" stroke-width="1.5" d="M0,-3.0v7 M-2.5,-0.5L0,-3.0L2.5,-0.5"/>
  </g>
  <g id="arrowLeft" transform="rotate(270) translate(-36 17)">
    <use xlink:href="#rim"/>
    <path pointer-events="none" fill="none" stroke="white" stroke-width="1.5" d="M0,-3.0v7 M-2.5,-0.5L0,-3.0L2.5,-0.5"/>
  </g>
  <g id="resetDef">
    <use xlink:href="#rim2" fill="#404040"><set attributeName="fill" to="#808080" begin="reset.mouseover" end="reset.mouseout"/></use>
  </g>
</defs>
<script type="application/ecmascript">
var viewWidth = 1087;
var viewHeight = 412;
var sectionId = 'dynsection-0';
</script>
<script type="application/ecmascript" xlink:href="../../svg.min.js"/>
<svg id="graph" class="graph">
<g id="viewport">
<title>src/memberdef.h</title>
<!-- Node1 -->
<g id="Node000001" class="node">
<title>Node1</title>
<g id="a_Node000001"><a xlink:title=" ">
<polygon fill="#999999" stroke="#666666" points="839.5,-404 740.5,-404 740.5,-385 839.5,-385 839.5,-404"/>
<text text-anchor="middle" x="790" y="-392" font-family="Helvetica,sans-Serif" font-size="10.00">src/memberdef.h</text>
</a>
</g>
</g>
<!-- Node2 -->
<g id="Node000002" class="node">
<title>Node2</title>
<g id="a_Node000002"><a xlink:title=" ">
<polygon fill="#e0e0e0" stroke="#999999" points="395.5,-129 348.5,-129 348.5,-110 395.5,-110 395.5,-129"/>
<text text-anchor="middle" x="372" y="-117" font-family="Helvetica,sans-Serif" font-size="10.00">vector</text>
</a>
</g>
</g>
<!-- Node1&#45;&gt;Node2 -->
<g id="edge1_Node000001_Node000002" class="edge">
<title>Node1&#45;&gt;Node2</title>
<g id="a_edge1_Node000001_Node000002"><a xlink:title=" ">
<path fill="none" stroke="#63b8ff" d="M740.4,-394.17C605.51,-394.65 242,-386.59 242,-285.5 242,-285.5 242,-285.5 242,-228.5 242,-178.27 300.14,-146.92 338.66,-131.66"/>
<polygon fill="#63b8ff" stroke="#63b8ff" points="340.34,-134.77 348.46,-127.96 337.87,-128.22 340.34,-134.77"/>
</a>
</g>
</g>
<!-- Node3 -->
<g id="Node000003" class="node">
<title>Node3</title>
<g id="a_Node000003"><a xlink:title=" ">
<polygon fill="#e0e0e0" stroke="#999999" points="823,-129 765,-129 765,-110 823,-110 823,-129"/>
<text text-anchor="middle" x="794" y="-117" font-family="Helvetica,sans-Serif" font-size="10.00">memory</text>
</a>
</g>
</g>
<!-- Node1&#45;&gt;Node3 -->
<g id="edge2_Node000001_Node000003" class="edge">
<title>Node1&#45;&gt;Node3</title>
<g id="a_edge2_Node000001_Node000003"><a xlink:title=" ">
<path fill="none" stroke="#63b8ff" d="M802.85,-384.77C825.47,-368.25 870,-330.07 870,-285.5 870,-285.5 870,-285.5 870,-228.5 870,-189.47 836.39,-154.58 813.87,-135.6"/>
<polygon fill="#63b8ff" stroke="#63b8ff" points="815.85,-132.7 805.88,-129.12 811.44,-138.14 815.85,-132.7"/>
</a>
</g>
</g>
<!-- Node4 -->
<g id="Node000004" class="node">
<title>Node4</title>
<g id="a_Node000004"><a xlink:title=" ">
<polygon fill="#e0e0e0" stroke="#999999" points="954,-349 898,-349 898,-330 954,-330 954,-349"/>
<text text-anchor="middle" x="926" y="-337" font-family="Helvetica,sans-Serif" font-size="10.00">optional</text>
</a>
</g>
</g>
<!-- Node1&#45;&gt;Node4 -->
<g id="edge3_Node000001_Node000004" class="edge">
<title>Node1&#45;&gt;Node4</title>
<g id="a_edge3_Node000001_Node000004"><a xlink:title=" ">
<path fill="none" stroke="#63b8ff" d="M811.85,-384.98C834.12,-376.3 868.9,-362.75 894.22,-352.88"/>
<polygon fill="#63b8ff" stroke="#63b8ff" points="895.71,-356.06 903.75,-349.17 893.16,-349.54 895.71,-356.06"/>
</a>
</g>
</g>
<!-- Node5 -->
<g id="Node000005" class="node">
<title>Node5</title>
<g id="a_Node000005"><a xlink:title=" ">
<polygon fill="#e0e0e0" stroke="#999999" points="1044,-349 972,-349 972,-330 1044,-330 1044,-349"/>
<text text-anchor="middle" x="1008" y="-337" font-family="Helvetica,sans-Serif" font-size="10.00">sys/types.h</text>
</a>
</g>
</g>
<!-- Node1&#45;&gt;Node5 -->
<g id="edge4_Node000001_Node000005" class="edge">
<title>Node1&#45;&gt;Node5</title>
<g id="a_edge4_Node000001_Node000005"><a xlink:title=" ">
<path fill="none" stroke="#63b8ff" d="M825.03,-384.98C862.5,-375.87 922.05,-361.4 962.98,-351.45"/>
<polygon fill="#63b8ff" stroke="#63b8ff" points="963.81,-354.85 972.7,-349.08 962.16,-348.04 963.81,-354.85"/>
</a>
</g>
</g>
<!-- Node6 -->
<g id="Node000006" class="node">
<title>Node6</title>
<g id="a_Node000006"><a xlink:href="../../d9/d49/types_8h.html" target="_top" xlink:title="This file contains a number of basic enums and types.">
<polygon fill="white" stroke="#666666" points="803.5,-239 750.5,-239 750.5,-220 803.5,-220 803.5,-239"/>
<text text-anchor="middle" x="777" y="-227" font-family="Helvetica,sans-Serif" font-size="10.00">types.h</text>
</a>
</g>
</g>
<!-- Node1&#45;&gt;Node6 -->
<g id="edge5_Node000001_Node000006" class="edge">
<title>Node1&#45;&gt;Node6</title>
<g id="a_edge5_Node000001_Node000006"><a xlink:title=" ">
<path fill="none" stroke="#63b8ff" d="M789.3,-384.74C787.27,-359.31 781.35,-285.08 778.53,-249.69"/>
<polygon fill="#63b8ff" stroke="#63b8ff" points="781.99,-249 777.7,-239.31 775.01,-249.55 781.99,-249"/>
</a>
</g>
</g>
<!-- Node18 -->
<g id="Node000018" class="node">
<title>Node18</title>
<g id="a_Node000018"><a xlink:href="../../df/da1/definition_8h.html" target="_top" xlink:title=" ">
<polygon fill="white" stroke="#666666" points="702.5,-294 631.5,-294 631.5,-275 702.5,-275 702.5,-294"/>
<text text-anchor="middle" x="667" y="-282" font-family="Helvetica,sans-Serif" font-size="10.00">definition.h</text>
</a>
</g>
</g>
<!-- Node1&#45;&gt;Node18 -->
<g id="edge19_Node000001_Node000018" class="edge">
<title>Node1&#45;&gt;Node18</title>
<g id="a_edge19_Node000001_Node000018"><a xlink:title=" ">
<path fill="none" stroke="#63b8ff" d="M779.93,-384.66C759.02,-366.3 710.63,-323.81 684.5,-300.87"/>
<polygon fill="#63b8ff" stroke="#63b8ff" points="686.68,-298.13 676.86,-294.16 682.07,-303.39 686.68,-298.13"/>
</a>
</g>
</g>
<!-- Node22 -->
<g id="Node000022" class="node">
<title>Node22</title>
<g id="a_Node000022"><a xlink:href="../../df/d9b/arguments_8h.html" target="_top" xlink:title=" ">
<polygon fill="white" stroke="#666666" points="386,-239 308,-239 308,-220 386,-220 386,-239"/>
<text text-anchor="middle" x="347" y="-227" font-family="Helvetica,sans-Serif" font-size="10.00">arguments.h</text>
</a>
</g>
</g>
<!-- Node1&#45;&gt;Node22 -->
<g id="edge35_Node000001_Node000022" class="edge">
<title>Node1&#45;&gt;Node22</title>
<g id="a_edge35_Node000001_Node000022"><a xlink:title=" ">
<path fill="none" stroke="#63b8ff" d="M740.27,-392.94C650.92,-391.06 467.64,-383.05 415,-349 378.94,-325.67 359.87,-276.07 351.8,-249.02"/>
<polygon fill="#63b8ff" stroke="#63b8ff" points="355.13,-247.95 349.07,-239.26 348.39,-249.83 355.13,-247.95"/>
</a>
</g>
</g>
<!-- Node23 -->
<g id="Node000023" class="node">
<title>Node23</title>
<g id="a_Node000023"><a xlink:href="../../d1/da6/classdef_8h.html" target="_top" xlink:title=" ">
<polygon fill="white" stroke="#666666" points="489.5,-349 424.5,-349 424.5,-330 489.5,-330 489.5,-349"/>
<text text-anchor="middle" x="457" y="-337" font-family="Helvetica,sans-Serif" font-size="10.00">classdef.h</text>
</a>
</g>
</g>
<!-- Node1&#45;&gt;Node23 -->
<g id="edge38_Node000001_Node000023" class="edge">
<title>Node1&#45;&gt;Node23</title>
<g id="a_edge38_Node000001_Node000023"><a xlink:title=" ">
<path fill="none" stroke="#63b8ff" d="M740.15,-385.57C674.8,-375.16 561.28,-357.1 499.69,-347.3"/>
<polygon fill="#63b8ff" stroke="#63b8ff" points="499.97,-343.8 489.55,-345.68 498.87,-350.71 499.97,-343.8"/>
</a>
</g>
</g>
<!-- Node7 -->
<g id="Node000007" class="node">
<title>Node7</title>
<g id="a_Node000007"><a xlink:href="../../d7/d5c/qcstring_8h.html" target="_top" xlink:title=" ">
<polygon fill="white" stroke="#666666" points="735.5,-129 670.5,-129 670.5,-110 735.5,-110 735.5,-129"/>
<text text-anchor="middle" x="703" y="-117" font-family="Helvetica,sans-Serif" font-size="10.00">qcstring.h</text>
</a>
</g>
</g>
<!-- Node6&#45;&gt;Node7 -->
<g id="edge6_Node000006_Node000007" class="edge">
<title>Node6&#45;&gt;Node7</title>
<g id="a_edge6_Node000006_Node000007"><a xlink:title=" ">
<path fill="none" stroke="#63b8ff" d="M770.94,-219.66C758.69,-201.77 730.75,-161 714.78,-137.69"/>
<polygon fill="#63b8ff" stroke="#63b8ff" points="717.47,-135.43 708.93,-129.16 711.7,-139.39 717.47,-135.43"/>
</a>
</g>
</g>
<!-- Node8 -->
<g id="Node000008" class="node">
<title>Node8</title>
<g id="a_Node000008"><a xlink:title=" ">
<polygon fill="#e0e0e0" stroke="#999999" points="638,-19 594,-19 594,0 638,0 638,-19"/>
<text text-anchor="middle" x="616" y="-7" font-family="Helvetica,sans-Serif" font-size="10.00">string</text>
</a>
</g>
</g>
<!-- Node7&#45;&gt;Node8 -->
<g id="edge7_Node000007_Node000008" class="edge">
<title>Node7&#45;&gt;Node8</title>
<g id="a_edge7_Node000007_Node000008"><a xlink:title=" ">
<path fill="none" stroke="#63b8ff" d="M700.08,-109.59C695.54,-96.62 685.83,-72.22 672,-55 662.67,-43.39 649.79,-32.89 638.74,-25.01"/>
<polygon fill="#63b8ff" stroke="#63b8ff" points="640.59,-22.04 630.36,-19.28 636.64,-27.82 640.59,-22.04"/>
</a>
</g>
</g>
<!-- Node9 -->
<g id="Node000009" class="node">
<title>Node9</title>
<g id="a_Node000009"><a xlink:title=" ">
<polygon fill="#e0e0e0" stroke="#999999" points="406.5,-74 333.5,-74 333.5,-55 406.5,-55 406.5,-74"/>
<text text-anchor="middle" x="370" y="-62" font-family="Helvetica,sans-Serif" font-size="10.00">string_view</text>
</a>
</g>
</g>
<!-- Node7&#45;&gt;Node9 -->
<g id="edge8_Node000007_Node000009" class="edge">
<title>Node7&#45;&gt;Node9</title>
<g id="a_edge8_Node000007_Node000009"><a xlink:title=" ">
<path fill="none" stroke="#63b8ff" d="M670.46,-113.32C611.16,-103.88 485.28,-83.85 416.78,-72.94"/>
<polygon fill="#63b8ff" stroke="#63b8ff" points="417.12,-69.46 406.7,-71.34 416.02,-76.37 417.12,-69.46"/>
</a>
</g>
</g>
<!-- Node10 -->
<g id="Node000010" class="node">
<title>Node10</title>
<g id="a_Node000010"><a xlink:title=" ">
<polygon fill="#e0e0e0" stroke="#999999" points="596,-74 532,-74 532,-55 596,-55 596,-74"/>
<text text-anchor="middle" x="564" y="-62" font-family="Helvetica,sans-Serif" font-size="10.00">algorithm</text>
</a>
</g>
</g>
<!-- Node7&#45;&gt;Node10 -->
<g id="edge9_Node000007_Node000010" class="edge">
<title>Node7&#45;&gt;Node10</title>
<g id="a_edge9_Node000007_Node000010"><a xlink:title=" ">
<path fill="none" stroke="#63b8ff" d="M680.67,-109.98C657.8,-101.27 622.04,-87.63 596.14,-77.75"/>
<polygon fill="#63b8ff" stroke="#63b8ff" points="597.33,-74.46 586.74,-74.17 594.84,-81 597.33,-74.46"/>
</a>
</g>
</g>
<!-- Node11 -->
<g id="Node000011" class="node">
<title>Node11</title>
<g id="a_Node000011"><a xlink:title=" ">
<polygon fill="#e0e0e0" stroke="#999999" points="663.5,-74 614.5,-74 614.5,-55 663.5,-55 663.5,-74"/>
<text text-anchor="middle" x="639" y="-62" font-family="Helvetica,sans-Serif" font-size="10.00">cctype</text>
</a>
</g>
</g>
<!-- Node7&#45;&gt;Node11 -->
<g id="edge10_Node000007_Node000011" class="edge">
<title>Node7&#45;&gt;Node11</title>
<g id="a_edge10_Node000007_Node000011"><a xlink:title=" ">
<path fill="none" stroke="#63b8ff" d="M692.72,-109.98C683.16,-102.07 668.72,-90.11 657.22,-80.58"/>
<polygon fill="#63b8ff" stroke="#63b8ff" points="659.4,-77.85 649.47,-74.17 654.94,-83.24 659.4,-77.85"/>
</a>
</g>
</g>
<!-- Node12 -->
<g id="Node000012" class="node">
<title>Node12</title>
<g id="a_Node000012"><a xlink:title=" ">
<polygon fill="#e0e0e0" stroke="#999999" points="1079,-74 1029,-74 1029,-55 1079,-55 1079,-74"/>
<text text-anchor="middle" x="1054" y="-62" font-family="Helvetica,sans-Serif" font-size="10.00">cstring</text>
</a>
</g>
</g>
<!-- Node7&#45;&gt;Node12 -->
<g id="edge11_Node000007_Node000012" class="edge">
<title>Node7&#45;&gt;Node12</title>
<g id="a_edge11_Node000007_Node000012"><a xlink:title=" ">
<path fill="none" stroke="#63b8ff" d="M735.78,-113.12C742.46,-112.06 749.46,-110.97 756,-110 869.93,-93.1 901.98,-96.2 1018.76,-74.05"/>
<polygon fill="#63b8ff" stroke="#63b8ff" points="1019.66,-77.44 1028.82,-72.12 1018.34,-70.57 1019.66,-77.44"/>
</a>
</g>
</g>
<!-- Node13 -->
<g id="Node000013" class="node">
<title>Node13</title>
<g id="a_Node000013"><a xlink:title=" ">
<polygon fill="#e0e0e0" stroke="#999999" points="868,-74 822,-74 822,-55 868,-55 868,-74"/>
<text text-anchor="middle" x="845" y="-62" font-family="Helvetica,sans-Serif" font-size="10.00">cstdio</text>
</a>
</g>
</g>
<!-- Node7&#45;&gt;Node13 -->
<g id="edge12_Node000007_Node000013" class="edge">
<title>Node7&#45;&gt;Node13</title>
<g id="a_edge12_Node000007_Node000013"><a xlink:title=" ">
<path fill="none" stroke="#63b8ff" d="M725.81,-109.98C749.17,-101.27 785.7,-87.63 812.17,-77.75"/>
<polygon fill="#63b8ff" stroke="#63b8ff" points="813.63,-80.95 821.77,-74.17 811.18,-74.39 813.63,-80.95"/>
</a>
</g>
</g>
<!-- Node14 -->
<g id="Node000014" class="node">
<title>Node14</title>
<g id="a_Node000014"><a xlink:title=" ">
<polygon fill="#e0e0e0" stroke="#999999" points="935.5,-74 886.5,-74 886.5,-55 935.5,-55 935.5,-74"/>
<text text-anchor="middle" x="911" y="-62" font-family="Helvetica,sans-Serif" font-size="10.00">cstdlib</text>
</a>
</g>
</g>
<!-- Node7&#45;&gt;Node14 -->
<g id="edge13_Node000007_Node000014" class="edge">
<title>Node7&#45;&gt;Node14</title>
<g id="a_edge13_Node000007_Node000014"><a xlink:title=" ">
<path fill="none" stroke="#63b8ff" d="M735.96,-110.1C774.34,-100.32 837.45,-84.24 876.48,-74.29"/>
<polygon fill="#63b8ff" stroke="#63b8ff" points="877.51,-77.64 886.34,-71.78 875.78,-70.86 877.51,-77.64"/>
</a>
</g>
</g>
<!-- Node15 -->
<g id="Node000015" class="node">
<title>Node15</title>
<g id="a_Node000015"><a xlink:title=" ">
<polygon fill="#e0e0e0" stroke="#999999" points="793,-19 743,-19 743,0 793,0 793,-19"/>
<text text-anchor="middle" x="768" y="-7" font-family="Helvetica,sans-Serif" font-size="10.00">cstdint</text>
</a>
</g>
</g>
<!-- Node7&#45;&gt;Node15 -->
<g id="edge14_Node000007_Node000015" class="edge">
<title>Node7&#45;&gt;Node15</title>
<g id="a_edge14_Node000007_Node000015"><a xlink:title=" ">
<path fill="none" stroke="#63b8ff" d="M728.85,-109.99C745.27,-103.09 765.2,-91.58 775,-74 782.67,-60.24 779.68,-42.2 775.49,-28.87"/>
<polygon fill="#63b8ff" stroke="#63b8ff" points="778.74,-27.57 772.05,-19.36 772.16,-29.95 778.74,-27.57"/>
</a>
</g>
</g>
<!-- Node16 -->
<g id="Node000016" class="node">
<title>Node16</title>
<g id="a_Node000016"><a xlink:title=" ">
<polygon fill="#e0e0e0" stroke="#999999" points="1010.5,-74 953.5,-74 953.5,-55 1010.5,-55 1010.5,-74"/>
<text text-anchor="middle" x="982" y="-62" font-family="Helvetica,sans-Serif" font-size="10.00">ostream</text>
</a>
</g>
</g>
<!-- Node7&#45;&gt;Node16 -->
<g id="edge15_Node000007_Node000016" class="edge">
<title>Node7&#45;&gt;Node16</title>
<g id="a_edge15_Node000007_Node000016"><a xlink:title=" ">
<path fill="none" stroke="#63b8ff" d="M735.58,-112.98C780.22,-105.31 863.16,-90.7 943.11,-74.32"/>
<polygon fill="#63b8ff" stroke="#63b8ff" points="944.26,-77.66 953.34,-72.21 942.84,-70.8 944.26,-77.66"/>
</a>
</g>
</g>
<!-- Node17 -->
<g id="Node000017" class="node">
<title>Node17</title>
<g id="a_Node000017"><a xlink:href="../../db/d7c/utf8_8h.html" target="_top" xlink:title="Various UTF8 related helper functions.">
<polygon fill="white" stroke="#666666" points="765.5,-74 720.5,-74 720.5,-55 765.5,-55 765.5,-74"/>
<text text-anchor="middle" x="743" y="-62" font-family="Helvetica,sans-Serif" font-size="10.00">utf8.h</text>
</a>
</g>
</g>
<!-- Node7&#45;&gt;Node17 -->
<g id="edge16_Node000007_Node000017" class="edge">
<title>Node7&#45;&gt;Node17</title>
<g id="a_edge16_Node000007_Node000017"><a xlink:title=" ">
<path fill="none" stroke="#63b8ff" d="M709.61,-109.75C715.26,-102.26 723.54,-91.28 730.45,-82.13"/>
<polygon fill="#63b8ff" stroke="#63b8ff" points="733.29,-84.18 736.52,-74.09 727.7,-79.96 733.29,-84.18"/>
</a>
</g>
</g>
<!-- Node17&#45;&gt;Node8 -->
<g id="edge18_Node000017_Node000008" class="edge">
<title>Node17&#45;&gt;Node8</title>
<g id="a_edge18_Node000017_Node000008"><a xlink:title=" ">
<path fill="none" stroke="#63b8ff" d="M722.6,-54.98C701.98,-46.38 669.89,-32.99 646.31,-23.15"/>
<polygon fill="#63b8ff" stroke="#63b8ff" points="647.35,-19.79 636.78,-19.17 644.66,-26.25 647.35,-19.79"/>
</a>
</g>
</g>
<!-- Node17&#45;&gt;Node15 -->
<g id="edge17_Node000017_Node000015" class="edge">
<title>Node17&#45;&gt;Node15</title>
<g id="a_edge17_Node000017_Node000015"><a xlink:title=" ">
<path fill="none" stroke="#63b8ff" d="M747.13,-54.75C750.51,-47.57 755.42,-37.18 759.62,-28.27"/>
<polygon fill="#63b8ff" stroke="#63b8ff" points="762.85,-29.63 763.95,-19.09 756.52,-26.64 762.85,-29.63"/>
</a>
</g>
</g>
<!-- Node18&#45;&gt;Node2 -->
<g id="edge20_Node000018_Node000002" class="edge">
<title>Node18&#45;&gt;Node2</title>
<g id="a_edge20_Node000018_Node000002"><a xlink:title=" ">
<path fill="none" stroke="#63b8ff" d="M635.03,-274.92C608.55,-267.23 570.32,-254.74 539,-239 500.12,-219.47 493.51,-209.15 458,-184 434.91,-167.65 408.83,-148.26 391.5,-135.24"/>
<polygon fill="#63b8ff" stroke="#63b8ff" points="393.4,-132.29 383.3,-129.07 389.19,-137.88 393.4,-132.29"/>
</a>
</g>
</g>
<!-- Node18&#45;&gt;Node6 -->
<g id="edge21_Node000018_Node000006" class="edge">
<title>Node18&#45;&gt;Node6</title>
<g id="a_edge21_Node000018_Node000006"><a xlink:title=" ">
<path fill="none" stroke="#63b8ff" d="M684.67,-274.98C702.29,-266.5 729.58,-253.35 749.93,-243.54"/>
<polygon fill="#63b8ff" stroke="#63b8ff" points="751.52,-246.66 759.01,-239.17 748.48,-240.36 751.52,-246.66"/>
</a>
</g>
</g>
<!-- Node19 -->
<g id="Node000019" class="node">
<title>Node19</title>
<g id="a_Node000019"><a xlink:href="../../d1/d02/reflist_8h.html" target="_top" xlink:title=" ">
<polygon fill="white" stroke="#666666" points="601.5,-239 548.5,-239 548.5,-220 601.5,-220 601.5,-239"/>
<text text-anchor="middle" x="575" y="-227" font-family="Helvetica,sans-Serif" font-size="10.00">reflist.h</text>
</a>
</g>
</g>
<!-- Node18&#45;&gt;Node19 -->
<g id="edge22_Node000018_Node000019" class="edge">
<title>Node18&#45;&gt;Node19</title>
<g id="a_edge22_Node000018_Node000019"><a xlink:title=" ">
<path fill="none" stroke="#63b8ff" d="M652.22,-274.98C637.82,-266.69 615.69,-253.94 598.81,-244.22"/>
<polygon fill="#63b8ff" stroke="#63b8ff" points="600.46,-241.13 590.05,-239.17 596.97,-247.19 600.46,-241.13"/>
</a>
</g>
</g>
<!-- Node19&#45;&gt;Node2 -->
<g id="edge23_Node000019_Node000002" class="edge">
<title>Node19&#45;&gt;Node2</title>
<g id="a_edge23_Node000019_Node000002"><a xlink:title=" ">
<path fill="none" stroke="#63b8ff" d="M558.73,-219.84C523.38,-201.04 439.35,-156.33 397.13,-133.87"/>
<polygon fill="#63b8ff" stroke="#63b8ff" points="398.54,-130.65 388.06,-129.05 395.25,-136.83 398.54,-130.65"/>
</a>
</g>
</g>
<!-- Node19&#45;&gt;Node3 -->
<g id="edge25_Node000019_Node000003" class="edge">
<title>Node19&#45;&gt;Node3</title>
<g id="a_edge25_Node000019_Node000003"><a xlink:title=" ">
<path fill="none" stroke="#63b8ff" d="M596.8,-219.92C618.04,-211.38 651.12,-197.62 679,-184 711.42,-168.16 747.69,-147.65 770.67,-134.29"/>
<polygon fill="#63b8ff" stroke="#63b8ff" points="772.5,-137.27 779.36,-129.2 768.96,-131.23 772.5,-137.27"/>
</a>
</g>
</g>
<!-- Node19&#45;&gt;Node7 -->
<g id="edge26_Node000019_Node000007" class="edge">
<title>Node19&#45;&gt;Node7</title>
<g id="a_edge26_Node000019_Node000007"><a xlink:title=" ">
<path fill="none" stroke="#63b8ff" d="M596.19,-219.92C613.51,-212.22 638,-199.73 656,-184 671.13,-170.79 684.33,-151.91 692.86,-138.17"/>
<polygon fill="#63b8ff" stroke="#63b8ff" points="696.07,-139.61 698.2,-129.23 690.07,-136.02 696.07,-139.61"/>
</a>
</g>
</g>
<!-- Node20 -->
<g id="Node000020" class="node">
<title>Node20</title>
<g id="a_Node000020"><a xlink:title=" ">
<polygon fill="#e0e0e0" stroke="#999999" points="506.5,-129 413.5,-129 413.5,-110 506.5,-110 506.5,-129"/>
<text text-anchor="middle" x="460" y="-117" font-family="Helvetica,sans-Serif" font-size="10.00">unordered_map</text>
</a>
</g>
</g>
<!-- Node19&#45;&gt;Node20 -->
<g id="edge24_Node000019_Node000020" class="edge">
<title>Node19&#45;&gt;Node20</title>
<g id="a_edge24_Node000019_Node000020"><a xlink:title=" ">
<path fill="none" stroke="#63b8ff" d="M565.77,-220C556.09,-211.07 540.43,-196.59 527,-184 509.76,-167.84 490.16,-149.24 476.64,-136.36"/>
<polygon fill="#63b8ff" stroke="#63b8ff" points="478.73,-133.52 469.07,-129.16 473.9,-138.59 478.73,-133.52"/>
</a>
</g>
</g>
<!-- Node21 -->
<g id="Node000021" class="node">
<title>Node21</title>
<g id="a_Node000021"><a xlink:href="../../da/de1/linkedmap_8h.html" target="_top" xlink:title=" ">
<polygon fill="white" stroke="#666666" points="613.5,-184 536.5,-184 536.5,-165 613.5,-165 613.5,-184"/>
<text text-anchor="middle" x="575" y="-172" font-family="Helvetica,sans-Serif" font-size="10.00">linkedmap.h</text>
</a>
</g>
</g>
<!-- Node19&#45;&gt;Node21 -->
<g id="edge27_Node000019_Node000021" class="edge">
<title>Node19&#45;&gt;Node21</title>
<g id="a_edge27_Node000019_Node000021"><a xlink:title=" ">
<path fill="none" stroke="#63b8ff" d="M575,-219.75C575,-212.8 575,-202.85 575,-194.13"/>
<polygon fill="#63b8ff" stroke="#63b8ff" points="578.5,-194.09 575,-184.09 571.5,-194.09 578.5,-194.09"/>
</a>
</g>
</g>
<!-- Node21&#45;&gt;Node2 -->
<g id="edge29_Node000021_Node000002" class="edge">
<title>Node21&#45;&gt;Node2</title>
<g id="a_edge29_Node000021_Node000002"><a xlink:title=" ">
<path fill="none" stroke="#63b8ff" d="M541.89,-164.94C509.45,-156.53 458.35,-143.27 405.62,-129.42"/>
<polygon fill="#63b8ff" stroke="#63b8ff" points="406.32,-125.98 395.76,-126.83 404.54,-132.75 406.32,-125.98"/>
</a>
</g>
</g>
<!-- Node21&#45;&gt;Node3 -->
<g id="edge30_Node000021_Node000003" class="edge">
<title>Node21&#45;&gt;Node3</title>
<g id="a_edge30_Node000021_Node000003"><a xlink:title=" ">
<path fill="none" stroke="#63b8ff" d="M610.19,-164.98C649.76,-155.41 713.84,-139.9 754.93,-129.95"/>
<polygon fill="#63b8ff" stroke="#63b8ff" points="755.96,-133.31 764.86,-127.55 754.31,-126.5 755.96,-133.31"/>
</a>
</g>
</g>
<!-- Node21&#45;&gt;Node7 -->
<g id="edge34_Node000021_Node000007" class="edge">
<title>Node21&#45;&gt;Node7</title>
<g id="a_edge34_Node000021_Node000007"><a xlink:title=" ">
<path fill="none" stroke="#63b8ff" d="M595.57,-164.98C616.43,-156.34 648.97,-142.87 672.77,-133.02"/>
<polygon fill="#63b8ff" stroke="#63b8ff" points="674.16,-136.23 682.06,-129.17 671.48,-129.76 674.16,-136.23"/>
</a>
</g>
</g>
<!-- Node21&#45;&gt;Node8 -->
<g id="edge31_Node000021_Node000008" class="edge">
<title>Node21&#45;&gt;Node8</title>
<g id="a_edge31_Node000021_Node000008"><a xlink:title=" ">
<path fill="none" stroke="#63b8ff" d="M565.5,-164.73C544.71,-144.47 498.93,-93.21 523,-55 536.28,-33.92 562.62,-22.6 583.89,-16.67"/>
<polygon fill="#63b8ff" stroke="#63b8ff" points="585,-20 593.84,-14.17 583.29,-13.21 585,-20"/>
</a>
</g>
</g>
<!-- Node21&#45;&gt;Node10 -->
<g id="edge32_Node000021_Node000010" class="edge">
<title>Node21&#45;&gt;Node10</title>
<g id="a_edge32_Node000021_Node000010"><a xlink:title=" ">
<path fill="none" stroke="#63b8ff" d="M574.1,-164.66C572.32,-147.17 568.31,-107.8 565.91,-84.27"/>
<polygon fill="#63b8ff" stroke="#63b8ff" points="569.38,-83.75 564.88,-74.16 562.41,-84.46 569.38,-83.75"/>
</a>
</g>
</g>
<!-- Node21&#45;&gt;Node11 -->
<g id="edge33_Node000021_Node000011" class="edge">
<title>Node21&#45;&gt;Node11</title>
<g id="a_edge33_Node000021_Node000011"><a xlink:title=" ">
<path fill="none" stroke="#63b8ff" d="M580.24,-164.66C590.79,-146.85 614.78,-106.37 628.63,-83.01"/>
<polygon fill="#63b8ff" stroke="#63b8ff" points="631.78,-84.55 633.87,-74.16 625.76,-80.98 631.78,-84.55"/>
</a>
</g>
</g>
<!-- Node21&#45;&gt;Node20 -->
<g id="edge28_Node000021_Node000020" class="edge">
<title>Node21&#45;&gt;Node20</title>
<g id="a_edge28_Node000021_Node000020"><a xlink:title=" ">
<path fill="none" stroke="#63b8ff" d="M556.52,-164.98C538.02,-156.46 509.32,-143.23 488.02,-133.41"/>
<polygon fill="#63b8ff" stroke="#63b8ff" points="489.36,-130.18 478.81,-129.17 486.43,-136.53 489.36,-130.18"/>
</a>
</g>
</g>
<!-- Node22&#45;&gt;Node2 -->
<g id="edge36_Node000022_Node000002" class="edge">
<title>Node22&#45;&gt;Node2</title>
<g id="a_edge36_Node000022_Node000002"><a xlink:title=" ">
<path fill="none" stroke="#63b8ff" d="M349.05,-219.66C353.11,-202.09 362.29,-162.45 367.73,-138.95"/>
<polygon fill="#63b8ff" stroke="#63b8ff" points="371.15,-139.69 370,-129.16 364.33,-138.11 371.15,-139.69"/>
</a>
</g>
</g>
<!-- Node22&#45;&gt;Node7 -->
<g id="edge37_Node000022_Node000007" class="edge">
<title>Node22&#45;&gt;Node7</title>
<g id="a_edge37_Node000022_Node000007"><a xlink:title=" ">
<path fill="none" stroke="#63b8ff" d="M386.07,-228.24C440.99,-226.55 543.14,-218.52 622,-184 647.69,-172.75 672.32,-151.43 687.54,-136.61"/>
<polygon fill="#63b8ff" stroke="#63b8ff" points="690.39,-138.71 694.97,-129.16 685.43,-133.77 690.39,-138.71"/>
</a>
</g>
</g>
<!-- Node23&#45;&gt;Node2 -->
<g id="edge40_Node000023_Node000002" class="edge">
<title>Node23&#45;&gt;Node2</title>
<g id="a_edge40_Node000023_Node000002"><a xlink:title=" ">
<path fill="none" stroke="#63b8ff" d="M427.62,-329.93C389.82,-317.12 325.84,-288.98 299,-239 278.38,-200.61 323.04,-157.5 351.24,-135.37"/>
<polygon fill="#63b8ff" stroke="#63b8ff" points="353.52,-138.04 359.37,-129.21 349.29,-132.46 353.52,-138.04"/>
</a>
</g>
</g>
<!-- Node23&#45;&gt;Node3 -->
<g id="edge39_Node000023_Node000003" class="edge">
<title>Node23&#45;&gt;Node3</title>
<g id="a_edge39_Node000023_Node000003"><a xlink:title=" ">
<path fill="none" stroke="#63b8ff" d="M489.65,-336.21C539,-332.01 634.99,-320.87 712,-294 760.26,-277.16 786.89,-282.94 813,-239 831.81,-207.34 815.59,-162.91 803.74,-138.44"/>
<polygon fill="#63b8ff" stroke="#63b8ff" points="806.72,-136.57 799.05,-129.26 800.49,-139.76 806.72,-136.57"/>
</a>
</g>
</g>
<!-- Node23&#45;&gt;Node18 -->
<g id="edge51_Node000023_Node000018" class="edge">
<title>Node23&#45;&gt;Node18</title>
<g id="a_edge51_Node000023_Node000018"><a xlink:title=" ">
<path fill="none" stroke="#63b8ff" d="M489.81,-330.22C525.68,-321.17 583.33,-306.62 623.08,-296.58"/>
<polygon fill="#63b8ff" stroke="#63b8ff" points="624.19,-299.92 633.03,-294.07 622.47,-293.13 624.19,-299.92"/>
</a>
</g>
</g>
<!-- Node23&#45;&gt;Node22 -->
<g id="edge52_Node000023_Node000022" class="edge">
<title>Node23&#45;&gt;Node22</title>
<g id="a_edge52_Node000023_Node000022"><a xlink:title=" ">
<path fill="none" stroke="#63b8ff" d="M445.64,-329.73C434.63,-321.06 417.64,-307.2 404,-294 388.28,-278.79 371.73,-260 360.54,-246.82"/>
<polygon fill="#63b8ff" stroke="#63b8ff" points="363.13,-244.47 354.02,-239.06 357.77,-248.97 363.13,-244.47"/>
</a>
</g>
</g>
<!-- Node24 -->
<g id="Node000024" class="node">
<title>Node24</title>
<g id="a_Node000024"><a xlink:title=" ">
<polygon fill="#e0e0e0" stroke="#999999" points="86,-129 0,-129 0,-110 86,-110 86,-129"/>
<text text-anchor="middle" x="43" y="-117" font-family="Helvetica,sans-Serif" font-size="10.00">unordered_set</text>
</a>
</g>
</g>
<!-- Node23&#45;&gt;Node24 -->
<g id="edge41_Node000023_Node000024" class="edge">
<title>Node23&#45;&gt;Node24</title>
<g id="a_edge41_Node000023_Node000024"><a xlink:title=" ">
<path fill="none" stroke="#63b8ff" d="M424.42,-337.02C380.43,-333.9 300.58,-324.18 240,-294 159.15,-253.72 85.4,-171.81 56.23,-136.88"/>
<polygon fill="#63b8ff" stroke="#63b8ff" points="58.85,-134.56 49.79,-129.06 53.45,-139.01 58.85,-134.56"/>
</a>
</g>
</g>
<!-- Node25 -->
<g id="Node000025" class="node">
<title>Node25</title>
<g id="a_Node000025"><a xlink:href="../../d5/d75/containers_8h.html" target="_top" xlink:title=" ">
<polygon fill="white" stroke="#666666" points="213.5,-184 136.5,-184 136.5,-165 213.5,-165 213.5,-184"/>
<text text-anchor="middle" x="175" y="-172" font-family="Helvetica,sans-Serif" font-size="10.00">containers.h</text>
</a>
</g>
</g>
<!-- Node23&#45;&gt;Node25 -->
<g id="edge42_Node000023_Node000025" class="edge">
<title>Node23&#45;&gt;Node25</title>
<g id="a_edge42_Node000023_Node000025"><a xlink:title=" ">
<path fill="none" stroke="#63b8ff" d="M424.35,-337.49C384.12,-334.85 315.08,-325.63 266,-294 226.54,-268.57 197.39,-219.87 183.7,-193.52"/>
<polygon fill="#63b8ff" stroke="#63b8ff" points="186.69,-191.67 179.07,-184.31 180.43,-194.81 186.69,-191.67"/>
</a>
</g>
</g>
<!-- Node29 -->
<g id="Node000029" class="node">
<title>Node29</title>
<g id="a_Node000029"><a xlink:href="../../d9/d11/membergroup_8h.html" target="_top" xlink:title=" ">
<polygon fill="white" stroke="#666666" points="613.5,-294 518.5,-294 518.5,-275 613.5,-275 613.5,-294"/>
<text text-anchor="middle" x="566" y="-282" font-family="Helvetica,sans-Serif" font-size="10.00">membergroup.h</text>
</a>
</g>
</g>
<!-- Node23&#45;&gt;Node29 -->
<g id="edge53_Node000023_Node000029" class="edge">
<title>Node23&#45;&gt;Node29</title>
<g id="a_edge53_Node000023_Node000029"><a xlink:title=" ">
<path fill="none" stroke="#63b8ff" d="M474.51,-329.98C491.97,-321.5 519.01,-308.35 539.17,-298.54"/>
<polygon fill="#63b8ff" stroke="#63b8ff" points="540.71,-301.69 548.17,-294.17 537.64,-295.4 540.71,-301.69"/>
</a>
</g>
</g>
<!-- Node30 -->
<g id="Node000030" class="node">
<title>Node30</title>
<g id="a_Node000030"><a xlink:title=" ">
<polygon fill="#e0e0e0" stroke="#999999" points="500.5,-294 413.5,-294 413.5,-275 500.5,-275 500.5,-294"/>
<text text-anchor="middle" x="457" y="-282" font-family="Helvetica,sans-Serif" font-size="10.00">configvalues.h</text>
</a>
</g>
</g>
<!-- Node23&#45;&gt;Node30 -->
<g id="edge59_Node000023_Node000030" class="edge">
<title>Node23&#45;&gt;Node30</title>
<g id="a_edge59_Node000023_Node000030"><a xlink:title=" ">
<path fill="none" stroke="#63b8ff" d="M457,-329.75C457,-322.8 457,-312.85 457,-304.13"/>
<polygon fill="#63b8ff" stroke="#63b8ff" points="460.5,-304.09 457,-294.09 453.5,-304.09 460.5,-304.09"/>
</a>
</g>
</g>
<!-- Node25&#45;&gt;Node2 -->
<g id="edge43_Node000025_Node000002" class="edge">
<title>Node25&#45;&gt;Node2</title>
<g id="a_edge43_Node000025_Node000002"><a xlink:title=" ">
<path fill="none" stroke="#63b8ff" d="M206.65,-164.98C242.84,-155.25 301.82,-139.38 338.69,-129.46"/>
<polygon fill="#63b8ff" stroke="#63b8ff" points="339.72,-132.81 348.46,-126.83 337.9,-126.05 339.72,-132.81"/>
</a>
</g>
</g>
<!-- Node25&#45;&gt;Node8 -->
<g id="edge44_Node000025_Node000008" class="edge">
<title>Node25&#45;&gt;Node8</title>
<g id="a_edge44_Node000025_Node000008"><a xlink:title=" ">
<path fill="none" stroke="#63b8ff" d="M182.32,-164.97C202.31,-142.33 260.61,-80.74 324,-55 413.08,-18.82 528.32,-11.77 583.6,-10.58"/>
<polygon fill="#63b8ff" stroke="#63b8ff" points="583.89,-14.08 593.84,-10.42 583.78,-7.08 583.89,-14.08"/>
</a>
</g>
</g>
<!-- Node25&#45;&gt;Node9 -->
<g id="edge45_Node000025_Node000009" class="edge">
<title>Node25&#45;&gt;Node9</title>
<g id="a_edge45_Node000025_Node000009"><a xlink:title=" ">
<path fill="none" stroke="#63b8ff" d="M189.17,-164.81C209.67,-152.32 248.87,-128.74 283,-110 303.08,-98.98 326.17,-87.2 343.52,-78.54"/>
<polygon fill="#63b8ff" stroke="#63b8ff" points="345.11,-81.65 352.51,-74.07 342,-75.39 345.11,-81.65"/>
</a>
</g>
</g>
<!-- Node25&#45;&gt;Node20 -->
<g id="edge49_Node000025_Node000020" class="edge">
<title>Node25&#45;&gt;Node20</title>
<g id="a_edge49_Node000025_Node000020"><a xlink:title=" ">
<path fill="none" stroke="#63b8ff" d="M213.73,-166.3C262.88,-157.16 347.99,-141.33 404.15,-130.89"/>
<polygon fill="#63b8ff" stroke="#63b8ff" points="405.09,-134.27 414.28,-129 403.81,-127.39 405.09,-134.27"/>
</a>
</g>
</g>
<!-- Node25&#45;&gt;Node24 -->
<g id="edge48_Node000025_Node000024" class="edge">
<title>Node25&#45;&gt;Node24</title>
<g id="a_edge48_Node000025_Node000024"><a xlink:title=" ">
<path fill="none" stroke="#63b8ff" d="M153.79,-164.98C132.27,-156.34 98.72,-142.87 74.17,-133.02"/>
<polygon fill="#63b8ff" stroke="#63b8ff" points="75.18,-129.65 64.59,-129.17 72.57,-136.14 75.18,-129.65"/>
</a>
</g>
</g>
<!-- Node26 -->
<g id="Node000026" class="node">
<title>Node26</title>
<g id="a_Node000026"><a xlink:title=" ">
<polygon fill="#e0e0e0" stroke="#999999" points="136,-129 104,-129 104,-110 136,-110 136,-129"/>
<text text-anchor="middle" x="120" y="-117" font-family="Helvetica,sans-Serif" font-size="10.00">set</text>
</a>
</g>
</g>
<!-- Node25&#45;&gt;Node26 -->
<g id="edge46_Node000025_Node000026" class="edge">
<title>Node25&#45;&gt;Node26</title>
<g id="a_edge46_Node000025_Node000026"><a xlink:title=" ">
<path fill="none" stroke="#63b8ff" d="M165.92,-164.75C157.91,-157.03 146.04,-145.6 136.38,-136.28"/>
<polygon fill="#63b8ff" stroke="#63b8ff" points="138.54,-133.51 128.91,-129.09 133.69,-138.55 138.54,-133.51"/>
</a>
</g>
</g>
<!-- Node27 -->
<g id="Node000027" class="node">
<title>Node27</title>
<g id="a_Node000027"><a xlink:title=" ">
<polygon fill="#e0e0e0" stroke="#999999" points="330,-129 292,-129 292,-110 330,-110 330,-129"/>
<text text-anchor="middle" x="311" y="-117" font-family="Helvetica,sans-Serif" font-size="10.00">map</text>
</a>
</g>
</g>
<!-- Node25&#45;&gt;Node27 -->
<g id="edge47_Node000025_Node000027" class="edge">
<title>Node25&#45;&gt;Node27</title>
<g id="a_edge47_Node000025_Node000027"><a xlink:title=" ">
<path fill="none" stroke="#63b8ff" d="M196.85,-164.98C220.05,-155.94 256.82,-141.61 282.33,-131.67"/>
<polygon fill="#63b8ff" stroke="#63b8ff" points="283.79,-134.86 291.84,-127.97 281.25,-128.34 283.79,-134.86"/>
</a>
</g>
</g>
<!-- Node28 -->
<g id="Node000028" class="node">
<title>Node28</title>
<g id="a_Node000028"><a xlink:title=" ">
<polygon fill="#e0e0e0" stroke="#999999" points="197.5,-129 154.5,-129 154.5,-110 197.5,-110 197.5,-129"/>
<text text-anchor="middle" x="176" y="-117" font-family="Helvetica,sans-Serif" font-size="10.00">stack</text>
</a>
</g>
</g>
<!-- Node25&#45;&gt;Node28 -->
<g id="edge50_Node000025_Node000028" class="edge">
<title>Node25&#45;&gt;Node28</title>
<g id="a_edge50_Node000025_Node000028"><a xlink:title=" ">
<path fill="none" stroke="#63b8ff" d="M175.17,-164.75C175.3,-157.8 175.48,-147.85 175.65,-139.13"/>
<polygon fill="#63b8ff" stroke="#63b8ff" points="179.15,-139.15 175.84,-129.09 172.15,-139.02 179.15,-139.15"/>
</a>
</g>
</g>
<!-- Node29&#45;&gt;Node2 -->
<g id="edge54_Node000029_Node000002" class="edge">
<title>Node29&#45;&gt;Node2</title>
<g id="a_edge54_Node000029_Node000002"><a xlink:title=" ">
<path fill="none" stroke="#63b8ff" d="M544.27,-274.94C525.38,-267 497.73,-254.16 476,-239 446.86,-218.68 441.41,-210.72 418,-184 405.01,-169.17 391.99,-150.79 383.14,-137.63"/>
<polygon fill="#63b8ff" stroke="#63b8ff" points="385.92,-135.5 377.49,-129.09 380.09,-139.36 385.92,-135.5"/>
</a>
</g>
</g>
<!-- Node29&#45;&gt;Node3 -->
<g id="edge56_Node000029_Node000003" class="edge">
<title>Node29&#45;&gt;Node3</title>
<g id="a_edge56_Node000029_Node000003"><a xlink:title=" ">
<path fill="none" stroke="#63b8ff" d="M578.96,-274.94C604.5,-257.98 663.05,-218.76 711,-184 733.39,-167.77 758.54,-148.35 775.23,-135.3"/>
<polygon fill="#63b8ff" stroke="#63b8ff" points="777.42,-138.03 783.13,-129.11 773.1,-132.53 777.42,-138.03"/>
</a>
</g>
</g>
<!-- Node29&#45;&gt;Node6 -->
<g id="edge57_Node000029_Node000006" class="edge">
<title>Node29&#45;&gt;Node6</title>
<g id="a_edge57_Node000029_Node000006"><a xlink:title=" ">
<path fill="none" stroke="#63b8ff" d="M599.9,-274.98C638.37,-265.32 700.9,-249.62 740.44,-239.68"/>
<polygon fill="#63b8ff" stroke="#63b8ff" points="741.37,-243.06 750.21,-237.23 739.66,-236.27 741.37,-243.06"/>
</a>
</g>
</g>
<!-- Node29&#45;&gt;Node19 -->
<g id="edge58_Node000029_Node000019" class="edge">
<title>Node29&#45;&gt;Node19</title>
<g id="a_edge58_Node000029_Node000019"><a xlink:title=" ">
<path fill="none" stroke="#63b8ff" d="M567.49,-274.75C568.67,-267.8 570.36,-257.85 571.84,-249.13"/>
<polygon fill="#63b8ff" stroke="#63b8ff" points="575.32,-249.53 573.54,-239.09 568.42,-248.36 575.32,-249.53"/>
</a>
</g>
</g>
<!-- Node29&#45;&gt;Node27 -->
<g id="edge55_Node000029_Node000027" class="edge">
<title>Node29&#45;&gt;Node27</title>
<g id="a_edge55_Node000029_Node000027"><a xlink:title=" ">
<path fill="none" stroke="#63b8ff" d="M534.58,-274.97C509.99,-267.52 475.47,-255.35 448,-239 398.47,-209.52 349.64,-161.51 325.89,-136.62"/>
<polygon fill="#63b8ff" stroke="#63b8ff" points="328.24,-134 318.84,-129.12 323.14,-138.8 328.24,-134"/>
</a>
</g>
</g>
</g>
</svg>

<g id="navigator" transform="translate(0 0)" fill="#404254">
  <rect fill="#f2f5e9" fill-opacity="0.5" stroke="#606060" stroke-width=".5" x="0" y="0" width="60" height="60"/>
  <use id="zoomplus" xlink:href="#zoomPlus" x="17" y="9" onmousedown="handleZoom(evt,'in')"/>
  <use id="zoomminus" xlink:href="#zoomMin" x="42" y="9" onmousedown="handleZoom(evt,'out')"/>
  <use id="reset" xlink:href="#resetDef" x="30" y="36" onmousedown="handleReset()"/>
   <use id="arrowup" xlink:href="#arrowUp" x="0" y="0" onmousedown="handlePan(0,-1)"/>
  <use id="arrowright" xlink:href="#arrowRight" x="0" y="0" onmousedown="handlePan(1,0)"/>
  <use id="arrowdown" xlink:href="#arrowDown" x="0" y="0" onmousedown="handlePan(0,1)"/>
  <use id="arrowleft" xlink:href="#arrowLeft" x="0" y="0" onmousedown="handlePan(-1,0)"/>
</g>
<svg viewBox="0 0 15 15" width="100%" height="30px" preserveAspectRatio="xMaxYMin meet">
 <g id="arrow_out" transform="scale(0.3 0.3)">
  <a xlink:href="memberdef_8h__incl_org.svg" target="_base">
   <rect id="button" ry="5" rx="5" y="6" x="6" height="38" width="38"
        fill="#f2f5e9" fill-opacity="0.5" stroke="#606060" stroke-width="1.0"/>
   <path id="arrow"
     d="M 11.500037,31.436501 C 11.940474,20.09759 22.043105,11.32322 32.158766,21.979434 L 37.068811,17.246167 C 37.068811,17.246167 37.088388,32 37.088388,32 L 22.160133,31.978069 C 22.160133,31.978069 26.997745,27.140456 26.997745,27.140456 C 18.528582,18.264221 13.291696,25.230495 11.500037,31.436501 z"
     style="fill:#404040;"/>
  </a>
 </g>
</svg>

<style type='text/css'>
<![CDATA[
[data-mouse-over-selected='false'] { opacity: 0.7; }
[data-mouse-over-selected='true']  { opacity: 1.0; }
]]>
</style>
<script type="application/ecmascript"><![CDATA[
document.addEventListener('DOMContentLoaded', (event) => {
  highlightEdges();
  highlightAdjacentNodes();
});
]]></script>
</svg>
