<?xml version="1.0" encoding="UTF-8" standalone="no"?>
<!DOCTYPE svg PUBLIC "-//W3C//DTD SVG 1.1//EN"
 "http://www.w3.org/Graphics/SVG/1.1/DTD/svg11.dtd">
<!-- Generated by graphviz version 2.43.0 (0)
 -->
<!-- Title: /home/runner/work/doxygen/doxygen/src/memberdef.h Pages: 1 -->
<svg width="1050pt" height="423pt"
 viewBox="0.00 0.00 1050.00 423.00" xmlns="http://www.w3.org/2000/svg" xmlns:xlink="http://www.w3.org/1999/xlink">
<g id="graph0" class="graph" transform="scale(1 1) rotate(0) translate(4 419)">
<title>/home/runner/work/doxygen/doxygen/src/memberdef.h</title>
<!-- Node1 -->
<g id="Node000001" class="node">
<title>Node1</title>
<g id="a_Node000001"><a xlink:title=" ">
<polygon fill="#999999" stroke="#666666" points="372,-415 218,-415 218,-385 372,-385 372,-415"/>
<text text-anchor="start" x="226" y="-403" font-family="Helvetica,sans-Serif" font-size="10.00">/home/runner/work/doxygen</text>
<text text-anchor="middle" x="295" y="-392" font-family="Helvetica,sans-Serif" font-size="10.00">/doxygen/src/memberdef.h</text>
</a>
</g>
</g>
<!-- Node2 -->
<g id="Node000002" class="node">
<title>Node2</title>
<g id="a_Node000002"><a xlink:title=" ">
<polygon fill="#e0e0e0" stroke="#999999" points="400.5,-129 353.5,-129 353.5,-110 400.5,-110 400.5,-129"/>
<text text-anchor="middle" x="377" y="-117" font-family="Helvetica,sans-Serif" font-size="10.00">vector</text>
</a>
</g>
</g>
<!-- Node1&#45;&gt;Node2 -->
<g id="edge1_Node000001_Node000002" class="edge">
<title>Node1&#45;&gt;Node2</title>
<g id="a_edge1_Node000001_Node000002"><a xlink:title=" ">
<path fill="none" stroke="#63b8ff" d="M299.18,-384.81C312.83,-338.44 356.12,-191.41 371.51,-139.16"/>
<polygon fill="#63b8ff" stroke="#63b8ff" points="374.95,-139.84 374.42,-129.26 368.24,-137.86 374.95,-139.84"/>
</a>
</g>
</g>
<!-- Node3 -->
<g id="Node000003" class="node">
<title>Node3</title>
<g id="a_Node000003"><a xlink:title=" ">
<polygon fill="#e0e0e0" stroke="#999999" points="773,-129 715,-129 715,-110 773,-110 773,-129"/>
<text text-anchor="middle" x="744" y="-117" font-family="Helvetica,sans-Serif" font-size="10.00">memory</text>
</a>
</g>
</g>
<!-- Node1&#45;&gt;Node3 -->
<g id="edge2_Node000001_Node000003" class="edge">
<title>Node1&#45;&gt;Node3</title>
<g id="a_edge2_Node000001_Node000003"><a xlink:title=" ">
<path fill="none" stroke="#63b8ff" d="M372.08,-393.44C543.64,-380.05 942,-342.77 942,-285.5 942,-285.5 942,-285.5 942,-228.5 942,-156.99 841.23,-132.54 783.47,-124.41"/>
<polygon fill="#63b8ff" stroke="#63b8ff" points="783.58,-120.89 773.22,-123.07 782.68,-127.83 783.58,-120.89"/>
</a>
</g>
</g>
<!-- Node4 -->
<g id="Node000004" class="node">
<title>Node4</title>
<g id="a_Node000004"><a xlink:title=" ">
<polygon fill="#e0e0e0" stroke="#999999" points="1042,-349 970,-349 970,-330 1042,-330 1042,-349"/>
<text text-anchor="middle" x="1006" y="-337" font-family="Helvetica,sans-Serif" font-size="10.00">sys/types.h</text>
</a>
</g>
</g>
<!-- Node1&#45;&gt;Node4 -->
<g id="edge3_Node000001_Node000004" class="edge">
<title>Node1&#45;&gt;Node4</title>
<g id="a_edge3_Node000001_Node000004"><a xlink:title=" ">
<path fill="none" stroke="#63b8ff" d="M372.07,-395.5C495.62,-389.36 745.53,-374.79 956,-349 957.25,-348.85 958.52,-348.68 959.8,-348.51"/>
<polygon fill="#63b8ff" stroke="#63b8ff" points="960.34,-351.97 969.74,-347.07 959.34,-345.04 960.34,-351.97"/>
</a>
</g>
</g>
<!-- Node5 -->
<g id="Node000005" class="node">
<title>Node5</title>
<g id="a_Node000005"><a xlink:href="../../d9/d49/types_8h.html" target="_top" xlink:title="This file contains a number of basic enums and types.">
<polygon fill="white" stroke="#666666" points="210.5,-239 157.5,-239 157.5,-220 210.5,-220 210.5,-239"/>
<text text-anchor="middle" x="184" y="-227" font-family="Helvetica,sans-Serif" font-size="10.00">types.h</text>
</a>
</g>
</g>
<!-- Node1&#45;&gt;Node5 -->
<g id="edge4_Node000001_Node000005" class="edge">
<title>Node1&#45;&gt;Node5</title>
<g id="a_edge4_Node000001_Node000005"><a xlink:title=" ">
<path fill="none" stroke="#63b8ff" d="M272.03,-384.92C245.75,-367.35 204.02,-334.59 186,-294 179.77,-279.97 179.72,-262.42 180.98,-249.32"/>
<polygon fill="#63b8ff" stroke="#63b8ff" points="184.48,-249.54 182.29,-239.17 177.54,-248.64 184.48,-249.54"/>
</a>
</g>
</g>
<!-- Node16 -->
<g id="Node000016" class="node">
<title>Node16</title>
<g id="a_Node000016"><a xlink:href="../../df/da1/definition_8h.html" target="_top" xlink:title=" ">
<polygon fill="white" stroke="#666666" points="266.5,-294 195.5,-294 195.5,-275 266.5,-275 266.5,-294"/>
<text text-anchor="middle" x="231" y="-282" font-family="Helvetica,sans-Serif" font-size="10.00">definition.h</text>
</a>
</g>
</g>
<!-- Node1&#45;&gt;Node16 -->
<g id="edge17_Node000001_Node000016" class="edge">
<title>Node1&#45;&gt;Node16</title>
<g id="a_edge17_Node000001_Node000016"><a xlink:title=" ">
<path fill="none" stroke="#63b8ff" d="M286.89,-384.63C275.17,-363.84 253.52,-325.44 240.88,-303.02"/>
<polygon fill="#63b8ff" stroke="#63b8ff" points="243.88,-301.22 235.92,-294.23 237.79,-304.66 243.88,-301.22"/>
</a>
</g>
</g>
<!-- Node20 -->
<g id="Node000020" class="node">
<title>Node20</title>
<g id="a_Node000020"><a xlink:href="../../df/d9b/arguments_8h.html" target="_top" xlink:title=" ">
<polygon fill="white" stroke="#666666" points="170,-184 92,-184 92,-165 170,-165 170,-184"/>
<text text-anchor="middle" x="131" y="-172" font-family="Helvetica,sans-Serif" font-size="10.00">arguments.h</text>
</a>
</g>
</g>
<!-- Node1&#45;&gt;Node20 -->
<g id="edge33_Node000001_Node000020" class="edge">
<title>Node1&#45;&gt;Node20</title>
<g id="a_edge33_Node000001_Node000020"><a xlink:title=" ">
<path fill="none" stroke="#63b8ff" d="M262.13,-384.81C244.11,-376.07 222.04,-363.73 205,-349 161.34,-311.26 151.25,-294.66 136,-239 132.02,-224.47 130.86,-207.41 130.64,-194.64"/>
<polygon fill="#63b8ff" stroke="#63b8ff" points="134.14,-194.31 130.66,-184.31 127.14,-194.3 134.14,-194.31"/>
</a>
</g>
</g>
<!-- Node21 -->
<g id="Node000021" class="node">
<title>Node21</title>
<g id="a_Node000021"><a xlink:href="../../d1/da6/classdef_8h.html" target="_top" xlink:title=" ">
<polygon fill="white" stroke="#666666" points="423.5,-349 358.5,-349 358.5,-330 423.5,-330 423.5,-349"/>
<text text-anchor="middle" x="391" y="-337" font-family="Helvetica,sans-Serif" font-size="10.00">classdef.h</text>
</a>
</g>
</g>
<!-- Node1&#45;&gt;Node21 -->
<g id="edge36_Node000001_Node000021" class="edge">
<title>Node1&#45;&gt;Node21</title>
<g id="a_edge36_Node000001_Node000021"><a xlink:title=" ">
<path fill="none" stroke="#63b8ff" d="M318.24,-384.84C333.4,-375.6 353.11,-363.59 368.19,-354.4"/>
<polygon fill="#63b8ff" stroke="#63b8ff" points="370.18,-357.29 376.9,-349.09 366.54,-351.31 370.18,-357.29"/>
</a>
</g>
</g>
<!-- Node6 -->
<g id="Node000006" class="node">
<title>Node6</title>
<g id="a_Node000006"><a xlink:href="../../d7/d5c/qcstring_8h.html" target="_top" xlink:title=" ">
<polygon fill="white" stroke="#666666" points="317.5,-129 252.5,-129 252.5,-110 317.5,-110 317.5,-129"/>
<text text-anchor="middle" x="285" y="-117" font-family="Helvetica,sans-Serif" font-size="10.00">qcstring.h</text>
</a>
</g>
</g>
<!-- Node5&#45;&gt;Node6 -->
<g id="edge5_Node000005_Node000006" class="edge">
<title>Node5&#45;&gt;Node6</title>
<g id="a_edge5_Node000005_Node000006"><a xlink:title=" ">
<path fill="none" stroke="#63b8ff" d="M188.42,-219.59C195.14,-206.63 208.85,-182.23 225,-165 235.88,-153.39 250.12,-142.68 261.99,-134.68"/>
<polygon fill="#63b8ff" stroke="#63b8ff" points="264.06,-137.52 270.52,-129.12 260.23,-131.65 264.06,-137.52"/>
</a>
</g>
</g>
<!-- Node7 -->
<g id="Node000007" class="node">
<title>Node7</title>
<g id="a_Node000007"><a xlink:title=" ">
<polygon fill="#e0e0e0" stroke="#999999" points="425,-19 381,-19 381,0 425,0 425,-19"/>
<text text-anchor="middle" x="403" y="-7" font-family="Helvetica,sans-Serif" font-size="10.00">string</text>
</a>
</g>
</g>
<!-- Node6&#45;&gt;Node7 -->
<g id="edge6_Node000006_Node000007" class="edge">
<title>Node6&#45;&gt;Node7</title>
<g id="a_edge6_Node000006_Node000007"><a xlink:title=" ">
<path fill="none" stroke="#63b8ff" d="M309.14,-109.9C327.09,-102.56 351.26,-90.55 368,-74 380.98,-61.17 390.49,-42.49 396.29,-28.72"/>
<polygon fill="#63b8ff" stroke="#63b8ff" points="399.59,-29.9 400,-19.31 393.08,-27.33 399.59,-29.9"/>
</a>
</g>
</g>
<!-- Node8 -->
<g id="Node000008" class="node">
<title>Node8</title>
<g id="a_Node000008"><a xlink:title=" ">
<polygon fill="#e0e0e0" stroke="#999999" points="479,-74 415,-74 415,-55 479,-55 479,-74"/>
<text text-anchor="middle" x="447" y="-62" font-family="Helvetica,sans-Serif" font-size="10.00">algorithm</text>
</a>
</g>
</g>
<!-- Node6&#45;&gt;Node8 -->
<g id="edge7_Node000006_Node000008" class="edge">
<title>Node6&#45;&gt;Node8</title>
<g id="a_edge7_Node000006_Node000008"><a xlink:title=" ">
<path fill="none" stroke="#63b8ff" d="M311.03,-109.98C338.11,-101.13 380.71,-87.19 411.01,-77.28"/>
<polygon fill="#63b8ff" stroke="#63b8ff" points="412.35,-80.52 420.77,-74.08 410.18,-73.87 412.35,-80.52"/>
</a>
</g>
</g>
<!-- Node9 -->
<g id="Node000009" class="node">
<title>Node9</title>
<g id="a_Node000009"><a xlink:title=" ">
<polygon fill="#e0e0e0" stroke="#999999" points="546.5,-74 497.5,-74 497.5,-55 546.5,-55 546.5,-74"/>
<text text-anchor="middle" x="522" y="-62" font-family="Helvetica,sans-Serif" font-size="10.00">cctype</text>
</a>
</g>
</g>
<!-- Node6&#45;&gt;Node9 -->
<g id="edge8_Node000006_Node000009" class="edge">
<title>Node6&#45;&gt;Node9</title>
<g id="a_edge8_Node000006_Node000009"><a xlink:title=" ">
<path fill="none" stroke="#63b8ff" d="M317.76,-111.63C355.99,-103.54 421.33,-89.5 487.02,-74.17"/>
<polygon fill="#63b8ff" stroke="#63b8ff" points="488.2,-77.49 497.14,-71.8 486.6,-70.68 488.2,-77.49"/>
</a>
</g>
</g>
<!-- Node10 -->
<g id="Node000010" class="node">
<title>Node10</title>
<g id="a_Node000010"><a xlink:title=" ">
<polygon fill="#e0e0e0" stroke="#999999" points="50,-74 0,-74 0,-55 50,-55 50,-74"/>
<text text-anchor="middle" x="25" y="-62" font-family="Helvetica,sans-Serif" font-size="10.00">cstring</text>
</a>
</g>
</g>
<!-- Node6&#45;&gt;Node10 -->
<g id="edge9_Node000006_Node000010" class="edge">
<title>Node6&#45;&gt;Node10</title>
<g id="a_edge9_Node000006_Node000010"><a xlink:title=" ">
<path fill="none" stroke="#63b8ff" d="M252.33,-112.6C210.18,-104.88 134.37,-90.59 60.2,-74.18"/>
<polygon fill="#63b8ff" stroke="#63b8ff" points="60.74,-70.71 50.22,-71.96 59.22,-77.55 60.74,-70.71"/>
</a>
</g>
</g>
<!-- Node11 -->
<g id="Node000011" class="node">
<title>Node11</title>
<g id="a_Node000011"><a xlink:title=" ">
<polygon fill="#e0e0e0" stroke="#999999" points="114,-74 68,-74 68,-55 114,-55 114,-74"/>
<text text-anchor="middle" x="91" y="-62" font-family="Helvetica,sans-Serif" font-size="10.00">cstdio</text>
</a>
</g>
</g>
<!-- Node6&#45;&gt;Node11 -->
<g id="edge10_Node000006_Node000011" class="edge">
<title>Node6&#45;&gt;Node11</title>
<g id="a_edge10_Node000006_Node000011"><a xlink:title=" ">
<path fill="none" stroke="#63b8ff" d="M253.83,-109.98C218.35,-100.29 160.61,-84.52 124.27,-74.59"/>
<polygon fill="#63b8ff" stroke="#63b8ff" points="124.75,-71.09 114.18,-71.83 122.9,-77.84 124.75,-71.09"/>
</a>
</g>
</g>
<!-- Node12 -->
<g id="Node000012" class="node">
<title>Node12</title>
<g id="a_Node000012"><a xlink:title=" ">
<polygon fill="#e0e0e0" stroke="#999999" points="181.5,-74 132.5,-74 132.5,-55 181.5,-55 181.5,-74"/>
<text text-anchor="middle" x="157" y="-62" font-family="Helvetica,sans-Serif" font-size="10.00">cstdlib</text>
</a>
</g>
</g>
<!-- Node6&#45;&gt;Node12 -->
<g id="edge11_Node000006_Node000012" class="edge">
<title>Node6&#45;&gt;Node12</title>
<g id="a_edge11_Node000006_Node000012"><a xlink:title=" ">
<path fill="none" stroke="#63b8ff" d="M264.43,-109.98C243.57,-101.34 211.03,-87.87 187.23,-78.02"/>
<polygon fill="#63b8ff" stroke="#63b8ff" points="188.52,-74.76 177.94,-74.17 185.84,-81.23 188.52,-74.76"/>
</a>
</g>
</g>
<!-- Node13 -->
<g id="Node000013" class="node">
<title>Node13</title>
<g id="a_Node000013"><a xlink:title=" ">
<polygon fill="#e0e0e0" stroke="#999999" points="345,-19 295,-19 295,0 345,0 345,-19"/>
<text text-anchor="middle" x="320" y="-7" font-family="Helvetica,sans-Serif" font-size="10.00">cstdint</text>
</a>
</g>
</g>
<!-- Node6&#45;&gt;Node13 -->
<g id="edge12_Node000006_Node000013" class="edge">
<title>Node6&#45;&gt;Node13</title>
<g id="a_edge12_Node000006_Node000013"><a xlink:title=" ">
<path fill="none" stroke="#63b8ff" d="M287.66,-109.85C291.45,-97.62 298.62,-74.56 305,-55 307.85,-46.27 311.09,-36.61 313.83,-28.52"/>
<polygon fill="#63b8ff" stroke="#63b8ff" points="317.16,-29.61 317.07,-19.01 310.54,-27.35 317.16,-29.61"/>
</a>
</g>
</g>
<!-- Node14 -->
<g id="Node000014" class="node">
<title>Node14</title>
<g id="a_Node000014"><a xlink:title=" ">
<polygon fill="#e0e0e0" stroke="#999999" points="256.5,-74 199.5,-74 199.5,-55 256.5,-55 256.5,-74"/>
<text text-anchor="middle" x="228" y="-62" font-family="Helvetica,sans-Serif" font-size="10.00">ostream</text>
</a>
</g>
</g>
<!-- Node6&#45;&gt;Node14 -->
<g id="edge13_Node000006_Node000014" class="edge">
<title>Node6&#45;&gt;Node14</title>
<g id="a_edge13_Node000006_Node000014"><a xlink:title=" ">
<path fill="none" stroke="#63b8ff" d="M275.84,-109.98C267.5,-102.23 254.97,-90.58 244.82,-81.14"/>
<polygon fill="#63b8ff" stroke="#63b8ff" points="247.03,-78.42 237.32,-74.17 242.26,-83.54 247.03,-78.42"/>
</a>
</g>
</g>
<!-- Node15 -->
<g id="Node000015" class="node">
<title>Node15</title>
<g id="a_Node000015"><a xlink:href="../../db/d7c/utf8_8h.html" target="_top" xlink:title="Various UTF8 related helper functions.">
<polygon fill="white" stroke="#666666" points="358.5,-74 313.5,-74 313.5,-55 358.5,-55 358.5,-74"/>
<text text-anchor="middle" x="336" y="-62" font-family="Helvetica,sans-Serif" font-size="10.00">utf8.h</text>
</a>
</g>
</g>
<!-- Node6&#45;&gt;Node15 -->
<g id="edge14_Node000006_Node000015" class="edge">
<title>Node6&#45;&gt;Node15</title>
<g id="a_edge14_Node000006_Node000015"><a xlink:title=" ">
<path fill="none" stroke="#63b8ff" d="M293.42,-109.75C300.77,-102.11 311.63,-90.82 320.54,-81.56"/>
<polygon fill="#63b8ff" stroke="#63b8ff" points="323.32,-83.72 327.74,-74.09 318.28,-78.87 323.32,-83.72"/>
</a>
</g>
</g>
<!-- Node15&#45;&gt;Node7 -->
<g id="edge16_Node000015_Node000007" class="edge">
<title>Node15&#45;&gt;Node7</title>
<g id="a_edge16_Node000015_Node000007"><a xlink:title=" ">
<path fill="none" stroke="#63b8ff" d="M346.76,-54.98C356.77,-47.07 371.89,-35.11 383.93,-25.58"/>
<polygon fill="#63b8ff" stroke="#63b8ff" points="386.37,-28.12 392.04,-19.17 382.03,-22.63 386.37,-28.12"/>
</a>
</g>
</g>
<!-- Node15&#45;&gt;Node13 -->
<g id="edge15_Node000015_Node000013" class="edge">
<title>Node15&#45;&gt;Node13</title>
<g id="a_edge15_Node000015_Node000013"><a xlink:title=" ">
<path fill="none" stroke="#63b8ff" d="M333.36,-54.75C331.24,-47.72 328.19,-37.62 325.54,-28.84"/>
<polygon fill="#63b8ff" stroke="#63b8ff" points="328.83,-27.65 322.59,-19.09 322.13,-29.67 328.83,-27.65"/>
</a>
</g>
</g>
<!-- Node16&#45;&gt;Node2 -->
<g id="edge18_Node000016_Node000002" class="edge">
<title>Node16&#45;&gt;Node2</title>
<g id="a_edge18_Node000016_Node000002"><a xlink:title=" ">
<path fill="none" stroke="#63b8ff" d="M230.83,-274.82C230.89,-253.39 233.97,-197.36 263,-165 283.7,-141.93 317.83,-130.7 343.36,-125.31"/>
<polygon fill="#63b8ff" stroke="#63b8ff" points="344.2,-128.71 353.37,-123.4 342.89,-121.84 344.2,-128.71"/>
</a>
</g>
</g>
<!-- Node16&#45;&gt;Node5 -->
<g id="edge19_Node000016_Node000005" class="edge">
<title>Node16&#45;&gt;Node5</title>
<g id="a_edge19_Node000016_Node000005"><a xlink:title=" ">
<path fill="none" stroke="#63b8ff" d="M223.24,-274.75C216.53,-267.18 206.66,-256.05 198.49,-246.84"/>
<polygon fill="#63b8ff" stroke="#63b8ff" points="200.87,-244.25 191.62,-239.09 195.63,-248.89 200.87,-244.25"/>
</a>
</g>
</g>
<!-- Node17 -->
<g id="Node000017" class="node">
<title>Node17</title>
<g id="a_Node000017"><a xlink:href="../../d1/d02/reflist_8h.html" target="_top" xlink:title=" ">
<polygon fill="white" stroke="#666666" points="489.5,-239 436.5,-239 436.5,-220 489.5,-220 489.5,-239"/>
<text text-anchor="middle" x="463" y="-227" font-family="Helvetica,sans-Serif" font-size="10.00">reflist.h</text>
</a>
</g>
</g>
<!-- Node16&#45;&gt;Node17 -->
<g id="edge20_Node000016_Node000017" class="edge">
<title>Node16&#45;&gt;Node17</title>
<g id="a_edge20_Node000016_Node000017"><a xlink:title=" ">
<path fill="none" stroke="#63b8ff" d="M266.74,-275.33C310.04,-265.44 382.62,-248.86 426.33,-238.88"/>
<polygon fill="#63b8ff" stroke="#63b8ff" points="427.29,-242.25 436.26,-236.61 425.73,-235.42 427.29,-242.25"/>
</a>
</g>
</g>
<!-- Node17&#45;&gt;Node2 -->
<g id="edge21_Node000017_Node000002" class="edge">
<title>Node17&#45;&gt;Node2</title>
<g id="a_edge21_Node000017_Node000002"><a xlink:title=" ">
<path fill="none" stroke="#63b8ff" d="M462.11,-219.88C460.38,-206.84 455.59,-181.86 443,-165 433.29,-151.99 418.59,-141.55 405.53,-134.06"/>
<polygon fill="#63b8ff" stroke="#63b8ff" points="406.86,-130.8 396.4,-129.13 403.54,-136.96 406.86,-130.8"/>
</a>
</g>
</g>
<!-- Node17&#45;&gt;Node3 -->
<g id="edge23_Node000017_Node000003" class="edge">
<title>Node17&#45;&gt;Node3</title>
<g id="a_edge23_Node000017_Node000003"><a xlink:title=" ">
<path fill="none" stroke="#63b8ff" d="M489.57,-221.54C518.94,-213.58 567.45,-199.6 608,-184 647.42,-168.83 691.45,-147.41 718.44,-133.74"/>
<polygon fill="#63b8ff" stroke="#63b8ff" points="720.26,-136.74 727.57,-129.08 717.08,-130.51 720.26,-136.74"/>
</a>
</g>
</g>
<!-- Node17&#45;&gt;Node6 -->
<g id="edge24_Node000017_Node000006" class="edge">
<title>Node17&#45;&gt;Node6</title>
<g id="a_edge24_Node000017_Node000006"><a xlink:title=" ">
<path fill="none" stroke="#63b8ff" d="M448.73,-219.84C418.01,-201.2 345.35,-157.11 308.02,-134.46"/>
<polygon fill="#63b8ff" stroke="#63b8ff" points="309.7,-131.39 299.33,-129.2 306.07,-137.38 309.7,-131.39"/>
</a>
</g>
</g>
<!-- Node18 -->
<g id="Node000018" class="node">
<title>Node18</title>
<g id="a_Node000018"><a xlink:title=" ">
<polygon fill="#e0e0e0" stroke="#999999" points="696.5,-129 603.5,-129 603.5,-110 696.5,-110 696.5,-129"/>
<text text-anchor="middle" x="650" y="-117" font-family="Helvetica,sans-Serif" font-size="10.00">unordered_map</text>
</a>
</g>
</g>
<!-- Node17&#45;&gt;Node18 -->
<g id="edge22_Node000017_Node000018" class="edge">
<title>Node17&#45;&gt;Node18</title>
<g id="a_edge22_Node000017_Node000018"><a xlink:title=" ">
<path fill="none" stroke="#63b8ff" d="M489.9,-221.73C514.96,-214.68 552.75,-202.12 582,-184 603.12,-170.92 623.41,-150.63 636.24,-136.52"/>
<polygon fill="#63b8ff" stroke="#63b8ff" points="638.87,-138.83 642.88,-129.03 633.63,-134.19 638.87,-138.83"/>
</a>
</g>
</g>
<!-- Node19 -->
<g id="Node000019" class="node">
<title>Node19</title>
<g id="a_Node000019"><a xlink:href="../../da/de1/linkedmap_8h.html" target="_top" xlink:title=" ">
<polygon fill="white" stroke="#666666" points="572.5,-184 495.5,-184 495.5,-165 572.5,-165 572.5,-184"/>
<text text-anchor="middle" x="534" y="-172" font-family="Helvetica,sans-Serif" font-size="10.00">linkedmap.h</text>
</a>
</g>
</g>
<!-- Node17&#45;&gt;Node19 -->
<g id="edge25_Node000017_Node000019" class="edge">
<title>Node17&#45;&gt;Node19</title>
<g id="a_edge25_Node000017_Node000019"><a xlink:title=" ">
<path fill="none" stroke="#63b8ff" d="M474.41,-219.98C485.11,-212 501.34,-199.88 514.16,-190.31"/>
<polygon fill="#63b8ff" stroke="#63b8ff" points="516.47,-192.96 522.39,-184.17 512.28,-187.35 516.47,-192.96"/>
</a>
</g>
</g>
<!-- Node19&#45;&gt;Node2 -->
<g id="edge27_Node000019_Node000002" class="edge">
<title>Node19&#45;&gt;Node2</title>
<g id="a_edge27_Node000019_Node000002"><a xlink:title=" ">
<path fill="none" stroke="#63b8ff" d="M508.78,-164.98C482.1,-155.98 439.89,-141.73 410.45,-131.79"/>
<polygon fill="#63b8ff" stroke="#63b8ff" points="411.22,-128.36 400.62,-128.47 408.98,-134.99 411.22,-128.36"/>
</a>
</g>
</g>
<!-- Node19&#45;&gt;Node3 -->
<g id="edge28_Node000019_Node000003" class="edge">
<title>Node19&#45;&gt;Node3</title>
<g id="a_edge28_Node000019_Node000003"><a xlink:title=" ">
<path fill="none" stroke="#63b8ff" d="M567.74,-164.98C605.18,-155.54 665.5,-140.31 704.95,-130.36"/>
<polygon fill="#63b8ff" stroke="#63b8ff" points="705.91,-133.72 714.75,-127.88 704.19,-126.94 705.91,-133.72"/>
</a>
</g>
</g>
<!-- Node19&#45;&gt;Node6 -->
<g id="edge32_Node000019_Node000006" class="edge">
<title>Node19&#45;&gt;Node6</title>
<g id="a_edge32_Node000019_Node000006"><a xlink:title=" ">
<path fill="none" stroke="#63b8ff" d="M495.37,-165.28C449.93,-155.61 374.76,-139.6 327.65,-129.58"/>
<polygon fill="#63b8ff" stroke="#63b8ff" points="328.27,-126.13 317.76,-127.47 326.81,-132.98 328.27,-126.13"/>
</a>
</g>
</g>
<!-- Node19&#45;&gt;Node7 -->
<g id="edge29_Node000019_Node000007" class="edge">
<title>Node19&#45;&gt;Node7</title>
<g id="a_edge29_Node000019_Node000007"><a xlink:title=" ">
<path fill="none" stroke="#63b8ff" d="M539.72,-164.73C552.72,-143.58 581.5,-88.97 556,-55 541.49,-35.66 475.47,-21.99 435.04,-15.26"/>
<polygon fill="#63b8ff" stroke="#63b8ff" points="435.55,-11.79 425.12,-13.66 434.43,-18.7 435.55,-11.79"/>
</a>
</g>
</g>
<!-- Node19&#45;&gt;Node8 -->
<g id="edge30_Node000019_Node000008" class="edge">
<title>Node19&#45;&gt;Node8</title>
<g id="a_edge30_Node000019_Node000008"><a xlink:title=" ">
<path fill="none" stroke="#63b8ff" d="M526.88,-164.66C512.34,-146.61 479.04,-105.28 460.35,-82.08"/>
<polygon fill="#63b8ff" stroke="#63b8ff" points="462.97,-79.75 453.97,-74.16 457.52,-84.14 462.97,-79.75"/>
</a>
</g>
</g>
<!-- Node19&#45;&gt;Node9 -->
<g id="edge31_Node000019_Node000009" class="edge">
<title>Node19&#45;&gt;Node9</title>
<g id="a_edge31_Node000019_Node000009"><a xlink:title=" ">
<path fill="none" stroke="#63b8ff" d="M533.02,-164.66C531.07,-147.17 526.7,-107.8 524.09,-84.27"/>
<polygon fill="#63b8ff" stroke="#63b8ff" points="527.55,-83.71 522.96,-74.16 520.59,-84.48 527.55,-83.71"/>
</a>
</g>
</g>
<!-- Node19&#45;&gt;Node18 -->
<g id="edge26_Node000019_Node000018" class="edge">
<title>Node19&#45;&gt;Node18</title>
<g id="a_edge26_Node000019_Node000018"><a xlink:title=" ">
<path fill="none" stroke="#63b8ff" d="M552.64,-164.98C571.3,-156.46 600.25,-143.23 621.74,-133.41"/>
<polygon fill="#63b8ff" stroke="#63b8ff" points="623.38,-136.51 631.02,-129.17 620.47,-130.14 623.38,-136.51"/>
</a>
</g>
</g>
<!-- Node20&#45;&gt;Node2 -->
<g id="edge34_Node000020_Node000002" class="edge">
<title>Node20&#45;&gt;Node2</title>
<g id="a_edge34_Node000020_Node000002"><a xlink:title=" ">
<path fill="none" stroke="#63b8ff" d="M170.25,-165.04C218.2,-154.71 298.48,-137.42 343.6,-127.7"/>
<polygon fill="#63b8ff" stroke="#63b8ff" points="344.43,-131.1 353.47,-125.57 342.96,-124.25 344.43,-131.1"/>
</a>
</g>
</g>
<!-- Node20&#45;&gt;Node6 -->
<g id="edge35_Node000020_Node000006" class="edge">
<title>Node20&#45;&gt;Node6</title>
<g id="a_edge35_Node000020_Node000006"><a xlink:title=" ">
<path fill="none" stroke="#63b8ff" d="M155.74,-164.98C181.37,-156.16 221.63,-142.31 250.41,-132.41"/>
<polygon fill="#63b8ff" stroke="#63b8ff" points="251.75,-135.65 260.06,-129.08 249.47,-129.03 251.75,-135.65"/>
</a>
</g>
</g>
<!-- Node21&#45;&gt;Node2 -->
<g id="edge38_Node000021_Node000002" class="edge">
<title>Node21&#45;&gt;Node2</title>
<g id="a_edge38_Node000021_Node000002"><a xlink:title=" ">
<path fill="none" stroke="#63b8ff" d="M388.34,-329.73C385.75,-320.82 381.94,-306.58 380,-294 371.25,-237.25 370.43,-222.36 373,-165 373.38,-156.47 374.18,-147.04 374.96,-139.07"/>
<polygon fill="#63b8ff" stroke="#63b8ff" points="378.45,-139.32 376.01,-129.02 371.49,-138.6 378.45,-139.32"/>
</a>
</g>
</g>
<!-- Node21&#45;&gt;Node3 -->
<g id="edge37_Node000021_Node000003" class="edge">
<title>Node21&#45;&gt;Node3</title>
<g id="a_edge37_Node000021_Node000003"><a xlink:title=" ">
<path fill="none" stroke="#63b8ff" d="M423.54,-336.66C517.04,-330.59 782.6,-307.49 827,-239 851.85,-200.66 799.48,-156.98 767.08,-134.9"/>
<polygon fill="#63b8ff" stroke="#63b8ff" points="768.83,-131.86 758.56,-129.27 764.97,-137.7 768.83,-131.86"/>
</a>
</g>
</g>
<!-- Node21&#45;&gt;Node16 -->
<g id="edge48_Node000021_Node000016" class="edge">
<title>Node21&#45;&gt;Node16</title>
<g id="a_edge48_Node000021_Node000016"><a xlink:title=" ">
<path fill="none" stroke="#63b8ff" d="M365.29,-329.98C338.55,-321.13 296.47,-307.19 266.55,-297.28"/>
<polygon fill="#63b8ff" stroke="#63b8ff" points="267.5,-293.9 256.91,-294.08 265.3,-300.55 267.5,-293.9"/>
</a>
</g>
</g>
<!-- Node21&#45;&gt;Node20 -->
<g id="edge49_Node000021_Node000020" class="edge">
<title>Node21&#45;&gt;Node20</title>
<g id="a_edge49_Node000021_Node000020"><a xlink:title=" ">
<path fill="none" stroke="#63b8ff" d="M358.32,-338.6C315.31,-337.23 238.96,-329.46 186,-294 152.03,-271.26 138.63,-221.79 133.67,-194.51"/>
<polygon fill="#63b8ff" stroke="#63b8ff" points="137.08,-193.64 132.03,-184.32 130.17,-194.75 137.08,-193.64"/>
</a>
</g>
</g>
<!-- Node22 -->
<g id="Node000022" class="node">
<title>Node22</title>
<g id="a_Node000022"><a xlink:title=" ">
<polygon fill="#e0e0e0" stroke="#999999" points="634,-239 602,-239 602,-220 634,-220 634,-239"/>
<text text-anchor="middle" x="618" y="-227" font-family="Helvetica,sans-Serif" font-size="10.00">set</text>
</a>
</g>
</g>
<!-- Node21&#45;&gt;Node22 -->
<g id="edge39_Node000021_Node000022" class="edge">
<title>Node21&#45;&gt;Node22</title>
<g id="a_edge39_Node000021_Node000022"><a xlink:title=" ">
<path fill="none" stroke="#63b8ff" d="M411.48,-329.98C432.19,-321.27 465.04,-307.19 493,-294 527.98,-277.5 567.7,-257.02 592.79,-243.85"/>
<polygon fill="#63b8ff" stroke="#63b8ff" points="594.75,-246.78 601.97,-239.03 591.49,-240.59 594.75,-246.78"/>
</a>
</g>
</g>
<!-- Node23 -->
<g id="Node000023" class="node">
<title>Node23</title>
<g id="a_Node000023"><a xlink:href="../../d5/d75/containers_8h.html" target="_top" xlink:title=" ">
<polygon fill="white" stroke="#666666" points="694.5,-294 617.5,-294 617.5,-275 694.5,-275 694.5,-294"/>
<text text-anchor="middle" x="656" y="-282" font-family="Helvetica,sans-Serif" font-size="10.00">containers.h</text>
</a>
</g>
</g>
<!-- Node21&#45;&gt;Node23 -->
<g id="edge40_Node000021_Node000023" class="edge">
<title>Node21&#45;&gt;Node23</title>
<g id="a_edge40_Node000021_Node000023"><a xlink:title=" ">
<path fill="none" stroke="#63b8ff" d="M423.76,-331.95C469.81,-322.74 554.02,-305.9 607.39,-295.22"/>
<polygon fill="#63b8ff" stroke="#63b8ff" points="608.19,-298.63 617.31,-293.24 606.81,-291.77 608.19,-298.63"/>
</a>
</g>
</g>
<!-- Node27 -->
<g id="Node000027" class="node">
<title>Node27</title>
<g id="a_Node000027"><a xlink:href="../../d9/d11/membergroup_8h.html" target="_top" xlink:title=" ">
<polygon fill="white" stroke="#666666" points="483.5,-294 388.5,-294 388.5,-275 483.5,-275 483.5,-294"/>
<text text-anchor="middle" x="436" y="-282" font-family="Helvetica,sans-Serif" font-size="10.00">membergroup.h</text>
</a>
</g>
</g>
<!-- Node21&#45;&gt;Node27 -->
<g id="edge50_Node000021_Node000027" class="edge">
<title>Node21&#45;&gt;Node27</title>
<g id="a_edge50_Node000021_Node000027"><a xlink:title=" ">
<path fill="none" stroke="#63b8ff" d="M398.43,-329.75C404.85,-322.18 414.31,-311.05 422.12,-301.84"/>
<polygon fill="#63b8ff" stroke="#63b8ff" points="424.9,-303.98 428.71,-294.09 419.57,-299.45 424.9,-303.98"/>
</a>
</g>
</g>
<!-- Node23&#45;&gt;Node2 -->
<g id="edge41_Node000023_Node000002" class="edge">
<title>Node23&#45;&gt;Node2</title>
<g id="a_edge41_Node000023_Node000002"><a xlink:title=" ">
<path fill="none" stroke="#63b8ff" d="M617.49,-280.31C560.32,-274.88 456.65,-262.1 428,-239 411.69,-225.85 391.99,-168.67 382.56,-138.81"/>
<polygon fill="#63b8ff" stroke="#63b8ff" points="385.88,-137.69 379.57,-129.17 379.19,-139.76 385.88,-137.69"/>
</a>
</g>
</g>
<!-- Node23&#45;&gt;Node7 -->
<g id="edge42_Node000023_Node000007" class="edge">
<title>Node23&#45;&gt;Node7</title>
<g id="a_edge42_Node000023_Node000007"><a xlink:title=" ">
<path fill="none" stroke="#63b8ff" d="M694.73,-278.9C740.05,-272.63 810.96,-259.75 827,-239 855.7,-201.87 898.35,-212.14 782,-110 680.13,-20.56 507.21,-10.07 435.58,-9.82"/>
<polygon fill="#63b8ff" stroke="#63b8ff" points="435.36,-6.32 425.37,-9.85 435.38,-13.32 435.36,-6.32"/>
</a>
</g>
</g>
<!-- Node23&#45;&gt;Node18 -->
<g id="edge46_Node000023_Node000018" class="edge">
<title>Node23&#45;&gt;Node18</title>
<g id="a_edge46_Node000023_Node000018"><a xlink:title=" ">
<path fill="none" stroke="#63b8ff" d="M694.69,-277.61C735.34,-270.54 795.26,-257.31 809,-239 846.51,-189.03 750.91,-150.35 692.09,-132.07"/>
<polygon fill="#63b8ff" stroke="#63b8ff" points="692.87,-128.65 682.28,-129.1 690.84,-135.35 692.87,-128.65"/>
</a>
</g>
</g>
<!-- Node23&#45;&gt;Node22 -->
<g id="edge43_Node000023_Node000022" class="edge">
<title>Node23&#45;&gt;Node22</title>
<g id="a_edge43_Node000023_Node000022"><a xlink:title=" ">
<path fill="none" stroke="#63b8ff" d="M649.73,-274.75C644.41,-267.34 636.64,-256.5 630.12,-247.41"/>
<polygon fill="#63b8ff" stroke="#63b8ff" points="632.83,-245.18 624.16,-239.09 627.14,-249.26 632.83,-245.18"/>
</a>
</g>
</g>
<!-- Node24 -->
<g id="Node000024" class="node">
<title>Node24</title>
<g id="a_Node000024"><a xlink:title=" ">
<polygon fill="#e0e0e0" stroke="#999999" points="584,-239 546,-239 546,-220 584,-220 584,-239"/>
<text text-anchor="middle" x="565" y="-227" font-family="Helvetica,sans-Serif" font-size="10.00">map</text>
</a>
</g>
</g>
<!-- Node23&#45;&gt;Node24 -->
<g id="edge44_Node000023_Node000024" class="edge">
<title>Node23&#45;&gt;Node24</title>
<g id="a_edge44_Node000023_Node000024"><a xlink:title=" ">
<path fill="none" stroke="#63b8ff" d="M641.38,-274.98C627.14,-266.69 605.25,-253.94 588.55,-244.22"/>
<polygon fill="#63b8ff" stroke="#63b8ff" points="590.29,-241.18 579.89,-239.17 586.77,-247.23 590.29,-241.18"/>
</a>
</g>
</g>
<!-- Node25 -->
<g id="Node000025" class="node">
<title>Node25</title>
<g id="a_Node000025"><a xlink:title=" ">
<polygon fill="#e0e0e0" stroke="#999999" points="738,-239 652,-239 652,-220 738,-220 738,-239"/>
<text text-anchor="middle" x="695" y="-227" font-family="Helvetica,sans-Serif" font-size="10.00">unordered_set</text>
</a>
</g>
</g>
<!-- Node23&#45;&gt;Node25 -->
<g id="edge45_Node000023_Node000025" class="edge">
<title>Node23&#45;&gt;Node25</title>
<g id="a_edge45_Node000023_Node000025"><a xlink:title=" ">
<path fill="none" stroke="#63b8ff" d="M662.44,-274.75C667.89,-267.34 675.86,-256.5 682.56,-247.41"/>
<polygon fill="#63b8ff" stroke="#63b8ff" points="685.57,-249.22 688.68,-239.09 679.93,-245.07 685.57,-249.22"/>
</a>
</g>
</g>
<!-- Node26 -->
<g id="Node000026" class="node">
<title>Node26</title>
<g id="a_Node000026"><a xlink:title=" ">
<polygon fill="#e0e0e0" stroke="#999999" points="799.5,-239 756.5,-239 756.5,-220 799.5,-220 799.5,-239"/>
<text text-anchor="middle" x="778" y="-227" font-family="Helvetica,sans-Serif" font-size="10.00">stack</text>
</a>
</g>
</g>
<!-- Node23&#45;&gt;Node26 -->
<g id="edge47_Node000023_Node000026" class="edge">
<title>Node23&#45;&gt;Node26</title>
<g id="a_edge47_Node000023_Node000026"><a xlink:title=" ">
<path fill="none" stroke="#63b8ff" d="M675.6,-274.98C695.32,-266.42 725.95,-253.11 748.58,-243.28"/>
<polygon fill="#63b8ff" stroke="#63b8ff" points="750.26,-246.37 758.04,-239.17 747.48,-239.94 750.26,-246.37"/>
</a>
</g>
</g>
<!-- Node27&#45;&gt;Node2 -->
<g id="edge51_Node000027_Node000002" class="edge">
<title>Node27&#45;&gt;Node2</title>
<g id="a_edge51_Node000027_Node000002"><a xlink:title=" ">
<path fill="none" stroke="#63b8ff" d="M424.7,-274.95C414.86,-266.85 401.11,-253.73 394,-239 378.32,-206.5 376.09,-163.59 376.28,-139.33"/>
<polygon fill="#63b8ff" stroke="#63b8ff" points="379.78,-139.12 376.52,-129.05 372.78,-138.96 379.78,-139.12"/>
</a>
</g>
</g>
<!-- Node27&#45;&gt;Node3 -->
<g id="edge53_Node000027_Node000003" class="edge">
<title>Node27&#45;&gt;Node3</title>
<g id="a_edge53_Node000027_Node000003"><a xlink:title=" ">
<path fill="none" stroke="#63b8ff" d="M447.61,-274.94C465.88,-261.77 502.8,-236.34 537,-220 581.51,-198.73 597.44,-205.17 642,-184 671.9,-169.79 703.93,-148.8 723.95,-134.89"/>
<polygon fill="#63b8ff" stroke="#63b8ff" points="726.09,-137.66 732.26,-129.05 722.07,-131.94 726.09,-137.66"/>
</a>
</g>
</g>
<!-- Node27&#45;&gt;Node5 -->
<g id="edge54_Node000027_Node000005" class="edge">
<title>Node27&#45;&gt;Node5</title>
<g id="a_edge54_Node000027_Node000005"><a xlink:title=" ">
<path fill="none" stroke="#63b8ff" d="M395.51,-274.98C347.27,-264.84 267.35,-248.03 220.79,-238.24"/>
<polygon fill="#63b8ff" stroke="#63b8ff" points="221.33,-234.78 210.83,-236.14 219.89,-241.63 221.33,-234.78"/>
</a>
</g>
</g>
<!-- Node27&#45;&gt;Node17 -->
<g id="edge55_Node000027_Node000017" class="edge">
<title>Node27&#45;&gt;Node17</title>
<g id="a_edge55_Node000027_Node000017"><a xlink:title=" ">
<path fill="none" stroke="#63b8ff" d="M440.46,-274.75C444.12,-267.57 449.41,-257.18 453.95,-248.27"/>
<polygon fill="#63b8ff" stroke="#63b8ff" points="457.2,-249.59 458.62,-239.09 450.97,-246.41 457.2,-249.59"/>
</a>
</g>
</g>
<!-- Node27&#45;&gt;Node24 -->
<g id="edge52_Node000027_Node000024" class="edge">
<title>Node27&#45;&gt;Node24</title>
<g id="a_edge52_Node000027_Node000024"><a xlink:title=" ">
<path fill="none" stroke="#63b8ff" d="M456.73,-274.98C478.26,-266.14 512.12,-252.23 536.24,-242.32"/>
<polygon fill="#63b8ff" stroke="#63b8ff" points="537.67,-245.51 545.59,-238.47 535.01,-239.04 537.67,-245.51"/>
</a>
</g>
</g>
</g>
</svg>
