<?xml version="1.0" encoding="UTF-8" standalone="no"?>
<!DOCTYPE svg PUBLIC "-//W3C//DTD SVG 1.1//EN"
 "http://www.w3.org/Graphics/SVG/1.1/DTD/svg11.dtd">
<!-- Generated by graphviz version 2.43.0 (0)
 -->
<!-- Title: src/doxygen_lex.h Pages: 1 -->
<svg width="1957pt" height="82pt"
 viewBox="0.00 0.00 1956.50 82.00" xmlns="http://www.w3.org/2000/svg" xmlns:xlink="http://www.w3.org/1999/xlink">
<g id="graph0" class="graph" transform="scale(1 1) rotate(0) translate(4 78)">
<title>src/doxygen_lex.h</title>
<!-- Node1 -->
<g id="Node000001" class="node">
<title>Node1</title>
<g id="a_Node000001"><a xlink:title=" ">
<polygon fill="#999999" stroke="#666666" points="1073,-74 968,-74 968,-55 1073,-55 1073,-74"/>
<text text-anchor="middle" x="1020.5" y="-62" font-family="Helvetica,sans-Serif" font-size="10.00">src/doxygen_lex.h</text>
</a>
</g>
</g>
<!-- Node2 -->
<g id="Node000002" class="node">
<title>Node2</title>
<g id="a_Node000002"><a xlink:href="../../da/d1f/code_8l.html" target="_top" xlink:title=" ">
<polygon fill="white" stroke="#666666" points="63,-19 0,-19 0,0 63,0 63,-19"/>
<text text-anchor="middle" x="31.5" y="-7" font-family="Helvetica,sans-Serif" font-size="10.00">src/code.l</text>
</a>
</g>
</g>
<!-- Node1&#45;&gt;Node2 -->
<g id="edge1_Node000001_Node000002" class="edge">
<title>Node1&#45;&gt;Node2</title>
<g id="a_edge1_Node000001_Node000002"><a xlink:title=" ">
<path fill="none" stroke="#63b8ff" d="M957.65,-64.07C805.1,-64.69 403.32,-61.75 71.5,-19 68.82,-18.66 66.06,-18.23 63.3,-17.74"/>
<polygon fill="#63b8ff" stroke="#63b8ff" points="957.79,-67.57 967.77,-64.02 957.75,-60.57 957.79,-67.57"/>
</a>
</g>
</g>
<!-- Node3 -->
<g id="Node000003" class="node">
<title>Node3</title>
<g id="a_Node000003"><a xlink:href="../../d0/d47/commentcnv_8l.html" target="_top" xlink:title=" ">
<polygon fill="white" stroke="#666666" points="184,-19 81,-19 81,0 184,0 184,-19"/>
<text text-anchor="middle" x="132.5" y="-7" font-family="Helvetica,sans-Serif" font-size="10.00">src/commentcnv.l</text>
</a>
</g>
</g>
<!-- Node1&#45;&gt;Node3 -->
<g id="edge2_Node000001_Node000003" class="edge">
<title>Node1&#45;&gt;Node3</title>
<g id="a_edge2_Node000001_Node000003"><a xlink:title=" ">
<path fill="none" stroke="#63b8ff" d="M957.57,-61.99C819.03,-58.25 477.3,-46.77 192.5,-19 189.78,-18.73 186.99,-18.44 184.18,-18.11"/>
<polygon fill="#63b8ff" stroke="#63b8ff" points="957.5,-65.49 967.59,-62.25 957.68,-58.49 957.5,-65.49"/>
</a>
</g>
</g>
<!-- Node4 -->
<g id="Node000004" class="node">
<title>Node4</title>
<g id="a_Node000004"><a xlink:href="../../d7/d5f/commentscan_8l.html" target="_top" xlink:title=" ">
<polygon fill="white" stroke="#666666" points="311,-19 202,-19 202,0 311,0 311,-19"/>
<text text-anchor="middle" x="256.5" y="-7" font-family="Helvetica,sans-Serif" font-size="10.00">src/commentscan.l</text>
</a>
</g>
</g>
<!-- Node1&#45;&gt;Node4 -->
<g id="edge3_Node000001_Node000004" class="edge">
<title>Node1&#45;&gt;Node4</title>
<g id="a_edge3_Node000001_Node000004"><a xlink:title=" ">
<path fill="none" stroke="#63b8ff" d="M957.28,-60.99C834.26,-55.76 554.15,-42.25 319.5,-19 316.75,-18.73 313.94,-18.43 311.11,-18.11"/>
<polygon fill="#63b8ff" stroke="#63b8ff" points="957.5,-64.5 967.63,-61.42 957.79,-57.51 957.5,-64.5"/>
</a>
</g>
</g>
<!-- Node5 -->
<g id="Node000005" class="node">
<title>Node5</title>
<g id="a_Node000005"><a xlink:href="../../d9/de3/configimpl_8l.html" target="_top" xlink:title=" ">
<polygon fill="white" stroke="#666666" points="420,-19 329,-19 329,0 420,0 420,-19"/>
<text text-anchor="middle" x="374.5" y="-7" font-family="Helvetica,sans-Serif" font-size="10.00">src/configimpl.l</text>
</a>
</g>
</g>
<!-- Node1&#45;&gt;Node5 -->
<g id="edge4_Node000001_Node000005" class="edge">
<title>Node1&#45;&gt;Node5</title>
<g id="a_edge4_Node000001_Node000005"><a xlink:title=" ">
<path fill="none" stroke="#63b8ff" d="M957.71,-60.39C849.59,-54.67 621.37,-41.02 429.5,-19 426.43,-18.65 423.27,-18.25 420.08,-17.83"/>
<polygon fill="#63b8ff" stroke="#63b8ff" points="957.62,-63.89 967.79,-60.92 957.99,-56.9 957.62,-63.89"/>
</a>
</g>
</g>
<!-- Node6 -->
<g id="Node000006" class="node">
<title>Node6</title>
<g id="a_Node000006"><a xlink:href="../../dc/dee/constexp_8l.html" target="_top" xlink:title=" ">
<polygon fill="white" stroke="#666666" points="522.5,-19 438.5,-19 438.5,0 522.5,0 522.5,-19"/>
<text text-anchor="middle" x="480.5" y="-7" font-family="Helvetica,sans-Serif" font-size="10.00">src/constexp.l</text>
</a>
</g>
</g>
<!-- Node1&#45;&gt;Node6 -->
<g id="edge5_Node000001_Node000006" class="edge">
<title>Node1&#45;&gt;Node6</title>
<g id="a_edge5_Node000001_Node000006"><a xlink:title=" ">
<path fill="none" stroke="#63b8ff" d="M957.65,-59.36C864.25,-52.86 683.38,-38.91 530.5,-19 527.97,-18.67 525.37,-18.31 522.75,-17.92"/>
<polygon fill="#63b8ff" stroke="#63b8ff" points="957.56,-62.87 967.78,-60.06 958.04,-55.88 957.56,-62.87"/>
</a>
</g>
</g>
<!-- Node7 -->
<g id="Node000007" class="node">
<title>Node7</title>
<g id="a_Node000007"><a xlink:href="../../d8/d0f/declinfo_8l.html" target="_top" xlink:title=" ">
<polygon fill="white" stroke="#666666" points="619,-19 540,-19 540,0 619,0 619,-19"/>
<text text-anchor="middle" x="579.5" y="-7" font-family="Helvetica,sans-Serif" font-size="10.00">src/declinfo.l</text>
</a>
</g>
</g>
<!-- Node1&#45;&gt;Node7 -->
<g id="edge6_Node000001_Node000007" class="edge">
<title>Node1&#45;&gt;Node7</title>
<g id="a_edge6_Node000001_Node000007"><a xlink:title=" ">
<path fill="none" stroke="#63b8ff" d="M957.82,-57.62C880.13,-50.06 743.75,-35.86 627.5,-19 624.74,-18.6 621.89,-18.16 619.02,-17.7"/>
<polygon fill="#63b8ff" stroke="#63b8ff" points="957.63,-61.12 967.92,-58.6 958.31,-54.15 957.63,-61.12"/>
</a>
</g>
</g>
<!-- Node8 -->
<g id="Node000008" class="node">
<title>Node8</title>
<g id="a_Node000008"><a xlink:href="../../de/df3/defargs_8l.html" target="_top" xlink:title=" ">
<polygon fill="white" stroke="#666666" points="714,-19 637,-19 637,0 714,0 714,-19"/>
<text text-anchor="middle" x="675.5" y="-7" font-family="Helvetica,sans-Serif" font-size="10.00">src/defargs.l</text>
</a>
</g>
</g>
<!-- Node1&#45;&gt;Node8 -->
<g id="edge7_Node000001_Node000008" class="edge">
<title>Node1&#45;&gt;Node8</title>
<g id="a_edge7_Node000001_Node000008"><a xlink:title=" ">
<path fill="none" stroke="#63b8ff" d="M957.81,-54.71C897.44,-46.11 803.61,-32.39 722.5,-19 719.8,-18.55 717.02,-18.08 714.21,-17.6"/>
<polygon fill="#63b8ff" stroke="#63b8ff" points="957.55,-58.21 967.94,-56.15 958.53,-51.28 957.55,-58.21"/>
</a>
</g>
</g>
<!-- Node9 -->
<g id="Node000009" class="node">
<title>Node9</title>
<g id="a_Node000009"><a xlink:href="../../d1/d39/doctokenizer_8l.html" target="_top" xlink:title=" ">
<polygon fill="white" stroke="#666666" points="833,-19 732,-19 732,0 833,0 833,-19"/>
<text text-anchor="middle" x="782.5" y="-7" font-family="Helvetica,sans-Serif" font-size="10.00">src/doctokenizer.l</text>
</a>
</g>
</g>
<!-- Node1&#45;&gt;Node9 -->
<g id="edge8_Node000001_Node000009" class="edge">
<title>Node1&#45;&gt;Node9</title>
<g id="a_edge8_Node000001_Node000009"><a xlink:title=" ">
<path fill="none" stroke="#63b8ff" d="M972.24,-52.75C927.64,-42.82 862.24,-28.26 821.04,-19.08"/>
<polygon fill="#63b8ff" stroke="#63b8ff" points="971.74,-56.23 982.26,-54.98 973.26,-49.39 971.74,-56.23"/>
</a>
</g>
</g>
<!-- Node10 -->
<g id="Node000010" class="node">
<title>Node10</title>
<g id="a_Node000010"><a xlink:href="../../d9/d5b/fortrancode_8l.html" target="_top" xlink:title=" ">
<polygon fill="white" stroke="#666666" points="947.5,-19 851.5,-19 851.5,0 947.5,0 947.5,-19"/>
<text text-anchor="middle" x="899.5" y="-7" font-family="Helvetica,sans-Serif" font-size="10.00">src/fortrancode.l</text>
</a>
</g>
</g>
<!-- Node1&#45;&gt;Node10 -->
<g id="edge9_Node000001_Node000010" class="edge">
<title>Node1&#45;&gt;Node10</title>
<g id="a_edge9_Node000001_Node000010"><a xlink:title=" ">
<path fill="none" stroke="#63b8ff" d="M991.73,-50.9C969.38,-41.11 938.98,-27.79 919.29,-19.17"/>
<polygon fill="#63b8ff" stroke="#63b8ff" points="990.5,-54.18 1001.06,-54.98 993.3,-47.77 990.5,-54.18"/>
</a>
</g>
</g>
<!-- Node11 -->
<g id="Node000011" class="node">
<title>Node11</title>
<g id="a_Node000011"><a xlink:href="../../dd/d00/fortranscanner_8l.html" target="_top" xlink:title=" ">
<polygon fill="white" stroke="#666666" points="1075.5,-19 965.5,-19 965.5,0 1075.5,0 1075.5,-19"/>
<text text-anchor="middle" x="1020.5" y="-7" font-family="Helvetica,sans-Serif" font-size="10.00">src/fortranscanner.l</text>
</a>
</g>
</g>
<!-- Node1&#45;&gt;Node11 -->
<g id="edge10_Node000001_Node000011" class="edge">
<title>Node1&#45;&gt;Node11</title>
<g id="a_edge10_Node000001_Node000011"><a xlink:title=" ">
<path fill="none" stroke="#63b8ff" d="M1020.5,-44.66C1020.5,-35.93 1020.5,-25.99 1020.5,-19.09"/>
<polygon fill="#63b8ff" stroke="#63b8ff" points="1017,-44.75 1020.5,-54.75 1024,-44.75 1017,-44.75"/>
</a>
</g>
</g>
<!-- Node12 -->
<g id="Node000012" class="node">
<title>Node12</title>
<g id="a_Node000012"><a xlink:href="../../d0/d7e/lexcode_8l.html" target="_top" xlink:title=" ">
<polygon fill="white" stroke="#666666" points="1171.5,-19 1093.5,-19 1093.5,0 1171.5,0 1171.5,-19"/>
<text text-anchor="middle" x="1132.5" y="-7" font-family="Helvetica,sans-Serif" font-size="10.00">src/lexcode.l</text>
</a>
</g>
</g>
<!-- Node1&#45;&gt;Node12 -->
<g id="edge11_Node000001_Node000012" class="edge">
<title>Node1&#45;&gt;Node12</title>
<g id="a_edge11_Node000001_Node000012"><a xlink:title=" ">
<path fill="none" stroke="#63b8ff" d="M1047.69,-50.63C1068.32,-40.87 1096.12,-27.71 1114.18,-19.17"/>
<polygon fill="#63b8ff" stroke="#63b8ff" points="1046.04,-47.54 1038.49,-54.98 1049.03,-53.87 1046.04,-47.54"/>
</a>
</g>
</g>
<!-- Node13 -->
<g id="Node000013" class="node">
<title>Node13</title>
<g id="a_Node000013"><a xlink:href="../../d4/d7d/lexscanner_8l.html" target="_top" xlink:title=" ">
<polygon fill="white" stroke="#666666" points="1281.5,-19 1189.5,-19 1189.5,0 1281.5,0 1281.5,-19"/>
<text text-anchor="middle" x="1235.5" y="-7" font-family="Helvetica,sans-Serif" font-size="10.00">src/lexscanner.l</text>
</a>
</g>
</g>
<!-- Node1&#45;&gt;Node13 -->
<g id="edge12_Node000001_Node000013" class="edge">
<title>Node1&#45;&gt;Node13</title>
<g id="a_edge12_Node000001_Node000013"><a xlink:title=" ">
<path fill="none" stroke="#63b8ff" d="M1064.86,-52.56C1105.13,-42.64 1163.7,-28.2 1200.69,-19.08"/>
<polygon fill="#63b8ff" stroke="#63b8ff" points="1063.92,-49.19 1055.04,-54.98 1065.59,-55.99 1063.92,-49.19"/>
</a>
</g>
</g>
<!-- Node14 -->
<g id="Node000014" class="node">
<title>Node14</title>
<g id="a_Node000014"><a xlink:href="../../d0/da7/pre_8l.html" target="_top" xlink:title=" ">
<polygon fill="white" stroke="#666666" points="1355.5,-19 1299.5,-19 1299.5,0 1355.5,0 1355.5,-19"/>
<text text-anchor="middle" x="1327.5" y="-7" font-family="Helvetica,sans-Serif" font-size="10.00">src/pre.l</text>
</a>
</g>
</g>
<!-- Node1&#45;&gt;Node14 -->
<g id="edge13_Node000001_Node000014" class="edge">
<title>Node1&#45;&gt;Node14</title>
<g id="a_edge13_Node000001_Node000014"><a xlink:title=" ">
<path fill="none" stroke="#63b8ff" d="M1083.11,-54.31C1137.96,-46 1219.74,-32.94 1290.5,-19 1293.35,-18.44 1296.31,-17.82 1299.26,-17.18"/>
<polygon fill="#63b8ff" stroke="#63b8ff" points="1082.56,-50.86 1073.19,-55.81 1083.6,-57.78 1082.56,-50.86"/>
</a>
</g>
</g>
<!-- Node15 -->
<g id="Node000015" class="node">
<title>Node15</title>
<g id="a_Node000015"><a xlink:href="../../d3/ded/pycode_8l.html" target="_top" xlink:title=" ">
<polygon fill="white" stroke="#666666" points="1449,-19 1374,-19 1374,0 1449,0 1449,-19"/>
<text text-anchor="middle" x="1411.5" y="-7" font-family="Helvetica,sans-Serif" font-size="10.00">src/pycode.l</text>
</a>
</g>
</g>
<!-- Node1&#45;&gt;Node15 -->
<g id="edge14_Node000001_Node000015" class="edge">
<title>Node1&#45;&gt;Node15</title>
<g id="a_edge14_Node000001_Node000015"><a xlink:title=" ">
<path fill="none" stroke="#63b8ff" d="M1083.34,-56.33C1152.41,-48.23 1266.58,-34.18 1364.5,-19 1367.53,-18.53 1370.67,-18.02 1373.82,-17.49"/>
<polygon fill="#63b8ff" stroke="#63b8ff" points="1082.59,-52.9 1073.07,-57.53 1083.41,-59.85 1082.59,-52.9"/>
</a>
</g>
</g>
<!-- Node16 -->
<g id="Node000016" class="node">
<title>Node16</title>
<g id="a_Node000016"><a xlink:href="../../de/d2b/pyscanner_8l.html" target="_top" xlink:title=" ">
<polygon fill="white" stroke="#666666" points="1556,-19 1467,-19 1467,0 1556,0 1556,-19"/>
<text text-anchor="middle" x="1511.5" y="-7" font-family="Helvetica,sans-Serif" font-size="10.00">src/pyscanner.l</text>
</a>
</g>
</g>
<!-- Node1&#45;&gt;Node16 -->
<g id="edge15_Node000001_Node000016" class="edge">
<title>Node1&#45;&gt;Node16</title>
<g id="a_edge15_Node000001_Node000016"><a xlink:title=" ">
<path fill="none" stroke="#63b8ff" d="M1083.22,-58.27C1168.38,-50.92 1325.23,-36.44 1458.5,-19 1461.27,-18.64 1464.12,-18.24 1466.99,-17.83"/>
<polygon fill="#63b8ff" stroke="#63b8ff" points="1082.87,-54.79 1073.2,-59.14 1083.47,-61.77 1082.87,-54.79"/>
</a>
</g>
</g>
<!-- Node17 -->
<g id="Node000017" class="node">
<title>Node17</title>
<g id="a_Node000017"><a xlink:href="../../da/d11/scanner_8l.html" target="_top" xlink:title=" ">
<polygon fill="white" stroke="#666666" points="1651,-19 1574,-19 1574,0 1651,0 1651,-19"/>
<text text-anchor="middle" x="1612.5" y="-7" font-family="Helvetica,sans-Serif" font-size="10.00">src/scanner.l</text>
</a>
</g>
</g>
<!-- Node1&#45;&gt;Node17 -->
<g id="edge16_Node000001_Node000017" class="edge">
<title>Node1&#45;&gt;Node17</title>
<g id="a_edge16_Node000001_Node000017"><a xlink:title=" ">
<path fill="none" stroke="#63b8ff" d="M1083.39,-60.36C1185.06,-54.84 1391.68,-41.76 1565.5,-19 1568.21,-18.64 1571.01,-18.24 1573.82,-17.8"/>
<polygon fill="#63b8ff" stroke="#63b8ff" points="1083.09,-56.87 1073.29,-60.9 1083.47,-63.86 1083.09,-56.87"/>
</a>
</g>
</g>
<!-- Node18 -->
<g id="Node000018" class="node">
<title>Node18</title>
<g id="a_Node000018"><a xlink:href="../../d2/dda/sqlcode_8l.html" target="_top" xlink:title=" ">
<polygon fill="white" stroke="#666666" points="1746,-19 1669,-19 1669,0 1746,0 1746,-19"/>
<text text-anchor="middle" x="1707.5" y="-7" font-family="Helvetica,sans-Serif" font-size="10.00">src/sqlcode.l</text>
</a>
</g>
</g>
<!-- Node1&#45;&gt;Node18 -->
<g id="edge17_Node000001_Node000018" class="edge">
<title>Node1&#45;&gt;Node18</title>
<g id="a_edge17_Node000001_Node000018"><a xlink:title=" ">
<path fill="none" stroke="#63b8ff" d="M1083.4,-61.41C1198.36,-57.09 1449.96,-45.28 1660.5,-19 1663.22,-18.66 1666.01,-18.27 1668.82,-17.84"/>
<polygon fill="#63b8ff" stroke="#63b8ff" points="1083.23,-57.92 1073.37,-61.78 1083.49,-64.91 1083.23,-57.92"/>
</a>
</g>
</g>
<!-- Node19 -->
<g id="Node000019" class="node">
<title>Node19</title>
<g id="a_Node000019"><a xlink:href="../../d5/d6a/vhdlcode_8l.html" target="_top" xlink:title=" ">
<polygon fill="white" stroke="#666666" points="1848.5,-19 1764.5,-19 1764.5,0 1848.5,0 1848.5,-19"/>
<text text-anchor="middle" x="1806.5" y="-7" font-family="Helvetica,sans-Serif" font-size="10.00">src/vhdlcode.l</text>
</a>
</g>
</g>
<!-- Node1&#45;&gt;Node19 -->
<g id="edge18_Node000001_Node000019" class="edge">
<title>Node1&#45;&gt;Node19</title>
<g id="a_edge18_Node000001_Node000019"><a xlink:title=" ">
<path fill="none" stroke="#63b8ff" d="M1083.58,-61.91C1210.94,-58.19 1507.78,-47.06 1755.5,-19 1758.35,-18.68 1761.29,-18.3 1764.25,-17.89"/>
<polygon fill="#63b8ff" stroke="#63b8ff" points="1083.14,-58.42 1073.25,-62.2 1083.34,-65.41 1083.14,-58.42"/>
</a>
</g>
</g>
<!-- Node20 -->
<g id="Node000020" class="node">
<title>Node20</title>
<g id="a_Node000020"><a xlink:href="../../dc/dc1/xmlcode_8l.html" target="_top" xlink:title=" ">
<polygon fill="white" stroke="#666666" points="1948.5,-19 1866.5,-19 1866.5,0 1948.5,0 1948.5,-19"/>
<text text-anchor="middle" x="1907.5" y="-7" font-family="Helvetica,sans-Serif" font-size="10.00">src/xmlcode.l</text>
</a>
</g>
</g>
<!-- Node1&#45;&gt;Node20 -->
<g id="edge19_Node000001_Node000020" class="edge">
<title>Node1&#45;&gt;Node20</title>
<g id="a_edge19_Node000001_Node000020"><a xlink:title=" ">
<path fill="none" stroke="#63b8ff" d="M1083.15,-62.63C1222.65,-60.17 1569.31,-51.05 1857.5,-19 1860.39,-18.68 1863.36,-18.3 1866.35,-17.88"/>
<polygon fill="#63b8ff" stroke="#63b8ff" points="1083.01,-59.14 1073.07,-62.81 1083.13,-66.13 1083.01,-59.14"/>
</a>
</g>
</g>
</g>
</svg>
