<?xml version="1.0" encoding="UTF-8" standalone="no"?>
<!DOCTYPE svg PUBLIC "-//W3C//DTD SVG 1.1//EN"
 "http://www.w3.org/Graphics/SVG/1.1/DTD/svg11.dtd">
<!-- Generated by graphviz version 2.43.0 (0)
 -->
<!-- Title: src/vhdldocgen.h Pages: 1 -->
<svg width="1087pt" height="357pt"
 viewBox="0.00 0.00 1086.98 357.00" xmlns="http://www.w3.org/2000/svg" xmlns:xlink="http://www.w3.org/1999/xlink">
<g id="graph0" class="graph" transform="scale(1 1) rotate(0) translate(4 353)">
<title>src/vhdldocgen.h</title>
<!-- Node1 -->
<g id="Node000001" class="node">
<title>Node1</title>
<g id="a_Node000001"><a xlink:title=" ">
<polygon fill="#999999" stroke="#666666" points="513.48,-349 414.48,-349 414.48,-330 513.48,-330 513.48,-349"/>
<text text-anchor="middle" x="463.98" y="-337" font-family="Helvetica,sans-Serif" font-size="10.00">src/vhdldocgen.h</text>
</a>
</g>
</g>
<!-- Node2 -->
<g id="Node000002" class="node">
<title>Node2</title>
<g id="a_Node000002"><a xlink:href="../../d7/d5c/qcstring_8h.html" target="_top" xlink:title=" ">
<polygon fill="white" stroke="#666666" points="462.48,-129 397.48,-129 397.48,-110 462.48,-110 462.48,-129"/>
<text text-anchor="middle" x="429.98" y="-117" font-family="Helvetica,sans-Serif" font-size="10.00">qcstring.h</text>
</a>
</g>
</g>
<!-- Node1&#45;&gt;Node2 -->
<g id="edge1_Node000001_Node000002" class="edge">
<title>Node1&#45;&gt;Node2</title>
<g id="a_edge1_Node000001_Node000002"><a xlink:title=" ">
<path fill="none" stroke="#63b8ff" d="M414.33,-334.72C333.47,-325.41 177.57,-293.41 129.98,-184 126.61,-176.26 124.47,-171.39 129.98,-165 162.7,-127.06 312.55,-120.94 387.31,-120.29"/>
<polygon fill="#63b8ff" stroke="#63b8ff" points="387.36,-123.79 397.34,-120.24 387.32,-116.79 387.36,-123.79"/>
</a>
</g>
</g>
<!-- Node13 -->
<g id="Node000013" class="node">
<title>Node13</title>
<g id="a_Node000013"><a xlink:href="../../db/d51/layout_8h.html" target="_top" xlink:title=" ">
<polygon fill="white" stroke="#666666" points="751.98,-239 695.98,-239 695.98,-220 751.98,-220 751.98,-239"/>
<text text-anchor="middle" x="723.98" y="-227" font-family="Helvetica,sans-Serif" font-size="10.00">layout.h</text>
</a>
</g>
</g>
<!-- Node1&#45;&gt;Node13 -->
<g id="edge14_Node000001_Node000013" class="edge">
<title>Node1&#45;&gt;Node13</title>
<g id="a_edge14_Node000001_Node000013"><a xlink:title=" ">
<path fill="none" stroke="#63b8ff" d="M484.82,-329.84C530.76,-310.76 640.9,-265.01 694.15,-242.89"/>
<polygon fill="#63b8ff" stroke="#63b8ff" points="695.51,-246.12 703.41,-239.05 692.83,-239.65 695.51,-246.12"/>
</a>
</g>
</g>
<!-- Node18 -->
<g id="Node000018" class="node">
<title>Node18</title>
<g id="a_Node000018"><a xlink:href="../../df/d9b/arguments_8h.html" target="_top" xlink:title=" ">
<polygon fill="white" stroke="#666666" points="373.98,-239 295.98,-239 295.98,-220 373.98,-220 373.98,-239"/>
<text text-anchor="middle" x="334.98" y="-227" font-family="Helvetica,sans-Serif" font-size="10.00">arguments.h</text>
</a>
</g>
</g>
<!-- Node1&#45;&gt;Node18 -->
<g id="edge20_Node000001_Node000018" class="edge">
<title>Node1&#45;&gt;Node18</title>
<g id="a_edge20_Node000001_Node000018"><a xlink:title=" ">
<path fill="none" stroke="#63b8ff" d="M453.42,-329.66C431.49,-311.3 380.74,-268.81 353.34,-245.87"/>
<polygon fill="#63b8ff" stroke="#63b8ff" points="355.24,-242.89 345.32,-239.16 350.74,-248.26 355.24,-242.89"/>
</a>
</g>
</g>
<!-- Node19 -->
<g id="Node000019" class="node">
<title>Node19</title>
<g id="a_Node000019"><a xlink:href="../../d1/dc6/entry_8h.html" target="_top" xlink:title=" ">
<polygon fill="white" stroke="#666666" points="551.98,-294 501.98,-294 501.98,-275 551.98,-275 551.98,-294"/>
<text text-anchor="middle" x="526.98" y="-282" font-family="Helvetica,sans-Serif" font-size="10.00">entry.h</text>
</a>
</g>
</g>
<!-- Node1&#45;&gt;Node19 -->
<g id="edge23_Node000001_Node000019" class="edge">
<title>Node1&#45;&gt;Node19</title>
<g id="a_edge23_Node000001_Node000019"><a xlink:title=" ">
<path fill="none" stroke="#63b8ff" d="M474.1,-329.98C483.42,-322.15 497.45,-310.34 508.72,-300.86"/>
<polygon fill="#63b8ff" stroke="#63b8ff" points="511.28,-303.29 516.67,-294.17 506.77,-297.93 511.28,-303.29"/>
</a>
</g>
</g>
<!-- Node3 -->
<g id="Node000003" class="node">
<title>Node3</title>
<g id="a_Node000003"><a xlink:title=" ">
<polygon fill="#e0e0e0" stroke="#999999" points="368.98,-19 324.98,-19 324.98,0 368.98,0 368.98,-19"/>
<text text-anchor="middle" x="346.98" y="-7" font-family="Helvetica,sans-Serif" font-size="10.00">string</text>
</a>
</g>
</g>
<!-- Node2&#45;&gt;Node3 -->
<g id="edge2_Node000002_Node000003" class="edge">
<title>Node2&#45;&gt;Node3</title>
<g id="a_edge2_Node000002_Node000003"><a xlink:title=" ">
<path fill="none" stroke="#63b8ff" d="M430.26,-109.88C430.27,-96.85 428.6,-71.87 416.98,-55 407.49,-41.22 392.19,-30.78 378.32,-23.49"/>
<polygon fill="#63b8ff" stroke="#63b8ff" points="379.55,-20.2 369.03,-18.94 376.47,-26.48 379.55,-20.2"/>
</a>
</g>
</g>
<!-- Node4 -->
<g id="Node000004" class="node">
<title>Node4</title>
<g id="a_Node000004"><a xlink:title=" ">
<polygon fill="#e0e0e0" stroke="#999999" points="538.48,-74 465.48,-74 465.48,-55 538.48,-55 538.48,-74"/>
<text text-anchor="middle" x="501.98" y="-62" font-family="Helvetica,sans-Serif" font-size="10.00">string_view</text>
</a>
</g>
</g>
<!-- Node2&#45;&gt;Node4 -->
<g id="edge3_Node000002_Node000004" class="edge">
<title>Node2&#45;&gt;Node4</title>
<g id="a_edge3_Node000002_Node000004"><a xlink:title=" ">
<path fill="none" stroke="#63b8ff" d="M441.55,-109.98C452.4,-102 468.86,-89.88 481.86,-80.31"/>
<polygon fill="#63b8ff" stroke="#63b8ff" points="484.22,-82.92 490.2,-74.17 480.07,-77.28 484.22,-82.92"/>
</a>
</g>
</g>
<!-- Node5 -->
<g id="Node000005" class="node">
<title>Node5</title>
<g id="a_Node000005"><a xlink:title=" ">
<polygon fill="#e0e0e0" stroke="#999999" points="807.98,-74 743.98,-74 743.98,-55 807.98,-55 807.98,-74"/>
<text text-anchor="middle" x="775.98" y="-62" font-family="Helvetica,sans-Serif" font-size="10.00">algorithm</text>
</a>
</g>
</g>
<!-- Node2&#45;&gt;Node5 -->
<g id="edge4_Node000002_Node000005" class="edge">
<title>Node2&#45;&gt;Node5</title>
<g id="a_edge4_Node000002_Node000005"><a xlink:title=" ">
<path fill="none" stroke="#63b8ff" d="M462.53,-113.51C525.42,-103.88 663.56,-82.72 733.55,-72"/>
<polygon fill="#63b8ff" stroke="#63b8ff" points="734.41,-75.41 743.77,-70.43 733.35,-68.49 734.41,-75.41"/>
</a>
</g>
</g>
<!-- Node6 -->
<g id="Node000006" class="node">
<title>Node6</title>
<g id="a_Node000006"><a xlink:title=" ">
<polygon fill="#e0e0e0" stroke="#999999" points="690.48,-74 641.48,-74 641.48,-55 690.48,-55 690.48,-74"/>
<text text-anchor="middle" x="665.98" y="-62" font-family="Helvetica,sans-Serif" font-size="10.00">cctype</text>
</a>
</g>
</g>
<!-- Node2&#45;&gt;Node6 -->
<g id="edge5_Node000002_Node000006" class="edge">
<title>Node2&#45;&gt;Node6</title>
<g id="a_edge5_Node000002_Node000006"><a xlink:title=" ">
<path fill="none" stroke="#63b8ff" d="M462.8,-111.13C507.21,-101.16 586.1,-83.44 631.41,-73.26"/>
<polygon fill="#63b8ff" stroke="#63b8ff" points="632.36,-76.64 641.35,-71.03 630.83,-69.81 632.36,-76.64"/>
</a>
</g>
</g>
<!-- Node7 -->
<g id="Node000007" class="node">
<title>Node7</title>
<g id="a_Node000007"><a xlink:title=" ">
<polygon fill="#e0e0e0" stroke="#999999" points="606.98,-74 556.98,-74 556.98,-55 606.98,-55 606.98,-74"/>
<text text-anchor="middle" x="581.98" y="-62" font-family="Helvetica,sans-Serif" font-size="10.00">cstring</text>
</a>
</g>
</g>
<!-- Node2&#45;&gt;Node7 -->
<g id="edge6_Node000002_Node000007" class="edge">
<title>Node2&#45;&gt;Node7</title>
<g id="a_edge6_Node000002_Node000007"><a xlink:title=" ">
<path fill="none" stroke="#63b8ff" d="M454.4,-109.98C479.7,-101.16 519.44,-87.31 547.84,-77.41"/>
<polygon fill="#63b8ff" stroke="#63b8ff" points="549.08,-80.68 557.37,-74.08 546.77,-74.07 549.08,-80.68"/>
</a>
</g>
</g>
<!-- Node8 -->
<g id="Node000008" class="node">
<title>Node8</title>
<g id="a_Node000008"><a xlink:title=" ">
<polygon fill="#e0e0e0" stroke="#999999" points="57.98,-74 11.98,-74 11.98,-55 57.98,-55 57.98,-74"/>
<text text-anchor="middle" x="34.98" y="-62" font-family="Helvetica,sans-Serif" font-size="10.00">cstdio</text>
</a>
</g>
</g>
<!-- Node2&#45;&gt;Node8 -->
<g id="edge7_Node000002_Node000008" class="edge">
<title>Node2&#45;&gt;Node8</title>
<g id="a_edge7_Node000002_Node000008"><a xlink:title=" ">
<path fill="none" stroke="#63b8ff" d="M397.32,-114.12C323.33,-104.19 143.54,-80.07 68.62,-70.01"/>
<polygon fill="#63b8ff" stroke="#63b8ff" points="68.73,-66.5 58.35,-68.64 67.8,-73.44 68.73,-66.5"/>
</a>
</g>
</g>
<!-- Node9 -->
<g id="Node000009" class="node">
<title>Node9</title>
<g id="a_Node000009"><a xlink:title=" ">
<polygon fill="#e0e0e0" stroke="#999999" points="333.48,-74 284.48,-74 284.48,-55 333.48,-55 333.48,-74"/>
<text text-anchor="middle" x="308.98" y="-62" font-family="Helvetica,sans-Serif" font-size="10.00">cstdlib</text>
</a>
</g>
</g>
<!-- Node2&#45;&gt;Node9 -->
<g id="edge8_Node000002_Node000009" class="edge">
<title>Node2&#45;&gt;Node9</title>
<g id="a_edge8_Node000002_Node000009"><a xlink:title=" ">
<path fill="none" stroke="#63b8ff" d="M410.54,-109.98C390.99,-101.42 360.6,-88.11 338.16,-78.28"/>
<polygon fill="#63b8ff" stroke="#63b8ff" points="339.34,-74.98 328.78,-74.17 336.53,-81.39 339.34,-74.98"/>
</a>
</g>
</g>
<!-- Node10 -->
<g id="Node000010" class="node">
<title>Node10</title>
<g id="a_Node000010"><a xlink:title=" ">
<polygon fill="#e0e0e0" stroke="#999999" points="217.98,-19 167.98,-19 167.98,0 217.98,0 217.98,-19"/>
<text text-anchor="middle" x="192.98" y="-7" font-family="Helvetica,sans-Serif" font-size="10.00">cstdint</text>
</a>
</g>
</g>
<!-- Node2&#45;&gt;Node10 -->
<g id="edge9_Node000002_Node000010" class="edge">
<title>Node2&#45;&gt;Node10</title>
<g id="a_edge9_Node000002_Node000010"><a xlink:title=" ">
<path fill="none" stroke="#63b8ff" d="M397.25,-115.9C343.23,-110.95 238.71,-98.44 211.98,-74 199.65,-62.73 195.2,-43.82 193.65,-29.56"/>
<polygon fill="#63b8ff" stroke="#63b8ff" points="197.12,-29.08 192.94,-19.35 190.14,-29.57 197.12,-29.08"/>
</a>
</g>
</g>
<!-- Node11 -->
<g id="Node000011" class="node">
<title>Node11</title>
<g id="a_Node000011"><a xlink:title=" ">
<polygon fill="#e0e0e0" stroke="#999999" points="408.48,-74 351.48,-74 351.48,-55 408.48,-55 408.48,-74"/>
<text text-anchor="middle" x="379.98" y="-62" font-family="Helvetica,sans-Serif" font-size="10.00">ostream</text>
</a>
</g>
</g>
<!-- Node2&#45;&gt;Node11 -->
<g id="edge10_Node000002_Node000011" class="edge">
<title>Node2&#45;&gt;Node11</title>
<g id="a_edge10_Node000002_Node000011"><a xlink:title=" ">
<path fill="none" stroke="#63b8ff" d="M421.72,-109.75C414.52,-102.11 403.87,-90.82 395.14,-81.56"/>
<polygon fill="#63b8ff" stroke="#63b8ff" points="397.49,-78.96 388.08,-74.09 392.4,-83.76 397.49,-78.96"/>
</a>
</g>
</g>
<!-- Node12 -->
<g id="Node000012" class="node">
<title>Node12</title>
<g id="a_Node000012"><a xlink:href="../../db/d7c/utf8_8h.html" target="_top" xlink:title="Various UTF8 related helper functions.">
<polygon fill="white" stroke="#666666" points="266.48,-74 221.48,-74 221.48,-55 266.48,-55 266.48,-74"/>
<text text-anchor="middle" x="243.98" y="-62" font-family="Helvetica,sans-Serif" font-size="10.00">utf8.h</text>
</a>
</g>
</g>
<!-- Node2&#45;&gt;Node12 -->
<g id="edge11_Node000002_Node000012" class="edge">
<title>Node2&#45;&gt;Node12</title>
<g id="a_edge11_Node000002_Node000012"><a xlink:title=" ">
<path fill="none" stroke="#63b8ff" d="M400.1,-109.98C366.26,-100.34 311.33,-84.69 276.46,-74.75"/>
<polygon fill="#63b8ff" stroke="#63b8ff" points="277.33,-71.36 266.76,-71.99 275.41,-78.1 277.33,-71.36"/>
</a>
</g>
</g>
<!-- Node12&#45;&gt;Node3 -->
<g id="edge13_Node000012_Node000003" class="edge">
<title>Node12&#45;&gt;Node3</title>
<g id="a_edge13_Node000012_Node000003"><a xlink:title=" ">
<path fill="none" stroke="#63b8ff" d="M260.53,-54.98C276.88,-46.57 302.12,-33.59 321.11,-23.81"/>
<polygon fill="#63b8ff" stroke="#63b8ff" points="322.84,-26.86 330.13,-19.17 319.64,-20.63 322.84,-26.86"/>
</a>
</g>
</g>
<!-- Node12&#45;&gt;Node10 -->
<g id="edge12_Node000012_Node000010" class="edge">
<title>Node12&#45;&gt;Node10</title>
<g id="a_edge12_Node000012_Node000010"><a xlink:title=" ">
<path fill="none" stroke="#63b8ff" d="M235.56,-54.75C228.21,-47.11 217.35,-35.82 208.44,-26.56"/>
<polygon fill="#63b8ff" stroke="#63b8ff" points="210.7,-23.87 201.25,-19.09 205.66,-28.72 210.7,-23.87"/>
</a>
</g>
</g>
<!-- Node14 -->
<g id="Node000014" class="node">
<title>Node14</title>
<g id="a_Node000014"><a xlink:title=" ">
<polygon fill="#e0e0e0" stroke="#999999" points="1078.98,-129 1020.98,-129 1020.98,-110 1078.98,-110 1078.98,-129"/>
<text text-anchor="middle" x="1049.98" y="-117" font-family="Helvetica,sans-Serif" font-size="10.00">memory</text>
</a>
</g>
</g>
<!-- Node13&#45;&gt;Node14 -->
<g id="edge15_Node000013_Node000014" class="edge">
<title>Node13&#45;&gt;Node14</title>
<g id="a_edge15_Node000013_Node000014"><a xlink:title=" ">
<path fill="none" stroke="#63b8ff" d="M751.98,-225.09C807.51,-218.06 929.54,-201.15 967.98,-184 993.79,-172.49 1018.77,-151.23 1034.24,-136.49"/>
<polygon fill="#63b8ff" stroke="#63b8ff" points="1037.11,-138.58 1041.8,-129.09 1032.21,-133.58 1037.11,-138.58"/>
</a>
</g>
</g>
<!-- Node15 -->
<g id="Node000015" class="node">
<title>Node15</title>
<g id="a_Node000015"><a xlink:title=" ">
<polygon fill="#e0e0e0" stroke="#999999" points="710.48,-129 663.48,-129 663.48,-110 710.48,-110 710.48,-129"/>
<text text-anchor="middle" x="686.98" y="-117" font-family="Helvetica,sans-Serif" font-size="10.00">vector</text>
</a>
</g>
</g>
<!-- Node13&#45;&gt;Node15 -->
<g id="edge16_Node000013_Node000015" class="edge">
<title>Node13&#45;&gt;Node15</title>
<g id="a_edge16_Node000013_Node000015"><a xlink:title=" ">
<path fill="none" stroke="#63b8ff" d="M720.15,-219.73C716.32,-210.82 710.4,-196.58 705.98,-184 700.73,-169.05 695.64,-151.82 692.04,-139.08"/>
<polygon fill="#63b8ff" stroke="#63b8ff" points="695.35,-137.91 689.31,-129.21 688.61,-139.78 695.35,-137.91"/>
</a>
</g>
</g>
<!-- Node16 -->
<g id="Node000016" class="node">
<title>Node16</title>
<g id="a_Node000016"><a xlink:href="../../d9/d49/types_8h.html" target="_top" xlink:title="This file contains a number of basic enums and types.">
<polygon fill="white" stroke="#666666" points="620.48,-184 567.48,-184 567.48,-165 620.48,-165 620.48,-184"/>
<text text-anchor="middle" x="593.98" y="-172" font-family="Helvetica,sans-Serif" font-size="10.00">types.h</text>
</a>
</g>
</g>
<!-- Node13&#45;&gt;Node16 -->
<g id="edge17_Node000013_Node000016" class="edge">
<title>Node13&#45;&gt;Node16</title>
<g id="a_edge17_Node000013_Node000016"><a xlink:title=" ">
<path fill="none" stroke="#63b8ff" d="M703.09,-219.98C681.9,-211.34 648.85,-197.87 624.68,-188.02"/>
<polygon fill="#63b8ff" stroke="#63b8ff" points="625.83,-184.7 615.25,-184.17 623.19,-191.19 625.83,-184.7"/>
</a>
</g>
</g>
<!-- Node17 -->
<g id="Node000017" class="node">
<title>Node17</title>
<g id="a_Node000017"><a xlink:href="../../d7/dfc/construct_8h.html" target="_top" xlink:title=" ">
<polygon fill="white" stroke="#666666" points="786.48,-184 715.48,-184 715.48,-165 786.48,-165 786.48,-184"/>
<text text-anchor="middle" x="750.98" y="-172" font-family="Helvetica,sans-Serif" font-size="10.00">construct.h</text>
</a>
</g>
</g>
<!-- Node13&#45;&gt;Node17 -->
<g id="edge19_Node000013_Node000017" class="edge">
<title>Node13&#45;&gt;Node17</title>
<g id="a_edge19_Node000013_Node000017"><a xlink:title=" ">
<path fill="none" stroke="#63b8ff" d="M728.44,-219.75C732.1,-212.57 737.39,-202.18 741.93,-193.27"/>
<polygon fill="#63b8ff" stroke="#63b8ff" points="745.18,-194.59 746.61,-184.09 738.95,-191.41 745.18,-194.59"/>
</a>
</g>
</g>
<!-- Node16&#45;&gt;Node2 -->
<g id="edge18_Node000016_Node000002" class="edge">
<title>Node16&#45;&gt;Node2</title>
<g id="a_edge18_Node000016_Node000002"><a xlink:title=" ">
<path fill="none" stroke="#63b8ff" d="M567.63,-164.98C540.22,-156.13 497.09,-142.19 466.42,-132.28"/>
<polygon fill="#63b8ff" stroke="#63b8ff" points="467.13,-128.83 456.54,-129.08 464.98,-135.49 467.13,-128.83"/>
</a>
</g>
</g>
<!-- Node18&#45;&gt;Node2 -->
<g id="edge22_Node000018_Node000002" class="edge">
<title>Node18&#45;&gt;Node2</title>
<g id="a_edge22_Node000018_Node000002"><a xlink:title=" ">
<path fill="none" stroke="#63b8ff" d="M353.92,-219.97C368.95,-212.39 389.58,-200.02 402.98,-184 414.02,-170.81 421.17,-152.43 425.32,-138.84"/>
<polygon fill="#63b8ff" stroke="#63b8ff" points="428.71,-139.73 428.02,-129.16 421.96,-137.85 428.71,-139.73"/>
</a>
</g>
</g>
<!-- Node18&#45;&gt;Node15 -->
<g id="edge21_Node000018_Node000015" class="edge">
<title>Node18&#45;&gt;Node15</title>
<g id="a_edge21_Node000018_Node000015"><a xlink:title=" ">
<path fill="none" stroke="#63b8ff" d="M374.25,-220.15C420.25,-210.19 493.53,-193.65 519.98,-184 537.72,-177.53 540.57,-172.32 557.98,-165 589.79,-151.63 627.17,-139.07 653.48,-130.72"/>
<polygon fill="#63b8ff" stroke="#63b8ff" points="654.84,-133.96 663.33,-127.63 652.74,-127.28 654.84,-133.96"/>
</a>
</g>
</g>
<!-- Node19&#45;&gt;Node14 -->
<g id="edge25_Node000019_Node000014" class="edge">
<title>Node19&#45;&gt;Node14</title>
<g id="a_edge25_Node000019_Node000014"><a xlink:title=" ">
<path fill="none" stroke="#63b8ff" d="M552.08,-283.05C611.67,-281.41 765.92,-273.86 888.98,-239 945.43,-223.01 964.63,-222.4 1008.98,-184 1023.51,-171.42 1034.83,-152.45 1041.86,-138.52"/>
<polygon fill="#63b8ff" stroke="#63b8ff" points="1045.05,-139.96 1046.21,-129.43 1038.74,-136.94 1045.05,-139.96"/>
</a>
</g>
</g>
<!-- Node19&#45;&gt;Node15 -->
<g id="edge24_Node000019_Node000015" class="edge">
<title>Node19&#45;&gt;Node15</title>
<g id="a_edge24_Node000019_Node000015"><a xlink:title=" ">
<path fill="none" stroke="#63b8ff" d="M552.11,-277.04C583.41,-268.53 634.45,-253 647.98,-239 674.6,-211.44 683.06,-165.38 685.74,-139.55"/>
<polygon fill="#63b8ff" stroke="#63b8ff" points="689.25,-139.51 686.61,-129.25 682.28,-138.92 689.25,-139.51"/>
</a>
</g>
</g>
<!-- Node19&#45;&gt;Node16 -->
<g id="edge28_Node000019_Node000016" class="edge">
<title>Node19&#45;&gt;Node16</title>
<g id="a_edge28_Node000019_Node000016"><a xlink:title=" ">
<path fill="none" stroke="#63b8ff" d="M532.04,-274.81C539.23,-262.52 552.86,-239.39 564.98,-220 570.66,-210.91 577.16,-200.9 582.57,-192.68"/>
<polygon fill="#63b8ff" stroke="#63b8ff" points="585.51,-194.57 588.1,-184.3 579.67,-190.71 585.51,-194.57"/>
</a>
</g>
</g>
<!-- Node19&#45;&gt;Node18 -->
<g id="edge29_Node000019_Node000018" class="edge">
<title>Node19&#45;&gt;Node18</title>
<g id="a_edge29_Node000019_Node000018"><a xlink:title=" ">
<path fill="none" stroke="#63b8ff" d="M501.88,-276.57C469.78,-267.71 413.79,-252.25 375.59,-241.71"/>
<polygon fill="#63b8ff" stroke="#63b8ff" points="376.37,-238.3 365.8,-239.01 374.51,-245.04 376.37,-238.3"/>
</a>
</g>
</g>
<!-- Node20 -->
<g id="Node000020" class="node">
<title>Node20</title>
<g id="a_Node000020"><a xlink:title=" ">
<polygon fill="#e0e0e0" stroke="#999999" points="510.98,-184 454.98,-184 454.98,-165 510.98,-165 510.98,-184"/>
<text text-anchor="middle" x="482.98" y="-172" font-family="Helvetica,sans-Serif" font-size="10.00">sstream</text>
</a>
</g>
</g>
<!-- Node19&#45;&gt;Node20 -->
<g id="edge26_Node000019_Node000020" class="edge">
<title>Node19&#45;&gt;Node20</title>
<g id="a_edge26_Node000019_Node000020"><a xlink:title=" ">
<path fill="none" stroke="#63b8ff" d="M523.38,-274.66C516.19,-257.01 499.92,-217.09 490.37,-193.64"/>
<polygon fill="#63b8ff" stroke="#63b8ff" points="493.52,-192.1 486.51,-184.16 487.04,-194.74 493.52,-192.1"/>
</a>
</g>
</g>
<!-- Node21 -->
<g id="Node000021" class="node">
<title>Node21</title>
<g id="a_Node000021"><a xlink:title=" ">
<polygon fill="#e0e0e0" stroke="#999999" points="639.48,-239 574.48,-239 574.48,-220 639.48,-220 639.48,-239"/>
<text text-anchor="middle" x="606.98" y="-227" font-family="Helvetica,sans-Serif" font-size="10.00">functional</text>
</a>
</g>
</g>
<!-- Node19&#45;&gt;Node21 -->
<g id="edge27_Node000019_Node000021" class="edge">
<title>Node19&#45;&gt;Node21</title>
<g id="a_edge27_Node000019_Node000021"><a xlink:title=" ">
<path fill="none" stroke="#63b8ff" d="M539.83,-274.98C552.12,-266.84 570.89,-254.41 585.46,-244.76"/>
<polygon fill="#63b8ff" stroke="#63b8ff" points="587.49,-247.61 593.89,-239.17 583.62,-241.78 587.49,-247.61"/>
</a>
</g>
</g>
<!-- Node22 -->
<g id="Node000022" class="node">
<title>Node22</title>
<g id="a_Node000022"><a xlink:href="../../d1/d02/reflist_8h.html" target="_top" xlink:title=" ">
<polygon fill="white" stroke="#666666" points="879.48,-239 826.48,-239 826.48,-220 879.48,-220 879.48,-239"/>
<text text-anchor="middle" x="852.98" y="-227" font-family="Helvetica,sans-Serif" font-size="10.00">reflist.h</text>
</a>
</g>
</g>
<!-- Node19&#45;&gt;Node22 -->
<g id="edge30_Node000019_Node000022" class="edge">
<title>Node19&#45;&gt;Node22</title>
<g id="a_edge30_Node000019_Node000022"><a xlink:title=" ">
<path fill="none" stroke="#63b8ff" d="M552.02,-279.43C609.05,-270.16 748.87,-247.43 815.92,-236.52"/>
<polygon fill="#63b8ff" stroke="#63b8ff" points="816.73,-239.94 826.04,-234.88 815.61,-233.03 816.73,-239.94"/>
</a>
</g>
</g>
<!-- Node25 -->
<g id="Node000025" class="node">
<title>Node25</title>
<g id="a_Node000025"><a xlink:href="../../d4/d7d/textstream_8h.html" target="_top" xlink:title=" ">
<polygon fill="white" stroke="#666666" points="277.98,-239 197.98,-239 197.98,-220 277.98,-220 277.98,-239"/>
<text text-anchor="middle" x="237.98" y="-227" font-family="Helvetica,sans-Serif" font-size="10.00">textstream.h</text>
</a>
</g>
</g>
<!-- Node19&#45;&gt;Node25 -->
<g id="edge44_Node000019_Node000025" class="edge">
<title>Node19&#45;&gt;Node25</title>
<g id="a_edge44_Node000019_Node000025"><a xlink:title=" ">
<path fill="none" stroke="#63b8ff" d="M501.84,-278.89C454.36,-270.18 350.68,-251.17 288.35,-239.74"/>
<polygon fill="#63b8ff" stroke="#63b8ff" points="288.81,-236.26 278.35,-237.9 287.55,-243.15 288.81,-236.26"/>
</a>
</g>
</g>
<!-- Node29 -->
<g id="Node000029" class="node">
<title>Node29</title>
<g id="a_Node000029"><a xlink:title=" ">
<polygon fill="#e0e0e0" stroke="#999999" points="479.48,-239 392.48,-239 392.48,-220 479.48,-220 479.48,-239"/>
<text text-anchor="middle" x="435.98" y="-227" font-family="Helvetica,sans-Serif" font-size="10.00">configvalues.h</text>
</a>
</g>
</g>
<!-- Node19&#45;&gt;Node29 -->
<g id="edge54_Node000019_Node000029" class="edge">
<title>Node19&#45;&gt;Node29</title>
<g id="a_edge54_Node000019_Node000029"><a xlink:title=" ">
<path fill="none" stroke="#63b8ff" d="M512.36,-274.98C498.12,-266.69 476.23,-253.94 459.53,-244.22"/>
<polygon fill="#63b8ff" stroke="#63b8ff" points="461.27,-241.18 450.87,-239.17 457.75,-247.23 461.27,-241.18"/>
</a>
</g>
</g>
<!-- Node22&#45;&gt;Node2 -->
<g id="edge34_Node000022_Node000002" class="edge">
<title>Node22&#45;&gt;Node2</title>
<g id="a_edge34_Node000022_Node000002"><a xlink:title=" ">
<path fill="none" stroke="#63b8ff" d="M847.88,-219.71C839.1,-205.48 819.67,-177.73 794.98,-165 739.68,-136.49 557,-125.6 472.97,-122.02"/>
<polygon fill="#63b8ff" stroke="#63b8ff" points="472.88,-118.52 462.74,-121.6 472.59,-125.51 472.88,-118.52"/>
</a>
</g>
</g>
<!-- Node22&#45;&gt;Node14 -->
<g id="edge33_Node000022_Node000014" class="edge">
<title>Node22&#45;&gt;Node14</title>
<g id="a_edge33_Node000022_Node000014"><a xlink:title=" ">
<path fill="none" stroke="#63b8ff" d="M879.57,-222.94C906.91,-216.44 950.02,-203.95 982.98,-184 1003.87,-171.36 1023.63,-151.27 1036.2,-137.08"/>
<polygon fill="#63b8ff" stroke="#63b8ff" points="1039.18,-138.98 1043.05,-129.12 1033.87,-134.42 1039.18,-138.98"/>
</a>
</g>
</g>
<!-- Node22&#45;&gt;Node15 -->
<g id="edge31_Node000022_Node000015" class="edge">
<title>Node22&#45;&gt;Node15</title>
<g id="a_edge31_Node000022_Node000015"><a xlink:title=" ">
<path fill="none" stroke="#63b8ff" d="M852.1,-219.79C850.25,-206.18 844.75,-179.89 828.98,-165 813.23,-150.13 757.16,-135.64 720.37,-127.42"/>
<polygon fill="#63b8ff" stroke="#63b8ff" points="721.07,-123.99 710.55,-125.27 719.57,-130.83 721.07,-123.99"/>
</a>
</g>
</g>
<!-- Node22&#45;&gt;Node17 -->
<g id="edge43_Node000022_Node000017" class="edge">
<title>Node22&#45;&gt;Node17</title>
<g id="a_edge43_Node000022_Node000017"><a xlink:title=" ">
<path fill="none" stroke="#63b8ff" d="M836.59,-219.98C820.41,-211.57 795.41,-198.59 776.6,-188.81"/>
<polygon fill="#63b8ff" stroke="#63b8ff" points="778.15,-185.68 767.67,-184.17 774.93,-191.89 778.15,-185.68"/>
</a>
</g>
</g>
<!-- Node23 -->
<g id="Node000023" class="node">
<title>Node23</title>
<g id="a_Node000023"><a xlink:title=" ">
<polygon fill="#e0e0e0" stroke="#999999" points="978.48,-129 885.48,-129 885.48,-110 978.48,-110 978.48,-129"/>
<text text-anchor="middle" x="931.98" y="-117" font-family="Helvetica,sans-Serif" font-size="10.00">unordered_map</text>
</a>
</g>
</g>
<!-- Node22&#45;&gt;Node23 -->
<g id="edge32_Node000022_Node000023" class="edge">
<title>Node22&#45;&gt;Node23</title>
<g id="a_edge32_Node000022_Node000023"><a xlink:title=" ">
<path fill="none" stroke="#63b8ff" d="M879.67,-226.54C907.03,-222.95 948.26,-212.78 967.98,-184 978.64,-168.45 964.75,-149.52 951.24,-136.4"/>
<polygon fill="#63b8ff" stroke="#63b8ff" points="953.28,-133.53 943.52,-129.41 948.59,-138.72 953.28,-133.53"/>
</a>
</g>
</g>
<!-- Node24 -->
<g id="Node000024" class="node">
<title>Node24</title>
<g id="a_Node000024"><a xlink:href="../../da/de1/linkedmap_8h.html" target="_top" xlink:title=" ">
<polygon fill="white" stroke="#666666" points="958.48,-184 881.48,-184 881.48,-165 958.48,-165 958.48,-184"/>
<text text-anchor="middle" x="919.98" y="-172" font-family="Helvetica,sans-Serif" font-size="10.00">linkedmap.h</text>
</a>
</g>
</g>
<!-- Node22&#45;&gt;Node24 -->
<g id="edge35_Node000022_Node000024" class="edge">
<title>Node22&#45;&gt;Node24</title>
<g id="a_edge35_Node000022_Node000024"><a xlink:title=" ">
<path fill="none" stroke="#63b8ff" d="M863.75,-219.98C873.75,-212.07 888.87,-200.11 900.91,-190.58"/>
<polygon fill="#63b8ff" stroke="#63b8ff" points="903.35,-193.12 909.02,-184.17 899.01,-187.63 903.35,-193.12"/>
</a>
</g>
</g>
<!-- Node24&#45;&gt;Node2 -->
<g id="edge42_Node000024_Node000002" class="edge">
<title>Node24&#45;&gt;Node2</title>
<g id="a_edge42_Node000024_Node000002"><a xlink:title=" ">
<path fill="none" stroke="#63b8ff" d="M881.12,-169.3C790.69,-159.52 566.69,-135.29 472.64,-125.11"/>
<polygon fill="#63b8ff" stroke="#63b8ff" points="472.94,-121.63 462.62,-124.03 472.19,-128.59 472.94,-121.63"/>
</a>
</g>
</g>
<!-- Node24&#45;&gt;Node3 -->
<g id="edge39_Node000024_Node000003" class="edge">
<title>Node24&#45;&gt;Node3</title>
<g id="a_edge39_Node000024_Node000003"><a xlink:title=" ">
<path fill="none" stroke="#63b8ff" d="M911.18,-164.85C902.32,-156.03 888.38,-141.87 876.98,-129 848.91,-97.3 854.3,-75 816.98,-55 741.06,-14.32 473,-10.44 379.47,-10.36"/>
<polygon fill="#63b8ff" stroke="#63b8ff" points="379.2,-6.86 369.2,-10.36 379.2,-13.86 379.2,-6.86"/>
</a>
</g>
</g>
<!-- Node24&#45;&gt;Node5 -->
<g id="edge40_Node000024_Node000005" class="edge">
<title>Node24&#45;&gt;Node5</title>
<g id="a_edge40_Node000024_Node000005"><a xlink:title=" ">
<path fill="none" stroke="#63b8ff" d="M900.72,-164.86C883.69,-156.78 858.59,-143.78 838.98,-129 820.29,-114.91 801.77,-95.4 789.7,-81.74"/>
<polygon fill="#63b8ff" stroke="#63b8ff" points="792.26,-79.35 783.07,-74.09 786.97,-83.94 792.26,-79.35"/>
</a>
</g>
</g>
<!-- Node24&#45;&gt;Node6 -->
<g id="edge41_Node000024_Node000006" class="edge">
<title>Node24&#45;&gt;Node6</title>
<g id="a_edge41_Node000024_Node000006"><a xlink:title=" ">
<path fill="none" stroke="#63b8ff" d="M899.85,-164.98C878.71,-156.03 844.5,-141.55 814.98,-129 773.59,-111.41 725.77,-91.02 695.7,-78.19"/>
<polygon fill="#63b8ff" stroke="#63b8ff" points="696.79,-74.85 686.22,-74.14 694.04,-81.28 696.79,-74.85"/>
</a>
</g>
</g>
<!-- Node24&#45;&gt;Node14 -->
<g id="edge38_Node000024_Node000014" class="edge">
<title>Node24&#45;&gt;Node14</title>
<g id="a_edge38_Node000024_Node000014"><a xlink:title=" ">
<path fill="none" stroke="#63b8ff" d="M940.87,-164.98C962.06,-156.34 995.11,-142.87 1019.28,-133.02"/>
<polygon fill="#63b8ff" stroke="#63b8ff" points="1020.78,-136.19 1028.71,-129.17 1018.13,-129.7 1020.78,-136.19"/>
</a>
</g>
</g>
<!-- Node24&#45;&gt;Node15 -->
<g id="edge37_Node000024_Node000015" class="edge">
<title>Node24&#45;&gt;Node15</title>
<g id="a_edge37_Node000024_Node000015"><a xlink:title=" ">
<path fill="none" stroke="#63b8ff" d="M882.55,-164.98C837.74,-154.79 763.4,-137.88 720.44,-128.11"/>
<polygon fill="#63b8ff" stroke="#63b8ff" points="721.01,-124.65 710.48,-125.85 719.46,-131.48 721.01,-124.65"/>
</a>
</g>
</g>
<!-- Node24&#45;&gt;Node23 -->
<g id="edge36_Node000024_Node000023" class="edge">
<title>Node24&#45;&gt;Node23</title>
<g id="a_edge36_Node000024_Node000023"><a xlink:title=" ">
<path fill="none" stroke="#63b8ff" d="M921.96,-164.75C923.55,-157.72 925.84,-147.62 927.83,-138.84"/>
<polygon fill="#63b8ff" stroke="#63b8ff" points="931.24,-139.62 930.04,-129.09 924.41,-138.07 931.24,-139.62"/>
</a>
</g>
</g>
<!-- Node25&#45;&gt;Node2 -->
<g id="edge52_Node000025_Node000002" class="edge">
<title>Node25&#45;&gt;Node2</title>
<g id="a_edge52_Node000025_Node000002"><a xlink:title=" ">
<path fill="none" stroke="#63b8ff" d="M277.99,-220.19C305.13,-213.33 341.01,-201.79 368.98,-184 388.64,-171.5 406.5,-151.38 417.75,-137.15"/>
<polygon fill="#63b8ff" stroke="#63b8ff" points="420.56,-139.23 423.85,-129.16 415,-134.98 420.56,-139.23"/>
</a>
</g>
</g>
<!-- Node25&#45;&gt;Node3 -->
<g id="edge45_Node000025_Node000003" class="edge">
<title>Node25&#45;&gt;Node3</title>
<g id="a_edge45_Node000025_Node000003"><a xlink:title=" ">
<path fill="none" stroke="#63b8ff" d="M197.86,-222.05C162.84,-214.16 119.16,-197.62 129.98,-165 149.18,-107.12 162.51,-90.64 211.98,-55 242.83,-32.77 285.45,-21.18 314.49,-15.48"/>
<polygon fill="#63b8ff" stroke="#63b8ff" points="315.33,-18.88 324.53,-13.63 314.07,-12 315.33,-18.88"/>
</a>
</g>
</g>
<!-- Node25&#45;&gt;Node8 -->
<g id="edge49_Node000025_Node000008" class="edge">
<title>Node25&#45;&gt;Node8</title>
<g id="a_edge49_Node000025_Node000008"><a xlink:title=" ">
<path fill="none" stroke="#63b8ff" d="M197.73,-223.52C150.99,-216.91 77.86,-203.72 58.98,-184 33.06,-156.92 31.63,-109.96 33.13,-84.03"/>
<polygon fill="#63b8ff" stroke="#63b8ff" points="36.62,-84.28 33.92,-74.03 29.64,-83.73 36.62,-84.28"/>
</a>
</g>
</g>
<!-- Node25&#45;&gt;Node10 -->
<g id="edge48_Node000025_Node000010" class="edge">
<title>Node25&#45;&gt;Node10</title>
<g id="a_edge48_Node000025_Node000010"><a xlink:title=" ">
<path fill="none" stroke="#63b8ff" d="M197.95,-223.99C147.54,-217.56 64.74,-204.23 41.98,-184 3.21,-149.54 11.78,-125.12 2.98,-74 1.55,-65.68 -2.27,-61.62 2.98,-55 21.94,-31.08 108.34,-18.79 157.85,-13.6"/>
<polygon fill="#63b8ff" stroke="#63b8ff" points="158.21,-17.09 167.81,-12.6 157.51,-10.12 158.21,-17.09"/>
</a>
</g>
</g>
<!-- Node25&#45;&gt;Node17 -->
<g id="edge53_Node000025_Node000017" class="edge">
<title>Node25&#45;&gt;Node17</title>
<g id="a_edge53_Node000025_Node000017"><a xlink:title=" ">
<path fill="none" stroke="#63b8ff" d="M278.05,-221.29C281.07,-220.83 284.07,-220.39 286.98,-220 439.65,-199.47 621.83,-184.87 705.22,-178.73"/>
<polygon fill="#63b8ff" stroke="#63b8ff" points="705.65,-182.21 715.37,-177.99 705.14,-175.22 705.65,-182.21"/>
</a>
</g>
</g>
<!-- Node25&#45;&gt;Node20 -->
<g id="edge47_Node000025_Node000020" class="edge">
<title>Node25&#45;&gt;Node20</title>
<g id="a_edge47_Node000025_Node000020"><a xlink:title=" ">
<path fill="none" stroke="#63b8ff" d="M277.34,-219.98C323.5,-210 399.46,-193.57 445,-183.72"/>
<polygon fill="#63b8ff" stroke="#63b8ff" points="445.75,-187.13 454.79,-181.6 444.27,-180.29 445.75,-187.13"/>
</a>
</g>
</g>
<!-- Node26 -->
<g id="Node000026" class="node">
<title>Node26</title>
<g id="a_Node000026"><a xlink:title=" ">
<polygon fill="#e0e0e0" stroke="#999999" points="286.98,-184 226.98,-184 226.98,-165 286.98,-165 286.98,-184"/>
<text text-anchor="middle" x="256.98" y="-172" font-family="Helvetica,sans-Serif" font-size="10.00">iostream</text>
</a>
</g>
</g>
<!-- Node25&#45;&gt;Node26 -->
<g id="edge46_Node000025_Node000026" class="edge">
<title>Node25&#45;&gt;Node26</title>
<g id="a_edge46_Node000025_Node000026"><a xlink:title=" ">
<path fill="none" stroke="#63b8ff" d="M241.12,-219.75C243.66,-212.65 247.34,-202.4 250.51,-193.56"/>
<polygon fill="#63b8ff" stroke="#63b8ff" points="253.82,-194.68 253.9,-184.09 247.23,-192.32 253.82,-194.68"/>
</a>
</g>
</g>
<!-- Node27 -->
<g id="Node000027" class="node">
<title>Node27</title>
<g id="a_Node000027"><a xlink:title=" ">
<polygon fill="#e0e0e0" stroke="#999999" points="360.48,-184 305.48,-184 305.48,-165 360.48,-165 360.48,-184"/>
<text text-anchor="middle" x="332.98" y="-172" font-family="Helvetica,sans-Serif" font-size="10.00">fstream</text>
</a>
</g>
</g>
<!-- Node25&#45;&gt;Node27 -->
<g id="edge50_Node000025_Node000027" class="edge">
<title>Node25&#45;&gt;Node27</title>
<g id="a_edge50_Node000025_Node000027"><a xlink:title=" ">
<path fill="none" stroke="#63b8ff" d="M253.24,-219.98C268.11,-211.69 290.96,-198.94 308.4,-189.22"/>
<polygon fill="#63b8ff" stroke="#63b8ff" points="310.41,-192.1 317.44,-184.17 307,-185.99 310.41,-192.1"/>
</a>
</g>
</g>
<!-- Node28 -->
<g id="Node000028" class="node">
<title>Node28</title>
<g id="a_Node000028"><a xlink:title=" ">
<polygon fill="#e0e0e0" stroke="#999999" points="208.48,-184 139.48,-184 139.48,-165 208.48,-165 208.48,-184"/>
<text text-anchor="middle" x="173.98" y="-172" font-family="Helvetica,sans-Serif" font-size="10.00">type_traits</text>
</a>
</g>
</g>
<!-- Node25&#45;&gt;Node28 -->
<g id="edge51_Node000025_Node000028" class="edge">
<title>Node25&#45;&gt;Node28</title>
<g id="a_edge51_Node000025_Node000028"><a xlink:title=" ">
<path fill="none" stroke="#63b8ff" d="M227.7,-219.98C218.14,-212.07 203.7,-200.11 192.2,-190.58"/>
<polygon fill="#63b8ff" stroke="#63b8ff" points="194.39,-187.85 184.45,-184.17 189.92,-193.24 194.39,-187.85"/>
</a>
</g>
</g>
</g>
</svg>
