<?xml version="1.0" encoding="UTF-8" standalone="no"?>
<!DOCTYPE svg PUBLIC "-//W3C//DTD SVG 1.1//EN"
 "http://www.w3.org/Graphics/SVG/1.1/DTD/svg11.dtd">
<!-- Generated by graphviz version 2.43.0 (0)
 -->
<!-- Title: DocVisitor Pages: 1 -->
<svg width="221pt" height="286pt"
 viewBox="0.00 0.00 221.00 286.00" xmlns="http://www.w3.org/2000/svg" xmlns:xlink="http://www.w3.org/1999/xlink">
<g id="graph0" class="graph" transform="scale(1 1) rotate(0) translate(4 282)">
<title>DocVisitor</title>
<!-- Node1 -->
<g id="Node000001" class="node">
<title>Node1</title>
<g id="a_Node000001"><a xlink:title="Helper base class for functionality shared by all visitors.">
<polygon fill="#999999" stroke="#666666" points="67,-148 0,-148 0,-129 67,-129 67,-148"/>
<text text-anchor="middle" x="33.5" y="-136" font-family="Helvetica,sans-Serif" font-size="10.00">DocVisitor</text>
</a>
</g>
</g>
<!-- Node2 -->
<g id="Node000002" class="node">
<title>Node2</title>
<g id="a_Node000002"><a xlink:href="../../d7/dc4/class_docbook_doc_visitor.html" target="_top" xlink:title="Concrete visitor implementation for Docbook output.">
<polygon fill="white" stroke="#666666" points="213,-278 103,-278 103,-259 213,-259 213,-278"/>
<text text-anchor="middle" x="158" y="-266" font-family="Helvetica,sans-Serif" font-size="10.00">DocbookDocVisitor</text>
</a>
</g>
</g>
<!-- Node1&#45;&gt;Node2 -->
<g id="edge1_Node000001_Node000002" class="edge">
<title>Node1&#45;&gt;Node2</title>
<g id="a_edge1_Node000001_Node000002"><a xlink:title=" ">
<path fill="none" stroke="#63b8ff" d="M41.36,-157.59C51.23,-182.45 71.78,-225.67 103,-250.5 107.25,-253.88 112.17,-256.64 117.27,-258.89"/>
<polygon fill="#63b8ff" stroke="#63b8ff" points="44.6,-156.27 37.78,-148.16 38.06,-158.75 44.6,-156.27"/>
</a>
</g>
</g>
<!-- Node3 -->
<g id="Node000003" class="node">
<title>Node3</title>
<g id="a_Node000003"><a xlink:href="../../d5/d1b/class_html_doc_visitor.html" target="_top" xlink:title="Concrete visitor implementation for HTML output.">
<polygon fill="white" stroke="#666666" points="203.5,-241 112.5,-241 112.5,-222 203.5,-222 203.5,-241"/>
<text text-anchor="middle" x="158" y="-229" font-family="Helvetica,sans-Serif" font-size="10.00">HtmlDocVisitor</text>
</a>
</g>
</g>
<!-- Node1&#45;&gt;Node3 -->
<g id="edge2_Node000001_Node000003" class="edge">
<title>Node1&#45;&gt;Node3</title>
<g id="a_edge2_Node000001_Node000003"><a xlink:title=" ">
<path fill="none" stroke="#63b8ff" d="M46.91,-156.73C59.3,-173.64 79.79,-198.42 103,-213.5 108.14,-216.84 113.95,-219.62 119.82,-221.91"/>
<polygon fill="#63b8ff" stroke="#63b8ff" points="49.53,-154.38 40.89,-148.25 43.83,-158.43 49.53,-154.38"/>
</a>
</g>
</g>
<!-- Node4 -->
<g id="Node000004" class="node">
<title>Node4</title>
<g id="a_Node000004"><a xlink:href="../../d3/df4/class_latex_doc_visitor.html" target="_top" xlink:title="Concrete visitor implementation for LaTeX output.">
<polygon fill="white" stroke="#666666" points="205,-204 111,-204 111,-185 205,-185 205,-204"/>
<text text-anchor="middle" x="158" y="-192" font-family="Helvetica,sans-Serif" font-size="10.00">LatexDocVisitor</text>
</a>
</g>
</g>
<!-- Node1&#45;&gt;Node4 -->
<g id="edge3_Node000001_Node000004" class="edge">
<title>Node1&#45;&gt;Node4</title>
<g id="a_edge3_Node000001_Node000004"><a xlink:title=" ">
<path fill="none" stroke="#63b8ff" d="M58.57,-153.29C71.46,-160.83 87.77,-169.81 103,-176.5 110.06,-179.6 117.83,-182.48 125.22,-184.99"/>
<polygon fill="#63b8ff" stroke="#63b8ff" points="60.24,-150.21 49.86,-148.1 56.66,-156.22 60.24,-150.21"/>
</a>
</g>
</g>
<!-- Node5 -->
<g id="Node000005" class="node">
<title>Node5</title>
<g id="a_Node000005"><a xlink:href="../../d8/dcf/class_man_doc_visitor.html" target="_top" xlink:title="Concrete visitor implementation for LaTeX output.">
<polygon fill="white" stroke="#666666" points="202,-167 114,-167 114,-148 202,-148 202,-167"/>
<text text-anchor="middle" x="158" y="-155" font-family="Helvetica,sans-Serif" font-size="10.00">ManDocVisitor</text>
</a>
</g>
</g>
<!-- Node1&#45;&gt;Node5 -->
<g id="edge4_Node000001_Node000005" class="edge">
<title>Node1&#45;&gt;Node5</title>
<g id="a_edge4_Node000001_Node000005"><a xlink:title=" ">
<path fill="none" stroke="#63b8ff" d="M77.1,-145.11C88.96,-146.95 101.83,-148.94 113.72,-150.79"/>
<polygon fill="#63b8ff" stroke="#63b8ff" points="77.42,-141.62 67.01,-143.54 76.35,-148.53 77.42,-141.62"/>
</a>
</g>
</g>
<!-- Node6 -->
<g id="Node000006" class="node">
<title>Node6</title>
<g id="a_Node000006"><a xlink:href="../../dc/d27/class_perl_mod_doc_visitor.html" target="_top" xlink:title="Concrete visitor implementation for PerlMod output.">
<polygon fill="white" stroke="#666666" points="211.5,-130 104.5,-130 104.5,-111 211.5,-111 211.5,-130"/>
<text text-anchor="middle" x="158" y="-118" font-family="Helvetica,sans-Serif" font-size="10.00">PerlModDocVisitor</text>
</a>
</g>
</g>
<!-- Node1&#45;&gt;Node6 -->
<g id="edge5_Node000001_Node000006" class="edge">
<title>Node1&#45;&gt;Node6</title>
<g id="a_edge5_Node000001_Node000006"><a xlink:title=" ">
<path fill="none" stroke="#63b8ff" d="M77.06,-132.25C85.89,-130.95 95.29,-129.57 104.43,-128.22"/>
<polygon fill="#63b8ff" stroke="#63b8ff" points="76.39,-128.81 67.01,-133.72 77.41,-135.73 76.39,-128.81"/>
</a>
</g>
</g>
<!-- Node7 -->
<g id="Node000007" class="node">
<title>Node7</title>
<g id="a_Node000007"><a xlink:href="../../d1/d4b/class_r_t_f_doc_visitor.html" target="_top" xlink:title="Concrete visitor implementation for RTF output.">
<polygon fill="white" stroke="#666666" points="200.5,-93 115.5,-93 115.5,-74 200.5,-74 200.5,-93"/>
<text text-anchor="middle" x="158" y="-81" font-family="Helvetica,sans-Serif" font-size="10.00">RTFDocVisitor</text>
</a>
</g>
</g>
<!-- Node1&#45;&gt;Node7 -->
<g id="edge6_Node000001_Node000007" class="edge">
<title>Node1&#45;&gt;Node7</title>
<g id="a_edge6_Node000001_Node000007"><a xlink:title=" ">
<path fill="none" stroke="#63b8ff" d="M60.11,-123.91C72.8,-116.97 88.48,-108.83 103,-102.5 110.74,-99.12 119.3,-95.9 127.27,-93.09"/>
<polygon fill="#63b8ff" stroke="#63b8ff" points="58.1,-121.02 51.06,-128.93 61.5,-127.14 58.1,-121.02"/>
</a>
</g>
</g>
<!-- Node8 -->
<g id="Node000008" class="node">
<title>Node8</title>
<g id="a_Node000008"><a xlink:href="../../d2/d63/class_text_doc_visitor.html" target="_top" xlink:title="Concrete visitor implementation for TEXT output.">
<polygon fill="white" stroke="#666666" points="201.5,-56 114.5,-56 114.5,-37 201.5,-37 201.5,-56"/>
<text text-anchor="middle" x="158" y="-44" font-family="Helvetica,sans-Serif" font-size="10.00">TextDocVisitor</text>
</a>
</g>
</g>
<!-- Node1&#45;&gt;Node8 -->
<g id="edge7_Node000001_Node000008" class="edge">
<title>Node1&#45;&gt;Node8</title>
<g id="a_edge7_Node000001_Node000008"><a xlink:title=" ">
<path fill="none" stroke="#63b8ff" d="M47.48,-120.33C60.02,-103.95 80.4,-80.24 103,-65.5 108.74,-61.75 115.32,-58.65 121.85,-56.11"/>
<polygon fill="#63b8ff" stroke="#63b8ff" points="44.51,-118.46 41.35,-128.57 50.12,-122.63 44.51,-118.46"/>
</a>
</g>
</g>
<!-- Node9 -->
<g id="Node000009" class="node">
<title>Node9</title>
<g id="a_Node000009"><a xlink:href="../../d4/dc8/class_xml_doc_visitor.html" target="_top" xlink:title="Concrete visitor implementation for XML output.">
<polygon fill="white" stroke="#666666" points="201,-19 115,-19 115,0 201,0 201,-19"/>
<text text-anchor="middle" x="158" y="-7" font-family="Helvetica,sans-Serif" font-size="10.00">XmlDocVisitor</text>
</a>
</g>
</g>
<!-- Node1&#45;&gt;Node9 -->
<g id="edge8_Node000001_Node000009" class="edge">
<title>Node1&#45;&gt;Node9</title>
<g id="a_edge8_Node000001_Node000009"><a xlink:title=" ">
<path fill="none" stroke="#63b8ff" d="M41.8,-119.14C51.95,-94.69 72.58,-52.9 103,-28.5 107.81,-24.64 113.45,-21.54 119.25,-19.05"/>
<polygon fill="#63b8ff" stroke="#63b8ff" points="38.42,-118.15 37.98,-128.73 44.93,-120.74 38.42,-118.15"/>
</a>
</g>
</g>
</g>
</svg>
