<?xml version="1.0" encoding="UTF-8" standalone="no"?>
<!DOCTYPE svg PUBLIC "-//W3C//DTD SVG 1.1//EN"
 "http://www.w3.org/Graphics/SVG/1.1/DTD/svg11.dtd">
<!-- Generated by graphviz version 2.43.0 (0)
 -->
<!-- Title: TextGeneratorIntf Pages: 1 -->
<svg width="434pt" height="82pt"
 viewBox="0.00 0.00 434.00 82.00" xmlns="http://www.w3.org/2000/svg" xmlns:xlink="http://www.w3.org/1999/xlink">
<g id="graph0" class="graph" transform="scale(1 1) rotate(0) translate(4 78)">
<title>TextGeneratorIntf</title>
<!-- Node1 -->
<g id="Node000001" class="node">
<title>Node1</title>
<g id="a_Node000001"><a xlink:title="Abstract interface for a hyperlinked text fragment.">
<polygon fill="#999999" stroke="#666666" points="260,-74 158,-74 158,-55 260,-55 260,-74"/>
<text text-anchor="middle" x="209" y="-62" font-family="Helvetica,sans-Serif" font-size="10.00">TextGeneratorIntf</text>
</a>
</g>
</g>
<!-- Node2 -->
<g id="Node000002" class="node">
<title>Node2</title>
<g id="a_Node000002"><a xlink:href="../../db/d2b/class_text_generator_o_l_impl.html" target="_top" xlink:title="Implements TextGeneratorIntf for an OutputDocInterface stream.">
<polygon fill="white" stroke="#666666" points="120,-19 0,-19 0,0 120,0 120,-19"/>
<text text-anchor="middle" x="60" y="-7" font-family="Helvetica,sans-Serif" font-size="10.00">TextGeneratorOLImpl</text>
</a>
</g>
</g>
<!-- Node1&#45;&gt;Node2 -->
<g id="edge1_Node000001_Node000002" class="edge">
<title>Node1&#45;&gt;Node2</title>
<g id="a_edge1_Node000001_Node000002"><a xlink:title=" ">
<path fill="none" stroke="#63b8ff" d="M175.41,-51.55C147.74,-41.71 109.16,-27.98 84.38,-19.17"/>
<polygon fill="#63b8ff" stroke="#63b8ff" points="174.47,-54.93 185.06,-54.98 176.81,-48.34 174.47,-54.93"/>
</a>
</g>
</g>
<!-- Node3 -->
<g id="Node000003" class="node">
<title>Node3</title>
<g id="a_Node000003"><a xlink:href="../../da/d6e/class_text_generator_sqlite3_impl.html" target="_top" xlink:title=" ">
<polygon fill="white" stroke="#666666" points="279.5,-19 138.5,-19 138.5,0 279.5,0 279.5,-19"/>
<text text-anchor="middle" x="209" y="-7" font-family="Helvetica,sans-Serif" font-size="10.00">TextGeneratorSqlite3Impl</text>
</a>
</g>
</g>
<!-- Node1&#45;&gt;Node3 -->
<g id="edge2_Node000001_Node000003" class="edge">
<title>Node1&#45;&gt;Node3</title>
<g id="a_edge2_Node000001_Node000003"><a xlink:title=" ">
<path fill="none" stroke="#63b8ff" d="M209,-44.66C209,-35.93 209,-25.99 209,-19.09"/>
<polygon fill="#63b8ff" stroke="#63b8ff" points="205.5,-44.75 209,-54.75 212.5,-44.75 205.5,-44.75"/>
</a>
</g>
</g>
<!-- Node4 -->
<g id="Node000004" class="node">
<title>Node4</title>
<g id="a_Node000004"><a xlink:href="../../db/d9f/class_text_generator_x_m_l_impl.html" target="_top" xlink:title="Implements TextGeneratorIntf for an XML stream.">
<polygon fill="white" stroke="#666666" points="426,-19 298,-19 298,0 426,0 426,-19"/>
<text text-anchor="middle" x="362" y="-7" font-family="Helvetica,sans-Serif" font-size="10.00">TextGeneratorXMLImpl</text>
</a>
</g>
</g>
<!-- Node1&#45;&gt;Node4 -->
<g id="edge3_Node000001_Node000004" class="edge">
<title>Node1&#45;&gt;Node4</title>
<g id="a_edge3_Node000001_Node000004"><a xlink:title=" ">
<path fill="none" stroke="#63b8ff" d="M243.15,-51.67C271.68,-41.79 311.69,-27.93 337.23,-19.08"/>
<polygon fill="#63b8ff" stroke="#63b8ff" points="241.89,-48.4 233.58,-54.98 244.18,-55.02 241.89,-48.4"/>
</a>
</g>
</g>
</g>
</svg>
