<?xml version="1.0" encoding="UTF-8" standalone="no"?>
<!DOCTYPE svg PUBLIC "-//W3C//DTD SVG 1.1//EN"
 "http://www.w3.org/Graphics/SVG/1.1/DTD/svg11.dtd">
<!-- Generated by graphviz version 2.43.0 (0)
 -->
<!-- Title: TranslatorSerbian Pages: 1 -->
<svg width="192pt" height="821pt"
 viewBox="0.00 0.00 191.50 821.00" xmlns="http://www.w3.org/2000/svg" xmlns:xlink="http://www.w3.org/1999/xlink">
<g id="graph0" class="graph" transform="scale(1 1) rotate(0) translate(4 817)">
<title>TranslatorSerbian</title>
<!-- Node1 -->
<g id="Node000001" class="node">
<title>Node1</title>
<g id="a_Node000001"><a xlink:title=" ">
<polygon fill="#999999" stroke="#666666" points="122,-19 21,-19 21,0 122,0 122,-19"/>
<text text-anchor="middle" x="71.5" y="-7" font-family="Helvetica,sans-Serif" font-size="10.00">TranslatorSerbian</text>
</a>
</g>
</g>
<!-- Node2 -->
<g id="Node000002" class="node">
<title>Node2</title>
<g id="a_Node000002"><a xlink:href="../../d3/da1/class_translator_adapter__1__6__0.html" target="_top" xlink:title="Adapter class for languages that only contain translations up to version 1.6.0.">
<polygon fill="white" stroke="#666666" points="140,-75 3,-75 3,-56 140,-56 140,-75"/>
<text text-anchor="middle" x="71.5" y="-63" font-family="Helvetica,sans-Serif" font-size="10.00">TranslatorAdapter_1_6_0</text>
</a>
</g>
</g>
<!-- Node2&#45;&gt;Node1 -->
<g id="edge1_Node000001_Node000002" class="edge">
<title>Node2&#45;&gt;Node1</title>
<g id="a_edge1_Node000001_Node000002"><a xlink:title=" ">
<path fill="none" stroke="#63b8ff" d="M71.5,-45.3C71.5,-36.41 71.5,-26.28 71.5,-19.25"/>
<polygon fill="#63b8ff" stroke="#63b8ff" points="68,-45.58 71.5,-55.58 75,-45.58 68,-45.58"/>
</a>
</g>
</g>
<!-- Node3 -->
<g id="Node000003" class="node">
<title>Node3</title>
<g id="a_Node000003"><a xlink:href="../../da/d24/class_translator_adapter__1__7__5.html" target="_top" xlink:title="Adapter class for languages that only contain translations up to version 1.7.5.">
<polygon fill="white" stroke="#666666" points="140,-131 3,-131 3,-112 140,-112 140,-131"/>
<text text-anchor="middle" x="71.5" y="-119" font-family="Helvetica,sans-Serif" font-size="10.00">TranslatorAdapter_1_7_5</text>
</a>
</g>
</g>
<!-- Node3&#45;&gt;Node2 -->
<g id="edge2_Node000002_Node000003" class="edge">
<title>Node3&#45;&gt;Node2</title>
<g id="a_edge2_Node000002_Node000003"><a xlink:title=" ">
<path fill="none" stroke="#63b8ff" d="M71.5,-101.3C71.5,-92.41 71.5,-82.28 71.5,-75.25"/>
<polygon fill="#63b8ff" stroke="#63b8ff" points="68,-101.58 71.5,-111.58 75,-101.58 68,-101.58"/>
</a>
</g>
</g>
<!-- Node4 -->
<g id="Node000004" class="node">
<title>Node4</title>
<g id="a_Node000004"><a xlink:href="../../de/d49/class_translator_adapter__1__8__0.html" target="_top" xlink:title="Adapter class for languages that only contain translations up to version 1.8.0.">
<polygon fill="white" stroke="#666666" points="140,-187 3,-187 3,-168 140,-168 140,-187"/>
<text text-anchor="middle" x="71.5" y="-175" font-family="Helvetica,sans-Serif" font-size="10.00">TranslatorAdapter_1_8_0</text>
</a>
</g>
</g>
<!-- Node4&#45;&gt;Node3 -->
<g id="edge3_Node000003_Node000004" class="edge">
<title>Node4&#45;&gt;Node3</title>
<g id="a_edge3_Node000003_Node000004"><a xlink:title=" ">
<path fill="none" stroke="#63b8ff" d="M71.5,-157.3C71.5,-148.41 71.5,-138.28 71.5,-131.25"/>
<polygon fill="#63b8ff" stroke="#63b8ff" points="68,-157.58 71.5,-167.58 75,-157.58 68,-157.58"/>
</a>
</g>
</g>
<!-- Node5 -->
<g id="Node000005" class="node">
<title>Node5</title>
<g id="a_Node000005"><a xlink:href="../../d2/d75/class_translator_adapter__1__8__2.html" target="_top" xlink:title=" ">
<polygon fill="white" stroke="#666666" points="140,-243 3,-243 3,-224 140,-224 140,-243"/>
<text text-anchor="middle" x="71.5" y="-231" font-family="Helvetica,sans-Serif" font-size="10.00">TranslatorAdapter_1_8_2</text>
</a>
</g>
</g>
<!-- Node5&#45;&gt;Node4 -->
<g id="edge4_Node000004_Node000005" class="edge">
<title>Node5&#45;&gt;Node4</title>
<g id="a_edge4_Node000004_Node000005"><a xlink:title=" ">
<path fill="none" stroke="#63b8ff" d="M71.5,-213.3C71.5,-204.41 71.5,-194.28 71.5,-187.25"/>
<polygon fill="#63b8ff" stroke="#63b8ff" points="68,-213.58 71.5,-223.58 75,-213.58 68,-213.58"/>
</a>
</g>
</g>
<!-- Node6 -->
<g id="Node000006" class="node">
<title>Node6</title>
<g id="a_Node000006"><a xlink:href="../../de/d2f/class_translator_adapter__1__8__4.html" target="_top" xlink:title=" ">
<polygon fill="white" stroke="#666666" points="140,-299 3,-299 3,-280 140,-280 140,-299"/>
<text text-anchor="middle" x="71.5" y="-287" font-family="Helvetica,sans-Serif" font-size="10.00">TranslatorAdapter_1_8_4</text>
</a>
</g>
</g>
<!-- Node6&#45;&gt;Node5 -->
<g id="edge5_Node000005_Node000006" class="edge">
<title>Node6&#45;&gt;Node5</title>
<g id="a_edge5_Node000005_Node000006"><a xlink:title=" ">
<path fill="none" stroke="#63b8ff" d="M71.5,-269.3C71.5,-260.41 71.5,-250.28 71.5,-243.25"/>
<polygon fill="#63b8ff" stroke="#63b8ff" points="68,-269.58 71.5,-279.58 75,-269.58 68,-269.58"/>
</a>
</g>
</g>
<!-- Node7 -->
<g id="Node000007" class="node">
<title>Node7</title>
<g id="a_Node000007"><a xlink:href="../../d4/d2e/class_translator_adapter__1__8__15.html" target="_top" xlink:title=" ">
<polygon fill="white" stroke="#666666" points="143,-355 0,-355 0,-336 143,-336 143,-355"/>
<text text-anchor="middle" x="71.5" y="-343" font-family="Helvetica,sans-Serif" font-size="10.00">TranslatorAdapter_1_8_15</text>
</a>
</g>
</g>
<!-- Node7&#45;&gt;Node6 -->
<g id="edge6_Node000006_Node000007" class="edge">
<title>Node7&#45;&gt;Node6</title>
<g id="a_edge6_Node000006_Node000007"><a xlink:title=" ">
<path fill="none" stroke="#63b8ff" d="M71.5,-325.3C71.5,-316.41 71.5,-306.28 71.5,-299.25"/>
<polygon fill="#63b8ff" stroke="#63b8ff" points="68,-325.58 71.5,-335.58 75,-325.58 68,-325.58"/>
</a>
</g>
</g>
<!-- Node8 -->
<g id="Node000008" class="node">
<title>Node8</title>
<g id="a_Node000008"><a xlink:href="../../de/dde/class_translator_adapter__1__8__19.html" target="_top" xlink:title=" ">
<polygon fill="white" stroke="#666666" points="143,-411 0,-411 0,-392 143,-392 143,-411"/>
<text text-anchor="middle" x="71.5" y="-399" font-family="Helvetica,sans-Serif" font-size="10.00">TranslatorAdapter_1_8_19</text>
</a>
</g>
</g>
<!-- Node8&#45;&gt;Node7 -->
<g id="edge7_Node000007_Node000008" class="edge">
<title>Node8&#45;&gt;Node7</title>
<g id="a_edge7_Node000007_Node000008"><a xlink:title=" ">
<path fill="none" stroke="#63b8ff" d="M71.5,-381.3C71.5,-372.41 71.5,-362.28 71.5,-355.25"/>
<polygon fill="#63b8ff" stroke="#63b8ff" points="68,-381.58 71.5,-391.58 75,-381.58 68,-381.58"/>
</a>
</g>
</g>
<!-- Node9 -->
<g id="Node000009" class="node">
<title>Node9</title>
<g id="a_Node000009"><a xlink:href="../../d3/d2e/class_translator_adapter__1__9__2.html" target="_top" xlink:title=" ">
<polygon fill="white" stroke="#666666" points="140,-467 3,-467 3,-448 140,-448 140,-467"/>
<text text-anchor="middle" x="71.5" y="-455" font-family="Helvetica,sans-Serif" font-size="10.00">TranslatorAdapter_1_9_2</text>
</a>
</g>
</g>
<!-- Node9&#45;&gt;Node8 -->
<g id="edge8_Node000008_Node000009" class="edge">
<title>Node9&#45;&gt;Node8</title>
<g id="a_edge8_Node000008_Node000009"><a xlink:title=" ">
<path fill="none" stroke="#63b8ff" d="M71.5,-437.3C71.5,-428.41 71.5,-418.28 71.5,-411.25"/>
<polygon fill="#63b8ff" stroke="#63b8ff" points="68,-437.58 71.5,-447.58 75,-437.58 68,-437.58"/>
</a>
</g>
</g>
<!-- Node10 -->
<g id="Node000010" class="node">
<title>Node10</title>
<g id="a_Node000010"><a xlink:href="../../d0/d33/class_translator_adapter__1__9__4.html" target="_top" xlink:title=" ">
<polygon fill="white" stroke="#666666" points="140,-523 3,-523 3,-504 140,-504 140,-523"/>
<text text-anchor="middle" x="71.5" y="-511" font-family="Helvetica,sans-Serif" font-size="10.00">TranslatorAdapter_1_9_4</text>
</a>
</g>
</g>
<!-- Node10&#45;&gt;Node9 -->
<g id="edge9_Node000009_Node000010" class="edge">
<title>Node10&#45;&gt;Node9</title>
<g id="a_edge9_Node000009_Node000010"><a xlink:title=" ">
<path fill="none" stroke="#63b8ff" d="M71.5,-493.3C71.5,-484.41 71.5,-474.28 71.5,-467.25"/>
<polygon fill="#63b8ff" stroke="#63b8ff" points="68,-493.58 71.5,-503.58 75,-493.58 68,-493.58"/>
</a>
</g>
</g>
<!-- Node11 -->
<g id="Node000011" class="node">
<title>Node11</title>
<g id="a_Node000011"><a xlink:href="../../dd/dba/class_translator_adapter__1__9__5.html" target="_top" xlink:title=" ">
<polygon fill="white" stroke="#666666" points="140,-579 3,-579 3,-560 140,-560 140,-579"/>
<text text-anchor="middle" x="71.5" y="-567" font-family="Helvetica,sans-Serif" font-size="10.00">TranslatorAdapter_1_9_5</text>
</a>
</g>
</g>
<!-- Node11&#45;&gt;Node10 -->
<g id="edge10_Node000010_Node000011" class="edge">
<title>Node11&#45;&gt;Node10</title>
<g id="a_edge10_Node000010_Node000011"><a xlink:title=" ">
<path fill="none" stroke="#63b8ff" d="M71.5,-549.3C71.5,-540.41 71.5,-530.28 71.5,-523.25"/>
<polygon fill="#63b8ff" stroke="#63b8ff" points="68,-549.58 71.5,-559.58 75,-549.58 68,-549.58"/>
</a>
</g>
</g>
<!-- Node12 -->
<g id="Node000012" class="node">
<title>Node12</title>
<g id="a_Node000012"><a xlink:href="../../db/d71/class_translator_adapter__1__9__6.html" target="_top" xlink:title=" ">
<polygon fill="white" stroke="#666666" points="140,-635 3,-635 3,-616 140,-616 140,-635"/>
<text text-anchor="middle" x="71.5" y="-623" font-family="Helvetica,sans-Serif" font-size="10.00">TranslatorAdapter_1_9_6</text>
</a>
</g>
</g>
<!-- Node12&#45;&gt;Node11 -->
<g id="edge11_Node000011_Node000012" class="edge">
<title>Node12&#45;&gt;Node11</title>
<g id="a_edge11_Node000011_Node000012"><a xlink:title=" ">
<path fill="none" stroke="#63b8ff" d="M71.5,-605.3C71.5,-596.41 71.5,-586.28 71.5,-579.25"/>
<polygon fill="#63b8ff" stroke="#63b8ff" points="68,-605.58 71.5,-615.58 75,-605.58 68,-605.58"/>
</a>
</g>
</g>
<!-- Node13 -->
<g id="Node000013" class="node">
<title>Node13</title>
<g id="a_Node000013"><a xlink:href="../../db/d6c/class_translator_adapter_base.html" target="_top" xlink:title="Base of the translator adapter tree.">
<polygon fill="white" stroke="#666666" points="135,-691 8,-691 8,-672 135,-672 135,-691"/>
<text text-anchor="middle" x="71.5" y="-679" font-family="Helvetica,sans-Serif" font-size="10.00">TranslatorAdapterBase</text>
</a>
</g>
</g>
<!-- Node13&#45;&gt;Node12 -->
<g id="edge12_Node000012_Node000013" class="edge">
<title>Node13&#45;&gt;Node12</title>
<g id="a_edge12_Node000012_Node000013"><a xlink:title=" ">
<path fill="none" stroke="#63b8ff" d="M71.5,-661.3C71.5,-652.41 71.5,-642.28 71.5,-635.25"/>
<polygon fill="#63b8ff" stroke="#63b8ff" points="68,-661.58 71.5,-671.58 75,-661.58 68,-661.58"/>
</a>
</g>
</g>
<!-- Node14 -->
<g id="Node000014" class="node">
<title>Node14</title>
<g id="a_Node000014"><a xlink:href="../../d8/dfb/class_translator.html" target="_top" xlink:title="Abstract base class for all translatable text fragments.">
<polygon fill="white" stroke="#666666" points="100,-813 35,-813 35,-794 100,-794 100,-813"/>
<text text-anchor="middle" x="67.5" y="-801" font-family="Helvetica,sans-Serif" font-size="10.00">Translator</text>
</a>
</g>
</g>
<!-- Node14&#45;&gt;Node13 -->
<g id="edge13_Node000013_Node000014" class="edge">
<title>Node14&#45;&gt;Node13</title>
<g id="a_edge13_Node000013_Node000014"><a xlink:title=" ">
<path fill="none" stroke="#63b8ff" d="M68.13,-783.65C69.01,-757.22 70.57,-710.26 71.21,-691.05"/>
<polygon fill="#63b8ff" stroke="#63b8ff" points="64.62,-783.76 67.79,-793.87 71.62,-783.99 64.62,-783.76"/>
</a>
</g>
</g>
<!-- Node15 -->
<g id="Node000015" class="node">
<title>Node15</title>
<g id="a_Node000015"><a xlink:href="../../d6/d78/class_translator_english.html" target="_top" xlink:title=" ">
<polygon fill="white" stroke="#666666" points="183.5,-757 83.5,-757 83.5,-738 183.5,-738 183.5,-757"/>
<text text-anchor="middle" x="133.5" y="-745" font-family="Helvetica,sans-Serif" font-size="10.00">TranslatorEnglish</text>
</a>
</g>
</g>
<!-- Node14&#45;&gt;Node15 -->
<g id="edge15_Node000015_Node000014" class="edge">
<title>Node14&#45;&gt;Node15</title>
<g id="a_edge15_Node000015_Node000014"><a xlink:title=" ">
<path fill="none" stroke="#63b8ff" d="M86.05,-787.32C97.88,-777.65 112.79,-765.45 122.7,-757.33"/>
<polygon fill="#63b8ff" stroke="#63b8ff" points="83.63,-784.78 78.1,-793.82 88.06,-790.2 83.63,-784.78"/>
</a>
</g>
</g>
<!-- Node15&#45;&gt;Node13 -->
<g id="edge14_Node000013_Node000015" class="edge">
<title>Node15&#45;&gt;Node13</title>
<g id="a_edge14_Node000013_Node000015"><a xlink:title=" ">
<path fill="none" stroke="#9a32cd" stroke-dasharray="5,2" d="M117.98,-730.48C106.01,-718.12 89.9,-701.49 80.13,-691.41"/>
<polygon fill="#9a32cd" stroke="#9a32cd" points="115.67,-733.12 125.14,-737.87 120.69,-728.25 115.67,-733.12"/>
</a>
</g>
<text text-anchor="middle" x="125" y="-712" font-family="Helvetica,sans-Serif" font-size="10.00" fill="grey"> english</text>
</g>
</g>
</svg>
