<?xml version="1.0" encoding="UTF-8" standalone="no"?>
<!DOCTYPE svg PUBLIC "-//W3C//DTD SVG 1.1//EN"
 "http://www.w3.org/Graphics/SVG/1.1/DTD/svg11.dtd">
<!-- Generated by graphviz version 2.43.0 (0)
 -->
<!-- Title: /home/runner/work/doxygen/doxygen/src/example.h Pages: 1 -->
<svg width="682pt" height="104pt"
 viewBox="0.00 0.00 682.00 104.00" xmlns="http://www.w3.org/2000/svg" xmlns:xlink="http://www.w3.org/1999/xlink">
<g id="graph0" class="graph" transform="scale(1 1) rotate(0) translate(4 100)">
<title>/home/runner/work/doxygen/doxygen/src/example.h</title>
<!-- Node1 -->
<g id="Node000001" class="node">
<title>Node1</title>
<g id="a_Node000001"><a xlink:title=" ">
<polygon fill="#999999" stroke="#666666" points="413,-96 259,-96 259,-66 413,-66 413,-96"/>
<text text-anchor="start" x="267" y="-84" font-family="Helvetica,sans-Serif" font-size="10.00">/home/runner/work/doxygen</text>
<text text-anchor="middle" x="336" y="-73" font-family="Helvetica,sans-Serif" font-size="10.00">/doxygen/src/example.h</text>
</a>
</g>
</g>
<!-- Node2 -->
<g id="Node000002" class="node">
<title>Node2</title>
<g id="a_Node000002"><a xlink:href="../../de/d89/classdef_8cpp.html" target="_top" xlink:title=" ">
<polygon fill="white" stroke="#666666" points="154,-30 0,-30 0,0 154,0 154,-30"/>
<text text-anchor="start" x="8" y="-18" font-family="Helvetica,sans-Serif" font-size="10.00">/home/runner/work/doxygen</text>
<text text-anchor="middle" x="77" y="-7" font-family="Helvetica,sans-Serif" font-size="10.00">/doxygen/src/classdef.cpp</text>
</a>
</g>
</g>
<!-- Node1&#45;&gt;Node2 -->
<g id="edge1_Node000001_Node000002" class="edge">
<title>Node1&#45;&gt;Node2</title>
<g id="a_edge1_Node000001_Node000002"><a xlink:title=" ">
<path fill="none" stroke="#63b8ff" d="M269.3,-63.52C227.29,-53.14 173.65,-39.88 133.71,-30.01"/>
<polygon fill="#63b8ff" stroke="#63b8ff" points="268.61,-66.95 279.16,-65.95 270.29,-60.16 268.61,-66.95"/>
</a>
</g>
</g>
<!-- Node3 -->
<g id="Node000003" class="node">
<title>Node3</title>
<g id="a_Node000003"><a xlink:href="../../db/d12/context_8cpp.html" target="_top" xlink:title=" ">
<polygon fill="white" stroke="#666666" points="326,-30 172,-30 172,0 326,0 326,-30"/>
<text text-anchor="start" x="180" y="-18" font-family="Helvetica,sans-Serif" font-size="10.00">/home/runner/work/doxygen</text>
<text text-anchor="middle" x="249" y="-7" font-family="Helvetica,sans-Serif" font-size="10.00">/doxygen/src/context.cpp</text>
</a>
</g>
</g>
<!-- Node1&#45;&gt;Node3 -->
<g id="edge2_Node000001_Node000003" class="edge">
<title>Node1&#45;&gt;Node3</title>
<g id="a_edge2_Node000001_Node000003"><a xlink:title=" ">
<path fill="none" stroke="#63b8ff" d="M308.48,-59.75C295.39,-50.13 280.07,-38.86 268.25,-30.16"/>
<polygon fill="#63b8ff" stroke="#63b8ff" points="306.56,-62.69 316.69,-65.8 310.71,-57.05 306.56,-62.69"/>
</a>
</g>
</g>
<!-- Node4 -->
<g id="Node000004" class="node">
<title>Node4</title>
<g id="a_Node000004"><a xlink:href="../../d0/d72/memberdef_8cpp.html" target="_top" xlink:title=" ">
<polygon fill="white" stroke="#666666" points="502,-30 344,-30 344,0 502,0 502,-30"/>
<text text-anchor="start" x="352" y="-18" font-family="Helvetica,sans-Serif" font-size="10.00">/home/runner/work/doxygen</text>
<text text-anchor="middle" x="423" y="-7" font-family="Helvetica,sans-Serif" font-size="10.00">/doxygen/src/memberdef.cpp</text>
</a>
</g>
</g>
<!-- Node1&#45;&gt;Node4 -->
<g id="edge3_Node000001_Node000004" class="edge">
<title>Node1&#45;&gt;Node4</title>
<g id="a_edge3_Node000001_Node000004"><a xlink:title=" ">
<path fill="none" stroke="#63b8ff" d="M363.52,-59.75C376.61,-50.13 391.93,-38.86 403.75,-30.16"/>
<polygon fill="#63b8ff" stroke="#63b8ff" points="361.29,-57.05 355.31,-65.8 365.44,-62.69 361.29,-57.05"/>
</a>
</g>
</g>
<!-- Node5 -->
<g id="Node000005" class="node">
<title>Node5</title>
<g id="a_Node000005"><a xlink:href="../../df/d2d/util_8cpp.html" target="_top" xlink:title=" ">
<polygon fill="white" stroke="#666666" points="674,-30 520,-30 520,0 674,0 674,-30"/>
<text text-anchor="start" x="528" y="-18" font-family="Helvetica,sans-Serif" font-size="10.00">/home/runner/work/doxygen</text>
<text text-anchor="middle" x="597" y="-7" font-family="Helvetica,sans-Serif" font-size="10.00">/doxygen/src/util.cpp</text>
</a>
</g>
</g>
<!-- Node1&#45;&gt;Node5 -->
<g id="edge4_Node000001_Node000005" class="edge">
<title>Node1&#45;&gt;Node5</title>
<g id="a_edge4_Node000001_Node000005"><a xlink:title=" ">
<path fill="none" stroke="#63b8ff" d="M403.22,-63.52C445.55,-53.14 499.6,-39.88 539.86,-30.01"/>
<polygon fill="#63b8ff" stroke="#63b8ff" points="402.16,-60.17 393.28,-65.95 403.82,-66.97 402.16,-60.17"/>
</a>
</g>
</g>
</g>
</svg>
