<?xml version="1.0" encoding="UTF-8" standalone="no"?>
<!DOCTYPE svg PUBLIC "-//W3C//DTD SVG 1.1//EN"
 "http://www.w3.org/Graphics/SVG/1.1/DTD/svg11.dtd">
<!-- Generated by graphviz version 2.43.0 (0)
 -->
<!-- Title: /home/runner/work/doxygen/doxygen/src/htmlentity.h Pages: 1 -->
<!--zoomable 236 -->

<svg id="main" version="1.1" xmlns="http://www.w3.org/2000/svg" xmlns:xlink="http://www.w3.org/1999/xlink" xml:space="preserve" onload="init(evt)">
<style type="text/css"><![CDATA[
.node, .edge {opacity: 0.7;}
.node.selected, .edge.selected {opacity: 1;}
.edge:hover path { stroke: red; }
.edge:hover polygon { stroke: red; fill: red; }
]]></style>

<defs>
  <circle id="rim" cx="0" cy="0" r="7"/>
  <circle id="rim2" cx="0" cy="0" r="3.5"/>
  <g id="zoomPlus">
    <use xlink:href="#rim" fill="#404040"><set attributeName="fill" to="#808080" begin="zoomplus.mouseover" end="zoomplus.mouseout"/></use>
    <path d="M-4,0h8M0,-4v8" fill="none" stroke="white" stroke-width="1.5" pointer-events="none"/>
  </g>
  <g id="zoomMin">
    <use xlink:href="#rim" fill="#404040"><set attributeName="fill" to="#808080" begin="zoomminus.mouseover" end="zoomminus.mouseout"/></use>
    <path d="M-4,0h8" fill="none" stroke="white" stroke-width="1.5" pointer-events="none"/>
  </g>
  <g id="arrowUp" transform="translate(30 24)">
    <use xlink:href="#rim"/>
    <path pointer-events="none" fill="none" stroke="white" stroke-width="1.5" d="M0,-3.0v7 M-2.5,-0.5L0,-3.0L2.5,-0.5"/>
  </g>
  <g id="arrowRight" transform="rotate(90) translate(36 -43)">
    <use xlink:href="#rim"/>
    <path pointer-events="none" fill="none" stroke="white" stroke-width="1.5" d="M0,-3.0v7 M-2.5,-0.5L0,-3.0L2.5,-0.5"/>
  </g>
  <g id="arrowDown" transform="rotate(180) translate(-30 -48)">
    <use xlink:href="#rim"/>
    <path pointer-events="none" fill="none" stroke="white" stroke-width="1.5" d="M0,-3.0v7 M-2.5,-0.5L0,-3.0L2.5,-0.5"/>
  </g>
  <g id="arrowLeft" transform="rotate(270) translate(-36 17)">
    <use xlink:href="#rim"/>
    <path pointer-events="none" fill="none" stroke="white" stroke-width="1.5" d="M0,-3.0v7 M-2.5,-0.5L0,-3.0L2.5,-0.5"/>
  </g>
  <g id="resetDef">
    <use xlink:href="#rim2" fill="#404040"><set attributeName="fill" to="#808080" begin="reset.mouseover" end="reset.mouseout"/></use>
  </g>
</defs>
<script type="application/ecmascript">
var viewWidth = 3378;
var viewHeight = 236;
var sectionId = 'dynsection-1';
</script>
<script type="application/ecmascript" xlink:href="../../svg.min.js"/>
<svg id="graph" class="graph">
<g id="viewport">
<title>/home/runner/work/doxygen/doxygen/src/htmlentity.h</title>
<!-- Node1 -->
<g id="Node000001" class="node">
<title>Node1</title>
<g id="a_Node000001"><a xlink:title=" ">
<polygon fill="#999999" stroke="#666666" points="1887,-228 1733,-228 1733,-198 1887,-198 1887,-228"/>
<text text-anchor="start" x="1741" y="-216" font-family="Helvetica,sans-Serif" font-size="10.00">/home/runner/work/doxygen</text>
<text text-anchor="middle" x="1810" y="-205" font-family="Helvetica,sans-Serif" font-size="10.00">/doxygen/src/htmlentity.h</text>
</a>
</g>
</g>
<!-- Node2 -->
<g id="Node000002" class="node">
<title>Node2</title>
<g id="a_Node000002"><a xlink:href="../../dc/d05/docbookvisitor_8cpp.html" target="_top" xlink:title=" ">
<polygon fill="white" stroke="#666666" points="517.5,-30 344.5,-30 344.5,0 517.5,0 517.5,-30"/>
<text text-anchor="start" x="352.5" y="-18" font-family="Helvetica,sans-Serif" font-size="10.00">/home/runner/work/doxygen</text>
<text text-anchor="middle" x="431" y="-7" font-family="Helvetica,sans-Serif" font-size="10.00">/doxygen/src/docbookvisitor.cpp</text>
</a>
</g>
</g>
<!-- Node1&#45;&gt;Node2 -->
<g id="edge1_Node000001_Node000002" class="edge">
<title>Node1&#45;&gt;Node2</title>
<g id="a_edge1_Node000001_Node000002"><a xlink:title=" ">
<path fill="none" stroke="#63b8ff" d="M1722.54,-210.76C1559.49,-207.66 1198.17,-197.08 896,-162 730.07,-142.74 677.26,-166.88 526,-96 491.83,-79.99 459.98,-48.48 443.25,-30.15"/>
<polygon fill="#63b8ff" stroke="#63b8ff" points="1722.93,-214.27 1733,-210.95 1723.06,-207.27 1722.93,-214.27"/>
</a>
</g>
</g>
<!-- Node3 -->
<g id="Node000003" class="node">
<title>Node3</title>
<g id="a_Node000003"><a xlink:href="../../d0/d2b/docnode_8cpp.html" target="_top" xlink:title=" ">
<polygon fill="white" stroke="#666666" points="326,-30 172,-30 172,0 326,0 326,-30"/>
<text text-anchor="start" x="180" y="-18" font-family="Helvetica,sans-Serif" font-size="10.00">/home/runner/work/doxygen</text>
<text text-anchor="middle" x="249" y="-7" font-family="Helvetica,sans-Serif" font-size="10.00">/doxygen/src/docnode.cpp</text>
</a>
</g>
</g>
<!-- Node1&#45;&gt;Node3 -->
<g id="edge2_Node000001_Node000003" class="edge">
<title>Node1&#45;&gt;Node3</title>
<g id="a_edge2_Node000001_Node000003"><a xlink:title=" ">
<path fill="none" stroke="#63b8ff" d="M1722.62,-212.64C1525.1,-213.16 1029.35,-209.16 618,-162 460.73,-143.97 382.52,-205.28 268,-96 250.03,-78.85 247.71,-48.06 248.07,-30.09"/>
<polygon fill="#63b8ff" stroke="#63b8ff" points="1722.66,-216.14 1732.65,-212.61 1722.64,-209.14 1722.66,-216.14"/>
</a>
</g>
</g>
<!-- Node4 -->
<g id="Node000004" class="node">
<title>Node4</title>
<g id="a_Node000004"><a xlink:href="../../de/d2b/docnode_8h.html" target="_top" xlink:title=" ">
<polygon fill="white" stroke="#666666" points="1782,-162 1628,-162 1628,-132 1782,-132 1782,-162"/>
<text text-anchor="start" x="1636" y="-150" font-family="Helvetica,sans-Serif" font-size="10.00">/home/runner/work/doxygen</text>
<text text-anchor="middle" x="1705" y="-139" font-family="Helvetica,sans-Serif" font-size="10.00">/doxygen/src/docnode.h</text>
</a>
</g>
</g>
<!-- Node1&#45;&gt;Node4 -->
<g id="edge3_Node000001_Node000004" class="edge">
<title>Node1&#45;&gt;Node4</title>
<g id="a_edge3_Node000001_Node000004"><a xlink:title=" ">
<path fill="none" stroke="#63b8ff" d="M1778.33,-192.69C1762.12,-182.82 1742.75,-171.01 1727.99,-162.01"/>
<polygon fill="#63b8ff" stroke="#63b8ff" points="1776.6,-195.74 1786.96,-197.95 1780.24,-189.76 1776.6,-195.74"/>
</a>
</g>
</g>
<!-- Node13 -->
<g id="Node000013" class="node">
<title>Node13</title>
<g id="a_Node000013"><a xlink:href="../../da/db0/htmldocvisitor_8cpp.html" target="_top" xlink:title=" ">
<polygon fill="white" stroke="#666666" points="2478,-30 2306,-30 2306,0 2478,0 2478,-30"/>
<text text-anchor="start" x="2314" y="-18" font-family="Helvetica,sans-Serif" font-size="10.00">/home/runner/work/doxygen</text>
<text text-anchor="middle" x="2392" y="-7" font-family="Helvetica,sans-Serif" font-size="10.00">/doxygen/src/htmldocvisitor.cpp</text>
</a>
</g>
</g>
<!-- Node1&#45;&gt;Node13 -->
<g id="edge40_Node000001_Node000013" class="edge">
<title>Node1&#45;&gt;Node13</title>
<g id="a_edge40_Node000001_Node000013"><a xlink:title=" ">
<path fill="none" stroke="#63b8ff" d="M1863.37,-194.81C1932.58,-172.42 2057.02,-131.92 2163,-96 2229.61,-73.42 2306.76,-46.26 2352.36,-30.1"/>
<polygon fill="#63b8ff" stroke="#63b8ff" points="1862,-191.57 1853.56,-197.97 1864.15,-198.23 1862,-191.57"/>
</a>
</g>
</g>
<!-- Node16 -->
<g id="Node000016" class="node">
<title>Node16</title>
<g id="a_Node000016"><a xlink:href="../../d1/d4e/latexdocvisitor_8cpp.html" target="_top" xlink:title=" ">
<polygon fill="white" stroke="#666666" points="1248,-30 1074,-30 1074,0 1248,0 1248,-30"/>
<text text-anchor="start" x="1082" y="-18" font-family="Helvetica,sans-Serif" font-size="10.00">/home/runner/work/doxygen</text>
<text text-anchor="middle" x="1161" y="-7" font-family="Helvetica,sans-Serif" font-size="10.00">/doxygen/src/latexdocvisitor.cpp</text>
</a>
</g>
</g>
<!-- Node1&#45;&gt;Node16 -->
<g id="edge42_Node000001_Node000016" class="edge">
<title>Node1&#45;&gt;Node16</title>
<g id="a_edge42_Node000001_Node000016"><a xlink:title=" ">
<path fill="none" stroke="#63b8ff" d="M1722.78,-211.36C1549.78,-208.06 1172.99,-189.97 1093,-96 1073.39,-72.96 1107.8,-46.16 1134.42,-30.17"/>
<polygon fill="#63b8ff" stroke="#63b8ff" points="1722.81,-214.87 1732.87,-211.54 1722.94,-207.87 1722.81,-214.87"/>
</a>
</g>
</g>
<!-- Node18 -->
<g id="Node000018" class="node">
<title>Node18</title>
<g id="a_Node000018"><a xlink:href="../../df/d2d/util_8cpp.html" target="_top" xlink:title=" ">
<polygon fill="white" stroke="#666666" points="1056,-30 902,-30 902,0 1056,0 1056,-30"/>
<text text-anchor="start" x="910" y="-18" font-family="Helvetica,sans-Serif" font-size="10.00">/home/runner/work/doxygen</text>
<text text-anchor="middle" x="979" y="-7" font-family="Helvetica,sans-Serif" font-size="10.00">/doxygen/src/util.cpp</text>
</a>
</g>
</g>
<!-- Node1&#45;&gt;Node18 -->
<g id="edge49_Node000001_Node000018" class="edge">
<title>Node1&#45;&gt;Node18</title>
<g id="a_edge49_Node000001_Node000018"><a xlink:title=" ">
<path fill="none" stroke="#63b8ff" d="M1722.86,-212.3C1566.72,-211.72 1246.04,-205.1 1144,-162 1073.88,-132.38 1013.07,-60.59 989.47,-30.09"/>
<polygon fill="#63b8ff" stroke="#63b8ff" points="1722.89,-215.8 1732.9,-212.33 1722.91,-208.8 1722.89,-215.8"/>
</a>
</g>
</g>
<!-- Node20 -->
<g id="Node000020" class="node">
<title>Node20</title>
<g id="a_Node000020"><a xlink:href="../../d8/dde/mandocvisitor_8cpp.html" target="_top" xlink:title=" ">
<polygon fill="white" stroke="#666666" points="3369.5,-30 3198.5,-30 3198.5,0 3369.5,0 3369.5,-30"/>
<text text-anchor="start" x="3206.5" y="-18" font-family="Helvetica,sans-Serif" font-size="10.00">/home/runner/work/doxygen</text>
<text text-anchor="middle" x="3284" y="-7" font-family="Helvetica,sans-Serif" font-size="10.00">/doxygen/src/mandocvisitor.cpp</text>
</a>
</g>
</g>
<!-- Node1&#45;&gt;Node20 -->
<g id="edge43_Node000001_Node000020" class="edge">
<title>Node1&#45;&gt;Node20</title>
<g id="a_edge43_Node000001_Node000020"><a xlink:title=" ">
<path fill="none" stroke="#63b8ff" d="M1897.56,-208.98C2152.8,-199.45 2892.55,-166.33 3123,-96 3175.39,-80.01 3231.62,-48.35 3261.79,-30.01"/>
<polygon fill="#63b8ff" stroke="#63b8ff" points="1897.09,-205.5 1887.23,-209.37 1897.35,-212.49 1897.09,-205.5"/>
</a>
</g>
</g>
<!-- Node23 -->
<g id="Node000023" class="node">
<title>Node23</title>
<g id="a_Node000023"><a xlink:href="../../de/dd0/perlmodgen_8cpp.html" target="_top" xlink:title=" ">
<polygon fill="white" stroke="#666666" points="2710.5,-96 2549.5,-96 2549.5,-66 2710.5,-66 2710.5,-96"/>
<text text-anchor="start" x="2557.5" y="-84" font-family="Helvetica,sans-Serif" font-size="10.00">/home/runner/work/doxygen</text>
<text text-anchor="middle" x="2630" y="-73" font-family="Helvetica,sans-Serif" font-size="10.00">/doxygen/src/perlmodgen.cpp</text>
</a>
</g>
</g>
<!-- Node1&#45;&gt;Node23 -->
<g id="edge44_Node000001_Node000023" class="edge">
<title>Node1&#45;&gt;Node23</title>
<g id="a_edge44_Node000001_Node000023"><a xlink:title=" ">
<path fill="none" stroke="#63b8ff" d="M1897.17,-208.78C2003.97,-203.71 2190.06,-191.24 2347,-162 2434.84,-145.64 2534.83,-114.26 2589.31,-96.04"/>
<polygon fill="#63b8ff" stroke="#63b8ff" points="1896.91,-205.28 1887.09,-209.24 1897.24,-212.28 1896.91,-205.28"/>
</a>
</g>
</g>
<!-- Node25 -->
<g id="Node000025" class="node">
<title>Node25</title>
<g id="a_Node000025"><a xlink:href="../../de/d9a/rtfdocvisitor_8cpp.html" target="_top" xlink:title=" ">
<polygon fill="white" stroke="#666666" points="1943.5,-30 1782.5,-30 1782.5,0 1943.5,0 1943.5,-30"/>
<text text-anchor="start" x="1790.5" y="-18" font-family="Helvetica,sans-Serif" font-size="10.00">/home/runner/work/doxygen</text>
<text text-anchor="middle" x="1863" y="-7" font-family="Helvetica,sans-Serif" font-size="10.00">/doxygen/src/rtfdocvisitor.cpp</text>
</a>
</g>
</g>
<!-- Node1&#45;&gt;Node25 -->
<g id="edge47_Node000001_Node000025" class="edge">
<title>Node1&#45;&gt;Node25</title>
<g id="a_edge47_Node000001_Node000025"><a xlink:title=" ">
<path fill="none" stroke="#63b8ff" d="M1817.42,-188.03C1824.57,-164.65 1835.51,-128.02 1844,-96 1850.07,-73.09 1856.26,-46.26 1859.86,-30.22"/>
<polygon fill="#63b8ff" stroke="#63b8ff" points="1814.02,-187.19 1814.43,-197.78 1820.71,-189.25 1814.02,-187.19"/>
</a>
</g>
</g>
<!-- Node29 -->
<g id="Node000029" class="node">
<title>Node29</title>
<g id="a_Node000029"><a xlink:href="../../d3/da6/textdocvisitor_8cpp.html" target="_top" xlink:title=" ">
<polygon fill="white" stroke="#666666" points="883.5,-30 714.5,-30 714.5,0 883.5,0 883.5,-30"/>
<text text-anchor="start" x="722.5" y="-18" font-family="Helvetica,sans-Serif" font-size="10.00">/home/runner/work/doxygen</text>
<text text-anchor="middle" x="799" y="-7" font-family="Helvetica,sans-Serif" font-size="10.00">/doxygen/src/textdocvisitor.cpp</text>
</a>
</g>
</g>
<!-- Node1&#45;&gt;Node29 -->
<g id="edge48_Node000001_Node000029" class="edge">
<title>Node1&#45;&gt;Node29</title>
<g id="a_edge48_Node000001_Node000029"><a xlink:title=" ">
<path fill="none" stroke="#63b8ff" d="M1722.5,-211.3C1586.2,-209 1315.34,-199.61 1089,-162 976.48,-143.3 930.14,-167.16 841,-96 819.67,-78.97 807.93,-48.13 802.6,-30.12"/>
<polygon fill="#63b8ff" stroke="#63b8ff" points="1722.82,-214.8 1732.87,-211.46 1722.93,-207.8 1722.82,-214.8"/>
</a>
</g>
</g>
<!-- Node31 -->
<g id="Node000031" class="node">
<title>Node31</title>
<g id="a_Node000031"><a xlink:href="../../dd/db6/xmldocvisitor_8cpp.html" target="_top" xlink:title=" ">
<polygon fill="white" stroke="#666666" points="2836,-30 2668,-30 2668,0 2836,0 2836,-30"/>
<text text-anchor="start" x="2676" y="-18" font-family="Helvetica,sans-Serif" font-size="10.00">/home/runner/work/doxygen</text>
<text text-anchor="middle" x="2752" y="-7" font-family="Helvetica,sans-Serif" font-size="10.00">/doxygen/src/xmldocvisitor.cpp</text>
</a>
</g>
</g>
<!-- Node1&#45;&gt;Node31 -->
<g id="edge50_Node000001_Node000031" class="edge">
<title>Node1&#45;&gt;Node31</title>
<g id="a_edge50_Node000001_Node000031"><a xlink:title=" ">
<path fill="none" stroke="#63b8ff" d="M1897.65,-208.69C2017.18,-203.31 2237.78,-190.27 2424,-162 2556.83,-141.83 2616.23,-182.53 2719,-96 2739,-79.16 2747.06,-48.26 2750.17,-30.18"/>
<polygon fill="#63b8ff" stroke="#63b8ff" points="1897.29,-205.2 1887.46,-209.14 1897.6,-212.2 1897.29,-205.2"/>
</a>
</g>
</g>
<!-- Node32 -->
<g id="Node000032" class="node">
<title>Node32</title>
<g id="a_Node000032"><a xlink:href="../../d0/dc3/xmlgen_8cpp.html" target="_top" xlink:title=" ">
<polygon fill="white" stroke="#666666" points="3008,-30 2854,-30 2854,0 3008,0 3008,-30"/>
<text text-anchor="start" x="2862" y="-18" font-family="Helvetica,sans-Serif" font-size="10.00">/home/runner/work/doxygen</text>
<text text-anchor="middle" x="2931" y="-7" font-family="Helvetica,sans-Serif" font-size="10.00">/doxygen/src/xmlgen.cpp</text>
</a>
</g>
</g>
<!-- Node1&#45;&gt;Node32 -->
<g id="edge51_Node000001_Node000032" class="edge">
<title>Node1&#45;&gt;Node32</title>
<g id="a_edge51_Node000001_Node000032"><a xlink:title=" ">
<path fill="none" stroke="#63b8ff" d="M1897.36,-209.19C2066.92,-203.24 2434.89,-187.76 2559,-162 2644.48,-144.26 2662.72,-127.85 2744,-96 2799.4,-74.29 2862.88,-46.5 2899.81,-30.04"/>
<polygon fill="#63b8ff" stroke="#63b8ff" points="1897.09,-205.7 1887.22,-209.54 1897.33,-212.69 1897.09,-205.7"/>
</a>
</g>
</g>
<!-- Node33 -->
<g id="Node000033" class="node">
<title>Node33</title>
<g id="a_Node000033"><a xlink:href="../../d2/db2/htmlentity_8cpp.html" target="_top" xlink:title=" ">
<polygon fill="white" stroke="#666666" points="3324,-162 3170,-162 3170,-132 3324,-132 3324,-162"/>
<text text-anchor="start" x="3178" y="-150" font-family="Helvetica,sans-Serif" font-size="10.00">/home/runner/work/doxygen</text>
<text text-anchor="middle" x="3247" y="-139" font-family="Helvetica,sans-Serif" font-size="10.00">/doxygen/src/htmlentity.cpp</text>
</a>
</g>
</g>
<!-- Node1&#45;&gt;Node33 -->
<g id="edge41_Node000001_Node000033" class="edge">
<title>Node1&#45;&gt;Node33</title>
<g id="a_edge41_Node000001_Node000033"><a xlink:title=" ">
<path fill="none" stroke="#63b8ff" d="M1897.48,-212.24C2112.31,-212.08 2682.75,-207.04 3156,-162 3160.46,-161.58 3165.03,-161.08 3169.63,-160.53"/>
<polygon fill="#63b8ff" stroke="#63b8ff" points="1897.22,-208.74 1887.22,-212.25 1897.22,-215.74 1897.22,-208.74"/>
</a>
</g>
</g>
<!-- Node34 -->
<g id="Node000034" class="node">
<title>Node34</title>
<g id="a_Node000034"><a xlink:href="../../db/d73/printdocvisitor_8h.html" target="_top" xlink:title=" ">
<polygon fill="white" stroke="#666666" points="189.5,-162 28.5,-162 28.5,-132 189.5,-132 189.5,-162"/>
<text text-anchor="start" x="36.5" y="-150" font-family="Helvetica,sans-Serif" font-size="10.00">/home/runner/work/doxygen</text>
<text text-anchor="middle" x="109" y="-139" font-family="Helvetica,sans-Serif" font-size="10.00">/doxygen/src/printdocvisitor.h</text>
</a>
</g>
</g>
<!-- Node1&#45;&gt;Node34 -->
<g id="edge45_Node000001_Node000034" class="edge">
<title>Node1&#45;&gt;Node34</title>
<g id="a_edge45_Node000001_Node000034"><a xlink:title=" ">
<path fill="none" stroke="#63b8ff" d="M1722.51,-211.64C1483.75,-210.14 801,-202.37 235,-162 220.29,-160.95 204.65,-159.49 189.57,-157.91"/>
<polygon fill="#63b8ff" stroke="#63b8ff" points="1722.84,-215.14 1732.86,-211.71 1722.88,-208.14 1722.84,-215.14"/>
</a>
</g>
</g>
<!-- Node4&#45;&gt;Node3 -->
<g id="edge7_Node000004_Node000003" class="edge">
<title>Node4&#45;&gt;Node3</title>
<g id="a_edge7_Node000004_Node000003"><a xlink:title=" ">
<path fill="none" stroke="#63b8ff" d="M1617.54,-145.6C1381.47,-144 735.06,-135.99 526,-96 486.24,-88.39 478.72,-77.8 440,-66 395.9,-52.56 345.42,-39.44 307.43,-30.01"/>
<polygon fill="#63b8ff" stroke="#63b8ff" points="1617.77,-149.1 1627.79,-145.67 1617.82,-142.1 1617.77,-149.1"/>
</a>
</g>
</g>
<!-- Node5 -->
<g id="Node000005" class="node">
<title>Node5</title>
<g id="a_Node000005"><a xlink:href="../../de/dcd/docbookvisitor_8h.html" target="_top" xlink:title=" ">
<polygon fill="white" stroke="#666666" points="697,-96 535,-96 535,-66 697,-66 697,-96"/>
<text text-anchor="start" x="543" y="-84" font-family="Helvetica,sans-Serif" font-size="10.00">/home/runner/work/doxygen</text>
<text text-anchor="middle" x="616" y="-73" font-family="Helvetica,sans-Serif" font-size="10.00">/doxygen/src/docbookvisitor.h</text>
</a>
</g>
</g>
<!-- Node4&#45;&gt;Node5 -->
<g id="edge4_Node000004_Node000005" class="edge">
<title>Node4&#45;&gt;Node5</title>
<g id="a_edge4_Node000004_Node000005"><a xlink:title=" ">
<path fill="none" stroke="#63b8ff" d="M1617.83,-141.08C1461.96,-132.26 1125.16,-113.06 841,-96 793.34,-93.14 740,-89.82 697.23,-87.14"/>
<polygon fill="#63b8ff" stroke="#63b8ff" points="1617.66,-144.58 1627.84,-141.65 1618.05,-137.59 1617.66,-144.58"/>
</a>
</g>
</g>
<!-- Node7 -->
<g id="Node000007" class="node">
<title>Node7</title>
<g id="a_Node000007"><a xlink:href="../../df/dc9/docparser__p_8h.html" target="_top" xlink:title="Private header shared between docparser.cpp and docnode.cpp.">
<polygon fill="white" stroke="#666666" points="431,-96 277,-96 277,-66 431,-66 431,-96"/>
<text text-anchor="start" x="285" y="-84" font-family="Helvetica,sans-Serif" font-size="10.00">/home/runner/work/doxygen</text>
<text text-anchor="middle" x="354" y="-73" font-family="Helvetica,sans-Serif" font-size="10.00">/doxygen/src/docparser_p.h</text>
</a>
</g>
</g>
<!-- Node4&#45;&gt;Node7 -->
<g id="edge8_Node000004_Node000007" class="edge">
<title>Node4&#45;&gt;Node7</title>
<g id="a_edge8_Node000004_Node000007"><a xlink:title=" ">
<path fill="none" stroke="#63b8ff" d="M1617.84,-145.77C1413.18,-144.53 886.09,-137.21 448,-96 442.5,-95.48 436.82,-94.86 431.12,-94.17"/>
<polygon fill="#63b8ff" stroke="#63b8ff" points="1617.91,-149.27 1627.93,-145.83 1617.95,-142.27 1617.91,-149.27"/>
</a>
</g>
</g>
<!-- Node9 -->
<g id="Node000009" class="node">
<title>Node9</title>
<g id="a_Node000009"><a xlink:href="../../d9/d92/dotfilepatcher_8cpp.html" target="_top" xlink:title=" ">
<polygon fill="white" stroke="#666666" points="1443.5,-96 1274.5,-96 1274.5,-66 1443.5,-66 1443.5,-96"/>
<text text-anchor="start" x="1282.5" y="-84" font-family="Helvetica,sans-Serif" font-size="10.00">/home/runner/work/doxygen</text>
<text text-anchor="middle" x="1359" y="-73" font-family="Helvetica,sans-Serif" font-size="10.00">/doxygen/src/dotfilepatcher.cpp</text>
</a>
</g>
</g>
<!-- Node4&#45;&gt;Node9 -->
<g id="edge11_Node000004_Node000009" class="edge">
<title>Node4&#45;&gt;Node9</title>
<g id="a_edge11_Node000004_Node000009"><a xlink:title=" ">
<path fill="none" stroke="#63b8ff" d="M1619.07,-130.11C1562.5,-119.64 1489.13,-106.07 1434.75,-96.01"/>
<polygon fill="#63b8ff" stroke="#63b8ff" points="1618.6,-133.58 1629.07,-131.95 1619.87,-126.69 1618.6,-133.58"/>
</a>
</g>
</g>
<!-- Node10 -->
<g id="Node000010" class="node">
<title>Node10</title>
<g id="a_Node000010"><a xlink:href="../../d0/d71/htmldocvisitor_8h.html" target="_top" xlink:title=" ">
<polygon fill="white" stroke="#666666" points="2119.5,-96 1958.5,-96 1958.5,-66 2119.5,-66 2119.5,-96"/>
<text text-anchor="start" x="1966.5" y="-84" font-family="Helvetica,sans-Serif" font-size="10.00">/home/runner/work/doxygen</text>
<text text-anchor="middle" x="2039" y="-73" font-family="Helvetica,sans-Serif" font-size="10.00">/doxygen/src/htmldocvisitor.h</text>
</a>
</g>
</g>
<!-- Node4&#45;&gt;Node10 -->
<g id="edge12_Node000004_Node000010" class="edge">
<title>Node4&#45;&gt;Node10</title>
<g id="a_edge12_Node000004_Node000010"><a xlink:title=" ">
<path fill="none" stroke="#63b8ff" d="M1788.29,-130.04C1842.85,-119.59 1913.49,-106.05 1965.87,-96.01"/>
<polygon fill="#63b8ff" stroke="#63b8ff" points="1787.46,-126.64 1778.3,-131.95 1788.78,-133.51 1787.46,-126.64"/>
</a>
</g>
</g>
<!-- Node14 -->
<g id="Node000014" class="node">
<title>Node14</title>
<g id="a_Node000014"><a xlink:href="../../d8/d6e/htmlgen_8cpp.html" target="_top" xlink:title=" ">
<polygon fill="white" stroke="#666666" points="2288,-30 2134,-30 2134,0 2288,0 2288,-30"/>
<text text-anchor="start" x="2142" y="-18" font-family="Helvetica,sans-Serif" font-size="10.00">/home/runner/work/doxygen</text>
<text text-anchor="middle" x="2211" y="-7" font-family="Helvetica,sans-Serif" font-size="10.00">/doxygen/src/htmlgen.cpp</text>
</a>
</g>
</g>
<!-- Node4&#45;&gt;Node14 -->
<g id="edge17_Node000004_Node000014" class="edge">
<title>Node4&#45;&gt;Node14</title>
<g id="a_edge17_Node000004_Node000014"><a xlink:title=" ">
<path fill="none" stroke="#63b8ff" d="M1792.37,-142.22C1898.46,-136.5 2070.38,-123.29 2128,-96 2159.83,-80.92 2187.13,-48.76 2201.08,-30.14"/>
<polygon fill="#63b8ff" stroke="#63b8ff" points="1792.11,-138.73 1782.31,-142.75 1792.48,-145.72 1792.11,-138.73"/>
</a>
</g>
</g>
<!-- Node15 -->
<g id="Node000015" class="node">
<title>Node15</title>
<g id="a_Node000015"><a xlink:href="../../d8/d99/latexdocvisitor_8h.html" target="_top" xlink:title=" ">
<polygon fill="white" stroke="#666666" points="1624.5,-96 1461.5,-96 1461.5,-66 1624.5,-66 1624.5,-96"/>
<text text-anchor="start" x="1469.5" y="-84" font-family="Helvetica,sans-Serif" font-size="10.00">/home/runner/work/doxygen</text>
<text text-anchor="middle" x="1543" y="-73" font-family="Helvetica,sans-Serif" font-size="10.00">/doxygen/src/latexdocvisitor.h</text>
</a>
</g>
</g>
<!-- Node4&#45;&gt;Node15 -->
<g id="edge18_Node000004_Node000015" class="edge">
<title>Node4&#45;&gt;Node15</title>
<g id="a_edge18_Node000004_Node000015"><a xlink:title=" ">
<path fill="none" stroke="#63b8ff" d="M1659.91,-128.19C1634.19,-118.02 1602.4,-105.47 1578.47,-96.01"/>
<polygon fill="#63b8ff" stroke="#63b8ff" points="1658.86,-131.54 1669.45,-131.95 1661.43,-125.03 1658.86,-131.54"/>
</a>
</g>
</g>
<!-- Node17 -->
<g id="Node000017" class="node">
<title>Node17</title>
<g id="a_Node000017"><a xlink:href="../../d4/d42/latexgen_8cpp.html" target="_top" xlink:title=" ">
<polygon fill="white" stroke="#666666" points="1420,-30 1266,-30 1266,0 1420,0 1420,-30"/>
<text text-anchor="start" x="1274" y="-18" font-family="Helvetica,sans-Serif" font-size="10.00">/home/runner/work/doxygen</text>
<text text-anchor="middle" x="1343" y="-7" font-family="Helvetica,sans-Serif" font-size="10.00">/doxygen/src/latexgen.cpp</text>
</a>
</g>
</g>
<!-- Node4&#45;&gt;Node17 -->
<g id="edge23_Node000004_Node000017" class="edge">
<title>Node4&#45;&gt;Node17</title>
<g id="a_edge23_Node000004_Node000017"><a xlink:title=" ">
<path fill="none" stroke="#63b8ff" d="M1690.91,-123.32C1678.15,-104.81 1657.6,-79.58 1633,-66 1628.3,-63.4 1504.51,-42.62 1420.2,-28.68"/>
<polygon fill="#63b8ff" stroke="#63b8ff" points="1688.09,-125.39 1696.54,-131.79 1693.92,-121.52 1688.09,-125.39"/>
</a>
</g>
</g>
<!-- Node19 -->
<g id="Node000019" class="node">
<title>Node19</title>
<g id="a_Node000019"><a xlink:href="../../d6/d6e/mandocvisitor_8h.html" target="_top" xlink:title=" ">
<polygon fill="white" stroke="#666666" points="3114,-96 2954,-96 2954,-66 3114,-66 3114,-96"/>
<text text-anchor="start" x="2962" y="-84" font-family="Helvetica,sans-Serif" font-size="10.00">/home/runner/work/doxygen</text>
<text text-anchor="middle" x="3034" y="-73" font-family="Helvetica,sans-Serif" font-size="10.00">/doxygen/src/mandocvisitor.h</text>
</a>
</g>
</g>
<!-- Node4&#45;&gt;Node19 -->
<g id="edge24_Node000004_Node000019" class="edge">
<title>Node4&#45;&gt;Node19</title>
<g id="a_edge24_Node000004_Node000019"><a xlink:title=" ">
<path fill="none" stroke="#63b8ff" d="M1792.41,-141.79C2035.84,-130.07 2718.98,-97.17 2953.65,-85.87"/>
<polygon fill="#63b8ff" stroke="#63b8ff" points="1792.02,-138.31 1782.2,-142.28 1792.35,-145.3 1792.02,-138.31"/>
</a>
</g>
</g>
<!-- Node22 -->
<g id="Node000022" class="node">
<title>Node22</title>
<g id="a_Node000022"><a xlink:href="../../db/d33/msc_8cpp.html" target="_top" xlink:title=" ">
<polygon fill="white" stroke="#666666" points="1256,-96 1102,-96 1102,-66 1256,-66 1256,-96"/>
<text text-anchor="start" x="1110" y="-84" font-family="Helvetica,sans-Serif" font-size="10.00">/home/runner/work/doxygen</text>
<text text-anchor="middle" x="1179" y="-73" font-family="Helvetica,sans-Serif" font-size="10.00">/doxygen/src/msc.cpp</text>
</a>
</g>
</g>
<!-- Node4&#45;&gt;Node22 -->
<g id="edge27_Node000004_Node000022" class="edge">
<title>Node4&#45;&gt;Node22</title>
<g id="a_edge27_Node000004_Node000022"><a xlink:title=" ">
<path fill="none" stroke="#63b8ff" d="M1617.72,-137.34C1528.83,-128.22 1387.1,-112.87 1265,-96 1262.15,-95.61 1259.25,-95.19 1256.33,-94.77"/>
<polygon fill="#63b8ff" stroke="#63b8ff" points="1617.46,-140.83 1627.76,-138.36 1618.17,-133.86 1617.46,-140.83"/>
</a>
</g>
</g>
<!-- Node4&#45;&gt;Node23 -->
<g id="edge28_Node000004_Node000023" class="edge">
<title>Node4&#45;&gt;Node23</title>
<g id="a_edge28_Node000004_Node000023"><a xlink:title=" ">
<path fill="none" stroke="#63b8ff" d="M1792.26,-143.49C1944.44,-138.51 2268.11,-125.22 2540,-96 2542.99,-95.68 2546.03,-95.33 2549.09,-94.95"/>
<polygon fill="#63b8ff" stroke="#63b8ff" points="1791.93,-140 1782.05,-143.82 1792.15,-147 1791.93,-140"/>
</a>
</g>
</g>
<!-- Node24 -->
<g id="Node000024" class="node">
<title>Node24</title>
<g id="a_Node000024"><a xlink:href="../../d1/da7/rtfdocvisitor_8h.html" target="_top" xlink:title=" ">
<polygon fill="white" stroke="#666666" points="1835,-96 1681,-96 1681,-66 1835,-66 1835,-96"/>
<text text-anchor="start" x="1689" y="-84" font-family="Helvetica,sans-Serif" font-size="10.00">/home/runner/work/doxygen</text>
<text text-anchor="middle" x="1758" y="-73" font-family="Helvetica,sans-Serif" font-size="10.00">/doxygen/src/rtfdocvisitor.h</text>
</a>
</g>
</g>
<!-- Node4&#45;&gt;Node24 -->
<g id="edge29_Node000004_Node000024" class="edge">
<title>Node4&#45;&gt;Node24</title>
<g id="a_edge29_Node000004_Node000024"><a xlink:title=" ">
<path fill="none" stroke="#63b8ff" d="M1723.15,-124.09C1730.8,-114.85 1739.48,-104.36 1746.27,-96.16"/>
<polygon fill="#63b8ff" stroke="#63b8ff" points="1720.44,-121.86 1716.76,-131.8 1725.84,-126.33 1720.44,-121.86"/>
</a>
</g>
</g>
<!-- Node27 -->
<g id="Node000027" class="node">
<title>Node27</title>
<g id="a_Node000027"><a xlink:href="../../d8/df8/sqlite3gen_8cpp.html" target="_top" xlink:title=" ">
<polygon fill="white" stroke="#666666" points="2650,-30 2496,-30 2496,0 2650,0 2650,-30"/>
<text text-anchor="start" x="2504" y="-18" font-family="Helvetica,sans-Serif" font-size="10.00">/home/runner/work/doxygen</text>
<text text-anchor="middle" x="2573" y="-7" font-family="Helvetica,sans-Serif" font-size="10.00">/doxygen/src/sqlite3gen.cpp</text>
</a>
</g>
</g>
<!-- Node4&#45;&gt;Node27 -->
<g id="edge32_Node000004_Node000027" class="edge">
<title>Node4&#45;&gt;Node27</title>
<g id="a_edge32_Node000004_Node000027"><a xlink:title=" ">
<path fill="none" stroke="#63b8ff" d="M1792.38,-138.66C1884.75,-130.39 2034.57,-115.51 2163,-96 2286.5,-77.24 2429.43,-47.51 2509.72,-30.06"/>
<polygon fill="#63b8ff" stroke="#63b8ff" points="1791.89,-135.19 1782.24,-139.56 1792.51,-142.16 1791.89,-135.19"/>
</a>
</g>
</g>
<!-- Node28 -->
<g id="Node000028" class="node">
<title>Node28</title>
<g id="a_Node000028"><a xlink:href="../../dd/d66/textdocvisitor_8h.html" target="_top" xlink:title=" ">
<polygon fill="white" stroke="#666666" points="1008,-96 850,-96 850,-66 1008,-66 1008,-96"/>
<text text-anchor="start" x="858" y="-84" font-family="Helvetica,sans-Serif" font-size="10.00">/home/runner/work/doxygen</text>
<text text-anchor="middle" x="929" y="-73" font-family="Helvetica,sans-Serif" font-size="10.00">/doxygen/src/textdocvisitor.h</text>
</a>
</g>
</g>
<!-- Node4&#45;&gt;Node28 -->
<g id="edge33_Node000004_Node000028" class="edge">
<title>Node4&#45;&gt;Node28</title>
<g id="a_edge33_Node000004_Node000028"><a xlink:title=" ">
<path fill="none" stroke="#63b8ff" d="M1617.58,-138.96C1498.81,-129.37 1279.84,-111.61 1093,-96 1065.38,-93.69 1035.14,-91.12 1008.24,-88.82"/>
<polygon fill="#63b8ff" stroke="#63b8ff" points="1617.46,-142.46 1627.7,-139.78 1618.02,-135.48 1617.46,-142.46"/>
</a>
</g>
</g>
<!-- Node30 -->
<g id="Node000030" class="node">
<title>Node30</title>
<g id="a_Node000030"><a xlink:href="../../df/d2b/xmldocvisitor_8h.html" target="_top" xlink:title=" ">
<polygon fill="white" stroke="#666666" points="2531.5,-96 2374.5,-96 2374.5,-66 2531.5,-66 2531.5,-96"/>
<text text-anchor="start" x="2382.5" y="-84" font-family="Helvetica,sans-Serif" font-size="10.00">/home/runner/work/doxygen</text>
<text text-anchor="middle" x="2453" y="-73" font-family="Helvetica,sans-Serif" font-size="10.00">/doxygen/src/xmldocvisitor.h</text>
</a>
</g>
</g>
<!-- Node4&#45;&gt;Node30 -->
<g id="edge36_Node000004_Node000030" class="edge">
<title>Node4&#45;&gt;Node30</title>
<g id="a_edge36_Node000004_Node000030"><a xlink:title=" ">
<path fill="none" stroke="#63b8ff" d="M1792.55,-138.51C1939.48,-125.94 2233.39,-100.79 2374.22,-88.74"/>
<polygon fill="#63b8ff" stroke="#63b8ff" points="1791.9,-135.05 1782.23,-139.39 1792.49,-142.03 1791.9,-135.05"/>
</a>
</g>
</g>
<!-- Node5&#45;&gt;Node2 -->
<g id="edge6_Node000005_Node000002" class="edge">
<title>Node5&#45;&gt;Node2</title>
<g id="a_edge6_Node000005_Node000002"><a xlink:title=" ">
<path fill="none" stroke="#63b8ff" d="M565.67,-62.59C536.1,-52.36 499.2,-39.59 471.5,-30.01"/>
<polygon fill="#63b8ff" stroke="#63b8ff" points="564.81,-65.99 575.4,-65.95 567.09,-59.38 564.81,-65.99"/>
</a>
</g>
</g>
<!-- Node6 -->
<g id="Node000006" class="node">
<title>Node6</title>
<g id="a_Node000006"><a xlink:href="../../d8/d29/docbookgen_8cpp.html" target="_top" xlink:title=" ">
<polygon fill="white" stroke="#666666" points="696.5,-30 535.5,-30 535.5,0 696.5,0 696.5,-30"/>
<text text-anchor="start" x="543.5" y="-18" font-family="Helvetica,sans-Serif" font-size="10.00">/home/runner/work/doxygen</text>
<text text-anchor="middle" x="616" y="-7" font-family="Helvetica,sans-Serif" font-size="10.00">/doxygen/src/docbookgen.cpp</text>
</a>
</g>
</g>
<!-- Node5&#45;&gt;Node6 -->
<g id="edge5_Node000005_Node000006" class="edge">
<title>Node5&#45;&gt;Node6</title>
<g id="a_edge5_Node000005_Node000006"><a xlink:title=" ">
<path fill="none" stroke="#63b8ff" d="M616,-55.54C616,-46.96 616,-37.61 616,-30.16"/>
<polygon fill="#63b8ff" stroke="#63b8ff" points="612.5,-55.8 616,-65.8 619.5,-55.8 612.5,-55.8"/>
</a>
</g>
</g>
<!-- Node7&#45;&gt;Node3 -->
<g id="edge9_Node000007_Node000003" class="edge">
<title>Node7&#45;&gt;Node3</title>
<g id="a_edge9_Node000007_Node000003"><a xlink:title=" ">
<path fill="none" stroke="#63b8ff" d="M322.33,-60.69C306.12,-50.82 286.75,-39.01 271.99,-30.01"/>
<polygon fill="#63b8ff" stroke="#63b8ff" points="320.6,-63.74 330.96,-65.95 324.24,-57.76 320.6,-63.74"/>
</a>
</g>
</g>
<!-- Node8 -->
<g id="Node000008" class="node">
<title>Node8</title>
<g id="a_Node000008"><a xlink:href="../../da/d17/docparser_8cpp.html" target="_top" xlink:title=" ">
<polygon fill="white" stroke="#666666" points="154,-30 0,-30 0,0 154,0 154,-30"/>
<text text-anchor="start" x="8" y="-18" font-family="Helvetica,sans-Serif" font-size="10.00">/home/runner/work/doxygen</text>
<text text-anchor="middle" x="77" y="-7" font-family="Helvetica,sans-Serif" font-size="10.00">/doxygen/src/docparser.cpp</text>
</a>
</g>
</g>
<!-- Node7&#45;&gt;Node8 -->
<g id="edge10_Node000007_Node000008" class="edge">
<title>Node7&#45;&gt;Node8</title>
<g id="a_edge10_Node000007_Node000008"><a xlink:title=" ">
<path fill="none" stroke="#63b8ff" d="M283.23,-63.65C238.22,-53.25 180.55,-39.93 137.65,-30.01"/>
<polygon fill="#63b8ff" stroke="#63b8ff" points="282.68,-67.11 293.21,-65.95 284.26,-60.29 282.68,-67.11"/>
</a>
</g>
</g>
<!-- Node11 -->
<g id="Node000011" class="node">
<title>Node11</title>
<g id="a_Node000011"><a xlink:href="../../db/d12/context_8cpp.html" target="_top" xlink:title=" ">
<polygon fill="white" stroke="#666666" points="1592,-30 1438,-30 1438,0 1592,0 1592,-30"/>
<text text-anchor="start" x="1446" y="-18" font-family="Helvetica,sans-Serif" font-size="10.00">/home/runner/work/doxygen</text>
<text text-anchor="middle" x="1515" y="-7" font-family="Helvetica,sans-Serif" font-size="10.00">/doxygen/src/context.cpp</text>
</a>
</g>
</g>
<!-- Node10&#45;&gt;Node11 -->
<g id="edge13_Node000010_Node000011" class="edge">
<title>Node10&#45;&gt;Node11</title>
<g id="a_edge13_Node000010_Node000011"><a xlink:title=" ">
<path fill="none" stroke="#63b8ff" d="M1948.1,-70.9C1859.4,-61.72 1720.72,-46.57 1601,-30 1598.15,-29.61 1595.25,-29.19 1592.33,-28.77"/>
<polygon fill="#63b8ff" stroke="#63b8ff" points="1947.82,-74.39 1958.13,-71.94 1948.54,-67.43 1947.82,-74.39"/>
</a>
</g>
</g>
<!-- Node12 -->
<g id="Node000012" class="node">
<title>Node12</title>
<g id="a_Node000012"><a xlink:href="../../db/d41/ftvhelp_8cpp.html" target="_top" xlink:title=" ">
<polygon fill="white" stroke="#666666" points="2116,-30 1962,-30 1962,0 2116,0 2116,-30"/>
<text text-anchor="start" x="1970" y="-18" font-family="Helvetica,sans-Serif" font-size="10.00">/home/runner/work/doxygen</text>
<text text-anchor="middle" x="2039" y="-7" font-family="Helvetica,sans-Serif" font-size="10.00">/doxygen/src/ftvhelp.cpp</text>
</a>
</g>
</g>
<!-- Node10&#45;&gt;Node12 -->
<g id="edge14_Node000010_Node000012" class="edge">
<title>Node10&#45;&gt;Node12</title>
<g id="a_edge14_Node000010_Node000012"><a xlink:title=" ">
<path fill="none" stroke="#63b8ff" d="M2039,-55.54C2039,-46.96 2039,-37.61 2039,-30.16"/>
<polygon fill="#63b8ff" stroke="#63b8ff" points="2035.5,-55.8 2039,-65.8 2042.5,-55.8 2035.5,-55.8"/>
</a>
</g>
</g>
<!-- Node10&#45;&gt;Node13 -->
<g id="edge15_Node000010_Node000013" class="edge">
<title>Node10&#45;&gt;Node13</title>
<g id="a_edge15_Node000010_Node000013"><a xlink:title=" ">
<path fill="none" stroke="#63b8ff" d="M2126.31,-64.17C2184.07,-53.7 2259.12,-40.09 2314.71,-30.01"/>
<polygon fill="#63b8ff" stroke="#63b8ff" points="2125.68,-60.73 2116.47,-65.95 2126.93,-67.61 2125.68,-60.73"/>
</a>
</g>
</g>
<!-- Node10&#45;&gt;Node14 -->
<g id="edge16_Node000010_Node000014" class="edge">
<title>Node10&#45;&gt;Node14</title>
<g id="a_edge16_Node000010_Node000014"><a xlink:title=" ">
<path fill="none" stroke="#63b8ff" d="M2086.15,-62.46C2113.59,-52.25 2147.71,-39.55 2173.34,-30.01"/>
<polygon fill="#63b8ff" stroke="#63b8ff" points="2084.9,-59.19 2076.75,-65.95 2087.34,-65.75 2084.9,-59.19"/>
</a>
</g>
</g>
<!-- Node15&#45;&gt;Node11 -->
<g id="edge19_Node000015_Node000011" class="edge">
<title>Node15&#45;&gt;Node11</title>
<g id="a_edge19_Node000015_Node000011"><a xlink:title=" ">
<path fill="none" stroke="#63b8ff" d="M1532.67,-56.39C1528.82,-47.59 1524.57,-37.86 1521.2,-30.16"/>
<polygon fill="#63b8ff" stroke="#63b8ff" points="1529.57,-58.04 1536.79,-65.8 1535.98,-55.23 1529.57,-58.04"/>
</a>
</g>
</g>
<!-- Node15&#45;&gt;Node16 -->
<g id="edge20_Node000015_Node000016" class="edge">
<title>Node15&#45;&gt;Node16</title>
<g id="a_edge20_Node000015_Node000016"><a xlink:title=" ">
<path fill="none" stroke="#63b8ff" d="M1451.15,-64.61C1388.36,-54.09 1305.79,-40.26 1244.79,-30.04"/>
<polygon fill="#63b8ff" stroke="#63b8ff" points="1450.61,-68.07 1461.05,-66.27 1451.77,-61.17 1450.61,-68.07"/>
</a>
</g>
</g>
<!-- Node15&#45;&gt;Node17 -->
<g id="edge21_Node000015_Node000017" class="edge">
<title>Node15&#45;&gt;Node17</title>
<g id="a_edge21_Node000015_Node000017"><a xlink:title=" ">
<path fill="none" stroke="#63b8ff" d="M1489.43,-62.86C1457.31,-52.58 1416.99,-39.68 1386.79,-30.01"/>
<polygon fill="#63b8ff" stroke="#63b8ff" points="1488.52,-66.24 1499.11,-65.95 1490.65,-59.57 1488.52,-66.24"/>
</a>
</g>
</g>
<!-- Node15&#45;&gt;Node18 -->
<g id="edge22_Node000015_Node000018" class="edge">
<title>Node15&#45;&gt;Node18</title>
<g id="a_edge22_Node000015_Node000018"><a xlink:title=" ">
<path fill="none" stroke="#63b8ff" d="M1451.01,-65.93C1278.83,-45.11 1233.09,-51.47 1065,-30 1062.15,-29.64 1059.25,-29.25 1056.32,-28.84"/>
<polygon fill="#63b8ff" stroke="#63b8ff" points="1450.83,-69.44 1461.18,-67.18 1451.68,-62.49 1450.83,-69.44"/>
</a>
</g>
</g>
<!-- Node19&#45;&gt;Node20 -->
<g id="edge25_Node000019_Node000020" class="edge">
<title>Node19&#45;&gt;Node20</title>
<g id="a_edge25_Node000019_Node000020"><a xlink:title=" ">
<path fill="none" stroke="#63b8ff" d="M3098.64,-63.45C3139.15,-53.08 3190.79,-39.86 3229.26,-30.01"/>
<polygon fill="#63b8ff" stroke="#63b8ff" points="3097.68,-60.08 3088.86,-65.95 3099.42,-66.87 3097.68,-60.08"/>
</a>
</g>
</g>
<!-- Node21 -->
<g id="Node000021" class="node">
<title>Node21</title>
<g id="a_Node000021"><a xlink:href="../../d7/de7/mangen_8cpp.html" target="_top" xlink:title=" ">
<polygon fill="white" stroke="#666666" points="3180,-30 3026,-30 3026,0 3180,0 3180,-30"/>
<text text-anchor="start" x="3034" y="-18" font-family="Helvetica,sans-Serif" font-size="10.00">/home/runner/work/doxygen</text>
<text text-anchor="middle" x="3103" y="-7" font-family="Helvetica,sans-Serif" font-size="10.00">/doxygen/src/mangen.cpp</text>
</a>
</g>
</g>
<!-- Node19&#45;&gt;Node21 -->
<g id="edge26_Node000019_Node000021" class="edge">
<title>Node19&#45;&gt;Node21</title>
<g id="a_edge26_Node000019_Node000021"><a xlink:title=" ">
<path fill="none" stroke="#63b8ff" d="M3056.72,-58.92C3066.9,-49.49 3078.63,-38.61 3087.73,-30.16"/>
<polygon fill="#63b8ff" stroke="#63b8ff" points="3054.26,-56.43 3049.31,-65.8 3059.03,-61.56 3054.26,-56.43"/>
</a>
</g>
</g>
<!-- Node24&#45;&gt;Node25 -->
<g id="edge30_Node000024_Node000025" class="edge">
<title>Node24&#45;&gt;Node25</title>
<g id="a_edge30_Node000024_Node000025"><a xlink:title=" ">
<path fill="none" stroke="#63b8ff" d="M1789.67,-60.69C1805.88,-50.82 1825.25,-39.01 1840.01,-30.01"/>
<polygon fill="#63b8ff" stroke="#63b8ff" points="1787.76,-57.76 1781.04,-65.95 1791.4,-63.74 1787.76,-57.76"/>
</a>
</g>
</g>
<!-- Node26 -->
<g id="Node000026" class="node">
<title>Node26</title>
<g id="a_Node000026"><a xlink:href="../../d0/d9c/rtfgen_8cpp.html" target="_top" xlink:title=" ">
<polygon fill="white" stroke="#666666" points="1764,-30 1610,-30 1610,0 1764,0 1764,-30"/>
<text text-anchor="start" x="1618" y="-18" font-family="Helvetica,sans-Serif" font-size="10.00">/home/runner/work/doxygen</text>
<text text-anchor="middle" x="1687" y="-7" font-family="Helvetica,sans-Serif" font-size="10.00">/doxygen/src/rtfgen.cpp</text>
</a>
</g>
</g>
<!-- Node24&#45;&gt;Node26 -->
<g id="edge31_Node000024_Node000026" class="edge">
<title>Node24&#45;&gt;Node26</title>
<g id="a_edge31_Node000024_Node000026"><a xlink:title=" ">
<path fill="none" stroke="#63b8ff" d="M1734.62,-58.92C1724.15,-49.49 1712.08,-38.61 1702.71,-30.16"/>
<polygon fill="#63b8ff" stroke="#63b8ff" points="1732.47,-61.7 1742.24,-65.8 1737.16,-56.5 1732.47,-61.7"/>
</a>
</g>
</g>
<!-- Node28&#45;&gt;Node18 -->
<g id="edge35_Node000028_Node000018" class="edge">
<title>Node28&#45;&gt;Node18</title>
<g id="a_edge35_Node000028_Node000018"><a xlink:title=" ">
<path fill="none" stroke="#63b8ff" d="M946.34,-57.81C953.5,-48.64 961.6,-38.28 967.93,-30.16"/>
<polygon fill="#63b8ff" stroke="#63b8ff" points="943.5,-55.76 940.1,-65.8 949.01,-60.07 943.5,-55.76"/>
</a>
</g>
</g>
<!-- Node28&#45;&gt;Node29 -->
<g id="edge34_Node000028_Node000029" class="edge">
<title>Node28&#45;&gt;Node29</title>
<g id="a_edge34_Node000028_Node000029"><a xlink:title=" ">
<path fill="none" stroke="#63b8ff" d="M891.45,-61.51C871.05,-51.47 846.24,-39.26 827.46,-30.01"/>
<polygon fill="#63b8ff" stroke="#63b8ff" points="889.95,-64.68 900.47,-65.95 893.05,-58.4 889.95,-64.68"/>
</a>
</g>
</g>
<!-- Node30&#45;&gt;Node27 -->
<g id="edge37_Node000030_Node000027" class="edge">
<title>Node30&#45;&gt;Node27</title>
<g id="a_edge37_Node000030_Node000027"><a xlink:title=" ">
<path fill="none" stroke="#63b8ff" d="M2488.17,-61.24C2506.9,-51.25 2529.55,-39.18 2546.73,-30.01"/>
<polygon fill="#63b8ff" stroke="#63b8ff" points="2486.51,-58.16 2479.33,-65.95 2489.81,-64.34 2486.51,-58.16"/>
</a>
</g>
</g>
<!-- Node30&#45;&gt;Node31 -->
<g id="edge38_Node000030_Node000031" class="edge">
<title>Node30&#45;&gt;Node31</title>
<g id="a_edge38_Node000030_Node000031"><a xlink:title=" ">
<path fill="none" stroke="#63b8ff" d="M2528.48,-63.84C2577.19,-53.42 2639.93,-39.99 2686.54,-30.01"/>
<polygon fill="#63b8ff" stroke="#63b8ff" points="2527.66,-60.44 2518.62,-65.95 2529.13,-67.28 2527.66,-60.44"/>
</a>
</g>
</g>
<!-- Node30&#45;&gt;Node32 -->
<g id="edge39_Node000030_Node000032" class="edge">
<title>Node30&#45;&gt;Node32</title>
<g id="a_edge39_Node000030_Node000032"><a xlink:title=" ">
<path fill="none" stroke="#63b8ff" d="M2541.61,-65.81C2676.87,-47.23 2713,-48.53 2845,-30 2847.85,-29.6 2850.74,-29.18 2853.67,-28.75"/>
<polygon fill="#63b8ff" stroke="#63b8ff" points="2541.12,-62.34 2531.7,-67.18 2542.08,-69.28 2541.12,-62.34"/>
</a>
</g>
</g>
<!-- Node34&#45;&gt;Node8 -->
<g id="edge46_Node000034_Node000008" class="edge">
<title>Node34&#45;&gt;Node8</title>
<g id="a_edge46_Node000034_Node000008"><a xlink:title=" ">
<path fill="none" stroke="#63b8ff" d="M103.1,-122.04C96.47,-95.08 85.91,-52.21 80.48,-30.14"/>
<polygon fill="#63b8ff" stroke="#63b8ff" points="99.73,-122.97 105.51,-131.84 106.52,-121.29 99.73,-122.97"/>
</a>
</g>
</g>
</g>
</svg>

<g id="navigator" transform="translate(0 0)" fill="#404254">
  <rect fill="#f2f5e9" fill-opacity="0.5" stroke="#606060" stroke-width=".5" x="0" y="0" width="60" height="60"/>
  <use id="zoomplus" xlink:href="#zoomPlus" x="17" y="9" onmousedown="handleZoom(evt,'in')"/>
  <use id="zoomminus" xlink:href="#zoomMin" x="42" y="9" onmousedown="handleZoom(evt,'out')"/>
  <use id="reset" xlink:href="#resetDef" x="30" y="36" onmousedown="handleReset()"/>
   <use id="arrowup" xlink:href="#arrowUp" x="0" y="0" onmousedown="handlePan(0,-1)"/>
  <use id="arrowright" xlink:href="#arrowRight" x="0" y="0" onmousedown="handlePan(1,0)"/>
  <use id="arrowdown" xlink:href="#arrowDown" x="0" y="0" onmousedown="handlePan(0,1)"/>
  <use id="arrowleft" xlink:href="#arrowLeft" x="0" y="0" onmousedown="handlePan(-1,0)"/>
</g>
<svg viewBox="0 0 15 15" width="100%" height="30px" preserveAspectRatio="xMaxYMin meet">
 <g id="arrow_out" transform="scale(0.3 0.3)">
  <a xlink:href="htmlentity_8h__dep__incl_org.svg" target="_base">
   <rect id="button" ry="5" rx="5" y="6" x="6" height="38" width="38"
        fill="#f2f5e9" fill-opacity="0.5" stroke="#606060" stroke-width="1.0"/>
   <path id="arrow"
     d="M 11.500037,31.436501 C 11.940474,20.09759 22.043105,11.32322 32.158766,21.979434 L 37.068811,17.246167 C 37.068811,17.246167 37.088388,32 37.088388,32 L 22.160133,31.978069 C 22.160133,31.978069 26.997745,27.140456 26.997745,27.140456 C 18.528582,18.264221 13.291696,25.230495 11.500037,31.436501 z"
     style="fill:#404040;"/>
  </a>
 </g>
</svg>

<style type='text/css'>
<![CDATA[
[data-mouse-over-selected='false'] { opacity: 0.7; }
[data-mouse-over-selected='true']  { opacity: 1.0; }
]]>
</style>
<script type="application/ecmascript"><![CDATA[
document.addEventListener('DOMContentLoaded', (event) => {
  highlightEdges();
  highlightAdjacentNodes();
});
]]></script>
</svg>
