<?xml version="1.0" encoding="UTF-8" standalone="no"?>
<!DOCTYPE svg PUBLIC "-//W3C//DTD SVG 1.1//EN"
 "http://www.w3.org/Graphics/SVG/1.1/DTD/svg11.dtd">
<!-- Generated by graphviz version 2.43.0 (0)
 -->
<!-- Title: src/stlsupport.h Pages: 1 -->
<svg width="226pt" height="82pt"
 viewBox="0.00 0.00 225.50 82.00" xmlns="http://www.w3.org/2000/svg" xmlns:xlink="http://www.w3.org/1999/xlink">
<g id="graph0" class="graph" transform="scale(1 1) rotate(0) translate(4 78)">
<title>src/stlsupport.h</title>
<!-- Node1 -->
<g id="Node000001" class="node">
<title>Node1</title>
<g id="a_Node000001"><a xlink:title=" ">
<polygon fill="#999999" stroke="#666666" points="153,-74 61,-74 61,-55 153,-55 153,-74"/>
<text text-anchor="middle" x="107" y="-62" font-family="Helvetica,sans-Serif" font-size="10.00">src/stlsupport.h</text>
</a>
</g>
</g>
<!-- Node2 -->
<g id="Node000002" class="node">
<title>Node2</title>
<g id="a_Node000002"><a xlink:href="../../dc/d98/doxygen_8cpp.html" target="_top" xlink:title=" ">
<polygon fill="white" stroke="#666666" points="96,-19 0,-19 0,0 96,0 96,-19"/>
<text text-anchor="middle" x="48" y="-7" font-family="Helvetica,sans-Serif" font-size="10.00">src/doxygen.cpp</text>
</a>
</g>
</g>
<!-- Node1&#45;&gt;Node2 -->
<g id="edge1_Node000001_Node000002" class="edge">
<title>Node1&#45;&gt;Node2</title>
<g id="a_edge1_Node000001_Node000002"><a xlink:title=" ">
<path fill="none" stroke="#63b8ff" d="M89.8,-48.04C79.33,-38.64 66.35,-26.98 57.65,-19.17"/>
<polygon fill="#63b8ff" stroke="#63b8ff" points="87.74,-50.91 97.52,-54.98 92.42,-45.7 87.74,-50.91"/>
</a>
</g>
</g>
<!-- Node3 -->
<g id="Node000003" class="node">
<title>Node3</title>
<g id="a_Node000003"><a xlink:href="../../d9/da1/stlsupport_8cpp.html" target="_top" xlink:title=" ">
<polygon fill="white" stroke="#666666" points="217.5,-19 114.5,-19 114.5,0 217.5,0 217.5,-19"/>
<text text-anchor="middle" x="166" y="-7" font-family="Helvetica,sans-Serif" font-size="10.00">src/stlsupport.cpp</text>
</a>
</g>
</g>
<!-- Node1&#45;&gt;Node3 -->
<g id="edge2_Node000001_Node000003" class="edge">
<title>Node1&#45;&gt;Node3</title>
<g id="a_edge2_Node000001_Node000003"><a xlink:title=" ">
<path fill="none" stroke="#63b8ff" d="M124.2,-48.04C134.67,-38.64 147.65,-26.98 156.35,-19.17"/>
<polygon fill="#63b8ff" stroke="#63b8ff" points="121.58,-45.7 116.48,-54.98 126.26,-50.91 121.58,-45.7"/>
</a>
</g>
</g>
</g>
</svg>
