<?xml version="1.0" encoding="UTF-8" standalone="no"?>
<!DOCTYPE svg PUBLIC "-//W3C//DTD SVG 1.1//EN"
 "http://www.w3.org/Graphics/SVG/1.1/DTD/svg11.dtd">
<!-- Generated by graphviz version 2.43.0 (0)
 -->
<!-- Title: ConfigContext::Private Pages: 1 -->
<svg width="746pt" height="108pt"
 viewBox="0.00 0.00 746.00 108.00" xmlns="http://www.w3.org/2000/svg" xmlns:xlink="http://www.w3.org/1999/xlink">
<g id="graph0" class="graph" transform="scale(1 1) rotate(0) translate(4 104)">
<title>ConfigContext::Private</title>
<!-- Node1 -->
<g id="Node000001" class="node">
<title>Node1</title>
<g id="a_Node000001"><a xlink:title=" ">
<polygon fill="#999999" stroke="#666666" points="738,-62 612,-62 612,-43 738,-43 738,-62"/>
<text text-anchor="middle" x="675" y="-50" font-family="Helvetica,sans-Serif" font-size="10.00">ConfigContext::Private</text>
</a>
</g>
</g>
<!-- Node2 -->
<g id="Node000002" class="node">
<title>Node2</title>
<g id="a_Node000002"><a xlink:href="../../d7/dc1/class_cached_item.html" target="_top" xlink:title=" ">
<polygon fill="white" stroke="#666666" points="497.5,-100 348.5,-100 348.5,-59 497.5,-59 497.5,-100"/>
<text text-anchor="start" x="356.5" y="-88" font-family="Helvetica,sans-Serif" font-size="10.00">CachedItem&lt; StringVector,</text>
<text text-anchor="start" x="356.5" y="-77" font-family="Helvetica,sans-Serif" font-size="10.00"> ConfigContext::Private,</text>
<text text-anchor="middle" x="423" y="-66" font-family="Helvetica,sans-Serif" font-size="10.00"> &amp;Private::createFields &gt;</text>
</a>
</g>
</g>
<!-- Node2&#45;&gt;Node1 -->
<g id="edge1_Node000001_Node000002" class="edge">
<title>Node2&#45;&gt;Node1</title>
<g id="a_edge1_Node000001_Node000002"><a xlink:title=" ">
<path fill="none" stroke="#9a32cd" stroke-dasharray="5,2" d="M508.04,-70.42C541.99,-66.76 580.48,-62.6 611.84,-59.21"/>
<polygon fill="#9a32cd" stroke="#9a32cd" points="507.22,-66.99 497.66,-71.55 507.97,-73.95 507.22,-66.99"/>
</a>
</g>
<text text-anchor="middle" x="558.5" y="-70.5" font-family="Helvetica,sans-Serif" font-size="10.00" fill="grey"> m_fields</text>
</g>
<!-- Node3 -->
<g id="Node000003" class="node">
<title>Node3</title>
<g id="a_Node000003"><a xlink:href="../../d7/dc1/class_cached_item.html" target="_top" xlink:title="Wrapper for data that needs to be cached.">
<polygon fill="white" stroke="#666666" points="139,-64.5 0,-64.5 0,-34.5 139,-34.5 139,-64.5"/>
<text text-anchor="start" x="8" y="-52.5" font-family="Helvetica,sans-Serif" font-size="10.00">CachedItem&lt; T, TOwner,</text>
<text text-anchor="middle" x="69.5" y="-41.5" font-family="Helvetica,sans-Serif" font-size="10.00"> creator &gt;</text>
</a>
</g>
</g>
<!-- Node3&#45;&gt;Node2 -->
<g id="edge2_Node000002_Node000003" class="edge">
<title>Node3&#45;&gt;Node2</title>
<g id="a_edge2_Node000002_Node000003"><a xlink:title=" ">
<path fill="none" stroke="orange" stroke-dasharray="5,2" d="M149.22,-56.22C208.83,-61.31 290.11,-68.24 348.41,-73.22"/>
<polygon fill="orange" stroke="orange" points="149.37,-52.72 139.11,-55.36 148.77,-59.69 149.37,-52.72"/>
</a>
</g>
<text text-anchor="start" x="157" y="-84.5" font-family="Helvetica,sans-Serif" font-size="10.00" fill="grey"> &lt; StringVector, ConfigContext</text>
<text text-anchor="middle" x="240" y="-73.5" font-family="Helvetica,sans-Serif" font-size="10.00" fill="grey">::Private, &amp;Private::createFields &gt;</text>
</g>
<!-- Node4 -->
<g id="Node000004" class="node">
<title>Node4</title>
<g id="a_Node000004"><a xlink:href="../../d7/dc1/class_cached_item.html" target="_top" xlink:title=" ">
<polygon fill="white" stroke="#666666" points="505,-41 341,-41 341,0 505,0 505,-41"/>
<text text-anchor="start" x="349" y="-29" font-family="Helvetica,sans-Serif" font-size="10.00">CachedItem&lt; ConfigData,</text>
<text text-anchor="start" x="349" y="-18" font-family="Helvetica,sans-Serif" font-size="10.00"> ConfigContext::Private,</text>
<text text-anchor="middle" x="423" y="-7" font-family="Helvetica,sans-Serif" font-size="10.00"> &amp;Private::createConfigData &gt;</text>
</a>
</g>
</g>
<!-- Node3&#45;&gt;Node4 -->
<g id="edge4_Node000004_Node000003" class="edge">
<title>Node3&#45;&gt;Node4</title>
<g id="a_edge4_Node000004_Node000003"><a xlink:title=" ">
<path fill="none" stroke="orange" stroke-dasharray="5,2" d="M121.99,-31.45C133.38,-28.18 145.49,-25.26 157,-23.5 218.17,-14.15 288.22,-13.8 340.92,-15.57"/>
<polygon fill="orange" stroke="orange" points="120.76,-28.17 112.19,-34.39 122.78,-34.87 120.76,-28.17"/>
</a>
</g>
<text text-anchor="start" x="161.5" y="-48.5" font-family="Helvetica,sans-Serif" font-size="10.00" fill="grey"> &lt; ConfigData, ConfigContext</text>
<text text-anchor="start" x="161.5" y="-37.5" font-family="Helvetica,sans-Serif" font-size="10.00" fill="grey">::Private, &amp;Private::createConfig</text>
<text text-anchor="middle" x="240" y="-26.5" font-family="Helvetica,sans-Serif" font-size="10.00" fill="grey">Data &gt;</text>
</g>
<!-- Node4&#45;&gt;Node1 -->
<g id="edge3_Node000001_Node000004" class="edge">
<title>Node4&#45;&gt;Node1</title>
<g id="a_edge3_Node000001_Node000004"><a xlink:title=" ">
<path fill="none" stroke="#9a32cd" stroke-dasharray="5,2" d="M515.45,-32.21C547.51,-36.31 582.75,-40.82 611.85,-44.54"/>
<polygon fill="#9a32cd" stroke="#9a32cd" points="515.53,-28.69 505.17,-30.89 514.64,-35.63 515.53,-28.69"/>
</a>
</g>
<text text-anchor="middle" x="558.5" y="-44.5" font-family="Helvetica,sans-Serif" font-size="10.00" fill="grey"> m_configData</text>
</g>
</g>
</svg>
