<?xml version="1.0" encoding="UTF-8" standalone="no"?>
<!DOCTYPE svg PUBLIC "-//W3C//DTD SVG 1.1//EN"
 "http://www.w3.org/Graphics/SVG/1.1/DTD/svg11.dtd">
<!-- Generated by graphviz version 2.43.0 (0)
 -->
<!-- Title: src/resourcemgr.cpp Pages: 1 -->
<!--zoomable 302 -->

<svg id="main" version="1.1" xmlns="http://www.w3.org/2000/svg" xmlns:xlink="http://www.w3.org/1999/xlink" xml:space="preserve">

<style type="text/css"><![CDATA[
.node, .edge {opacity: 0.7;}
.node.selected, .edge.selected {opacity: 1;}
.edge:hover path { stroke: red; }
.edge:hover polygon { stroke: red; fill: red; }
]]></style>

<defs>
  <circle id="rim" cx="0" cy="0" r="7"/>
  <circle id="rim2" cx="0" cy="0" r="3.5"/>
  <g id="zoomPlus">
    <use xlink:href="#rim" fill="#404040"><set attributeName="fill" to="#808080" begin="zoomplus.mouseover" end="zoomplus.mouseout"/></use>
    <path d="M-4,0h8M0,-4v8" fill="none" stroke="white" stroke-width="1.5" pointer-events="none"/>
  </g>
  <g id="zoomMin">
    <use xlink:href="#rim" fill="#404040"><set attributeName="fill" to="#808080" begin="zoomminus.mouseover" end="zoomminus.mouseout"/></use>
    <path d="M-4,0h8" fill="none" stroke="white" stroke-width="1.5" pointer-events="none"/>
  </g>
  <g id="arrowUp" transform="translate(30 24)">
    <use xlink:href="#rim"/>
    <path pointer-events="none" fill="none" stroke="white" stroke-width="1.5" d="M0,-3.0v7 M-2.5,-0.5L0,-3.0L2.5,-0.5"/>
  </g>
  <g id="arrowRight" transform="rotate(90) translate(36 -43)">
    <use xlink:href="#rim"/>
    <path pointer-events="none" fill="none" stroke="white" stroke-width="1.5" d="M0,-3.0v7 M-2.5,-0.5L0,-3.0L2.5,-0.5"/>
  </g>
  <g id="arrowDown" transform="rotate(180) translate(-30 -48)">
    <use xlink:href="#rim"/>
    <path pointer-events="none" fill="none" stroke="white" stroke-width="1.5" d="M0,-3.0v7 M-2.5,-0.5L0,-3.0L2.5,-0.5"/>
  </g>
  <g id="arrowLeft" transform="rotate(270) translate(-36 17)">
    <use xlink:href="#rim"/>
    <path pointer-events="none" fill="none" stroke="white" stroke-width="1.5" d="M0,-3.0v7 M-2.5,-0.5L0,-3.0L2.5,-0.5"/>
  </g>
  <g id="resetDef">
    <use xlink:href="#rim2" fill="#404040"><set attributeName="fill" to="#808080" begin="reset.mouseover" end="reset.mouseout"/></use>
  </g>
</defs>
<script type="application/ecmascript" xlink:href="../../svg.min.js"/>
<svg id="graph" class="graph" data-view-width="1229" data-view-height="302" data-section-id="dynsection-0">
<g id="viewport">
<title>src/resourcemgr.cpp</title>
<!-- Node1 -->
<g id="Node000001" class="node">
<title>Node1</title>
<g id="a_Node000001"><a xlink:title=" ">
<polygon fill="#999999" stroke="#666666" points="467.5,-294 352.5,-294 352.5,-275 467.5,-275 467.5,-294"/>
<text text-anchor="middle" x="410" y="-282" font-family="Helvetica,sans-Serif" font-size="10.00">src/resourcemgr.cpp</text>
</a>
</g>
</g>
<!-- Node2 -->
<g id="Node000002" class="node">
<title>Node2</title>
<g id="a_Node000002"><a xlink:href="../../d6/d07/resourcemgr_8h.html" target="_top" xlink:title=" ">
<polygon fill="white" stroke="#666666" points="375,-239 289,-239 289,-220 375,-220 375,-239"/>
<text text-anchor="middle" x="332" y="-227" font-family="Helvetica,sans-Serif" font-size="10.00">resourcemgr.h</text>
</a>
</g>
</g>
<!-- Node1&#45;&gt;Node2 -->
<g id="edge1_Node000001_Node000002" class="edge">
<title>Node1&#45;&gt;Node2</title>
<g id="a_edge1_Node000001_Node000002"><a xlink:title=" ">
<path fill="none" stroke="#63b8ff" d="M397.47,-274.98C385.6,-266.92 367.54,-254.65 353.39,-245.03"/>
<polygon fill="#63b8ff" stroke="#63b8ff" points="355,-241.9 344.76,-239.17 351.06,-247.69 355,-241.9"/>
</a>
</g>
</g>
<!-- Node4 -->
<g id="Node000004" class="node">
<title>Node4</title>
<g id="a_Node000004"><a xlink:title=" ">
<polygon fill="#e0e0e0" stroke="#999999" points="202,-184 144,-184 144,-165 202,-165 202,-184"/>
<text text-anchor="middle" x="173" y="-172" font-family="Helvetica,sans-Serif" font-size="10.00">memory</text>
</a>
</g>
</g>
<!-- Node1&#45;&gt;Node4 -->
<g id="edge20_Node000001_Node000004" class="edge">
<title>Node1&#45;&gt;Node4</title>
<g id="a_edge20_Node000001_Node000004"><a xlink:title=" ">
<path fill="none" stroke="#63b8ff" d="M379.37,-274.96C352.58,-267.04 312.92,-254.2 280,-239 248.74,-224.56 214.92,-203.48 193.85,-189.63"/>
<polygon fill="#63b8ff" stroke="#63b8ff" points="195.65,-186.62 185.39,-184 191.77,-192.45 195.65,-186.62"/>
</a>
</g>
</g>
<!-- Node9 -->
<g id="Node000009" class="node">
<title>Node9</title>
<g id="a_Node000009"><a xlink:title=" ">
<polygon fill="#e0e0e0" stroke="#999999" points="221,-19 171,-19 171,0 221,0 221,-19"/>
<text text-anchor="middle" x="196" y="-7" font-family="Helvetica,sans-Serif" font-size="10.00">cstdint</text>
</a>
</g>
</g>
<!-- Node1&#45;&gt;Node9 -->
<g id="edge18_Node000001_Node000009" class="edge">
<title>Node1&#45;&gt;Node9</title>
<g id="a_edge18_Node000001_Node000009"><a xlink:title=" ">
<path fill="none" stroke="#63b8ff" d="M352.13,-280.31C239.11,-272.49 0,-247.45 0,-175.5 0,-175.5 0,-175.5 0,-118.5 0,-45.9 104.44,-21.74 160.84,-13.99"/>
<polygon fill="#63b8ff" stroke="#63b8ff" points="161.3,-17.46 170.78,-12.73 160.42,-10.52 161.3,-17.46"/>
</a>
</g>
</g>
<!-- Node14 -->
<g id="Node000014" class="node">
<title>Node14</title>
<g id="a_Node000014"><a xlink:title=" ">
<polygon fill="#e0e0e0" stroke="#999999" points="853,-19 809,-19 809,0 853,0 853,-19"/>
<text text-anchor="middle" x="831" y="-7" font-family="Helvetica,sans-Serif" font-size="10.00">string</text>
</a>
</g>
</g>
<!-- Node1&#45;&gt;Node14 -->
<g id="edge21_Node000001_Node000014" class="edge">
<title>Node1&#45;&gt;Node14</title>
<g id="a_edge21_Node000001_Node000014"><a xlink:title=" ">
<path fill="none" stroke="#63b8ff" d="M467.6,-281.88C652.66,-275.93 1220,-251.49 1220,-175.5 1220,-175.5 1220,-175.5 1220,-118.5 1220,-89.04 1223.53,-73.97 1201,-55 1150.32,-12.32 943.92,-9.45 863.39,-10.01"/>
<polygon fill="#63b8ff" stroke="#63b8ff" points="863.3,-6.51 853.33,-10.1 863.37,-13.51 863.3,-6.51"/>
</a>
</g>
</g>
<!-- Node17 -->
<g id="Node000017" class="node">
<title>Node17</title>
<g id="a_Node000017"><a xlink:title=" ">
<polygon fill="#e0e0e0" stroke="#999999" points="1192,-74 1154,-74 1154,-55 1192,-55 1192,-74"/>
<text text-anchor="middle" x="1173" y="-62" font-family="Helvetica,sans-Serif" font-size="10.00">map</text>
</a>
</g>
</g>
<!-- Node1&#45;&gt;Node17 -->
<g id="edge19_Node000001_Node000017" class="edge">
<title>Node1&#45;&gt;Node17</title>
<g id="a_edge19_Node000001_Node000017"><a xlink:title=" ">
<path fill="none" stroke="#63b8ff" d="M467.53,-282.11C546.06,-279.09 690.68,-269.48 810,-239 872.37,-223.06 885.58,-211.04 944,-184 1020.13,-148.76 1107.52,-101.61 1148.88,-78.88"/>
<polygon fill="#63b8ff" stroke="#63b8ff" points="1150.62,-81.92 1157.68,-74.02 1147.24,-75.79 1150.62,-81.92"/>
</a>
</g>
</g>
<!-- Node18 -->
<g id="Node000018" class="node">
<title>Node18</title>
<g id="a_Node000018"><a xlink:href="../../d2/d0d/message_8h.html" target="_top" xlink:title=" ">
<polygon fill="white" stroke="#666666" points="523,-239 453,-239 453,-220 523,-220 523,-239"/>
<text text-anchor="middle" x="488" y="-227" font-family="Helvetica,sans-Serif" font-size="10.00">message.h</text>
</a>
</g>
</g>
<!-- Node1&#45;&gt;Node18 -->
<g id="edge22_Node000001_Node000018" class="edge">
<title>Node1&#45;&gt;Node18</title>
<g id="a_edge22_Node000001_Node000018"><a xlink:title=" ">
<path fill="none" stroke="#63b8ff" d="M422.53,-274.98C434.4,-266.92 452.46,-254.65 466.61,-245.03"/>
<polygon fill="#63b8ff" stroke="#63b8ff" points="468.94,-247.69 475.24,-239.17 465,-241.9 468.94,-247.69"/>
</a>
</g>
</g>
<!-- Node22 -->
<g id="Node000022" class="node">
<title>Node22</title>
<g id="a_Node000022"><a xlink:href="../../d2/de2/portable_8h.html" target="_top" xlink:title="Portable versions of functions that are platform dependent.">
<polygon fill="white" stroke="#666666" points="126,-184 60,-184 60,-165 126,-165 126,-184"/>
<text text-anchor="middle" x="93" y="-172" font-family="Helvetica,sans-Serif" font-size="10.00">portable.h</text>
</a>
</g>
</g>
<!-- Node1&#45;&gt;Node22 -->
<g id="edge28_Node000001_Node000022" class="edge">
<title>Node1&#45;&gt;Node22</title>
<g id="a_edge28_Node000001_Node000022"><a xlink:title=" ">
<path fill="none" stroke="#63b8ff" d="M370.68,-274.99C335.89,-267.05 283.99,-254.16 240,-239 196.79,-224.11 148.45,-202.15 119.39,-188.35"/>
<polygon fill="#63b8ff" stroke="#63b8ff" points="120.84,-185.16 110.31,-184 117.82,-191.48 120.84,-185.16"/>
</a>
</g>
</g>
<!-- Node31 -->
<g id="Node000031" class="node">
<title>Node31</title>
<g id="a_Node000031"><a xlink:href="../../d8/d3c/util_8h.html" target="_top" xlink:title="A bunch of utility functions.">
<polygon fill="white" stroke="#666666" points="800.5,-239 759.5,-239 759.5,-220 800.5,-220 800.5,-239"/>
<text text-anchor="middle" x="780" y="-227" font-family="Helvetica,sans-Serif" font-size="10.00">util.h</text>
</a>
</g>
</g>
<!-- Node1&#45;&gt;Node31 -->
<g id="edge43_Node000001_Node000031" class="edge">
<title>Node1&#45;&gt;Node31</title>
<g id="a_edge43_Node000001_Node000031"><a xlink:title=" ">
<path fill="none" stroke="#63b8ff" d="M467.81,-275.22C547.19,-263.85 687.12,-243.8 749.04,-234.94"/>
<polygon fill="#63b8ff" stroke="#63b8ff" points="749.91,-238.35 759.31,-233.46 748.92,-231.42 749.91,-238.35"/>
</a>
</g>
</g>
<!-- Node3 -->
<g id="Node000003" class="node">
<title>Node3</title>
<g id="a_Node000003"><a xlink:title=" ">
<polygon fill="#e0e0e0" stroke="#999999" points="303.5,-184 220.5,-184 220.5,-165 303.5,-165 303.5,-184"/>
<text text-anchor="middle" x="262" y="-172" font-family="Helvetica,sans-Serif" font-size="10.00">initializer_list</text>
</a>
</g>
</g>
<!-- Node2&#45;&gt;Node3 -->
<g id="edge2_Node000002_Node000003" class="edge">
<title>Node2&#45;&gt;Node3</title>
<g id="a_edge2_Node000002_Node000003"><a xlink:title=" ">
<path fill="none" stroke="#63b8ff" d="M320.75,-219.98C310.2,-212 294.2,-199.88 281.56,-190.31"/>
<polygon fill="#63b8ff" stroke="#63b8ff" points="283.54,-187.42 273.45,-184.17 279.31,-193 283.54,-187.42"/>
</a>
</g>
</g>
<!-- Node2&#45;&gt;Node4 -->
<g id="edge3_Node000002_Node000004" class="edge">
<title>Node2&#45;&gt;Node4</title>
<g id="a_edge3_Node000002_Node000004"><a xlink:title=" ">
<path fill="none" stroke="#63b8ff" d="M306.45,-219.98C279.88,-211.13 238.06,-197.19 208.33,-187.28"/>
<polygon fill="#63b8ff" stroke="#63b8ff" points="209.34,-183.92 198.75,-184.08 207.13,-190.56 209.34,-183.92"/>
</a>
</g>
</g>
<!-- Node5 -->
<g id="Node000005" class="node">
<title>Node5</title>
<g id="a_Node000005"><a xlink:href="../../d7/dfc/construct_8h.html" target="_top" xlink:title=" ">
<polygon fill="white" stroke="#666666" points="619.5,-184 548.5,-184 548.5,-165 619.5,-165 619.5,-184"/>
<text text-anchor="middle" x="584" y="-172" font-family="Helvetica,sans-Serif" font-size="10.00">construct.h</text>
</a>
</g>
</g>
<!-- Node2&#45;&gt;Node5 -->
<g id="edge4_Node000002_Node000005" class="edge">
<title>Node2&#45;&gt;Node5</title>
<g id="a_edge4_Node000002_Node000005"><a xlink:title=" ">
<path fill="none" stroke="#63b8ff" d="M372.49,-219.98C417.85,-210.44 491.22,-195.01 538.53,-185.06"/>
<polygon fill="#63b8ff" stroke="#63b8ff" points="539.43,-188.45 548.5,-182.97 537.99,-181.6 539.43,-188.45"/>
</a>
</g>
</g>
<!-- Node6 -->
<g id="Node000006" class="node">
<title>Node6</title>
<g id="a_Node000006"><a xlink:href="../../de/dec/dstring_8h.html" target="_top" xlink:title=" ">
<polygon fill="white" stroke="#666666" points="412.5,-129 353.5,-129 353.5,-110 412.5,-110 412.5,-129"/>
<text text-anchor="middle" x="383" y="-117" font-family="Helvetica,sans-Serif" font-size="10.00">dstring.h</text>
</a>
</g>
</g>
<!-- Node2&#45;&gt;Node6 -->
<g id="edge5_Node000002_Node000006" class="edge">
<title>Node2&#45;&gt;Node6</title>
<g id="a_edge5_Node000002_Node000006"><a xlink:title=" ">
<path fill="none" stroke="#63b8ff" d="M333.82,-219.97C336.66,-207.48 342.82,-183.67 352,-165 356.77,-155.3 363.49,-145.35 369.46,-137.33"/>
<polygon fill="#63b8ff" stroke="#63b8ff" points="372.39,-139.26 375.73,-129.2 366.85,-134.98 372.39,-139.26"/>
</a>
</g>
</g>
<!-- Node7 -->
<g id="Node000007" class="node">
<title>Node7</title>
<g id="a_Node000007"><a xlink:title=" ">
<polygon fill="#e0e0e0" stroke="#999999" points="445,-74 381,-74 381,-55 445,-55 445,-74"/>
<text text-anchor="middle" x="413" y="-62" font-family="Helvetica,sans-Serif" font-size="10.00">algorithm</text>
</a>
</g>
</g>
<!-- Node6&#45;&gt;Node7 -->
<g id="edge6_Node000006_Node000007" class="edge">
<title>Node6&#45;&gt;Node7</title>
<g id="a_edge6_Node000006_Node000007"><a xlink:title=" ">
<path fill="none" stroke="#63b8ff" d="M387.95,-109.75C392.06,-102.49 398.03,-91.95 403.1,-82.98"/>
<polygon fill="#63b8ff" stroke="#63b8ff" points="406.26,-84.52 408.14,-74.09 400.17,-81.07 406.26,-84.52"/>
</a>
</g>
</g>
<!-- Node8 -->
<g id="Node000008" class="node">
<title>Node8</title>
<g id="a_Node000008"><a xlink:title=" ">
<polygon fill="#e0e0e0" stroke="#999999" points="614.5,-74 565.5,-74 565.5,-55 614.5,-55 614.5,-74"/>
<text text-anchor="middle" x="590" y="-62" font-family="Helvetica,sans-Serif" font-size="10.00">cctype</text>
</a>
</g>
</g>
<!-- Node6&#45;&gt;Node8 -->
<g id="edge7_Node000006_Node000008" class="edge">
<title>Node6&#45;&gt;Node8</title>
<g id="a_edge7_Node000006_Node000008"><a xlink:title=" ">
<path fill="none" stroke="#63b8ff" d="M412.66,-110.91C450.4,-101.24 515.48,-84.58 555.43,-74.35"/>
<polygon fill="#63b8ff" stroke="#63b8ff" points="556.44,-77.71 565.26,-71.84 554.7,-70.92 556.44,-77.71"/>
</a>
</g>
</g>
<!-- Node6&#45;&gt;Node9 -->
<g id="edge8_Node000006_Node000009" class="edge">
<title>Node6&#45;&gt;Node9</title>
<g id="a_edge8_Node000006_Node000009"><a xlink:title=" ">
<path fill="none" stroke="#63b8ff" d="M378.53,-109.75C371.1,-96.09 354.96,-69.74 334,-55 302.96,-33.18 260.63,-21.63 231.07,-15.82"/>
<polygon fill="#63b8ff" stroke="#63b8ff" points="231.65,-12.36 221.18,-13.99 230.38,-19.25 231.65,-12.36"/>
</a>
</g>
</g>
<!-- Node10 -->
<g id="Node000010" class="node">
<title>Node10</title>
<g id="a_Node000010"><a xlink:title=" ">
<polygon fill="#e0e0e0" stroke="#999999" points="113,-74 67,-74 67,-55 113,-55 113,-74"/>
<text text-anchor="middle" x="90" y="-62" font-family="Helvetica,sans-Serif" font-size="10.00">cstdio</text>
</a>
</g>
</g>
<!-- Node6&#45;&gt;Node10 -->
<g id="edge9_Node000006_Node000010" class="edge">
<title>Node6&#45;&gt;Node10</title>
<g id="a_edge9_Node000006_Node000010"><a xlink:title=" ">
<path fill="none" stroke="#63b8ff" d="M353.48,-114.36C306.68,-107.6 212.45,-93.22 123.04,-74.05"/>
<polygon fill="#63b8ff" stroke="#63b8ff" points="123.53,-70.58 113.01,-71.88 122.04,-77.42 123.53,-70.58"/>
</a>
</g>
</g>
<!-- Node11 -->
<g id="Node000011" class="node">
<title>Node11</title>
<g id="a_Node000011"><a xlink:title=" ">
<polygon fill="#e0e0e0" stroke="#999999" points="180.5,-74 131.5,-74 131.5,-55 180.5,-55 180.5,-74"/>
<text text-anchor="middle" x="156" y="-62" font-family="Helvetica,sans-Serif" font-size="10.00">cstdlib</text>
</a>
</g>
</g>
<!-- Node6&#45;&gt;Node11 -->
<g id="edge10_Node000006_Node000011" class="edge">
<title>Node6&#45;&gt;Node11</title>
<g id="a_edge10_Node000006_Node000011"><a xlink:title=" ">
<path fill="none" stroke="#63b8ff" d="M353.2,-111.81C317.11,-103.66 254.2,-89.34 190.34,-74.05"/>
<polygon fill="#63b8ff" stroke="#63b8ff" points="191.04,-70.61 180.5,-71.68 189.41,-77.42 191.04,-70.61"/>
</a>
</g>
</g>
<!-- Node12 -->
<g id="Node000012" class="node">
<title>Node12</title>
<g id="a_Node000012"><a xlink:title=" ">
<polygon fill="#e0e0e0" stroke="#999999" points="249,-74 199,-74 199,-55 249,-55 249,-74"/>
<text text-anchor="middle" x="224" y="-62" font-family="Helvetica,sans-Serif" font-size="10.00">cstring</text>
</a>
</g>
</g>
<!-- Node6&#45;&gt;Node12 -->
<g id="edge11_Node000006_Node000012" class="edge">
<title>Node6&#45;&gt;Node12</title>
<g id="a_edge11_Node000006_Node000012"><a xlink:title=" ">
<path fill="none" stroke="#63b8ff" d="M357.45,-109.98C330.72,-101.07 288.57,-87.02 258.8,-77.1"/>
<polygon fill="#63b8ff" stroke="#63b8ff" points="259.81,-73.75 249.22,-73.91 257.6,-80.39 259.81,-73.75"/>
</a>
</g>
</g>
<!-- Node13 -->
<g id="Node000013" class="node">
<title>Node13</title>
<g id="a_Node000013"><a xlink:title=" ">
<polygon fill="#e0e0e0" stroke="#999999" points="324.5,-74 267.5,-74 267.5,-55 324.5,-55 324.5,-74"/>
<text text-anchor="middle" x="296" y="-62" font-family="Helvetica,sans-Serif" font-size="10.00">ostream</text>
</a>
</g>
</g>
<!-- Node6&#45;&gt;Node13 -->
<g id="edge12_Node000006_Node000013" class="edge">
<title>Node6&#45;&gt;Node13</title>
<g id="a_edge12_Node000006_Node000013"><a xlink:title=" ">
<path fill="none" stroke="#63b8ff" d="M369.02,-109.98C355.53,-101.77 334.87,-89.18 318.96,-79.49"/>
<polygon fill="#63b8ff" stroke="#63b8ff" points="320.59,-76.38 310.23,-74.17 316.95,-82.36 320.59,-76.38"/>
</a>
</g>
</g>
<!-- Node6&#45;&gt;Node14 -->
<g id="edge13_Node000006_Node000014" class="edge">
<title>Node6&#45;&gt;Node14</title>
<g id="a_edge13_Node000006_Node000014"><a xlink:title=" ">
<path fill="none" stroke="#63b8ff" d="M412.64,-109.99C440.28,-101.76 482.45,-88.44 518,-74 535.86,-66.74 538.62,-60.83 557,-55 641.7,-28.13 746.53,-16.88 798.55,-12.69"/>
<polygon fill="#63b8ff" stroke="#63b8ff" points="799.13,-16.16 808.83,-11.9 798.59,-9.18 799.13,-16.16"/>
</a>
</g>
</g>
<!-- Node15 -->
<g id="Node000015" class="node">
<title>Node15</title>
<g id="a_Node000015"><a xlink:title=" ">
<polygon fill="#e0e0e0" stroke="#999999" points="705.5,-74 632.5,-74 632.5,-55 705.5,-55 705.5,-74"/>
<text text-anchor="middle" x="669" y="-62" font-family="Helvetica,sans-Serif" font-size="10.00">string_view</text>
</a>
</g>
</g>
<!-- Node6&#45;&gt;Node15 -->
<g id="edge14_Node000006_Node000015" class="edge">
<title>Node6&#45;&gt;Node15</title>
<g id="a_edge14_Node000006_Node000015"><a xlink:title=" ">
<path fill="none" stroke="#63b8ff" d="M412.69,-113.06C456.41,-105.04 540.94,-89.49 622.27,-74.32"/>
<polygon fill="#63b8ff" stroke="#63b8ff" points="622.98,-77.75 632.17,-72.47 621.69,-70.87 622.98,-77.75"/>
</a>
</g>
</g>
<!-- Node16 -->
<g id="Node000016" class="node">
<title>Node16</title>
<g id="a_Node000016"><a xlink:href="../../db/d7c/utf8_8h.html" target="_top" xlink:title="Various UTF8 related helper functions.">
<polygon fill="white" stroke="#666666" points="508.5,-74 463.5,-74 463.5,-55 508.5,-55 508.5,-74"/>
<text text-anchor="middle" x="486" y="-62" font-family="Helvetica,sans-Serif" font-size="10.00">utf8.h</text>
</a>
</g>
</g>
<!-- Node6&#45;&gt;Node16 -->
<g id="edge15_Node000006_Node000016" class="edge">
<title>Node6&#45;&gt;Node16</title>
<g id="a_edge15_Node000006_Node000016"><a xlink:title=" ">
<path fill="none" stroke="#63b8ff" d="M399.55,-109.98C415.89,-101.57 441.13,-88.59 460.13,-78.81"/>
<polygon fill="#63b8ff" stroke="#63b8ff" points="461.86,-81.86 469.15,-74.17 458.66,-75.63 461.86,-81.86"/>
</a>
</g>
</g>
<!-- Node16&#45;&gt;Node9 -->
<g id="edge16_Node000016_Node000009" class="edge">
<title>Node16&#45;&gt;Node9</title>
<g id="a_edge16_Node000016_Node000009"><a xlink:title=" ">
<path fill="none" stroke="#63b8ff" d="M463.33,-57.21C460.21,-56.42 457.03,-55.66 454,-55 374.82,-37.69 280.77,-22.9 230.98,-15.52"/>
<polygon fill="#63b8ff" stroke="#63b8ff" points="231.45,-12.06 221.05,-14.06 230.43,-18.98 231.45,-12.06"/>
</a>
</g>
</g>
<!-- Node16&#45;&gt;Node14 -->
<g id="edge17_Node000016_Node000014" class="edge">
<title>Node16&#45;&gt;Node14</title>
<g id="a_edge17_Node000016_Node000014"><a xlink:title=" ">
<path fill="none" stroke="#63b8ff" d="M508.64,-57.99C513.37,-56.92 518.34,-55.87 523,-55 623.04,-36.32 742.61,-21.04 798.81,-14.26"/>
<polygon fill="#63b8ff" stroke="#63b8ff" points="799.35,-17.73 808.86,-13.06 798.52,-10.77 799.35,-17.73"/>
</a>
</g>
</g>
<!-- Node18&#45;&gt;Node6 -->
<g id="edge27_Node000018_Node000006" class="edge">
<title>Node18&#45;&gt;Node6</title>
<g id="a_edge27_Node000018_Node000006"><a xlink:title=" ">
<path fill="none" stroke="#63b8ff" d="M523.12,-225.2C574.44,-219.04 660.58,-202.81 629,-165 603.22,-134.14 485.9,-124.64 423.04,-121.75"/>
<polygon fill="#63b8ff" stroke="#63b8ff" points="422.85,-118.24 412.71,-121.31 422.55,-125.23 422.85,-118.24"/>
</a>
</g>
</g>
<!-- Node19 -->
<g id="Node000019" class="node">
<title>Node19</title>
<g id="a_Node000019"><a xlink:title=" ">
<polygon fill="#e0e0e0" stroke="#999999" points="427.5,-184 360.5,-184 360.5,-165 427.5,-165 427.5,-184"/>
<text text-anchor="middle" x="394" y="-172" font-family="Helvetica,sans-Serif" font-size="10.00">fmt/core.h</text>
</a>
</g>
</g>
<!-- Node18&#45;&gt;Node19 -->
<g id="edge23_Node000018_Node000019" class="edge">
<title>Node18&#45;&gt;Node19</title>
<g id="a_edge23_Node000018_Node000019"><a xlink:title=" ">
<path fill="none" stroke="#63b8ff" d="M472.9,-219.98C458.18,-211.69 435.58,-198.94 418.33,-189.22"/>
<polygon fill="#63b8ff" stroke="#63b8ff" points="419.81,-186.03 409.38,-184.17 416.37,-192.13 419.81,-186.03"/>
</a>
</g>
</g>
<!-- Node20 -->
<g id="Node000020" class="node">
<title>Node20</title>
<g id="a_Node000020"><a xlink:title=" ">
<polygon fill="#e0e0e0" stroke="#999999" points="530.5,-184 445.5,-184 445.5,-165 530.5,-165 530.5,-184"/>
<text text-anchor="middle" x="488" y="-172" font-family="Helvetica,sans-Serif" font-size="10.00">fmt/compile.h</text>
</a>
</g>
</g>
<!-- Node18&#45;&gt;Node20 -->
<g id="edge24_Node000018_Node000020" class="edge">
<title>Node18&#45;&gt;Node20</title>
<g id="a_edge24_Node000018_Node000020"><a xlink:title=" ">
<path fill="none" stroke="#63b8ff" d="M488,-219.75C488,-212.8 488,-202.85 488,-194.13"/>
<polygon fill="#63b8ff" stroke="#63b8ff" points="491.5,-194.09 488,-184.09 484.5,-194.09 491.5,-194.09"/>
</a>
</g>
</g>
<!-- Node21 -->
<g id="Node000021" class="node">
<title>Node21</title>
<g id="a_Node000021"><a xlink:href="../../d9/d49/types_8h.html" target="_top" xlink:title="This file contains a number of basic enums and types.">
<polygon fill="white" stroke="#666666" points="729.5,-184 676.5,-184 676.5,-165 729.5,-165 729.5,-184"/>
<text text-anchor="middle" x="703" y="-172" font-family="Helvetica,sans-Serif" font-size="10.00">types.h</text>
</a>
</g>
</g>
<!-- Node18&#45;&gt;Node21 -->
<g id="edge25_Node000018_Node000021" class="edge">
<title>Node18&#45;&gt;Node21</title>
<g id="a_edge25_Node000018_Node000021"><a xlink:title=" ">
<path fill="none" stroke="#63b8ff" d="M522.54,-219.98C561.96,-210.27 626.17,-194.44 666.42,-184.52"/>
<polygon fill="#63b8ff" stroke="#63b8ff" points="667.48,-187.86 676.35,-182.07 665.8,-181.06 667.48,-187.86"/>
</a>
</g>
</g>
<!-- Node21&#45;&gt;Node6 -->
<g id="edge26_Node000021_Node000006" class="edge">
<title>Node21&#45;&gt;Node6</title>
<g id="a_edge26_Node000021_Node000006"><a xlink:title=" ">
<path fill="none" stroke="#63b8ff" d="M676.13,-167.74C671.43,-166.79 666.58,-165.84 662,-165 577.19,-149.45 477.31,-134.28 423.04,-126.29"/>
<polygon fill="#63b8ff" stroke="#63b8ff" points="423.21,-122.78 412.81,-124.79 422.19,-129.7 423.21,-122.78"/>
</a>
</g>
</g>
<!-- Node22&#45;&gt;Node6 -->
<g id="edge42_Node000022_Node000006" class="edge">
<title>Node22&#45;&gt;Node6</title>
<g id="a_edge42_Node000022_Node000006"><a xlink:title=" ">
<path fill="none" stroke="#63b8ff" d="M126,-166.75C129.04,-166.15 132.08,-165.56 135,-165 208.41,-150.99 294.29,-135.86 343.3,-127.34"/>
<polygon fill="#63b8ff" stroke="#63b8ff" points="343.93,-130.79 353.18,-125.63 342.73,-123.89 343.93,-130.79"/>
</a>
</g>
</g>
<!-- Node22&#45;&gt;Node9 -->
<g id="edge29_Node000022_Node000009" class="edge">
<title>Node22&#45;&gt;Node9</title>
<g id="a_edge29_Node000022_Node000009"><a xlink:title=" ">
<path fill="none" stroke="#63b8ff" d="M82.84,-164.81C74.1,-156.6 62.1,-143.43 57,-129 51.67,-113.95 44.07,-73.77 58,-55 81.62,-23.17 128.39,-13.66 160.9,-11.06"/>
<polygon fill="#63b8ff" stroke="#63b8ff" points="161.14,-14.55 170.91,-10.43 160.71,-7.56 161.14,-14.55"/>
</a>
</g>
</g>
<!-- Node22&#45;&gt;Node10 -->
<g id="edge30_Node000022_Node000010" class="edge">
<title>Node22&#45;&gt;Node10</title>
<g id="a_edge30_Node000022_Node000010"><a xlink:title=" ">
<path fill="none" stroke="#63b8ff" d="M126.07,-166.55C160.13,-158.65 209.79,-144.77 221,-129 225.89,-122.12 225.92,-116.86 221,-110 215.09,-101.75 159.83,-84.98 122.99,-74.55"/>
<polygon fill="#63b8ff" stroke="#63b8ff" points="123.72,-71.12 113.15,-71.79 121.83,-77.86 123.72,-71.12"/>
</a>
</g>
</g>
<!-- Node23 -->
<g id="Node000023" class="node">
<title>Node23</title>
<g id="a_Node000023"><a xlink:title=" ">
<polygon fill="#e0e0e0" stroke="#999999" points="121.5,-129 66.5,-129 66.5,-110 121.5,-110 121.5,-129"/>
<text text-anchor="middle" x="94" y="-117" font-family="Helvetica,sans-Serif" font-size="10.00">fstream</text>
</a>
</g>
</g>
<!-- Node22&#45;&gt;Node23 -->
<g id="edge31_Node000022_Node000023" class="edge">
<title>Node22&#45;&gt;Node23</title>
<g id="a_edge31_Node000022_Node000023"><a xlink:title=" ">
<path fill="none" stroke="#63b8ff" d="M93.17,-164.75C93.3,-157.8 93.48,-147.85 93.65,-139.13"/>
<polygon fill="#63b8ff" stroke="#63b8ff" points="97.15,-139.15 93.84,-129.09 90.15,-139.02 97.15,-139.15"/>
</a>
</g>
</g>
<!-- Node24 -->
<g id="Node000024" class="node">
<title>Node24</title>
<g id="a_Node000024"><a xlink:title=" ">
<polygon fill="#e0e0e0" stroke="#999999" points="212,-129 140,-129 140,-110 212,-110 212,-129"/>
<text text-anchor="middle" x="176" y="-117" font-family="Helvetica,sans-Serif" font-size="10.00">sys/types.h</text>
</a>
</g>
</g>
<!-- Node22&#45;&gt;Node24 -->
<g id="edge32_Node000022_Node000024" class="edge">
<title>Node22&#45;&gt;Node24</title>
<g id="a_edge32_Node000022_Node000024"><a xlink:title=" ">
<path fill="none" stroke="#63b8ff" d="M106.34,-164.98C119.09,-156.84 138.55,-144.41 153.67,-134.76"/>
<polygon fill="#63b8ff" stroke="#63b8ff" points="155.88,-137.5 162.42,-129.17 152.11,-131.6 155.88,-137.5"/>
</a>
</g>
</g>
<!-- Node25 -->
<g id="Node000025" class="node">
<title>Node25</title>
<g id="a_Node000025"><a xlink:href="../../d5/d75/containers_8h.html" target="_top" xlink:title=" ">
<polygon fill="white" stroke="#666666" points="986.5,-129 909.5,-129 909.5,-110 986.5,-110 986.5,-129"/>
<text text-anchor="middle" x="948" y="-117" font-family="Helvetica,sans-Serif" font-size="10.00">containers.h</text>
</a>
</g>
</g>
<!-- Node22&#45;&gt;Node25 -->
<g id="edge33_Node000022_Node000025" class="edge">
<title>Node22&#45;&gt;Node25</title>
<g id="a_edge33_Node000022_Node000025"><a xlink:title=" ">
<path fill="none" stroke="#63b8ff" d="M126.4,-166.29C129.3,-165.8 132.2,-165.36 135,-165 423.11,-128.16 772.47,-121.79 899.16,-120.71"/>
<polygon fill="#63b8ff" stroke="#63b8ff" points="899.34,-124.21 909.31,-120.63 899.28,-117.21 899.34,-124.21"/>
</a>
</g>
</g>
<!-- Node25&#45;&gt;Node14 -->
<g id="edge37_Node000025_Node000014" class="edge">
<title>Node25&#45;&gt;Node14</title>
<g id="a_edge37_Node000025_Node000014"><a xlink:title=" ">
<path fill="none" stroke="#63b8ff" d="M986.6,-116.18C1044.28,-111.3 1142.56,-96.75 1107,-55 1076,-18.6 929.22,-11.87 863.25,-10.7"/>
<polygon fill="#63b8ff" stroke="#63b8ff" points="863.07,-7.2 853.02,-10.55 862.97,-14.2 863.07,-7.2"/>
</a>
</g>
</g>
<!-- Node25&#45;&gt;Node15 -->
<g id="edge38_Node000025_Node000015" class="edge">
<title>Node25&#45;&gt;Node15</title>
<g id="a_edge38_Node000025_Node000015"><a xlink:title=" ">
<path fill="none" stroke="#63b8ff" d="M909.5,-111.19C858.94,-101.58 770.24,-84.73 715.84,-74.4"/>
<polygon fill="#63b8ff" stroke="#63b8ff" points="716.25,-70.91 705.77,-72.49 714.95,-77.79 716.25,-70.91"/>
</a>
</g>
</g>
<!-- Node25&#45;&gt;Node17 -->
<g id="edge34_Node000025_Node000017" class="edge">
<title>Node25&#45;&gt;Node17</title>
<g id="a_edge34_Node000025_Node000017"><a xlink:title=" ">
<path fill="none" stroke="#63b8ff" d="M985.95,-109.99C1024.73,-101.23 1086.65,-87.05 1140,-74 1141.26,-73.69 1142.55,-73.37 1143.85,-73.05"/>
<polygon fill="#63b8ff" stroke="#63b8ff" points="1144.99,-76.37 1153.82,-70.52 1143.27,-69.59 1144.99,-76.37"/>
</a>
</g>
</g>
<!-- Node26 -->
<g id="Node000026" class="node">
<title>Node26</title>
<g id="a_Node000026"><a xlink:title=" ">
<polygon fill="#e0e0e0" stroke="#999999" points="821,-74 789,-74 789,-55 821,-55 821,-74"/>
<text text-anchor="middle" x="805" y="-62" font-family="Helvetica,sans-Serif" font-size="10.00">set</text>
</a>
</g>
</g>
<!-- Node25&#45;&gt;Node26 -->
<g id="edge35_Node000025_Node000026" class="edge">
<title>Node25&#45;&gt;Node26</title>
<g id="a_edge35_Node000025_Node000026"><a xlink:title=" ">
<path fill="none" stroke="#63b8ff" d="M925.02,-109.98C899.26,-100.44 857.59,-84.99 830.74,-75.04"/>
<polygon fill="#63b8ff" stroke="#63b8ff" points="831.84,-71.72 821.25,-71.52 829.41,-78.28 831.84,-71.72"/>
</a>
</g>
</g>
<!-- Node27 -->
<g id="Node000027" class="node">
<title>Node27</title>
<g id="a_Node000027"><a xlink:title=" ">
<polygon fill="#e0e0e0" stroke="#999999" points="882.5,-74 839.5,-74 839.5,-55 882.5,-55 882.5,-74"/>
<text text-anchor="middle" x="861" y="-62" font-family="Helvetica,sans-Serif" font-size="10.00">stack</text>
</a>
</g>
</g>
<!-- Node25&#45;&gt;Node27 -->
<g id="edge36_Node000025_Node000027" class="edge">
<title>Node25&#45;&gt;Node27</title>
<g id="a_edge36_Node000025_Node000027"><a xlink:title=" ">
<path fill="none" stroke="#63b8ff" d="M934.02,-109.98C920.53,-101.77 899.87,-89.18 883.96,-79.49"/>
<polygon fill="#63b8ff" stroke="#63b8ff" points="885.59,-76.38 875.23,-74.17 881.95,-82.36 885.59,-76.38"/>
</a>
</g>
</g>
<!-- Node28 -->
<g id="Node000028" class="node">
<title>Node28</title>
<g id="a_Node000028"><a xlink:title=" ">
<polygon fill="#e0e0e0" stroke="#999999" points="993.5,-74 900.5,-74 900.5,-55 993.5,-55 993.5,-74"/>
<text text-anchor="middle" x="947" y="-62" font-family="Helvetica,sans-Serif" font-size="10.00">unordered_map</text>
</a>
</g>
</g>
<!-- Node25&#45;&gt;Node28 -->
<g id="edge39_Node000025_Node000028" class="edge">
<title>Node25&#45;&gt;Node28</title>
<g id="a_edge39_Node000025_Node000028"><a xlink:title=" ">
<path fill="none" stroke="#63b8ff" d="M947.83,-109.75C947.7,-102.8 947.52,-92.85 947.35,-84.13"/>
<polygon fill="#63b8ff" stroke="#63b8ff" points="950.85,-84.02 947.16,-74.09 943.85,-84.15 950.85,-84.02"/>
</a>
</g>
</g>
<!-- Node29 -->
<g id="Node000029" class="node">
<title>Node29</title>
<g id="a_Node000029"><a xlink:title=" ">
<polygon fill="#e0e0e0" stroke="#999999" points="1098,-74 1012,-74 1012,-55 1098,-55 1098,-74"/>
<text text-anchor="middle" x="1055" y="-62" font-family="Helvetica,sans-Serif" font-size="10.00">unordered_set</text>
</a>
</g>
</g>
<!-- Node25&#45;&gt;Node29 -->
<g id="edge40_Node000025_Node000029" class="edge">
<title>Node25&#45;&gt;Node29</title>
<g id="a_edge40_Node000025_Node000029"><a xlink:title=" ">
<path fill="none" stroke="#63b8ff" d="M965.19,-109.98C982.25,-101.54 1008.63,-88.47 1028.4,-78.68"/>
<polygon fill="#63b8ff" stroke="#63b8ff" points="1030.09,-81.75 1037.5,-74.17 1026.98,-75.47 1030.09,-81.75"/>
</a>
</g>
</g>
<!-- Node30 -->
<g id="Node000030" class="node">
<title>Node30</title>
<g id="a_Node000030"><a xlink:title=" ">
<polygon fill="#e0e0e0" stroke="#999999" points="770.5,-74 723.5,-74 723.5,-55 770.5,-55 770.5,-74"/>
<text text-anchor="middle" x="747" y="-62" font-family="Helvetica,sans-Serif" font-size="10.00">vector</text>
</a>
</g>
</g>
<!-- Node25&#45;&gt;Node30 -->
<g id="edge41_Node000025_Node000030" class="edge">
<title>Node25&#45;&gt;Node30</title>
<g id="a_edge41_Node000025_Node000030"><a xlink:title=" ">
<path fill="none" stroke="#63b8ff" d="M915.71,-109.98C878.68,-100.22 818.27,-84.29 780.68,-74.38"/>
<polygon fill="#63b8ff" stroke="#63b8ff" points="781.28,-70.92 770.72,-71.75 779.5,-77.69 781.28,-70.92"/>
</a>
</g>
</g>
<!-- Node31&#45;&gt;Node5 -->
<g id="edge47_Node000031_Node000005" class="edge">
<title>Node31&#45;&gt;Node5</title>
<g id="a_edge47_Node000031_Node000005"><a xlink:title=" ">
<path fill="none" stroke="#63b8ff" d="M759.4,-222.93C727.71,-214.36 666.38,-197.77 625.3,-186.67"/>
<polygon fill="#63b8ff" stroke="#63b8ff" points="626.15,-183.27 615.58,-184.04 624.32,-190.03 626.15,-183.27"/>
</a>
</g>
</g>
<!-- Node31&#45;&gt;Node8 -->
<g id="edge44_Node000031_Node000008" class="edge">
<title>Node31&#45;&gt;Node8</title>
<g id="a_edge44_Node000031_Node000008"><a xlink:title=" ">
<path fill="none" stroke="#63b8ff" d="M800.52,-225.33C839.08,-218.47 916.29,-200 891,-165 874.87,-142.69 700.08,-94.47 624.49,-74.47"/>
<polygon fill="#63b8ff" stroke="#63b8ff" points="625.08,-71.01 614.51,-71.84 623.29,-77.78 625.08,-71.01"/>
</a>
</g>
</g>
<!-- Node31&#45;&gt;Node21 -->
<g id="edge49_Node000031_Node000021" class="edge">
<title>Node31&#45;&gt;Node21</title>
<g id="a_edge49_Node000031_Node000021"><a xlink:title=" ">
<path fill="none" stroke="#63b8ff" d="M767.63,-219.98C755.91,-211.92 738.08,-199.65 724.11,-190.03"/>
<polygon fill="#63b8ff" stroke="#63b8ff" points="725.82,-186.96 715.6,-184.17 721.85,-192.72 725.82,-186.96"/>
</a>
</g>
</g>
<!-- Node31&#45;&gt;Node25 -->
<g id="edge48_Node000031_Node000025" class="edge">
<title>Node31&#45;&gt;Node25</title>
<g id="a_edge48_Node000031_Node000025"><a xlink:title=" ">
<path fill="none" stroke="#63b8ff" d="M800.7,-227.65C831.48,-225.3 889.4,-216.53 924,-184 936.47,-172.28 942.51,-153.43 945.41,-139.31"/>
<polygon fill="#63b8ff" stroke="#63b8ff" points="948.9,-139.66 947.12,-129.22 942,-138.49 948.9,-139.66"/>
</a>
</g>
</g>
<!-- Node32 -->
<g id="Node000032" class="node">
<title>Node32</title>
<g id="a_Node000032"><a xlink:title=" ">
<polygon fill="#e0e0e0" stroke="#999999" points="812.5,-184 747.5,-184 747.5,-165 812.5,-165 812.5,-184"/>
<text text-anchor="middle" x="780" y="-172" font-family="Helvetica,sans-Serif" font-size="10.00">functional</text>
</a>
</g>
</g>
<!-- Node31&#45;&gt;Node32 -->
<g id="edge45_Node000031_Node000032" class="edge">
<title>Node31&#45;&gt;Node32</title>
<g id="a_edge45_Node000031_Node000032"><a xlink:title=" ">
<path fill="none" stroke="#63b8ff" d="M780,-219.75C780,-212.8 780,-202.85 780,-194.13"/>
<polygon fill="#63b8ff" stroke="#63b8ff" points="783.5,-194.09 780,-184.09 776.5,-194.09 783.5,-194.09"/>
</a>
</g>
</g>
<!-- Node33 -->
<g id="Node000033" class="node">
<title>Node33</title>
<g id="a_Node000033"><a xlink:title=" ">
<polygon fill="#e0e0e0" stroke="#999999" points="881.5,-184 830.5,-184 830.5,-165 881.5,-165 881.5,-184"/>
<text text-anchor="middle" x="856" y="-172" font-family="Helvetica,sans-Serif" font-size="10.00">variant</text>
</a>
</g>
</g>
<!-- Node31&#45;&gt;Node33 -->
<g id="edge46_Node000031_Node000033" class="edge">
<title>Node31&#45;&gt;Node33</title>
<g id="a_edge46_Node000031_Node000033"><a xlink:title=" ">
<path fill="none" stroke="#63b8ff" d="M792.21,-219.98C803.78,-211.92 821.38,-199.65 835.16,-190.03"/>
<polygon fill="#63b8ff" stroke="#63b8ff" points="837.37,-192.76 843.57,-184.17 833.36,-187.02 837.37,-192.76"/>
</a>
</g>
</g>
</g>
</svg>

<g id="navigator" transform="translate(0 0)" fill="#404254">
  <rect fill="#f2f5e9" fill-opacity="0.5" stroke="#606060" stroke-width=".5" x="0" y="0" width="60" height="60"/>
  <use id="zoomplus" xlink:href="#zoomPlus" x="17" y="9" data-zoom="in"/>
  <use id="zoomminus" xlink:href="#zoomMin" x="42" y="9" data-zoom="out"/>
  <use id="reset" xlink:href="#resetDef" x="30" y="36" data-reset="true"/>
  <use id="arrowup" xlink:href="#arrowUp" x="0" y="0" data-pan-x="0" data-pan-y="-1"/>
  <use id="arrowright" xlink:href="#arrowRight" x="0" y="0" data-pan-x="1" data-pan-y="0"/>
  <use id="arrowdown" xlink:href="#arrowDown" x="0" y="0" data-pan-x="0" data-pan-y="1"/>
  <use id="arrowleft" xlink:href="#arrowLeft" x="0" y="0" data-pan-x="-1" data-pan-y="0"/>
</g>
<svg viewBox="0 0 15 15" width="100%" height="30px" preserveAspectRatio="xMaxYMin meet">
 <g id="arrow_out" transform="scale(0.3 0.3)">
  <a xlink:href="resourcemgr_8cpp__incl_org.svg" target="_base">
   <rect id="button" ry="5" rx="5" y="6" x="6" height="38" width="38"
        fill="#f2f5e9" fill-opacity="0.5" stroke="#606060" stroke-width="1.0"/>
   <path id="arrow"
     d="M 11.500037,31.436501 C 11.940474,20.09759 22.043105,11.32322 32.158766,21.979434 L 37.068811,17.246167 C 37.068811,17.246167 37.088388,32 37.088388,32 L 22.160133,31.978069 C 22.160133,31.978069 26.997745,27.140456 26.997745,27.140456 C 18.528582,18.264221 13.291696,25.230495 11.500037,31.436501 z"
     style="fill:#404040;"/>
  </a>
 </g>
</svg>

<style type='text/css'>
<![CDATA[
[data-mouse-over-selected='false'] { opacity: 0.7; }
[data-mouse-over-selected='true']  { opacity: 1.0; }
]]>
</style>
</svg>
