<?xml version="1.0" encoding="UTF-8" standalone="no"?>
<!DOCTYPE svg PUBLIC "-//W3C//DTD SVG 1.1//EN"
 "http://www.w3.org/Graphics/SVG/1.1/DTD/svg11.dtd">
<!-- Generated by graphviz version 2.43.0 (0)
 -->
<!-- Title: BaseClassDef Pages: 1 -->
<svg width="185pt" height="160pt"
 viewBox="0.00 0.00 185.00 160.00" xmlns="http://www.w3.org/2000/svg" xmlns:xlink="http://www.w3.org/1999/xlink">
<g id="graph0" class="graph" transform="scale(1 1) rotate(0) translate(4 156)">
<title>BaseClassDef</title>
<!-- Node1 -->
<g id="Node000001" class="node">
<title>Node1</title>
<g id="a_Node000001"><a xlink:title="Class that contains information about an inheritance relation.">
<polygon fill="#999999" stroke="#666666" points="113,-19 29,-19 29,0 113,0 113,-19"/>
<text text-anchor="middle" x="71" y="-7" font-family="Helvetica,sans-Serif" font-size="10.00">BaseClassDef</text>
</a>
</g>
</g>
<!-- Node2 -->
<g id="Node000002" class="node">
<title>Node2</title>
<g id="a_Node000002"><a xlink:href="../../d1/dcf/class_class_def.html" target="_top" xlink:title="A abstract class representing of a compound symbol.">
<polygon fill="white" stroke="#666666" points="62,-96 2,-96 2,-77 62,-77 62,-96"/>
<text text-anchor="middle" x="32" y="-84" font-family="Helvetica,sans-Serif" font-size="10.00">ClassDef</text>
</a>
</g>
</g>
<!-- Node2&#45;&gt;Node1 -->
<g id="edge1_Node000001_Node000002" class="edge">
<title>Node2&#45;&gt;Node1</title>
<g id="a_edge1_Node000001_Node000002"><a xlink:title=" ">
<path fill="none" stroke="#9a32cd" stroke-dasharray="5,2" d="M33.17,-66.44C34.41,-57.08 36.93,-45.93 42,-37 45.98,-30 52.45,-23.83 58.27,-19.2"/>
<polygon fill="#9a32cd" stroke="#9a32cd" points="29.66,-66.41 32.2,-76.7 36.63,-67.07 29.66,-66.41"/>
</a>
</g>
<text text-anchor="middle" x="65" y="-45.5" font-family="Helvetica,sans-Serif" font-size="10.00" fill="grey"> classDef</text>
</g>
<!-- Node3 -->
<g id="Node000003" class="node">
<title>Node3</title>
<g id="a_Node000003"><a xlink:href="../../d5/dcc/class_definition.html" target="_top" xlink:title="The common base class of all entity definitions found in the sources.">
<polygon fill="white" stroke="#666666" points="64,-152 0,-152 0,-133 64,-133 64,-152"/>
<text text-anchor="middle" x="32" y="-140" font-family="Helvetica,sans-Serif" font-size="10.00">Definition</text>
</a>
</g>
</g>
<!-- Node3&#45;&gt;Node2 -->
<g id="edge2_Node000002_Node000003" class="edge">
<title>Node3&#45;&gt;Node2</title>
<g id="a_edge2_Node000002_Node000003"><a xlink:title=" ">
<path fill="none" stroke="#63b8ff" d="M32,-122.3C32,-113.41 32,-103.28 32,-96.25"/>
<polygon fill="#63b8ff" stroke="#63b8ff" points="28.5,-122.58 32,-132.58 35.5,-122.58 28.5,-122.58"/>
</a>
</g>
</g>
<!-- Node4 -->
<g id="Node000004" class="node">
<title>Node4</title>
<g id="a_Node000004"><a xlink:href="../../d9/d45/class_q_c_string.html" target="_top" xlink:title="This is an alternative implementation of QCString.">
<polygon fill="white" stroke="#666666" points="139.5,-96 80.5,-96 80.5,-77 139.5,-77 139.5,-96"/>
<text text-anchor="middle" x="110" y="-84" font-family="Helvetica,sans-Serif" font-size="10.00">QCString</text>
</a>
</g>
</g>
<!-- Node4&#45;&gt;Node1 -->
<g id="edge3_Node000001_Node000004" class="edge">
<title>Node4&#45;&gt;Node1</title>
<g id="a_edge3_Node000001_Node000004"><a xlink:title=" ">
<path fill="none" stroke="#9a32cd" stroke-dasharray="5,2" d="M102.52,-67.37C98.52,-58.13 93.33,-46.8 88,-37 84.66,-30.85 80.41,-24.23 76.99,-19.14"/>
<polygon fill="#9a32cd" stroke="#9a32cd" points="99.36,-68.88 106.47,-76.73 105.81,-66.16 99.36,-68.88"/>
</a>
</g>
<text text-anchor="middle" x="137.5" y="-51" font-family="Helvetica,sans-Serif" font-size="10.00" fill="grey"> templSpecifiers</text>
<text text-anchor="middle" x="137.5" y="-40" font-family="Helvetica,sans-Serif" font-size="10.00" fill="grey">usedName</text>
</g>
</g>
</svg>
