<?xml version="1.0" encoding="UTF-8" standalone="no"?>
<!DOCTYPE svg PUBLIC "-//W3C//DTD SVG 1.1//EN"
 "http://www.w3.org/Graphics/SVG/1.1/DTD/svg11.dtd">
<!-- Generated by graphviz version 2.43.0 (0)
 -->
<!-- Title: BaseClassDef Pages: 1 -->
<svg width="187pt" height="170pt"
 viewBox="0.00 0.00 187.00 170.00" xmlns="http://www.w3.org/2000/svg" xmlns:xlink="http://www.w3.org/1999/xlink">

<svg id="main" version="1.1" xmlns="http://www.w3.org/2000/svg" xmlns:xlink="http://www.w3.org/1999/xlink" xml:space="preserve">

<style type="text/css"><![CDATA[
.node, .edge {opacity: 0.7;}
.node.selected, .edge.selected {opacity: 1;}
.edge:hover path { stroke: red; }
.edge:hover polygon { stroke: red; fill: red; }
]]></style>
<script type="application/ecmascript" xlink:href="../../svg.min.js"/>
<svg id="graph" class="graph">
<g id="graph0" class="graph" transform="scale(1 1) rotate(0) translate(4 166)">
<title>BaseClassDef</title>
<!-- Node1 -->
<g id="Node000001" class="node">
<title>Node1</title>
<g id="a_Node000001"><a xlink:title="Class that contains information about an inheritance relation.">
<polygon fill="#999999" stroke="#666666" points="112,-19 28,-19 28,0 112,0 112,-19"/>
<text text-anchor="middle" x="70" y="-7" font-family="Helvetica,sans-Serif" font-size="10.00">BaseClassDef</text>
</a>
</g>
</g>
<!-- Node2 -->
<g id="Node000002" class="node">
<title>Node2</title>
<g id="a_Node000002"><a xlink:href="../../d1/dcf/class_class_def.html" target="_top" xlink:title="A abstract class representing of a compound symbol.">
<polygon fill="white" stroke="#666666" points="62,-106 2,-106 2,-87 62,-87 62,-106"/>
<text text-anchor="middle" x="32" y="-94" font-family="Helvetica,sans-Serif" font-size="10.00">ClassDef</text>
</a>
</g>
</g>
<!-- Node2&#45;&gt;Node1 -->
<g id="edge1_Node000001_Node000002" class="edge">
<title>Node2&#45;&gt;Node1</title>
<g id="a_edge1_Node000001_Node000002"><a xlink:title=" ">
<path fill="none" stroke="#9a32cd" stroke-dasharray="5,2" d="M27.8,-77.14C26.01,-65.06 25.6,-49.27 32,-37 36.02,-29.3 43.41,-23.38 50.61,-19.11"/>
<polygon fill="#9a32cd" stroke="#9a32cd" points="24.36,-77.81 29.67,-86.98 31.24,-76.5 24.36,-77.81"/>
</a>
</g>
<text text-anchor="start" x="35.5" y="-50" font-family="Helvetica,sans-Serif" font-size="10.00" fill="grey">classDef</text>
</g>
<!-- Node3 -->
<g id="Node000003" class="node">
<title>Node3</title>
<g id="a_Node000003"><a xlink:href="../../d5/dcc/class_definition.html" target="_top" xlink:title="The common base class of all entity definitions found in the sources.">
<polygon fill="white" stroke="#666666" points="64,-162 0,-162 0,-143 64,-143 64,-162"/>
<text text-anchor="middle" x="32" y="-150" font-family="Helvetica,sans-Serif" font-size="10.00">Definition</text>
</a>
</g>
</g>
<!-- Node3&#45;&gt;Node2 -->
<g id="edge2_Node000002_Node000003" class="edge">
<title>Node3&#45;&gt;Node2</title>
<g id="a_edge2_Node000002_Node000003"><a xlink:title=" ">
<path fill="none" stroke="#63b8ff" d="M32,-132.3C32,-123.41 32,-113.28 32,-106.25"/>
<polygon fill="#63b8ff" stroke="#63b8ff" points="28.5,-132.58 32,-142.58 35.5,-132.58 28.5,-132.58"/>
</a>
</g>
</g>
<!-- Node4 -->
<g id="Node000004" class="node">
<title>Node4</title>
<g id="a_Node000004"><a xlink:href="../../d0/d00/class_d_string.html" target="_top" xlink:title="A String class for use with Doxygen wrapping std::string and adding some additional functionality off...">
<polygon fill="white" stroke="#666666" points="133.5,-106 80.5,-106 80.5,-87 133.5,-87 133.5,-106"/>
<text text-anchor="middle" x="107" y="-94" font-family="Helvetica,sans-Serif" font-size="10.00">DString</text>
</a>
</g>
</g>
<!-- Node4&#45;&gt;Node1 -->
<g id="edge3_Node000001_Node000004" class="edge">
<title>Node4&#45;&gt;Node1</title>
<g id="a_edge3_Node000001_Node000004"><a xlink:title=" ">
<path fill="none" stroke="#9a32cd" stroke-dasharray="5,2" d="M100.9,-77.07C96.83,-65.4 91.12,-50.09 85,-37 82.13,-30.87 78.38,-24.25 75.35,-19.15"/>
<polygon fill="#9a32cd" stroke="#9a32cd" points="97.6,-78.26 104.14,-86.6 104.23,-76.01 97.6,-78.26"/>
</a>
</g>
<text text-anchor="start" x="100" y="-58" font-family="Helvetica,sans-Serif" font-size="10.00" fill="grey">templSpecifiers</text>
<text text-anchor="start" x="100" y="-43" font-family="Helvetica,sans-Serif" font-size="10.00" fill="grey">usedName</text>
</g>
</g>
</svg>
</svg>

<style type='text/css'>
<![CDATA[
[data-mouse-over-selected='false'] { opacity: 0.7; }
[data-mouse-over-selected='true']  { opacity: 1.0; }
]]>
</style>
</svg>
