<?xml version="1.0" encoding="UTF-8" standalone="no"?>
<!DOCTYPE svg PUBLIC "-//W3C//DTD SVG 1.1//EN"
 "http://www.w3.org/Graphics/SVG/1.1/DTD/svg11.dtd">
<!-- Generated by graphviz version 2.43.0 (0)
 -->
<!-- Title: src/devnullgen.h Pages: 1 -->
<!--zoomable 137 -->

<svg id="main" version="1.1" xmlns="http://www.w3.org/2000/svg" xmlns:xlink="http://www.w3.org/1999/xlink" xml:space="preserve" onload="init(evt)">

<style type="text/css"><![CDATA[
.node, .edge {opacity: 0.7;}
.node.selected, .edge.selected {opacity: 1;}
.edge:hover path { stroke: red; }
.edge:hover polygon { stroke: red; fill: red; }
]]></style>

<defs>
  <circle id="rim" cx="0" cy="0" r="7"/>
  <circle id="rim2" cx="0" cy="0" r="3.5"/>
  <g id="zoomPlus">
    <use xlink:href="#rim" fill="#404040"><set attributeName="fill" to="#808080" begin="zoomplus.mouseover" end="zoomplus.mouseout"/></use>
    <path d="M-4,0h8M0,-4v8" fill="none" stroke="white" stroke-width="1.5" pointer-events="none"/>
  </g>
  <g id="zoomMin">
    <use xlink:href="#rim" fill="#404040"><set attributeName="fill" to="#808080" begin="zoomminus.mouseover" end="zoomminus.mouseout"/></use>
    <path d="M-4,0h8" fill="none" stroke="white" stroke-width="1.5" pointer-events="none"/>
  </g>
  <g id="arrowUp" transform="translate(30 24)">
    <use xlink:href="#rim"/>
    <path pointer-events="none" fill="none" stroke="white" stroke-width="1.5" d="M0,-3.0v7 M-2.5,-0.5L0,-3.0L2.5,-0.5"/>
  </g>
  <g id="arrowRight" transform="rotate(90) translate(36 -43)">
    <use xlink:href="#rim"/>
    <path pointer-events="none" fill="none" stroke="white" stroke-width="1.5" d="M0,-3.0v7 M-2.5,-0.5L0,-3.0L2.5,-0.5"/>
  </g>
  <g id="arrowDown" transform="rotate(180) translate(-30 -48)">
    <use xlink:href="#rim"/>
    <path pointer-events="none" fill="none" stroke="white" stroke-width="1.5" d="M0,-3.0v7 M-2.5,-0.5L0,-3.0L2.5,-0.5"/>
  </g>
  <g id="arrowLeft" transform="rotate(270) translate(-36 17)">
    <use xlink:href="#rim"/>
    <path pointer-events="none" fill="none" stroke="white" stroke-width="1.5" d="M0,-3.0v7 M-2.5,-0.5L0,-3.0L2.5,-0.5"/>
  </g>
  <g id="resetDef">
    <use xlink:href="#rim2" fill="#404040"><set attributeName="fill" to="#808080" begin="reset.mouseover" end="reset.mouseout"/></use>
  </g>
</defs>
<script type="application/ecmascript">
var viewWidth = 4474;
var viewHeight = 137;
var sectionId = 'dynsection-1';
</script>
<script type="application/ecmascript" xlink:href="../../svg.min.js"/>
<svg id="graph" class="graph">
<g id="viewport">
<title>src/devnullgen.h</title>
<!-- Node1 -->
<g id="Node000001" class="node">
<title>Node1</title>
<g id="a_Node000001"><a xlink:title=" ">
<polygon fill="#999999" stroke="#666666" points="2293.5,-129 2196.5,-129 2196.5,-110 2293.5,-110 2293.5,-129"/>
<text text-anchor="middle" x="2245" y="-117" font-family="Helvetica,sans-Serif" font-size="10.00">src/devnullgen.h</text>
</a>
</g>
</g>
<!-- Node2 -->
<g id="Node000002" class="node">
<title>Node2</title>
<g id="a_Node000002"><a xlink:href="../../d2/db9/outputlist_8h.html" target="_top" xlink:title=" ">
<polygon fill="white" stroke="#666666" points="2289.5,-74 2200.5,-74 2200.5,-55 2289.5,-55 2289.5,-74"/>
<text text-anchor="middle" x="2245" y="-62" font-family="Helvetica,sans-Serif" font-size="10.00">src/outputlist.h</text>
</a>
</g>
</g>
<!-- Node1&#45;&gt;Node2 -->
<g id="edge1_Node000001_Node000002" class="edge">
<title>Node1&#45;&gt;Node2</title>
<g id="a_edge1_Node000001_Node000002"><a xlink:title=" ">
<path fill="none" stroke="#63b8ff" d="M2245,-99.66C2245,-90.93 2245,-80.99 2245,-74.09"/>
<polygon fill="#63b8ff" stroke="#63b8ff" points="2241.5,-99.75 2245,-109.75 2248.5,-99.75 2241.5,-99.75"/>
</a>
</g>
</g>
<!-- Node3 -->
<g id="Node000003" class="node">
<title>Node3</title>
<g id="a_Node000003"><a xlink:href="../../de/d89/classdef_8cpp.html" target="_top" xlink:title=" ">
<polygon fill="white" stroke="#666666" points="94,-19 0,-19 0,0 94,0 94,-19"/>
<text text-anchor="middle" x="47" y="-7" font-family="Helvetica,sans-Serif" font-size="10.00">src/classdef.cpp</text>
</a>
</g>
</g>
<!-- Node2&#45;&gt;Node3 -->
<g id="edge2_Node000002_Node000003" class="edge">
<title>Node2&#45;&gt;Node3</title>
<g id="a_edge2_Node000002_Node000003"><a xlink:title=" ">
<path fill="none" stroke="#63b8ff" d="M2190.06,-63.33C1898.13,-62.26 526.04,-55.34 103,-19 100.06,-18.75 97.04,-18.44 94,-18.09"/>
<polygon fill="#63b8ff" stroke="#63b8ff" points="2190.38,-66.83 2200.39,-63.36 2190.4,-59.83 2190.38,-66.83"/>
</a>
</g>
</g>
<!-- Node4 -->
<g id="Node000004" class="node">
<title>Node4</title>
<g id="a_Node000004"><a xlink:href="../../d6/d10/classlist_8cpp.html" target="_top" xlink:title=" ">
<polygon fill="white" stroke="#666666" points="206,-19 112,-19 112,0 206,0 206,-19"/>
<text text-anchor="middle" x="159" y="-7" font-family="Helvetica,sans-Serif" font-size="10.00">src/classlist.cpp</text>
</a>
</g>
</g>
<!-- Node2&#45;&gt;Node4 -->
<g id="edge3_Node000002_Node000004" class="edge">
<title>Node2&#45;&gt;Node4</title>
<g id="a_edge3_Node000002_Node000004"><a xlink:title=" ">
<path fill="none" stroke="#63b8ff" d="M2190.21,-63.25C1907.83,-61.84 614.6,-53.56 215,-19 212.06,-18.75 209.04,-18.43 206,-18.08"/>
<polygon fill="#63b8ff" stroke="#63b8ff" points="2190.2,-66.75 2200.21,-63.3 2190.23,-59.75 2190.2,-66.75"/>
</a>
</g>
</g>
<!-- Node5 -->
<g id="Node000005" class="node">
<title>Node5</title>
<g id="a_Node000005"><a xlink:href="../../da/d1f/code_8l.html" target="_top" xlink:title=" ">
<polygon fill="white" stroke="#666666" points="287.5,-19 224.5,-19 224.5,0 287.5,0 287.5,-19"/>
<text text-anchor="middle" x="256" y="-7" font-family="Helvetica,sans-Serif" font-size="10.00">src/code.l</text>
</a>
</g>
</g>
<!-- Node2&#45;&gt;Node5 -->
<g id="edge4_Node000002_Node000005" class="edge">
<title>Node2&#45;&gt;Node5</title>
<g id="a_edge4_Node000002_Node000005"><a xlink:title=" ">
<path fill="none" stroke="#63b8ff" d="M2190.2,-63.59C1914.61,-63.85 678.4,-62.53 297,-19 293.97,-18.65 290.82,-18.19 287.69,-17.66"/>
<polygon fill="#63b8ff" stroke="#63b8ff" points="2190.35,-67.09 2200.35,-63.58 2190.34,-60.09 2190.35,-67.09"/>
</a>
</g>
</g>
<!-- Node6 -->
<g id="Node000006" class="node">
<title>Node6</title>
<g id="a_Node000006"><a xlink:href="../../dd/d4a/codefragment_8cpp.html" target="_top" xlink:title=" ">
<polygon fill="white" stroke="#666666" points="428,-19 306,-19 306,0 428,0 428,-19"/>
<text text-anchor="middle" x="367" y="-7" font-family="Helvetica,sans-Serif" font-size="10.00">src/codefragment.cpp</text>
</a>
</g>
</g>
<!-- Node2&#45;&gt;Node6 -->
<g id="edge5_Node000002_Node000006" class="edge">
<title>Node2&#45;&gt;Node6</title>
<g id="a_edge5_Node000002_Node000006"><a xlink:title=" ">
<path fill="none" stroke="#63b8ff" d="M2190.41,-62.87C1927.58,-59.7 790.64,-44.76 437,-19 434.07,-18.79 431.07,-18.54 428.05,-18.26"/>
<polygon fill="#63b8ff" stroke="#63b8ff" points="2190.44,-66.37 2200.48,-62.99 2190.52,-59.37 2190.44,-66.37"/>
</a>
</g>
</g>
<!-- Node7 -->
<g id="Node000007" class="node">
<title>Node7</title>
<g id="a_Node000007"><a xlink:href="../../d8/d0a/conceptdef_8cpp.html" target="_top" xlink:title=" ">
<polygon fill="white" stroke="#666666" points="553.5,-19 446.5,-19 446.5,0 553.5,0 553.5,-19"/>
<text text-anchor="middle" x="500" y="-7" font-family="Helvetica,sans-Serif" font-size="10.00">src/conceptdef.cpp</text>
</a>
</g>
</g>
<!-- Node2&#45;&gt;Node7 -->
<g id="edge6_Node000002_Node000007" class="edge">
<title>Node2&#45;&gt;Node7</title>
<g id="a_edge6_Node000002_Node000007"><a xlink:title=" ">
<path fill="none" stroke="#63b8ff" d="M2190.17,-62.84C1938.24,-59.71 890.04,-45.31 563,-19 559.92,-18.75 556.76,-18.46 553.57,-18.13"/>
<polygon fill="#63b8ff" stroke="#63b8ff" points="2190.14,-66.34 2200.19,-62.97 2190.23,-59.34 2190.14,-66.34"/>
</a>
</g>
</g>
<!-- Node8 -->
<g id="Node000008" class="node">
<title>Node8</title>
<g id="a_Node000008"><a xlink:href="../../d3/dea/definition_8cpp.html" target="_top" xlink:title=" ">
<polygon fill="white" stroke="#666666" points="672,-19 572,-19 572,0 672,0 672,-19"/>
<text text-anchor="middle" x="622" y="-7" font-family="Helvetica,sans-Serif" font-size="10.00">src/definition.cpp</text>
</a>
</g>
</g>
<!-- Node2&#45;&gt;Node8 -->
<g id="edge7_Node000002_Node000008" class="edge">
<title>Node2&#45;&gt;Node8</title>
<g id="a_edge7_Node000002_Node000008"><a xlink:title=" ">
<path fill="none" stroke="#63b8ff" d="M2190.17,-62.78C1949.27,-59.51 983.34,-44.99 681,-19 678.11,-18.75 675.15,-18.46 672.17,-18.13"/>
<polygon fill="#63b8ff" stroke="#63b8ff" points="2190.38,-66.29 2200.43,-62.92 2190.48,-59.29 2190.38,-66.29"/>
</a>
</g>
</g>
<!-- Node9 -->
<g id="Node000009" class="node">
<title>Node9</title>
<g id="a_Node000009"><a xlink:href="../../d8/d52/dirdef_8cpp.html" target="_top" xlink:title=" ">
<polygon fill="white" stroke="#666666" points="772,-19 690,-19 690,0 772,0 772,-19"/>
<text text-anchor="middle" x="731" y="-7" font-family="Helvetica,sans-Serif" font-size="10.00">src/dirdef.cpp</text>
</a>
</g>
</g>
<!-- Node2&#45;&gt;Node9 -->
<g id="edge8_Node000002_Node000009" class="edge">
<title>Node2&#45;&gt;Node9</title>
<g id="a_edge8_Node000002_Node000009"><a xlink:title=" ">
<path fill="none" stroke="#63b8ff" d="M2190.29,-62.85C1959.24,-59.94 1062.28,-47.05 781,-19 778.11,-18.71 775.13,-18.36 772.14,-17.96"/>
<polygon fill="#63b8ff" stroke="#63b8ff" points="2190.43,-66.35 2200.47,-62.98 2190.51,-59.35 2190.43,-66.35"/>
</a>
</g>
</g>
<!-- Node10 -->
<g id="Node000010" class="node">
<title>Node10</title>
<g id="a_Node000010"><a xlink:href="../../d8/d29/docbookgen_8cpp.html" target="_top" xlink:title=" ">
<polygon fill="white" stroke="#666666" points="903.5,-19 790.5,-19 790.5,0 903.5,0 903.5,-19"/>
<text text-anchor="middle" x="847" y="-7" font-family="Helvetica,sans-Serif" font-size="10.00">src/docbookgen.cpp</text>
</a>
</g>
</g>
<!-- Node2&#45;&gt;Node10 -->
<g id="edge9_Node000002_Node000010" class="edge">
<title>Node2&#45;&gt;Node10</title>
<g id="a_edge9_Node000002_Node000010"><a xlink:title=" ">
<path fill="none" stroke="#63b8ff" d="M2190.24,-63.53C2008.32,-63.22 1407.6,-59.02 913,-19 910.01,-18.76 906.94,-18.48 903.85,-18.17"/>
<polygon fill="#63b8ff" stroke="#63b8ff" points="2190.35,-67.03 2200.36,-63.54 2190.36,-60.03 2190.35,-67.03"/>
</a>
</g>
</g>
<!-- Node11 -->
<g id="Node000011" class="node">
<title>Node11</title>
<g id="a_Node000011"><a xlink:href="../../dc/d98/doxygen_8cpp.html" target="_top" xlink:title=" ">
<polygon fill="white" stroke="#666666" points="1018,-19 922,-19 922,0 1018,0 1018,-19"/>
<text text-anchor="middle" x="970" y="-7" font-family="Helvetica,sans-Serif" font-size="10.00">src/doxygen.cpp</text>
</a>
</g>
</g>
<!-- Node2&#45;&gt;Node11 -->
<g id="edge10_Node000002_Node000011" class="edge">
<title>Node2&#45;&gt;Node11</title>
<g id="a_edge10_Node000002_Node000011"><a xlink:title=" ">
<path fill="none" stroke="#63b8ff" d="M2190.31,-63.67C2018.57,-63.74 1474.81,-60.44 1027,-19 1024.11,-18.73 1021.14,-18.42 1018.16,-18.07"/>
<polygon fill="#63b8ff" stroke="#63b8ff" points="2190.37,-67.17 2200.37,-63.66 2190.36,-60.17 2190.37,-67.17"/>
</a>
</g>
</g>
<!-- Node12 -->
<g id="Node000012" class="node">
<title>Node12</title>
<g id="a_Node000012"><a xlink:href="../../d6/ddc/filedef_8cpp.html" target="_top" xlink:title=" ">
<polygon fill="white" stroke="#666666" points="1120,-19 1036,-19 1036,0 1120,0 1120,-19"/>
<text text-anchor="middle" x="1078" y="-7" font-family="Helvetica,sans-Serif" font-size="10.00">src/filedef.cpp</text>
</a>
</g>
</g>
<!-- Node2&#45;&gt;Node12 -->
<g id="edge11_Node000002_Node000012" class="edge">
<title>Node2&#45;&gt;Node12</title>
<g id="a_edge11_Node000002_Node000012"><a xlink:title=" ">
<path fill="none" stroke="#63b8ff" d="M2190.26,-63.74C2027.9,-63.93 1535.03,-60.77 1129,-19 1126.14,-18.71 1123.2,-18.35 1120.25,-17.96"/>
<polygon fill="#63b8ff" stroke="#63b8ff" points="2190.47,-67.24 2200.47,-63.72 2190.46,-60.24 2190.47,-67.24"/>
</a>
</g>
</g>
<!-- Node13 -->
<g id="Node000013" class="node">
<title>Node13</title>
<g id="a_Node000013"><a xlink:href="../../d9/d74/fileparser_8cpp.html" target="_top" xlink:title=" ">
<polygon fill="white" stroke="#666666" points="1237.5,-19 1138.5,-19 1138.5,0 1237.5,0 1237.5,-19"/>
<text text-anchor="middle" x="1188" y="-7" font-family="Helvetica,sans-Serif" font-size="10.00">src/fileparser.cpp</text>
</a>
</g>
</g>
<!-- Node2&#45;&gt;Node13 -->
<g id="edge12_Node000002_Node000013" class="edge">
<title>Node2&#45;&gt;Node13</title>
<g id="a_edge12_Node000002_Node000013"><a xlink:title=" ">
<path fill="none" stroke="#63b8ff" d="M2189.73,-62.94C2038.51,-61.01 1605.33,-52.72 1247,-19 1243.91,-18.71 1240.73,-18.37 1237.53,-18"/>
<polygon fill="#63b8ff" stroke="#63b8ff" points="2190.09,-66.45 2200.13,-63.07 2190.17,-59.45 2190.09,-66.45"/>
</a>
</g>
</g>
<!-- Node14 -->
<g id="Node000014" class="node">
<title>Node14</title>
<g id="a_Node000014"><a xlink:href="../../d9/d5b/fortrancode_8l.html" target="_top" xlink:title=" ">
<polygon fill="white" stroke="#666666" points="1352,-19 1256,-19 1256,0 1352,0 1352,-19"/>
<text text-anchor="middle" x="1304" y="-7" font-family="Helvetica,sans-Serif" font-size="10.00">src/fortrancode.l</text>
</a>
</g>
</g>
<!-- Node2&#45;&gt;Node14 -->
<g id="edge13_Node000002_Node000014" class="edge">
<title>Node2&#45;&gt;Node14</title>
<g id="a_edge13_Node000002_Node000014"><a xlink:title=" ">
<path fill="none" stroke="#63b8ff" d="M2189.88,-62.6C2050.64,-59.91 1673.59,-50.1 1361,-19 1358.11,-18.71 1355.15,-18.38 1352.16,-18.02"/>
<polygon fill="#63b8ff" stroke="#63b8ff" points="2190.21,-66.1 2200.27,-62.79 2190.34,-59.1 2190.21,-66.1"/>
</a>
</g>
</g>
<!-- Node15 -->
<g id="Node000015" class="node">
<title>Node15</title>
<g id="a_Node000015"><a xlink:href="../../db/d41/ftvhelp_8cpp.html" target="_top" xlink:title=" ">
<polygon fill="white" stroke="#666666" points="1458,-19 1370,-19 1370,0 1458,0 1458,-19"/>
<text text-anchor="middle" x="1414" y="-7" font-family="Helvetica,sans-Serif" font-size="10.00">src/ftvhelp.cpp</text>
</a>
</g>
</g>
<!-- Node2&#45;&gt;Node15 -->
<g id="edge14_Node000002_Node000015" class="edge">
<title>Node2&#45;&gt;Node15</title>
<g id="a_edge14_Node000002_Node000015"><a xlink:title=" ">
<path fill="none" stroke="#63b8ff" d="M2189.78,-62.34C2062.05,-59.21 1736.45,-48.75 1466,-19 1463.45,-18.72 1460.84,-18.4 1458.21,-18.05"/>
<polygon fill="#63b8ff" stroke="#63b8ff" points="2189.99,-65.84 2200.08,-62.58 2190.16,-58.84 2189.99,-65.84"/>
</a>
</g>
</g>
<!-- Node16 -->
<g id="Node000016" class="node">
<title>Node16</title>
<g id="a_Node000016"><a xlink:href="../../d6/d42/groupdef_8cpp.html" target="_top" xlink:title=" ">
<polygon fill="white" stroke="#666666" points="1572.5,-19 1475.5,-19 1475.5,0 1572.5,0 1572.5,-19"/>
<text text-anchor="middle" x="1524" y="-7" font-family="Helvetica,sans-Serif" font-size="10.00">src/groupdef.cpp</text>
</a>
</g>
</g>
<!-- Node2&#45;&gt;Node16 -->
<g id="edge15_Node000002_Node000016" class="edge">
<title>Node2&#45;&gt;Node16</title>
<g id="a_edge15_Node000002_Node000016"><a xlink:title=" ">
<path fill="none" stroke="#63b8ff" d="M2190.09,-61.27C2076.38,-56.34 1806.98,-43 1582,-19 1578.96,-18.68 1575.84,-18.31 1572.7,-17.92"/>
<polygon fill="#63b8ff" stroke="#63b8ff" points="2190.13,-64.78 2200.27,-61.71 2190.43,-57.79 2190.13,-64.78"/>
</a>
</g>
</g>
<!-- Node17 -->
<g id="Node000017" class="node">
<title>Node17</title>
<g id="a_Node000017"><a xlink:href="../../da/db0/htmldocvisitor_8cpp.html" target="_top" xlink:title=" ">
<polygon fill="white" stroke="#666666" points="1715,-19 1591,-19 1591,0 1715,0 1715,-19"/>
<text text-anchor="middle" x="1653" y="-7" font-family="Helvetica,sans-Serif" font-size="10.00">src/htmldocvisitor.cpp</text>
</a>
</g>
</g>
<!-- Node2&#45;&gt;Node17 -->
<g id="edge16_Node000002_Node000017" class="edge">
<title>Node2&#45;&gt;Node17</title>
<g id="a_edge16_Node000002_Node000017"><a xlink:title=" ">
<path fill="none" stroke="#63b8ff" d="M2190.12,-59.43C2095.07,-52.24 1893.74,-36.4 1724,-19 1721.16,-18.71 1718.26,-18.4 1715.32,-18.08"/>
<polygon fill="#63b8ff" stroke="#63b8ff" points="2190.11,-62.94 2200.35,-60.2 2190.64,-55.96 2190.11,-62.94"/>
</a>
</g>
</g>
<!-- Node18 -->
<g id="Node000018" class="node">
<title>Node18</title>
<g id="a_Node000018"><a xlink:href="../../d8/d6e/htmlgen_8cpp.html" target="_top" xlink:title=" ">
<polygon fill="white" stroke="#666666" points="1828.5,-19 1733.5,-19 1733.5,0 1828.5,0 1828.5,-19"/>
<text text-anchor="middle" x="1781" y="-7" font-family="Helvetica,sans-Serif" font-size="10.00">src/htmlgen.cpp</text>
</a>
</g>
</g>
<!-- Node2&#45;&gt;Node18 -->
<g id="edge17_Node000002_Node000018" class="edge">
<title>Node2&#45;&gt;Node18</title>
<g id="a_edge17_Node000002_Node000018"><a xlink:title=" ">
<path fill="none" stroke="#63b8ff" d="M2190.12,-58.25C2111.7,-50.59 1963.11,-35.44 1837,-19 1834.27,-18.64 1831.47,-18.26 1828.64,-17.87"/>
<polygon fill="#63b8ff" stroke="#63b8ff" points="2189.96,-61.75 2200.25,-59.24 2190.64,-54.79 2189.96,-61.75"/>
</a>
</g>
</g>
<!-- Node19 -->
<g id="Node000019" class="node">
<title>Node19</title>
<g id="a_Node000019"><a xlink:href="../../db/d14/index_8cpp.html" target="_top" xlink:title="This file contains functions for the various index pages.">
<polygon fill="white" stroke="#666666" points="1927.5,-19 1846.5,-19 1846.5,0 1927.5,0 1927.5,-19"/>
<text text-anchor="middle" x="1887" y="-7" font-family="Helvetica,sans-Serif" font-size="10.00">src/index.cpp</text>
</a>
</g>
</g>
<!-- Node2&#45;&gt;Node19 -->
<g id="edge18_Node000002_Node000019" class="edge">
<title>Node2&#45;&gt;Node19</title>
<g id="a_edge18_Node000002_Node000019"><a xlink:title=" ">
<path fill="none" stroke="#63b8ff" d="M2190.04,-55.98C2128.38,-47.45 2025.42,-32.9 1937,-19 1933.96,-18.52 1930.81,-18.01 1927.65,-17.5"/>
<polygon fill="#63b8ff" stroke="#63b8ff" points="2189.93,-59.5 2200.32,-57.4 2190.89,-52.56 2189.93,-59.5"/>
</a>
</g>
</g>
<!-- Node20 -->
<g id="Node000020" class="node">
<title>Node20</title>
<g id="a_Node000020"><a xlink:href="../../d1/d4e/latexdocvisitor_8cpp.html" target="_top" xlink:title=" ">
<polygon fill="white" stroke="#666666" points="2072,-19 1946,-19 1946,0 2072,0 2072,-19"/>
<text text-anchor="middle" x="2009" y="-7" font-family="Helvetica,sans-Serif" font-size="10.00">src/latexdocvisitor.cpp</text>
</a>
</g>
</g>
<!-- Node2&#45;&gt;Node20 -->
<g id="edge19_Node000002_Node000020" class="edge">
<title>Node2&#45;&gt;Node20</title>
<g id="a_edge19_Node000002_Node000020"><a xlink:title=" ">
<path fill="none" stroke="#63b8ff" d="M2197.15,-52.75C2152.92,-42.82 2088.07,-28.26 2047.21,-19.08"/>
<polygon fill="#63b8ff" stroke="#63b8ff" points="2196.56,-56.21 2207.08,-54.98 2198.09,-49.38 2196.56,-56.21"/>
</a>
</g>
</g>
<!-- Node21 -->
<g id="Node000021" class="node">
<title>Node21</title>
<g id="a_Node000021"><a xlink:href="../../d4/d42/latexgen_8cpp.html" target="_top" xlink:title=" ">
<polygon fill="white" stroke="#666666" points="2187.5,-19 2090.5,-19 2090.5,0 2187.5,0 2187.5,-19"/>
<text text-anchor="middle" x="2139" y="-7" font-family="Helvetica,sans-Serif" font-size="10.00">src/latexgen.cpp</text>
</a>
</g>
</g>
<!-- Node2&#45;&gt;Node21 -->
<g id="edge20_Node000002_Node000021" class="edge">
<title>Node2&#45;&gt;Node21</title>
<g id="a_edge20_Node000002_Node000021"><a xlink:title=" ">
<path fill="none" stroke="#63b8ff" d="M2219,-50.5C2199.5,-40.75 2173.35,-27.68 2156.34,-19.17"/>
<polygon fill="#63b8ff" stroke="#63b8ff" points="2217.46,-53.64 2227.97,-54.98 2220.59,-47.38 2217.46,-53.64"/>
</a>
</g>
</g>
<!-- Node22 -->
<g id="Node000022" class="node">
<title>Node22</title>
<g id="a_Node000022"><a xlink:href="../../d0/d7e/lexcode_8l.html" target="_top" xlink:title=" ">
<polygon fill="white" stroke="#666666" points="2284,-19 2206,-19 2206,0 2284,0 2284,-19"/>
<text text-anchor="middle" x="2245" y="-7" font-family="Helvetica,sans-Serif" font-size="10.00">src/lexcode.l</text>
</a>
</g>
</g>
<!-- Node2&#45;&gt;Node22 -->
<g id="edge21_Node000002_Node000022" class="edge">
<title>Node2&#45;&gt;Node22</title>
<g id="a_edge21_Node000002_Node000022"><a xlink:title=" ">
<path fill="none" stroke="#63b8ff" d="M2245,-44.66C2245,-35.93 2245,-25.99 2245,-19.09"/>
<polygon fill="#63b8ff" stroke="#63b8ff" points="2241.5,-44.75 2245,-54.75 2248.5,-44.75 2241.5,-44.75"/>
</a>
</g>
</g>
<!-- Node23 -->
<g id="Node000023" class="node">
<title>Node23</title>
<g id="a_Node000023"><a xlink:href="../../d7/de7/mangen_8cpp.html" target="_top" xlink:title=" ">
<polygon fill="white" stroke="#666666" points="2396,-19 2302,-19 2302,0 2396,0 2396,-19"/>
<text text-anchor="middle" x="2349" y="-7" font-family="Helvetica,sans-Serif" font-size="10.00">src/mangen.cpp</text>
</a>
</g>
</g>
<!-- Node2&#45;&gt;Node23 -->
<g id="edge22_Node000002_Node000023" class="edge">
<title>Node2&#45;&gt;Node23</title>
<g id="a_edge22_Node000002_Node000023"><a xlink:title=" ">
<path fill="none" stroke="#63b8ff" d="M2270.77,-50.37C2289.87,-40.63 2315.37,-27.64 2331.99,-19.17"/>
<polygon fill="#63b8ff" stroke="#63b8ff" points="2269.03,-47.33 2261.71,-54.98 2272.21,-53.56 2269.03,-47.33"/>
</a>
</g>
</g>
<!-- Node24 -->
<g id="Node000024" class="node">
<title>Node24</title>
<g id="a_Node000024"><a xlink:href="../../d0/d72/memberdef_8cpp.html" target="_top" xlink:title=" ">
<polygon fill="white" stroke="#666666" points="2524,-19 2414,-19 2414,0 2524,0 2524,-19"/>
<text text-anchor="middle" x="2469" y="-7" font-family="Helvetica,sans-Serif" font-size="10.00">src/memberdef.cpp</text>
</a>
</g>
</g>
<!-- Node2&#45;&gt;Node24 -->
<g id="edge23_Node000002_Node000024" class="edge">
<title>Node2&#45;&gt;Node24</title>
<g id="a_edge23_Node000002_Node000024"><a xlink:title=" ">
<path fill="none" stroke="#63b8ff" d="M2290.95,-52.63C2332.91,-42.7 2394.12,-28.22 2432.73,-19.08"/>
<polygon fill="#63b8ff" stroke="#63b8ff" points="2289.91,-49.28 2280.99,-54.98 2291.53,-56.09 2289.91,-49.28"/>
</a>
</g>
</g>
<!-- Node25 -->
<g id="Node000025" class="node">
<title>Node25</title>
<g id="a_Node000025"><a xlink:href="../../d6/d18/membergroup_8cpp.html" target="_top" xlink:title=" ">
<polygon fill="white" stroke="#666666" points="2665.5,-19 2542.5,-19 2542.5,0 2665.5,0 2665.5,-19"/>
<text text-anchor="middle" x="2604" y="-7" font-family="Helvetica,sans-Serif" font-size="10.00">src/membergroup.cpp</text>
</a>
</g>
</g>
<!-- Node2&#45;&gt;Node25 -->
<g id="edge24_Node000002_Node000025" class="edge">
<title>Node2&#45;&gt;Node25</title>
<g id="a_edge24_Node000002_Node000025"><a xlink:title=" ">
<path fill="none" stroke="#63b8ff" d="M2300.03,-55.38C2366.66,-45.54 2478.36,-29.05 2546.21,-19.03"/>
<polygon fill="#63b8ff" stroke="#63b8ff" points="2299.12,-51.97 2289.74,-56.89 2300.15,-58.9 2299.12,-51.97"/>
</a>
</g>
</g>
<!-- Node26 -->
<g id="Node000026" class="node">
<title>Node26</title>
<g id="a_Node000026"><a xlink:href="../../d0/d14/memberlist_8cpp.html" target="_top" xlink:title=" ">
<polygon fill="white" stroke="#666666" points="2794,-19 2684,-19 2684,0 2794,0 2794,-19"/>
<text text-anchor="middle" x="2739" y="-7" font-family="Helvetica,sans-Serif" font-size="10.00">src/memberlist.cpp</text>
</a>
</g>
</g>
<!-- Node2&#45;&gt;Node26 -->
<g id="edge25_Node000002_Node000026" class="edge">
<title>Node2&#45;&gt;Node26</title>
<g id="a_edge25_Node000002_Node000026"><a xlink:title=" ">
<path fill="none" stroke="#63b8ff" d="M2299.67,-58.35C2381.41,-50.54 2540.27,-34.92 2675,-19 2677.89,-18.66 2680.86,-18.3 2683.85,-17.93"/>
<polygon fill="#63b8ff" stroke="#63b8ff" points="2299.24,-54.88 2289.62,-59.31 2299.9,-61.85 2299.24,-54.88"/>
</a>
</g>
</g>
<!-- Node27 -->
<g id="Node000027" class="node">
<title>Node27</title>
<g id="a_Node000027"><a xlink:href="../../dd/d5c/moduledef_8cpp.html" target="_top" xlink:title=" ">
<polygon fill="white" stroke="#666666" points="2918,-19 2812,-19 2812,0 2918,0 2918,-19"/>
<text text-anchor="middle" x="2865" y="-7" font-family="Helvetica,sans-Serif" font-size="10.00">src/moduledef.cpp</text>
</a>
</g>
</g>
<!-- Node2&#45;&gt;Node27 -->
<g id="edge26_Node000002_Node000027" class="edge">
<title>Node2&#45;&gt;Node27</title>
<g id="a_edge26_Node000002_Node000027"><a xlink:title=" ">
<path fill="none" stroke="#63b8ff" d="M2299.73,-60.17C2399.81,-53.85 2618.94,-38.94 2803,-19 2805.92,-18.68 2808.91,-18.34 2811.92,-17.98"/>
<polygon fill="#63b8ff" stroke="#63b8ff" points="2299.33,-56.69 2289.56,-60.81 2299.76,-63.67 2299.33,-56.69"/>
</a>
</g>
</g>
<!-- Node28 -->
<g id="Node000028" class="node">
<title>Node28</title>
<g id="a_Node000028"><a xlink:href="../../d7/d1c/namespacedef_8cpp.html" target="_top" xlink:title=" ">
<polygon fill="white" stroke="#666666" points="3061.5,-19 2936.5,-19 2936.5,0 3061.5,0 3061.5,-19"/>
<text text-anchor="middle" x="2999" y="-7" font-family="Helvetica,sans-Serif" font-size="10.00">src/namespacedef.cpp</text>
</a>
</g>
</g>
<!-- Node2&#45;&gt;Node28 -->
<g id="edge27_Node000002_Node000028" class="edge">
<title>Node2&#45;&gt;Node28</title>
<g id="a_edge27_Node000002_Node000028"><a xlink:title=" ">
<path fill="none" stroke="#63b8ff" d="M2299.79,-60.9C2415.69,-55.19 2694.16,-40.33 2927,-19 2930.01,-18.72 2933.09,-18.43 2936.19,-18.11"/>
<polygon fill="#63b8ff" stroke="#63b8ff" points="2299.57,-57.41 2289.75,-61.39 2299.91,-64.4 2299.57,-57.41"/>
</a>
</g>
</g>
<!-- Node29 -->
<g id="Node000029" class="node">
<title>Node29</title>
<g id="a_Node000029"><a xlink:href="../../db/dd8/outputlist_8cpp.html" target="_top" xlink:title=" ">
<polygon fill="white" stroke="#666666" points="3180.5,-19 3079.5,-19 3079.5,0 3180.5,0 3180.5,-19"/>
<text text-anchor="middle" x="3130" y="-7" font-family="Helvetica,sans-Serif" font-size="10.00">src/outputlist.cpp</text>
</a>
</g>
</g>
<!-- Node2&#45;&gt;Node29 -->
<g id="edge28_Node000002_Node000029" class="edge">
<title>Node2&#45;&gt;Node29</title>
<g id="a_edge28_Node000002_Node000029"><a xlink:title=" ">
<path fill="none" stroke="#63b8ff" d="M2300.2,-62.23C2433.15,-58.79 2781.57,-47.59 3071,-19 3073.68,-18.74 3076.42,-18.44 3079.19,-18.11"/>
<polygon fill="#63b8ff" stroke="#63b8ff" points="2299.78,-58.74 2289.88,-62.49 2299.96,-65.73 2299.78,-58.74"/>
</a>
</g>
</g>
<!-- Node30 -->
<g id="Node000030" class="node">
<title>Node30</title>
<g id="a_Node000030"><a xlink:href="../../d9/db4/pagedef_8cpp.html" target="_top" xlink:title=" ">
<polygon fill="white" stroke="#666666" points="3291.5,-19 3198.5,-19 3198.5,0 3291.5,0 3291.5,-19"/>
<text text-anchor="middle" x="3245" y="-7" font-family="Helvetica,sans-Serif" font-size="10.00">src/pagedef.cpp</text>
</a>
</g>
</g>
<!-- Node2&#45;&gt;Node30 -->
<g id="edge29_Node000002_Node000030" class="edge">
<title>Node2&#45;&gt;Node30</title>
<g id="a_edge29_Node000002_Node000030"><a xlink:title=" ">
<path fill="none" stroke="#63b8ff" d="M2299.91,-62.95C2445.41,-61.06 2852.87,-52.89 3190,-19 3192.69,-18.73 3195.45,-18.42 3198.24,-18.07"/>
<polygon fill="#63b8ff" stroke="#63b8ff" points="2299.84,-59.45 2289.89,-63.08 2299.93,-66.45 2299.84,-59.45"/>
</a>
</g>
</g>
<!-- Node31 -->
<g id="Node000031" class="node">
<title>Node31</title>
<g id="a_Node000031"><a xlink:href="../../d3/ded/pycode_8l.html" target="_top" xlink:title=" ">
<polygon fill="white" stroke="#666666" points="3384.5,-19 3309.5,-19 3309.5,0 3384.5,0 3384.5,-19"/>
<text text-anchor="middle" x="3347" y="-7" font-family="Helvetica,sans-Serif" font-size="10.00">src/pycode.l</text>
</a>
</g>
</g>
<!-- Node2&#45;&gt;Node31 -->
<g id="edge30_Node000002_Node000031" class="edge">
<title>Node2&#45;&gt;Node31</title>
<g id="a_edge30_Node000002_Node000031"><a xlink:title=" ">
<path fill="none" stroke="#63b8ff" d="M2300.02,-63.9C2456.91,-64.46 2919.78,-62.04 3301,-19 3303.74,-18.69 3306.57,-18.31 3309.41,-17.89"/>
<polygon fill="#63b8ff" stroke="#63b8ff" points="2299.71,-60.4 2289.69,-63.86 2299.68,-67.4 2299.71,-60.4"/>
</a>
</g>
</g>
<!-- Node32 -->
<g id="Node000032" class="node">
<title>Node32</title>
<g id="a_Node000032"><a xlink:href="../../d0/d9c/rtfgen_8cpp.html" target="_top" xlink:title=" ">
<polygon fill="white" stroke="#666666" points="3485.5,-19 3402.5,-19 3402.5,0 3485.5,0 3485.5,-19"/>
<text text-anchor="middle" x="3444" y="-7" font-family="Helvetica,sans-Serif" font-size="10.00">src/rtfgen.cpp</text>
</a>
</g>
</g>
<!-- Node2&#45;&gt;Node32 -->
<g id="edge31_Node000002_Node000032" class="edge">
<title>Node2&#45;&gt;Node32</title>
<g id="a_edge31_Node000002_Node000032"><a xlink:title=" ">
<path fill="none" stroke="#63b8ff" d="M2299.92,-63.89C2465.6,-64.54 2974.81,-62.56 3394,-19 3396.71,-18.72 3399.51,-18.38 3402.31,-18"/>
<polygon fill="#63b8ff" stroke="#63b8ff" points="2299.52,-60.39 2289.51,-63.85 2299.49,-67.39 2299.52,-60.39"/>
</a>
</g>
</g>
<!-- Node33 -->
<g id="Node000033" class="node">
<title>Node33</title>
<g id="a_Node000033"><a xlink:href="../../d2/dda/sqlcode_8l.html" target="_top" xlink:title=" ">
<polygon fill="white" stroke="#666666" points="3580.5,-19 3503.5,-19 3503.5,0 3580.5,0 3580.5,-19"/>
<text text-anchor="middle" x="3542" y="-7" font-family="Helvetica,sans-Serif" font-size="10.00">src/sqlcode.l</text>
</a>
</g>
</g>
<!-- Node2&#45;&gt;Node33 -->
<g id="edge32_Node000002_Node000033" class="edge">
<title>Node2&#45;&gt;Node33</title>
<g id="a_edge32_Node000002_Node000033"><a xlink:title=" ">
<path fill="none" stroke="#63b8ff" d="M2299.76,-62.6C2509.01,-58.98 3258.13,-44.5 3495,-19 3497.72,-18.71 3500.52,-18.35 3503.33,-17.95"/>
<polygon fill="#63b8ff" stroke="#63b8ff" points="2299.57,-59.1 2289.63,-62.77 2299.69,-66.1 2299.57,-59.1"/>
</a>
</g>
</g>
<!-- Node34 -->
<g id="Node000034" class="node">
<title>Node34</title>
<g id="a_Node000034"><a xlink:href="../../d8/df8/sqlite3gen_8cpp.html" target="_top" xlink:title=" ">
<polygon fill="white" stroke="#666666" points="3703.5,-19 3598.5,-19 3598.5,0 3703.5,0 3703.5,-19"/>
<text text-anchor="middle" x="3651" y="-7" font-family="Helvetica,sans-Serif" font-size="10.00">src/sqlite3gen.cpp</text>
</a>
</g>
</g>
<!-- Node2&#45;&gt;Node34 -->
<g id="edge33_Node000002_Node000034" class="edge">
<title>Node2&#45;&gt;Node34</title>
<g id="a_edge33_Node000002_Node000034"><a xlink:title=" ">
<path fill="none" stroke="#63b8ff" d="M2299.68,-63.75C2482.67,-64.16 3090.21,-61.97 3590,-19 3592.77,-18.76 3595.61,-18.48 3598.47,-18.18"/>
<polygon fill="#63b8ff" stroke="#63b8ff" points="2299.52,-60.25 2289.51,-63.73 2299.5,-67.25 2299.52,-60.25"/>
</a>
</g>
</g>
<!-- Node35 -->
<g id="Node000035" class="node">
<title>Node35</title>
<g id="a_Node000035"><a xlink:href="../../d7/d56/tooltip_8cpp.html" target="_top" xlink:title=" ">
<polygon fill="white" stroke="#666666" points="3808,-19 3722,-19 3722,0 3808,0 3808,-19"/>
<text text-anchor="middle" x="3765" y="-7" font-family="Helvetica,sans-Serif" font-size="10.00">src/tooltip.cpp</text>
</a>
</g>
</g>
<!-- Node2&#45;&gt;Node35 -->
<g id="edge34_Node000002_Node000035" class="edge">
<title>Node2&#45;&gt;Node35</title>
<g id="a_edge34_Node000002_Node000035"><a xlink:title=" ">
<path fill="none" stroke="#63b8ff" d="M2299.85,-62.81C2531.52,-59.72 3430.86,-46.22 3713,-19 3715.91,-18.72 3718.91,-18.38 3721.93,-17.99"/>
<polygon fill="#63b8ff" stroke="#63b8ff" points="2299.6,-59.31 2289.65,-62.94 2299.69,-66.31 2299.6,-59.31"/>
</a>
</g>
</g>
<!-- Node36 -->
<g id="Node000036" class="node">
<title>Node36</title>
<g id="a_Node000036"><a xlink:href="../../df/d2d/util_8cpp.html" target="_top" xlink:title=" ">
<polygon fill="white" stroke="#666666" points="3896,-19 3826,-19 3826,0 3896,0 3896,-19"/>
<text text-anchor="middle" x="3861" y="-7" font-family="Helvetica,sans-Serif" font-size="10.00">src/util.cpp</text>
</a>
</g>
</g>
<!-- Node2&#45;&gt;Node36 -->
<g id="edge35_Node000002_Node000036" class="edge">
<title>Node2&#45;&gt;Node36</title>
<g id="a_edge35_Node000002_Node000036"><a xlink:title=" ">
<path fill="none" stroke="#63b8ff" d="M2300.14,-63.14C2542.42,-61.38 3513.82,-52.35 3817,-19 3819.78,-18.69 3822.66,-18.31 3825.53,-17.86"/>
<polygon fill="#63b8ff" stroke="#63b8ff" points="2299.8,-59.64 2289.83,-63.22 2299.85,-66.64 2299.8,-59.64"/>
</a>
</g>
</g>
<!-- Node37 -->
<g id="Node000037" class="node">
<title>Node37</title>
<g id="a_Node000037"><a xlink:href="../../d5/d6a/vhdlcode_8l.html" target="_top" xlink:title=" ">
<polygon fill="white" stroke="#666666" points="3998,-19 3914,-19 3914,0 3998,0 3998,-19"/>
<text text-anchor="middle" x="3956" y="-7" font-family="Helvetica,sans-Serif" font-size="10.00">src/vhdlcode.l</text>
</a>
</g>
</g>
<!-- Node2&#45;&gt;Node37 -->
<g id="edge36_Node000002_Node000037" class="edge">
<title>Node2&#45;&gt;Node37</title>
<g id="a_edge36_Node000002_Node000037"><a xlink:title=" ">
<path fill="none" stroke="#63b8ff" d="M2299.91,-63.05C2550.01,-60.84 3583.02,-50 3905,-19 3907.86,-18.72 3910.8,-18.39 3913.76,-18"/>
<polygon fill="#63b8ff" stroke="#63b8ff" points="2299.59,-59.55 2289.62,-63.14 2299.65,-66.55 2299.59,-59.55"/>
</a>
</g>
</g>
<!-- Node38 -->
<g id="Node000038" class="node">
<title>Node38</title>
<g id="a_Node000038"><a xlink:href="../../de/dea/vhdldocgen_8cpp.html" target="_top" xlink:title=" ">
<polygon fill="white" stroke="#666666" points="4126,-19 4016,-19 4016,0 4126,0 4126,-19"/>
<text text-anchor="middle" x="4071" y="-7" font-family="Helvetica,sans-Serif" font-size="10.00">src/vhdldocgen.cpp</text>
</a>
</g>
</g>
<!-- Node2&#45;&gt;Node38 -->
<g id="edge37_Node000002_Node000038" class="edge">
<title>Node2&#45;&gt;Node38</title>
<g id="a_edge37_Node000002_Node000038"><a xlink:title=" ">
<path fill="none" stroke="#63b8ff" d="M2299.85,-62.9C2559.1,-59.97 3663.24,-46.09 4007,-19 4009.91,-18.77 4012.88,-18.5 4015.88,-18.2"/>
<polygon fill="#63b8ff" stroke="#63b8ff" points="2299.52,-59.41 2289.56,-63.02 2299.6,-66.41 2299.52,-59.41"/>
</a>
</g>
</g>
<!-- Node39 -->
<g id="Node000039" class="node">
<title>Node39</title>
<g id="a_Node000039"><a xlink:href="../../d1/d86/vhdljjparser_8cpp.html" target="_top" xlink:title=" ">
<polygon fill="white" stroke="#666666" points="4255.5,-19 4144.5,-19 4144.5,0 4255.5,0 4255.5,-19"/>
<text text-anchor="middle" x="4200" y="-7" font-family="Helvetica,sans-Serif" font-size="10.00">src/vhdljjparser.cpp</text>
</a>
</g>
</g>
<!-- Node2&#45;&gt;Node39 -->
<g id="edge38_Node000002_Node000039" class="edge">
<title>Node2&#45;&gt;Node39</title>
<g id="a_edge38_Node000002_Node000039"><a xlink:title=" ">
<path fill="none" stroke="#63b8ff" d="M2300.28,-62.99C2571.65,-60.39 3764.63,-47.49 4135,-19 4138.06,-18.76 4141.2,-18.48 4144.37,-18.17"/>
<polygon fill="#63b8ff" stroke="#63b8ff" points="2299.87,-59.5 2289.9,-63.09 2299.93,-66.5 2299.87,-59.5"/>
</a>
</g>
</g>
<!-- Node40 -->
<g id="Node000040" class="node">
<title>Node40</title>
<g id="a_Node000040"><a xlink:href="../../dc/dc1/xmlcode_8l.html" target="_top" xlink:title=" ">
<polygon fill="white" stroke="#666666" points="4356,-19 4274,-19 4274,0 4356,0 4356,-19"/>
<text text-anchor="middle" x="4315" y="-7" font-family="Helvetica,sans-Serif" font-size="10.00">src/xmlcode.l</text>
</a>
</g>
</g>
<!-- Node2&#45;&gt;Node40 -->
<g id="edge39_Node000002_Node000040" class="edge">
<title>Node2&#45;&gt;Node40</title>
<g id="a_edge39_Node000002_Node000040"><a xlink:title=" ">
<path fill="none" stroke="#63b8ff" d="M2299.95,-63.38C2581.85,-62.59 3867.88,-56.92 4265,-19 4267.89,-18.72 4270.87,-18.38 4273.86,-17.98"/>
<polygon fill="#63b8ff" stroke="#63b8ff" points="2299.57,-59.88 2289.58,-63.41 2299.59,-66.88 2299.57,-59.88"/>
</a>
</g>
</g>
<!-- Node41 -->
<g id="Node000041" class="node">
<title>Node41</title>
<g id="a_Node000041"><a xlink:href="../../d0/dc3/xmlgen_8cpp.html" target="_top" xlink:title=" ">
<polygon fill="white" stroke="#666666" points="4465.5,-19 4374.5,-19 4374.5,0 4465.5,0 4465.5,-19"/>
<text text-anchor="middle" x="4420" y="-7" font-family="Helvetica,sans-Serif" font-size="10.00">src/xmlgen.cpp</text>
</a>
</g>
</g>
<!-- Node2&#45;&gt;Node41 -->
<g id="edge40_Node000002_Node000041" class="edge">
<title>Node2&#45;&gt;Node41</title>
<g id="a_edge40_Node000002_Node000041"><a xlink:title=" ">
<path fill="none" stroke="#63b8ff" d="M2299.84,-63.33C2589.79,-62.3 3946.59,-55.56 4365,-19 4368.08,-18.73 4371.25,-18.4 4374.44,-18.02"/>
<polygon fill="#63b8ff" stroke="#63b8ff" points="2299.57,-59.83 2289.59,-63.37 2299.6,-66.83 2299.57,-59.83"/>
</a>
</g>
</g>
</g>
</svg>

<g id="navigator" transform="translate(0 0)" fill="#404254">
  <rect fill="#f2f5e9" fill-opacity="0.5" stroke="#606060" stroke-width=".5" x="0" y="0" width="60" height="60"/>
  <use id="zoomplus" xlink:href="#zoomPlus" x="17" y="9" onmousedown="handleZoom(evt,'in')"/>
  <use id="zoomminus" xlink:href="#zoomMin" x="42" y="9" onmousedown="handleZoom(evt,'out')"/>
  <use id="reset" xlink:href="#resetDef" x="30" y="36" onmousedown="handleReset()"/>
   <use id="arrowup" xlink:href="#arrowUp" x="0" y="0" onmousedown="handlePan(0,-1)"/>
  <use id="arrowright" xlink:href="#arrowRight" x="0" y="0" onmousedown="handlePan(1,0)"/>
  <use id="arrowdown" xlink:href="#arrowDown" x="0" y="0" onmousedown="handlePan(0,1)"/>
  <use id="arrowleft" xlink:href="#arrowLeft" x="0" y="0" onmousedown="handlePan(-1,0)"/>
</g>
<svg viewBox="0 0 15 15" width="100%" height="30px" preserveAspectRatio="xMaxYMin meet">
 <g id="arrow_out" transform="scale(0.3 0.3)">
  <a xlink:href="devnullgen_8h__dep__incl_org.svg" target="_base">
   <rect id="button" ry="5" rx="5" y="6" x="6" height="38" width="38"
        fill="#f2f5e9" fill-opacity="0.5" stroke="#606060" stroke-width="1.0"/>
   <path id="arrow"
     d="M 11.500037,31.436501 C 11.940474,20.09759 22.043105,11.32322 32.158766,21.979434 L 37.068811,17.246167 C 37.068811,17.246167 37.088388,32 37.088388,32 L 22.160133,31.978069 C 22.160133,31.978069 26.997745,27.140456 26.997745,27.140456 C 18.528582,18.264221 13.291696,25.230495 11.500037,31.436501 z"
     style="fill:#404040;"/>
  </a>
 </g>
</svg>

<style type='text/css'>
<![CDATA[
[data-mouse-over-selected='false'] { opacity: 0.7; }
[data-mouse-over-selected='true']  { opacity: 1.0; }
]]>
</style>
<script type="application/ecmascript"><![CDATA[
document.addEventListener('DOMContentLoaded', (event) => {
  highlightEdges();
  highlightAdjacentNodes();
});
]]></script>
</svg>
