<?xml version="1.0" encoding="UTF-8" standalone="no"?>
<!DOCTYPE svg PUBLIC "-//W3C//DTD SVG 1.1//EN"
 "http://www.w3.org/Graphics/SVG/1.1/DTD/svg11.dtd">
<!-- Generated by graphviz version 2.43.0 (0)
 -->
<!-- Title: src/dotattributes.h Pages: 1 -->
<!--zoomable 192 -->

<svg id="main" version="1.1" xmlns="http://www.w3.org/2000/svg" xmlns:xlink="http://www.w3.org/1999/xlink" xml:space="preserve" onload="init(evt)">

<style type="text/css"><![CDATA[
.node, .edge {opacity: 0.7;}
.node.selected, .edge.selected {opacity: 1;}
.edge:hover path { stroke: red; }
.edge:hover polygon { stroke: red; fill: red; }
]]></style>

<defs>
  <circle id="rim" cx="0" cy="0" r="7"/>
  <circle id="rim2" cx="0" cy="0" r="3.5"/>
  <g id="zoomPlus">
    <use xlink:href="#rim" fill="#404040"><set attributeName="fill" to="#808080" begin="zoomplus.mouseover" end="zoomplus.mouseout"/></use>
    <path d="M-4,0h8M0,-4v8" fill="none" stroke="white" stroke-width="1.5" pointer-events="none"/>
  </g>
  <g id="zoomMin">
    <use xlink:href="#rim" fill="#404040"><set attributeName="fill" to="#808080" begin="zoomminus.mouseover" end="zoomminus.mouseout"/></use>
    <path d="M-4,0h8" fill="none" stroke="white" stroke-width="1.5" pointer-events="none"/>
  </g>
  <g id="arrowUp" transform="translate(30 24)">
    <use xlink:href="#rim"/>
    <path pointer-events="none" fill="none" stroke="white" stroke-width="1.5" d="M0,-3.0v7 M-2.5,-0.5L0,-3.0L2.5,-0.5"/>
  </g>
  <g id="arrowRight" transform="rotate(90) translate(36 -43)">
    <use xlink:href="#rim"/>
    <path pointer-events="none" fill="none" stroke="white" stroke-width="1.5" d="M0,-3.0v7 M-2.5,-0.5L0,-3.0L2.5,-0.5"/>
  </g>
  <g id="arrowDown" transform="rotate(180) translate(-30 -48)">
    <use xlink:href="#rim"/>
    <path pointer-events="none" fill="none" stroke="white" stroke-width="1.5" d="M0,-3.0v7 M-2.5,-0.5L0,-3.0L2.5,-0.5"/>
  </g>
  <g id="arrowLeft" transform="rotate(270) translate(-36 17)">
    <use xlink:href="#rim"/>
    <path pointer-events="none" fill="none" stroke="white" stroke-width="1.5" d="M0,-3.0v7 M-2.5,-0.5L0,-3.0L2.5,-0.5"/>
  </g>
  <g id="resetDef">
    <use xlink:href="#rim2" fill="#404040"><set attributeName="fill" to="#808080" begin="reset.mouseover" end="reset.mouseout"/></use>
  </g>
</defs>
<script type="application/ecmascript">
var viewWidth = 1056;
var viewHeight = 192;
var sectionId = 'dynsection-0';
</script>
<script type="application/ecmascript" xlink:href="../../svg.min.js"/>
<svg id="graph" class="graph">
<g id="viewport">
<title>src/dotattributes.h</title>
<!-- Node1 -->
<g id="Node000001" class="node">
<title>Node1</title>
<g id="a_Node000001"><a xlink:title=" ">
<polygon fill="#999999" stroke="#666666" points="217,-184 111,-184 111,-165 217,-165 217,-184"/>
<text text-anchor="middle" x="164" y="-172" font-family="Helvetica,sans-Serif" font-size="10.00">src/dotattributes.h</text>
</a>
</g>
</g>
<!-- Node2 -->
<g id="Node000002" class="node">
<title>Node2</title>
<g id="a_Node000002"><a xlink:title=" ">
<polygon fill="#e0e0e0" stroke="#999999" points="38,-129 0,-129 0,-110 38,-110 38,-129"/>
<text text-anchor="middle" x="19" y="-117" font-family="Helvetica,sans-Serif" font-size="10.00">map</text>
</a>
</g>
</g>
<!-- Node1&#45;&gt;Node2 -->
<g id="edge1_Node000001_Node000002" class="edge">
<title>Node1&#45;&gt;Node2</title>
<g id="a_edge1_Node000001_Node000002"><a xlink:title=" ">
<path fill="none" stroke="#63b8ff" d="M140.7,-164.98C115.43,-155.75 75.06,-140.99 47.81,-131.03"/>
<polygon fill="#63b8ff" stroke="#63b8ff" points="48.67,-127.62 38.07,-127.47 46.26,-134.19 48.67,-127.62"/>
</a>
</g>
</g>
<!-- Node3 -->
<g id="Node000003" class="node">
<title>Node3</title>
<g id="a_Node000003"><a xlink:title=" ">
<polygon fill="#e0e0e0" stroke="#999999" points="578,-19 534,-19 534,0 578,0 578,-19"/>
<text text-anchor="middle" x="556" y="-7" font-family="Helvetica,sans-Serif" font-size="10.00">string</text>
</a>
</g>
</g>
<!-- Node1&#45;&gt;Node3 -->
<g id="edge2_Node000001_Node000003" class="edge">
<title>Node1&#45;&gt;Node3</title>
<g id="a_edge2_Node000001_Node000003"><a xlink:title=" ">
<path fill="none" stroke="#63b8ff" d="M150.45,-164.84C120.01,-144.36 51.39,-91.94 85,-55 114.47,-22.62 421.61,-13.31 523.42,-11.1"/>
<polygon fill="#63b8ff" stroke="#63b8ff" points="523.78,-14.59 533.71,-10.89 523.64,-7.59 523.78,-14.59"/>
</a>
</g>
</g>
<!-- Node4 -->
<g id="Node000004" class="node">
<title>Node4</title>
<g id="a_Node000004"><a xlink:href="../../d1/d21/regex_8h.html" target="_top" xlink:title=" ">
<polygon fill="white" stroke="#666666" points="288.5,-129 235.5,-129 235.5,-110 288.5,-110 288.5,-129"/>
<text text-anchor="middle" x="262" y="-117" font-family="Helvetica,sans-Serif" font-size="10.00">regex.h</text>
</a>
</g>
</g>
<!-- Node1&#45;&gt;Node4 -->
<g id="edge3_Node000001_Node000004" class="edge">
<title>Node1&#45;&gt;Node4</title>
<g id="a_edge3_Node000001_Node000004"><a xlink:title=" ">
<path fill="none" stroke="#63b8ff" d="M179.75,-164.98C195.23,-156.61 219.09,-143.7 237.14,-133.95"/>
<polygon fill="#63b8ff" stroke="#63b8ff" points="238.84,-137.01 245.97,-129.17 235.51,-130.85 238.84,-137.01"/>
</a>
</g>
</g>
<!-- Node10 -->
<g id="Node000010" class="node">
<title>Node10</title>
<g id="a_Node000010"><a xlink:href="../../d7/d5c/qcstring_8h.html" target="_top" xlink:title=" ">
<polygon fill="white" stroke="#666666" points="767.5,-129 702.5,-129 702.5,-110 767.5,-110 767.5,-129"/>
<text text-anchor="middle" x="735" y="-117" font-family="Helvetica,sans-Serif" font-size="10.00">qcstring.h</text>
</a>
</g>
</g>
<!-- Node1&#45;&gt;Node10 -->
<g id="edge10_Node000001_Node000010" class="edge">
<title>Node1&#45;&gt;Node10</title>
<g id="a_edge10_Node000001_Node000010"><a xlink:title=" ">
<path fill="none" stroke="#63b8ff" d="M217.21,-168.56C329.76,-158.11 590.03,-133.96 692.47,-124.45"/>
<polygon fill="#63b8ff" stroke="#63b8ff" points="692.82,-127.93 702.45,-123.52 692.17,-120.96 692.82,-127.93"/>
</a>
</g>
</g>
<!-- Node4&#45;&gt;Node3 -->
<g id="edge5_Node000004_Node000003" class="edge">
<title>Node4&#45;&gt;Node3</title>
<g id="a_edge5_Node000004_Node000003"><a xlink:title=" ">
<path fill="none" stroke="#63b8ff" d="M288.44,-109.94C313.77,-101.53 352.91,-87.95 386,-74 403.77,-66.51 407.17,-62.34 425,-55 458.29,-41.3 497.49,-28.39 524.28,-20.04"/>
<polygon fill="#63b8ff" stroke="#63b8ff" points="525.38,-23.37 533.9,-17.07 523.31,-16.68 525.38,-23.37"/>
</a>
</g>
</g>
<!-- Node5 -->
<g id="Node000005" class="node">
<title>Node5</title>
<g id="a_Node000005"><a xlink:title=" ">
<polygon fill="#e0e0e0" stroke="#999999" points="152,-74 94,-74 94,-55 152,-55 152,-74"/>
<text text-anchor="middle" x="123" y="-62" font-family="Helvetica,sans-Serif" font-size="10.00">memory</text>
</a>
</g>
</g>
<!-- Node4&#45;&gt;Node5 -->
<g id="edge4_Node000004_Node000005" class="edge">
<title>Node4&#45;&gt;Node5</title>
<g id="a_edge4_Node000004_Node000005"><a xlink:title=" ">
<path fill="none" stroke="#63b8ff" d="M239.67,-109.98C216.8,-101.27 181.04,-87.63 155.14,-77.75"/>
<polygon fill="#63b8ff" stroke="#63b8ff" points="156.33,-74.46 145.74,-74.17 153.84,-81 156.33,-74.46"/>
</a>
</g>
</g>
<!-- Node6 -->
<g id="Node000006" class="node">
<title>Node6</title>
<g id="a_Node000006"><a xlink:title=" ">
<polygon fill="#e0e0e0" stroke="#999999" points="507.5,-74 434.5,-74 434.5,-55 507.5,-55 507.5,-74"/>
<text text-anchor="middle" x="471" y="-62" font-family="Helvetica,sans-Serif" font-size="10.00">string_view</text>
</a>
</g>
</g>
<!-- Node4&#45;&gt;Node6 -->
<g id="edge6_Node000004_Node000006" class="edge">
<title>Node4&#45;&gt;Node6</title>
<g id="a_edge6_Node000004_Node000006"><a xlink:title=" ">
<path fill="none" stroke="#63b8ff" d="M288.9,-111.68C323.93,-102.79 385.63,-87.15 427.4,-76.56"/>
<polygon fill="#63b8ff" stroke="#63b8ff" points="428.46,-79.9 437.3,-74.05 426.74,-73.11 428.46,-79.9"/>
</a>
</g>
</g>
<!-- Node7 -->
<g id="Node000007" class="node">
<title>Node7</title>
<g id="a_Node000007"><a xlink:title=" ">
<polygon fill="#e0e0e0" stroke="#999999" points="217.5,-74 170.5,-74 170.5,-55 217.5,-55 217.5,-74"/>
<text text-anchor="middle" x="194" y="-62" font-family="Helvetica,sans-Serif" font-size="10.00">vector</text>
</a>
</g>
</g>
<!-- Node4&#45;&gt;Node7 -->
<g id="edge7_Node000004_Node000007" class="edge">
<title>Node4&#45;&gt;Node7</title>
<g id="a_edge7_Node000004_Node000007"><a xlink:title=" ">
<path fill="none" stroke="#63b8ff" d="M251.07,-109.98C240.92,-102.07 225.58,-90.11 213.35,-80.58"/>
<polygon fill="#63b8ff" stroke="#63b8ff" points="215.16,-77.56 205.12,-74.17 210.86,-83.08 215.16,-77.56"/>
</a>
</g>
</g>
<!-- Node8 -->
<g id="Node000008" class="node">
<title>Node8</title>
<g id="a_Node000008"><a xlink:title=" ">
<polygon fill="#e0e0e0" stroke="#999999" points="288.5,-74 235.5,-74 235.5,-55 288.5,-55 288.5,-74"/>
<text text-anchor="middle" x="262" y="-62" font-family="Helvetica,sans-Serif" font-size="10.00">iterator</text>
</a>
</g>
</g>
<!-- Node4&#45;&gt;Node8 -->
<g id="edge8_Node000004_Node000008" class="edge">
<title>Node4&#45;&gt;Node8</title>
<g id="a_edge8_Node000004_Node000008"><a xlink:title=" ">
<path fill="none" stroke="#63b8ff" d="M262,-109.75C262,-102.8 262,-92.85 262,-84.13"/>
<polygon fill="#63b8ff" stroke="#63b8ff" points="265.5,-84.09 262,-74.09 258.5,-84.09 265.5,-84.09"/>
</a>
</g>
</g>
<!-- Node9 -->
<g id="Node000009" class="node">
<title>Node9</title>
<g id="a_Node000009"><a xlink:href="../../d7/dfc/construct_8h.html" target="_top" xlink:title=" ">
<polygon fill="white" stroke="#666666" points="377.5,-74 306.5,-74 306.5,-55 377.5,-55 377.5,-74"/>
<text text-anchor="middle" x="342" y="-62" font-family="Helvetica,sans-Serif" font-size="10.00">construct.h</text>
</a>
</g>
</g>
<!-- Node4&#45;&gt;Node9 -->
<g id="edge9_Node000004_Node000009" class="edge">
<title>Node4&#45;&gt;Node9</title>
<g id="a_edge9_Node000004_Node000009"><a xlink:title=" ">
<path fill="none" stroke="#63b8ff" d="M274.85,-109.98C287.14,-101.84 305.91,-89.41 320.48,-79.76"/>
<polygon fill="#63b8ff" stroke="#63b8ff" points="322.51,-82.61 328.91,-74.17 318.64,-76.78 322.51,-82.61"/>
</a>
</g>
</g>
<!-- Node10&#45;&gt;Node3 -->
<g id="edge11_Node000010_Node000003" class="edge">
<title>Node10&#45;&gt;Node3</title>
<g id="a_edge11_Node000010_Node000003"><a xlink:title=" ">
<path fill="none" stroke="#63b8ff" d="M709.16,-109.89C687.46,-102.1 656.06,-89.48 631,-74 608.71,-60.23 586.18,-40.13 571.71,-26.25"/>
<polygon fill="#63b8ff" stroke="#63b8ff" points="574.15,-23.75 564.56,-19.26 569.26,-28.75 574.15,-23.75"/>
</a>
</g>
</g>
<!-- Node10&#45;&gt;Node6 -->
<g id="edge12_Node000010_Node000006" class="edge">
<title>Node10&#45;&gt;Node6</title>
<g id="a_edge12_Node000010_Node000006"><a xlink:title=" ">
<path fill="none" stroke="#63b8ff" d="M702.36,-111.95C655.97,-102.63 570.69,-85.51 517.64,-74.86"/>
<polygon fill="#63b8ff" stroke="#63b8ff" points="518.29,-71.42 507.8,-72.89 516.91,-78.29 518.29,-71.42"/>
</a>
</g>
</g>
<!-- Node11 -->
<g id="Node000011" class="node">
<title>Node11</title>
<g id="a_Node000011"><a xlink:title=" ">
<polygon fill="#e0e0e0" stroke="#999999" points="767,-74 703,-74 703,-55 767,-55 767,-74"/>
<text text-anchor="middle" x="735" y="-62" font-family="Helvetica,sans-Serif" font-size="10.00">algorithm</text>
</a>
</g>
</g>
<!-- Node10&#45;&gt;Node11 -->
<g id="edge13_Node000010_Node000011" class="edge">
<title>Node10&#45;&gt;Node11</title>
<g id="a_edge13_Node000010_Node000011"><a xlink:title=" ">
<path fill="none" stroke="#63b8ff" d="M735,-109.75C735,-102.8 735,-92.85 735,-84.13"/>
<polygon fill="#63b8ff" stroke="#63b8ff" points="738.5,-84.09 735,-74.09 731.5,-84.09 738.5,-84.09"/>
</a>
</g>
</g>
<!-- Node12 -->
<g id="Node000012" class="node">
<title>Node12</title>
<g id="a_Node000012"><a xlink:title=" ">
<polygon fill="#e0e0e0" stroke="#999999" points="834.5,-74 785.5,-74 785.5,-55 834.5,-55 834.5,-74"/>
<text text-anchor="middle" x="810" y="-62" font-family="Helvetica,sans-Serif" font-size="10.00">cctype</text>
</a>
</g>
</g>
<!-- Node10&#45;&gt;Node12 -->
<g id="edge14_Node000010_Node000012" class="edge">
<title>Node10&#45;&gt;Node12</title>
<g id="a_edge14_Node000010_Node000012"><a xlink:title=" ">
<path fill="none" stroke="#63b8ff" d="M747.05,-109.98C758.46,-101.92 775.83,-89.65 789.43,-80.03"/>
<polygon fill="#63b8ff" stroke="#63b8ff" points="791.58,-82.8 797.73,-74.17 787.54,-77.08 791.58,-82.8"/>
</a>
</g>
</g>
<!-- Node13 -->
<g id="Node000013" class="node">
<title>Node13</title>
<g id="a_Node000013"><a xlink:title=" ">
<polygon fill="#e0e0e0" stroke="#999999" points="903,-74 853,-74 853,-55 903,-55 903,-74"/>
<text text-anchor="middle" x="878" y="-62" font-family="Helvetica,sans-Serif" font-size="10.00">cstring</text>
</a>
</g>
</g>
<!-- Node10&#45;&gt;Node13 -->
<g id="edge15_Node000010_Node000013" class="edge">
<title>Node10&#45;&gt;Node13</title>
<g id="a_edge15_Node000010_Node000013"><a xlink:title=" ">
<path fill="none" stroke="#63b8ff" d="M757.98,-109.98C781.5,-101.27 818.29,-87.63 844.94,-77.75"/>
<polygon fill="#63b8ff" stroke="#63b8ff" points="846.45,-80.93 854.61,-74.17 844.01,-74.36 846.45,-80.93"/>
</a>
</g>
</g>
<!-- Node14 -->
<g id="Node000014" class="node">
<title>Node14</title>
<g id="a_Node000014"><a xlink:title=" ">
<polygon fill="#e0e0e0" stroke="#999999" points="967,-74 921,-74 921,-55 967,-55 967,-74"/>
<text text-anchor="middle" x="944" y="-62" font-family="Helvetica,sans-Serif" font-size="10.00">cstdio</text>
</a>
</g>
</g>
<!-- Node10&#45;&gt;Node14 -->
<g id="edge16_Node000010_Node000014" class="edge">
<title>Node10&#45;&gt;Node14</title>
<g id="a_edge16_Node000010_Node000014"><a xlink:title=" ">
<path fill="none" stroke="#63b8ff" d="M767.66,-110.43C801.25,-102.09 855.36,-88.59 911.23,-74.17"/>
<polygon fill="#63b8ff" stroke="#63b8ff" points="912.13,-77.56 920.94,-71.67 910.38,-70.78 912.13,-77.56"/>
</a>
</g>
</g>
<!-- Node15 -->
<g id="Node000015" class="node">
<title>Node15</title>
<g id="a_Node000015"><a xlink:title=" ">
<polygon fill="#e0e0e0" stroke="#999999" points="1034.5,-74 985.5,-74 985.5,-55 1034.5,-55 1034.5,-74"/>
<text text-anchor="middle" x="1010" y="-62" font-family="Helvetica,sans-Serif" font-size="10.00">cstdlib</text>
</a>
</g>
</g>
<!-- Node10&#45;&gt;Node15 -->
<g id="edge17_Node000010_Node000015" class="edge">
<title>Node10&#45;&gt;Node15</title>
<g id="a_edge17_Node000010_Node000015"><a xlink:title=" ">
<path fill="none" stroke="#63b8ff" d="M767.87,-113.1C812.48,-105.62 894.87,-91.31 974.91,-74.12"/>
<polygon fill="#63b8ff" stroke="#63b8ff" points="976.13,-77.44 985.16,-71.9 974.65,-70.6 976.13,-77.44"/>
</a>
</g>
</g>
<!-- Node16 -->
<g id="Node000016" class="node">
<title>Node16</title>
<g id="a_Node000016"><a xlink:title=" ">
<polygon fill="#e0e0e0" stroke="#999999" points="741,-19 691,-19 691,0 741,0 741,-19"/>
<text text-anchor="middle" x="716" y="-7" font-family="Helvetica,sans-Serif" font-size="10.00">cstdint</text>
</a>
</g>
</g>
<!-- Node10&#45;&gt;Node16 -->
<g id="edge18_Node000010_Node000016" class="edge">
<title>Node10&#45;&gt;Node16</title>
<g id="a_edge18_Node000010_Node000016"><a xlink:title=" ">
<path fill="none" stroke="#63b8ff" d="M767.53,-118.92C839.45,-119.09 1008.47,-115.02 1044,-74 1049.53,-67.62 1049.56,-61.36 1044,-55 1006.27,-11.8 827.96,-8.92 751.24,-9.74"/>
<polygon fill="#63b8ff" stroke="#63b8ff" points="751.06,-6.24 741.11,-9.88 751.16,-13.24 751.06,-6.24"/>
</a>
</g>
</g>
<!-- Node17 -->
<g id="Node000017" class="node">
<title>Node17</title>
<g id="a_Node000017"><a xlink:title=" ">
<polygon fill="#e0e0e0" stroke="#999999" points="582.5,-74 525.5,-74 525.5,-55 582.5,-55 582.5,-74"/>
<text text-anchor="middle" x="554" y="-62" font-family="Helvetica,sans-Serif" font-size="10.00">ostream</text>
</a>
</g>
</g>
<!-- Node10&#45;&gt;Node17 -->
<g id="edge19_Node000010_Node000017" class="edge">
<title>Node10&#45;&gt;Node17</title>
<g id="a_edge19_Node000010_Node000017"><a xlink:title=" ">
<path fill="none" stroke="#63b8ff" d="M705.92,-109.98C675.22,-100.99 626.66,-86.78 592.73,-76.84"/>
<polygon fill="#63b8ff" stroke="#63b8ff" points="593.29,-73.36 582.71,-73.91 591.32,-80.08 593.29,-73.36"/>
</a>
</g>
</g>
<!-- Node18 -->
<g id="Node000018" class="node">
<title>Node18</title>
<g id="a_Node000018"><a xlink:href="../../db/d7c/utf8_8h.html" target="_top" xlink:title="Various UTF8 related helper functions.">
<polygon fill="white" stroke="#666666" points="684.5,-74 639.5,-74 639.5,-55 684.5,-55 684.5,-74"/>
<text text-anchor="middle" x="662" y="-62" font-family="Helvetica,sans-Serif" font-size="10.00">utf8.h</text>
</a>
</g>
</g>
<!-- Node10&#45;&gt;Node18 -->
<g id="edge20_Node000010_Node000018" class="edge">
<title>Node10&#45;&gt;Node18</title>
<g id="a_edge20_Node000010_Node000018"><a xlink:title=" ">
<path fill="none" stroke="#63b8ff" d="M723.27,-109.98C712.27,-102 695.58,-89.88 682.4,-80.31"/>
<polygon fill="#63b8ff" stroke="#63b8ff" points="684.09,-77.21 673.94,-74.17 679.98,-82.88 684.09,-77.21"/>
</a>
</g>
</g>
<!-- Node18&#45;&gt;Node3 -->
<g id="edge22_Node000018_Node000003" class="edge">
<title>Node18&#45;&gt;Node3</title>
<g id="a_edge22_Node000018_Node000003"><a xlink:title=" ">
<path fill="none" stroke="#63b8ff" d="M644.97,-54.98C628.07,-46.54 601.94,-33.47 582.36,-23.68"/>
<polygon fill="#63b8ff" stroke="#63b8ff" points="583.85,-20.51 573.34,-19.17 580.72,-26.77 583.85,-20.51"/>
</a>
</g>
</g>
<!-- Node18&#45;&gt;Node16 -->
<g id="edge21_Node000018_Node000016" class="edge">
<title>Node18&#45;&gt;Node16</title>
<g id="a_edge21_Node000018_Node000016"><a xlink:title=" ">
<path fill="none" stroke="#63b8ff" d="M670.92,-54.75C678.78,-47.03 690.43,-35.6 699.92,-26.28"/>
<polygon fill="#63b8ff" stroke="#63b8ff" points="702.56,-28.59 707.25,-19.09 697.66,-23.6 702.56,-28.59"/>
</a>
</g>
</g>
</g>
</svg>

<g id="navigator" transform="translate(0 0)" fill="#404254">
  <rect fill="#f2f5e9" fill-opacity="0.5" stroke="#606060" stroke-width=".5" x="0" y="0" width="60" height="60"/>
  <use id="zoomplus" xlink:href="#zoomPlus" x="17" y="9" onmousedown="handleZoom(evt,'in')"/>
  <use id="zoomminus" xlink:href="#zoomMin" x="42" y="9" onmousedown="handleZoom(evt,'out')"/>
  <use id="reset" xlink:href="#resetDef" x="30" y="36" onmousedown="handleReset()"/>
   <use id="arrowup" xlink:href="#arrowUp" x="0" y="0" onmousedown="handlePan(0,-1)"/>
  <use id="arrowright" xlink:href="#arrowRight" x="0" y="0" onmousedown="handlePan(1,0)"/>
  <use id="arrowdown" xlink:href="#arrowDown" x="0" y="0" onmousedown="handlePan(0,1)"/>
  <use id="arrowleft" xlink:href="#arrowLeft" x="0" y="0" onmousedown="handlePan(-1,0)"/>
</g>
<svg viewBox="0 0 15 15" width="100%" height="30px" preserveAspectRatio="xMaxYMin meet">
 <g id="arrow_out" transform="scale(0.3 0.3)">
  <a xlink:href="dotattributes_8h__incl_org.svg" target="_base">
   <rect id="button" ry="5" rx="5" y="6" x="6" height="38" width="38"
        fill="#f2f5e9" fill-opacity="0.5" stroke="#606060" stroke-width="1.0"/>
   <path id="arrow"
     d="M 11.500037,31.436501 C 11.940474,20.09759 22.043105,11.32322 32.158766,21.979434 L 37.068811,17.246167 C 37.068811,17.246167 37.088388,32 37.088388,32 L 22.160133,31.978069 C 22.160133,31.978069 26.997745,27.140456 26.997745,27.140456 C 18.528582,18.264221 13.291696,25.230495 11.500037,31.436501 z"
     style="fill:#404040;"/>
  </a>
 </g>
</svg>

<style type='text/css'>
<![CDATA[
[data-mouse-over-selected='false'] { opacity: 0.7; }
[data-mouse-over-selected='true']  { opacity: 1.0; }
]]>
</style>
<script type="application/ecmascript"><![CDATA[
document.addEventListener('DOMContentLoaded', (event) => {
  highlightEdges();
  highlightAdjacentNodes();
});
]]></script>
</svg>
