<?xml version="1.0" encoding="UTF-8" standalone="no"?>
<!DOCTYPE svg PUBLIC "-//W3C//DTD SVG 1.1//EN"
 "http://www.w3.org/Graphics/SVG/1.1/DTD/svg11.dtd">
<!-- Generated by graphviz version 2.43.0 (0)
 -->
<!-- Title: TemplateNodeMarkers Pages: 1 -->
<svg width="537pt" height="247pt"
 viewBox="0.00 0.00 536.50 247.00" xmlns="http://www.w3.org/2000/svg" xmlns:xlink="http://www.w3.org/1999/xlink">
<g id="graph0" class="graph" transform="scale(1 1) rotate(0) translate(4 243)">
<title>TemplateNodeMarkers</title>
<!-- Node1 -->
<g id="Node000001" class="node">
<title>Node1</title>
<g id="a_Node000001"><a xlink:title="Class representing an &#39;markers&#39; tag in a template.">
<polygon fill="#999999" stroke="#666666" points="413.5,-19 287.5,-19 287.5,0 413.5,0 413.5,-19"/>
<text text-anchor="middle" x="350.5" y="-7" font-family="Helvetica,sans-Serif" font-size="10.00">TemplateNodeMarkers</text>
</a>
</g>
</g>
<!-- Node2 -->
<g id="Node000002" class="node">
<title>Node2</title>
<g id="a_Node000002"><a xlink:href="../../d8/d78/class_template_node_creator.html" target="_top" xlink:title=" ">
<polygon fill="white" stroke="#666666" points="230,-96 81,-96 81,-66 230,-66 230,-96"/>
<text text-anchor="start" x="89" y="-84" font-family="Helvetica,sans-Serif" font-size="10.00">TemplateNodeCreator</text>
<text text-anchor="middle" x="155.5" y="-73" font-family="Helvetica,sans-Serif" font-size="10.00">&lt; TemplateNodeMarkers &gt;</text>
</a>
</g>
</g>
<!-- Node2&#45;&gt;Node1 -->
<g id="edge1_Node000001_Node000002" class="edge">
<title>Node2&#45;&gt;Node1</title>
<g id="a_edge1_Node000001_Node000002"><a xlink:title=" ">
<path fill="none" stroke="#63b8ff" d="M204.54,-62.52C243.46,-48.65 296.19,-29.85 326.46,-19.07"/>
<polygon fill="#63b8ff" stroke="#63b8ff" points="203.21,-59.28 194.96,-65.94 205.56,-65.88 203.21,-59.28"/>
</a>
</g>
</g>
<!-- Node3 -->
<g id="Node000003" class="node">
<title>Node3</title>
<g id="a_Node000003"><a xlink:href="../../d6/d53/class_template_node.html" target="_top" xlink:title="Base class of all nodes in a template&#39;s AST.">
<polygon fill="white" stroke="#666666" points="87,-239 0,-239 0,-220 87,-220 87,-239"/>
<text text-anchor="middle" x="43.5" y="-227" font-family="Helvetica,sans-Serif" font-size="10.00">TemplateNode</text>
</a>
</g>
</g>
<!-- Node3&#45;&gt;Node2 -->
<g id="edge2_Node000002_Node000003" class="edge">
<title>Node3&#45;&gt;Node2</title>
<g id="a_edge2_Node000002_Node000003"><a xlink:title=" ">
<path fill="none" stroke="#63b8ff" d="M35.76,-210.58C29.2,-192.5 22.47,-164.3 33.5,-143 45.58,-119.66 70.12,-105.09 94.05,-96.07"/>
<polygon fill="#63b8ff" stroke="#63b8ff" points="32.53,-211.91 39.46,-219.92 39.03,-209.33 32.53,-211.91"/>
</a>
</g>
</g>
<!-- Node3&#45;&gt;Node3 -->
<g id="edge3_Node000003_Node000003" class="edge">
<title>Node3&#45;&gt;Node3</title>
<g id="a_edge3_Node000003_Node000003"><a xlink:title=" ">
<path fill="none" stroke="#9a32cd" stroke-dasharray="5,2" d="M97.32,-234.21C102.04,-233.22 105,-231.65 105,-229.5 105,-226.06 97.43,-224.1 87.17,-223.62"/>
<polygon fill="#9a32cd" stroke="#9a32cd" points="96.7,-230.76 87.17,-235.38 97.5,-237.72 96.7,-230.76"/>
</a>
</g>
<text text-anchor="middle" x="130" y="-227" font-family="Helvetica,sans-Serif" font-size="10.00" fill="grey"> m_parent</text>
</g>
<!-- Node5 -->
<g id="Node000005" class="node">
<title>Node5</title>
<g id="a_Node000005"><a xlink:href="../../d8/d78/class_template_node_creator.html" target="_top" xlink:title="Helper class for creating template AST tag nodes and returning the template for a given node.">
<polygon fill="white" stroke="#666666" points="194.5,-167.5 42.5,-167.5 42.5,-148.5 194.5,-148.5 194.5,-167.5"/>
<text text-anchor="middle" x="118.5" y="-155.5" font-family="Helvetica,sans-Serif" font-size="10.00">TemplateNodeCreator&lt; T &gt;</text>
</a>
</g>
</g>
<!-- Node3&#45;&gt;Node5 -->
<g id="edge6_Node000005_Node000003" class="edge">
<title>Node3&#45;&gt;Node5</title>
<g id="a_edge6_Node000005_Node000003"><a xlink:title=" ">
<path fill="none" stroke="#63b8ff" d="M60.32,-212.92C75.42,-198.92 97.04,-178.88 109.23,-167.59"/>
<polygon fill="#63b8ff" stroke="#63b8ff" points="57.65,-210.61 52.7,-219.98 62.41,-215.75 57.65,-210.61"/>
</a>
</g>
</g>
<!-- Node4 -->
<g id="Node000004" class="node">
<title>Node4</title>
<g id="a_Node000004"><a xlink:href="../../d9/d45/class_q_c_string.html" target="_top" xlink:title="This is an alternative implementation of QCString.">
<polygon fill="white" stroke="#666666" points="260,-239 201,-239 201,-220 260,-220 260,-239"/>
<text text-anchor="middle" x="230.5" y="-227" font-family="Helvetica,sans-Serif" font-size="10.00">QCString</text>
</a>
</g>
</g>
<!-- Node4&#45;&gt;Node1 -->
<g id="edge10_Node000001_Node000004" class="edge">
<title>Node4&#45;&gt;Node1</title>
<g id="a_edge10_Node000001_Node000004"><a xlink:title=" ">
<path fill="none" stroke="#9a32cd" stroke-dasharray="5,2" d="M269.67,-216.32C290.83,-207.66 315.44,-193.81 329.5,-173 363.1,-123.27 355.58,-45.12 351.9,-19.19"/>
<polygon fill="#9a32cd" stroke="#9a32cd" points="268.32,-213.09 260.24,-219.94 270.83,-219.62 268.32,-213.09"/>
</a>
</g>
<text text-anchor="middle" x="367.5" y="-117" font-family="Helvetica,sans-Serif" font-size="10.00" fill="grey"> m_var</text>
</g>
<!-- Node4&#45;&gt;Node2 -->
<g id="edge4_Node000002_Node000004" class="edge">
<title>Node4&#45;&gt;Node2</title>
<g id="a_edge4_Node000002_Node000004"><a xlink:title=" ">
<path fill="none" stroke="#9a32cd" stroke-dasharray="5,2" d="M233.19,-209.77C235.66,-185.45 236.35,-142.73 216.5,-114 211.33,-106.52 203.86,-100.66 195.9,-96.12"/>
<polygon fill="#9a32cd" stroke="#9a32cd" points="229.7,-209.46 231.96,-219.81 236.65,-210.31 229.7,-209.46"/>
</a>
</g>
<text text-anchor="middle" x="279.5" y="-155.5" font-family="Helvetica,sans-Serif" font-size="10.00" fill="grey"> m_templateName</text>
</g>
<!-- Node4&#45;&gt;Node5 -->
<g id="edge7_Node000005_Node000004" class="edge">
<title>Node4&#45;&gt;Node5</title>
<g id="a_edge7_Node000005_Node000004"><a xlink:title=" ">
<path fill="none" stroke="#9a32cd" stroke-dasharray="5,2" d="M190.85,-223.26C164.6,-218.96 133.43,-211.93 124.5,-202 116.14,-192.69 116.1,-177.38 117.1,-167.76"/>
<polygon fill="#9a32cd" stroke="#9a32cd" points="190.56,-226.76 200.98,-224.84 191.64,-219.84 190.56,-226.76"/>
</a>
</g>
<text text-anchor="middle" x="170.5" y="-194" font-family="Helvetica,sans-Serif" font-size="10.00" fill="grey"> m_templateName</text>
</g>
<!-- Node5&#45;&gt;Node2 -->
<g id="edge5_Node000002_Node000005" class="edge">
<title>Node5&#45;&gt;Node2</title>
<g id="a_edge5_Node000002_Node000005"><a xlink:title=" ">
<path fill="none" stroke="orange" stroke-dasharray="5,2" d="M93.26,-142.77C82.44,-134.77 73.67,-124.33 80.5,-114 85.57,-106.32 92.9,-100.48 101.02,-96.04"/>
<polygon fill="orange" stroke="orange" points="91.44,-145.77 101.71,-148.38 95.31,-139.94 91.44,-145.77"/>
</a>
</g>
<text text-anchor="middle" x="148.5" y="-117" font-family="Helvetica,sans-Serif" font-size="10.00" fill="grey"> &lt; TemplateNodeMarkers &gt;</text>
</g>
<!-- Node6 -->
<g id="Node000006" class="node">
<title>Node6</title>
<g id="a_Node000006"><a xlink:href="../../df/daf/class_template_node_list.html" target="_top" xlink:title="Class representing a list of AST nodes in a template.">
<polygon fill="white" stroke="#666666" points="493.5,-90.5 389.5,-90.5 389.5,-71.5 493.5,-71.5 493.5,-90.5"/>
<text text-anchor="middle" x="441.5" y="-78.5" font-family="Helvetica,sans-Serif" font-size="10.00">TemplateNodeList</text>
</a>
</g>
</g>
<!-- Node6&#45;&gt;Node1 -->
<g id="edge8_Node000001_Node000006" class="edge">
<title>Node6&#45;&gt;Node1</title>
<g id="a_edge8_Node000001_Node000006"><a xlink:title=" ">
<path fill="none" stroke="#9a32cd" stroke-dasharray="5,2" d="M422.11,-65.19C403.74,-51.16 376.81,-30.59 361.75,-19.09"/>
<polygon fill="#9a32cd" stroke="#9a32cd" points="420.27,-68.19 430.34,-71.48 424.52,-62.63 420.27,-68.19"/>
</a>
</g>
<text text-anchor="middle" x="422.5" y="-40" font-family="Helvetica,sans-Serif" font-size="10.00" fill="grey"> m_nodes</text>
</g>
<!-- Node7 -->
<g id="Node000007" class="node">
<title>Node7</title>
<g id="a_Node000007"><a xlink:title=" ">
<polygon fill="white" stroke="#666666" points="528.5,-173 378.5,-173 378.5,-143 528.5,-143 528.5,-173"/>
<text text-anchor="start" x="386.5" y="-161" font-family="Helvetica,sans-Serif" font-size="10.00">std::vector&lt; TemplateNode</text>
<text text-anchor="middle" x="453.5" y="-150" font-family="Helvetica,sans-Serif" font-size="10.00">Ptr &gt;</text>
</a>
</g>
</g>
<!-- Node7&#45;&gt;Node6 -->
<g id="edge9_Node000006_Node000007" class="edge">
<title>Node7&#45;&gt;Node6</title>
<g id="a_edge9_Node000006_Node000007"><a xlink:title=" ">
<path fill="none" stroke="#63b8ff" d="M449.61,-132.68C447.32,-118.36 444.56,-101.11 442.92,-90.87"/>
<polygon fill="#63b8ff" stroke="#63b8ff" points="446.21,-133.57 451.24,-142.89 453.12,-132.47 446.21,-133.57"/>
</a>
</g>
</g>
</g>
</svg>
