<?xml version="1.0" encoding="UTF-8" standalone="no"?>
<!DOCTYPE svg PUBLIC "-//W3C//DTD SVG 1.1//EN"
 "http://www.w3.org/Graphics/SVG/1.1/DTD/svg11.dtd">
<!-- Generated by graphviz version 2.43.0 (0)
 -->
<!-- Title: Doxygen Pages: 1 -->
<svg width="1052pt" height="709pt"
 viewBox="0.00 0.00 1052.00 708.67" xmlns="http://www.w3.org/2000/svg" xmlns:xlink="http://www.w3.org/1999/xlink">
<g id="graph0" class="graph" transform="scale(1 1) rotate(0) translate(4 704.67)">
<title>Doxygen</title>
<!-- Node1 -->
<g id="Node000001" class="node">
<title>Node1</title>
<g id="a_Node000001"><a xlink:title="This class serves as a namespace for global variables used by doxygen.">
<polygon fill="#999999" stroke="#666666" points="1044,-318.17 984,-318.17 984,-299.17 1044,-299.17 1044,-318.17"/>
<text text-anchor="middle" x="1014" y="-306.17" font-family="Helvetica,sans-Serif" font-size="10.00">Doxygen</text>
</a>
</g>
</g>
<!-- Node2 -->
<g id="Node000002" class="node">
<title>Node2</title>
<g id="a_Node000002"><a xlink:href="../../d0/d10/class_class_linked_map.html" target="_top" xlink:title=" ">
<polygon fill="white" stroke="#666666" points="778.5,-671.17 683.5,-671.17 683.5,-652.17 778.5,-652.17 778.5,-671.17"/>
<text text-anchor="middle" x="731" y="-659.17" font-family="Helvetica,sans-Serif" font-size="10.00">ClassLinkedMap</text>
</a>
</g>
</g>
<!-- Node2&#45;&gt;Node1 -->
<g id="edge1_Node000001_Node000002" class="edge">
<title>Node2&#45;&gt;Node1</title>
<g id="a_edge1_Node000001_Node000002"><a xlink:title=" ">
<path fill="none" stroke="#9a32cd" stroke-dasharray="5,2" d="M780.74,-673.09C833.63,-682.33 917.07,-687.16 966,-640.67 1014,-595.06 1013.81,-368.32 1013.17,-318.41"/>
<polygon fill="#9a32cd" stroke="#9a32cd" points="781.06,-669.59 770.58,-671.2 779.77,-676.47 781.06,-669.59"/>
</a>
</g>
<text text-anchor="middle" x="893.5" y="-692.67" font-family="Helvetica,sans-Serif" font-size="10.00" fill="grey"> classLinkedMap</text>
<text text-anchor="middle" x="893.5" y="-681.67" font-family="Helvetica,sans-Serif" font-size="10.00" fill="grey">hiddenClassLinkedMap</text>
</g>
<!-- Node3 -->
<g id="Node000003" class="node">
<title>Node3</title>
<g id="a_Node000003"><a xlink:href="../../d0/d2c/class_linked_map.html" target="_top" xlink:title=" ">
<polygon fill="white" stroke="#666666" points="473,-670.17 338,-670.17 338,-651.17 473,-651.17 473,-670.17"/>
<text text-anchor="middle" x="405.5" y="-658.17" font-family="Helvetica,sans-Serif" font-size="10.00">LinkedMap&lt; ClassDef &gt;</text>
</a>
</g>
</g>
<!-- Node3&#45;&gt;Node2 -->
<g id="edge2_Node000002_Node000003" class="edge">
<title>Node3&#45;&gt;Node2</title>
<g id="a_edge2_Node000002_Node000003"><a xlink:title=" ">
<path fill="none" stroke="#63b8ff" d="M483.29,-660.91C545.47,-661.1 631.03,-661.37 683.32,-661.53"/>
<polygon fill="#63b8ff" stroke="#63b8ff" points="483.15,-657.41 473.14,-660.88 483.13,-664.41 483.15,-657.41"/>
</a>
</g>
</g>
<!-- Node4 -->
<g id="Node000004" class="node">
<title>Node4</title>
<g id="a_Node000004"><a xlink:href="../../d0/d2c/class_linked_map.html" target="_top" xlink:title="Container class representing a vector of objects with keys.">
<polygon fill="white" stroke="#666666" points="120,-480.67 0,-480.67 0,-450.67 120,-450.67 120,-480.67"/>
<text text-anchor="start" x="8" y="-468.67" font-family="Helvetica,sans-Serif" font-size="10.00">LinkedMap&lt; T, Hash,</text>
<text text-anchor="middle" x="60" y="-457.67" font-family="Helvetica,sans-Serif" font-size="10.00"> KeyEqual, Map &gt;</text>
</a>
</g>
</g>
<!-- Node4&#45;&gt;Node3 -->
<g id="edge3_Node000003_Node000004" class="edge">
<title>Node4&#45;&gt;Node3</title>
<g id="a_edge3_Node000003_Node000004"><a xlink:title=" ">
<path fill="none" stroke="orange" stroke-dasharray="5,2" d="M64.67,-491.13C71.62,-529.09 90.5,-599.69 138,-633.67 199.18,-677.44 289.44,-676.68 347.61,-670.19"/>
<polygon fill="orange" stroke="orange" points="68.06,-490.19 62.95,-480.91 61.16,-491.36 68.06,-490.19"/>
</a>
</g>
<text text-anchor="middle" x="221" y="-675.67" font-family="Helvetica,sans-Serif" font-size="10.00" fill="grey"> &lt; ClassDef &gt;</text>
</g>
<!-- Node6 -->
<g id="Node000006" class="node">
<title>Node6</title>
<g id="a_Node000006"><a xlink:href="../../d0/d2c/class_linked_map.html" target="_top" xlink:title=" ">
<polygon fill="white" stroke="#666666" points="480,-632.17 331,-632.17 331,-613.17 480,-613.17 480,-632.17"/>
<text text-anchor="middle" x="405.5" y="-620.17" font-family="Helvetica,sans-Serif" font-size="10.00">LinkedMap&lt; ConceptDef &gt;</text>
</a>
</g>
</g>
<!-- Node4&#45;&gt;Node6 -->
<g id="edge6_Node000006_Node000004" class="edge">
<title>Node4&#45;&gt;Node6</title>
<g id="a_edge6_Node000006_Node000004"><a xlink:title=" ">
<path fill="none" stroke="orange" stroke-dasharray="5,2" d="M68.27,-490.55C78.5,-520.73 100.25,-570.55 138,-594.67 168.97,-614.46 263.23,-620.49 330.85,-622.21"/>
<polygon fill="orange" stroke="orange" points="71.51,-489.22 65.12,-480.77 64.85,-491.36 71.51,-489.22"/>
</a>
</g>
<text text-anchor="middle" x="221" y="-623.67" font-family="Helvetica,sans-Serif" font-size="10.00" fill="grey"> &lt; ConceptDef &gt;</text>
</g>
<!-- Node8 -->
<g id="Node000008" class="node">
<title>Node8</title>
<g id="a_Node000008"><a xlink:href="../../d0/d2c/class_linked_map.html" target="_top" xlink:title=" ">
<polygon fill="white" stroke="#666666" points="471.5,-593.17 339.5,-593.17 339.5,-574.17 471.5,-574.17 471.5,-593.17"/>
<text text-anchor="middle" x="405.5" y="-581.17" font-family="Helvetica,sans-Serif" font-size="10.00">LinkedMap&lt; PageDef &gt;</text>
</a>
</g>
</g>
<!-- Node4&#45;&gt;Node8 -->
<g id="edge9_Node000008_Node000004" class="edge">
<title>Node4&#45;&gt;Node8</title>
<g id="a_edge9_Node000008_Node000004"><a xlink:title=" ">
<path fill="none" stroke="orange" stroke-dasharray="5,2" d="M74.31,-489.7C87.49,-510.96 109.78,-540.84 138,-555.67 171.82,-573.45 271.95,-579.94 339.37,-582.31"/>
<polygon fill="orange" stroke="orange" points="77.19,-487.7 69.07,-480.9 71.18,-491.29 77.19,-487.7"/>
</a>
</g>
<text text-anchor="middle" x="221" y="-582.67" font-family="Helvetica,sans-Serif" font-size="10.00" fill="grey"> &lt; PageDef &gt;</text>
</g>
<!-- Node10 -->
<g id="Node000010" class="node">
<title>Node10</title>
<g id="a_Node000010"><a xlink:href="../../d0/d2c/class_linked_map.html" target="_top" xlink:title=" ">
<polygon fill="white" stroke="#666666" points="488,-556.17 323,-556.17 323,-493.17 488,-493.17 488,-556.17"/>
<text text-anchor="start" x="331" y="-544.17" font-family="Helvetica,sans-Serif" font-size="10.00">LinkedMap&lt; FileName,</text>
<text text-anchor="start" x="331" y="-533.17" font-family="Helvetica,sans-Serif" font-size="10.00"> FileNameFn, FileNameFn,</text>
<text text-anchor="start" x="331" y="-522.17" font-family="Helvetica,sans-Serif" font-size="10.00"> std::unordered_multimap</text>
<text text-anchor="start" x="331" y="-511.17" font-family="Helvetica,sans-Serif" font-size="10.00">&lt; std::string, FileName *,</text>
<text text-anchor="middle" x="405.5" y="-500.17" font-family="Helvetica,sans-Serif" font-size="10.00"> FileNameFn, FileNameFn &gt; &gt;</text>
</a>
</g>
</g>
<!-- Node4&#45;&gt;Node10 -->
<g id="edge12_Node000010_Node000004" class="edge">
<title>Node4&#45;&gt;Node10</title>
<g id="a_edge12_Node000010_Node000004"><a xlink:title=" ">
<path fill="none" stroke="orange" stroke-dasharray="5,2" d="M130.32,-479.27C132.91,-479.75 135.48,-480.22 138,-480.67 199.84,-491.8 269.96,-503.33 322.75,-511.8"/>
<polygon fill="orange" stroke="orange" points="130.71,-475.79 120.24,-477.39 129.43,-482.67 130.71,-475.79"/>
</a>
</g>
<text text-anchor="start" x="138" y="-543.67" font-family="Helvetica,sans-Serif" font-size="10.00" fill="grey"> &lt; FileName, FileNameFn,</text>
<text text-anchor="start" x="138" y="-532.67" font-family="Helvetica,sans-Serif" font-size="10.00" fill="grey"> FileNameFn, std::unordered</text>
<text text-anchor="start" x="138" y="-521.67" font-family="Helvetica,sans-Serif" font-size="10.00" fill="grey">_multimap&lt; std::string, FileName</text>
<text text-anchor="middle" x="221" y="-510.67" font-family="Helvetica,sans-Serif" font-size="10.00" fill="grey"> *, FileNameFn, FileNameFn &gt; &gt;</text>
</g>
<!-- Node12 -->
<g id="Node000012" class="node">
<title>Node12</title>
<g id="a_Node000012"><a xlink:href="../../d0/d2c/class_linked_map.html" target="_top" xlink:title=" ">
<polygon fill="white" stroke="#666666" points="486,-475.17 325,-475.17 325,-456.17 486,-456.17 486,-475.17"/>
<text text-anchor="middle" x="405.5" y="-463.17" font-family="Helvetica,sans-Serif" font-size="10.00">LinkedMap&lt; MemberName &gt;</text>
</a>
</g>
</g>
<!-- Node4&#45;&gt;Node12 -->
<g id="edge15_Node000012_Node000004" class="edge">
<title>Node4&#45;&gt;Node12</title>
<g id="a_edge15_Node000012_Node000004"><a xlink:title=" ">
<path fill="none" stroke="orange" stroke-dasharray="5,2" d="M130.27,-465.67C186.49,-465.67 265.82,-465.67 324.7,-465.67"/>
<polygon fill="orange" stroke="orange" points="130.05,-462.17 120.05,-465.67 130.05,-469.17 130.05,-462.17"/>
</a>
</g>
<text text-anchor="middle" x="221" y="-468.67" font-family="Helvetica,sans-Serif" font-size="10.00" fill="grey"> &lt; MemberName &gt;</text>
</g>
<!-- Node14 -->
<g id="Node000014" class="node">
<title>Node14</title>
<g id="a_Node000014"><a xlink:href="../../d0/d2c/class_linked_map.html" target="_top" xlink:title=" ">
<polygon fill="white" stroke="#666666" points="474.5,-438.17 336.5,-438.17 336.5,-419.17 474.5,-419.17 474.5,-438.17"/>
<text text-anchor="middle" x="405.5" y="-426.17" font-family="Helvetica,sans-Serif" font-size="10.00">LinkedMap&lt; GroupDef &gt;</text>
</a>
</g>
</g>
<!-- Node4&#45;&gt;Node14 -->
<g id="edge18_Node000014_Node000004" class="edge">
<title>Node4&#45;&gt;Node14</title>
<g id="a_edge18_Node000014_Node000004"><a xlink:title=" ">
<path fill="none" stroke="orange" stroke-dasharray="5,2" d="M130.28,-451.81C132.88,-451.4 135.46,-451.02 138,-450.67 205.14,-441.39 282.38,-435.54 336.36,-432.23"/>
<polygon fill="orange" stroke="orange" points="129.47,-448.39 120.16,-453.47 130.6,-455.3 129.47,-448.39"/>
</a>
</g>
<text text-anchor="middle" x="221" y="-453.67" font-family="Helvetica,sans-Serif" font-size="10.00" fill="grey"> &lt; GroupDef &gt;</text>
</g>
<!-- Node16 -->
<g id="Node000016" class="node">
<title>Node16</title>
<g id="a_Node000016"><a xlink:href="../../d0/d2c/class_linked_map.html" target="_top" xlink:title=" ">
<polygon fill="white" stroke="#666666" points="489,-401.17 322,-401.17 322,-382.17 489,-382.17 489,-401.17"/>
<text text-anchor="middle" x="405.5" y="-389.17" font-family="Helvetica,sans-Serif" font-size="10.00">LinkedMap&lt; NamespaceDef &gt;</text>
</a>
</g>
</g>
<!-- Node4&#45;&gt;Node16 -->
<g id="edge21_Node000016_Node000004" class="edge">
<title>Node4&#45;&gt;Node16</title>
<g id="a_edge21_Node000016_Node000004"><a xlink:title=" ">
<path fill="none" stroke="orange" stroke-dasharray="5,2" d="M88.58,-444.66C102.63,-435.09 120.42,-424.59 138,-418.67 197.39,-398.69 268.1,-392.27 321.75,-390.66"/>
<polygon fill="orange" stroke="orange" points="86.52,-441.84 80.36,-450.46 90.55,-447.56 86.52,-441.84"/>
</a>
</g>
<text text-anchor="middle" x="221" y="-421.67" font-family="Helvetica,sans-Serif" font-size="10.00" fill="grey"> &lt; NamespaceDef &gt;</text>
</g>
<!-- Node28 -->
<g id="Node000028" class="node">
<title>Node28</title>
<g id="a_Node000028"><a xlink:href="../../d0/d2c/class_linked_map.html" target="_top" xlink:title=" ">
<polygon fill="white" stroke="#666666" points="467,-364.17 344,-364.17 344,-345.17 467,-345.17 467,-364.17"/>
<text text-anchor="middle" x="405.5" y="-352.17" font-family="Helvetica,sans-Serif" font-size="10.00">LinkedMap&lt; DirDef &gt;</text>
</a>
</g>
</g>
<!-- Node4&#45;&gt;Node28 -->
<g id="edge34_Node000028_Node000004" class="edge">
<title>Node4&#45;&gt;Node28</title>
<g id="a_edge34_Node000028_Node000004"><a xlink:title=" ">
<path fill="none" stroke="orange" stroke-dasharray="5,2" d="M74.22,-441.47C87.34,-420.1 109.59,-390.14 138,-375.67 202.52,-342.83 287.37,-342.21 343.81,-346.75"/>
<polygon fill="orange" stroke="orange" points="71.07,-439.93 69,-450.32 77.1,-443.49 71.07,-439.93"/>
</a>
</g>
<text text-anchor="middle" x="221" y="-378.67" font-family="Helvetica,sans-Serif" font-size="10.00" fill="grey"> &lt; DirDef &gt;</text>
</g>
<!-- Node30 -->
<g id="Node000030" class="node">
<title>Node30</title>
<g id="a_Node000030"><a xlink:href="../../d0/d2c/class_linked_map.html" target="_top" xlink:title=" ">
<polygon fill="white" stroke="#666666" points="478.5,-327.17 332.5,-327.17 332.5,-308.17 478.5,-308.17 478.5,-327.17"/>
<text text-anchor="middle" x="405.5" y="-315.17" font-family="Helvetica,sans-Serif" font-size="10.00">LinkedMap&lt; DirRelation &gt;</text>
</a>
</g>
</g>
<!-- Node4&#45;&gt;Node30 -->
<g id="edge37_Node000030_Node000004" class="edge">
<title>Node4&#45;&gt;Node30</title>
<g id="a_edge37_Node000030_Node000004"><a xlink:title=" ">
<path fill="none" stroke="orange" stroke-dasharray="5,2" d="M67.21,-440.51C76.58,-408.5 97.69,-354.4 138,-329.67 207.87,-286.8 308.52,-297.48 363.99,-308.15"/>
<polygon fill="orange" stroke="orange" points="63.75,-439.88 64.47,-450.45 70.5,-441.74 63.75,-439.88"/>
</a>
</g>
<text text-anchor="middle" x="221" y="-332.67" font-family="Helvetica,sans-Serif" font-size="10.00" fill="grey"> &lt; DirRelation &gt;</text>
</g>
<!-- Node5 -->
<g id="Node000005" class="node">
<title>Node5</title>
<g id="a_Node000005"><a xlink:href="../../db/ded/class_concept_linked_map.html" target="_top" xlink:title=" ">
<polygon fill="white" stroke="#666666" points="785.5,-634.17 676.5,-634.17 676.5,-615.17 785.5,-615.17 785.5,-634.17"/>
<text text-anchor="middle" x="731" y="-622.17" font-family="Helvetica,sans-Serif" font-size="10.00">ConceptLinkedMap</text>
</a>
</g>
</g>
<!-- Node5&#45;&gt;Node1 -->
<g id="edge4_Node000001_Node000005" class="edge">
<title>Node5&#45;&gt;Node1</title>
<g id="a_edge4_Node000001_Node000005"><a xlink:title=" ">
<path fill="none" stroke="#9a32cd" stroke-dasharray="5,2" d="M795.96,-628.01C856.66,-629.72 942.09,-627.84 966,-605.67 1009.27,-565.57 1012.77,-364.81 1013,-318.3"/>
<polygon fill="#9a32cd" stroke="#9a32cd" points="795.79,-624.51 785.69,-627.68 795.57,-631.5 795.79,-624.51"/>
</a>
</g>
<text text-anchor="middle" x="893.5" y="-630.67" font-family="Helvetica,sans-Serif" font-size="10.00" fill="grey"> conceptLinkedMap</text>
</g>
<!-- Node6&#45;&gt;Node5 -->
<g id="edge5_Node000005_Node000006" class="edge">
<title>Node6&#45;&gt;Node5</title>
<g id="a_edge5_Node000005_Node000006"><a xlink:title=" ">
<path fill="none" stroke="#63b8ff" d="M490.66,-623.19C549.25,-623.56 625.64,-624.03 676.17,-624.34"/>
<polygon fill="#63b8ff" stroke="#63b8ff" points="490.33,-619.69 480.31,-623.13 490.29,-626.69 490.33,-619.69"/>
</a>
</g>
</g>
<!-- Node7 -->
<g id="Node000007" class="node">
<title>Node7</title>
<g id="a_Node000007"><a xlink:href="../../d9/d5e/class_page_linked_map.html" target="_top" xlink:title=" ">
<polygon fill="white" stroke="#666666" points="777,-593.17 685,-593.17 685,-574.17 777,-574.17 777,-593.17"/>
<text text-anchor="middle" x="731" y="-581.17" font-family="Helvetica,sans-Serif" font-size="10.00">PageLinkedMap</text>
</a>
</g>
</g>
<!-- Node7&#45;&gt;Node1 -->
<g id="edge7_Node000001_Node000007" class="edge">
<title>Node7&#45;&gt;Node1</title>
<g id="a_edge7_Node000001_Node000007"><a xlink:title=" ">
<path fill="none" stroke="#9a32cd" stroke-dasharray="5,2" d="M787.35,-581.93C852.37,-579.34 953.08,-573.48 966,-561.67 1002.85,-527.99 1011.18,-360.28 1012.7,-318.24"/>
<polygon fill="#9a32cd" stroke="#9a32cd" points="787.1,-578.43 777.24,-582.31 787.37,-585.43 787.1,-578.43"/>
</a>
</g>
<text text-anchor="middle" x="893.5" y="-593.67" font-family="Helvetica,sans-Serif" font-size="10.00" fill="grey"> exampleLinkedMap</text>
<text text-anchor="middle" x="893.5" y="-582.67" font-family="Helvetica,sans-Serif" font-size="10.00" fill="grey">pageLinkedMap</text>
</g>
<!-- Node8&#45;&gt;Node7 -->
<g id="edge8_Node000007_Node000008" class="edge">
<title>Node8&#45;&gt;Node7</title>
<g id="a_edge8_Node000007_Node000008"><a xlink:title=" ">
<path fill="none" stroke="#63b8ff" d="M481.84,-583.67C544.72,-583.67 632.26,-583.67 684.81,-583.67"/>
<polygon fill="#63b8ff" stroke="#63b8ff" points="481.58,-580.17 471.58,-583.67 481.58,-587.17 481.58,-580.17"/>
</a>
</g>
</g>
<!-- Node9 -->
<g id="Node000009" class="node">
<title>Node9</title>
<g id="a_Node000009"><a xlink:href="../../d0/d2c/class_file_name_linked_map.html" target="_top" xlink:title="Ordered dictionary of FileName objects.">
<polygon fill="white" stroke="#666666" points="789,-518.17 673,-518.17 673,-499.17 789,-499.17 789,-518.17"/>
<text text-anchor="middle" x="731" y="-506.17" font-family="Helvetica,sans-Serif" font-size="10.00">FileNameLinkedMap</text>
</a>
</g>
</g>
<!-- Node9&#45;&gt;Node1 -->
<g id="edge10_Node000001_Node000009" class="edge">
<title>Node9&#45;&gt;Node1</title>
<g id="a_edge10_Node000001_Node000009"><a xlink:title=" ">
<path fill="none" stroke="#9a32cd" stroke-dasharray="5,2" d="M774.77,-495.93C784.22,-492.65 794.08,-488.84 803,-484.67 811.49,-480.7 812.2,-476.91 821,-473.67 882.23,-451.12 916.27,-492.92 966,-450.67 1006.97,-415.87 1012.41,-344.51 1013,-318.46"/>
<polygon fill="#9a32cd" stroke="#9a32cd" points="773.49,-492.67 765.11,-499.17 775.71,-499.31 773.49,-492.67"/>
</a>
</g>
<text text-anchor="middle" x="893.5" y="-553.67" font-family="Helvetica,sans-Serif" font-size="10.00" fill="grey"> diaFileNameLinkedMap</text>
<text text-anchor="middle" x="893.5" y="-542.67" font-family="Helvetica,sans-Serif" font-size="10.00" fill="grey">dotFileNameLinkedMap</text>
<text text-anchor="middle" x="893.5" y="-531.67" font-family="Helvetica,sans-Serif" font-size="10.00" fill="grey">exampleNameLinkedMap</text>
<text text-anchor="middle" x="893.5" y="-520.67" font-family="Helvetica,sans-Serif" font-size="10.00" fill="grey">imageNameLinkedMap</text>
<text text-anchor="middle" x="893.5" y="-509.67" font-family="Helvetica,sans-Serif" font-size="10.00" fill="grey">includeNameLinkedMap</text>
<text text-anchor="middle" x="893.5" y="-498.67" font-family="Helvetica,sans-Serif" font-size="10.00" fill="grey">inputNameLinkedMap</text>
<text text-anchor="middle" x="893.5" y="-487.67" font-family="Helvetica,sans-Serif" font-size="10.00" fill="grey">mscFileNameLinkedMap</text>
<text text-anchor="middle" x="893.5" y="-476.67" font-family="Helvetica,sans-Serif" font-size="10.00" fill="grey">plantUmlFileNameLinkedMap</text>
</g>
<!-- Node10&#45;&gt;Node9 -->
<g id="edge11_Node000009_Node000010" class="edge">
<title>Node10&#45;&gt;Node9</title>
<g id="a_edge11_Node000009_Node000010"><a xlink:title=" ">
<path fill="none" stroke="#63b8ff" d="M498.45,-520.13C554.58,-517.35 624.6,-513.89 672.86,-511.5"/>
<polygon fill="#63b8ff" stroke="#63b8ff" points="497.95,-516.65 488.13,-520.64 498.29,-523.64 497.95,-516.65"/>
</a>
</g>
</g>
<!-- Node11 -->
<g id="Node000011" class="node">
<title>Node11</title>
<g id="a_Node000011"><a xlink:href="../../da/d3d/class_member_name_linked_map.html" target="_top" xlink:title="Ordered dictionary of MemberName objects.">
<polygon fill="white" stroke="#666666" points="800.5,-475.17 661.5,-475.17 661.5,-456.17 800.5,-456.17 800.5,-475.17"/>
<text text-anchor="middle" x="731" y="-463.17" font-family="Helvetica,sans-Serif" font-size="10.00">MemberNameLinkedMap</text>
</a>
</g>
</g>
<!-- Node11&#45;&gt;Node1 -->
<g id="edge13_Node000001_Node000011" class="edge">
<title>Node11&#45;&gt;Node1</title>
<g id="a_edge13_Node000001_Node000011"><a xlink:title=" ">
<path fill="none" stroke="#9a32cd" stroke-dasharray="5,2" d="M793.57,-452.45C796.84,-451.02 800,-449.43 803,-447.67 813.03,-441.79 810.71,-434.09 821,-428.67 878.73,-398.26 913.6,-444.56 966,-405.67 995.6,-383.7 1007.48,-338.11 1011.38,-318.25"/>
<polygon fill="#9a32cd" stroke="#9a32cd" points="792.22,-449.22 784.16,-456.1 794.75,-455.75 792.22,-449.22"/>
</a>
</g>
<text text-anchor="middle" x="893.5" y="-442.67" font-family="Helvetica,sans-Serif" font-size="10.00" fill="grey"> functionNameLinkedMap</text>
<text text-anchor="middle" x="893.5" y="-431.67" font-family="Helvetica,sans-Serif" font-size="10.00" fill="grey">memberNameLinkedMap</text>
</g>
<!-- Node12&#45;&gt;Node11 -->
<g id="edge14_Node000011_Node000012" class="edge">
<title>Node12&#45;&gt;Node11</title>
<g id="a_edge14_Node000011_Node000012"><a xlink:title=" ">
<path fill="none" stroke="#63b8ff" d="M496.32,-465.67C548.55,-465.67 613.34,-465.67 661.45,-465.67"/>
<polygon fill="#63b8ff" stroke="#63b8ff" points="496.05,-462.17 486.05,-465.67 496.05,-469.17 496.05,-462.17"/>
</a>
</g>
</g>
<!-- Node13 -->
<g id="Node000013" class="node">
<title>Node13</title>
<g id="a_Node000013"><a xlink:href="../../d3/dbd/class_group_linked_map.html" target="_top" xlink:title=" ">
<polygon fill="white" stroke="#666666" points="780,-438.17 682,-438.17 682,-419.17 780,-419.17 780,-438.17"/>
<text text-anchor="middle" x="731" y="-426.17" font-family="Helvetica,sans-Serif" font-size="10.00">GroupLinkedMap</text>
</a>
</g>
</g>
<!-- Node13&#45;&gt;Node1 -->
<g id="edge16_Node000001_Node000013" class="edge">
<title>Node13&#45;&gt;Node1</title>
<g id="a_edge16_Node000001_Node000013"><a xlink:title=" ">
<path fill="none" stroke="#9a32cd" stroke-dasharray="5,2" d="M789.7,-416.59C794.31,-414.86 798.8,-412.9 803,-410.67 812.46,-405.66 811.32,-399.25 821,-394.67 879.98,-366.76 910.15,-405.42 966,-371.67 987.26,-358.83 1002.04,-332.4 1008.82,-318.2"/>
<polygon fill="#9a32cd" stroke="#9a32cd" points="788.51,-413.3 780.15,-419.81 790.74,-419.93 788.51,-413.3"/>
</a>
</g>
<text text-anchor="middle" x="893.5" y="-397.67" font-family="Helvetica,sans-Serif" font-size="10.00" fill="grey"> groupLinkedMap</text>
</g>
<!-- Node14&#45;&gt;Node13 -->
<g id="edge17_Node000013_Node000014" class="edge">
<title>Node14&#45;&gt;Node13</title>
<g id="a_edge17_Node000013_Node000014"><a xlink:title=" ">
<path fill="none" stroke="#63b8ff" d="M484.76,-428.67C546.22,-428.67 629.83,-428.67 681.83,-428.67"/>
<polygon fill="#63b8ff" stroke="#63b8ff" points="484.71,-425.17 474.71,-428.67 484.71,-432.17 484.71,-425.17"/>
</a>
</g>
</g>
<!-- Node15 -->
<g id="Node000015" class="node">
<title>Node15</title>
<g id="a_Node000015"><a xlink:href="../../d7/d60/class_namespace_linked_map.html" target="_top" xlink:title=" ">
<polygon fill="white" stroke="#666666" points="794.5,-401.17 667.5,-401.17 667.5,-382.17 794.5,-382.17 794.5,-401.17"/>
<text text-anchor="middle" x="731" y="-389.17" font-family="Helvetica,sans-Serif" font-size="10.00">NamespaceLinkedMap</text>
</a>
</g>
</g>
<!-- Node15&#45;&gt;Node1 -->
<g id="edge19_Node000001_Node000015" class="edge">
<title>Node15&#45;&gt;Node1</title>
<g id="a_edge19_Node000001_Node000015"><a xlink:title=" ">
<path fill="none" stroke="#9a32cd" stroke-dasharray="5,2" d="M790.05,-378.91C794.5,-377.34 798.87,-375.6 803,-373.67 811.94,-369.5 811.88,-364.44 821,-360.67 881.32,-335.78 904.82,-360.36 966,-337.67 978.59,-333.01 991.46,-324.77 1000.55,-318.27"/>
<polygon fill="#9a32cd" stroke="#9a32cd" points="788.66,-375.68 780.22,-382.08 790.81,-382.34 788.66,-375.68"/>
</a>
</g>
<text text-anchor="middle" x="893.5" y="-363.67" font-family="Helvetica,sans-Serif" font-size="10.00" fill="grey"> namespaceLinkedMap</text>
</g>
<!-- Node16&#45;&gt;Node15 -->
<g id="edge20_Node000015_Node000016" class="edge">
<title>Node16&#45;&gt;Node15</title>
<g id="a_edge20_Node000015_Node000016"><a xlink:title=" ">
<path fill="none" stroke="#63b8ff" d="M499.63,-391.67C553.41,-391.67 619.63,-391.67 667.25,-391.67"/>
<polygon fill="#63b8ff" stroke="#63b8ff" points="499.39,-388.17 489.39,-391.67 499.39,-395.17 499.39,-388.17"/>
</a>
</g>
</g>
<!-- Node17 -->
<g id="Node000017" class="node">
<title>Node17</title>
<g id="a_Node000017"><a xlink:href="../../dd/dd5/class_namespace_def_mutable.html" target="_top" xlink:title=" ">
<polygon fill="white" stroke="#666666" points="796.5,-274.17 665.5,-274.17 665.5,-255.17 796.5,-255.17 796.5,-274.17"/>
<text text-anchor="middle" x="731" y="-262.17" font-family="Helvetica,sans-Serif" font-size="10.00">NamespaceDefMutable</text>
</a>
</g>
</g>
<!-- Node17&#45;&gt;Node1 -->
<g id="edge22_Node000001_Node000017" class="edge">
<title>Node17&#45;&gt;Node1</title>
<g id="a_edge22_Node000001_Node000017"><a xlink:title=" ">
<path fill="none" stroke="#9a32cd" stroke-dasharray="5,2" d="M806.78,-254.58C853.89,-251.11 915.19,-251.97 966,-270.67 981.76,-276.47 996.18,-289.87 1004.78,-299.1"/>
<polygon fill="#9a32cd" stroke="#9a32cd" points="806.33,-251.11 796.65,-255.41 806.9,-258.08 806.33,-251.11"/>
</a>
</g>
<text text-anchor="middle" x="893.5" y="-273.67" font-family="Helvetica,sans-Serif" font-size="10.00" fill="grey"> globalScope</text>
</g>
<!-- Node18 -->
<g id="Node000018" class="node">
<title>Node18</title>
<g id="a_Node000018"><a xlink:href="../../d0/d46/class_definition_mutable.html" target="_top" xlink:title=" ">
<polygon fill="white" stroke="#666666" points="457.5,-290.17 353.5,-290.17 353.5,-271.17 457.5,-271.17 457.5,-290.17"/>
<text text-anchor="middle" x="405.5" y="-278.17" font-family="Helvetica,sans-Serif" font-size="10.00">DefinitionMutable</text>
</a>
</g>
</g>
<!-- Node18&#45;&gt;Node17 -->
<g id="edge23_Node000017_Node000018" class="edge">
<title>Node18&#45;&gt;Node17</title>
<g id="a_edge23_Node000017_Node000018"><a xlink:title=" ">
<path fill="none" stroke="#63b8ff" d="M467.9,-281.07C515.25,-280.96 582.35,-279.91 641,-275.67 648.92,-275.1 657.22,-274.32 665.42,-273.44"/>
<polygon fill="#63b8ff" stroke="#63b8ff" points="467.8,-277.57 457.8,-281.08 467.81,-284.57 467.8,-277.57"/>
</a>
</g>
</g>
<!-- Node19 -->
<g id="Node000019" class="node">
<title>Node19</title>
<g id="a_Node000019"><a xlink:href="../../d0/d07/class_namespace_def.html" target="_top" xlink:title="An abstract interface of a namespace symbol.">
<polygon fill="white" stroke="#666666" points="451.5,-253.17 359.5,-253.17 359.5,-234.17 451.5,-234.17 451.5,-253.17"/>
<text text-anchor="middle" x="405.5" y="-241.17" font-family="Helvetica,sans-Serif" font-size="10.00">NamespaceDef</text>
</a>
</g>
</g>
<!-- Node19&#45;&gt;Node17 -->
<g id="edge24_Node000017_Node000019" class="edge">
<title>Node19&#45;&gt;Node17</title>
<g id="a_edge24_Node000017_Node000019"><a xlink:title=" ">
<path fill="none" stroke="#63b8ff" d="M461.52,-247.57C476.29,-248.6 492.25,-249.7 507,-250.67 560.22,-254.2 620.6,-257.97 665.1,-260.72"/>
<polygon fill="#63b8ff" stroke="#63b8ff" points="461.74,-244.08 451.52,-246.87 461.25,-251.06 461.74,-244.08"/>
</a>
</g>
</g>
<!-- Node20 -->
<g id="Node000020" class="node">
<title>Node20</title>
<g id="a_Node000020"><a xlink:href="../../d5/dcc/class_definition.html" target="_top" xlink:title="The common base class of all entity definitions found in the sources.">
<polygon fill="white" stroke="#666666" points="92,-253.17 28,-253.17 28,-234.17 92,-234.17 92,-253.17"/>
<text text-anchor="middle" x="60" y="-241.17" font-family="Helvetica,sans-Serif" font-size="10.00">Definition</text>
</a>
</g>
</g>
<!-- Node20&#45;&gt;Node19 -->
<g id="edge25_Node000019_Node000020" class="edge">
<title>Node20&#45;&gt;Node19</title>
<g id="a_edge25_Node000019_Node000020"><a xlink:title=" ">
<path fill="none" stroke="#63b8ff" d="M102.33,-243.67C167.13,-243.67 292.14,-243.67 359.26,-243.67"/>
<polygon fill="#63b8ff" stroke="#63b8ff" points="102.09,-240.17 92.09,-243.67 102.09,-247.17 102.09,-240.17"/>
</a>
</g>
</g>
<!-- Node21 -->
<g id="Node000021" class="node">
<title>Node21</title>
<g id="a_Node000021"><a xlink:href="../../d9/d45/class_q_c_string.html" target="_top" xlink:title="This is an alternative implementation of QCString.">
<polygon fill="white" stroke="#666666" points="89.5,-199.17 30.5,-199.17 30.5,-180.17 89.5,-180.17 89.5,-199.17"/>
<text text-anchor="middle" x="60" y="-187.17" font-family="Helvetica,sans-Serif" font-size="10.00">QCString</text>
</a>
</g>
</g>
<!-- Node21&#45;&gt;Node1 -->
<g id="edge26_Node000001_Node000021" class="edge">
<title>Node21&#45;&gt;Node1</title>
<g id="a_edge26_Node000001_Node000021"><a xlink:title=" ">
<path fill="none" stroke="#9a32cd" stroke-dasharray="5,2" d="M99.85,-190.71C112.06,-191.03 125.59,-191.38 138,-191.67 361.55,-197.02 418.37,-181.79 641,-202.67 649.07,-203.43 650.98,-204.44 659,-205.67 727.09,-216.11 906.31,-214.28 966,-248.67 986.64,-260.56 1001.49,-285.4 1008.49,-299.09"/>
<polygon fill="#9a32cd" stroke="#9a32cd" points="99.61,-187.21 89.52,-190.44 99.43,-194.2 99.61,-187.21"/>
</a>
</g>
<text text-anchor="middle" x="574" y="-238.67" font-family="Helvetica,sans-Serif" font-size="10.00" fill="grey"> filterDBFileName</text>
<text text-anchor="middle" x="574" y="-227.67" font-family="Helvetica,sans-Serif" font-size="10.00" fill="grey">htmlFileExtension</text>
<text text-anchor="middle" x="574" y="-216.67" font-family="Helvetica,sans-Serif" font-size="10.00" fill="grey">spaces</text>
<text text-anchor="middle" x="574" y="-205.67" font-family="Helvetica,sans-Serif" font-size="10.00" fill="grey">verifiedDotPath</text>
</g>
<!-- Node32 -->
<g id="Node000032" class="node">
<title>Node32</title>
<g id="a_Node000032"><a xlink:href="../../df/d04/struct_parser_manager_1_1_parser_pair.html" target="_top" xlink:title=" ">
<polygon fill="white" stroke="#666666" points="477,-177.17 334,-177.17 334,-158.17 477,-158.17 477,-177.17"/>
<text text-anchor="middle" x="405.5" y="-165.17" font-family="Helvetica,sans-Serif" font-size="10.00">ParserManager::ParserPair</text>
</a>
</g>
</g>
<!-- Node21&#45;&gt;Node32 -->
<g id="edge40_Node000032_Node000021" class="edge">
<title>Node21&#45;&gt;Node32</title>
<g id="a_edge40_Node000032_Node000021"><a xlink:title=" ">
<path fill="none" stroke="#9a32cd" stroke-dasharray="5,2" d="M100.11,-184.58C112.23,-183.14 125.65,-181.69 138,-180.67 204.36,-175.18 280.23,-171.76 334,-169.81"/>
<polygon fill="#9a32cd" stroke="#9a32cd" points="99.34,-181.15 89.84,-185.83 100.19,-188.1 99.34,-181.15"/>
</a>
</g>
<text text-anchor="middle" x="221" y="-183.67" font-family="Helvetica,sans-Serif" font-size="10.00" fill="grey"> parserName</text>
</g>
<!-- Node22 -->
<g id="Node000022" class="node">
<title>Node22</title>
<g id="a_Node000022"><a xlink:href="../../d8/d4d/class_search_index_intf.html" target="_top" xlink:title="Abstract proxy interface for non&#45;javascript based search indices.">
<polygon fill="white" stroke="#666666" points="777.5,-159.17 684.5,-159.17 684.5,-140.17 777.5,-140.17 777.5,-159.17"/>
<text text-anchor="middle" x="731" y="-147.17" font-family="Helvetica,sans-Serif" font-size="10.00">SearchIndexIntf</text>
</a>
</g>
</g>
<!-- Node22&#45;&gt;Node1 -->
<g id="edge27_Node000001_Node000022" class="edge">
<title>Node22&#45;&gt;Node1</title>
<g id="a_edge27_Node000001_Node000022"><a xlink:title=" ">
<path fill="none" stroke="#9a32cd" stroke-dasharray="5,2" d="M787.79,-143.34C848.02,-137.73 938.99,-133.28 966,-153.67 1013.13,-189.26 1014.56,-270.76 1013.56,-298.9"/>
<polygon fill="#9a32cd" stroke="#9a32cd" points="787.28,-139.87 777.66,-144.31 787.95,-146.84 787.28,-139.87"/>
</a>
</g>
<text text-anchor="middle" x="893.5" y="-156.67" font-family="Helvetica,sans-Serif" font-size="10.00" fill="grey"> searchIndex</text>
</g>
<!-- Node23 -->
<g id="Node000023" class="node">
<title>Node23</title>
<g id="a_Node000023"><a xlink:href="../../d4/d85/class_symbol_map.html" target="_top" xlink:title=" ">
<polygon fill="white" stroke="#666666" points="803,-122.17 659,-122.17 659,-103.17 803,-103.17 803,-122.17"/>
<text text-anchor="middle" x="731" y="-110.17" font-family="Helvetica,sans-Serif" font-size="10.00">SymbolMap&lt; Definition &gt;</text>
</a>
</g>
</g>
<!-- Node23&#45;&gt;Node1 -->
<g id="edge28_Node000001_Node000023" class="edge">
<title>Node23&#45;&gt;Node1</title>
<g id="a_edge28_Node000001_Node000023"><a xlink:title=" ">
<path fill="none" stroke="#9a32cd" stroke-dasharray="5,2" d="M813.45,-106.16C871.53,-103.33 943.2,-104.12 966,-122.67 994.16,-145.59 1008.44,-264.35 1012.06,-299.11"/>
<polygon fill="#9a32cd" stroke="#9a32cd" points="812.95,-102.69 803.15,-106.71 813.32,-109.68 812.95,-102.69"/>
</a>
</g>
<text text-anchor="middle" x="893.5" y="-125.67" font-family="Helvetica,sans-Serif" font-size="10.00" fill="grey"> symbolMap</text>
</g>
<!-- Node24 -->
<g id="Node000024" class="node">
<title>Node24</title>
<g id="a_Node000024"><a xlink:href="../../d4/d85/class_symbol_map.html" target="_top" xlink:title="Class implementing a symbol map that maps symbol names to objects.">
<polygon fill="white" stroke="#666666" points="457,-122.17 354,-122.17 354,-103.17 457,-103.17 457,-122.17"/>
<text text-anchor="middle" x="405.5" y="-110.17" font-family="Helvetica,sans-Serif" font-size="10.00">SymbolMap&lt; T &gt;</text>
</a>
</g>
</g>
<!-- Node24&#45;&gt;Node23 -->
<g id="edge29_Node000023_Node000024" class="edge">
<title>Node24&#45;&gt;Node23</title>
<g id="a_edge29_Node000023_Node000024"><a xlink:title=" ">
<path fill="none" stroke="orange" stroke-dasharray="5,2" d="M467.23,-112.67C521.63,-112.67 601.43,-112.67 658.81,-112.67"/>
<polygon fill="orange" stroke="orange" points="467.05,-109.17 457.05,-112.67 467.05,-116.17 467.05,-109.17"/>
</a>
</g>
<text text-anchor="middle" x="574" y="-115.67" font-family="Helvetica,sans-Serif" font-size="10.00" fill="grey"> &lt; Definition &gt;</text>
</g>
<!-- Node25 -->
<g id="Node000025" class="node">
<title>Node25</title>
<g id="a_Node000025"><a xlink:href="../../dc/d67/class_cache.html" target="_top" xlink:title=" ">
<polygon fill="white" stroke="#666666" points="786,-84.67 676,-84.67 676,-54.67 786,-54.67 786,-84.67"/>
<text text-anchor="start" x="684" y="-72.67" font-family="Helvetica,sans-Serif" font-size="10.00">Cache&lt; std::string,</text>
<text text-anchor="middle" x="731" y="-61.67" font-family="Helvetica,sans-Serif" font-size="10.00"> LookupInfo &gt;</text>
</a>
</g>
</g>
<!-- Node25&#45;&gt;Node1 -->
<g id="edge30_Node000001_Node000025" class="edge">
<title>Node25&#45;&gt;Node1</title>
<g id="a_edge30_Node000001_Node000025"><a xlink:title=" ">
<path fill="none" stroke="#9a32cd" stroke-dasharray="5,2" d="M795.71,-52.63C847.61,-42.88 919.65,-39.33 966,-78.67 1000.49,-107.95 1010.51,-259.41 1012.56,-299.13"/>
<polygon fill="#9a32cd" stroke="#9a32cd" points="794.73,-49.26 785.61,-54.66 796.1,-56.12 794.73,-49.26"/>
</a>
</g>
<text text-anchor="middle" x="893.5" y="-92.67" font-family="Helvetica,sans-Serif" font-size="10.00" fill="grey"> symbolLookupCache</text>
<text text-anchor="middle" x="893.5" y="-81.67" font-family="Helvetica,sans-Serif" font-size="10.00" fill="grey">typeLookupCache</text>
</g>
<!-- Node26 -->
<g id="Node000026" class="node">
<title>Node26</title>
<g id="a_Node000026"><a xlink:href="../../dc/d67/class_cache.html" target="_top" xlink:title=" ">
<polygon fill="white" stroke="#666666" points="450,-79.17 361,-79.17 361,-60.17 450,-60.17 450,-79.17"/>
<text text-anchor="middle" x="405.5" y="-67.17" font-family="Helvetica,sans-Serif" font-size="10.00">Cache&lt; K, V &gt;</text>
</a>
</g>
</g>
<!-- Node26&#45;&gt;Node25 -->
<g id="edge31_Node000025_Node000026" class="edge">
<title>Node26&#45;&gt;Node25</title>
<g id="a_edge31_Node000025_Node000026"><a xlink:title=" ">
<path fill="none" stroke="orange" stroke-dasharray="5,2" d="M460.48,-69.67C520.22,-69.67 615.92,-69.67 675.76,-69.67"/>
<polygon fill="orange" stroke="orange" points="460.13,-66.17 450.13,-69.67 460.13,-73.17 460.13,-66.17"/>
</a>
</g>
<text text-anchor="middle" x="574" y="-72.67" font-family="Helvetica,sans-Serif" font-size="10.00" fill="grey"> &lt; std::string, LookupInfo &gt;</text>
</g>
<!-- Node27 -->
<g id="Node000027" class="node">
<title>Node27</title>
<g id="a_Node000027"><a xlink:href="../../de/d40/class_dir_linked_map.html" target="_top" xlink:title="A linked map of directories.">
<polygon fill="white" stroke="#666666" points="772.5,-364.17 689.5,-364.17 689.5,-345.17 772.5,-345.17 772.5,-364.17"/>
<text text-anchor="middle" x="731" y="-352.17" font-family="Helvetica,sans-Serif" font-size="10.00">DirLinkedMap</text>
</a>
</g>
</g>
<!-- Node27&#45;&gt;Node1 -->
<g id="edge32_Node000001_Node000027" class="edge">
<title>Node27&#45;&gt;Node1</title>
<g id="a_edge32_Node000001_Node000027"><a xlink:title=" ">
<path fill="none" stroke="#9a32cd" stroke-dasharray="5,2" d="M766.94,-341.8C783.17,-336.31 802.85,-330.33 821,-326.67 877.94,-315.18 945.89,-311 983.77,-309.5"/>
<polygon fill="#9a32cd" stroke="#9a32cd" points="765.63,-338.55 757.33,-345.13 767.92,-345.16 765.63,-338.55"/>
</a>
</g>
<text text-anchor="middle" x="893.5" y="-329.67" font-family="Helvetica,sans-Serif" font-size="10.00" fill="grey"> dirLinkedMap</text>
</g>
<!-- Node28&#45;&gt;Node27 -->
<g id="edge33_Node000027_Node000028" class="edge">
<title>Node28&#45;&gt;Node27</title>
<g id="a_edge33_Node000027_Node000028"><a xlink:title=" ">
<path fill="none" stroke="#63b8ff" d="M477.52,-354.67C542.48,-354.67 636.3,-354.67 689.38,-354.67"/>
<polygon fill="#63b8ff" stroke="#63b8ff" points="477.35,-351.17 467.35,-354.67 477.35,-358.17 477.35,-351.17"/>
</a>
</g>
</g>
<!-- Node29 -->
<g id="Node000029" class="node">
<title>Node29</title>
<g id="a_Node000029"><a xlink:href="../../d4/d03/class_dir_relation_linked_map.html" target="_top" xlink:title=" ">
<polygon fill="white" stroke="#666666" points="793,-319.17 669,-319.17 669,-300.17 793,-300.17 793,-319.17"/>
<text text-anchor="middle" x="731" y="-307.17" font-family="Helvetica,sans-Serif" font-size="10.00">DirRelationLinkedMap</text>
</a>
</g>
</g>
<!-- Node29&#45;&gt;Node1 -->
<g id="edge35_Node000001_Node000029" class="edge">
<title>Node29&#45;&gt;Node1</title>
<g id="a_edge35_Node000001_Node000029"><a xlink:title=" ">
<path fill="none" stroke="#9a32cd" stroke-dasharray="5,2" d="M783.11,-298.2C795.45,-295.91 808.64,-293.84 821,-292.67 885.16,-286.6 902.42,-282.15 966,-292.67 973.99,-294 982.45,-296.51 989.96,-299.15"/>
<polygon fill="#9a32cd" stroke="#9a32cd" points="782.12,-294.83 772.98,-300.17 783.46,-301.7 782.12,-294.83"/>
</a>
</g>
<text text-anchor="middle" x="893.5" y="-295.67" font-family="Helvetica,sans-Serif" font-size="10.00" fill="grey"> dirRelations</text>
</g>
<!-- Node30&#45;&gt;Node29 -->
<g id="edge36_Node000029_Node000030" class="edge">
<title>Node30&#45;&gt;Node29</title>
<g id="a_edge36_Node000029_Node000030"><a xlink:title=" ">
<path fill="none" stroke="#63b8ff" d="M488.96,-315.63C545.03,-314.25 618,-312.44 668.89,-311.18"/>
<polygon fill="#63b8ff" stroke="#63b8ff" points="488.61,-312.14 478.7,-315.89 488.78,-319.14 488.61,-312.14"/>
</a>
</g>
</g>
<!-- Node31 -->
<g id="Node000031" class="node">
<title>Node31</title>
<g id="a_Node000031"><a xlink:href="../../d4/d0d/class_parser_manager.html" target="_top" xlink:title="Manages programming language parsers.">
<polygon fill="white" stroke="#666666" points="775.5,-196.17 686.5,-196.17 686.5,-177.17 775.5,-177.17 775.5,-196.17"/>
<text text-anchor="middle" x="731" y="-184.17" font-family="Helvetica,sans-Serif" font-size="10.00">ParserManager</text>
</a>
</g>
</g>
<!-- Node31&#45;&gt;Node1 -->
<g id="edge38_Node000001_Node000031" class="edge">
<title>Node31&#45;&gt;Node1</title>
<g id="a_edge38_Node000001_Node000031"><a xlink:title=" ">
<path fill="none" stroke="#9a32cd" stroke-dasharray="5,2" d="M782.21,-175.28C833.21,-166.72 912.16,-162.08 966,-199.67 999.96,-223.39 1009.57,-277.06 1012.13,-299.03"/>
<polygon fill="#9a32cd" stroke="#9a32cd" points="781.3,-171.89 772.08,-177.09 782.54,-178.78 781.3,-171.89"/>
</a>
</g>
<text text-anchor="middle" x="893.5" y="-202.67" font-family="Helvetica,sans-Serif" font-size="10.00" fill="grey"> parserManager</text>
</g>
<!-- Node32&#45;&gt;Node31 -->
<g id="edge39_Node000031_Node000032" class="edge">
<title>Node32&#45;&gt;Node31</title>
<g id="a_edge39_Node000031_Node000032"><a xlink:title=" ">
<path fill="none" stroke="#9a32cd" stroke-dasharray="5,2" d="M487.24,-166.72C532.52,-166.85 590,-168.14 641,-172.67 655.8,-173.99 671.87,-176.26 686.23,-178.59"/>
<polygon fill="#9a32cd" stroke="#9a32cd" points="487.19,-163.22 477.18,-166.71 487.18,-170.22 487.19,-163.22"/>
</a>
</g>
<text text-anchor="middle" x="574" y="-175.67" font-family="Helvetica,sans-Serif" font-size="10.00" fill="grey"> m_defaultParsers</text>
</g>
<!-- Node33 -->
<g id="Node000033" class="node">
<title>Node33</title>
<g id="a_Node000033"><a xlink:href="../../d9/d57/class_index_list.html" target="_top" xlink:title="A list of index interfaces.">
<polygon fill="white" stroke="#666666" points="761.5,-36.17 700.5,-36.17 700.5,-17.17 761.5,-17.17 761.5,-36.17"/>
<text text-anchor="middle" x="731" y="-24.17" font-family="Helvetica,sans-Serif" font-size="10.00">IndexList</text>
</a>
</g>
</g>
<!-- Node33&#45;&gt;Node1 -->
<g id="edge41_Node000001_Node000033" class="edge">
<title>Node33&#45;&gt;Node1</title>
<g id="a_edge41_Node000001_Node000033"><a xlink:title=" ">
<path fill="none" stroke="#9a32cd" stroke-dasharray="5,2" d="M769.79,-14.31C820.82,-0.23 911.64,15.25 966,-31.67 1007.54,-67.53 1012.37,-254.33 1012.93,-299.05"/>
<polygon fill="#9a32cd" stroke="#9a32cd" points="768.77,-10.96 760.13,-17.09 770.71,-17.69 768.77,-10.96"/>
</a>
</g>
<text text-anchor="middle" x="893.5" y="-34.67" font-family="Helvetica,sans-Serif" font-size="10.00" fill="grey"> indexList</text>
</g>
</g>
</svg>
