<?xml version="1.0" encoding="UTF-8" standalone="no"?>
<!DOCTYPE svg PUBLIC "-//W3C//DTD SVG 1.1//EN"
 "http://www.w3.org/Graphics/SVG/1.1/DTD/svg11.dtd">
<!-- Generated by graphviz version 2.43.0 (0)
 -->
<!-- Title: /home/runner/work/doxygen/doxygen/src/qcstring.h Pages: 1 -->
<svg width="510pt" height="148pt"
 viewBox="0.00 0.00 509.84 148.00" xmlns="http://www.w3.org/2000/svg" xmlns:xlink="http://www.w3.org/1999/xlink">
<g id="graph0" class="graph" transform="scale(1 1) rotate(0) translate(4 144)">
<title>/home/runner/work/doxygen/doxygen/src/qcstring.h</title>
<!-- Node1 -->
<g id="Node000001" class="node">
<title>Node1</title>
<g id="a_Node000001"><a xlink:title=" ">
<polygon fill="#999999" stroke="#666666" points="336.32,-140 182.32,-140 182.32,-110 336.32,-110 336.32,-140"/>
<text text-anchor="start" x="190.32" y="-128" font-family="Helvetica,sans-Serif" font-size="10.00">/home/runner/work/doxygen</text>
<text text-anchor="middle" x="259.32" y="-117" font-family="Helvetica,sans-Serif" font-size="10.00">/doxygen/src/qcstring.h</text>
</a>
</g>
</g>
<!-- Node2 -->
<g id="Node000002" class="node">
<title>Node2</title>
<g id="a_Node000002"><a xlink:title=" ">
<polygon fill="#e0e0e0" stroke="#999999" points="243.32,-19 199.32,-19 199.32,0 243.32,0 243.32,-19"/>
<text text-anchor="middle" x="221.32" y="-7" font-family="Helvetica,sans-Serif" font-size="10.00">string</text>
</a>
</g>
</g>
<!-- Node1&#45;&gt;Node2 -->
<g id="edge1_Node000001_Node000002" class="edge">
<title>Node1&#45;&gt;Node2</title>
<g id="a_edge1_Node000001_Node000002"><a xlink:title=" ">
<path fill="none" stroke="#63b8ff" d="M182.17,-119.07C117,-113.1 30.92,-100.36 9.32,-74 -39.57,-14.37 118.49,-9.21 189.07,-9.76"/>
<polygon fill="#63b8ff" stroke="#63b8ff" points="189.16,-13.26 199.2,-9.88 189.25,-6.26 189.16,-13.26"/>
</a>
</g>
</g>
<!-- Node3 -->
<g id="Node000003" class="node">
<title>Node3</title>
<g id="a_Node000003"><a xlink:title=" ">
<polygon fill="#e0e0e0" stroke="#999999" points="82.32,-74 18.32,-74 18.32,-55 82.32,-55 82.32,-74"/>
<text text-anchor="middle" x="50.32" y="-62" font-family="Helvetica,sans-Serif" font-size="10.00">algorithm</text>
</a>
</g>
</g>
<!-- Node1&#45;&gt;Node3 -->
<g id="edge2_Node000001_Node000003" class="edge">
<title>Node1&#45;&gt;Node3</title>
<g id="a_edge2_Node000001_Node000003"><a xlink:title=" ">
<path fill="none" stroke="#63b8ff" d="M209.26,-109.99C173.03,-99.85 124.7,-86.32 90.88,-76.85"/>
<polygon fill="#63b8ff" stroke="#63b8ff" points="91.45,-73.38 80.88,-74.05 89.56,-80.12 91.45,-73.38"/>
</a>
</g>
</g>
<!-- Node4 -->
<g id="Node000004" class="node">
<title>Node4</title>
<g id="a_Node000004"><a xlink:title=" ">
<polygon fill="#e0e0e0" stroke="#999999" points="149.82,-74 100.82,-74 100.82,-55 149.82,-55 149.82,-74"/>
<text text-anchor="middle" x="125.32" y="-62" font-family="Helvetica,sans-Serif" font-size="10.00">cctype</text>
</a>
</g>
</g>
<!-- Node1&#45;&gt;Node4 -->
<g id="edge3_Node000001_Node000004" class="edge">
<title>Node1&#45;&gt;Node4</title>
<g id="a_edge3_Node000001_Node000004"><a xlink:title=" ">
<path fill="none" stroke="#63b8ff" d="M227.22,-109.99C205.06,-100.31 175.84,-87.56 154.37,-78.18"/>
<polygon fill="#63b8ff" stroke="#63b8ff" points="155.67,-74.93 145.11,-74.14 152.87,-81.35 155.67,-74.93"/>
</a>
</g>
</g>
<!-- Node5 -->
<g id="Node000005" class="node">
<title>Node5</title>
<g id="a_Node000005"><a xlink:title=" ">
<polygon fill="#e0e0e0" stroke="#999999" points="218.32,-74 168.32,-74 168.32,-55 218.32,-55 218.32,-74"/>
<text text-anchor="middle" x="193.32" y="-62" font-family="Helvetica,sans-Serif" font-size="10.00">cstring</text>
</a>
</g>
</g>
<!-- Node1&#45;&gt;Node5 -->
<g id="edge4_Node000001_Node000005" class="edge">
<title>Node1&#45;&gt;Node5</title>
<g id="a_edge4_Node000001_Node000005"><a xlink:title=" ">
<path fill="none" stroke="#63b8ff" d="M243.34,-109.84C233.56,-101.17 221.04,-90.08 210.97,-81.15"/>
<polygon fill="#63b8ff" stroke="#63b8ff" points="213.01,-78.28 203.21,-74.27 208.37,-83.52 213.01,-78.28"/>
</a>
</g>
</g>
<!-- Node6 -->
<g id="Node000006" class="node">
<title>Node6</title>
<g id="a_Node000006"><a xlink:title=" ">
<polygon fill="#e0e0e0" stroke="#999999" points="282.32,-74 236.32,-74 236.32,-55 282.32,-55 282.32,-74"/>
<text text-anchor="middle" x="259.32" y="-62" font-family="Helvetica,sans-Serif" font-size="10.00">cstdio</text>
</a>
</g>
</g>
<!-- Node1&#45;&gt;Node6 -->
<g id="edge5_Node000001_Node000006" class="edge">
<title>Node1&#45;&gt;Node6</title>
<g id="a_edge5_Node000001_Node000006"><a xlink:title=" ">
<path fill="none" stroke="#63b8ff" d="M259.32,-109.84C259.32,-102.21 259.32,-92.7 259.32,-84.45"/>
<polygon fill="#63b8ff" stroke="#63b8ff" points="262.82,-84.27 259.32,-74.27 255.82,-84.27 262.82,-84.27"/>
</a>
</g>
</g>
<!-- Node7 -->
<g id="Node000007" class="node">
<title>Node7</title>
<g id="a_Node000007"><a xlink:title=" ">
<polygon fill="#e0e0e0" stroke="#999999" points="349.82,-74 300.82,-74 300.82,-55 349.82,-55 349.82,-74"/>
<text text-anchor="middle" x="325.32" y="-62" font-family="Helvetica,sans-Serif" font-size="10.00">cstdlib</text>
</a>
</g>
</g>
<!-- Node1&#45;&gt;Node7 -->
<g id="edge6_Node000001_Node000007" class="edge">
<title>Node1&#45;&gt;Node7</title>
<g id="a_edge6_Node000001_Node000007"><a xlink:title=" ">
<path fill="none" stroke="#63b8ff" d="M275.29,-109.84C285.07,-101.17 297.59,-90.08 307.66,-81.15"/>
<polygon fill="#63b8ff" stroke="#63b8ff" points="310.26,-83.52 315.43,-74.27 305.62,-78.28 310.26,-83.52"/>
</a>
</g>
</g>
<!-- Node8 -->
<g id="Node000008" class="node">
<title>Node8</title>
<g id="a_Node000008"><a xlink:title=" ">
<polygon fill="#e0e0e0" stroke="#999999" points="478.32,-19 428.32,-19 428.32,0 478.32,0 478.32,-19"/>
<text text-anchor="middle" x="453.32" y="-7" font-family="Helvetica,sans-Serif" font-size="10.00">cstdint</text>
</a>
</g>
</g>
<!-- Node1&#45;&gt;Node8 -->
<g id="edge7_Node000001_Node000008" class="edge">
<title>Node1&#45;&gt;Node8</title>
<g id="a_edge7_Node000001_Node000008"><a xlink:title=" ">
<path fill="none" stroke="#63b8ff" d="M336.45,-118.16C398.03,-111.7 477.23,-98.75 497.32,-74 510.27,-58.04 491.94,-38.43 475.14,-25.26"/>
<polygon fill="#63b8ff" stroke="#63b8ff" points="476.8,-22.13 466.67,-19.01 472.64,-27.76 476.8,-22.13"/>
</a>
</g>
</g>
<!-- Node9 -->
<g id="Node000009" class="node">
<title>Node9</title>
<g id="a_Node000009"><a xlink:title=" ">
<polygon fill="#e0e0e0" stroke="#999999" points="487.82,-74 430.82,-74 430.82,-55 487.82,-55 487.82,-74"/>
<text text-anchor="middle" x="459.32" y="-62" font-family="Helvetica,sans-Serif" font-size="10.00">ostream</text>
</a>
</g>
</g>
<!-- Node1&#45;&gt;Node9 -->
<g id="edge8_Node000001_Node000009" class="edge">
<title>Node1&#45;&gt;Node9</title>
<g id="a_edge8_Node000001_Node000009"><a xlink:title=" ">
<path fill="none" stroke="#63b8ff" d="M307.22,-109.99C341.95,-99.83 388.3,-86.27 420.67,-76.8"/>
<polygon fill="#63b8ff" stroke="#63b8ff" points="422.04,-80.05 430.66,-73.88 420.07,-73.33 422.04,-80.05"/>
</a>
</g>
</g>
<!-- Node10 -->
<g id="Node000010" class="node">
<title>Node10</title>
<g id="a_Node000010"><a xlink:href="../../db/d7c/utf8_8h.html" target="_top" xlink:title="Various UTF8 related helper functions.">
<polygon fill="white" stroke="#666666" points="412.82,-74 367.82,-74 367.82,-55 412.82,-55 412.82,-74"/>
<text text-anchor="middle" x="390.32" y="-62" font-family="Helvetica,sans-Serif" font-size="10.00">utf8.h</text>
</a>
</g>
</g>
<!-- Node1&#45;&gt;Node10 -->
<g id="edge9_Node000001_Node000010" class="edge">
<title>Node1&#45;&gt;Node10</title>
<g id="a_edge9_Node000001_Node000010"><a xlink:title=" ">
<path fill="none" stroke="#63b8ff" d="M290.69,-109.99C312.26,-100.36 340.67,-87.67 361.63,-78.31"/>
<polygon fill="#63b8ff" stroke="#63b8ff" points="363.27,-81.41 370.97,-74.14 360.41,-75.02 363.27,-81.41"/>
</a>
</g>
</g>
<!-- Node10&#45;&gt;Node2 -->
<g id="edge11_Node000010_Node000002" class="edge">
<title>Node10&#45;&gt;Node2</title>
<g id="a_edge11_Node000010_Node000002"><a xlink:title=" ">
<path fill="none" stroke="#63b8ff" d="M367.52,-56.35C338.05,-47.11 286.55,-30.96 253.2,-20.5"/>
<polygon fill="#63b8ff" stroke="#63b8ff" points="254.07,-17.1 243.48,-17.45 251.97,-23.78 254.07,-17.1"/>
</a>
</g>
</g>
<!-- Node10&#45;&gt;Node8 -->
<g id="edge10_Node000010_Node000008" class="edge">
<title>Node10&#45;&gt;Node8</title>
<g id="a_edge10_Node000010_Node000008"><a xlink:title=" ">
<path fill="none" stroke="#63b8ff" d="M400.44,-54.98C409.75,-47.15 423.78,-35.34 435.05,-25.86"/>
<polygon fill="#63b8ff" stroke="#63b8ff" points="437.61,-28.29 443.01,-19.17 433.1,-22.93 437.61,-28.29"/>
</a>
</g>
</g>
</g>
</svg>
