<?xml version="1.0" encoding="UTF-8" standalone="no"?>
<!DOCTYPE svg PUBLIC "-//W3C//DTD SVG 1.1//EN"
 "http://www.w3.org/Graphics/SVG/1.1/DTD/svg11.dtd">
<!-- Generated by graphviz version 2.43.0 (0)
 -->
<!-- Title: OutputCodeDefer&lt; OutputCodeGen &gt; Pages: 1 -->
<svg width="657pt" height="278pt"
 viewBox="0.00 0.00 657.00 278.00" xmlns="http://www.w3.org/2000/svg" xmlns:xlink="http://www.w3.org/1999/xlink">
<g id="page0,1_graph0" class="graph" transform="scale(1 1) rotate(0) translate(4 274)">
<title>OutputCodeDefer&lt; OutputCodeGen &gt;</title>
<!-- Node1 -->
<g id="Node000001" class="node">
<title>Node1</title>
<g id="a_Node000001"><a xlink:title="Helper template class which defers all methods of OutputCodeIntf to an existing object of the templat...">
<polygon fill="#999999" stroke="#666666" points="298,-150 128,-150 128,-120 298,-120 298,-150"/>
<text text-anchor="start" x="136" y="-138" font-family="Helvetica,sans-Serif" font-size="10.00">OutputCodeDefer&lt; OutputCode</text>
<text text-anchor="middle" x="213" y="-127" font-family="Helvetica,sans-Serif" font-size="10.00">Gen &gt;</text>
</a>
</g>
</g>
<!-- Node3 -->
<g id="Node000003" class="node">
<title>Node3</title>
<g id="a_Node000003"><a xlink:href="../../dd/d41/class_output_code_defer.html" target="_top" xlink:title=" ">
<polygon fill="white" stroke="#666666" points="644.5,-270 483.5,-270 483.5,-240 644.5,-240 644.5,-270"/>
<text text-anchor="start" x="491.5" y="-258" font-family="Helvetica,sans-Serif" font-size="10.00">OutputCodeDefer&lt; HtmlCode</text>
<text text-anchor="middle" x="564" y="-247" font-family="Helvetica,sans-Serif" font-size="10.00">Generator &gt;</text>
</a>
</g>
</g>
<!-- Node1&#45;&gt;Node3 -->
<g id="edge2_Node000001_Node000003" class="edge">
<title>Node1&#45;&gt;Node3</title>
<g id="a_edge2_Node000001_Node000003"><a xlink:title=" ">
<path fill="none" stroke="orange" stroke-dasharray="5,2" d="M234.9,-157.44C254.07,-176.53 284.24,-203.01 316,-217 368.81,-240.26 433.41,-249.61 483.31,-253.22"/>
<polygon fill="orange" stroke="orange" points="237.37,-154.96 227.87,-150.27 232.38,-159.86 237.37,-154.96"/>
</a>
</g>
<text text-anchor="start" x="328.5" y="-256.5" font-family="Helvetica,sans-Serif" font-size="10.00" fill="grey">&lt; HtmlCodeGenerator &gt;</text>
</g>
<!-- Node4 -->
<g id="Node000004" class="node">
<title>Node4</title>
<g id="a_Node000004"><a xlink:href="../../dd/d41/class_output_code_defer.html" target="_top" xlink:title=" ">
<polygon fill="white" stroke="#666666" points="646,-222 482,-222 482,-192 646,-192 646,-222"/>
<text text-anchor="start" x="490" y="-210" font-family="Helvetica,sans-Serif" font-size="10.00">OutputCodeDefer&lt; LatexCode</text>
<text text-anchor="middle" x="564" y="-199" font-family="Helvetica,sans-Serif" font-size="10.00">Generator &gt;</text>
</a>
</g>
</g>
<!-- Node1&#45;&gt;Node4 -->
<g id="edge3_Node000001_Node000004" class="edge">
<title>Node1&#45;&gt;Node4</title>
<g id="a_edge3_Node000001_Node000004"><a xlink:title=" ">
<path fill="none" stroke="orange" stroke-dasharray="5,2" d="M259.18,-153.67C276.68,-160.29 297.03,-167.27 316,-172 370.53,-185.6 433.23,-194.4 481.82,-199.78"/>
<polygon fill="orange" stroke="orange" points="260.37,-150.38 249.78,-150.04 257.85,-156.91 260.37,-150.38"/>
</a>
</g>
<text text-anchor="start" x="326.5" y="-201.5" font-family="Helvetica,sans-Serif" font-size="10.00" fill="grey">&lt; LatexCodeGenerator &gt;</text>
</g>
<!-- Node5 -->
<g id="Node000005" class="node">
<title>Node5</title>
<g id="a_Node000005"><a xlink:href="../../dd/d41/class_output_code_defer.html" target="_top" xlink:title=" ">
<polygon fill="white" stroke="#666666" points="641.5,-174 486.5,-174 486.5,-144 641.5,-144 641.5,-174"/>
<text text-anchor="start" x="494.5" y="-162" font-family="Helvetica,sans-Serif" font-size="10.00">OutputCodeDefer&lt; RTFCode</text>
<text text-anchor="middle" x="564" y="-151" font-family="Helvetica,sans-Serif" font-size="10.00">Generator &gt;</text>
</a>
</g>
</g>
<!-- Node1&#45;&gt;Node5 -->
<g id="edge4_Node000001_Node000005" class="edge">
<title>Node1&#45;&gt;Node5</title>
<g id="a_edge4_Node000001_Node000005"><a xlink:title=" ">
<path fill="none" stroke="orange" stroke-dasharray="5,2" d="M308.28,-141.48C364.07,-145.32 433.84,-150.12 486.25,-153.72"/>
<polygon fill="orange" stroke="orange" points="308.25,-137.97 298.04,-140.78 307.77,-144.96 308.25,-137.97"/>
</a>
</g>
<text text-anchor="start" x="331.5" y="-156.5" font-family="Helvetica,sans-Serif" font-size="10.00" fill="grey">&lt; RTFCodeGenerator &gt;</text>
</g>
<!-- Node6 -->
<g id="Node000006" class="node">
<title>Node6</title>
<g id="a_Node000006"><a xlink:href="../../dd/d41/class_output_code_defer.html" target="_top" xlink:title=" ">
<polygon fill="white" stroke="#666666" points="643,-126 485,-126 485,-96 643,-96 643,-126"/>
<text text-anchor="start" x="493" y="-114" font-family="Helvetica,sans-Serif" font-size="10.00">OutputCodeDefer&lt; ManCode</text>
<text text-anchor="middle" x="564" y="-103" font-family="Helvetica,sans-Serif" font-size="10.00">Generator &gt;</text>
</a>
</g>
</g>
<!-- Node1&#45;&gt;Node6 -->
<g id="edge5_Node000001_Node000006" class="edge">
<title>Node1&#45;&gt;Node6</title>
<g id="a_edge5_Node000001_Node000006"><a xlink:title=" ">
<path fill="none" stroke="orange" stroke-dasharray="5,2" d="M308.32,-121.73C310.9,-121.47 313.47,-121.22 316,-121 372.32,-116.01 436.09,-113.5 484.73,-112.25"/>
<polygon fill="orange" stroke="orange" points="307.83,-118.26 298.25,-122.79 308.57,-125.22 307.83,-118.26"/>
</a>
</g>
<text text-anchor="start" x="329.5" y="-126.5" font-family="Helvetica,sans-Serif" font-size="10.00" fill="grey">&lt; ManCodeGenerator &gt;</text>
</g>
<!-- Node7 -->
<g id="Node000007" class="node">
<title>Node7</title>
<g id="a_Node000007"><a xlink:href="../../dd/d41/class_output_code_defer.html" target="_top" xlink:title=" ">
<polygon fill="white" stroke="#666666" points="641.5,-78 486.5,-78 486.5,-48 641.5,-48 641.5,-78"/>
<text text-anchor="start" x="494.5" y="-66" font-family="Helvetica,sans-Serif" font-size="10.00">OutputCodeDefer&lt; Docbook</text>
<text text-anchor="middle" x="564" y="-55" font-family="Helvetica,sans-Serif" font-size="10.00">CodeGenerator &gt;</text>
</a>
</g>
</g>
<!-- Node1&#45;&gt;Node7 -->
<g id="edge6_Node000001_Node000007" class="edge">
<title>Node1&#45;&gt;Node7</title>
<g id="a_edge6_Node000001_Node000007"><a xlink:title=" ">
<path fill="none" stroke="orange" stroke-dasharray="5,2" d="M253.78,-115.69C272.3,-107.47 294.86,-98.53 316,-93 372,-78.36 437.05,-70.82 486.33,-66.97"/>
<polygon fill="orange" stroke="orange" points="252.16,-112.58 244.5,-119.9 255.05,-118.96 252.16,-112.58"/>
</a>
</g>
<text text-anchor="start" x="319.5" y="-98.5" font-family="Helvetica,sans-Serif" font-size="10.00" fill="grey">&lt; DocbookCodeGenerator &gt;</text>
</g>
<!-- Node8 -->
<g id="Node000008" class="node">
<title>Node8</title>
<g id="a_Node000008"><a xlink:href="../../dd/d41/class_output_code_defer.html" target="_top" xlink:title=" ">
<polygon fill="white" stroke="#666666" points="649,-30 479,-30 479,0 649,0 649,-30"/>
<text text-anchor="start" x="487" y="-18" font-family="Helvetica,sans-Serif" font-size="10.00">OutputCodeDefer&lt; OutputCode</text>
<text text-anchor="middle" x="564" y="-7" font-family="Helvetica,sans-Serif" font-size="10.00">Intf &gt;</text>
</a>
</g>
</g>
<!-- Node1&#45;&gt;Node8 -->
<g id="edge7_Node000001_Node000008" class="edge">
<title>Node1&#45;&gt;Node8</title>
<g id="a_edge7_Node000001_Node000008"><a xlink:title=" ">
<path fill="none" stroke="orange" stroke-dasharray="5,2" d="M233.65,-112.37C252.58,-92.18 283.12,-63.63 316,-49 367.12,-26.26 429.58,-17.81 478.9,-15.02"/>
<polygon fill="orange" stroke="orange" points="230.91,-110.17 226.75,-119.91 236.08,-114.89 230.91,-110.17"/>
</a>
</g>
<text text-anchor="start" x="340.5" y="-54.5" font-family="Helvetica,sans-Serif" font-size="10.00" fill="grey">&lt; OutputCodeIntf &gt;</text>
</g>
<!-- Node2 -->
<g id="Node000002" class="node">
<title>Node2</title>
<g id="a_Node000002"><a xlink:href="../../db/d44/class_output_code_intf.html" target="_top" xlink:title="Base class for code generators.">
<polygon fill="white" stroke="#666666" points="91,-144.5 0,-144.5 0,-125.5 91,-125.5 91,-144.5"/>
<text text-anchor="middle" x="45.5" y="-132.5" font-family="Helvetica,sans-Serif" font-size="10.00">OutputCodeIntf</text>
</a>
</g>
</g>
<!-- Node2&#45;&gt;Node1 -->
<g id="edge1_Node000001_Node000002" class="edge">
<title>Node2&#45;&gt;Node1</title>
<g id="a_edge1_Node000001_Node000002"><a xlink:title=" ">
<path fill="none" stroke="#63b8ff" d="M101.44,-135C109.98,-135 118.95,-135 127.95,-135"/>
<polygon fill="#63b8ff" stroke="#63b8ff" points="101.29,-131.5 91.29,-135 101.29,-138.5 101.29,-131.5"/>
</a>
</g>
</g>
</g>
</svg>
