<?xml version="1.0" encoding="UTF-8" standalone="no"?>
<!DOCTYPE svg PUBLIC "-//W3C//DTD SVG 1.1//EN"
 "http://www.w3.org/Graphics/SVG/1.1/DTD/svg11.dtd">
<!-- Generated by graphviz version 2.43.0 (0)
 -->
<!-- Title: PageDefImpl Pages: 1 -->
<svg width="539pt" height="247pt"
 viewBox="0.00 0.00 539.00 247.00" xmlns="http://www.w3.org/2000/svg" xmlns:xlink="http://www.w3.org/1999/xlink">
<g id="graph0" class="graph" transform="scale(1 1) rotate(0) translate(4 243)">
<title>PageDefImpl</title>
<!-- Node1 -->
<g id="Node000001" class="node">
<title>Node1</title>
<g id="a_Node000001"><a xlink:title=" ">
<polygon fill="#999999" stroke="#666666" points="330.5,-19 251.5,-19 251.5,0 330.5,0 330.5,-19"/>
<text text-anchor="middle" x="291" y="-7" font-family="Helvetica,sans-Serif" font-size="10.00">PageDefImpl</text>
</a>
</g>
</g>
<!-- Node2 -->
<g id="Node000002" class="node">
<title>Node2</title>
<g id="a_Node000002"><a xlink:href="../../dd/d10/class_definition_mixin.html" target="_top" xlink:title=" ">
<polygon fill="white" stroke="#666666" points="243,-96 89,-96 89,-77 243,-77 243,-96"/>
<text text-anchor="middle" x="166" y="-84" font-family="Helvetica,sans-Serif" font-size="10.00">DefinitionMixin&lt; PageDef &gt;</text>
</a>
</g>
</g>
<!-- Node2&#45;&gt;Node1 -->
<g id="edge1_Node000001_Node000002" class="edge">
<title>Node2&#45;&gt;Node1</title>
<g id="a_edge1_Node000001_Node000002"><a xlink:title=" ">
<path fill="none" stroke="#63b8ff" d="M189.06,-71.67C214.74,-56.25 255.45,-31.83 276.83,-19"/>
<polygon fill="#63b8ff" stroke="#63b8ff" points="187.11,-68.75 180.34,-76.9 190.71,-74.75 187.11,-68.75"/>
</a>
</g>
</g>
<!-- Node3 -->
<g id="Node000003" class="node">
<title>Node3</title>
<g id="a_Node000003"><a xlink:href="../../dd/d41/class_page_def.html" target="_top" xlink:title="A model of a page symbol.">
<polygon fill="white" stroke="#666666" points="129.5,-162 72.5,-162 72.5,-143 129.5,-143 129.5,-162"/>
<text text-anchor="middle" x="101" y="-150" font-family="Helvetica,sans-Serif" font-size="10.00">PageDef</text>
</a>
</g>
</g>
<!-- Node3&#45;&gt;Node2 -->
<g id="edge2_Node000002_Node000003" class="edge">
<title>Node3&#45;&gt;Node2</title>
<g id="a_edge2_Node000002_Node000003"><a xlink:title=" ">
<path fill="none" stroke="#63b8ff" d="M116.92,-135.83C129.5,-123.44 146.62,-106.59 156.96,-96.41"/>
<polygon fill="#63b8ff" stroke="#63b8ff" points="114.44,-133.36 109.77,-142.87 119.35,-138.35 114.44,-133.36"/>
</a>
</g>
</g>
<!-- Node4 -->
<g id="Node000004" class="node">
<title>Node4</title>
<g id="a_Node000004"><a xlink:href="../../d0/d46/class_definition_mutable.html" target="_top" xlink:title=" ">
<polygon fill="white" stroke="#666666" points="186,-233.5 82,-233.5 82,-214.5 186,-214.5 186,-233.5"/>
<text text-anchor="middle" x="134" y="-221.5" font-family="Helvetica,sans-Serif" font-size="10.00">DefinitionMutable</text>
</a>
</g>
</g>
<!-- Node4&#45;&gt;Node3 -->
<g id="edge3_Node000003_Node000004" class="edge">
<title>Node4&#45;&gt;Node3</title>
<g id="a_edge3_Node000003_Node000004"><a xlink:title=" ">
<path fill="none" stroke="#63b8ff" d="M125.66,-205.43C119.08,-191.58 110.19,-172.86 105.08,-162.09"/>
<polygon fill="#63b8ff" stroke="#63b8ff" points="122.5,-206.95 129.95,-214.48 128.83,-203.94 122.5,-206.95"/>
</a>
</g>
</g>
<!-- Node5 -->
<g id="Node000005" class="node">
<title>Node5</title>
<g id="a_Node000005"><a xlink:href="../../d5/dcc/class_definition.html" target="_top" xlink:title="The common base class of all entity definitions found in the sources.">
<polygon fill="white" stroke="#666666" points="64,-233.5 0,-233.5 0,-214.5 64,-214.5 64,-233.5"/>
<text text-anchor="middle" x="32" y="-221.5" font-family="Helvetica,sans-Serif" font-size="10.00">Definition</text>
</a>
</g>
</g>
<!-- Node5&#45;&gt;Node1 -->
<g id="edge13_Node000001_Node000005" class="edge">
<title>Node5&#45;&gt;Node1</title>
<g id="a_edge13_Node000001_Node000005"><a xlink:title=" ">
<path fill="none" stroke="#9a32cd" stroke-dasharray="5,2" d="M31.79,-203.8C32.61,-171.42 39.54,-106.61 80,-77 131.92,-39.01 206.22,-22.26 251.4,-15.23"/>
<polygon fill="#9a32cd" stroke="#9a32cd" points="28.29,-204.11 31.72,-214.13 35.29,-204.16 28.29,-204.11"/>
</a>
</g>
<text text-anchor="middle" x="87" y="-117" font-family="Helvetica,sans-Serif" font-size="10.00" fill="grey"> m_pageScope</text>
</g>
<!-- Node5&#45;&gt;Node3 -->
<g id="edge4_Node000003_Node000005" class="edge">
<title>Node5&#45;&gt;Node3</title>
<g id="a_edge4_Node000003_Node000005"><a xlink:title=" ">
<path fill="none" stroke="#63b8ff" d="M47.86,-207.03C61.74,-193.05 81.36,-173.28 92.47,-162.09"/>
<polygon fill="#63b8ff" stroke="#63b8ff" points="45.02,-204.92 40.46,-214.48 49.99,-209.85 45.02,-204.92"/>
</a>
</g>
</g>
<!-- Node6 -->
<g id="Node000006" class="node">
<title>Node6</title>
<g id="a_Node000006"><a xlink:href="../../d3/ddf/class_definition_impl.html" target="_top" xlink:title=" ">
<polygon fill="white" stroke="#666666" points="290,-233.5 204,-233.5 204,-214.5 290,-214.5 290,-233.5"/>
<text text-anchor="middle" x="247" y="-221.5" font-family="Helvetica,sans-Serif" font-size="10.00">DefinitionImpl</text>
</a>
</g>
</g>
<!-- Node6&#45;&gt;Node2 -->
<g id="edge5_Node000002_Node000006" class="edge">
<title>Node6&#45;&gt;Node2</title>
<g id="a_edge5_Node000002_Node000006"><a xlink:title=" ">
<path fill="none" stroke="#9a32cd" stroke-dasharray="5,2" d="M222.47,-209.04C206.16,-198.36 185.82,-182.08 175,-162 163.51,-140.67 163.96,-111 165.07,-96.38"/>
<polygon fill="#9a32cd" stroke="#9a32cd" points="220.7,-212.05 231.03,-214.38 224.4,-206.11 220.7,-212.05"/>
</a>
</g>
<text text-anchor="middle" x="195" y="-150" font-family="Helvetica,sans-Serif" font-size="10.00" fill="grey"> m_impl</text>
</g>
<!-- Node7 -->
<g id="Node000007" class="node">
<title>Node7</title>
<g id="a_Node000007"><a xlink:href="../../dd/d10/class_definition_mixin.html" target="_top" xlink:title=" ">
<polygon fill="white" stroke="#666666" points="361.5,-162 224.5,-162 224.5,-143 361.5,-143 361.5,-162"/>
<text text-anchor="middle" x="293" y="-150" font-family="Helvetica,sans-Serif" font-size="10.00">DefinitionMixin&lt; Base &gt;</text>
</a>
</g>
</g>
<!-- Node6&#45;&gt;Node7 -->
<g id="edge8_Node000007_Node000006" class="edge">
<title>Node6&#45;&gt;Node7</title>
<g id="a_edge8_Node000007_Node000006"><a xlink:title=" ">
<path fill="none" stroke="#9a32cd" stroke-dasharray="5,2" d="M251.74,-204.34C254.3,-196.4 257.98,-187.31 263,-180 267.72,-173.13 274.61,-166.87 280.59,-162.17"/>
<polygon fill="#9a32cd" stroke="#9a32cd" points="248.31,-203.59 248.93,-214.17 255.05,-205.51 248.31,-203.59"/>
</a>
</g>
<text text-anchor="middle" x="283" y="-183" font-family="Helvetica,sans-Serif" font-size="10.00" fill="grey"> m_impl</text>
</g>
<!-- Node7&#45;&gt;Node2 -->
<g id="edge6_Node000002_Node000007" class="edge">
<title>Node7&#45;&gt;Node2</title>
<g id="a_edge6_Node000002_Node000007"><a xlink:title=" ">
<path fill="none" stroke="orange" stroke-dasharray="5,2" d="M266.93,-138.36C241.9,-125.75 204.82,-107.06 183.26,-96.2"/>
<polygon fill="orange" stroke="orange" points="265.37,-141.49 275.87,-142.87 268.52,-135.24 265.37,-141.49"/>
</a>
</g>
<text text-anchor="middle" x="271.5" y="-117" font-family="Helvetica,sans-Serif" font-size="10.00" fill="grey"> &lt; PageDef &gt;</text>
</g>
<!-- Node8 -->
<g id="Node000008" class="node">
<title>Node8</title>
<g id="a_Node000008"><a xlink:title=" ">
<polygon fill="white" stroke="#666666" points="349.5,-233.5 308.5,-233.5 308.5,-214.5 349.5,-214.5 349.5,-233.5"/>
<text text-anchor="middle" x="329" y="-221.5" font-family="Helvetica,sans-Serif" font-size="10.00">Base</text>
</a>
</g>
</g>
<!-- Node8&#45;&gt;Node7 -->
<g id="edge7_Node000007_Node000008" class="edge">
<title>Node8&#45;&gt;Node7</title>
<g id="a_edge7_Node000007_Node000008"><a xlink:title=" ">
<path fill="none" stroke="#63b8ff" d="M319.9,-205.43C312.73,-191.58 303.03,-172.86 297.45,-162.09"/>
<polygon fill="#63b8ff" stroke="#63b8ff" points="316.88,-207.21 324.59,-214.48 323.09,-203.99 316.88,-207.21"/>
</a>
</g>
</g>
<!-- Node9 -->
<g id="Node000009" class="node">
<title>Node9</title>
<g id="a_Node000009"><a xlink:href="../../d9/d45/class_q_c_string.html" target="_top" xlink:title="This is an alternative implementation of QCString.">
<polygon fill="white" stroke="#666666" points="320.5,-96 261.5,-96 261.5,-77 320.5,-77 320.5,-96"/>
<text text-anchor="middle" x="291" y="-84" font-family="Helvetica,sans-Serif" font-size="10.00">QCString</text>
</a>
</g>
</g>
<!-- Node9&#45;&gt;Node1 -->
<g id="edge9_Node000001_Node000009" class="edge">
<title>Node9&#45;&gt;Node1</title>
<g id="a_edge9_Node000001_Node000009"><a xlink:title=" ">
<path fill="none" stroke="#9a32cd" stroke-dasharray="5,2" d="M291,-66.52C291,-51.24 291,-30.48 291,-19"/>
<polygon fill="#9a32cd" stroke="#9a32cd" points="287.5,-66.9 291,-76.9 294.5,-66.9 287.5,-66.9"/>
</a>
</g>
<text text-anchor="middle" x="322.5" y="-51" font-family="Helvetica,sans-Serif" font-size="10.00" fill="grey"> m_fileName</text>
<text text-anchor="middle" x="322.5" y="-40" font-family="Helvetica,sans-Serif" font-size="10.00" fill="grey">m_title</text>
</g>
<!-- Node10 -->
<g id="Node000010" class="node">
<title>Node10</title>
<g id="a_Node000010"><a xlink:href="../../d9/de6/class_page_linked_ref_map.html" target="_top" xlink:title=" ">
<polygon fill="white" stroke="#666666" points="447.5,-96 338.5,-96 338.5,-77 447.5,-77 447.5,-96"/>
<text text-anchor="middle" x="393" y="-84" font-family="Helvetica,sans-Serif" font-size="10.00">PageLinkedRefMap</text>
</a>
</g>
</g>
<!-- Node10&#45;&gt;Node1 -->
<g id="edge10_Node000001_Node000010" class="edge">
<title>Node10&#45;&gt;Node1</title>
<g id="a_edge10_Node000001_Node000010"><a xlink:title=" ">
<path fill="none" stroke="#9a32cd" stroke-dasharray="5,2" d="M383.7,-67.92C377.56,-57.73 368.68,-45.31 358,-37 347.83,-29.09 335,-23.25 323.29,-19.1"/>
<polygon fill="#9a32cd" stroke="#9a32cd" points="380.75,-69.82 388.72,-76.8 386.85,-66.38 380.75,-69.82"/>
</a>
</g>
<text text-anchor="middle" x="409" y="-45.5" font-family="Helvetica,sans-Serif" font-size="10.00" fill="grey"> m_subPages</text>
</g>
<!-- Node11 -->
<g id="Node000011" class="node">
<title>Node11</title>
<g id="a_Node000011"><a xlink:href="../../d2/db7/class_linked_ref_map.html" target="_top" xlink:title=" ">
<polygon fill="white" stroke="#666666" points="528.5,-162 379.5,-162 379.5,-143 528.5,-143 528.5,-162"/>
<text text-anchor="middle" x="454" y="-150" font-family="Helvetica,sans-Serif" font-size="10.00">LinkedRefMap&lt; PageDef &gt;</text>
</a>
</g>
</g>
<!-- Node11&#45;&gt;Node10 -->
<g id="edge11_Node000010_Node000011" class="edge">
<title>Node11&#45;&gt;Node10</title>
<g id="a_edge11_Node000010_Node000011"><a xlink:title=" ">
<path fill="none" stroke="#63b8ff" d="M438.73,-135.48C426.95,-123.12 411.1,-106.49 401.49,-96.41"/>
<polygon fill="#63b8ff" stroke="#63b8ff" points="436.34,-138.04 445.77,-142.87 441.41,-133.22 436.34,-138.04"/>
</a>
</g>
</g>
<!-- Node12 -->
<g id="Node000012" class="node">
<title>Node12</title>
<g id="a_Node000012"><a xlink:href="../../d2/db7/class_linked_ref_map.html" target="_top" xlink:title="Container class representing a vector of objects with keys.">
<polygon fill="white" stroke="#666666" points="522.5,-239 385.5,-239 385.5,-209 522.5,-209 522.5,-239"/>
<text text-anchor="start" x="393.5" y="-227" font-family="Helvetica,sans-Serif" font-size="10.00">LinkedRefMap&lt; T, Hash,</text>
<text text-anchor="middle" x="454" y="-216" font-family="Helvetica,sans-Serif" font-size="10.00"> KeyEqual, Map &gt;</text>
</a>
</g>
</g>
<!-- Node12&#45;&gt;Node11 -->
<g id="edge12_Node000011_Node000012" class="edge">
<title>Node12&#45;&gt;Node11</title>
<g id="a_edge12_Node000011_Node000012"><a xlink:title=" ">
<path fill="none" stroke="orange" stroke-dasharray="5,2" d="M454,-198.56C454,-185.95 454,-171.35 454,-162.27"/>
<polygon fill="orange" stroke="orange" points="450.5,-198.94 454,-208.94 457.5,-198.94 450.5,-198.94"/>
</a>
</g>
<text text-anchor="middle" x="487.5" y="-183" font-family="Helvetica,sans-Serif" font-size="10.00" fill="grey"> &lt; PageDef &gt;</text>
</g>
<!-- Node13 -->
<g id="Node000013" class="node">
<title>Node13</title>
<g id="a_Node000013"><a xlink:href="../../da/d1d/class_local_toc.html" target="_top" xlink:title=" ">
<polygon fill="white" stroke="#666666" points="524,-96 466,-96 466,-77 524,-77 524,-96"/>
<text text-anchor="middle" x="495" y="-84" font-family="Helvetica,sans-Serif" font-size="10.00">LocalToc</text>
</a>
</g>
</g>
<!-- Node13&#45;&gt;Node1 -->
<g id="edge14_Node000001_Node000013" class="edge">
<title>Node13&#45;&gt;Node1</title>
<g id="a_edge14_Node000001_Node000013"><a xlink:title=" ">
<path fill="none" stroke="#9a32cd" stroke-dasharray="5,2" d="M482.27,-68.74C473.11,-57.93 459.8,-44.52 445,-37 409.09,-18.74 363.02,-12.75 330.66,-10.94"/>
<polygon fill="#9a32cd" stroke="#9a32cd" points="479.67,-71.1 488.67,-76.69 485.12,-66.71 479.67,-71.1"/>
</a>
</g>
<text text-anchor="middle" x="502" y="-45.5" font-family="Helvetica,sans-Serif" font-size="10.00" fill="grey"> m_localToc</text>
</g>
</g>
</svg>
