<?xml version="1.0" encoding="UTF-8" standalone="no"?>
<!DOCTYPE svg PUBLIC "-//W3C//DTD SVG 1.1//EN"
 "http://www.w3.org/Graphics/SVG/1.1/DTD/svg11.dtd">
<!-- Generated by graphviz version 2.43.0 (0)
 -->
<!-- Title: DocbookGenerator Pages: 1 -->
<svg width="448pt" height="195pt"
 viewBox="0.00 0.00 447.99 195.00" xmlns="http://www.w3.org/2000/svg" xmlns:xlink="http://www.w3.org/1999/xlink">

<svg id="main" version="1.1" xmlns="http://www.w3.org/2000/svg" xmlns:xlink="http://www.w3.org/1999/xlink" xml:space="preserve">

<style type="text/css"><![CDATA[
.node, .edge {opacity: 0.7;}
.node.selected, .edge.selected {opacity: 1;}
.edge:hover path { stroke: red; }
.edge:hover polygon { stroke: red; fill: red; }
]]></style>
<script type="application/ecmascript" xlink:href="../../svg.min.js"/>
<svg id="graph" class="graph">
<g id="graph0" class="graph" transform="scale(1 1) rotate(0) translate(4 191)">
<title>DocbookGenerator</title>
<!-- Node1 -->
<g id="Node000001" class="node">
<title>Node1</title>
<g id="a_Node000001"><a xlink:title=" ">
<polygon fill="#999999" stroke="#666666" points="269.49,-19 161.49,-19 161.49,0 269.49,0 269.49,-19"/>
<text text-anchor="middle" x="215.49" y="-7" font-family="Helvetica,sans-Serif" font-size="10.00">DocbookGenerator</text>
</a>
</g>
</g>
<!-- Node2 -->
<g id="Node000002" class="node">
<title>Node2</title>
<g id="a_Node000002"><a xlink:href="../../d3/d8e/class_output_generator.html" target="_top" xlink:title="Base class for shared implementation for all output generators.">
<polygon fill="white" stroke="#666666" points="182.49,-86.5 84.49,-86.5 84.49,-67.5 182.49,-67.5 182.49,-86.5"/>
<text text-anchor="middle" x="133.49" y="-74.5" font-family="Helvetica,sans-Serif" font-size="10.00">OutputGenerator</text>
</a>
</g>
</g>
<!-- Node2&#45;&gt;Node1 -->
<g id="edge1_Node000001_Node000002" class="edge">
<title>Node2&#45;&gt;Node1</title>
<g id="a_edge1_Node000001_Node000002"><a xlink:title=" ">
<path fill="none" stroke="#63b8ff" d="M152.45,-60.85C168.7,-47.88 191.5,-29.66 204.76,-19.07"/>
<polygon fill="#63b8ff" stroke="#63b8ff" points="149.84,-58.46 144.21,-67.44 154.2,-63.93 149.84,-58.46"/>
</a>
</g>
</g>
<!-- Node3 -->
<g id="Node000003" class="node">
<title>Node3</title>
<g id="a_Node000003"><a xlink:href="../../d3/d30/class_text_stream.html" target="_top" xlink:title="Text streaming class that buffers data.">
<polygon fill="white" stroke="#666666" points="330.49,-187 258.49,-187 258.49,-168 330.49,-168 330.49,-187"/>
<text text-anchor="middle" x="294.49" y="-175" font-family="Helvetica,sans-Serif" font-size="10.00">TextStream</text>
</a>
</g>
</g>
<!-- Node3&#45;&gt;Node2 -->
<g id="edge2_Node000002_Node000003" class="edge">
<title>Node3&#45;&gt;Node2</title>
<g id="a_edge2_Node000002_Node000003"><a xlink:title=" ">
<path fill="none" stroke="#9a32cd" stroke-dasharray="5,2" d="M293.69,-157.28C291.96,-141.24 286.89,-118.99 272.49,-106 269.01,-102.87 220.66,-93.58 181.95,-86.56"/>
<polygon fill="#9a32cd" stroke="#9a32cd" points="290.22,-157.92 294.44,-167.64 297.21,-157.41 290.22,-157.92"/>
</a>
</g>
<text text-anchor="middle" x="303.49" y="-125.5" font-family="Helvetica,sans-Serif" font-size="10.00" fill="grey"> m_t</text>
</g>
<!-- Node6 -->
<g id="Node000006" class="node">
<title>Node6</title>
<g id="a_Node000006"><a xlink:href="../../d7/d80/class_docbook_code_generator.html" target="_top" xlink:title=" ">
<polygon fill="white" stroke="#666666" points="437.99,-86.5 304.99,-86.5 304.99,-67.5 437.99,-67.5 437.99,-86.5"/>
<text text-anchor="middle" x="371.49" y="-74.5" font-family="Helvetica,sans-Serif" font-size="10.00">DocbookCodeGenerator</text>
</a>
</g>
</g>
<!-- Node3&#45;&gt;Node6 -->
<g id="edge8_Node000006_Node000003" class="edge">
<title>Node3&#45;&gt;Node6</title>
<g id="a_edge8_Node000006_Node000003"><a xlink:title=" ">
<path fill="none" stroke="#9a32cd" stroke-dasharray="5,2" d="M311.18,-160.31C314.37,-156.99 317.61,-153.45 320.49,-150 335.8,-131.62 337.65,-125.51 351.49,-106 356.05,-99.57 361.22,-92.33 365.17,-86.82"/>
<polygon fill="#9a32cd" stroke="#9a32cd" points="308.58,-157.96 304.01,-167.53 313.54,-162.9 308.58,-157.96"/>
</a>
</g>
<text text-anchor="middle" x="362.49" y="-125.5" font-family="Helvetica,sans-Serif" font-size="10.00" fill="grey"> m_t</text>
</g>
<!-- Node4 -->
<g id="Node000004" class="node">
<title>Node4</title>
<g id="a_Node000004"><a xlink:href="../../d9/d45/class_q_c_string.html" target="_top" xlink:title="This is an alternative implementation of QCString.">
<polygon fill="white" stroke="#666666" points="123.99,-187 64.99,-187 64.99,-168 123.99,-168 123.99,-187"/>
<text text-anchor="middle" x="94.49" y="-175" font-family="Helvetica,sans-Serif" font-size="10.00">QCString</text>
</a>
</g>
</g>
<!-- Node4&#45;&gt;Node1 -->
<g id="edge5_Node000001_Node000004" class="edge">
<title>Node4&#45;&gt;Node1</title>
<g id="a_edge5_Node000001_Node000004"><a xlink:title=" ">
<path fill="none" stroke="#9a32cd" stroke-dasharray="5,2" d="M69.52,-162.62C35.19,-141.77 -19.43,-101.04 7.49,-66 26.16,-41.7 106.27,-25.75 161.44,-17.43"/>
<polygon fill="#9a32cd" stroke="#9a32cd" points="68.19,-165.9 78.58,-167.96 71.74,-159.87 68.19,-165.9"/>
</a>
</g>
<text text-anchor="middle" x="41.49" y="-80" font-family="Helvetica,sans-Serif" font-size="10.00" fill="grey"> m_pageLinks</text>
<text text-anchor="middle" x="41.49" y="-69" font-family="Helvetica,sans-Serif" font-size="10.00" fill="grey">relPath</text>
</g>
<!-- Node4&#45;&gt;Node2 -->
<g id="edge3_Node000002_Node000004" class="edge">
<title>Node4&#45;&gt;Node2</title>
<g id="a_edge3_Node000002_Node000004"><a xlink:title=" ">
<path fill="none" stroke="#9a32cd" stroke-dasharray="5,2" d="M90.38,-157.63C88.15,-142.77 87.28,-121.96 95.49,-106 99.76,-97.69 107.76,-91.23 115.33,-86.62"/>
<polygon fill="#9a32cd" stroke="#9a32cd" points="86.98,-158.46 92.24,-167.66 93.86,-157.19 86.98,-158.46"/>
</a>
</g>
<text text-anchor="middle" x="125.49" y="-131" font-family="Helvetica,sans-Serif" font-size="10.00" fill="grey"> m_dir</text>
<text text-anchor="middle" x="125.49" y="-120" font-family="Helvetica,sans-Serif" font-size="10.00" fill="grey">m_fileName</text>
</g>
<!-- Node4&#45;&gt;Node6 -->
<g id="edge9_Node000006_Node000004" class="edge">
<title>Node4&#45;&gt;Node6</title>
<g id="a_edge9_Node000006_Node000004"><a xlink:title=" ">
<path fill="none" stroke="#9a32cd" stroke-dasharray="5,2" d="M133.53,-164.75C141.5,-161 149.33,-156.17 155.49,-150 170.53,-134.92 157.56,-118.93 174.49,-106 175.85,-104.96 251.75,-94.38 308.93,-86.53"/>
<polygon fill="#9a32cd" stroke="#9a32cd" points="132.05,-161.58 124.18,-168.67 134.76,-168.03 132.05,-161.58"/>
</a>
</g>
<text text-anchor="middle" x="221.49" y="-142" font-family="Helvetica,sans-Serif" font-size="10.00" fill="grey"> m_external</text>
<text text-anchor="middle" x="221.49" y="-131" font-family="Helvetica,sans-Serif" font-size="10.00" fill="grey">m_refId</text>
<text text-anchor="middle" x="221.49" y="-120" font-family="Helvetica,sans-Serif" font-size="10.00" fill="grey">m_relPath</text>
<text text-anchor="middle" x="221.49" y="-109" font-family="Helvetica,sans-Serif" font-size="10.00" fill="grey">m_sourceFileName</text>
</g>
<!-- Node5 -->
<g id="Node000005" class="node">
<title>Node5</title>
<g id="a_Node000005"><a xlink:href="../../d9/de9/class_output_gen_intf.html" target="_top" xlink:title="Abstract interface for output generators.">
<polygon fill="white" stroke="#666666" points="286.49,-86.5 200.49,-86.5 200.49,-67.5 286.49,-67.5 286.49,-86.5"/>
<text text-anchor="middle" x="243.49" y="-74.5" font-family="Helvetica,sans-Serif" font-size="10.00">OutputGenIntf</text>
</a>
</g>
</g>
<!-- Node5&#45;&gt;Node1 -->
<g id="edge4_Node000001_Node000005" class="edge">
<title>Node5&#45;&gt;Node1</title>
<g id="a_edge4_Node000001_Node000005"><a xlink:title=" ">
<path fill="none" stroke="#63b8ff" d="M235.77,-57.94C230.39,-45.36 223.45,-29.12 219.24,-19.27"/>
<polygon fill="#63b8ff" stroke="#63b8ff" points="232.68,-59.62 239.83,-67.44 239.11,-56.87 232.68,-59.62"/>
</a>
</g>
</g>
<!-- Node6&#45;&gt;Node1 -->
<g id="edge6_Node000001_Node000006" class="edge">
<title>Node6&#45;&gt;Node1</title>
<g id="a_edge6_Node000001_Node000006"><a xlink:title=" ">
<path fill="none" stroke="#9a32cd" stroke-dasharray="5,2" d="M341.65,-63.47C310.62,-50.44 262.87,-30.39 235.89,-19.07"/>
<polygon fill="#9a32cd" stroke="#9a32cd" points="340.52,-66.79 351.09,-67.44 343.23,-60.34 340.52,-66.79"/>
</a>
</g>
<text text-anchor="middle" x="332.99" y="-40" font-family="Helvetica,sans-Serif" font-size="10.00" fill="grey"> m_codeGen</text>
</g>
<!-- Node7 -->
<g id="Node000007" class="node">
<title>Node7</title>
<g id="a_Node000007"><a xlink:href="../../db/d44/class_output_code_intf.html" target="_top" xlink:title="Base class for code generators.">
<polygon fill="white" stroke="#666666" points="439.99,-187 348.99,-187 348.99,-168 439.99,-168 439.99,-187"/>
<text text-anchor="middle" x="394.49" y="-175" font-family="Helvetica,sans-Serif" font-size="10.00">OutputCodeIntf</text>
</a>
</g>
</g>
<!-- Node7&#45;&gt;Node6 -->
<g id="edge7_Node000006_Node000007" class="edge">
<title>Node7&#45;&gt;Node6</title>
<g id="a_edge7_Node000006_Node000007"><a xlink:title=" ">
<path fill="none" stroke="#63b8ff" d="M390.15,-157.92C385.16,-136.56 377.19,-102.42 373.49,-86.58"/>
<polygon fill="#63b8ff" stroke="#63b8ff" points="386.76,-158.82 392.45,-167.76 393.58,-157.22 386.76,-158.82"/>
</a>
</g>
</g>
</g>
</svg>
</svg>

<style type='text/css'>
<![CDATA[
[data-mouse-over-selected='false'] { opacity: 0.7; }
[data-mouse-over-selected='true']  { opacity: 1.0; }
]]>
</style>
<script type="application/ecmascript"><![CDATA[
document.addEventListener('DOMContentLoaded', (event) => {
  highlightEdges();
  highlightAdjacentNodes();
});
]]></script>
</svg>
