<?xml version="1.0" encoding="UTF-8" standalone="no"?>
<!DOCTYPE svg PUBLIC "-//W3C//DTD SVG 1.1//EN"
 "http://www.w3.org/Graphics/SVG/1.1/DTD/svg11.dtd">
<!-- Generated by graphviz version 2.43.0 (0)
 -->
<!-- Title: DefinitionContext&lt; T &gt; Pages: 1 -->
<svg width="677pt" height="374pt"
 viewBox="0.00 0.00 677.00 374.00" xmlns="http://www.w3.org/2000/svg" xmlns:xlink="http://www.w3.org/1999/xlink">
<g id="graph0" class="graph" transform="scale(1 1) rotate(0) translate(4 370)">
<title>DefinitionContext&lt; T &gt;</title>
<!-- Node1 -->
<g id="Node000001" class="node">
<title>Node1</title>
<g id="a_Node000001"><a xlink:title=" ">
<polygon fill="#999999" stroke="#666666" points="131,-192.5 0,-192.5 0,-173.5 131,-173.5 131,-192.5"/>
<text text-anchor="middle" x="65.5" y="-180.5" font-family="Helvetica,sans-Serif" font-size="10.00">DefinitionContext&lt; T &gt;</text>
</a>
</g>
</g>
<!-- Node2 -->
<g id="Node000002" class="node">
<title>Node2</title>
<g id="a_Node000002"><a xlink:href="../../d6/d49/class_definition_context.html" target="_top" xlink:title=" ">
<polygon fill="white" stroke="#666666" points="463.5,-366 327.5,-366 327.5,-336 463.5,-336 463.5,-366"/>
<text text-anchor="start" x="335.5" y="-354" font-family="Helvetica,sans-Serif" font-size="10.00">DefinitionContext&lt;</text>
<text text-anchor="middle" x="395.5" y="-343" font-family="Helvetica,sans-Serif" font-size="10.00"> ClassContext::Private &gt;</text>
</a>
</g>
</g>
<!-- Node1&#45;&gt;Node2 -->
<g id="edge1_Node000001_Node000002" class="edge">
<title>Node1&#45;&gt;Node2</title>
<g id="a_edge1_Node000001_Node000002"><a xlink:title=" ">
<path fill="none" stroke="orange" stroke-dasharray="5,2" d="M73.15,-202.4C84.09,-231.19 108.8,-284.67 149,-311 202.01,-345.72 274.92,-353.78 327.49,-354.33"/>
<polygon fill="orange" stroke="orange" points="76.32,-200.89 69.62,-192.68 69.74,-203.27 76.32,-200.89"/>
</a>
</g>
<text text-anchor="middle" x="221.5" y="-355" font-family="Helvetica,sans-Serif" font-size="10.00" fill="grey"> &lt; ClassContext::Private &gt;</text>
</g>
<!-- Node4 -->
<g id="Node000004" class="node">
<title>Node4</title>
<g id="a_Node000004"><a xlink:href="../../d6/d49/class_definition_context.html" target="_top" xlink:title=" ">
<polygon fill="white" stroke="#666666" points="470,-318 321,-318 321,-288 470,-288 470,-318"/>
<text text-anchor="start" x="329" y="-306" font-family="Helvetica,sans-Serif" font-size="10.00">DefinitionContext&lt;</text>
<text text-anchor="middle" x="395.5" y="-295" font-family="Helvetica,sans-Serif" font-size="10.00"> ConceptContext::Private &gt;</text>
</a>
</g>
</g>
<!-- Node1&#45;&gt;Node4 -->
<g id="edge3_Node000001_Node000004" class="edge">
<title>Node1&#45;&gt;Node4</title>
<g id="a_edge3_Node000001_Node000004"><a xlink:title=" ">
<path fill="none" stroke="orange" stroke-dasharray="5,2" d="M80.52,-200.17C95.57,-217.38 121.12,-243.25 149,-257 202.86,-283.56 270.3,-294.85 320.86,-299.61"/>
<polygon fill="orange" stroke="orange" points="83.15,-197.86 74,-192.5 77.81,-202.39 83.15,-197.86"/>
</a>
</g>
<text text-anchor="middle" x="221.5" y="-299" font-family="Helvetica,sans-Serif" font-size="10.00" fill="grey"> &lt; ConceptContext::Private &gt;</text>
</g>
<!-- Node6 -->
<g id="Node000006" class="node">
<title>Node6</title>
<g id="a_Node000006"><a xlink:href="../../d6/d49/class_definition_context.html" target="_top" xlink:title=" ">
<polygon fill="white" stroke="#666666" points="457.5,-270 333.5,-270 333.5,-240 457.5,-240 457.5,-270"/>
<text text-anchor="start" x="341.5" y="-258" font-family="Helvetica,sans-Serif" font-size="10.00">DefinitionContext&lt;</text>
<text text-anchor="middle" x="395.5" y="-247" font-family="Helvetica,sans-Serif" font-size="10.00"> DirContext::Private &gt;</text>
</a>
</g>
</g>
<!-- Node1&#45;&gt;Node6 -->
<g id="edge5_Node000001_Node000006" class="edge">
<title>Node1&#45;&gt;Node6</title>
<g id="a_edge5_Node000001_Node000006"><a xlink:title=" ">
<path fill="none" stroke="orange" stroke-dasharray="5,2" d="M97.96,-196.47C113.16,-202.54 131.79,-209.38 149,-214 210.76,-230.59 283.17,-241.7 333.26,-248.13"/>
<polygon fill="orange" stroke="orange" points="99.11,-193.15 88.53,-192.61 96.46,-199.63 99.11,-193.15"/>
</a>
</g>
<text text-anchor="middle" x="221.5" y="-245" font-family="Helvetica,sans-Serif" font-size="10.00" fill="grey"> &lt; DirContext::Private &gt;</text>
</g>
<!-- Node8 -->
<g id="Node000008" class="node">
<title>Node8</title>
<g id="a_Node000008"><a xlink:href="../../d6/d49/class_definition_context.html" target="_top" xlink:title=" ">
<polygon fill="white" stroke="#666666" points="459,-222 332,-222 332,-192 459,-192 459,-222"/>
<text text-anchor="start" x="340" y="-210" font-family="Helvetica,sans-Serif" font-size="10.00">DefinitionContext&lt;</text>
<text text-anchor="middle" x="395.5" y="-199" font-family="Helvetica,sans-Serif" font-size="10.00"> FileContext::Private &gt;</text>
</a>
</g>
</g>
<!-- Node1&#45;&gt;Node8 -->
<g id="edge7_Node000001_Node000008" class="edge">
<title>Node1&#45;&gt;Node8</title>
<g id="a_edge7_Node000001_Node000008"><a xlink:title=" ">
<path fill="none" stroke="orange" stroke-dasharray="5,2" d="M141.43,-188.48C198.98,-192.69 277.53,-198.44 331.78,-202.41"/>
<polygon fill="orange" stroke="orange" points="141.53,-184.98 131.3,-187.74 141.02,-191.96 141.53,-184.98"/>
</a>
</g>
<text text-anchor="middle" x="221.5" y="-202" font-family="Helvetica,sans-Serif" font-size="10.00" fill="grey"> &lt; FileContext::Private &gt;</text>
</g>
<!-- Node10 -->
<g id="Node000010" class="node">
<title>Node10</title>
<g id="a_Node000010"><a xlink:href="../../d6/d49/class_definition_context.html" target="_top" xlink:title=" ">
<polygon fill="white" stroke="#666666" points="470.5,-174 320.5,-174 320.5,-144 470.5,-144 470.5,-174"/>
<text text-anchor="start" x="328.5" y="-162" font-family="Helvetica,sans-Serif" font-size="10.00">DefinitionContext&lt;</text>
<text text-anchor="middle" x="395.5" y="-151" font-family="Helvetica,sans-Serif" font-size="10.00"> MemberContext::Private &gt;</text>
</a>
</g>
</g>
<!-- Node1&#45;&gt;Node10 -->
<g id="edge9_Node000001_Node000010" class="edge">
<title>Node1&#45;&gt;Node10</title>
<g id="a_edge9_Node000001_Node000010"><a xlink:title=" ">
<path fill="none" stroke="orange" stroke-dasharray="5,2" d="M141.35,-174.68C143.93,-174.44 146.49,-174.21 149,-174 206.44,-169.11 271.57,-165.21 320.31,-162.61"/>
<polygon fill="orange" stroke="orange" points="140.95,-171.2 131.32,-175.63 141.61,-178.17 140.95,-171.2"/>
</a>
</g>
<text text-anchor="middle" x="221.5" y="-177" font-family="Helvetica,sans-Serif" font-size="10.00" fill="grey"> &lt; MemberContext::Private &gt;</text>
</g>
<!-- Node12 -->
<g id="Node000012" class="node">
<title>Node12</title>
<g id="a_Node000012"><a xlink:href="../../d6/d49/class_definition_context.html" target="_top" xlink:title=" ">
<polygon fill="white" stroke="#666666" points="468.5,-126 322.5,-126 322.5,-96 468.5,-96 468.5,-126"/>
<text text-anchor="start" x="330.5" y="-114" font-family="Helvetica,sans-Serif" font-size="10.00">DefinitionContext&lt;</text>
<text text-anchor="middle" x="395.5" y="-103" font-family="Helvetica,sans-Serif" font-size="10.00"> ModuleContext::Private &gt;</text>
</a>
</g>
</g>
<!-- Node1&#45;&gt;Node12 -->
<g id="edge11_Node000001_Node000012" class="edge">
<title>Node1&#45;&gt;Node12</title>
<g id="a_edge11_Node000001_Node000012"><a xlink:title=" ">
<path fill="none" stroke="orange" stroke-dasharray="5,2" d="M95.16,-169.22C110.76,-162.22 130.59,-154.14 149,-149 206.22,-133.03 272.94,-123.24 322.38,-117.61"/>
<polygon fill="orange" stroke="orange" points="93.67,-166.05 86.04,-173.4 96.59,-172.41 93.67,-166.05"/>
</a>
</g>
<text text-anchor="middle" x="221.5" y="-152" font-family="Helvetica,sans-Serif" font-size="10.00" fill="grey"> &lt; ModuleContext::Private &gt;</text>
</g>
<!-- Node14 -->
<g id="Node000014" class="node">
<title>Node14</title>
<g id="a_Node000014"><a xlink:href="../../d6/d49/class_definition_context.html" target="_top" xlink:title=" ">
<polygon fill="white" stroke="#666666" points="479,-78 312,-78 312,-48 479,-48 479,-78"/>
<text text-anchor="start" x="320" y="-66" font-family="Helvetica,sans-Serif" font-size="10.00">DefinitionContext&lt;</text>
<text text-anchor="middle" x="395.5" y="-55" font-family="Helvetica,sans-Serif" font-size="10.00"> NamespaceContext::Private &gt;</text>
</a>
</g>
</g>
<!-- Node1&#45;&gt;Node14 -->
<g id="edge13_Node000001_Node000014" class="edge">
<title>Node1&#45;&gt;Node14</title>
<g id="a_edge13_Node000001_Node000014"><a xlink:title=" ">
<path fill="none" stroke="orange" stroke-dasharray="5,2" d="M77.89,-164.73C91.87,-144.02 117.65,-111.07 149,-95 199.11,-69.32 262.22,-61.54 311.9,-60.07"/>
<polygon fill="orange" stroke="orange" points="74.84,-162.99 72.31,-173.28 80.71,-166.81 74.84,-162.99"/>
</a>
</g>
<text text-anchor="start" x="166" y="-109" font-family="Helvetica,sans-Serif" font-size="10.00" fill="grey"> &lt; NamespaceContext</text>
<text text-anchor="middle" x="221.5" y="-98" font-family="Helvetica,sans-Serif" font-size="10.00" fill="grey">::Private &gt;</text>
</g>
<!-- Node16 -->
<g id="Node000016" class="node">
<title>Node16</title>
<g id="a_Node000016"><a xlink:href="../../d6/d49/class_definition_context.html" target="_top" xlink:title=" ">
<polygon fill="white" stroke="#666666" points="462,-30 329,-30 329,0 462,0 462,-30"/>
<text text-anchor="start" x="337" y="-18" font-family="Helvetica,sans-Serif" font-size="10.00">DefinitionContext&lt;</text>
<text text-anchor="middle" x="395.5" y="-7" font-family="Helvetica,sans-Serif" font-size="10.00"> PageContext::Private &gt;</text>
</a>
</g>
</g>
<!-- Node1&#45;&gt;Node16 -->
<g id="edge15_Node000001_Node000016" class="edge">
<title>Node1&#45;&gt;Node16</title>
<g id="a_edge15_Node000001_Node000016"><a xlink:title=" ">
<path fill="none" stroke="orange" stroke-dasharray="5,2" d="M72.19,-163.38C82.21,-132.68 106.11,-73.93 149,-46 202.28,-11.31 276.01,-6.37 328.73,-8.37"/>
<polygon fill="orange" stroke="orange" points="68.73,-162.72 69.12,-173.31 75.42,-164.79 68.73,-162.72"/>
</a>
</g>
<text text-anchor="middle" x="221.5" y="-49" font-family="Helvetica,sans-Serif" font-size="10.00" fill="grey"> &lt; PageContext::Private &gt;</text>
</g>
<!-- Node3 -->
<g id="Node000003" class="node">
<title>Node3</title>
<g id="a_Node000003"><a xlink:href="../../d5/d54/class_class_context_1_1_private.html" target="_top" xlink:title=" ">
<polygon fill="white" stroke="#666666" points="653.5,-360.5 531.5,-360.5 531.5,-341.5 653.5,-341.5 653.5,-360.5"/>
<text text-anchor="middle" x="592.5" y="-348.5" font-family="Helvetica,sans-Serif" font-size="10.00">ClassContext::Private</text>
</a>
</g>
</g>
<!-- Node2&#45;&gt;Node3 -->
<g id="edge2_Node000002_Node000003" class="edge">
<title>Node2&#45;&gt;Node3</title>
<g id="a_edge2_Node000002_Node000003"><a xlink:title=" ">
<path fill="none" stroke="#63b8ff" d="M473.82,-351C492.99,-351 513.25,-351 531.45,-351"/>
<polygon fill="#63b8ff" stroke="#63b8ff" points="473.61,-347.5 463.61,-351 473.61,-354.5 473.61,-347.5"/>
</a>
</g>
</g>
<!-- Node5 -->
<g id="Node000005" class="node">
<title>Node5</title>
<g id="a_Node000005"><a xlink:href="../../d8/d61/class_concept_context_1_1_private.html" target="_top" xlink:title=" ">
<polygon fill="white" stroke="#666666" points="660,-312.5 525,-312.5 525,-293.5 660,-293.5 660,-312.5"/>
<text text-anchor="middle" x="592.5" y="-300.5" font-family="Helvetica,sans-Serif" font-size="10.00">ConceptContext::Private</text>
</a>
</g>
</g>
<!-- Node4&#45;&gt;Node5 -->
<g id="edge4_Node000004_Node000005" class="edge">
<title>Node4&#45;&gt;Node5</title>
<g id="a_edge4_Node000004_Node000005"><a xlink:title=" ">
<path fill="none" stroke="#63b8ff" d="M480.39,-303C495.21,-303 510.46,-303 524.73,-303"/>
<polygon fill="#63b8ff" stroke="#63b8ff" points="480.22,-299.5 470.22,-303 480.22,-306.5 480.22,-299.5"/>
</a>
</g>
</g>
<!-- Node7 -->
<g id="Node000007" class="node">
<title>Node7</title>
<g id="a_Node000007"><a xlink:href="../../dc/db1/class_dir_context_1_1_private.html" target="_top" xlink:title=" ">
<polygon fill="white" stroke="#666666" points="647.5,-264.5 537.5,-264.5 537.5,-245.5 647.5,-245.5 647.5,-264.5"/>
<text text-anchor="middle" x="592.5" y="-252.5" font-family="Helvetica,sans-Serif" font-size="10.00">DirContext::Private</text>
</a>
</g>
</g>
<!-- Node6&#45;&gt;Node7 -->
<g id="edge6_Node000006_Node000007" class="edge">
<title>Node6&#45;&gt;Node7</title>
<g id="a_edge6_Node000006_Node000007"><a xlink:title=" ">
<path fill="none" stroke="#63b8ff" d="M467.73,-255C490.76,-255 515.91,-255 537.48,-255"/>
<polygon fill="#63b8ff" stroke="#63b8ff" points="467.66,-251.5 457.66,-255 467.66,-258.5 467.66,-251.5"/>
</a>
</g>
</g>
<!-- Node9 -->
<g id="Node000009" class="node">
<title>Node9</title>
<g id="a_Node000009"><a xlink:href="../../d4/d72/class_file_context_1_1_private.html" target="_top" xlink:title=" ">
<polygon fill="white" stroke="#666666" points="649,-216.5 536,-216.5 536,-197.5 649,-197.5 649,-216.5"/>
<text text-anchor="middle" x="592.5" y="-204.5" font-family="Helvetica,sans-Serif" font-size="10.00">FileContext::Private</text>
</a>
</g>
</g>
<!-- Node8&#45;&gt;Node9 -->
<g id="edge8_Node000008_Node000009" class="edge">
<title>Node8&#45;&gt;Node9</title>
<g id="a_edge8_Node000008_Node000009"><a xlink:title=" ">
<path fill="none" stroke="#63b8ff" d="M469.02,-207C491.15,-207 515.12,-207 535.93,-207"/>
<polygon fill="#63b8ff" stroke="#63b8ff" points="469,-203.5 459,-207 469,-210.5 469,-203.5"/>
</a>
</g>
</g>
<!-- Node11 -->
<g id="Node000011" class="node">
<title>Node11</title>
<g id="a_Node000011"><a xlink:href="../../dd/d99/class_member_context_1_1_private.html" target="_top" xlink:title=" ">
<polygon fill="white" stroke="#666666" points="660.5,-168.5 524.5,-168.5 524.5,-149.5 660.5,-149.5 660.5,-168.5"/>
<text text-anchor="middle" x="592.5" y="-156.5" font-family="Helvetica,sans-Serif" font-size="10.00">MemberContext::Private</text>
</a>
</g>
</g>
<!-- Node10&#45;&gt;Node11 -->
<g id="edge10_Node000010_Node000011" class="edge">
<title>Node10&#45;&gt;Node11</title>
<g id="a_edge10_Node000010_Node000011"><a xlink:title=" ">
<path fill="none" stroke="#63b8ff" d="M480.8,-159C495.4,-159 510.4,-159 524.46,-159"/>
<polygon fill="#63b8ff" stroke="#63b8ff" points="480.78,-155.5 470.78,-159 480.78,-162.5 480.78,-155.5"/>
</a>
</g>
</g>
<!-- Node13 -->
<g id="Node000013" class="node">
<title>Node13</title>
<g id="a_Node000013"><a xlink:href="../../df/d2a/class_module_context_1_1_private.html" target="_top" xlink:title=" ">
<polygon fill="white" stroke="#666666" points="658,-120.5 527,-120.5 527,-101.5 658,-101.5 658,-120.5"/>
<text text-anchor="middle" x="592.5" y="-108.5" font-family="Helvetica,sans-Serif" font-size="10.00">ModuleContext::Private</text>
</a>
</g>
</g>
<!-- Node12&#45;&gt;Node13 -->
<g id="edge12_Node000012_Node000013" class="edge">
<title>Node12&#45;&gt;Node13</title>
<g id="a_edge12_Node000012_Node000013"><a xlink:title=" ">
<path fill="none" stroke="#63b8ff" d="M478.97,-111C494.96,-111 511.5,-111 526.82,-111"/>
<polygon fill="#63b8ff" stroke="#63b8ff" points="478.56,-107.5 468.56,-111 478.56,-114.5 478.56,-107.5"/>
</a>
</g>
</g>
<!-- Node15 -->
<g id="Node000015" class="node">
<title>Node15</title>
<g id="a_Node000015"><a xlink:href="../../d8/dcf/class_namespace_context_1_1_private.html" target="_top" xlink:title=" ">
<polygon fill="white" stroke="#666666" points="669,-72.5 516,-72.5 516,-53.5 669,-53.5 669,-72.5"/>
<text text-anchor="middle" x="592.5" y="-60.5" font-family="Helvetica,sans-Serif" font-size="10.00">NamespaceContext::Private</text>
</a>
</g>
</g>
<!-- Node14&#45;&gt;Node15 -->
<g id="edge14_Node000014_Node000015" class="edge">
<title>Node14&#45;&gt;Node15</title>
<g id="a_edge14_Node000014_Node000015"><a xlink:title=" ">
<path fill="none" stroke="#63b8ff" d="M489.21,-63C498.12,-63 507.08,-63 515.8,-63"/>
<polygon fill="#63b8ff" stroke="#63b8ff" points="489.2,-59.5 479.2,-63 489.2,-66.5 489.2,-59.5"/>
</a>
</g>
</g>
<!-- Node17 -->
<g id="Node000017" class="node">
<title>Node17</title>
<g id="a_Node000017"><a xlink:href="../../d3/d45/class_page_context_1_1_private.html" target="_top" xlink:title=" ">
<polygon fill="white" stroke="#666666" points="652,-24.5 533,-24.5 533,-5.5 652,-5.5 652,-24.5"/>
<text text-anchor="middle" x="592.5" y="-12.5" font-family="Helvetica,sans-Serif" font-size="10.00">PageContext::Private</text>
</a>
</g>
</g>
<!-- Node16&#45;&gt;Node17 -->
<g id="edge16_Node000016_Node000017" class="edge">
<title>Node16&#45;&gt;Node17</title>
<g id="a_edge16_Node000016_Node000017"><a xlink:title=" ">
<path fill="none" stroke="#63b8ff" d="M472.32,-15C492.44,-15 513.86,-15 532.91,-15"/>
<polygon fill="#63b8ff" stroke="#63b8ff" points="472.25,-11.5 462.25,-15 472.25,-18.5 472.25,-11.5"/>
</a>
</g>
</g>
</g>
</svg>
