<?xml version="1.0" encoding="UTF-8" standalone="no"?>
<!DOCTYPE svg PUBLIC "-//W3C//DTD SVG 1.1//EN"
 "http://www.w3.org/Graphics/SVG/1.1/DTD/svg11.dtd">
<!-- Generated by graphviz version 2.43.0 (0)
 -->
<!-- Title: DocHtmlCaption Pages: 1 -->
<!--zoomable 439 -->

<svg id="main" version="1.1" xmlns="http://www.w3.org/2000/svg" xmlns:xlink="http://www.w3.org/1999/xlink" xml:space="preserve" onload="init(evt)">
<style type="text/css"><![CDATA[
.node, .edge {opacity: 0.7;}
.node.selected, .edge.selected {opacity: 1;}
.edge:hover path { stroke: red; }
.edge:hover polygon { stroke: red; fill: red; }
]]></style>

<defs>
  <circle id="rim" cx="0" cy="0" r="7"/>
  <circle id="rim2" cx="0" cy="0" r="3.5"/>
  <g id="zoomPlus">
    <use xlink:href="#rim" fill="#404040"><set attributeName="fill" to="#808080" begin="zoomplus.mouseover" end="zoomplus.mouseout"/></use>
    <path d="M-4,0h8M0,-4v8" fill="none" stroke="white" stroke-width="1.5" pointer-events="none"/>
  </g>
  <g id="zoomMin">
    <use xlink:href="#rim" fill="#404040"><set attributeName="fill" to="#808080" begin="zoomminus.mouseover" end="zoomminus.mouseout"/></use>
    <path d="M-4,0h8" fill="none" stroke="white" stroke-width="1.5" pointer-events="none"/>
  </g>
  <g id="arrowUp" transform="translate(30 24)">
    <use xlink:href="#rim"/>
    <path pointer-events="none" fill="none" stroke="white" stroke-width="1.5" d="M0,-3.0v7 M-2.5,-0.5L0,-3.0L2.5,-0.5"/>
  </g>
  <g id="arrowRight" transform="rotate(90) translate(36 -43)">
    <use xlink:href="#rim"/>
    <path pointer-events="none" fill="none" stroke="white" stroke-width="1.5" d="M0,-3.0v7 M-2.5,-0.5L0,-3.0L2.5,-0.5"/>
  </g>
  <g id="arrowDown" transform="rotate(180) translate(-30 -48)">
    <use xlink:href="#rim"/>
    <path pointer-events="none" fill="none" stroke="white" stroke-width="1.5" d="M0,-3.0v7 M-2.5,-0.5L0,-3.0L2.5,-0.5"/>
  </g>
  <g id="arrowLeft" transform="rotate(270) translate(-36 17)">
    <use xlink:href="#rim"/>
    <path pointer-events="none" fill="none" stroke="white" stroke-width="1.5" d="M0,-3.0v7 M-2.5,-0.5L0,-3.0L2.5,-0.5"/>
  </g>
  <g id="resetDef">
    <use xlink:href="#rim2" fill="#404040"><set attributeName="fill" to="#808080" begin="reset.mouseover" end="reset.mouseout"/></use>
  </g>
</defs>
<script type="application/ecmascript">
var viewWidth = 1690;
var viewHeight = 439;
var sectionId = 'dynsection-1';
</script>
<script type="application/ecmascript" xlink:href="../../svg.min.js"/>
<svg id="graph" class="graph">
<g id="viewport">
<title>DocHtmlCaption</title>
<!-- Node1 -->
<g id="Node000001" class="node">
<title>Node1</title>
<g id="a_Node000001"><a xlink:title="Node representing a HTML table caption.">
<polygon fill="#999999" stroke="#666666" points="1682,-179.5 1585,-179.5 1585,-160.5 1682,-160.5 1682,-179.5"/>
<text text-anchor="middle" x="1633.5" y="-167.5" font-family="Helvetica,sans-Serif" font-size="10.00">DocHtmlCaption</text>
</a>
</g>
</g>
<!-- Node2 -->
<g id="Node000002" class="node">
<title>Node2</title>
<g id="a_Node000002"><a xlink:href="../../da/dfc/class_doc_compound_node.html" target="_top" xlink:title="Base class for nodes with children.">
<polygon fill="white" stroke="#666666" points="1548,-237.5 1435,-237.5 1435,-218.5 1548,-218.5 1548,-237.5"/>
<text text-anchor="middle" x="1491.5" y="-225.5" font-family="Helvetica,sans-Serif" font-size="10.00">DocCompoundNode</text>
</a>
</g>
</g>
<!-- Node2&#45;&gt;Node1 -->
<g id="edge1_Node000001_Node000002" class="edge">
<title>Node2&#45;&gt;Node1</title>
<g id="a_edge1_Node000001_Node000002"><a xlink:title=" ">
<path fill="none" stroke="#63b8ff" d="M1525,-214.54C1550.83,-203.83 1586.33,-189.13 1609.35,-179.59"/>
<polygon fill="#63b8ff" stroke="#63b8ff" points="1523.52,-211.36 1515.62,-218.42 1526.2,-217.83 1523.52,-211.36"/>
</a>
</g>
</g>
<!-- Node3 -->
<g id="Node000003" class="node">
<title>Node3</title>
<g id="a_Node000003"><a xlink:href="../../d9/d0e/class_doc_node.html" target="_top" xlink:title="Abstract node interface with type information.">
<polygon fill="white" stroke="#666666" points="1332.5,-290.5 1271.5,-290.5 1271.5,-271.5 1332.5,-271.5 1332.5,-290.5"/>
<text text-anchor="middle" x="1302" y="-278.5" font-family="Helvetica,sans-Serif" font-size="10.00">DocNode</text>
</a>
</g>
</g>
<!-- Node3&#45;&gt;Node2 -->
<g id="edge2_Node000002_Node000003" class="edge">
<title>Node3&#45;&gt;Node2</title>
<g id="a_edge2_Node000002_Node000003"><a xlink:title=" ">
<path fill="none" stroke="#63b8ff" d="M1342.73,-269.77C1376.62,-260.19 1424.79,-246.57 1456.81,-237.52"/>
<polygon fill="#63b8ff" stroke="#63b8ff" points="1341.38,-266.51 1332.71,-272.6 1343.28,-273.25 1341.38,-266.51"/>
</a>
</g>
</g>
<!-- Node4 -->
<g id="Node000004" class="node">
<title>Node4</title>
<g id="a_Node000004"><a xlink:href="../../da/d02/class_doc_parser.html" target="_top" xlink:title=" ">
<polygon fill="white" stroke="#666666" points="1123.5,-301.5 1058.5,-301.5 1058.5,-282.5 1123.5,-282.5 1123.5,-301.5"/>
<text text-anchor="middle" x="1091" y="-289.5" font-family="Helvetica,sans-Serif" font-size="10.00">DocParser</text>
</a>
</g>
</g>
<!-- Node4&#45;&gt;Node3 -->
<g id="edge3_Node000003_Node000004" class="edge">
<title>Node4&#45;&gt;Node3</title>
<g id="a_edge3_Node000003_Node000004"><a xlink:title=" ">
<path fill="none" stroke="#9a32cd" stroke-dasharray="5,2" d="M1133.89,-289.8C1174.6,-287.65 1235.39,-284.45 1271.33,-282.56"/>
<polygon fill="#9a32cd" stroke="#9a32cd" points="1133.54,-286.31 1123.74,-290.33 1133.91,-293.3 1133.54,-286.31"/>
</a>
</g>
<text text-anchor="middle" x="1220.5" y="-289" font-family="Helvetica,sans-Serif" font-size="10.00" fill="grey"> m_parser</text>
</g>
<!-- Node5 -->
<g id="Node000005" class="node">
<title>Node5</title>
<g id="a_Node000005"><a xlink:href="../../de/dad/class_i_doc_parser.html" target="_top" xlink:title="opaque parser interface">
<polygon fill="white" stroke="#666666" points="845,-357.5 777,-357.5 777,-338.5 845,-338.5 845,-357.5"/>
<text text-anchor="middle" x="811" y="-345.5" font-family="Helvetica,sans-Serif" font-size="10.00">IDocParser</text>
</a>
</g>
</g>
<!-- Node5&#45;&gt;Node4 -->
<g id="edge4_Node000004_Node000005" class="edge">
<title>Node5&#45;&gt;Node4</title>
<g id="a_edge4_Node000004_Node000005"><a xlink:title=" ">
<path fill="none" stroke="#63b8ff" d="M855.21,-342.31C890.55,-337.36 941.75,-329.49 986,-320 1010.5,-314.75 1037.85,-307.32 1058.35,-301.44"/>
<polygon fill="#63b8ff" stroke="#63b8ff" points="854.65,-338.86 845.22,-343.7 855.61,-345.79 854.65,-338.86"/>
</a>
</g>
</g>
<!-- Node6 -->
<g id="Node000006" class="node">
<title>Node6</title>
<g id="a_Node000006"><a xlink:href="../../d8/d7d/struct_doc_parser_context.html" target="_top" xlink:title="Parser&#39;s context to store all global variables.">
<polygon fill="white" stroke="#666666" points="863,-320.5 759,-320.5 759,-301.5 863,-301.5 863,-320.5"/>
<text text-anchor="middle" x="811" y="-308.5" font-family="Helvetica,sans-Serif" font-size="10.00">DocParserContext</text>
</a>
</g>
</g>
<!-- Node6&#45;&gt;Node4 -->
<g id="edge5_Node000004_Node000006" class="edge">
<title>Node6&#45;&gt;Node4</title>
<g id="a_edge5_Node000004_Node000006"><a xlink:title=" ">
<path fill="none" stroke="#9a32cd" stroke-dasharray="5,2" d="M873.32,-306.81C930.53,-302.9 1013.6,-297.22 1058.44,-294.16"/>
<polygon fill="#9a32cd" stroke="#9a32cd" points="873.05,-303.32 863.31,-307.49 873.53,-310.3 873.05,-303.32"/>
</a>
</g>
<text text-anchor="middle" x="933.5" y="-308" font-family="Helvetica,sans-Serif" font-size="10.00" fill="grey"> context</text>
</g>
<!-- Node7 -->
<g id="Node000007" class="node">
<title>Node7</title>
<g id="a_Node000007"><a xlink:href="../../d5/dcc/class_definition.html" target="_top" xlink:title="The common base class of all entity definitions found in the sources.">
<polygon fill="white" stroke="#666666" points="293,-402.5 229,-402.5 229,-383.5 293,-383.5 293,-402.5"/>
<text text-anchor="middle" x="261" y="-390.5" font-family="Helvetica,sans-Serif" font-size="10.00">Definition</text>
</a>
</g>
</g>
<!-- Node7&#45;&gt;Node6 -->
<g id="edge6_Node000006_Node000007" class="edge">
<title>Node7&#45;&gt;Node6</title>
<g id="a_edge6_Node000006_Node000007"><a xlink:title=" ">
<path fill="none" stroke="#9a32cd" stroke-dasharray="5,2" d="M303.19,-392.21C404.42,-389.74 662.81,-380.19 741,-346 750.81,-341.71 749.83,-335.52 759,-330 765.07,-326.35 771.96,-323.2 778.67,-320.58"/>
<polygon fill="#9a32cd" stroke="#9a32cd" points="302.97,-388.71 293.05,-392.44 303.13,-395.71 302.97,-388.71"/>
</a>
</g>
<text text-anchor="middle" x="580.5" y="-384" font-family="Helvetica,sans-Serif" font-size="10.00" fill="grey"> scope</text>
</g>
<!-- Node13 -->
<g id="Node000013" class="node">
<title>Node13</title>
<g id="a_Node000013"><a xlink:href="../../da/d09/class_member_def.html" target="_top" xlink:title="A model of a class/file/namespace member symbol.">
<polygon fill="white" stroke="#666666" points="617.5,-425.5 543.5,-425.5 543.5,-406.5 617.5,-406.5 617.5,-425.5"/>
<text text-anchor="middle" x="580.5" y="-413.5" font-family="Helvetica,sans-Serif" font-size="10.00">MemberDef</text>
</a>
</g>
</g>
<!-- Node7&#45;&gt;Node13 -->
<g id="edge13_Node000013_Node000007" class="edge">
<title>Node7&#45;&gt;Node13</title>
<g id="a_edge13_Node000013_Node000007"><a xlink:title=" ">
<path fill="none" stroke="#63b8ff" d="M303.3,-395.99C365.81,-400.52 483.49,-409.04 543.02,-413.36"/>
<polygon fill="#63b8ff" stroke="#63b8ff" points="303.25,-392.48 293.02,-395.25 302.74,-399.46 303.25,-392.48"/>
</a>
</g>
</g>
<!-- Node8 -->
<g id="Node000008" class="node">
<title>Node8</title>
<g id="a_Node000008"><a xlink:href="../../d9/d45/class_q_c_string.html" target="_top" xlink:title="This is an alternative implementation of QCString.">
<polygon fill="white" stroke="#666666" points="290.5,-179.5 231.5,-179.5 231.5,-160.5 290.5,-160.5 290.5,-179.5"/>
<text text-anchor="middle" x="261" y="-167.5" font-family="Helvetica,sans-Serif" font-size="10.00">QCString</text>
</a>
</g>
</g>
<!-- Node8&#45;&gt;Node1 -->
<g id="edge23_Node000001_Node000008" class="edge">
<title>Node8&#45;&gt;Node1</title>
<g id="a_edge23_Node000001_Node000008"><a xlink:title=" ">
<path fill="none" stroke="#9a32cd" stroke-dasharray="5,2" d="M301.04,-170C360.94,-170 479.14,-170 579.5,-170 579.5,-170 579.5,-170 1492.5,-170 1523.25,-170 1557.79,-170 1584.87,-170"/>
<polygon fill="#9a32cd" stroke="#9a32cd" points="300.89,-166.5 290.89,-170 300.89,-173.5 300.89,-166.5"/>
</a>
</g>
<text text-anchor="middle" x="1091" y="-184" font-family="Helvetica,sans-Serif" font-size="10.00" fill="grey"> m_anchor</text>
<text text-anchor="middle" x="1091" y="-173" font-family="Helvetica,sans-Serif" font-size="10.00" fill="grey">m_file</text>
</g>
<!-- Node8&#45;&gt;Node6 -->
<g id="edge7_Node000006_Node000008" class="edge">
<title>Node8&#45;&gt;Node6</title>
<g id="a_edge7_Node000006_Node000008"><a xlink:title=" ">
<path fill="none" stroke="#9a32cd" stroke-dasharray="5,2" d="M300.8,-175.55C396.42,-189.24 635.99,-223.62 640,-225 697.59,-244.84 703.61,-267.65 759,-293 765.66,-296.05 773,-298.91 779.98,-301.42"/>
<polygon fill="#9a32cd" stroke="#9a32cd" points="301.07,-172.05 290.67,-174.1 300.08,-178.98 301.07,-172.05"/>
</a>
</g>
<text text-anchor="middle" x="580.5" y="-294" font-family="Helvetica,sans-Serif" font-size="10.00" fill="grey"> context</text>
<text text-anchor="middle" x="580.5" y="-283" font-family="Helvetica,sans-Serif" font-size="10.00" fill="grey">exampleName</text>
<text text-anchor="middle" x="580.5" y="-272" font-family="Helvetica,sans-Serif" font-size="10.00" fill="grey">fileName</text>
<text text-anchor="middle" x="580.5" y="-261" font-family="Helvetica,sans-Serif" font-size="10.00" fill="grey">includeFileName</text>
<text text-anchor="middle" x="580.5" y="-250" font-family="Helvetica,sans-Serif" font-size="10.00" fill="grey">includeFileText</text>
<text text-anchor="middle" x="580.5" y="-239" font-family="Helvetica,sans-Serif" font-size="10.00" fill="grey">relPath</text>
<text text-anchor="middle" x="580.5" y="-228" font-family="Helvetica,sans-Serif" font-size="10.00" fill="grey">searchUrl</text>
</g>
<!-- Node14 -->
<g id="Node000014" class="node">
<title>Node14</title>
<g id="a_Node000014"><a xlink:href="../../d6/df4/struct_token_info.html" target="_top" xlink:title="Data associated with a token used by the comment block parser.">
<polygon fill="white" stroke="#666666" points="612,-76.5 549,-76.5 549,-57.5 612,-57.5 612,-76.5"/>
<text text-anchor="middle" x="580.5" y="-64.5" font-family="Helvetica,sans-Serif" font-size="10.00">TokenInfo</text>
</a>
</g>
</g>
<!-- Node8&#45;&gt;Node14 -->
<g id="edge15_Node000014_Node000008" class="edge">
<title>Node8&#45;&gt;Node14</title>
<g id="a_edge15_Node000014_Node000008"><a xlink:title=" ">
<path fill="none" stroke="#9a32cd" stroke-dasharray="5,2" d="M273.1,-151.56C289.03,-127.11 320.91,-85.07 361,-68 423.3,-41.48 504.95,-51.46 548.68,-59.93"/>
<polygon fill="#9a32cd" stroke="#9a32cd" points="269.99,-149.94 267.62,-160.27 275.91,-153.67 269.99,-149.94"/>
</a>
</g>
<text text-anchor="middle" x="432" y="-148" font-family="Helvetica,sans-Serif" font-size="10.00" fill="grey"> attribsStr</text>
<text text-anchor="middle" x="432" y="-137" font-family="Helvetica,sans-Serif" font-size="10.00" fill="grey">chars</text>
<text text-anchor="middle" x="432" y="-126" font-family="Helvetica,sans-Serif" font-size="10.00" fill="grey">name</text>
<text text-anchor="middle" x="432" y="-115" font-family="Helvetica,sans-Serif" font-size="10.00" fill="grey">sectionId</text>
<text text-anchor="middle" x="432" y="-104" font-family="Helvetica,sans-Serif" font-size="10.00" fill="grey">simpleSectName</text>
<text text-anchor="middle" x="432" y="-93" font-family="Helvetica,sans-Serif" font-size="10.00" fill="grey">simpleSectText</text>
<text text-anchor="middle" x="432" y="-82" font-family="Helvetica,sans-Serif" font-size="10.00" fill="grey">text</text>
<text text-anchor="middle" x="432" y="-71" font-family="Helvetica,sans-Serif" font-size="10.00" fill="grey">verb</text>
</g>
<!-- Node9 -->
<g id="Node000009" class="node">
<title>Node9</title>
<g id="a_Node000009"><a xlink:href="../../d9/d82/class_iterable_stack.html" target="_top" xlink:title=" ">
<polygon fill="white" stroke="#666666" points="640,-341 521,-341 521,-311 640,-311 640,-341"/>
<text text-anchor="start" x="529" y="-329" font-family="Helvetica,sans-Serif" font-size="10.00">IterableStack&lt; const</text>
<text text-anchor="middle" x="580.5" y="-318" font-family="Helvetica,sans-Serif" font-size="10.00"> DocNodeVariant * &gt;</text>
</a>
</g>
</g>
<!-- Node9&#45;&gt;Node6 -->
<g id="edge8_Node000006_Node000009" class="edge">
<title>Node9&#45;&gt;Node6</title>
<g id="a_edge8_Node000006_Node000009"><a xlink:title=" ">
<path fill="none" stroke="#9a32cd" stroke-dasharray="5,2" d="M650.19,-321.49C685.15,-319.2 726.92,-316.45 758.99,-314.35"/>
<polygon fill="#9a32cd" stroke="#9a32cd" points="649.8,-318.01 640.05,-322.16 650.26,-324.99 649.8,-318.01"/>
</a>
</g>
<text text-anchor="middle" x="699.5" y="-334" font-family="Helvetica,sans-Serif" font-size="10.00" fill="grey"> initialStyleStack</text>
<text text-anchor="middle" x="699.5" y="-323" font-family="Helvetica,sans-Serif" font-size="10.00" fill="grey">styleStack</text>
</g>
<!-- Node10 -->
<g id="Node000010" class="node">
<title>Node10</title>
<g id="a_Node000010"><a xlink:title=" ">
<polygon fill="white" stroke="#666666" points="343,-347.5 179,-347.5 179,-306.5 343,-306.5 343,-347.5"/>
<text text-anchor="start" x="187" y="-335.5" font-family="Helvetica,sans-Serif" font-size="10.00">std::stack&lt; const DocNode</text>
<text text-anchor="start" x="187" y="-324.5" font-family="Helvetica,sans-Serif" font-size="10.00">Variant * , std::deque</text>
<text text-anchor="middle" x="261" y="-313.5" font-family="Helvetica,sans-Serif" font-size="10.00">&lt;const DocNodeVariant * &gt; &gt;</text>
</a>
</g>
</g>
<!-- Node10&#45;&gt;Node9 -->
<g id="edge9_Node000009_Node000010" class="edge">
<title>Node10&#45;&gt;Node9</title>
<g id="a_edge9_Node000009_Node000010"><a xlink:title=" ">
<path fill="none" stroke="#63b8ff" d="M353.61,-326.71C407.5,-326.54 474.05,-326.33 520.91,-326.18"/>
<polygon fill="#63b8ff" stroke="#63b8ff" points="353.34,-323.21 343.35,-326.74 353.36,-330.21 353.34,-323.21"/>
</a>
</g>
</g>
<!-- Node11 -->
<g id="Node000011" class="node">
<title>Node11</title>
<g id="a_Node000011"><a xlink:href="../../d9/d82/class_iterable_stack.html" target="_top" xlink:title=" ">
<polygon fill="white" stroke="#666666" points="342.5,-288.5 179.5,-288.5 179.5,-269.5 342.5,-269.5 342.5,-288.5"/>
<text text-anchor="middle" x="261" y="-276.5" font-family="Helvetica,sans-Serif" font-size="10.00">IterableStack&lt; T, Container &gt;</text>
</a>
</g>
</g>
<!-- Node11&#45;&gt;Node9 -->
<g id="edge10_Node000009_Node000011" class="edge">
<title>Node11&#45;&gt;Node9</title>
<g id="a_edge10_Node000009_Node000011"><a xlink:title=" ">
<path fill="none" stroke="orange" stroke-dasharray="5,2" d="M352.6,-289.69C397.88,-295.37 453.44,-302.86 503,-311 508.74,-311.94 514.71,-312.99 520.68,-314.09"/>
<polygon fill="orange" stroke="orange" points="352.87,-286.2 342.52,-288.43 352.01,-293.14 352.87,-286.2"/>
</a>
</g>
<text text-anchor="middle" x="432" y="-314" font-family="Helvetica,sans-Serif" font-size="10.00" fill="grey"> &lt; const DocNodeVariant * &gt;</text>
</g>
<!-- Node12 -->
<g id="Node000012" class="node">
<title>Node12</title>
<g id="a_Node000012"><a xlink:title=" ">
<polygon fill="white" stroke="#666666" points="122,-294 20,-294 20,-264 122,-264 122,-294"/>
<text text-anchor="start" x="28" y="-282" font-family="Helvetica,sans-Serif" font-size="10.00">std::stack&lt; T, std</text>
<text text-anchor="middle" x="71" y="-271" font-family="Helvetica,sans-Serif" font-size="10.00">::deque&lt; T &gt; &gt;</text>
</a>
</g>
</g>
<!-- Node12&#45;&gt;Node11 -->
<g id="edge11_Node000011_Node000012" class="edge">
<title>Node12&#45;&gt;Node11</title>
<g id="a_edge11_Node000011_Node000012"><a xlink:title=" ">
<path fill="none" stroke="#63b8ff" d="M132.48,-279C147.4,-279 163.62,-279 179.34,-279"/>
<polygon fill="#63b8ff" stroke="#63b8ff" points="132.38,-275.5 122.38,-279 132.38,-282.5 132.38,-275.5"/>
</a>
</g>
</g>
<!-- Node13&#45;&gt;Node6 -->
<g id="edge12_Node000006_Node000013" class="edge">
<title>Node13&#45;&gt;Node6</title>
<g id="a_edge12_Node000006_Node000013"><a xlink:title=" ">
<path fill="none" stroke="#9a32cd" stroke-dasharray="5,2" d="M627.76,-421.07C662.92,-422.29 710.3,-417.9 741,-391 762.26,-372.37 739.72,-350.67 759,-330 762.61,-326.13 767.08,-323.04 771.86,-320.58"/>
<polygon fill="#9a32cd" stroke="#9a32cd" points="627.9,-417.57 617.74,-420.56 627.55,-424.56 627.9,-417.57"/>
</a>
</g>
<text text-anchor="middle" x="699.5" y="-423" font-family="Helvetica,sans-Serif" font-size="10.00" fill="grey"> memberDef</text>
</g>
<!-- Node14&#45;&gt;Node6 -->
<g id="edge14_Node000006_Node000014" class="edge">
<title>Node14&#45;&gt;Node6</title>
<g id="a_edge14_Node000006_Node000014"><a xlink:title=" ">
<path fill="none" stroke="#9a32cd" stroke-dasharray="5,2" d="M611.03,-81.25C647.83,-100.65 709.68,-139.02 741,-191 764.76,-230.43 729.24,-257.88 759,-293 761.91,-296.44 765.53,-299.22 769.48,-301.47"/>
<polygon fill="#9a32cd" stroke="#9a32cd" points="612.3,-77.97 601.8,-76.51 609.09,-84.19 612.3,-77.97"/>
</a>
</g>
<text text-anchor="middle" x="699.5" y="-194" font-family="Helvetica,sans-Serif" font-size="10.00" fill="grey"> token</text>
</g>
<!-- Node15 -->
<g id="Node000015" class="node">
<title>Node15</title>
<g id="a_Node000015"><a xlink:href="../../db/d4d/class_html_attrib_list.html" target="_top" xlink:title="Class representing a list of HTML attributes.">
<polygon fill="white" stroke="#666666" points="303.5,-26.5 218.5,-26.5 218.5,-7.5 303.5,-7.5 303.5,-26.5"/>
<text text-anchor="middle" x="261" y="-14.5" font-family="Helvetica,sans-Serif" font-size="10.00">HtmlAttribList</text>
</a>
</g>
</g>
<!-- Node15&#45;&gt;Node1 -->
<g id="edge22_Node000001_Node000015" class="edge">
<title>Node15&#45;&gt;Node1</title>
<g id="a_edge22_Node000001_Node000015"><a xlink:title=" ">
<path fill="none" stroke="#9a32cd" stroke-dasharray="5,2" d="M313.61,-12.54C376.4,-7.5 485.64,0 579.5,0 579.5,0 579.5,0 1492.5,0 1576.23,0 1619.16,-124.41 1629.82,-160.37"/>
<polygon fill="#9a32cd" stroke="#9a32cd" points="313.25,-9.05 303.57,-13.35 313.82,-16.03 313.25,-9.05"/>
</a>
</g>
<text text-anchor="middle" x="1091" y="-3" font-family="Helvetica,sans-Serif" font-size="10.00" fill="grey"> m_attribs</text>
</g>
<!-- Node15&#45;&gt;Node14 -->
<g id="edge16_Node000014_Node000015" class="edge">
<title>Node15&#45;&gt;Node14</title>
<g id="a_edge16_Node000014_Node000015"><a xlink:title=" ">
<path fill="none" stroke="#9a32cd" stroke-dasharray="5,2" d="M313.69,-15.67C363.02,-15.56 439.08,-18.44 503,-34 524.08,-39.13 546.72,-49.58 561.86,-57.35"/>
<polygon fill="#9a32cd" stroke="#9a32cd" points="313.56,-12.17 303.58,-15.74 313.61,-19.17 313.56,-12.17"/>
</a>
</g>
<text text-anchor="middle" x="432" y="-37" font-family="Helvetica,sans-Serif" font-size="10.00" fill="grey"> attribs</text>
</g>
<!-- Node16 -->
<g id="Node000016" class="node">
<title>Node16</title>
<g id="a_Node000016"><a xlink:title=" ">
<polygon fill="white" stroke="#666666" points="142,-26.5 0,-26.5 0,-7.5 142,-7.5 142,-26.5"/>
<text text-anchor="middle" x="71" y="-14.5" font-family="Helvetica,sans-Serif" font-size="10.00">std::vector&lt; HtmlAttrib &gt;</text>
</a>
</g>
</g>
<!-- Node16&#45;&gt;Node15 -->
<g id="edge17_Node000015_Node000016" class="edge">
<title>Node16&#45;&gt;Node15</title>
<g id="a_edge17_Node000015_Node000016"><a xlink:title=" ">
<path fill="none" stroke="#63b8ff" d="M152.05,-17C174.87,-17 198.82,-17 218.34,-17"/>
<polygon fill="#63b8ff" stroke="#63b8ff" points="152,-13.5 142,-17 152,-20.5 152,-13.5"/>
</a>
</g>
</g>
<!-- Node17 -->
<g id="Node000017" class="node">
<title>Node17</title>
<g id="a_Node000017"><a xlink:href="../../d1/d7f/class_doc_tokenizer.html" target="_top" xlink:title=" ">
<polygon fill="white" stroke="#666666" points="851.5,-283.5 770.5,-283.5 770.5,-264.5 851.5,-264.5 851.5,-283.5"/>
<text text-anchor="middle" x="811" y="-271.5" font-family="Helvetica,sans-Serif" font-size="10.00">DocTokenizer</text>
</a>
</g>
</g>
<!-- Node17&#45;&gt;Node4 -->
<g id="edge18_Node000004_Node000017" class="edge">
<title>Node17&#45;&gt;Node4</title>
<g id="a_edge18_Node000004_Node000017"><a xlink:title=" ">
<path fill="none" stroke="#9a32cd" stroke-dasharray="5,2" d="M862.18,-273.2C896.99,-273.05 944.38,-273.65 986,-277 1010.37,-278.96 1037.72,-282.98 1058.26,-286.36"/>
<polygon fill="#9a32cd" stroke="#9a32cd" points="861.78,-269.7 851.81,-273.26 861.83,-276.7 861.78,-269.7"/>
</a>
</g>
<text text-anchor="middle" x="933.5" y="-280" font-family="Helvetica,sans-Serif" font-size="10.00" fill="grey"> tokenizer</text>
</g>
<!-- Node18 -->
<g id="Node000018" class="node">
<title>Node18</title>
<g id="a_Node000018"><a xlink:href="../../d9/dd3/struct_doc_node_list.html" target="_top" xlink:title=" ">
<polygon fill="white" stroke="#666666" points="1341,-237.5 1263,-237.5 1263,-218.5 1341,-218.5 1341,-237.5"/>
<text text-anchor="middle" x="1302" y="-225.5" font-family="Helvetica,sans-Serif" font-size="10.00">DocNodeList</text>
</a>
</g>
</g>
<!-- Node18&#45;&gt;Node2 -->
<g id="edge19_Node000002_Node000018" class="edge">
<title>Node18&#45;&gt;Node2</title>
<g id="a_edge19_Node000002_Node000018"><a xlink:title=" ">
<path fill="none" stroke="#9a32cd" stroke-dasharray="5,2" d="M1351.55,-228C1377,-228 1408.29,-228 1434.73,-228"/>
<polygon fill="#9a32cd" stroke="#9a32cd" points="1351.4,-224.5 1341.4,-228 1351.4,-231.5 1351.4,-224.5"/>
</a>
</g>
<text text-anchor="middle" x="1388" y="-231" font-family="Helvetica,sans-Serif" font-size="10.00" fill="grey"> m_children</text>
</g>
<!-- Node19 -->
<g id="Node000019" class="node">
<title>Node19</title>
<g id="a_Node000019"><a xlink:href="../../d0/d08/class_grow_vector.html" target="_top" xlink:title=" ">
<polygon fill="white" stroke="#666666" points="1178,-237.5 1004,-237.5 1004,-218.5 1178,-218.5 1178,-237.5"/>
<text text-anchor="middle" x="1091" y="-225.5" font-family="Helvetica,sans-Serif" font-size="10.00">GrowVector&lt; DocNodeVariant &gt;</text>
</a>
</g>
</g>
<!-- Node19&#45;&gt;Node18 -->
<g id="edge20_Node000018_Node000019" class="edge">
<title>Node19&#45;&gt;Node18</title>
<g id="a_edge20_Node000018_Node000019"><a xlink:title=" ">
<path fill="none" stroke="#63b8ff" d="M1188.29,-228C1214.7,-228 1241.82,-228 1262.84,-228"/>
<polygon fill="#63b8ff" stroke="#63b8ff" points="1188.21,-224.5 1178.21,-228 1188.21,-231.5 1188.21,-224.5"/>
</a>
</g>
</g>
<!-- Node20 -->
<g id="Node000020" class="node">
<title>Node20</title>
<g id="a_Node000020"><a xlink:href="../../d0/d08/class_grow_vector.html" target="_top" xlink:title="std::vector like container optimised for pushing elements to the back.">
<polygon fill="white" stroke="#666666" points="861.5,-237.5 760.5,-237.5 760.5,-218.5 861.5,-218.5 861.5,-237.5"/>
<text text-anchor="middle" x="811" y="-225.5" font-family="Helvetica,sans-Serif" font-size="10.00">GrowVector&lt; T &gt;</text>
</a>
</g>
</g>
<!-- Node20&#45;&gt;Node19 -->
<g id="edge21_Node000019_Node000020" class="edge">
<title>Node20&#45;&gt;Node19</title>
<g id="a_edge21_Node000019_Node000020"><a xlink:title=" ">
<path fill="none" stroke="orange" stroke-dasharray="5,2" d="M871.73,-228C910.27,-228 961.03,-228 1003.9,-228"/>
<polygon fill="orange" stroke="orange" points="871.7,-224.5 861.7,-228 871.7,-231.5 871.7,-224.5"/>
</a>
</g>
<text text-anchor="middle" x="933.5" y="-231" font-family="Helvetica,sans-Serif" font-size="10.00" fill="grey"> &lt; DocNodeVariant &gt;</text>
</g>
</g>
</svg>

<g id="navigator" transform="translate(0 0)" fill="#404254">
  <rect fill="#f2f5e9" fill-opacity="0.5" stroke="#606060" stroke-width=".5" x="0" y="0" width="60" height="60"/>
  <use id="zoomplus" xlink:href="#zoomPlus" x="17" y="9" onmousedown="handleZoom(evt,'in')"/>
  <use id="zoomminus" xlink:href="#zoomMin" x="42" y="9" onmousedown="handleZoom(evt,'out')"/>
  <use id="reset" xlink:href="#resetDef" x="30" y="36" onmousedown="handleReset()"/>
   <use id="arrowup" xlink:href="#arrowUp" x="0" y="0" onmousedown="handlePan(0,-1)"/>
  <use id="arrowright" xlink:href="#arrowRight" x="0" y="0" onmousedown="handlePan(1,0)"/>
  <use id="arrowdown" xlink:href="#arrowDown" x="0" y="0" onmousedown="handlePan(0,1)"/>
  <use id="arrowleft" xlink:href="#arrowLeft" x="0" y="0" onmousedown="handlePan(-1,0)"/>
</g>
<svg viewBox="0 0 15 15" width="100%" height="30px" preserveAspectRatio="xMaxYMin meet">
 <g id="arrow_out" transform="scale(0.3 0.3)">
  <a xlink:href="class_doc_html_caption__coll__graph_org.svg" target="_base">
   <rect id="button" ry="5" rx="5" y="6" x="6" height="38" width="38"
        fill="#f2f5e9" fill-opacity="0.5" stroke="#606060" stroke-width="1.0"/>
   <path id="arrow"
     d="M 11.500037,31.436501 C 11.940474,20.09759 22.043105,11.32322 32.158766,21.979434 L 37.068811,17.246167 C 37.068811,17.246167 37.088388,32 37.088388,32 L 22.160133,31.978069 C 22.160133,31.978069 26.997745,27.140456 26.997745,27.140456 C 18.528582,18.264221 13.291696,25.230495 11.500037,31.436501 z"
     style="fill:#404040;"/>
  </a>
 </g>
</svg>

<style type='text/css'>
<![CDATA[
[data-mouse-over-selected='false'] { opacity: 0.7; }
[data-mouse-over-selected='true']  { opacity: 1.0; }
]]>
</style>
<script type="application/ecmascript"><![CDATA[
document.addEventListener('DOMContentLoaded', (event) => {
  highlightEdges();
  highlightAdjacentNodes();
});
]]></script>
</svg>
