<?xml version="1.0" encoding="UTF-8" standalone="no"?>
<!DOCTYPE svg PUBLIC "-//W3C//DTD SVG 1.1//EN"
 "http://www.w3.org/Graphics/SVG/1.1/DTD/svg11.dtd">
<!-- Generated by graphviz version 2.43.0 (0)
 -->
<!-- Title: Qhp::Private Pages: 1 -->
<svg width="259pt" height="258pt"
 viewBox="0.00 0.00 259.00 258.00" xmlns="http://www.w3.org/2000/svg" xmlns:xlink="http://www.w3.org/1999/xlink">
<g id="graph0" class="graph" transform="scale(1 1) rotate(0) translate(4 254)">
<title>Qhp::Private</title>
<!-- Node1 -->
<g id="Node000001" class="node">
<title>Node1</title>
<g id="a_Node000001"><a xlink:title=" ">
<polygon fill="#999999" stroke="#666666" points="111.5,-19 34.5,-19 34.5,0 111.5,0 111.5,-19"/>
<text text-anchor="middle" x="73" y="-7" font-family="Helvetica,sans-Serif" font-size="10.00">Qhp::Private</text>
</a>
</g>
</g>
<!-- Node2 -->
<g id="Node000002" class="node">
<title>Node2</title>
<g id="a_Node000002"><a xlink:href="../../d3/d30/class_text_stream.html" target="_top" xlink:title="Text streaming class that buffers data.">
<polygon fill="white" stroke="#666666" points="72,-96 0,-96 0,-77 72,-77 72,-96"/>
<text text-anchor="middle" x="36" y="-84" font-family="Helvetica,sans-Serif" font-size="10.00">TextStream</text>
</a>
</g>
</g>
<!-- Node2&#45;&gt;Node1 -->
<g id="edge1_Node000001_Node000002" class="edge">
<title>Node2&#45;&gt;Node1</title>
<g id="a_edge1_Node000001_Node000002"><a xlink:title=" ">
<path fill="none" stroke="#9a32cd" stroke-dasharray="5,2" d="M44.7,-67.86C52.29,-52.47 62.98,-30.82 68.81,-19"/>
<polygon fill="#9a32cd" stroke="#9a32cd" points="41.53,-66.38 40.24,-76.9 47.81,-69.48 41.53,-66.38"/>
</a>
</g>
<text text-anchor="middle" x="72" y="-51" font-family="Helvetica,sans-Serif" font-size="10.00" fill="grey"> doc</text>
<text text-anchor="middle" x="72" y="-40" font-family="Helvetica,sans-Serif" font-size="10.00" fill="grey">index</text>
</g>
<!-- Node3 -->
<g id="Node000003" class="node">
<title>Node3</title>
<g id="a_Node000003"><a xlink:href="../../d7/dcb/class_qhp_section_tree.html" target="_top" xlink:title=" ">
<polygon fill="white" stroke="#666666" points="182,-96 90,-96 90,-77 182,-77 182,-96"/>
<text text-anchor="middle" x="136" y="-84" font-family="Helvetica,sans-Serif" font-size="10.00">QhpSectionTree</text>
</a>
</g>
</g>
<!-- Node3&#45;&gt;Node1 -->
<g id="edge2_Node000001_Node000003" class="edge">
<title>Node3&#45;&gt;Node1</title>
<g id="a_edge2_Node000001_Node000003"><a xlink:title=" ">
<path fill="none" stroke="#9a32cd" stroke-dasharray="5,2" d="M122.27,-69.16C109.3,-53.72 90.35,-31.15 80.14,-19"/>
<polygon fill="#9a32cd" stroke="#9a32cd" points="119.66,-71.49 128.77,-76.9 125.02,-66.99 119.66,-71.49"/>
</a>
</g>
<text text-anchor="middle" x="140.5" y="-45.5" font-family="Helvetica,sans-Serif" font-size="10.00" fill="grey"> sectionTree</text>
</g>
<!-- Node4 -->
<g id="Node000004" class="node">
<title>Node4</title>
<g id="a_Node000004"><a xlink:href="../../dd/d74/struct_qhp_section_tree_1_1_node.html" target="_top" xlink:title=" ">
<polygon fill="white" stroke="#666666" points="198,-173 74,-173 74,-154 198,-154 198,-173"/>
<text text-anchor="middle" x="136" y="-161" font-family="Helvetica,sans-Serif" font-size="10.00">QhpSectionTree::Node</text>
</a>
</g>
</g>
<!-- Node4&#45;&gt;Node3 -->
<g id="edge3_Node000003_Node000004" class="edge">
<title>Node4&#45;&gt;Node3</title>
<g id="a_edge3_Node000003_Node000004"><a xlink:title=" ">
<path fill="none" stroke="#9a32cd" stroke-dasharray="5,2" d="M136,-143.52C136,-128.24 136,-107.48 136,-96"/>
<polygon fill="#9a32cd" stroke="#9a32cd" points="132.5,-143.9 136,-153.9 139.5,-143.9 132.5,-143.9"/>
</a>
</g>
<text text-anchor="middle" x="162.5" y="-128" font-family="Helvetica,sans-Serif" font-size="10.00" fill="grey"> m_current</text>
<text text-anchor="middle" x="162.5" y="-117" font-family="Helvetica,sans-Serif" font-size="10.00" fill="grey">m_root</text>
</g>
<!-- Node4&#45;&gt;Node4 -->
<g id="edge4_Node000004_Node000004" class="edge">
<title>Node4&#45;&gt;Node4</title>
<g id="a_edge4_Node000004_Node000004"><a xlink:title=" ">
<path fill="none" stroke="#9a32cd" stroke-dasharray="5,2" d="M208.03,-168.66C212.99,-167.48 216,-165.76 216,-163.5 216,-159.97 208.66,-157.76 198.05,-156.85"/>
<polygon fill="#9a32cd" stroke="#9a32cd" points="207.43,-165.22 198.05,-170.15 208.46,-172.14 207.43,-165.22"/>
</a>
</g>
<text text-anchor="middle" x="233.5" y="-161" font-family="Helvetica,sans-Serif" font-size="10.00" fill="grey"> parent</text>
</g>
<!-- Node5 -->
<g id="Node000005" class="node">
<title>Node5</title>
<g id="a_Node000005"><a xlink:href="../../d9/d45/class_q_c_string.html" target="_top" xlink:title="This is an alternative implementation of QCString.">
<polygon fill="white" stroke="#666666" points="165.5,-250 106.5,-250 106.5,-231 165.5,-231 165.5,-250"/>
<text text-anchor="middle" x="136" y="-238" font-family="Helvetica,sans-Serif" font-size="10.00">QCString</text>
</a>
</g>
</g>
<!-- Node5&#45;&gt;Node4 -->
<g id="edge5_Node000004_Node000005" class="edge">
<title>Node5&#45;&gt;Node4</title>
<g id="a_edge5_Node000004_Node000005"><a xlink:title=" ">
<path fill="none" stroke="#9a32cd" stroke-dasharray="5,2" d="M136,-220.52C136,-205.24 136,-184.48 136,-173"/>
<polygon fill="#9a32cd" stroke="#9a32cd" points="132.5,-220.9 136,-230.9 139.5,-220.9 132.5,-220.9"/>
</a>
</g>
<text text-anchor="middle" x="146" y="-205" font-family="Helvetica,sans-Serif" font-size="10.00" fill="grey"> ref</text>
<text text-anchor="middle" x="146" y="-194" font-family="Helvetica,sans-Serif" font-size="10.00" fill="grey">title</text>
</g>
</g>
</svg>
