<?xml version="1.0" encoding="UTF-8" standalone="no"?>
<!DOCTYPE svg PUBLIC "-//W3C//DTD SVG 1.1//EN"
 "http://www.w3.org/Graphics/SVG/1.1/DTD/svg11.dtd">
<!-- Generated by graphviz version 2.43.0 (0)
 -->
<!-- Title: src/filename.h Pages: 1 -->
<svg width="2066pt" height="82pt"
 viewBox="0.00 0.00 2066.00 82.00" xmlns="http://www.w3.org/2000/svg" xmlns:xlink="http://www.w3.org/1999/xlink">
<g id="graph0" class="graph" transform="scale(1 1) rotate(0) translate(4 78)">
<title>src/filename.h</title>
<!-- Node1 -->
<g id="Node000001" class="node">
<title>Node1</title>
<g id="a_Node000001"><a xlink:title=" ">
<polygon fill="#999999" stroke="#666666" points="1030.5,-74 944.5,-74 944.5,-55 1030.5,-55 1030.5,-74"/>
<text text-anchor="middle" x="987.5" y="-62" font-family="Helvetica,sans-Serif" font-size="10.00">src/filename.h</text>
</a>
</g>
</g>
<!-- Node2 -->
<g id="Node000002" class="node">
<title>Node2</title>
<g id="a_Node000002"><a xlink:href="../../da/d1f/code_8l.html" target="_top" xlink:title=" ">
<polygon fill="white" stroke="#666666" points="63,-19 0,-19 0,0 63,0 63,-19"/>
<text text-anchor="middle" x="31.5" y="-7" font-family="Helvetica,sans-Serif" font-size="10.00">src/code.l</text>
</a>
</g>
</g>
<!-- Node1&#45;&gt;Node2 -->
<g id="edge1_Node000001_Node000002" class="edge">
<title>Node1&#45;&gt;Node2</title>
<g id="a_edge1_Node000001_Node000002"><a xlink:title=" ">
<path fill="none" stroke="#63b8ff" d="M934.31,-63.8C793.23,-63.97 398.04,-60.4 72.5,-19 69.47,-18.61 66.33,-18.13 63.2,-17.58"/>
<polygon fill="#63b8ff" stroke="#63b8ff" points="934.42,-67.3 944.42,-63.78 934.41,-60.3 934.42,-67.3"/>
</a>
</g>
</g>
<!-- Node3 -->
<g id="Node000003" class="node">
<title>Node3</title>
<g id="a_Node000003"><a xlink:href="../../d3/d17/defgen_8cpp.html" target="_top" xlink:title=" ">
<polygon fill="white" stroke="#666666" points="169.5,-19 81.5,-19 81.5,0 169.5,0 169.5,-19"/>
<text text-anchor="middle" x="125.5" y="-7" font-family="Helvetica,sans-Serif" font-size="10.00">src/defgen.cpp</text>
</a>
</g>
</g>
<!-- Node1&#45;&gt;Node3 -->
<g id="edge2_Node000001_Node000003" class="edge">
<title>Node1&#45;&gt;Node3</title>
<g id="a_edge2_Node000001_Node000003"><a xlink:title=" ">
<path fill="none" stroke="#63b8ff" d="M934.34,-62.49C804.77,-59.61 462.42,-49.49 178.5,-19 175.63,-18.69 172.67,-18.33 169.7,-17.94"/>
<polygon fill="#63b8ff" stroke="#63b8ff" points="934.32,-65.99 944.4,-62.71 934.48,-58.99 934.32,-65.99"/>
</a>
</g>
</g>
<!-- Node4 -->
<g id="Node000004" class="node">
<title>Node4</title>
<g id="a_Node000004"><a xlink:href="../../d8/d52/dirdef_8cpp.html" target="_top" xlink:title=" ">
<polygon fill="white" stroke="#666666" points="269.5,-19 187.5,-19 187.5,0 269.5,0 269.5,-19"/>
<text text-anchor="middle" x="228.5" y="-7" font-family="Helvetica,sans-Serif" font-size="10.00">src/dirdef.cpp</text>
</a>
</g>
</g>
<!-- Node1&#45;&gt;Node4 -->
<g id="edge3_Node000001_Node000004" class="edge">
<title>Node1&#45;&gt;Node4</title>
<g id="a_edge3_Node000001_Node000004"><a xlink:title=" ">
<path fill="none" stroke="#63b8ff" d="M933.95,-62.07C815.47,-58.49 522.29,-47.29 278.5,-19 275.61,-18.67 272.64,-18.28 269.65,-17.85"/>
<polygon fill="#63b8ff" stroke="#63b8ff" points="934.1,-65.58 944.2,-62.38 934.31,-58.58 934.1,-65.58"/>
</a>
</g>
</g>
<!-- Node5 -->
<g id="Node000005" class="node">
<title>Node5</title>
<g id="a_Node000005"><a xlink:href="../../d8/d29/docbookgen_8cpp.html" target="_top" xlink:title=" ">
<polygon fill="white" stroke="#666666" points="401,-19 288,-19 288,0 401,0 401,-19"/>
<text text-anchor="middle" x="344.5" y="-7" font-family="Helvetica,sans-Serif" font-size="10.00">src/docbookgen.cpp</text>
</a>
</g>
</g>
<!-- Node1&#45;&gt;Node5 -->
<g id="edge4_Node000001_Node000005" class="edge">
<title>Node1&#45;&gt;Node5</title>
<g id="a_edge4_Node000001_Node000005"><a xlink:title=" ">
<path fill="none" stroke="#63b8ff" d="M934.24,-60.35C832.24,-54.11 602.34,-39.02 409.5,-19 406.78,-18.72 404,-18.41 401.2,-18.1"/>
<polygon fill="#63b8ff" stroke="#63b8ff" points="934.09,-63.85 944.29,-60.96 934.52,-56.86 934.09,-63.85"/>
</a>
</g>
</g>
<!-- Node6 -->
<g id="Node000006" class="node">
<title>Node6</title>
<g id="a_Node000006"><a xlink:href="../../dc/d05/docbookvisitor_8cpp.html" target="_top" xlink:title=" ">
<polygon fill="white" stroke="#666666" points="544,-19 419,-19 419,0 544,0 544,-19"/>
<text text-anchor="middle" x="481.5" y="-7" font-family="Helvetica,sans-Serif" font-size="10.00">src/docbookvisitor.cpp</text>
</a>
</g>
</g>
<!-- Node1&#45;&gt;Node6 -->
<g id="edge5_Node000001_Node000006" class="edge">
<title>Node1&#45;&gt;Node6</title>
<g id="a_edge5_Node000001_Node000006"><a xlink:title=" ">
<path fill="none" stroke="#63b8ff" d="M934.3,-58.31C852.44,-50.26 690.68,-34.13 553.5,-19 550.5,-18.67 547.42,-18.33 544.32,-17.97"/>
<polygon fill="#63b8ff" stroke="#63b8ff" points="934.06,-61.8 944.36,-59.3 934.75,-54.84 934.06,-61.8"/>
</a>
</g>
</g>
<!-- Node7 -->
<g id="Node000007" class="node">
<title>Node7</title>
<g id="a_Node000007"><a xlink:href="../../dc/d98/doxygen_8cpp.html" target="_top" xlink:title=" ">
<polygon fill="white" stroke="#666666" points="658.5,-19 562.5,-19 562.5,0 658.5,0 658.5,-19"/>
<text text-anchor="middle" x="610.5" y="-7" font-family="Helvetica,sans-Serif" font-size="10.00">src/doxygen.cpp</text>
</a>
</g>
</g>
<!-- Node1&#45;&gt;Node7 -->
<g id="edge6_Node000001_Node000007" class="edge">
<title>Node1&#45;&gt;Node7</title>
<g id="a_edge6_Node000001_Node000007"><a xlink:title=" ">
<path fill="none" stroke="#63b8ff" d="M934.08,-56.24C870.53,-47.56 761.24,-32.51 667.5,-19 664.63,-18.59 661.68,-18.16 658.7,-17.72"/>
<polygon fill="#63b8ff" stroke="#63b8ff" points="933.88,-59.74 944.26,-57.62 934.83,-52.8 933.88,-59.74"/>
</a>
</g>
</g>
<!-- Node8 -->
<g id="Node000008" class="node">
<title>Node8</title>
<g id="a_Node000008"><a xlink:href="../../d6/ddc/filedef_8cpp.html" target="_top" xlink:title=" ">
<polygon fill="white" stroke="#666666" points="760.5,-19 676.5,-19 676.5,0 760.5,0 760.5,-19"/>
<text text-anchor="middle" x="718.5" y="-7" font-family="Helvetica,sans-Serif" font-size="10.00">src/filedef.cpp</text>
</a>
</g>
</g>
<!-- Node1&#45;&gt;Node8 -->
<g id="edge7_Node000001_Node000008" class="edge">
<title>Node1&#45;&gt;Node8</title>
<g id="a_edge7_Node000001_Node000008"><a xlink:title=" ">
<path fill="none" stroke="#63b8ff" d="M934.45,-53.05C883.54,-43.02 807.66,-28.07 760.73,-18.82"/>
<polygon fill="#63b8ff" stroke="#63b8ff" points="933.79,-56.49 944.28,-54.98 935.15,-49.62 933.79,-56.49"/>
</a>
</g>
</g>
<!-- Node9 -->
<g id="Node000009" class="node">
<title>Node9</title>
<g id="a_Node000009"><a xlink:href="../../db/d14/index_8cpp.html" target="_top" xlink:title="This file contains functions for the various index pages.">
<polygon fill="white" stroke="#666666" points="860,-19 779,-19 779,0 860,0 860,-19"/>
<text text-anchor="middle" x="819.5" y="-7" font-family="Helvetica,sans-Serif" font-size="10.00">src/index.cpp</text>
</a>
</g>
</g>
<!-- Node1&#45;&gt;Node9 -->
<g id="edge8_Node000001_Node000009" class="edge">
<title>Node1&#45;&gt;Node9</title>
<g id="a_edge8_Node000001_Node000009"><a xlink:title=" ">
<path fill="none" stroke="#63b8ff" d="M950.82,-51.93C919.44,-42.03 874.99,-28.01 846.7,-19.08"/>
<polygon fill="#63b8ff" stroke="#63b8ff" points="949.92,-55.31 960.51,-54.98 952.02,-48.64 949.92,-55.31"/>
</a>
</g>
</g>
<!-- Node10 -->
<g id="Node000010" class="node">
<title>Node10</title>
<g id="a_Node000010"><a xlink:href="../../d4/d42/latexgen_8cpp.html" target="_top" xlink:title=" ">
<polygon fill="white" stroke="#666666" points="975,-19 878,-19 878,0 975,0 975,-19"/>
<text text-anchor="middle" x="926.5" y="-7" font-family="Helvetica,sans-Serif" font-size="10.00">src/latexgen.cpp</text>
</a>
</g>
</g>
<!-- Node1&#45;&gt;Node10 -->
<g id="edge9_Node000001_Node000010" class="edge">
<title>Node1&#45;&gt;Node10</title>
<g id="a_edge9_Node000001_Node000010"><a xlink:title=" ">
<path fill="none" stroke="#63b8ff" d="M970.03,-48.32C959.16,-38.87 945.56,-27.06 936.48,-19.17"/>
<polygon fill="#63b8ff" stroke="#63b8ff" points="967.85,-51.07 977.7,-54.98 972.45,-45.78 967.85,-51.07"/>
</a>
</g>
</g>
<!-- Node11 -->
<g id="Node000011" class="node">
<title>Node11</title>
<g id="a_Node000011"><a xlink:href="../../de/dd0/perlmodgen_8cpp.html" target="_top" xlink:title=" ">
<polygon fill="white" stroke="#666666" points="1106,-19 993,-19 993,0 1106,0 1106,-19"/>
<text text-anchor="middle" x="1049.5" y="-7" font-family="Helvetica,sans-Serif" font-size="10.00">src/perlmodgen.cpp</text>
</a>
</g>
</g>
<!-- Node1&#45;&gt;Node11 -->
<g id="edge10_Node000001_Node000011" class="edge">
<title>Node1&#45;&gt;Node11</title>
<g id="a_edge10_Node000001_Node000011"><a xlink:title=" ">
<path fill="none" stroke="#63b8ff" d="M1005.25,-48.32C1016.31,-38.87 1030.13,-27.06 1039.36,-19.17"/>
<polygon fill="#63b8ff" stroke="#63b8ff" points="1002.79,-45.83 997.46,-54.98 1007.34,-51.15 1002.79,-45.83"/>
</a>
</g>
</g>
<!-- Node12 -->
<g id="Node000012" class="node">
<title>Node12</title>
<g id="a_Node000012"><a xlink:href="../../d0/d9c/rtfgen_8cpp.html" target="_top" xlink:title=" ">
<polygon fill="white" stroke="#666666" points="1207,-19 1124,-19 1124,0 1207,0 1207,-19"/>
<text text-anchor="middle" x="1165.5" y="-7" font-family="Helvetica,sans-Serif" font-size="10.00">src/rtfgen.cpp</text>
</a>
</g>
</g>
<!-- Node1&#45;&gt;Node12 -->
<g id="edge11_Node000001_Node000012" class="edge">
<title>Node1&#45;&gt;Node12</title>
<g id="a_edge11_Node000001_Node000012"><a xlink:title=" ">
<path fill="none" stroke="#63b8ff" d="M1025.94,-52.06C1059.2,-42.15 1106.58,-28.04 1136.68,-19.08"/>
<polygon fill="#63b8ff" stroke="#63b8ff" points="1024.68,-48.78 1016.1,-54.98 1026.68,-55.49 1024.68,-48.78"/>
</a>
</g>
</g>
<!-- Node13 -->
<g id="Node000013" class="node">
<title>Node13</title>
<g id="a_Node000013"><a xlink:href="../../d9/d2f/searchindex__js_8cpp.html" target="_top" xlink:title=" ">
<polygon fill="white" stroke="#666666" points="1352,-19 1225,-19 1225,0 1352,0 1352,-19"/>
<text text-anchor="middle" x="1288.5" y="-7" font-family="Helvetica,sans-Serif" font-size="10.00">src/searchindex_js.cpp</text>
</a>
</g>
</g>
<!-- Node1&#45;&gt;Node13 -->
<g id="edge12_Node000001_Node000013" class="edge">
<title>Node1&#45;&gt;Node13</title>
<g id="a_edge12_Node000001_Node000013"><a xlink:title=" ">
<path fill="none" stroke="#63b8ff" d="M1040.79,-54.12C1097.28,-44.17 1185.71,-28.6 1240.22,-19"/>
<polygon fill="#63b8ff" stroke="#63b8ff" points="1039.87,-50.73 1030.63,-55.91 1041.08,-57.62 1039.87,-50.73"/>
</a>
</g>
</g>
<!-- Node14 -->
<g id="Node000014" class="node">
<title>Node14</title>
<g id="a_Node000014"><a xlink:href="../../d8/df8/sqlite3gen_8cpp.html" target="_top" xlink:title=" ">
<polygon fill="white" stroke="#666666" points="1475,-19 1370,-19 1370,0 1475,0 1475,-19"/>
<text text-anchor="middle" x="1422.5" y="-7" font-family="Helvetica,sans-Serif" font-size="10.00">src/sqlite3gen.cpp</text>
</a>
</g>
</g>
<!-- Node1&#45;&gt;Node14 -->
<g id="edge13_Node000001_Node000014" class="edge">
<title>Node1&#45;&gt;Node14</title>
<g id="a_edge13_Node000001_Node000014"><a xlink:title=" ">
<path fill="none" stroke="#63b8ff" d="M1040.99,-57.48C1113.62,-49.22 1247.46,-33.73 1361.5,-19 1364.26,-18.64 1367.08,-18.27 1369.94,-17.89"/>
<polygon fill="#63b8ff" stroke="#63b8ff" points="1040.27,-54.04 1030.73,-58.64 1041.06,-60.99 1040.27,-54.04"/>
</a>
</g>
</g>
<!-- Node15 -->
<g id="Node000015" class="node">
<title>Node15</title>
<g id="a_Node000015"><a xlink:href="../../d4/d7b/tagreader_8cpp.html" target="_top" xlink:title=" ">
<polygon fill="white" stroke="#666666" points="1594,-19 1493,-19 1493,0 1594,0 1594,-19"/>
<text text-anchor="middle" x="1543.5" y="-7" font-family="Helvetica,sans-Serif" font-size="10.00">src/tagreader.cpp</text>
</a>
</g>
</g>
<!-- Node1&#45;&gt;Node15 -->
<g id="edge14_Node000001_Node000015" class="edge">
<title>Node1&#45;&gt;Node15</title>
<g id="a_edge14_Node000001_Node000015"><a xlink:title=" ">
<path fill="none" stroke="#63b8ff" d="M1040.87,-59.67C1131.99,-52.91 1323.35,-37.81 1484.5,-19 1487.28,-18.68 1490.12,-18.33 1492.99,-17.96"/>
<polygon fill="#63b8ff" stroke="#63b8ff" points="1040.51,-56.19 1030.79,-60.41 1041.02,-63.17 1040.51,-56.19"/>
</a>
</g>
</g>
<!-- Node16 -->
<g id="Node000016" class="node">
<title>Node16</title>
<g id="a_Node000016"><a xlink:href="../../df/d2d/util_8cpp.html" target="_top" xlink:title=" ">
<polygon fill="white" stroke="#666666" points="1682.5,-19 1612.5,-19 1612.5,0 1682.5,0 1682.5,-19"/>
<text text-anchor="middle" x="1647.5" y="-7" font-family="Helvetica,sans-Serif" font-size="10.00">src/util.cpp</text>
</a>
</g>
</g>
<!-- Node1&#45;&gt;Node16 -->
<g id="edge15_Node000001_Node000016" class="edge">
<title>Node1&#45;&gt;Node16</title>
<g id="a_edge15_Node000001_Node000016"><a xlink:title=" ">
<path fill="none" stroke="#63b8ff" d="M1040.84,-61.78C1147.91,-57.85 1396.47,-46.38 1603.5,-19 1606.43,-18.61 1609.46,-18.15 1612.5,-17.65"/>
<polygon fill="#63b8ff" stroke="#63b8ff" points="1040.49,-58.29 1030.62,-62.15 1040.74,-65.28 1040.49,-58.29"/>
</a>
</g>
</g>
<!-- Node17 -->
<g id="Node000017" class="node">
<title>Node17</title>
<g id="a_Node000017"><a xlink:href="../../de/dea/vhdldocgen_8cpp.html" target="_top" xlink:title=" ">
<polygon fill="white" stroke="#666666" points="1810.5,-19 1700.5,-19 1700.5,0 1810.5,0 1810.5,-19"/>
<text text-anchor="middle" x="1755.5" y="-7" font-family="Helvetica,sans-Serif" font-size="10.00">src/vhdldocgen.cpp</text>
</a>
</g>
</g>
<!-- Node1&#45;&gt;Node17 -->
<g id="edge16_Node000001_Node000017" class="edge">
<title>Node1&#45;&gt;Node17</title>
<g id="a_edge16_Node000001_Node000017"><a xlink:title=" ">
<path fill="none" stroke="#63b8ff" d="M1041.03,-61.38C1158.82,-56.43 1449.25,-42.71 1691.5,-19 1694.4,-18.72 1697.37,-18.4 1700.37,-18.07"/>
<polygon fill="#63b8ff" stroke="#63b8ff" points="1040.69,-57.89 1030.84,-61.8 1040.98,-64.88 1040.69,-57.89"/>
</a>
</g>
</g>
<!-- Node18 -->
<g id="Node000018" class="node">
<title>Node18</title>
<g id="a_Node000018"><a xlink:href="../../dd/db6/xmldocvisitor_8cpp.html" target="_top" xlink:title=" ">
<polygon fill="white" stroke="#666666" points="1948.5,-19 1828.5,-19 1828.5,0 1948.5,0 1948.5,-19"/>
<text text-anchor="middle" x="1888.5" y="-7" font-family="Helvetica,sans-Serif" font-size="10.00">src/xmldocvisitor.cpp</text>
</a>
</g>
</g>
<!-- Node1&#45;&gt;Node18 -->
<g id="edge17_Node000001_Node000018" class="edge">
<title>Node1&#45;&gt;Node18</title>
<g id="a_edge17_Node000001_Node000018"><a xlink:title=" ">
<path fill="none" stroke="#63b8ff" d="M1041.15,-61.92C1173.53,-57.73 1526.29,-44.87 1819.5,-19 1822.39,-18.75 1825.34,-18.46 1828.32,-18.16"/>
<polygon fill="#63b8ff" stroke="#63b8ff" points="1040.77,-58.43 1030.88,-62.24 1040.99,-65.42 1040.77,-58.43"/>
</a>
</g>
</g>
<!-- Node19 -->
<g id="Node000019" class="node">
<title>Node19</title>
<g id="a_Node000019"><a xlink:href="../../d0/dc3/xmlgen_8cpp.html" target="_top" xlink:title=" ">
<polygon fill="white" stroke="#666666" points="2058,-19 1967,-19 1967,0 2058,0 2058,-19"/>
<text text-anchor="middle" x="2012.5" y="-7" font-family="Helvetica,sans-Serif" font-size="10.00">src/xmlgen.cpp</text>
</a>
</g>
</g>
<!-- Node1&#45;&gt;Node19 -->
<g id="edge18_Node000001_Node000019" class="edge">
<title>Node1&#45;&gt;Node19</title>
<g id="a_edge18_Node000001_Node000019"><a xlink:title=" ">
<path fill="none" stroke="#63b8ff" d="M1040.72,-63.06C1187.27,-61.43 1608.99,-53.82 1957.5,-19 1960.58,-18.69 1963.74,-18.33 1966.93,-17.93"/>
<polygon fill="#63b8ff" stroke="#63b8ff" points="1040.61,-59.57 1030.65,-63.17 1040.68,-66.57 1040.61,-59.57"/>
</a>
</g>
</g>
</g>
</svg>
