<?xml version="1.0" encoding="UTF-8" standalone="no"?>
<!DOCTYPE svg PUBLIC "-//W3C//DTD SVG 1.1//EN"
 "http://www.w3.org/Graphics/SVG/1.1/DTD/svg11.dtd">
<!-- Generated by graphviz version 2.43.0 (0)
 -->
<!-- Title: src/defargs.h Pages: 1 -->
<svg width="597pt" height="247pt"
 viewBox="0.00 0.00 596.82 247.00" xmlns="http://www.w3.org/2000/svg" xmlns:xlink="http://www.w3.org/1999/xlink">
<g id="graph0" class="graph" transform="scale(1 1) rotate(0) translate(4 243)">
<title>src/defargs.h</title>
<!-- Node1 -->
<g id="Node000001" class="node">
<title>Node1</title>
<g id="a_Node000001"><a xlink:title=" ">
<polygon fill="#999999" stroke="#666666" points="390.12,-239 310.12,-239 310.12,-220 390.12,-220 390.12,-239"/>
<text text-anchor="middle" x="350.12" y="-227" font-family="Helvetica,sans-Serif" font-size="10.00">src/defargs.h</text>
</a>
</g>
</g>
<!-- Node2 -->
<g id="Node000002" class="node">
<title>Node2</title>
<g id="a_Node000002"><a xlink:href="../../d9/d49/types_8h.html" target="_top" xlink:title="This file contains a number of basic enums and types.">
<polygon fill="white" stroke="#666666" points="339.62,-184 286.62,-184 286.62,-165 339.62,-165 339.62,-184"/>
<text text-anchor="middle" x="313.12" y="-172" font-family="Helvetica,sans-Serif" font-size="10.00">types.h</text>
</a>
</g>
</g>
<!-- Node1&#45;&gt;Node2 -->
<g id="edge1_Node000001_Node000002" class="edge">
<title>Node1&#45;&gt;Node2</title>
<g id="a_edge1_Node000001_Node000002"><a xlink:title=" ">
<path fill="none" stroke="#63b8ff" d="M344.01,-219.75C338.84,-212.34 331.28,-201.5 324.93,-192.41"/>
<polygon fill="#63b8ff" stroke="#63b8ff" points="327.71,-190.29 319.12,-184.09 321.98,-194.29 327.71,-190.29"/>
</a>
</g>
</g>
<!-- Node14 -->
<g id="Node000014" class="node">
<title>Node14</title>
<g id="a_Node000014"><a xlink:title=" ">
<polygon fill="#e0e0e0" stroke="#999999" points="416.12,-184 358.12,-184 358.12,-165 416.12,-165 416.12,-184"/>
<text text-anchor="middle" x="387.12" y="-172" font-family="Helvetica,sans-Serif" font-size="10.00">memory</text>
</a>
</g>
</g>
<!-- Node1&#45;&gt;Node14 -->
<g id="edge15_Node000001_Node000014" class="edge">
<title>Node1&#45;&gt;Node14</title>
<g id="a_edge15_Node000001_Node000014"><a xlink:title=" ">
<path fill="none" stroke="#63b8ff" d="M356.23,-219.75C361.41,-212.34 368.97,-201.5 375.32,-192.41"/>
<polygon fill="#63b8ff" stroke="#63b8ff" points="378.27,-194.29 381.13,-184.09 372.53,-190.29 378.27,-194.29"/>
</a>
</g>
</g>
<!-- Node3 -->
<g id="Node000003" class="node">
<title>Node3</title>
<g id="a_Node000003"><a xlink:href="../../d7/d5c/qcstring_8h.html" target="_top" xlink:title=" ">
<polygon fill="white" stroke="#666666" points="345.62,-129 280.62,-129 280.62,-110 345.62,-110 345.62,-129"/>
<text text-anchor="middle" x="313.12" y="-117" font-family="Helvetica,sans-Serif" font-size="10.00">qcstring.h</text>
</a>
</g>
</g>
<!-- Node2&#45;&gt;Node3 -->
<g id="edge2_Node000002_Node000003" class="edge">
<title>Node2&#45;&gt;Node3</title>
<g id="a_edge2_Node000002_Node000003"><a xlink:title=" ">
<path fill="none" stroke="#63b8ff" d="M313.12,-164.75C313.12,-157.8 313.12,-147.85 313.12,-139.13"/>
<polygon fill="#63b8ff" stroke="#63b8ff" points="316.62,-139.09 313.12,-129.09 309.62,-139.09 316.62,-139.09"/>
</a>
</g>
</g>
<!-- Node4 -->
<g id="Node000004" class="node">
<title>Node4</title>
<g id="a_Node000004"><a xlink:title=" ">
<polygon fill="#e0e0e0" stroke="#999999" points="284.12,-19 240.12,-19 240.12,0 284.12,0 284.12,-19"/>
<text text-anchor="middle" x="262.12" y="-7" font-family="Helvetica,sans-Serif" font-size="10.00">string</text>
</a>
</g>
</g>
<!-- Node3&#45;&gt;Node4 -->
<g id="edge3_Node000003_Node000004" class="edge">
<title>Node3&#45;&gt;Node4</title>
<g id="a_edge3_Node000003_Node000004"><a xlink:title=" ">
<path fill="none" stroke="#63b8ff" d="M280.6,-118.92C208.67,-119.09 39.66,-115.02 4.12,-74 -1.4,-67.62 -1.32,-61.46 4.12,-55 32.64,-21.15 167.06,-13.05 229.77,-11.11"/>
<polygon fill="#63b8ff" stroke="#63b8ff" points="229.99,-14.61 239.89,-10.83 229.8,-7.61 229.99,-14.61"/>
</a>
</g>
</g>
<!-- Node5 -->
<g id="Node000005" class="node">
<title>Node5</title>
<g id="a_Node000005"><a xlink:title=" ">
<polygon fill="#e0e0e0" stroke="#999999" points="86.62,-74 13.62,-74 13.62,-55 86.62,-55 86.62,-74"/>
<text text-anchor="middle" x="50.12" y="-62" font-family="Helvetica,sans-Serif" font-size="10.00">string_view</text>
</a>
</g>
</g>
<!-- Node3&#45;&gt;Node5 -->
<g id="edge4_Node000003_Node000005" class="edge">
<title>Node3&#45;&gt;Node5</title>
<g id="a_edge4_Node000003_Node000005"><a xlink:title=" ">
<path fill="none" stroke="#63b8ff" d="M280.61,-111.95C234.49,-102.65 149.79,-85.58 96.91,-74.93"/>
<polygon fill="#63b8ff" stroke="#63b8ff" points="97.28,-71.43 86.78,-72.89 95.89,-78.29 97.28,-71.43"/>
</a>
</g>
</g>
<!-- Node6 -->
<g id="Node000006" class="node">
<title>Node6</title>
<g id="a_Node000006"><a xlink:title=" ">
<polygon fill="#e0e0e0" stroke="#999999" points="169.12,-74 105.12,-74 105.12,-55 169.12,-55 169.12,-74"/>
<text text-anchor="middle" x="137.12" y="-62" font-family="Helvetica,sans-Serif" font-size="10.00">algorithm</text>
</a>
</g>
</g>
<!-- Node3&#45;&gt;Node6 -->
<g id="edge5_Node000003_Node000006" class="edge">
<title>Node3&#45;&gt;Node6</title>
<g id="a_edge5_Node000003_Node000006"><a xlink:title=" ">
<path fill="none" stroke="#63b8ff" d="M284.85,-109.98C255.17,-101.05 208.34,-86.94 175.37,-77.02"/>
<polygon fill="#63b8ff" stroke="#63b8ff" points="176.21,-73.61 165.62,-74.08 174.19,-80.32 176.21,-73.61"/>
</a>
</g>
</g>
<!-- Node7 -->
<g id="Node000007" class="node">
<title>Node7</title>
<g id="a_Node000007"><a xlink:title=" ">
<polygon fill="#e0e0e0" stroke="#999999" points="236.62,-74 187.62,-74 187.62,-55 236.62,-55 236.62,-74"/>
<text text-anchor="middle" x="212.12" y="-62" font-family="Helvetica,sans-Serif" font-size="10.00">cctype</text>
</a>
</g>
</g>
<!-- Node3&#45;&gt;Node7 -->
<g id="edge6_Node000003_Node000007" class="edge">
<title>Node3&#45;&gt;Node7</title>
<g id="a_edge6_Node000003_Node000007"><a xlink:title=" ">
<path fill="none" stroke="#63b8ff" d="M296.9,-109.98C280.94,-101.61 256.35,-88.7 237.75,-78.95"/>
<polygon fill="#63b8ff" stroke="#63b8ff" points="239.13,-75.72 228.65,-74.17 235.88,-81.92 239.13,-75.72"/>
</a>
</g>
</g>
<!-- Node8 -->
<g id="Node000008" class="node">
<title>Node8</title>
<g id="a_Node000008"><a xlink:title=" ">
<polygon fill="#e0e0e0" stroke="#999999" points="305.12,-74 255.12,-74 255.12,-55 305.12,-55 305.12,-74"/>
<text text-anchor="middle" x="280.12" y="-62" font-family="Helvetica,sans-Serif" font-size="10.00">cstring</text>
</a>
</g>
</g>
<!-- Node3&#45;&gt;Node8 -->
<g id="edge7_Node000003_Node000008" class="edge">
<title>Node3&#45;&gt;Node8</title>
<g id="a_edge7_Node000003_Node000008"><a xlink:title=" ">
<path fill="none" stroke="#63b8ff" d="M307.68,-109.75C303.11,-102.42 296.46,-91.73 290.83,-82.7"/>
<polygon fill="#63b8ff" stroke="#63b8ff" points="293.73,-80.73 285.47,-74.09 287.79,-84.43 293.73,-80.73"/>
</a>
</g>
</g>
<!-- Node9 -->
<g id="Node000009" class="node">
<title>Node9</title>
<g id="a_Node000009"><a xlink:title=" ">
<polygon fill="#e0e0e0" stroke="#999999" points="369.12,-74 323.12,-74 323.12,-55 369.12,-55 369.12,-74"/>
<text text-anchor="middle" x="346.12" y="-62" font-family="Helvetica,sans-Serif" font-size="10.00">cstdio</text>
</a>
</g>
</g>
<!-- Node3&#45;&gt;Node9 -->
<g id="edge8_Node000003_Node000009" class="edge">
<title>Node3&#45;&gt;Node9</title>
<g id="a_edge8_Node000003_Node000009"><a xlink:title=" ">
<path fill="none" stroke="#63b8ff" d="M318.57,-109.75C323.14,-102.42 329.79,-91.73 335.42,-82.7"/>
<polygon fill="#63b8ff" stroke="#63b8ff" points="338.46,-84.43 340.78,-74.09 332.52,-80.73 338.46,-84.43"/>
</a>
</g>
</g>
<!-- Node10 -->
<g id="Node000010" class="node">
<title>Node10</title>
<g id="a_Node000010"><a xlink:title=" ">
<polygon fill="#e0e0e0" stroke="#999999" points="436.62,-74 387.62,-74 387.62,-55 436.62,-55 436.62,-74"/>
<text text-anchor="middle" x="412.12" y="-62" font-family="Helvetica,sans-Serif" font-size="10.00">cstdlib</text>
</a>
</g>
</g>
<!-- Node3&#45;&gt;Node10 -->
<g id="edge9_Node000003_Node000010" class="edge">
<title>Node3&#45;&gt;Node10</title>
<g id="a_edge9_Node000003_Node000010"><a xlink:title=" ">
<path fill="none" stroke="#63b8ff" d="M329.03,-109.98C344.67,-101.61 368.78,-88.7 387.01,-78.95"/>
<polygon fill="#63b8ff" stroke="#63b8ff" points="388.76,-81.98 395.93,-74.17 385.46,-75.8 388.76,-81.98"/>
</a>
</g>
</g>
<!-- Node11 -->
<g id="Node000011" class="node">
<title>Node11</title>
<g id="a_Node000011"><a xlink:title=" ">
<polygon fill="#e0e0e0" stroke="#999999" points="565.12,-19 515.12,-19 515.12,0 565.12,0 565.12,-19"/>
<text text-anchor="middle" x="540.12" y="-7" font-family="Helvetica,sans-Serif" font-size="10.00">cstdint</text>
</a>
</g>
</g>
<!-- Node3&#45;&gt;Node11 -->
<g id="edge10_Node000003_Node000011" class="edge">
<title>Node3&#45;&gt;Node11</title>
<g id="a_edge10_Node000003_Node000011"><a xlink:title=" ">
<path fill="none" stroke="#63b8ff" d="M345.82,-118.18C411.09,-116.78 553.88,-109.62 584.12,-74 597.55,-58.19 578.69,-38.3 561.65,-25.03"/>
<polygon fill="#63b8ff" stroke="#63b8ff" points="563.72,-22.21 553.59,-19.1 559.57,-27.85 563.72,-22.21"/>
</a>
</g>
</g>
<!-- Node12 -->
<g id="Node000012" class="node">
<title>Node12</title>
<g id="a_Node000012"><a xlink:title=" ">
<polygon fill="#e0e0e0" stroke="#999999" points="574.62,-74 517.62,-74 517.62,-55 574.62,-55 574.62,-74"/>
<text text-anchor="middle" x="546.12" y="-62" font-family="Helvetica,sans-Serif" font-size="10.00">ostream</text>
</a>
</g>
</g>
<!-- Node3&#45;&gt;Node12 -->
<g id="edge11_Node000003_Node000012" class="edge">
<title>Node3&#45;&gt;Node12</title>
<g id="a_edge11_Node000003_Node000012"><a xlink:title=" ">
<path fill="none" stroke="#63b8ff" d="M346.01,-111.02C388.49,-101.36 462.31,-84.56 507.44,-74.3"/>
<polygon fill="#63b8ff" stroke="#63b8ff" points="508.46,-77.66 517.43,-72.03 506.91,-70.83 508.46,-77.66"/>
</a>
</g>
</g>
<!-- Node13 -->
<g id="Node000013" class="node">
<title>Node13</title>
<g id="a_Node000013"><a xlink:href="../../db/d7c/utf8_8h.html" target="_top" xlink:title="Various UTF8 related helper functions.">
<polygon fill="white" stroke="#666666" points="499.62,-74 454.62,-74 454.62,-55 499.62,-55 499.62,-74"/>
<text text-anchor="middle" x="477.12" y="-62" font-family="Helvetica,sans-Serif" font-size="10.00">utf8.h</text>
</a>
</g>
</g>
<!-- Node3&#45;&gt;Node13 -->
<g id="edge12_Node000003_Node000013" class="edge">
<title>Node3&#45;&gt;Node13</title>
<g id="a_edge12_Node000003_Node000013"><a xlink:title=" ">
<path fill="none" stroke="#63b8ff" d="M339.47,-109.98C368.11,-100.73 413.89,-85.94 444.7,-75.98"/>
<polygon fill="#63b8ff" stroke="#63b8ff" points="446.1,-79.21 454.54,-72.8 443.94,-72.54 446.1,-79.21"/>
</a>
</g>
</g>
<!-- Node13&#45;&gt;Node4 -->
<g id="edge14_Node000013_Node000004" class="edge">
<title>Node13&#45;&gt;Node4</title>
<g id="a_edge14_Node000013_Node000004"><a xlink:title=" ">
<path fill="none" stroke="#63b8ff" d="M454.41,-57.4C451.3,-56.59 448.13,-55.77 445.12,-55 392.35,-41.57 330.78,-26.78 294.2,-18.08"/>
<polygon fill="#63b8ff" stroke="#63b8ff" points="294.67,-14.6 284.13,-15.69 293.05,-21.41 294.67,-14.6"/>
</a>
</g>
</g>
<!-- Node13&#45;&gt;Node11 -->
<g id="edge13_Node000013_Node000011" class="edge">
<title>Node13&#45;&gt;Node11</title>
<g id="a_edge13_Node000013_Node000011"><a xlink:title=" ">
<path fill="none" stroke="#63b8ff" d="M487.25,-54.98C496.56,-47.15 510.59,-35.34 521.86,-25.86"/>
<polygon fill="#63b8ff" stroke="#63b8ff" points="524.42,-28.29 529.82,-19.17 519.91,-22.93 524.42,-28.29"/>
</a>
</g>
</g>
</g>
</svg>
