<?xml version="1.0" encoding="UTF-8" standalone="no"?>
<!DOCTYPE svg PUBLIC "-//W3C//DTD SVG 1.1//EN"
 "http://www.w3.org/Graphics/SVG/1.1/DTD/svg11.dtd">
<!-- Generated by graphviz version 2.43.0 (0)
 -->
<!-- Title: /home/runner/work/doxygen/doxygen/vhdlparser/ErrorHandler.h Pages: 1 -->
<svg width="489pt" height="313pt"
 viewBox="0.00 0.00 488.65 313.00" xmlns="http://www.w3.org/2000/svg" xmlns:xlink="http://www.w3.org/1999/xlink">
<g id="graph0" class="graph" transform="scale(1 1) rotate(0) translate(4 309)">
<title>/home/runner/work/doxygen/doxygen/vhdlparser/ErrorHandler.h</title>
<!-- Node1 -->
<g id="Node000001" class="node">
<title>Node1</title>
<g id="a_Node000001"><a xlink:title=" ">
<polygon fill="#999999" stroke="#666666" points="300.65,-305 111.65,-305 111.65,-275 300.65,-275 300.65,-305"/>
<text text-anchor="start" x="119.65" y="-293" font-family="Helvetica,sans-Serif" font-size="10.00">/home/runner/work/doxygen</text>
<text text-anchor="middle" x="206.15" y="-282" font-family="Helvetica,sans-Serif" font-size="10.00">/doxygen/vhdlparser/ErrorHandler.h</text>
</a>
</g>
</g>
<!-- Node2 -->
<g id="Node000002" class="node">
<title>Node2</title>
<g id="a_Node000002"><a xlink:href="../../d5/df9/_vhdl_parser_8h.html" target="_top" xlink:title=" ">
<polygon fill="white" stroke="#666666" points="295.65,-239 116.65,-239 116.65,-209 295.65,-209 295.65,-239"/>
<text text-anchor="start" x="124.65" y="-227" font-family="Helvetica,sans-Serif" font-size="10.00">/home/runner/work/doxygen</text>
<text text-anchor="middle" x="206.15" y="-216" font-family="Helvetica,sans-Serif" font-size="10.00">/doxygen/vhdlparser/VhdlParser.h</text>
</a>
</g>
</g>
<!-- Node1&#45;&gt;Node2 -->
<g id="edge1_Node000001_Node000002" class="edge">
<title>Node1&#45;&gt;Node2</title>
<g id="a_edge1_Node000001_Node000002"><a xlink:title=" ">
<path fill="none" stroke="#63b8ff" d="M206.15,-264.54C206.15,-255.96 206.15,-246.61 206.15,-239.16"/>
<polygon fill="#63b8ff" stroke="#63b8ff" points="202.65,-264.8 206.15,-274.8 209.65,-264.8 202.65,-264.8"/>
</a>
</g>
</g>
<!-- Node4 -->
<g id="Node000004" class="node">
<title>Node4</title>
<g id="a_Node000004"><a xlink:href="../../d2/dc3/_vhdl_parser_error_handler_8hpp.html" target="_top" xlink:title=" ">
<polygon fill="white" stroke="#666666" points="291.65,-107 120.65,-107 120.65,-66 291.65,-66 291.65,-107"/>
<text text-anchor="start" x="128.65" y="-95" font-family="Helvetica,sans-Serif" font-size="10.00">/home/runner/work/doxygen</text>
<text text-anchor="start" x="128.65" y="-84" font-family="Helvetica,sans-Serif" font-size="10.00">/doxygen/vhdlparser/VhdlParser</text>
<text text-anchor="middle" x="206.15" y="-73" font-family="Helvetica,sans-Serif" font-size="10.00">ErrorHandler.hpp</text>
</a>
</g>
</g>
<!-- Node1&#45;&gt;Node4 -->
<g id="edge9_Node000001_Node000004" class="edge">
<title>Node1&#45;&gt;Node4</title>
<g id="a_edge9_Node000001_Node000004"><a xlink:title=" ">
<path fill="none" stroke="#63b8ff" d="M145.81,-271.9C73.33,-248.29 -33.31,-201.87 11.15,-143 24.88,-124.81 74.62,-110.82 120.42,-101.44"/>
<polygon fill="#63b8ff" stroke="#63b8ff" points="144.76,-275.24 155.35,-274.95 146.89,-268.57 144.76,-275.24"/>
</a>
</g>
</g>
<!-- Node7 -->
<g id="Node000007" class="node">
<title>Node7</title>
<g id="a_Node000007"><a xlink:href="../../d7/dad/_vhdl_parser_token_manager_8h.html" target="_top" xlink:title=" ">
<polygon fill="white" stroke="#666666" points="480.65,-107 309.65,-107 309.65,-66 480.65,-66 480.65,-107"/>
<text text-anchor="start" x="317.65" y="-95" font-family="Helvetica,sans-Serif" font-size="10.00">/home/runner/work/doxygen</text>
<text text-anchor="start" x="317.65" y="-84" font-family="Helvetica,sans-Serif" font-size="10.00">/doxygen/vhdlparser/VhdlParser</text>
<text text-anchor="middle" x="395.15" y="-73" font-family="Helvetica,sans-Serif" font-size="10.00">TokenManager.h</text>
</a>
</g>
</g>
<!-- Node1&#45;&gt;Node7 -->
<g id="edge10_Node000001_Node000007" class="edge">
<title>Node1&#45;&gt;Node7</title>
<g id="a_edge10_Node000001_Node000007"><a xlink:title=" ">
<path fill="none" stroke="#63b8ff" d="M276.26,-271.87C326.25,-255.55 389.77,-225.46 420.15,-173 432.16,-152.26 420.46,-125.29 409.36,-107.24"/>
<polygon fill="#63b8ff" stroke="#63b8ff" points="274.95,-268.61 266.46,-274.95 277.05,-275.29 274.95,-268.61"/>
</a>
</g>
</g>
<!-- Node3 -->
<g id="Node000003" class="node">
<title>Node3</title>
<g id="a_Node000003"><a xlink:href="../../de/dea/vhdldocgen_8cpp.html" target="_top" xlink:title=" ">
<polygon fill="white" stroke="#666666" points="178.15,-173 20.15,-173 20.15,-143 178.15,-143 178.15,-173"/>
<text text-anchor="start" x="28.15" y="-161" font-family="Helvetica,sans-Serif" font-size="10.00">/home/runner/work/doxygen</text>
<text text-anchor="middle" x="99.15" y="-150" font-family="Helvetica,sans-Serif" font-size="10.00">/doxygen/src/vhdldocgen.cpp</text>
</a>
</g>
</g>
<!-- Node2&#45;&gt;Node3 -->
<g id="edge2_Node000002_Node000003" class="edge">
<title>Node2&#45;&gt;Node3</title>
<g id="a_edge2_Node000002_Node000003"><a xlink:title=" ">
<path fill="none" stroke="#63b8ff" d="M173.87,-203.69C157.35,-193.82 137.61,-182.01 122.57,-173.01"/>
<polygon fill="#63b8ff" stroke="#63b8ff" points="172.28,-206.83 182.66,-208.95 175.88,-200.82 172.28,-206.83"/>
</a>
</g>
</g>
<!-- Node2&#45;&gt;Node4 -->
<g id="edge3_Node000002_Node000004" class="edge">
<title>Node2&#45;&gt;Node4</title>
<g id="a_edge3_Node000002_Node000004"><a xlink:title=" ">
<path fill="none" stroke="#63b8ff" d="M206.15,-198.54C206.15,-172.38 206.15,-131.39 206.15,-107.21"/>
<polygon fill="#63b8ff" stroke="#63b8ff" points="202.65,-198.76 206.15,-208.76 209.65,-198.76 202.65,-198.76"/>
</a>
</g>
</g>
<!-- Node6 -->
<g id="Node000006" class="node">
<title>Node6</title>
<g id="a_Node000006"><a xlink:href="../../d9/d48/vhdlstring_8h.html" target="_top" xlink:title=" ">
<polygon fill="white" stroke="#666666" points="410.65,-173 233.65,-173 233.65,-143 410.65,-143 410.65,-173"/>
<text text-anchor="start" x="241.65" y="-161" font-family="Helvetica,sans-Serif" font-size="10.00">/home/runner/work/doxygen</text>
<text text-anchor="middle" x="322.15" y="-150" font-family="Helvetica,sans-Serif" font-size="10.00">/doxygen/vhdlparser/vhdlstring.h</text>
</a>
</g>
</g>
<!-- Node2&#45;&gt;Node6 -->
<g id="edge5_Node000002_Node000006" class="edge">
<title>Node2&#45;&gt;Node6</title>
<g id="a_edge5_Node000002_Node000006"><a xlink:title=" ">
<path fill="none" stroke="#63b8ff" d="M240.64,-203.97C258.65,-194.03 280.29,-182.09 296.75,-173.01"/>
<polygon fill="#63b8ff" stroke="#63b8ff" points="238.67,-201.06 231.6,-208.95 242.05,-207.19 238.67,-201.06"/>
</a>
</g>
</g>
<!-- Node5 -->
<g id="Node000005" class="node">
<title>Node5</title>
<g id="a_Node000005"><a xlink:href="../../d1/d86/vhdljjparser_8cpp.html" target="_top" xlink:title=" ">
<polygon fill="white" stroke="#666666" points="379.65,-30 220.65,-30 220.65,0 379.65,0 379.65,-30"/>
<text text-anchor="start" x="228.65" y="-18" font-family="Helvetica,sans-Serif" font-size="10.00">/home/runner/work/doxygen</text>
<text text-anchor="middle" x="300.15" y="-7" font-family="Helvetica,sans-Serif" font-size="10.00">/doxygen/src/vhdljjparser.cpp</text>
</a>
</g>
</g>
<!-- Node4&#45;&gt;Node5 -->
<g id="edge4_Node000004_Node000005" class="edge">
<title>Node4&#45;&gt;Node5</title>
<g id="a_edge4_Node000004_Node000005"><a xlink:title=" ">
<path fill="none" stroke="#63b8ff" d="M240.81,-59.87C254.42,-49.81 269.5,-38.66 281.06,-30.11"/>
<polygon fill="#63b8ff" stroke="#63b8ff" points="238.54,-57.2 232.58,-65.96 242.7,-62.82 238.54,-57.2"/>
</a>
</g>
</g>
<!-- Node6&#45;&gt;Node4 -->
<g id="edge6_Node000006_Node000004" class="edge">
<title>Node6&#45;&gt;Node4</title>
<g id="a_edge6_Node000006_Node000004"><a xlink:title=" ">
<path fill="none" stroke="#63b8ff" d="M289.73,-137.58C273.84,-128.06 254.74,-116.62 238.81,-107.07"/>
<polygon fill="#63b8ff" stroke="#63b8ff" points="288.29,-140.8 298.67,-142.94 291.89,-134.79 288.29,-140.8"/>
</a>
</g>
</g>
<!-- Node6&#45;&gt;Node7 -->
<g id="edge7_Node000006_Node000007" class="edge">
<title>Node6&#45;&gt;Node7</title>
<g id="a_edge7_Node000006_Node000007"><a xlink:title=" ">
<path fill="none" stroke="#63b8ff" d="M344.24,-135.96C353.89,-126.78 365.12,-116.08 374.59,-107.07"/>
<polygon fill="#63b8ff" stroke="#63b8ff" points="341.75,-133.51 336.92,-142.94 346.57,-138.58 341.75,-133.51"/>
</a>
</g>
</g>
<!-- Node7&#45;&gt;Node5 -->
<g id="edge8_Node000007_Node000005" class="edge">
<title>Node7&#45;&gt;Node5</title>
<g id="a_edge8_Node000007_Node000005"><a xlink:title=" ">
<path fill="none" stroke="#63b8ff" d="M360.11,-59.87C346.36,-49.81 331.11,-38.66 319.44,-30.11"/>
<polygon fill="#63b8ff" stroke="#63b8ff" points="358.29,-62.88 368.43,-65.96 362.43,-57.23 358.29,-62.88"/>
</a>
</g>
</g>
</g>
</svg>
