<?xml version="1.0" encoding="UTF-8" standalone="no"?>
<!DOCTYPE svg PUBLIC "-//W3C//DTD SVG 1.1//EN"
 "http://www.w3.org/Graphics/SVG/1.1/DTD/svg11.dtd">
<!-- Generated by graphviz version 2.43.0 (0)
 -->
<!-- Title: SIData_CurrentDoc Pages: 1 -->
<svg width="150pt" height="93pt"
 viewBox="0.00 0.00 149.50 93.00" xmlns="http://www.w3.org/2000/svg" xmlns:xlink="http://www.w3.org/1999/xlink">
<g id="graph0" class="graph" transform="scale(1 1) rotate(0) translate(4 89)">
<title>SIData_CurrentDoc</title>
<!-- Node1 -->
<g id="Node000001" class="node">
<title>Node1</title>
<g id="a_Node000001"><a xlink:title=" ">
<polygon fill="#999999" stroke="#666666" points="126.5,-19 17.5,-19 17.5,0 126.5,0 126.5,-19"/>
<text text-anchor="middle" x="72" y="-7" font-family="Helvetica,sans-Serif" font-size="10.00">SIData_CurrentDoc</text>
</a>
</g>
</g>
<!-- Node2 -->
<g id="Node000002" class="node">
<title>Node2</title>
<g id="a_Node000002"><a xlink:href="../../d5/dcc/class_definition.html" target="_top" xlink:title="The common base class of all entity definitions found in the sources.">
<polygon fill="white" stroke="#666666" points="64,-85 0,-85 0,-66 64,-66 64,-85"/>
<text text-anchor="middle" x="32" y="-73" font-family="Helvetica,sans-Serif" font-size="10.00">Definition</text>
</a>
</g>
</g>
<!-- Node2&#45;&gt;Node1 -->
<g id="edge1_Node000001_Node000002" class="edge">
<title>Node2&#45;&gt;Node1</title>
<g id="a_edge1_Node000001_Node000002"><a xlink:title=" ">
<path fill="none" stroke="#9a32cd" stroke-dasharray="5,2" d="M42.91,-57.05C50.52,-44.86 60.37,-29.11 66.43,-19.41"/>
<polygon fill="#9a32cd" stroke="#9a32cd" points="39.73,-55.53 37.39,-65.87 45.66,-59.24 39.73,-55.53"/>
</a>
</g>
<text text-anchor="middle" x="64.5" y="-40" font-family="Helvetica,sans-Serif" font-size="10.00" fill="grey"> ctx</text>
</g>
<!-- Node3 -->
<g id="Node000003" class="node">
<title>Node3</title>
<g id="a_Node000003"><a xlink:href="../../d9/d45/class_q_c_string.html" target="_top" xlink:title="This is an alternative implementation of QCString.">
<polygon fill="white" stroke="#666666" points="141.5,-85 82.5,-85 82.5,-66 141.5,-66 141.5,-85"/>
<text text-anchor="middle" x="112" y="-73" font-family="Helvetica,sans-Serif" font-size="10.00">QCString</text>
</a>
</g>
</g>
<!-- Node3&#45;&gt;Node1 -->
<g id="edge2_Node000001_Node000003" class="edge">
<title>Node3&#45;&gt;Node1</title>
<g id="a_edge2_Node000001_Node000003"><a xlink:title=" ">
<path fill="none" stroke="#9a32cd" stroke-dasharray="5,2" d="M101.09,-57.05C93.48,-44.86 83.63,-29.11 77.57,-19.41"/>
<polygon fill="#9a32cd" stroke="#9a32cd" points="98.34,-59.24 106.61,-65.87 104.27,-55.53 98.34,-59.24"/>
</a>
</g>
<text text-anchor="middle" x="112.5" y="-40" font-family="Helvetica,sans-Serif" font-size="10.00" fill="grey"> anchor</text>
</g>
</g>
</svg>
