<?xml version="1.0" encoding="UTF-8" standalone="no"?>
<!DOCTYPE svg PUBLIC "-//W3C//DTD SVG 1.1//EN"
 "http://www.w3.org/Graphics/SVG/1.1/DTD/svg11.dtd">
<!-- Generated by graphviz version 2.43.0 (0)
 -->
<!-- Title: src/ftvhelp.h Pages: 1 -->
<svg width="1565pt" height="137pt"
 viewBox="0.00 0.00 1565.00 137.00" xmlns="http://www.w3.org/2000/svg" xmlns:xlink="http://www.w3.org/1999/xlink">
<g id="graph0" class="graph" transform="scale(1 1) rotate(0) translate(4 133)">
<title>src/ftvhelp.h</title>
<!-- Node1 -->
<g id="Node000001" class="node">
<title>Node1</title>
<g id="a_Node000001"><a xlink:title=" ">
<polygon fill="#999999" stroke="#666666" points="306.5,-129 229.5,-129 229.5,-110 306.5,-110 306.5,-129"/>
<text text-anchor="middle" x="268" y="-117" font-family="Helvetica,sans-Serif" font-size="10.00">src/ftvhelp.h</text>
</a>
</g>
</g>
<!-- Node2 -->
<g id="Node000002" class="node">
<title>Node2</title>
<g id="a_Node000002"><a xlink:href="../../dc/d98/doxygen_8cpp.html" target="_top" xlink:title=" ">
<polygon fill="white" stroke="#666666" points="96,-19 0,-19 0,0 96,0 96,-19"/>
<text text-anchor="middle" x="48" y="-7" font-family="Helvetica,sans-Serif" font-size="10.00">src/doxygen.cpp</text>
</a>
</g>
</g>
<!-- Node1&#45;&gt;Node2 -->
<g id="edge1_Node000001_Node000002" class="edge">
<title>Node1&#45;&gt;Node2</title>
<g id="a_edge1_Node000001_Node000002"><a xlink:title=" ">
<path fill="none" stroke="#63b8ff" d="M241.37,-105.43C195.72,-83.02 103.76,-37.87 65.41,-19.05"/>
<polygon fill="#63b8ff" stroke="#63b8ff" points="239.85,-108.58 250.37,-109.84 242.93,-102.3 239.85,-108.58"/>
</a>
</g>
</g>
<!-- Node3 -->
<g id="Node000003" class="node">
<title>Node3</title>
<g id="a_Node000003"><a xlink:href="../../db/d41/ftvhelp_8cpp.html" target="_top" xlink:title=" ">
<polygon fill="white" stroke="#666666" points="817,-74 729,-74 729,-55 817,-55 817,-74"/>
<text text-anchor="middle" x="773" y="-62" font-family="Helvetica,sans-Serif" font-size="10.00">src/ftvhelp.cpp</text>
</a>
</g>
</g>
<!-- Node1&#45;&gt;Node3 -->
<g id="edge2_Node000001_Node000003" class="edge">
<title>Node1&#45;&gt;Node3</title>
<g id="a_edge2_Node000001_Node000003"><a xlink:title=" ">
<path fill="none" stroke="#63b8ff" d="M316.94,-114.67C399.99,-107.94 573.76,-92.91 720,-74 722.87,-73.63 725.81,-73.22 728.78,-72.8"/>
<polygon fill="#63b8ff" stroke="#63b8ff" points="316.47,-111.19 306.79,-115.48 317.03,-118.17 316.47,-111.19"/>
</a>
</g>
</g>
<!-- Node4 -->
<g id="Node000004" class="node">
<title>Node4</title>
<g id="a_Node000004"><a xlink:href="../../d8/d6e/htmlgen_8cpp.html" target="_top" xlink:title=" ">
<polygon fill="white" stroke="#666666" points="209.5,-19 114.5,-19 114.5,0 209.5,0 209.5,-19"/>
<text text-anchor="middle" x="162" y="-7" font-family="Helvetica,sans-Serif" font-size="10.00">src/htmlgen.cpp</text>
</a>
</g>
</g>
<!-- Node1&#45;&gt;Node4 -->
<g id="edge3_Node000001_Node000004" class="edge">
<title>Node1&#45;&gt;Node4</title>
<g id="a_edge3_Node000001_Node000004"><a xlink:title=" ">
<path fill="none" stroke="#63b8ff" d="M252.1,-102.3C229.33,-79.1 188.21,-37.21 170.5,-19.16"/>
<polygon fill="#63b8ff" stroke="#63b8ff" points="249.82,-104.98 259.33,-109.66 254.82,-100.07 249.82,-104.98"/>
</a>
</g>
</g>
<!-- Node5 -->
<g id="Node000005" class="node">
<title>Node5</title>
<g id="a_Node000005"><a xlink:href="../../db/d14/index_8cpp.html" target="_top" xlink:title="This file contains functions for the various index pages.">
<polygon fill="white" stroke="#666666" points="308.5,-19 227.5,-19 227.5,0 308.5,0 308.5,-19"/>
<text text-anchor="middle" x="268" y="-7" font-family="Helvetica,sans-Serif" font-size="10.00">src/index.cpp</text>
</a>
</g>
</g>
<!-- Node1&#45;&gt;Node5 -->
<g id="edge4_Node000001_Node000005" class="edge">
<title>Node1&#45;&gt;Node5</title>
<g id="a_edge4_Node000001_Node000005"><a xlink:title=" ">
<path fill="none" stroke="#63b8ff" d="M268,-99.48C268,-75.84 268,-36.5 268,-19.16"/>
<polygon fill="#63b8ff" stroke="#63b8ff" points="264.5,-99.66 268,-109.66 271.5,-99.66 264.5,-99.66"/>
</a>
</g>
</g>
<!-- Node6 -->
<g id="Node000006" class="node">
<title>Node6</title>
<g id="a_Node000006"><a xlink:href="../../d5/d61/indexlist_8h.html" target="_top" xlink:title=" ">
<polygon fill="white" stroke="#666666" points="710.5,-74 625.5,-74 625.5,-55 710.5,-55 710.5,-74"/>
<text text-anchor="middle" x="668" y="-62" font-family="Helvetica,sans-Serif" font-size="10.00">src/indexlist.h</text>
</a>
</g>
</g>
<!-- Node1&#45;&gt;Node6 -->
<g id="edge5_Node000001_Node000006" class="edge">
<title>Node1&#45;&gt;Node6</title>
<g id="a_edge5_Node000001_Node000006"><a xlink:title=" ">
<path fill="none" stroke="#63b8ff" d="M316.89,-112.02C395.95,-101.55 550.51,-81.07 625.36,-71.15"/>
<polygon fill="#63b8ff" stroke="#63b8ff" points="316.17,-108.59 306.72,-113.37 317.09,-115.53 316.17,-108.59"/>
</a>
</g>
</g>
<!-- Node6&#45;&gt;Node2 -->
<g id="edge11_Node000006_Node000002" class="edge">
<title>Node6&#45;&gt;Node2</title>
<g id="a_edge11_Node000006_Node000002"><a xlink:title=" ">
<path fill="none" stroke="#63b8ff" d="M615.03,-60.54C515.11,-54.68 292,-40.31 105,-19 102.12,-18.67 99.16,-18.31 96.17,-17.92"/>
<polygon fill="#63b8ff" stroke="#63b8ff" points="614.99,-64.04 625.17,-61.13 615.39,-57.05 614.99,-64.04"/>
</a>
</g>
</g>
<!-- Node6&#45;&gt;Node4 -->
<g id="edge14_Node000006_Node000004" class="edge">
<title>Node6&#45;&gt;Node4</title>
<g id="a_edge14_Node000006_Node000004"><a xlink:title=" ">
<path fill="none" stroke="#63b8ff" d="M615.35,-59.19C531.23,-52.1 361.39,-36.96 218,-19 215.27,-18.66 212.46,-18.29 209.64,-17.9"/>
<polygon fill="#63b8ff" stroke="#63b8ff" points="615.16,-62.69 625.42,-60.03 615.75,-55.71 615.16,-62.69"/>
</a>
</g>
</g>
<!-- Node6&#45;&gt;Node5 -->
<g id="edge15_Node000006_Node000005" class="edge">
<title>Node6&#45;&gt;Node5</title>
<g id="a_edge15_Node000006_Node000005"><a xlink:title=" ">
<path fill="none" stroke="#63b8ff" d="M615.24,-57.49C546.64,-49.52 423.18,-34.62 318,-19 314.95,-18.55 311.8,-18.06 308.64,-17.55"/>
<polygon fill="#63b8ff" stroke="#63b8ff" points="615.02,-60.99 625.36,-58.66 615.83,-54.03 615.02,-60.99"/>
</a>
</g>
</g>
<!-- Node7 -->
<g id="Node000007" class="node">
<title>Node7</title>
<g id="a_Node000007"><a xlink:href="../../d3/dea/definition_8cpp.html" target="_top" xlink:title=" ">
<polygon fill="white" stroke="#666666" points="660,-19 560,-19 560,0 660,0 660,-19"/>
<text text-anchor="middle" x="610" y="-7" font-family="Helvetica,sans-Serif" font-size="10.00">src/definition.cpp</text>
</a>
</g>
</g>
<!-- Node6&#45;&gt;Node7 -->
<g id="edge6_Node000006_Node000007" class="edge">
<title>Node6&#45;&gt;Node7</title>
<g id="a_edge6_Node000006_Node000007"><a xlink:title=" ">
<path fill="none" stroke="#63b8ff" d="M651.09,-48.04C640.8,-38.64 628.03,-26.98 619.49,-19.17"/>
<polygon fill="#63b8ff" stroke="#63b8ff" points="648.94,-50.82 658.68,-54.98 653.66,-45.66 648.94,-50.82"/>
</a>
</g>
</g>
<!-- Node8 -->
<g id="Node000008" class="node">
<title>Node8</title>
<g id="a_Node000008"><a xlink:href="../../da/d0d/diagram_8cpp.html" target="_top" xlink:title=" ">
<polygon fill="white" stroke="#666666" points="773.5,-19 678.5,-19 678.5,0 773.5,0 773.5,-19"/>
<text text-anchor="middle" x="726" y="-7" font-family="Helvetica,sans-Serif" font-size="10.00">src/diagram.cpp</text>
</a>
</g>
</g>
<!-- Node6&#45;&gt;Node8 -->
<g id="edge7_Node000006_Node000008" class="edge">
<title>Node6&#45;&gt;Node8</title>
<g id="a_edge7_Node000006_Node000008"><a xlink:title=" ">
<path fill="none" stroke="#63b8ff" d="M684.91,-48.04C695.2,-38.64 707.97,-26.98 716.51,-19.17"/>
<polygon fill="#63b8ff" stroke="#63b8ff" points="682.34,-45.66 677.32,-54.98 687.06,-50.82 682.34,-45.66"/>
</a>
</g>
</g>
<!-- Node9 -->
<g id="Node000009" class="node">
<title>Node9</title>
<g id="a_Node000009"><a xlink:href="../../da/d17/docparser_8cpp.html" target="_top" xlink:title=" ">
<polygon fill="white" stroke="#666666" points="892.5,-19 791.5,-19 791.5,0 892.5,0 892.5,-19"/>
<text text-anchor="middle" x="842" y="-7" font-family="Helvetica,sans-Serif" font-size="10.00">src/docparser.cpp</text>
</a>
</g>
</g>
<!-- Node6&#45;&gt;Node9 -->
<g id="edge8_Node000006_Node000009" class="edge">
<title>Node6&#45;&gt;Node9</title>
<g id="a_edge8_Node000006_Node000009"><a xlink:title=" ">
<path fill="none" stroke="#63b8ff" d="M705.57,-52.06C738.09,-42.15 784.4,-28.04 813.82,-19.08"/>
<polygon fill="#63b8ff" stroke="#63b8ff" points="704.5,-48.72 695.96,-54.98 706.54,-55.42 704.5,-48.72"/>
</a>
</g>
</g>
<!-- Node10 -->
<g id="Node000010" class="node">
<title>Node10</title>
<g id="a_Node000010"><a xlink:href="../../de/daa/dot_8cpp.html" target="_top" xlink:title=" ">
<polygon fill="white" stroke="#666666" points="981,-19 911,-19 911,0 981,0 981,-19"/>
<text text-anchor="middle" x="946" y="-7" font-family="Helvetica,sans-Serif" font-size="10.00">src/dot.cpp</text>
</a>
</g>
</g>
<!-- Node6&#45;&gt;Node10 -->
<g id="edge9_Node000006_Node000010" class="edge">
<title>Node6&#45;&gt;Node10</title>
<g id="a_edge9_Node000006_Node000010"><a xlink:title=" ">
<path fill="none" stroke="#63b8ff" d="M720.74,-53.51C768.18,-44.52 839.76,-30.93 902,-19 904.9,-18.44 907.91,-17.86 910.94,-17.28"/>
<polygon fill="#63b8ff" stroke="#63b8ff" points="719.88,-50.12 710.71,-55.42 721.18,-56.99 719.88,-50.12"/>
</a>
</g>
</g>
<!-- Node11 -->
<g id="Node000011" class="node">
<title>Node11</title>
<g id="a_Node000011"><a xlink:href="../../de/d45/dotgraph_8cpp.html" target="_top" xlink:title=" ">
<polygon fill="white" stroke="#666666" points="1097,-19 999,-19 999,0 1097,0 1097,-19"/>
<text text-anchor="middle" x="1048" y="-7" font-family="Helvetica,sans-Serif" font-size="10.00">src/dotgraph.cpp</text>
</a>
</g>
</g>
<!-- Node6&#45;&gt;Node11 -->
<g id="edge10_Node000006_Node000011" class="edge">
<title>Node6&#45;&gt;Node11</title>
<g id="a_edge10_Node000006_Node000011"><a xlink:title=" ">
<path fill="none" stroke="#63b8ff" d="M720.57,-54.96C841.41,-37.15 873.27,-35.34 990,-19 992.92,-18.59 995.93,-18.17 998.96,-17.73"/>
<polygon fill="#63b8ff" stroke="#63b8ff" points="719.93,-51.51 710.55,-56.44 720.96,-58.44 719.93,-51.51"/>
</a>
</g>
</g>
<!-- Node12 -->
<g id="Node000012" class="node">
<title>Node12</title>
<g id="a_Node000012"><a xlink:href="../../d7/d5b/formula_8cpp.html" target="_top" xlink:title=" ">
<polygon fill="white" stroke="#666666" points="1207,-19 1115,-19 1115,0 1207,0 1207,-19"/>
<text text-anchor="middle" x="1161" y="-7" font-family="Helvetica,sans-Serif" font-size="10.00">src/formula.cpp</text>
</a>
</g>
</g>
<!-- Node6&#45;&gt;Node12 -->
<g id="edge12_Node000006_Node000012" class="edge">
<title>Node6&#45;&gt;Node12</title>
<g id="a_edge12_Node000006_Node000012"><a xlink:title=" ">
<path fill="none" stroke="#63b8ff" d="M720.69,-55.01C892.63,-33.35 938.26,-39.76 1106,-19 1108.88,-18.64 1111.83,-18.25 1114.81,-17.84"/>
<polygon fill="#63b8ff" stroke="#63b8ff" points="720.01,-51.57 710.53,-56.3 720.89,-58.51 720.01,-51.57"/>
</a>
</g>
</g>
<!-- Node13 -->
<g id="Node000013" class="node">
<title>Node13</title>
<g id="a_Node000013"><a xlink:href="../../da/db0/htmldocvisitor_8cpp.html" target="_top" xlink:title=" ">
<polygon fill="white" stroke="#666666" points="1349,-19 1225,-19 1225,0 1349,0 1349,-19"/>
<text text-anchor="middle" x="1287" y="-7" font-family="Helvetica,sans-Serif" font-size="10.00">src/htmldocvisitor.cpp</text>
</a>
</g>
</g>
<!-- Node6&#45;&gt;Node13 -->
<g id="edge13_Node000006_Node000013" class="edge">
<title>Node6&#45;&gt;Node13</title>
<g id="a_edge13_Node000006_Node000013"><a xlink:title=" ">
<path fill="none" stroke="#63b8ff" d="M720.48,-55.06C941.2,-29.46 999.21,-39.83 1216,-19 1218.84,-18.73 1221.75,-18.43 1224.68,-18.13"/>
<polygon fill="#63b8ff" stroke="#63b8ff" points="720.05,-51.59 710.52,-56.23 720.86,-58.54 720.05,-51.59"/>
</a>
</g>
</g>
<!-- Node14 -->
<g id="Node000014" class="node">
<title>Node14</title>
<g id="a_Node000014"><a xlink:href="../../db/d33/msc_8cpp.html" target="_top" xlink:title=" ">
<polygon fill="white" stroke="#666666" points="1441,-19 1367,-19 1367,0 1441,0 1441,-19"/>
<text text-anchor="middle" x="1404" y="-7" font-family="Helvetica,sans-Serif" font-size="10.00">src/msc.cpp</text>
</a>
</g>
</g>
<!-- Node6&#45;&gt;Node14 -->
<g id="edge16_Node000006_Node000014" class="edge">
<title>Node6&#45;&gt;Node14</title>
<g id="a_edge16_Node000006_Node000014"><a xlink:title=" ">
<path fill="none" stroke="#63b8ff" d="M720.69,-55.07C1004.07,-24.72 1079.32,-52.47 1358,-19 1360.9,-18.65 1363.9,-18.23 1366.9,-17.77"/>
<polygon fill="#63b8ff" stroke="#63b8ff" points="720.08,-51.62 710.52,-56.17 720.84,-58.57 720.08,-51.62"/>
</a>
</g>
</g>
<!-- Node15 -->
<g id="Node000015" class="node">
<title>Node15</title>
<g id="a_Node000015"><a xlink:href="../../d7/d5b/plantuml_8cpp.html" target="_top" xlink:title=" ">
<polygon fill="white" stroke="#666666" points="1557,-19 1459,-19 1459,0 1557,0 1557,-19"/>
<text text-anchor="middle" x="1508" y="-7" font-family="Helvetica,sans-Serif" font-size="10.00">src/plantuml.cpp</text>
</a>
</g>
</g>
<!-- Node6&#45;&gt;Node15 -->
<g id="edge17_Node000006_Node000015" class="edge">
<title>Node6&#45;&gt;Node15</title>
<g id="a_edge17_Node000006_Node000015"><a xlink:title=" ">
<path fill="none" stroke="#63b8ff" d="M720.67,-55.08C1044.77,-21.35 1130.02,-50.26 1450,-19 1452.94,-18.71 1455.95,-18.38 1458.99,-18.02"/>
<polygon fill="#63b8ff" stroke="#63b8ff" points="720.09,-51.62 710.51,-56.15 720.83,-58.58 720.09,-51.62"/>
</a>
</g>
</g>
<!-- Node16 -->
<g id="Node000016" class="node">
<title>Node16</title>
<g id="a_Node000016"><a xlink:href="../../d9/d2f/searchindex__js_8cpp.html" target="_top" xlink:title=" ">
<polygon fill="white" stroke="#666666" points="453.5,-19 326.5,-19 326.5,0 453.5,0 453.5,-19"/>
<text text-anchor="middle" x="390" y="-7" font-family="Helvetica,sans-Serif" font-size="10.00">src/searchindex_js.cpp</text>
</a>
</g>
</g>
<!-- Node6&#45;&gt;Node16 -->
<g id="edge18_Node000006_Node000016" class="edge">
<title>Node6&#45;&gt;Node16</title>
<g id="a_edge18_Node000006_Node000016"><a xlink:title=" ">
<path fill="none" stroke="#63b8ff" d="M615.41,-53.47C563.23,-43.53 484.11,-28.44 434.82,-19.05"/>
<polygon fill="#63b8ff" stroke="#63b8ff" points="615,-56.96 625.48,-55.39 616.31,-50.08 615,-56.96"/>
</a>
</g>
</g>
<!-- Node17 -->
<g id="Node000017" class="node">
<title>Node17</title>
<g id="a_Node000017"><a xlink:href="../../df/d2d/util_8cpp.html" target="_top" xlink:title=" ">
<polygon fill="white" stroke="#666666" points="542,-19 472,-19 472,0 542,0 542,-19"/>
<text text-anchor="middle" x="507" y="-7" font-family="Helvetica,sans-Serif" font-size="10.00">src/util.cpp</text>
</a>
</g>
</g>
<!-- Node6&#45;&gt;Node17 -->
<g id="edge19_Node000006_Node000017" class="edge">
<title>Node6&#45;&gt;Node17</title>
<g id="a_edge19_Node000006_Node000017"><a xlink:title=" ">
<path fill="none" stroke="#63b8ff" d="M632.45,-51.8C602.41,-41.91 560.06,-27.97 533.07,-19.08"/>
<polygon fill="#63b8ff" stroke="#63b8ff" points="631.54,-55.18 642.13,-54.98 633.73,-48.53 631.54,-55.18"/>
</a>
</g>
</g>
</g>
</svg>
