<?xml version="1.0" encoding="UTF-8" standalone="no"?>
<!DOCTYPE svg PUBLIC "-//W3C//DTD SVG 1.1//EN"
 "http://www.w3.org/Graphics/SVG/1.1/DTD/svg11.dtd">
<!-- Generated by graphviz version 2.43.0 (0)
 -->
<!-- Title: /home/runner/work/doxygen/doxygen/src/ftvhelp.h Pages: 1 -->
<svg width="2438pt" height="170pt"
 viewBox="0.00 0.00 2438.00 170.00" xmlns="http://www.w3.org/2000/svg" xmlns:xlink="http://www.w3.org/1999/xlink">
<g id="graph0" class="graph" transform="scale(1 1) rotate(0) translate(4 166)">
<title>/home/runner/work/doxygen/doxygen/src/ftvhelp.h</title>
<!-- Node1 -->
<g id="Node000001" class="node">
<title>Node1</title>
<g id="a_Node000001"><a xlink:title=" ">
<polygon fill="#999999" stroke="#666666" points="498,-162 344,-162 344,-132 498,-132 498,-162"/>
<text text-anchor="start" x="352" y="-150" font-family="Helvetica,sans-Serif" font-size="10.00">/home/runner/work/doxygen</text>
<text text-anchor="middle" x="421" y="-139" font-family="Helvetica,sans-Serif" font-size="10.00">/doxygen/src/ftvhelp.h</text>
</a>
</g>
</g>
<!-- Node2 -->
<g id="Node000002" class="node">
<title>Node2</title>
<g id="a_Node000002"><a xlink:href="../../dc/d98/doxygen_8cpp.html" target="_top" xlink:title=" ">
<polygon fill="white" stroke="#666666" points="154,-30 0,-30 0,0 154,0 154,-30"/>
<text text-anchor="start" x="8" y="-18" font-family="Helvetica,sans-Serif" font-size="10.00">/home/runner/work/doxygen</text>
<text text-anchor="middle" x="77" y="-7" font-family="Helvetica,sans-Serif" font-size="10.00">/doxygen/src/doxygen.cpp</text>
</a>
</g>
</g>
<!-- Node1&#45;&gt;Node2 -->
<g id="edge1_Node000001_Node000002" class="edge">
<title>Node1&#45;&gt;Node2</title>
<g id="a_edge1_Node000001_Node000002"><a xlink:title=" ">
<path fill="none" stroke="#63b8ff" d="M374.11,-128.28C305.04,-102.18 177.32,-53.91 114.25,-30.08"/>
<polygon fill="#63b8ff" stroke="#63b8ff" points="373.27,-131.7 383.86,-131.96 375.74,-125.16 373.27,-131.7"/>
</a>
</g>
</g>
<!-- Node3 -->
<g id="Node000003" class="node">
<title>Node3</title>
<g id="a_Node000003"><a xlink:href="../../db/d41/ftvhelp_8cpp.html" target="_top" xlink:title=" ">
<polygon fill="white" stroke="#666666" points="1294,-96 1140,-96 1140,-66 1294,-66 1294,-96"/>
<text text-anchor="start" x="1148" y="-84" font-family="Helvetica,sans-Serif" font-size="10.00">/home/runner/work/doxygen</text>
<text text-anchor="middle" x="1217" y="-73" font-family="Helvetica,sans-Serif" font-size="10.00">/doxygen/src/ftvhelp.cpp</text>
</a>
</g>
</g>
<!-- Node1&#45;&gt;Node3 -->
<g id="edge2_Node000001_Node000003" class="edge">
<title>Node1&#45;&gt;Node3</title>
<g id="a_edge2_Node000001_Node000003"><a xlink:title=" ">
<path fill="none" stroke="#63b8ff" d="M508.39,-142.41C642.62,-136.32 907.45,-122.01 1131,-96 1133.85,-95.67 1136.76,-95.31 1139.69,-94.93"/>
<polygon fill="#63b8ff" stroke="#63b8ff" points="508.01,-138.92 498.17,-142.87 508.32,-145.92 508.01,-138.92"/>
</a>
</g>
</g>
<!-- Node4 -->
<g id="Node000004" class="node">
<title>Node4</title>
<g id="a_Node000004"><a xlink:href="../../d8/d6e/htmlgen_8cpp.html" target="_top" xlink:title=" ">
<polygon fill="white" stroke="#666666" points="326,-30 172,-30 172,0 326,0 326,-30"/>
<text text-anchor="start" x="180" y="-18" font-family="Helvetica,sans-Serif" font-size="10.00">/home/runner/work/doxygen</text>
<text text-anchor="middle" x="249" y="-7" font-family="Helvetica,sans-Serif" font-size="10.00">/doxygen/src/htmlgen.cpp</text>
</a>
</g>
</g>
<!-- Node1&#45;&gt;Node4 -->
<g id="edge3_Node000001_Node000004" class="edge">
<title>Node1&#45;&gt;Node4</title>
<g id="a_edge3_Node000001_Node000004"><a xlink:title=" ">
<path fill="none" stroke="#63b8ff" d="M393.9,-125.52C358.71,-98.92 298.2,-53.18 267.71,-30.14"/>
<polygon fill="#63b8ff" stroke="#63b8ff" points="392.18,-128.6 402.27,-131.84 396.4,-123.02 392.18,-128.6"/>
</a>
</g>
</g>
<!-- Node5 -->
<g id="Node000005" class="node">
<title>Node5</title>
<g id="a_Node000005"><a xlink:href="../../db/d14/index_8cpp.html" target="_top" xlink:title="This file contains functions for the various index pages.">
<polygon fill="white" stroke="#666666" points="498,-30 344,-30 344,0 498,0 498,-30"/>
<text text-anchor="start" x="352" y="-18" font-family="Helvetica,sans-Serif" font-size="10.00">/home/runner/work/doxygen</text>
<text text-anchor="middle" x="421" y="-7" font-family="Helvetica,sans-Serif" font-size="10.00">/doxygen/src/index.cpp</text>
</a>
</g>
</g>
<!-- Node1&#45;&gt;Node5 -->
<g id="edge4_Node000001_Node000005" class="edge">
<title>Node1&#45;&gt;Node5</title>
<g id="a_edge4_Node000001_Node000005"><a xlink:title=" ">
<path fill="none" stroke="#63b8ff" d="M421,-121.68C421,-94.7 421,-52.11 421,-30.14"/>
<polygon fill="#63b8ff" stroke="#63b8ff" points="417.5,-121.84 421,-131.84 424.5,-121.84 417.5,-121.84"/>
</a>
</g>
</g>
<!-- Node6 -->
<g id="Node000006" class="node">
<title>Node6</title>
<g id="a_Node000006"><a xlink:href="../../d5/d61/indexlist_8h.html" target="_top" xlink:title=" ">
<polygon fill="white" stroke="#666666" points="1122,-96 968,-96 968,-66 1122,-66 1122,-96"/>
<text text-anchor="start" x="976" y="-84" font-family="Helvetica,sans-Serif" font-size="10.00">/home/runner/work/doxygen</text>
<text text-anchor="middle" x="1045" y="-73" font-family="Helvetica,sans-Serif" font-size="10.00">/doxygen/src/indexlist.h</text>
</a>
</g>
</g>
<!-- Node1&#45;&gt;Node6 -->
<g id="edge5_Node000001_Node000006" class="edge">
<title>Node1&#45;&gt;Node6</title>
<g id="a_edge5_Node000001_Node000006"><a xlink:title=" ">
<path fill="none" stroke="#63b8ff" d="M508.21,-137.06C630.45,-124.52 850.8,-101.92 967.55,-89.94"/>
<polygon fill="#63b8ff" stroke="#63b8ff" points="507.73,-133.59 498.14,-138.09 508.45,-140.55 507.73,-133.59"/>
</a>
</g>
</g>
<!-- Node6&#45;&gt;Node2 -->
<g id="edge11_Node000006_Node000002" class="edge">
<title>Node6&#45;&gt;Node2</title>
<g id="a_edge11_Node000006_Node000002"><a xlink:title=" ">
<path fill="none" stroke="#63b8ff" d="M957.62,-78.08C798.93,-73.91 452.98,-61.73 163,-30 160.14,-29.69 157.24,-29.34 154.3,-28.98"/>
<polygon fill="#63b8ff" stroke="#63b8ff" points="957.71,-81.58 967.79,-78.34 957.89,-74.58 957.71,-81.58"/>
</a>
</g>
</g>
<!-- Node6&#45;&gt;Node4 -->
<g id="edge14_Node000006_Node000004" class="edge">
<title>Node6&#45;&gt;Node4</title>
<g id="a_edge14_Node000006_Node000004"><a xlink:title=" ">
<path fill="none" stroke="#63b8ff" d="M957.61,-76.41C823.38,-70.32 558.55,-56.01 335,-30 332.15,-29.67 329.24,-29.31 326.31,-28.93"/>
<polygon fill="#63b8ff" stroke="#63b8ff" points="957.68,-79.92 967.83,-76.87 957.99,-72.92 957.68,-79.92"/>
</a>
</g>
</g>
<!-- Node6&#45;&gt;Node5 -->
<g id="edge15_Node000006_Node000005" class="edge">
<title>Node6&#45;&gt;Node5</title>
<g id="a_edge15_Node000006_Node000005"><a xlink:title=" ">
<path fill="none" stroke="#63b8ff" d="M957.86,-73.68C851.46,-65.56 666.15,-50.06 508,-30 504.81,-29.6 501.56,-29.16 498.28,-28.71"/>
<polygon fill="#63b8ff" stroke="#63b8ff" points="957.67,-77.18 967.9,-74.45 958.2,-70.2 957.67,-77.18"/>
</a>
</g>
</g>
<!-- Node7 -->
<g id="Node000007" class="node">
<title>Node7</title>
<g id="a_Node000007"><a xlink:href="../../d3/dea/definition_8cpp.html" target="_top" xlink:title=" ">
<polygon fill="white" stroke="#666666" points="1036,-30 882,-30 882,0 1036,0 1036,-30"/>
<text text-anchor="start" x="890" y="-18" font-family="Helvetica,sans-Serif" font-size="10.00">/home/runner/work/doxygen</text>
<text text-anchor="middle" x="959" y="-7" font-family="Helvetica,sans-Serif" font-size="10.00">/doxygen/src/definition.cpp</text>
</a>
</g>
</g>
<!-- Node6&#45;&gt;Node7 -->
<g id="edge6_Node000006_Node000007" class="edge">
<title>Node6&#45;&gt;Node7</title>
<g id="a_edge6_Node000006_Node000007"><a xlink:title=" ">
<path fill="none" stroke="#63b8ff" d="M1017.79,-59.75C1004.86,-50.13 989.71,-38.86 978.03,-30.16"/>
<polygon fill="#63b8ff" stroke="#63b8ff" points="1015.8,-62.63 1025.91,-65.8 1019.98,-57.02 1015.8,-62.63"/>
</a>
</g>
</g>
<!-- Node8 -->
<g id="Node000008" class="node">
<title>Node8</title>
<g id="a_Node000008"><a xlink:href="../../da/d0d/diagram_8cpp.html" target="_top" xlink:title=" ">
<polygon fill="white" stroke="#666666" points="1208,-30 1054,-30 1054,0 1208,0 1208,-30"/>
<text text-anchor="start" x="1062" y="-18" font-family="Helvetica,sans-Serif" font-size="10.00">/home/runner/work/doxygen</text>
<text text-anchor="middle" x="1131" y="-7" font-family="Helvetica,sans-Serif" font-size="10.00">/doxygen/src/diagram.cpp</text>
</a>
</g>
</g>
<!-- Node6&#45;&gt;Node8 -->
<g id="edge7_Node000006_Node000008" class="edge">
<title>Node6&#45;&gt;Node8</title>
<g id="a_edge7_Node000006_Node000008"><a xlink:title=" ">
<path fill="none" stroke="#63b8ff" d="M1072.21,-59.75C1085.14,-50.13 1100.29,-38.86 1111.97,-30.16"/>
<polygon fill="#63b8ff" stroke="#63b8ff" points="1070.02,-57.02 1064.09,-65.8 1074.2,-62.63 1070.02,-57.02"/>
</a>
</g>
</g>
<!-- Node9 -->
<g id="Node000009" class="node">
<title>Node9</title>
<g id="a_Node000009"><a xlink:href="../../da/d17/docparser_8cpp.html" target="_top" xlink:title=" ">
<polygon fill="white" stroke="#666666" points="1380,-30 1226,-30 1226,0 1380,0 1380,-30"/>
<text text-anchor="start" x="1234" y="-18" font-family="Helvetica,sans-Serif" font-size="10.00">/home/runner/work/doxygen</text>
<text text-anchor="middle" x="1303" y="-7" font-family="Helvetica,sans-Serif" font-size="10.00">/doxygen/src/docparser.cpp</text>
</a>
</g>
</g>
<!-- Node6&#45;&gt;Node9 -->
<g id="edge8_Node000006_Node000009" class="edge">
<title>Node6&#45;&gt;Node9</title>
<g id="a_edge8_Node000006_Node000009"><a xlink:title=" ">
<path fill="none" stroke="#63b8ff" d="M1111.45,-63.52C1153.29,-53.14 1206.72,-39.88 1246.51,-30.01"/>
<polygon fill="#63b8ff" stroke="#63b8ff" points="1110.48,-60.15 1101.62,-65.95 1112.17,-66.94 1110.48,-60.15"/>
</a>
</g>
</g>
<!-- Node10 -->
<g id="Node000010" class="node">
<title>Node10</title>
<g id="a_Node000010"><a xlink:href="../../de/daa/dot_8cpp.html" target="_top" xlink:title=" ">
<polygon fill="white" stroke="#666666" points="1552,-30 1398,-30 1398,0 1552,0 1552,-30"/>
<text text-anchor="start" x="1406" y="-18" font-family="Helvetica,sans-Serif" font-size="10.00">/home/runner/work/doxygen</text>
<text text-anchor="middle" x="1475" y="-7" font-family="Helvetica,sans-Serif" font-size="10.00">/doxygen/src/dot.cpp</text>
</a>
</g>
</g>
<!-- Node6&#45;&gt;Node10 -->
<g id="edge9_Node000006_Node000010" class="edge">
<title>Node6&#45;&gt;Node10</title>
<g id="a_edge9_Node000006_Node000010"><a xlink:title=" ">
<path fill="none" stroke="#63b8ff" d="M1132.24,-65.83C1247.13,-48.61 1277.65,-46.83 1389,-30 1391.84,-29.57 1394.74,-29.13 1397.66,-28.68"/>
<polygon fill="#63b8ff" stroke="#63b8ff" points="1131.71,-62.37 1122.34,-67.32 1132.75,-69.3 1131.71,-62.37"/>
</a>
</g>
</g>
<!-- Node11 -->
<g id="Node000011" class="node">
<title>Node11</title>
<g id="a_Node000011"><a xlink:href="../../de/d45/dotgraph_8cpp.html" target="_top" xlink:title=" ">
<polygon fill="white" stroke="#666666" points="1724,-30 1570,-30 1570,0 1724,0 1724,-30"/>
<text text-anchor="start" x="1578" y="-18" font-family="Helvetica,sans-Serif" font-size="10.00">/home/runner/work/doxygen</text>
<text text-anchor="middle" x="1647" y="-7" font-family="Helvetica,sans-Serif" font-size="10.00">/doxygen/src/dotgraph.cpp</text>
</a>
</g>
</g>
<!-- Node6&#45;&gt;Node11 -->
<g id="edge10_Node000006_Node000011" class="edge">
<title>Node6&#45;&gt;Node11</title>
<g id="a_edge10_Node000006_Node000011"><a xlink:title=" ">
<path fill="none" stroke="#63b8ff" d="M1132.39,-65.89C1323.07,-42.94 1373.91,-53.02 1561,-30 1563.85,-29.65 1566.76,-29.27 1569.69,-28.88"/>
<polygon fill="#63b8ff" stroke="#63b8ff" points="1131.82,-62.44 1122.31,-67.12 1132.66,-69.39 1131.82,-62.44"/>
</a>
</g>
</g>
<!-- Node12 -->
<g id="Node000012" class="node">
<title>Node12</title>
<g id="a_Node000012"><a xlink:href="../../d7/d5b/formula_8cpp.html" target="_top" xlink:title=" ">
<polygon fill="white" stroke="#666666" points="1896,-30 1742,-30 1742,0 1896,0 1896,-30"/>
<text text-anchor="start" x="1750" y="-18" font-family="Helvetica,sans-Serif" font-size="10.00">/home/runner/work/doxygen</text>
<text text-anchor="middle" x="1819" y="-7" font-family="Helvetica,sans-Serif" font-size="10.00">/doxygen/src/formula.cpp</text>
</a>
</g>
</g>
<!-- Node6&#45;&gt;Node12 -->
<g id="edge12_Node000006_Node000012" class="edge">
<title>Node6&#45;&gt;Node12</title>
<g id="a_edge12_Node000006_Node000012"><a xlink:title=" ">
<path fill="none" stroke="#63b8ff" d="M1132.29,-65.94C1399.12,-36.99 1469.85,-59.21 1733,-30 1735.86,-29.68 1738.76,-29.34 1741.7,-28.96"/>
<polygon fill="#63b8ff" stroke="#63b8ff" points="1131.86,-62.46 1122.3,-67.04 1132.63,-69.42 1131.86,-62.46"/>
</a>
</g>
</g>
<!-- Node13 -->
<g id="Node000013" class="node">
<title>Node13</title>
<g id="a_Node000013"><a xlink:href="../../da/db0/htmldocvisitor_8cpp.html" target="_top" xlink:title=" ">
<polygon fill="white" stroke="#666666" points="2086,-30 1914,-30 1914,0 2086,0 2086,-30"/>
<text text-anchor="start" x="1922" y="-18" font-family="Helvetica,sans-Serif" font-size="10.00">/home/runner/work/doxygen</text>
<text text-anchor="middle" x="2000" y="-7" font-family="Helvetica,sans-Serif" font-size="10.00">/doxygen/src/htmldocvisitor.cpp</text>
</a>
</g>
</g>
<!-- Node6&#45;&gt;Node13 -->
<g id="edge13_Node000006_Node000013" class="edge">
<title>Node6&#45;&gt;Node13</title>
<g id="a_edge13_Node000006_Node000013"><a xlink:title=" ">
<path fill="none" stroke="#63b8ff" d="M1132.26,-65.96C1475.23,-30.89 1565.49,-62.83 1905,-30 1907.9,-29.72 1910.85,-29.41 1913.83,-29.08"/>
<polygon fill="#63b8ff" stroke="#63b8ff" points="1131.89,-62.48 1122.3,-66.99 1132.61,-69.44 1131.89,-62.48"/>
</a>
</g>
</g>
<!-- Node14 -->
<g id="Node000014" class="node">
<title>Node14</title>
<g id="a_Node000014"><a xlink:href="../../db/d33/msc_8cpp.html" target="_top" xlink:title=" ">
<polygon fill="white" stroke="#666666" points="2258,-30 2104,-30 2104,0 2258,0 2258,-30"/>
<text text-anchor="start" x="2112" y="-18" font-family="Helvetica,sans-Serif" font-size="10.00">/home/runner/work/doxygen</text>
<text text-anchor="middle" x="2181" y="-7" font-family="Helvetica,sans-Serif" font-size="10.00">/doxygen/src/msc.cpp</text>
</a>
</g>
</g>
<!-- Node6&#45;&gt;Node14 -->
<g id="edge16_Node000006_Node000014" class="edge">
<title>Node6&#45;&gt;Node14</title>
<g id="a_edge16_Node000006_Node000014"><a xlink:title=" ">
<path fill="none" stroke="#63b8ff" d="M1132.44,-65.95C1559.38,-24.23 1671.7,-72.19 2095,-30 2097.86,-29.71 2100.77,-29.4 2103.7,-29.05"/>
<polygon fill="#63b8ff" stroke="#63b8ff" points="1131.9,-62.49 1122.3,-66.95 1132.59,-69.45 1131.9,-62.49"/>
</a>
</g>
</g>
<!-- Node15 -->
<g id="Node000015" class="node">
<title>Node15</title>
<g id="a_Node000015"><a xlink:href="../../d7/d5b/plantuml_8cpp.html" target="_top" xlink:title=" ">
<polygon fill="white" stroke="#666666" points="2430,-30 2276,-30 2276,0 2430,0 2430,-30"/>
<text text-anchor="start" x="2284" y="-18" font-family="Helvetica,sans-Serif" font-size="10.00">/home/runner/work/doxygen</text>
<text text-anchor="middle" x="2353" y="-7" font-family="Helvetica,sans-Serif" font-size="10.00">/doxygen/src/plantuml.cpp</text>
</a>
</g>
</g>
<!-- Node6&#45;&gt;Node15 -->
<g id="edge17_Node000006_Node000015" class="edge">
<title>Node6&#45;&gt;Node15</title>
<g id="a_edge17_Node000006_Node000015"><a xlink:title=" ">
<path fill="none" stroke="#63b8ff" d="M1132.36,-65.97C1635.53,-18.12 1767.52,-78.36 2267,-30 2269.86,-29.72 2272.77,-29.41 2275.71,-29.07"/>
<polygon fill="#63b8ff" stroke="#63b8ff" points="1131.91,-62.49 1122.29,-66.93 1132.58,-69.46 1131.91,-62.49"/>
</a>
</g>
</g>
<!-- Node16 -->
<g id="Node000016" class="node">
<title>Node16</title>
<g id="a_Node000016"><a xlink:href="../../d9/d2f/searchindex__js_8cpp.html" target="_top" xlink:title=" ">
<polygon fill="white" stroke="#666666" points="691.5,-30 516.5,-30 516.5,0 691.5,0 691.5,-30"/>
<text text-anchor="start" x="524.5" y="-18" font-family="Helvetica,sans-Serif" font-size="10.00">/home/runner/work/doxygen</text>
<text text-anchor="middle" x="604" y="-7" font-family="Helvetica,sans-Serif" font-size="10.00">/doxygen/src/searchindex_js.cpp</text>
</a>
</g>
</g>
<!-- Node6&#45;&gt;Node16 -->
<g id="edge18_Node000006_Node000016" class="edge">
<title>Node6&#45;&gt;Node16</title>
<g id="a_edge18_Node000006_Node000016"><a xlink:title=" ">
<path fill="none" stroke="#63b8ff" d="M957.76,-67.34C880.66,-56.15 768.76,-39.91 691.56,-28.71"/>
<polygon fill="#63b8ff" stroke="#63b8ff" points="957.53,-70.84 967.93,-68.82 958.54,-63.92 957.53,-70.84"/>
</a>
</g>
</g>
<!-- Node17 -->
<g id="Node000017" class="node">
<title>Node17</title>
<g id="a_Node000017"><a xlink:href="../../df/d2d/util_8cpp.html" target="_top" xlink:title=" ">
<polygon fill="white" stroke="#666666" points="864,-30 710,-30 710,0 864,0 864,-30"/>
<text text-anchor="start" x="718" y="-18" font-family="Helvetica,sans-Serif" font-size="10.00">/home/runner/work/doxygen</text>
<text text-anchor="middle" x="787" y="-7" font-family="Helvetica,sans-Serif" font-size="10.00">/doxygen/src/util.cpp</text>
</a>
</g>
</g>
<!-- Node6&#45;&gt;Node17 -->
<g id="edge19_Node000006_Node000017" class="edge">
<title>Node6&#45;&gt;Node17</title>
<g id="a_edge19_Node000006_Node000017"><a xlink:title=" ">
<path fill="none" stroke="#63b8ff" d="M978.55,-63.52C936.71,-53.14 883.28,-39.88 843.49,-30.01"/>
<polygon fill="#63b8ff" stroke="#63b8ff" points="977.83,-66.94 988.38,-65.95 979.52,-60.15 977.83,-66.94"/>
</a>
</g>
</g>
</g>
</svg>
