<?xml version="1.0" encoding="UTF-8" standalone="no"?>
<!DOCTYPE svg PUBLIC "-//W3C//DTD SVG 1.1//EN"
 "http://www.w3.org/Graphics/SVG/1.1/DTD/svg11.dtd">
<!-- Generated by graphviz version 2.43.0 (0)
 -->
<!-- Title: ConceptContext::Private::Cachable Pages: 1 -->
<svg width="798pt" height="376pt"
 viewBox="0.00 0.00 798.00 375.53" xmlns="http://www.w3.org/2000/svg" xmlns:xlink="http://www.w3.org/1999/xlink">
<g id="graph0" class="graph" transform="scale(1 1) rotate(0) translate(4 371.53)">
<title>ConceptContext::Private::Cachable</title>
<!-- Node1 -->
<g id="Node000001" class="node">
<title>Node1</title>
<g id="a_Node000001"><a xlink:title=" ">
<polygon fill="#999999" stroke="#666666" points="790,-244.03 655,-244.03 655,-214.03 790,-214.03 790,-244.03"/>
<text text-anchor="start" x="663" y="-232.03" font-family="Helvetica,sans-Serif" font-size="10.00">ConceptContext::Private</text>
<text text-anchor="middle" x="722.5" y="-221.03" font-family="Helvetica,sans-Serif" font-size="10.00">::Cachable</text>
</a>
</g>
</g>
<!-- Node2 -->
<g id="Node000002" class="node">
<title>Node2</title>
<g id="a_Node000002"><a xlink:title=" ">
<polygon fill="white" stroke="#666666" points="506,-367.53 368,-367.53 368,-326.53 506,-326.53 506,-367.53"/>
<text text-anchor="start" x="376" y="-355.53" font-family="Helvetica,sans-Serif" font-size="10.00">DefinitionContext&lt;</text>
<text text-anchor="start" x="376" y="-344.53" font-family="Helvetica,sans-Serif" font-size="10.00"> ConceptContext::Private</text>
<text text-anchor="middle" x="437" y="-333.53" font-family="Helvetica,sans-Serif" font-size="10.00"> &gt;::Cachable</text>
</a>
</g>
</g>
<!-- Node2&#45;&gt;Node1 -->
<g id="edge1_Node000001_Node000002" class="edge">
<title>Node2&#45;&gt;Node1</title>
<g id="a_edge1_Node000001_Node000002"><a xlink:title=" ">
<path fill="none" stroke="#63b8ff" d="M516.12,-324.44C553.49,-312.51 598.39,-296.5 637,-278.03 658.11,-267.93 681.02,-254.48 697.65,-244.23"/>
<polygon fill="#63b8ff" stroke="#63b8ff" points="514.78,-321.19 506.29,-327.54 516.88,-327.87 514.78,-321.19"/>
</a>
</g>
</g>
<!-- Node3 -->
<g id="Node000003" class="node">
<title>Node3</title>
<g id="a_Node000003"><a xlink:href="../../d7/dc1/class_cached_item.html" target="_top" xlink:title=" ">
<polygon fill="white" stroke="#666666" points="521.5,-308.53 352.5,-308.53 352.5,-267.53 521.5,-267.53 521.5,-308.53"/>
<text text-anchor="start" x="360.5" y="-296.53" font-family="Helvetica,sans-Serif" font-size="10.00">CachedItem&lt; TemplateVariant,</text>
<text text-anchor="start" x="360.5" y="-285.53" font-family="Helvetica,sans-Serif" font-size="10.00"> ConceptContext::Private,</text>
<text text-anchor="middle" x="437" y="-274.53" font-family="Helvetica,sans-Serif" font-size="10.00"> &amp;Private::createIncludeInfo &gt;</text>
</a>
</g>
</g>
<!-- Node3&#45;&gt;Node1 -->
<g id="edge2_Node000001_Node000003" class="edge">
<title>Node3&#45;&gt;Node1</title>
<g id="a_edge2_Node000001_Node000003"><a xlink:title=" ">
<path fill="none" stroke="#9a32cd" stroke-dasharray="5,2" d="M531.37,-268.6C571.68,-260.21 617.93,-250.58 654.72,-242.93"/>
<polygon fill="#9a32cd" stroke="#9a32cd" points="530.6,-265.18 521.53,-270.65 532.03,-272.04 530.6,-265.18"/>
</a>
</g>
<text text-anchor="middle" x="594" y="-266.03" font-family="Helvetica,sans-Serif" font-size="10.00" fill="grey"> includeInfo</text>
</g>
<!-- Node4 -->
<g id="Node000004" class="node">
<title>Node4</title>
<g id="a_Node000004"><a xlink:href="../../d1/dba/class_template_variant.html" target="_top" xlink:title="Variant type which can hold one value of a fixed set of types.">
<polygon fill="white" stroke="#666666" points="117.5,-287.53 21.5,-287.53 21.5,-268.53 117.5,-268.53 117.5,-287.53"/>
<text text-anchor="middle" x="69.5" y="-275.53" font-family="Helvetica,sans-Serif" font-size="10.00">TemplateVariant</text>
</a>
</g>
</g>
<!-- Node4&#45;&gt;Node3 -->
<g id="edge3_Node000003_Node000004" class="edge">
<title>Node4&#45;&gt;Node3</title>
<g id="a_edge3_Node000003_Node000004"><a xlink:title=" ">
<path fill="none" stroke="#9a32cd" stroke-dasharray="5,2" d="M88.35,-294.37C104.8,-308.24 130.59,-327.11 157,-335.03 227.67,-356.22 254.44,-362.29 323,-335.03 333.23,-330.96 331.51,-323.61 341,-318.03 346.96,-314.52 353.38,-311.38 359.97,-308.57"/>
<polygon fill="#9a32cd" stroke="#9a32cd" points="90.48,-291.59 80.65,-287.66 85.89,-296.87 90.48,-291.59"/>
</a>
</g>
<text text-anchor="middle" x="240" y="-356.03" font-family="Helvetica,sans-Serif" font-size="10.00" fill="grey"> m_item</text>
</g>
<!-- Node6 -->
<g id="Node000006" class="node">
<title>Node6</title>
<g id="a_Node000006"><a xlink:href="../../d7/dc1/class_cached_item.html" target="_top" xlink:title=" ">
<polygon fill="white" stroke="#666666" points="528,-190.53 346,-190.53 346,-149.53 528,-149.53 528,-190.53"/>
<text text-anchor="start" x="354" y="-178.53" font-family="Helvetica,sans-Serif" font-size="10.00">CachedItem&lt; TemplateVariant,</text>
<text text-anchor="start" x="354" y="-167.53" font-family="Helvetica,sans-Serif" font-size="10.00"> ConceptContext::Private,</text>
<text text-anchor="middle" x="437" y="-156.53" font-family="Helvetica,sans-Serif" font-size="10.00"> &amp;Private::createTemplateDecls &gt;</text>
</a>
</g>
</g>
<!-- Node4&#45;&gt;Node6 -->
<g id="edge6_Node000006_Node000004" class="edge">
<title>Node4&#45;&gt;Node6</title>
<g id="a_edge6_Node000006_Node000004"><a xlink:title=" ">
<path fill="none" stroke="#9a32cd" stroke-dasharray="5,2" d="M94.11,-263.3C111,-253.45 134.62,-241.05 157,-234.03 228.06,-211.73 252.86,-236.09 323,-211.03 331.83,-207.88 332.47,-203.91 341,-200.03 348.48,-196.63 356.45,-193.45 364.48,-190.54"/>
<polygon fill="#9a32cd" stroke="#9a32cd" points="92.26,-260.33 85.46,-268.46 95.85,-266.34 92.26,-260.33"/>
</a>
</g>
<text text-anchor="middle" x="240" y="-237.03" font-family="Helvetica,sans-Serif" font-size="10.00" fill="grey"> m_item</text>
</g>
<!-- Node7 -->
<g id="Node000007" class="node">
<title>Node7</title>
<g id="a_Node000007"><a xlink:href="../../d7/dc1/class_cached_item.html" target="_top" xlink:title=" ">
<polygon fill="white" stroke="#666666" points="521.5,-131.53 352.5,-131.53 352.5,-90.53 521.5,-90.53 521.5,-131.53"/>
<text text-anchor="start" x="360.5" y="-119.53" font-family="Helvetica,sans-Serif" font-size="10.00">CachedItem&lt; TemplateVariant,</text>
<text text-anchor="start" x="360.5" y="-108.53" font-family="Helvetica,sans-Serif" font-size="10.00"> ConceptContext::Private,</text>
<text text-anchor="middle" x="437" y="-97.53" font-family="Helvetica,sans-Serif" font-size="10.00"> &amp;Private::createInitializer &gt;</text>
</a>
</g>
</g>
<!-- Node4&#45;&gt;Node7 -->
<g id="edge9_Node000007_Node000004" class="edge">
<title>Node4&#45;&gt;Node7</title>
<g id="a_edge9_Node000007_Node000004"><a xlink:title=" ">
<path fill="none" stroke="#9a32cd" stroke-dasharray="5,2" d="M79,-258.93C95.55,-222.67 132.61,-146.16 157,-131.03 173.33,-120.9 276.08,-115.65 352.17,-113.12"/>
<polygon fill="#9a32cd" stroke="#9a32cd" points="75.66,-257.83 74.73,-268.39 82.04,-260.71 75.66,-257.83"/>
</a>
</g>
<text text-anchor="middle" x="240" y="-134.03" font-family="Helvetica,sans-Serif" font-size="10.00" fill="grey"> m_item</text>
</g>
<!-- Node8 -->
<g id="Node000008" class="node">
<title>Node8</title>
<g id="a_Node000008"><a xlink:href="../../d7/dc1/class_cached_item.html" target="_top" xlink:title=" ">
<polygon fill="white" stroke="#666666" points="533,-249.53 341,-249.53 341,-208.53 533,-208.53 533,-249.53"/>
<text text-anchor="start" x="349" y="-237.53" font-family="Helvetica,sans-Serif" font-size="10.00">CachedItem&lt; TemplateVariant,</text>
<text text-anchor="start" x="349" y="-226.53" font-family="Helvetica,sans-Serif" font-size="10.00"> ConceptContext::Private,</text>
<text text-anchor="middle" x="437" y="-215.53" font-family="Helvetica,sans-Serif" font-size="10.00"> &amp;Private::createInitializerAsCode &gt;</text>
</a>
</g>
</g>
<!-- Node4&#45;&gt;Node8 -->
<g id="edge12_Node000008_Node000004" class="edge">
<title>Node4&#45;&gt;Node8</title>
<g id="a_edge12_Node000008_Node000004"><a xlink:title=" ">
<path fill="none" stroke="#9a32cd" stroke-dasharray="5,2" d="M108.82,-290.51C123.7,-294.75 140.98,-298.94 157,-301.03 230.16,-310.59 261.41,-341.64 323,-301.03 339.95,-289.85 325.95,-272.66 341,-259.03 344.85,-255.55 349.1,-252.47 353.6,-249.75"/>
<polygon fill="#9a32cd" stroke="#9a32cd" points="109.54,-287.07 98.96,-287.6 107.56,-293.79 109.54,-287.07"/>
</a>
</g>
<text text-anchor="middle" x="240" y="-324.03" font-family="Helvetica,sans-Serif" font-size="10.00" fill="grey"> m_item</text>
</g>
<!-- Node5 -->
<g id="Node000005" class="node">
<title>Node5</title>
<g id="a_Node000005"><a xlink:href="../../d7/dc1/class_cached_item.html" target="_top" xlink:title="Wrapper for data that needs to be cached.">
<polygon fill="white" stroke="#666666" points="139,-136.03 0,-136.03 0,-106.03 139,-106.03 139,-136.03"/>
<text text-anchor="start" x="8" y="-124.03" font-family="Helvetica,sans-Serif" font-size="10.00">CachedItem&lt; T, TOwner,</text>
<text text-anchor="middle" x="69.5" y="-113.03" font-family="Helvetica,sans-Serif" font-size="10.00"> creator &gt;</text>
</a>
</g>
</g>
<!-- Node5&#45;&gt;Node3 -->
<g id="edge4_Node000003_Node000005" class="edge">
<title>Node5&#45;&gt;Node3</title>
<g id="a_edge4_Node000003_Node000005"><a xlink:title=" ">
<path fill="none" stroke="orange" stroke-dasharray="5,2" d="M80.26,-145.89C93.12,-175.01 118.69,-222.18 157,-245.03 188.89,-264.05 286.35,-258.05 323,-264.03 332.5,-265.58 342.41,-267.39 352.25,-269.31"/>
<polygon fill="orange" stroke="orange" points="83.37,-144.25 76.24,-136.41 76.92,-146.98 83.37,-144.25"/>
</a>
</g>
<text text-anchor="start" x="166" y="-289.03" font-family="Helvetica,sans-Serif" font-size="10.00" fill="grey"> &lt; TemplateVariant,</text>
<text text-anchor="start" x="166" y="-278.03" font-family="Helvetica,sans-Serif" font-size="10.00" fill="grey"> ConceptContext::Private,</text>
<text text-anchor="middle" x="240" y="-267.03" font-family="Helvetica,sans-Serif" font-size="10.00" fill="grey"> &amp;Private::createIncludeInfo &gt;</text>
</g>
<!-- Node5&#45;&gt;Node6 -->
<g id="edge7_Node000006_Node000005" class="edge">
<title>Node5&#45;&gt;Node6</title>
<g id="a_edge7_Node000006_Node000005"><a xlink:title=" ">
<path fill="none" stroke="orange" stroke-dasharray="5,2" d="M103.34,-101.01C155.37,-72.16 257.59,-27.47 323,-77.03 346.55,-94.87 320.34,-119.91 341,-141.03 344.01,-144.11 347.35,-146.87 350.9,-149.33"/>
<polygon fill="orange" stroke="orange" points="101.49,-98.04 94.52,-106.02 104.95,-104.12 101.49,-98.04"/>
</a>
</g>
<text text-anchor="start" x="157" y="-102.03" font-family="Helvetica,sans-Serif" font-size="10.00" fill="grey"> &lt; TemplateVariant,</text>
<text text-anchor="start" x="157" y="-91.03" font-family="Helvetica,sans-Serif" font-size="10.00" fill="grey"> ConceptContext::Private,</text>
<text text-anchor="middle" x="240" y="-80.03" font-family="Helvetica,sans-Serif" font-size="10.00" fill="grey"> &amp;Private::createTemplateDecls &gt;</text>
</g>
<!-- Node5&#45;&gt;Node7 -->
<g id="edge10_Node000007_Node000005" class="edge">
<title>Node5&#45;&gt;Node7</title>
<g id="a_edge10_Node000007_Node000005"><a xlink:title=" ">
<path fill="none" stroke="orange" stroke-dasharray="5,2" d="M83.13,-96.93C97.39,-72.62 123.09,-36.53 157,-21.03 224.1,9.65 253.35,3.32 323,-21.03 362.06,-34.68 397.71,-68.13 418.12,-90.17"/>
<polygon fill="orange" stroke="orange" points="79.93,-95.49 78.06,-105.92 86.02,-98.92 79.93,-95.49"/>
</a>
</g>
<text text-anchor="start" x="170.5" y="-46.03" font-family="Helvetica,sans-Serif" font-size="10.00" fill="grey"> &lt; TemplateVariant,</text>
<text text-anchor="start" x="170.5" y="-35.03" font-family="Helvetica,sans-Serif" font-size="10.00" fill="grey"> ConceptContext::Private,</text>
<text text-anchor="middle" x="240" y="-24.03" font-family="Helvetica,sans-Serif" font-size="10.00" fill="grey"> &amp;Private::createInitializer &gt;</text>
</g>
<!-- Node5&#45;&gt;Node8 -->
<g id="edge13_Node000008_Node000005" class="edge">
<title>Node5&#45;&gt;Node8</title>
<g id="a_edge13_Node000008_Node000005"><a xlink:title=" ">
<path fill="none" stroke="orange" stroke-dasharray="5,2" d="M132.33,-138.64C140.58,-140.64 148.97,-142.51 157,-144.03 193.48,-150.93 292.69,-141.58 323,-163.03 337.93,-173.6 327.1,-188.15 341,-200.03 344.67,-203.17 348.67,-205.96 352.9,-208.46"/>
<polygon fill="orange" stroke="orange" points="132.91,-135.18 122.36,-136.13 131.21,-141.96 132.91,-135.18"/>
</a>
</g>
<text text-anchor="start" x="170" y="-199.03" font-family="Helvetica,sans-Serif" font-size="10.00" fill="grey"> &lt; TemplateVariant,</text>
<text text-anchor="start" x="170" y="-188.03" font-family="Helvetica,sans-Serif" font-size="10.00" fill="grey"> ConceptContext::Private,</text>
<text text-anchor="start" x="170" y="-177.03" font-family="Helvetica,sans-Serif" font-size="10.00" fill="grey"> &amp;Private::createInitializerAs</text>
<text text-anchor="middle" x="240" y="-166.03" font-family="Helvetica,sans-Serif" font-size="10.00" fill="grey">Code &gt;</text>
</g>
<!-- Node6&#45;&gt;Node1 -->
<g id="edge5_Node000001_Node000006" class="edge">
<title>Node6&#45;&gt;Node1</title>
<g id="a_edge5_Node000001_Node000006"><a xlink:title=" ">
<path fill="none" stroke="#9a32cd" stroke-dasharray="5,2" d="M538.31,-190.91C576.87,-198.93 619.92,-207.89 654.59,-215.1"/>
<polygon fill="#9a32cd" stroke="#9a32cd" points="538.59,-187.39 528.09,-188.78 537.17,-194.24 538.59,-187.39"/>
</a>
</g>
<text text-anchor="middle" x="594" y="-212.03" font-family="Helvetica,sans-Serif" font-size="10.00" fill="grey"> templateDecls</text>
</g>
<!-- Node7&#45;&gt;Node1 -->
<g id="edge8_Node000001_Node000007" class="edge">
<title>Node7&#45;&gt;Node1</title>
<g id="a_edge8_Node000001_Node000007"><a xlink:title=" ">
<path fill="none" stroke="#9a32cd" stroke-dasharray="5,2" d="M520.54,-134.62C556.99,-146.2 599.9,-161.46 637,-179.03 658.57,-189.24 681.82,-203.24 698.46,-213.83"/>
<polygon fill="#9a32cd" stroke="#9a32cd" points="521.52,-131.26 510.93,-131.6 519.43,-137.94 521.52,-131.26"/>
</a>
</g>
<text text-anchor="middle" x="594" y="-182.03" font-family="Helvetica,sans-Serif" font-size="10.00" fill="grey"> initializer</text>
</g>
<!-- Node8&#45;&gt;Node1 -->
<g id="edge11_Node000001_Node000008" class="edge">
<title>Node8&#45;&gt;Node1</title>
<g id="a_edge11_Node000001_Node000008"><a xlink:title=" ">
<path fill="none" stroke="#9a32cd" stroke-dasharray="5,2" d="M543.59,-229.03C580.82,-229.03 621.63,-229.03 654.75,-229.03"/>
<polygon fill="#9a32cd" stroke="#9a32cd" points="543.19,-225.53 533.19,-229.03 543.19,-232.53 543.19,-225.53"/>
</a>
</g>
<text text-anchor="middle" x="594" y="-232.03" font-family="Helvetica,sans-Serif" font-size="10.00" fill="grey"> initializerAsCode</text>
</g>
</g>
</svg>
