<?xml version="1.0" encoding="UTF-8" standalone="no"?>
<!DOCTYPE svg PUBLIC "-//W3C//DTD SVG 1.1//EN"
 "http://www.w3.org/Graphics/SVG/1.1/DTD/svg11.dtd">
<!-- Generated by graphviz version 2.43.0 (0)
 -->
<!-- Title: FileContext::Private Pages: 1 -->
<svg width="196pt" height="160pt"
 viewBox="0.00 0.00 195.50 160.00" xmlns="http://www.w3.org/2000/svg" xmlns:xlink="http://www.w3.org/1999/xlink">
<g id="graph0" class="graph" transform="scale(1 1) rotate(0) translate(4 156)">
<title>FileContext::Private</title>
<!-- Node1 -->
<g id="Node000001" class="node">
<title>Node1</title>
<g id="a_Node000001"><a xlink:title=" ">
<polygon fill="#999999" stroke="#666666" points="122,-19 9,-19 9,0 122,0 122,-19"/>
<text text-anchor="middle" x="65.5" y="-7" font-family="Helvetica,sans-Serif" font-size="10.00">FileContext::Private</text>
</a>
</g>
</g>
<!-- Node2 -->
<g id="Node000002" class="node">
<title>Node2</title>
<g id="a_Node000002"><a xlink:href="../../d6/d49/class_definition_context.html" target="_top" xlink:title=" ">
<polygon fill="white" stroke="#666666" points="129,-86 2,-86 2,-56 129,-56 129,-86"/>
<text text-anchor="start" x="10" y="-74" font-family="Helvetica,sans-Serif" font-size="10.00">DefinitionContext&lt;</text>
<text text-anchor="middle" x="65.5" y="-63" font-family="Helvetica,sans-Serif" font-size="10.00"> FileContext::Private &gt;</text>
</a>
</g>
</g>
<!-- Node2&#45;&gt;Node1 -->
<g id="edge1_Node000001_Node000002" class="edge">
<title>Node2&#45;&gt;Node1</title>
<g id="a_edge1_Node000001_Node000002"><a xlink:title=" ">
<path fill="none" stroke="#63b8ff" d="M65.5,-45.79C65.5,-36.36 65.5,-26.15 65.5,-19.16"/>
<polygon fill="#63b8ff" stroke="#63b8ff" points="62,-45.9 65.5,-55.9 69,-45.9 62,-45.9"/>
</a>
</g>
</g>
<!-- Node3 -->
<g id="Node000003" class="node">
<title>Node3</title>
<g id="a_Node000003"><a xlink:href="../../d6/d49/class_definition_context.html" target="_top" xlink:title=" ">
<polygon fill="white" stroke="#666666" points="131,-152 0,-152 0,-133 131,-133 131,-152"/>
<text text-anchor="middle" x="65.5" y="-140" font-family="Helvetica,sans-Serif" font-size="10.00">DefinitionContext&lt; T &gt;</text>
</a>
</g>
</g>
<!-- Node3&#45;&gt;Node2 -->
<g id="edge2_Node000002_Node000003" class="edge">
<title>Node3&#45;&gt;Node2</title>
<g id="a_edge2_Node000002_Node000003"><a xlink:title=" ">
<path fill="none" stroke="orange" stroke-dasharray="5,2" d="M65.5,-122.71C65.5,-111.19 65.5,-96.68 65.5,-86.14"/>
<polygon fill="orange" stroke="orange" points="62,-122.98 65.5,-132.98 69,-122.98 62,-122.98"/>
</a>
</g>
<text text-anchor="middle" x="126.5" y="-107" font-family="Helvetica,sans-Serif" font-size="10.00" fill="grey"> &lt; FileContext::Private &gt;</text>
</g>
</g>
</svg>
