<?xml version="1.0" encoding="UTF-8" standalone="no"?>
<!DOCTYPE svg PUBLIC "-//W3C//DTD SVG 1.1//EN"
 "http://www.w3.org/Graphics/SVG/1.1/DTD/svg11.dtd">
<!-- Generated by graphviz version 2.43.0 (0)
 -->
<!-- Title: DocHRef Pages: 1 -->
<svg width="1655pt" height="438pt"
 viewBox="0.00 0.00 1655.00 438.00" xmlns="http://www.w3.org/2000/svg" xmlns:xlink="http://www.w3.org/1999/xlink">
<g id="graph0" class="graph" transform="scale(1 1) rotate(0) translate(4 434)">
<title>DocHRef</title>
<!-- Node1 -->
<g id="Node000001" class="node">
<title>Node1</title>
<g id="a_Node000001"><a xlink:title="Node representing a Hypertext reference.">
<polygon fill="#999999" stroke="#666666" points="1647,-179.5 1588,-179.5 1588,-160.5 1647,-160.5 1647,-179.5"/>
<text text-anchor="middle" x="1617.5" y="-167.5" font-family="Helvetica,sans-Serif" font-size="10.00">DocHRef</text>
</a>
</g>
</g>
<!-- Node2 -->
<g id="Node000002" class="node">
<title>Node2</title>
<g id="a_Node000002"><a xlink:href="../../da/dfc/class_doc_compound_node.html" target="_top" xlink:title="Base class for nodes with children.">
<polygon fill="white" stroke="#666666" points="1551,-250.5 1438,-250.5 1438,-231.5 1551,-231.5 1551,-250.5"/>
<text text-anchor="middle" x="1494.5" y="-238.5" font-family="Helvetica,sans-Serif" font-size="10.00">DocCompoundNode</text>
</a>
</g>
</g>
<!-- Node2&#45;&gt;Node1 -->
<g id="edge1_Node000001_Node000002" class="edge">
<title>Node2&#45;&gt;Node1</title>
<g id="a_edge1_Node000001_Node000002"><a xlink:title=" ">
<path fill="none" stroke="#63b8ff" d="M1520.65,-226.24C1544.49,-212.25 1579.6,-191.65 1600.05,-179.65"/>
<polygon fill="#63b8ff" stroke="#63b8ff" points="1518.67,-223.35 1511.82,-231.42 1522.21,-229.38 1518.67,-223.35"/>
</a>
</g>
</g>
<!-- Node3 -->
<g id="Node000003" class="node">
<title>Node3</title>
<g id="a_Node000003"><a xlink:href="../../d9/d0e/class_doc_node.html" target="_top" xlink:title="Abstract node interface with type information.">
<polygon fill="white" stroke="#666666" points="1335.5,-316.5 1274.5,-316.5 1274.5,-297.5 1335.5,-297.5 1335.5,-316.5"/>
<text text-anchor="middle" x="1305" y="-304.5" font-family="Helvetica,sans-Serif" font-size="10.00">DocNode</text>
</a>
</g>
</g>
<!-- Node3&#45;&gt;Node2 -->
<g id="edge2_Node000002_Node000003" class="edge">
<title>Node3&#45;&gt;Node2</title>
<g id="a_edge2_Node000002_Node000003"><a xlink:title=" ">
<path fill="none" stroke="#63b8ff" d="M1343.01,-293.97C1379.39,-281.17 1434.04,-261.93 1466.51,-250.5"/>
<polygon fill="#63b8ff" stroke="#63b8ff" points="1341.53,-290.78 1333.26,-297.4 1343.86,-297.38 1341.53,-290.78"/>
</a>
</g>
</g>
<!-- Node4 -->
<g id="Node000004" class="node">
<title>Node4</title>
<g id="a_Node000004"><a xlink:href="../../da/d02/class_doc_parser.html" target="_top" xlink:title=" ">
<polygon fill="white" stroke="#666666" points="1126.5,-324.5 1061.5,-324.5 1061.5,-305.5 1126.5,-305.5 1126.5,-324.5"/>
<text text-anchor="middle" x="1094" y="-312.5" font-family="Helvetica,sans-Serif" font-size="10.00">DocParser</text>
</a>
</g>
</g>
<!-- Node4&#45;&gt;Node3 -->
<g id="edge3_Node000003_Node000004" class="edge">
<title>Node4&#45;&gt;Node3</title>
<g id="a_edge3_Node000003_Node000004"><a xlink:title=" ">
<path fill="none" stroke="#9a32cd" stroke-dasharray="5,2" d="M1136.89,-313.4C1177.6,-311.84 1238.39,-309.51 1274.33,-308.14"/>
<polygon fill="#9a32cd" stroke="#9a32cd" points="1136.6,-309.9 1126.74,-313.78 1136.87,-316.9 1136.6,-309.9"/>
</a>
</g>
<text text-anchor="middle" x="1223.5" y="-314" font-family="Helvetica,sans-Serif" font-size="10.00" fill="grey"> m_parser</text>
</g>
<!-- Node5 -->
<g id="Node000005" class="node">
<title>Node5</title>
<g id="a_Node000005"><a xlink:href="../../de/dad/class_i_doc_parser.html" target="_top" xlink:title="opaque parser interface">
<polygon fill="white" stroke="#666666" points="848,-365.5 780,-365.5 780,-346.5 848,-346.5 848,-365.5"/>
<text text-anchor="middle" x="814" y="-353.5" font-family="Helvetica,sans-Serif" font-size="10.00">IDocParser</text>
</a>
</g>
</g>
<!-- Node5&#45;&gt;Node4 -->
<g id="edge4_Node000004_Node000005" class="edge">
<title>Node5&#45;&gt;Node4</title>
<g id="a_edge4_Node000004_Node000005"><a xlink:title=" ">
<path fill="none" stroke="#63b8ff" d="M858.02,-350.37C893.26,-345.69 944.4,-338.72 989,-332 1013.24,-328.35 1040.6,-323.86 1061.17,-320.41"/>
<polygon fill="#63b8ff" stroke="#63b8ff" points="857.52,-346.91 848.07,-351.69 858.44,-353.84 857.52,-346.91"/>
</a>
</g>
</g>
<!-- Node6 -->
<g id="Node000006" class="node">
<title>Node6</title>
<g id="a_Node000006"><a xlink:href="../../d8/d7d/struct_doc_parser_context.html" target="_top" xlink:title="Parser&#39;s context to store all global variables.">
<polygon fill="white" stroke="#666666" points="866,-328.5 762,-328.5 762,-309.5 866,-309.5 866,-328.5"/>
<text text-anchor="middle" x="814" y="-316.5" font-family="Helvetica,sans-Serif" font-size="10.00">DocParserContext</text>
</a>
</g>
</g>
<!-- Node6&#45;&gt;Node4 -->
<g id="edge5_Node000004_Node000006" class="edge">
<title>Node6&#45;&gt;Node4</title>
<g id="a_edge5_Node000004_Node000006"><a xlink:title=" ">
<path fill="none" stroke="#9a32cd" stroke-dasharray="5,2" d="M876.32,-318.12C933.53,-317.29 1016.6,-316.1 1061.44,-315.45"/>
<polygon fill="#9a32cd" stroke="#9a32cd" points="876.26,-314.62 866.31,-318.26 876.36,-321.62 876.26,-314.62"/>
</a>
</g>
<text text-anchor="middle" x="936.5" y="-320" font-family="Helvetica,sans-Serif" font-size="10.00" fill="grey"> context</text>
</g>
<!-- Node7 -->
<g id="Node000007" class="node">
<title>Node7</title>
<g id="a_Node000007"><a xlink:href="../../d5/dcc/class_definition.html" target="_top" xlink:title="The common base class of all entity definitions found in the sources.">
<polygon fill="white" stroke="#666666" points="294.5,-402.5 230.5,-402.5 230.5,-383.5 294.5,-383.5 294.5,-402.5"/>
<text text-anchor="middle" x="262.5" y="-390.5" font-family="Helvetica,sans-Serif" font-size="10.00">Definition</text>
</a>
</g>
</g>
<!-- Node7&#45;&gt;Node6 -->
<g id="edge6_Node000006_Node000007" class="edge">
<title>Node7&#45;&gt;Node6</title>
<g id="a_edge6_Node000006_Node000007"><a xlink:title=" ">
<path fill="none" stroke="#9a32cd" stroke-dasharray="5,2" d="M304.84,-391.62C405.85,-387.86 662.88,-375.88 744,-349 752.9,-346.05 753.57,-342.1 762,-338 769.14,-334.53 777.08,-331.29 784.54,-328.51"/>
<polygon fill="#9a32cd" stroke="#9a32cd" points="304.58,-388.13 294.71,-391.99 304.84,-395.12 304.58,-388.13"/>
</a>
</g>
<text text-anchor="middle" x="583.5" y="-382" font-family="Helvetica,sans-Serif" font-size="10.00" fill="grey"> scope</text>
</g>
<!-- Node13 -->
<g id="Node000013" class="node">
<title>Node13</title>
<g id="a_Node000013"><a xlink:href="../../da/d09/class_member_def.html" target="_top" xlink:title="A model of a class/file/namespace member symbol.">
<polygon fill="white" stroke="#666666" points="620.5,-425.5 546.5,-425.5 546.5,-406.5 620.5,-406.5 620.5,-425.5"/>
<text text-anchor="middle" x="583.5" y="-413.5" font-family="Helvetica,sans-Serif" font-size="10.00">MemberDef</text>
</a>
</g>
</g>
<!-- Node7&#45;&gt;Node13 -->
<g id="edge13_Node000013_Node000007" class="edge">
<title>Node7&#45;&gt;Node13</title>
<g id="a_edge13_Node000013_Node000007"><a xlink:title=" ">
<path fill="none" stroke="#63b8ff" d="M305.02,-395.99C368.02,-400.54 486.7,-409.09 546.35,-413.39"/>
<polygon fill="#63b8ff" stroke="#63b8ff" points="304.89,-392.48 294.67,-395.25 304.39,-399.46 304.89,-392.48"/>
</a>
</g>
</g>
<!-- Node8 -->
<g id="Node000008" class="node">
<title>Node8</title>
<g id="a_Node000008"><a xlink:href="../../d9/d45/class_q_c_string.html" target="_top" xlink:title="This is an alternative implementation of QCString.">
<polygon fill="white" stroke="#666666" points="292,-179.5 233,-179.5 233,-160.5 292,-160.5 292,-179.5"/>
<text text-anchor="middle" x="262.5" y="-167.5" font-family="Helvetica,sans-Serif" font-size="10.00">QCString</text>
</a>
</g>
</g>
<!-- Node8&#45;&gt;Node1 -->
<g id="edge23_Node000001_Node000008" class="edge">
<title>Node8&#45;&gt;Node1</title>
<g id="a_edge23_Node000001_Node000008"><a xlink:title=" ">
<path fill="none" stroke="#9a32cd" stroke-dasharray="5,2" d="M302.25,-170C362.29,-170 481.41,-170 582.5,-170 582.5,-170 582.5,-170 1495.5,-170 1527.01,-170 1563.14,-170 1587.65,-170"/>
<polygon fill="#9a32cd" stroke="#9a32cd" points="302.1,-166.5 292.1,-170 302.1,-173.5 302.1,-166.5"/>
</a>
</g>
<text text-anchor="middle" x="1094" y="-195" font-family="Helvetica,sans-Serif" font-size="10.00" fill="grey"> m_file</text>
<text text-anchor="middle" x="1094" y="-184" font-family="Helvetica,sans-Serif" font-size="10.00" fill="grey">m_relPath</text>
<text text-anchor="middle" x="1094" y="-173" font-family="Helvetica,sans-Serif" font-size="10.00" fill="grey">m_url</text>
</g>
<!-- Node8&#45;&gt;Node6 -->
<g id="edge7_Node000006_Node000008" class="edge">
<title>Node8&#45;&gt;Node6</title>
<g id="a_edge7_Node000006_Node000008"><a xlink:title=" ">
<path fill="none" stroke="#9a32cd" stroke-dasharray="5,2" d="M302.31,-175.41C397.43,-188.68 635.02,-222.03 643,-225 701.82,-246.88 705.6,-273.49 762,-301 768.41,-304.13 775.51,-306.99 782.33,-309.46"/>
<polygon fill="#9a32cd" stroke="#9a32cd" points="302.63,-171.92 292.24,-174 301.66,-178.85 302.63,-171.92"/>
</a>
</g>
<text text-anchor="middle" x="583.5" y="-294" font-family="Helvetica,sans-Serif" font-size="10.00" fill="grey"> context</text>
<text text-anchor="middle" x="583.5" y="-283" font-family="Helvetica,sans-Serif" font-size="10.00" fill="grey">exampleName</text>
<text text-anchor="middle" x="583.5" y="-272" font-family="Helvetica,sans-Serif" font-size="10.00" fill="grey">fileName</text>
<text text-anchor="middle" x="583.5" y="-261" font-family="Helvetica,sans-Serif" font-size="10.00" fill="grey">includeFileName</text>
<text text-anchor="middle" x="583.5" y="-250" font-family="Helvetica,sans-Serif" font-size="10.00" fill="grey">includeFileText</text>
<text text-anchor="middle" x="583.5" y="-239" font-family="Helvetica,sans-Serif" font-size="10.00" fill="grey">relPath</text>
<text text-anchor="middle" x="583.5" y="-228" font-family="Helvetica,sans-Serif" font-size="10.00" fill="grey">searchUrl</text>
</g>
<!-- Node14 -->
<g id="Node000014" class="node">
<title>Node14</title>
<g id="a_Node000014"><a xlink:href="../../d6/df4/struct_token_info.html" target="_top" xlink:title="Data associated with a token used by the comment block parser.">
<polygon fill="white" stroke="#666666" points="615,-76.5 552,-76.5 552,-57.5 615,-57.5 615,-76.5"/>
<text text-anchor="middle" x="583.5" y="-64.5" font-family="Helvetica,sans-Serif" font-size="10.00">TokenInfo</text>
</a>
</g>
</g>
<!-- Node8&#45;&gt;Node14 -->
<g id="edge15_Node000014_Node000008" class="edge">
<title>Node8&#45;&gt;Node14</title>
<g id="a_edge15_Node000014_Node000008"><a xlink:title=" ">
<path fill="none" stroke="#9a32cd" stroke-dasharray="5,2" d="M274.84,-151.55C291.09,-127.09 323.55,-85.04 364,-68 426.4,-41.71 508.01,-51.6 551.71,-59.99"/>
<polygon fill="#9a32cd" stroke="#9a32cd" points="271.71,-149.96 269.25,-160.26 277.59,-153.74 271.71,-149.96"/>
</a>
</g>
<text text-anchor="middle" x="435" y="-148" font-family="Helvetica,sans-Serif" font-size="10.00" fill="grey"> attribsStr</text>
<text text-anchor="middle" x="435" y="-137" font-family="Helvetica,sans-Serif" font-size="10.00" fill="grey">chars</text>
<text text-anchor="middle" x="435" y="-126" font-family="Helvetica,sans-Serif" font-size="10.00" fill="grey">name</text>
<text text-anchor="middle" x="435" y="-115" font-family="Helvetica,sans-Serif" font-size="10.00" fill="grey">sectionId</text>
<text text-anchor="middle" x="435" y="-104" font-family="Helvetica,sans-Serif" font-size="10.00" fill="grey">simpleSectName</text>
<text text-anchor="middle" x="435" y="-93" font-family="Helvetica,sans-Serif" font-size="10.00" fill="grey">simpleSectText</text>
<text text-anchor="middle" x="435" y="-82" font-family="Helvetica,sans-Serif" font-size="10.00" fill="grey">text</text>
<text text-anchor="middle" x="435" y="-71" font-family="Helvetica,sans-Serif" font-size="10.00" fill="grey">verb</text>
</g>
<!-- Node9 -->
<g id="Node000009" class="node">
<title>Node9</title>
<g id="a_Node000009"><a xlink:href="../../d9/d82/class_iterable_stack.html" target="_top" xlink:title=" ">
<polygon fill="white" stroke="#666666" points="643,-341 524,-341 524,-311 643,-311 643,-341"/>
<text text-anchor="start" x="532" y="-329" font-family="Helvetica,sans-Serif" font-size="10.00">IterableStack&lt; const</text>
<text text-anchor="middle" x="583.5" y="-318" font-family="Helvetica,sans-Serif" font-size="10.00"> DocNodeVariant * &gt;</text>
</a>
</g>
</g>
<!-- Node9&#45;&gt;Node6 -->
<g id="edge8_Node000006_Node000009" class="edge">
<title>Node9&#45;&gt;Node6</title>
<g id="a_edge8_Node000006_Node000009"><a xlink:title=" ">
<path fill="none" stroke="#9a32cd" stroke-dasharray="5,2" d="M653.19,-323.9C688.15,-322.82 729.92,-321.55 761.99,-320.56"/>
<polygon fill="#9a32cd" stroke="#9a32cd" points="652.94,-320.4 643.05,-324.21 653.15,-327.4 652.94,-320.4"/>
</a>
</g>
<text text-anchor="middle" x="702.5" y="-337" font-family="Helvetica,sans-Serif" font-size="10.00" fill="grey"> initialStyleStack</text>
<text text-anchor="middle" x="702.5" y="-326" font-family="Helvetica,sans-Serif" font-size="10.00" fill="grey">styleStack</text>
</g>
<!-- Node10 -->
<g id="Node000010" class="node">
<title>Node10</title>
<g id="a_Node000010"><a xlink:title=" ">
<polygon fill="white" stroke="#666666" points="346,-347.5 179,-347.5 179,-306.5 346,-306.5 346,-347.5"/>
<text text-anchor="start" x="187" y="-335.5" font-family="Helvetica,sans-Serif" font-size="10.00">std::stack&lt; const DocNode</text>
<text text-anchor="start" x="187" y="-324.5" font-family="Helvetica,sans-Serif" font-size="10.00">Variant * , std::deque</text>
<text text-anchor="middle" x="262.5" y="-313.5" font-family="Helvetica,sans-Serif" font-size="10.00">&lt;const DocNodeVariant * &gt; &#160;&gt;</text>
</a>
</g>
</g>
<!-- Node10&#45;&gt;Node9 -->
<g id="edge9_Node000009_Node000010" class="edge">
<title>Node10&#45;&gt;Node9</title>
<g id="a_edge9_Node000009_Node000010"><a xlink:title=" ">
<path fill="none" stroke="#63b8ff" d="M356.36,-326.71C410.48,-326.54 477.08,-326.33 523.94,-326.18"/>
<polygon fill="#63b8ff" stroke="#63b8ff" points="356.05,-323.21 346.07,-326.74 356.08,-330.21 356.05,-323.21"/>
</a>
</g>
</g>
<!-- Node11 -->
<g id="Node000011" class="node">
<title>Node11</title>
<g id="a_Node000011"><a xlink:href="../../d9/d82/class_iterable_stack.html" target="_top" xlink:title=" ">
<polygon fill="white" stroke="#666666" points="344,-288.5 181,-288.5 181,-269.5 344,-269.5 344,-288.5"/>
<text text-anchor="middle" x="262.5" y="-276.5" font-family="Helvetica,sans-Serif" font-size="10.00">IterableStack&lt; T, Container &gt;</text>
</a>
</g>
</g>
<!-- Node11&#45;&gt;Node9 -->
<g id="edge10_Node000009_Node000011" class="edge">
<title>Node11&#45;&gt;Node9</title>
<g id="a_edge10_Node000009_Node000011"><a xlink:title=" ">
<path fill="none" stroke="orange" stroke-dasharray="5,2" d="M354.4,-289.63C400.01,-295.31 456.03,-302.81 506,-311 511.74,-311.94 517.72,-312.99 523.68,-314.08"/>
<polygon fill="orange" stroke="orange" points="354.6,-286.13 344.24,-288.37 353.74,-293.08 354.6,-286.13"/>
</a>
</g>
<text text-anchor="middle" x="435" y="-314" font-family="Helvetica,sans-Serif" font-size="10.00" fill="grey"> &lt; const DocNodeVariant * &gt;</text>
</g>
<!-- Node12 -->
<g id="Node000012" class="node">
<title>Node12</title>
<g id="a_Node000012"><a xlink:title=" ">
<polygon fill="white" stroke="#666666" points="122,-294 20,-294 20,-264 122,-264 122,-294"/>
<text text-anchor="start" x="28" y="-282" font-family="Helvetica,sans-Serif" font-size="10.00">std::stack&lt; T, std</text>
<text text-anchor="middle" x="71" y="-271" font-family="Helvetica,sans-Serif" font-size="10.00">::deque&lt; T &gt; &gt;</text>
</a>
</g>
</g>
<!-- Node12&#45;&gt;Node11 -->
<g id="edge11_Node000011_Node000012" class="edge">
<title>Node12&#45;&gt;Node11</title>
<g id="a_edge11_Node000011_Node000012"><a xlink:title=" ">
<path fill="none" stroke="#63b8ff" d="M132.67,-279C148.02,-279 164.74,-279 180.91,-279"/>
<polygon fill="#63b8ff" stroke="#63b8ff" points="132.29,-275.5 122.29,-279 132.28,-282.5 132.29,-275.5"/>
</a>
</g>
</g>
<!-- Node13&#45;&gt;Node6 -->
<g id="edge12_Node000006_Node000013" class="edge">
<title>Node13&#45;&gt;Node6</title>
<g id="a_edge12_Node000006_Node000013"><a xlink:title=" ">
<path fill="none" stroke="#9a32cd" stroke-dasharray="5,2" d="M631.24,-420.74C666.15,-421.68 713,-417.08 744,-391 763.04,-374.98 744.67,-355.85 762,-338 765.75,-334.14 770.36,-331.05 775.26,-328.59"/>
<polygon fill="#9a32cd" stroke="#9a32cd" points="630.96,-417.23 620.82,-420.29 630.66,-424.22 630.96,-417.23"/>
</a>
</g>
<text text-anchor="middle" x="702.5" y="-422" font-family="Helvetica,sans-Serif" font-size="10.00" fill="grey"> memberDef</text>
</g>
<!-- Node14&#45;&gt;Node6 -->
<g id="edge14_Node000006_Node000014" class="edge">
<title>Node14&#45;&gt;Node6</title>
<g id="a_edge14_Node000006_Node000014"><a xlink:title=" ">
<path fill="none" stroke="#9a32cd" stroke-dasharray="5,2" d="M614.42,-81.34C651.36,-100.73 713.08,-138.96 744,-191 769.3,-233.59 730.21,-263.01 762,-301 764.77,-304.31 768.19,-307.02 771.94,-309.22"/>
<polygon fill="#9a32cd" stroke="#9a32cd" points="615.65,-78.04 605.15,-76.6 612.46,-84.27 615.65,-78.04"/>
</a>
</g>
<text text-anchor="middle" x="702.5" y="-194" font-family="Helvetica,sans-Serif" font-size="10.00" fill="grey"> token</text>
</g>
<!-- Node15 -->
<g id="Node000015" class="node">
<title>Node15</title>
<g id="a_Node000015"><a xlink:href="../../db/d4d/class_html_attrib_list.html" target="_top" xlink:title="Class representing a list of HTML attributes.">
<polygon fill="white" stroke="#666666" points="305,-26.5 220,-26.5 220,-7.5 305,-7.5 305,-26.5"/>
<text text-anchor="middle" x="262.5" y="-14.5" font-family="Helvetica,sans-Serif" font-size="10.00">HtmlAttribList</text>
</a>
</g>
</g>
<!-- Node15&#45;&gt;Node1 -->
<g id="edge22_Node000001_Node000015" class="edge">
<title>Node15&#45;&gt;Node1</title>
<g id="a_edge22_Node000001_Node000015"><a xlink:title=" ">
<path fill="none" stroke="#9a32cd" stroke-dasharray="5,2" d="M315.09,-12.56C378.13,-7.52 488.07,0 582.5,0 582.5,0 582.5,0 1495.5,0 1574.84,0 1606.98,-124.41 1614.62,-160.37"/>
<polygon fill="#9a32cd" stroke="#9a32cd" points="314.69,-9.08 305.01,-13.37 315.26,-16.06 314.69,-9.08"/>
</a>
</g>
<text text-anchor="middle" x="1094" y="-3" font-family="Helvetica,sans-Serif" font-size="10.00" fill="grey"> m_attribs</text>
</g>
<!-- Node15&#45;&gt;Node14 -->
<g id="edge16_Node000014_Node000015" class="edge">
<title>Node15&#45;&gt;Node14</title>
<g id="a_edge16_Node000014_Node000015"><a xlink:title=" ">
<path fill="none" stroke="#9a32cd" stroke-dasharray="5,2" d="M315.51,-15.63C365.15,-15.5 441.68,-18.35 506,-34 527.08,-39.13 549.72,-49.58 564.86,-57.35"/>
<polygon fill="#9a32cd" stroke="#9a32cd" points="315.32,-12.13 305.34,-15.7 315.37,-19.13 315.32,-12.13"/>
</a>
</g>
<text text-anchor="middle" x="435" y="-37" font-family="Helvetica,sans-Serif" font-size="10.00" fill="grey"> attribs</text>
</g>
<!-- Node16 -->
<g id="Node000016" class="node">
<title>Node16</title>
<g id="a_Node000016"><a xlink:title=" ">
<polygon fill="white" stroke="#666666" points="142,-26.5 0,-26.5 0,-7.5 142,-7.5 142,-26.5"/>
<text text-anchor="middle" x="71" y="-14.5" font-family="Helvetica,sans-Serif" font-size="10.00">std::vector&lt; HtmlAttrib &gt;</text>
</a>
</g>
</g>
<!-- Node16&#45;&gt;Node15 -->
<g id="edge17_Node000015_Node000016" class="edge">
<title>Node16&#45;&gt;Node15</title>
<g id="a_edge17_Node000015_Node000016"><a xlink:title=" ">
<path fill="none" stroke="#63b8ff" d="M152.25,-17C175.51,-17 199.96,-17 219.82,-17"/>
<polygon fill="#63b8ff" stroke="#63b8ff" points="152.02,-13.5 142.02,-17 152.02,-20.5 152.02,-13.5"/>
</a>
</g>
</g>
<!-- Node17 -->
<g id="Node000017" class="node">
<title>Node17</title>
<g id="a_Node000017"><a xlink:href="../../d1/d7f/class_doc_tokenizer.html" target="_top" xlink:title=" ">
<polygon fill="white" stroke="#666666" points="854.5,-291.5 773.5,-291.5 773.5,-272.5 854.5,-272.5 854.5,-291.5"/>
<text text-anchor="middle" x="814" y="-279.5" font-family="Helvetica,sans-Serif" font-size="10.00">DocTokenizer</text>
</a>
</g>
</g>
<!-- Node17&#45;&gt;Node4 -->
<g id="edge18_Node000004_Node000017" class="edge">
<title>Node17&#45;&gt;Node4</title>
<g id="a_edge18_Node000004_Node000017"><a xlink:title=" ">
<path fill="none" stroke="#9a32cd" stroke-dasharray="5,2" d="M865.14,-287.14C899.92,-290.79 947.31,-295.92 989,-301 1013.23,-303.95 1040.59,-307.65 1061.16,-310.5"/>
<polygon fill="#9a32cd" stroke="#9a32cd" points="865.08,-283.61 854.77,-286.06 864.35,-290.58 865.08,-283.61"/>
</a>
</g>
<text text-anchor="middle" x="936.5" y="-304" font-family="Helvetica,sans-Serif" font-size="10.00" fill="grey"> tokenizer</text>
</g>
<!-- Node18 -->
<g id="Node000018" class="node">
<title>Node18</title>
<g id="a_Node000018"><a xlink:href="../../d9/dd3/struct_doc_node_list.html" target="_top" xlink:title=" ">
<polygon fill="white" stroke="#666666" points="1344,-250.5 1266,-250.5 1266,-231.5 1344,-231.5 1344,-250.5"/>
<text text-anchor="middle" x="1305" y="-238.5" font-family="Helvetica,sans-Serif" font-size="10.00">DocNodeList</text>
</a>
</g>
</g>
<!-- Node18&#45;&gt;Node2 -->
<g id="edge19_Node000002_Node000018" class="edge">
<title>Node18&#45;&gt;Node2</title>
<g id="a_edge19_Node000002_Node000018"><a xlink:title=" ">
<path fill="none" stroke="#9a32cd" stroke-dasharray="5,2" d="M1354.55,-241C1380,-241 1411.29,-241 1437.73,-241"/>
<polygon fill="#9a32cd" stroke="#9a32cd" points="1354.4,-237.5 1344.4,-241 1354.4,-244.5 1354.4,-237.5"/>
</a>
</g>
<text text-anchor="middle" x="1391" y="-244" font-family="Helvetica,sans-Serif" font-size="10.00" fill="grey"> m_children</text>
</g>
<!-- Node19 -->
<g id="Node000019" class="node">
<title>Node19</title>
<g id="a_Node000019"><a xlink:href="../../d0/d08/class_grow_vector.html" target="_top" xlink:title=" ">
<polygon fill="white" stroke="#666666" points="1181,-250.5 1007,-250.5 1007,-231.5 1181,-231.5 1181,-250.5"/>
<text text-anchor="middle" x="1094" y="-238.5" font-family="Helvetica,sans-Serif" font-size="10.00">GrowVector&lt; DocNodeVariant &gt;</text>
</a>
</g>
</g>
<!-- Node19&#45;&gt;Node18 -->
<g id="edge20_Node000018_Node000019" class="edge">
<title>Node19&#45;&gt;Node18</title>
<g id="a_edge20_Node000018_Node000019"><a xlink:title=" ">
<path fill="none" stroke="#63b8ff" d="M1191.29,-241C1217.7,-241 1244.82,-241 1265.84,-241"/>
<polygon fill="#63b8ff" stroke="#63b8ff" points="1191.21,-237.5 1181.21,-241 1191.21,-244.5 1191.21,-237.5"/>
</a>
</g>
</g>
<!-- Node20 -->
<g id="Node000020" class="node">
<title>Node20</title>
<g id="a_Node000020"><a xlink:href="../../d0/d08/class_grow_vector.html" target="_top" xlink:title="std::vector like container optimised for pushing elements to the back.">
<polygon fill="white" stroke="#666666" points="864.5,-250.5 763.5,-250.5 763.5,-231.5 864.5,-231.5 864.5,-250.5"/>
<text text-anchor="middle" x="814" y="-238.5" font-family="Helvetica,sans-Serif" font-size="10.00">GrowVector&lt; T &gt;</text>
</a>
</g>
</g>
<!-- Node20&#45;&gt;Node19 -->
<g id="edge21_Node000019_Node000020" class="edge">
<title>Node20&#45;&gt;Node19</title>
<g id="a_edge21_Node000019_Node000020"><a xlink:title=" ">
<path fill="none" stroke="orange" stroke-dasharray="5,2" d="M874.73,-241C913.27,-241 964.03,-241 1006.9,-241"/>
<polygon fill="orange" stroke="orange" points="874.7,-237.5 864.7,-241 874.7,-244.5 874.7,-237.5"/>
</a>
</g>
<text text-anchor="middle" x="936.5" y="-244" font-family="Helvetica,sans-Serif" font-size="10.00" fill="grey"> &lt; DocNodeVariant &gt;</text>
</g>
</g>
</svg>
