<?xml version="1.0" encoding="UTF-8" standalone="no"?>
<!DOCTYPE svg PUBLIC "-//W3C//DTD SVG 1.1//EN"
 "http://www.w3.org/Graphics/SVG/1.1/DTD/svg11.dtd">
<!-- Generated by graphviz version 2.43.0 (0)
 -->
<!-- Title: src/dotgfxhierarchytable.h Pages: 1 -->
<svg width="1418pt" height="412pt"
 viewBox="0.00 0.00 1418.00 412.00" xmlns="http://www.w3.org/2000/svg" xmlns:xlink="http://www.w3.org/1999/xlink">
<g id="graph0" class="graph" transform="scale(1 1) rotate(0) translate(4 408)">
<title>src/dotgfxhierarchytable.h</title>
<!-- Node1 -->
<g id="Node000001" class="node">
<title>Node1</title>
<g id="a_Node000001"><a xlink:title=" ">
<polygon fill="#999999" stroke="#666666" points="1123.5,-404 978.5,-404 978.5,-385 1123.5,-385 1123.5,-404"/>
<text text-anchor="middle" x="1051" y="-392" font-family="Helvetica,sans-Serif" font-size="10.00">src/dotgfxhierarchytable.h</text>
</a>
</g>
</g>
<!-- Node2 -->
<g id="Node000002" class="node">
<title>Node2</title>
<g id="a_Node000002"><a xlink:title=" ">
<polygon fill="#e0e0e0" stroke="#999999" points="1181,-129 1123,-129 1123,-110 1181,-110 1181,-129"/>
<text text-anchor="middle" x="1152" y="-117" font-family="Helvetica,sans-Serif" font-size="10.00">memory</text>
</a>
</g>
</g>
<!-- Node1&#45;&gt;Node2 -->
<g id="edge1_Node000001_Node000002" class="edge">
<title>Node1&#45;&gt;Node2</title>
<g id="a_edge1_Node000001_Node000002"><a xlink:title=" ">
<path fill="none" stroke="#63b8ff" d="M1095.36,-384.95C1170.79,-369.13 1316,-332.57 1316,-285.5 1316,-285.5 1316,-285.5 1316,-228.5 1316,-168.98 1239.73,-140.41 1191.21,-128.26"/>
<polygon fill="#63b8ff" stroke="#63b8ff" points="1191.86,-124.82 1181.32,-125.91 1190.24,-131.63 1191.86,-124.82"/>
</a>
</g>
</g>
<!-- Node3 -->
<g id="Node000003" class="node">
<title>Node3</title>
<g id="a_Node000003"><a xlink:title=" ">
<polygon fill="#e0e0e0" stroke="#999999" points="1278,-19 1234,-19 1234,0 1278,0 1278,-19"/>
<text text-anchor="middle" x="1256" y="-7" font-family="Helvetica,sans-Serif" font-size="10.00">string</text>
</a>
</g>
</g>
<!-- Node1&#45;&gt;Node3 -->
<g id="edge2_Node000001_Node000003" class="edge">
<title>Node1&#45;&gt;Node3</title>
<g id="a_edge2_Node000001_Node000003"><a xlink:title=" ">
<path fill="none" stroke="#63b8ff" d="M1123.65,-386.49C1228.55,-374.33 1410,-344.73 1410,-285.5 1410,-285.5 1410,-285.5 1410,-118.5 1410,-59.42 1333.09,-29.91 1287.98,-17.68"/>
<polygon fill="#63b8ff" stroke="#63b8ff" points="1288.62,-14.23 1278.06,-15.13 1286.88,-21.01 1288.62,-14.23"/>
</a>
</g>
</g>
<!-- Node4 -->
<g id="Node000004" class="node">
<title>Node4</title>
<g id="a_Node000004"><a xlink:title=" ">
<polygon fill="#e0e0e0" stroke="#999999" points="432.5,-129 339.5,-129 339.5,-110 432.5,-110 432.5,-129"/>
<text text-anchor="middle" x="386" y="-117" font-family="Helvetica,sans-Serif" font-size="10.00">unordered_map</text>
</a>
</g>
</g>
<!-- Node1&#45;&gt;Node4 -->
<g id="edge3_Node000001_Node000004" class="edge">
<title>Node1&#45;&gt;Node4</title>
<g id="a_edge3_Node000001_Node000004"><a xlink:title=" ">
<path fill="none" stroke="#63b8ff" d="M978.26,-392.16C770.94,-388.05 186.61,-374.33 104,-349 52.22,-333.12 0,-339.66 0,-285.5 0,-285.5 0,-285.5 0,-228.5 0,-187.79 29.38,-182.78 66,-165 111.21,-143.04 249.93,-130.02 329.09,-124.18"/>
<polygon fill="#63b8ff" stroke="#63b8ff" points="329.66,-127.65 339.38,-123.44 329.15,-120.67 329.66,-127.65"/>
</a>
</g>
</g>
<!-- Node5 -->
<g id="Node000005" class="node">
<title>Node5</title>
<g id="a_Node000005"><a xlink:title=" ">
<polygon fill="#e0e0e0" stroke="#999999" points="543.5,-129 496.5,-129 496.5,-110 543.5,-110 543.5,-129"/>
<text text-anchor="middle" x="520" y="-117" font-family="Helvetica,sans-Serif" font-size="10.00">vector</text>
</a>
</g>
</g>
<!-- Node1&#45;&gt;Node5 -->
<g id="edge4_Node000001_Node000005" class="edge">
<title>Node1&#45;&gt;Node5</title>
<g id="a_edge4_Node000001_Node000005"><a xlink:title=" ">
<path fill="none" stroke="#63b8ff" d="M978.15,-393.37C745.88,-392.02 38,-380.12 38,-285.5 38,-285.5 38,-285.5 38,-228.5 38,-177.71 85.33,-182.5 133,-165 141.29,-161.96 393.86,-134.24 486.42,-124.15"/>
<polygon fill="#63b8ff" stroke="#63b8ff" points="486.83,-127.63 496.39,-123.06 486.07,-120.67 486.83,-127.63"/>
</a>
</g>
</g>
<!-- Node6 -->
<g id="Node000006" class="node">
<title>Node6</title>
<g id="a_Node000006"><a xlink:href="../../d1/da6/classdef_8h.html" target="_top" xlink:title=" ">
<polygon fill="white" stroke="#666666" points="703.5,-349 638.5,-349 638.5,-330 703.5,-330 703.5,-349"/>
<text text-anchor="middle" x="671" y="-337" font-family="Helvetica,sans-Serif" font-size="10.00">classdef.h</text>
</a>
</g>
</g>
<!-- Node1&#45;&gt;Node6 -->
<g id="edge5_Node000001_Node000006" class="edge">
<title>Node1&#45;&gt;Node6</title>
<g id="a_edge5_Node000001_Node000006"><a xlink:title=" ">
<path fill="none" stroke="#63b8ff" d="M989.95,-384.98C912.68,-374.21 781.54,-355.92 714.01,-346.5"/>
<polygon fill="#63b8ff" stroke="#63b8ff" points="714.13,-342.98 703.74,-345.07 713.16,-349.91 714.13,-342.98"/>
</a>
</g>
</g>
<!-- Node30 -->
<g id="Node000030" class="node">
<title>Node30</title>
<g id="a_Node000030"><a xlink:href="../../d0/daa/dotgraph_8h.html" target="_top" xlink:title=" ">
<polygon fill="white" stroke="#666666" points="1196.5,-239 1127.5,-239 1127.5,-220 1196.5,-220 1196.5,-239"/>
<text text-anchor="middle" x="1162" y="-227" font-family="Helvetica,sans-Serif" font-size="10.00">dotgraph.h</text>
</a>
</g>
</g>
<!-- Node1&#45;&gt;Node30 -->
<g id="edge59_Node000001_Node000030" class="edge">
<title>Node1&#45;&gt;Node30</title>
<g id="a_edge59_Node000001_Node000030"><a xlink:title=" ">
<path fill="none" stroke="#63b8ff" d="M1056.97,-384.74C1074.58,-358.87 1126.6,-282.48 1150.16,-247.88"/>
<polygon fill="#63b8ff" stroke="#63b8ff" points="1153.27,-249.54 1156,-239.31 1147.48,-245.6 1153.27,-249.54"/>
</a>
</g>
</g>
<!-- Node34 -->
<g id="Node000034" class="node">
<title>Node34</title>
<g id="a_Node000034"><a xlink:href="../../d8/d3b/dotnode_8h.html" target="_top" xlink:title=" ">
<polygon fill="white" stroke="#666666" points="1083.5,-294 1018.5,-294 1018.5,-275 1083.5,-275 1083.5,-294"/>
<text text-anchor="middle" x="1051" y="-282" font-family="Helvetica,sans-Serif" font-size="10.00">dotnode.h</text>
</a>
</g>
</g>
<!-- Node1&#45;&gt;Node34 -->
<g id="edge69_Node000001_Node000034" class="edge">
<title>Node1&#45;&gt;Node34</title>
<g id="a_edge69_Node000001_Node000034"><a xlink:title=" ">
<path fill="none" stroke="#63b8ff" d="M1051,-384.66C1051,-367.17 1051,-327.8 1051,-304.27"/>
<polygon fill="#63b8ff" stroke="#63b8ff" points="1054.5,-304.16 1051,-294.16 1047.5,-304.16 1054.5,-304.16"/>
</a>
</g>
</g>
<!-- Node6&#45;&gt;Node2 -->
<g id="edge6_Node000006_Node000002" class="edge">
<title>Node6&#45;&gt;Node2</title>
<g id="a_edge6_Node000006_Node000002"><a xlink:title=" ">
<path fill="none" stroke="#63b8ff" d="M703.59,-338.25C775.19,-337.02 951.13,-330.21 1093,-294 1154.58,-278.28 1176.63,-280.23 1225,-239 1252.54,-215.52 1279.09,-195.11 1259,-165 1243.95,-142.45 1215.1,-131.31 1191.15,-125.81"/>
<polygon fill="#63b8ff" stroke="#63b8ff" points="1191.73,-122.36 1181.23,-123.79 1190.33,-129.22 1191.73,-122.36"/>
</a>
</g>
</g>
<!-- Node6&#45;&gt;Node5 -->
<g id="edge7_Node000006_Node000005" class="edge">
<title>Node6&#45;&gt;Node5</title>
<g id="a_edge7_Node000006_Node000005"><a xlink:title=" ">
<path fill="none" stroke="#63b8ff" d="M649.12,-329.94C615.99,-315.9 553.24,-284.85 518,-239 497.37,-212.16 492.9,-198.1 500,-165 501.97,-155.8 506,-146.2 509.93,-138.29"/>
<polygon fill="#63b8ff" stroke="#63b8ff" points="513.09,-139.79 514.68,-129.32 506.91,-136.51 513.09,-139.79"/>
</a>
</g>
</g>
<!-- Node7 -->
<g id="Node000007" class="node">
<title>Node7</title>
<g id="a_Node000007"><a xlink:title=" ">
<polygon fill="#e0e0e0" stroke="#999999" points="416,-184 330,-184 330,-165 416,-165 416,-184"/>
<text text-anchor="middle" x="373" y="-172" font-family="Helvetica,sans-Serif" font-size="10.00">unordered_set</text>
</a>
</g>
</g>
<!-- Node6&#45;&gt;Node7 -->
<g id="edge8_Node000006_Node000007" class="edge">
<title>Node6&#45;&gt;Node7</title>
<g id="a_edge8_Node000006_Node000007"><a xlink:title=" ">
<path fill="none" stroke="#63b8ff" d="M638.07,-336.08C579.93,-331.23 462.2,-318.61 430,-294 397.3,-269.01 382.39,-220.47 376.43,-193.92"/>
<polygon fill="#63b8ff" stroke="#63b8ff" points="379.84,-193.12 374.4,-184.03 372.98,-194.53 379.84,-193.12"/>
</a>
</g>
</g>
<!-- Node8 -->
<g id="Node000008" class="node">
<title>Node8</title>
<g id="a_Node000008"><a xlink:href="../../d5/d75/containers_8h.html" target="_top" xlink:title=" ">
<polygon fill="white" stroke="#666666" points="302.5,-239 225.5,-239 225.5,-220 302.5,-220 302.5,-239"/>
<text text-anchor="middle" x="264" y="-227" font-family="Helvetica,sans-Serif" font-size="10.00">containers.h</text>
</a>
</g>
</g>
<!-- Node6&#45;&gt;Node8 -->
<g id="edge9_Node000006_Node000008" class="edge">
<title>Node6&#45;&gt;Node8</title>
<g id="a_edge9_Node000006_Node000008"><a xlink:title=" ">
<path fill="none" stroke="#63b8ff" d="M638.09,-337.5C582.42,-334.94 466.79,-325.9 375,-294 340.87,-282.14 305.27,-259.7 283.87,-244.92"/>
<polygon fill="#63b8ff" stroke="#63b8ff" points="285.8,-242 275.61,-239.11 281.77,-247.72 285.8,-242"/>
</a>
</g>
</g>
<!-- Node13 -->
<g id="Node000013" class="node">
<title>Node13</title>
<g id="a_Node000013"><a xlink:href="../../df/da1/definition_8h.html" target="_top" xlink:title=" ">
<polygon fill="white" stroke="#666666" points="706.5,-294 635.5,-294 635.5,-275 706.5,-275 706.5,-294"/>
<text text-anchor="middle" x="671" y="-282" font-family="Helvetica,sans-Serif" font-size="10.00">definition.h</text>
</a>
</g>
</g>
<!-- Node6&#45;&gt;Node13 -->
<g id="edge18_Node000006_Node000013" class="edge">
<title>Node6&#45;&gt;Node13</title>
<g id="a_edge18_Node000006_Node000013"><a xlink:title=" ">
<path fill="none" stroke="#63b8ff" d="M671,-329.75C671,-322.8 671,-312.85 671,-304.13"/>
<polygon fill="#63b8ff" stroke="#63b8ff" points="674.5,-304.09 671,-294.09 667.5,-304.09 674.5,-304.09"/>
</a>
</g>
</g>
<!-- Node27 -->
<g id="Node000027" class="node">
<title>Node27</title>
<g id="a_Node000027"><a xlink:href="../../df/d9b/arguments_8h.html" target="_top" xlink:title=" ">
<polygon fill="white" stroke="#666666" points="702,-184 624,-184 624,-165 702,-165 702,-184"/>
<text text-anchor="middle" x="663" y="-172" font-family="Helvetica,sans-Serif" font-size="10.00">arguments.h</text>
</a>
</g>
</g>
<!-- Node6&#45;&gt;Node27 -->
<g id="edge49_Node000006_Node000027" class="edge">
<title>Node6&#45;&gt;Node27</title>
<g id="a_edge49_Node000006_Node000027"><a xlink:title=" ">
<path fill="none" stroke="#63b8ff" d="M658.22,-330C647.61,-322.1 633.28,-309.27 627,-294 612.56,-258.87 635.19,-215.79 650.61,-192.47"/>
<polygon fill="#63b8ff" stroke="#63b8ff" points="653.64,-194.24 656.45,-184.02 647.89,-190.25 653.64,-194.24"/>
</a>
</g>
</g>
<!-- Node28 -->
<g id="Node000028" class="node">
<title>Node28</title>
<g id="a_Node000028"><a xlink:href="../../d9/d11/membergroup_8h.html" target="_top" xlink:title=" ">
<polygon fill="white" stroke="#666666" points="819.5,-294 724.5,-294 724.5,-275 819.5,-275 819.5,-294"/>
<text text-anchor="middle" x="772" y="-282" font-family="Helvetica,sans-Serif" font-size="10.00">membergroup.h</text>
</a>
</g>
</g>
<!-- Node6&#45;&gt;Node28 -->
<g id="edge52_Node000006_Node000028" class="edge">
<title>Node6&#45;&gt;Node28</title>
<g id="a_edge52_Node000006_Node000028"><a xlink:title=" ">
<path fill="none" stroke="#63b8ff" d="M687.23,-329.98C703.18,-321.61 727.78,-308.7 746.38,-298.95"/>
<polygon fill="#63b8ff" stroke="#63b8ff" points="748.25,-301.92 755.48,-294.17 745,-295.72 748.25,-301.92"/>
</a>
</g>
</g>
<!-- Node29 -->
<g id="Node000029" class="node">
<title>Node29</title>
<g id="a_Node000029"><a xlink:title=" ">
<polygon fill="#e0e0e0" stroke="#999999" points="924.5,-294 837.5,-294 837.5,-275 924.5,-275 924.5,-294"/>
<text text-anchor="middle" x="881" y="-282" font-family="Helvetica,sans-Serif" font-size="10.00">configvalues.h</text>
</a>
</g>
</g>
<!-- Node6&#45;&gt;Node29 -->
<g id="edge58_Node000006_Node000029" class="edge">
<title>Node6&#45;&gt;Node29</title>
<g id="a_edge58_Node000006_Node000029"><a xlink:title=" ">
<path fill="none" stroke="#63b8ff" d="M703.81,-330.22C739.68,-321.17 797.33,-306.62 837.08,-296.58"/>
<polygon fill="#63b8ff" stroke="#63b8ff" points="838.19,-299.92 847.03,-294.07 836.47,-293.13 838.19,-299.92"/>
</a>
</g>
</g>
<!-- Node8&#45;&gt;Node3 -->
<g id="edge11_Node000008_Node000003" class="edge">
<title>Node8&#45;&gt;Node3</title>
<g id="a_edge11_Node000008_Node000003"><a xlink:title=" ">
<path fill="none" stroke="#63b8ff" d="M266.03,-219.8C271.8,-197.29 290.5,-137.02 331,-110 434.32,-41.07 481.89,-71.49 605,-55 841.23,-23.35 1128.87,-13.67 1223.87,-11.22"/>
<polygon fill="#63b8ff" stroke="#63b8ff" points="1224.07,-14.72 1233.98,-10.97 1223.89,-7.72 1224.07,-14.72"/>
</a>
</g>
</g>
<!-- Node8&#45;&gt;Node4 -->
<g id="edge16_Node000008_Node000004" class="edge">
<title>Node8&#45;&gt;Node4</title>
<g id="a_edge16_Node000008_Node000004"><a xlink:title=" ">
<path fill="none" stroke="#63b8ff" d="M225.24,-223.75C177.04,-216.31 104.4,-199.07 133,-165 157.53,-135.78 262.28,-125.74 329.07,-122.29"/>
<polygon fill="#63b8ff" stroke="#63b8ff" points="329.62,-125.77 339.44,-121.8 329.29,-118.78 329.62,-125.77"/>
</a>
</g>
</g>
<!-- Node8&#45;&gt;Node5 -->
<g id="edge10_Node000008_Node000005" class="edge">
<title>Node8&#45;&gt;Node5</title>
<g id="a_edge10_Node000008_Node000005"><a xlink:title=" ">
<path fill="none" stroke="#63b8ff" d="M269.12,-219.98C277.91,-206.13 297.22,-178.92 321,-165 348.68,-148.79 436.88,-133.24 486.05,-125.53"/>
<polygon fill="#63b8ff" stroke="#63b8ff" points="486.86,-128.94 496.21,-123.96 485.79,-122.03 486.86,-128.94"/>
</a>
</g>
</g>
<!-- Node8&#45;&gt;Node7 -->
<g id="edge15_Node000008_Node000007" class="edge">
<title>Node8&#45;&gt;Node7</title>
<g id="a_edge15_Node000008_Node000007"><a xlink:title=" ">
<path fill="none" stroke="#63b8ff" d="M281.51,-219.98C298.97,-211.5 326.01,-198.35 346.17,-188.54"/>
<polygon fill="#63b8ff" stroke="#63b8ff" points="347.71,-191.69 355.17,-184.17 344.64,-185.4 347.71,-191.69"/>
</a>
</g>
</g>
<!-- Node9 -->
<g id="Node000009" class="node">
<title>Node9</title>
<g id="a_Node000009"><a xlink:title=" ">
<polygon fill="#e0e0e0" stroke="#999999" points="701.5,-74 628.5,-74 628.5,-55 701.5,-55 701.5,-74"/>
<text text-anchor="middle" x="665" y="-62" font-family="Helvetica,sans-Serif" font-size="10.00">string_view</text>
</a>
</g>
</g>
<!-- Node8&#45;&gt;Node9 -->
<g id="edge12_Node000008_Node000009" class="edge">
<title>Node8&#45;&gt;Node9</title>
<g id="a_edge12_Node000008_Node000009"><a xlink:title=" ">
<path fill="none" stroke="#63b8ff" d="M225.45,-225.06C174.3,-218.95 93.68,-203.08 123,-165 183.19,-86.83 498.17,-70.03 618.35,-66.46"/>
<polygon fill="#63b8ff" stroke="#63b8ff" points="618.45,-69.95 628.35,-66.18 618.25,-62.96 618.45,-69.95"/>
</a>
</g>
</g>
<!-- Node10 -->
<g id="Node000010" class="node">
<title>Node10</title>
<g id="a_Node000010"><a xlink:title=" ">
<polygon fill="#e0e0e0" stroke="#999999" points="236,-184 204,-184 204,-165 236,-165 236,-184"/>
<text text-anchor="middle" x="220" y="-172" font-family="Helvetica,sans-Serif" font-size="10.00">set</text>
</a>
</g>
</g>
<!-- Node8&#45;&gt;Node10 -->
<g id="edge13_Node000008_Node000010" class="edge">
<title>Node8&#45;&gt;Node10</title>
<g id="a_edge13_Node000008_Node000010"><a xlink:title=" ">
<path fill="none" stroke="#63b8ff" d="M256.73,-219.75C250.46,-212.18 241.21,-201.05 233.57,-191.84"/>
<polygon fill="#63b8ff" stroke="#63b8ff" points="236.21,-189.55 227.13,-184.09 230.83,-194.02 236.21,-189.55"/>
</a>
</g>
</g>
<!-- Node11 -->
<g id="Node000011" class="node">
<title>Node11</title>
<g id="a_Node000011"><a xlink:title=" ">
<polygon fill="#e0e0e0" stroke="#999999" points="1134,-184 1096,-184 1096,-165 1134,-165 1134,-184"/>
<text text-anchor="middle" x="1115" y="-172" font-family="Helvetica,sans-Serif" font-size="10.00">map</text>
</a>
</g>
</g>
<!-- Node8&#45;&gt;Node11 -->
<g id="edge14_Node000008_Node000011" class="edge">
<title>Node8&#45;&gt;Node11</title>
<g id="a_edge14_Node000008_Node000011"><a xlink:title=" ">
<path fill="none" stroke="#63b8ff" d="M302.51,-226.51C412.88,-220.73 739.82,-203.16 1011,-184 1036.24,-182.22 1064.89,-179.85 1085.72,-178.07"/>
<polygon fill="#63b8ff" stroke="#63b8ff" points="1086.18,-181.54 1095.84,-177.19 1085.58,-174.57 1086.18,-181.54"/>
</a>
</g>
</g>
<!-- Node12 -->
<g id="Node000012" class="node">
<title>Node12</title>
<g id="a_Node000012"><a xlink:title=" ">
<polygon fill="#e0e0e0" stroke="#999999" points="185.5,-184 142.5,-184 142.5,-165 185.5,-165 185.5,-184"/>
<text text-anchor="middle" x="164" y="-172" font-family="Helvetica,sans-Serif" font-size="10.00">stack</text>
</a>
</g>
</g>
<!-- Node8&#45;&gt;Node12 -->
<g id="edge17_Node000008_Node000012" class="edge">
<title>Node8&#45;&gt;Node12</title>
<g id="a_edge17_Node000008_Node000012"><a xlink:title=" ">
<path fill="none" stroke="#63b8ff" d="M247.93,-219.98C232.14,-211.61 207.78,-198.7 189.37,-188.95"/>
<polygon fill="#63b8ff" stroke="#63b8ff" points="190.83,-185.76 180.36,-184.17 187.56,-191.95 190.83,-185.76"/>
</a>
</g>
</g>
<!-- Node13&#45;&gt;Node5 -->
<g id="edge19_Node000013_Node000005" class="edge">
<title>Node13&#45;&gt;Node5</title>
<g id="a_edge19_Node000013_Node000005"><a xlink:title=" ">
<path fill="none" stroke="#63b8ff" d="M635.27,-277.24C608.1,-271.09 570.94,-259.54 544,-239 520.38,-220.98 514.85,-212.36 506,-184 501.28,-168.86 505.95,-151.22 511.13,-138.38"/>
<polygon fill="#63b8ff" stroke="#63b8ff" points="514.33,-139.81 515.23,-129.25 507.94,-136.94 514.33,-139.81"/>
</a>
</g>
</g>
<!-- Node14 -->
<g id="Node000014" class="node">
<title>Node14</title>
<g id="a_Node000014"><a xlink:href="../../d9/d49/types_8h.html" target="_top" xlink:title="This file contains a number of basic enums and types.">
<polygon fill="white" stroke="#666666" points="807.5,-239 754.5,-239 754.5,-220 807.5,-220 807.5,-239"/>
<text text-anchor="middle" x="781" y="-227" font-family="Helvetica,sans-Serif" font-size="10.00">types.h</text>
</a>
</g>
</g>
<!-- Node13&#45;&gt;Node14 -->
<g id="edge20_Node000013_Node000014" class="edge">
<title>Node13&#45;&gt;Node14</title>
<g id="a_edge20_Node000013_Node000014"><a xlink:title=" ">
<path fill="none" stroke="#63b8ff" d="M688.67,-274.98C706.29,-266.5 733.58,-253.35 753.93,-243.54"/>
<polygon fill="#63b8ff" stroke="#63b8ff" points="755.52,-246.66 763.01,-239.17 752.48,-240.36 755.52,-246.66"/>
</a>
</g>
</g>
<!-- Node24 -->
<g id="Node000024" class="node">
<title>Node24</title>
<g id="a_Node000024"><a xlink:href="../../d1/d02/reflist_8h.html" target="_top" xlink:title=" ">
<polygon fill="white" stroke="#666666" points="697.5,-239 644.5,-239 644.5,-220 697.5,-220 697.5,-239"/>
<text text-anchor="middle" x="671" y="-227" font-family="Helvetica,sans-Serif" font-size="10.00">reflist.h</text>
</a>
</g>
</g>
<!-- Node13&#45;&gt;Node24 -->
<g id="edge34_Node000013_Node000024" class="edge">
<title>Node13&#45;&gt;Node24</title>
<g id="a_edge34_Node000013_Node000024"><a xlink:title=" ">
<path fill="none" stroke="#63b8ff" d="M671,-274.75C671,-267.8 671,-257.85 671,-249.13"/>
<polygon fill="#63b8ff" stroke="#63b8ff" points="674.5,-249.09 671,-239.09 667.5,-249.09 674.5,-249.09"/>
</a>
</g>
</g>
<!-- Node26 -->
<g id="Node000026" class="node">
<title>Node26</title>
<g id="a_Node000026"><a xlink:href="../../d7/dfc/construct_8h.html" target="_top" xlink:title=" ">
<polygon fill="white" stroke="#666666" points="1001.5,-184 930.5,-184 930.5,-165 1001.5,-165 1001.5,-184"/>
<text text-anchor="middle" x="966" y="-172" font-family="Helvetica,sans-Serif" font-size="10.00">construct.h</text>
</a>
</g>
</g>
<!-- Node13&#45;&gt;Node26 -->
<g id="edge48_Node000013_Node000026" class="edge">
<title>Node13&#45;&gt;Node26</title>
<g id="a_edge48_Node000013_Node000026"><a xlink:title=" ">
<path fill="none" stroke="#63b8ff" d="M678.35,-274.96C690.79,-261.09 717.44,-233.83 746,-220 761.5,-212.49 860.49,-194.13 920.28,-183.49"/>
<polygon fill="#63b8ff" stroke="#63b8ff" points="921.01,-186.92 930.24,-181.72 919.78,-180.02 921.01,-186.92"/>
</a>
</g>
</g>
<!-- Node15 -->
<g id="Node000015" class="node">
<title>Node15</title>
<g id="a_Node000015"><a xlink:href="../../d7/d5c/qcstring_8h.html" target="_top" xlink:title=" ">
<polygon fill="white" stroke="#666666" points="962.5,-129 897.5,-129 897.5,-110 962.5,-110 962.5,-129"/>
<text text-anchor="middle" x="930" y="-117" font-family="Helvetica,sans-Serif" font-size="10.00">qcstring.h</text>
</a>
</g>
</g>
<!-- Node14&#45;&gt;Node15 -->
<g id="edge21_Node000014_Node000015" class="edge">
<title>Node14&#45;&gt;Node15</title>
<g id="a_edge21_Node000014_Node000015"><a xlink:title=" ">
<path fill="none" stroke="#63b8ff" d="M807.54,-227.44C862.42,-224.64 985.44,-214.98 1011,-184 1028.47,-162.82 995.8,-144.2 966.88,-132.68"/>
<polygon fill="#63b8ff" stroke="#63b8ff" points="967.88,-129.32 957.29,-129.06 965.41,-135.87 967.88,-129.32"/>
</a>
</g>
</g>
<!-- Node15&#45;&gt;Node3 -->
<g id="edge22_Node000015_Node000003" class="edge">
<title>Node15&#45;&gt;Node3</title>
<g id="a_edge22_Node000015_Node000003"><a xlink:title=" ">
<path fill="none" stroke="#63b8ff" d="M962.58,-118.08C1033.02,-116.5 1196.38,-109.05 1237,-74 1249.79,-62.97 1254.16,-43.71 1255.56,-29.29"/>
<polygon fill="#63b8ff" stroke="#63b8ff" points="1259.07,-29.19 1256.15,-19.01 1252.08,-28.79 1259.07,-29.19"/>
</a>
</g>
</g>
<!-- Node15&#45;&gt;Node9 -->
<g id="edge23_Node000015_Node000009" class="edge">
<title>Node15&#45;&gt;Node9</title>
<g id="a_edge23_Node000015_Node000009"><a xlink:title=" ">
<path fill="none" stroke="#63b8ff" d="M897.24,-111.95C850.54,-102.61 764.59,-85.42 711.37,-74.77"/>
<polygon fill="#63b8ff" stroke="#63b8ff" points="712,-71.33 701.5,-72.8 710.62,-78.19 712,-71.33"/>
</a>
</g>
</g>
<!-- Node16 -->
<g id="Node000016" class="node">
<title>Node16</title>
<g id="a_Node000016"><a xlink:title=" ">
<polygon fill="#e0e0e0" stroke="#999999" points="851,-74 787,-74 787,-55 851,-55 851,-74"/>
<text text-anchor="middle" x="819" y="-62" font-family="Helvetica,sans-Serif" font-size="10.00">algorithm</text>
</a>
</g>
</g>
<!-- Node15&#45;&gt;Node16 -->
<g id="edge24_Node000015_Node000016" class="edge">
<title>Node15&#45;&gt;Node16</title>
<g id="a_edge24_Node000015_Node000016"><a xlink:title=" ">
<path fill="none" stroke="#63b8ff" d="M912.17,-109.98C894.39,-101.5 866.85,-88.35 846.32,-78.54"/>
<polygon fill="#63b8ff" stroke="#63b8ff" points="847.69,-75.32 837.16,-74.17 844.67,-81.64 847.69,-75.32"/>
</a>
</g>
</g>
<!-- Node17 -->
<g id="Node000017" class="node">
<title>Node17</title>
<g id="a_Node000017"><a xlink:title=" ">
<polygon fill="#e0e0e0" stroke="#999999" points="768.5,-74 719.5,-74 719.5,-55 768.5,-55 768.5,-74"/>
<text text-anchor="middle" x="744" y="-62" font-family="Helvetica,sans-Serif" font-size="10.00">cctype</text>
</a>
</g>
</g>
<!-- Node15&#45;&gt;Node17 -->
<g id="edge25_Node000015_Node000017" class="edge">
<title>Node15&#45;&gt;Node17</title>
<g id="a_edge25_Node000015_Node000017"><a xlink:title=" ">
<path fill="none" stroke="#63b8ff" d="M900.12,-109.98C866.94,-100.53 813.46,-85.29 778.52,-75.34"/>
<polygon fill="#63b8ff" stroke="#63b8ff" points="779.33,-71.93 768.75,-72.55 777.41,-78.66 779.33,-71.93"/>
</a>
</g>
</g>
<!-- Node18 -->
<g id="Node000018" class="node">
<title>Node18</title>
<g id="a_Node000018"><a xlink:title=" ">
<polygon fill="#e0e0e0" stroke="#999999" points="1021,-74 971,-74 971,-55 1021,-55 1021,-74"/>
<text text-anchor="middle" x="996" y="-62" font-family="Helvetica,sans-Serif" font-size="10.00">cstring</text>
</a>
</g>
</g>
<!-- Node15&#45;&gt;Node18 -->
<g id="edge26_Node000015_Node000018" class="edge">
<title>Node15&#45;&gt;Node18</title>
<g id="a_edge26_Node000015_Node000018"><a xlink:title=" ">
<path fill="none" stroke="#63b8ff" d="M940.6,-109.98C950.46,-102.07 965.35,-90.11 977.22,-80.58"/>
<polygon fill="#63b8ff" stroke="#63b8ff" points="979.6,-83.16 985.2,-74.17 975.21,-77.7 979.6,-83.16"/>
</a>
</g>
</g>
<!-- Node19 -->
<g id="Node000019" class="node">
<title>Node19</title>
<g id="a_Node000019"><a xlink:title=" ">
<polygon fill="#e0e0e0" stroke="#999999" points="1085,-74 1039,-74 1039,-55 1085,-55 1085,-74"/>
<text text-anchor="middle" x="1062" y="-62" font-family="Helvetica,sans-Serif" font-size="10.00">cstdio</text>
</a>
</g>
</g>
<!-- Node15&#45;&gt;Node19 -->
<g id="edge27_Node000015_Node000019" class="edge">
<title>Node15&#45;&gt;Node19</title>
<g id="a_edge27_Node000015_Node000019"><a xlink:title=" ">
<path fill="none" stroke="#63b8ff" d="M951.21,-109.98C972.73,-101.34 1006.28,-87.87 1030.83,-78.02"/>
<polygon fill="#63b8ff" stroke="#63b8ff" points="1032.43,-81.14 1040.41,-74.17 1029.82,-74.65 1032.43,-81.14"/>
</a>
</g>
</g>
<!-- Node20 -->
<g id="Node000020" class="node">
<title>Node20</title>
<g id="a_Node000020"><a xlink:title=" ">
<polygon fill="#e0e0e0" stroke="#999999" points="1152.5,-74 1103.5,-74 1103.5,-55 1152.5,-55 1152.5,-74"/>
<text text-anchor="middle" x="1128" y="-62" font-family="Helvetica,sans-Serif" font-size="10.00">cstdlib</text>
</a>
</g>
</g>
<!-- Node15&#45;&gt;Node20 -->
<g id="edge28_Node000015_Node000020" class="edge">
<title>Node15&#45;&gt;Node20</title>
<g id="a_edge28_Node000015_Node000020"><a xlink:title=" ">
<path fill="none" stroke="#63b8ff" d="M961.81,-109.98C997.88,-100.33 1056.49,-84.64 1093.6,-74.71"/>
<polygon fill="#63b8ff" stroke="#63b8ff" points="1094.7,-78.04 1103.46,-72.07 1092.89,-71.27 1094.7,-78.04"/>
</a>
</g>
</g>
<!-- Node21 -->
<g id="Node000021" class="node">
<title>Node21</title>
<g id="a_Node000021"><a xlink:title=" ">
<polygon fill="#e0e0e0" stroke="#999999" points="930,-19 880,-19 880,0 930,0 930,-19"/>
<text text-anchor="middle" x="905" y="-7" font-family="Helvetica,sans-Serif" font-size="10.00">cstdint</text>
</a>
</g>
</g>
<!-- Node15&#45;&gt;Node21 -->
<g id="edge29_Node000015_Node000021" class="edge">
<title>Node15&#45;&gt;Node21</title>
<g id="a_edge29_Node000015_Node000021"><a xlink:title=" ">
<path fill="none" stroke="#63b8ff" d="M921.52,-109.85C913.95,-101.47 903.4,-88.01 899,-74 894.43,-59.46 896.51,-42.19 899.41,-29.34"/>
<polygon fill="#63b8ff" stroke="#63b8ff" points="902.88,-29.92 902.02,-19.36 896.11,-28.14 902.88,-29.92"/>
</a>
</g>
</g>
<!-- Node22 -->
<g id="Node000022" class="node">
<title>Node22</title>
<g id="a_Node000022"><a xlink:title=" ">
<polygon fill="#e0e0e0" stroke="#999999" points="1227.5,-74 1170.5,-74 1170.5,-55 1227.5,-55 1227.5,-74"/>
<text text-anchor="middle" x="1199" y="-62" font-family="Helvetica,sans-Serif" font-size="10.00">ostream</text>
</a>
</g>
</g>
<!-- Node15&#45;&gt;Node22 -->
<g id="edge30_Node000015_Node000022" class="edge">
<title>Node15&#45;&gt;Node22</title>
<g id="a_edge30_Node000015_Node000022"><a xlink:title=" ">
<path fill="none" stroke="#63b8ff" d="M962.73,-112.61C1005.79,-104.77 1084.07,-90.24 1160.11,-74.34"/>
<polygon fill="#63b8ff" stroke="#63b8ff" points="1161.27,-77.67 1170.34,-72.19 1159.83,-70.82 1161.27,-77.67"/>
</a>
</g>
</g>
<!-- Node23 -->
<g id="Node000023" class="node">
<title>Node23</title>
<g id="a_Node000023"><a xlink:href="../../db/d7c/utf8_8h.html" target="_top" xlink:title="Various UTF8 related helper functions.">
<polygon fill="white" stroke="#666666" points="952.5,-74 907.5,-74 907.5,-55 952.5,-55 952.5,-74"/>
<text text-anchor="middle" x="930" y="-62" font-family="Helvetica,sans-Serif" font-size="10.00">utf8.h</text>
</a>
</g>
</g>
<!-- Node15&#45;&gt;Node23 -->
<g id="edge31_Node000015_Node000023" class="edge">
<title>Node15&#45;&gt;Node23</title>
<g id="a_edge31_Node000015_Node000023"><a xlink:title=" ">
<path fill="none" stroke="#63b8ff" d="M930,-109.75C930,-102.8 930,-92.85 930,-84.13"/>
<polygon fill="#63b8ff" stroke="#63b8ff" points="933.5,-84.09 930,-74.09 926.5,-84.09 933.5,-84.09"/>
</a>
</g>
</g>
<!-- Node23&#45;&gt;Node3 -->
<g id="edge33_Node000023_Node000003" class="edge">
<title>Node23&#45;&gt;Node3</title>
<g id="a_edge33_Node000023_Node000003"><a xlink:title=" ">
<path fill="none" stroke="#63b8ff" d="M952.65,-57.15C955.78,-56.38 958.96,-55.63 962,-55 1056.29,-35.4 1169.29,-20.73 1223.66,-14.22"/>
<polygon fill="#63b8ff" stroke="#63b8ff" points="1224.21,-17.68 1233.72,-13.03 1223.38,-10.73 1224.21,-17.68"/>
</a>
</g>
</g>
<!-- Node23&#45;&gt;Node21 -->
<g id="edge32_Node000023_Node000021" class="edge">
<title>Node23&#45;&gt;Node21</title>
<g id="a_edge32_Node000023_Node000021"><a xlink:title=" ">
<path fill="none" stroke="#63b8ff" d="M925.87,-54.75C922.49,-47.57 917.58,-37.18 913.38,-28.27"/>
<polygon fill="#63b8ff" stroke="#63b8ff" points="916.48,-26.64 909.05,-19.09 910.15,-29.63 916.48,-26.64"/>
</a>
</g>
</g>
<!-- Node24&#45;&gt;Node2 -->
<g id="edge37_Node000024_Node000002" class="edge">
<title>Node24&#45;&gt;Node2</title>
<g id="a_edge37_Node000024_Node000002"><a xlink:title=" ">
<path fill="none" stroke="#63b8ff" d="M697.61,-222.92C748.76,-212.15 857.22,-189.12 874,-184 895.94,-177.3 899.98,-171.43 922,-165 987.74,-145.81 1066.5,-132.61 1112.72,-125.83"/>
<polygon fill="#63b8ff" stroke="#63b8ff" points="1113.51,-129.25 1122.9,-124.36 1112.51,-122.32 1113.51,-129.25"/>
</a>
</g>
</g>
<!-- Node24&#45;&gt;Node4 -->
<g id="edge36_Node000024_Node000004" class="edge">
<title>Node24&#45;&gt;Node4</title>
<g id="a_edge36_Node000024_Node000004"><a xlink:title=" ">
<path fill="none" stroke="#63b8ff" d="M648.16,-219.84C597.59,-200.68 476.06,-154.63 417.97,-132.62"/>
<polygon fill="#63b8ff" stroke="#63b8ff" points="419.15,-129.32 408.55,-129.05 416.66,-135.86 419.15,-129.32"/>
</a>
</g>
</g>
<!-- Node24&#45;&gt;Node5 -->
<g id="edge35_Node000024_Node000005" class="edge">
<title>Node24&#45;&gt;Node5</title>
<g id="a_edge35_Node000024_Node000005"><a xlink:title=" ">
<path fill="none" stroke="#63b8ff" d="M658.9,-219.84C633.05,-201.36 572.23,-157.86 540.34,-135.05"/>
<polygon fill="#63b8ff" stroke="#63b8ff" points="542.33,-132.17 532.16,-129.2 538.26,-137.86 542.33,-132.17"/>
</a>
</g>
</g>
<!-- Node24&#45;&gt;Node15 -->
<g id="edge38_Node000024_Node000015" class="edge">
<title>Node24&#45;&gt;Node15</title>
<g id="a_edge38_Node000024_Node000015"><a xlink:title=" ">
<path fill="none" stroke="#63b8ff" d="M697.72,-223C739.7,-214.14 818.98,-196.44 845,-184 871.04,-171.55 897.05,-150.55 913.3,-136.13"/>
<polygon fill="#63b8ff" stroke="#63b8ff" points="915.81,-138.59 920.87,-129.27 911.11,-133.4 915.81,-138.59"/>
</a>
</g>
</g>
<!-- Node25 -->
<g id="Node000025" class="node">
<title>Node25</title>
<g id="a_Node000025"><a xlink:href="../../da/de1/linkedmap_8h.html" target="_top" xlink:title=" ">
<polygon fill="white" stroke="#666666" points="835.5,-184 758.5,-184 758.5,-165 835.5,-165 835.5,-184"/>
<text text-anchor="middle" x="797" y="-172" font-family="Helvetica,sans-Serif" font-size="10.00">linkedmap.h</text>
</a>
</g>
</g>
<!-- Node24&#45;&gt;Node25 -->
<g id="edge39_Node000024_Node000025" class="edge">
<title>Node24&#45;&gt;Node25</title>
<g id="a_edge39_Node000024_Node000025"><a xlink:title=" ">
<path fill="none" stroke="#63b8ff" d="M691.24,-219.98C711.7,-211.38 743.53,-197.99 766.93,-188.15"/>
<polygon fill="#63b8ff" stroke="#63b8ff" points="768.53,-191.27 776.39,-184.17 765.81,-184.82 768.53,-191.27"/>
</a>
</g>
</g>
<!-- Node24&#45;&gt;Node26 -->
<g id="edge47_Node000024_Node000026" class="edge">
<title>Node24&#45;&gt;Node26</title>
<g id="a_edge47_Node000024_Node000026"><a xlink:title=" ">
<path fill="none" stroke="#63b8ff" d="M697.88,-222.8C702.58,-221.84 707.43,-220.87 712,-220 751.05,-212.53 858.18,-194.01 920.12,-183.36"/>
<polygon fill="#63b8ff" stroke="#63b8ff" points="920.77,-186.8 930.03,-181.66 919.58,-179.9 920.77,-186.8"/>
</a>
</g>
</g>
<!-- Node25&#45;&gt;Node2 -->
<g id="edge42_Node000025_Node000002" class="edge">
<title>Node25&#45;&gt;Node2</title>
<g id="a_edge42_Node000025_Node000002"><a xlink:title=" ">
<path fill="none" stroke="#63b8ff" d="M835.67,-167.73C903.7,-157.57 1044.06,-136.61 1112.61,-126.38"/>
<polygon fill="#63b8ff" stroke="#63b8ff" points="1113.2,-129.83 1122.57,-124.89 1112.17,-122.91 1113.2,-129.83"/>
</a>
</g>
</g>
<!-- Node25&#45;&gt;Node3 -->
<g id="edge43_Node000025_Node000003" class="edge">
<title>Node25&#45;&gt;Node3</title>
<g id="a_edge43_Node000025_Node000003"><a xlink:title=" ">
<path fill="none" stroke="#63b8ff" d="M761.27,-164.99C696.65,-148.04 571.33,-107.2 620,-55 640.79,-32.7 1096.9,-15.82 1223.61,-11.55"/>
<polygon fill="#63b8ff" stroke="#63b8ff" points="1223.95,-15.04 1233.83,-11.21 1223.72,-8.05 1223.95,-15.04"/>
</a>
</g>
</g>
<!-- Node25&#45;&gt;Node4 -->
<g id="edge40_Node000025_Node000004" class="edge">
<title>Node25&#45;&gt;Node4</title>
<g id="a_edge40_Node000025_Node000004"><a xlink:title=" ">
<path fill="none" stroke="#63b8ff" d="M758.33,-168.51C685.46,-159.12 527.51,-138.75 442.64,-127.8"/>
<polygon fill="#63b8ff" stroke="#63b8ff" points="443.03,-124.33 432.66,-126.52 442.14,-131.27 443.03,-124.33"/>
</a>
</g>
</g>
<!-- Node25&#45;&gt;Node5 -->
<g id="edge41_Node000025_Node000005" class="edge">
<title>Node25&#45;&gt;Node5</title>
<g id="a_edge41_Node000025_Node000005"><a xlink:title=" ">
<path fill="none" stroke="#63b8ff" d="M758.48,-166.13C703.97,-155.7 605.19,-136.8 553.53,-126.92"/>
<polygon fill="#63b8ff" stroke="#63b8ff" points="554.04,-123.45 543.56,-125.01 552.72,-130.32 554.04,-123.45"/>
</a>
</g>
</g>
<!-- Node25&#45;&gt;Node15 -->
<g id="edge46_Node000025_Node000015" class="edge">
<title>Node25&#45;&gt;Node15</title>
<g id="a_edge46_Node000025_Node000015"><a xlink:title=" ">
<path fill="none" stroke="#63b8ff" d="M818.37,-164.98C840.15,-156.3 874.16,-142.75 898.92,-132.88"/>
<polygon fill="#63b8ff" stroke="#63b8ff" points="900.25,-136.12 908.24,-129.17 897.66,-129.62 900.25,-136.12"/>
</a>
</g>
</g>
<!-- Node25&#45;&gt;Node16 -->
<g id="edge44_Node000025_Node000016" class="edge">
<title>Node25&#45;&gt;Node16</title>
<g id="a_edge44_Node000025_Node000016"><a xlink:title=" ">
<path fill="none" stroke="#63b8ff" d="M798.8,-164.66C802.36,-147.17 810.38,-107.8 815.18,-84.27"/>
<polygon fill="#63b8ff" stroke="#63b8ff" points="818.67,-84.66 817.24,-74.16 811.81,-83.26 818.67,-84.66"/>
</a>
</g>
</g>
<!-- Node25&#45;&gt;Node17 -->
<g id="edge45_Node000025_Node000017" class="edge">
<title>Node25&#45;&gt;Node17</title>
<g id="a_edge45_Node000025_Node000017"><a xlink:title=" ">
<path fill="none" stroke="#63b8ff" d="M792.66,-164.66C783.96,-146.93 764.23,-106.73 752.74,-83.32"/>
<polygon fill="#63b8ff" stroke="#63b8ff" points="755.8,-81.59 748.25,-74.16 749.51,-84.68 755.8,-81.59"/>
</a>
</g>
</g>
<!-- Node27&#45;&gt;Node5 -->
<g id="edge50_Node000027_Node000005" class="edge">
<title>Node27&#45;&gt;Node5</title>
<g id="a_edge50_Node000027_Node000005"><a xlink:title=" ">
<path fill="none" stroke="#63b8ff" d="M640.02,-164.98C616.5,-156.27 579.71,-142.63 553.06,-132.75"/>
<polygon fill="#63b8ff" stroke="#63b8ff" points="553.99,-129.36 543.39,-129.17 551.55,-135.93 553.99,-129.36"/>
</a>
</g>
</g>
<!-- Node27&#45;&gt;Node15 -->
<g id="edge51_Node000027_Node000015" class="edge">
<title>Node27&#45;&gt;Node15</title>
<g id="a_edge51_Node000027_Node000015"><a xlink:title=" ">
<path fill="none" stroke="#63b8ff" d="M702.11,-165.74C751.44,-155.95 835.96,-139.17 887.04,-129.03"/>
<polygon fill="#63b8ff" stroke="#63b8ff" points="887.97,-132.41 897.1,-127.03 886.61,-125.54 887.97,-132.41"/>
</a>
</g>
</g>
<!-- Node28&#45;&gt;Node2 -->
<g id="edge55_Node000028_Node000002" class="edge">
<title>Node28&#45;&gt;Node2</title>
<g id="a_edge55_Node000028_Node000002"><a xlink:title=" ">
<path fill="none" stroke="#63b8ff" d="M796.23,-274.95C841.93,-258.61 943.73,-221.29 1027,-184 1062.5,-168.1 1102.38,-147.31 1127.35,-133.93"/>
<polygon fill="#63b8ff" stroke="#63b8ff" points="1129.31,-136.85 1136.45,-129.02 1125.99,-130.68 1129.31,-136.85"/>
</a>
</g>
</g>
<!-- Node28&#45;&gt;Node5 -->
<g id="edge53_Node000028_Node000005" class="edge">
<title>Node28&#45;&gt;Node5</title>
<g id="a_edge53_Node000028_Node000005"><a xlink:title=" ">
<path fill="none" stroke="#63b8ff" d="M728.67,-274.93C700.76,-268.09 664.5,-256.68 636,-239 591.34,-211.28 551.38,-162.83 532.13,-137.31"/>
<polygon fill="#63b8ff" stroke="#63b8ff" points="534.77,-134.99 526.01,-129.03 529.14,-139.15 534.77,-134.99"/>
</a>
</g>
</g>
<!-- Node28&#45;&gt;Node11 -->
<g id="edge54_Node000028_Node000011" class="edge">
<title>Node28&#45;&gt;Node11</title>
<g id="a_edge54_Node000028_Node000011"><a xlink:title=" ">
<path fill="none" stroke="#63b8ff" d="M819.59,-275.67C860.57,-268.28 920.99,-255.82 972,-239 1014.46,-225 1061.44,-202.76 1089.57,-188.65"/>
<polygon fill="#63b8ff" stroke="#63b8ff" points="1091.35,-191.67 1098.69,-184.03 1088.19,-185.43 1091.35,-191.67"/>
</a>
</g>
</g>
<!-- Node28&#45;&gt;Node14 -->
<g id="edge56_Node000028_Node000014" class="edge">
<title>Node28&#45;&gt;Node14</title>
<g id="a_edge56_Node000028_Node000014"><a xlink:title=" ">
<path fill="none" stroke="#63b8ff" d="M773.49,-274.75C774.67,-267.8 776.36,-257.85 777.84,-249.13"/>
<polygon fill="#63b8ff" stroke="#63b8ff" points="781.32,-249.53 779.54,-239.09 774.42,-248.36 781.32,-249.53"/>
</a>
</g>
</g>
<!-- Node28&#45;&gt;Node24 -->
<g id="edge57_Node000028_Node000024" class="edge">
<title>Node28&#45;&gt;Node24</title>
<g id="a_edge57_Node000028_Node000024"><a xlink:title=" ">
<path fill="none" stroke="#63b8ff" d="M755.77,-274.98C739.82,-266.61 715.22,-253.7 696.62,-243.95"/>
<polygon fill="#63b8ff" stroke="#63b8ff" points="698,-240.72 687.52,-239.17 694.75,-246.92 698,-240.72"/>
</a>
</g>
</g>
<!-- Node30&#45;&gt;Node11 -->
<g id="edge61_Node000030_Node000011" class="edge">
<title>Node30&#45;&gt;Node11</title>
<g id="a_edge61_Node000030_Node000011"><a xlink:title=" ">
<path fill="none" stroke="#63b8ff" d="M1154.24,-219.75C1147.53,-212.18 1137.66,-201.05 1129.49,-191.84"/>
<polygon fill="#63b8ff" stroke="#63b8ff" points="1131.87,-189.25 1122.62,-184.09 1126.63,-193.89 1131.87,-189.25"/>
</a>
</g>
</g>
<!-- Node30&#45;&gt;Node15 -->
<g id="edge62_Node000030_Node000015" class="edge">
<title>Node30&#45;&gt;Node15</title>
<g id="a_edge62_Node000030_Node000015"><a xlink:title=" ">
<path fill="none" stroke="#63b8ff" d="M1162.04,-219.66C1161.59,-205.86 1158.59,-179.32 1143,-165 1118.63,-142.61 1027.84,-130.02 972.97,-124.31"/>
<polygon fill="#63b8ff" stroke="#63b8ff" points="973.14,-120.81 962.84,-123.29 972.44,-127.77 973.14,-120.81"/>
</a>
</g>
</g>
<!-- Node30&#45;&gt;Node26 -->
<g id="edge68_Node000030_Node000026" class="edge">
<title>Node30&#45;&gt;Node26</title>
<g id="a_edge68_Node000030_Node000026"><a xlink:title=" ">
<path fill="none" stroke="#63b8ff" d="M1130.51,-219.98C1097.18,-210.97 1044.4,-196.7 1007.65,-186.76"/>
<polygon fill="#63b8ff" stroke="#63b8ff" points="1008.3,-183.31 997.74,-184.08 1006.48,-190.07 1008.3,-183.31"/>
</a>
</g>
</g>
<!-- Node31 -->
<g id="Node000031" class="node">
<title>Node31</title>
<g id="a_Node000031"><a xlink:title=" ">
<polygon fill="#e0e0e0" stroke="#999999" points="1250,-184 1190,-184 1190,-165 1250,-165 1250,-184"/>
<text text-anchor="middle" x="1220" y="-172" font-family="Helvetica,sans-Serif" font-size="10.00">iostream</text>
</a>
</g>
</g>
<!-- Node30&#45;&gt;Node31 -->
<g id="edge60_Node000030_Node000031" class="edge">
<title>Node30&#45;&gt;Node31</title>
<g id="a_edge60_Node000030_Node000031"><a xlink:title=" ">
<path fill="none" stroke="#63b8ff" d="M1171.32,-219.98C1179.81,-212.23 1192.56,-200.58 1202.88,-191.14"/>
<polygon fill="#63b8ff" stroke="#63b8ff" points="1205.49,-193.5 1210.51,-184.17 1200.77,-188.33 1205.49,-193.5"/>
</a>
</g>
</g>
<!-- Node32 -->
<g id="Node000032" class="node">
<title>Node32</title>
<g id="a_Node000032"><a xlink:href="../../df/d9c/dir_8h.html" target="_top" xlink:title=" ">
<polygon fill="white" stroke="#666666" points="1382,-184 1344,-184 1344,-165 1382,-165 1382,-184"/>
<text text-anchor="middle" x="1363" y="-172" font-family="Helvetica,sans-Serif" font-size="10.00">dir.h</text>
</a>
</g>
</g>
<!-- Node30&#45;&gt;Node32 -->
<g id="edge63_Node000030_Node000032" class="edge">
<title>Node30&#45;&gt;Node32</title>
<g id="a_edge63_Node000030_Node000032"><a xlink:title=" ">
<path fill="none" stroke="#63b8ff" d="M1194.29,-219.98C1232.94,-209.79 1297.07,-192.89 1334.13,-183.11"/>
<polygon fill="#63b8ff" stroke="#63b8ff" points="1335.05,-186.49 1343.82,-180.56 1333.26,-179.72 1335.05,-186.49"/>
</a>
</g>
</g>
<!-- Node32&#45;&gt;Node2 -->
<g id="edge65_Node000032_Node000002" class="edge">
<title>Node32&#45;&gt;Node2</title>
<g id="a_edge65_Node000032_Node000002"><a xlink:title=" ">
<path fill="none" stroke="#63b8ff" d="M1343.81,-168.53C1339.28,-167.37 1334.47,-166.14 1330,-165 1282.37,-152.91 1227.5,-139.23 1191.42,-130.27"/>
<polygon fill="#63b8ff" stroke="#63b8ff" points="1191.86,-126.77 1181.31,-127.76 1190.17,-133.57 1191.86,-126.77"/>
</a>
</g>
</g>
<!-- Node32&#45;&gt;Node3 -->
<g id="edge64_Node000032_Node000003" class="edge">
<title>Node32&#45;&gt;Node3</title>
<g id="a_edge64_Node000032_Node000003"><a xlink:title=" ">
<path fill="none" stroke="#63b8ff" d="M1351.34,-165C1340.61,-156.72 1324.77,-143.33 1314,-129 1289.79,-96.78 1271.46,-52.87 1262.36,-28.56"/>
<polygon fill="#63b8ff" stroke="#63b8ff" points="1265.65,-27.36 1258.94,-19.16 1259.07,-29.75 1265.65,-27.36"/>
</a>
</g>
</g>
<!-- Node33 -->
<g id="Node000033" class="node">
<title>Node33</title>
<g id="a_Node000033"><a xlink:href="../../df/d45/fileinfo_8h.html" target="_top" xlink:title=" ">
<polygon fill="white" stroke="#666666" points="1381.5,-129 1322.5,-129 1322.5,-110 1381.5,-110 1381.5,-129"/>
<text text-anchor="middle" x="1352" y="-117" font-family="Helvetica,sans-Serif" font-size="10.00">fileinfo.h</text>
</a>
</g>
</g>
<!-- Node32&#45;&gt;Node33 -->
<g id="edge66_Node000032_Node000033" class="edge">
<title>Node32&#45;&gt;Node33</title>
<g id="a_edge66_Node000032_Node000033"><a xlink:title=" ">
<path fill="none" stroke="#63b8ff" d="M1361.18,-164.75C1359.74,-157.8 1357.68,-147.85 1355.87,-139.13"/>
<polygon fill="#63b8ff" stroke="#63b8ff" points="1359.24,-138.17 1353.78,-129.09 1352.39,-139.59 1359.24,-138.17"/>
</a>
</g>
</g>
<!-- Node33&#45;&gt;Node3 -->
<g id="edge67_Node000033_Node000003" class="edge">
<title>Node33&#45;&gt;Node3</title>
<g id="a_edge67_Node000033_Node000003"><a xlink:title=" ">
<path fill="none" stroke="#63b8ff" d="M1346.95,-109.77C1339.36,-97.03 1324.18,-72.92 1308,-55 1298.29,-44.25 1286.04,-33.65 1275.87,-25.49"/>
<polygon fill="#63b8ff" stroke="#63b8ff" points="1277.95,-22.68 1267.92,-19.27 1273.63,-28.19 1277.95,-22.68"/>
</a>
</g>
</g>
<!-- Node34&#45;&gt;Node5 -->
<g id="edge70_Node000034_Node000005" class="edge">
<title>Node34&#45;&gt;Node5</title>
<g id="a_edge70_Node000034_Node000005"><a xlink:title=" ">
<path fill="none" stroke="#63b8ff" d="M1020.61,-274.93C965.75,-259.12 846.87,-223.4 750,-184 732.14,-176.74 729.17,-171.45 711,-165 657.48,-146 592.6,-132.87 553.9,-126.02"/>
<polygon fill="#63b8ff" stroke="#63b8ff" points="554.16,-122.51 543.71,-124.26 552.97,-129.41 554.16,-122.51"/>
</a>
</g>
</g>
<!-- Node34&#45;&gt;Node11 -->
<g id="edge71_Node000034_Node000011" class="edge">
<title>Node34&#45;&gt;Node11</title>
<g id="a_edge71_Node000034_Node000011"><a xlink:title=" ">
<path fill="none" stroke="#63b8ff" d="M1049.15,-274.66C1046.93,-261.78 1044.58,-237.49 1054,-220 1061.23,-206.57 1074.49,-196.16 1086.8,-188.79"/>
<polygon fill="#63b8ff" stroke="#63b8ff" points="1088.86,-191.65 1095.92,-183.75 1085.47,-185.53 1088.86,-191.65"/>
</a>
</g>
</g>
<!-- Node34&#45;&gt;Node14 -->
<g id="edge74_Node000034_Node000014" class="edge">
<title>Node34&#45;&gt;Node14</title>
<g id="a_edge74_Node000034_Node000014"><a xlink:title=" ">
<path fill="none" stroke="#63b8ff" d="M1018.36,-277.29C973.92,-268.8 891.89,-253.03 822,-239 820.72,-238.74 819.41,-238.48 818.09,-238.21"/>
<polygon fill="#63b8ff" stroke="#63b8ff" points="818.39,-234.7 807.9,-236.13 816.99,-241.56 818.39,-234.7"/>
</a>
</g>
</g>
<!-- Node34&#45;&gt;Node30 -->
<g id="edge75_Node000034_Node000030" class="edge">
<title>Node34&#45;&gt;Node30</title>
<g id="a_edge75_Node000034_Node000030"><a xlink:title=" ">
<path fill="none" stroke="#63b8ff" d="M1068.83,-274.98C1086.61,-266.5 1114.15,-253.35 1134.68,-243.54"/>
<polygon fill="#63b8ff" stroke="#63b8ff" points="1136.33,-246.64 1143.84,-239.17 1133.31,-240.32 1136.33,-246.64"/>
</a>
</g>
</g>
<!-- Node34&#45;&gt;Node31 -->
<g id="edge73_Node000034_Node000031" class="edge">
<title>Node34&#45;&gt;Node31</title>
<g id="a_edge73_Node000034_Node000031"><a xlink:title=" ">
<path fill="none" stroke="#63b8ff" d="M1083.52,-283.41C1118.79,-281.48 1174.28,-272.77 1206,-239 1217.22,-227.05 1220.22,-208.23 1220.71,-194.18"/>
<polygon fill="#63b8ff" stroke="#63b8ff" points="1224.21,-194.14 1220.68,-184.15 1217.21,-194.16 1224.21,-194.14"/>
</a>
</g>
</g>
<!-- Node35 -->
<g id="Node000035" class="node">
<title>Node35</title>
<g id="a_Node000035"><a xlink:title=" ">
<polygon fill="#e0e0e0" stroke="#999999" points="1109.5,-239 1062.5,-239 1062.5,-220 1109.5,-220 1109.5,-239"/>
<text text-anchor="middle" x="1086" y="-227" font-family="Helvetica,sans-Serif" font-size="10.00">deque</text>
</a>
</g>
</g>
<!-- Node34&#45;&gt;Node35 -->
<g id="edge72_Node000034_Node000035" class="edge">
<title>Node34&#45;&gt;Node35</title>
<g id="a_edge72_Node000034_Node000035"><a xlink:title=" ">
<path fill="none" stroke="#63b8ff" d="M1056.78,-274.75C1061.62,-267.42 1068.68,-256.73 1074.64,-247.7"/>
<polygon fill="#63b8ff" stroke="#63b8ff" points="1077.74,-249.36 1080.33,-239.09 1071.9,-245.5 1077.74,-249.36"/>
</a>
</g>
</g>
</g>
</svg>
