<?xml version="1.0" encoding="UTF-8" standalone="no"?>
<!DOCTYPE svg PUBLIC "-//W3C//DTD SVG 1.1//EN"
 "http://www.w3.org/Graphics/SVG/1.1/DTD/svg11.dtd">
<!-- Generated by graphviz version 2.43.0 (0)
 -->
<!-- Title: /home/runner/work/doxygen/doxygen/src/dotgfxhierarchytable.h Pages: 1 -->
<svg width="1290pt" height="423pt"
 viewBox="0.00 0.00 1290.00 423.00" xmlns="http://www.w3.org/2000/svg" xmlns:xlink="http://www.w3.org/1999/xlink">
<g id="graph0" class="graph" transform="scale(1 1) rotate(0) translate(4 419)">
<title>/home/runner/work/doxygen/doxygen/src/dotgfxhierarchytable.h</title>
<!-- Node1 -->
<g id="Node000001" class="node">
<title>Node1</title>
<g id="a_Node000001"><a xlink:title=" ">
<polygon fill="#999999" stroke="#666666" points="1047.5,-415 854.5,-415 854.5,-385 1047.5,-385 1047.5,-415"/>
<text text-anchor="start" x="862.5" y="-403" font-family="Helvetica,sans-Serif" font-size="10.00">/home/runner/work/doxygen</text>
<text text-anchor="middle" x="951" y="-392" font-family="Helvetica,sans-Serif" font-size="10.00">/doxygen/src/dotgfxhierarchytable.h</text>
</a>
</g>
</g>
<!-- Node2 -->
<g id="Node000002" class="node">
<title>Node2</title>
<g id="a_Node000002"><a xlink:title=" ">
<polygon fill="#e0e0e0" stroke="#999999" points="200,-129 142,-129 142,-110 200,-110 200,-129"/>
<text text-anchor="middle" x="171" y="-117" font-family="Helvetica,sans-Serif" font-size="10.00">memory</text>
</a>
</g>
</g>
<!-- Node1&#45;&gt;Node2 -->
<g id="edge1_Node000001_Node000002" class="edge">
<title>Node1&#45;&gt;Node2</title>
<g id="a_edge1_Node000001_Node000002"><a xlink:title=" ">
<path fill="none" stroke="#63b8ff" d="M854.14,-397.46C612.06,-392.31 0,-370.87 0,-285.5 0,-285.5 0,-285.5 0,-228.5 0,-166.41 81.58,-138.57 132.04,-127.29"/>
<polygon fill="#63b8ff" stroke="#63b8ff" points="132.93,-130.68 141.99,-125.18 131.48,-123.83 132.93,-130.68"/>
</a>
</g>
</g>
<!-- Node3 -->
<g id="Node000003" class="node">
<title>Node3</title>
<g id="a_Node000003"><a xlink:title=" ">
<polygon fill="#e0e0e0" stroke="#999999" points="1000,-19 956,-19 956,0 1000,0 1000,-19"/>
<text text-anchor="middle" x="978" y="-7" font-family="Helvetica,sans-Serif" font-size="10.00">string</text>
</a>
</g>
</g>
<!-- Node1&#45;&gt;Node3 -->
<g id="edge2_Node000001_Node000003" class="edge">
<title>Node1&#45;&gt;Node3</title>
<g id="a_edge2_Node000001_Node000003"><a xlink:title=" ">
<path fill="none" stroke="#63b8ff" d="M1047.63,-385.02C1145.33,-368.08 1282,-335.47 1282,-285.5 1282,-285.5 1282,-285.5 1282,-118.5 1282,-61.4 1089.13,-26.74 1010.64,-15"/>
<polygon fill="#63b8ff" stroke="#63b8ff" points="1010.76,-11.48 1000.35,-13.5 1009.74,-18.41 1010.76,-11.48"/>
</a>
</g>
</g>
<!-- Node4 -->
<g id="Node000004" class="node">
<title>Node4</title>
<g id="a_Node000004"><a xlink:title=" ">
<polygon fill="#e0e0e0" stroke="#999999" points="949.5,-129 856.5,-129 856.5,-110 949.5,-110 949.5,-129"/>
<text text-anchor="middle" x="903" y="-117" font-family="Helvetica,sans-Serif" font-size="10.00">unordered_map</text>
</a>
</g>
</g>
<!-- Node1&#45;&gt;Node4 -->
<g id="edge3_Node000001_Node000004" class="edge">
<title>Node1&#45;&gt;Node4</title>
<g id="a_edge3_Node000001_Node000004"><a xlink:title=" ">
<path fill="none" stroke="#63b8ff" d="M1027.6,-384.96C1114.41,-366.81 1244,-331.94 1244,-285.5 1244,-285.5 1244,-285.5 1244,-228.5 1244,-199.04 1247.37,-184.17 1225,-165 1205.24,-148.06 1046.8,-132.43 959.77,-125.02"/>
<polygon fill="#63b8ff" stroke="#63b8ff" points="960.04,-121.53 949.79,-124.17 959.46,-128.5 960.04,-121.53"/>
</a>
</g>
</g>
<!-- Node5 -->
<g id="Node000005" class="node">
<title>Node5</title>
<g id="a_Node000005"><a xlink:title=" ">
<polygon fill="#e0e0e0" stroke="#999999" points="327.5,-129 280.5,-129 280.5,-110 327.5,-110 327.5,-129"/>
<text text-anchor="middle" x="304" y="-117" font-family="Helvetica,sans-Serif" font-size="10.00">vector</text>
</a>
</g>
</g>
<!-- Node1&#45;&gt;Node5 -->
<g id="edge4_Node000001_Node000005" class="edge">
<title>Node1&#45;&gt;Node5</title>
<g id="a_edge4_Node000001_Node000005"><a xlink:title=" ">
<path fill="none" stroke="#63b8ff" d="M854.35,-398.19C698.39,-395.79 398.75,-386.3 300,-349 236,-324.82 208.08,-287.96 216,-220 218.91,-195.05 214.13,-185.24 229,-165 239.44,-150.79 255.91,-140.3 270.76,-133.08"/>
<polygon fill="#63b8ff" stroke="#63b8ff" points="272.53,-136.12 280.2,-128.81 269.65,-129.74 272.53,-136.12"/>
</a>
</g>
</g>
<!-- Node6 -->
<g id="Node000006" class="node">
<title>Node6</title>
<g id="a_Node000006"><a xlink:href="../../d1/da6/classdef_8h.html" target="_top" xlink:title=" ">
<polygon fill="white" stroke="#666666" points="374.5,-349 309.5,-349 309.5,-330 374.5,-330 374.5,-349"/>
<text text-anchor="middle" x="342" y="-337" font-family="Helvetica,sans-Serif" font-size="10.00">classdef.h</text>
</a>
</g>
</g>
<!-- Node1&#45;&gt;Node6 -->
<g id="edge5_Node000001_Node000006" class="edge">
<title>Node1&#45;&gt;Node6</title>
<g id="a_edge5_Node000001_Node000006"><a xlink:title=" ">
<path fill="none" stroke="#63b8ff" d="M854.17,-389.7C719.46,-376.76 481.2,-353.87 384.53,-344.59"/>
<polygon fill="#63b8ff" stroke="#63b8ff" points="384.83,-341.1 374.54,-343.63 384.16,-348.07 384.83,-341.1"/>
</a>
</g>
</g>
<!-- Node27 -->
<g id="Node000027" class="node">
<title>Node27</title>
<g id="a_Node000027"><a xlink:href="../../d0/daa/dotgraph_8h.html" target="_top" xlink:title=" ">
<polygon fill="white" stroke="#666666" points="1126.5,-239 1057.5,-239 1057.5,-220 1126.5,-220 1126.5,-239"/>
<text text-anchor="middle" x="1092" y="-227" font-family="Helvetica,sans-Serif" font-size="10.00">dotgraph.h</text>
</a>
</g>
</g>
<!-- Node1&#45;&gt;Node27 -->
<g id="edge54_Node000001_Node000027" class="edge">
<title>Node1&#45;&gt;Node27</title>
<g id="a_edge54_Node000001_Node000027"><a xlink:title=" ">
<path fill="none" stroke="#63b8ff" d="M962.78,-384.92C988.66,-353.99 1050.39,-280.23 1078.11,-247.1"/>
<polygon fill="#63b8ff" stroke="#63b8ff" points="1080.94,-249.17 1084.67,-239.25 1075.57,-244.68 1080.94,-249.17"/>
</a>
</g>
</g>
<!-- Node31 -->
<g id="Node000031" class="node">
<title>Node31</title>
<g id="a_Node000031"><a xlink:href="../../d8/d3b/dotnode_8h.html" target="_top" xlink:title=" ">
<polygon fill="white" stroke="#666666" points="983.5,-294 918.5,-294 918.5,-275 983.5,-275 983.5,-294"/>
<text text-anchor="middle" x="951" y="-282" font-family="Helvetica,sans-Serif" font-size="10.00">dotnode.h</text>
</a>
</g>
</g>
<!-- Node1&#45;&gt;Node31 -->
<g id="edge63_Node000001_Node000031" class="edge">
<title>Node1&#45;&gt;Node31</title>
<g id="a_edge63_Node000001_Node000031"><a xlink:title=" ">
<path fill="none" stroke="#63b8ff" d="M951,-384.63C951,-364.21 951,-326.81 951,-304.24"/>
<polygon fill="#63b8ff" stroke="#63b8ff" points="954.5,-304.23 951,-294.23 947.5,-304.23 954.5,-304.23"/>
</a>
</g>
</g>
<!-- Node6&#45;&gt;Node2 -->
<g id="edge6_Node000006_Node000002" class="edge">
<title>Node6&#45;&gt;Node2</title>
<g id="a_edge6_Node000006_Node000002"><a xlink:title=" ">
<path fill="none" stroke="#63b8ff" d="M309.48,-333.72C283.79,-328.31 248.76,-317.03 227,-294 185.21,-249.76 174.61,-174.11 171.91,-139.18"/>
<polygon fill="#63b8ff" stroke="#63b8ff" points="175.4,-138.76 171.27,-129 168.41,-139.2 175.4,-138.76"/>
</a>
</g>
</g>
<!-- Node6&#45;&gt;Node5 -->
<g id="edge7_Node000006_Node000005" class="edge">
<title>Node6&#45;&gt;Node5</title>
<g id="a_edge7_Node000006_Node000005"><a xlink:title=" ">
<path fill="none" stroke="#63b8ff" d="M309.09,-333.56C285.73,-328.15 255.97,-316.95 241,-294 209.68,-245.98 214.63,-215.91 241,-165 248.04,-151.41 261.34,-141.09 273.92,-133.82"/>
<polygon fill="#63b8ff" stroke="#63b8ff" points="275.67,-136.86 282.85,-129.07 272.38,-130.68 275.67,-136.86"/>
</a>
</g>
</g>
<!-- Node7 -->
<g id="Node000007" class="node">
<title>Node7</title>
<g id="a_Node000007"><a xlink:title=" ">
<polygon fill="#e0e0e0" stroke="#999999" points="746,-184 714,-184 714,-165 746,-165 746,-184"/>
<text text-anchor="middle" x="730" y="-172" font-family="Helvetica,sans-Serif" font-size="10.00">set</text>
</a>
</g>
</g>
<!-- Node6&#45;&gt;Node7 -->
<g id="edge8_Node000006_Node000007" class="edge">
<title>Node6&#45;&gt;Node7</title>
<g id="a_edge8_Node000006_Node000007"><a xlink:title=" ">
<path fill="none" stroke="#63b8ff" d="M362.53,-330C384.07,-321.07 418.94,-306.59 449,-294 543.35,-254.49 655.32,-207.13 704.59,-186.26"/>
<polygon fill="#63b8ff" stroke="#63b8ff" points="706.01,-189.46 713.86,-182.34 703.28,-183.02 706.01,-189.46"/>
</a>
</g>
</g>
<!-- Node8 -->
<g id="Node000008" class="node">
<title>Node8</title>
<g id="a_Node000008"><a xlink:href="../../d5/d75/containers_8h.html" target="_top" xlink:title=" ">
<polygon fill="white" stroke="#666666" points="832.5,-239 755.5,-239 755.5,-220 832.5,-220 832.5,-239"/>
<text text-anchor="middle" x="794" y="-227" font-family="Helvetica,sans-Serif" font-size="10.00">containers.h</text>
</a>
</g>
</g>
<!-- Node6&#45;&gt;Node8 -->
<g id="edge9_Node000006_Node000008" class="edge">
<title>Node6&#45;&gt;Node8</title>
<g id="a_edge9_Node000006_Node000008"><a xlink:title=" ">
<path fill="none" stroke="#63b8ff" d="M374.51,-330.73C453.82,-311.78 657.41,-263.14 748.62,-241.34"/>
<polygon fill="#63b8ff" stroke="#63b8ff" points="749.48,-244.74 758.39,-239.01 747.85,-237.93 749.48,-244.74"/>
</a>
</g>
</g>
<!-- Node12 -->
<g id="Node000012" class="node">
<title>Node12</title>
<g id="a_Node000012"><a xlink:href="../../df/da1/definition_8h.html" target="_top" xlink:title=" ">
<polygon fill="white" stroke="#666666" points="327.5,-294 256.5,-294 256.5,-275 327.5,-275 327.5,-294"/>
<text text-anchor="middle" x="292" y="-282" font-family="Helvetica,sans-Serif" font-size="10.00">definition.h</text>
</a>
</g>
</g>
<!-- Node6&#45;&gt;Node12 -->
<g id="edge17_Node000006_Node000012" class="edge">
<title>Node6&#45;&gt;Node12</title>
<g id="a_edge17_Node000006_Node000012"><a xlink:title=" ">
<path fill="none" stroke="#63b8ff" d="M333.74,-329.75C326.54,-322.11 315.89,-310.82 307.15,-301.56"/>
<polygon fill="#63b8ff" stroke="#63b8ff" points="309.51,-298.96 300.1,-294.09 304.42,-303.76 309.51,-298.96"/>
</a>
</g>
</g>
<!-- Node25 -->
<g id="Node000025" class="node">
<title>Node25</title>
<g id="a_Node000025"><a xlink:href="../../df/d9b/arguments_8h.html" target="_top" xlink:title=" ">
<polygon fill="white" stroke="#666666" points="486,-184 408,-184 408,-165 486,-165 486,-184"/>
<text text-anchor="middle" x="447" y="-172" font-family="Helvetica,sans-Serif" font-size="10.00">arguments.h</text>
</a>
</g>
</g>
<!-- Node6&#45;&gt;Node25 -->
<g id="edge45_Node000006_Node000025" class="edge">
<title>Node6&#45;&gt;Node25</title>
<g id="a_edge45_Node000006_Node000025"><a xlink:title=" ">
<path fill="none" stroke="#63b8ff" d="M309.23,-331.41C276.83,-322.57 233.86,-304.87 247,-275 272.57,-216.88 347.23,-192.4 397.74,-182.31"/>
<polygon fill="#63b8ff" stroke="#63b8ff" points="398.63,-185.7 407.81,-180.42 397.34,-178.82 398.63,-185.7"/>
</a>
</g>
</g>
<!-- Node26 -->
<g id="Node000026" class="node">
<title>Node26</title>
<g id="a_Node000026"><a xlink:href="../../d9/d11/membergroup_8h.html" target="_top" xlink:title=" ">
<polygon fill="white" stroke="#666666" points="440.5,-294 345.5,-294 345.5,-275 440.5,-275 440.5,-294"/>
<text text-anchor="middle" x="393" y="-282" font-family="Helvetica,sans-Serif" font-size="10.00">membergroup.h</text>
</a>
</g>
</g>
<!-- Node6&#45;&gt;Node26 -->
<g id="edge48_Node000006_Node000026" class="edge">
<title>Node6&#45;&gt;Node26</title>
<g id="a_edge48_Node000006_Node000026"><a xlink:title=" ">
<path fill="none" stroke="#63b8ff" d="M350.42,-329.75C357.77,-322.11 368.63,-310.82 377.54,-301.56"/>
<polygon fill="#63b8ff" stroke="#63b8ff" points="380.32,-303.72 384.74,-294.09 375.28,-298.87 380.32,-303.72"/>
</a>
</g>
</g>
<!-- Node8&#45;&gt;Node3 -->
<g id="edge11_Node000008_Node000003" class="edge">
<title>Node8&#45;&gt;Node3</title>
<g id="a_edge11_Node000008_Node000003"><a xlink:title=" ">
<path fill="none" stroke="#63b8ff" d="M832.8,-220.38C869.68,-211.97 921.72,-198.12 937,-184 980.89,-143.44 981.9,-65.35 979.74,-29.43"/>
<polygon fill="#63b8ff" stroke="#63b8ff" points="983.22,-29.06 978.98,-19.35 976.24,-29.58 983.22,-29.06"/>
</a>
</g>
</g>
<!-- Node8&#45;&gt;Node4 -->
<g id="edge15_Node000008_Node000004" class="edge">
<title>Node8&#45;&gt;Node4</title>
<g id="a_edge15_Node000008_Node000004"><a xlink:title=" ">
<path fill="none" stroke="#63b8ff" d="M832.66,-226.4C862.21,-222.53 901.13,-212.01 921,-184 930.8,-170.18 923.27,-151.14 915.17,-137.52"/>
<polygon fill="#63b8ff" stroke="#63b8ff" points="918.06,-135.55 909.67,-129.09 912.2,-139.37 918.06,-135.55"/>
</a>
</g>
</g>
<!-- Node8&#45;&gt;Node5 -->
<g id="edge10_Node000008_Node000005" class="edge">
<title>Node8&#45;&gt;Node5</title>
<g id="a_edge10_Node000008_Node000005"><a xlink:title=" ">
<path fill="none" stroke="#63b8ff" d="M755.19,-226.47C668.95,-221.57 463.89,-207.74 399,-184 369.06,-173.05 339.27,-150.82 321.25,-135.79"/>
<polygon fill="#63b8ff" stroke="#63b8ff" points="323.27,-132.92 313.39,-129.07 318.72,-138.23 323.27,-132.92"/>
</a>
</g>
</g>
<!-- Node8&#45;&gt;Node7 -->
<g id="edge12_Node000008_Node000007" class="edge">
<title>Node8&#45;&gt;Node7</title>
<g id="a_edge12_Node000008_Node000007"><a xlink:title=" ">
<path fill="none" stroke="#63b8ff" d="M783.72,-219.98C774.16,-212.07 759.72,-200.11 748.22,-190.58"/>
<polygon fill="#63b8ff" stroke="#63b8ff" points="750.4,-187.85 740.47,-184.17 745.94,-193.24 750.4,-187.85"/>
</a>
</g>
</g>
<!-- Node9 -->
<g id="Node000009" class="node">
<title>Node9</title>
<g id="a_Node000009"><a xlink:title=" ">
<polygon fill="#e0e0e0" stroke="#999999" points="1044,-184 1006,-184 1006,-165 1044,-165 1044,-184"/>
<text text-anchor="middle" x="1025" y="-172" font-family="Helvetica,sans-Serif" font-size="10.00">map</text>
</a>
</g>
</g>
<!-- Node8&#45;&gt;Node9 -->
<g id="edge13_Node000008_Node000009" class="edge">
<title>Node8&#45;&gt;Node9</title>
<g id="a_edge13_Node000008_Node000009"><a xlink:title=" ">
<path fill="none" stroke="#63b8ff" d="M832.78,-220.16C872.76,-211.47 936.86,-197.3 992,-184 993.26,-183.7 994.55,-183.38 995.85,-183.06"/>
<polygon fill="#63b8ff" stroke="#63b8ff" points="996.99,-186.38 1005.83,-180.54 995.28,-179.6 996.99,-186.38"/>
</a>
</g>
</g>
<!-- Node10 -->
<g id="Node000010" class="node">
<title>Node10</title>
<g id="a_Node000010"><a xlink:title=" ">
<polygon fill="#e0e0e0" stroke="#999999" points="912,-184 826,-184 826,-165 912,-165 912,-184"/>
<text text-anchor="middle" x="869" y="-172" font-family="Helvetica,sans-Serif" font-size="10.00">unordered_set</text>
</a>
</g>
</g>
<!-- Node8&#45;&gt;Node10 -->
<g id="edge14_Node000008_Node000010" class="edge">
<title>Node8&#45;&gt;Node10</title>
<g id="a_edge14_Node000008_Node000010"><a xlink:title=" ">
<path fill="none" stroke="#63b8ff" d="M806.05,-219.98C817.46,-211.92 834.83,-199.65 848.43,-190.03"/>
<polygon fill="#63b8ff" stroke="#63b8ff" points="850.58,-192.8 856.73,-184.17 846.54,-187.08 850.58,-192.8"/>
</a>
</g>
</g>
<!-- Node11 -->
<g id="Node000011" class="node">
<title>Node11</title>
<g id="a_Node000011"><a xlink:title=" ">
<polygon fill="#e0e0e0" stroke="#999999" points="807.5,-184 764.5,-184 764.5,-165 807.5,-165 807.5,-184"/>
<text text-anchor="middle" x="786" y="-172" font-family="Helvetica,sans-Serif" font-size="10.00">stack</text>
</a>
</g>
</g>
<!-- Node8&#45;&gt;Node11 -->
<g id="edge16_Node000008_Node000011" class="edge">
<title>Node8&#45;&gt;Node11</title>
<g id="a_edge16_Node000008_Node000011"><a xlink:title=" ">
<path fill="none" stroke="#63b8ff" d="M792.68,-219.75C791.63,-212.8 790.13,-202.85 788.81,-194.13"/>
<polygon fill="#63b8ff" stroke="#63b8ff" points="792.25,-193.45 787.3,-184.09 785.33,-194.5 792.25,-193.45"/>
</a>
</g>
</g>
<!-- Node12&#45;&gt;Node5 -->
<g id="edge18_Node000012_Node000005" class="edge">
<title>Node12&#45;&gt;Node5</title>
<g id="a_edge18_Node000012_Node000005"><a xlink:title=" ">
<path fill="none" stroke="#63b8ff" d="M280.36,-274.73C270.69,-266.67 257.65,-253.74 252,-239 240.23,-208.29 238.25,-194.87 252,-165 257.75,-152.52 268.91,-142.24 279.42,-134.71"/>
<polygon fill="#63b8ff" stroke="#63b8ff" points="281.57,-137.49 287.97,-129.05 277.7,-131.65 281.57,-137.49"/>
</a>
</g>
</g>
<!-- Node13 -->
<g id="Node000013" class="node">
<title>Node13</title>
<g id="a_Node000013"><a xlink:href="../../d9/d49/types_8h.html" target="_top" xlink:title="This file contains a number of basic enums and types.">
<polygon fill="white" stroke="#666666" points="440.5,-239 387.5,-239 387.5,-220 440.5,-220 440.5,-239"/>
<text text-anchor="middle" x="414" y="-227" font-family="Helvetica,sans-Serif" font-size="10.00">types.h</text>
</a>
</g>
</g>
<!-- Node12&#45;&gt;Node13 -->
<g id="edge19_Node000012_Node000013" class="edge">
<title>Node12&#45;&gt;Node13</title>
<g id="a_edge19_Node000012_Node000013"><a xlink:title=" ">
<path fill="none" stroke="#63b8ff" d="M311.6,-274.98C331.32,-266.42 361.95,-253.11 384.58,-243.28"/>
<polygon fill="#63b8ff" stroke="#63b8ff" points="386.26,-246.37 394.04,-239.17 383.48,-239.94 386.26,-246.37"/>
</a>
</g>
</g>
<!-- Node23 -->
<g id="Node000023" class="node">
<title>Node23</title>
<g id="a_Node000023"><a xlink:href="../../d1/d02/reflist_8h.html" target="_top" xlink:title=" ">
<polygon fill="white" stroke="#666666" points="369.5,-239 316.5,-239 316.5,-220 369.5,-220 369.5,-239"/>
<text text-anchor="middle" x="343" y="-227" font-family="Helvetica,sans-Serif" font-size="10.00">reflist.h</text>
</a>
</g>
</g>
<!-- Node12&#45;&gt;Node23 -->
<g id="edge32_Node000012_Node000023" class="edge">
<title>Node12&#45;&gt;Node23</title>
<g id="a_edge32_Node000012_Node000023"><a xlink:title=" ">
<path fill="none" stroke="#63b8ff" d="M300.42,-274.75C307.77,-267.11 318.63,-255.82 327.54,-246.56"/>
<polygon fill="#63b8ff" stroke="#63b8ff" points="330.32,-248.72 334.74,-239.09 325.28,-243.87 330.32,-248.72"/>
</a>
</g>
</g>
<!-- Node14 -->
<g id="Node000014" class="node">
<title>Node14</title>
<g id="a_Node000014"><a xlink:href="../../d7/d5c/qcstring_8h.html" target="_top" xlink:title=" ">
<polygon fill="white" stroke="#666666" points="650.5,-129 585.5,-129 585.5,-110 650.5,-110 650.5,-129"/>
<text text-anchor="middle" x="618" y="-117" font-family="Helvetica,sans-Serif" font-size="10.00">qcstring.h</text>
</a>
</g>
</g>
<!-- Node13&#45;&gt;Node14 -->
<g id="edge20_Node000013_Node000014" class="edge">
<title>Node13&#45;&gt;Node14</title>
<g id="a_edge20_Node000013_Node000014"><a xlink:title=" ">
<path fill="none" stroke="#63b8ff" d="M440.91,-222.91C497.41,-211.16 623.27,-184.9 624,-184 634.11,-171.52 630.84,-152.8 626.1,-138.92"/>
<polygon fill="#63b8ff" stroke="#63b8ff" points="629.29,-137.47 622.39,-129.43 622.77,-140.01 629.29,-137.47"/>
</a>
</g>
</g>
<!-- Node14&#45;&gt;Node3 -->
<g id="edge21_Node000014_Node000003" class="edge">
<title>Node14&#45;&gt;Node3</title>
<g id="a_edge21_Node000014_Node000003"><a xlink:title=" ">
<path fill="none" stroke="#63b8ff" d="M650.9,-116.29C699.62,-112.21 793.25,-101.27 868,-74 901.53,-61.77 936.64,-39.61 957.92,-24.98"/>
<polygon fill="#63b8ff" stroke="#63b8ff" points="959.97,-27.82 966.15,-19.22 955.95,-22.08 959.97,-27.82"/>
</a>
</g>
</g>
<!-- Node15 -->
<g id="Node000015" class="node">
<title>Node15</title>
<g id="a_Node000015"><a xlink:title=" ">
<polygon fill="#e0e0e0" stroke="#999999" points="482,-74 418,-74 418,-55 482,-55 482,-74"/>
<text text-anchor="middle" x="450" y="-62" font-family="Helvetica,sans-Serif" font-size="10.00">algorithm</text>
</a>
</g>
</g>
<!-- Node14&#45;&gt;Node15 -->
<g id="edge22_Node000014_Node000015" class="edge">
<title>Node14&#45;&gt;Node15</title>
<g id="a_edge22_Node000014_Node000015"><a xlink:title=" ">
<path fill="none" stroke="#63b8ff" d="M591.01,-109.98C562.8,-101.09 518.36,-87.07 486.92,-77.15"/>
<polygon fill="#63b8ff" stroke="#63b8ff" points="487.79,-73.75 477.2,-74.08 485.69,-80.43 487.79,-73.75"/>
</a>
</g>
</g>
<!-- Node16 -->
<g id="Node000016" class="node">
<title>Node16</title>
<g id="a_Node000016"><a xlink:title=" ">
<polygon fill="#e0e0e0" stroke="#999999" points="399.5,-74 350.5,-74 350.5,-55 399.5,-55 399.5,-74"/>
<text text-anchor="middle" x="375" y="-62" font-family="Helvetica,sans-Serif" font-size="10.00">cctype</text>
</a>
</g>
</g>
<!-- Node14&#45;&gt;Node16 -->
<g id="edge23_Node000014_Node000016" class="edge">
<title>Node14&#45;&gt;Node16</title>
<g id="a_edge23_Node000014_Node000016"><a xlink:title=" ">
<path fill="none" stroke="#63b8ff" d="M585.34,-111.92C546.07,-103.92 477.94,-89.79 409.89,-74.14"/>
<polygon fill="#63b8ff" stroke="#63b8ff" points="410.39,-70.66 399.86,-71.82 408.81,-77.48 410.39,-70.66"/>
</a>
</g>
</g>
<!-- Node17 -->
<g id="Node000017" class="node">
<title>Node17</title>
<g id="a_Node000017"><a xlink:title=" ">
<polygon fill="#e0e0e0" stroke="#999999" points="859,-74 809,-74 809,-55 859,-55 859,-74"/>
<text text-anchor="middle" x="834" y="-62" font-family="Helvetica,sans-Serif" font-size="10.00">cstring</text>
</a>
</g>
</g>
<!-- Node14&#45;&gt;Node17 -->
<g id="edge24_Node000014_Node000017" class="edge">
<title>Node14&#45;&gt;Node17</title>
<g id="a_edge24_Node000014_Node000017"><a xlink:title=" ">
<path fill="none" stroke="#63b8ff" d="M650.56,-110.59C684.99,-102.22 741.17,-88.52 798.75,-74.3"/>
<polygon fill="#63b8ff" stroke="#63b8ff" points="799.88,-77.62 808.75,-71.83 798.2,-70.83 799.88,-77.62"/>
</a>
</g>
</g>
<!-- Node18 -->
<g id="Node000018" class="node">
<title>Node18</title>
<g id="a_Node000018"><a xlink:title=" ">
<polygon fill="#e0e0e0" stroke="#999999" points="648,-74 602,-74 602,-55 648,-55 648,-74"/>
<text text-anchor="middle" x="625" y="-62" font-family="Helvetica,sans-Serif" font-size="10.00">cstdio</text>
</a>
</g>
</g>
<!-- Node14&#45;&gt;Node18 -->
<g id="edge25_Node000014_Node000018" class="edge">
<title>Node14&#45;&gt;Node18</title>
<g id="a_edge25_Node000014_Node000018"><a xlink:title=" ">
<path fill="none" stroke="#63b8ff" d="M619.16,-109.75C620.07,-102.8 621.39,-92.85 622.54,-84.13"/>
<polygon fill="#63b8ff" stroke="#63b8ff" points="626.03,-84.46 623.87,-74.09 619.09,-83.54 626.03,-84.46"/>
</a>
</g>
</g>
<!-- Node19 -->
<g id="Node000019" class="node">
<title>Node19</title>
<g id="a_Node000019"><a xlink:title=" ">
<polygon fill="#e0e0e0" stroke="#999999" points="715.5,-74 666.5,-74 666.5,-55 715.5,-55 715.5,-74"/>
<text text-anchor="middle" x="691" y="-62" font-family="Helvetica,sans-Serif" font-size="10.00">cstdlib</text>
</a>
</g>
</g>
<!-- Node14&#45;&gt;Node19 -->
<g id="edge26_Node000014_Node000019" class="edge">
<title>Node14&#45;&gt;Node19</title>
<g id="a_edge26_Node000014_Node000019"><a xlink:title=" ">
<path fill="none" stroke="#63b8ff" d="M629.73,-109.98C640.73,-102 657.42,-89.88 670.6,-80.31"/>
<polygon fill="#63b8ff" stroke="#63b8ff" points="673.02,-82.88 679.06,-74.17 668.91,-77.21 673.02,-82.88"/>
</a>
</g>
</g>
<!-- Node20 -->
<g id="Node000020" class="node">
<title>Node20</title>
<g id="a_Node000020"><a xlink:title=" ">
<polygon fill="#e0e0e0" stroke="#999999" points="561,-19 511,-19 511,0 561,0 561,-19"/>
<text text-anchor="middle" x="536" y="-7" font-family="Helvetica,sans-Serif" font-size="10.00">cstdint</text>
</a>
</g>
</g>
<!-- Node14&#45;&gt;Node20 -->
<g id="edge27_Node000014_Node000020" class="edge">
<title>Node14&#45;&gt;Node20</title>
<g id="a_edge27_Node000014_Node000020"><a xlink:title=" ">
<path fill="none" stroke="#63b8ff" d="M585.36,-111.37C565.34,-105.13 541.26,-93.84 529,-74 520.63,-60.45 523.85,-42.12 528.3,-28.64"/>
<polygon fill="#63b8ff" stroke="#63b8ff" points="531.66,-29.64 531.92,-19.05 525.11,-27.16 531.66,-29.64"/>
</a>
</g>
</g>
<!-- Node21 -->
<g id="Node000021" class="node">
<title>Node21</title>
<g id="a_Node000021"><a xlink:title=" ">
<polygon fill="#e0e0e0" stroke="#999999" points="790.5,-74 733.5,-74 733.5,-55 790.5,-55 790.5,-74"/>
<text text-anchor="middle" x="762" y="-62" font-family="Helvetica,sans-Serif" font-size="10.00">ostream</text>
</a>
</g>
</g>
<!-- Node14&#45;&gt;Node21 -->
<g id="edge28_Node000014_Node000021" class="edge">
<title>Node14&#45;&gt;Node21</title>
<g id="a_edge28_Node000014_Node000021"><a xlink:title=" ">
<path fill="none" stroke="#63b8ff" d="M641.14,-109.98C664.82,-101.27 701.87,-87.63 728.71,-77.75"/>
<polygon fill="#63b8ff" stroke="#63b8ff" points="730.27,-80.91 738.44,-74.17 727.85,-74.34 730.27,-80.91"/>
</a>
</g>
</g>
<!-- Node22 -->
<g id="Node000022" class="node">
<title>Node22</title>
<g id="a_Node000022"><a xlink:href="../../db/d7c/utf8_8h.html" target="_top" xlink:title="Various UTF8 related helper functions.">
<polygon fill="white" stroke="#666666" points="583.5,-74 538.5,-74 538.5,-55 583.5,-55 583.5,-74"/>
<text text-anchor="middle" x="561" y="-62" font-family="Helvetica,sans-Serif" font-size="10.00">utf8.h</text>
</a>
</g>
</g>
<!-- Node14&#45;&gt;Node22 -->
<g id="edge29_Node000014_Node000022" class="edge">
<title>Node14&#45;&gt;Node22</title>
<g id="a_edge29_Node000014_Node000022"><a xlink:title=" ">
<path fill="none" stroke="#63b8ff" d="M608.84,-109.98C600.5,-102.23 587.97,-90.58 577.82,-81.14"/>
<polygon fill="#63b8ff" stroke="#63b8ff" points="580.03,-78.42 570.32,-74.17 575.26,-83.54 580.03,-78.42"/>
</a>
</g>
</g>
<!-- Node22&#45;&gt;Node3 -->
<g id="edge31_Node000022_Node000003" class="edge">
<title>Node22&#45;&gt;Node3</title>
<g id="a_edge31_Node000022_Node000003"><a xlink:title=" ">
<path fill="none" stroke="#63b8ff" d="M583.63,-57.05C586.76,-56.29 589.95,-55.58 593,-55 722.31,-30.49 878.79,-17.45 945.42,-12.67"/>
<polygon fill="#63b8ff" stroke="#63b8ff" points="945.97,-16.14 955.7,-11.95 945.47,-9.16 945.97,-16.14"/>
</a>
</g>
</g>
<!-- Node22&#45;&gt;Node20 -->
<g id="edge30_Node000022_Node000020" class="edge">
<title>Node22&#45;&gt;Node20</title>
<g id="a_edge30_Node000022_Node000020"><a xlink:title=" ">
<path fill="none" stroke="#63b8ff" d="M556.87,-54.75C553.49,-47.57 548.58,-37.18 544.38,-28.27"/>
<polygon fill="#63b8ff" stroke="#63b8ff" points="547.48,-26.64 540.05,-19.09 541.15,-29.63 547.48,-26.64"/>
</a>
</g>
</g>
<!-- Node23&#45;&gt;Node2 -->
<g id="edge35_Node000023_Node000002" class="edge">
<title>Node23&#45;&gt;Node2</title>
<g id="a_edge35_Node000023_Node000002"><a xlink:title=" ">
<path fill="none" stroke="#63b8ff" d="M329.22,-219.84C299.65,-201.28 229.91,-157.49 193.7,-134.75"/>
<polygon fill="#63b8ff" stroke="#63b8ff" points="195.18,-131.55 184.85,-129.2 191.46,-137.48 195.18,-131.55"/>
</a>
</g>
</g>
<!-- Node23&#45;&gt;Node4 -->
<g id="edge34_Node000023_Node000004" class="edge">
<title>Node23&#45;&gt;Node4</title>
<g id="a_edge34_Node000023_Node000004"><a xlink:title=" ">
<path fill="none" stroke="#63b8ff" d="M369.7,-221.77C372.5,-221.14 375.3,-220.53 378,-220 481.22,-199.57 508.55,-203.23 612,-184 658.22,-175.41 785.56,-146.99 855.49,-131.24"/>
<polygon fill="#63b8ff" stroke="#63b8ff" points="856.39,-134.63 865.37,-129.02 854.85,-127.8 856.39,-134.63"/>
</a>
</g>
</g>
<!-- Node23&#45;&gt;Node5 -->
<g id="edge33_Node000023_Node000005" class="edge">
<title>Node23&#45;&gt;Node5</title>
<g id="a_edge33_Node000023_Node000005"><a xlink:title=" ">
<path fill="none" stroke="#63b8ff" d="M339.81,-219.66C333.43,-202.01 319.02,-162.09 310.55,-138.64"/>
<polygon fill="#63b8ff" stroke="#63b8ff" points="313.82,-137.38 307.13,-129.16 307.23,-139.75 313.82,-137.38"/>
</a>
</g>
</g>
<!-- Node23&#45;&gt;Node14 -->
<g id="edge36_Node000023_Node000014" class="edge">
<title>Node23&#45;&gt;Node14</title>
<g id="a_edge36_Node000023_Node000014"><a xlink:title=" ">
<path fill="none" stroke="#63b8ff" d="M369.71,-221.81C372.5,-221.17 375.31,-220.56 378,-220 471.6,-200.71 514.61,-242.74 590,-184 604.09,-173.02 611.25,-153.47 614.78,-138.95"/>
<polygon fill="#63b8ff" stroke="#63b8ff" points="618.23,-139.56 616.83,-129.06 611.37,-138.14 618.23,-139.56"/>
</a>
</g>
</g>
<!-- Node24 -->
<g id="Node000024" class="node">
<title>Node24</title>
<g id="a_Node000024"><a xlink:href="../../da/de1/linkedmap_8h.html" target="_top" xlink:title=" ">
<polygon fill="white" stroke="#666666" points="581.5,-184 504.5,-184 504.5,-165 581.5,-165 581.5,-184"/>
<text text-anchor="middle" x="543" y="-172" font-family="Helvetica,sans-Serif" font-size="10.00">linkedmap.h</text>
</a>
</g>
</g>
<!-- Node23&#45;&gt;Node24 -->
<g id="edge37_Node000023_Node000024" class="edge">
<title>Node23&#45;&gt;Node24</title>
<g id="a_edge37_Node000023_Node000024"><a xlink:title=" ">
<path fill="none" stroke="#63b8ff" d="M369.56,-221.46C403.09,-212.58 461.16,-197.19 500.79,-186.68"/>
<polygon fill="#63b8ff" stroke="#63b8ff" points="501.93,-190.01 510.7,-184.06 500.13,-183.24 501.93,-190.01"/>
</a>
</g>
</g>
<!-- Node24&#45;&gt;Node2 -->
<g id="edge40_Node000024_Node000002" class="edge">
<title>Node24&#45;&gt;Node2</title>
<g id="a_edge40_Node000024_Node000002"><a xlink:title=" ">
<path fill="none" stroke="#63b8ff" d="M504.25,-166.5C501.12,-165.98 498.01,-165.47 495,-165 392.4,-148.88 271.01,-133.07 210.05,-125.37"/>
<polygon fill="#63b8ff" stroke="#63b8ff" points="210.46,-121.89 200.1,-124.11 209.58,-128.84 210.46,-121.89"/>
</a>
</g>
</g>
<!-- Node24&#45;&gt;Node3 -->
<g id="edge41_Node000024_Node000003" class="edge">
<title>Node24&#45;&gt;Node3</title>
<g id="a_edge41_Node000024_Node000003"><a xlink:title=" ">
<path fill="none" stroke="#63b8ff" d="M581.66,-168.29C649.67,-157.96 793.76,-130.79 902,-74 925.64,-61.6 948.56,-40.88 962.93,-26.5"/>
<polygon fill="#63b8ff" stroke="#63b8ff" points="965.52,-28.86 969.99,-19.26 960.51,-23.98 965.52,-28.86"/>
</a>
</g>
</g>
<!-- Node24&#45;&gt;Node4 -->
<g id="edge38_Node000024_Node000004" class="edge">
<title>Node24&#45;&gt;Node4</title>
<g id="a_edge38_Node000024_Node000004"><a xlink:title=" ">
<path fill="none" stroke="#63b8ff" d="M581.53,-167.83C645.1,-158.47 772.3,-139.74 846.21,-128.86"/>
<polygon fill="#63b8ff" stroke="#63b8ff" points="846.89,-132.3 856.27,-127.38 845.87,-125.37 846.89,-132.3"/>
</a>
</g>
</g>
<!-- Node24&#45;&gt;Node5 -->
<g id="edge39_Node000024_Node000005" class="edge">
<title>Node24&#45;&gt;Node5</title>
<g id="a_edge39_Node000024_Node000005"><a xlink:title=" ">
<path fill="none" stroke="#63b8ff" d="M504.6,-164.98C458.42,-154.74 381.66,-137.72 337.69,-127.97"/>
<polygon fill="#63b8ff" stroke="#63b8ff" points="338.3,-124.52 327.78,-125.77 336.78,-131.36 338.3,-124.52"/>
</a>
</g>
</g>
<!-- Node24&#45;&gt;Node14 -->
<g id="edge44_Node000024_Node000014" class="edge">
<title>Node24&#45;&gt;Node14</title>
<g id="a_edge44_Node000024_Node000014"><a xlink:title=" ">
<path fill="none" stroke="#63b8ff" d="M555.05,-164.98C566.46,-156.92 583.83,-144.65 597.43,-135.03"/>
<polygon fill="#63b8ff" stroke="#63b8ff" points="599.58,-137.8 605.73,-129.17 595.54,-132.08 599.58,-137.8"/>
</a>
</g>
</g>
<!-- Node24&#45;&gt;Node15 -->
<g id="edge42_Node000024_Node000015" class="edge">
<title>Node24&#45;&gt;Node15</title>
<g id="a_edge42_Node000024_Node000015"><a xlink:title=" ">
<path fill="none" stroke="#63b8ff" d="M535.39,-164.66C519.78,-146.54 483.94,-104.91 464.01,-81.77"/>
<polygon fill="#63b8ff" stroke="#63b8ff" points="466.63,-79.45 457.46,-74.16 461.33,-84.02 466.63,-79.45"/>
</a>
</g>
</g>
<!-- Node24&#45;&gt;Node16 -->
<g id="edge43_Node000024_Node000016" class="edge">
<title>Node24&#45;&gt;Node16</title>
<g id="a_edge43_Node000024_Node000016"><a xlink:title=" ">
<path fill="none" stroke="#63b8ff" d="M529.54,-164.84C500.66,-146.28 432.54,-102.49 397.17,-79.75"/>
<polygon fill="#63b8ff" stroke="#63b8ff" points="398.83,-76.66 388.53,-74.2 395.05,-82.55 398.83,-76.66"/>
</a>
</g>
</g>
<!-- Node25&#45;&gt;Node5 -->
<g id="edge46_Node000025_Node000005" class="edge">
<title>Node25&#45;&gt;Node5</title>
<g id="a_edge46_Node000025_Node000005"><a xlink:title=" ">
<path fill="none" stroke="#63b8ff" d="M424.02,-164.98C400.5,-156.27 363.71,-142.63 337.06,-132.75"/>
<polygon fill="#63b8ff" stroke="#63b8ff" points="337.99,-129.36 327.39,-129.17 335.55,-135.93 337.99,-129.36"/>
</a>
</g>
</g>
<!-- Node25&#45;&gt;Node14 -->
<g id="edge47_Node000025_Node000014" class="edge">
<title>Node25&#45;&gt;Node14</title>
<g id="a_edge47_Node000025_Node000014"><a xlink:title=" ">
<path fill="none" stroke="#63b8ff" d="M474.47,-164.98C503.18,-156.09 548.42,-142.07 580.42,-132.15"/>
<polygon fill="#63b8ff" stroke="#63b8ff" points="581.8,-135.39 590.31,-129.08 579.72,-128.7 581.8,-135.39"/>
</a>
</g>
</g>
<!-- Node26&#45;&gt;Node2 -->
<g id="edge51_Node000026_Node000002" class="edge">
<title>Node26&#45;&gt;Node2</title>
<g id="a_edge51_Node000026_Node000002"><a xlink:title=" ">
<path fill="none" stroke="#63b8ff" d="M368.04,-274.85C347.48,-267.11 318.07,-254.59 295,-239 250.2,-208.72 206.57,-161.77 184.98,-137.04"/>
<polygon fill="#63b8ff" stroke="#63b8ff" points="187.48,-134.58 178.3,-129.28 182.18,-139.14 187.48,-134.58"/>
</a>
</g>
</g>
<!-- Node26&#45;&gt;Node5 -->
<g id="edge49_Node000026_Node000005" class="edge">
<title>Node26&#45;&gt;Node5</title>
<g id="a_edge49_Node000026_Node000005"><a xlink:title=" ">
<path fill="none" stroke="#63b8ff" d="M358.56,-274.93C339.92,-268.36 318.42,-257.24 307,-239 287.78,-208.29 293.57,-163.78 299.07,-138.97"/>
<polygon fill="#63b8ff" stroke="#63b8ff" points="302.51,-139.63 301.48,-129.08 295.71,-137.97 302.51,-139.63"/>
</a>
</g>
</g>
<!-- Node26&#45;&gt;Node9 -->
<g id="edge50_Node000026_Node000009" class="edge">
<title>Node26&#45;&gt;Node9</title>
<g id="a_edge50_Node000026_Node000009"><a xlink:title=" ">
<path fill="none" stroke="#63b8ff" d="M440.76,-282.44C523.44,-279.8 698.17,-270.62 842,-239 898.29,-226.63 961.23,-202.36 996.69,-187.67"/>
<polygon fill="#63b8ff" stroke="#63b8ff" points="998.06,-190.89 1005.93,-183.8 995.36,-184.43 998.06,-190.89"/>
</a>
</g>
</g>
<!-- Node26&#45;&gt;Node13 -->
<g id="edge52_Node000026_Node000013" class="edge">
<title>Node26&#45;&gt;Node13</title>
<g id="a_edge52_Node000026_Node000013"><a xlink:title=" ">
<path fill="none" stroke="#63b8ff" d="M396.47,-274.75C399.28,-267.65 403.34,-257.4 406.85,-248.56"/>
<polygon fill="#63b8ff" stroke="#63b8ff" points="410.17,-249.68 410.6,-239.09 403.66,-247.1 410.17,-249.68"/>
</a>
</g>
</g>
<!-- Node26&#45;&gt;Node23 -->
<g id="edge53_Node000026_Node000023" class="edge">
<title>Node26&#45;&gt;Node23</title>
<g id="a_edge53_Node000026_Node000023"><a xlink:title=" ">
<path fill="none" stroke="#63b8ff" d="M384.74,-274.75C377.54,-267.11 366.89,-255.82 358.15,-246.56"/>
<polygon fill="#63b8ff" stroke="#63b8ff" points="360.51,-243.96 351.1,-239.09 355.42,-248.76 360.51,-243.96"/>
</a>
</g>
</g>
<!-- Node27&#45;&gt;Node9 -->
<g id="edge56_Node000027_Node000009" class="edge">
<title>Node27&#45;&gt;Node9</title>
<g id="a_edge56_Node000027_Node000009"><a xlink:title=" ">
<path fill="none" stroke="#63b8ff" d="M1081.24,-219.98C1071.23,-212.07 1056.11,-200.11 1044.07,-190.58"/>
<polygon fill="#63b8ff" stroke="#63b8ff" points="1045.97,-187.63 1035.96,-184.17 1041.63,-193.12 1045.97,-187.63"/>
</a>
</g>
</g>
<!-- Node27&#45;&gt;Node14 -->
<g id="edge57_Node000027_Node000014" class="edge">
<title>Node27&#45;&gt;Node14</title>
<g id="a_edge57_Node000027_Node000014"><a xlink:title=" ">
<path fill="none" stroke="#63b8ff" d="M1104.16,-219.79C1120.78,-206.86 1146.83,-182.26 1131,-165 1115.18,-147.75 781.92,-128.94 661.18,-122.67"/>
<polygon fill="#63b8ff" stroke="#63b8ff" points="661.02,-119.16 650.85,-122.14 660.65,-126.15 661.02,-119.16"/>
</a>
</g>
</g>
<!-- Node28 -->
<g id="Node000028" class="node">
<title>Node28</title>
<g id="a_Node000028"><a xlink:title=" ">
<polygon fill="#e0e0e0" stroke="#999999" points="1122,-184 1062,-184 1062,-165 1122,-165 1122,-184"/>
<text text-anchor="middle" x="1092" y="-172" font-family="Helvetica,sans-Serif" font-size="10.00">iostream</text>
</a>
</g>
</g>
<!-- Node27&#45;&gt;Node28 -->
<g id="edge55_Node000027_Node000028" class="edge">
<title>Node27&#45;&gt;Node28</title>
<g id="a_edge55_Node000027_Node000028"><a xlink:title=" ">
<path fill="none" stroke="#63b8ff" d="M1092,-219.75C1092,-212.8 1092,-202.85 1092,-194.13"/>
<polygon fill="#63b8ff" stroke="#63b8ff" points="1095.5,-194.09 1092,-184.09 1088.5,-194.09 1095.5,-194.09"/>
</a>
</g>
</g>
<!-- Node29 -->
<g id="Node000029" class="node">
<title>Node29</title>
<g id="a_Node000029"><a xlink:href="../../df/d9c/dir_8h.html" target="_top" xlink:title=" ">
<polygon fill="white" stroke="#666666" points="1216,-184 1178,-184 1178,-165 1216,-165 1216,-184"/>
<text text-anchor="middle" x="1197" y="-172" font-family="Helvetica,sans-Serif" font-size="10.00">dir.h</text>
</a>
</g>
</g>
<!-- Node27&#45;&gt;Node29 -->
<g id="edge58_Node000027_Node000029" class="edge">
<title>Node27&#45;&gt;Node29</title>
<g id="a_edge58_Node000027_Node000029"><a xlink:title=" ">
<path fill="none" stroke="#63b8ff" d="M1108.87,-219.98C1125.61,-211.54 1151.5,-198.47 1170.89,-188.68"/>
<polygon fill="#63b8ff" stroke="#63b8ff" points="1172.47,-191.8 1179.82,-184.17 1169.32,-185.55 1172.47,-191.8"/>
</a>
</g>
</g>
<!-- Node29&#45;&gt;Node2 -->
<g id="edge60_Node000029_Node000002" class="edge">
<title>Node29&#45;&gt;Node2</title>
<g id="a_edge60_Node000029_Node000002"><a xlink:title=" ">
<path fill="none" stroke="#63b8ff" d="M1177.98,-170.61C1164.82,-168.72 1146.89,-166.35 1131,-165 749.82,-132.54 652.79,-153.21 271,-129 250.99,-127.73 228.77,-125.89 210.36,-124.24"/>
<polygon fill="#63b8ff" stroke="#63b8ff" points="210.57,-120.74 200.29,-123.32 209.93,-127.71 210.57,-120.74"/>
</a>
</g>
</g>
<!-- Node29&#45;&gt;Node3 -->
<g id="edge59_Node000029_Node000003" class="edge">
<title>Node29&#45;&gt;Node3</title>
<g id="a_edge59_Node000029_Node000003"><a xlink:title=" ">
<path fill="none" stroke="#63b8ff" d="M1189.06,-164.75C1177.25,-151.99 1154.09,-127.84 1132,-110 1097.58,-82.19 1086.2,-78.97 1049,-55 1032.85,-44.59 1014.47,-33.08 1000.45,-24.37"/>
<polygon fill="#63b8ff" stroke="#63b8ff" points="1002.29,-21.39 991.94,-19.09 998.6,-27.34 1002.29,-21.39"/>
</a>
</g>
</g>
<!-- Node30 -->
<g id="Node000030" class="node">
<title>Node30</title>
<g id="a_Node000030"><a xlink:href="../../df/d45/fileinfo_8h.html" target="_top" xlink:title=" ">
<polygon fill="white" stroke="#666666" points="1122.5,-129 1063.5,-129 1063.5,-110 1122.5,-110 1122.5,-129"/>
<text text-anchor="middle" x="1093" y="-117" font-family="Helvetica,sans-Serif" font-size="10.00">fileinfo.h</text>
</a>
</g>
</g>
<!-- Node29&#45;&gt;Node30 -->
<g id="edge61_Node000029_Node000030" class="edge">
<title>Node29&#45;&gt;Node30</title>
<g id="a_edge61_Node000029_Node000030"><a xlink:title=" ">
<path fill="none" stroke="#63b8ff" d="M1180.29,-164.98C1163.79,-156.57 1138.3,-143.59 1119.12,-133.81"/>
<polygon fill="#63b8ff" stroke="#63b8ff" points="1120.51,-130.59 1110.01,-129.17 1117.33,-136.83 1120.51,-130.59"/>
</a>
</g>
</g>
<!-- Node30&#45;&gt;Node3 -->
<g id="edge62_Node000030_Node000003" class="edge">
<title>Node30&#45;&gt;Node3</title>
<g id="a_edge62_Node000030_Node000003"><a xlink:title=" ">
<path fill="none" stroke="#63b8ff" d="M1083.59,-109.66C1064.12,-91.38 1019.19,-49.18 994.68,-26.17"/>
<polygon fill="#63b8ff" stroke="#63b8ff" points="996.91,-23.45 987.22,-19.16 992.11,-28.56 996.91,-23.45"/>
</a>
</g>
</g>
<!-- Node31&#45;&gt;Node5 -->
<g id="edge64_Node000031_Node000005" class="edge">
<title>Node31&#45;&gt;Node5</title>
<g id="a_edge64_Node000031_Node000005"><a xlink:title=" ">
<path fill="none" stroke="#63b8ff" d="M918.21,-280.91C808.67,-271.83 456.8,-238.93 359,-184 339.6,-173.1 323.79,-152.64 314.18,-137.88"/>
<polygon fill="#63b8ff" stroke="#63b8ff" points="317.02,-135.83 308.78,-129.17 311.07,-139.51 317.02,-135.83"/>
</a>
</g>
</g>
<!-- Node31&#45;&gt;Node9 -->
<g id="edge65_Node000031_Node000009" class="edge">
<title>Node31&#45;&gt;Node9</title>
<g id="a_edge65_Node000031_Node000009"><a xlink:title=" ">
<path fill="none" stroke="#63b8ff" d="M947.06,-274.58C941.97,-261.6 934.9,-237.18 945,-220 956.01,-201.27 978.07,-189.86 996.24,-183.29"/>
<polygon fill="#63b8ff" stroke="#63b8ff" points="997.44,-186.57 1005.84,-180.12 995.25,-179.93 997.44,-186.57"/>
</a>
</g>
</g>
<!-- Node31&#45;&gt;Node13 -->
<g id="edge68_Node000031_Node000013" class="edge">
<title>Node31&#45;&gt;Node13</title>
<g id="a_edge68_Node000031_Node000013"><a xlink:title=" ">
<path fill="none" stroke="#63b8ff" d="M918.22,-280.43C843.03,-273.37 652.34,-255.31 493,-239 479.25,-237.59 464.16,-235.98 450.88,-234.55"/>
<polygon fill="#63b8ff" stroke="#63b8ff" points="451.01,-231.04 440.69,-233.44 450.25,-238 451.01,-231.04"/>
</a>
</g>
</g>
<!-- Node31&#45;&gt;Node27 -->
<g id="edge69_Node000031_Node000027" class="edge">
<title>Node31&#45;&gt;Node27</title>
<g id="a_edge69_Node000031_Node000027"><a xlink:title=" ">
<path fill="none" stroke="#63b8ff" d="M973.65,-274.98C996.85,-266.27 1033.12,-252.63 1059.4,-242.75"/>
<polygon fill="#63b8ff" stroke="#63b8ff" points="1060.8,-245.97 1068.93,-239.17 1058.34,-239.41 1060.8,-245.97"/>
</a>
</g>
</g>
<!-- Node31&#45;&gt;Node28 -->
<g id="edge67_Node000031_Node000028" class="edge">
<title>Node31&#45;&gt;Node28</title>
<g id="a_edge67_Node000031_Node000028"><a xlink:title=" ">
<path fill="none" stroke="#63b8ff" d="M962.79,-274.68C974.72,-265.73 993.69,-251.47 1010,-239 1031.49,-222.58 1055.98,-203.57 1072.57,-190.66"/>
<polygon fill="#63b8ff" stroke="#63b8ff" points="1075.16,-193.08 1080.89,-184.17 1070.85,-187.56 1075.16,-193.08"/>
</a>
</g>
</g>
<!-- Node32 -->
<g id="Node000032" class="node">
<title>Node32</title>
<g id="a_Node000032"><a xlink:title=" ">
<polygon fill="#e0e0e0" stroke="#999999" points="1000.5,-239 953.5,-239 953.5,-220 1000.5,-220 1000.5,-239"/>
<text text-anchor="middle" x="977" y="-227" font-family="Helvetica,sans-Serif" font-size="10.00">deque</text>
</a>
</g>
</g>
<!-- Node31&#45;&gt;Node32 -->
<g id="edge66_Node000031_Node000032" class="edge">
<title>Node31&#45;&gt;Node32</title>
<g id="a_edge66_Node000031_Node000032"><a xlink:title=" ">
<path fill="none" stroke="#63b8ff" d="M955.29,-274.75C958.81,-267.57 963.91,-257.18 968.28,-248.27"/>
<polygon fill="#63b8ff" stroke="#63b8ff" points="971.52,-249.61 972.79,-239.09 965.24,-246.53 971.52,-249.61"/>
</a>
</g>
</g>
</g>
</svg>
