<?xml version="1.0" encoding="UTF-8" standalone="no"?>
<!DOCTYPE svg PUBLIC "-//W3C//DTD SVG 1.1//EN"
 "http://www.w3.org/Graphics/SVG/1.1/DTD/svg11.dtd">
<!-- Generated by graphviz version 2.43.0 (0)
 -->
<!-- Title: src/dotgfxhierarchytable.h Pages: 1 -->
<!--zoomable 412 -->

<svg id="main" version="1.1" xmlns="http://www.w3.org/2000/svg" xmlns:xlink="http://www.w3.org/1999/xlink" xml:space="preserve" onload="init(evt)">
<style type="text/css"><![CDATA[
.node, .edge {opacity: 0.7;}
.node.selected, .edge.selected {opacity: 1;}
.edge:hover path { stroke: red; }
.edge:hover polygon { stroke: red; fill: red; }
]]></style>

<defs>
  <circle id="rim" cx="0" cy="0" r="7"/>
  <circle id="rim2" cx="0" cy="0" r="3.5"/>
  <g id="zoomPlus">
    <use xlink:href="#rim" fill="#404040"><set attributeName="fill" to="#808080" begin="zoomplus.mouseover" end="zoomplus.mouseout"/></use>
    <path d="M-4,0h8M0,-4v8" fill="none" stroke="white" stroke-width="1.5" pointer-events="none"/>
  </g>
  <g id="zoomMin">
    <use xlink:href="#rim" fill="#404040"><set attributeName="fill" to="#808080" begin="zoomminus.mouseover" end="zoomminus.mouseout"/></use>
    <path d="M-4,0h8" fill="none" stroke="white" stroke-width="1.5" pointer-events="none"/>
  </g>
  <g id="arrowUp" transform="translate(30 24)">
    <use xlink:href="#rim"/>
    <path pointer-events="none" fill="none" stroke="white" stroke-width="1.5" d="M0,-3.0v7 M-2.5,-0.5L0,-3.0L2.5,-0.5"/>
  </g>
  <g id="arrowRight" transform="rotate(90) translate(36 -43)">
    <use xlink:href="#rim"/>
    <path pointer-events="none" fill="none" stroke="white" stroke-width="1.5" d="M0,-3.0v7 M-2.5,-0.5L0,-3.0L2.5,-0.5"/>
  </g>
  <g id="arrowDown" transform="rotate(180) translate(-30 -48)">
    <use xlink:href="#rim"/>
    <path pointer-events="none" fill="none" stroke="white" stroke-width="1.5" d="M0,-3.0v7 M-2.5,-0.5L0,-3.0L2.5,-0.5"/>
  </g>
  <g id="arrowLeft" transform="rotate(270) translate(-36 17)">
    <use xlink:href="#rim"/>
    <path pointer-events="none" fill="none" stroke="white" stroke-width="1.5" d="M0,-3.0v7 M-2.5,-0.5L0,-3.0L2.5,-0.5"/>
  </g>
  <g id="resetDef">
    <use xlink:href="#rim2" fill="#404040"><set attributeName="fill" to="#808080" begin="reset.mouseover" end="reset.mouseout"/></use>
  </g>
</defs>
<script type="application/ecmascript">
var viewWidth = 1330;
var viewHeight = 412;
var sectionId = 'dynsection-0';
</script>
<script type="application/ecmascript" xlink:href="../../svg.min.js"/>
<svg id="graph" class="graph">
<g id="viewport">
<title>src/dotgfxhierarchytable.h</title>
<!-- Node1 -->
<g id="Node000001" class="node">
<title>Node1</title>
<g id="a_Node000001"><a xlink:title=" ">
<polygon fill="#999999" stroke="#666666" points="1050.5,-404 905.5,-404 905.5,-385 1050.5,-385 1050.5,-404"/>
<text text-anchor="middle" x="978" y="-392" font-family="Helvetica,sans-Serif" font-size="10.00">src/dotgfxhierarchytable.h</text>
</a>
</g>
</g>
<!-- Node2 -->
<g id="Node000002" class="node">
<title>Node2</title>
<g id="a_Node000002"><a xlink:title=" ">
<polygon fill="#e0e0e0" stroke="#999999" points="130,-129 72,-129 72,-110 130,-110 130,-129"/>
<text text-anchor="middle" x="101" y="-117" font-family="Helvetica,sans-Serif" font-size="10.00">memory</text>
</a>
</g>
</g>
<!-- Node1&#45;&gt;Node2 -->
<g id="edge1_Node000001_Node000002" class="edge">
<title>Node1&#45;&gt;Node2</title>
<g id="a_edge1_Node000001_Node000002"><a xlink:title=" ">
<path fill="none" stroke="#63b8ff" d="M905.29,-393.09C678.64,-390.86 0,-376.57 0,-285.5 0,-285.5 0,-285.5 0,-228.5 0,-184.76 44.74,-151.41 74.66,-133.99"/>
<polygon fill="#63b8ff" stroke="#63b8ff" points="76.39,-137.03 83.41,-129.1 72.97,-130.92 76.39,-137.03"/>
</a>
</g>
</g>
<!-- Node3 -->
<g id="Node000003" class="node">
<title>Node3</title>
<g id="a_Node000003"><a xlink:title=" ">
<polygon fill="#e0e0e0" stroke="#999999" points="1038,-19 994,-19 994,0 1038,0 1038,-19"/>
<text text-anchor="middle" x="1016" y="-7" font-family="Helvetica,sans-Serif" font-size="10.00">string</text>
</a>
</g>
</g>
<!-- Node1&#45;&gt;Node3 -->
<g id="edge2_Node000001_Node000003" class="edge">
<title>Node1&#45;&gt;Node3</title>
<g id="a_edge2_Node000001_Node000003"><a xlink:title=" ">
<path fill="none" stroke="#63b8ff" d="M1050.53,-385.55C1151.46,-372.43 1322,-341.91 1322,-285.5 1322,-285.5 1322,-285.5 1322,-118.5 1322,-60.93 1126.95,-26.44 1048.3,-14.88"/>
<polygon fill="#63b8ff" stroke="#63b8ff" points="1048.4,-11.36 1038.01,-13.4 1047.41,-18.29 1048.4,-11.36"/>
</a>
</g>
</g>
<!-- Node4 -->
<g id="Node000004" class="node">
<title>Node4</title>
<g id="a_Node000004"><a xlink:title=" ">
<polygon fill="#e0e0e0" stroke="#999999" points="251.5,-129 158.5,-129 158.5,-110 251.5,-110 251.5,-129"/>
<text text-anchor="middle" x="205" y="-117" font-family="Helvetica,sans-Serif" font-size="10.00">unordered_map</text>
</a>
</g>
</g>
<!-- Node1&#45;&gt;Node4 -->
<g id="edge3_Node000001_Node000004" class="edge">
<title>Node1&#45;&gt;Node4</title>
<g id="a_edge3_Node000001_Node000004"><a xlink:title=" ">
<path fill="none" stroke="#63b8ff" d="M905.36,-390.3C749.49,-382.28 388.78,-357.27 286,-294 233.38,-261.61 220.96,-242.47 201,-184 196.09,-169.61 197.62,-152.33 200.08,-139.43"/>
<polygon fill="#63b8ff" stroke="#63b8ff" points="203.55,-139.94 202.34,-129.41 196.72,-138.39 203.55,-139.94"/>
</a>
</g>
</g>
<!-- Node5 -->
<g id="Node000005" class="node">
<title>Node5</title>
<g id="a_Node000005"><a xlink:title=" ">
<polygon fill="#e0e0e0" stroke="#999999" points="636.5,-129 589.5,-129 589.5,-110 636.5,-110 636.5,-129"/>
<text text-anchor="middle" x="613" y="-117" font-family="Helvetica,sans-Serif" font-size="10.00">vector</text>
</a>
</g>
</g>
<!-- Node1&#45;&gt;Node5 -->
<g id="edge4_Node000001_Node000005" class="edge">
<title>Node1&#45;&gt;Node5</title>
<g id="a_edge4_Node000001_Node000005"><a xlink:title=" ">
<path fill="none" stroke="#63b8ff" d="M978,-384.82C978,-366.48 978,-322.44 978,-285.5 978,-285.5 978,-285.5 978,-228.5 978,-183.45 940.21,-183.19 899,-165 813.88,-127.43 702.28,-120.93 647.03,-120.21"/>
<polygon fill="#63b8ff" stroke="#63b8ff" points="646.78,-116.7 636.76,-120.13 646.73,-123.7 646.78,-116.7"/>
</a>
</g>
</g>
<!-- Node6 -->
<g id="Node000006" class="node">
<title>Node6</title>
<g id="a_Node000006"><a xlink:href="../../d1/da6/classdef_8h.html" target="_top" xlink:title=" ">
<polygon fill="white" stroke="#666666" points="645.5,-349 580.5,-349 580.5,-330 645.5,-330 645.5,-349"/>
<text text-anchor="middle" x="613" y="-337" font-family="Helvetica,sans-Serif" font-size="10.00">classdef.h</text>
</a>
</g>
</g>
<!-- Node1&#45;&gt;Node6 -->
<g id="edge5_Node000001_Node000006" class="edge">
<title>Node1&#45;&gt;Node6</title>
<g id="a_edge5_Node000001_Node000006"><a xlink:title=" ">
<path fill="none" stroke="#63b8ff" d="M919.36,-384.98C845.71,-374.29 721.12,-356.2 655.83,-346.72"/>
<polygon fill="#63b8ff" stroke="#63b8ff" points="656.28,-343.25 645.88,-345.27 655.27,-350.17 656.28,-343.25"/>
</a>
</g>
</g>
<!-- Node29 -->
<g id="Node000029" class="node">
<title>Node29</title>
<g id="a_Node000029"><a xlink:href="../../d0/daa/dotgraph_8h.html" target="_top" xlink:title=" ">
<polygon fill="white" stroke="#666666" points="1293.5,-239 1224.5,-239 1224.5,-220 1293.5,-220 1293.5,-239"/>
<text text-anchor="middle" x="1259" y="-227" font-family="Helvetica,sans-Serif" font-size="10.00">dotgraph.h</text>
</a>
</g>
</g>
<!-- Node1&#45;&gt;Node29 -->
<g id="edge57_Node000001_Node000029" class="edge">
<title>Node1&#45;&gt;Node29</title>
<g id="a_edge57_Node000001_Node000029"><a xlink:title=" ">
<path fill="none" stroke="#63b8ff" d="M992.71,-384.97C1038.51,-358.4 1178.82,-277.01 1235.19,-244.31"/>
<polygon fill="#63b8ff" stroke="#63b8ff" points="1237.2,-247.19 1244.09,-239.15 1233.69,-241.14 1237.2,-247.19"/>
</a>
</g>
</g>
<!-- Node33 -->
<g id="Node000033" class="node">
<title>Node33</title>
<g id="a_Node000033"><a xlink:href="../../d8/d3b/dotnode_8h.html" target="_top" xlink:title=" ">
<polygon fill="white" stroke="#666666" points="1124.5,-294 1059.5,-294 1059.5,-275 1124.5,-275 1124.5,-294"/>
<text text-anchor="middle" x="1092" y="-282" font-family="Helvetica,sans-Serif" font-size="10.00">dotnode.h</text>
</a>
</g>
</g>
<!-- Node1&#45;&gt;Node33 -->
<g id="edge66_Node000001_Node000033" class="edge">
<title>Node1&#45;&gt;Node33</title>
<g id="a_edge66_Node000001_Node000033"><a xlink:title=" ">
<path fill="none" stroke="#63b8ff" d="M987.33,-384.66C1006.63,-366.38 1051.17,-324.18 1075.46,-301.17"/>
<polygon fill="#63b8ff" stroke="#63b8ff" points="1078.01,-303.58 1082.86,-294.16 1073.19,-298.5 1078.01,-303.58"/>
</a>
</g>
</g>
<!-- Node6&#45;&gt;Node2 -->
<g id="edge6_Node000006_Node000002" class="edge">
<title>Node6&#45;&gt;Node2</title>
<g id="a_edge6_Node000006_Node000002"><a xlink:title=" ">
<path fill="none" stroke="#63b8ff" d="M580.09,-339.28C519.55,-339.59 387.46,-335 286,-294 209.35,-263.03 190.57,-246.1 136,-184 124.07,-170.42 114.51,-152.09 108.42,-138.62"/>
<polygon fill="#63b8ff" stroke="#63b8ff" points="111.46,-136.84 104.29,-129.04 105.03,-139.61 111.46,-136.84"/>
</a>
</g>
</g>
<!-- Node6&#45;&gt;Node5 -->
<g id="edge7_Node000006_Node000005" class="edge">
<title>Node6&#45;&gt;Node5</title>
<g id="a_edge7_Node000006_Node000005"><a xlink:title=" ">
<path fill="none" stroke="#63b8ff" d="M613,-329.95C613,-297.95 613,-184.68 613,-139.4"/>
<polygon fill="#63b8ff" stroke="#63b8ff" points="616.5,-139.22 613,-129.22 609.5,-139.22 616.5,-139.22"/>
</a>
</g>
</g>
<!-- Node7 -->
<g id="Node000007" class="node">
<title>Node7</title>
<g id="a_Node000007"><a xlink:title=" ">
<polygon fill="#e0e0e0" stroke="#999999" points="762,-184 676,-184 676,-165 762,-165 762,-184"/>
<text text-anchor="middle" x="719" y="-172" font-family="Helvetica,sans-Serif" font-size="10.00">unordered_set</text>
</a>
</g>
</g>
<!-- Node6&#45;&gt;Node7 -->
<g id="edge8_Node000006_Node000007" class="edge">
<title>Node6&#45;&gt;Node7</title>
<g id="a_edge8_Node000006_Node000007"><a xlink:title=" ">
<path fill="none" stroke="#63b8ff" d="M625.95,-329.9C637.41,-321.75 653.99,-308.62 665,-294 688.82,-262.36 705.32,-218.54 713.37,-194.02"/>
<polygon fill="#63b8ff" stroke="#63b8ff" points="716.79,-194.81 716.47,-184.22 710.12,-192.7 716.79,-194.81"/>
</a>
</g>
</g>
<!-- Node8 -->
<g id="Node000008" class="node">
<title>Node8</title>
<g id="a_Node000008"><a xlink:href="../../d5/d75/containers_8h.html" target="_top" xlink:title=" ">
<polygon fill="white" stroke="#666666" points="890.5,-239 813.5,-239 813.5,-220 890.5,-220 890.5,-239"/>
<text text-anchor="middle" x="852" y="-227" font-family="Helvetica,sans-Serif" font-size="10.00">containers.h</text>
</a>
</g>
</g>
<!-- Node6&#45;&gt;Node8 -->
<g id="edge9_Node000006_Node000008" class="edge">
<title>Node6&#45;&gt;Node8</title>
<g id="a_edge9_Node000006_Node000008"><a xlink:title=" ">
<path fill="none" stroke="#63b8ff" d="M634.25,-329.93C655.74,-321.18 689.86,-307.06 719,-294 756.22,-277.31 798.66,-256.78 825.39,-243.67"/>
<polygon fill="#63b8ff" stroke="#63b8ff" points="827.06,-246.75 834.48,-239.19 823.97,-240.47 827.06,-246.75"/>
</a>
</g>
</g>
<!-- Node13 -->
<g id="Node000013" class="node">
<title>Node13</title>
<g id="a_Node000013"><a xlink:href="../../df/da1/definition_8h.html" target="_top" xlink:title=" ">
<polygon fill="white" stroke="#666666" points="471.5,-294 400.5,-294 400.5,-275 471.5,-275 471.5,-294"/>
<text text-anchor="middle" x="436" y="-282" font-family="Helvetica,sans-Serif" font-size="10.00">definition.h</text>
</a>
</g>
</g>
<!-- Node6&#45;&gt;Node13 -->
<g id="edge18_Node000006_Node000013" class="edge">
<title>Node6&#45;&gt;Node13</title>
<g id="a_edge18_Node000006_Node000013"><a xlink:title=" ">
<path fill="none" stroke="#63b8ff" d="M584.56,-329.98C554.72,-321.05 507.62,-306.94 474.47,-297.02"/>
<polygon fill="#63b8ff" stroke="#63b8ff" points="475.24,-293.6 464.66,-294.08 473.24,-300.3 475.24,-293.6"/>
</a>
</g>
</g>
<!-- Node26 -->
<g id="Node000026" class="node">
<title>Node26</title>
<g id="a_Node000026"><a xlink:href="../../df/d9b/arguments_8h.html" target="_top" xlink:title=" ">
<polygon fill="white" stroke="#666666" points="582,-184 504,-184 504,-165 582,-165 582,-184"/>
<text text-anchor="middle" x="543" y="-172" font-family="Helvetica,sans-Serif" font-size="10.00">arguments.h</text>
</a>
</g>
</g>
<!-- Node6&#45;&gt;Node26 -->
<g id="edge47_Node000006_Node000026" class="edge">
<title>Node6&#45;&gt;Node26</title>
<g id="a_edge47_Node000006_Node000026"><a xlink:title=" ">
<path fill="none" stroke="#63b8ff" d="M610.72,-329.72C607.38,-317.32 600.73,-294.06 593,-275 580.99,-245.4 563.66,-212.57 552.88,-193"/>
<polygon fill="#63b8ff" stroke="#63b8ff" points="555.82,-191.1 547.9,-184.07 549.71,-194.51 555.82,-191.1"/>
</a>
</g>
</g>
<!-- Node27 -->
<g id="Node000027" class="node">
<title>Node27</title>
<g id="a_Node000027"><a xlink:href="../../d9/d11/membergroup_8h.html" target="_top" xlink:title=" ">
<polygon fill="white" stroke="#666666" points="584.5,-294 489.5,-294 489.5,-275 584.5,-275 584.5,-294"/>
<text text-anchor="middle" x="537" y="-282" font-family="Helvetica,sans-Serif" font-size="10.00">membergroup.h</text>
</a>
</g>
</g>
<!-- Node6&#45;&gt;Node27 -->
<g id="edge50_Node000006_Node000027" class="edge">
<title>Node6&#45;&gt;Node27</title>
<g id="a_edge50_Node000006_Node000027"><a xlink:title=" ">
<path fill="none" stroke="#63b8ff" d="M600.79,-329.98C589.22,-321.92 571.62,-309.65 557.84,-300.03"/>
<polygon fill="#63b8ff" stroke="#63b8ff" points="559.64,-297.02 549.43,-294.17 555.63,-302.76 559.64,-297.02"/>
</a>
</g>
</g>
<!-- Node28 -->
<g id="Node000028" class="node">
<title>Node28</title>
<g id="a_Node000028"><a xlink:title=" ">
<polygon fill="#e0e0e0" stroke="#999999" points="382.5,-294 295.5,-294 295.5,-275 382.5,-275 382.5,-294"/>
<text text-anchor="middle" x="339" y="-282" font-family="Helvetica,sans-Serif" font-size="10.00">configvalues.h</text>
</a>
</g>
</g>
<!-- Node6&#45;&gt;Node28 -->
<g id="edge56_Node000006_Node000028" class="edge">
<title>Node6&#45;&gt;Node28</title>
<g id="a_edge56_Node000006_Node000028"><a xlink:title=" ">
<path fill="none" stroke="#63b8ff" d="M580.49,-332.21C534.19,-323.25 448.66,-306.71 392.82,-295.91"/>
<polygon fill="#63b8ff" stroke="#63b8ff" points="393.23,-292.43 382.75,-293.96 391.9,-299.3 393.23,-292.43"/>
</a>
</g>
</g>
<!-- Node8&#45;&gt;Node3 -->
<g id="edge11_Node000008_Node000003" class="edge">
<title>Node8&#45;&gt;Node3</title>
<g id="a_edge11_Node000008_Node000003"><a xlink:title=" ">
<path fill="none" stroke="#63b8ff" d="M868.44,-219.95C882.55,-212.02 902.8,-199.18 917,-184 962.32,-135.55 995.19,-62.63 1008.91,-28.86"/>
<polygon fill="#63b8ff" stroke="#63b8ff" points="1012.25,-29.94 1012.68,-19.36 1005.74,-27.36 1012.25,-29.94"/>
</a>
</g>
</g>
<!-- Node8&#45;&gt;Node4 -->
<g id="edge16_Node000008_Node000004" class="edge">
<title>Node8&#45;&gt;Node4</title>
<g id="a_edge16_Node000008_Node000004"><a xlink:title=" ">
<path fill="none" stroke="#63b8ff" d="M813.3,-227.62C687.55,-224.5 295.73,-212.55 247,-184 229.76,-173.9 218.24,-153.6 211.69,-138.66"/>
<polygon fill="#63b8ff" stroke="#63b8ff" points="214.93,-137.33 207.95,-129.36 208.44,-139.94 214.93,-137.33"/>
</a>
</g>
</g>
<!-- Node8&#45;&gt;Node5 -->
<g id="edge10_Node000008_Node000005" class="edge">
<title>Node8&#45;&gt;Node5</title>
<g id="a_edge10_Node000008_Node000005"><a xlink:title=" ">
<path fill="none" stroke="#63b8ff" d="M861.89,-219.92C875.68,-206.94 897.45,-182.02 883,-165 853.08,-129.75 712.55,-122.38 646.92,-120.87"/>
<polygon fill="#63b8ff" stroke="#63b8ff" points="646.75,-117.36 636.69,-120.67 646.62,-124.36 646.75,-117.36"/>
</a>
</g>
</g>
<!-- Node8&#45;&gt;Node7 -->
<g id="edge15_Node000008_Node000007" class="edge">
<title>Node8&#45;&gt;Node7</title>
<g id="a_edge15_Node000008_Node000007"><a xlink:title=" ">
<path fill="none" stroke="#63b8ff" d="M830.63,-219.98C808.85,-211.3 774.84,-197.75 750.08,-187.88"/>
<polygon fill="#63b8ff" stroke="#63b8ff" points="751.34,-184.62 740.76,-184.17 748.75,-191.12 751.34,-184.62"/>
</a>
</g>
</g>
<!-- Node9 -->
<g id="Node000009" class="node">
<title>Node9</title>
<g id="a_Node000009"><a xlink:title=" ">
<polygon fill="#e0e0e0" stroke="#999999" points="972.5,-74 899.5,-74 899.5,-55 972.5,-55 972.5,-74"/>
<text text-anchor="middle" x="936" y="-62" font-family="Helvetica,sans-Serif" font-size="10.00">string_view</text>
</a>
</g>
</g>
<!-- Node8&#45;&gt;Node9 -->
<g id="edge12_Node000008_Node000009" class="edge">
<title>Node8&#45;&gt;Node9</title>
<g id="a_edge12_Node000008_Node000009"><a xlink:title=" ">
<path fill="none" stroke="#63b8ff" d="M864.08,-219.93C874.69,-211.8 889.84,-198.68 899,-184 918.89,-152.11 928.85,-108.68 933.18,-84.23"/>
<polygon fill="#63b8ff" stroke="#63b8ff" points="936.67,-84.6 934.83,-74.16 929.76,-83.46 936.67,-84.6"/>
</a>
</g>
</g>
<!-- Node10 -->
<g id="Node000010" class="node">
<title>Node10</title>
<g id="a_Node000010"><a xlink:title=" ">
<polygon fill="#e0e0e0" stroke="#999999" points="812,-184 780,-184 780,-165 812,-165 812,-184"/>
<text text-anchor="middle" x="796" y="-172" font-family="Helvetica,sans-Serif" font-size="10.00">set</text>
</a>
</g>
</g>
<!-- Node8&#45;&gt;Node10 -->
<g id="edge13_Node000008_Node000010" class="edge">
<title>Node8&#45;&gt;Node10</title>
<g id="a_edge13_Node000008_Node000010"><a xlink:title=" ">
<path fill="none" stroke="#63b8ff" d="M843,-219.98C834.81,-212.23 822.49,-200.58 812.53,-191.14"/>
<polygon fill="#63b8ff" stroke="#63b8ff" points="814.83,-188.5 805.16,-184.17 810.02,-193.59 814.83,-188.5"/>
</a>
</g>
</g>
<!-- Node11 -->
<g id="Node000011" class="node">
<title>Node11</title>
<g id="a_Node000011"><a xlink:title=" ">
<polygon fill="#e0e0e0" stroke="#999999" points="1082,-184 1044,-184 1044,-165 1082,-165 1082,-184"/>
<text text-anchor="middle" x="1063" y="-172" font-family="Helvetica,sans-Serif" font-size="10.00">map</text>
</a>
</g>
</g>
<!-- Node8&#45;&gt;Node11 -->
<g id="edge14_Node000008_Node000011" class="edge">
<title>Node8&#45;&gt;Node11</title>
<g id="a_edge14_Node000008_Node000011"><a xlink:title=" ">
<path fill="none" stroke="#63b8ff" d="M886.47,-219.96C922.35,-211.05 980.14,-196.65 1030,-184 1031.26,-183.68 1032.54,-183.35 1033.84,-183.02"/>
<polygon fill="#63b8ff" stroke="#63b8ff" points="1034.99,-186.34 1043.81,-180.47 1033.26,-179.56 1034.99,-186.34"/>
</a>
</g>
</g>
<!-- Node12 -->
<g id="Node000012" class="node">
<title>Node12</title>
<g id="a_Node000012"><a xlink:title=" ">
<polygon fill="#e0e0e0" stroke="#999999" points="873.5,-184 830.5,-184 830.5,-165 873.5,-165 873.5,-184"/>
<text text-anchor="middle" x="852" y="-172" font-family="Helvetica,sans-Serif" font-size="10.00">stack</text>
</a>
</g>
</g>
<!-- Node8&#45;&gt;Node12 -->
<g id="edge17_Node000008_Node000012" class="edge">
<title>Node8&#45;&gt;Node12</title>
<g id="a_edge17_Node000008_Node000012"><a xlink:title=" ">
<path fill="none" stroke="#63b8ff" d="M852,-219.75C852,-212.8 852,-202.85 852,-194.13"/>
<polygon fill="#63b8ff" stroke="#63b8ff" points="855.5,-194.09 852,-184.09 848.5,-194.09 855.5,-194.09"/>
</a>
</g>
</g>
<!-- Node13&#45;&gt;Node5 -->
<g id="edge19_Node000013_Node000005" class="edge">
<title>Node13&#45;&gt;Node5</title>
<g id="a_edge19_Node000013_Node000005"><a xlink:title=" ">
<path fill="none" stroke="#63b8ff" d="M438.01,-274.71C443.4,-253.02 460.21,-196.43 495,-165 507.77,-153.46 549.36,-139.31 579.56,-130.11"/>
<polygon fill="#63b8ff" stroke="#63b8ff" points="580.73,-133.41 589.31,-127.19 578.72,-126.71 580.73,-133.41"/>
</a>
</g>
</g>
<!-- Node14 -->
<g id="Node000014" class="node">
<title>Node14</title>
<g id="a_Node000014"><a xlink:href="../../d9/d49/types_8h.html" target="_top" xlink:title="This file contains a number of basic enums and types.">
<polygon fill="white" stroke="#666666" points="532.5,-239 479.5,-239 479.5,-220 532.5,-220 532.5,-239"/>
<text text-anchor="middle" x="506" y="-227" font-family="Helvetica,sans-Serif" font-size="10.00">types.h</text>
</a>
</g>
</g>
<!-- Node13&#45;&gt;Node14 -->
<g id="edge20_Node000013_Node000014" class="edge">
<title>Node13&#45;&gt;Node14</title>
<g id="a_edge20_Node000013_Node000014"><a xlink:title=" ">
<path fill="none" stroke="#63b8ff" d="M447.25,-274.98C457.8,-267 473.8,-254.88 486.44,-245.31"/>
<polygon fill="#63b8ff" stroke="#63b8ff" points="488.69,-248 494.55,-239.17 484.46,-242.42 488.69,-248"/>
</a>
</g>
</g>
<!-- Node24 -->
<g id="Node000024" class="node">
<title>Node24</title>
<g id="a_Node000024"><a xlink:href="../../d1/d02/reflist_8h.html" target="_top" xlink:title=" ">
<polygon fill="white" stroke="#666666" points="388.5,-239 335.5,-239 335.5,-220 388.5,-220 388.5,-239"/>
<text text-anchor="middle" x="362" y="-227" font-family="Helvetica,sans-Serif" font-size="10.00">reflist.h</text>
</a>
</g>
</g>
<!-- Node13&#45;&gt;Node24 -->
<g id="edge34_Node000013_Node000024" class="edge">
<title>Node13&#45;&gt;Node24</title>
<g id="a_edge34_Node000013_Node000024"><a xlink:title=" ">
<path fill="none" stroke="#63b8ff" d="M424.11,-274.98C412.85,-266.92 395.71,-254.65 382.29,-245.03"/>
<polygon fill="#63b8ff" stroke="#63b8ff" points="384.27,-242.15 374.11,-239.17 380.2,-247.84 384.27,-242.15"/>
</a>
</g>
</g>
<!-- Node15 -->
<g id="Node000015" class="node">
<title>Node15</title>
<g id="a_Node000015"><a xlink:href="../../d7/d5c/qcstring_8h.html" target="_top" xlink:title=" ">
<polygon fill="white" stroke="#666666" points="571.5,-129 506.5,-129 506.5,-110 571.5,-110 571.5,-129"/>
<text text-anchor="middle" x="539" y="-117" font-family="Helvetica,sans-Serif" font-size="10.00">qcstring.h</text>
</a>
</g>
</g>
<!-- Node14&#45;&gt;Node15 -->
<g id="edge21_Node000014_Node000015" class="edge">
<title>Node14&#45;&gt;Node15</title>
<g id="a_edge21_Node000014_Node000015"><a xlink:title=" ">
<path fill="none" stroke="#63b8ff" d="M501.64,-219.96C495.89,-207.45 487.35,-183.63 495,-165 499.81,-153.31 509.33,-143.05 518.3,-135.34"/>
<polygon fill="#63b8ff" stroke="#63b8ff" points="520.6,-137.98 526.22,-129 516.23,-132.51 520.6,-137.98"/>
</a>
</g>
</g>
<!-- Node15&#45;&gt;Node3 -->
<g id="edge22_Node000015_Node000003" class="edge">
<title>Node15&#45;&gt;Node3</title>
<g id="a_edge22_Node000015_Node000003"><a xlink:title=" ">
<path fill="none" stroke="#63b8ff" d="M571.64,-111.53C574.46,-110.99 577.28,-110.47 580,-110 694.96,-90.15 726.89,-102.53 840,-74 863.45,-68.08 868.27,-63.28 891,-55 922.72,-43.45 959.09,-30.54 984.38,-21.61"/>
<polygon fill="#63b8ff" stroke="#63b8ff" points="985.57,-24.91 993.84,-18.28 983.24,-18.3 985.57,-24.91"/>
</a>
</g>
</g>
<!-- Node15&#45;&gt;Node9 -->
<g id="edge23_Node000015_Node000009" class="edge">
<title>Node15&#45;&gt;Node9</title>
<g id="a_edge23_Node000015_Node000009"><a xlink:title=" ">
<path fill="none" stroke="#63b8ff" d="M571.63,-111.47C574.45,-110.94 577.27,-110.44 580,-110 712.97,-88.3 747.52,-92.29 881,-74 883.69,-73.63 886.45,-73.24 889.24,-72.84"/>
<polygon fill="#63b8ff" stroke="#63b8ff" points="889.96,-76.27 899.34,-71.34 888.94,-69.35 889.96,-76.27"/>
</a>
</g>
</g>
<!-- Node16 -->
<g id="Node000016" class="node">
<title>Node16</title>
<g id="a_Node000016"><a xlink:title=" ">
<polygon fill="#e0e0e0" stroke="#999999" points="455,-74 391,-74 391,-55 455,-55 455,-74"/>
<text text-anchor="middle" x="423" y="-62" font-family="Helvetica,sans-Serif" font-size="10.00">algorithm</text>
</a>
</g>
</g>
<!-- Node15&#45;&gt;Node16 -->
<g id="edge24_Node000015_Node000016" class="edge">
<title>Node15&#45;&gt;Node16</title>
<g id="a_edge24_Node000015_Node000016"><a xlink:title=" ">
<path fill="none" stroke="#63b8ff" d="M520.36,-109.98C501.7,-101.46 472.75,-88.23 451.26,-78.41"/>
<polygon fill="#63b8ff" stroke="#63b8ff" points="452.53,-75.14 441.98,-74.17 449.62,-81.51 452.53,-75.14"/>
</a>
</g>
</g>
<!-- Node17 -->
<g id="Node000017" class="node">
<title>Node17</title>
<g id="a_Node000017"><a xlink:title=" ">
<polygon fill="#e0e0e0" stroke="#999999" points="372.5,-74 323.5,-74 323.5,-55 372.5,-55 372.5,-74"/>
<text text-anchor="middle" x="348" y="-62" font-family="Helvetica,sans-Serif" font-size="10.00">cctype</text>
</a>
</g>
</g>
<!-- Node15&#45;&gt;Node17 -->
<g id="edge25_Node000015_Node000017" class="edge">
<title>Node15&#45;&gt;Node17</title>
<g id="a_edge25_Node000015_Node000017"><a xlink:title=" ">
<path fill="none" stroke="#63b8ff" d="M508.31,-109.98C473.95,-100.45 418.4,-85.03 382.54,-75.09"/>
<polygon fill="#63b8ff" stroke="#63b8ff" points="383.11,-71.61 372.54,-72.31 381.24,-78.36 383.11,-71.61"/>
</a>
</g>
</g>
<!-- Node18 -->
<g id="Node000018" class="node">
<title>Node18</title>
<g id="a_Node000018"><a xlink:title=" ">
<polygon fill="#e0e0e0" stroke="#999999" points="767,-74 717,-74 717,-55 767,-55 767,-74"/>
<text text-anchor="middle" x="742" y="-62" font-family="Helvetica,sans-Serif" font-size="10.00">cstring</text>
</a>
</g>
</g>
<!-- Node15&#45;&gt;Node18 -->
<g id="edge26_Node000015_Node000018" class="edge">
<title>Node15&#45;&gt;Node18</title>
<g id="a_edge26_Node000015_Node000018"><a xlink:title=" ">
<path fill="none" stroke="#63b8ff" d="M571.62,-109.98C608.6,-100.33 668.68,-84.64 706.73,-74.71"/>
<polygon fill="#63b8ff" stroke="#63b8ff" points="708.05,-77.98 716.84,-72.07 706.28,-71.21 708.05,-77.98"/>
</a>
</g>
</g>
<!-- Node19 -->
<g id="Node000019" class="node">
<title>Node19</title>
<g id="a_Node000019"><a xlink:title=" ">
<polygon fill="#e0e0e0" stroke="#999999" points="831,-74 785,-74 785,-55 831,-55 831,-74"/>
<text text-anchor="middle" x="808" y="-62" font-family="Helvetica,sans-Serif" font-size="10.00">cstdio</text>
</a>
</g>
</g>
<!-- Node15&#45;&gt;Node19 -->
<g id="edge27_Node000015_Node000019" class="edge">
<title>Node15&#45;&gt;Node19</title>
<g id="a_edge27_Node000015_Node000019"><a xlink:title=" ">
<path fill="none" stroke="#63b8ff" d="M571.66,-111.66C574.48,-111.09 577.29,-110.53 580,-110 663.87,-93.61 687.91,-93.38 775.18,-74.04"/>
<polygon fill="#63b8ff" stroke="#63b8ff" points="775.99,-77.44 784.98,-71.84 774.46,-70.61 775.99,-77.44"/>
</a>
</g>
</g>
<!-- Node20 -->
<g id="Node000020" class="node">
<title>Node20</title>
<g id="a_Node000020"><a xlink:title=" ">
<polygon fill="#e0e0e0" stroke="#999999" points="623.5,-74 574.5,-74 574.5,-55 623.5,-55 623.5,-74"/>
<text text-anchor="middle" x="599" y="-62" font-family="Helvetica,sans-Serif" font-size="10.00">cstdlib</text>
</a>
</g>
</g>
<!-- Node15&#45;&gt;Node20 -->
<g id="edge28_Node000015_Node000020" class="edge">
<title>Node15&#45;&gt;Node20</title>
<g id="a_edge28_Node000015_Node000020"><a xlink:title=" ">
<path fill="none" stroke="#63b8ff" d="M548.64,-109.98C557.51,-102.15 570.87,-90.34 581.61,-80.86"/>
<polygon fill="#63b8ff" stroke="#63b8ff" points="584.01,-83.41 589.18,-74.17 579.37,-78.17 584.01,-83.41"/>
</a>
</g>
</g>
<!-- Node21 -->
<g id="Node000021" class="node">
<title>Node21</title>
<g id="a_Node000021"><a xlink:title=" ">
<polygon fill="#e0e0e0" stroke="#999999" points="534,-19 484,-19 484,0 534,0 534,-19"/>
<text text-anchor="middle" x="509" y="-7" font-family="Helvetica,sans-Serif" font-size="10.00">cstdint</text>
</a>
</g>
</g>
<!-- Node15&#45;&gt;Node21 -->
<g id="edge29_Node000015_Node000021" class="edge">
<title>Node15&#45;&gt;Node21</title>
<g id="a_edge29_Node000015_Node000021"><a xlink:title=" ">
<path fill="none" stroke="#63b8ff" d="M528.56,-109.87C519.58,-101.7 507.26,-88.55 502,-74 496.7,-59.33 499.33,-41.62 502.79,-28.63"/>
<polygon fill="#63b8ff" stroke="#63b8ff" points="506.15,-29.59 505.72,-19 499.46,-27.55 506.15,-29.59"/>
</a>
</g>
</g>
<!-- Node22 -->
<g id="Node000022" class="node">
<title>Node22</title>
<g id="a_Node000022"><a xlink:title=" ">
<polygon fill="#e0e0e0" stroke="#999999" points="698.5,-74 641.5,-74 641.5,-55 698.5,-55 698.5,-74"/>
<text text-anchor="middle" x="670" y="-62" font-family="Helvetica,sans-Serif" font-size="10.00">ostream</text>
</a>
</g>
</g>
<!-- Node15&#45;&gt;Node22 -->
<g id="edge30_Node000015_Node000022" class="edge">
<title>Node15&#45;&gt;Node22</title>
<g id="a_edge30_Node000015_Node000022"><a xlink:title=" ">
<path fill="none" stroke="#63b8ff" d="M560.05,-109.98C581.41,-101.34 614.7,-87.87 639.06,-78.02"/>
<polygon fill="#63b8ff" stroke="#63b8ff" points="640.61,-81.17 648.57,-74.17 637.99,-74.68 640.61,-81.17"/>
</a>
</g>
</g>
<!-- Node23 -->
<g id="Node000023" class="node">
<title>Node23</title>
<g id="a_Node000023"><a xlink:href="../../db/d7c/utf8_8h.html" target="_top" xlink:title="Various UTF8 related helper functions.">
<polygon fill="white" stroke="#666666" points="556.5,-74 511.5,-74 511.5,-55 556.5,-55 556.5,-74"/>
<text text-anchor="middle" x="534" y="-62" font-family="Helvetica,sans-Serif" font-size="10.00">utf8.h</text>
</a>
</g>
</g>
<!-- Node15&#45;&gt;Node23 -->
<g id="edge31_Node000015_Node000023" class="edge">
<title>Node15&#45;&gt;Node23</title>
<g id="a_edge31_Node000015_Node000023"><a xlink:title=" ">
<path fill="none" stroke="#63b8ff" d="M538.17,-109.75C537.52,-102.8 536.58,-92.85 535.76,-84.13"/>
<polygon fill="#63b8ff" stroke="#63b8ff" points="539.23,-83.72 534.81,-74.09 532.27,-84.37 539.23,-83.72"/>
</a>
</g>
</g>
<!-- Node23&#45;&gt;Node3 -->
<g id="edge33_Node000023_Node000003" class="edge">
<title>Node23&#45;&gt;Node3</title>
<g id="a_edge33_Node000023_Node000003"><a xlink:title=" ">
<path fill="none" stroke="#63b8ff" d="M556.58,-56.83C559.4,-56.14 562.26,-55.51 565,-55 720.22,-26.28 909.15,-15.24 983.62,-11.81"/>
<polygon fill="#63b8ff" stroke="#63b8ff" points="983.92,-15.3 993.76,-11.36 983.61,-8.31 983.92,-15.3"/>
</a>
</g>
</g>
<!-- Node23&#45;&gt;Node21 -->
<g id="edge32_Node000023_Node000021" class="edge">
<title>Node23&#45;&gt;Node21</title>
<g id="a_edge32_Node000023_Node000021"><a xlink:title=" ">
<path fill="none" stroke="#63b8ff" d="M529.87,-54.75C526.49,-47.57 521.58,-37.18 517.38,-28.27"/>
<polygon fill="#63b8ff" stroke="#63b8ff" points="520.48,-26.64 513.05,-19.09 514.15,-29.63 520.48,-26.64"/>
</a>
</g>
</g>
<!-- Node24&#45;&gt;Node2 -->
<g id="edge37_Node000024_Node000002" class="edge">
<title>Node24&#45;&gt;Node2</title>
<g id="a_edge37_Node000024_Node000002"><a xlink:title=" ">
<path fill="none" stroke="#63b8ff" d="M335.24,-223.64C302.6,-217.14 246.19,-204.06 201,-184 171.01,-170.69 139.55,-149.3 120.11,-135.08"/>
<polygon fill="#63b8ff" stroke="#63b8ff" points="122.19,-132.26 112.07,-129.1 118.01,-137.88 122.19,-132.26"/>
</a>
</g>
</g>
<!-- Node24&#45;&gt;Node4 -->
<g id="edge36_Node000024_Node000004" class="edge">
<title>Node24&#45;&gt;Node4</title>
<g id="a_edge36_Node000024_Node000004"><a xlink:title=" ">
<path fill="none" stroke="#63b8ff" d="M335.25,-228.62C301.53,-227.2 244.34,-219.31 214,-184 203.57,-171.86 202.02,-153.33 202.66,-139.42"/>
<polygon fill="#63b8ff" stroke="#63b8ff" points="206.18,-139.32 203.57,-129.06 199.21,-138.71 206.18,-139.32"/>
</a>
</g>
</g>
<!-- Node24&#45;&gt;Node5 -->
<g id="edge35_Node000024_Node000005" class="edge">
<title>Node24&#45;&gt;Node5</title>
<g id="a_edge35_Node000024_Node000005"><a xlink:title=" ">
<path fill="none" stroke="#63b8ff" d="M368.09,-219.55C378.07,-205.62 399.29,-178.89 424,-165 483.36,-131.63 508.67,-144.62 579.41,-128.99"/>
<polygon fill="#63b8ff" stroke="#63b8ff" points="580.28,-132.38 589.23,-126.7 578.69,-125.56 580.28,-132.38"/>
</a>
</g>
</g>
<!-- Node24&#45;&gt;Node15 -->
<g id="edge38_Node000024_Node000015" class="edge">
<title>Node24&#45;&gt;Node15</title>
<g id="a_edge38_Node000024_Node000015"><a xlink:title=" ">
<path fill="none" stroke="#63b8ff" d="M362.85,-219.75C364.65,-206.09 370.08,-179.72 386,-165 416,-137.26 462.32,-126.72 496.14,-122.76"/>
<polygon fill="#63b8ff" stroke="#63b8ff" points="496.61,-126.23 506.2,-121.73 495.9,-119.27 496.61,-126.23"/>
</a>
</g>
</g>
<!-- Node25 -->
<g id="Node000025" class="node">
<title>Node25</title>
<g id="a_Node000025"><a xlink:href="../../da/de1/linkedmap_8h.html" target="_top" xlink:title=" ">
<polygon fill="white" stroke="#666666" points="333.5,-184 256.5,-184 256.5,-165 333.5,-165 333.5,-184"/>
<text text-anchor="middle" x="295" y="-172" font-family="Helvetica,sans-Serif" font-size="10.00">linkedmap.h</text>
</a>
</g>
</g>
<!-- Node24&#45;&gt;Node25 -->
<g id="edge39_Node000024_Node000025" class="edge">
<title>Node24&#45;&gt;Node25</title>
<g id="a_edge39_Node000024_Node000025"><a xlink:title=" ">
<path fill="none" stroke="#63b8ff" d="M351.24,-219.98C341.23,-212.07 326.11,-200.11 314.07,-190.58"/>
<polygon fill="#63b8ff" stroke="#63b8ff" points="315.97,-187.63 305.96,-184.17 311.63,-193.12 315.97,-187.63"/>
</a>
</g>
</g>
<!-- Node25&#45;&gt;Node2 -->
<g id="edge42_Node000025_Node000002" class="edge">
<title>Node25&#45;&gt;Node2</title>
<g id="a_edge42_Node000025_Node000002"><a xlink:title=" ">
<path fill="none" stroke="#63b8ff" d="M263.83,-164.98C230.15,-155.78 176.43,-141.11 139.98,-131.15"/>
<polygon fill="#63b8ff" stroke="#63b8ff" points="140.76,-127.73 130.19,-128.47 138.91,-134.49 140.76,-127.73"/>
</a>
</g>
</g>
<!-- Node25&#45;&gt;Node3 -->
<g id="edge43_Node000025_Node000003" class="edge">
<title>Node25&#45;&gt;Node3</title>
<g id="a_edge43_Node000025_Node000003"><a xlink:title=" ">
<path fill="none" stroke="#63b8ff" d="M293.2,-164.68C289.22,-142.43 282.39,-83.72 314,-55 339.11,-32.19 849.64,-15.45 983.89,-11.43"/>
<polygon fill="#63b8ff" stroke="#63b8ff" points="984.06,-14.92 993.95,-11.13 983.85,-7.93 984.06,-14.92"/>
</a>
</g>
</g>
<!-- Node25&#45;&gt;Node4 -->
<g id="edge40_Node000025_Node000004" class="edge">
<title>Node25&#45;&gt;Node4</title>
<g id="a_edge40_Node000025_Node000004"><a xlink:title=" ">
<path fill="none" stroke="#63b8ff" d="M280.54,-164.98C266.58,-156.77 245.21,-144.18 228.75,-134.49"/>
<polygon fill="#63b8ff" stroke="#63b8ff" points="230.12,-131.23 219.72,-129.17 226.56,-137.26 230.12,-131.23"/>
</a>
</g>
</g>
<!-- Node25&#45;&gt;Node5 -->
<g id="edge41_Node000025_Node000005" class="edge">
<title>Node25&#45;&gt;Node5</title>
<g id="a_edge41_Node000025_Node000005"><a xlink:title=" ">
<path fill="none" stroke="#63b8ff" d="M333.94,-168.64C387.13,-161.74 485.67,-148 579.35,-128.95"/>
<polygon fill="#63b8ff" stroke="#63b8ff" points="580.18,-132.35 589.27,-126.91 578.77,-125.49 580.18,-132.35"/>
</a>
</g>
</g>
<!-- Node25&#45;&gt;Node15 -->
<g id="edge46_Node000025_Node000015" class="edge">
<title>Node25&#45;&gt;Node15</title>
<g id="a_edge46_Node000025_Node000015"><a xlink:title=" ">
<path fill="none" stroke="#63b8ff" d="M333.66,-165.1C378.01,-155.47 450.51,-139.72 496.43,-129.75"/>
<polygon fill="#63b8ff" stroke="#63b8ff" points="497.35,-133.13 506.37,-127.59 495.86,-126.29 497.35,-133.13"/>
</a>
</g>
</g>
<!-- Node25&#45;&gt;Node16 -->
<g id="edge44_Node000025_Node000016" class="edge">
<title>Node25&#45;&gt;Node16</title>
<g id="a_edge44_Node000025_Node000016"><a xlink:title=" ">
<path fill="none" stroke="#63b8ff" d="M305.47,-164.66C327.24,-146.3 377.59,-103.81 404.79,-80.87"/>
<polygon fill="#63b8ff" stroke="#63b8ff" points="407.35,-83.28 412.74,-74.16 402.84,-77.93 407.35,-83.28"/>
</a>
</g>
</g>
<!-- Node25&#45;&gt;Node17 -->
<g id="edge45_Node000025_Node000017" class="edge">
<title>Node25&#45;&gt;Node17</title>
<g id="a_edge45_Node000025_Node000017"><a xlink:title=" ">
<path fill="none" stroke="#63b8ff" d="M299.34,-164.66C308.04,-146.93 327.77,-106.73 339.26,-83.32"/>
<polygon fill="#63b8ff" stroke="#63b8ff" points="342.49,-84.68 343.75,-74.16 336.2,-81.59 342.49,-84.68"/>
</a>
</g>
</g>
<!-- Node26&#45;&gt;Node5 -->
<g id="edge48_Node000026_Node000005" class="edge">
<title>Node26&#45;&gt;Node5</title>
<g id="a_edge48_Node000026_Node000005"><a xlink:title=" ">
<path fill="none" stroke="#63b8ff" d="M554.25,-164.98C564.8,-157 580.8,-144.88 593.44,-135.31"/>
<polygon fill="#63b8ff" stroke="#63b8ff" points="595.69,-138 601.55,-129.17 591.46,-132.42 595.69,-138"/>
</a>
</g>
</g>
<!-- Node26&#45;&gt;Node15 -->
<g id="edge49_Node000026_Node000015" class="edge">
<title>Node26&#45;&gt;Node15</title>
<g id="a_edge49_Node000026_Node000015"><a xlink:title=" ">
<path fill="none" stroke="#63b8ff" d="M542.34,-164.75C541.82,-157.8 541.06,-147.85 540.41,-139.13"/>
<polygon fill="#63b8ff" stroke="#63b8ff" points="543.89,-138.8 539.65,-129.09 536.91,-139.32 543.89,-138.8"/>
</a>
</g>
</g>
<!-- Node27&#45;&gt;Node2 -->
<g id="edge53_Node000027_Node000002" class="edge">
<title>Node27&#45;&gt;Node2</title>
<g id="a_edge53_Node000027_Node000002"><a xlink:title=" ">
<path fill="none" stroke="#63b8ff" d="M489.27,-275.09C446.25,-267.12 381.44,-254.14 326,-239 252.24,-218.85 227.72,-224.7 163,-184 143.13,-171.5 124.95,-151.38 113.48,-137.15"/>
<polygon fill="#63b8ff" stroke="#63b8ff" points="116.17,-134.9 107.26,-129.16 110.65,-139.2 116.17,-134.9"/>
</a>
</g>
</g>
<!-- Node27&#45;&gt;Node5 -->
<g id="edge51_Node000027_Node000005" class="edge">
<title>Node27&#45;&gt;Node5</title>
<g id="a_edge51_Node000027_Node000005"><a xlink:title=" ">
<path fill="none" stroke="#63b8ff" d="M542.26,-274.96C552.54,-258.04 575.61,-218.89 591,-184 597.48,-169.3 603.35,-152.05 607.4,-139.24"/>
<polygon fill="#63b8ff" stroke="#63b8ff" points="610.86,-139.89 610.45,-129.3 604.17,-137.83 610.86,-139.89"/>
</a>
</g>
</g>
<!-- Node27&#45;&gt;Node11 -->
<g id="edge52_Node000027_Node000011" class="edge">
<title>Node27&#45;&gt;Node11</title>
<g id="a_edge52_Node000027_Node000011"><a xlink:title=" ">
<path fill="none" stroke="#63b8ff" d="M584.68,-281.44C654.74,-277.57 789.17,-266.91 900,-239 949.64,-226.5 1004.58,-202.93 1036.32,-188.29"/>
<polygon fill="#63b8ff" stroke="#63b8ff" points="1037.81,-191.45 1045.39,-184.05 1034.85,-185.11 1037.81,-191.45"/>
</a>
</g>
</g>
<!-- Node27&#45;&gt;Node14 -->
<g id="edge54_Node000027_Node000014" class="edge">
<title>Node27&#45;&gt;Node14</title>
<g id="a_edge54_Node000027_Node000014"><a xlink:title=" ">
<path fill="none" stroke="#63b8ff" d="M531.88,-274.75C527.64,-267.49 521.47,-256.95 516.22,-247.98"/>
<polygon fill="#63b8ff" stroke="#63b8ff" points="519.09,-245.95 511.02,-239.09 513.05,-249.49 519.09,-245.95"/>
</a>
</g>
</g>
<!-- Node27&#45;&gt;Node24 -->
<g id="edge55_Node000027_Node000024" class="edge">
<title>Node27&#45;&gt;Node24</title>
<g id="a_edge55_Node000027_Node000024"><a xlink:title=" ">
<path fill="none" stroke="#63b8ff" d="M508.88,-274.98C478.85,-265.89 431.14,-251.44 398.29,-241.49"/>
<polygon fill="#63b8ff" stroke="#63b8ff" points="399.2,-238.11 388.61,-238.56 397.17,-244.81 399.2,-238.11"/>
</a>
</g>
</g>
<!-- Node29&#45;&gt;Node11 -->
<g id="edge59_Node000029_Node000011" class="edge">
<title>Node29&#45;&gt;Node11</title>
<g id="a_edge59_Node000029_Node000011"><a xlink:title=" ">
<path fill="none" stroke="#63b8ff" d="M1227.51,-219.98C1190.18,-209.89 1128.48,-193.21 1092.19,-183.39"/>
<polygon fill="#63b8ff" stroke="#63b8ff" points="1092.8,-179.93 1082.23,-180.7 1090.97,-186.69 1092.8,-179.93"/>
</a>
</g>
</g>
<!-- Node29&#45;&gt;Node15 -->
<g id="edge60_Node000029_Node000015" class="edge">
<title>Node29&#45;&gt;Node15</title>
<g id="a_edge60_Node000029_Node000015"><a xlink:title=" ">
<path fill="none" stroke="#63b8ff" d="M1254.76,-219.55C1247.37,-205.1 1230.62,-177.03 1207,-165 1085.43,-103.09 734.61,-145.22 581.81,-128.93"/>
<polygon fill="#63b8ff" stroke="#63b8ff" points="581.94,-125.42 571.6,-127.71 581.12,-132.37 581.94,-125.42"/>
</a>
</g>
</g>
<!-- Node30 -->
<g id="Node000030" class="node">
<title>Node30</title>
<g id="a_Node000030"><a xlink:title=" ">
<polygon fill="#e0e0e0" stroke="#999999" points="1198,-184 1138,-184 1138,-165 1198,-165 1198,-184"/>
<text text-anchor="middle" x="1168" y="-172" font-family="Helvetica,sans-Serif" font-size="10.00">iostream</text>
</a>
</g>
</g>
<!-- Node29&#45;&gt;Node30 -->
<g id="edge58_Node000029_Node000030" class="edge">
<title>Node29&#45;&gt;Node30</title>
<g id="a_edge58_Node000029_Node000030"><a xlink:title=" ">
<path fill="none" stroke="#63b8ff" d="M1244.38,-219.98C1230.14,-211.69 1208.25,-198.94 1191.55,-189.22"/>
<polygon fill="#63b8ff" stroke="#63b8ff" points="1193.29,-186.18 1182.89,-184.17 1189.77,-192.23 1193.29,-186.18"/>
</a>
</g>
</g>
<!-- Node31 -->
<g id="Node000031" class="node">
<title>Node31</title>
<g id="a_Node000031"><a xlink:href="../../df/d9c/dir_8h.html" target="_top" xlink:title=" ">
<polygon fill="white" stroke="#666666" points="1292,-184 1254,-184 1254,-165 1292,-165 1292,-184"/>
<text text-anchor="middle" x="1273" y="-172" font-family="Helvetica,sans-Serif" font-size="10.00">dir.h</text>
</a>
</g>
</g>
<!-- Node29&#45;&gt;Node31 -->
<g id="edge61_Node000029_Node000031" class="edge">
<title>Node29&#45;&gt;Node31</title>
<g id="a_edge61_Node000029_Node000031"><a xlink:title=" ">
<path fill="none" stroke="#63b8ff" d="M1261.31,-219.75C1263.17,-212.72 1265.84,-202.62 1268.15,-193.84"/>
<polygon fill="#63b8ff" stroke="#63b8ff" points="1271.56,-194.65 1270.73,-184.09 1264.79,-192.86 1271.56,-194.65"/>
</a>
</g>
</g>
<!-- Node31&#45;&gt;Node2 -->
<g id="edge63_Node000031_Node000002" class="edge">
<title>Node31&#45;&gt;Node2</title>
<g id="a_edge63_Node000031_Node000002"><a xlink:title=" ">
<path fill="none" stroke="#63b8ff" d="M1253.99,-170.57C1240.83,-168.66 1222.89,-166.29 1207,-165 738.05,-126.91 616.92,-178.14 149,-129 146.12,-128.7 143.15,-128.32 140.17,-127.9"/>
<polygon fill="#63b8ff" stroke="#63b8ff" points="140.52,-124.42 130.1,-126.33 139.44,-131.33 140.52,-124.42"/>
</a>
</g>
</g>
<!-- Node31&#45;&gt;Node3 -->
<g id="edge62_Node000031_Node000003" class="edge">
<title>Node31&#45;&gt;Node3</title>
<g id="a_edge62_Node000031_Node000003"><a xlink:title=" ">
<path fill="none" stroke="#63b8ff" d="M1255.11,-164.84C1237.7,-156.25 1210.62,-142.45 1188,-129 1130.7,-94.92 1066.99,-48.67 1035.63,-25.31"/>
<polygon fill="#63b8ff" stroke="#63b8ff" points="1037.43,-22.29 1027.33,-19.1 1033.24,-27.89 1037.43,-22.29"/>
</a>
</g>
</g>
<!-- Node32 -->
<g id="Node000032" class="node">
<title>Node32</title>
<g id="a_Node000032"><a xlink:href="../../df/d45/fileinfo_8h.html" target="_top" xlink:title=" ">
<polygon fill="white" stroke="#666666" points="1255.5,-129 1196.5,-129 1196.5,-110 1255.5,-110 1255.5,-129"/>
<text text-anchor="middle" x="1226" y="-117" font-family="Helvetica,sans-Serif" font-size="10.00">fileinfo.h</text>
</a>
</g>
</g>
<!-- Node31&#45;&gt;Node32 -->
<g id="edge64_Node000031_Node000032" class="edge">
<title>Node31&#45;&gt;Node32</title>
<g id="a_edge64_Node000031_Node000032"><a xlink:title=" ">
<path fill="none" stroke="#63b8ff" d="M1265.24,-164.75C1258.53,-157.18 1248.66,-146.05 1240.49,-136.84"/>
<polygon fill="#63b8ff" stroke="#63b8ff" points="1242.87,-134.25 1233.62,-129.09 1237.63,-138.89 1242.87,-134.25"/>
</a>
</g>
</g>
<!-- Node32&#45;&gt;Node3 -->
<g id="edge65_Node000032_Node000003" class="edge">
<title>Node32&#45;&gt;Node3</title>
<g id="a_edge65_Node000032_Node000003"><a xlink:title=" ">
<path fill="none" stroke="#63b8ff" d="M1210.16,-109.94C1187.26,-97.61 1143.56,-74.22 1106,-55 1084.92,-44.21 1060.87,-32.34 1042.94,-23.58"/>
<polygon fill="#63b8ff" stroke="#63b8ff" points="1044.18,-20.29 1033.66,-19.05 1041.12,-26.58 1044.18,-20.29"/>
</a>
</g>
</g>
<!-- Node33&#45;&gt;Node5 -->
<g id="edge67_Node000033_Node000005" class="edge">
<title>Node33&#45;&gt;Node5</title>
<g id="a_edge67_Node000033_Node000005"><a xlink:title=" ">
<path fill="none" stroke="#63b8ff" d="M1095.29,-274.96C1103.01,-253.36 1119.54,-196.05 1091,-165 1061.01,-132.36 750.82,-123.24 646.79,-121.09"/>
<polygon fill="#63b8ff" stroke="#63b8ff" points="646.61,-117.58 636.55,-120.88 646.47,-124.58 646.61,-117.58"/>
</a>
</g>
</g>
<!-- Node33&#45;&gt;Node11 -->
<g id="edge68_Node000033_Node000011" class="edge">
<title>Node33&#45;&gt;Node11</title>
<g id="a_edge68_Node000033_Node000011"><a xlink:title=" ">
<path fill="none" stroke="#63b8ff" d="M1089.02,-274.69C1086.05,-265.75 1081.44,-251.49 1078,-239 1073.86,-223.96 1069.84,-206.73 1067,-194.02"/>
<polygon fill="#63b8ff" stroke="#63b8ff" points="1070.4,-193.19 1064.84,-184.18 1063.57,-194.7 1070.4,-193.19"/>
</a>
</g>
</g>
<!-- Node33&#45;&gt;Node14 -->
<g id="edge71_Node000033_Node000014" class="edge">
<title>Node33&#45;&gt;Node14</title>
<g id="a_edge71_Node000033_Node000014"><a xlink:title=" ">
<path fill="none" stroke="#63b8ff" d="M1059.24,-280.54C957.87,-271.37 649.76,-243.5 542.94,-233.84"/>
<polygon fill="#63b8ff" stroke="#63b8ff" points="542.94,-230.33 532.66,-232.91 542.3,-237.3 542.94,-230.33"/>
</a>
</g>
</g>
<!-- Node33&#45;&gt;Node29 -->
<g id="edge72_Node000033_Node000029" class="edge">
<title>Node33&#45;&gt;Node29</title>
<g id="a_edge72_Node000033_Node000029"><a xlink:title=" ">
<path fill="none" stroke="#63b8ff" d="M1118.83,-274.98C1146.87,-266.09 1191.05,-252.07 1222.3,-242.15"/>
<polygon fill="#63b8ff" stroke="#63b8ff" points="1223.49,-245.44 1231.96,-239.08 1221.37,-238.77 1223.49,-245.44"/>
</a>
</g>
</g>
<!-- Node33&#45;&gt;Node30 -->
<g id="edge70_Node000033_Node000030" class="edge">
<title>Node33&#45;&gt;Node30</title>
<g id="a_edge70_Node000033_Node000030"><a xlink:title=" ">
<path fill="none" stroke="#63b8ff" d="M1124.93,-275.38C1143.71,-268.88 1165.7,-257.67 1177,-239 1185.28,-225.32 1181.44,-207.01 1176.47,-193.56"/>
<polygon fill="#63b8ff" stroke="#63b8ff" points="1179.55,-191.87 1172.45,-184 1173.1,-194.58 1179.55,-191.87"/>
</a>
</g>
</g>
<!-- Node34 -->
<g id="Node000034" class="node">
<title>Node34</title>
<g id="a_Node000034"><a xlink:title=" ">
<polygon fill="#e0e0e0" stroke="#999999" points="1167.5,-239 1120.5,-239 1120.5,-220 1167.5,-220 1167.5,-239"/>
<text text-anchor="middle" x="1144" y="-227" font-family="Helvetica,sans-Serif" font-size="10.00">deque</text>
</a>
</g>
</g>
<!-- Node33&#45;&gt;Node34 -->
<g id="edge69_Node000033_Node000034" class="edge">
<title>Node33&#45;&gt;Node34</title>
<g id="a_edge69_Node000033_Node000034"><a xlink:title=" ">
<path fill="none" stroke="#63b8ff" d="M1100.59,-274.75C1108.16,-267.03 1119.38,-255.6 1128.51,-246.28"/>
<polygon fill="#63b8ff" stroke="#63b8ff" points="1131.07,-248.68 1135.57,-239.09 1126.07,-243.78 1131.07,-248.68"/>
</a>
</g>
</g>
</g>
</svg>

<g id="navigator" transform="translate(0 0)" fill="#404254">
  <rect fill="#f2f5e9" fill-opacity="0.5" stroke="#606060" stroke-width=".5" x="0" y="0" width="60" height="60"/>
  <use id="zoomplus" xlink:href="#zoomPlus" x="17" y="9" onmousedown="handleZoom(evt,'in')"/>
  <use id="zoomminus" xlink:href="#zoomMin" x="42" y="9" onmousedown="handleZoom(evt,'out')"/>
  <use id="reset" xlink:href="#resetDef" x="30" y="36" onmousedown="handleReset()"/>
   <use id="arrowup" xlink:href="#arrowUp" x="0" y="0" onmousedown="handlePan(0,-1)"/>
  <use id="arrowright" xlink:href="#arrowRight" x="0" y="0" onmousedown="handlePan(1,0)"/>
  <use id="arrowdown" xlink:href="#arrowDown" x="0" y="0" onmousedown="handlePan(0,1)"/>
  <use id="arrowleft" xlink:href="#arrowLeft" x="0" y="0" onmousedown="handlePan(-1,0)"/>
</g>
<svg viewBox="0 0 15 15" width="100%" height="30px" preserveAspectRatio="xMaxYMin meet">
 <g id="arrow_out" transform="scale(0.3 0.3)">
  <a xlink:href="dotgfxhierarchytable_8h__incl_org.svg" target="_base">
   <rect id="button" ry="5" rx="5" y="6" x="6" height="38" width="38"
        fill="#f2f5e9" fill-opacity="0.5" stroke="#606060" stroke-width="1.0"/>
   <path id="arrow"
     d="M 11.500037,31.436501 C 11.940474,20.09759 22.043105,11.32322 32.158766,21.979434 L 37.068811,17.246167 C 37.068811,17.246167 37.088388,32 37.088388,32 L 22.160133,31.978069 C 22.160133,31.978069 26.997745,27.140456 26.997745,27.140456 C 18.528582,18.264221 13.291696,25.230495 11.500037,31.436501 z"
     style="fill:#404040;"/>
  </a>
 </g>
</svg>

<style type='text/css'>
<![CDATA[
[data-mouse-over-selected='false'] { opacity: 0.7; }
[data-mouse-over-selected='true']  { opacity: 1.0; }
]]>
</style>
<script type="application/ecmascript"><![CDATA[
document.addEventListener('DOMContentLoaded', (event) => {
  highlightEdges();
  highlightAdjacentNodes();
});
]]></script>
</svg>
