<?xml version="1.0" encoding="UTF-8" standalone="no"?>
<!DOCTYPE svg PUBLIC "-//W3C//DTD SVG 1.1//EN"
 "http://www.w3.org/Graphics/SVG/1.1/DTD/svg11.dtd">
<!-- Generated by graphviz version 2.43.0 (0)
 -->
<!-- Title: TranslatorAdapter_1_8_15 Pages: 1 -->
<!--zoomable 710 -->

<svg id="main" version="1.1" xmlns="http://www.w3.org/2000/svg" xmlns:xlink="http://www.w3.org/1999/xlink" xml:space="preserve" onload="init(evt)">
<style type="text/css"><![CDATA[
.node, .edge {opacity: 0.7;}
.node.selected, .edge.selected {opacity: 1;}
.edge:hover path { stroke: red; }
.edge:hover polygon { stroke: red; fill: red; }
]]></style>

<defs>
  <circle id="rim" cx="0" cy="0" r="7"/>
  <circle id="rim2" cx="0" cy="0" r="3.5"/>
  <g id="zoomPlus">
    <use xlink:href="#rim" fill="#404040"><set attributeName="fill" to="#808080" begin="zoomplus.mouseover" end="zoomplus.mouseout"/></use>
    <path d="M-4,0h8M0,-4v8" fill="none" stroke="white" stroke-width="1.5" pointer-events="none"/>
  </g>
  <g id="zoomMin">
    <use xlink:href="#rim" fill="#404040"><set attributeName="fill" to="#808080" begin="zoomminus.mouseover" end="zoomminus.mouseout"/></use>
    <path d="M-4,0h8" fill="none" stroke="white" stroke-width="1.5" pointer-events="none"/>
  </g>
  <g id="arrowUp" transform="translate(30 24)">
    <use xlink:href="#rim"/>
    <path pointer-events="none" fill="none" stroke="white" stroke-width="1.5" d="M0,-3.0v7 M-2.5,-0.5L0,-3.0L2.5,-0.5"/>
  </g>
  <g id="arrowRight" transform="rotate(90) translate(36 -43)">
    <use xlink:href="#rim"/>
    <path pointer-events="none" fill="none" stroke="white" stroke-width="1.5" d="M0,-3.0v7 M-2.5,-0.5L0,-3.0L2.5,-0.5"/>
  </g>
  <g id="arrowDown" transform="rotate(180) translate(-30 -48)">
    <use xlink:href="#rim"/>
    <path pointer-events="none" fill="none" stroke="white" stroke-width="1.5" d="M0,-3.0v7 M-2.5,-0.5L0,-3.0L2.5,-0.5"/>
  </g>
  <g id="arrowLeft" transform="rotate(270) translate(-36 17)">
    <use xlink:href="#rim"/>
    <path pointer-events="none" fill="none" stroke="white" stroke-width="1.5" d="M0,-3.0v7 M-2.5,-0.5L0,-3.0L2.5,-0.5"/>
  </g>
  <g id="resetDef">
    <use xlink:href="#rim2" fill="#404040"><set attributeName="fill" to="#808080" begin="reset.mouseover" end="reset.mouseout"/></use>
  </g>
</defs>
<script type="application/ecmascript">
var viewWidth = 3025;
var viewHeight = 710;
var sectionId = 'dynsection-0';
</script>
<script type="application/ecmascript" xlink:href="../../svg.min.js"/>
<svg id="graph" class="graph">
<g id="viewport">
<title>TranslatorAdapter_1_8_15</title>
<!-- Node1 -->
<g id="Node000001" class="node">
<title>Node1</title>
<g id="a_Node000001"><a xlink:title=" ">
<polygon fill="#999999" stroke="#666666" points="1809,-185 1666,-185 1666,-166 1809,-166 1809,-185"/>
<text text-anchor="middle" x="1737.5" y="-173" font-family="Helvetica,sans-Serif" font-size="10.00">TranslatorAdapter_1_8_15</text>
</a>
</g>
</g>
<!-- Node12 -->
<g id="Node000012" class="node">
<title>Node12</title>
<g id="a_Node000012"><a xlink:href="../../de/d2f/class_translator_adapter__1__8__4.html" target="_top" xlink:title=" ">
<polygon fill="white" stroke="#666666" points="1990.5,-352 1853.5,-352 1853.5,-333 1990.5,-333 1990.5,-352"/>
<text text-anchor="middle" x="1922" y="-340" font-family="Helvetica,sans-Serif" font-size="10.00">TranslatorAdapter_1_8_4</text>
</a>
</g>
</g>
<!-- Node1&#45;&gt;Node12 -->
<g id="edge11_Node000001_Node000012" class="edge">
<title>Node1&#45;&gt;Node12</title>
<g id="a_edge11_Node000001_Node000012"><a xlink:title=" ">
<path fill="none" stroke="#63b8ff" d="M1746.89,-194.78C1761.81,-226.7 1796.04,-290.29 1845,-323.5 1850.74,-327.39 1857.21,-330.49 1863.89,-332.95"/>
<polygon fill="#63b8ff" stroke="#63b8ff" points="1749.89,-192.93 1742.58,-185.26 1743.52,-195.81 1749.89,-192.93"/>
</a>
</g>
</g>
<!-- Node38 -->
<g id="Node000038" class="node">
<title>Node38</title>
<g id="a_Node000038"><a xlink:href="../../dd/df6/class_translator_chinesetraditional.html" target="_top" xlink:title=" ">
<polygon fill="white" stroke="#666666" points="1999,-315 1845,-315 1845,-296 1999,-296 1999,-315"/>
<text text-anchor="middle" x="1922" y="-303" font-family="Helvetica,sans-Serif" font-size="10.00">TranslatorChinesetraditional</text>
</a>
</g>
</g>
<!-- Node1&#45;&gt;Node38 -->
<g id="edge37_Node000001_Node000038" class="edge">
<title>Node1&#45;&gt;Node38</title>
<g id="a_edge37_Node000001_Node000038"><a xlink:title=" ">
<path fill="none" stroke="#63b8ff" d="M1750.88,-193.77C1768.71,-218.63 1804.03,-262.74 1845,-286.5 1851.71,-290.39 1859.19,-293.49 1866.78,-295.96"/>
<polygon fill="#63b8ff" stroke="#63b8ff" points="1753.53,-191.45 1744.93,-185.26 1747.79,-195.46 1753.53,-191.45"/>
</a>
</g>
</g>
<!-- Node39 -->
<g id="Node000039" class="node">
<title>Node39</title>
<g id="a_Node000039"><a xlink:href="../../d6/d07/class_translator_german.html" target="_top" xlink:title=" ">
<polygon fill="white" stroke="#666666" points="1974,-278 1870,-278 1870,-259 1974,-259 1974,-278"/>
<text text-anchor="middle" x="1922" y="-266" font-family="Helvetica,sans-Serif" font-size="10.00">TranslatorGerman</text>
</a>
</g>
</g>
<!-- Node1&#45;&gt;Node39 -->
<g id="edge38_Node000001_Node000039" class="edge">
<title>Node1&#45;&gt;Node39</title>
<g id="a_edge38_Node000001_Node000039"><a xlink:title=" ">
<path fill="none" stroke="#63b8ff" d="M1757.32,-191.77C1777.65,-208.56 1811.63,-234.35 1845,-249.5 1853.42,-253.32 1862.73,-256.46 1871.86,-258.99"/>
<polygon fill="#63b8ff" stroke="#63b8ff" points="1759.39,-188.94 1749.48,-185.19 1754.89,-194.3 1759.39,-188.94"/>
</a>
</g>
</g>
<!-- Node40 -->
<g id="Node000040" class="node">
<title>Node40</title>
<g id="a_Node000040"><a xlink:href="../../db/d5f/class_translator_hungarian.html" target="_top" xlink:title=" ">
<polygon fill="white" stroke="#666666" points="1979.5,-241 1864.5,-241 1864.5,-222 1979.5,-222 1979.5,-241"/>
<text text-anchor="middle" x="1922" y="-229" font-family="Helvetica,sans-Serif" font-size="10.00">TranslatorHungarian</text>
</a>
</g>
</g>
<!-- Node1&#45;&gt;Node40 -->
<g id="edge39_Node000001_Node000040" class="edge">
<title>Node1&#45;&gt;Node40</title>
<g id="a_edge39_Node000001_Node000040"><a xlink:title=" ">
<path fill="none" stroke="#63b8ff" d="M1773.72,-188.62C1794.35,-196.09 1820.98,-205.34 1845,-212.5 1856.21,-215.84 1868.46,-219.08 1879.8,-221.91"/>
<polygon fill="#63b8ff" stroke="#63b8ff" points="1774.71,-185.26 1764.11,-185.12 1772.31,-191.84 1774.71,-185.26"/>
</a>
</g>
</g>
<!-- Node41 -->
<g id="Node000041" class="node">
<title>Node41</title>
<g id="a_Node000041"><a xlink:href="../../d2/df8/class_translator_italian.html" target="_top" xlink:title=" ">
<polygon fill="white" stroke="#666666" points="1969.5,-204 1874.5,-204 1874.5,-185 1969.5,-185 1969.5,-204"/>
<text text-anchor="middle" x="1922" y="-192" font-family="Helvetica,sans-Serif" font-size="10.00">TranslatorItalian</text>
</a>
</g>
</g>
<!-- Node1&#45;&gt;Node41 -->
<g id="edge40_Node000001_Node000041" class="edge">
<title>Node1&#45;&gt;Node41</title>
<g id="a_edge40_Node000001_Node000041"><a xlink:title=" ">
<path fill="none" stroke="#63b8ff" d="M1819.15,-183.9C1838.01,-185.86 1857.48,-187.89 1874.29,-189.64"/>
<polygon fill="#63b8ff" stroke="#63b8ff" points="1819.37,-180.4 1809.06,-182.85 1818.64,-187.36 1819.37,-180.4"/>
</a>
</g>
</g>
<!-- Node42 -->
<g id="Node000042" class="node">
<title>Node42</title>
<g id="a_Node000042"><a xlink:href="../../d1/d6a/class_translator_japanese.html" target="_top" xlink:title=" ">
<polygon fill="white" stroke="#666666" points="1976.5,-167 1867.5,-167 1867.5,-148 1976.5,-148 1976.5,-167"/>
<text text-anchor="middle" x="1922" y="-155" font-family="Helvetica,sans-Serif" font-size="10.00">TranslatorJapanese</text>
</a>
</g>
</g>
<!-- Node1&#45;&gt;Node42 -->
<g id="edge41_Node000001_Node000042" class="edge">
<title>Node1&#45;&gt;Node42</title>
<g id="a_edge41_Node000001_Node000042"><a xlink:title=" ">
<path fill="none" stroke="#63b8ff" d="M1819.14,-167.55C1835.45,-165.94 1852.22,-164.28 1867.33,-162.79"/>
<polygon fill="#63b8ff" stroke="#63b8ff" points="1818.67,-164.08 1809.06,-168.54 1819.35,-171.04 1818.67,-164.08"/>
</a>
</g>
</g>
<!-- Node43 -->
<g id="Node000043" class="node">
<title>Node43</title>
<g id="a_Node000043"><a xlink:href="../../db/dcc/class_translator_korean.html" target="_top" xlink:title=" ">
<polygon fill="white" stroke="#666666" points="1971,-130 1873,-130 1873,-111 1971,-111 1971,-130"/>
<text text-anchor="middle" x="1922" y="-118" font-family="Helvetica,sans-Serif" font-size="10.00">TranslatorKorean</text>
</a>
</g>
</g>
<!-- Node1&#45;&gt;Node43 -->
<g id="edge42_Node000001_Node000043" class="edge">
<title>Node1&#45;&gt;Node43</title>
<g id="a_edge42_Node000001_Node000043"><a xlink:title=" ">
<path fill="none" stroke="#63b8ff" d="M1773.27,-162.41C1793.94,-154.89 1820.78,-145.56 1845,-138.5 1855.41,-135.47 1866.74,-132.57 1877.39,-130.02"/>
<polygon fill="#63b8ff" stroke="#63b8ff" points="1771.84,-159.21 1763.66,-165.95 1774.25,-165.78 1771.84,-159.21"/>
</a>
</g>
</g>
<!-- Node44 -->
<g id="Node000044" class="node">
<title>Node44</title>
<g id="a_Node000044"><a xlink:href="../../da/d32/class_translator_romanian.html" target="_top" xlink:title=" ">
<polygon fill="white" stroke="#666666" points="1979,-93 1865,-93 1865,-74 1979,-74 1979,-93"/>
<text text-anchor="middle" x="1922" y="-81" font-family="Helvetica,sans-Serif" font-size="10.00">TranslatorRomanian</text>
</a>
</g>
</g>
<!-- Node1&#45;&gt;Node44 -->
<g id="edge43_Node000001_Node000044" class="edge">
<title>Node1&#45;&gt;Node44</title>
<g id="a_edge43_Node000001_Node000044"><a xlink:title=" ">
<path fill="none" stroke="#63b8ff" d="M1757.28,-159.14C1777.58,-142.29 1811.54,-116.44 1845,-101.5 1852.55,-98.13 1860.82,-95.34 1869.04,-93.05"/>
<polygon fill="#63b8ff" stroke="#63b8ff" points="1754.83,-156.63 1749.46,-165.76 1759.35,-161.97 1754.83,-156.63"/>
</a>
</g>
</g>
<!-- Node45 -->
<g id="Node000045" class="node">
<title>Node45</title>
<g id="a_Node000045"><a xlink:href="../../d0/dab/class_translator_russian.html" target="_top" xlink:title=" ">
<polygon fill="white" stroke="#666666" points="1973.5,-56 1870.5,-56 1870.5,-37 1973.5,-37 1973.5,-56"/>
<text text-anchor="middle" x="1922" y="-44" font-family="Helvetica,sans-Serif" font-size="10.00">TranslatorRussian</text>
</a>
</g>
</g>
<!-- Node1&#45;&gt;Node45 -->
<g id="edge44_Node000001_Node000045" class="edge">
<title>Node1&#45;&gt;Node45</title>
<g id="a_edge44_Node000001_Node000045"><a xlink:title=" ">
<path fill="none" stroke="#63b8ff" d="M1750.84,-157.16C1768.62,-132.21 1803.88,-88.01 1845,-64.5 1852.77,-60.06 1861.58,-56.71 1870.39,-54.19"/>
<polygon fill="#63b8ff" stroke="#63b8ff" points="1747.74,-155.49 1744.9,-165.69 1753.49,-159.48 1747.74,-155.49"/>
</a>
</g>
</g>
<!-- Node46 -->
<g id="Node000046" class="node">
<title>Node46</title>
<g id="a_Node000046"><a xlink:href="../../d2/d53/class_translator_slovak.html" target="_top" xlink:title=" ">
<polygon fill="white" stroke="#666666" points="1971,-19 1873,-19 1873,0 1971,0 1971,-19"/>
<text text-anchor="middle" x="1922" y="-7" font-family="Helvetica,sans-Serif" font-size="10.00">TranslatorSlovak</text>
</a>
</g>
</g>
<!-- Node1&#45;&gt;Node46 -->
<g id="edge45_Node000001_Node000046" class="edge">
<title>Node1&#45;&gt;Node46</title>
<g id="a_edge45_Node000001_Node000046"><a xlink:title=" ">
<path fill="none" stroke="#63b8ff" d="M1746.66,-156.57C1761.4,-124.69 1795.62,-60.55 1845,-27.5 1853.23,-21.99 1862.94,-18.17 1872.63,-15.5"/>
<polygon fill="#63b8ff" stroke="#63b8ff" points="1743.46,-155.15 1742.56,-165.7 1749.84,-158.01 1743.46,-155.15"/>
</a>
</g>
</g>
<!-- Node2 -->
<g id="Node000002" class="node">
<title>Node2</title>
<g id="a_Node000002"><a xlink:href="../../de/dde/class_translator_adapter__1__8__19.html" target="_top" xlink:title=" ">
<polygon fill="white" stroke="#666666" points="1630,-185 1487,-185 1487,-166 1630,-166 1630,-185"/>
<text text-anchor="middle" x="1558.5" y="-173" font-family="Helvetica,sans-Serif" font-size="10.00">TranslatorAdapter_1_8_19</text>
</a>
</g>
</g>
<!-- Node2&#45;&gt;Node1 -->
<g id="edge1_Node000001_Node000002" class="edge">
<title>Node2&#45;&gt;Node1</title>
<g id="a_edge1_Node000001_Node000002"><a xlink:title=" ">
<path fill="none" stroke="#63b8ff" d="M1640.49,-175.5C1648.97,-175.5 1657.54,-175.5 1665.89,-175.5"/>
<polygon fill="#63b8ff" stroke="#63b8ff" points="1640.22,-172 1630.22,-175.5 1640.22,-179 1640.22,-172"/>
</a>
</g>
</g>
<!-- Node3 -->
<g id="Node000003" class="node">
<title>Node3</title>
<g id="a_Node000003"><a xlink:href="../../d3/d2e/class_translator_adapter__1__9__2.html" target="_top" xlink:title=" ">
<polygon fill="white" stroke="#666666" points="1451,-185 1314,-185 1314,-166 1451,-166 1451,-185"/>
<text text-anchor="middle" x="1382.5" y="-173" font-family="Helvetica,sans-Serif" font-size="10.00">TranslatorAdapter_1_9_2</text>
</a>
</g>
</g>
<!-- Node3&#45;&gt;Node2 -->
<g id="edge2_Node000002_Node000003" class="edge">
<title>Node3&#45;&gt;Node2</title>
<g id="a_edge2_Node000002_Node000003"><a xlink:title=" ">
<path fill="none" stroke="#63b8ff" d="M1461.47,-175.5C1469.89,-175.5 1478.42,-175.5 1486.75,-175.5"/>
<polygon fill="#63b8ff" stroke="#63b8ff" points="1461.27,-172 1451.27,-175.5 1461.27,-179 1461.27,-172"/>
</a>
</g>
</g>
<!-- Node4 -->
<g id="Node000004" class="node">
<title>Node4</title>
<g id="a_Node000004"><a xlink:href="../../d0/d33/class_translator_adapter__1__9__4.html" target="_top" xlink:title=" ">
<polygon fill="white" stroke="#666666" points="1278,-185 1141,-185 1141,-166 1278,-166 1278,-185"/>
<text text-anchor="middle" x="1209.5" y="-173" font-family="Helvetica,sans-Serif" font-size="10.00">TranslatorAdapter_1_9_4</text>
</a>
</g>
</g>
<!-- Node4&#45;&gt;Node3 -->
<g id="edge3_Node000003_Node000004" class="edge">
<title>Node4&#45;&gt;Node3</title>
<g id="a_edge3_Node000003_Node000004"><a xlink:title=" ">
<path fill="none" stroke="#63b8ff" d="M1288.1,-175.5C1296.69,-175.5 1305.39,-175.5 1313.85,-175.5"/>
<polygon fill="#63b8ff" stroke="#63b8ff" points="1288.08,-172 1278.08,-175.5 1288.08,-179 1288.08,-172"/>
</a>
</g>
</g>
<!-- Node5 -->
<g id="Node000005" class="node">
<title>Node5</title>
<g id="a_Node000005"><a xlink:href="../../dd/dba/class_translator_adapter__1__9__5.html" target="_top" xlink:title=" ">
<polygon fill="white" stroke="#666666" points="1105,-185 968,-185 968,-166 1105,-166 1105,-185"/>
<text text-anchor="middle" x="1036.5" y="-173" font-family="Helvetica,sans-Serif" font-size="10.00">TranslatorAdapter_1_9_5</text>
</a>
</g>
</g>
<!-- Node5&#45;&gt;Node4 -->
<g id="edge4_Node000004_Node000005" class="edge">
<title>Node5&#45;&gt;Node4</title>
<g id="a_edge4_Node000004_Node000005"><a xlink:title=" ">
<path fill="none" stroke="#63b8ff" d="M1115.1,-175.5C1123.69,-175.5 1132.39,-175.5 1140.85,-175.5"/>
<polygon fill="#63b8ff" stroke="#63b8ff" points="1115.08,-172 1105.08,-175.5 1115.08,-179 1115.08,-172"/>
</a>
</g>
</g>
<!-- Node6 -->
<g id="Node000006" class="node">
<title>Node6</title>
<g id="a_Node000006"><a xlink:href="../../db/d71/class_translator_adapter__1__9__6.html" target="_top" xlink:title=" ">
<polygon fill="white" stroke="#666666" points="932,-185 795,-185 795,-166 932,-166 932,-185"/>
<text text-anchor="middle" x="863.5" y="-173" font-family="Helvetica,sans-Serif" font-size="10.00">TranslatorAdapter_1_9_6</text>
</a>
</g>
</g>
<!-- Node6&#45;&gt;Node5 -->
<g id="edge5_Node000005_Node000006" class="edge">
<title>Node6&#45;&gt;Node5</title>
<g id="a_edge5_Node000005_Node000006"><a xlink:title=" ">
<path fill="none" stroke="#63b8ff" d="M942.1,-175.5C950.69,-175.5 959.39,-175.5 967.85,-175.5"/>
<polygon fill="#63b8ff" stroke="#63b8ff" points="942.08,-172 932.08,-175.5 942.08,-179 942.08,-172"/>
</a>
</g>
</g>
<!-- Node7 -->
<g id="Node000007" class="node">
<title>Node7</title>
<g id="a_Node000007"><a xlink:href="../../d7/d9d/class_translator_adapter__1__9__8.html" target="_top" xlink:title=" ">
<polygon fill="white" stroke="#666666" points="759,-185 622,-185 622,-166 759,-166 759,-185"/>
<text text-anchor="middle" x="690.5" y="-173" font-family="Helvetica,sans-Serif" font-size="10.00">TranslatorAdapter_1_9_8</text>
</a>
</g>
</g>
<!-- Node7&#45;&gt;Node6 -->
<g id="edge6_Node000006_Node000007" class="edge">
<title>Node7&#45;&gt;Node6</title>
<g id="a_edge6_Node000006_Node000007"><a xlink:title=" ">
<path fill="none" stroke="#63b8ff" d="M769.1,-175.5C777.69,-175.5 786.39,-175.5 794.85,-175.5"/>
<polygon fill="#63b8ff" stroke="#63b8ff" points="769.08,-172 759.08,-175.5 769.08,-179 769.08,-172"/>
</a>
</g>
</g>
<!-- Node8 -->
<g id="Node000008" class="node">
<title>Node8</title>
<g id="a_Node000008"><a xlink:href="../../de/d34/class_translator_adapter__1__10__0.html" target="_top" xlink:title=" ">
<polygon fill="white" stroke="#666666" points="586,-185 443,-185 443,-166 586,-166 586,-185"/>
<text text-anchor="middle" x="514.5" y="-173" font-family="Helvetica,sans-Serif" font-size="10.00">TranslatorAdapter_1_10_0</text>
</a>
</g>
</g>
<!-- Node8&#45;&gt;Node7 -->
<g id="edge7_Node000007_Node000008" class="edge">
<title>Node8&#45;&gt;Node7</title>
<g id="a_edge7_Node000007_Node000008"><a xlink:title=" ">
<path fill="none" stroke="#63b8ff" d="M596.12,-175.5C604.77,-175.5 613.5,-175.5 621.98,-175.5"/>
<polygon fill="#63b8ff" stroke="#63b8ff" points="596.02,-172 586.02,-175.5 596.02,-179 596.02,-172"/>
</a>
</g>
</g>
<!-- Node9 -->
<g id="Node000009" class="node">
<title>Node9</title>
<g id="a_Node000009"><a xlink:href="../../d8/d55/class_translator_adapter__1__11__0.html" target="_top" xlink:title=" ">
<polygon fill="white" stroke="#666666" points="407,-185 264,-185 264,-166 407,-166 407,-185"/>
<text text-anchor="middle" x="335.5" y="-173" font-family="Helvetica,sans-Serif" font-size="10.00">TranslatorAdapter_1_11_0</text>
</a>
</g>
</g>
<!-- Node9&#45;&gt;Node8 -->
<g id="edge8_Node000008_Node000009" class="edge">
<title>Node9&#45;&gt;Node8</title>
<g id="a_edge8_Node000008_Node000009"><a xlink:title=" ">
<path fill="none" stroke="#63b8ff" d="M417.49,-175.5C425.97,-175.5 434.54,-175.5 442.89,-175.5"/>
<polygon fill="#63b8ff" stroke="#63b8ff" points="417.22,-172 407.22,-175.5 417.22,-179 417.22,-172"/>
</a>
</g>
</g>
<!-- Node10 -->
<g id="Node000010" class="node">
<title>Node10</title>
<g id="a_Node000010"><a xlink:href="../../db/d6c/class_translator_adapter_base.html" target="_top" xlink:title="Base of the translator adapter tree.">
<polygon fill="white" stroke="#666666" points="228,-185 101,-185 101,-166 228,-166 228,-185"/>
<text text-anchor="middle" x="164.5" y="-173" font-family="Helvetica,sans-Serif" font-size="10.00">TranslatorAdapterBase</text>
</a>
</g>
</g>
<!-- Node10&#45;&gt;Node9 -->
<g id="edge9_Node000009_Node000010" class="edge">
<title>Node10&#45;&gt;Node9</title>
<g id="a_edge9_Node000009_Node000010"><a xlink:title=" ">
<path fill="none" stroke="#63b8ff" d="M238.56,-175.5C246.95,-175.5 255.49,-175.5 263.84,-175.5"/>
<polygon fill="#63b8ff" stroke="#63b8ff" points="238.43,-172 228.43,-175.5 238.43,-179 238.43,-172"/>
</a>
</g>
</g>
<!-- Node11 -->
<g id="Node000011" class="node">
<title>Node11</title>
<g id="a_Node000011"><a xlink:href="../../d8/dfb/class_translator.html" target="_top" xlink:title="Abstract base class for all translatable text fragments.">
<polygon fill="white" stroke="#666666" points="65,-185 0,-185 0,-166 65,-166 65,-185"/>
<text text-anchor="middle" x="32.5" y="-173" font-family="Helvetica,sans-Serif" font-size="10.00">Translator</text>
</a>
</g>
</g>
<!-- Node11&#45;&gt;Node10 -->
<g id="edge10_Node000010_Node000011" class="edge">
<title>Node11&#45;&gt;Node10</title>
<g id="a_edge10_Node000010_Node000011"><a xlink:title=" ">
<path fill="none" stroke="#63b8ff" d="M75.54,-175.5C83.6,-175.5 92.2,-175.5 100.75,-175.5"/>
<polygon fill="#63b8ff" stroke="#63b8ff" points="75.3,-172 65.3,-175.5 75.3,-179 75.3,-172"/>
</a>
</g>
</g>
<!-- Node13 -->
<g id="Node000013" class="node">
<title>Node13</title>
<g id="a_Node000013"><a xlink:href="../../d2/d75/class_translator_adapter__1__8__2.html" target="_top" xlink:title=" ">
<polygon fill="white" stroke="#666666" points="2172,-407 2035,-407 2035,-388 2172,-388 2172,-407"/>
<text text-anchor="middle" x="2103.5" y="-395" font-family="Helvetica,sans-Serif" font-size="10.00">TranslatorAdapter_1_8_2</text>
</a>
</g>
</g>
<!-- Node12&#45;&gt;Node13 -->
<g id="edge12_Node000012_Node000013" class="edge">
<title>Node12&#45;&gt;Node13</title>
<g id="a_edge12_Node000012_Node000013"><a xlink:title=" ">
<path fill="none" stroke="#63b8ff" d="M1961.67,-355.32C1983.2,-362.35 2010.52,-371.12 2035,-378.5 2045.61,-381.7 2057.2,-385.02 2067.74,-387.98"/>
<polygon fill="#63b8ff" stroke="#63b8ff" points="1962.51,-351.91 1951.92,-352.12 1960.33,-358.56 1962.51,-351.91"/>
</a>
</g>
</g>
<!-- Node35 -->
<g id="Node000035" class="node">
<title>Node35</title>
<g id="a_Node000035"><a xlink:href="../../d2/d07/class_translator_esperanto.html" target="_top" xlink:title=" ">
<polygon fill="white" stroke="#666666" points="2160,-370 2047,-370 2047,-351 2160,-351 2160,-370"/>
<text text-anchor="middle" x="2103.5" y="-358" font-family="Helvetica,sans-Serif" font-size="10.00">TranslatorEsperanto</text>
</a>
</g>
</g>
<!-- Node12&#45;&gt;Node35 -->
<g id="edge34_Node000012_Node000035" class="edge">
<title>Node12&#45;&gt;Node35</title>
<g id="a_edge34_Node000012_Node000035"><a xlink:title=" ">
<path fill="none" stroke="#63b8ff" d="M2000.73,-350.3C2016.29,-351.85 2032.33,-353.46 2046.95,-354.93"/>
<polygon fill="#63b8ff" stroke="#63b8ff" points="2000.9,-346.79 1990.61,-349.28 2000.21,-353.76 2000.9,-346.79"/>
</a>
</g>
</g>
<!-- Node36 -->
<g id="Node000036" class="node">
<title>Node36</title>
<g id="a_Node000036"><a xlink:href="../../d8/d83/class_translator_latvian.html" target="_top" xlink:title=" ">
<polygon fill="white" stroke="#666666" points="2154,-333 2053,-333 2053,-314 2154,-314 2154,-333"/>
<text text-anchor="middle" x="2103.5" y="-321" font-family="Helvetica,sans-Serif" font-size="10.00">TranslatorLatvian</text>
</a>
</g>
</g>
<!-- Node12&#45;&gt;Node36 -->
<g id="edge35_Node000012_Node000036" class="edge">
<title>Node12&#45;&gt;Node36</title>
<g id="a_edge35_Node000012_Node000036"><a xlink:title=" ">
<path fill="none" stroke="#63b8ff" d="M2000.89,-334.26C2018.52,-332.39 2036.78,-330.46 2052.86,-328.75"/>
<polygon fill="#63b8ff" stroke="#63b8ff" points="2000.18,-330.81 1990.61,-335.34 2000.92,-337.77 2000.18,-330.81"/>
</a>
</g>
</g>
<!-- Node37 -->
<g id="Node000037" class="node">
<title>Node37</title>
<g id="a_Node000037"><a xlink:href="../../d1/d56/class_translator_ukrainian.html" target="_top" xlink:title=" ">
<polygon fill="white" stroke="#666666" points="2159.5,-296 2047.5,-296 2047.5,-277 2159.5,-277 2159.5,-296"/>
<text text-anchor="middle" x="2103.5" y="-284" font-family="Helvetica,sans-Serif" font-size="10.00">TranslatorUkrainian</text>
</a>
</g>
</g>
<!-- Node12&#45;&gt;Node37 -->
<g id="edge36_Node000012_Node000037" class="edge">
<title>Node12&#45;&gt;Node37</title>
<g id="a_edge36_Node000012_Node000037"><a xlink:title=" ">
<path fill="none" stroke="#63b8ff" d="M1978.94,-330.16C1985.77,-328.17 1992.6,-325.95 1999,-323.5 2015.9,-317.04 2018.15,-311.09 2035,-304.5 2043.13,-301.32 2052.03,-298.5 2060.62,-296.1"/>
<polygon fill="#63b8ff" stroke="#63b8ff" points="1977.68,-326.87 1968.96,-332.9 1979.54,-333.62 1977.68,-326.87"/>
</a>
</g>
</g>
<!-- Node14 -->
<g id="Node000014" class="node">
<title>Node14</title>
<g id="a_Node000014"><a xlink:href="../../de/d49/class_translator_adapter__1__8__0.html" target="_top" xlink:title="Adapter class for languages that only contain translations up to version 1.8.0.">
<polygon fill="white" stroke="#666666" points="2345,-425 2208,-425 2208,-406 2345,-406 2345,-425"/>
<text text-anchor="middle" x="2276.5" y="-413" font-family="Helvetica,sans-Serif" font-size="10.00">TranslatorAdapter_1_8_0</text>
</a>
</g>
</g>
<!-- Node13&#45;&gt;Node14 -->
<g id="edge13_Node000013_Node000014" class="edge">
<title>Node13&#45;&gt;Node14</title>
<g id="a_edge13_Node000013_Node000014"><a xlink:title=" ">
<path fill="none" stroke="#63b8ff" d="M2182.1,-405.67C2190.69,-406.57 2199.39,-407.49 2207.85,-408.38"/>
<polygon fill="#63b8ff" stroke="#63b8ff" points="2182.4,-402.18 2172.08,-404.61 2181.66,-409.14 2182.4,-402.18"/>
</a>
</g>
</g>
<!-- Node34 -->
<g id="Node000034" class="node">
<title>Node34</title>
<g id="a_Node000034"><a xlink:href="../../d9/d82/class_translator_croatian.html" target="_top" xlink:title=" ">
<polygon fill="white" stroke="#666666" points="2329.5,-388 2223.5,-388 2223.5,-369 2329.5,-369 2329.5,-388"/>
<text text-anchor="middle" x="2276.5" y="-376" font-family="Helvetica,sans-Serif" font-size="10.00">TranslatorCroatian</text>
</a>
</g>
</g>
<!-- Node13&#45;&gt;Node34 -->
<g id="edge33_Node000013_Node000034" class="edge">
<title>Node13&#45;&gt;Node34</title>
<g id="a_edge33_Node000013_Node000034"><a xlink:title=" ">
<path fill="none" stroke="#63b8ff" d="M2182.19,-388.87C2196.16,-387.32 2210.41,-385.73 2223.44,-384.28"/>
<polygon fill="#63b8ff" stroke="#63b8ff" points="2181.64,-385.41 2172.08,-389.99 2182.41,-392.36 2181.64,-385.41"/>
</a>
</g>
</g>
<!-- Node15 -->
<g id="Node000015" class="node">
<title>Node15</title>
<g id="a_Node000015"><a xlink:href="../../da/d24/class_translator_adapter__1__7__5.html" target="_top" xlink:title="Adapter class for languages that only contain translations up to version 1.7.5.">
<polygon fill="white" stroke="#666666" points="2518,-499 2381,-499 2381,-480 2518,-480 2518,-499"/>
<text text-anchor="middle" x="2449.5" y="-487" font-family="Helvetica,sans-Serif" font-size="10.00">TranslatorAdapter_1_7_5</text>
</a>
</g>
</g>
<!-- Node14&#45;&gt;Node15 -->
<g id="edge14_Node000014_Node000015" class="edge">
<title>Node14&#45;&gt;Node15</title>
<g id="a_edge14_Node000014_Node000015"><a xlink:title=" ">
<path fill="none" stroke="#63b8ff" d="M2301.82,-430.34C2322.35,-442.4 2352.83,-459.2 2381,-470.5 2389.93,-474.08 2399.77,-477.26 2409.12,-479.95"/>
<polygon fill="#63b8ff" stroke="#63b8ff" points="2303.51,-427.27 2293.13,-425.17 2299.93,-433.29 2303.51,-427.27"/>
</a>
</g>
</g>
<!-- Node30 -->
<g id="Node000030" class="node">
<title>Node30</title>
<g id="a_Node000030"><a xlink:href="../../da/db8/class_translator_armenian.html" target="_top" xlink:title=" ">
<polygon fill="white" stroke="#666666" points="2505.5,-462 2393.5,-462 2393.5,-443 2505.5,-443 2505.5,-462"/>
<text text-anchor="middle" x="2449.5" y="-450" font-family="Helvetica,sans-Serif" font-size="10.00">TranslatorArmenian</text>
</a>
</g>
</g>
<!-- Node14&#45;&gt;Node30 -->
<g id="edge29_Node000014_Node000030" class="edge">
<title>Node14&#45;&gt;Node30</title>
<g id="a_edge29_Node000014_Node000030"><a xlink:title=" ">
<path fill="none" stroke="#63b8ff" d="M2331.35,-427.15C2354.84,-432.23 2382.04,-438.12 2404.32,-442.94"/>
<polygon fill="#63b8ff" stroke="#63b8ff" points="2332.05,-423.72 2321.54,-425.03 2330.57,-430.56 2332.05,-423.72"/>
</a>
</g>
</g>
<!-- Node31 -->
<g id="Node000031" class="node">
<title>Node31</title>
<g id="a_Node000031"><a xlink:href="../../d9/dc1/class_translator_catalan.html" target="_top" xlink:title=" ">
<polygon fill="white" stroke="#666666" points="2500.5,-425 2398.5,-425 2398.5,-406 2500.5,-406 2500.5,-425"/>
<text text-anchor="middle" x="2449.5" y="-413" font-family="Helvetica,sans-Serif" font-size="10.00">TranslatorCatalan</text>
</a>
</g>
</g>
<!-- Node14&#45;&gt;Node31 -->
<g id="edge30_Node000014_Node000031" class="edge">
<title>Node14&#45;&gt;Node31</title>
<g id="a_edge30_Node000014_Node000031"><a xlink:title=" ">
<path fill="none" stroke="#63b8ff" d="M2355.15,-415.5C2369.8,-415.5 2384.76,-415.5 2398.28,-415.5"/>
<polygon fill="#63b8ff" stroke="#63b8ff" points="2355.08,-412 2345.08,-415.5 2355.08,-419 2355.08,-412"/>
</a>
</g>
</g>
<!-- Node32 -->
<g id="Node000032" class="node">
<title>Node32</title>
<g id="a_Node000032"><a xlink:href="../../d7/d21/class_translator_danish.html" target="_top" xlink:title=" ">
<polygon fill="white" stroke="#666666" points="2498.5,-388 2400.5,-388 2400.5,-369 2498.5,-369 2498.5,-388"/>
<text text-anchor="middle" x="2449.5" y="-376" font-family="Helvetica,sans-Serif" font-size="10.00">TranslatorDanish</text>
</a>
</g>
</g>
<!-- Node14&#45;&gt;Node32 -->
<g id="edge31_Node000014_Node000032" class="edge">
<title>Node14&#45;&gt;Node32</title>
<g id="a_edge31_Node000014_Node000032"><a xlink:title=" ">
<path fill="none" stroke="#63b8ff" d="M2331.35,-403.85C2354.84,-398.77 2382.04,-392.88 2404.32,-388.06"/>
<polygon fill="#63b8ff" stroke="#63b8ff" points="2330.57,-400.44 2321.54,-405.97 2332.05,-407.28 2330.57,-400.44"/>
</a>
</g>
</g>
<!-- Node33 -->
<g id="Node000033" class="node">
<title>Node33</title>
<g id="a_Node000033"><a xlink:href="../../df/dc8/class_translator_indonesian.html" target="_top" xlink:title=" ">
<polygon fill="white" stroke="#666666" points="2508.5,-351 2390.5,-351 2390.5,-332 2508.5,-332 2508.5,-351"/>
<text text-anchor="middle" x="2449.5" y="-339" font-family="Helvetica,sans-Serif" font-size="10.00">TranslatorIndonesian</text>
</a>
</g>
</g>
<!-- Node14&#45;&gt;Node33 -->
<g id="edge32_Node000014_Node000033" class="edge">
<title>Node14&#45;&gt;Node33</title>
<g id="a_edge32_Node000014_Node000033"><a xlink:title=" ">
<path fill="none" stroke="#63b8ff" d="M2333.42,-402.32C2337.44,-400.6 2341.35,-398.67 2345,-396.5 2364.72,-384.77 2361.2,-371.1 2381,-359.5 2386.86,-356.07 2393.39,-353.28 2400.01,-351.01"/>
<polygon fill="#63b8ff" stroke="#63b8ff" points="2331.97,-399.13 2323.86,-405.95 2334.46,-405.67 2331.97,-399.13"/>
</a>
</g>
</g>
<!-- Node16 -->
<g id="Node000016" class="node">
<title>Node16</title>
<g id="a_Node000016"><a xlink:href="../../d3/da1/class_translator_adapter__1__6__0.html" target="_top" xlink:title="Adapter class for languages that only contain translations up to version 1.6.0.">
<polygon fill="white" stroke="#666666" points="2691,-536 2554,-536 2554,-517 2691,-517 2691,-536"/>
<text text-anchor="middle" x="2622.5" y="-524" font-family="Helvetica,sans-Serif" font-size="10.00">TranslatorAdapter_1_6_0</text>
</a>
</g>
</g>
<!-- Node15&#45;&gt;Node16 -->
<g id="edge15_Node000015_Node000016" class="edge">
<title>Node15&#45;&gt;Node16</title>
<g id="a_edge15_Node000015_Node000016"><a xlink:title=" ">
<path fill="none" stroke="#63b8ff" d="M2504.35,-501.15C2527.84,-506.23 2555.04,-512.12 2577.32,-516.94"/>
<polygon fill="#63b8ff" stroke="#63b8ff" points="2505.05,-497.72 2494.54,-499.03 2503.57,-504.56 2505.05,-497.72"/>
</a>
</g>
</g>
<!-- Node28 -->
<g id="Node000028" class="node">
<title>Node28</title>
<g id="a_Node000028"><a xlink:href="../../d5/d43/class_translator_persian.html" target="_top" xlink:title=" ">
<polygon fill="white" stroke="#666666" points="2673,-499 2572,-499 2572,-480 2673,-480 2673,-499"/>
<text text-anchor="middle" x="2622.5" y="-487" font-family="Helvetica,sans-Serif" font-size="10.00">TranslatorPersian</text>
</a>
</g>
</g>
<!-- Node15&#45;&gt;Node28 -->
<g id="edge27_Node000015_Node000028" class="edge">
<title>Node15&#45;&gt;Node28</title>
<g id="a_edge27_Node000015_Node000028"><a xlink:title=" ">
<path fill="none" stroke="#63b8ff" d="M2528.26,-489.5C2543.06,-489.5 2558.18,-489.5 2571.81,-489.5"/>
<polygon fill="#63b8ff" stroke="#63b8ff" points="2528.08,-486 2518.08,-489.5 2528.08,-493 2528.08,-486"/>
</a>
</g>
</g>
<!-- Node29 -->
<g id="Node000029" class="node">
<title>Node29</title>
<g id="a_Node000029"><a xlink:href="../../dd/d80/class_translator_turkish.html" target="_top" xlink:title=" ">
<polygon fill="white" stroke="#666666" points="2672,-462 2573,-462 2573,-443 2672,-443 2672,-462"/>
<text text-anchor="middle" x="2622.5" y="-450" font-family="Helvetica,sans-Serif" font-size="10.00">TranslatorTurkish</text>
</a>
</g>
</g>
<!-- Node15&#45;&gt;Node29 -->
<g id="edge28_Node000015_Node000029" class="edge">
<title>Node15&#45;&gt;Node29</title>
<g id="a_edge28_Node000015_Node000029"><a xlink:title=" ">
<path fill="none" stroke="#63b8ff" d="M2504.35,-477.85C2527.84,-472.77 2555.04,-466.88 2577.32,-462.06"/>
<polygon fill="#63b8ff" stroke="#63b8ff" points="2503.57,-474.44 2494.54,-479.97 2505.05,-481.28 2503.57,-474.44"/>
</a>
</g>
</g>
<!-- Node17 -->
<g id="Node000017" class="node">
<title>Node17</title>
<g id="a_Node000017"><a xlink:href="../../d4/d2b/class_translator_adapter__1__4__6.html" target="_top" xlink:title="Adapter class for languages that only contain translations up to version 1.4.6.">
<polygon fill="white" stroke="#666666" points="2864,-647 2727,-647 2727,-628 2864,-628 2864,-647"/>
<text text-anchor="middle" x="2795.5" y="-635" font-family="Helvetica,sans-Serif" font-size="10.00">TranslatorAdapter_1_4_6</text>
</a>
</g>
</g>
<!-- Node16&#45;&gt;Node17 -->
<g id="edge16_Node000016_Node000017" class="edge">
<title>Node16&#45;&gt;Node17</title>
<g id="a_edge16_Node000016_Node000017"><a xlink:title=" ">
<path fill="none" stroke="#63b8ff" d="M2638.39,-543.85C2657.06,-564.55 2691.04,-598.83 2727,-618.5 2733.94,-622.3 2741.71,-625.39 2749.44,-627.89"/>
<polygon fill="#63b8ff" stroke="#63b8ff" points="2640.82,-541.31 2631.57,-536.14 2635.57,-545.95 2640.82,-541.31"/>
</a>
</g>
</g>
<!-- Node22 -->
<g id="Node000022" class="node">
<title>Node22</title>
<g id="a_Node000022"><a xlink:href="../../d3/d65/class_translator_afrikaans.html" target="_top" xlink:title=" ">
<polygon fill="white" stroke="#666666" points="2850.5,-610 2740.5,-610 2740.5,-591 2850.5,-591 2850.5,-610"/>
<text text-anchor="middle" x="2795.5" y="-598" font-family="Helvetica,sans-Serif" font-size="10.00">TranslatorAfrikaans</text>
</a>
</g>
</g>
<!-- Node16&#45;&gt;Node22 -->
<g id="edge21_Node000016_Node000022" class="edge">
<title>Node16&#45;&gt;Node22</title>
<g id="a_edge21_Node000016_Node000022"><a xlink:title=" ">
<path fill="none" stroke="#63b8ff" d="M2647.82,-541.34C2668.35,-553.4 2698.83,-570.2 2727,-581.5 2735.93,-585.08 2745.77,-588.26 2755.12,-590.95"/>
<polygon fill="#63b8ff" stroke="#63b8ff" points="2649.51,-538.27 2639.13,-536.17 2645.93,-544.29 2649.51,-538.27"/>
</a>
</g>
</g>
<!-- Node23 -->
<g id="Node000023" class="node">
<title>Node23</title>
<g id="a_Node000023"><a xlink:href="../../de/df7/class_translator_finnish.html" target="_top" xlink:title=" ">
<polygon fill="white" stroke="#666666" points="2845,-573 2746,-573 2746,-554 2845,-554 2845,-573"/>
<text text-anchor="middle" x="2795.5" y="-561" font-family="Helvetica,sans-Serif" font-size="10.00">TranslatorFinnish</text>
</a>
</g>
</g>
<!-- Node16&#45;&gt;Node23 -->
<g id="edge22_Node000016_Node000023" class="edge">
<title>Node16&#45;&gt;Node23</title>
<g id="a_edge22_Node000016_Node000023"><a xlink:title=" ">
<path fill="none" stroke="#63b8ff" d="M2677.35,-538.15C2700.84,-543.23 2728.04,-549.12 2750.32,-553.94"/>
<polygon fill="#63b8ff" stroke="#63b8ff" points="2678.05,-534.72 2667.54,-536.03 2676.57,-541.56 2678.05,-534.72"/>
</a>
</g>
</g>
<!-- Node24 -->
<g id="Node000024" class="node">
<title>Node24</title>
<g id="a_Node000024"><a xlink:href="../../d9/ddf/class_translator_macedonian.html" target="_top" xlink:title=" ">
<polygon fill="white" stroke="#666666" points="2857.5,-536 2733.5,-536 2733.5,-517 2857.5,-517 2857.5,-536"/>
<text text-anchor="middle" x="2795.5" y="-524" font-family="Helvetica,sans-Serif" font-size="10.00">TranslatorMacedonian</text>
</a>
</g>
</g>
<!-- Node16&#45;&gt;Node24 -->
<g id="edge23_Node000016_Node000024" class="edge">
<title>Node16&#45;&gt;Node24</title>
<g id="a_edge23_Node000016_Node000024"><a xlink:title=" ">
<path fill="none" stroke="#63b8ff" d="M2701.28,-526.5C2712,-526.5 2722.88,-526.5 2733.24,-526.5"/>
<polygon fill="#63b8ff" stroke="#63b8ff" points="2701.08,-523 2691.08,-526.5 2701.08,-530 2701.08,-523"/>
</a>
</g>
</g>
<!-- Node25 -->
<g id="Node000025" class="node">
<title>Node25</title>
<g id="a_Node000025"><a xlink:href="../../d5/d0a/class_translator_serbian.html" target="_top" xlink:title=" ">
<polygon fill="white" stroke="#666666" points="2846,-499 2745,-499 2745,-480 2846,-480 2846,-499"/>
<text text-anchor="middle" x="2795.5" y="-487" font-family="Helvetica,sans-Serif" font-size="10.00">TranslatorSerbian</text>
</a>
</g>
</g>
<!-- Node16&#45;&gt;Node25 -->
<g id="edge24_Node000016_Node000025" class="edge">
<title>Node16&#45;&gt;Node25</title>
<g id="a_edge24_Node000016_Node000025"><a xlink:title=" ">
<path fill="none" stroke="#63b8ff" d="M2677.35,-514.85C2700.84,-509.77 2728.04,-503.88 2750.32,-499.06"/>
<polygon fill="#63b8ff" stroke="#63b8ff" points="2676.57,-511.44 2667.54,-516.97 2678.05,-518.28 2676.57,-511.44"/>
</a>
</g>
</g>
<!-- Node26 -->
<g id="Node000026" class="node">
<title>Node26</title>
<g id="a_Node000026"><a xlink:href="../../dc/d03/class_translator_serbian_cyrillic.html" target="_top" xlink:title=" ">
<polygon fill="white" stroke="#666666" points="2863,-462 2728,-462 2728,-443 2863,-443 2863,-462"/>
<text text-anchor="middle" x="2795.5" y="-450" font-family="Helvetica,sans-Serif" font-size="10.00">TranslatorSerbianCyrillic</text>
</a>
</g>
</g>
<!-- Node16&#45;&gt;Node26 -->
<g id="edge25_Node000016_Node000026" class="edge">
<title>Node16&#45;&gt;Node26</title>
<g id="a_edge25_Node000016_Node000026"><a xlink:title=" ">
<path fill="none" stroke="#63b8ff" d="M2679.42,-513.32C2683.44,-511.6 2687.35,-509.67 2691,-507.5 2710.72,-495.77 2707.2,-482.1 2727,-470.5 2732.86,-467.07 2739.39,-464.28 2746.01,-462.01"/>
<polygon fill="#63b8ff" stroke="#63b8ff" points="2677.97,-510.13 2669.86,-516.95 2680.46,-516.67 2677.97,-510.13"/>
</a>
</g>
</g>
<!-- Node27 -->
<g id="Node000027" class="node">
<title>Node27</title>
<g id="a_Node000027"><a xlink:href="../../df/d20/class_translator_vietnamese.html" target="_top" xlink:title=" ">
<polygon fill="white" stroke="#666666" points="2857,-425 2734,-425 2734,-406 2857,-406 2857,-425"/>
<text text-anchor="middle" x="2795.5" y="-413" font-family="Helvetica,sans-Serif" font-size="10.00">TranslatorVietnamese</text>
</a>
</g>
</g>
<!-- Node16&#45;&gt;Node27 -->
<g id="edge26_Node000016_Node000027" class="edge">
<title>Node16&#45;&gt;Node27</title>
<g id="a_edge26_Node000016_Node000027"><a xlink:title=" ">
<path fill="none" stroke="#63b8ff" d="M2684.48,-512.18C2686.77,-510.76 2688.96,-509.21 2691,-507.5 2719.06,-484.04 2698.78,-456.76 2727,-433.5 2731.12,-430.11 2735.81,-427.35 2740.77,-425.1"/>
<polygon fill="#63b8ff" stroke="#63b8ff" points="2682.48,-509.27 2675.21,-516.97 2685.7,-515.49 2682.48,-509.27"/>
</a>
</g>
</g>
<!-- Node18 -->
<g id="Node000018" class="node">
<title>Node18</title>
<g id="a_Node000018"><a xlink:href="../../d3/de9/class_translator_arabic.html" target="_top" xlink:title=" ">
<polygon fill="white" stroke="#666666" points="3006,-702 2911,-702 2911,-683 3006,-683 3006,-702"/>
<text text-anchor="middle" x="2958.5" y="-690" font-family="Helvetica,sans-Serif" font-size="10.00">TranslatorArabic</text>
</a>
</g>
</g>
<!-- Node17&#45;&gt;Node18 -->
<g id="edge17_Node000017_Node000018" class="edge">
<title>Node17&#45;&gt;Node18</title>
<g id="a_edge17_Node000017_Node000018"><a xlink:title=" ">
<path fill="none" stroke="#63b8ff" d="M2831.94,-650.57C2851.87,-657.81 2877.25,-666.88 2900,-674.5 2908.43,-677.33 2917.6,-680.26 2926.09,-682.92"/>
<polygon fill="#63b8ff" stroke="#63b8ff" points="2832.94,-647.2 2822.35,-647.06 2830.54,-653.78 2832.94,-647.2"/>
</a>
</g>
</g>
<!-- Node19 -->
<g id="Node000019" class="node">
<title>Node19</title>
<g id="a_Node000019"><a xlink:href="../../dc/d53/class_translator_lithuanian.html" target="_top" xlink:title=" ">
<polygon fill="white" stroke="#666666" points="3016.5,-665 2900.5,-665 2900.5,-646 3016.5,-646 3016.5,-665"/>
<text text-anchor="middle" x="2958.5" y="-653" font-family="Helvetica,sans-Serif" font-size="10.00">TranslatorLithuanian</text>
</a>
</g>
</g>
<!-- Node17&#45;&gt;Node19 -->
<g id="edge18_Node000017_Node000019" class="edge">
<title>Node17&#45;&gt;Node19</title>
<g id="a_edge18_Node000017_Node000019"><a xlink:title=" ">
<path fill="none" stroke="#63b8ff" d="M2874.53,-646.22C2883.27,-647.2 2892.05,-648.18 2900.46,-649.12"/>
<polygon fill="#63b8ff" stroke="#63b8ff" points="2874.64,-642.71 2864.31,-645.08 2873.86,-649.67 2874.64,-642.71"/>
</a>
</g>
</g>
<!-- Node20 -->
<g id="Node000020" class="node">
<title>Node20</title>
<g id="a_Node000020"><a xlink:href="../../dd/d38/class_translator_norwegian.html" target="_top" xlink:title=" ">
<polygon fill="white" stroke="#666666" points="3017,-628 2900,-628 2900,-609 3017,-609 3017,-628"/>
<text text-anchor="middle" x="2958.5" y="-616" font-family="Helvetica,sans-Serif" font-size="10.00">TranslatorNorwegian</text>
</a>
</g>
</g>
<!-- Node17&#45;&gt;Node20 -->
<g id="edge19_Node000017_Node000020" class="edge">
<title>Node17&#45;&gt;Node20</title>
<g id="a_edge19_Node000017_Node000020"><a xlink:title=" ">
<path fill="none" stroke="#63b8ff" d="M2874.38,-628.31C2883,-627.29 2891.66,-626.27 2899.96,-625.29"/>
<polygon fill="#63b8ff" stroke="#63b8ff" points="2873.83,-624.85 2864.31,-629.5 2874.65,-631.8 2873.83,-624.85"/>
</a>
</g>
</g>
<!-- Node21 -->
<g id="Node000021" class="node">
<title>Node21</title>
<g id="a_Node000021"><a xlink:href="../../dd/d0b/class_translator_slovene.html" target="_top" xlink:title=" ">
<polygon fill="white" stroke="#666666" points="3010.5,-591 2906.5,-591 2906.5,-572 3010.5,-572 3010.5,-591"/>
<text text-anchor="middle" x="2958.5" y="-579" font-family="Helvetica,sans-Serif" font-size="10.00">TranslatorSlovene</text>
</a>
</g>
</g>
<!-- Node17&#45;&gt;Node21 -->
<g id="edge20_Node000017_Node000021" class="edge">
<title>Node17&#45;&gt;Node21</title>
<g id="a_edge20_Node000017_Node000021"><a xlink:title=" ">
<path fill="none" stroke="#63b8ff" d="M2845.63,-624.99C2851.88,-623.01 2858.14,-620.84 2864,-618.5 2880.8,-611.79 2883.3,-606.45 2900,-599.5 2907.44,-596.4 2915.6,-593.54 2923.38,-591.05"/>
<polygon fill="#63b8ff" stroke="#63b8ff" points="2844.44,-621.69 2835.87,-627.93 2846.46,-628.4 2844.44,-621.69"/>
</a>
</g>
</g>
</g>
</svg>

<g id="navigator" transform="translate(0 0)" fill="#404254">
  <rect fill="#f2f5e9" fill-opacity="0.5" stroke="#606060" stroke-width=".5" x="0" y="0" width="60" height="60"/>
  <use id="zoomplus" xlink:href="#zoomPlus" x="17" y="9" onmousedown="handleZoom(evt,'in')"/>
  <use id="zoomminus" xlink:href="#zoomMin" x="42" y="9" onmousedown="handleZoom(evt,'out')"/>
  <use id="reset" xlink:href="#resetDef" x="30" y="36" onmousedown="handleReset()"/>
   <use id="arrowup" xlink:href="#arrowUp" x="0" y="0" onmousedown="handlePan(0,-1)"/>
  <use id="arrowright" xlink:href="#arrowRight" x="0" y="0" onmousedown="handlePan(1,0)"/>
  <use id="arrowdown" xlink:href="#arrowDown" x="0" y="0" onmousedown="handlePan(0,1)"/>
  <use id="arrowleft" xlink:href="#arrowLeft" x="0" y="0" onmousedown="handlePan(-1,0)"/>
</g>
<svg viewBox="0 0 15 15" width="100%" height="30px" preserveAspectRatio="xMaxYMin meet">
 <g id="arrow_out" transform="scale(0.3 0.3)">
  <a xlink:href="class_translator_adapter__1__8__15__inherit__graph_org.svg" target="_base">
   <rect id="button" ry="5" rx="5" y="6" x="6" height="38" width="38"
        fill="#f2f5e9" fill-opacity="0.5" stroke="#606060" stroke-width="1.0"/>
   <path id="arrow"
     d="M 11.500037,31.436501 C 11.940474,20.09759 22.043105,11.32322 32.158766,21.979434 L 37.068811,17.246167 C 37.068811,17.246167 37.088388,32 37.088388,32 L 22.160133,31.978069 C 22.160133,31.978069 26.997745,27.140456 26.997745,27.140456 C 18.528582,18.264221 13.291696,25.230495 11.500037,31.436501 z"
     style="fill:#404040;"/>
  </a>
 </g>
</svg>

<style type='text/css'>
<![CDATA[
[data-mouse-over-selected='false'] { opacity: 0.7; }
[data-mouse-over-selected='true']  { opacity: 1.0; }
]]>
</style>
<script type="application/ecmascript"><![CDATA[
document.addEventListener('DOMContentLoaded', (event) => {
  highlightEdges();
  highlightAdjacentNodes();
});
]]></script>
</svg>
