<?xml version="1.0" encoding="UTF-8" standalone="no"?>
<!DOCTYPE svg PUBLIC "-//W3C//DTD SVG 1.1//EN"
 "http://www.w3.org/Graphics/SVG/1.1/DTD/svg11.dtd">
<!-- Generated by graphviz version 2.43.0 (0)
 -->
<!-- Title: src/growbuf.h Pages: 1 -->
<svg width="2223pt" height="192pt"
 viewBox="0.00 0.00 2223.00 192.00" xmlns="http://www.w3.org/2000/svg" xmlns:xlink="http://www.w3.org/1999/xlink">
<g id="graph0" class="graph" transform="scale(1 1) rotate(0) translate(4 188)">
<title>src/growbuf.h</title>
<!-- Node1 -->
<g id="Node000001" class="node">
<title>Node1</title>
<g id="a_Node000001"><a xlink:title=" ">
<polygon fill="#999999" stroke="#666666" points="931.5,-184 849.5,-184 849.5,-165 931.5,-165 931.5,-184"/>
<text text-anchor="middle" x="890.5" y="-172" font-family="Helvetica,sans-Serif" font-size="10.00">src/growbuf.h</text>
</a>
</g>
</g>
<!-- Node2 -->
<g id="Node000002" class="node">
<title>Node2</title>
<g id="a_Node000002"><a xlink:href="../../d5/d0b/cite_8cpp.html" target="_top" xlink:title=" ">
<polygon fill="white" stroke="#666666" points="306.5,-129 234.5,-129 234.5,-110 306.5,-110 306.5,-129"/>
<text text-anchor="middle" x="270.5" y="-117" font-family="Helvetica,sans-Serif" font-size="10.00">src/cite.cpp</text>
</a>
</g>
</g>
<!-- Node1&#45;&gt;Node2 -->
<g id="edge1_Node000001_Node000002" class="edge">
<title>Node1&#45;&gt;Node2</title>
<g id="a_edge1_Node000001_Node000002"><a xlink:title=" ">
<path fill="none" stroke="#63b8ff" d="M838.99,-171.41C738.14,-166.89 507.7,-154.51 315.5,-129 312.66,-128.62 309.73,-128.18 306.79,-127.71"/>
<polygon fill="#63b8ff" stroke="#63b8ff" points="839.06,-174.91 849.2,-171.86 839.37,-167.92 839.06,-174.91"/>
</a>
</g>
</g>
<!-- Node3 -->
<g id="Node000003" class="node">
<title>Node3</title>
<g id="a_Node000003"><a xlink:href="../../d7/d14/datetime_8cpp.html" target="_top" xlink:title=" ">
<polygon fill="white" stroke="#666666" points="422.5,-129 324.5,-129 324.5,-110 422.5,-110 422.5,-129"/>
<text text-anchor="middle" x="373.5" y="-117" font-family="Helvetica,sans-Serif" font-size="10.00">src/datetime.cpp</text>
</a>
</g>
</g>
<!-- Node1&#45;&gt;Node3 -->
<g id="edge2_Node000001_Node000003" class="edge">
<title>Node1&#45;&gt;Node3</title>
<g id="a_edge2_Node000001_Node000003"><a xlink:title=" ">
<path fill="none" stroke="#63b8ff" d="M839.13,-169.34C754.18,-162.29 579.13,-146.96 431.5,-129 428.57,-128.64 425.56,-128.26 422.53,-127.86"/>
<polygon fill="#63b8ff" stroke="#63b8ff" points="839.03,-172.85 849.28,-170.18 839.6,-165.87 839.03,-172.85"/>
</a>
</g>
</g>
<!-- Node4 -->
<g id="Node000004" class="node">
<title>Node4</title>
<g id="a_Node000004"><a xlink:href="../../da/d0d/diagram_8cpp.html" target="_top" xlink:title=" ">
<polygon fill="white" stroke="#666666" points="536,-129 441,-129 441,-110 536,-110 536,-129"/>
<text text-anchor="middle" x="488.5" y="-117" font-family="Helvetica,sans-Serif" font-size="10.00">src/diagram.cpp</text>
</a>
</g>
</g>
<!-- Node1&#45;&gt;Node4 -->
<g id="edge3_Node000001_Node000004" class="edge">
<title>Node1&#45;&gt;Node4</title>
<g id="a_edge3_Node000001_Node000004"><a xlink:title=" ">
<path fill="none" stroke="#63b8ff" d="M839.49,-167.31C771.96,-159.02 649.19,-143.67 544.5,-129 541.77,-128.62 538.97,-128.22 536.15,-127.81"/>
<polygon fill="#63b8ff" stroke="#63b8ff" points="839.1,-170.79 849.45,-168.53 839.95,-163.84 839.1,-170.79"/>
</a>
</g>
</g>
<!-- Node5 -->
<g id="Node000005" class="node">
<title>Node5</title>
<g id="a_Node000005"><a xlink:href="../../d8/d29/docbookgen_8cpp.html" target="_top" xlink:title=" ">
<polygon fill="white" stroke="#666666" points="667,-129 554,-129 554,-110 667,-110 667,-129"/>
<text text-anchor="middle" x="610.5" y="-117" font-family="Helvetica,sans-Serif" font-size="10.00">src/docbookgen.cpp</text>
</a>
</g>
</g>
<!-- Node1&#45;&gt;Node5 -->
<g id="edge4_Node000001_Node000005" class="edge">
<title>Node1&#45;&gt;Node5</title>
<g id="a_edge4_Node000001_Node000005"><a xlink:title=" ">
<path fill="none" stroke="#63b8ff" d="M839.39,-163.83C786.92,-153.89 706.05,-138.59 655.81,-129.08"/>
<polygon fill="#63b8ff" stroke="#63b8ff" points="839.01,-167.32 849.49,-165.74 840.31,-160.44 839.01,-167.32"/>
</a>
</g>
</g>
<!-- Node6 -->
<g id="Node000006" class="node">
<title>Node6</title>
<g id="a_Node000006"><a xlink:href="../../dc/d05/docbookvisitor_8cpp.html" target="_top" xlink:title=" ">
<polygon fill="white" stroke="#666666" points="810,-129 685,-129 685,-110 810,-110 810,-129"/>
<text text-anchor="middle" x="747.5" y="-117" font-family="Helvetica,sans-Serif" font-size="10.00">src/docbookvisitor.cpp</text>
</a>
</g>
</g>
<!-- Node1&#45;&gt;Node6 -->
<g id="edge5_Node000001_Node000006" class="edge">
<title>Node1&#45;&gt;Node6</title>
<g id="a_edge5_Node000001_Node000006"><a xlink:title=" ">
<path fill="none" stroke="#63b8ff" d="M857.91,-161.42C831.38,-151.59 794.57,-137.95 770.89,-129.17"/>
<polygon fill="#63b8ff" stroke="#63b8ff" points="856.93,-164.79 867.52,-164.98 859.36,-158.23 856.93,-164.79"/>
</a>
</g>
</g>
<!-- Node7 -->
<g id="Node000007" class="node">
<title>Node7</title>
<g id="a_Node000007"><a xlink:href="../../da/db0/htmldocvisitor_8cpp.html" target="_top" xlink:title=" ">
<polygon fill="white" stroke="#666666" points="952.5,-129 828.5,-129 828.5,-110 952.5,-110 952.5,-129"/>
<text text-anchor="middle" x="890.5" y="-117" font-family="Helvetica,sans-Serif" font-size="10.00">src/htmldocvisitor.cpp</text>
</a>
</g>
</g>
<!-- Node1&#45;&gt;Node7 -->
<g id="edge6_Node000001_Node000007" class="edge">
<title>Node1&#45;&gt;Node7</title>
<g id="a_edge6_Node000001_Node000007"><a xlink:title=" ">
<path fill="none" stroke="#63b8ff" d="M890.5,-154.66C890.5,-145.93 890.5,-135.99 890.5,-129.09"/>
<polygon fill="#63b8ff" stroke="#63b8ff" points="887,-154.75 890.5,-164.75 894,-154.75 887,-154.75"/>
</a>
</g>
</g>
<!-- Node8 -->
<g id="Node000008" class="node">
<title>Node8</title>
<g id="a_Node000008"><a xlink:href="../../d8/d6e/htmlgen_8cpp.html" target="_top" xlink:title=" ">
<polygon fill="white" stroke="#666666" points="95,-74 0,-74 0,-55 95,-55 95,-74"/>
<text text-anchor="middle" x="47.5" y="-62" font-family="Helvetica,sans-Serif" font-size="10.00">src/htmlgen.cpp</text>
</a>
</g>
</g>
<!-- Node1&#45;&gt;Node8 -->
<g id="edge7_Node000001_Node000008" class="edge">
<title>Node1&#45;&gt;Node8</title>
<g id="a_edge7_Node000001_Node000008"><a xlink:title=" ">
<path fill="none" stroke="#63b8ff" d="M922.33,-160.7C948.79,-148.31 979.44,-128.71 961.5,-110 928.48,-75.57 150.99,-78.59 103.5,-74 100.76,-73.74 97.95,-73.43 95.12,-73.09"/>
<polygon fill="#63b8ff" stroke="#63b8ff" points="920.57,-157.65 912.87,-164.93 923.43,-164.05 920.57,-157.65"/>
</a>
</g>
</g>
<!-- Node9 -->
<g id="Node000009" class="node">
<title>Node9</title>
<g id="a_Node000009"><a xlink:href="../../d7/d79/searchindex_8cpp.html" target="_top" xlink:title=" ">
<polygon fill="white" stroke="#666666" points="226,-74 113,-74 113,-55 226,-55 226,-74"/>
<text text-anchor="middle" x="169.5" y="-62" font-family="Helvetica,sans-Serif" font-size="10.00">src/searchindex.cpp</text>
</a>
</g>
</g>
<!-- Node1&#45;&gt;Node9 -->
<g id="edge8_Node000001_Node000009" class="edge">
<title>Node1&#45;&gt;Node9</title>
<g id="a_edge8_Node000001_Node000009"><a xlink:title=" ">
<path fill="none" stroke="#63b8ff" d="M938.42,-162.27C975.41,-151.49 1016.82,-133.4 994.5,-110 965.33,-79.41 276.6,-77.74 234.5,-74 231.78,-73.76 229,-73.49 226.19,-73.19"/>
<polygon fill="#63b8ff" stroke="#63b8ff" points="937.36,-158.94 928.66,-164.99 939.23,-165.68 937.36,-158.94"/>
</a>
</g>
</g>
<!-- Node10 -->
<g id="Node000010" class="node">
<title>Node10</title>
<g id="a_Node000010"><a xlink:href="../../de/d07/searchindex_8h.html" target="_top" xlink:title="Web server based search engine.">
<polygon fill="white" stroke="#666666" points="1148.5,-129 1046.5,-129 1046.5,-110 1148.5,-110 1148.5,-129"/>
<text text-anchor="middle" x="1097.5" y="-117" font-family="Helvetica,sans-Serif" font-size="10.00">src/searchindex.h</text>
</a>
</g>
</g>
<!-- Node1&#45;&gt;Node10 -->
<g id="edge9_Node000001_Node000010" class="edge">
<title>Node1&#45;&gt;Node10</title>
<g id="a_edge9_Node000001_Node000010"><a xlink:title=" ">
<path fill="none" stroke="#63b8ff" d="M933.71,-162.44C972.46,-152.52 1028.53,-138.16 1063.98,-129.08"/>
<polygon fill="#63b8ff" stroke="#63b8ff" points="932.58,-159.11 923.76,-164.98 934.31,-165.89 932.58,-159.11"/>
</a>
</g>
</g>
<!-- Node26 -->
<g id="Node000026" class="node">
<title>Node26</title>
<g id="a_Node000026"><a xlink:href="../../df/d2d/util_8cpp.html" target="_top" xlink:title=" ">
<polygon fill="white" stroke="#666666" points="2085.5,-74 2015.5,-74 2015.5,-55 2085.5,-55 2085.5,-74"/>
<text text-anchor="middle" x="2050.5" y="-62" font-family="Helvetica,sans-Serif" font-size="10.00">src/util.cpp</text>
</a>
</g>
</g>
<!-- Node1&#45;&gt;Node26 -->
<g id="edge32_Node000001_Node000026" class="edge">
<title>Node1&#45;&gt;Node26</title>
<g id="a_edge32_Node000001_Node000026"><a xlink:title=" ">
<path fill="none" stroke="#63b8ff" d="M942.15,-170.77C1101.34,-161.97 1598.38,-131.46 2006.5,-74 2009.43,-73.59 2012.46,-73.11 2015.49,-72.6"/>
<polygon fill="#63b8ff" stroke="#63b8ff" points="941.51,-167.3 931.71,-171.35 941.89,-174.29 941.51,-167.3"/>
</a>
</g>
</g>
<!-- Node29 -->
<g id="Node000029" class="node">
<title>Node29</title>
<g id="a_Node000029"><a xlink:href="../../d1/d86/vhdljjparser_8cpp.html" target="_top" xlink:title=" ">
<polygon fill="white" stroke="#666666" points="2215,-74 2104,-74 2104,-55 2215,-55 2215,-74"/>
<text text-anchor="middle" x="2159.5" y="-62" font-family="Helvetica,sans-Serif" font-size="10.00">src/vhdljjparser.cpp</text>
</a>
</g>
</g>
<!-- Node1&#45;&gt;Node29 -->
<g id="edge33_Node000001_Node000029" class="edge">
<title>Node1&#45;&gt;Node29</title>
<g id="a_edge33_Node000001_Node000029"><a xlink:title=" ">
<path fill="none" stroke="#63b8ff" d="M942.23,-171.35C1062.14,-166.15 1368.33,-151.63 1623.5,-129 1833.43,-110.38 1885.34,-99.89 2094.5,-74 2097.55,-73.62 2100.68,-73.23 2103.84,-72.83"/>
<polygon fill="#63b8ff" stroke="#63b8ff" points="941.73,-167.87 931.89,-171.8 942.03,-174.86 941.73,-167.87"/>
</a>
</g>
</g>
<!-- Node10&#45;&gt;Node8 -->
<g id="edge20_Node000010_Node000008" class="edge">
<title>Node10&#45;&gt;Node8</title>
<g id="a_edge20_Node000010_Node000008"><a xlink:title=" ">
<path fill="none" stroke="#63b8ff" d="M1036.15,-113.01C1022.45,-111.91 1007.99,-110.83 994.5,-110 598.92,-85.7 498.02,-111.79 103.5,-74 100.76,-73.74 97.95,-73.43 95.11,-73.09"/>
<polygon fill="#63b8ff" stroke="#63b8ff" points="1036.2,-116.53 1046.45,-113.86 1036.77,-109.55 1036.2,-116.53"/>
</a>
</g>
</g>
<!-- Node10&#45;&gt;Node9 -->
<g id="edge25_Node000010_Node000009" class="edge">
<title>Node10&#45;&gt;Node9</title>
<g id="a_edge25_Node000010_Node000009"><a xlink:title=" ">
<path fill="none" stroke="#63b8ff" d="M1036.36,-110.35C1035.06,-110.23 1033.78,-110.11 1032.5,-110 678.83,-78.95 588.17,-105.05 234.5,-74 231.78,-73.76 229,-73.49 226.19,-73.2"/>
<polygon fill="#63b8ff" stroke="#63b8ff" points="1036.14,-113.85 1046.45,-111.41 1036.87,-106.89 1036.14,-113.85"/>
</a>
</g>
</g>
<!-- Node11 -->
<g id="Node000011" class="node">
<title>Node11</title>
<g id="a_Node000011"><a xlink:href="../../de/d89/classdef_8cpp.html" target="_top" xlink:title=" ">
<polygon fill="white" stroke="#666666" points="763.5,-74 669.5,-74 669.5,-55 763.5,-55 763.5,-74"/>
<text text-anchor="middle" x="716.5" y="-62" font-family="Helvetica,sans-Serif" font-size="10.00">src/classdef.cpp</text>
</a>
</g>
</g>
<!-- Node10&#45;&gt;Node11 -->
<g id="edge10_Node000010_Node000011" class="edge">
<title>Node10&#45;&gt;Node11</title>
<g id="a_edge10_Node000010_Node000011"><a xlink:title=" ">
<path fill="none" stroke="#63b8ff" d="M1036.11,-110.37C970.74,-101.64 864.26,-87.25 772.5,-74 769.58,-73.58 766.58,-73.14 763.55,-72.69"/>
<polygon fill="#63b8ff" stroke="#63b8ff" points="1035.87,-113.86 1046.24,-111.72 1036.79,-106.93 1035.87,-113.86"/>
</a>
</g>
</g>
<!-- Node12 -->
<g id="Node000012" class="node">
<title>Node12</title>
<g id="a_Node000012"><a xlink:href="../../da/d1f/code_8l.html" target="_top" xlink:title=" ">
<polygon fill="white" stroke="#666666" points="845,-74 782,-74 782,-55 845,-55 845,-74"/>
<text text-anchor="middle" x="813.5" y="-62" font-family="Helvetica,sans-Serif" font-size="10.00">src/code.l</text>
</a>
</g>
</g>
<!-- Node10&#45;&gt;Node12 -->
<g id="edge11_Node000010_Node000012" class="edge">
<title>Node10&#45;&gt;Node12</title>
<g id="a_edge11_Node000010_Node000012"><a xlink:title=" ">
<path fill="none" stroke="#63b8ff" d="M1038.46,-108.23C988.99,-99.5 916.54,-86.44 853.5,-74 850.85,-73.48 848.11,-72.92 845.36,-72.36"/>
<polygon fill="#63b8ff" stroke="#63b8ff" points="1037.89,-111.68 1048.35,-109.97 1039.11,-104.79 1037.89,-111.68"/>
</a>
</g>
</g>
<!-- Node13 -->
<g id="Node000013" class="node">
<title>Node13</title>
<g id="a_Node000013"><a xlink:href="../../d8/d0a/conceptdef_8cpp.html" target="_top" xlink:title=" ">
<polygon fill="white" stroke="#666666" points="970,-74 863,-74 863,-55 970,-55 970,-74"/>
<text text-anchor="middle" x="916.5" y="-62" font-family="Helvetica,sans-Serif" font-size="10.00">src/conceptdef.cpp</text>
</a>
</g>
</g>
<!-- Node10&#45;&gt;Node13 -->
<g id="edge12_Node000010_Node000013" class="edge">
<title>Node10&#45;&gt;Node13</title>
<g id="a_edge12_Node000010_Node000013"><a xlink:title=" ">
<path fill="none" stroke="#63b8ff" d="M1058.42,-107.06C1024.59,-97.15 976.42,-83.04 945.81,-74.08"/>
<polygon fill="#63b8ff" stroke="#63b8ff" points="1057.84,-110.53 1068.42,-109.98 1059.81,-103.82 1057.84,-110.53"/>
</a>
</g>
</g>
<!-- Node14 -->
<g id="Node000014" class="node">
<title>Node14</title>
<g id="a_Node000014"><a xlink:href="../../df/dc9/docparser__p_8h.html" target="_top" xlink:title="Private header shared between docparser.cpp and docnode.cpp.">
<polygon fill="white" stroke="#666666" points="1090.5,-74 988.5,-74 988.5,-55 1090.5,-55 1090.5,-74"/>
<text text-anchor="middle" x="1039.5" y="-62" font-family="Helvetica,sans-Serif" font-size="10.00">src/docparser_p.h</text>
</a>
</g>
</g>
<!-- Node10&#45;&gt;Node14 -->
<g id="edge13_Node000010_Node000014" class="edge">
<title>Node10&#45;&gt;Node14</title>
<g id="a_edge13_Node000010_Node000014"><a xlink:title=" ">
<path fill="none" stroke="#63b8ff" d="M1080.59,-103.04C1070.3,-93.64 1057.53,-81.98 1048.99,-74.17"/>
<polygon fill="#63b8ff" stroke="#63b8ff" points="1078.44,-105.82 1088.18,-109.98 1083.16,-100.66 1078.44,-105.82"/>
</a>
</g>
</g>
<!-- Node17 -->
<g id="Node000017" class="node">
<title>Node17</title>
<g id="a_Node000017"><a xlink:href="../../dc/d98/doxygen_8cpp.html" target="_top" xlink:title=" ">
<polygon fill="white" stroke="#666666" points="1204.5,-74 1108.5,-74 1108.5,-55 1204.5,-55 1204.5,-74"/>
<text text-anchor="middle" x="1156.5" y="-62" font-family="Helvetica,sans-Serif" font-size="10.00">src/doxygen.cpp</text>
</a>
</g>
</g>
<!-- Node10&#45;&gt;Node17 -->
<g id="edge16_Node000010_Node000017" class="edge">
<title>Node10&#45;&gt;Node17</title>
<g id="a_edge16_Node000010_Node000017"><a xlink:title=" ">
<path fill="none" stroke="#63b8ff" d="M1114.7,-103.04C1125.17,-93.64 1138.15,-81.98 1146.85,-74.17"/>
<polygon fill="#63b8ff" stroke="#63b8ff" points="1112.08,-100.7 1106.98,-109.98 1116.76,-105.91 1112.08,-100.7"/>
</a>
</g>
</g>
<!-- Node18 -->
<g id="Node000018" class="node">
<title>Node18</title>
<g id="a_Node000018"><a xlink:href="../../d6/ddc/filedef_8cpp.html" target="_top" xlink:title=" ">
<polygon fill="white" stroke="#666666" points="1306.5,-74 1222.5,-74 1222.5,-55 1306.5,-55 1306.5,-74"/>
<text text-anchor="middle" x="1264.5" y="-62" font-family="Helvetica,sans-Serif" font-size="10.00">src/filedef.cpp</text>
</a>
</g>
</g>
<!-- Node10&#45;&gt;Node18 -->
<g id="edge17_Node000010_Node000018" class="edge">
<title>Node10&#45;&gt;Node18</title>
<g id="a_edge17_Node000010_Node000018"><a xlink:title=" ">
<path fill="none" stroke="#63b8ff" d="M1133.96,-106.93C1165.16,-97.03 1209.34,-83.01 1237.46,-74.08"/>
<polygon fill="#63b8ff" stroke="#63b8ff" points="1132.8,-103.62 1124.33,-109.98 1134.92,-110.3 1132.8,-103.62"/>
</a>
</g>
</g>
<!-- Node19 -->
<g id="Node000019" class="node">
<title>Node19</title>
<g id="a_Node000019"><a xlink:href="../../d9/d5b/fortrancode_8l.html" target="_top" xlink:title=" ">
<polygon fill="white" stroke="#666666" points="1420.5,-74 1324.5,-74 1324.5,-55 1420.5,-55 1420.5,-74"/>
<text text-anchor="middle" x="1372.5" y="-62" font-family="Helvetica,sans-Serif" font-size="10.00">src/fortrancode.l</text>
</a>
</g>
</g>
<!-- Node10&#45;&gt;Node19 -->
<g id="edge18_Node000010_Node000019" class="edge">
<title>Node10&#45;&gt;Node19</title>
<g id="a_edge18_Node000010_Node000019"><a xlink:title=" ">
<path fill="none" stroke="#63b8ff" d="M1151.64,-108.07C1203.2,-98.13 1279.86,-83.35 1327.97,-74.08"/>
<polygon fill="#63b8ff" stroke="#63b8ff" points="1150.84,-104.66 1141.68,-109.98 1152.17,-111.53 1150.84,-104.66"/>
</a>
</g>
</g>
<!-- Node20 -->
<g id="Node000020" class="node">
<title>Node20</title>
<g id="a_Node000020"><a xlink:href="../../d6/d42/groupdef_8cpp.html" target="_top" xlink:title=" ">
<polygon fill="white" stroke="#666666" points="1536,-74 1439,-74 1439,-55 1536,-55 1536,-74"/>
<text text-anchor="middle" x="1487.5" y="-62" font-family="Helvetica,sans-Serif" font-size="10.00">src/groupdef.cpp</text>
</a>
</g>
</g>
<!-- Node10&#45;&gt;Node20 -->
<g id="edge19_Node000010_Node000020" class="edge">
<title>Node10&#45;&gt;Node20</title>
<g id="a_edge19_Node000010_Node000020"><a xlink:title=" ">
<path fill="none" stroke="#63b8ff" d="M1159.04,-110.48C1225.71,-101.74 1335.2,-87.23 1429.5,-74 1432.52,-73.58 1435.63,-73.13 1438.77,-72.69"/>
<polygon fill="#63b8ff" stroke="#63b8ff" points="1158.18,-107.06 1148.71,-111.83 1159.08,-114.01 1158.18,-107.06"/>
</a>
</g>
</g>
<!-- Node21 -->
<g id="Node000021" class="node">
<title>Node21</title>
<g id="a_Node000021"><a xlink:href="../../d0/d7e/lexcode_8l.html" target="_top" xlink:title=" ">
<polygon fill="white" stroke="#666666" points="1632.5,-74 1554.5,-74 1554.5,-55 1632.5,-55 1632.5,-74"/>
<text text-anchor="middle" x="1593.5" y="-62" font-family="Helvetica,sans-Serif" font-size="10.00">src/lexcode.l</text>
</a>
</g>
</g>
<!-- Node10&#45;&gt;Node21 -->
<g id="edge21_Node000010_Node000021" class="edge">
<title>Node10&#45;&gt;Node21</title>
<g id="a_edge21_Node000010_Node000021"><a xlink:title=" ">
<path fill="none" stroke="#63b8ff" d="M1158.73,-113.82C1244.99,-106.9 1407.13,-92.73 1544.5,-74 1547.75,-73.56 1551.12,-73.06 1554.49,-72.53"/>
<polygon fill="#63b8ff" stroke="#63b8ff" points="1158.28,-110.34 1148.59,-114.63 1158.84,-117.32 1158.28,-110.34"/>
</a>
</g>
</g>
<!-- Node22 -->
<g id="Node000022" class="node">
<title>Node22</title>
<g id="a_Node000022"><a xlink:href="../../d0/d72/memberdef_8cpp.html" target="_top" xlink:title=" ">
<polygon fill="white" stroke="#666666" points="1760.5,-74 1650.5,-74 1650.5,-55 1760.5,-55 1760.5,-74"/>
<text text-anchor="middle" x="1705.5" y="-62" font-family="Helvetica,sans-Serif" font-size="10.00">src/memberdef.cpp</text>
</a>
</g>
</g>
<!-- Node10&#45;&gt;Node22 -->
<g id="edge22_Node000010_Node000022" class="edge">
<title>Node10&#45;&gt;Node22</title>
<g id="a_edge22_Node000010_Node000022"><a xlink:title=" ">
<path fill="none" stroke="#63b8ff" d="M1158.58,-114.51C1259.32,-107.71 1466.6,-92.76 1641.5,-74 1644.4,-73.69 1647.37,-73.35 1650.36,-73"/>
<polygon fill="#63b8ff" stroke="#63b8ff" points="1158.32,-111.02 1148.58,-115.18 1158.79,-118.01 1158.32,-111.02"/>
</a>
</g>
</g>
<!-- Node23 -->
<g id="Node000023" class="node">
<title>Node23</title>
<g id="a_Node000023"><a xlink:href="../../d7/d1c/namespacedef_8cpp.html" target="_top" xlink:title=" ">
<polygon fill="white" stroke="#666666" points="1904,-74 1779,-74 1779,-55 1904,-55 1904,-74"/>
<text text-anchor="middle" x="1841.5" y="-62" font-family="Helvetica,sans-Serif" font-size="10.00">src/namespacedef.cpp</text>
</a>
</g>
</g>
<!-- Node10&#45;&gt;Node23 -->
<g id="edge23_Node000010_Node000023" class="edge">
<title>Node10&#45;&gt;Node23</title>
<g id="a_edge23_Node000010_Node000023"><a xlink:title=" ">
<path fill="none" stroke="#63b8ff" d="M1158.87,-115.49C1277.16,-109.47 1544.88,-94.68 1769.5,-74 1772.51,-73.72 1775.59,-73.42 1778.69,-73.11"/>
<polygon fill="#63b8ff" stroke="#63b8ff" points="1158.38,-112.01 1148.57,-116.02 1158.74,-119 1158.38,-112.01"/>
</a>
</g>
</g>
<!-- Node24 -->
<g id="Node000024" class="node">
<title>Node24</title>
<g id="a_Node000024"><a xlink:href="../../d3/ded/pycode_8l.html" target="_top" xlink:title=" ">
<polygon fill="white" stroke="#666666" points="1997,-74 1922,-74 1922,-55 1997,-55 1997,-74"/>
<text text-anchor="middle" x="1959.5" y="-62" font-family="Helvetica,sans-Serif" font-size="10.00">src/pycode.l</text>
</a>
</g>
</g>
<!-- Node10&#45;&gt;Node24 -->
<g id="edge24_Node000010_Node000024" class="edge">
<title>Node10&#45;&gt;Node24</title>
<g id="a_edge24_Node000010_Node000024"><a xlink:title=" ">
<path fill="none" stroke="#63b8ff" d="M1158.93,-117.75C1295.09,-115.52 1632.34,-106.85 1912.5,-74 1915.55,-73.64 1918.7,-73.21 1921.85,-72.73"/>
<polygon fill="#63b8ff" stroke="#63b8ff" points="1158.65,-114.25 1148.71,-117.91 1158.76,-121.25 1158.65,-114.25"/>
</a>
</g>
</g>
<!-- Node25 -->
<g id="Node000025" class="node">
<title>Node25</title>
<g id="a_Node000025"><a xlink:href="../../d2/dda/sqlcode_8l.html" target="_top" xlink:title=" ">
<polygon fill="white" stroke="#666666" points="321,-74 244,-74 244,-55 321,-55 321,-74"/>
<text text-anchor="middle" x="282.5" y="-62" font-family="Helvetica,sans-Serif" font-size="10.00">src/sqlcode.l</text>
</a>
</g>
</g>
<!-- Node10&#45;&gt;Node25 -->
<g id="edge26_Node000010_Node000025" class="edge">
<title>Node10&#45;&gt;Node25</title>
<g id="a_edge26_Node000010_Node000025"><a xlink:title=" ">
<path fill="none" stroke="#63b8ff" d="M1036.36,-110.37C1035.06,-110.24 1033.78,-110.12 1032.5,-110 721.37,-81.72 640.91,-109.31 330.5,-74 327.47,-73.66 324.35,-73.24 321.21,-72.78"/>
<polygon fill="#63b8ff" stroke="#63b8ff" points="1036.13,-113.86 1046.45,-111.44 1036.87,-106.9 1036.13,-113.86"/>
</a>
</g>
</g>
<!-- Node10&#45;&gt;Node26 -->
<g id="edge27_Node000010_Node000026" class="edge">
<title>Node10&#45;&gt;Node26</title>
<g id="a_edge27_Node000010_Node000026"><a xlink:title=" ">
<path fill="none" stroke="#63b8ff" d="M1159.15,-118.49C1306.3,-117.82 1689.39,-112.2 2006.5,-74 2009.28,-73.67 2012.15,-73.26 2015.03,-72.8"/>
<polygon fill="#63b8ff" stroke="#63b8ff" points="1158.96,-114.99 1148.97,-118.53 1158.98,-121.99 1158.96,-114.99"/>
</a>
</g>
</g>
<!-- Node27 -->
<g id="Node000027" class="node">
<title>Node27</title>
<g id="a_Node000027"><a xlink:href="../../d5/d6a/vhdlcode_8l.html" target="_top" xlink:title=" ">
<polygon fill="white" stroke="#666666" points="423.5,-74 339.5,-74 339.5,-55 423.5,-55 423.5,-74"/>
<text text-anchor="middle" x="381.5" y="-62" font-family="Helvetica,sans-Serif" font-size="10.00">src/vhdlcode.l</text>
</a>
</g>
</g>
<!-- Node10&#45;&gt;Node27 -->
<g id="edge28_Node000010_Node000027" class="edge">
<title>Node10&#45;&gt;Node27</title>
<g id="a_edge28_Node000010_Node000027"><a xlink:title=" ">
<path fill="none" stroke="#63b8ff" d="M1036.36,-110.38C1035.06,-110.25 1033.77,-110.12 1032.5,-110 766.56,-84.66 697.96,-104 432.5,-74 429.65,-73.68 426.71,-73.3 423.75,-72.89"/>
<polygon fill="#63b8ff" stroke="#63b8ff" points="1036.12,-113.88 1046.44,-111.48 1036.88,-106.92 1036.12,-113.88"/>
</a>
</g>
</g>
<!-- Node28 -->
<g id="Node000028" class="node">
<title>Node28</title>
<g id="a_Node000028"><a xlink:href="../../de/dea/vhdldocgen_8cpp.html" target="_top" xlink:title=" ">
<polygon fill="white" stroke="#666666" points="551.5,-74 441.5,-74 441.5,-55 551.5,-55 551.5,-74"/>
<text text-anchor="middle" x="496.5" y="-62" font-family="Helvetica,sans-Serif" font-size="10.00">src/vhdldocgen.cpp</text>
</a>
</g>
</g>
<!-- Node10&#45;&gt;Node28 -->
<g id="edge29_Node000010_Node000028" class="edge">
<title>Node10&#45;&gt;Node28</title>
<g id="a_edge29_Node000010_Node000028"><a xlink:title=" ">
<path fill="none" stroke="#63b8ff" d="M1036.36,-110.41C1035.06,-110.27 1033.77,-110.13 1032.5,-110 823.23,-88.35 769.75,-95.86 560.5,-74 557.6,-73.7 554.63,-73.37 551.63,-73.02"/>
<polygon fill="#63b8ff" stroke="#63b8ff" points="1036.1,-113.9 1046.44,-111.56 1036.9,-106.95 1036.1,-113.9"/>
</a>
</g>
</g>
<!-- Node10&#45;&gt;Node29 -->
<g id="edge30_Node000010_Node000029" class="edge">
<title>Node10&#45;&gt;Node29</title>
<g id="a_edge30_Node000010_Node000029"><a xlink:title=" ">
<path fill="none" stroke="#63b8ff" d="M1159.06,-117.58C1315.56,-114.85 1741.23,-104.93 2094.5,-74 2097.56,-73.73 2100.7,-73.43 2103.86,-73.09"/>
<polygon fill="#63b8ff" stroke="#63b8ff" points="1158.64,-114.09 1148.71,-117.76 1158.76,-121.09 1158.64,-114.09"/>
</a>
</g>
</g>
<!-- Node30 -->
<g id="Node000030" class="node">
<title>Node30</title>
<g id="a_Node000030"><a xlink:href="../../dc/dc1/xmlcode_8l.html" target="_top" xlink:title=" ">
<polygon fill="white" stroke="#666666" points="651.5,-74 569.5,-74 569.5,-55 651.5,-55 651.5,-74"/>
<text text-anchor="middle" x="610.5" y="-62" font-family="Helvetica,sans-Serif" font-size="10.00">src/xmlcode.l</text>
</a>
</g>
</g>
<!-- Node10&#45;&gt;Node30 -->
<g id="edge31_Node000010_Node000030" class="edge">
<title>Node10&#45;&gt;Node30</title>
<g id="a_edge31_Node000010_Node000030"><a xlink:title=" ">
<path fill="none" stroke="#63b8ff" d="M1036.35,-110.44C1035.06,-110.29 1033.77,-110.14 1032.5,-110 867.46,-91.23 825.15,-95.93 660.5,-74 657.62,-73.62 654.65,-73.19 651.67,-72.74"/>
<polygon fill="#63b8ff" stroke="#63b8ff" points="1036.08,-113.94 1046.43,-111.66 1036.91,-106.99 1036.08,-113.94"/>
</a>
</g>
</g>
<!-- Node15 -->
<g id="Node000015" class="node">
<title>Node15</title>
<g id="a_Node000015"><a xlink:href="../../d0/d2b/docnode_8cpp.html" target="_top" xlink:title=" ">
<polygon fill="white" stroke="#666666" points="1029,-19 934,-19 934,0 1029,0 1029,-19"/>
<text text-anchor="middle" x="981.5" y="-7" font-family="Helvetica,sans-Serif" font-size="10.00">src/docnode.cpp</text>
</a>
</g>
</g>
<!-- Node14&#45;&gt;Node15 -->
<g id="edge14_Node000014_Node000015" class="edge">
<title>Node14&#45;&gt;Node15</title>
<g id="a_edge14_Node000014_Node000015"><a xlink:title=" ">
<path fill="none" stroke="#63b8ff" d="M1022.59,-48.04C1012.3,-38.64 999.53,-26.98 990.99,-19.17"/>
<polygon fill="#63b8ff" stroke="#63b8ff" points="1020.44,-50.82 1030.18,-54.98 1025.16,-45.66 1020.44,-50.82"/>
</a>
</g>
</g>
<!-- Node16 -->
<g id="Node000016" class="node">
<title>Node16</title>
<g id="a_Node000016"><a xlink:href="../../da/d17/docparser_8cpp.html" target="_top" xlink:title=" ">
<polygon fill="white" stroke="#666666" points="1148,-19 1047,-19 1047,0 1148,0 1148,-19"/>
<text text-anchor="middle" x="1097.5" y="-7" font-family="Helvetica,sans-Serif" font-size="10.00">src/docparser.cpp</text>
</a>
</g>
</g>
<!-- Node14&#45;&gt;Node16 -->
<g id="edge15_Node000014_Node000016" class="edge">
<title>Node14&#45;&gt;Node16</title>
<g id="a_edge15_Node000014_Node000016"><a xlink:title=" ">
<path fill="none" stroke="#63b8ff" d="M1056.41,-48.04C1066.7,-38.64 1079.47,-26.98 1088.01,-19.17"/>
<polygon fill="#63b8ff" stroke="#63b8ff" points="1053.84,-45.66 1048.82,-54.98 1058.56,-50.82 1053.84,-45.66"/>
</a>
</g>
</g>
</g>
</svg>
