<?xml version="1.0" encoding="UTF-8" standalone="no"?>
<!DOCTYPE svg PUBLIC "-//W3C//DTD SVG 1.1//EN"
 "http://www.w3.org/Graphics/SVG/1.1/DTD/svg11.dtd">
<!-- Generated by graphviz version 2.43.0 (0)
 -->
<!-- Title: src/image.h Pages: 1 -->
<svg width="760pt" height="247pt"
 viewBox="0.00 0.00 759.50 247.00" xmlns="http://www.w3.org/2000/svg" xmlns:xlink="http://www.w3.org/1999/xlink">
<g id="graph0" class="graph" transform="scale(1 1) rotate(0) translate(4 243)">
<title>src/image.h</title>
<!-- Node1 -->
<g id="Node000001" class="node">
<title>Node1</title>
<g id="a_Node000001"><a xlink:title=" ">
<polygon fill="#999999" stroke="#666666" points="565,-239 491,-239 491,-220 565,-220 565,-239"/>
<text text-anchor="middle" x="528" y="-227" font-family="Helvetica,sans-Serif" font-size="10.00">src/image.h</text>
</a>
</g>
</g>
<!-- Node2 -->
<g id="Node000002" class="node">
<title>Node2</title>
<g id="a_Node000002"><a xlink:title=" ">
<polygon fill="#e0e0e0" stroke="#999999" points="428,-184 370,-184 370,-165 428,-165 428,-184"/>
<text text-anchor="middle" x="399" y="-172" font-family="Helvetica,sans-Serif" font-size="10.00">memory</text>
</a>
</g>
</g>
<!-- Node1&#45;&gt;Node2 -->
<g id="edge1_Node000001_Node000002" class="edge">
<title>Node1&#45;&gt;Node2</title>
<g id="a_edge1_Node000001_Node000002"><a xlink:title=" ">
<path fill="none" stroke="#63b8ff" d="M507.27,-219.98C486.24,-211.34 453.45,-197.87 429.46,-188.02"/>
<polygon fill="#63b8ff" stroke="#63b8ff" points="430.68,-184.73 420.1,-184.17 428.02,-191.21 430.68,-184.73"/>
</a>
</g>
</g>
<!-- Node3 -->
<g id="Node000003" class="node">
<title>Node3</title>
<g id="a_Node000003"><a xlink:title=" ">
<polygon fill="#e0e0e0" stroke="#999999" points="639,-19 589,-19 589,0 639,0 639,-19"/>
<text text-anchor="middle" x="614" y="-7" font-family="Helvetica,sans-Serif" font-size="10.00">cstdint</text>
</a>
</g>
</g>
<!-- Node1&#45;&gt;Node3 -->
<g id="edge2_Node000001_Node000003" class="edge">
<title>Node1&#45;&gt;Node3</title>
<g id="a_edge2_Node000001_Node000003"><a xlink:title=" ">
<path fill="none" stroke="#63b8ff" d="M535,-219.8C552.55,-197.34 598.19,-134.91 614,-74 617.77,-59.46 617.53,-42.4 616.48,-29.63"/>
<polygon fill="#63b8ff" stroke="#63b8ff" points="619.92,-28.87 615.37,-19.3 612.96,-29.62 619.92,-28.87"/>
</a>
</g>
</g>
<!-- Node4 -->
<g id="Node000004" class="node">
<title>Node4</title>
<g id="a_Node000004"><a xlink:href="../../d9/d49/types_8h.html" target="_top" xlink:title="This file contains a number of basic enums and types.">
<polygon fill="white" stroke="#666666" points="499.5,-184 446.5,-184 446.5,-165 499.5,-165 499.5,-184"/>
<text text-anchor="middle" x="473" y="-172" font-family="Helvetica,sans-Serif" font-size="10.00">types.h</text>
</a>
</g>
</g>
<!-- Node1&#45;&gt;Node4 -->
<g id="edge3_Node000001_Node000004" class="edge">
<title>Node1&#45;&gt;Node4</title>
<g id="a_edge3_Node000001_Node000004"><a xlink:title=" ">
<path fill="none" stroke="#63b8ff" d="M518.92,-219.75C510.91,-212.03 499.04,-200.6 489.38,-191.28"/>
<polygon fill="#63b8ff" stroke="#63b8ff" points="491.54,-188.51 481.91,-184.09 486.69,-193.55 491.54,-188.51"/>
</a>
</g>
</g>
<!-- Node5 -->
<g id="Node000005" class="node">
<title>Node5</title>
<g id="a_Node000005"><a xlink:href="../../d7/d5c/qcstring_8h.html" target="_top" xlink:title=" ">
<polygon fill="white" stroke="#666666" points="419.5,-129 354.5,-129 354.5,-110 419.5,-110 419.5,-129"/>
<text text-anchor="middle" x="387" y="-117" font-family="Helvetica,sans-Serif" font-size="10.00">qcstring.h</text>
</a>
</g>
</g>
<!-- Node1&#45;&gt;Node5 -->
<g id="edge17_Node000001_Node000005" class="edge">
<title>Node1&#45;&gt;Node5</title>
<g id="a_edge17_Node000001_Node000005"><a xlink:title=" ">
<path fill="none" stroke="#63b8ff" d="M527.78,-219.91C526.98,-206.47 523.52,-180.41 509,-165 488.32,-143.06 455.95,-131.9 429.74,-126.24"/>
<polygon fill="#63b8ff" stroke="#63b8ff" points="430.16,-122.76 419.68,-124.27 428.82,-129.63 430.16,-122.76"/>
</a>
</g>
</g>
<!-- Node15 -->
<g id="Node000015" class="node">
<title>Node15</title>
<g id="a_Node000015"><a xlink:href="../../d7/dfc/construct_8h.html" target="_top" xlink:title=" ">
<polygon fill="white" stroke="#666666" points="751.5,-184 680.5,-184 680.5,-165 751.5,-165 751.5,-184"/>
<text text-anchor="middle" x="716" y="-172" font-family="Helvetica,sans-Serif" font-size="10.00">construct.h</text>
</a>
</g>
</g>
<!-- Node1&#45;&gt;Node15 -->
<g id="edge18_Node000001_Node000015" class="edge">
<title>Node1&#45;&gt;Node15</title>
<g id="a_edge18_Node000001_Node000015"><a xlink:title=" ">
<path fill="none" stroke="#63b8ff" d="M558.21,-219.98C590.04,-211.01 640.36,-196.82 675.6,-186.89"/>
<polygon fill="#63b8ff" stroke="#63b8ff" points="676.88,-190.16 685.56,-184.08 674.98,-183.43 676.88,-190.16"/>
</a>
</g>
</g>
<!-- Node4&#45;&gt;Node5 -->
<g id="edge4_Node000004_Node000005" class="edge">
<title>Node4&#45;&gt;Node5</title>
<g id="a_edge4_Node000004_Node000005"><a xlink:title=" ">
<path fill="none" stroke="#63b8ff" d="M459.18,-164.98C445.85,-156.77 425.42,-144.18 409.69,-134.49"/>
<polygon fill="#63b8ff" stroke="#63b8ff" points="411.42,-131.44 401.07,-129.17 407.75,-137.4 411.42,-131.44"/>
</a>
</g>
</g>
<!-- Node5&#45;&gt;Node3 -->
<g id="edge12_Node000005_Node000003" class="edge">
<title>Node5&#45;&gt;Node3</title>
<g id="a_edge12_Node000005_Node000003"><a xlink:title=" ">
<path fill="none" stroke="#63b8ff" d="M419.91,-115.52C471.93,-110.16 569.83,-97.23 595,-74 607.28,-62.67 611.74,-43.77 613.3,-29.52"/>
<polygon fill="#63b8ff" stroke="#63b8ff" points="616.81,-29.56 614.03,-19.34 609.83,-29.06 616.81,-29.56"/>
</a>
</g>
</g>
<!-- Node6 -->
<g id="Node000006" class="node">
<title>Node6</title>
<g id="a_Node000006"><a xlink:title=" ">
<polygon fill="#e0e0e0" stroke="#999999" points="44,-19 0,-19 0,0 44,0 44,-19"/>
<text text-anchor="middle" x="22" y="-7" font-family="Helvetica,sans-Serif" font-size="10.00">string</text>
</a>
</g>
</g>
<!-- Node5&#45;&gt;Node6 -->
<g id="edge5_Node000005_Node000006" class="edge">
<title>Node5&#45;&gt;Node6</title>
<g id="a_edge5_Node000005_Node000006"><a xlink:title=" ">
<path fill="none" stroke="#63b8ff" d="M354.41,-117.03C267.89,-112.8 37.4,-99.24 15,-74 4.21,-61.84 8.07,-42.78 13.35,-28.71"/>
<polygon fill="#63b8ff" stroke="#63b8ff" points="16.73,-29.69 17.44,-19.12 10.29,-26.95 16.73,-29.69"/>
</a>
</g>
</g>
<!-- Node7 -->
<g id="Node000007" class="node">
<title>Node7</title>
<g id="a_Node000007"><a xlink:title=" ">
<polygon fill="#e0e0e0" stroke="#999999" points="160.5,-74 87.5,-74 87.5,-55 160.5,-55 160.5,-74"/>
<text text-anchor="middle" x="124" y="-62" font-family="Helvetica,sans-Serif" font-size="10.00">string_view</text>
</a>
</g>
</g>
<!-- Node5&#45;&gt;Node7 -->
<g id="edge6_Node000005_Node000007" class="edge">
<title>Node5&#45;&gt;Node7</title>
<g id="a_edge6_Node000005_Node000007"><a xlink:title=" ">
<path fill="none" stroke="#63b8ff" d="M354.49,-111.95C308.36,-102.65 223.67,-85.58 170.79,-74.93"/>
<polygon fill="#63b8ff" stroke="#63b8ff" points="171.15,-71.43 160.66,-72.89 169.77,-78.29 171.15,-71.43"/>
</a>
</g>
</g>
<!-- Node8 -->
<g id="Node000008" class="node">
<title>Node8</title>
<g id="a_Node000008"><a xlink:title=" ">
<polygon fill="#e0e0e0" stroke="#999999" points="243,-74 179,-74 179,-55 243,-55 243,-74"/>
<text text-anchor="middle" x="211" y="-62" font-family="Helvetica,sans-Serif" font-size="10.00">algorithm</text>
</a>
</g>
</g>
<!-- Node5&#45;&gt;Node8 -->
<g id="edge7_Node000005_Node000008" class="edge">
<title>Node5&#45;&gt;Node8</title>
<g id="a_edge7_Node000005_Node000008"><a xlink:title=" ">
<path fill="none" stroke="#63b8ff" d="M358.72,-109.98C329.05,-101.05 282.21,-86.94 249.25,-77.02"/>
<polygon fill="#63b8ff" stroke="#63b8ff" points="250.08,-73.61 239.5,-74.08 248.07,-80.32 250.08,-73.61"/>
</a>
</g>
</g>
<!-- Node9 -->
<g id="Node000009" class="node">
<title>Node9</title>
<g id="a_Node000009"><a xlink:title=" ">
<polygon fill="#e0e0e0" stroke="#999999" points="310.5,-74 261.5,-74 261.5,-55 310.5,-55 310.5,-74"/>
<text text-anchor="middle" x="286" y="-62" font-family="Helvetica,sans-Serif" font-size="10.00">cctype</text>
</a>
</g>
</g>
<!-- Node5&#45;&gt;Node9 -->
<g id="edge8_Node000005_Node000009" class="edge">
<title>Node5&#45;&gt;Node9</title>
<g id="a_edge8_Node000005_Node000009"><a xlink:title=" ">
<path fill="none" stroke="#63b8ff" d="M370.77,-109.98C354.82,-101.61 330.22,-88.7 311.62,-78.95"/>
<polygon fill="#63b8ff" stroke="#63b8ff" points="313,-75.72 302.52,-74.17 309.75,-81.92 313,-75.72"/>
</a>
</g>
</g>
<!-- Node10 -->
<g id="Node000010" class="node">
<title>Node10</title>
<g id="a_Node000010"><a xlink:title=" ">
<polygon fill="#e0e0e0" stroke="#999999" points="379,-74 329,-74 329,-55 379,-55 379,-74"/>
<text text-anchor="middle" x="354" y="-62" font-family="Helvetica,sans-Serif" font-size="10.00">cstring</text>
</a>
</g>
</g>
<!-- Node5&#45;&gt;Node10 -->
<g id="edge9_Node000005_Node000010" class="edge">
<title>Node5&#45;&gt;Node10</title>
<g id="a_edge9_Node000005_Node000010"><a xlink:title=" ">
<path fill="none" stroke="#63b8ff" d="M381.55,-109.75C376.99,-102.42 370.33,-91.73 364.71,-82.7"/>
<polygon fill="#63b8ff" stroke="#63b8ff" points="367.6,-80.73 359.35,-74.09 361.66,-84.43 367.6,-80.73"/>
</a>
</g>
</g>
<!-- Node11 -->
<g id="Node000011" class="node">
<title>Node11</title>
<g id="a_Node000011"><a xlink:title=" ">
<polygon fill="#e0e0e0" stroke="#999999" points="443,-74 397,-74 397,-55 443,-55 443,-74"/>
<text text-anchor="middle" x="420" y="-62" font-family="Helvetica,sans-Serif" font-size="10.00">cstdio</text>
</a>
</g>
</g>
<!-- Node5&#45;&gt;Node11 -->
<g id="edge10_Node000005_Node000011" class="edge">
<title>Node5&#45;&gt;Node11</title>
<g id="a_edge10_Node000005_Node000011"><a xlink:title=" ">
<path fill="none" stroke="#63b8ff" d="M392.45,-109.75C397.01,-102.42 403.67,-91.73 409.29,-82.7"/>
<polygon fill="#63b8ff" stroke="#63b8ff" points="412.34,-84.43 414.65,-74.09 406.4,-80.73 412.34,-84.43"/>
</a>
</g>
</g>
<!-- Node12 -->
<g id="Node000012" class="node">
<title>Node12</title>
<g id="a_Node000012"><a xlink:title=" ">
<polygon fill="#e0e0e0" stroke="#999999" points="510.5,-74 461.5,-74 461.5,-55 510.5,-55 510.5,-74"/>
<text text-anchor="middle" x="486" y="-62" font-family="Helvetica,sans-Serif" font-size="10.00">cstdlib</text>
</a>
</g>
</g>
<!-- Node5&#45;&gt;Node12 -->
<g id="edge11_Node000005_Node000012" class="edge">
<title>Node5&#45;&gt;Node12</title>
<g id="a_edge11_Node000005_Node000012"><a xlink:title=" ">
<path fill="none" stroke="#63b8ff" d="M402.91,-109.98C418.55,-101.61 442.66,-88.7 460.88,-78.95"/>
<polygon fill="#63b8ff" stroke="#63b8ff" points="462.64,-81.98 469.8,-74.17 459.34,-75.8 462.64,-81.98"/>
</a>
</g>
</g>
<!-- Node13 -->
<g id="Node000013" class="node">
<title>Node13</title>
<g id="a_Node000013"><a xlink:title=" ">
<polygon fill="#e0e0e0" stroke="#999999" points="585.5,-74 528.5,-74 528.5,-55 585.5,-55 585.5,-74"/>
<text text-anchor="middle" x="557" y="-62" font-family="Helvetica,sans-Serif" font-size="10.00">ostream</text>
</a>
</g>
</g>
<!-- Node5&#45;&gt;Node13 -->
<g id="edge13_Node000005_Node000013" class="edge">
<title>Node5&#45;&gt;Node13</title>
<g id="a_edge13_Node000005_Node000013"><a xlink:title=" ">
<path fill="none" stroke="#63b8ff" d="M414.31,-109.98C442.85,-101.09 487.83,-87.07 519.64,-77.15"/>
<polygon fill="#63b8ff" stroke="#63b8ff" points="520.97,-80.4 529.47,-74.08 518.88,-73.72 520.97,-80.4"/>
</a>
</g>
</g>
<!-- Node14 -->
<g id="Node000014" class="node">
<title>Node14</title>
<g id="a_Node000014"><a xlink:href="../../db/d7c/utf8_8h.html" target="_top" xlink:title="Various UTF8 related helper functions.">
<polygon fill="white" stroke="#666666" points="69.5,-74 24.5,-74 24.5,-55 69.5,-55 69.5,-74"/>
<text text-anchor="middle" x="47" y="-62" font-family="Helvetica,sans-Serif" font-size="10.00">utf8.h</text>
</a>
</g>
</g>
<!-- Node5&#45;&gt;Node14 -->
<g id="edge14_Node000005_Node000014" class="edge">
<title>Node5&#45;&gt;Node14</title>
<g id="a_edge14_Node000005_Node000014"><a xlink:title=" ">
<path fill="none" stroke="#63b8ff" d="M354.29,-115.15C299.36,-109.22 184.96,-95.63 79.46,-74.09"/>
<polygon fill="#63b8ff" stroke="#63b8ff" points="80.11,-70.65 69.61,-72.05 78.69,-77.5 80.11,-70.65"/>
</a>
</g>
</g>
<!-- Node14&#45;&gt;Node3 -->
<g id="edge15_Node000014_Node000003" class="edge">
<title>Node14&#45;&gt;Node3</title>
<g id="a_edge15_Node000014_Node000003"><a xlink:title=" ">
<path fill="none" stroke="#63b8ff" d="M69.58,-56.79C72.4,-56.11 75.25,-55.49 78,-55 264.9,-21.91 492.93,-13.31 578.94,-11.17"/>
<polygon fill="#63b8ff" stroke="#63b8ff" points="579.03,-14.67 588.94,-10.94 578.86,-7.68 579.03,-14.67"/>
</a>
</g>
</g>
<!-- Node14&#45;&gt;Node6 -->
<g id="edge16_Node000014_Node000006" class="edge">
<title>Node14&#45;&gt;Node6</title>
<g id="a_edge16_Node000014_Node000006"><a xlink:title=" ">
<path fill="none" stroke="#63b8ff" d="M42.87,-54.75C39.49,-47.57 34.58,-37.18 30.38,-28.27"/>
<polygon fill="#63b8ff" stroke="#63b8ff" points="33.48,-26.64 26.05,-19.09 27.15,-29.63 33.48,-26.64"/>
</a>
</g>
</g>
</g>
</svg>
