<?xml version="1.0" encoding="UTF-8" standalone="no"?>
<!DOCTYPE svg PUBLIC "-//W3C//DTD SVG 1.1//EN"
 "http://www.w3.org/Graphics/SVG/1.1/DTD/svg11.dtd">
<!-- Generated by graphviz version 2.43.0 (0)
 -->
<!-- Title: /home/runner/work/doxygen/doxygen/src/image.h Pages: 1 -->
<svg width="556pt" height="258pt"
 viewBox="0.00 0.00 556.00 258.00" xmlns="http://www.w3.org/2000/svg" xmlns:xlink="http://www.w3.org/1999/xlink">
<g id="graph0" class="graph" transform="scale(1 1) rotate(0) translate(4 254)">
<title>/home/runner/work/doxygen/doxygen/src/image.h</title>
<!-- Node1 -->
<g id="Node000001" class="node">
<title>Node1</title>
<g id="a_Node000001"><a xlink:title=" ">
<polygon fill="#999999" stroke="#666666" points="400,-250 246,-250 246,-220 400,-220 400,-250"/>
<text text-anchor="start" x="254" y="-238" font-family="Helvetica,sans-Serif" font-size="10.00">/home/runner/work/doxygen</text>
<text text-anchor="middle" x="323" y="-227" font-family="Helvetica,sans-Serif" font-size="10.00">/doxygen/src/image.h</text>
</a>
</g>
</g>
<!-- Node2 -->
<g id="Node000002" class="node">
<title>Node2</title>
<g id="a_Node000002"><a xlink:title=" ">
<polygon fill="#e0e0e0" stroke="#999999" points="268,-184 210,-184 210,-165 268,-165 268,-184"/>
<text text-anchor="middle" x="239" y="-172" font-family="Helvetica,sans-Serif" font-size="10.00">memory</text>
</a>
</g>
</g>
<!-- Node1&#45;&gt;Node2 -->
<g id="edge1_Node000001_Node000002" class="edge">
<title>Node1&#45;&gt;Node2</title>
<g id="a_edge1_Node000001_Node000002"><a xlink:title=" ">
<path fill="none" stroke="#63b8ff" d="M302.67,-219.84C289.73,-210.83 273.01,-199.18 259.95,-190.09"/>
<polygon fill="#63b8ff" stroke="#63b8ff" points="261.79,-187.11 251.59,-184.27 257.79,-192.85 261.79,-187.11"/>
</a>
</g>
</g>
<!-- Node3 -->
<g id="Node000003" class="node">
<title>Node3</title>
<g id="a_Node000003"><a xlink:title=" ">
<polygon fill="#e0e0e0" stroke="#999999" points="548,-19 498,-19 498,0 548,0 548,-19"/>
<text text-anchor="middle" x="523" y="-7" font-family="Helvetica,sans-Serif" font-size="10.00">cstdint</text>
</a>
</g>
</g>
<!-- Node1&#45;&gt;Node3 -->
<g id="edge2_Node000001_Node000003" class="edge">
<title>Node1&#45;&gt;Node3</title>
<g id="a_edge2_Node000001_Node000003"><a xlink:title=" ">
<path fill="none" stroke="#63b8ff" d="M354.73,-219.93C401.76,-197.09 488.14,-147.03 523,-74 529.61,-60.15 529.03,-42.58 527.13,-29.44"/>
<polygon fill="#63b8ff" stroke="#63b8ff" points="530.5,-28.44 525.26,-19.23 523.62,-29.7 530.5,-28.44"/>
</a>
</g>
</g>
<!-- Node4 -->
<g id="Node000004" class="node">
<title>Node4</title>
<g id="a_Node000004"><a xlink:href="../../d9/d49/types_8h.html" target="_top" xlink:title="This file contains a number of basic enums and types.">
<polygon fill="white" stroke="#666666" points="377.5,-184 324.5,-184 324.5,-165 377.5,-165 377.5,-184"/>
<text text-anchor="middle" x="351" y="-172" font-family="Helvetica,sans-Serif" font-size="10.00">types.h</text>
</a>
</g>
</g>
<!-- Node1&#45;&gt;Node4 -->
<g id="edge3_Node000001_Node000004" class="edge">
<title>Node1&#45;&gt;Node4</title>
<g id="a_edge3_Node000001_Node000004"><a xlink:title=" ">
<path fill="none" stroke="#63b8ff" d="M329.78,-219.84C333.59,-211.87 338.39,-201.84 342.46,-193.33"/>
<polygon fill="#63b8ff" stroke="#63b8ff" points="345.64,-194.8 346.8,-184.27 339.33,-191.77 345.64,-194.8"/>
</a>
</g>
</g>
<!-- Node5 -->
<g id="Node000005" class="node">
<title>Node5</title>
<g id="a_Node000005"><a xlink:href="../../d7/d5c/qcstring_8h.html" target="_top" xlink:title=" ">
<polygon fill="white" stroke="#666666" points="328.5,-129 263.5,-129 263.5,-110 328.5,-110 328.5,-129"/>
<text text-anchor="middle" x="296" y="-117" font-family="Helvetica,sans-Serif" font-size="10.00">qcstring.h</text>
</a>
</g>
</g>
<!-- Node1&#45;&gt;Node5 -->
<g id="edge16_Node000001_Node000005" class="edge">
<title>Node1&#45;&gt;Node5</title>
<g id="a_edge16_Node000001_Node000005"><a xlink:title=" ">
<path fill="none" stroke="#63b8ff" d="M319.58,-219.63C314.72,-199.21 305.83,-161.81 300.46,-139.24"/>
<polygon fill="#63b8ff" stroke="#63b8ff" points="303.8,-138.15 298.08,-129.23 296.99,-139.77 303.8,-138.15"/>
</a>
</g>
</g>
<!-- Node4&#45;&gt;Node5 -->
<g id="edge4_Node000004_Node000005" class="edge">
<title>Node4&#45;&gt;Node5</title>
<g id="a_edge4_Node000004_Node000005"><a xlink:title=" ">
<path fill="none" stroke="#63b8ff" d="M341.92,-164.75C333.91,-157.03 322.04,-145.6 312.38,-136.28"/>
<polygon fill="#63b8ff" stroke="#63b8ff" points="314.54,-133.51 304.91,-129.09 309.69,-138.55 314.54,-133.51"/>
</a>
</g>
</g>
<!-- Node5&#45;&gt;Node3 -->
<g id="edge11_Node000005_Node000003" class="edge">
<title>Node5&#45;&gt;Node3</title>
<g id="a_edge11_Node000005_Node000003"><a xlink:title=" ">
<path fill="none" stroke="#63b8ff" d="M328.91,-115.52C380.93,-110.16 478.83,-97.23 504,-74 516.28,-62.67 520.74,-43.77 522.3,-29.52"/>
<polygon fill="#63b8ff" stroke="#63b8ff" points="525.81,-29.56 523.03,-19.34 518.83,-29.06 525.81,-29.56"/>
</a>
</g>
</g>
<!-- Node6 -->
<g id="Node000006" class="node">
<title>Node6</title>
<g id="a_Node000006"><a xlink:title=" ">
<polygon fill="#e0e0e0" stroke="#999999" points="44,-19 0,-19 0,0 44,0 44,-19"/>
<text text-anchor="middle" x="22" y="-7" font-family="Helvetica,sans-Serif" font-size="10.00">string</text>
</a>
</g>
</g>
<!-- Node5&#45;&gt;Node6 -->
<g id="edge5_Node000005_Node000006" class="edge">
<title>Node5&#45;&gt;Node6</title>
<g id="a_edge5_Node000005_Node000006"><a xlink:title=" ">
<path fill="none" stroke="#63b8ff" d="M263.39,-118.4C196.35,-117.42 46.64,-111.04 15,-74 4.44,-61.63 8.27,-42.6 13.47,-28.6"/>
<polygon fill="#63b8ff" stroke="#63b8ff" points="16.84,-29.63 17.51,-19.06 10.39,-26.91 16.84,-29.63"/>
</a>
</g>
</g>
<!-- Node7 -->
<g id="Node000007" class="node">
<title>Node7</title>
<g id="a_Node000007"><a xlink:title=" ">
<polygon fill="#e0e0e0" stroke="#999999" points="152,-74 88,-74 88,-55 152,-55 152,-74"/>
<text text-anchor="middle" x="120" y="-62" font-family="Helvetica,sans-Serif" font-size="10.00">algorithm</text>
</a>
</g>
</g>
<!-- Node5&#45;&gt;Node7 -->
<g id="edge6_Node000005_Node000007" class="edge">
<title>Node5&#45;&gt;Node7</title>
<g id="a_edge6_Node000005_Node000007"><a xlink:title=" ">
<path fill="none" stroke="#63b8ff" d="M267.72,-109.98C238.05,-101.05 191.21,-86.94 158.25,-77.02"/>
<polygon fill="#63b8ff" stroke="#63b8ff" points="159.08,-73.61 148.5,-74.08 157.07,-80.32 159.08,-73.61"/>
</a>
</g>
</g>
<!-- Node8 -->
<g id="Node000008" class="node">
<title>Node8</title>
<g id="a_Node000008"><a xlink:title=" ">
<polygon fill="#e0e0e0" stroke="#999999" points="219.5,-74 170.5,-74 170.5,-55 219.5,-55 219.5,-74"/>
<text text-anchor="middle" x="195" y="-62" font-family="Helvetica,sans-Serif" font-size="10.00">cctype</text>
</a>
</g>
</g>
<!-- Node5&#45;&gt;Node8 -->
<g id="edge7_Node000005_Node000008" class="edge">
<title>Node5&#45;&gt;Node8</title>
<g id="a_edge7_Node000005_Node000008"><a xlink:title=" ">
<path fill="none" stroke="#63b8ff" d="M279.77,-109.98C263.82,-101.61 239.22,-88.7 220.62,-78.95"/>
<polygon fill="#63b8ff" stroke="#63b8ff" points="222,-75.72 211.52,-74.17 218.75,-81.92 222,-75.72"/>
</a>
</g>
</g>
<!-- Node9 -->
<g id="Node000009" class="node">
<title>Node9</title>
<g id="a_Node000009"><a xlink:title=" ">
<polygon fill="#e0e0e0" stroke="#999999" points="288,-74 238,-74 238,-55 288,-55 288,-74"/>
<text text-anchor="middle" x="263" y="-62" font-family="Helvetica,sans-Serif" font-size="10.00">cstring</text>
</a>
</g>
</g>
<!-- Node5&#45;&gt;Node9 -->
<g id="edge8_Node000005_Node000009" class="edge">
<title>Node5&#45;&gt;Node9</title>
<g id="a_edge8_Node000005_Node000009"><a xlink:title=" ">
<path fill="none" stroke="#63b8ff" d="M290.55,-109.75C285.99,-102.42 279.33,-91.73 273.71,-82.7"/>
<polygon fill="#63b8ff" stroke="#63b8ff" points="276.6,-80.73 268.35,-74.09 270.66,-84.43 276.6,-80.73"/>
</a>
</g>
</g>
<!-- Node10 -->
<g id="Node000010" class="node">
<title>Node10</title>
<g id="a_Node000010"><a xlink:title=" ">
<polygon fill="#e0e0e0" stroke="#999999" points="352,-74 306,-74 306,-55 352,-55 352,-74"/>
<text text-anchor="middle" x="329" y="-62" font-family="Helvetica,sans-Serif" font-size="10.00">cstdio</text>
</a>
</g>
</g>
<!-- Node5&#45;&gt;Node10 -->
<g id="edge9_Node000005_Node000010" class="edge">
<title>Node5&#45;&gt;Node10</title>
<g id="a_edge9_Node000005_Node000010"><a xlink:title=" ">
<path fill="none" stroke="#63b8ff" d="M301.45,-109.75C306.01,-102.42 312.67,-91.73 318.29,-82.7"/>
<polygon fill="#63b8ff" stroke="#63b8ff" points="321.34,-84.43 323.65,-74.09 315.4,-80.73 321.34,-84.43"/>
</a>
</g>
</g>
<!-- Node11 -->
<g id="Node000011" class="node">
<title>Node11</title>
<g id="a_Node000011"><a xlink:title=" ">
<polygon fill="#e0e0e0" stroke="#999999" points="419.5,-74 370.5,-74 370.5,-55 419.5,-55 419.5,-74"/>
<text text-anchor="middle" x="395" y="-62" font-family="Helvetica,sans-Serif" font-size="10.00">cstdlib</text>
</a>
</g>
</g>
<!-- Node5&#45;&gt;Node11 -->
<g id="edge10_Node000005_Node000011" class="edge">
<title>Node5&#45;&gt;Node11</title>
<g id="a_edge10_Node000005_Node000011"><a xlink:title=" ">
<path fill="none" stroke="#63b8ff" d="M311.91,-109.98C327.55,-101.61 351.66,-88.7 369.88,-78.95"/>
<polygon fill="#63b8ff" stroke="#63b8ff" points="371.64,-81.98 378.8,-74.17 368.34,-75.8 371.64,-81.98"/>
</a>
</g>
</g>
<!-- Node12 -->
<g id="Node000012" class="node">
<title>Node12</title>
<g id="a_Node000012"><a xlink:title=" ">
<polygon fill="#e0e0e0" stroke="#999999" points="494.5,-74 437.5,-74 437.5,-55 494.5,-55 494.5,-74"/>
<text text-anchor="middle" x="466" y="-62" font-family="Helvetica,sans-Serif" font-size="10.00">ostream</text>
</a>
</g>
</g>
<!-- Node5&#45;&gt;Node12 -->
<g id="edge12_Node000005_Node000012" class="edge">
<title>Node5&#45;&gt;Node12</title>
<g id="a_edge12_Node000005_Node000012"><a xlink:title=" ">
<path fill="none" stroke="#63b8ff" d="M323.31,-109.98C351.85,-101.09 396.83,-87.07 428.64,-77.15"/>
<polygon fill="#63b8ff" stroke="#63b8ff" points="429.97,-80.4 438.47,-74.08 427.88,-73.72 429.97,-80.4"/>
</a>
</g>
</g>
<!-- Node13 -->
<g id="Node000013" class="node">
<title>Node13</title>
<g id="a_Node000013"><a xlink:href="../../db/d7c/utf8_8h.html" target="_top" xlink:title="Various UTF8 related helper functions.">
<polygon fill="white" stroke="#666666" points="69.5,-74 24.5,-74 24.5,-55 69.5,-55 69.5,-74"/>
<text text-anchor="middle" x="47" y="-62" font-family="Helvetica,sans-Serif" font-size="10.00">utf8.h</text>
</a>
</g>
</g>
<!-- Node5&#45;&gt;Node13 -->
<g id="edge13_Node000005_Node000013" class="edge">
<title>Node5&#45;&gt;Node13</title>
<g id="a_edge13_Node000005_Node000013"><a xlink:title=" ">
<path fill="none" stroke="#63b8ff" d="M263.15,-112.37C222.45,-104.65 150.76,-90.61 79.7,-74.05"/>
<polygon fill="#63b8ff" stroke="#63b8ff" points="80.22,-70.58 69.69,-71.7 78.62,-77.39 80.22,-70.58"/>
</a>
</g>
</g>
<!-- Node13&#45;&gt;Node3 -->
<g id="edge14_Node000013_Node000003" class="edge">
<title>Node13&#45;&gt;Node3</title>
<g id="a_edge14_Node000013_Node000003"><a xlink:title=" ">
<path fill="none" stroke="#63b8ff" d="M69.62,-57.01C72.76,-56.25 75.95,-55.55 79,-55 229.38,-27.67 411.69,-16.04 487.39,-12.14"/>
<polygon fill="#63b8ff" stroke="#63b8ff" points="487.96,-15.61 497.77,-11.62 487.61,-8.62 487.96,-15.61"/>
</a>
</g>
</g>
<!-- Node13&#45;&gt;Node6 -->
<g id="edge15_Node000013_Node000006" class="edge">
<title>Node13&#45;&gt;Node6</title>
<g id="a_edge15_Node000013_Node000006"><a xlink:title=" ">
<path fill="none" stroke="#63b8ff" d="M42.87,-54.75C39.49,-47.57 34.58,-37.18 30.38,-28.27"/>
<polygon fill="#63b8ff" stroke="#63b8ff" points="33.48,-26.64 26.05,-19.09 27.15,-29.63 33.48,-26.64"/>
</a>
</g>
</g>
</g>
</svg>
