<?xml version="1.0" encoding="UTF-8" standalone="no"?>
<!DOCTYPE svg PUBLIC "-//W3C//DTD SVG 1.1//EN"
 "http://www.w3.org/Graphics/SVG/1.1/DTD/svg11.dtd">
<!-- Generated by graphviz version 2.43.0 (0)
 -->
<!-- Title: scannerYY_state Pages: 1 -->
<svg width="738pt" height="371pt"
 viewBox="0.00 0.00 737.50 371.00" xmlns="http://www.w3.org/2000/svg" xmlns:xlink="http://www.w3.org/1999/xlink">
<g id="graph0" class="graph" transform="scale(1 1) rotate(0) translate(4 367)">
<title>scannerYY_state</title>
<!-- Node1 -->
<g id="Node000001" class="node">
<title>Node1</title>
<g id="a_Node000001"><a xlink:title=" ">
<polygon fill="#999999" stroke="#666666" points="381,-19 284,-19 284,0 381,0 381,-19"/>
<text text-anchor="middle" x="332.5" y="-7" font-family="Helvetica,sans-Serif" font-size="10.00">scannerYY_state</text>
</a>
</g>
</g>
<!-- Node2 -->
<g id="Node000002" class="node">
<title>Node2</title>
<g id="a_Node000002"><a xlink:href="../../d5/d79/class_outline_parser_interface.html" target="_top" xlink:title="Abstract interface for outline parsers.">
<polygon fill="white" stroke="#666666" points="125,-246 0,-246 0,-227 125,-227 125,-246"/>
<text text-anchor="middle" x="62.5" y="-234" font-family="Helvetica,sans-Serif" font-size="10.00">OutlineParserInterface</text>
</a>
</g>
</g>
<!-- Node2&#45;&gt;Node1 -->
<g id="edge1_Node000001_Node000002" class="edge">
<title>Node2&#45;&gt;Node1</title>
<g id="a_edge1_Node000001_Node000002"><a xlink:title=" ">
<path fill="none" stroke="#9a32cd" stroke-dasharray="5,2" d="M61.21,-216.38C59.66,-176.27 62.34,-83.22 115.5,-37 139.84,-15.83 227.55,-11.09 283.73,-10.3"/>
<polygon fill="#9a32cd" stroke="#9a32cd" points="57.73,-216.82 61.75,-226.62 64.72,-216.45 57.73,-216.82"/>
</a>
</g>
<text text-anchor="middle" x="141.5" y="-95" font-family="Helvetica,sans-Serif" font-size="10.00" fill="grey"> thisParser</text>
</g>
<!-- Node3 -->
<g id="Node000003" class="node">
<title>Node3</title>
<g id="a_Node000003"><a xlink:href="../../d0/d6b/class_comment_scanner.html" target="_top" xlink:title=" ">
<polygon fill="white" stroke="#666666" points="247.5,-246 143.5,-246 143.5,-227 247.5,-227 247.5,-246"/>
<text text-anchor="middle" x="195.5" y="-234" font-family="Helvetica,sans-Serif" font-size="10.00">CommentScanner</text>
</a>
</g>
</g>
<!-- Node3&#45;&gt;Node1 -->
<g id="edge2_Node000001_Node000003" class="edge">
<title>Node3&#45;&gt;Node1</title>
<g id="a_edge2_Node000001_Node000003"><a xlink:title=" ">
<path fill="none" stroke="#9a32cd" stroke-dasharray="5,2" d="M188.66,-216.82C175.85,-178.28 153.29,-89.18 196.5,-37 207.59,-23.61 249.49,-16.9 283.88,-13.58"/>
<polygon fill="#9a32cd" stroke="#9a32cd" points="185.49,-218.38 192.09,-226.67 192.1,-216.08 185.49,-218.38"/>
</a>
</g>
<text text-anchor="middle" x="241" y="-95" font-family="Helvetica,sans-Serif" font-size="10.00" fill="grey"> commentScanner</text>
</g>
<!-- Node4 -->
<g id="Node000004" class="node">
<title>Node4</title>
<g id="a_Node000004"><a xlink:href="../../d9/d45/class_q_c_string.html" target="_top" xlink:title="This is an alternative implementation of QCString.">
<polygon fill="white" stroke="#666666" points="345,-363 286,-363 286,-344 345,-344 345,-363"/>
<text text-anchor="middle" x="315.5" y="-351" font-family="Helvetica,sans-Serif" font-size="10.00">QCString</text>
</a>
</g>
</g>
<!-- Node4&#45;&gt;Node1 -->
<g id="edge3_Node000001_Node000004" class="edge">
<title>Node4&#45;&gt;Node1</title>
<g id="a_edge3_Node000001_Node000004"><a xlink:title=" ">
<path fill="none" stroke="#9a32cd" stroke-dasharray="5,2" d="M312.57,-333.97C311.02,-323.21 309.28,-309.37 308.5,-297 305.13,-243.33 304.63,-229.64 308.5,-176 312.87,-115.48 326.1,-43.47 330.81,-19.07"/>
<polygon fill="#9a32cd" stroke="#9a32cd" points="309.11,-334.52 314.07,-343.88 316.04,-333.47 309.11,-334.52"/>
</a>
</g>
<text text-anchor="middle" x="352.5" y="-289" font-family="Helvetica,sans-Serif" font-size="10.00" fill="grey"> aliasName</text>
<text text-anchor="middle" x="352.5" y="-278" font-family="Helvetica,sans-Serif" font-size="10.00" fill="grey">baseName</text>
<text text-anchor="middle" x="352.5" y="-267" font-family="Helvetica,sans-Serif" font-size="10.00" fill="grey">briefBackup</text>
<text text-anchor="middle" x="352.5" y="-256" font-family="Helvetica,sans-Serif" font-size="10.00" fill="grey">copyArgString</text>
<text text-anchor="middle" x="352.5" y="-245" font-family="Helvetica,sans-Serif" font-size="10.00" fill="grey">delimiter</text>
<text text-anchor="middle" x="352.5" y="-234" font-family="Helvetica,sans-Serif" font-size="10.00" fill="grey">docBackup</text>
<text text-anchor="middle" x="352.5" y="-223" font-family="Helvetica,sans-Serif" font-size="10.00" fill="grey">docBlockName</text>
<text text-anchor="middle" x="352.5" y="-212" font-family="Helvetica,sans-Serif" font-size="10.00" fill="grey">dummyRawString</text>
<text text-anchor="middle" x="352.5" y="-201" font-family="Helvetica,sans-Serif" font-size="10.00" fill="grey">fileName</text>
<text text-anchor="middle" x="352.5" y="-190" font-family="Helvetica,sans-Serif" font-size="10.00" fill="grey">fullArgString</text>
<text text-anchor="middle" x="352.5" y="-179" font-family="Helvetica,sans-Serif" font-size="10.00" fill="grey">...</text>
</g>
<!-- Node5 -->
<g id="Node000005" class="node">
<title>Node5</title>
<g id="a_Node000005"><a xlink:href="../../d7/df8/class_argument_list.html" target="_top" xlink:title="This class represents an function or template argument list.">
<polygon fill="white" stroke="#666666" points="487.5,-246 405.5,-246 405.5,-227 487.5,-227 487.5,-246"/>
<text text-anchor="middle" x="446.5" y="-234" font-family="Helvetica,sans-Serif" font-size="10.00">ArgumentList</text>
</a>
</g>
</g>
<!-- Node4&#45;&gt;Node5 -->
<g id="edge5_Node000005_Node000004" class="edge">
<title>Node4&#45;&gt;Node5</title>
<g id="a_edge5_Node000005_Node000004"><a xlink:title=" ">
<path fill="none" stroke="#9a32cd" stroke-dasharray="5,2" d="M337.23,-338.3C352.91,-327.66 374.27,-312.35 391.5,-297 410.2,-280.34 429.48,-258.08 439.5,-246.07"/>
<polygon fill="#9a32cd" stroke="#9a32cd" points="335.09,-335.52 328.72,-343.99 338.98,-341.34 335.09,-335.52"/>
</a>
</g>
<text text-anchor="middle" x="423.5" y="-318" font-family="Helvetica,sans-Serif" font-size="10.00" fill="grey"> m_trailingReturnType</text>
</g>
<!-- Node5&#45;&gt;Node1 -->
<g id="edge4_Node000001_Node000005" class="edge">
<title>Node5&#45;&gt;Node1</title>
<g id="a_edge4_Node000001_Node000005"><a xlink:title=" ">
<path fill="none" stroke="#9a32cd" stroke-dasharray="5,2" d="M435.13,-218.11C425.21,-202.62 410.69,-179.2 399.5,-158 372.45,-106.76 345.55,-42.48 336.07,-19.32"/>
<polygon fill="#9a32cd" stroke="#9a32cd" points="432.28,-220.14 440.65,-226.63 438.16,-216.34 432.28,-220.14"/>
</a>
</g>
<text text-anchor="middle" x="451" y="-95" font-family="Helvetica,sans-Serif" font-size="10.00" fill="grey"> currentArgumentList</text>
</g>
<!-- Node6 -->
<g id="Node000006" class="node">
<title>Node6</title>
<g id="a_Node000006"><a xlink:href="../../d3/d30/class_text_stream.html" target="_top" xlink:title="Text streaming class that buffers data.">
<polygon fill="white" stroke="#666666" points="577.5,-246 505.5,-246 505.5,-227 577.5,-227 577.5,-246"/>
<text text-anchor="middle" x="541.5" y="-234" font-family="Helvetica,sans-Serif" font-size="10.00">TextStream</text>
</a>
</g>
</g>
<!-- Node6&#45;&gt;Node1 -->
<g id="edge6_Node000001_Node000006" class="edge">
<title>Node6&#45;&gt;Node1</title>
<g id="a_edge6_Node000001_Node000006"><a xlink:title=" ">
<path fill="none" stroke="#9a32cd" stroke-dasharray="5,2" d="M537.58,-216.94C534.29,-201.25 529.5,-178.17 525.5,-158 514.85,-104.3 541.84,-75.06 502.5,-37 485.59,-20.65 425.14,-14.38 381.13,-11.99"/>
<polygon fill="#9a32cd" stroke="#9a32cd" points="534.2,-217.84 539.68,-226.91 541.05,-216.4 534.2,-217.84"/>
</a>
</g>
<text text-anchor="middle" x="580" y="-150" font-family="Helvetica,sans-Serif" font-size="10.00" fill="grey"> docBlock</text>
<text text-anchor="middle" x="580" y="-139" font-family="Helvetica,sans-Serif" font-size="10.00" fill="grey">dummyTextStream</text>
<text text-anchor="middle" x="580" y="-128" font-family="Helvetica,sans-Serif" font-size="10.00" fill="grey">pCopyCurlyGString</text>
<text text-anchor="middle" x="580" y="-117" font-family="Helvetica,sans-Serif" font-size="10.00" fill="grey">pCopyHereDocGString</text>
<text text-anchor="middle" x="580" y="-106" font-family="Helvetica,sans-Serif" font-size="10.00" fill="grey">pCopyQuotedGString</text>
<text text-anchor="middle" x="580" y="-95" font-family="Helvetica,sans-Serif" font-size="10.00" fill="grey">pCopyRawGString</text>
<text text-anchor="middle" x="580" y="-84" font-family="Helvetica,sans-Serif" font-size="10.00" fill="grey">pCopyRoundGString</text>
<text text-anchor="middle" x="580" y="-73" font-family="Helvetica,sans-Serif" font-size="10.00" fill="grey">pCopySquareGString</text>
<text text-anchor="middle" x="580" y="-62" font-family="Helvetica,sans-Serif" font-size="10.00" fill="grey">pSkipInterpString</text>
<text text-anchor="middle" x="580" y="-51" font-family="Helvetica,sans-Serif" font-size="10.00" fill="grey">pSkipInterpVerbString</text>
<text text-anchor="middle" x="580" y="-40" font-family="Helvetica,sans-Serif" font-size="10.00" fill="grey">...</text>
</g>
<!-- Node7 -->
<g id="Node000007" class="node">
<title>Node7</title>
<g id="a_Node000007"><a xlink:href="../../dd/df8/class_clang_t_u_parser.html" target="_top" xlink:title="Clang parser object for a single translation unit, which consists of a source file and the directly o...">
<polygon fill="white" stroke="#666666" points="700.5,-246 612.5,-246 612.5,-227 700.5,-227 700.5,-246"/>
<text text-anchor="middle" x="656.5" y="-234" font-family="Helvetica,sans-Serif" font-size="10.00">ClangTUParser</text>
</a>
</g>
</g>
<!-- Node7&#45;&gt;Node1 -->
<g id="edge7_Node000001_Node000007" class="edge">
<title>Node7&#45;&gt;Node1</title>
<g id="a_edge7_Node000001_Node000007"><a xlink:title=" ">
<path fill="none" stroke="#9a32cd" stroke-dasharray="5,2" d="M661.19,-216.9C669.92,-177.42 683.58,-84.97 634.5,-37 616.79,-19.69 461.82,-13.51 381.04,-11.45"/>
<polygon fill="#9a32cd" stroke="#9a32cd" points="657.76,-216.21 658.87,-226.74 664.57,-217.82 657.76,-216.21"/>
</a>
</g>
<text text-anchor="middle" x="699.5" y="-95" font-family="Helvetica,sans-Serif" font-size="10.00" fill="grey"> clangParser</text>
</g>
</g>
</svg>
