<?xml version="1.0" encoding="UTF-8" standalone="no"?>
<!DOCTYPE svg PUBLIC "-//W3C//DTD SVG 1.1//EN"
 "http://www.w3.org/Graphics/SVG/1.1/DTD/svg11.dtd">
<!-- Generated by graphviz version 2.43.0 (0)
 -->
<!-- Title: src/pagedef.h Pages: 1 -->
<svg width="2253pt" height="82pt"
 viewBox="0.00 0.00 2252.50 82.00" xmlns="http://www.w3.org/2000/svg" xmlns:xlink="http://www.w3.org/1999/xlink">
<g id="graph0" class="graph" transform="scale(1 1) rotate(0) translate(4 78)">
<title>src/pagedef.h</title>
<!-- Node1 -->
<g id="Node000001" class="node">
<title>Node1</title>
<g id="a_Node000001"><a xlink:title=" ">
<polygon fill="#999999" stroke="#666666" points="1190,-74 1108,-74 1108,-55 1190,-55 1190,-74"/>
<text text-anchor="middle" x="1149" y="-62" font-family="Helvetica,sans-Serif" font-size="10.00">src/pagedef.h</text>
</a>
</g>
</g>
<!-- Node2 -->
<g id="Node000002" class="node">
<title>Node2</title>
<g id="a_Node000002"><a xlink:href="../../d3/dea/definition_8cpp.html" target="_top" xlink:title=" ">
<polygon fill="white" stroke="#666666" points="100,-19 0,-19 0,0 100,0 100,-19"/>
<text text-anchor="middle" x="50" y="-7" font-family="Helvetica,sans-Serif" font-size="10.00">src/definition.cpp</text>
</a>
</g>
</g>
<!-- Node1&#45;&gt;Node2 -->
<g id="edge1_Node000001_Node000002" class="edge">
<title>Node1&#45;&gt;Node2</title>
<g id="a_edge1_Node000001_Node000002"><a xlink:title=" ">
<path fill="none" stroke="#63b8ff" d="M1097.38,-63.12C945.52,-61.61 487.25,-54.25 109,-19 106.11,-18.73 103.15,-18.42 100.17,-18.08"/>
<polygon fill="#63b8ff" stroke="#63b8ff" points="1097.74,-66.62 1107.78,-63.22 1097.81,-59.63 1097.74,-66.62"/>
</a>
</g>
</g>
<!-- Node3 -->
<g id="Node000003" class="node">
<title>Node3</title>
<g id="a_Node000003"><a xlink:href="../../d8/d29/docbookgen_8cpp.html" target="_top" xlink:title=" ">
<polygon fill="white" stroke="#666666" points="231.5,-19 118.5,-19 118.5,0 231.5,0 231.5,-19"/>
<text text-anchor="middle" x="175" y="-7" font-family="Helvetica,sans-Serif" font-size="10.00">src/docbookgen.cpp</text>
</a>
</g>
</g>
<!-- Node1&#45;&gt;Node3 -->
<g id="edge2_Node000001_Node000003" class="edge">
<title>Node1&#45;&gt;Node3</title>
<g id="a_edge2_Node000001_Node000003"><a xlink:title=" ">
<path fill="none" stroke="#63b8ff" d="M1097.36,-62.44C958.5,-59.27 565.54,-48.2 240,-19 237.28,-18.76 234.5,-18.48 231.69,-18.19"/>
<polygon fill="#63b8ff" stroke="#63b8ff" points="1097.62,-65.95 1107.69,-62.67 1097.78,-58.95 1097.62,-65.95"/>
</a>
</g>
</g>
<!-- Node4 -->
<g id="Node000004" class="node">
<title>Node4</title>
<g id="a_Node000004"><a xlink:href="../../d0/d2b/docnode_8cpp.html" target="_top" xlink:title=" ">
<polygon fill="white" stroke="#666666" points="344.5,-19 249.5,-19 249.5,0 344.5,0 344.5,-19"/>
<text text-anchor="middle" x="297" y="-7" font-family="Helvetica,sans-Serif" font-size="10.00">src/docnode.cpp</text>
</a>
</g>
</g>
<!-- Node1&#45;&gt;Node4 -->
<g id="edge3_Node000001_Node000004" class="edge">
<title>Node1&#45;&gt;Node4</title>
<g id="a_edge3_Node000001_Node000004"><a xlink:title=" ">
<path fill="none" stroke="#63b8ff" d="M1097.7,-62.32C971,-59.03 633.2,-48.03 353,-19 350.26,-18.72 347.45,-18.39 344.62,-18.04"/>
<polygon fill="#63b8ff" stroke="#63b8ff" points="1097.79,-65.82 1107.88,-62.58 1097.97,-58.82 1097.79,-65.82"/>
</a>
</g>
</g>
<!-- Node5 -->
<g id="Node000005" class="node">
<title>Node5</title>
<g id="a_Node000005"><a xlink:href="../../da/d17/docparser_8cpp.html" target="_top" xlink:title=" ">
<polygon fill="white" stroke="#666666" points="463.5,-19 362.5,-19 362.5,0 463.5,0 463.5,-19"/>
<text text-anchor="middle" x="413" y="-7" font-family="Helvetica,sans-Serif" font-size="10.00">src/docparser.cpp</text>
</a>
</g>
</g>
<!-- Node1&#45;&gt;Node5 -->
<g id="edge4_Node000001_Node000005" class="edge">
<title>Node1&#45;&gt;Node5</title>
<g id="a_edge4_Node000001_Node000005"><a xlink:title=" ">
<path fill="none" stroke="#63b8ff" d="M1097.58,-61.48C984.32,-56.74 704.88,-43.39 472,-19 469.32,-18.72 466.58,-18.41 463.82,-18.08"/>
<polygon fill="#63b8ff" stroke="#63b8ff" points="1097.56,-64.98 1107.69,-61.9 1097.85,-57.99 1097.56,-64.98"/>
</a>
</g>
</g>
<!-- Node6 -->
<g id="Node000006" class="node">
<title>Node6</title>
<g id="a_Node000006"><a xlink:href="../../d1/d86/dotgroupcollaboration_8cpp.html" target="_top" xlink:title=" ">
<polygon fill="white" stroke="#666666" points="642.5,-19 481.5,-19 481.5,0 642.5,0 642.5,-19"/>
<text text-anchor="middle" x="562" y="-7" font-family="Helvetica,sans-Serif" font-size="10.00">src/dotgroupcollaboration.cpp</text>
</a>
</g>
</g>
<!-- Node1&#45;&gt;Node6 -->
<g id="edge5_Node000001_Node000006" class="edge">
<title>Node1&#45;&gt;Node6</title>
<g id="a_edge5_Node000001_Node000006"><a xlink:title=" ">
<path fill="none" stroke="#63b8ff" d="M1097.53,-58.97C1007.29,-51.02 814.64,-33.96 652,-19 649.03,-18.73 646.01,-18.45 642.95,-18.16"/>
<polygon fill="#63b8ff" stroke="#63b8ff" points="1097.49,-62.48 1107.76,-59.88 1098.1,-55.51 1097.49,-62.48"/>
</a>
</g>
</g>
<!-- Node7 -->
<g id="Node000007" class="node">
<title>Node7</title>
<g id="a_Node000007"><a xlink:href="../../dc/d98/doxygen_8cpp.html" target="_top" xlink:title=" ">
<polygon fill="white" stroke="#666666" points="757,-19 661,-19 661,0 757,0 757,-19"/>
<text text-anchor="middle" x="709" y="-7" font-family="Helvetica,sans-Serif" font-size="10.00">src/doxygen.cpp</text>
</a>
</g>
</g>
<!-- Node1&#45;&gt;Node7 -->
<g id="edge6_Node000001_Node000007" class="edge">
<title>Node1&#45;&gt;Node7</title>
<g id="a_edge6_Node000001_Node000007"><a xlink:title=" ">
<path fill="none" stroke="#63b8ff" d="M1097.48,-58.05C1023.88,-50.14 884.43,-34.71 766,-19 763.12,-18.62 760.17,-18.21 757.19,-17.8"/>
<polygon fill="#63b8ff" stroke="#63b8ff" points="1097.54,-61.58 1107.85,-59.16 1098.28,-54.62 1097.54,-61.58"/>
</a>
</g>
</g>
<!-- Node8 -->
<g id="Node000008" class="node">
<title>Node8</title>
<g id="a_Node000008"><a xlink:href="../../db/d41/ftvhelp_8cpp.html" target="_top" xlink:title=" ">
<polygon fill="white" stroke="#666666" points="863,-19 775,-19 775,0 863,0 863,-19"/>
<text text-anchor="middle" x="819" y="-7" font-family="Helvetica,sans-Serif" font-size="10.00">src/ftvhelp.cpp</text>
</a>
</g>
</g>
<!-- Node1&#45;&gt;Node8 -->
<g id="edge7_Node000001_Node000008" class="edge">
<title>Node1&#45;&gt;Node8</title>
<g id="a_edge7_Node000001_Node000008"><a xlink:title=" ">
<path fill="none" stroke="#63b8ff" d="M1097.55,-55.32C1041.75,-46.43 950.04,-31.79 871,-19 868.47,-18.59 865.87,-18.17 863.25,-17.74"/>
<polygon fill="#63b8ff" stroke="#63b8ff" points="1097.12,-58.79 1107.55,-56.91 1098.22,-51.88 1097.12,-58.79"/>
</a>
</g>
</g>
<!-- Node9 -->
<g id="Node000009" class="node">
<title>Node9</title>
<g id="a_Node000009"><a xlink:href="../../d6/d42/groupdef_8cpp.html" target="_top" xlink:title=" ">
<polygon fill="white" stroke="#666666" points="977.5,-19 880.5,-19 880.5,0 977.5,0 977.5,-19"/>
<text text-anchor="middle" x="929" y="-7" font-family="Helvetica,sans-Serif" font-size="10.00">src/groupdef.cpp</text>
</a>
</g>
</g>
<!-- Node1&#45;&gt;Node9 -->
<g id="edge8_Node000001_Node000009" class="edge">
<title>Node1&#45;&gt;Node9</title>
<g id="a_edge8_Node000001_Node000009"><a xlink:title=" ">
<path fill="none" stroke="#63b8ff" d="M1103.87,-52.63C1062.66,-42.7 1002.55,-28.22 964.62,-19.08"/>
<polygon fill="#63b8ff" stroke="#63b8ff" points="1103.11,-56.05 1113.65,-54.98 1104.75,-49.24 1103.11,-56.05"/>
</a>
</g>
</g>
<!-- Node10 -->
<g id="Node000010" class="node">
<title>Node10</title>
<g id="a_Node000010"><a xlink:href="../../d8/d6e/htmlgen_8cpp.html" target="_top" xlink:title=" ">
<polygon fill="white" stroke="#666666" points="1090.5,-19 995.5,-19 995.5,0 1090.5,0 1090.5,-19"/>
<text text-anchor="middle" x="1043" y="-7" font-family="Helvetica,sans-Serif" font-size="10.00">src/htmlgen.cpp</text>
</a>
</g>
</g>
<!-- Node1&#45;&gt;Node10 -->
<g id="edge9_Node000001_Node000010" class="edge">
<title>Node1&#45;&gt;Node10</title>
<g id="a_edge9_Node000001_Node000010"><a xlink:title=" ">
<path fill="none" stroke="#63b8ff" d="M1123,-50.5C1103.5,-40.75 1077.35,-27.68 1060.34,-19.17"/>
<polygon fill="#63b8ff" stroke="#63b8ff" points="1121.46,-53.64 1131.97,-54.98 1124.59,-47.38 1121.46,-53.64"/>
</a>
</g>
</g>
<!-- Node11 -->
<g id="Node000011" class="node">
<title>Node11</title>
<g id="a_Node000011"><a xlink:href="../../db/d14/index_8cpp.html" target="_top" xlink:title="This file contains functions for the various index pages.">
<polygon fill="white" stroke="#666666" points="1189.5,-19 1108.5,-19 1108.5,0 1189.5,0 1189.5,-19"/>
<text text-anchor="middle" x="1149" y="-7" font-family="Helvetica,sans-Serif" font-size="10.00">src/index.cpp</text>
</a>
</g>
</g>
<!-- Node1&#45;&gt;Node11 -->
<g id="edge10_Node000001_Node000011" class="edge">
<title>Node1&#45;&gt;Node11</title>
<g id="a_edge10_Node000001_Node000011"><a xlink:title=" ">
<path fill="none" stroke="#63b8ff" d="M1149,-44.66C1149,-35.93 1149,-25.99 1149,-19.09"/>
<polygon fill="#63b8ff" stroke="#63b8ff" points="1145.5,-44.75 1149,-54.75 1152.5,-44.75 1145.5,-44.75"/>
</a>
</g>
</g>
<!-- Node12 -->
<g id="Node000012" class="node">
<title>Node12</title>
<g id="a_Node000012"><a xlink:href="../../d4/d42/latexgen_8cpp.html" target="_top" xlink:title=" ">
<polygon fill="white" stroke="#666666" points="1304.5,-19 1207.5,-19 1207.5,0 1304.5,0 1304.5,-19"/>
<text text-anchor="middle" x="1256" y="-7" font-family="Helvetica,sans-Serif" font-size="10.00">src/latexgen.cpp</text>
</a>
</g>
</g>
<!-- Node1&#45;&gt;Node12 -->
<g id="edge11_Node000001_Node000012" class="edge">
<title>Node1&#45;&gt;Node12</title>
<g id="a_edge11_Node000001_Node000012"><a xlink:title=" ">
<path fill="none" stroke="#63b8ff" d="M1175.24,-50.5C1194.93,-40.75 1221.32,-27.68 1238.5,-19.17"/>
<polygon fill="#63b8ff" stroke="#63b8ff" points="1173.6,-47.41 1166.19,-54.98 1176.71,-53.68 1173.6,-47.41"/>
</a>
</g>
</g>
<!-- Node13 -->
<g id="Node000013" class="node">
<title>Node13</title>
<g id="a_Node000013"><a xlink:href="../../d9/db4/pagedef_8cpp.html" target="_top" xlink:title=" ">
<polygon fill="white" stroke="#666666" points="1415.5,-19 1322.5,-19 1322.5,0 1415.5,0 1415.5,-19"/>
<text text-anchor="middle" x="1369" y="-7" font-family="Helvetica,sans-Serif" font-size="10.00">src/pagedef.cpp</text>
</a>
</g>
</g>
<!-- Node1&#45;&gt;Node13 -->
<g id="edge12_Node000001_Node000013" class="edge">
<title>Node1&#45;&gt;Node13</title>
<g id="a_edge12_Node000001_Node000013"><a xlink:title=" ">
<path fill="none" stroke="#63b8ff" d="M1194.13,-52.63C1235.34,-42.7 1295.45,-28.22 1333.38,-19.08"/>
<polygon fill="#63b8ff" stroke="#63b8ff" points="1193.25,-49.24 1184.35,-54.98 1194.89,-56.05 1193.25,-49.24"/>
</a>
</g>
</g>
<!-- Node14 -->
<g id="Node000014" class="node">
<title>Node14</title>
<g id="a_Node000014"><a xlink:href="../../de/dd0/perlmodgen_8cpp.html" target="_top" xlink:title=" ">
<polygon fill="white" stroke="#666666" points="1546.5,-19 1433.5,-19 1433.5,0 1546.5,0 1546.5,-19"/>
<text text-anchor="middle" x="1490" y="-7" font-family="Helvetica,sans-Serif" font-size="10.00">src/perlmodgen.cpp</text>
</a>
</g>
</g>
<!-- Node1&#45;&gt;Node14 -->
<g id="edge13_Node000001_Node000014" class="edge">
<title>Node1&#45;&gt;Node14</title>
<g id="a_edge13_Node000001_Node000014"><a xlink:title=" ">
<path fill="none" stroke="#63b8ff" d="M1200.27,-55.53C1263.46,-45.71 1370.43,-29.08 1435.2,-19.02"/>
<polygon fill="#63b8ff" stroke="#63b8ff" points="1199.48,-52.11 1190.13,-57.11 1200.55,-59.03 1199.48,-52.11"/>
</a>
</g>
</g>
<!-- Node15 -->
<g id="Node000015" class="node">
<title>Node15</title>
<g id="a_Node000015"><a xlink:href="../../d0/d9c/rtfgen_8cpp.html" target="_top" xlink:title=" ">
<polygon fill="white" stroke="#666666" points="1647.5,-19 1564.5,-19 1564.5,0 1647.5,0 1647.5,-19"/>
<text text-anchor="middle" x="1606" y="-7" font-family="Helvetica,sans-Serif" font-size="10.00">src/rtfgen.cpp</text>
</a>
</g>
</g>
<!-- Node1&#45;&gt;Node15 -->
<g id="edge14_Node000001_Node000015" class="edge">
<title>Node1&#45;&gt;Node15</title>
<g id="a_edge14_Node000001_Node000015"><a xlink:title=" ">
<path fill="none" stroke="#63b8ff" d="M1200.54,-58.86C1277.9,-51.66 1428.59,-36.78 1556,-19 1558.7,-18.62 1561.49,-18.21 1564.29,-17.78"/>
<polygon fill="#63b8ff" stroke="#63b8ff" points="1199.75,-55.41 1190.12,-59.82 1200.4,-62.38 1199.75,-55.41"/>
</a>
</g>
</g>
<!-- Node16 -->
<g id="Node000016" class="node">
<title>Node16</title>
<g id="a_Node000016"><a xlink:href="../../d7/d79/searchindex_8cpp.html" target="_top" xlink:title=" ">
<polygon fill="white" stroke="#666666" points="1778.5,-19 1665.5,-19 1665.5,0 1778.5,0 1778.5,-19"/>
<text text-anchor="middle" x="1722" y="-7" font-family="Helvetica,sans-Serif" font-size="10.00">src/searchindex.cpp</text>
</a>
</g>
</g>
<!-- Node1&#45;&gt;Node16 -->
<g id="edge15_Node000001_Node000016" class="edge">
<title>Node1&#45;&gt;Node16</title>
<g id="a_edge15_Node000001_Node000016"><a xlink:title=" ">
<path fill="none" stroke="#63b8ff" d="M1200.34,-59.73C1292.1,-52.83 1490.27,-37.2 1657,-19 1659.72,-18.7 1662.49,-18.39 1665.3,-18.06"/>
<polygon fill="#63b8ff" stroke="#63b8ff" points="1199.92,-56.25 1190.21,-60.49 1200.45,-63.23 1199.92,-56.25"/>
</a>
</g>
</g>
<!-- Node17 -->
<g id="Node000017" class="node">
<title>Node17</title>
<g id="a_Node000017"><a xlink:href="../../d9/d2f/searchindex__js_8cpp.html" target="_top" xlink:title=" ">
<polygon fill="white" stroke="#666666" points="1923.5,-19 1796.5,-19 1796.5,0 1923.5,0 1923.5,-19"/>
<text text-anchor="middle" x="1860" y="-7" font-family="Helvetica,sans-Serif" font-size="10.00">src/searchindex_js.cpp</text>
</a>
</g>
</g>
<!-- Node1&#45;&gt;Node17 -->
<g id="edge16_Node000001_Node000017" class="edge">
<title>Node1&#45;&gt;Node17</title>
<g id="a_edge16_Node000001_Node000017"><a xlink:title=" ">
<path fill="none" stroke="#63b8ff" d="M1200.19,-60.77C1308.69,-54.8 1569.73,-39.47 1788,-19 1790.76,-18.74 1793.57,-18.46 1796.41,-18.17"/>
<polygon fill="#63b8ff" stroke="#63b8ff" points="1199.97,-57.28 1190.17,-61.32 1200.35,-64.27 1199.97,-57.28"/>
</a>
</g>
</g>
<!-- Node18 -->
<g id="Node000018" class="node">
<title>Node18</title>
<g id="a_Node000018"><a xlink:href="../../d8/df8/sqlite3gen_8cpp.html" target="_top" xlink:title=" ">
<polygon fill="white" stroke="#666666" points="2046.5,-19 1941.5,-19 1941.5,0 2046.5,0 2046.5,-19"/>
<text text-anchor="middle" x="1994" y="-7" font-family="Helvetica,sans-Serif" font-size="10.00">src/sqlite3gen.cpp</text>
</a>
</g>
</g>
<!-- Node1&#45;&gt;Node18 -->
<g id="edge17_Node000001_Node000018" class="edge">
<title>Node1&#45;&gt;Node18</title>
<g id="a_edge17_Node000001_Node000018"><a xlink:title=" ">
<path fill="none" stroke="#63b8ff" d="M1200.4,-62.04C1325.84,-58.15 1657.51,-45.97 1933,-19 1935.77,-18.73 1938.6,-18.43 1941.46,-18.1"/>
<polygon fill="#63b8ff" stroke="#63b8ff" points="1200.21,-58.54 1190.32,-62.35 1200.42,-65.54 1200.21,-58.54"/>
</a>
</g>
</g>
<!-- Node19 -->
<g id="Node000019" class="node">
<title>Node19</title>
<g id="a_Node000019"><a xlink:href="../../df/d2d/util_8cpp.html" target="_top" xlink:title=" ">
<polygon fill="white" stroke="#666666" points="2135,-19 2065,-19 2065,0 2135,0 2135,-19"/>
<text text-anchor="middle" x="2100" y="-7" font-family="Helvetica,sans-Serif" font-size="10.00">src/util.cpp</text>
</a>
</g>
</g>
<!-- Node1&#45;&gt;Node19 -->
<g id="edge18_Node000001_Node000019" class="edge">
<title>Node1&#45;&gt;Node19</title>
<g id="a_edge18_Node000001_Node000019"><a xlink:title=" ">
<path fill="none" stroke="#63b8ff" d="M1200.64,-63.52C1339.48,-63.03 1732.22,-58.02 2056,-19 2058.78,-18.66 2061.65,-18.26 2064.53,-17.8"/>
<polygon fill="#63b8ff" stroke="#63b8ff" points="1200.3,-60.02 1190.31,-63.55 1200.32,-67.02 1200.3,-60.02"/>
</a>
</g>
</g>
<!-- Node20 -->
<g id="Node000020" class="node">
<title>Node20</title>
<g id="a_Node000020"><a xlink:href="../../d0/dc3/xmlgen_8cpp.html" target="_top" xlink:title=" ">
<polygon fill="white" stroke="#666666" points="2244.5,-19 2153.5,-19 2153.5,0 2244.5,0 2244.5,-19"/>
<text text-anchor="middle" x="2199" y="-7" font-family="Helvetica,sans-Serif" font-size="10.00">src/xmlgen.cpp</text>
</a>
</g>
</g>
<!-- Node1&#45;&gt;Node20 -->
<g id="edge19_Node000001_Node000020" class="edge">
<title>Node1&#45;&gt;Node20</title>
<g id="a_edge19_Node000001_Node000020"><a xlink:title=" ">
<path fill="none" stroke="#63b8ff" d="M1200.45,-63.17C1347.81,-61.79 1783.98,-54.76 2144,-19 2147.08,-18.69 2150.24,-18.33 2153.43,-17.93"/>
<polygon fill="#63b8ff" stroke="#63b8ff" points="1200.31,-59.67 1190.34,-63.26 1200.38,-66.67 1200.31,-59.67"/>
</a>
</g>
</g>
</g>
</svg>
