<?xml version="1.0" encoding="UTF-8" standalone="no"?>
<!DOCTYPE svg PUBLIC "-//W3C//DTD SVG 1.1//EN"
 "http://www.w3.org/Graphics/SVG/1.1/DTD/svg11.dtd">
<!-- Generated by graphviz version 2.43.0 (0)
 -->
<!-- Title: ConfigList Pages: 1 -->
<svg width="133pt" height="204pt"
 viewBox="0.00 0.00 133.00 204.00" xmlns="http://www.w3.org/2000/svg" xmlns:xlink="http://www.w3.org/1999/xlink">
<g id="graph0" class="graph" transform="scale(1 1) rotate(0) translate(4 200)">
<title>ConfigList</title>
<!-- Node1 -->
<g id="Node000001" class="node">
<title>Node1</title>
<g id="a_Node000001"><a xlink:title="Class representing a list type option.">
<polygon fill="#999999" stroke="#666666" points="72.5,-19 7.5,-19 7.5,0 72.5,0 72.5,-19"/>
<text text-anchor="middle" x="40" y="-7" font-family="Helvetica,sans-Serif" font-size="10.00">ConfigList</text>
</a>
</g>
</g>
<!-- Node2 -->
<g id="Node000002" class="node">
<title>Node2</title>
<g id="a_Node000002"><a xlink:href="../../d2/dd3/class_config_option.html" target="_top" xlink:title="Abstract base class for any configuration option.">
<polygon fill="white" stroke="#666666" points="80,-75 0,-75 0,-56 80,-56 80,-75"/>
<text text-anchor="middle" x="40" y="-63" font-family="Helvetica,sans-Serif" font-size="10.00">ConfigOption</text>
</a>
</g>
</g>
<!-- Node2&#45;&gt;Node1 -->
<g id="edge1_Node000001_Node000002" class="edge">
<title>Node2&#45;&gt;Node1</title>
<g id="a_edge1_Node000001_Node000002"><a xlink:title=" ">
<path fill="none" stroke="#63b8ff" d="M40,-45.3C40,-36.41 40,-26.28 40,-19.25"/>
<polygon fill="#63b8ff" stroke="#63b8ff" points="36.5,-45.58 40,-55.58 43.5,-45.58 36.5,-45.58"/>
</a>
</g>
</g>
<!-- Node3 -->
<g id="Node000003" class="node">
<title>Node3</title>
<g id="a_Node000003"><a xlink:href="../../d9/d45/class_q_c_string.html" target="_top" xlink:title="This is an alternative implementation of QCString.">
<polygon fill="white" stroke="#666666" points="69.5,-196 10.5,-196 10.5,-177 69.5,-177 69.5,-196"/>
<text text-anchor="middle" x="40" y="-184" font-family="Helvetica,sans-Serif" font-size="10.00">QCString</text>
</a>
</g>
</g>
<!-- Node3&#45;&gt;Node2 -->
<g id="edge2_Node000002_Node000003" class="edge">
<title>Node3&#45;&gt;Node2</title>
<g id="a_edge2_Node000002_Node000003"><a xlink:title=" ">
<path fill="none" stroke="#9a32cd" stroke-dasharray="5,2" d="M40,-166.86C40,-140.81 40,-94.56 40,-75.3"/>
<polygon fill="#9a32cd" stroke="#9a32cd" points="36.5,-166.94 40,-176.94 43.5,-166.94 36.5,-166.94"/>
</a>
</g>
<text text-anchor="middle" x="82.5" y="-151" font-family="Helvetica,sans-Serif" font-size="10.00" fill="grey"> m_dependency</text>
<text text-anchor="middle" x="82.5" y="-140" font-family="Helvetica,sans-Serif" font-size="10.00" fill="grey">m_doc</text>
<text text-anchor="middle" x="82.5" y="-129" font-family="Helvetica,sans-Serif" font-size="10.00" fill="grey">m_encoding</text>
<text text-anchor="middle" x="82.5" y="-118" font-family="Helvetica,sans-Serif" font-size="10.00" fill="grey">m_name</text>
<text text-anchor="middle" x="82.5" y="-107" font-family="Helvetica,sans-Serif" font-size="10.00" fill="grey">m_spaces</text>
<text text-anchor="middle" x="82.5" y="-96" font-family="Helvetica,sans-Serif" font-size="10.00" fill="grey">m_userComment</text>
</g>
</g>
</svg>
