<?xml version="1.0" encoding="UTF-8" standalone="no"?>
<!DOCTYPE svg PUBLIC "-//W3C//DTD SVG 1.1//EN"
 "http://www.w3.org/Graphics/SVG/1.1/DTD/svg11.dtd">
<!-- Generated by graphviz version 2.43.0 (0)
 -->
<!-- Title: DocSymbol Pages: 1 -->
<svg width="1275pt" height="410pt"
 viewBox="0.00 0.00 1275.00 410.00" xmlns="http://www.w3.org/2000/svg" xmlns:xlink="http://www.w3.org/1999/xlink">
<g id="graph0" class="graph" transform="scale(1 1) rotate(0) translate(4 406)">
<title>DocSymbol</title>
<!-- Node1 -->
<g id="Node000001" class="node">
<title>Node1</title>
<g id="a_Node000001"><a xlink:title="Node representing a special symbol.">
<polygon fill="#999999" stroke="#666666" points="1267,-249.5 1195,-249.5 1195,-230.5 1267,-230.5 1267,-249.5"/>
<text text-anchor="middle" x="1231" y="-237.5" font-family="Helvetica,sans-Serif" font-size="10.00">DocSymbol</text>
</a>
</g>
</g>
<!-- Node2 -->
<g id="Node000002" class="node">
<title>Node2</title>
<g id="a_Node000002"><a xlink:href="../../d9/d0e/class_doc_node.html" target="_top" xlink:title="Abstract node interface with type information.">
<polygon fill="white" stroke="#666666" points="1158,-249.5 1097,-249.5 1097,-230.5 1158,-230.5 1158,-249.5"/>
<text text-anchor="middle" x="1127.5" y="-237.5" font-family="Helvetica,sans-Serif" font-size="10.00">DocNode</text>
</a>
</g>
</g>
<!-- Node2&#45;&gt;Node1 -->
<g id="edge1_Node000001_Node000002" class="edge">
<title>Node2&#45;&gt;Node1</title>
<g id="a_edge1_Node000001_Node000002"><a xlink:title=" ">
<path fill="none" stroke="#63b8ff" d="M1168.16,-240C1176.94,-240 1186.18,-240 1194.77,-240"/>
<polygon fill="#63b8ff" stroke="#63b8ff" points="1168.13,-236.5 1158.13,-240 1168.13,-243.5 1168.13,-236.5"/>
</a>
</g>
</g>
<!-- Node3 -->
<g id="Node000003" class="node">
<title>Node3</title>
<g id="a_Node000003"><a xlink:href="../../da/d02/class_doc_parser.html" target="_top" xlink:title=" ">
<polygon fill="white" stroke="#666666" points="1012,-249.5 947,-249.5 947,-230.5 1012,-230.5 1012,-249.5"/>
<text text-anchor="middle" x="979.5" y="-237.5" font-family="Helvetica,sans-Serif" font-size="10.00">DocParser</text>
</a>
</g>
</g>
<!-- Node3&#45;&gt;Node2 -->
<g id="edge2_Node000002_Node000003" class="edge">
<title>Node3&#45;&gt;Node2</title>
<g id="a_edge2_Node000002_Node000003"><a xlink:title=" ">
<path fill="none" stroke="#9a32cd" stroke-dasharray="5,2" d="M1022.35,-240C1046.17,-240 1075.44,-240 1096.87,-240"/>
<polygon fill="#9a32cd" stroke="#9a32cd" points="1022.18,-236.5 1012.18,-240 1022.18,-243.5 1022.18,-236.5"/>
</a>
</g>
<text text-anchor="middle" x="1054.5" y="-243" font-family="Helvetica,sans-Serif" font-size="10.00" fill="grey"> m_parser</text>
</g>
<!-- Node4 -->
<g id="Node000004" class="node">
<title>Node4</title>
<g id="a_Node000004"><a xlink:href="../../de/dad/class_i_doc_parser.html" target="_top" xlink:title="opaque parser interface">
<polygon fill="white" stroke="#666666" points="844,-286.5 776,-286.5 776,-267.5 844,-267.5 844,-286.5"/>
<text text-anchor="middle" x="810" y="-274.5" font-family="Helvetica,sans-Serif" font-size="10.00">IDocParser</text>
</a>
</g>
</g>
<!-- Node4&#45;&gt;Node3 -->
<g id="edge3_Node000003_Node000004" class="edge">
<title>Node4&#45;&gt;Node3</title>
<g id="a_edge3_Node000003_Node000004"><a xlink:title=" ">
<path fill="none" stroke="#63b8ff" d="M853.93,-270.16C876.42,-266.29 904.33,-261.02 929,-255 935.46,-253.43 942.32,-251.51 948.81,-249.58"/>
<polygon fill="#63b8ff" stroke="#63b8ff" points="853.29,-266.72 844.01,-271.84 854.46,-273.63 853.29,-266.72"/>
</a>
</g>
</g>
<!-- Node5 -->
<g id="Node000005" class="node">
<title>Node5</title>
<g id="a_Node000005"><a xlink:href="../../d8/d7d/struct_doc_parser_context.html" target="_top" xlink:title="Parser&#39;s context to store all global variables.">
<polygon fill="white" stroke="#666666" points="862,-249.5 758,-249.5 758,-230.5 862,-230.5 862,-249.5"/>
<text text-anchor="middle" x="810" y="-237.5" font-family="Helvetica,sans-Serif" font-size="10.00">DocParserContext</text>
</a>
</g>
</g>
<!-- Node5&#45;&gt;Node3 -->
<g id="edge4_Node000003_Node000005" class="edge">
<title>Node5&#45;&gt;Node3</title>
<g id="a_edge4_Node000003_Node000005"><a xlink:title=" ">
<path fill="none" stroke="#9a32cd" stroke-dasharray="5,2" d="M872.42,-240C897.68,-240 925.88,-240 946.84,-240"/>
<polygon fill="#9a32cd" stroke="#9a32cd" points="872.17,-236.5 862.17,-240 872.17,-243.5 872.17,-236.5"/>
</a>
</g>
<text text-anchor="middle" x="904.5" y="-243" font-family="Helvetica,sans-Serif" font-size="10.00" fill="grey"> context</text>
</g>
<!-- Node6 -->
<g id="Node000006" class="node">
<title>Node6</title>
<g id="a_Node000006"><a xlink:href="../../d5/dcc/class_definition.html" target="_top" xlink:title="The common base class of all entity definitions found in the sources.">
<polygon fill="white" stroke="#666666" points="292.5,-398.5 228.5,-398.5 228.5,-379.5 292.5,-379.5 292.5,-398.5"/>
<text text-anchor="middle" x="260.5" y="-386.5" font-family="Helvetica,sans-Serif" font-size="10.00">Definition</text>
</a>
</g>
</g>
<!-- Node6&#45;&gt;Node5 -->
<g id="edge5_Node000005_Node000006" class="edge">
<title>Node6&#45;&gt;Node5</title>
<g id="a_edge5_Node000005_Node000006"><a xlink:title=" ">
<path fill="none" stroke="#9a32cd" stroke-dasharray="5,2" d="M302.99,-392.24C373.15,-396.67 519.28,-401.31 639,-375 685.84,-364.7 708.42,-373.09 740,-337 763.43,-310.23 734.53,-285.74 758,-259 761.43,-255.09 765.74,-251.99 770.39,-249.52"/>
<polygon fill="#9a32cd" stroke="#9a32cd" points="303.01,-388.74 292.8,-391.57 302.55,-395.72 303.01,-388.74"/>
</a>
</g>
<text text-anchor="middle" x="579.5" y="-394" font-family="Helvetica,sans-Serif" font-size="10.00" fill="grey"> scope</text>
</g>
<!-- Node12 -->
<g id="Node000012" class="node">
<title>Node12</title>
<g id="a_Node000012"><a xlink:href="../../da/d09/class_member_def.html" target="_top" xlink:title="A model of a class/file/namespace member symbol.">
<polygon fill="white" stroke="#666666" points="616.5,-365.5 542.5,-365.5 542.5,-346.5 616.5,-346.5 616.5,-365.5"/>
<text text-anchor="middle" x="579.5" y="-353.5" font-family="Helvetica,sans-Serif" font-size="10.00">MemberDef</text>
</a>
</g>
</g>
<!-- Node6&#45;&gt;Node12 -->
<g id="edge12_Node000012_Node000006" class="edge">
<title>Node6&#45;&gt;Node12</title>
<g id="a_edge12_Node000012_Node000006"><a xlink:title=" ">
<path fill="none" stroke="#63b8ff" d="M303.04,-384.68C365.57,-378.17 482.84,-365.96 542.16,-359.78"/>
<polygon fill="#63b8ff" stroke="#63b8ff" points="302.35,-381.23 292.76,-385.75 303.07,-388.19 302.35,-381.23"/>
</a>
</g>
</g>
<!-- Node7 -->
<g id="Node000007" class="node">
<title>Node7</title>
<g id="a_Node000007"><a xlink:href="../../d9/d45/class_q_c_string.html" target="_top" xlink:title="This is an alternative implementation of QCString.">
<polygon fill="white" stroke="#666666" points="290,-207.5 231,-207.5 231,-188.5 290,-188.5 290,-207.5"/>
<text text-anchor="middle" x="260.5" y="-195.5" font-family="Helvetica,sans-Serif" font-size="10.00">QCString</text>
</a>
</g>
</g>
<!-- Node7&#45;&gt;Node5 -->
<g id="edge6_Node000005_Node000007" class="edge">
<title>Node7&#45;&gt;Node5</title>
<g id="a_edge6_Node000005_Node000007"><a xlink:title=" ">
<path fill="none" stroke="#9a32cd" stroke-dasharray="5,2" d="M297.99,-210.69C316.35,-216.48 339.1,-222.75 360,-226 502.76,-248.17 674.03,-245.59 757.79,-242.46"/>
<polygon fill="#9a32cd" stroke="#9a32cd" points="298.87,-207.3 288.28,-207.55 296.71,-213.96 298.87,-207.3"/>
</a>
</g>
<text text-anchor="middle" x="579.5" y="-324" font-family="Helvetica,sans-Serif" font-size="10.00" fill="grey"> context</text>
<text text-anchor="middle" x="579.5" y="-313" font-family="Helvetica,sans-Serif" font-size="10.00" fill="grey">exampleName</text>
<text text-anchor="middle" x="579.5" y="-302" font-family="Helvetica,sans-Serif" font-size="10.00" fill="grey">fileName</text>
<text text-anchor="middle" x="579.5" y="-291" font-family="Helvetica,sans-Serif" font-size="10.00" fill="grey">includeFileName</text>
<text text-anchor="middle" x="579.5" y="-280" font-family="Helvetica,sans-Serif" font-size="10.00" fill="grey">includeFileText</text>
<text text-anchor="middle" x="579.5" y="-269" font-family="Helvetica,sans-Serif" font-size="10.00" fill="grey">prefix</text>
<text text-anchor="middle" x="579.5" y="-258" font-family="Helvetica,sans-Serif" font-size="10.00" fill="grey">relPath</text>
<text text-anchor="middle" x="579.5" y="-247" font-family="Helvetica,sans-Serif" font-size="10.00" fill="grey">searchUrl</text>
</g>
<!-- Node13 -->
<g id="Node000013" class="node">
<title>Node13</title>
<g id="a_Node000013"><a xlink:href="../../d6/df4/struct_token_info.html" target="_top" xlink:title="Data associated with a token used by the comment block parser.">
<polygon fill="white" stroke="#666666" points="611,-146.5 548,-146.5 548,-127.5 611,-127.5 611,-146.5"/>
<text text-anchor="middle" x="579.5" y="-134.5" font-family="Helvetica,sans-Serif" font-size="10.00">TokenInfo</text>
</a>
</g>
</g>
<!-- Node7&#45;&gt;Node13 -->
<g id="edge14_Node000013_Node000007" class="edge">
<title>Node7&#45;&gt;Node13</title>
<g id="a_edge14_Node000013_Node000007"><a xlink:title=" ">
<path fill="none" stroke="#9a32cd" stroke-dasharray="5,2" d="M280.69,-181.9C299.51,-167.22 329.73,-146.57 360,-138 424.79,-119.66 504.78,-126.27 547.74,-132.05"/>
<polygon fill="#9a32cd" stroke="#9a32cd" points="278.25,-179.36 272.64,-188.35 282.63,-184.82 278.25,-179.36"/>
</a>
</g>
<text text-anchor="middle" x="431" y="-218" font-family="Helvetica,sans-Serif" font-size="10.00" fill="grey"> attribsStr</text>
<text text-anchor="middle" x="431" y="-207" font-family="Helvetica,sans-Serif" font-size="10.00" fill="grey">chars</text>
<text text-anchor="middle" x="431" y="-196" font-family="Helvetica,sans-Serif" font-size="10.00" fill="grey">name</text>
<text text-anchor="middle" x="431" y="-185" font-family="Helvetica,sans-Serif" font-size="10.00" fill="grey">sectionId</text>
<text text-anchor="middle" x="431" y="-174" font-family="Helvetica,sans-Serif" font-size="10.00" fill="grey">simpleSectName</text>
<text text-anchor="middle" x="431" y="-163" font-family="Helvetica,sans-Serif" font-size="10.00" fill="grey">simpleSectText</text>
<text text-anchor="middle" x="431" y="-152" font-family="Helvetica,sans-Serif" font-size="10.00" fill="grey">text</text>
<text text-anchor="middle" x="431" y="-141" font-family="Helvetica,sans-Serif" font-size="10.00" fill="grey">verb</text>
</g>
<!-- Node8 -->
<g id="Node000008" class="node">
<title>Node8</title>
<g id="a_Node000008"><a xlink:href="../../d9/d82/class_iterable_stack.html" target="_top" xlink:title=" ">
<polygon fill="white" stroke="#666666" points="639,-78 520,-78 520,-48 639,-48 639,-78"/>
<text text-anchor="start" x="528" y="-66" font-family="Helvetica,sans-Serif" font-size="10.00">IterableStack&lt; const</text>
<text text-anchor="middle" x="579.5" y="-55" font-family="Helvetica,sans-Serif" font-size="10.00"> DocNodeVariant * &gt;</text>
</a>
</g>
</g>
<!-- Node8&#45;&gt;Node5 -->
<g id="edge7_Node000005_Node000008" class="edge">
<title>Node8&#45;&gt;Node5</title>
<g id="a_edge7_Node000005_Node000008"><a xlink:title=" ">
<path fill="none" stroke="#9a32cd" stroke-dasharray="5,2" d="M637.75,-81.76C672.21,-95.88 714.25,-118.6 740,-152 759.61,-177.44 736.3,-198.31 758,-222 761.11,-225.39 764.89,-228.15 768.99,-230.38"/>
<polygon fill="#9a32cd" stroke="#9a32cd" points="638.84,-78.43 628.25,-78.01 636.26,-84.94 638.84,-78.43"/>
</a>
</g>
<text text-anchor="middle" x="698.5" y="-166" font-family="Helvetica,sans-Serif" font-size="10.00" fill="grey"> initialStyleStack</text>
<text text-anchor="middle" x="698.5" y="-155" font-family="Helvetica,sans-Serif" font-size="10.00" fill="grey">styleStack</text>
</g>
<!-- Node9 -->
<g id="Node000009" class="node">
<title>Node9</title>
<g id="a_Node000009"><a xlink:title=" ">
<polygon fill="white" stroke="#666666" points="336,-83.5 185,-83.5 185,-42.5 336,-42.5 336,-83.5"/>
<text text-anchor="start" x="193" y="-71.5" font-family="Helvetica,sans-Serif" font-size="10.00">std::stack&lt; const DocNode</text>
<text text-anchor="start" x="193" y="-60.5" font-family="Helvetica,sans-Serif" font-size="10.00">Variant *, std::deque&lt;const</text>
<text text-anchor="middle" x="260.5" y="-49.5" font-family="Helvetica,sans-Serif" font-size="10.00"> DocNodeVariant *&gt; &gt;</text>
</a>
</g>
</g>
<!-- Node9&#45;&gt;Node8 -->
<g id="edge8_Node000008_Node000009" class="edge">
<title>Node9&#45;&gt;Node8</title>
<g id="a_edge8_Node000008_Node000009"><a xlink:title=" ">
<path fill="none" stroke="#63b8ff" d="M346.28,-63C401.12,-63 471.12,-63 519.86,-63"/>
<polygon fill="#63b8ff" stroke="#63b8ff" points="346.22,-59.5 336.22,-63 346.22,-66.5 346.22,-59.5"/>
</a>
</g>
</g>
<!-- Node10 -->
<g id="Node000010" class="node">
<title>Node10</title>
<g id="a_Node000010"><a xlink:href="../../d9/d82/class_iterable_stack.html" target="_top" xlink:title=" ">
<polygon fill="white" stroke="#666666" points="342,-24.5 179,-24.5 179,-5.5 342,-5.5 342,-24.5"/>
<text text-anchor="middle" x="260.5" y="-12.5" font-family="Helvetica,sans-Serif" font-size="10.00">IterableStack&lt; T, Container &gt;</text>
</a>
</g>
</g>
<!-- Node10&#45;&gt;Node8 -->
<g id="edge9_Node000008_Node000010" class="edge">
<title>Node10&#45;&gt;Node8</title>
<g id="a_edge9_Node000008_Node000010"><a xlink:title=" ">
<path fill="none" stroke="orange" stroke-dasharray="5,2" d="M349.27,-25.82C394.92,-31.75 451.56,-39.6 502,-48 507.74,-48.96 513.71,-50.01 519.67,-51.11"/>
<polygon fill="orange" stroke="orange" points="349.48,-22.31 339.11,-24.5 348.58,-29.26 349.48,-22.31"/>
</a>
</g>
<text text-anchor="middle" x="431" y="-51" font-family="Helvetica,sans-Serif" font-size="10.00" fill="grey"> &lt; const DocNodeVariant * &gt;</text>
</g>
<!-- Node11 -->
<g id="Node000011" class="node">
<title>Node11</title>
<g id="a_Node000011"><a xlink:title=" ">
<polygon fill="white" stroke="#666666" points="122,-30 20,-30 20,0 122,0 122,-30"/>
<text text-anchor="start" x="28" y="-18" font-family="Helvetica,sans-Serif" font-size="10.00">std::stack&lt; T, std</text>
<text text-anchor="middle" x="71" y="-7" font-family="Helvetica,sans-Serif" font-size="10.00">::deque&lt; T &gt; &gt;</text>
</a>
</g>
</g>
<!-- Node11&#45;&gt;Node10 -->
<g id="edge10_Node000010_Node000011" class="edge">
<title>Node11&#45;&gt;Node10</title>
<g id="a_edge10_Node000010_Node000011"><a xlink:title=" ">
<path fill="none" stroke="#63b8ff" d="M132.26,-15C147.04,-15 163.11,-15 178.69,-15"/>
<polygon fill="#63b8ff" stroke="#63b8ff" points="132.25,-11.5 122.25,-15 132.25,-18.5 132.25,-11.5"/>
</a>
</g>
</g>
<!-- Node12&#45;&gt;Node5 -->
<g id="edge11_Node000005_Node000012" class="edge">
<title>Node12&#45;&gt;Node5</title>
<g id="a_edge11_Node000005_Node000012"><a xlink:title=" ">
<path fill="none" stroke="#9a32cd" stroke-dasharray="5,2" d="M615.54,-342.7C623.37,-339.43 631.55,-335.78 639,-332 694.33,-303.91 702.22,-286.18 758,-259 765.05,-255.56 772.89,-252.36 780.27,-249.6"/>
<polygon fill="#9a32cd" stroke="#9a32cd" points="614.19,-339.47 606.24,-346.48 616.82,-345.96 614.19,-339.47"/>
</a>
</g>
<text text-anchor="middle" x="698.5" y="-325" font-family="Helvetica,sans-Serif" font-size="10.00" fill="grey"> memberDef</text>
</g>
<!-- Node13&#45;&gt;Node5 -->
<g id="edge13_Node000005_Node000013" class="edge">
<title>Node13&#45;&gt;Node5</title>
<g id="a_edge13_Node000005_Node000013"><a xlink:title=" ">
<path fill="none" stroke="#9a32cd" stroke-dasharray="5,2" d="M607.85,-151.23C642.36,-168.92 703.76,-199.52 758,-222 765.11,-224.95 772.9,-227.85 780.2,-230.44"/>
<polygon fill="#9a32cd" stroke="#9a32cd" points="609.35,-148.07 598.86,-146.6 606.15,-154.29 609.35,-148.07"/>
</a>
</g>
<text text-anchor="middle" x="698.5" y="-216" font-family="Helvetica,sans-Serif" font-size="10.00" fill="grey"> token</text>
</g>
<!-- Node14 -->
<g id="Node000014" class="node">
<title>Node14</title>
<g id="a_Node000014"><a xlink:href="../../db/d4d/class_html_attrib_list.html" target="_top" xlink:title="Class representing a list of HTML attributes.">
<polygon fill="white" stroke="#666666" points="303,-120.5 218,-120.5 218,-101.5 303,-101.5 303,-120.5"/>
<text text-anchor="middle" x="260.5" y="-108.5" font-family="Helvetica,sans-Serif" font-size="10.00">HtmlAttribList</text>
</a>
</g>
</g>
<!-- Node14&#45;&gt;Node13 -->
<g id="edge15_Node000013_Node000014" class="edge">
<title>Node14&#45;&gt;Node13</title>
<g id="a_edge15_Node000013_Node000014"><a xlink:title=" ">
<path fill="none" stroke="#9a32cd" stroke-dasharray="5,2" d="M313.35,-102.64C362.47,-96.33 438.03,-90.79 502,-104 523.67,-108.48 546.77,-119.39 561.84,-127.45"/>
<polygon fill="#9a32cd" stroke="#9a32cd" points="312.73,-99.2 303.29,-104 313.66,-106.13 312.73,-99.2"/>
</a>
</g>
<text text-anchor="middle" x="431" y="-107" font-family="Helvetica,sans-Serif" font-size="10.00" fill="grey"> attribs</text>
</g>
<!-- Node15 -->
<g id="Node000015" class="node">
<title>Node15</title>
<g id="a_Node000015"><a xlink:title=" ">
<polygon fill="white" stroke="#666666" points="142,-120.5 0,-120.5 0,-101.5 142,-101.5 142,-120.5"/>
<text text-anchor="middle" x="71" y="-108.5" font-family="Helvetica,sans-Serif" font-size="10.00">std::vector&lt; HtmlAttrib &gt;</text>
</a>
</g>
</g>
<!-- Node15&#45;&gt;Node14 -->
<g id="edge16_Node000014_Node000015" class="edge">
<title>Node15&#45;&gt;Node14</title>
<g id="a_edge16_Node000014_Node000015"><a xlink:title=" ">
<path fill="none" stroke="#63b8ff" d="M152.35,-111C174.9,-111 198.5,-111 217.8,-111"/>
<polygon fill="#63b8ff" stroke="#63b8ff" points="152.08,-107.5 142.08,-111 152.08,-114.5 152.08,-107.5"/>
</a>
</g>
</g>
<!-- Node16 -->
<g id="Node000016" class="node">
<title>Node16</title>
<g id="a_Node000016"><a xlink:href="../../d1/d7f/class_doc_tokenizer.html" target="_top" xlink:title=" ">
<polygon fill="white" stroke="#666666" points="850.5,-212.5 769.5,-212.5 769.5,-193.5 850.5,-193.5 850.5,-212.5"/>
<text text-anchor="middle" x="810" y="-200.5" font-family="Helvetica,sans-Serif" font-size="10.00">DocTokenizer</text>
</a>
</g>
</g>
<!-- Node16&#45;&gt;Node3 -->
<g id="edge17_Node000003_Node000016" class="edge">
<title>Node16&#45;&gt;Node3</title>
<g id="a_edge17_Node000003_Node000016"><a xlink:title=" ">
<path fill="none" stroke="#9a32cd" stroke-dasharray="5,2" d="M860.63,-211C881.81,-214.74 906.73,-219.57 929,-225 935.46,-226.57 942.32,-228.49 948.81,-230.42"/>
<polygon fill="#9a32cd" stroke="#9a32cd" points="861.02,-207.52 850.56,-209.26 859.82,-214.42 861.02,-207.52"/>
</a>
</g>
<text text-anchor="middle" x="904.5" y="-228" font-family="Helvetica,sans-Serif" font-size="10.00" fill="grey"> tokenizer</text>
</g>
</g>
</svg>
