<?xml version="1.0" encoding="UTF-8" standalone="no"?>
<!DOCTYPE svg PUBLIC "-//W3C//DTD SVG 1.1//EN"
 "http://www.w3.org/Graphics/SVG/1.1/DTD/svg11.dtd">
<!-- Generated by graphviz version 2.43.0 (0)
 -->
<!-- Title: src/translator.h Pages: 1 -->
<svg width="5999pt" height="137pt"
 viewBox="0.00 0.00 5999.00 137.00" xmlns="http://www.w3.org/2000/svg" xmlns:xlink="http://www.w3.org/1999/xlink">
<g id="graph0" class="graph" transform="scale(1 1) rotate(0) translate(4 133)">
<title>src/translator.h</title>
<!-- Node1 -->
<g id="Node000001" class="node">
<title>Node1</title>
<g id="a_Node000001"><a xlink:title=" ">
<polygon fill="#999999" stroke="#666666" points="188,-129 99,-129 99,-110 188,-110 188,-129"/>
<text text-anchor="middle" x="143.5" y="-117" font-family="Helvetica,sans-Serif" font-size="10.00">src/translator.h</text>
</a>
</g>
</g>
<!-- Node2 -->
<g id="Node000002" class="node">
<title>Node2</title>
<g id="a_Node000002"><a xlink:href="../../d2/d48/language_8cpp.html" target="_top" xlink:title=" ">
<polygon fill="white" stroke="#666666" points="99,-19 0,-19 0,0 99,0 99,-19"/>
<text text-anchor="middle" x="49.5" y="-7" font-family="Helvetica,sans-Serif" font-size="10.00">src/language.cpp</text>
</a>
</g>
</g>
<!-- Node1&#45;&gt;Node2 -->
<g id="edge1_Node000001_Node000002" class="edge">
<title>Node1&#45;&gt;Node2</title>
<g id="a_edge1_Node000001_Node000002"><a xlink:title=" ">
<path fill="none" stroke="#63b8ff" d="M110.63,-105.64C95.86,-98.36 79.35,-87.9 68.5,-74 55.61,-57.49 51.44,-32.36 50.11,-19.21"/>
<polygon fill="#63b8ff" stroke="#63b8ff" points="109.45,-108.95 120,-109.97 112.39,-102.6 109.45,-108.95"/>
</a>
</g>
</g>
<!-- Node3 -->
<g id="Node000003" class="node">
<title>Node3</title>
<g id="a_Node000003"><a xlink:href="../../d8/dce/language_8h.html" target="_top" xlink:title=" ">
<polygon fill="white" stroke="#666666" points="2953.5,-74 2865.5,-74 2865.5,-55 2953.5,-55 2953.5,-74"/>
<text text-anchor="middle" x="2909.5" y="-62" font-family="Helvetica,sans-Serif" font-size="10.00">src/language.h</text>
</a>
</g>
</g>
<!-- Node1&#45;&gt;Node3 -->
<g id="edge2_Node000001_Node000003" class="edge">
<title>Node1&#45;&gt;Node3</title>
<g id="a_edge2_Node000001_Node000003"><a xlink:title=" ">
<path fill="none" stroke="#63b8ff" d="M198.13,-117.45C554.48,-110.63 2543.46,-72.51 2865.46,-66.34"/>
<polygon fill="#63b8ff" stroke="#63b8ff" points="198,-113.95 188.07,-117.65 198.13,-120.95 198,-113.95"/>
</a>
</g>
</g>
<!-- Node53 -->
<g id="Node000053" class="node">
<title>Node53</title>
<g id="a_Node000053"><a xlink:href="../../da/de6/translator__adapter_8h.html" target="_top" xlink:title=" ">
<polygon fill="white" stroke="#666666" points="209.5,-74 77.5,-74 77.5,-55 209.5,-55 209.5,-74"/>
<text text-anchor="middle" x="143.5" y="-62" font-family="Helvetica,sans-Serif" font-size="10.00">src/translator_adapter.h</text>
</a>
</g>
</g>
<!-- Node1&#45;&gt;Node53 -->
<g id="edge53_Node000001_Node000053" class="edge">
<title>Node1&#45;&gt;Node53</title>
<g id="a_edge53_Node000001_Node000053"><a xlink:title=" ">
<path fill="none" stroke="#63b8ff" d="M143.5,-99.66C143.5,-90.93 143.5,-80.99 143.5,-74.09"/>
<polygon fill="#63b8ff" stroke="#63b8ff" points="140,-99.75 143.5,-109.75 147,-99.75 140,-99.75"/>
</a>
</g>
</g>
<!-- Node3&#45;&gt;Node2 -->
<g id="edge28_Node000003_Node000002" class="edge">
<title>Node3&#45;&gt;Node2</title>
<g id="a_edge28_Node000003_Node000002"><a xlink:title=" ">
<path fill="none" stroke="#63b8ff" d="M2855.24,-63.58C2514.91,-63.95 670.96,-63.8 108.5,-19 105.41,-18.75 102.23,-18.45 99.02,-18.1"/>
<polygon fill="#63b8ff" stroke="#63b8ff" points="2855.33,-67.08 2865.33,-63.57 2855.32,-60.08 2855.33,-67.08"/>
</a>
</g>
</g>
<!-- Node4 -->
<g id="Node000004" class="node">
<title>Node4</title>
<g id="a_Node000004"><a xlink:href="../../d5/d0b/cite_8cpp.html" target="_top" xlink:title=" ">
<polygon fill="white" stroke="#666666" points="189.5,-19 117.5,-19 117.5,0 189.5,0 189.5,-19"/>
<text text-anchor="middle" x="153.5" y="-7" font-family="Helvetica,sans-Serif" font-size="10.00">src/cite.cpp</text>
</a>
</g>
</g>
<!-- Node3&#45;&gt;Node4 -->
<g id="edge3_Node000003_Node000004" class="edge">
<title>Node3&#45;&gt;Node4</title>
<g id="a_edge3_Node000003_Node000004"><a xlink:title=" ">
<path fill="none" stroke="#63b8ff" d="M2855.32,-63.17C2496.74,-60.88 471.52,-46.82 198.5,-19 195.65,-18.71 192.72,-18.33 189.77,-17.9"/>
<polygon fill="#63b8ff" stroke="#63b8ff" points="2855.41,-66.67 2865.44,-63.23 2855.46,-59.67 2855.41,-66.67"/>
</a>
</g>
</g>
<!-- Node5 -->
<g id="Node000005" class="node">
<title>Node5</title>
<g id="a_Node000005"><a xlink:href="../../de/d89/classdef_8cpp.html" target="_top" xlink:title=" ">
<polygon fill="white" stroke="#666666" points="301.5,-19 207.5,-19 207.5,0 301.5,0 301.5,-19"/>
<text text-anchor="middle" x="254.5" y="-7" font-family="Helvetica,sans-Serif" font-size="10.00">src/classdef.cpp</text>
</a>
</g>
</g>
<!-- Node3&#45;&gt;Node5 -->
<g id="edge4_Node000003_Node000005" class="edge">
<title>Node3&#45;&gt;Node5</title>
<g id="a_edge4_Node000003_Node000005"><a xlink:title=" ">
<path fill="none" stroke="#63b8ff" d="M2855.33,-63.56C2529.81,-63.76 830.16,-62.69 310.5,-19 307.66,-18.76 304.74,-18.47 301.8,-18.13"/>
<polygon fill="#63b8ff" stroke="#63b8ff" points="2855.45,-67.06 2865.45,-63.55 2855.44,-60.06 2855.45,-67.06"/>
</a>
</g>
</g>
<!-- Node6 -->
<g id="Node000006" class="node">
<title>Node6</title>
<g id="a_Node000006"><a xlink:href="../../d6/d10/classlist_8cpp.html" target="_top" xlink:title=" ">
<polygon fill="white" stroke="#666666" points="413.5,-19 319.5,-19 319.5,0 413.5,0 413.5,-19"/>
<text text-anchor="middle" x="366.5" y="-7" font-family="Helvetica,sans-Serif" font-size="10.00">src/classlist.cpp</text>
</a>
</g>
</g>
<!-- Node3&#45;&gt;Node6 -->
<g id="edge5_Node000003_Node000006" class="edge">
<title>Node3&#45;&gt;Node6</title>
<g id="a_edge5_Node000003_Node000006"><a xlink:title=" ">
<path fill="none" stroke="#63b8ff" d="M2854.69,-63.49C2536.04,-63.29 919.03,-60.21 423.5,-19 420.31,-18.73 417.03,-18.4 413.72,-18.03"/>
<polygon fill="#63b8ff" stroke="#63b8ff" points="2855.04,-66.99 2865.04,-63.5 2855.04,-59.99 2855.04,-66.99"/>
</a>
</g>
</g>
<!-- Node7 -->
<g id="Node000007" class="node">
<title>Node7</title>
<g id="a_Node000007"><a xlink:href="../../d7/d5f/commentscan_8l.html" target="_top" xlink:title=" ">
<polygon fill="white" stroke="#666666" points="541,-19 432,-19 432,0 541,0 541,-19"/>
<text text-anchor="middle" x="486.5" y="-7" font-family="Helvetica,sans-Serif" font-size="10.00">src/commentscan.l</text>
</a>
</g>
</g>
<!-- Node3&#45;&gt;Node7 -->
<g id="edge6_Node000003_Node000007" class="edge">
<title>Node3&#45;&gt;Node7</title>
<g id="a_edge6_Node000003_Node000007"><a xlink:title=" ">
<path fill="none" stroke="#63b8ff" d="M2855.04,-63.31C2546.95,-62.12 1019.75,-54.47 550.5,-19 547.48,-18.77 544.39,-18.5 541.27,-18.19"/>
<polygon fill="#63b8ff" stroke="#63b8ff" points="2855.05,-66.81 2865.06,-63.35 2855.08,-59.81 2855.05,-66.81"/>
</a>
</g>
</g>
<!-- Node8 -->
<g id="Node000008" class="node">
<title>Node8</title>
<g id="a_Node000008"><a xlink:href="../../d8/d0a/conceptdef_8cpp.html" target="_top" xlink:title=" ">
<polygon fill="white" stroke="#666666" points="666,-19 559,-19 559,0 666,0 666,-19"/>
<text text-anchor="middle" x="612.5" y="-7" font-family="Helvetica,sans-Serif" font-size="10.00">src/conceptdef.cpp</text>
</a>
</g>
</g>
<!-- Node3&#45;&gt;Node8 -->
<g id="edge7_Node000003_Node000008" class="edge">
<title>Node3&#45;&gt;Node8</title>
<g id="a_edge7_Node000003_Node000008"><a xlink:title=" ">
<path fill="none" stroke="#63b8ff" d="M2855.1,-63.26C2556.96,-61.82 1118.42,-53.18 675.5,-19 672.42,-18.76 669.26,-18.47 666.07,-18.15"/>
<polygon fill="#63b8ff" stroke="#63b8ff" points="2855.21,-66.76 2865.22,-63.31 2855.24,-59.76 2855.21,-66.76"/>
</a>
</g>
</g>
<!-- Node9 -->
<g id="Node000009" class="node">
<title>Node9</title>
<g id="a_Node000009"><a xlink:href="../../d9/de3/configimpl_8l.html" target="_top" xlink:title=" ">
<polygon fill="white" stroke="#666666" points="775,-19 684,-19 684,0 775,0 775,-19"/>
<text text-anchor="middle" x="729.5" y="-7" font-family="Helvetica,sans-Serif" font-size="10.00">src/configimpl.l</text>
</a>
</g>
</g>
<!-- Node3&#45;&gt;Node9 -->
<g id="edge8_Node000003_Node000009" class="edge">
<title>Node3&#45;&gt;Node9</title>
<g id="a_edge8_Node000003_Node000009"><a xlink:title=" ">
<path fill="none" stroke="#63b8ff" d="M2855,-63.34C2565.37,-62.32 1204.13,-55.66 784.5,-19 781.42,-18.73 778.25,-18.4 775.06,-18.02"/>
<polygon fill="#63b8ff" stroke="#63b8ff" points="2855.23,-66.84 2865.24,-63.37 2855.25,-59.84 2855.23,-66.84"/>
</a>
</g>
</g>
<!-- Node10 -->
<g id="Node000010" class="node">
<title>Node10</title>
<g id="a_Node000010"><a xlink:href="../../d7/d14/datetime_8cpp.html" target="_top" xlink:title=" ">
<polygon fill="white" stroke="#666666" points="891.5,-19 793.5,-19 793.5,0 891.5,0 891.5,-19"/>
<text text-anchor="middle" x="842.5" y="-7" font-family="Helvetica,sans-Serif" font-size="10.00">src/datetime.cpp</text>
</a>
</g>
</g>
<!-- Node3&#45;&gt;Node10 -->
<g id="edge9_Node000003_Node000010" class="edge">
<title>Node3&#45;&gt;Node10</title>
<g id="a_edge9_Node000003_Node000010"><a xlink:title=" ">
<path fill="none" stroke="#63b8ff" d="M2854.87,-63.2C2574.57,-61.54 1295.86,-52.22 900.5,-19 897.66,-18.76 894.75,-18.47 891.81,-18.15"/>
<polygon fill="#63b8ff" stroke="#63b8ff" points="2855.16,-66.7 2865.18,-63.26 2855.2,-59.7 2855.16,-66.7"/>
</a>
</g>
</g>
<!-- Node11 -->
<g id="Node000011" class="node">
<title>Node11</title>
<g id="a_Node000011"><a xlink:href="../../d3/dea/definition_8cpp.html" target="_top" xlink:title=" ">
<polygon fill="white" stroke="#666666" points="1009.5,-19 909.5,-19 909.5,0 1009.5,0 1009.5,-19"/>
<text text-anchor="middle" x="959.5" y="-7" font-family="Helvetica,sans-Serif" font-size="10.00">src/definition.cpp</text>
</a>
</g>
</g>
<!-- Node3&#45;&gt;Node11 -->
<g id="edge10_Node000003_Node000011" class="edge">
<title>Node3&#45;&gt;Node11</title>
<g id="a_edge10_Node000003_Node000011"><a xlink:title=" ">
<path fill="none" stroke="#63b8ff" d="M2855.07,-63.1C2585.24,-60.98 1389.27,-49.96 1018.5,-19 1015.61,-18.76 1012.65,-18.47 1009.67,-18.14"/>
<polygon fill="#63b8ff" stroke="#63b8ff" points="2855.36,-66.6 2865.38,-63.18 2855.41,-59.6 2855.36,-66.6"/>
</a>
</g>
</g>
<!-- Node12 -->
<g id="Node000012" class="node">
<title>Node12</title>
<g id="a_Node000012"><a xlink:href="../../d8/d52/dirdef_8cpp.html" target="_top" xlink:title=" ">
<polygon fill="white" stroke="#666666" points="1109.5,-19 1027.5,-19 1027.5,0 1109.5,0 1109.5,-19"/>
<text text-anchor="middle" x="1068.5" y="-7" font-family="Helvetica,sans-Serif" font-size="10.00">src/dirdef.cpp</text>
</a>
</g>
</g>
<!-- Node3&#45;&gt;Node12 -->
<g id="edge11_Node000003_Node000012" class="edge">
<title>Node3&#45;&gt;Node12</title>
<g id="a_edge11_Node000003_Node000012"><a xlink:title=" ">
<path fill="none" stroke="#63b8ff" d="M2855.04,-63.18C2593.97,-61.47 1468.79,-52.28 1119.5,-19 1116.28,-18.69 1112.96,-18.31 1109.63,-17.86"/>
<polygon fill="#63b8ff" stroke="#63b8ff" points="2855.38,-66.68 2865.4,-63.24 2855.42,-59.68 2855.38,-66.68"/>
</a>
</g>
</g>
<!-- Node13 -->
<g id="Node000013" class="node">
<title>Node13</title>
<g id="a_Node000013"><a xlink:href="../../d8/d29/docbookgen_8cpp.html" target="_top" xlink:title=" ">
<polygon fill="white" stroke="#666666" points="1241,-19 1128,-19 1128,0 1241,0 1241,-19"/>
<text text-anchor="middle" x="1184.5" y="-7" font-family="Helvetica,sans-Serif" font-size="10.00">src/docbookgen.cpp</text>
</a>
</g>
</g>
<!-- Node3&#45;&gt;Node13 -->
<g id="edge12_Node000003_Node000013" class="edge">
<title>Node3&#45;&gt;Node13</title>
<g id="a_edge12_Node000003_Node000013"><a xlink:title=" ">
<path fill="none" stroke="#63b8ff" d="M2855.06,-62.78C2605.93,-59.38 1572.99,-44.03 1250.5,-19 1247.51,-18.77 1244.44,-18.49 1241.34,-18.19"/>
<polygon fill="#63b8ff" stroke="#63b8ff" points="2855.26,-66.29 2865.3,-62.92 2855.35,-59.29 2855.26,-66.29"/>
</a>
</g>
</g>
<!-- Node14 -->
<g id="Node000014" class="node">
<title>Node14</title>
<g id="a_Node000014"><a xlink:href="../../dc/d05/docbookvisitor_8cpp.html" target="_top" xlink:title=" ">
<polygon fill="white" stroke="#666666" points="1384,-19 1259,-19 1259,0 1384,0 1384,-19"/>
<text text-anchor="middle" x="1321.5" y="-7" font-family="Helvetica,sans-Serif" font-size="10.00">src/docbookvisitor.cpp</text>
</a>
</g>
</g>
<!-- Node3&#45;&gt;Node14 -->
<g id="edge13_Node000003_Node000014" class="edge">
<title>Node3&#45;&gt;Node14</title>
<g id="a_edge13_Node000003_Node000014"><a xlink:title=" ">
<path fill="none" stroke="#63b8ff" d="M2855.33,-63.63C2658.71,-63.76 1964.29,-60.99 1393.5,-19 1390.49,-18.78 1387.41,-18.52 1384.3,-18.24"/>
<polygon fill="#63b8ff" stroke="#63b8ff" points="2855.4,-67.13 2865.4,-63.63 2855.4,-60.13 2855.4,-67.13"/>
</a>
</g>
</g>
<!-- Node15 -->
<g id="Node000015" class="node">
<title>Node15</title>
<g id="a_Node000015"><a xlink:href="../../d0/d2b/docnode_8cpp.html" target="_top" xlink:title=" ">
<polygon fill="white" stroke="#666666" points="1497,-19 1402,-19 1402,0 1497,0 1497,-19"/>
<text text-anchor="middle" x="1449.5" y="-7" font-family="Helvetica,sans-Serif" font-size="10.00">src/docnode.cpp</text>
</a>
</g>
</g>
<!-- Node3&#45;&gt;Node15 -->
<g id="edge14_Node000003_Node000015" class="edge">
<title>Node3&#45;&gt;Node15</title>
<g id="a_edge14_Node000003_Node000015"><a xlink:title=" ">
<path fill="none" stroke="#63b8ff" d="M2855.31,-64.04C2667.94,-65.45 2030.27,-66.2 1506.5,-19 1503.41,-18.72 1500.23,-18.39 1497.04,-18.01"/>
<polygon fill="#63b8ff" stroke="#63b8ff" points="2855.48,-67.54 2865.45,-63.96 2855.42,-60.54 2855.48,-67.54"/>
</a>
</g>
</g>
<!-- Node16 -->
<g id="Node000016" class="node">
<title>Node16</title>
<g id="a_Node000016"><a xlink:href="../../de/daa/dot_8cpp.html" target="_top" xlink:title=" ">
<polygon fill="white" stroke="#666666" points="1585.5,-19 1515.5,-19 1515.5,0 1585.5,0 1585.5,-19"/>
<text text-anchor="middle" x="1550.5" y="-7" font-family="Helvetica,sans-Serif" font-size="10.00">src/dot.cpp</text>
</a>
</g>
</g>
<!-- Node3&#45;&gt;Node16 -->
<g id="edge15_Node000003_Node000016" class="edge">
<title>Node3&#45;&gt;Node16</title>
<g id="a_edge15_Node000003_Node000016"><a xlink:title=" ">
<path fill="none" stroke="#63b8ff" d="M2855.13,-62.8C2639.59,-59.84 1844.77,-47.23 1594.5,-19 1591.72,-18.69 1588.85,-18.29 1585.97,-17.85"/>
<polygon fill="#63b8ff" stroke="#63b8ff" points="2855.2,-66.3 2865.25,-62.94 2855.3,-59.3 2855.2,-66.3"/>
</a>
</g>
</g>
<!-- Node17 -->
<g id="Node000017" class="node">
<title>Node17</title>
<g id="a_Node000017"><a xlink:href="../../d4/d09/dotgfxhierarchytable_8cpp.html" target="_top" xlink:title=" ">
<polygon fill="white" stroke="#666666" points="1759.5,-19 1603.5,-19 1603.5,0 1759.5,0 1759.5,-19"/>
<text text-anchor="middle" x="1681.5" y="-7" font-family="Helvetica,sans-Serif" font-size="10.00">src/dotgfxhierarchytable.cpp</text>
</a>
</g>
</g>
<!-- Node3&#45;&gt;Node17 -->
<g id="edge16_Node000003_Node000017" class="edge">
<title>Node3&#45;&gt;Node17</title>
<g id="a_edge16_Node000003_Node000017"><a xlink:title=" ">
<path fill="none" stroke="#63b8ff" d="M2855.13,-62.48C2691.08,-59.18 2186.69,-47.27 1769.5,-19 1766.28,-18.78 1763,-18.54 1759.69,-18.29"/>
<polygon fill="#63b8ff" stroke="#63b8ff" points="2855.37,-65.99 2865.44,-62.69 2855.51,-58.99 2855.37,-65.99"/>
</a>
</g>
</g>
<!-- Node18 -->
<g id="Node000018" class="node">
<title>Node18</title>
<g id="a_Node000018"><a xlink:href="../../d4/d33/dotlegendgraph_8cpp.html" target="_top" xlink:title=" ">
<polygon fill="white" stroke="#666666" points="1909,-19 1778,-19 1778,0 1909,0 1909,-19"/>
<text text-anchor="middle" x="1843.5" y="-7" font-family="Helvetica,sans-Serif" font-size="10.00">src/dotlegendgraph.cpp</text>
</a>
</g>
</g>
<!-- Node3&#45;&gt;Node18 -->
<g id="edge17_Node000003_Node000018" class="edge">
<title>Node3&#45;&gt;Node18</title>
<g id="a_edge17_Node000003_Node000018"><a xlink:title=" ">
<path fill="none" stroke="#63b8ff" d="M2855.2,-62.36C2705.65,-58.93 2275.2,-47.19 1918.5,-19 1915.5,-18.76 1912.43,-18.5 1909.33,-18.22"/>
<polygon fill="#63b8ff" stroke="#63b8ff" points="2855.4,-65.86 2865.48,-62.59 2855.56,-58.87 2855.4,-65.86"/>
</a>
</g>
</g>
<!-- Node19 -->
<g id="Node000019" class="node">
<title>Node19</title>
<g id="a_Node000019"><a xlink:href="../../df/d58/dotnode_8cpp.html" target="_top" xlink:title=" ">
<polygon fill="white" stroke="#666666" points="2021.5,-19 1927.5,-19 1927.5,0 2021.5,0 2021.5,-19"/>
<text text-anchor="middle" x="1974.5" y="-7" font-family="Helvetica,sans-Serif" font-size="10.00">src/dotnode.cpp</text>
</a>
</g>
</g>
<!-- Node3&#45;&gt;Node19 -->
<g id="edge18_Node000003_Node000019" class="edge">
<title>Node3&#45;&gt;Node19</title>
<g id="a_edge18_Node000003_Node000019"><a xlink:title=" ">
<path fill="none" stroke="#63b8ff" d="M2855.18,-62.64C2717.12,-60.04 2341.65,-50.41 2030.5,-19 2027.56,-18.7 2024.55,-18.36 2021.51,-17.98"/>
<polygon fill="#63b8ff" stroke="#63b8ff" points="2855.42,-66.14 2865.48,-62.83 2855.55,-59.14 2855.42,-66.14"/>
</a>
</g>
</g>
<!-- Node20 -->
<g id="Node000020" class="node">
<title>Node20</title>
<g id="a_Node000020"><a xlink:href="../../dc/d98/doxygen_8cpp.html" target="_top" xlink:title=" ">
<polygon fill="white" stroke="#666666" points="2135.5,-19 2039.5,-19 2039.5,0 2135.5,0 2135.5,-19"/>
<text text-anchor="middle" x="2087.5" y="-7" font-family="Helvetica,sans-Serif" font-size="10.00">src/doxygen.cpp</text>
</a>
</g>
</g>
<!-- Node3&#45;&gt;Node20 -->
<g id="edge19_Node000003_Node000020" class="edge">
<title>Node3&#45;&gt;Node20</title>
<g id="a_edge19_Node000003_Node000020"><a xlink:title=" ">
<path fill="none" stroke="#63b8ff" d="M2855.3,-62.02C2729.92,-58.24 2410.29,-46.49 2144.5,-19 2141.61,-18.7 2138.65,-18.36 2135.66,-17.99"/>
<polygon fill="#63b8ff" stroke="#63b8ff" points="2855.31,-65.52 2865.41,-62.32 2855.51,-58.53 2855.31,-65.52"/>
</a>
</g>
</g>
<!-- Node21 -->
<g id="Node000021" class="node">
<title>Node21</title>
<g id="a_Node000021"><a xlink:href="../../d6/ddc/filedef_8cpp.html" target="_top" xlink:title=" ">
<polygon fill="white" stroke="#666666" points="2237.5,-19 2153.5,-19 2153.5,0 2237.5,0 2237.5,-19"/>
<text text-anchor="middle" x="2195.5" y="-7" font-family="Helvetica,sans-Serif" font-size="10.00">src/filedef.cpp</text>
</a>
</g>
</g>
<!-- Node3&#45;&gt;Node21 -->
<g id="edge20_Node000003_Node000021" class="edge">
<title>Node3&#45;&gt;Node21</title>
<g id="a_edge20_Node000003_Node000021"><a xlink:title=" ">
<path fill="none" stroke="#63b8ff" d="M2854.97,-61.65C2741.43,-57.41 2471.51,-45.24 2246.5,-19 2243.65,-18.67 2240.71,-18.28 2237.76,-17.87"/>
<polygon fill="#63b8ff" stroke="#63b8ff" points="2855.01,-65.16 2865.14,-62.03 2855.27,-58.16 2855.01,-65.16"/>
</a>
</g>
</g>
<!-- Node22 -->
<g id="Node000022" class="node">
<title>Node22</title>
<g id="a_Node000022"><a xlink:href="../../dd/d00/fortranscanner_8l.html" target="_top" xlink:title=" ">
<polygon fill="white" stroke="#666666" points="2365.5,-19 2255.5,-19 2255.5,0 2365.5,0 2365.5,-19"/>
<text text-anchor="middle" x="2310.5" y="-7" font-family="Helvetica,sans-Serif" font-size="10.00">src/fortranscanner.l</text>
</a>
</g>
</g>
<!-- Node3&#45;&gt;Node22 -->
<g id="edge21_Node000003_Node000022" class="edge">
<title>Node3&#45;&gt;Node22</title>
<g id="a_edge21_Node000003_Node000022"><a xlink:title=" ">
<path fill="none" stroke="#63b8ff" d="M2855.27,-59.87C2758.55,-53.21 2549.96,-37.94 2374.5,-19 2371.6,-18.69 2368.63,-18.35 2365.64,-18"/>
<polygon fill="#63b8ff" stroke="#63b8ff" points="2855.18,-63.37 2865.39,-60.57 2855.65,-56.39 2855.18,-63.37"/>
</a>
</g>
</g>
<!-- Node23 -->
<g id="Node000023" class="node">
<title>Node23</title>
<g id="a_Node000023"><a xlink:href="../../db/d41/ftvhelp_8cpp.html" target="_top" xlink:title=" ">
<polygon fill="white" stroke="#666666" points="2471.5,-19 2383.5,-19 2383.5,0 2471.5,0 2471.5,-19"/>
<text text-anchor="middle" x="2427.5" y="-7" font-family="Helvetica,sans-Serif" font-size="10.00">src/ftvhelp.cpp</text>
</a>
</g>
</g>
<!-- Node3&#45;&gt;Node23 -->
<g id="edge22_Node000003_Node000023" class="edge">
<title>Node3&#45;&gt;Node23</title>
<g id="a_edge22_Node000003_Node000023"><a xlink:title=" ">
<path fill="none" stroke="#63b8ff" d="M2855.22,-58.85C2773.7,-51.63 2614.87,-36.73 2480.5,-19 2477.64,-18.62 2474.69,-18.21 2471.72,-17.78"/>
<polygon fill="#63b8ff" stroke="#63b8ff" points="2854.98,-62.34 2865.25,-59.73 2855.59,-55.36 2854.98,-62.34"/>
</a>
</g>
</g>
<!-- Node24 -->
<g id="Node000024" class="node">
<title>Node24</title>
<g id="a_Node000024"><a xlink:href="../../d6/d42/groupdef_8cpp.html" target="_top" xlink:title=" ">
<polygon fill="white" stroke="#666666" points="2586,-19 2489,-19 2489,0 2586,0 2586,-19"/>
<text text-anchor="middle" x="2537.5" y="-7" font-family="Helvetica,sans-Serif" font-size="10.00">src/groupdef.cpp</text>
</a>
</g>
</g>
<!-- Node3&#45;&gt;Node24 -->
<g id="edge23_Node000003_Node000024" class="edge">
<title>Node3&#45;&gt;Node24</title>
<g id="a_edge23_Node000003_Node000024"><a xlink:title=" ">
<path fill="none" stroke="#63b8ff" d="M2855.25,-55.89C2792.65,-47.09 2686.61,-32.13 2595.5,-19 2592.48,-18.56 2589.37,-18.11 2586.23,-17.66"/>
<polygon fill="#63b8ff" stroke="#63b8ff" points="2854.9,-59.38 2865.29,-57.3 2855.87,-52.44 2854.9,-59.38"/>
</a>
</g>
</g>
<!-- Node25 -->
<g id="Node000025" class="node">
<title>Node25</title>
<g id="a_Node000025"><a xlink:href="../../da/db0/htmldocvisitor_8cpp.html" target="_top" xlink:title=" ">
<polygon fill="white" stroke="#666666" points="2728.5,-19 2604.5,-19 2604.5,0 2728.5,0 2728.5,-19"/>
<text text-anchor="middle" x="2666.5" y="-7" font-family="Helvetica,sans-Serif" font-size="10.00">src/htmldocvisitor.cpp</text>
</a>
</g>
</g>
<!-- Node3&#45;&gt;Node25 -->
<g id="edge24_Node000003_Node000025" class="edge">
<title>Node3&#45;&gt;Node25</title>
<g id="a_edge24_Node000003_Node000025"><a xlink:title=" ">
<path fill="none" stroke="#63b8ff" d="M2860.51,-52.82C2814.97,-42.88 2748,-28.28 2705.85,-19.08"/>
<polygon fill="#63b8ff" stroke="#63b8ff" points="2859.94,-56.27 2870.46,-54.98 2861.43,-49.43 2859.94,-56.27"/>
</a>
</g>
</g>
<!-- Node26 -->
<g id="Node000026" class="node">
<title>Node26</title>
<g id="a_Node000026"><a xlink:href="../../d8/d6e/htmlgen_8cpp.html" target="_top" xlink:title=" ">
<polygon fill="white" stroke="#666666" points="2842,-19 2747,-19 2747,0 2842,0 2842,-19"/>
<text text-anchor="middle" x="2794.5" y="-7" font-family="Helvetica,sans-Serif" font-size="10.00">src/htmlgen.cpp</text>
</a>
</g>
</g>
<!-- Node3&#45;&gt;Node26 -->
<g id="edge25_Node000003_Node000026" class="edge">
<title>Node3&#45;&gt;Node26</title>
<g id="a_edge25_Node000003_Node000026"><a xlink:title=" ">
<path fill="none" stroke="#63b8ff" d="M2881.87,-50.77C2860.66,-40.99 2831.94,-27.75 2813.31,-19.17"/>
<polygon fill="#63b8ff" stroke="#63b8ff" points="2880.48,-53.98 2891.02,-54.98 2883.41,-47.62 2880.48,-53.98"/>
</a>
</g>
</g>
<!-- Node27 -->
<g id="Node000027" class="node">
<title>Node27</title>
<g id="a_Node000027"><a xlink:href="../../d3/d4b/htmlhelp_8cpp.html" target="_top" xlink:title=" ">
<polygon fill="white" stroke="#666666" points="2958.5,-19 2860.5,-19 2860.5,0 2958.5,0 2958.5,-19"/>
<text text-anchor="middle" x="2909.5" y="-7" font-family="Helvetica,sans-Serif" font-size="10.00">src/htmlhelp.cpp</text>
</a>
</g>
</g>
<!-- Node3&#45;&gt;Node27 -->
<g id="edge26_Node000003_Node000027" class="edge">
<title>Node3&#45;&gt;Node27</title>
<g id="a_edge26_Node000003_Node000027"><a xlink:title=" ">
<path fill="none" stroke="#63b8ff" d="M2909.5,-44.66C2909.5,-35.93 2909.5,-25.99 2909.5,-19.09"/>
<polygon fill="#63b8ff" stroke="#63b8ff" points="2906,-44.75 2909.5,-54.75 2913,-44.75 2906,-44.75"/>
</a>
</g>
</g>
<!-- Node28 -->
<g id="Node000028" class="node">
<title>Node28</title>
<g id="a_Node000028"><a xlink:href="../../db/d14/index_8cpp.html" target="_top" xlink:title="This file contains functions for the various index pages.">
<polygon fill="white" stroke="#666666" points="3058,-19 2977,-19 2977,0 3058,0 3058,-19"/>
<text text-anchor="middle" x="3017.5" y="-7" font-family="Helvetica,sans-Serif" font-size="10.00">src/index.cpp</text>
</a>
</g>
</g>
<!-- Node3&#45;&gt;Node28 -->
<g id="edge27_Node000003_Node000028" class="edge">
<title>Node3&#45;&gt;Node28</title>
<g id="a_edge27_Node000003_Node000028"><a xlink:title=" ">
<path fill="none" stroke="#63b8ff" d="M2935.99,-50.5C2955.86,-40.75 2982.5,-27.68 2999.83,-19.17"/>
<polygon fill="#63b8ff" stroke="#63b8ff" points="2934.29,-47.44 2926.85,-54.98 2937.37,-53.72 2934.29,-47.44"/>
</a>
</g>
</g>
<!-- Node29 -->
<g id="Node000029" class="node">
<title>Node29</title>
<g id="a_Node000029"><a xlink:href="../../d1/d4e/latexdocvisitor_8cpp.html" target="_top" xlink:title=" ">
<polygon fill="white" stroke="#666666" points="3202.5,-19 3076.5,-19 3076.5,0 3202.5,0 3202.5,-19"/>
<text text-anchor="middle" x="3139.5" y="-7" font-family="Helvetica,sans-Serif" font-size="10.00">src/latexdocvisitor.cpp</text>
</a>
</g>
</g>
<!-- Node3&#45;&gt;Node29 -->
<g id="edge29_Node000003_Node000029" class="edge">
<title>Node3&#45;&gt;Node29</title>
<g id="a_edge29_Node000003_Node000029"><a xlink:title=" ">
<path fill="none" stroke="#63b8ff" d="M2956.41,-52.69C2999.5,-42.76 3062.53,-28.24 3102.26,-19.08"/>
<polygon fill="#63b8ff" stroke="#63b8ff" points="2955.41,-49.33 2946.45,-54.98 2956.98,-56.15 2955.41,-49.33"/>
</a>
</g>
</g>
<!-- Node30 -->
<g id="Node000030" class="node">
<title>Node30</title>
<g id="a_Node000030"><a xlink:href="../../d4/d42/latexgen_8cpp.html" target="_top" xlink:title=" ">
<polygon fill="white" stroke="#666666" points="3318,-19 3221,-19 3221,0 3318,0 3318,-19"/>
<text text-anchor="middle" x="3269.5" y="-7" font-family="Helvetica,sans-Serif" font-size="10.00">src/latexgen.cpp</text>
</a>
</g>
</g>
<!-- Node3&#45;&gt;Node30 -->
<g id="edge30_Node000003_Node000030" class="edge">
<title>Node3&#45;&gt;Node30</title>
<g id="a_edge30_Node000003_Node000030"><a xlink:title=" ">
<path fill="none" stroke="#63b8ff" d="M2963.57,-55.54C3033.41,-45.26 3153.94,-27.51 3220.97,-17.64"/>
<polygon fill="#63b8ff" stroke="#63b8ff" points="2963.03,-52.08 2953.64,-57 2964.05,-59.01 2963.03,-52.08"/>
</a>
</g>
</g>
<!-- Node31 -->
<g id="Node000031" class="node">
<title>Node31</title>
<g id="a_Node000031"><a xlink:href="../../db/d16/layout_8cpp.html" target="_top" xlink:title=" ">
<polygon fill="white" stroke="#666666" points="3421,-19 3336,-19 3336,0 3421,0 3421,-19"/>
<text text-anchor="middle" x="3378.5" y="-7" font-family="Helvetica,sans-Serif" font-size="10.00">src/layout.cpp</text>
</a>
</g>
</g>
<!-- Node3&#45;&gt;Node31 -->
<g id="edge31_Node000003_Node000031" class="edge">
<title>Node3&#45;&gt;Node31</title>
<g id="a_edge31_Node000003_Node000031"><a xlink:title=" ">
<path fill="none" stroke="#63b8ff" d="M2963.84,-58.75C3043.7,-51.53 3197.4,-36.75 3327.5,-19 3330.26,-18.62 3333.09,-18.21 3335.95,-17.78"/>
<polygon fill="#63b8ff" stroke="#63b8ff" points="2963.18,-55.29 2953.54,-59.67 2963.81,-62.27 2963.18,-55.29"/>
</a>
</g>
</g>
<!-- Node32 -->
<g id="Node000032" class="node">
<title>Node32</title>
<g id="a_Node000032"><a xlink:href="../../d8/dde/mandocvisitor_8cpp.html" target="_top" xlink:title=" ">
<polygon fill="white" stroke="#666666" points="3562,-19 3439,-19 3439,0 3562,0 3562,-19"/>
<text text-anchor="middle" x="3500.5" y="-7" font-family="Helvetica,sans-Serif" font-size="10.00">src/mandocvisitor.cpp</text>
</a>
</g>
</g>
<!-- Node3&#45;&gt;Node32 -->
<g id="edge32_Node000003_Node000032" class="edge">
<title>Node3&#45;&gt;Node32</title>
<g id="a_edge32_Node000003_Node000032"><a xlink:title=" ">
<path fill="none" stroke="#63b8ff" d="M2964.02,-59.49C3058.92,-52.36 3260.56,-36.57 3430.5,-19 3433.18,-18.72 3435.91,-18.43 3438.68,-18.13"/>
<polygon fill="#63b8ff" stroke="#63b8ff" points="2963.52,-56.01 2953.81,-60.25 2964.04,-62.99 2963.52,-56.01"/>
</a>
</g>
</g>
<!-- Node33 -->
<g id="Node000033" class="node">
<title>Node33</title>
<g id="a_Node000033"><a xlink:href="../../d7/de7/mangen_8cpp.html" target="_top" xlink:title=" ">
<polygon fill="white" stroke="#666666" points="3674.5,-19 3580.5,-19 3580.5,0 3674.5,0 3674.5,-19"/>
<text text-anchor="middle" x="3627.5" y="-7" font-family="Helvetica,sans-Serif" font-size="10.00">src/mangen.cpp</text>
</a>
</g>
</g>
<!-- Node3&#45;&gt;Node33 -->
<g id="edge33_Node000003_Node000033" class="edge">
<title>Node3&#45;&gt;Node33</title>
<g id="a_edge33_Node000003_Node000033"><a xlink:title=" ">
<path fill="none" stroke="#63b8ff" d="M2963.92,-61.38C3077.23,-56.63 3346.64,-43.58 3571.5,-19 3574.43,-18.68 3577.45,-18.32 3580.48,-17.93"/>
<polygon fill="#63b8ff" stroke="#63b8ff" points="2963.62,-57.89 2953.77,-61.8 2963.91,-64.89 2963.62,-57.89"/>
</a>
</g>
</g>
<!-- Node34 -->
<g id="Node000034" class="node">
<title>Node34</title>
<g id="a_Node000034"><a xlink:href="../../d0/d72/memberdef_8cpp.html" target="_top" xlink:title=" ">
<polygon fill="white" stroke="#666666" points="3802.5,-19 3692.5,-19 3692.5,0 3802.5,0 3802.5,-19"/>
<text text-anchor="middle" x="3747.5" y="-7" font-family="Helvetica,sans-Serif" font-size="10.00">src/memberdef.cpp</text>
</a>
</g>
</g>
<!-- Node3&#45;&gt;Node34 -->
<g id="edge34_Node000003_Node000034" class="edge">
<title>Node3&#45;&gt;Node34</title>
<g id="a_edge34_Node000003_Node000034"><a xlink:title=" ">
<path fill="none" stroke="#63b8ff" d="M2963.85,-61.77C3090.31,-57.44 3414.04,-44.6 3683.5,-19 3686.4,-18.72 3689.37,-18.42 3692.37,-18.09"/>
<polygon fill="#63b8ff" stroke="#63b8ff" points="2963.53,-58.28 2953.66,-62.12 2963.77,-65.28 2963.53,-58.28"/>
</a>
</g>
</g>
<!-- Node35 -->
<g id="Node000035" class="node">
<title>Node35</title>
<g id="a_Node000035"><a xlink:href="../../d6/d18/membergroup_8cpp.html" target="_top" xlink:title=" ">
<polygon fill="white" stroke="#666666" points="3944,-19 3821,-19 3821,0 3944,0 3944,-19"/>
<text text-anchor="middle" x="3882.5" y="-7" font-family="Helvetica,sans-Serif" font-size="10.00">src/membergroup.cpp</text>
</a>
</g>
</g>
<!-- Node3&#45;&gt;Node35 -->
<g id="edge35_Node000003_Node000035" class="edge">
<title>Node3&#45;&gt;Node35</title>
<g id="a_edge35_Node000003_Node000035"><a xlink:title=" ">
<path fill="none" stroke="#63b8ff" d="M2963.76,-62.14C3104.12,-58.35 3490.66,-46.09 3811.5,-19 3814.59,-18.74 3817.76,-18.45 3820.95,-18.13"/>
<polygon fill="#63b8ff" stroke="#63b8ff" points="2963.59,-58.65 2953.69,-62.41 2963.78,-65.65 2963.59,-58.65"/>
</a>
</g>
</g>
<!-- Node36 -->
<g id="Node000036" class="node">
<title>Node36</title>
<g id="a_Node000036"><a xlink:href="../../d0/d14/memberlist_8cpp.html" target="_top" xlink:title=" ">
<polygon fill="white" stroke="#666666" points="4072.5,-19 3962.5,-19 3962.5,0 4072.5,0 4072.5,-19"/>
<text text-anchor="middle" x="4017.5" y="-7" font-family="Helvetica,sans-Serif" font-size="10.00">src/memberlist.cpp</text>
</a>
</g>
</g>
<!-- Node3&#45;&gt;Node36 -->
<g id="edge36_Node000003_Node000036" class="edge">
<title>Node3&#45;&gt;Node36</title>
<g id="a_edge36_Node000003_Node000036"><a xlink:title=" ">
<path fill="none" stroke="#63b8ff" d="M2963.8,-62.9C3118.65,-60.81 3575.66,-52.08 3953.5,-19 3956.4,-18.75 3959.38,-18.46 3962.38,-18.14"/>
<polygon fill="#63b8ff" stroke="#63b8ff" points="2963.56,-59.4 2953.6,-63.03 2963.65,-66.4 2963.56,-59.4"/>
</a>
</g>
</g>
<!-- Node37 -->
<g id="Node000037" class="node">
<title>Node37</title>
<g id="a_Node000037"><a xlink:href="../../dd/d5c/moduledef_8cpp.html" target="_top" xlink:title=" ">
<polygon fill="white" stroke="#666666" points="4196.5,-19 4090.5,-19 4090.5,0 4196.5,0 4196.5,-19"/>
<text text-anchor="middle" x="4143.5" y="-7" font-family="Helvetica,sans-Serif" font-size="10.00">src/moduledef.cpp</text>
</a>
</g>
</g>
<!-- Node3&#45;&gt;Node37 -->
<g id="edge37_Node000003_Node000037" class="edge">
<title>Node3&#45;&gt;Node37</title>
<g id="a_edge37_Node000003_Node000037"><a xlink:title=" ">
<path fill="none" stroke="#63b8ff" d="M2963.79,-63.33C3130.84,-62.42 3651.84,-56.52 4081.5,-19 4084.42,-18.74 4087.42,-18.45 4090.44,-18.12"/>
<polygon fill="#63b8ff" stroke="#63b8ff" points="2963.75,-59.83 2953.77,-63.38 2963.79,-66.83 2963.75,-59.83"/>
</a>
</g>
</g>
<!-- Node38 -->
<g id="Node000038" class="node">
<title>Node38</title>
<g id="a_Node000038"><a xlink:href="../../d7/d1c/namespacedef_8cpp.html" target="_top" xlink:title=" ">
<polygon fill="white" stroke="#666666" points="4340,-19 4215,-19 4215,0 4340,0 4340,-19"/>
<text text-anchor="middle" x="4277.5" y="-7" font-family="Helvetica,sans-Serif" font-size="10.00">src/namespacedef.cpp</text>
</a>
</g>
</g>
<!-- Node3&#45;&gt;Node38 -->
<g id="edge38_Node000003_Node000038" class="edge">
<title>Node3&#45;&gt;Node38</title>
<g id="a_edge38_Node000003_Node000038"><a xlink:title=" ">
<path fill="none" stroke="#63b8ff" d="M2963.95,-63.25C3142.31,-62.09 3725.13,-55.54 4205.5,-19 4208.51,-18.77 4211.59,-18.51 4214.7,-18.23"/>
<polygon fill="#63b8ff" stroke="#63b8ff" points="2963.75,-59.75 2953.77,-63.31 2963.79,-66.75 2963.75,-59.75"/>
</a>
</g>
</g>
<!-- Node39 -->
<g id="Node000039" class="node">
<title>Node39</title>
<g id="a_Node000039"><a xlink:href="../../d9/db4/pagedef_8cpp.html" target="_top" xlink:title=" ">
<polygon fill="white" stroke="#666666" points="4451,-19 4358,-19 4358,0 4451,0 4451,-19"/>
<text text-anchor="middle" x="4404.5" y="-7" font-family="Helvetica,sans-Serif" font-size="10.00">src/pagedef.cpp</text>
</a>
</g>
</g>
<!-- Node3&#45;&gt;Node39 -->
<g id="edge39_Node000003_Node000039" class="edge">
<title>Node3&#45;&gt;Node39</title>
<g id="a_edge39_Node000003_Node000039"><a xlink:title=" ">
<path fill="none" stroke="#63b8ff" d="M2963.68,-62.71C3191.5,-59.28 4072.78,-44.56 4349.5,-19 4352.19,-18.75 4354.96,-18.46 4357.74,-18.13"/>
<polygon fill="#63b8ff" stroke="#63b8ff" points="2963.59,-59.22 2953.64,-62.87 2963.69,-66.21 2963.59,-59.22"/>
</a>
</g>
</g>
<!-- Node40 -->
<g id="Node000040" class="node">
<title>Node40</title>
<g id="a_Node000040"><a xlink:href="../../de/d2b/pyscanner_8l.html" target="_top" xlink:title=" ">
<polygon fill="white" stroke="#666666" points="4558,-19 4469,-19 4469,0 4558,0 4558,-19"/>
<text text-anchor="middle" x="4513.5" y="-7" font-family="Helvetica,sans-Serif" font-size="10.00">src/pyscanner.l</text>
</a>
</g>
</g>
<!-- Node3&#45;&gt;Node40 -->
<g id="edge40_Node000003_Node000040" class="edge">
<title>Node3&#45;&gt;Node40</title>
<g id="a_edge40_Node000003_Node000040"><a xlink:title=" ">
<path fill="none" stroke="#63b8ff" d="M2963.88,-62.89C3202.83,-60.07 4160.89,-47.2 4460.5,-19 4463.19,-18.75 4465.95,-18.44 4468.73,-18.1"/>
<polygon fill="#63b8ff" stroke="#63b8ff" points="2963.67,-59.39 2953.71,-63.01 2963.75,-66.39 2963.67,-59.39"/>
</a>
</g>
</g>
<!-- Node41 -->
<g id="Node000041" class="node">
<title>Node41</title>
<g id="a_Node000041"><a xlink:href="../../de/d9a/rtfdocvisitor_8cpp.html" target="_top" xlink:title=" ">
<polygon fill="white" stroke="#666666" points="4689,-19 4576,-19 4576,0 4689,0 4689,-19"/>
<text text-anchor="middle" x="4632.5" y="-7" font-family="Helvetica,sans-Serif" font-size="10.00">src/rtfdocvisitor.cpp</text>
</a>
</g>
</g>
<!-- Node3&#45;&gt;Node41 -->
<g id="edge41_Node000003_Node000041" class="edge">
<title>Node3&#45;&gt;Node41</title>
<g id="a_edge41_Node000003_Node000041"><a xlink:title=" ">
<path fill="none" stroke="#63b8ff" d="M2963.91,-62.8C3212.89,-59.46 4245.23,-44.33 4567.5,-19 4570.22,-18.79 4573.01,-18.54 4575.82,-18.26"/>
<polygon fill="#63b8ff" stroke="#63b8ff" points="2963.62,-59.3 2953.67,-62.93 2963.72,-66.3 2963.62,-59.3"/>
</a>
</g>
</g>
<!-- Node42 -->
<g id="Node000042" class="node">
<title>Node42</title>
<g id="a_Node000042"><a xlink:href="../../d0/d9c/rtfgen_8cpp.html" target="_top" xlink:title=" ">
<polygon fill="white" stroke="#666666" points="4790,-19 4707,-19 4707,0 4790,0 4790,-19"/>
<text text-anchor="middle" x="4748.5" y="-7" font-family="Helvetica,sans-Serif" font-size="10.00">src/rtfgen.cpp</text>
</a>
</g>
</g>
<!-- Node3&#45;&gt;Node42 -->
<g id="edge42_Node000003_Node000042" class="edge">
<title>Node3&#45;&gt;Node42</title>
<g id="a_edge42_Node000003_Node000042"><a xlink:title=" ">
<path fill="none" stroke="#63b8ff" d="M2963.93,-63.2C3224.86,-61.6 4349.46,-52.83 4698.5,-19 4701.22,-18.74 4704.01,-18.41 4706.82,-18.05"/>
<polygon fill="#63b8ff" stroke="#63b8ff" points="2963.56,-59.7 2953.58,-63.26 2963.6,-66.7 2963.56,-59.7"/>
</a>
</g>
</g>
<!-- Node43 -->
<g id="Node000043" class="node">
<title>Node43</title>
<g id="a_Node000043"><a xlink:href="../../da/d11/scanner_8l.html" target="_top" xlink:title=" ">
<polygon fill="white" stroke="#666666" points="4885,-19 4808,-19 4808,0 4885,0 4885,-19"/>
<text text-anchor="middle" x="4846.5" y="-7" font-family="Helvetica,sans-Serif" font-size="10.00">src/scanner.l</text>
</a>
</g>
</g>
<!-- Node3&#45;&gt;Node43 -->
<g id="edge43_Node000003_Node000043" class="edge">
<title>Node3&#45;&gt;Node43</title>
<g id="a_edge43_Node000003_Node000043"><a xlink:title=" ">
<path fill="none" stroke="#63b8ff" d="M2963.93,-63.36C3233.73,-62.5 4429.54,-56.58 4799.5,-19 4802.22,-18.72 4805.02,-18.38 4807.84,-17.98"/>
<polygon fill="#63b8ff" stroke="#63b8ff" points="2963.6,-59.86 2953.61,-63.39 2963.62,-66.86 2963.6,-59.86"/>
</a>
</g>
</g>
<!-- Node44 -->
<g id="Node000044" class="node">
<title>Node44</title>
<g id="a_Node000044"><a xlink:href="../../d7/d79/searchindex_8cpp.html" target="_top" xlink:title=" ">
<polygon fill="white" stroke="#666666" points="5016,-19 4903,-19 4903,0 5016,0 5016,-19"/>
<text text-anchor="middle" x="4959.5" y="-7" font-family="Helvetica,sans-Serif" font-size="10.00">src/searchindex.cpp</text>
</a>
</g>
</g>
<!-- Node3&#45;&gt;Node44 -->
<g id="edge44_Node000003_Node000044" class="edge">
<title>Node3&#45;&gt;Node44</title>
<g id="a_edge44_Node000003_Node000044"><a xlink:title=" ">
<path fill="none" stroke="#63b8ff" d="M2963.92,-63.07C3241.74,-60.77 4503.83,-48.84 4894.5,-19 4897.22,-18.79 4900.01,-18.55 4902.82,-18.28"/>
<polygon fill="#63b8ff" stroke="#63b8ff" points="2963.67,-59.58 2953.7,-63.16 2963.73,-66.57 2963.67,-59.58"/>
</a>
</g>
</g>
<!-- Node45 -->
<g id="Node000045" class="node">
<title>Node45</title>
<g id="a_Node000045"><a xlink:href="../../d9/d2f/searchindex__js_8cpp.html" target="_top" xlink:title=" ">
<polygon fill="white" stroke="#666666" points="5161,-19 5034,-19 5034,0 5161,0 5161,-19"/>
<text text-anchor="middle" x="5097.5" y="-7" font-family="Helvetica,sans-Serif" font-size="10.00">src/searchindex_js.cpp</text>
</a>
</g>
</g>
<!-- Node3&#45;&gt;Node45 -->
<g id="edge45_Node000003_Node000045" class="edge">
<title>Node3&#45;&gt;Node45</title>
<g id="a_edge45_Node000003_Node000045"><a xlink:title=" ">
<path fill="none" stroke="#63b8ff" d="M2963.75,-63.07C3252.05,-60.67 4607.06,-48.03 5025.5,-19 5028.26,-18.81 5031.08,-18.59 5033.93,-18.34"/>
<polygon fill="#63b8ff" stroke="#63b8ff" points="2963.52,-59.57 2953.55,-63.15 2963.58,-66.57 2963.52,-59.57"/>
</a>
</g>
</g>
<!-- Node46 -->
<g id="Node000046" class="node">
<title>Node46</title>
<g id="a_Node000046"><a xlink:href="../../d3/d25/sitemap_8cpp.html" target="_top" xlink:title=" ">
<polygon fill="white" stroke="#666666" points="5273.5,-19 5179.5,-19 5179.5,0 5273.5,0 5273.5,-19"/>
<text text-anchor="middle" x="5226.5" y="-7" font-family="Helvetica,sans-Serif" font-size="10.00">src/sitemap.cpp</text>
</a>
</g>
</g>
<!-- Node3&#45;&gt;Node46 -->
<g id="edge46_Node000003_Node000046" class="edge">
<title>Node3&#45;&gt;Node46</title>
<g id="a_edge46_Node000003_Node000046"><a xlink:title=" ">
<path fill="none" stroke="#63b8ff" d="M2964.08,-63.4C3264.79,-62.68 4722.28,-57.26 5170.5,-19 5173.44,-18.75 5176.46,-18.44 5179.5,-18.09"/>
<polygon fill="#63b8ff" stroke="#63b8ff" points="2963.86,-59.9 2953.87,-63.42 2963.88,-66.9 2963.86,-59.9"/>
</a>
</g>
</g>
<!-- Node47 -->
<g id="Node000047" class="node">
<title>Node47</title>
<g id="a_Node000047"><a xlink:href="../../d8/df8/sqlite3gen_8cpp.html" target="_top" xlink:title=" ">
<polygon fill="white" stroke="#666666" points="5397,-19 5292,-19 5292,0 5397,0 5397,-19"/>
<text text-anchor="middle" x="5344.5" y="-7" font-family="Helvetica,sans-Serif" font-size="10.00">src/sqlite3gen.cpp</text>
</a>
</g>
</g>
<!-- Node3&#45;&gt;Node47 -->
<g id="edge47_Node000003_Node000047" class="edge">
<title>Node3&#45;&gt;Node47</title>
<g id="a_edge47_Node000003_Node000047"><a xlink:title=" ">
<path fill="none" stroke="#63b8ff" d="M2963.79,-63.35C3272.56,-62.37 4810.29,-55.67 5282.5,-19 5285.53,-18.76 5288.64,-18.48 5291.78,-18.16"/>
<polygon fill="#63b8ff" stroke="#63b8ff" points="2963.73,-59.85 2953.75,-63.38 2963.76,-66.85 2963.73,-59.85"/>
</a>
</g>
</g>
<!-- Node48 -->
<g id="Node000048" class="node">
<title>Node48</title>
<g id="a_Node000048"><a xlink:href="../../df/d2d/util_8cpp.html" target="_top" xlink:title=" ">
<polygon fill="white" stroke="#666666" points="5485.5,-19 5415.5,-19 5415.5,0 5485.5,0 5485.5,-19"/>
<text text-anchor="middle" x="5450.5" y="-7" font-family="Helvetica,sans-Serif" font-size="10.00">src/util.cpp</text>
</a>
</g>
</g>
<!-- Node3&#45;&gt;Node48 -->
<g id="edge48_Node000003_Node000048" class="edge">
<title>Node3&#45;&gt;Node48</title>
<g id="a_edge48_Node000003_Node000048"><a xlink:title=" ">
<path fill="none" stroke="#63b8ff" d="M2963.66,-63.1C3305.35,-60.49 5156.16,-45.21 5406.5,-19 5409.29,-18.71 5412.16,-18.33 5415.04,-17.9"/>
<polygon fill="#63b8ff" stroke="#63b8ff" points="2963.5,-59.6 2953.53,-63.18 2963.55,-66.6 2963.5,-59.6"/>
</a>
</g>
</g>
<!-- Node49 -->
<g id="Node000049" class="node">
<title>Node49</title>
<g id="a_Node000049"><a xlink:href="../../de/dea/vhdldocgen_8cpp.html" target="_top" xlink:title=" ">
<polygon fill="white" stroke="#666666" points="5613.5,-19 5503.5,-19 5503.5,0 5613.5,0 5613.5,-19"/>
<text text-anchor="middle" x="5558.5" y="-7" font-family="Helvetica,sans-Serif" font-size="10.00">src/vhdldocgen.cpp</text>
</a>
</g>
</g>
<!-- Node3&#45;&gt;Node49 -->
<g id="edge49_Node000003_Node000049" class="edge">
<title>Node3&#45;&gt;Node49</title>
<g id="a_edge49_Node000003_Node000049"><a xlink:title=" ">
<path fill="none" stroke="#63b8ff" d="M2963.89,-63.42C3288.88,-62.78 4977.54,-57.65 5494.5,-19 5497.41,-18.78 5500.38,-18.52 5503.38,-18.23"/>
<polygon fill="#63b8ff" stroke="#63b8ff" points="2963.78,-59.92 2953.79,-63.43 2963.79,-66.92 2963.78,-59.92"/>
</a>
</g>
</g>
<!-- Node50 -->
<g id="Node000050" class="node">
<title>Node50</title>
<g id="a_Node000050"><a xlink:href="../../d1/d86/vhdljjparser_8cpp.html" target="_top" xlink:title=" ">
<polygon fill="white" stroke="#666666" points="5743,-19 5632,-19 5632,0 5743,0 5743,-19"/>
<text text-anchor="middle" x="5687.5" y="-7" font-family="Helvetica,sans-Serif" font-size="10.00">src/vhdljjparser.cpp</text>
</a>
</g>
</g>
<!-- Node3&#45;&gt;Node50 -->
<g id="edge50_Node000003_Node000050" class="edge">
<title>Node3&#45;&gt;Node50</title>
<g id="a_edge50_Node000003_Node000050"><a xlink:title=" ">
<path fill="none" stroke="#63b8ff" d="M2964.41,-63.45C3300.06,-63.02 5078.73,-58.88 5622.5,-19 5625.56,-18.78 5628.71,-18.5 5631.87,-18.2"/>
<polygon fill="#63b8ff" stroke="#63b8ff" points="2963.98,-59.95 2953.99,-63.46 2963.99,-66.95 2963.98,-59.95"/>
</a>
</g>
</g>
<!-- Node51 -->
<g id="Node000051" class="node">
<title>Node51</title>
<g id="a_Node000051"><a xlink:href="../../dd/db6/xmldocvisitor_8cpp.html" target="_top" xlink:title=" ">
<polygon fill="white" stroke="#666666" points="5881.5,-19 5761.5,-19 5761.5,0 5881.5,0 5881.5,-19"/>
<text text-anchor="middle" x="5821.5" y="-7" font-family="Helvetica,sans-Serif" font-size="10.00">src/xmldocvisitor.cpp</text>
</a>
</g>
</g>
<!-- Node3&#45;&gt;Node51 -->
<g id="edge51_Node000003_Node000051" class="edge">
<title>Node3&#45;&gt;Node51</title>
<g id="a_edge51_Node000003_Node000051"><a xlink:title=" ">
<path fill="none" stroke="#63b8ff" d="M2963.74,-63.44C3306.93,-62.97 5180.71,-58.58 5752.5,-19 5755.39,-18.8 5758.34,-18.56 5761.33,-18.3"/>
<polygon fill="#63b8ff" stroke="#63b8ff" points="2963.56,-59.94 2953.57,-63.46 2963.57,-66.94 2963.56,-59.94"/>
</a>
</g>
</g>
<!-- Node52 -->
<g id="Node000052" class="node">
<title>Node52</title>
<g id="a_Node000052"><a xlink:href="../../d0/dc3/xmlgen_8cpp.html" target="_top" xlink:title=" ">
<polygon fill="white" stroke="#666666" points="5991,-19 5900,-19 5900,0 5991,0 5991,-19"/>
<text text-anchor="middle" x="5945.5" y="-7" font-family="Helvetica,sans-Serif" font-size="10.00">src/xmlgen.cpp</text>
</a>
</g>
</g>
<!-- Node3&#45;&gt;Node52 -->
<g id="edge52_Node000003_Node000052" class="edge">
<title>Node3&#45;&gt;Node52</title>
<g id="a_edge52_Node000003_Node000052"><a xlink:title=" ">
<path fill="none" stroke="#63b8ff" d="M2963.85,-63.72C3316.99,-64.98 5290.23,-69.62 5890.5,-19 5893.58,-18.74 5896.75,-18.41 5899.94,-18.04"/>
<polygon fill="#63b8ff" stroke="#63b8ff" points="2963.65,-60.22 2953.64,-63.68 2963.62,-67.22 2963.65,-60.22"/>
</a>
</g>
</g>
<!-- Node53&#45;&gt;Node2 -->
<g id="edge54_Node000053_Node000002" class="edge">
<title>Node53&#45;&gt;Node2</title>
<g id="a_edge54_Node000053_Node000002"><a xlink:title=" ">
<path fill="none" stroke="#63b8ff" d="M119.5,-49.97C102.31,-40.28 79.69,-27.52 64.88,-19.17"/>
<polygon fill="#63b8ff" stroke="#63b8ff" points="117.97,-53.12 128.4,-54.98 121.41,-47.02 117.97,-53.12"/>
</a>
</g>
</g>
</g>
</svg>
