<?xml version="1.0" encoding="UTF-8" standalone="no"?>
<!DOCTYPE svg PUBLIC "-//W3C//DTD SVG 1.1//EN"
 "http://www.w3.org/Graphics/SVG/1.1/DTD/svg11.dtd">
<!-- Generated by graphviz version 2.43.0 (0)
 -->
<!-- Title: HtmlHelpIndex Pages: 1 -->
<svg width="272pt" height="170pt"
 viewBox="0.00 0.00 271.50 170.00" xmlns="http://www.w3.org/2000/svg" xmlns:xlink="http://www.w3.org/1999/xlink">
<g id="graph0" class="graph" transform="scale(1 1) rotate(0) translate(4 166)">
<title>HtmlHelpIndex</title>
<!-- Node1 -->
<g id="Node000001" class="node">
<title>Node1</title>
<g id="a_Node000001"><a xlink:title="A helper class for HtmlHelp that manages a two level index in alphabetical order.">
<polygon fill="#999999" stroke="#666666" points="186,-19 96,-19 96,0 186,0 186,-19"/>
<text text-anchor="middle" x="141" y="-7" font-family="Helvetica,sans-Serif" font-size="10.00">HtmlHelpIndex</text>
</a>
</g>
</g>
<!-- Node2 -->
<g id="Node000002" class="node">
<title>Node2</title>
<g id="a_Node000002"><a xlink:href="../../d0/d2c/class_linked_map.html" target="_top" xlink:title=" ">
<polygon fill="white" stroke="#666666" points="142,-85 0,-85 0,-66 142,-66 142,-85"/>
<text text-anchor="middle" x="71" y="-73" font-family="Helvetica,sans-Serif" font-size="10.00">LinkedMap&lt; IndexField &gt;</text>
</a>
</g>
</g>
<!-- Node2&#45;&gt;Node1 -->
<g id="edge1_Node000001_Node000002" class="edge">
<title>Node2&#45;&gt;Node1</title>
<g id="a_edge1_Node000001_Node000002"><a xlink:title=" ">
<path fill="none" stroke="#9a32cd" stroke-dasharray="5,2" d="M88.14,-58.83C101.69,-46.44 120.13,-29.59 131.26,-19.41"/>
<polygon fill="#9a32cd" stroke="#9a32cd" points="85.46,-56.54 80.44,-65.87 90.18,-61.7 85.46,-56.54"/>
</a>
</g>
<text text-anchor="middle" x="131" y="-40" font-family="Helvetica,sans-Serif" font-size="10.00" fill="grey"> m_map</text>
</g>
<!-- Node3 -->
<g id="Node000003" class="node">
<title>Node3</title>
<g id="a_Node000003"><a xlink:href="../../d0/d2c/class_linked_map.html" target="_top" xlink:title="Container class representing a vector of objects with keys.">
<polygon fill="white" stroke="#666666" points="131,-162 11,-162 11,-132 131,-132 131,-162"/>
<text text-anchor="start" x="19" y="-150" font-family="Helvetica,sans-Serif" font-size="10.00">LinkedMap&lt; T, Hash,</text>
<text text-anchor="middle" x="71" y="-139" font-family="Helvetica,sans-Serif" font-size="10.00"> KeyEqual, Map &gt;</text>
</a>
</g>
</g>
<!-- Node3&#45;&gt;Node2 -->
<g id="edge2_Node000002_Node000003" class="edge">
<title>Node3&#45;&gt;Node2</title>
<g id="a_edge2_Node000002_Node000003"><a xlink:title=" ">
<path fill="none" stroke="orange" stroke-dasharray="5,2" d="M71,-121.56C71,-108.95 71,-94.35 71,-85.27"/>
<polygon fill="orange" stroke="orange" points="67.5,-121.94 71,-131.94 74.5,-121.94 67.5,-121.94"/>
</a>
</g>
<text text-anchor="middle" x="109" y="-106" font-family="Helvetica,sans-Serif" font-size="10.00" fill="grey"> &lt; IndexField &gt;</text>
</g>
<!-- Node4 -->
<g id="Node000004" class="node">
<title>Node4</title>
<g id="a_Node000004"><a xlink:href="../../df/d26/class_html_help_recoder.html" target="_top" xlink:title="Helper class to deal with recoding the UTF8 encoded text back to the native encoding specified by CHM...">
<polygon fill="white" stroke="#666666" points="263.5,-85 160.5,-85 160.5,-66 263.5,-66 263.5,-85"/>
<text text-anchor="middle" x="212" y="-73" font-family="Helvetica,sans-Serif" font-size="10.00">HtmlHelpRecoder</text>
</a>
</g>
</g>
<!-- Node4&#45;&gt;Node1 -->
<g id="edge3_Node000001_Node000004" class="edge">
<title>Node4&#45;&gt;Node1</title>
<g id="a_edge3_Node000001_Node000004"><a xlink:title=" ">
<path fill="none" stroke="#9a32cd" stroke-dasharray="5,2" d="M194.62,-58.83C180.87,-46.44 162.17,-29.59 150.88,-19.41"/>
<polygon fill="#9a32cd" stroke="#9a32cd" points="192.65,-61.77 202.42,-65.87 197.34,-56.57 192.65,-61.77"/>
</a>
</g>
<text text-anchor="middle" x="207.5" y="-40" font-family="Helvetica,sans-Serif" font-size="10.00" fill="grey"> m_recoder</text>
</g>
</g>
</svg>
