<?xml version="1.0" encoding="UTF-8" standalone="no"?>
<!DOCTYPE svg PUBLIC "-//W3C//DTD SVG 1.1//EN"
 "http://www.w3.org/Graphics/SVG/1.1/DTD/svg11.dtd">
<!-- Generated by graphviz version 2.43.0 (0)
 -->
<!-- Title: TemplateNodeCreator&lt; T &gt; Pages: 1 -->
<svg width="867pt" height="1009pt"
 viewBox="0.00 0.00 867.00 1008.53" xmlns="http://www.w3.org/2000/svg" xmlns:xlink="http://www.w3.org/1999/xlink">
<g id="graph0" class="graph" transform="scale(1 1) rotate(0) translate(4 1004.53)">
<title>TemplateNodeCreator&lt; T &gt;</title>
<!-- Node1 -->
<g id="Node000001" class="node">
<title>Node1</title>
<g id="a_Node000001"><a xlink:title="Helper class for creating template AST tag nodes and returning the template for a given node.">
<polygon fill="#999999" stroke="#666666" points="276,-506.03 124,-506.03 124,-487.03 276,-487.03 276,-506.03"/>
<text text-anchor="middle" x="200" y="-494.03" font-family="Helvetica,sans-Serif" font-size="10.00">TemplateNodeCreator&lt; T &gt;</text>
</a>
</g>
</g>
<!-- Node3 -->
<g id="Node000003" class="node">
<title>Node3</title>
<g id="a_Node000003"><a xlink:href="../../d8/d78/class_template_node_creator.html" target="_top" xlink:title=" ">
<polygon fill="white" stroke="#666666" points="640.5,-991.53 503.5,-991.53 503.5,-961.53 640.5,-961.53 640.5,-991.53"/>
<text text-anchor="start" x="511.5" y="-979.53" font-family="Helvetica,sans-Serif" font-size="10.00">TemplateNodeCreator</text>
<text text-anchor="middle" x="572" y="-968.53" font-family="Helvetica,sans-Serif" font-size="10.00">&lt; TemplateNodeBlock &gt;</text>
</a>
</g>
</g>
<!-- Node1&#45;&gt;Node3 -->
<g id="edge2_Node000001_Node000003" class="edge">
<title>Node1&#45;&gt;Node3</title>
<g id="a_edge2_Node000001_Node000003"><a xlink:title=" ">
<path fill="none" stroke="orange" stroke-dasharray="5,2" d="M202.21,-516.7C207.4,-595.56 230.37,-881.63 294,-940.53 349.7,-992.08 440.82,-994.06 503.23,-987.8"/>
<polygon fill="orange" stroke="orange" points="205.68,-516.01 201.55,-506.25 198.69,-516.45 205.68,-516.01"/>
</a>
</g>
<text text-anchor="middle" x="378.5" y="-992.53" font-family="Helvetica,sans-Serif" font-size="10.00" fill="grey"> &lt; TemplateNodeBlock &gt;</text>
</g>
<!-- Node5 -->
<g id="Node000005" class="node">
<title>Node5</title>
<g id="a_Node000005"><a xlink:href="../../d8/d78/class_template_node_creator.html" target="_top" xlink:title=" ">
<polygon fill="white" stroke="#666666" points="663,-943.53 481,-943.53 481,-913.53 663,-913.53 663,-943.53"/>
<text text-anchor="start" x="489" y="-931.53" font-family="Helvetica,sans-Serif" font-size="10.00">TemplateNodeCreator</text>
<text text-anchor="middle" x="572" y="-920.53" font-family="Helvetica,sans-Serif" font-size="10.00">&lt; TemplateNodeCloseSubIndex &gt;</text>
</a>
</g>
</g>
<!-- Node1&#45;&gt;Node5 -->
<g id="edge4_Node000001_Node000005" class="edge">
<title>Node1&#45;&gt;Node5</title>
<g id="a_edge4_Node000001_Node000005"><a xlink:title=" ">
<path fill="none" stroke="orange" stroke-dasharray="5,2" d="M202.73,-516.38C209.52,-589.31 236.8,-840.85 294,-892.53 320.85,-916.79 410.55,-925 480.68,-927.62"/>
<polygon fill="orange" stroke="orange" points="206.21,-515.91 201.82,-506.27 199.23,-516.54 206.21,-515.91"/>
</a>
</g>
<text text-anchor="middle" x="378.5" y="-929.53" font-family="Helvetica,sans-Serif" font-size="10.00" fill="grey"> &lt; TemplateNodeCloseSubIndex &gt;</text>
</g>
<!-- Node7 -->
<g id="Node000007" class="node">
<title>Node7</title>
<g id="a_Node000007"><a xlink:href="../../d8/d78/class_template_node_creator.html" target="_top" xlink:title=" ">
<polygon fill="white" stroke="#666666" points="643,-895.53 501,-895.53 501,-865.53 643,-865.53 643,-895.53"/>
<text text-anchor="start" x="509" y="-883.53" font-family="Helvetica,sans-Serif" font-size="10.00">TemplateNodeCreator</text>
<text text-anchor="middle" x="572" y="-872.53" font-family="Helvetica,sans-Serif" font-size="10.00">&lt; TemplateNodeCreate &gt;</text>
</a>
</g>
</g>
<!-- Node1&#45;&gt;Node7 -->
<g id="edge6_Node000001_Node000007" class="edge">
<title>Node1&#45;&gt;Node7</title>
<g id="a_edge6_Node000001_Node000007"><a xlink:title=" ">
<path fill="none" stroke="orange" stroke-dasharray="5,2" d="M203.38,-516.1C211.92,-582.87 243.2,-800.02 294,-844.53 323.91,-870.73 429.18,-878.14 500.98,-880.07"/>
<polygon fill="orange" stroke="orange" points="206.84,-515.57 202.13,-506.08 199.9,-516.44 206.84,-515.57"/>
</a>
</g>
<text text-anchor="middle" x="378.5" y="-880.53" font-family="Helvetica,sans-Serif" font-size="10.00" fill="grey"> &lt; TemplateNodeCreate &gt;</text>
</g>
<!-- Node9 -->
<g id="Node000009" class="node">
<title>Node9</title>
<g id="a_Node000009"><a xlink:href="../../d8/d78/class_template_node_creator.html" target="_top" xlink:title=" ">
<polygon fill="white" stroke="#666666" points="640.5,-847.53 503.5,-847.53 503.5,-817.53 640.5,-817.53 640.5,-847.53"/>
<text text-anchor="start" x="511.5" y="-835.53" font-family="Helvetica,sans-Serif" font-size="10.00">TemplateNodeCreator</text>
<text text-anchor="middle" x="572" y="-824.53" font-family="Helvetica,sans-Serif" font-size="10.00">&lt; TemplateNodeCycle &gt;</text>
</a>
</g>
</g>
<!-- Node1&#45;&gt;Node9 -->
<g id="edge8_Node000001_Node000009" class="edge">
<title>Node1&#45;&gt;Node9</title>
<g id="a_edge8_Node000001_Node000009"><a xlink:title=" ">
<path fill="none" stroke="orange" stroke-dasharray="5,2" d="M200.47,-516.28C200.19,-570.51 207.51,-722.53 294,-795.53 324.73,-821.46 431.78,-829.32 503.45,-831.64"/>
<polygon fill="orange" stroke="orange" points="203.97,-516.31 200.62,-506.25 196.97,-516.2 203.97,-516.31"/>
</a>
</g>
<text text-anchor="middle" x="378.5" y="-832.53" font-family="Helvetica,sans-Serif" font-size="10.00" fill="grey"> &lt; TemplateNodeCycle &gt;</text>
</g>
<!-- Node11 -->
<g id="Node000011" class="node">
<title>Node11</title>
<g id="a_Node000011"><a xlink:href="../../d8/d78/class_template_node_creator.html" target="_top" xlink:title=" ">
<polygon fill="white" stroke="#666666" points="649,-799.53 495,-799.53 495,-769.53 649,-769.53 649,-799.53"/>
<text text-anchor="start" x="503" y="-787.53" font-family="Helvetica,sans-Serif" font-size="10.00">TemplateNodeCreator</text>
<text text-anchor="middle" x="572" y="-776.53" font-family="Helvetica,sans-Serif" font-size="10.00">&lt; TemplateNodeEncoding &gt;</text>
</a>
</g>
</g>
<!-- Node1&#45;&gt;Node11 -->
<g id="edge10_Node000001_Node000011" class="edge">
<title>Node1&#45;&gt;Node11</title>
<g id="a_edge10_Node000001_Node000011"><a xlink:title=" ">
<path fill="none" stroke="orange" stroke-dasharray="5,2" d="M201.84,-516.2C205.04,-564.18 220.39,-687.55 294,-746.53 324.12,-770.66 423.68,-779.47 494.8,-782.69"/>
<polygon fill="orange" stroke="orange" points="205.34,-515.98 201.28,-506.19 198.35,-516.37 205.34,-515.98"/>
</a>
</g>
<text text-anchor="middle" x="378.5" y="-783.53" font-family="Helvetica,sans-Serif" font-size="10.00" fill="grey"> &lt; TemplateNodeEncoding &gt;</text>
</g>
<!-- Node13 -->
<g id="Node000013" class="node">
<title>Node13</title>
<g id="a_Node000013"><a xlink:href="../../d8/d78/class_template_node_creator.html" target="_top" xlink:title=" ">
<polygon fill="white" stroke="#666666" points="643.5,-751.53 500.5,-751.53 500.5,-721.53 643.5,-721.53 643.5,-751.53"/>
<text text-anchor="start" x="508.5" y="-739.53" font-family="Helvetica,sans-Serif" font-size="10.00">TemplateNodeCreator</text>
<text text-anchor="middle" x="572" y="-728.53" font-family="Helvetica,sans-Serif" font-size="10.00">&lt; TemplateNodeExtend &gt;</text>
</a>
</g>
</g>
<!-- Node1&#45;&gt;Node13 -->
<g id="edge12_Node000001_Node000013" class="edge">
<title>Node1&#45;&gt;Node13</title>
<g id="a_edge12_Node000001_Node000013"><a xlink:title=" ">
<path fill="none" stroke="orange" stroke-dasharray="5,2" d="M203.76,-516.28C210.66,-557.61 232.76,-653.14 294,-698.53 325.78,-722.08 429.39,-731.05 500.47,-734.45"/>
<polygon fill="orange" stroke="orange" points="207.18,-515.49 202.2,-506.14 200.26,-516.56 207.18,-515.49"/>
</a>
</g>
<text text-anchor="middle" x="378.5" y="-734.53" font-family="Helvetica,sans-Serif" font-size="10.00" fill="grey"> &lt; TemplateNodeExtend &gt;</text>
</g>
<!-- Node15 -->
<g id="Node000015" class="node">
<title>Node15</title>
<g id="a_Node000015"><a xlink:href="../../d8/d78/class_template_node_creator.html" target="_top" xlink:title=" ">
<polygon fill="white" stroke="#666666" points="634.5,-703.53 509.5,-703.53 509.5,-673.53 634.5,-673.53 634.5,-703.53"/>
<text text-anchor="start" x="517.5" y="-691.53" font-family="Helvetica,sans-Serif" font-size="10.00">TemplateNodeCreator</text>
<text text-anchor="middle" x="572" y="-680.53" font-family="Helvetica,sans-Serif" font-size="10.00">&lt; TemplateNodeFor &gt;</text>
</a>
</g>
</g>
<!-- Node1&#45;&gt;Node15 -->
<g id="edge14_Node000001_Node000015" class="edge">
<title>Node1&#45;&gt;Node15</title>
<g id="a_edge14_Node000001_Node000015"><a xlink:title=" ">
<path fill="none" stroke="orange" stroke-dasharray="5,2" d="M206.46,-516C217.1,-550.01 244.06,-619.72 294,-652.53 328.35,-675.09 438.65,-683.56 509.26,-686.7"/>
<polygon fill="orange" stroke="orange" points="209.78,-514.89 203.57,-506.31 203.07,-516.89 209.78,-514.89"/>
</a>
</g>
<text text-anchor="middle" x="378.5" y="-686.53" font-family="Helvetica,sans-Serif" font-size="10.00" fill="grey"> &lt; TemplateNodeFor &gt;</text>
</g>
<!-- Node17 -->
<g id="Node000017" class="node">
<title>Node17</title>
<g id="a_Node000017"><a xlink:href="../../d8/d78/class_template_node_creator.html" target="_top" xlink:title=" ">
<polygon fill="white" stroke="#666666" points="633.5,-655.53 510.5,-655.53 510.5,-625.53 633.5,-625.53 633.5,-655.53"/>
<text text-anchor="start" x="518.5" y="-643.53" font-family="Helvetica,sans-Serif" font-size="10.00">TemplateNodeCreator</text>
<text text-anchor="middle" x="572" y="-632.53" font-family="Helvetica,sans-Serif" font-size="10.00">&lt; TemplateNodeIf &gt;</text>
</a>
</g>
</g>
<!-- Node1&#45;&gt;Node17 -->
<g id="edge16_Node000001_Node000017" class="edge">
<title>Node1&#45;&gt;Node17</title>
<g id="a_edge16_Node000001_Node000017"><a xlink:title=" ">
<path fill="none" stroke="orange" stroke-dasharray="5,2" d="M212.3,-514.75C227.71,-537.89 257.59,-577.13 294,-596.53 362,-632.76 451.78,-641.01 510.43,-642.03"/>
<polygon fill="orange" stroke="orange" points="215.14,-512.7 206.78,-506.2 209.26,-516.5 215.14,-512.7"/>
</a>
</g>
<text text-anchor="middle" x="378.5" y="-641.53" font-family="Helvetica,sans-Serif" font-size="10.00" fill="grey"> &lt; TemplateNodeIf &gt;</text>
</g>
<!-- Node19 -->
<g id="Node000019" class="node">
<title>Node19</title>
<g id="a_Node000019"><a xlink:href="../../d8/d78/class_template_node_creator.html" target="_top" xlink:title=" ">
<polygon fill="white" stroke="#666666" points="644.5,-607.53 499.5,-607.53 499.5,-577.53 644.5,-577.53 644.5,-607.53"/>
<text text-anchor="start" x="507.5" y="-595.53" font-family="Helvetica,sans-Serif" font-size="10.00">TemplateNodeCreator</text>
<text text-anchor="middle" x="572" y="-584.53" font-family="Helvetica,sans-Serif" font-size="10.00">&lt; TemplateNodeInclude &gt;</text>
</a>
</g>
</g>
<!-- Node1&#45;&gt;Node19 -->
<g id="edge18_Node000001_Node000019" class="edge">
<title>Node1&#45;&gt;Node19</title>
<g id="a_edge18_Node000001_Node000019"><a xlink:title=" ">
<path fill="none" stroke="orange" stroke-dasharray="5,2" d="M223.62,-511.43C241.88,-522.78 268.62,-537.87 294,-546.53 361.59,-569.6 442.53,-581.33 499.41,-587.14"/>
<polygon fill="orange" stroke="orange" points="225.46,-508.45 215.14,-506.05 221.71,-514.37 225.46,-508.45"/>
</a>
</g>
<text text-anchor="middle" x="378.5" y="-584.53" font-family="Helvetica,sans-Serif" font-size="10.00" fill="grey"> &lt; TemplateNodeInclude &gt;</text>
</g>
<!-- Node21 -->
<g id="Node000021" class="node">
<title>Node21</title>
<g id="a_Node000021"><a xlink:href="../../d8/d78/class_template_node_creator.html" target="_top" xlink:title=" ">
<polygon fill="white" stroke="#666666" points="653,-559.53 491,-559.53 491,-529.53 653,-529.53 653,-559.53"/>
<text text-anchor="start" x="499" y="-547.53" font-family="Helvetica,sans-Serif" font-size="10.00">TemplateNodeCreator</text>
<text text-anchor="middle" x="572" y="-536.53" font-family="Helvetica,sans-Serif" font-size="10.00">&lt; TemplateNodeIndexEntry &gt;</text>
</a>
</g>
</g>
<!-- Node1&#45;&gt;Node21 -->
<g id="edge20_Node000001_Node000021" class="edge">
<title>Node1&#45;&gt;Node21</title>
<g id="a_edge20_Node000001_Node000021"><a xlink:title=" ">
<path fill="none" stroke="orange" stroke-dasharray="5,2" d="M268.13,-507.69C276.83,-509.04 285.62,-510.35 294,-511.53 360.19,-520.8 435.51,-529.67 490.88,-535.87"/>
<polygon fill="orange" stroke="orange" points="268.42,-504.2 258,-506.1 267.33,-511.11 268.42,-504.2"/>
</a>
</g>
<text text-anchor="middle" x="378.5" y="-534.53" font-family="Helvetica,sans-Serif" font-size="10.00" fill="grey"> &lt; TemplateNodeIndexEntry &gt;</text>
</g>
<!-- Node23 -->
<g id="Node000023" class="node">
<title>Node23</title>
<g id="a_Node000023"><a xlink:href="../../d8/d78/class_template_node_creator.html" target="_top" xlink:title=" ">
<polygon fill="white" stroke="#666666" points="646.5,-511.53 497.5,-511.53 497.5,-481.53 646.5,-481.53 646.5,-511.53"/>
<text text-anchor="start" x="505.5" y="-499.53" font-family="Helvetica,sans-Serif" font-size="10.00">TemplateNodeCreator</text>
<text text-anchor="middle" x="572" y="-488.53" font-family="Helvetica,sans-Serif" font-size="10.00">&lt; TemplateNodeMarkers &gt;</text>
</a>
</g>
</g>
<!-- Node1&#45;&gt;Node23 -->
<g id="edge22_Node000001_Node000023" class="edge">
<title>Node1&#45;&gt;Node23</title>
<g id="a_edge22_Node000001_Node000023"><a xlink:title=" ">
<path fill="none" stroke="orange" stroke-dasharray="5,2" d="M286.36,-496.53C350.19,-496.53 436.56,-496.53 497.36,-496.53"/>
<polygon fill="orange" stroke="orange" points="286.32,-493.03 276.32,-496.53 286.32,-500.03 286.32,-493.03"/>
</a>
</g>
<text text-anchor="middle" x="378.5" y="-499.53" font-family="Helvetica,sans-Serif" font-size="10.00" fill="grey"> &lt; TemplateNodeMarkers &gt;</text>
</g>
<!-- Node25 -->
<g id="Node000025" class="node">
<title>Node25</title>
<g id="a_Node000025"><a xlink:href="../../d8/d78/class_template_node_creator.html" target="_top" xlink:title=" ">
<polygon fill="white" stroke="#666666" points="637,-463.53 507,-463.53 507,-433.53 637,-433.53 637,-463.53"/>
<text text-anchor="start" x="515" y="-451.53" font-family="Helvetica,sans-Serif" font-size="10.00">TemplateNodeCreator</text>
<text text-anchor="middle" x="572" y="-440.53" font-family="Helvetica,sans-Serif" font-size="10.00">&lt; TemplateNodeMsg &gt;</text>
</a>
</g>
</g>
<!-- Node1&#45;&gt;Node25 -->
<g id="edge24_Node000001_Node000025" class="edge">
<title>Node1&#45;&gt;Node25</title>
<g id="a_edge24_Node000001_Node000025"><a xlink:title=" ">
<path fill="none" stroke="orange" stroke-dasharray="5,2" d="M268.13,-485.36C276.83,-484.01 285.62,-482.7 294,-481.53 366.78,-471.33 450.61,-461.62 506.81,-455.41"/>
<polygon fill="orange" stroke="orange" points="267.33,-481.94 258,-486.95 268.42,-488.86 267.33,-481.94"/>
</a>
</g>
<text text-anchor="middle" x="378.5" y="-484.53" font-family="Helvetica,sans-Serif" font-size="10.00" fill="grey"> &lt; TemplateNodeMsg &gt;</text>
</g>
<!-- Node27 -->
<g id="Node000027" class="node">
<title>Node27</title>
<g id="a_Node000027"><a xlink:href="../../d8/d78/class_template_node_creator.html" target="_top" xlink:title=" ">
<polygon fill="white" stroke="#666666" points="662,-415.53 482,-415.53 482,-385.53 662,-385.53 662,-415.53"/>
<text text-anchor="start" x="490" y="-403.53" font-family="Helvetica,sans-Serif" font-size="10.00">TemplateNodeCreator</text>
<text text-anchor="middle" x="572" y="-392.53" font-family="Helvetica,sans-Serif" font-size="10.00">&lt; TemplateNodeOpenSubIndex &gt;</text>
</a>
</g>
</g>
<!-- Node1&#45;&gt;Node27 -->
<g id="edge26_Node000001_Node000027" class="edge">
<title>Node1&#45;&gt;Node27</title>
<g id="a_edge26_Node000001_Node000027"><a xlink:title=" ">
<path fill="none" stroke="orange" stroke-dasharray="5,2" d="M223.62,-481.62C241.88,-470.28 268.62,-455.19 294,-446.53 354.9,-425.74 426.64,-414.16 481.85,-407.82"/>
<polygon fill="orange" stroke="orange" points="221.71,-478.69 215.14,-487 225.46,-484.6 221.71,-478.69"/>
</a>
</g>
<text text-anchor="middle" x="378.5" y="-449.53" font-family="Helvetica,sans-Serif" font-size="10.00" fill="grey"> &lt; TemplateNodeOpenSubIndex &gt;</text>
</g>
<!-- Node29 -->
<g id="Node000029" class="node">
<title>Node29</title>
<g id="a_Node000029"><a xlink:href="../../d8/d78/class_template_node_creator.html" target="_top" xlink:title=" ">
<polygon fill="white" stroke="#666666" points="642,-367.53 502,-367.53 502,-337.53 642,-337.53 642,-367.53"/>
<text text-anchor="start" x="510" y="-355.53" font-family="Helvetica,sans-Serif" font-size="10.00">TemplateNodeCreator</text>
<text text-anchor="middle" x="572" y="-344.53" font-family="Helvetica,sans-Serif" font-size="10.00">&lt; TemplateNodeRange &gt;</text>
</a>
</g>
</g>
<!-- Node1&#45;&gt;Node29 -->
<g id="edge28_Node000001_Node000029" class="edge">
<title>Node1&#45;&gt;Node29</title>
<g id="a_edge28_Node000001_Node000029"><a xlink:title=" ">
<path fill="none" stroke="orange" stroke-dasharray="5,2" d="M212.27,-478.24C227.64,-455.04 257.49,-415.74 294,-396.53 361.2,-361.18 388.05,-383.66 463,-371.53 475.59,-369.49 488.99,-367.22 501.91,-364.97"/>
<polygon fill="orange" stroke="orange" points="209.22,-476.51 206.76,-486.82 215.11,-480.3 209.22,-476.51"/>
</a>
</g>
<text text-anchor="middle" x="378.5" y="-399.53" font-family="Helvetica,sans-Serif" font-size="10.00" fill="grey"> &lt; TemplateNodeRange &gt;</text>
</g>
<!-- Node31 -->
<g id="Node000031" class="node">
<title>Node31</title>
<g id="a_Node000031"><a xlink:href="../../d8/d78/class_template_node_creator.html" target="_top" xlink:title=" ">
<polygon fill="white" stroke="#666666" points="644,-319.53 500,-319.53 500,-289.53 644,-289.53 644,-319.53"/>
<text text-anchor="start" x="508" y="-307.53" font-family="Helvetica,sans-Serif" font-size="10.00">TemplateNodeCreator</text>
<text text-anchor="middle" x="572" y="-296.53" font-family="Helvetica,sans-Serif" font-size="10.00">&lt; TemplateNodeRepeat &gt;</text>
</a>
</g>
</g>
<!-- Node1&#45;&gt;Node31 -->
<g id="edge30_Node000001_Node000031" class="edge">
<title>Node1&#45;&gt;Node31</title>
<g id="a_edge30_Node000001_Node000031"><a xlink:title=" ">
<path fill="none" stroke="orange" stroke-dasharray="5,2" d="M207.91,-476.97C220.02,-445.86 248.23,-385.74 294,-357.53 358.43,-317.81 390.07,-356.78 463,-336.53 471.44,-334.18 472.74,-331.44 481,-328.53 490,-325.35 499.63,-322.36 509.12,-319.65"/>
<polygon fill="orange" stroke="orange" points="204.51,-476.07 204.29,-486.67 211.07,-478.52 204.51,-476.07"/>
</a>
</g>
<text text-anchor="middle" x="378.5" y="-360.53" font-family="Helvetica,sans-Serif" font-size="10.00" fill="grey"> &lt; TemplateNodeRepeat &gt;</text>
</g>
<!-- Node33 -->
<g id="Node000033" class="node">
<title>Node33</title>
<g id="a_Node000033"><a xlink:href="../../d8/d78/class_template_node_creator.html" target="_top" xlink:title=" ">
<polygon fill="white" stroke="#666666" points="649.5,-271.53 494.5,-271.53 494.5,-241.53 649.5,-241.53 649.5,-271.53"/>
<text text-anchor="start" x="502.5" y="-259.53" font-family="Helvetica,sans-Serif" font-size="10.00">TemplateNodeCreator</text>
<text text-anchor="middle" x="572" y="-248.53" font-family="Helvetica,sans-Serif" font-size="10.00">&lt; TemplateNodeResource &gt;</text>
</a>
</g>
</g>
<!-- Node1&#45;&gt;Node33 -->
<g id="edge32_Node000001_Node000033" class="edge">
<title>Node1&#45;&gt;Node33</title>
<g id="a_edge32_Node000001_Node000033"><a xlink:title=" ">
<path fill="none" stroke="orange" stroke-dasharray="5,2" d="M205.2,-476.84C214.27,-439.63 239.41,-359.35 294,-321.53 356.26,-278.39 395.5,-333.89 463,-299.53 473.37,-294.25 471,-286.47 481,-280.53 486.7,-277.14 492.88,-274.22 499.24,-271.71"/>
<polygon fill="orange" stroke="orange" points="201.72,-476.38 202.89,-486.91 208.54,-477.94 201.72,-476.38"/>
</a>
</g>
<text text-anchor="middle" x="378.5" y="-324.53" font-family="Helvetica,sans-Serif" font-size="10.00" fill="grey"> &lt; TemplateNodeResource &gt;</text>
</g>
<!-- Node35 -->
<g id="Node000035" class="node">
<title>Node35</title>
<g id="a_Node000035"><a xlink:href="../../d8/d78/class_template_node_creator.html" target="_top" xlink:title=" ">
<polygon fill="white" stroke="#666666" points="634.5,-223.53 509.5,-223.53 509.5,-193.53 634.5,-193.53 634.5,-223.53"/>
<text text-anchor="start" x="517.5" y="-211.53" font-family="Helvetica,sans-Serif" font-size="10.00">TemplateNodeCreator</text>
<text text-anchor="middle" x="572" y="-200.53" font-family="Helvetica,sans-Serif" font-size="10.00">&lt; TemplateNodeSet &gt;</text>
</a>
</g>
</g>
<!-- Node1&#45;&gt;Node35 -->
<g id="edge34_Node000001_Node000035" class="edge">
<title>Node1&#45;&gt;Node35</title>
<g id="a_edge34_Node000001_Node000035"><a xlink:title=" ">
<path fill="none" stroke="orange" stroke-dasharray="5,2" d="M203.41,-476.83C209.73,-434.26 230.93,-333.56 294,-284.53 354.11,-237.8 397.92,-296.05 463,-256.53 474.4,-249.61 469.95,-239.99 481,-232.53 489.44,-226.83 499.18,-222.48 509.07,-219.16"/>
<polygon fill="orange" stroke="orange" points="199.91,-476.61 202.02,-486.99 206.84,-477.56 199.91,-476.61"/>
</a>
</g>
<text text-anchor="middle" x="378.5" y="-287.53" font-family="Helvetica,sans-Serif" font-size="10.00" fill="grey"> &lt; TemplateNodeSet &gt;</text>
</g>
<!-- Node37 -->
<g id="Node000037" class="node">
<title>Node37</title>
<g id="a_Node000037"><a xlink:href="../../d8/d78/class_template_node_creator.html" target="_top" xlink:title=" ">
<polygon fill="white" stroke="#666666" points="651,-175.53 493,-175.53 493,-145.53 651,-145.53 651,-175.53"/>
<text text-anchor="start" x="501" y="-163.53" font-family="Helvetica,sans-Serif" font-size="10.00">TemplateNodeCreator</text>
<text text-anchor="middle" x="572" y="-152.53" font-family="Helvetica,sans-Serif" font-size="10.00">&lt; TemplateNodeSpaceless &gt;</text>
</a>
</g>
</g>
<!-- Node1&#45;&gt;Node37 -->
<g id="edge36_Node000001_Node000037" class="edge">
<title>Node1&#45;&gt;Node37</title>
<g id="a_edge36_Node000001_Node000037"><a xlink:title=" ">
<path fill="none" stroke="orange" stroke-dasharray="5,2" d="M201.99,-476.81C205.52,-428.67 221.56,-304.49 294,-241.53 351.96,-191.15 396.97,-244.75 463,-205.53 473.57,-199.25 470.59,-191.07 481,-184.53 486.48,-181.08 492.44,-178.13 498.6,-175.6"/>
<polygon fill="orange" stroke="orange" points="198.49,-476.65 201.36,-486.85 205.48,-477.09 198.49,-476.65"/>
</a>
</g>
<text text-anchor="middle" x="378.5" y="-244.53" font-family="Helvetica,sans-Serif" font-size="10.00" fill="grey"> &lt; TemplateNodeSpaceless &gt;</text>
</g>
<!-- Node39 -->
<g id="Node000039" class="node">
<title>Node39</title>
<g id="a_Node000039"><a xlink:href="../../d8/d78/class_template_node_creator.html" target="_top" xlink:title=" ">
<polygon fill="white" stroke="#666666" points="645.5,-127.53 498.5,-127.53 498.5,-97.53 645.5,-97.53 645.5,-127.53"/>
<text text-anchor="start" x="506.5" y="-115.53" font-family="Helvetica,sans-Serif" font-size="10.00">TemplateNodeCreator</text>
<text text-anchor="middle" x="572" y="-104.53" font-family="Helvetica,sans-Serif" font-size="10.00">&lt; TemplateNodeTabbing &gt;</text>
</a>
</g>
</g>
<!-- Node1&#45;&gt;Node39 -->
<g id="edge38_Node000001_Node000039" class="edge">
<title>Node1&#45;&gt;Node39</title>
<g id="a_edge38_Node000001_Node000039"><a xlink:title=" ">
<path fill="none" stroke="orange" stroke-dasharray="5,2" d="M200.91,-476.65C201.79,-422.59 211.87,-271.53 294,-190.53 309.23,-175.51 428.04,-145.68 505.03,-127.58"/>
<polygon fill="orange" stroke="orange" points="197.41,-476.89 200.84,-486.92 204.41,-476.94 197.41,-476.89"/>
</a>
</g>
<text text-anchor="middle" x="378.5" y="-193.53" font-family="Helvetica,sans-Serif" font-size="10.00" fill="grey"> &lt; TemplateNodeTabbing &gt;</text>
</g>
<!-- Node41 -->
<g id="Node000041" class="node">
<title>Node41</title>
<g id="a_Node000041"><a xlink:href="../../d8/d78/class_template_node_creator.html" target="_top" xlink:title=" ">
<polygon fill="white" stroke="#666666" points="637,-79.53 507,-79.53 507,-49.53 637,-49.53 637,-79.53"/>
<text text-anchor="start" x="515" y="-67.53" font-family="Helvetica,sans-Serif" font-size="10.00">TemplateNodeCreator</text>
<text text-anchor="middle" x="572" y="-56.53" font-family="Helvetica,sans-Serif" font-size="10.00">&lt; TemplateNodeTree &gt;</text>
</a>
</g>
</g>
<!-- Node1&#45;&gt;Node41 -->
<g id="edge40_Node000001_Node000041" class="edge">
<title>Node1&#45;&gt;Node41</title>
<g id="a_edge40_Node000001_Node000041"><a xlink:title=" ">
<path fill="none" stroke="orange" stroke-dasharray="5,2" d="M203.21,-476.68C211.39,-406.97 242.14,-174.77 294,-124.53 350.46,-69.83 444.32,-60.03 506.92,-60.4"/>
<polygon fill="orange" stroke="orange" points="199.72,-476.42 202.06,-486.76 206.68,-477.22 199.72,-476.42"/>
</a>
</g>
<text text-anchor="middle" x="378.5" y="-127.53" font-family="Helvetica,sans-Serif" font-size="10.00" fill="grey"> &lt; TemplateNodeTree &gt;</text>
</g>
<!-- Node43 -->
<g id="Node000043" class="node">
<title>Node43</title>
<g id="a_Node000043"><a xlink:href="../../d8/d78/class_template_node_creator.html" target="_top" xlink:title=" ">
<polygon fill="white" stroke="#666666" points="638,-31.53 506,-31.53 506,-1.53 638,-1.53 638,-31.53"/>
<text text-anchor="start" x="514" y="-19.53" font-family="Helvetica,sans-Serif" font-size="10.00">TemplateNodeCreator</text>
<text text-anchor="middle" x="572" y="-8.53" font-family="Helvetica,sans-Serif" font-size="10.00">&lt; TemplateNodeWith &gt;</text>
</a>
</g>
</g>
<!-- Node1&#45;&gt;Node43 -->
<g id="edge42_Node000001_Node000043" class="edge">
<title>Node1&#45;&gt;Node43</title>
<g id="a_edge42_Node000001_Node000043"><a xlink:title=" ">
<path fill="none" stroke="orange" stroke-dasharray="5,2" d="M202.12,-476.59C206.98,-397.42 229.09,-106.68 294,-47.53 350.69,4.13 443.37,3.71 505.74,-4.11"/>
<polygon fill="orange" stroke="orange" points="198.62,-476.49 201.52,-486.68 205.6,-476.91 198.62,-476.49"/>
</a>
</g>
<text text-anchor="middle" x="378.5" y="-50.53" font-family="Helvetica,sans-Serif" font-size="10.00" fill="grey"> &lt; TemplateNodeWith &gt;</text>
</g>
<!-- Node2 -->
<g id="Node000002" class="node">
<title>Node2</title>
<g id="a_Node000002"><a xlink:href="../../d6/d53/class_template_node.html" target="_top" xlink:title="Base class of all nodes in a template&#39;s AST.">
<polygon fill="white" stroke="#666666" points="87,-506.03 0,-506.03 0,-487.03 87,-487.03 87,-506.03"/>
<text text-anchor="middle" x="43.5" y="-494.03" font-family="Helvetica,sans-Serif" font-size="10.00">TemplateNode</text>
</a>
</g>
</g>
<!-- Node2&#45;&gt;Node1 -->
<g id="edge1_Node000001_Node000002" class="edge">
<title>Node2&#45;&gt;Node1</title>
<g id="a_edge1_Node000001_Node000002"><a xlink:title=" ">
<path fill="none" stroke="#63b8ff" d="M97.33,-496.53C105.9,-496.53 114.92,-496.53 123.9,-496.53"/>
<polygon fill="#63b8ff" stroke="#63b8ff" points="97.13,-493.03 87.13,-496.53 97.13,-500.03 97.13,-493.03"/>
</a>
</g>
</g>
<!-- Node4 -->
<g id="Node000004" class="node">
<title>Node4</title>
<g id="a_Node000004"><a xlink:href="../../d2/de0/class_template_node_block.html" target="_top" xlink:title="Class representing a &#39;block&#39; tag in a template.">
<polygon fill="white" stroke="#666666" points="836.5,-986.03 722.5,-986.03 722.5,-967.03 836.5,-967.03 836.5,-986.03"/>
<text text-anchor="middle" x="779.5" y="-974.03" font-family="Helvetica,sans-Serif" font-size="10.00">TemplateNodeBlock</text>
</a>
</g>
</g>
<!-- Node3&#45;&gt;Node4 -->
<g id="edge3_Node000003_Node000004" class="edge">
<title>Node3&#45;&gt;Node4</title>
<g id="a_edge3_Node000003_Node000004"><a xlink:title=" ">
<path fill="none" stroke="#63b8ff" d="M650.64,-976.53C674.43,-976.53 700.14,-976.53 722.22,-976.53"/>
<polygon fill="#63b8ff" stroke="#63b8ff" points="650.57,-973.03 640.57,-976.53 650.57,-980.03 650.57,-973.03"/>
</a>
</g>
</g>
<!-- Node6 -->
<g id="Node000006" class="node">
<title>Node6</title>
<g id="a_Node000006"><a xlink:href="../../dd/dff/class_template_node_close_sub_index.html" target="_top" xlink:title="Class representing an &#39;closesubindex&#39; tag in a template.">
<polygon fill="white" stroke="#666666" points="859,-938.03 700,-938.03 700,-919.03 859,-919.03 859,-938.03"/>
<text text-anchor="middle" x="779.5" y="-926.03" font-family="Helvetica,sans-Serif" font-size="10.00">TemplateNodeCloseSubIndex</text>
</a>
</g>
</g>
<!-- Node5&#45;&gt;Node6 -->
<g id="edge5_Node000005_Node000006" class="edge">
<title>Node5&#45;&gt;Node6</title>
<g id="a_edge5_Node000005_Node000006"><a xlink:title=" ">
<path fill="none" stroke="#63b8ff" d="M673.17,-928.53C682.08,-928.53 691.02,-928.53 699.72,-928.53"/>
<polygon fill="#63b8ff" stroke="#63b8ff" points="673.14,-925.03 663.14,-928.53 673.14,-932.03 673.14,-925.03"/>
</a>
</g>
</g>
<!-- Node8 -->
<g id="Node000008" class="node">
<title>Node8</title>
<g id="a_Node000008"><a xlink:href="../../d5/dcd/class_template_node_create.html" target="_top" xlink:title="Class representing an &#39;create&#39; tag in a template.">
<polygon fill="white" stroke="#666666" points="839,-890.03 720,-890.03 720,-871.03 839,-871.03 839,-890.03"/>
<text text-anchor="middle" x="779.5" y="-878.03" font-family="Helvetica,sans-Serif" font-size="10.00">TemplateNodeCreate</text>
</a>
</g>
</g>
<!-- Node7&#45;&gt;Node8 -->
<g id="edge7_Node000007_Node000008" class="edge">
<title>Node7&#45;&gt;Node8</title>
<g id="a_edge7_Node000007_Node000008"><a xlink:title=" ">
<path fill="none" stroke="#63b8ff" d="M653.24,-880.53C675.48,-880.53 699.19,-880.53 719.94,-880.53"/>
<polygon fill="#63b8ff" stroke="#63b8ff" points="653.15,-877.03 643.15,-880.53 653.15,-884.03 653.15,-877.03"/>
</a>
</g>
</g>
<!-- Node10 -->
<g id="Node000010" class="node">
<title>Node10</title>
<g id="a_Node000010"><a xlink:href="../../d3/d37/class_template_node_cycle.html" target="_top" xlink:title="Class representing an &#39;cycle&#39; tag in a template.">
<polygon fill="white" stroke="#666666" points="836.5,-842.03 722.5,-842.03 722.5,-823.03 836.5,-823.03 836.5,-842.03"/>
<text text-anchor="middle" x="779.5" y="-830.03" font-family="Helvetica,sans-Serif" font-size="10.00">TemplateNodeCycle</text>
</a>
</g>
</g>
<!-- Node9&#45;&gt;Node10 -->
<g id="edge9_Node000009_Node000010" class="edge">
<title>Node9&#45;&gt;Node10</title>
<g id="a_edge9_Node000009_Node000010"><a xlink:title=" ">
<path fill="none" stroke="#63b8ff" d="M650.64,-832.53C674.43,-832.53 700.14,-832.53 722.22,-832.53"/>
<polygon fill="#63b8ff" stroke="#63b8ff" points="650.57,-829.03 640.57,-832.53 650.57,-836.03 650.57,-829.03"/>
</a>
</g>
</g>
<!-- Node12 -->
<g id="Node000012" class="node">
<title>Node12</title>
<g id="a_Node000012"><a xlink:href="../../d3/d38/class_template_node_encoding.html" target="_top" xlink:title="Class representing the &#39;encoding&#39; tag in a template.">
<polygon fill="white" stroke="#666666" points="845,-794.03 714,-794.03 714,-775.03 845,-775.03 845,-794.03"/>
<text text-anchor="middle" x="779.5" y="-782.03" font-family="Helvetica,sans-Serif" font-size="10.00">TemplateNodeEncoding</text>
</a>
</g>
</g>
<!-- Node11&#45;&gt;Node12 -->
<g id="edge11_Node000011_Node000012" class="edge">
<title>Node11&#45;&gt;Node12</title>
<g id="a_edge11_Node000011_Node000012"><a xlink:title=" ">
<path fill="none" stroke="#63b8ff" d="M659.29,-784.53C677.56,-784.53 696.55,-784.53 713.85,-784.53"/>
<polygon fill="#63b8ff" stroke="#63b8ff" points="659.23,-781.03 649.23,-784.53 659.23,-788.03 659.23,-781.03"/>
</a>
</g>
</g>
<!-- Node14 -->
<g id="Node000014" class="node">
<title>Node14</title>
<g id="a_Node000014"><a xlink:href="../../d0/d21/class_template_node_extend.html" target="_top" xlink:title="Class representing a &#39;extend&#39; tag in a template.">
<polygon fill="white" stroke="#666666" points="840,-746.03 719,-746.03 719,-727.03 840,-727.03 840,-746.03"/>
<text text-anchor="middle" x="779.5" y="-734.03" font-family="Helvetica,sans-Serif" font-size="10.00">TemplateNodeExtend</text>
</a>
</g>
</g>
<!-- Node13&#45;&gt;Node14 -->
<g id="edge13_Node000013_Node000014" class="edge">
<title>Node13&#45;&gt;Node14</title>
<g id="a_edge13_Node000013_Node000014"><a xlink:title=" ">
<path fill="none" stroke="#63b8ff" d="M653.9,-736.53C675.59,-736.53 698.63,-736.53 718.93,-736.53"/>
<polygon fill="#63b8ff" stroke="#63b8ff" points="653.72,-733.03 643.72,-736.53 653.72,-740.03 653.72,-733.03"/>
</a>
</g>
</g>
<!-- Node16 -->
<g id="Node000016" class="node">
<title>Node16</title>
<g id="a_Node000016"><a xlink:href="../../d5/da1/class_template_node_for.html" target="_top" xlink:title="Class representing a &#39;for&#39; tag in a template.">
<polygon fill="white" stroke="#666666" points="830.5,-698.03 728.5,-698.03 728.5,-679.03 830.5,-679.03 830.5,-698.03"/>
<text text-anchor="middle" x="779.5" y="-686.03" font-family="Helvetica,sans-Serif" font-size="10.00">TemplateNodeFor</text>
</a>
</g>
</g>
<!-- Node15&#45;&gt;Node16 -->
<g id="edge15_Node000015_Node000016" class="edge">
<title>Node15&#45;&gt;Node16</title>
<g id="a_edge15_Node000015_Node000016"><a xlink:title=" ">
<path fill="none" stroke="#63b8ff" d="M645.02,-688.53C672.51,-688.53 703.24,-688.53 728.28,-688.53"/>
<polygon fill="#63b8ff" stroke="#63b8ff" points="644.66,-685.03 634.66,-688.53 644.66,-692.03 644.66,-685.03"/>
</a>
</g>
</g>
<!-- Node18 -->
<g id="Node000018" class="node">
<title>Node18</title>
<g id="a_Node000018"><a xlink:href="../../d8/d38/class_template_node_if.html" target="_top" xlink:title="Class representing an &#39;if&#39; tag in a template.">
<polygon fill="white" stroke="#666666" points="826.5,-650.03 732.5,-650.03 732.5,-631.03 826.5,-631.03 826.5,-650.03"/>
<text text-anchor="middle" x="779.5" y="-638.03" font-family="Helvetica,sans-Serif" font-size="10.00">TemplateNodeIf</text>
</a>
</g>
</g>
<!-- Node17&#45;&gt;Node18 -->
<g id="edge17_Node000017_Node000018" class="edge">
<title>Node17&#45;&gt;Node18</title>
<g id="a_edge17_Node000017_Node000018"><a xlink:title=" ">
<path fill="none" stroke="#63b8ff" d="M643.74,-640.53C673.09,-640.53 706.3,-640.53 732.41,-640.53"/>
<polygon fill="#63b8ff" stroke="#63b8ff" points="643.55,-637.03 633.55,-640.53 643.55,-644.03 643.55,-637.03"/>
</a>
</g>
</g>
<!-- Node20 -->
<g id="Node000020" class="node">
<title>Node20</title>
<g id="a_Node000020"><a xlink:href="../../da/d4b/class_template_node_include.html" target="_top" xlink:title="Class representing an &#39;include&#39; tag in a template.">
<polygon fill="white" stroke="#666666" points="840.5,-602.03 718.5,-602.03 718.5,-583.03 840.5,-583.03 840.5,-602.03"/>
<text text-anchor="middle" x="779.5" y="-590.03" font-family="Helvetica,sans-Serif" font-size="10.00">TemplateNodeInclude</text>
</a>
</g>
</g>
<!-- Node19&#45;&gt;Node20 -->
<g id="edge19_Node000019_Node000020" class="edge">
<title>Node19&#45;&gt;Node20</title>
<g id="a_edge19_Node000019_Node000020"><a xlink:title=" ">
<path fill="none" stroke="#63b8ff" d="M654.59,-592.53C675.89,-592.53 698.46,-592.53 718.41,-592.53"/>
<polygon fill="#63b8ff" stroke="#63b8ff" points="654.59,-589.03 644.59,-592.53 654.59,-596.03 654.59,-589.03"/>
</a>
</g>
</g>
<!-- Node22 -->
<g id="Node000022" class="node">
<title>Node22</title>
<g id="a_Node000022"><a xlink:href="../../da/ddd/class_template_node_index_entry.html" target="_top" xlink:title="Class representing an &#39;indexentry&#39; tag in a template.">
<polygon fill="white" stroke="#666666" points="849.5,-554.03 709.5,-554.03 709.5,-535.03 849.5,-535.03 849.5,-554.03"/>
<text text-anchor="middle" x="779.5" y="-542.03" font-family="Helvetica,sans-Serif" font-size="10.00">TemplateNodeIndexEntry</text>
</a>
</g>
</g>
<!-- Node21&#45;&gt;Node22 -->
<g id="edge21_Node000021_Node000022" class="edge">
<title>Node21&#45;&gt;Node22</title>
<g id="a_edge21_Node000021_Node000022"><a xlink:title=" ">
<path fill="none" stroke="#63b8ff" d="M663.15,-544.53C678.64,-544.53 694.52,-544.53 709.35,-544.53"/>
<polygon fill="#63b8ff" stroke="#63b8ff" points="663.04,-541.03 653.04,-544.53 663.04,-548.03 663.04,-541.03"/>
</a>
</g>
</g>
<!-- Node24 -->
<g id="Node000024" class="node">
<title>Node24</title>
<g id="a_Node000024"><a xlink:href="../../d9/d8f/class_template_node_markers.html" target="_top" xlink:title="Class representing an &#39;markers&#39; tag in a template.">
<polygon fill="white" stroke="#666666" points="842.5,-506.03 716.5,-506.03 716.5,-487.03 842.5,-487.03 842.5,-506.03"/>
<text text-anchor="middle" x="779.5" y="-494.03" font-family="Helvetica,sans-Serif" font-size="10.00">TemplateNodeMarkers</text>
</a>
</g>
</g>
<!-- Node23&#45;&gt;Node24 -->
<g id="edge23_Node000023_Node000024" class="edge">
<title>Node23&#45;&gt;Node24</title>
<g id="a_edge23_Node000023_Node000024"><a xlink:title=" ">
<path fill="none" stroke="#63b8ff" d="M656.61,-496.53C676.55,-496.53 697.48,-496.53 716.26,-496.53"/>
<polygon fill="#63b8ff" stroke="#63b8ff" points="656.61,-493.03 646.61,-496.53 656.61,-500.03 656.61,-493.03"/>
</a>
</g>
</g>
<!-- Node26 -->
<g id="Node000026" class="node">
<title>Node26</title>
<g id="a_Node000026"><a xlink:href="../../d4/d50/class_template_node_msg.html" target="_top" xlink:title="Class representing an &#39;markers&#39; tag in a template.">
<polygon fill="white" stroke="#666666" points="833,-458.03 726,-458.03 726,-439.03 833,-439.03 833,-458.03"/>
<text text-anchor="middle" x="779.5" y="-446.03" font-family="Helvetica,sans-Serif" font-size="10.00">TemplateNodeMsg</text>
</a>
</g>
</g>
<!-- Node25&#45;&gt;Node26 -->
<g id="edge25_Node000025_Node000026" class="edge">
<title>Node25&#45;&gt;Node26</title>
<g id="a_edge25_Node000025_Node000026"><a xlink:title=" ">
<path fill="none" stroke="#63b8ff" d="M647.37,-448.53C673.36,-448.53 701.97,-448.53 725.82,-448.53"/>
<polygon fill="#63b8ff" stroke="#63b8ff" points="647.18,-445.03 637.18,-448.53 647.18,-452.03 647.18,-445.03"/>
</a>
</g>
</g>
<!-- Node28 -->
<g id="Node000028" class="node">
<title>Node28</title>
<g id="a_Node000028"><a xlink:href="../../d6/d20/class_template_node_open_sub_index.html" target="_top" xlink:title="Class representing an &#39;opensubindex&#39; tag in a template.">
<polygon fill="white" stroke="#666666" points="858.5,-410.03 700.5,-410.03 700.5,-391.03 858.5,-391.03 858.5,-410.03"/>
<text text-anchor="middle" x="779.5" y="-398.03" font-family="Helvetica,sans-Serif" font-size="10.00">TemplateNodeOpenSubIndex</text>
</a>
</g>
</g>
<!-- Node27&#45;&gt;Node28 -->
<g id="edge27_Node000027_Node000028" class="edge">
<title>Node27&#45;&gt;Node28</title>
<g id="a_edge27_Node000027_Node000028"><a xlink:title=" ">
<path fill="none" stroke="#63b8ff" d="M672.38,-400.53C681.76,-400.53 691.17,-400.53 700.31,-400.53"/>
<polygon fill="#63b8ff" stroke="#63b8ff" points="672.24,-397.03 662.24,-400.53 672.24,-404.03 672.24,-397.03"/>
</a>
</g>
</g>
<!-- Node30 -->
<g id="Node000030" class="node">
<title>Node30</title>
<g id="a_Node000030"><a xlink:href="../../d6/d83/class_template_node_range.html" target="_top" xlink:title="Class representing a &#39;range&#39; tag in a template.">
<polygon fill="white" stroke="#666666" points="838.5,-362.03 720.5,-362.03 720.5,-343.03 838.5,-343.03 838.5,-362.03"/>
<text text-anchor="middle" x="779.5" y="-350.03" font-family="Helvetica,sans-Serif" font-size="10.00">TemplateNodeRange</text>
</a>
</g>
</g>
<!-- Node29&#45;&gt;Node30 -->
<g id="edge29_Node000029_Node000030" class="edge">
<title>Node29&#45;&gt;Node30</title>
<g id="a_edge29_Node000029_Node000030"><a xlink:title=" ">
<path fill="none" stroke="#63b8ff" d="M652.28,-352.53C674.92,-352.53 699.18,-352.53 720.31,-352.53"/>
<polygon fill="#63b8ff" stroke="#63b8ff" points="652,-349.03 642,-352.53 652,-356.03 652,-349.03"/>
</a>
</g>
</g>
<!-- Node32 -->
<g id="Node000032" class="node">
<title>Node32</title>
<g id="a_Node000032"><a xlink:href="../../db/d54/class_template_node_repeat.html" target="_top" xlink:title="Class representing a &#39;for&#39; tag in a template.">
<polygon fill="white" stroke="#666666" points="840.5,-314.03 718.5,-314.03 718.5,-295.03 840.5,-295.03 840.5,-314.03"/>
<text text-anchor="middle" x="779.5" y="-302.03" font-family="Helvetica,sans-Serif" font-size="10.00">TemplateNodeRepeat</text>
</a>
</g>
</g>
<!-- Node31&#45;&gt;Node32 -->
<g id="edge31_Node000031_Node000032" class="edge">
<title>Node31&#45;&gt;Node32</title>
<g id="a_edge31_Node000031_Node000032"><a xlink:title=" ">
<path fill="none" stroke="#63b8ff" d="M654.09,-304.53C675.53,-304.53 698.3,-304.53 718.42,-304.53"/>
<polygon fill="#63b8ff" stroke="#63b8ff" points="654.01,-301.03 644.01,-304.53 654.01,-308.03 654.01,-301.03"/>
</a>
</g>
</g>
<!-- Node34 -->
<g id="Node000034" class="node">
<title>Node34</title>
<g id="a_Node000034"><a xlink:href="../../d8/d57/class_template_node_resource.html" target="_top" xlink:title="Class representing an &#39;markers&#39; tag in a template.">
<polygon fill="white" stroke="#666666" points="845.5,-266.03 713.5,-266.03 713.5,-247.03 845.5,-247.03 845.5,-266.03"/>
<text text-anchor="middle" x="779.5" y="-254.03" font-family="Helvetica,sans-Serif" font-size="10.00">TemplateNodeResource</text>
</a>
</g>
</g>
<!-- Node33&#45;&gt;Node34 -->
<g id="edge33_Node000033_Node000034" class="edge">
<title>Node33&#45;&gt;Node34</title>
<g id="a_edge33_Node000033_Node000034"><a xlink:title=" ">
<path fill="none" stroke="#63b8ff" d="M659.71,-256.53C677.69,-256.53 696.33,-256.53 713.37,-256.53"/>
<polygon fill="#63b8ff" stroke="#63b8ff" points="659.52,-253.03 649.52,-256.53 659.52,-260.03 659.52,-253.03"/>
</a>
</g>
</g>
<!-- Node36 -->
<g id="Node000036" class="node">
<title>Node36</title>
<g id="a_Node000036"><a xlink:href="../../d3/d86/class_template_node_set.html" target="_top" xlink:title="Class representing an &#39;set&#39; tag in a template.">
<polygon fill="white" stroke="#666666" points="831,-218.03 728,-218.03 728,-199.03 831,-199.03 831,-218.03"/>
<text text-anchor="middle" x="779.5" y="-206.03" font-family="Helvetica,sans-Serif" font-size="10.00">TemplateNodeSet</text>
</a>
</g>
</g>
<!-- Node35&#45;&gt;Node36 -->
<g id="edge35_Node000035_Node000036" class="edge">
<title>Node35&#45;&gt;Node36</title>
<g id="a_edge35_Node000035_Node000036"><a xlink:title=" ">
<path fill="none" stroke="#63b8ff" d="M644.98,-208.53C672.36,-208.53 702.95,-208.53 727.94,-208.53"/>
<polygon fill="#63b8ff" stroke="#63b8ff" points="644.66,-205.03 634.66,-208.53 644.66,-212.03 644.66,-205.03"/>
</a>
</g>
</g>
<!-- Node38 -->
<g id="Node000038" class="node">
<title>Node38</title>
<g id="a_Node000038"><a xlink:href="../../df/dc6/class_template_node_spaceless.html" target="_top" xlink:title="Class representing an &#39;spaceless&#39; tag in a template.">
<polygon fill="white" stroke="#666666" points="847.5,-170.03 711.5,-170.03 711.5,-151.03 847.5,-151.03 847.5,-170.03"/>
<text text-anchor="middle" x="779.5" y="-158.03" font-family="Helvetica,sans-Serif" font-size="10.00">TemplateNodeSpaceless</text>
</a>
</g>
</g>
<!-- Node37&#45;&gt;Node38 -->
<g id="edge37_Node000037_Node000038" class="edge">
<title>Node37&#45;&gt;Node38</title>
<g id="a_edge37_Node000037_Node000038"><a xlink:title=" ">
<path fill="none" stroke="#63b8ff" d="M661.55,-160.53C678.18,-160.53 695.32,-160.53 711.17,-160.53"/>
<polygon fill="#63b8ff" stroke="#63b8ff" points="661.28,-157.03 651.28,-160.53 661.28,-164.03 661.28,-157.03"/>
</a>
</g>
</g>
<!-- Node40 -->
<g id="Node000040" class="node">
<title>Node40</title>
<g id="a_Node000040"><a xlink:href="../../da/da1/class_template_node_tabbing.html" target="_top" xlink:title="Class representing an &#39;tabbing&#39; tag in a template.">
<polygon fill="white" stroke="#666666" points="842,-122.03 717,-122.03 717,-103.03 842,-103.03 842,-122.03"/>
<text text-anchor="middle" x="779.5" y="-110.03" font-family="Helvetica,sans-Serif" font-size="10.00">TemplateNodeTabbing</text>
</a>
</g>
</g>
<!-- Node39&#45;&gt;Node40 -->
<g id="edge39_Node000039_Node000040" class="edge">
<title>Node39&#45;&gt;Node40</title>
<g id="a_edge39_Node000039_Node000040"><a xlink:title=" ">
<path fill="none" stroke="#63b8ff" d="M655.93,-112.53C676.24,-112.53 697.63,-112.53 716.75,-112.53"/>
<polygon fill="#63b8ff" stroke="#63b8ff" points="655.74,-109.03 645.74,-112.53 655.74,-116.03 655.74,-109.03"/>
</a>
</g>
</g>
<!-- Node42 -->
<g id="Node000042" class="node">
<title>Node42</title>
<g id="a_Node000042"><a xlink:href="../../d8/d31/class_template_node_tree.html" target="_top" xlink:title="Class representing an &#39;tree&#39; tag in a template.">
<polygon fill="white" stroke="#666666" points="833,-74.03 726,-74.03 726,-55.03 833,-55.03 833,-74.03"/>
<text text-anchor="middle" x="779.5" y="-62.03" font-family="Helvetica,sans-Serif" font-size="10.00">TemplateNodeTree</text>
</a>
</g>
</g>
<!-- Node41&#45;&gt;Node42 -->
<g id="edge41_Node000041_Node000042" class="edge">
<title>Node41&#45;&gt;Node42</title>
<g id="a_edge41_Node000041_Node000042"><a xlink:title=" ">
<path fill="none" stroke="#63b8ff" d="M647.37,-64.53C673.36,-64.53 701.97,-64.53 725.82,-64.53"/>
<polygon fill="#63b8ff" stroke="#63b8ff" points="647.18,-61.03 637.18,-64.53 647.18,-68.03 647.18,-61.03"/>
</a>
</g>
</g>
<!-- Node44 -->
<g id="Node000044" class="node">
<title>Node44</title>
<g id="a_Node000044"><a xlink:href="../../d6/df7/class_template_node_with.html" target="_top" xlink:title="Class representing an &#39;with&#39; tag in a template.">
<polygon fill="white" stroke="#666666" points="834.5,-26.03 724.5,-26.03 724.5,-7.03 834.5,-7.03 834.5,-26.03"/>
<text text-anchor="middle" x="779.5" y="-14.03" font-family="Helvetica,sans-Serif" font-size="10.00">TemplateNodeWith</text>
</a>
</g>
</g>
<!-- Node43&#45;&gt;Node44 -->
<g id="edge43_Node000043_Node000044" class="edge">
<title>Node43&#45;&gt;Node44</title>
<g id="a_edge43_Node000043_Node000044"><a xlink:title=" ">
<path fill="none" stroke="#63b8ff" d="M648.27,-16.53C673.44,-16.53 700.99,-16.53 724.24,-16.53"/>
<polygon fill="#63b8ff" stroke="#63b8ff" points="648.02,-13.03 638.02,-16.53 648.02,-20.03 648.02,-13.03"/>
</a>
</g>
</g>
</g>
</svg>
