<?xml version="1.0" encoding="UTF-8" standalone="no"?>
<!DOCTYPE svg PUBLIC "-//W3C//DTD SVG 1.1//EN"
 "http://www.w3.org/Graphics/SVG/1.1/DTD/svg11.dtd">
<!-- Generated by graphviz version 2.43.0 (0)
 -->
<!-- Title: TemplateListIntf::ConstIterator Pages: 1 -->
<svg width="288pt" height="93pt"
 viewBox="0.00 0.00 288.00 93.00" xmlns="http://www.w3.org/2000/svg" xmlns:xlink="http://www.w3.org/1999/xlink">
<g id="graph0" class="graph" transform="scale(1 1) rotate(0) translate(4 89)">
<title>TemplateListIntf::ConstIterator</title>
<!-- Node1 -->
<g id="Node000001" class="node">
<title>Node1</title>
<g id="a_Node000001"><a xlink:title="Abstract interface for a iterator of a list.">
<polygon fill="#999999" stroke="#666666" points="215,-85 51,-85 51,-66 215,-66 215,-85"/>
<text text-anchor="middle" x="133" y="-73" font-family="Helvetica,sans-Serif" font-size="10.00">TemplateListIntf::ConstIterator</text>
</a>
</g>
</g>
<!-- Node2 -->
<g id="Node000002" class="node">
<title>Node2</title>
<g id="a_Node000002"><a xlink:href="../../df/d6e/class_generic_const_iterator.html" target="_top" xlink:title="Template List iterator support.">
<polygon fill="white" stroke="#666666" points="118,-24.5 0,-24.5 0,-5.5 118,-5.5 118,-24.5"/>
<text text-anchor="middle" x="59" y="-12.5" font-family="Helvetica,sans-Serif" font-size="10.00">GenericConstIterator</text>
</a>
</g>
</g>
<!-- Node1&#45;&gt;Node2 -->
<g id="edge1_Node000001_Node000002" class="edge">
<title>Node1&#45;&gt;Node2</title>
<g id="a_edge1_Node000001_Node000002"><a xlink:title=" ">
<path fill="none" stroke="#63b8ff" d="M114.07,-59.54C100.1,-48.49 81.57,-33.84 69.96,-24.67"/>
<polygon fill="#63b8ff" stroke="#63b8ff" points="112.07,-62.41 122.08,-65.87 116.41,-56.92 112.07,-62.41"/>
</a>
</g>
</g>
<!-- Node3 -->
<g id="Node000003" class="node">
<title>Node3</title>
<g id="a_Node000003"><a xlink:href="../../d5/d7c/class_template_list_generic_const_iterator.html" target="_top" xlink:title=" ">
<polygon fill="white" stroke="#666666" points="280,-30 136,-30 136,0 280,0 280,-30"/>
<text text-anchor="start" x="144" y="-18" font-family="Helvetica,sans-Serif" font-size="10.00">TemplateListGenericConst</text>
<text text-anchor="middle" x="208" y="-7" font-family="Helvetica,sans-Serif" font-size="10.00">Iterator&lt; List &gt;</text>
</a>
</g>
</g>
<!-- Node1&#45;&gt;Node3 -->
<g id="edge2_Node000001_Node000003" class="edge">
<title>Node1&#45;&gt;Node3</title>
<g id="a_edge2_Node000001_Node000003"><a xlink:title=" ">
<path fill="none" stroke="#63b8ff" d="M152.23,-59.5C163.83,-50.45 178.51,-39 189.9,-30.11"/>
<polygon fill="#63b8ff" stroke="#63b8ff" points="149.8,-56.96 144.07,-65.87 154.1,-62.48 149.8,-56.96"/>
</a>
</g>
</g>
</g>
</svg>
