<?xml version="1.0" encoding="UTF-8" standalone="no"?>
<!DOCTYPE svg PUBLIC "-//W3C//DTD SVG 1.1//EN"
 "http://www.w3.org/Graphics/SVG/1.1/DTD/svg11.dtd">
<!-- Generated by graphviz version 2.43.0 (0)
 -->
<!-- Title: src/defargs.h Pages: 1 -->
<svg width="1773pt" height="82pt"
 viewBox="0.00 0.00 1772.50 82.00" xmlns="http://www.w3.org/2000/svg" xmlns:xlink="http://www.w3.org/1999/xlink">
<g id="graph0" class="graph" transform="scale(1 1) rotate(0) translate(4 78)">
<title>src/defargs.h</title>
<!-- Node1 -->
<g id="Node000001" class="node">
<title>Node1</title>
<g id="a_Node000001"><a xlink:title=" ">
<polygon fill="#999999" stroke="#666666" points="945,-74 865,-74 865,-55 945,-55 945,-74"/>
<text text-anchor="middle" x="905" y="-62" font-family="Helvetica,sans-Serif" font-size="10.00">src/defargs.h</text>
</a>
</g>
</g>
<!-- Node2 -->
<g id="Node000002" class="node">
<title>Node2</title>
<g id="a_Node000002"><a xlink:href="../../de/d89/classdef_8cpp.html" target="_top" xlink:title=" ">
<polygon fill="white" stroke="#666666" points="94,-19 0,-19 0,0 94,0 94,-19"/>
<text text-anchor="middle" x="47" y="-7" font-family="Helvetica,sans-Serif" font-size="10.00">src/classdef.cpp</text>
</a>
</g>
</g>
<!-- Node1&#45;&gt;Node2 -->
<g id="edge1_Node000001_Node000002" class="edge">
<title>Node1&#45;&gt;Node2</title>
<g id="a_edge1_Node000001_Node000002"><a xlink:title=" ">
<path fill="none" stroke="#63b8ff" d="M854.68,-62.37C728.1,-59.17 386.33,-48.3 103,-19 100.07,-18.7 97.05,-18.35 94.01,-17.97"/>
<polygon fill="#63b8ff" stroke="#63b8ff" points="854.75,-65.87 864.84,-62.62 854.93,-58.88 854.75,-65.87"/>
</a>
</g>
</g>
<!-- Node3 -->
<g id="Node000003" class="node">
<title>Node3</title>
<g id="a_Node000003"><a xlink:href="../../d6/d10/classlist_8cpp.html" target="_top" xlink:title=" ">
<polygon fill="white" stroke="#666666" points="206,-19 112,-19 112,0 206,0 206,-19"/>
<text text-anchor="middle" x="159" y="-7" font-family="Helvetica,sans-Serif" font-size="10.00">src/classlist.cpp</text>
</a>
</g>
</g>
<!-- Node1&#45;&gt;Node3 -->
<g id="edge2_Node000001_Node000003" class="edge">
<title>Node1&#45;&gt;Node3</title>
<g id="a_edge2_Node000001_Node000003"><a xlink:title=" ">
<path fill="none" stroke="#63b8ff" d="M854.67,-61.74C740.59,-57.43 453.7,-44.76 215,-19 212.07,-18.68 209.05,-18.32 206.02,-17.94"/>
<polygon fill="#63b8ff" stroke="#63b8ff" points="854.72,-65.25 864.84,-62.12 854.98,-58.25 854.72,-65.25"/>
</a>
</g>
</g>
<!-- Node4 -->
<g id="Node000004" class="node">
<title>Node4</title>
<g id="a_Node000004"><a xlink:href="../../de/df3/defargs_8l.html" target="_top" xlink:title=" ">
<polygon fill="white" stroke="#666666" points="301.5,-19 224.5,-19 224.5,0 301.5,0 301.5,-19"/>
<text text-anchor="middle" x="263" y="-7" font-family="Helvetica,sans-Serif" font-size="10.00">src/defargs.l</text>
</a>
</g>
</g>
<!-- Node1&#45;&gt;Node4 -->
<g id="edge3_Node000001_Node000004" class="edge">
<title>Node1&#45;&gt;Node4</title>
<g id="a_edge3_Node000001_Node000004"><a xlink:title=" ">
<path fill="none" stroke="#63b8ff" d="M854.82,-61.45C752.32,-56.87 511.63,-44.21 311,-19 307.98,-18.62 304.86,-18.18 301.72,-17.7"/>
<polygon fill="#63b8ff" stroke="#63b8ff" points="854.74,-64.94 864.88,-61.89 855.05,-57.95 854.74,-64.94"/>
</a>
</g>
</g>
<!-- Node5 -->
<g id="Node000005" class="node">
<title>Node5</title>
<g id="a_Node000005"><a xlink:href="../../d3/d17/defgen_8cpp.html" target="_top" xlink:title=" ">
<polygon fill="white" stroke="#666666" points="408,-19 320,-19 320,0 408,0 408,-19"/>
<text text-anchor="middle" x="364" y="-7" font-family="Helvetica,sans-Serif" font-size="10.00">src/defgen.cpp</text>
</a>
</g>
</g>
<!-- Node1&#45;&gt;Node5 -->
<g id="edge4_Node000001_Node000005" class="edge">
<title>Node1&#45;&gt;Node5</title>
<g id="a_edge4_Node000001_Node000005"><a xlink:title=" ">
<path fill="none" stroke="#63b8ff" d="M854.68,-60.05C766.04,-53.71 576.35,-39.02 417,-19 414.13,-18.64 411.18,-18.24 408.21,-17.82"/>
<polygon fill="#63b8ff" stroke="#63b8ff" points="854.51,-63.54 864.73,-60.76 855,-56.56 854.51,-63.54"/>
</a>
</g>
</g>
<!-- Node6 -->
<g id="Node000006" class="node">
<title>Node6</title>
<g id="a_Node000006"><a xlink:href="../../d8/d29/docbookgen_8cpp.html" target="_top" xlink:title=" ">
<polygon fill="white" stroke="#666666" points="539.5,-19 426.5,-19 426.5,0 539.5,0 539.5,-19"/>
<text text-anchor="middle" x="483" y="-7" font-family="Helvetica,sans-Serif" font-size="10.00">src/docbookgen.cpp</text>
</a>
</g>
</g>
<!-- Node1&#45;&gt;Node6 -->
<g id="edge5_Node000001_Node000006" class="edge">
<title>Node1&#45;&gt;Node6</title>
<g id="a_edge5_Node000001_Node000006"><a xlink:title=" ">
<path fill="none" stroke="#63b8ff" d="M854.81,-57.29C785.88,-48.74 658.03,-32.83 549,-19 545.91,-18.61 542.73,-18.2 539.52,-17.79"/>
<polygon fill="#63b8ff" stroke="#63b8ff" points="854.6,-60.79 864.95,-58.54 855.46,-53.84 854.6,-60.79"/>
</a>
</g>
</g>
<!-- Node7 -->
<g id="Node000007" class="node">
<title>Node7</title>
<g id="a_Node000007"><a xlink:href="../../dc/d98/doxygen_8cpp.html" target="_top" xlink:title=" ">
<polygon fill="white" stroke="#666666" points="654,-19 558,-19 558,0 654,0 654,-19"/>
<text text-anchor="middle" x="606" y="-7" font-family="Helvetica,sans-Serif" font-size="10.00">src/doxygen.cpp</text>
</a>
</g>
</g>
<!-- Node1&#45;&gt;Node7 -->
<g id="edge6_Node000001_Node000007" class="edge">
<title>Node1&#45;&gt;Node7</title>
<g id="a_edge6_Node000001_Node000007"><a xlink:title=" ">
<path fill="none" stroke="#63b8ff" d="M854.96,-54.63C799.09,-44.73 709.29,-28.81 654.18,-19.04"/>
<polygon fill="#63b8ff" stroke="#63b8ff" points="854.53,-58.11 864.99,-56.41 855.75,-51.22 854.53,-58.11"/>
</a>
</g>
</g>
<!-- Node8 -->
<g id="Node000008" class="node">
<title>Node8</title>
<g id="a_Node000008"><a xlink:href="../../d9/d5b/fortrancode_8l.html" target="_top" xlink:title=" ">
<polygon fill="white" stroke="#666666" points="768,-19 672,-19 672,0 768,0 768,-19"/>
<text text-anchor="middle" x="720" y="-7" font-family="Helvetica,sans-Serif" font-size="10.00">src/fortrancode.l</text>
</a>
</g>
</g>
<!-- Node1&#45;&gt;Node8 -->
<g id="edge7_Node000001_Node000008" class="edge">
<title>Node1&#45;&gt;Node8</title>
<g id="a_edge7_Node000001_Node000008"><a xlink:title=" ">
<path fill="none" stroke="#63b8ff" d="M865.5,-52.18C830.9,-42.27 781.37,-28.08 749.96,-19.08"/>
<polygon fill="#63b8ff" stroke="#63b8ff" points="864.7,-55.6 875.28,-54.98 866.63,-48.87 864.7,-55.6"/>
</a>
</g>
</g>
<!-- Node9 -->
<g id="Node000009" class="node">
<title>Node9</title>
<g id="a_Node000009"><a xlink:href="../../dd/d00/fortranscanner_8l.html" target="_top" xlink:title=" ">
<polygon fill="white" stroke="#666666" points="896,-19 786,-19 786,0 896,0 896,-19"/>
<text text-anchor="middle" x="841" y="-7" font-family="Helvetica,sans-Serif" font-size="10.00">src/fortranscanner.l</text>
</a>
</g>
</g>
<!-- Node1&#45;&gt;Node9 -->
<g id="edge8_Node000001_Node000009" class="edge">
<title>Node1&#45;&gt;Node9</title>
<g id="a_edge8_Node000001_Node000009"><a xlink:title=" ">
<path fill="none" stroke="#63b8ff" d="M887.01,-48.6C875.54,-39.11 861.09,-27.13 851.47,-19.17"/>
<polygon fill="#63b8ff" stroke="#63b8ff" points="884.78,-51.3 894.72,-54.98 889.25,-45.91 884.78,-51.3"/>
</a>
</g>
</g>
<!-- Node10 -->
<g id="Node000010" class="node">
<title>Node10</title>
<g id="a_Node000010"><a xlink:href="../../d0/d72/memberdef_8cpp.html" target="_top" xlink:title=" ">
<polygon fill="white" stroke="#666666" points="1024,-19 914,-19 914,0 1024,0 1024,-19"/>
<text text-anchor="middle" x="969" y="-7" font-family="Helvetica,sans-Serif" font-size="10.00">src/memberdef.cpp</text>
</a>
</g>
</g>
<!-- Node1&#45;&gt;Node10 -->
<g id="edge9_Node000001_Node000010" class="edge">
<title>Node1&#45;&gt;Node10</title>
<g id="a_edge9_Node000001_Node000010"><a xlink:title=" ">
<path fill="none" stroke="#63b8ff" d="M922.99,-48.6C934.46,-39.11 948.91,-27.13 958.53,-19.17"/>
<polygon fill="#63b8ff" stroke="#63b8ff" points="920.75,-45.91 915.28,-54.98 925.22,-51.3 920.75,-45.91"/>
</a>
</g>
</g>
<!-- Node11 -->
<g id="Node000011" class="node">
<title>Node11</title>
<g id="a_Node000011"><a xlink:href="../../d0/da7/pre_8l.html" target="_top" xlink:title=" ">
<polygon fill="white" stroke="#666666" points="1098,-19 1042,-19 1042,0 1098,0 1098,-19"/>
<text text-anchor="middle" x="1070" y="-7" font-family="Helvetica,sans-Serif" font-size="10.00">src/pre.l</text>
</a>
</g>
</g>
<!-- Node1&#45;&gt;Node11 -->
<g id="edge10_Node000001_Node000011" class="edge">
<title>Node1&#45;&gt;Node11</title>
<g id="a_edge10_Node000001_Node000011"><a xlink:title=" ">
<path fill="none" stroke="#63b8ff" d="M941.43,-51.8C972.22,-41.91 1015.62,-27.97 1043.28,-19.08"/>
<polygon fill="#63b8ff" stroke="#63b8ff" points="939.96,-48.59 931.51,-54.98 942.1,-55.26 939.96,-48.59"/>
</a>
</g>
</g>
<!-- Node12 -->
<g id="Node000012" class="node">
<title>Node12</title>
<g id="a_Node000012"><a xlink:href="../../de/d2b/pyscanner_8l.html" target="_top" xlink:title=" ">
<polygon fill="white" stroke="#666666" points="1205.5,-19 1116.5,-19 1116.5,0 1205.5,0 1205.5,-19"/>
<text text-anchor="middle" x="1161" y="-7" font-family="Helvetica,sans-Serif" font-size="10.00">src/pyscanner.l</text>
</a>
</g>
</g>
<!-- Node1&#45;&gt;Node12 -->
<g id="edge11_Node000001_Node000012" class="edge">
<title>Node1&#45;&gt;Node12</title>
<g id="a_edge11_Node000001_Node000012"><a xlink:title=" ">
<path fill="none" stroke="#63b8ff" d="M955.16,-53.12C1003.2,-43.17 1074.83,-28.34 1119.68,-19.05"/>
<polygon fill="#63b8ff" stroke="#63b8ff" points="954.36,-49.71 945.28,-55.16 955.78,-56.56 954.36,-49.71"/>
</a>
</g>
</g>
<!-- Node13 -->
<g id="Node000013" class="node">
<title>Node13</title>
<g id="a_Node000013"><a xlink:href="../../da/d11/scanner_8l.html" target="_top" xlink:title=" ">
<polygon fill="white" stroke="#666666" points="1300.5,-19 1223.5,-19 1223.5,0 1300.5,0 1300.5,-19"/>
<text text-anchor="middle" x="1262" y="-7" font-family="Helvetica,sans-Serif" font-size="10.00">src/scanner.l</text>
</a>
</g>
</g>
<!-- Node1&#45;&gt;Node13 -->
<g id="edge12_Node000001_Node000013" class="edge">
<title>Node1&#45;&gt;Node13</title>
<g id="a_edge12_Node000001_Node000013"><a xlink:title=" ">
<path fill="none" stroke="#63b8ff" d="M955.39,-56.84C1016.8,-48.59 1123.68,-33.81 1215,-19 1217.7,-18.56 1220.49,-18.1 1223.29,-17.62"/>
<polygon fill="#63b8ff" stroke="#63b8ff" points="954.65,-53.41 945.2,-58.2 955.58,-60.35 954.65,-53.41"/>
</a>
</g>
</g>
<!-- Node14 -->
<g id="Node000014" class="node">
<title>Node14</title>
<g id="a_Node000014"><a xlink:href="../../d2/d99/symbolresolver_8cpp.html" target="_top" xlink:title=" ">
<polygon fill="white" stroke="#666666" points="1447.5,-19 1318.5,-19 1318.5,0 1447.5,0 1447.5,-19"/>
<text text-anchor="middle" x="1383" y="-7" font-family="Helvetica,sans-Serif" font-size="10.00">src/symbolresolver.cpp</text>
</a>
</g>
</g>
<!-- Node1&#45;&gt;Node14 -->
<g id="edge13_Node000001_Node000014" class="edge">
<title>Node1&#45;&gt;Node14</title>
<g id="a_edge13_Node000001_Node000014"><a xlink:title=" ">
<path fill="none" stroke="#63b8ff" d="M955.57,-58.05C1032.23,-49.76 1182.45,-33.43 1310,-19 1312.66,-18.7 1315.38,-18.39 1318.12,-18.08"/>
<polygon fill="#63b8ff" stroke="#63b8ff" points="954.81,-54.61 945.25,-59.16 955.57,-61.57 954.81,-54.61"/>
</a>
</g>
</g>
<!-- Node15 -->
<g id="Node000015" class="node">
<title>Node15</title>
<g id="a_Node000015"><a xlink:href="../../d4/d7b/tagreader_8cpp.html" target="_top" xlink:title=" ">
<polygon fill="white" stroke="#666666" points="1566.5,-19 1465.5,-19 1465.5,0 1566.5,0 1566.5,-19"/>
<text text-anchor="middle" x="1516" y="-7" font-family="Helvetica,sans-Serif" font-size="10.00">src/tagreader.cpp</text>
</a>
</g>
</g>
<!-- Node1&#45;&gt;Node15 -->
<g id="edge14_Node000001_Node000015" class="edge">
<title>Node1&#45;&gt;Node15</title>
<g id="a_edge14_Node000001_Node000015"><a xlink:title=" ">
<path fill="none" stroke="#63b8ff" d="M955.38,-60.5C1052.57,-54.47 1272.63,-39.69 1457,-19 1459.78,-18.69 1462.62,-18.35 1465.5,-17.99"/>
<polygon fill="#63b8ff" stroke="#63b8ff" points="955.02,-57.01 945.25,-61.12 955.45,-64 955.02,-57.01"/>
</a>
</g>
</g>
<!-- Node16 -->
<g id="Node000016" class="node">
<title>Node16</title>
<g id="a_Node000016"><a xlink:href="../../df/d2d/util_8cpp.html" target="_top" xlink:title=" ">
<polygon fill="white" stroke="#666666" points="1655,-19 1585,-19 1585,0 1655,0 1655,-19"/>
<text text-anchor="middle" x="1620" y="-7" font-family="Helvetica,sans-Serif" font-size="10.00">src/util.cpp</text>
</a>
</g>
</g>
<!-- Node1&#45;&gt;Node16 -->
<g id="edge15_Node000001_Node000016" class="edge">
<title>Node1&#45;&gt;Node16</title>
<g id="a_edge15_Node000001_Node000016"><a xlink:title=" ">
<path fill="none" stroke="#63b8ff" d="M955.58,-62.3C1067.72,-59.16 1345.5,-48.79 1576,-19 1578.93,-18.62 1581.96,-18.17 1585,-17.67"/>
<polygon fill="#63b8ff" stroke="#63b8ff" points="955.16,-58.81 945.25,-62.58 955.35,-65.8 955.16,-58.81"/>
</a>
</g>
</g>
<!-- Node17 -->
<g id="Node000017" class="node">
<title>Node17</title>
<g id="a_Node000017"><a xlink:href="../../d0/dc3/xmlgen_8cpp.html" target="_top" xlink:title=" ">
<polygon fill="white" stroke="#666666" points="1764.5,-19 1673.5,-19 1673.5,0 1764.5,0 1764.5,-19"/>
<text text-anchor="middle" x="1719" y="-7" font-family="Helvetica,sans-Serif" font-size="10.00">src/xmlgen.cpp</text>
</a>
</g>
</g>
<!-- Node1&#45;&gt;Node17 -->
<g id="edge16_Node000001_Node000017" class="edge">
<title>Node1&#45;&gt;Node17</title>
<g id="a_edge16_Node000001_Node000017"><a xlink:title=" ">
<path fill="none" stroke="#63b8ff" d="M955.16,-62.2C1076.93,-58.7 1397.76,-47.31 1664,-19 1667.07,-18.67 1670.24,-18.3 1673.43,-17.88"/>
<polygon fill="#63b8ff" stroke="#63b8ff" points="954.92,-58.71 945.02,-62.49 955.12,-65.71 954.92,-58.71"/>
</a>
</g>
</g>
</g>
</svg>
