<?xml version="1.0" encoding="UTF-8" standalone="no"?>
<!DOCTYPE svg PUBLIC "-//W3C//DTD SVG 1.1//EN"
 "http://www.w3.org/Graphics/SVG/1.1/DTD/svg11.dtd">
<!-- Generated by graphviz version 2.43.0 (0)
 -->
<!-- Title: src/groupdef.h Pages: 1 -->
<svg width="3473pt" height="137pt"
 viewBox="0.00 0.00 3472.50 137.00" xmlns="http://www.w3.org/2000/svg" xmlns:xlink="http://www.w3.org/1999/xlink">
<g id="graph0" class="graph" transform="scale(1 1) rotate(0) translate(4 133)">
<title>src/groupdef.h</title>
<!-- Node1 -->
<g id="Node000001" class="node">
<title>Node1</title>
<g id="a_Node000001"><a xlink:title=" ">
<polygon fill="#999999" stroke="#666666" points="1636,-129 1550,-129 1550,-110 1636,-110 1636,-129"/>
<text text-anchor="middle" x="1593" y="-117" font-family="Helvetica,sans-Serif" font-size="10.00">src/groupdef.h</text>
</a>
</g>
</g>
<!-- Node2 -->
<g id="Node000002" class="node">
<title>Node2</title>
<g id="a_Node000002"><a xlink:href="../../de/d89/classdef_8cpp.html" target="_top" xlink:title=" ">
<polygon fill="white" stroke="#666666" points="94,-74 0,-74 0,-55 94,-55 94,-74"/>
<text text-anchor="middle" x="47" y="-62" font-family="Helvetica,sans-Serif" font-size="10.00">src/classdef.cpp</text>
</a>
</g>
</g>
<!-- Node1&#45;&gt;Node2 -->
<g id="edge1_Node000001_Node000002" class="edge">
<title>Node1&#45;&gt;Node2</title>
<g id="a_edge1_Node000001_Node000002"><a xlink:title=" ">
<path fill="none" stroke="#63b8ff" d="M1539.65,-117.77C1308.3,-114.48 390.48,-100.01 103,-74 100.06,-73.73 97.04,-73.41 94,-73.06"/>
<polygon fill="#63b8ff" stroke="#63b8ff" points="1539.78,-121.27 1549.83,-117.92 1539.88,-114.27 1539.78,-121.27"/>
</a>
</g>
</g>
<!-- Node3 -->
<g id="Node000003" class="node">
<title>Node3</title>
<g id="a_Node000003"><a xlink:href="../../d6/d10/classlist_8cpp.html" target="_top" xlink:title=" ">
<polygon fill="white" stroke="#666666" points="206,-74 112,-74 112,-55 206,-55 206,-74"/>
<text text-anchor="middle" x="159" y="-62" font-family="Helvetica,sans-Serif" font-size="10.00">src/classlist.cpp</text>
</a>
</g>
</g>
<!-- Node1&#45;&gt;Node3 -->
<g id="edge2_Node000001_Node000003" class="edge">
<title>Node1&#45;&gt;Node3</title>
<g id="a_edge2_Node000001_Node000003"><a xlink:title=" ">
<path fill="none" stroke="#63b8ff" d="M1539.5,-119.04C1355.1,-120.44 729.11,-121.15 215,-74 212.06,-73.73 209.04,-73.41 206,-73.05"/>
<polygon fill="#63b8ff" stroke="#63b8ff" points="1539.76,-122.54 1549.73,-118.96 1539.71,-115.54 1539.76,-122.54"/>
</a>
</g>
</g>
<!-- Node4 -->
<g id="Node000004" class="node">
<title>Node4</title>
<g id="a_Node000004"><a xlink:href="../../da/d1f/code_8l.html" target="_top" xlink:title=" ">
<polygon fill="white" stroke="#666666" points="287.5,-74 224.5,-74 224.5,-55 287.5,-55 287.5,-74"/>
<text text-anchor="middle" x="256" y="-62" font-family="Helvetica,sans-Serif" font-size="10.00">src/code.l</text>
</a>
</g>
</g>
<!-- Node1&#45;&gt;Node4 -->
<g id="edge3_Node000001_Node000004" class="edge">
<title>Node1&#45;&gt;Node4</title>
<g id="a_edge3_Node000001_Node000004"><a xlink:title=" ">
<path fill="none" stroke="#63b8ff" d="M1539.44,-117.88C1327.03,-115.21 543.47,-103.56 297,-74 293.97,-73.64 290.83,-73.16 287.7,-72.63"/>
<polygon fill="#63b8ff" stroke="#63b8ff" points="1539.66,-121.38 1549.71,-118 1539.75,-114.38 1539.66,-121.38"/>
</a>
</g>
</g>
<!-- Node5 -->
<g id="Node000005" class="node">
<title>Node5</title>
<g id="a_Node000005"><a xlink:href="../../d3/dea/definition_8cpp.html" target="_top" xlink:title=" ">
<polygon fill="white" stroke="#666666" points="406,-74 306,-74 306,-55 406,-55 406,-74"/>
<text text-anchor="middle" x="356" y="-62" font-family="Helvetica,sans-Serif" font-size="10.00">src/definition.cpp</text>
</a>
</g>
</g>
<!-- Node1&#45;&gt;Node5 -->
<g id="edge4_Node000001_Node000005" class="edge">
<title>Node1&#45;&gt;Node5</title>
<g id="a_edge4_Node000001_Node000005"><a xlink:title=" ">
<path fill="none" stroke="#63b8ff" d="M1539.33,-118.26C1372.87,-117.13 850.67,-110.69 420,-74 415.53,-73.62 410.9,-73.15 406.26,-72.63"/>
<polygon fill="#63b8ff" stroke="#63b8ff" points="1539.75,-121.76 1549.77,-118.33 1539.79,-114.76 1539.75,-121.76"/>
</a>
</g>
</g>
<!-- Node6 -->
<g id="Node000006" class="node">
<title>Node6</title>
<g id="a_Node000006"><a xlink:href="../../d8/d29/docbookgen_8cpp.html" target="_top" xlink:title=" ">
<polygon fill="white" stroke="#666666" points="303.5,-19 190.5,-19 190.5,0 303.5,0 303.5,-19"/>
<text text-anchor="middle" x="247" y="-7" font-family="Helvetica,sans-Serif" font-size="10.00">src/docbookgen.cpp</text>
</a>
</g>
</g>
<!-- Node1&#45;&gt;Node6 -->
<g id="edge5_Node000001_Node000006" class="edge">
<title>Node1&#45;&gt;Node6</title>
<g id="a_edge5_Node000001_Node000006"><a xlink:title=" ">
<path fill="none" stroke="#63b8ff" d="M1539.49,-117.74C1328.27,-114.55 558.77,-101.16 453,-74 434.71,-69.3 432.66,-61.67 415,-55 373.09,-39.16 323.27,-26.72 288.82,-19.07"/>
<polygon fill="#63b8ff" stroke="#63b8ff" points="1539.66,-121.24 1549.71,-117.89 1539.76,-114.24 1539.66,-121.24"/>
</a>
</g>
</g>
<!-- Node7 -->
<g id="Node000007" class="node">
<title>Node7</title>
<g id="a_Node000007"><a xlink:href="../../d0/d2b/docnode_8cpp.html" target="_top" xlink:title=" ">
<polygon fill="white" stroke="#666666" points="801.5,-74 706.5,-74 706.5,-55 801.5,-55 801.5,-74"/>
<text text-anchor="middle" x="754" y="-62" font-family="Helvetica,sans-Serif" font-size="10.00">src/docnode.cpp</text>
</a>
</g>
</g>
<!-- Node1&#45;&gt;Node7 -->
<g id="edge6_Node000001_Node000007" class="edge">
<title>Node1&#45;&gt;Node7</title>
<g id="a_edge6_Node000001_Node000007"><a xlink:title=" ">
<path fill="none" stroke="#63b8ff" d="M1539.44,-117.14C1412.6,-113.54 1084.01,-102.07 811,-74 807.91,-73.68 804.74,-73.32 801.54,-72.92"/>
<polygon fill="#63b8ff" stroke="#63b8ff" points="1539.56,-120.64 1549.65,-117.42 1539.76,-113.64 1539.56,-120.64"/>
</a>
</g>
</g>
<!-- Node8 -->
<g id="Node000008" class="node">
<title>Node8</title>
<g id="a_Node000008"><a xlink:href="../../da/d17/docparser_8cpp.html" target="_top" xlink:title=" ">
<polygon fill="white" stroke="#666666" points="920.5,-74 819.5,-74 819.5,-55 920.5,-55 920.5,-74"/>
<text text-anchor="middle" x="870" y="-62" font-family="Helvetica,sans-Serif" font-size="10.00">src/docparser.cpp</text>
</a>
</g>
</g>
<!-- Node1&#45;&gt;Node8 -->
<g id="edge7_Node000001_Node000008" class="edge">
<title>Node1&#45;&gt;Node8</title>
<g id="a_edge7_Node000001_Node000008"><a xlink:title=" ">
<path fill="none" stroke="#63b8ff" d="M1539.77,-116.26C1427.07,-111.23 1156.15,-97.58 930,-74 926.97,-73.68 923.85,-73.33 920.71,-72.95"/>
<polygon fill="#63b8ff" stroke="#63b8ff" points="1539.71,-119.76 1549.86,-116.71 1540.02,-112.77 1539.71,-119.76"/>
</a>
</g>
</g>
<!-- Node9 -->
<g id="Node000009" class="node">
<title>Node9</title>
<g id="a_Node000009"><a xlink:href="../../d7/d8f/docsets_8cpp.html" target="_top" xlink:title=" ">
<polygon fill="white" stroke="#666666" points="1031,-74 939,-74 939,-55 1031,-55 1031,-74"/>
<text text-anchor="middle" x="985" y="-62" font-family="Helvetica,sans-Serif" font-size="10.00">src/docsets.cpp</text>
</a>
</g>
</g>
<!-- Node1&#45;&gt;Node9 -->
<g id="edge8_Node000001_Node000009" class="edge">
<title>Node1&#45;&gt;Node9</title>
<g id="a_edge8_Node000001_Node000009"><a xlink:title=" ">
<path fill="none" stroke="#63b8ff" d="M1539.85,-115.52C1441.14,-109.69 1222.93,-95.47 1040,-74 1037.12,-73.66 1034.16,-73.29 1031.18,-72.89"/>
<polygon fill="#63b8ff" stroke="#63b8ff" points="1539.68,-119.01 1549.87,-116.11 1540.09,-112.03 1539.68,-119.01"/>
</a>
</g>
</g>
<!-- Node10 -->
<g id="Node000010" class="node">
<title>Node10</title>
<g id="a_Node000010"><a xlink:href="../../d7/d99/dotgroupcollaboration_8h.html" target="_top" xlink:title=" ">
<polygon fill="white" stroke="#666666" points="612,-74 462,-74 462,-55 612,-55 612,-74"/>
<text text-anchor="middle" x="537" y="-62" font-family="Helvetica,sans-Serif" font-size="10.00">src/dotgroupcollaboration.h</text>
</a>
</g>
</g>
<!-- Node1&#45;&gt;Node10 -->
<g id="edge9_Node000001_Node000010" class="edge">
<title>Node1&#45;&gt;Node10</title>
<g id="a_edge9_Node000001_Node000010"><a xlink:title=" ">
<path fill="none" stroke="#63b8ff" d="M1539.52,-116.96C1393.19,-112.56 973.89,-98.6 626,-74 621.51,-73.68 616.9,-73.33 612.24,-72.95"/>
<polygon fill="#63b8ff" stroke="#63b8ff" points="1539.48,-120.46 1549.58,-117.26 1539.69,-113.47 1539.48,-120.46"/>
</a>
</g>
</g>
<!-- Node12 -->
<g id="Node000012" class="node">
<title>Node12</title>
<g id="a_Node000012"><a xlink:href="../../d6/d42/groupdef_8cpp.html" target="_top" xlink:title=" ">
<polygon fill="white" stroke="#666666" points="710.5,-19 613.5,-19 613.5,0 710.5,0 710.5,-19"/>
<text text-anchor="middle" x="662" y="-7" font-family="Helvetica,sans-Serif" font-size="10.00">src/groupdef.cpp</text>
</a>
</g>
</g>
<!-- Node1&#45;&gt;Node12 -->
<g id="edge18_Node000001_Node000012" class="edge">
<title>Node1&#45;&gt;Node12</title>
<g id="a_edge18_Node000001_Node000012"><a xlink:title=" ">
<path fill="none" stroke="#63b8ff" d="M1539.51,-117.45C1350.42,-113.52 722.88,-98.67 688,-74 669.91,-61.2 664.38,-33.48 662.71,-19.28"/>
<polygon fill="#63b8ff" stroke="#63b8ff" points="1539.69,-120.95 1549.76,-117.66 1539.84,-113.95 1539.69,-120.95"/>
</a>
</g>
</g>
<!-- Node14 -->
<g id="Node000014" class="node">
<title>Node14</title>
<g id="a_Node000014"><a xlink:href="../../d4/d42/latexgen_8cpp.html" target="_top" xlink:title=" ">
<polygon fill="white" stroke="#666666" points="825.5,-19 728.5,-19 728.5,0 825.5,0 825.5,-19"/>
<text text-anchor="middle" x="777" y="-7" font-family="Helvetica,sans-Serif" font-size="10.00">src/latexgen.cpp</text>
</a>
</g>
</g>
<!-- Node1&#45;&gt;Node14 -->
<g id="edge21_Node000001_Node000014" class="edge">
<title>Node1&#45;&gt;Node14</title>
<g id="a_edge21_Node000001_Node000014"><a xlink:title=" ">
<path fill="none" stroke="#63b8ff" d="M1539.74,-117.85C1351.48,-115.32 727.13,-104.61 698,-74 676.89,-51.82 720.98,-30.45 751.38,-19.04"/>
<polygon fill="#63b8ff" stroke="#63b8ff" points="1539.89,-121.36 1549.94,-117.99 1539.99,-114.36 1539.89,-121.36"/>
</a>
</g>
</g>
<!-- Node15 -->
<g id="Node000015" class="node">
<title>Node15</title>
<g id="a_Node000015"><a xlink:href="../../dc/d98/doxygen_8cpp.html" target="_top" xlink:title=" ">
<polygon fill="white" stroke="#666666" points="1145,-74 1049,-74 1049,-55 1145,-55 1145,-74"/>
<text text-anchor="middle" x="1097" y="-62" font-family="Helvetica,sans-Serif" font-size="10.00">src/doxygen.cpp</text>
</a>
</g>
</g>
<!-- Node1&#45;&gt;Node15 -->
<g id="edge15_Node000001_Node000015" class="edge">
<title>Node1&#45;&gt;Node15</title>
<g id="a_edge15_Node000001_Node000015"><a xlink:title=" ">
<path fill="none" stroke="#63b8ff" d="M1539.78,-113.92C1457.1,-106.62 1292.86,-91.38 1154,-74 1151.12,-73.64 1148.16,-73.25 1145.18,-72.85"/>
<polygon fill="#63b8ff" stroke="#63b8ff" points="1539.66,-117.42 1549.93,-114.81 1540.27,-110.45 1539.66,-117.42"/>
</a>
</g>
</g>
<!-- Node16 -->
<g id="Node000016" class="node">
<title>Node16</title>
<g id="a_Node000016"><a xlink:href="../../d6/ddc/filedef_8cpp.html" target="_top" xlink:title=" ">
<polygon fill="white" stroke="#666666" points="1247,-74 1163,-74 1163,-55 1247,-55 1247,-74"/>
<text text-anchor="middle" x="1205" y="-62" font-family="Helvetica,sans-Serif" font-size="10.00">src/filedef.cpp</text>
</a>
</g>
</g>
<!-- Node1&#45;&gt;Node16 -->
<g id="edge16_Node000001_Node000016" class="edge">
<title>Node1&#45;&gt;Node16</title>
<g id="a_edge16_Node000001_Node000016"><a xlink:title=" ">
<path fill="none" stroke="#63b8ff" d="M1539.61,-112.02C1473.1,-103.81 1356,-88.93 1256,-74 1253.07,-73.56 1250.05,-73.1 1247.01,-72.62"/>
<polygon fill="#63b8ff" stroke="#63b8ff" points="1539.49,-115.53 1549.84,-113.28 1540.35,-108.58 1539.49,-115.53"/>
</a>
</g>
</g>
<!-- Node17 -->
<g id="Node000017" class="node">
<title>Node17</title>
<g id="a_Node000017"><a xlink:href="../../d9/d5b/fortrancode_8l.html" target="_top" xlink:title=" ">
<polygon fill="white" stroke="#666666" points="1361,-74 1265,-74 1265,-55 1361,-55 1361,-74"/>
<text text-anchor="middle" x="1313" y="-62" font-family="Helvetica,sans-Serif" font-size="10.00">src/fortrancode.l</text>
</a>
</g>
</g>
<!-- Node1&#45;&gt;Node17 -->
<g id="edge17_Node000001_Node000017" class="edge">
<title>Node1&#45;&gt;Node17</title>
<g id="a_edge17_Node000001_Node000017"><a xlink:title=" ">
<path fill="none" stroke="#63b8ff" d="M1539.72,-108.41C1487.12,-98.46 1407.58,-83.4 1358.04,-74.03"/>
<polygon fill="#63b8ff" stroke="#63b8ff" points="1539.39,-111.91 1549.86,-110.33 1540.69,-105.04 1539.39,-111.91"/>
</a>
</g>
</g>
<!-- Node18 -->
<g id="Node000018" class="node">
<title>Node18</title>
<g id="a_Node000018"><a xlink:href="../../d3/d4b/htmlhelp_8cpp.html" target="_top" xlink:title=" ">
<polygon fill="white" stroke="#666666" points="1477,-74 1379,-74 1379,-55 1477,-55 1477,-74"/>
<text text-anchor="middle" x="1428" y="-62" font-family="Helvetica,sans-Serif" font-size="10.00">src/htmlhelp.cpp</text>
</a>
</g>
</g>
<!-- Node1&#45;&gt;Node18 -->
<g id="edge19_Node000001_Node000018" class="edge">
<title>Node1&#45;&gt;Node18</title>
<g id="a_edge19_Node000001_Node000018"><a xlink:title=" ">
<path fill="none" stroke="#63b8ff" d="M1556.57,-106.8C1525.78,-96.91 1482.38,-82.97 1454.72,-74.08"/>
<polygon fill="#63b8ff" stroke="#63b8ff" points="1555.9,-110.26 1566.49,-109.98 1558.04,-103.59 1555.9,-110.26"/>
</a>
</g>
</g>
<!-- Node19 -->
<g id="Node000019" class="node">
<title>Node19</title>
<g id="a_Node000019"><a xlink:href="../../db/d14/index_8cpp.html" target="_top" xlink:title="This file contains functions for the various index pages.">
<polygon fill="white" stroke="#666666" points="1576.5,-74 1495.5,-74 1495.5,-55 1576.5,-55 1576.5,-74"/>
<text text-anchor="middle" x="1536" y="-62" font-family="Helvetica,sans-Serif" font-size="10.00">src/index.cpp</text>
</a>
</g>
</g>
<!-- Node1&#45;&gt;Node19 -->
<g id="edge20_Node000001_Node000019" class="edge">
<title>Node1&#45;&gt;Node19</title>
<g id="a_edge20_Node000001_Node000019"><a xlink:title=" ">
<path fill="none" stroke="#63b8ff" d="M1576.38,-103.04C1566.27,-93.64 1553.72,-81.98 1545.32,-74.17"/>
<polygon fill="#63b8ff" stroke="#63b8ff" points="1574.14,-105.74 1583.84,-109.98 1578.9,-100.61 1574.14,-105.74"/>
</a>
</g>
</g>
<!-- Node20 -->
<g id="Node000020" class="node">
<title>Node20</title>
<g id="a_Node000020"><a xlink:href="../../d0/d72/memberdef_8cpp.html" target="_top" xlink:title=" ">
<polygon fill="white" stroke="#666666" points="1705,-74 1595,-74 1595,-55 1705,-55 1705,-74"/>
<text text-anchor="middle" x="1650" y="-62" font-family="Helvetica,sans-Serif" font-size="10.00">src/memberdef.cpp</text>
</a>
</g>
</g>
<!-- Node1&#45;&gt;Node20 -->
<g id="edge22_Node000001_Node000020" class="edge">
<title>Node1&#45;&gt;Node20</title>
<g id="a_edge22_Node000001_Node000020"><a xlink:title=" ">
<path fill="none" stroke="#63b8ff" d="M1609.62,-103.04C1619.73,-93.64 1632.28,-81.98 1640.68,-74.17"/>
<polygon fill="#63b8ff" stroke="#63b8ff" points="1607.1,-100.61 1602.16,-109.98 1611.86,-105.74 1607.1,-100.61"/>
</a>
</g>
</g>
<!-- Node21 -->
<g id="Node000021" class="node">
<title>Node21</title>
<g id="a_Node000021"><a xlink:href="../../d6/d18/membergroup_8cpp.html" target="_top" xlink:title=" ">
<polygon fill="white" stroke="#666666" points="1846.5,-74 1723.5,-74 1723.5,-55 1846.5,-55 1846.5,-74"/>
<text text-anchor="middle" x="1785" y="-62" font-family="Helvetica,sans-Serif" font-size="10.00">src/membergroup.cpp</text>
</a>
</g>
</g>
<!-- Node1&#45;&gt;Node21 -->
<g id="edge23_Node000001_Node000021" class="edge">
<title>Node1&#45;&gt;Node21</title>
<g id="a_edge23_Node000001_Node000021"><a xlink:title=" ">
<path fill="none" stroke="#63b8ff" d="M1633.53,-107.31C1669.46,-97.39 1721.16,-83.12 1753.91,-74.08"/>
<polygon fill="#63b8ff" stroke="#63b8ff" points="1632.56,-103.95 1623.85,-109.98 1634.42,-110.7 1632.56,-103.95"/>
</a>
</g>
</g>
<!-- Node22 -->
<g id="Node000022" class="node">
<title>Node22</title>
<g id="a_Node000022"><a xlink:href="../../d0/d14/memberlist_8cpp.html" target="_top" xlink:title=" ">
<polygon fill="white" stroke="#666666" points="1975,-74 1865,-74 1865,-55 1975,-55 1975,-74"/>
<text text-anchor="middle" x="1920" y="-62" font-family="Helvetica,sans-Serif" font-size="10.00">src/memberlist.cpp</text>
</a>
</g>
</g>
<!-- Node1&#45;&gt;Node22 -->
<g id="edge24_Node000001_Node000022" class="edge">
<title>Node1&#45;&gt;Node22</title>
<g id="a_edge24_Node000001_Node000022"><a xlink:title=" ">
<path fill="none" stroke="#63b8ff" d="M1646.27,-109.87C1707.28,-99.98 1806.6,-83.88 1867.35,-74.03"/>
<polygon fill="#63b8ff" stroke="#63b8ff" points="1645.4,-106.46 1636.09,-111.52 1646.52,-113.37 1645.4,-106.46"/>
</a>
</g>
</g>
<!-- Node23 -->
<g id="Node000023" class="node">
<title>Node23</title>
<g id="a_Node000023"><a xlink:href="../../dd/d5c/moduledef_8cpp.html" target="_top" xlink:title=" ">
<polygon fill="white" stroke="#666666" points="2099,-74 1993,-74 1993,-55 2099,-55 2099,-74"/>
<text text-anchor="middle" x="2046" y="-62" font-family="Helvetica,sans-Serif" font-size="10.00">src/moduledef.cpp</text>
</a>
</g>
</g>
<!-- Node1&#45;&gt;Node23 -->
<g id="edge25_Node000001_Node000023" class="edge">
<title>Node1&#45;&gt;Node23</title>
<g id="a_edge25_Node000001_Node000023"><a xlink:title=" ">
<path fill="none" stroke="#63b8ff" d="M1646.32,-112.82C1721.62,-104.72 1863.41,-89.13 1984,-74 1986.91,-73.63 1989.9,-73.25 1992.91,-72.86"/>
<polygon fill="#63b8ff" stroke="#63b8ff" points="1645.71,-109.37 1636.14,-113.92 1646.46,-116.33 1645.71,-109.37"/>
</a>
</g>
</g>
<!-- Node24 -->
<g id="Node000024" class="node">
<title>Node24</title>
<g id="a_Node000024"><a xlink:href="../../d9/db4/pagedef_8cpp.html" target="_top" xlink:title=" ">
<polygon fill="white" stroke="#666666" points="2210.5,-74 2117.5,-74 2117.5,-55 2210.5,-55 2210.5,-74"/>
<text text-anchor="middle" x="2164" y="-62" font-family="Helvetica,sans-Serif" font-size="10.00">src/pagedef.cpp</text>
</a>
</g>
</g>
<!-- Node1&#45;&gt;Node24 -->
<g id="edge26_Node000001_Node000024" class="edge">
<title>Node1&#45;&gt;Node24</title>
<g id="a_edge26_Node000001_Node000024"><a xlink:title=" ">
<path fill="none" stroke="#63b8ff" d="M1646.23,-115.04C1739.82,-108.69 1939.86,-94 2108,-74 2111.03,-73.64 2114.14,-73.24 2117.28,-72.82"/>
<polygon fill="#63b8ff" stroke="#63b8ff" points="1645.91,-111.55 1636.16,-115.71 1646.38,-118.53 1645.91,-111.55"/>
</a>
</g>
</g>
<!-- Node25 -->
<g id="Node000025" class="node">
<title>Node25</title>
<g id="a_Node000025"><a xlink:href="../../de/dd0/perlmodgen_8cpp.html" target="_top" xlink:title=" ">
<polygon fill="white" stroke="#666666" points="2341.5,-74 2228.5,-74 2228.5,-55 2341.5,-55 2341.5,-74"/>
<text text-anchor="middle" x="2285" y="-62" font-family="Helvetica,sans-Serif" font-size="10.00">src/perlmodgen.cpp</text>
</a>
</g>
</g>
<!-- Node1&#45;&gt;Node25 -->
<g id="edge27_Node000001_Node000025" class="edge">
<title>Node1&#45;&gt;Node25</title>
<g id="a_edge27_Node000001_Node000025"><a xlink:title=" ">
<path fill="none" stroke="#63b8ff" d="M1646.03,-115.8C1754.15,-110.06 2007.79,-95.39 2220,-74 2222.72,-73.73 2225.5,-73.43 2228.3,-73.12"/>
<polygon fill="#63b8ff" stroke="#63b8ff" points="1645.83,-112.3 1636.03,-116.33 1646.2,-119.29 1645.83,-112.3"/>
</a>
</g>
</g>
<!-- Node26 -->
<g id="Node000026" class="node">
<title>Node26</title>
<g id="a_Node000026"><a xlink:href="../../d3/ded/pycode_8l.html" target="_top" xlink:title=" ">
<polygon fill="white" stroke="#666666" points="2434.5,-74 2359.5,-74 2359.5,-55 2434.5,-55 2434.5,-74"/>
<text text-anchor="middle" x="2397" y="-62" font-family="Helvetica,sans-Serif" font-size="10.00">src/pycode.l</text>
</a>
</g>
</g>
<!-- Node1&#45;&gt;Node26 -->
<g id="edge28_Node000001_Node000026" class="edge">
<title>Node1&#45;&gt;Node26</title>
<g id="a_edge28_Node000001_Node000026"><a xlink:title=" ">
<path fill="none" stroke="#63b8ff" d="M1646.33,-117.64C1770.39,-115.15 2087.83,-105.91 2351,-74 2353.74,-73.67 2356.57,-73.27 2359.4,-72.84"/>
<polygon fill="#63b8ff" stroke="#63b8ff" points="1646.26,-114.14 1636.33,-117.84 1646.39,-121.14 1646.26,-114.14"/>
</a>
</g>
</g>
<!-- Node27 -->
<g id="Node000027" class="node">
<title>Node27</title>
<g id="a_Node000027"><a xlink:href="../../d9/d45/qhp_8cpp.html" target="_top" xlink:title=" ">
<polygon fill="white" stroke="#666666" points="2525,-74 2453,-74 2453,-55 2525,-55 2525,-74"/>
<text text-anchor="middle" x="2489" y="-62" font-family="Helvetica,sans-Serif" font-size="10.00">src/qhp.cpp</text>
</a>
</g>
</g>
<!-- Node1&#45;&gt;Node27 -->
<g id="edge29_Node000001_Node000027" class="edge">
<title>Node1&#45;&gt;Node27</title>
<g id="a_edge29_Node000001_Node000027"><a xlink:title=" ">
<path fill="none" stroke="#63b8ff" d="M1646.14,-118.2C1780.36,-116.9 2143.72,-110.05 2444,-74 2446.84,-73.66 2449.77,-73.25 2452.72,-72.79"/>
<polygon fill="#63b8ff" stroke="#63b8ff" points="1646.09,-114.7 1636.12,-118.29 1646.15,-121.7 1646.09,-114.7"/>
</a>
</g>
</g>
<!-- Node28 -->
<g id="Node000028" class="node">
<title>Node28</title>
<g id="a_Node000028"><a xlink:href="../../d0/d9c/rtfgen_8cpp.html" target="_top" xlink:title=" ">
<polygon fill="white" stroke="#666666" points="2626.5,-74 2543.5,-74 2543.5,-55 2626.5,-55 2626.5,-74"/>
<text text-anchor="middle" x="2585" y="-62" font-family="Helvetica,sans-Serif" font-size="10.00">src/rtfgen.cpp</text>
</a>
</g>
</g>
<!-- Node1&#45;&gt;Node28 -->
<g id="edge30_Node000001_Node000028" class="edge">
<title>Node1&#45;&gt;Node28</title>
<g id="a_edge30_Node000001_Node000028"><a xlink:title=" ">
<path fill="none" stroke="#63b8ff" d="M1646.59,-118.17C1790.57,-116.82 2197.64,-109.86 2534,-74 2537.03,-73.68 2540.16,-73.29 2543.31,-72.86"/>
<polygon fill="#63b8ff" stroke="#63b8ff" points="1646.25,-114.68 1636.28,-118.27 1646.31,-121.68 1646.25,-114.68"/>
</a>
</g>
</g>
<!-- Node29 -->
<g id="Node000029" class="node">
<title>Node29</title>
<g id="a_Node000029"><a xlink:href="../../d7/d79/searchindex_8cpp.html" target="_top" xlink:title=" ">
<polygon fill="white" stroke="#666666" points="2757.5,-74 2644.5,-74 2644.5,-55 2757.5,-55 2757.5,-74"/>
<text text-anchor="middle" x="2701" y="-62" font-family="Helvetica,sans-Serif" font-size="10.00">src/searchindex.cpp</text>
</a>
</g>
</g>
<!-- Node1&#45;&gt;Node29 -->
<g id="edge31_Node000001_Node000029" class="edge">
<title>Node1&#45;&gt;Node29</title>
<g id="a_edge31_Node000001_Node000029"><a xlink:title=" ">
<path fill="none" stroke="#63b8ff" d="M1646.43,-117.87C1800.34,-115.69 2257.83,-106.73 2636,-74 2638.72,-73.76 2641.5,-73.5 2644.31,-73.21"/>
<polygon fill="#63b8ff" stroke="#63b8ff" points="1646.26,-114.37 1636.31,-118.01 1646.35,-121.37 1646.26,-114.37"/>
</a>
</g>
</g>
<!-- Node30 -->
<g id="Node000030" class="node">
<title>Node30</title>
<g id="a_Node000030"><a xlink:href="../../d9/d2f/searchindex__js_8cpp.html" target="_top" xlink:title=" ">
<polygon fill="white" stroke="#666666" points="2902.5,-74 2775.5,-74 2775.5,-55 2902.5,-55 2902.5,-74"/>
<text text-anchor="middle" x="2839" y="-62" font-family="Helvetica,sans-Serif" font-size="10.00">src/searchindex_js.cpp</text>
</a>
</g>
</g>
<!-- Node1&#45;&gt;Node30 -->
<g id="edge32_Node000001_Node000030" class="edge">
<title>Node1&#45;&gt;Node30</title>
<g id="a_edge32_Node000001_Node000030"><a xlink:title=" ">
<path fill="none" stroke="#63b8ff" d="M1646.7,-117.99C1813.23,-116.06 2335.71,-107.58 2767,-74 2769.76,-73.79 2772.58,-73.54 2775.42,-73.28"/>
<polygon fill="#63b8ff" stroke="#63b8ff" points="1646.21,-114.49 1636.25,-118.1 1646.29,-121.49 1646.21,-114.49"/>
</a>
</g>
</g>
<!-- Node31 -->
<g id="Node000031" class="node">
<title>Node31</title>
<g id="a_Node000031"><a xlink:href="../../d3/d25/sitemap_8cpp.html" target="_top" xlink:title=" ">
<polygon fill="white" stroke="#666666" points="3015,-74 2921,-74 2921,-55 3015,-55 3015,-74"/>
<text text-anchor="middle" x="2968" y="-62" font-family="Helvetica,sans-Serif" font-size="10.00">src/sitemap.cpp</text>
</a>
</g>
</g>
<!-- Node1&#45;&gt;Node31 -->
<g id="edge33_Node000001_Node000031" class="edge">
<title>Node1&#45;&gt;Node31</title>
<g id="a_edge33_Node000001_Node000031"><a xlink:title=" ">
<path fill="none" stroke="#63b8ff" d="M1646.3,-118.93C1825.4,-119.91 2421.83,-119.31 2912,-74 2914.94,-73.73 2917.96,-73.4 2921,-73.04"/>
<polygon fill="#63b8ff" stroke="#63b8ff" points="1646.12,-115.43 1636.1,-118.87 1646.08,-122.43 1646.12,-115.43"/>
</a>
</g>
</g>
<!-- Node32 -->
<g id="Node000032" class="node">
<title>Node32</title>
<g id="a_Node000032"><a xlink:href="../../d8/df8/sqlite3gen_8cpp.html" target="_top" xlink:title=" ">
<polygon fill="white" stroke="#666666" points="3138.5,-74 3033.5,-74 3033.5,-55 3138.5,-55 3138.5,-74"/>
<text text-anchor="middle" x="3086" y="-62" font-family="Helvetica,sans-Serif" font-size="10.00">src/sqlite3gen.cpp</text>
</a>
</g>
</g>
<!-- Node1&#45;&gt;Node32 -->
<g id="edge34_Node000001_Node000032" class="edge">
<title>Node1&#45;&gt;Node32</title>
<g id="a_edge34_Node000001_Node000032"><a xlink:title=" ">
<path fill="none" stroke="#63b8ff" d="M1646.31,-118.86C1834.86,-119.71 2487.68,-118.98 3024,-74 3027.03,-73.75 3030.14,-73.45 3033.28,-73.11"/>
<polygon fill="#63b8ff" stroke="#63b8ff" points="1646.14,-115.36 1636.12,-118.81 1646.1,-122.36 1646.14,-115.36"/>
</a>
</g>
</g>
<!-- Node33 -->
<g id="Node000033" class="node">
<title>Node33</title>
<g id="a_Node000033"><a xlink:href="../../df/d2d/util_8cpp.html" target="_top" xlink:title=" ">
<polygon fill="white" stroke="#666666" points="3227,-74 3157,-74 3157,-55 3227,-55 3227,-74"/>
<text text-anchor="middle" x="3192" y="-62" font-family="Helvetica,sans-Serif" font-size="10.00">src/util.cpp</text>
</a>
</g>
</g>
<!-- Node1&#45;&gt;Node33 -->
<g id="edge35_Node000001_Node000033" class="edge">
<title>Node1&#45;&gt;Node33</title>
<g id="a_edge35_Node000001_Node000033"><a xlink:title=" ">
<path fill="none" stroke="#63b8ff" d="M1646.36,-118.14C1884.03,-116.33 2847.61,-107.09 3148,-74 3150.78,-73.69 3153.66,-73.3 3156.53,-72.86"/>
<polygon fill="#63b8ff" stroke="#63b8ff" points="1646.22,-114.64 1636.25,-118.21 1646.28,-121.64 1646.22,-114.64"/>
</a>
</g>
</g>
<!-- Node34 -->
<g id="Node000034" class="node">
<title>Node34</title>
<g id="a_Node000034"><a xlink:href="../../de/dea/vhdldocgen_8cpp.html" target="_top" xlink:title=" ">
<polygon fill="white" stroke="#666666" points="3355,-74 3245,-74 3245,-55 3355,-55 3355,-74"/>
<text text-anchor="middle" x="3300" y="-62" font-family="Helvetica,sans-Serif" font-size="10.00">src/vhdldocgen.cpp</text>
</a>
</g>
</g>
<!-- Node1&#45;&gt;Node34 -->
<g id="edge36_Node000001_Node000034" class="edge">
<title>Node1&#45;&gt;Node34</title>
<g id="a_edge36_Node000001_Node000034"><a xlink:title=" ">
<path fill="none" stroke="#63b8ff" d="M1646.11,-117.81C1891.41,-114.52 2916.32,-99.49 3236,-74 3238.91,-73.77 3241.88,-73.5 3244.88,-73.19"/>
<polygon fill="#63b8ff" stroke="#63b8ff" points="1645.98,-114.31 1636.03,-117.95 1646.07,-121.31 1645.98,-114.31"/>
</a>
</g>
</g>
<!-- Node35 -->
<g id="Node000035" class="node">
<title>Node35</title>
<g id="a_Node000035"><a xlink:href="../../d0/dc3/xmlgen_8cpp.html" target="_top" xlink:title=" ">
<polygon fill="white" stroke="#666666" points="3464.5,-74 3373.5,-74 3373.5,-55 3464.5,-55 3464.5,-74"/>
<text text-anchor="middle" x="3419" y="-62" font-family="Helvetica,sans-Serif" font-size="10.00">src/xmlgen.cpp</text>
</a>
</g>
</g>
<!-- Node1&#45;&gt;Node35 -->
<g id="edge37_Node000001_Node000035" class="edge">
<title>Node1&#45;&gt;Node35</title>
<g id="a_edge37_Node000001_Node000035"><a xlink:title=" ">
<path fill="none" stroke="#63b8ff" d="M1646.45,-118.08C1903.92,-115.93 3018.04,-104.95 3364,-74 3367.08,-73.72 3370.25,-73.39 3373.44,-73"/>
<polygon fill="#63b8ff" stroke="#63b8ff" points="1646.21,-114.58 1636.24,-118.17 1646.27,-121.58 1646.21,-114.58"/>
</a>
</g>
</g>
<!-- Node10&#45;&gt;Node6 -->
<g id="edge10_Node000010_Node000006" class="edge">
<title>Node10&#45;&gt;Node6</title>
<g id="a_edge10_Node000010_Node000006"><a xlink:title=" ">
<path fill="none" stroke="#63b8ff" d="M480.24,-53.13C425.87,-43.19 344.79,-28.37 293.96,-19.08"/>
<polygon fill="#63b8ff" stroke="#63b8ff" points="479.94,-56.63 490.41,-54.98 481.2,-49.74 479.94,-56.63"/>
</a>
</g>
</g>
<!-- Node11 -->
<g id="Node000011" class="node">
<title>Node11</title>
<g id="a_Node000011"><a xlink:href="../../d1/d86/dotgroupcollaboration_8cpp.html" target="_top" xlink:title=" ">
<polygon fill="white" stroke="#666666" points="595.5,-19 434.5,-19 434.5,0 595.5,0 595.5,-19"/>
<text text-anchor="middle" x="515" y="-7" font-family="Helvetica,sans-Serif" font-size="10.00">src/dotgroupcollaboration.cpp</text>
</a>
</g>
</g>
<!-- Node10&#45;&gt;Node11 -->
<g id="edge11_Node000010_Node000011" class="edge">
<title>Node10&#45;&gt;Node11</title>
<g id="a_edge11_Node000010_Node000011"><a xlink:title=" ">
<path fill="none" stroke="#63b8ff" d="M529.42,-45.24C525.74,-36.37 521.49,-26.14 518.57,-19.09"/>
<polygon fill="#63b8ff" stroke="#63b8ff" points="526.3,-46.85 533.37,-54.75 532.77,-44.17 526.3,-46.85"/>
</a>
</g>
</g>
<!-- Node10&#45;&gt;Node12 -->
<g id="edge12_Node000010_Node000012" class="edge">
<title>Node10&#45;&gt;Node12</title>
<g id="a_edge12_Node000010_Node000012"><a xlink:title=" ">
<path fill="none" stroke="#63b8ff" d="M566.41,-51.03C589.53,-41.23 621.13,-27.83 641.55,-19.17"/>
<polygon fill="#63b8ff" stroke="#63b8ff" points="564.92,-47.86 557.08,-54.98 567.66,-54.3 564.92,-47.86"/>
</a>
</g>
</g>
<!-- Node13 -->
<g id="Node000013" class="node">
<title>Node13</title>
<g id="a_Node000013"><a xlink:href="../../d8/d6e/htmlgen_8cpp.html" target="_top" xlink:title=" ">
<polygon fill="white" stroke="#666666" points="416.5,-19 321.5,-19 321.5,0 416.5,0 416.5,-19"/>
<text text-anchor="middle" x="369" y="-7" font-family="Helvetica,sans-Serif" font-size="10.00">src/htmlgen.cpp</text>
</a>
</g>
</g>
<!-- Node10&#45;&gt;Node13 -->
<g id="edge13_Node000010_Node000013" class="edge">
<title>Node10&#45;&gt;Node13</title>
<g id="a_edge13_Node000010_Node000013"><a xlink:title=" ">
<path fill="none" stroke="#63b8ff" d="M500.32,-51.93C468.94,-42.03 424.49,-28.01 396.2,-19.08"/>
<polygon fill="#63b8ff" stroke="#63b8ff" points="499.42,-55.31 510.01,-54.98 501.52,-48.64 499.42,-55.31"/>
</a>
</g>
</g>
<!-- Node10&#45;&gt;Node14 -->
<g id="edge14_Node000010_Node000014" class="edge">
<title>Node10&#45;&gt;Node14</title>
<g id="a_edge14_Node000010_Node000014"><a xlink:title=" ">
<path fill="none" stroke="#63b8ff" d="M585.38,-52.82C630.36,-42.88 696.5,-28.28 738.14,-19.08"/>
<polygon fill="#63b8ff" stroke="#63b8ff" points="584.57,-49.41 575.56,-54.98 586.08,-56.25 584.57,-49.41"/>
</a>
</g>
</g>
</g>
</svg>
