<?xml version="1.0" encoding="UTF-8" standalone="no"?>
<!DOCTYPE svg PUBLIC "-//W3C//DTD SVG 1.1//EN"
 "http://www.w3.org/Graphics/SVG/1.1/DTD/svg11.dtd">
<!-- Generated by graphviz version 2.43.0 (0)
 -->
<!-- Title: HtmlGenerator Pages: 1 -->
<!--zoomable 280 -->

<svg id="main" version="1.1" xmlns="http://www.w3.org/2000/svg" xmlns:xlink="http://www.w3.org/1999/xlink" xml:space="preserve" onload="init(evt)">

<style type="text/css"><![CDATA[
.node, .edge {opacity: 0.7;}
.node.selected, .edge.selected {opacity: 1;}
.edge:hover path { stroke: red; }
.edge:hover polygon { stroke: red; fill: red; }
]]></style>

<defs>
  <circle id="rim" cx="0" cy="0" r="7"/>
  <circle id="rim2" cx="0" cy="0" r="3.5"/>
  <g id="zoomPlus">
    <use xlink:href="#rim" fill="#404040"><set attributeName="fill" to="#808080" begin="zoomplus.mouseover" end="zoomplus.mouseout"/></use>
    <path d="M-4,0h8M0,-4v8" fill="none" stroke="white" stroke-width="1.5" pointer-events="none"/>
  </g>
  <g id="zoomMin">
    <use xlink:href="#rim" fill="#404040"><set attributeName="fill" to="#808080" begin="zoomminus.mouseover" end="zoomminus.mouseout"/></use>
    <path d="M-4,0h8" fill="none" stroke="white" stroke-width="1.5" pointer-events="none"/>
  </g>
  <g id="arrowUp" transform="translate(30 24)">
    <use xlink:href="#rim"/>
    <path pointer-events="none" fill="none" stroke="white" stroke-width="1.5" d="M0,-3.0v7 M-2.5,-0.5L0,-3.0L2.5,-0.5"/>
  </g>
  <g id="arrowRight" transform="rotate(90) translate(36 -43)">
    <use xlink:href="#rim"/>
    <path pointer-events="none" fill="none" stroke="white" stroke-width="1.5" d="M0,-3.0v7 M-2.5,-0.5L0,-3.0L2.5,-0.5"/>
  </g>
  <g id="arrowDown" transform="rotate(180) translate(-30 -48)">
    <use xlink:href="#rim"/>
    <path pointer-events="none" fill="none" stroke="white" stroke-width="1.5" d="M0,-3.0v7 M-2.5,-0.5L0,-3.0L2.5,-0.5"/>
  </g>
  <g id="arrowLeft" transform="rotate(270) translate(-36 17)">
    <use xlink:href="#rim"/>
    <path pointer-events="none" fill="none" stroke="white" stroke-width="1.5" d="M0,-3.0v7 M-2.5,-0.5L0,-3.0L2.5,-0.5"/>
  </g>
  <g id="resetDef">
    <use xlink:href="#rim2" fill="#404040"><set attributeName="fill" to="#808080" begin="reset.mouseover" end="reset.mouseout"/></use>
  </g>
</defs>
<script type="application/ecmascript">
var viewWidth = 554;
var viewHeight = 280;
var sectionId = 'dynsection-1';
</script>
<script type="application/ecmascript" xlink:href="../../svg.min.js"/>
<svg id="graph" class="graph">
<g id="viewport">
<title>HtmlGenerator</title>
<!-- Node1 -->
<g id="Node000001" class="node">
<title>Node1</title>
<g id="a_Node000001"><a xlink:title="Generator for HTML output.">
<polygon fill="#999999" stroke="#666666" points="201.91,-19 112.91,-19 112.91,0 201.91,0 201.91,-19"/>
<text text-anchor="middle" x="157.41" y="-7" font-family="Helvetica,sans-Serif" font-size="10.00">HtmlGenerator</text>
</a>
</g>
</g>
<!-- Node2 -->
<g id="Node000002" class="node">
<title>Node2</title>
<g id="a_Node000002"><a xlink:href="../../d3/d8e/class_output_generator.html" target="_top" xlink:title="Base class for shared implementation for all output generators.">
<polygon fill="white" stroke="#666666" points="124.41,-85 26.41,-85 26.41,-66 124.41,-66 124.41,-85"/>
<text text-anchor="middle" x="75.41" y="-73" font-family="Helvetica,sans-Serif" font-size="10.00">OutputGenerator</text>
</a>
</g>
</g>
<!-- Node2&#45;&gt;Node1 -->
<g id="edge1_Node000001_Node000002" class="edge">
<title>Node2&#45;&gt;Node1</title>
<g id="a_edge1_Node000001_Node000002"><a xlink:title=" ">
<path fill="none" stroke="#63b8ff" d="M94.65,-59.49C110.7,-46.96 133.02,-29.54 146.27,-19.2"/>
<polygon fill="#63b8ff" stroke="#63b8ff" points="92.2,-56.96 86.47,-65.87 96.51,-62.48 92.2,-56.96"/>
</a>
</g>
</g>
<!-- Node3 -->
<g id="Node000003" class="node">
<title>Node3</title>
<g id="a_Node000003"><a xlink:href="../../d3/d30/class_text_stream.html" target="_top" xlink:title="Text streaming class that buffers data.">
<polygon fill="white" stroke="#666666" points="218.41,-178.5 146.41,-178.5 146.41,-159.5 218.41,-159.5 218.41,-178.5"/>
<text text-anchor="middle" x="182.41" y="-166.5" font-family="Helvetica,sans-Serif" font-size="10.00">TextStream</text>
</a>
</g>
</g>
<!-- Node3&#45;&gt;Node2 -->
<g id="edge2_Node000002_Node000003" class="edge">
<title>Node3&#45;&gt;Node2</title>
<g id="a_edge2_Node000002_Node000003"><a xlink:title=" ">
<path fill="none" stroke="#9a32cd" stroke-dasharray="5,2" d="M164.28,-152.5C141.59,-133.1 103.53,-100.54 85.48,-85.11"/>
<polygon fill="#9a32cd" stroke="#9a32cd" points="162.28,-155.39 172.15,-159.23 166.83,-150.07 162.28,-155.39"/>
</a>
</g>
<text text-anchor="middle" x="155.41" y="-117" font-family="Helvetica,sans-Serif" font-size="10.00" fill="grey"> m_t</text>
</g>
<!-- Node6 -->
<g id="Node000006" class="node">
<title>Node6</title>
<g id="a_Node000006"><a xlink:href="../../da/db6/class_html_code_generator.html" target="_top" xlink:title="Generator for HTML code fragments.">
<polygon fill="white" stroke="#666666" points="360.41,-85 246.41,-85 246.41,-66 360.41,-66 360.41,-85"/>
<text text-anchor="middle" x="303.41" y="-73" font-family="Helvetica,sans-Serif" font-size="10.00">HtmlCodeGenerator</text>
</a>
</g>
</g>
<!-- Node3&#45;&gt;Node6 -->
<g id="edge8_Node000006_Node000003" class="edge">
<title>Node3&#45;&gt;Node6</title>
<g id="a_edge8_Node000006_Node000003"><a xlink:title=" ">
<path fill="none" stroke="#9a32cd" stroke-dasharray="5,2" d="M200.74,-152.5C216.91,-139.01 241.3,-119.15 263.41,-103 272.02,-96.71 282.02,-90.09 289.87,-85.03"/>
<polygon fill="#9a32cd" stroke="#9a32cd" points="198.07,-150.17 192.66,-159.28 202.57,-155.53 198.07,-150.17"/>
</a>
</g>
<text text-anchor="middle" x="274.41" y="-117" font-family="Helvetica,sans-Serif" font-size="10.00" fill="grey"> m_t</text>
</g>
<!-- Node4 -->
<g id="Node000004" class="node">
<title>Node4</title>
<g id="a_Node000004"><a xlink:href="../../d9/d45/class_q_c_string.html" target="_top" xlink:title="This is an alternative implementation of QCString.">
<polygon fill="white" stroke="#666666" points="266.91,-272 207.91,-272 207.91,-253 266.91,-253 266.91,-272"/>
<text text-anchor="middle" x="237.41" y="-260" font-family="Helvetica,sans-Serif" font-size="10.00">QCString</text>
</a>
</g>
</g>
<!-- Node4&#45;&gt;Node1 -->
<g id="edge5_Node000001_Node000004" class="edge">
<title>Node4&#45;&gt;Node1</title>
<g id="a_edge5_Node000001_Node000004"><a xlink:title=" ">
<path fill="none" stroke="#9a32cd" stroke-dasharray="5,2" d="M197.43,-261.8C165.85,-260.37 121.7,-254.53 88.41,-235 39.38,-206.23 26.52,-189.54 7.41,-136 -3.15,-106.4 -3.51,-89.45 17.41,-66 41.96,-38.5 81.94,-24.45 112.9,-17.39"/>
<polygon fill="#9a32cd" stroke="#9a32cd" points="197.51,-265.31 207.62,-262.13 197.74,-258.31 197.51,-265.31"/>
</a>
</g>
<text text-anchor="middle" x="34.91" y="-128" font-family="Helvetica,sans-Serif" font-size="10.00" fill="grey"> m_lastFile</text>
<text text-anchor="middle" x="34.91" y="-117" font-family="Helvetica,sans-Serif" font-size="10.00" fill="grey">m_lastTitle</text>
<text text-anchor="middle" x="34.91" y="-106" font-family="Helvetica,sans-Serif" font-size="10.00" fill="grey">m_relPath</text>
</g>
<!-- Node4&#45;&gt;Node2 -->
<g id="edge3_Node000002_Node000004" class="edge">
<title>Node4&#45;&gt;Node2</title>
<g id="a_edge3_Node000002_Node000004"><a xlink:title=" ">
<path fill="none" stroke="#9a32cd" stroke-dasharray="5,2" d="M197.82,-254.48C159.68,-245.4 103.98,-225.53 77.41,-184 57.29,-152.55 67.39,-104.63 72.77,-85.17"/>
<polygon fill="#9a32cd" stroke="#9a32cd" points="197.07,-257.9 207.59,-256.66 198.59,-251.07 197.07,-257.9"/>
</a>
</g>
<text text-anchor="middle" x="107.41" y="-172" font-family="Helvetica,sans-Serif" font-size="10.00" fill="grey"> m_dir</text>
<text text-anchor="middle" x="107.41" y="-161" font-family="Helvetica,sans-Serif" font-size="10.00" fill="grey">m_fileName</text>
</g>
<!-- Node4&#45;&gt;Node6 -->
<g id="edge9_Node000006_Node000004" class="edge">
<title>Node4&#45;&gt;Node6</title>
<g id="a_edge9_Node000006_Node000004"><a xlink:title=" ">
<path fill="none" stroke="#9a32cd" stroke-dasharray="5,2" d="M277.24,-259.24C309.91,-256.35 356.87,-249.81 395.41,-235 434.77,-219.88 455.14,-220.97 475.41,-184 493.59,-150.85 479.75,-125.56 449.41,-103 435.41,-92.58 395.32,-85.77 360.69,-81.66"/>
<polygon fill="#9a32cd" stroke="#9a32cd" points="276.85,-255.76 267.17,-260.05 277.42,-262.74 276.85,-255.76"/>
</a>
</g>
<text text-anchor="middle" x="514.91" y="-172" font-family="Helvetica,sans-Serif" font-size="10.00" fill="grey"> m_fileName</text>
<text text-anchor="middle" x="514.91" y="-161" font-family="Helvetica,sans-Serif" font-size="10.00" fill="grey">m_relPath</text>
</g>
<!-- Node8 -->
<g id="Node000008" class="node">
<title>Node8</title>
<g id="a_Node000008"><a xlink:href="../../d2/dd6/struct_html_code_generator_1_1_line_info.html" target="_top" xlink:title=" ">
<polygon fill="white" stroke="#666666" points="466.41,-184 346.41,-184 346.41,-154 466.41,-154 466.41,-184"/>
<text text-anchor="start" x="354.41" y="-172" font-family="Helvetica,sans-Serif" font-size="10.00">HtmlCodeGenerator::</text>
<text text-anchor="middle" x="406.41" y="-161" font-family="Helvetica,sans-Serif" font-size="10.00">LineInfo</text>
</a>
</g>
</g>
<!-- Node4&#45;&gt;Node8 -->
<g id="edge11_Node000008_Node000004" class="edge">
<title>Node4&#45;&gt;Node8</title>
<g id="a_edge11_Node000008_Node000004"><a xlink:title=" ">
<path fill="none" stroke="#9a32cd" stroke-dasharray="5,2" d="M262.34,-248C293.93,-230.9 348.13,-201.56 380.28,-184.15"/>
<polygon fill="#9a32cd" stroke="#9a32cd" points="260.44,-245.05 253.31,-252.89 263.77,-251.21 260.44,-245.05"/>
</a>
</g>
<text text-anchor="middle" x="368.91" y="-227" font-family="Helvetica,sans-Serif" font-size="10.00" fill="grey"> anchor</text>
<text text-anchor="middle" x="368.91" y="-216" font-family="Helvetica,sans-Serif" font-size="10.00" fill="grey">fileName</text>
<text text-anchor="middle" x="368.91" y="-205" font-family="Helvetica,sans-Serif" font-size="10.00" fill="grey">ref</text>
</g>
<!-- Node5 -->
<g id="Node000005" class="node">
<title>Node5</title>
<g id="a_Node000005"><a xlink:href="../../d9/de9/class_output_gen_intf.html" target="_top" xlink:title="Abstract interface for output generators.">
<polygon fill="white" stroke="#666666" points="228.41,-85 142.41,-85 142.41,-66 228.41,-66 228.41,-85"/>
<text text-anchor="middle" x="185.41" y="-73" font-family="Helvetica,sans-Serif" font-size="10.00">OutputGenIntf</text>
</a>
</g>
</g>
<!-- Node5&#45;&gt;Node1 -->
<g id="edge4_Node000001_Node000005" class="edge">
<title>Node5&#45;&gt;Node1</title>
<g id="a_edge4_Node000001_Node000005"><a xlink:title=" ">
<path fill="none" stroke="#63b8ff" d="M177.62,-56.68C172.31,-44.55 165.51,-29.01 161.31,-19.41"/>
<polygon fill="#63b8ff" stroke="#63b8ff" points="174.42,-58.11 181.64,-65.87 180.83,-55.3 174.42,-58.11"/>
</a>
</g>
</g>
<!-- Node6&#45;&gt;Node1 -->
<g id="edge6_Node000001_Node000006" class="edge">
<title>Node6&#45;&gt;Node1</title>
<g id="a_edge6_Node000001_Node000006"><a xlink:title=" ">
<path fill="none" stroke="#9a32cd" stroke-dasharray="5,2" d="M274.2,-61.69C245.42,-49.08 202.26,-30.16 177.26,-19.2"/>
<polygon fill="#9a32cd" stroke="#9a32cd" points="273.16,-65.06 283.72,-65.87 275.97,-58.65 273.16,-65.06"/>
</a>
</g>
<text text-anchor="middle" x="268.91" y="-40" font-family="Helvetica,sans-Serif" font-size="10.00" fill="grey"> m_codeGen</text>
</g>
<!-- Node7 -->
<g id="Node000007" class="node">
<title>Node7</title>
<g id="a_Node000007"><a xlink:href="../../db/d44/class_output_code_intf.html" target="_top" xlink:title="Base class for code generators.">
<polygon fill="white" stroke="#666666" points="327.91,-178.5 236.91,-178.5 236.91,-159.5 327.91,-159.5 327.91,-178.5"/>
<text text-anchor="middle" x="282.41" y="-166.5" font-family="Helvetica,sans-Serif" font-size="10.00">OutputCodeIntf</text>
</a>
</g>
</g>
<!-- Node7&#45;&gt;Node6 -->
<g id="edge7_Node000006_Node000007" class="edge">
<title>Node7&#45;&gt;Node6</title>
<g id="a_edge7_Node000006_Node000007"><a xlink:title=" ">
<path fill="none" stroke="#63b8ff" d="M286.7,-149.31C291.2,-129.7 298.08,-99.73 301.44,-85.11"/>
<polygon fill="#63b8ff" stroke="#63b8ff" points="283.25,-148.7 284.43,-159.23 290.07,-150.26 283.25,-148.7"/>
</a>
</g>
</g>
<!-- Node8&#45;&gt;Node6 -->
<g id="edge10_Node000006_Node000008" class="edge">
<title>Node8&#45;&gt;Node6</title>
<g id="a_edge10_Node000006_Node000008"><a xlink:title=" ">
<path fill="none" stroke="#9a32cd" stroke-dasharray="5,2" d="M382.69,-146.93C360.69,-127.38 329.02,-99.25 313.19,-85.19"/>
<polygon fill="#9a32cd" stroke="#9a32cd" points="380.52,-149.68 390.32,-153.7 385.17,-144.45 380.52,-149.68"/>
</a>
</g>
<text text-anchor="middle" x="407.41" y="-117" font-family="Helvetica,sans-Serif" font-size="10.00" fill="grey"> m_lastLineInfo</text>
</g>
</g>
</svg>

<g id="navigator" transform="translate(0 0)" fill="#404254">
  <rect fill="#f2f5e9" fill-opacity="0.5" stroke="#606060" stroke-width=".5" x="0" y="0" width="60" height="60"/>
  <use id="zoomplus" xlink:href="#zoomPlus" x="17" y="9" onmousedown="handleZoom(evt,'in')"/>
  <use id="zoomminus" xlink:href="#zoomMin" x="42" y="9" onmousedown="handleZoom(evt,'out')"/>
  <use id="reset" xlink:href="#resetDef" x="30" y="36" onmousedown="handleReset()"/>
   <use id="arrowup" xlink:href="#arrowUp" x="0" y="0" onmousedown="handlePan(0,-1)"/>
  <use id="arrowright" xlink:href="#arrowRight" x="0" y="0" onmousedown="handlePan(1,0)"/>
  <use id="arrowdown" xlink:href="#arrowDown" x="0" y="0" onmousedown="handlePan(0,1)"/>
  <use id="arrowleft" xlink:href="#arrowLeft" x="0" y="0" onmousedown="handlePan(-1,0)"/>
</g>
<svg viewBox="0 0 15 15" width="100%" height="30px" preserveAspectRatio="xMaxYMin meet">
 <g id="arrow_out" transform="scale(0.3 0.3)">
  <a xlink:href="class_html_generator__coll__graph_org.svg" target="_base">
   <rect id="button" ry="5" rx="5" y="6" x="6" height="38" width="38"
        fill="#f2f5e9" fill-opacity="0.5" stroke="#606060" stroke-width="1.0"/>
   <path id="arrow"
     d="M 11.500037,31.436501 C 11.940474,20.09759 22.043105,11.32322 32.158766,21.979434 L 37.068811,17.246167 C 37.068811,17.246167 37.088388,32 37.088388,32 L 22.160133,31.978069 C 22.160133,31.978069 26.997745,27.140456 26.997745,27.140456 C 18.528582,18.264221 13.291696,25.230495 11.500037,31.436501 z"
     style="fill:#404040;"/>
  </a>
 </g>
</svg>

<style type='text/css'>
<![CDATA[
[data-mouse-over-selected='false'] { opacity: 0.7; }
[data-mouse-over-selected='true']  { opacity: 1.0; }
]]>
</style>
<script type="application/ecmascript"><![CDATA[
document.addEventListener('DOMContentLoaded', (event) => {
  highlightEdges();
  highlightAdjacentNodes();
});
]]></script>
</svg>
