<?xml version="1.0" encoding="UTF-8" standalone="no"?>
<!DOCTYPE svg PUBLIC "-//W3C//DTD SVG 1.1//EN"
 "http://www.w3.org/Graphics/SVG/1.1/DTD/svg11.dtd">
<!-- Generated by graphviz version 2.43.0 (0)
 -->
<!-- Title: DocAnchor Pages: 1 -->
<svg width="1276pt" height="440pt"
 viewBox="0.00 0.00 1276.00 440.00" xmlns="http://www.w3.org/2000/svg" xmlns:xlink="http://www.w3.org/1999/xlink">
<g id="graph0" class="graph" transform="scale(1 1) rotate(0) translate(4 436)">
<title>DocAnchor</title>
<!-- Node1 -->
<g id="Node000001" class="node">
<title>Node1</title>
<g id="a_Node000001"><a xlink:title="Node representing an anchor.">
<polygon fill="#999999" stroke="#666666" points="1268,-179.5 1199,-179.5 1199,-160.5 1268,-160.5 1268,-179.5"/>
<text text-anchor="middle" x="1233.5" y="-167.5" font-family="Helvetica,sans-Serif" font-size="10.00">DocAnchor</text>
</a>
</g>
</g>
<!-- Node2 -->
<g id="Node000002" class="node">
<title>Node2</title>
<g id="a_Node000002"><a xlink:href="../../d9/d0e/class_doc_node.html" target="_top" xlink:title="Abstract node interface with type information.">
<polygon fill="white" stroke="#666666" points="1162,-220.5 1101,-220.5 1101,-201.5 1162,-201.5 1162,-220.5"/>
<text text-anchor="middle" x="1131.5" y="-208.5" font-family="Helvetica,sans-Serif" font-size="10.00">DocNode</text>
</a>
</g>
</g>
<!-- Node2&#45;&gt;Node1 -->
<g id="edge1_Node000001_Node000002" class="edge">
<title>Node2&#45;&gt;Node1</title>
<g id="a_edge1_Node000001_Node000002"><a xlink:title=" ">
<path fill="none" stroke="#63b8ff" d="M1165.2,-197.59C1179.53,-191.72 1196.01,-184.96 1209.09,-179.6"/>
<polygon fill="#63b8ff" stroke="#63b8ff" points="1163.62,-194.46 1155.69,-201.49 1166.27,-200.94 1163.62,-194.46"/>
</a>
</g>
</g>
<!-- Node3 -->
<g id="Node000003" class="node">
<title>Node3</title>
<g id="a_Node000003"><a xlink:href="../../da/d02/class_doc_parser.html" target="_top" xlink:title=" ">
<polygon fill="white" stroke="#666666" points="1016,-279.5 951,-279.5 951,-260.5 1016,-260.5 1016,-279.5"/>
<text text-anchor="middle" x="983.5" y="-267.5" font-family="Helvetica,sans-Serif" font-size="10.00">DocParser</text>
</a>
</g>
</g>
<!-- Node3&#45;&gt;Node2 -->
<g id="edge2_Node000002_Node000003" class="edge">
<title>Node3&#45;&gt;Node2</title>
<g id="a_edge2_Node000002_Node000003"><a xlink:title=" ">
<path fill="none" stroke="#9a32cd" stroke-dasharray="5,2" d="M1017.76,-256.56C1044.89,-245.6 1082.55,-230.38 1106.73,-220.61"/>
<polygon fill="#9a32cd" stroke="#9a32cd" points="1016.24,-253.4 1008.28,-260.39 1018.87,-259.89 1016.24,-253.4"/>
</a>
</g>
<text text-anchor="middle" x="1058.5" y="-253" font-family="Helvetica,sans-Serif" font-size="10.00" fill="grey"> m_parser</text>
</g>
<!-- Node4 -->
<g id="Node000004" class="node">
<title>Node4</title>
<g id="a_Node000004"><a xlink:href="../../de/dad/class_i_doc_parser.html" target="_top" xlink:title="opaque parser interface">
<polygon fill="white" stroke="#666666" points="845,-335.5 777,-335.5 777,-316.5 845,-316.5 845,-335.5"/>
<text text-anchor="middle" x="811" y="-323.5" font-family="Helvetica,sans-Serif" font-size="10.00">IDocParser</text>
</a>
</g>
</g>
<!-- Node4&#45;&gt;Node3 -->
<g id="edge3_Node000003_Node000004" class="edge">
<title>Node4&#45;&gt;Node3</title>
<g id="a_edge3_Node000003_Node000004"><a xlink:title=" ">
<path fill="none" stroke="#63b8ff" d="M855.01,-317.97C878.48,-312.94 907.8,-305.58 933,-296 944.61,-291.58 956.99,-285.08 966.46,-279.69"/>
<polygon fill="#63b8ff" stroke="#63b8ff" points="854.08,-314.59 845,-320.05 855.51,-321.44 854.08,-314.59"/>
</a>
</g>
</g>
<!-- Node5 -->
<g id="Node000005" class="node">
<title>Node5</title>
<g id="a_Node000005"><a xlink:href="../../d8/d7d/struct_doc_parser_context.html" target="_top" xlink:title="Parser&#39;s context to store all global variables.">
<polygon fill="white" stroke="#666666" points="863,-298.5 759,-298.5 759,-279.5 863,-279.5 863,-298.5"/>
<text text-anchor="middle" x="811" y="-286.5" font-family="Helvetica,sans-Serif" font-size="10.00">DocParserContext</text>
</a>
</g>
</g>
<!-- Node5&#45;&gt;Node3 -->
<g id="edge4_Node000003_Node000005" class="edge">
<title>Node5&#45;&gt;Node3</title>
<g id="a_edge4_Node000003_Node000005"><a xlink:title=" ">
<path fill="none" stroke="#9a32cd" stroke-dasharray="5,2" d="M873.42,-282.16C899.68,-279.23 929.23,-275.94 950.94,-273.52"/>
<polygon fill="#9a32cd" stroke="#9a32cd" points="872.71,-278.71 863.16,-283.3 873.48,-285.67 872.71,-278.71"/>
</a>
</g>
<text text-anchor="middle" x="907" y="-284" font-family="Helvetica,sans-Serif" font-size="10.00" fill="grey"> context</text>
</g>
<!-- Node6 -->
<g id="Node000006" class="node">
<title>Node6</title>
<g id="a_Node000006"><a xlink:href="../../d5/dcc/class_definition.html" target="_top" xlink:title="The common base class of all entity definitions found in the sources.">
<polygon fill="white" stroke="#666666" points="293,-402.5 229,-402.5 229,-383.5 293,-383.5 293,-402.5"/>
<text text-anchor="middle" x="261" y="-390.5" font-family="Helvetica,sans-Serif" font-size="10.00">Definition</text>
</a>
</g>
</g>
<!-- Node6&#45;&gt;Node5 -->
<g id="edge5_Node000005_Node000006" class="edge">
<title>Node6&#45;&gt;Node5</title>
<g id="a_edge5_Node000005_Node000006"><a xlink:title=" ">
<path fill="none" stroke="#9a32cd" stroke-dasharray="5,2" d="M303.61,-392.86C406.39,-391.81 669.14,-384.5 741,-338 754.05,-329.55 747.04,-317.94 759,-308 763.65,-304.13 769.16,-301.01 774.82,-298.51"/>
<polygon fill="#9a32cd" stroke="#9a32cd" points="303.29,-389.37 293.32,-392.95 303.35,-396.37 303.29,-389.37"/>
</a>
</g>
<text text-anchor="middle" x="580.5" y="-386" font-family="Helvetica,sans-Serif" font-size="10.00" fill="grey"> scope</text>
</g>
<!-- Node12 -->
<g id="Node000012" class="node">
<title>Node12</title>
<g id="a_Node000012"><a xlink:href="../../da/d09/class_member_def.html" target="_top" xlink:title="A model of a class/file/namespace member symbol.">
<polygon fill="white" stroke="#666666" points="617.5,-425.5 543.5,-425.5 543.5,-406.5 617.5,-406.5 617.5,-425.5"/>
<text text-anchor="middle" x="580.5" y="-413.5" font-family="Helvetica,sans-Serif" font-size="10.00">MemberDef</text>
</a>
</g>
</g>
<!-- Node6&#45;&gt;Node12 -->
<g id="edge12_Node000012_Node000006" class="edge">
<title>Node6&#45;&gt;Node12</title>
<g id="a_edge12_Node000012_Node000006"><a xlink:title=" ">
<path fill="none" stroke="#63b8ff" d="M303.3,-395.99C365.81,-400.52 483.49,-409.04 543.02,-413.36"/>
<polygon fill="#63b8ff" stroke="#63b8ff" points="303.25,-392.48 293.02,-395.25 302.74,-399.46 303.25,-392.48"/>
</a>
</g>
</g>
<!-- Node7 -->
<g id="Node000007" class="node">
<title>Node7</title>
<g id="a_Node000007"><a xlink:href="../../d9/d45/class_q_c_string.html" target="_top" xlink:title="This is an alternative implementation of QCString.">
<polygon fill="white" stroke="#666666" points="290.5,-179.5 231.5,-179.5 231.5,-160.5 290.5,-160.5 290.5,-179.5"/>
<text text-anchor="middle" x="261" y="-167.5" font-family="Helvetica,sans-Serif" font-size="10.00">QCString</text>
</a>
</g>
</g>
<!-- Node7&#45;&gt;Node1 -->
<g id="edge18_Node000001_Node000007" class="edge">
<title>Node7&#45;&gt;Node1</title>
<g id="a_edge18_Node000001_Node000007"><a xlink:title=" ">
<path fill="none" stroke="#9a32cd" stroke-dasharray="5,2" d="M301.04,-170C360.94,-170 479.14,-170 579.5,-170 579.5,-170 579.5,-170 1132.5,-170 1154.55,-170 1179.33,-170 1198.71,-170"/>
<polygon fill="#9a32cd" stroke="#9a32cd" points="300.89,-166.5 290.89,-170 300.89,-173.5 300.89,-166.5"/>
</a>
</g>
<text text-anchor="middle" x="907" y="-184" font-family="Helvetica,sans-Serif" font-size="10.00" fill="grey"> m_anchor</text>
<text text-anchor="middle" x="907" y="-173" font-family="Helvetica,sans-Serif" font-size="10.00" fill="grey">m_file</text>
</g>
<!-- Node7&#45;&gt;Node5 -->
<g id="edge6_Node000005_Node000007" class="edge">
<title>Node7&#45;&gt;Node5</title>
<g id="a_edge6_Node000005_Node000007"><a xlink:title=" ">
<path fill="none" stroke="#9a32cd" stroke-dasharray="5,2" d="M300.63,-175.5C395.3,-189.01 631.8,-222.85 640,-225 694.85,-239.39 705.81,-251.34 759,-271 766.57,-273.8 774.81,-276.75 782.42,-279.43"/>
<polygon fill="#9a32cd" stroke="#9a32cd" points="300.99,-172.02 290.6,-174.07 300.01,-178.95 300.99,-172.02"/>
</a>
</g>
<text text-anchor="middle" x="580.5" y="-294" font-family="Helvetica,sans-Serif" font-size="10.00" fill="grey"> context</text>
<text text-anchor="middle" x="580.5" y="-283" font-family="Helvetica,sans-Serif" font-size="10.00" fill="grey">exampleName</text>
<text text-anchor="middle" x="580.5" y="-272" font-family="Helvetica,sans-Serif" font-size="10.00" fill="grey">fileName</text>
<text text-anchor="middle" x="580.5" y="-261" font-family="Helvetica,sans-Serif" font-size="10.00" fill="grey">includeFileName</text>
<text text-anchor="middle" x="580.5" y="-250" font-family="Helvetica,sans-Serif" font-size="10.00" fill="grey">includeFileText</text>
<text text-anchor="middle" x="580.5" y="-239" font-family="Helvetica,sans-Serif" font-size="10.00" fill="grey">relPath</text>
<text text-anchor="middle" x="580.5" y="-228" font-family="Helvetica,sans-Serif" font-size="10.00" fill="grey">searchUrl</text>
</g>
<!-- Node13 -->
<g id="Node000013" class="node">
<title>Node13</title>
<g id="a_Node000013"><a xlink:href="../../d6/df4/struct_token_info.html" target="_top" xlink:title="Data associated with a token used by the comment block parser.">
<polygon fill="white" stroke="#666666" points="612,-76.5 549,-76.5 549,-57.5 612,-57.5 612,-76.5"/>
<text text-anchor="middle" x="580.5" y="-64.5" font-family="Helvetica,sans-Serif" font-size="10.00">TokenInfo</text>
</a>
</g>
</g>
<!-- Node7&#45;&gt;Node13 -->
<g id="edge14_Node000013_Node000007" class="edge">
<title>Node7&#45;&gt;Node13</title>
<g id="a_edge14_Node000013_Node000007"><a xlink:title=" ">
<path fill="none" stroke="#9a32cd" stroke-dasharray="5,2" d="M273.1,-151.56C289.03,-127.11 320.91,-85.07 361,-68 423.3,-41.48 504.95,-51.46 548.68,-59.93"/>
<polygon fill="#9a32cd" stroke="#9a32cd" points="269.99,-149.94 267.62,-160.27 275.91,-153.67 269.99,-149.94"/>
</a>
</g>
<text text-anchor="middle" x="432" y="-148" font-family="Helvetica,sans-Serif" font-size="10.00" fill="grey"> attribsStr</text>
<text text-anchor="middle" x="432" y="-137" font-family="Helvetica,sans-Serif" font-size="10.00" fill="grey">chars</text>
<text text-anchor="middle" x="432" y="-126" font-family="Helvetica,sans-Serif" font-size="10.00" fill="grey">name</text>
<text text-anchor="middle" x="432" y="-115" font-family="Helvetica,sans-Serif" font-size="10.00" fill="grey">sectionId</text>
<text text-anchor="middle" x="432" y="-104" font-family="Helvetica,sans-Serif" font-size="10.00" fill="grey">simpleSectName</text>
<text text-anchor="middle" x="432" y="-93" font-family="Helvetica,sans-Serif" font-size="10.00" fill="grey">simpleSectText</text>
<text text-anchor="middle" x="432" y="-82" font-family="Helvetica,sans-Serif" font-size="10.00" fill="grey">text</text>
<text text-anchor="middle" x="432" y="-71" font-family="Helvetica,sans-Serif" font-size="10.00" fill="grey">verb</text>
</g>
<!-- Node8 -->
<g id="Node000008" class="node">
<title>Node8</title>
<g id="a_Node000008"><a xlink:href="../../d9/d82/class_iterable_stack.html" target="_top" xlink:title=" ">
<polygon fill="white" stroke="#666666" points="640,-341 521,-341 521,-311 640,-311 640,-341"/>
<text text-anchor="start" x="529" y="-329" font-family="Helvetica,sans-Serif" font-size="10.00">IterableStack&lt; const</text>
<text text-anchor="middle" x="580.5" y="-318" font-family="Helvetica,sans-Serif" font-size="10.00"> DocNodeVariant * &gt;</text>
</a>
</g>
</g>
<!-- Node8&#45;&gt;Node5 -->
<g id="edge7_Node000005_Node000008" class="edge">
<title>Node8&#45;&gt;Node5</title>
<g id="a_edge7_Node000005_Node000008"><a xlink:title=" ">
<path fill="none" stroke="#9a32cd" stroke-dasharray="5,2" d="M650.19,-314.88C685.15,-309.22 726.92,-302.45 758.99,-297.26"/>
<polygon fill="#9a32cd" stroke="#9a32cd" points="649.36,-311.47 640.05,-316.52 650.48,-318.38 649.36,-311.47"/>
</a>
</g>
<text text-anchor="middle" x="699.5" y="-326" font-family="Helvetica,sans-Serif" font-size="10.00" fill="grey"> initialStyleStack</text>
<text text-anchor="middle" x="699.5" y="-315" font-family="Helvetica,sans-Serif" font-size="10.00" fill="grey">styleStack</text>
</g>
<!-- Node9 -->
<g id="Node000009" class="node">
<title>Node9</title>
<g id="a_Node000009"><a xlink:title=" ">
<polygon fill="white" stroke="#666666" points="343,-347.5 179,-347.5 179,-306.5 343,-306.5 343,-347.5"/>
<text text-anchor="start" x="187" y="-335.5" font-family="Helvetica,sans-Serif" font-size="10.00">std::stack&lt; const DocNode</text>
<text text-anchor="start" x="187" y="-324.5" font-family="Helvetica,sans-Serif" font-size="10.00">Variant * , std::deque</text>
<text text-anchor="middle" x="261" y="-313.5" font-family="Helvetica,sans-Serif" font-size="10.00">&lt;const DocNodeVariant * &gt; &gt;</text>
</a>
</g>
</g>
<!-- Node9&#45;&gt;Node8 -->
<g id="edge8_Node000008_Node000009" class="edge">
<title>Node9&#45;&gt;Node8</title>
<g id="a_edge8_Node000008_Node000009"><a xlink:title=" ">
<path fill="none" stroke="#63b8ff" d="M353.61,-326.71C407.5,-326.54 474.05,-326.33 520.91,-326.18"/>
<polygon fill="#63b8ff" stroke="#63b8ff" points="353.34,-323.21 343.35,-326.74 353.36,-330.21 353.34,-323.21"/>
</a>
</g>
</g>
<!-- Node10 -->
<g id="Node000010" class="node">
<title>Node10</title>
<g id="a_Node000010"><a xlink:href="../../d9/d82/class_iterable_stack.html" target="_top" xlink:title=" ">
<polygon fill="white" stroke="#666666" points="342.5,-288.5 179.5,-288.5 179.5,-269.5 342.5,-269.5 342.5,-288.5"/>
<text text-anchor="middle" x="261" y="-276.5" font-family="Helvetica,sans-Serif" font-size="10.00">IterableStack&lt; T, Container &gt;</text>
</a>
</g>
</g>
<!-- Node10&#45;&gt;Node8 -->
<g id="edge9_Node000008_Node000010" class="edge">
<title>Node10&#45;&gt;Node8</title>
<g id="a_edge9_Node000008_Node000010"><a xlink:title=" ">
<path fill="none" stroke="orange" stroke-dasharray="5,2" d="M352.6,-289.69C397.88,-295.37 453.44,-302.86 503,-311 508.74,-311.94 514.71,-312.99 520.68,-314.09"/>
<polygon fill="orange" stroke="orange" points="352.87,-286.2 342.52,-288.43 352.01,-293.14 352.87,-286.2"/>
</a>
</g>
<text text-anchor="middle" x="432" y="-314" font-family="Helvetica,sans-Serif" font-size="10.00" fill="grey"> &lt; const DocNodeVariant * &gt;</text>
</g>
<!-- Node11 -->
<g id="Node000011" class="node">
<title>Node11</title>
<g id="a_Node000011"><a xlink:title=" ">
<polygon fill="white" stroke="#666666" points="122,-294 20,-294 20,-264 122,-264 122,-294"/>
<text text-anchor="start" x="28" y="-282" font-family="Helvetica,sans-Serif" font-size="10.00">std::stack&lt; T, std</text>
<text text-anchor="middle" x="71" y="-271" font-family="Helvetica,sans-Serif" font-size="10.00">::deque&lt; T &gt; &gt;</text>
</a>
</g>
</g>
<!-- Node11&#45;&gt;Node10 -->
<g id="edge10_Node000010_Node000011" class="edge">
<title>Node11&#45;&gt;Node10</title>
<g id="a_edge10_Node000010_Node000011"><a xlink:title=" ">
<path fill="none" stroke="#63b8ff" d="M132.48,-279C147.4,-279 163.62,-279 179.34,-279"/>
<polygon fill="#63b8ff" stroke="#63b8ff" points="132.38,-275.5 122.38,-279 132.38,-282.5 132.38,-275.5"/>
</a>
</g>
</g>
<!-- Node12&#45;&gt;Node5 -->
<g id="edge11_Node000005_Node000012" class="edge">
<title>Node12&#45;&gt;Node5</title>
<g id="a_edge11_Node000005_Node000012"><a xlink:title=" ">
<path fill="none" stroke="#9a32cd" stroke-dasharray="5,2" d="M627.66,-421.66C663.19,-423.3 711.13,-419.19 741,-391 768.45,-365.1 734.29,-336.53 759,-308 762.34,-304.14 766.54,-301.07 771.09,-298.62"/>
<polygon fill="#9a32cd" stroke="#9a32cd" points="627.73,-418.15 617.53,-421.02 627.29,-425.14 627.73,-418.15"/>
</a>
</g>
<text text-anchor="middle" x="699.5" y="-424" font-family="Helvetica,sans-Serif" font-size="10.00" fill="grey"> memberDef</text>
</g>
<!-- Node13&#45;&gt;Node5 -->
<g id="edge13_Node000005_Node000013" class="edge">
<title>Node13&#45;&gt;Node5</title>
<g id="a_edge13_Node000005_Node000013"><a xlink:title=" ">
<path fill="none" stroke="#9a32cd" stroke-dasharray="5,2" d="M610.36,-81.33C646.72,-100.93 708.39,-139.62 741,-191 760.53,-221.77 734.79,-243.76 759,-271 762.06,-274.44 765.81,-277.22 769.88,-279.47"/>
<polygon fill="#9a32cd" stroke="#9a32cd" points="611.74,-78.1 601.26,-76.53 608.47,-84.29 611.74,-78.1"/>
</a>
</g>
<text text-anchor="middle" x="699.5" y="-194" font-family="Helvetica,sans-Serif" font-size="10.00" fill="grey"> token</text>
</g>
<!-- Node14 -->
<g id="Node000014" class="node">
<title>Node14</title>
<g id="a_Node000014"><a xlink:href="../../db/d4d/class_html_attrib_list.html" target="_top" xlink:title="Class representing a list of HTML attributes.">
<polygon fill="white" stroke="#666666" points="303.5,-26.5 218.5,-26.5 218.5,-7.5 303.5,-7.5 303.5,-26.5"/>
<text text-anchor="middle" x="261" y="-14.5" font-family="Helvetica,sans-Serif" font-size="10.00">HtmlAttribList</text>
</a>
</g>
</g>
<!-- Node14&#45;&gt;Node1 -->
<g id="edge19_Node000001_Node000014" class="edge">
<title>Node14&#45;&gt;Node1</title>
<g id="a_edge19_Node000001_Node000014"><a xlink:title=" ">
<path fill="none" stroke="#9a32cd" stroke-dasharray="5,2" d="M313.61,-12.54C376.4,-7.5 485.64,0 579.5,0 579.5,0 579.5,0 1132.5,0 1207.49,0 1227.36,-124.41 1231.54,-160.37"/>
<polygon fill="#9a32cd" stroke="#9a32cd" points="313.25,-9.05 303.57,-13.35 313.82,-16.03 313.25,-9.05"/>
</a>
</g>
<text text-anchor="middle" x="907" y="-3" font-family="Helvetica,sans-Serif" font-size="10.00" fill="grey"> m_attribs</text>
</g>
<!-- Node14&#45;&gt;Node13 -->
<g id="edge15_Node000013_Node000014" class="edge">
<title>Node14&#45;&gt;Node13</title>
<g id="a_edge15_Node000013_Node000014"><a xlink:title=" ">
<path fill="none" stroke="#9a32cd" stroke-dasharray="5,2" d="M313.69,-15.67C363.02,-15.56 439.08,-18.44 503,-34 524.08,-39.13 546.72,-49.58 561.86,-57.35"/>
<polygon fill="#9a32cd" stroke="#9a32cd" points="313.56,-12.17 303.58,-15.74 313.61,-19.17 313.56,-12.17"/>
</a>
</g>
<text text-anchor="middle" x="432" y="-37" font-family="Helvetica,sans-Serif" font-size="10.00" fill="grey"> attribs</text>
</g>
<!-- Node15 -->
<g id="Node000015" class="node">
<title>Node15</title>
<g id="a_Node000015"><a xlink:title=" ">
<polygon fill="white" stroke="#666666" points="142,-26.5 0,-26.5 0,-7.5 142,-7.5 142,-26.5"/>
<text text-anchor="middle" x="71" y="-14.5" font-family="Helvetica,sans-Serif" font-size="10.00">std::vector&lt; HtmlAttrib &gt;</text>
</a>
</g>
</g>
<!-- Node15&#45;&gt;Node14 -->
<g id="edge16_Node000014_Node000015" class="edge">
<title>Node15&#45;&gt;Node14</title>
<g id="a_edge16_Node000014_Node000015"><a xlink:title=" ">
<path fill="none" stroke="#63b8ff" d="M152.05,-17C174.87,-17 198.82,-17 218.34,-17"/>
<polygon fill="#63b8ff" stroke="#63b8ff" points="152,-13.5 142,-17 152,-20.5 152,-13.5"/>
</a>
</g>
</g>
<!-- Node16 -->
<g id="Node000016" class="node">
<title>Node16</title>
<g id="a_Node000016"><a xlink:href="../../d1/d7f/class_doc_tokenizer.html" target="_top" xlink:title=" ">
<polygon fill="white" stroke="#666666" points="851.5,-261.5 770.5,-261.5 770.5,-242.5 851.5,-242.5 851.5,-261.5"/>
<text text-anchor="middle" x="811" y="-249.5" font-family="Helvetica,sans-Serif" font-size="10.00">DocTokenizer</text>
</a>
</g>
</g>
<!-- Node16&#45;&gt;Node3 -->
<g id="edge17_Node000003_Node000016" class="edge">
<title>Node16&#45;&gt;Node3</title>
<g id="a_edge17_Node000003_Node000016"><a xlink:title=" ">
<path fill="none" stroke="#9a32cd" stroke-dasharray="5,2" d="M861.85,-250.23C883.79,-250.22 909.81,-251.27 933,-255 940.54,-256.21 948.52,-258.27 955.83,-260.49"/>
<polygon fill="#9a32cd" stroke="#9a32cd" points="861.73,-246.73 851.76,-250.31 861.78,-253.73 861.73,-246.73"/>
</a>
</g>
<text text-anchor="middle" x="907" y="-258" font-family="Helvetica,sans-Serif" font-size="10.00" fill="grey"> tokenizer</text>
</g>
</g>
</svg>
