<?xml version="1.0" encoding="UTF-8" standalone="no"?>
<!DOCTYPE svg PUBLIC "-//W3C//DTD SVG 1.1//EN"
 "http://www.w3.org/Graphics/SVG/1.1/DTD/svg11.dtd">
<!-- Generated by graphviz version 2.43.0 (0)
 -->
<!-- Title: src/code.h Pages: 1 -->
<svg width="824pt" height="302pt"
 viewBox="0.00 0.00 824.34 302.00" xmlns="http://www.w3.org/2000/svg" xmlns:xlink="http://www.w3.org/1999/xlink">
<g id="graph0" class="graph" transform="scale(1 1) rotate(0) translate(4 298)">
<title>src/code.h</title>
<!-- Node1 -->
<g id="Node000001" class="node">
<title>Node1</title>
<g id="a_Node000001"><a xlink:title=" ">
<polygon fill="#999999" stroke="#666666" points="361.92,-294 295.92,-294 295.92,-275 361.92,-275 361.92,-294"/>
<text text-anchor="middle" x="328.92" y="-282" font-family="Helvetica,sans-Serif" font-size="10.00">src/code.h</text>
</a>
</g>
</g>
<!-- Node2 -->
<g id="Node000002" class="node">
<title>Node2</title>
<g id="a_Node000002"><a xlink:href="../../da/d55/parserintf_8h.html" target="_top" xlink:title=" ">
<polygon fill="white" stroke="#666666" points="364.92,-239 292.92,-239 292.92,-220 364.92,-220 364.92,-239"/>
<text text-anchor="middle" x="328.92" y="-227" font-family="Helvetica,sans-Serif" font-size="10.00">parserintf.h</text>
</a>
</g>
</g>
<!-- Node1&#45;&gt;Node2 -->
<g id="edge1_Node000001_Node000002" class="edge">
<title>Node1&#45;&gt;Node2</title>
<g id="a_edge1_Node000001_Node000002"><a xlink:title=" ">
<path fill="none" stroke="#63b8ff" d="M328.92,-274.75C328.92,-267.8 328.92,-257.85 328.92,-249.13"/>
<polygon fill="#63b8ff" stroke="#63b8ff" points="332.42,-249.09 328.92,-239.09 325.42,-249.09 332.42,-249.09"/>
</a>
</g>
</g>
<!-- Node3 -->
<g id="Node000003" class="node">
<title>Node3</title>
<g id="a_Node000003"><a xlink:title=" ">
<polygon fill="#e0e0e0" stroke="#999999" points="180.42,-184 115.42,-184 115.42,-165 180.42,-165 180.42,-184"/>
<text text-anchor="middle" x="147.92" y="-172" font-family="Helvetica,sans-Serif" font-size="10.00">functional</text>
</a>
</g>
</g>
<!-- Node2&#45;&gt;Node3 -->
<g id="edge2_Node000002_Node000003" class="edge">
<title>Node2&#45;&gt;Node3</title>
<g id="a_edge2_Node000002_Node000003"><a xlink:title=" ">
<path fill="none" stroke="#63b8ff" d="M299.83,-219.98C269.31,-211.05 221.15,-196.94 187.25,-187.02"/>
<polygon fill="#63b8ff" stroke="#63b8ff" points="187.8,-183.53 177.22,-184.08 185.84,-190.25 187.8,-183.53"/>
</a>
</g>
</g>
<!-- Node4 -->
<g id="Node000004" class="node">
<title>Node4</title>
<g id="a_Node000004"><a xlink:title=" ">
<polygon fill="#e0e0e0" stroke="#999999" points="256.92,-184 198.92,-184 198.92,-165 256.92,-165 256.92,-184"/>
<text text-anchor="middle" x="227.92" y="-172" font-family="Helvetica,sans-Serif" font-size="10.00">memory</text>
</a>
</g>
</g>
<!-- Node2&#45;&gt;Node4 -->
<g id="edge3_Node000002_Node000004" class="edge">
<title>Node2&#45;&gt;Node4</title>
<g id="a_edge3_Node000002_Node000004"><a xlink:title=" ">
<path fill="none" stroke="#63b8ff" d="M312.69,-219.98C296.73,-211.61 272.14,-198.7 253.54,-188.95"/>
<polygon fill="#63b8ff" stroke="#63b8ff" points="254.92,-185.72 244.44,-184.17 251.67,-191.92 254.92,-185.72"/>
</a>
</g>
</g>
<!-- Node5 -->
<g id="Node000005" class="node">
<title>Node5</title>
<g id="a_Node000005"><a xlink:title=" ">
<polygon fill="#e0e0e0" stroke="#999999" points="325.92,-129 287.92,-129 287.92,-110 325.92,-110 325.92,-129"/>
<text text-anchor="middle" x="306.92" y="-117" font-family="Helvetica,sans-Serif" font-size="10.00">map</text>
</a>
</g>
</g>
<!-- Node2&#45;&gt;Node5 -->
<g id="edge4_Node000002_Node000005" class="edge">
<title>Node2&#45;&gt;Node5</title>
<g id="a_edge4_Node000002_Node000005"><a xlink:title=" ">
<path fill="none" stroke="#63b8ff" d="M332.57,-219.67C337.18,-207.22 343.85,-183.91 337.92,-165 334.68,-154.71 328.14,-144.72 321.89,-136.82"/>
<polygon fill="#63b8ff" stroke="#63b8ff" points="324.53,-134.52 315.4,-129.15 319.19,-139.04 324.53,-134.52"/>
</a>
</g>
</g>
<!-- Node6 -->
<g id="Node000006" class="node">
<title>Node6</title>
<g id="a_Node000006"><a xlink:title=" ">
<polygon fill="#e0e0e0" stroke="#999999" points="562.92,-19 518.92,-19 518.92,0 562.92,0 562.92,-19"/>
<text text-anchor="middle" x="540.92" y="-7" font-family="Helvetica,sans-Serif" font-size="10.00">string</text>
</a>
</g>
</g>
<!-- Node2&#45;&gt;Node6 -->
<g id="edge5_Node000002_Node000006" class="edge">
<title>Node2&#45;&gt;Node6</title>
<g id="a_edge5_Node000002_Node000006"><a xlink:title=" ">
<path fill="none" stroke="#63b8ff" d="M365.09,-226.6C466.26,-220.47 748.34,-197.42 803.92,-129 869.32,-48.48 656.69,-20.68 573.15,-13"/>
<polygon fill="#63b8ff" stroke="#63b8ff" points="573.43,-9.51 563.17,-12.13 572.82,-16.49 573.43,-9.51"/>
</a>
</g>
</g>
<!-- Node7 -->
<g id="Node000007" class="node">
<title>Node7</title>
<g id="a_Node000007"><a xlink:href="../../d9/d49/types_8h.html" target="_top" xlink:title="This file contains a number of basic enums and types.">
<polygon fill="white" stroke="#666666" points="328.42,-184 275.42,-184 275.42,-165 328.42,-165 328.42,-184"/>
<text text-anchor="middle" x="301.92" y="-172" font-family="Helvetica,sans-Serif" font-size="10.00">types.h</text>
</a>
</g>
</g>
<!-- Node2&#45;&gt;Node7 -->
<g id="edge6_Node000002_Node000007" class="edge">
<title>Node2&#45;&gt;Node7</title>
<g id="a_edge6_Node000002_Node000007"><a xlink:title=" ">
<path fill="none" stroke="#63b8ff" d="M324.46,-219.75C320.8,-212.57 315.51,-202.18 310.97,-193.27"/>
<polygon fill="#63b8ff" stroke="#63b8ff" points="313.95,-191.41 306.29,-184.09 307.71,-194.59 313.95,-191.41"/>
</a>
</g>
</g>
<!-- Node18 -->
<g id="Node000018" class="node">
<title>Node18</title>
<g id="a_Node000018"><a xlink:href="../../d5/d75/containers_8h.html" target="_top" xlink:title=" ">
<polygon fill="white" stroke="#666666" points="513.42,-184 436.42,-184 436.42,-165 513.42,-165 513.42,-184"/>
<text text-anchor="middle" x="474.92" y="-172" font-family="Helvetica,sans-Serif" font-size="10.00">containers.h</text>
</a>
</g>
</g>
<!-- Node2&#45;&gt;Node18 -->
<g id="edge20_Node000002_Node000018" class="edge">
<title>Node2&#45;&gt;Node18</title>
<g id="a_edge20_Node000002_Node000018"><a xlink:title=" ">
<path fill="none" stroke="#63b8ff" d="M352.37,-219.98C376.49,-211.23 414.28,-197.51 441.52,-187.62"/>
<polygon fill="#63b8ff" stroke="#63b8ff" points="442.83,-190.87 451.03,-184.17 440.44,-184.29 442.83,-190.87"/>
</a>
</g>
</g>
<!-- Node8 -->
<g id="Node000008" class="node">
<title>Node8</title>
<g id="a_Node000008"><a xlink:href="../../d7/d5c/qcstring_8h.html" target="_top" xlink:title=" ">
<polygon fill="white" stroke="#666666" points="269.42,-129 204.42,-129 204.42,-110 269.42,-110 269.42,-129"/>
<text text-anchor="middle" x="236.92" y="-117" font-family="Helvetica,sans-Serif" font-size="10.00">qcstring.h</text>
</a>
</g>
</g>
<!-- Node7&#45;&gt;Node8 -->
<g id="edge7_Node000007_Node000008" class="edge">
<title>Node7&#45;&gt;Node8</title>
<g id="a_edge7_Node000007_Node000008"><a xlink:title=" ">
<path fill="none" stroke="#63b8ff" d="M291.47,-164.98C281.77,-157.07 267.1,-145.11 255.42,-135.58"/>
<polygon fill="#63b8ff" stroke="#63b8ff" points="257.51,-132.78 247.55,-129.17 253.09,-138.2 257.51,-132.78"/>
</a>
</g>
</g>
<!-- Node8&#45;&gt;Node6 -->
<g id="edge8_Node000008_Node000006" class="edge">
<title>Node8&#45;&gt;Node6</title>
<g id="a_edge8_Node000008_Node000006"><a xlink:title=" ">
<path fill="none" stroke="#63b8ff" d="M258.83,-109.9C280.59,-101.25 314.82,-87.3 343.92,-74 361.09,-66.15 364.3,-61.8 381.92,-55 424.87,-38.43 476.51,-25.13 509.03,-17.53"/>
<polygon fill="#63b8ff" stroke="#63b8ff" points="509.92,-20.91 518.89,-15.26 508.36,-14.09 509.92,-20.91"/>
</a>
</g>
</g>
<!-- Node9 -->
<g id="Node000009" class="node">
<title>Node9</title>
<g id="a_Node000009"><a xlink:title=" ">
<polygon fill="#e0e0e0" stroke="#999999" points="613.42,-74 540.42,-74 540.42,-55 613.42,-55 613.42,-74"/>
<text text-anchor="middle" x="576.92" y="-62" font-family="Helvetica,sans-Serif" font-size="10.00">string_view</text>
</a>
</g>
</g>
<!-- Node8&#45;&gt;Node9 -->
<g id="edge9_Node000008_Node000009" class="edge">
<title>Node8&#45;&gt;Node9</title>
<g id="a_edge9_Node000008_Node000009"><a xlink:title=" ">
<path fill="none" stroke="#63b8ff" d="M269.44,-111.72C272.64,-111.12 275.84,-110.53 278.92,-110 387.68,-91.27 418.15,-92.46 530.1,-74.24"/>
<polygon fill="#63b8ff" stroke="#63b8ff" points="530.8,-77.67 540.1,-72.59 529.67,-70.76 530.8,-77.67"/>
</a>
</g>
</g>
<!-- Node10 -->
<g id="Node000010" class="node">
<title>Node10</title>
<g id="a_Node000010"><a xlink:title=" ">
<polygon fill="#e0e0e0" stroke="#999999" points="454.92,-74 390.92,-74 390.92,-55 454.92,-55 454.92,-74"/>
<text text-anchor="middle" x="422.92" y="-62" font-family="Helvetica,sans-Serif" font-size="10.00">algorithm</text>
</a>
</g>
</g>
<!-- Node8&#45;&gt;Node10 -->
<g id="edge10_Node000008_Node000010" class="edge">
<title>Node8&#45;&gt;Node10</title>
<g id="a_edge10_Node000008_Node000010"><a xlink:title=" ">
<path fill="none" stroke="#63b8ff" d="M266.8,-109.98C298.3,-101.01 348.08,-86.82 382.94,-76.89"/>
<polygon fill="#63b8ff" stroke="#63b8ff" points="384.14,-80.19 392.8,-74.08 382.22,-73.46 384.14,-80.19"/>
</a>
</g>
</g>
<!-- Node11 -->
<g id="Node000011" class="node">
<title>Node11</title>
<g id="a_Node000011"><a xlink:title=" ">
<polygon fill="#e0e0e0" stroke="#999999" points="522.42,-74 473.42,-74 473.42,-55 522.42,-55 522.42,-74"/>
<text text-anchor="middle" x="497.92" y="-62" font-family="Helvetica,sans-Serif" font-size="10.00">cctype</text>
</a>
</g>
</g>
<!-- Node8&#45;&gt;Node11 -->
<g id="edge11_Node000008_Node000011" class="edge">
<title>Node8&#45;&gt;Node11</title>
<g id="a_edge11_Node000008_Node000011"><a xlink:title=" ">
<path fill="none" stroke="#63b8ff" d="M269.47,-111.89C272.66,-111.25 275.85,-110.61 278.92,-110 358.03,-94.3 380.5,-92.3 463.23,-74.06"/>
<polygon fill="#63b8ff" stroke="#63b8ff" points="464.06,-77.46 473.07,-71.87 462.55,-70.62 464.06,-77.46"/>
</a>
</g>
</g>
<!-- Node12 -->
<g id="Node000012" class="node">
<title>Node12</title>
<g id="a_Node000012"><a xlink:title=" ">
<polygon fill="#e0e0e0" stroke="#999999" points="64.92,-74 14.92,-74 14.92,-55 64.92,-55 64.92,-74"/>
<text text-anchor="middle" x="39.92" y="-62" font-family="Helvetica,sans-Serif" font-size="10.00">cstring</text>
</a>
</g>
</g>
<!-- Node8&#45;&gt;Node12 -->
<g id="edge12_Node000008_Node000012" class="edge">
<title>Node8&#45;&gt;Node12</title>
<g id="a_edge12_Node000008_Node000012"><a xlink:title=" ">
<path fill="none" stroke="#63b8ff" d="M205.26,-109.98C169.57,-100.38 111.71,-84.82 74.76,-74.87"/>
<polygon fill="#63b8ff" stroke="#63b8ff" points="75.49,-71.45 64.93,-72.23 73.67,-78.21 75.49,-71.45"/>
</a>
</g>
</g>
<!-- Node13 -->
<g id="Node000013" class="node">
<title>Node13</title>
<g id="a_Node000013"><a xlink:title=" ">
<polygon fill="#e0e0e0" stroke="#999999" points="128.92,-74 82.92,-74 82.92,-55 128.92,-55 128.92,-74"/>
<text text-anchor="middle" x="105.92" y="-62" font-family="Helvetica,sans-Serif" font-size="10.00">cstdio</text>
</a>
</g>
</g>
<!-- Node8&#45;&gt;Node13 -->
<g id="edge13_Node000008_Node000013" class="edge">
<title>Node8&#45;&gt;Node13</title>
<g id="a_edge13_Node000008_Node000013"><a xlink:title=" ">
<path fill="none" stroke="#63b8ff" d="M215.87,-109.98C194.51,-101.34 161.21,-87.87 136.85,-78.02"/>
<polygon fill="#63b8ff" stroke="#63b8ff" points="137.93,-74.68 127.35,-74.17 135.3,-81.17 137.93,-74.68"/>
</a>
</g>
</g>
<!-- Node14 -->
<g id="Node000014" class="node">
<title>Node14</title>
<g id="a_Node000014"><a xlink:title=" ">
<polygon fill="#e0e0e0" stroke="#999999" points="196.42,-74 147.42,-74 147.42,-55 196.42,-55 196.42,-74"/>
<text text-anchor="middle" x="171.92" y="-62" font-family="Helvetica,sans-Serif" font-size="10.00">cstdlib</text>
</a>
</g>
</g>
<!-- Node8&#45;&gt;Node14 -->
<g id="edge14_Node000008_Node000014" class="edge">
<title>Node8&#45;&gt;Node14</title>
<g id="a_edge14_Node000008_Node000014"><a xlink:title=" ">
<path fill="none" stroke="#63b8ff" d="M226.47,-109.98C216.77,-102.07 202.1,-90.11 190.42,-80.58"/>
<polygon fill="#63b8ff" stroke="#63b8ff" points="192.51,-77.78 182.55,-74.17 188.09,-83.2 192.51,-77.78"/>
</a>
</g>
</g>
<!-- Node15 -->
<g id="Node000015" class="node">
<title>Node15</title>
<g id="a_Node000015"><a xlink:title=" ">
<polygon fill="#e0e0e0" stroke="#999999" points="136.92,-19 86.92,-19 86.92,0 136.92,0 136.92,-19"/>
<text text-anchor="middle" x="111.92" y="-7" font-family="Helvetica,sans-Serif" font-size="10.00">cstdint</text>
</a>
</g>
</g>
<!-- Node8&#45;&gt;Node15 -->
<g id="edge15_Node000008_Node000015" class="edge">
<title>Node8&#45;&gt;Node15</title>
<g id="a_edge15_Node000008_Node000015"><a xlink:title=" ">
<path fill="none" stroke="#63b8ff" d="M204.15,-117.14C146.51,-113.99 30.68,-104 5.92,-74 -17.46,-45.7 37.77,-26.86 76.96,-17.48"/>
<polygon fill="#63b8ff" stroke="#63b8ff" points="77.8,-20.88 86.77,-15.25 76.25,-14.05 77.8,-20.88"/>
</a>
</g>
</g>
<!-- Node16 -->
<g id="Node000016" class="node">
<title>Node16</title>
<g id="a_Node000016"><a xlink:title=" ">
<polygon fill="#e0e0e0" stroke="#999999" points="334.42,-74 277.42,-74 277.42,-55 334.42,-55 334.42,-74"/>
<text text-anchor="middle" x="305.92" y="-62" font-family="Helvetica,sans-Serif" font-size="10.00">ostream</text>
</a>
</g>
</g>
<!-- Node8&#45;&gt;Node16 -->
<g id="edge16_Node000008_Node000016" class="edge">
<title>Node8&#45;&gt;Node16</title>
<g id="a_edge16_Node000008_Node000016"><a xlink:title=" ">
<path fill="none" stroke="#63b8ff" d="M248,-109.98C258.4,-102 274.18,-89.88 286.64,-80.31"/>
<polygon fill="#63b8ff" stroke="#63b8ff" points="288.83,-83.04 294.63,-74.17 284.56,-77.49 288.83,-83.04"/>
</a>
</g>
</g>
<!-- Node17 -->
<g id="Node000017" class="node">
<title>Node17</title>
<g id="a_Node000017"><a xlink:href="../../db/d7c/utf8_8h.html" target="_top" xlink:title="Various UTF8 related helper functions.">
<polygon fill="white" stroke="#666666" points="259.42,-74 214.42,-74 214.42,-55 259.42,-55 259.42,-74"/>
<text text-anchor="middle" x="236.92" y="-62" font-family="Helvetica,sans-Serif" font-size="10.00">utf8.h</text>
</a>
</g>
</g>
<!-- Node8&#45;&gt;Node17 -->
<g id="edge17_Node000008_Node000017" class="edge">
<title>Node8&#45;&gt;Node17</title>
<g id="a_edge17_Node000008_Node000017"><a xlink:title=" ">
<path fill="none" stroke="#63b8ff" d="M236.92,-109.75C236.92,-102.8 236.92,-92.85 236.92,-84.13"/>
<polygon fill="#63b8ff" stroke="#63b8ff" points="240.42,-84.09 236.92,-74.09 233.42,-84.09 240.42,-84.09"/>
</a>
</g>
</g>
<!-- Node17&#45;&gt;Node6 -->
<g id="edge19_Node000017_Node000006" class="edge">
<title>Node17&#45;&gt;Node6</title>
<g id="a_edge19_Node000017_Node000006"><a xlink:title=" ">
<path fill="none" stroke="#63b8ff" d="M259.53,-57C262.34,-56.28 265.19,-55.59 267.92,-55 354.21,-36.19 457.42,-21.44 508.7,-14.62"/>
<polygon fill="#63b8ff" stroke="#63b8ff" points="509.37,-18.07 518.83,-13.29 508.45,-11.13 509.37,-18.07"/>
</a>
</g>
</g>
<!-- Node17&#45;&gt;Node15 -->
<g id="edge18_Node000017_Node000015" class="edge">
<title>Node17&#45;&gt;Node15</title>
<g id="a_edge18_Node000017_Node000015"><a xlink:title=" ">
<path fill="none" stroke="#63b8ff" d="M216.83,-54.98C196.54,-46.38 164.96,-32.99 141.74,-23.15"/>
<polygon fill="#63b8ff" stroke="#63b8ff" points="142.94,-19.85 132.36,-19.17 140.2,-26.3 142.94,-19.85"/>
</a>
</g>
</g>
<!-- Node18&#45;&gt;Node5 -->
<g id="edge25_Node000018_Node000005" class="edge">
<title>Node18&#45;&gt;Node5</title>
<g id="a_edge25_Node000018_Node000005"><a xlink:title=" ">
<path fill="none" stroke="#63b8ff" d="M447.92,-164.98C417.26,-155.31 367.4,-139.58 335.92,-129.65"/>
<polygon fill="#63b8ff" stroke="#63b8ff" points="336.59,-126.19 326,-126.52 334.49,-132.87 336.59,-126.19"/>
</a>
</g>
</g>
<!-- Node18&#45;&gt;Node6 -->
<g id="edge22_Node000018_Node000006" class="edge">
<title>Node18&#45;&gt;Node6</title>
<g id="a_edge22_Node000018_Node000006"><a xlink:title=" ">
<path fill="none" stroke="#63b8ff" d="M513.73,-171.58C571.75,-167.79 676.79,-157.15 699.92,-129 742.08,-77.68 630.4,-36.41 572.8,-19.19"/>
<polygon fill="#63b8ff" stroke="#63b8ff" points="573.64,-15.79 563.06,-16.35 571.68,-22.51 573.64,-15.79"/>
</a>
</g>
</g>
<!-- Node18&#45;&gt;Node9 -->
<g id="edge23_Node000018_Node000009" class="edge">
<title>Node18&#45;&gt;Node9</title>
<g id="a_edge23_Node000018_Node000009"><a xlink:title=" ">
<path fill="none" stroke="#63b8ff" d="M436.21,-165.02C399.06,-155.1 351.52,-136.56 372.92,-110 375.41,-106.9 470.71,-87.06 530.16,-74.95"/>
<polygon fill="#63b8ff" stroke="#63b8ff" points="530.99,-78.35 540.09,-72.93 529.59,-71.49 530.99,-78.35"/>
</a>
</g>
</g>
<!-- Node19 -->
<g id="Node000019" class="node">
<title>Node19</title>
<g id="a_Node000019"><a xlink:title=" ">
<polygon fill="#e0e0e0" stroke="#999999" points="794.42,-129 747.42,-129 747.42,-110 794.42,-110 794.42,-129"/>
<text text-anchor="middle" x="770.92" y="-117" font-family="Helvetica,sans-Serif" font-size="10.00">vector</text>
</a>
</g>
</g>
<!-- Node18&#45;&gt;Node19 -->
<g id="edge21_Node000018_Node000019" class="edge">
<title>Node18&#45;&gt;Node19</title>
<g id="a_edge21_Node000018_Node000019"><a xlink:title=" ">
<path fill="none" stroke="#63b8ff" d="M513.49,-167.46C564.02,-159.4 655.33,-144.36 732.92,-129 734.37,-128.71 735.85,-128.41 737.34,-128.1"/>
<polygon fill="#63b8ff" stroke="#63b8ff" points="738.19,-131.5 747.24,-125.99 736.73,-124.66 738.19,-131.5"/>
</a>
</g>
</g>
<!-- Node20 -->
<g id="Node000020" class="node">
<title>Node20</title>
<g id="a_Node000020"><a xlink:title=" ">
<polygon fill="#e0e0e0" stroke="#999999" points="413.92,-129 381.92,-129 381.92,-110 413.92,-110 413.92,-129"/>
<text text-anchor="middle" x="397.92" y="-117" font-family="Helvetica,sans-Serif" font-size="10.00">set</text>
</a>
</g>
</g>
<!-- Node18&#45;&gt;Node20 -->
<g id="edge24_Node000018_Node000020" class="edge">
<title>Node18&#45;&gt;Node20</title>
<g id="a_edge24_Node000018_Node000020"><a xlink:title=" ">
<path fill="none" stroke="#63b8ff" d="M462.54,-164.98C450.83,-156.92 433,-144.65 419.03,-135.03"/>
<polygon fill="#63b8ff" stroke="#63b8ff" points="420.73,-131.96 410.51,-129.17 416.76,-137.72 420.73,-131.96"/>
</a>
</g>
</g>
<!-- Node21 -->
<g id="Node000021" class="node">
<title>Node21</title>
<g id="a_Node000021"><a xlink:title=" ">
<polygon fill="#e0e0e0" stroke="#999999" points="517.92,-129 431.92,-129 431.92,-110 517.92,-110 517.92,-129"/>
<text text-anchor="middle" x="474.92" y="-117" font-family="Helvetica,sans-Serif" font-size="10.00">unordered_set</text>
</a>
</g>
</g>
<!-- Node18&#45;&gt;Node21 -->
<g id="edge26_Node000018_Node000021" class="edge">
<title>Node18&#45;&gt;Node21</title>
<g id="a_edge26_Node000018_Node000021"><a xlink:title=" ">
<path fill="none" stroke="#63b8ff" d="M474.92,-164.75C474.92,-157.8 474.92,-147.85 474.92,-139.13"/>
<polygon fill="#63b8ff" stroke="#63b8ff" points="478.42,-139.09 474.92,-129.09 471.42,-139.09 478.42,-139.09"/>
</a>
</g>
</g>
<!-- Node22 -->
<g id="Node000022" class="node">
<title>Node22</title>
<g id="a_Node000022"><a xlink:title=" ">
<polygon fill="#e0e0e0" stroke="#999999" points="629.42,-129 536.42,-129 536.42,-110 629.42,-110 629.42,-129"/>
<text text-anchor="middle" x="582.92" y="-117" font-family="Helvetica,sans-Serif" font-size="10.00">unordered_map</text>
</a>
</g>
</g>
<!-- Node18&#45;&gt;Node22 -->
<g id="edge27_Node000018_Node000022" class="edge">
<title>Node18&#45;&gt;Node22</title>
<g id="a_edge27_Node000018_Node000022"><a xlink:title=" ">
<path fill="none" stroke="#63b8ff" d="M492.27,-164.98C509.48,-156.54 536.11,-143.47 556.06,-133.68"/>
<polygon fill="#63b8ff" stroke="#63b8ff" points="557.81,-136.72 565.25,-129.17 554.73,-130.43 557.81,-136.72"/>
</a>
</g>
</g>
<!-- Node23 -->
<g id="Node000023" class="node">
<title>Node23</title>
<g id="a_Node000023"><a xlink:title=" ">
<polygon fill="#e0e0e0" stroke="#999999" points="690.42,-129 647.42,-129 647.42,-110 690.42,-110 690.42,-129"/>
<text text-anchor="middle" x="668.92" y="-117" font-family="Helvetica,sans-Serif" font-size="10.00">stack</text>
</a>
</g>
</g>
<!-- Node18&#45;&gt;Node23 -->
<g id="edge28_Node000018_Node000023" class="edge">
<title>Node18&#45;&gt;Node23</title>
<g id="a_edge28_Node000018_Node000023"><a xlink:title=" ">
<path fill="none" stroke="#63b8ff" d="M506.69,-164.99C537.75,-156.65 586.63,-143.45 637.45,-129.39"/>
<polygon fill="#63b8ff" stroke="#63b8ff" points="638.59,-132.7 647.29,-126.66 636.72,-125.96 638.59,-132.7"/>
</a>
</g>
</g>
</g>
</svg>
