<?xml version="1.0" encoding="UTF-8" standalone="no"?>
<!DOCTYPE svg PUBLIC "-//W3C//DTD SVG 1.1//EN"
 "http://www.w3.org/Graphics/SVG/1.1/DTD/svg11.dtd">
<!-- Generated by graphviz version 2.43.0 (0)
 -->
<!-- Title: RefItem Pages: 1 -->
<svg width="224pt" height="250pt"
 viewBox="0.00 0.00 223.50 250.00" xmlns="http://www.w3.org/2000/svg" xmlns:xlink="http://www.w3.org/1999/xlink">
<g id="graph0" class="graph" transform="scale(1 1) rotate(0) translate(4 246)">
<title>RefItem</title>
<!-- Node1 -->
<g id="Node000001" class="node">
<title>Node1</title>
<g id="a_Node000001"><a xlink:title="This struct represents an item in the list of references.">
<polygon fill="#999999" stroke="#666666" points="136.5,-19 80.5,-19 80.5,0 136.5,0 136.5,-19"/>
<text text-anchor="middle" x="108.5" y="-7" font-family="Helvetica,sans-Serif" font-size="10.00">RefItem</text>
</a>
</g>
</g>
<!-- Node2 -->
<g id="Node000002" class="node">
<title>Node2</title>
<g id="a_Node000002"><a xlink:href="../../d7/de8/class_ref_list.html" target="_top" xlink:title="List of cross&#45;referenced items.">
<polygon fill="white" stroke="#666666" points="133.5,-114 83.5,-114 83.5,-95 133.5,-95 133.5,-114"/>
<text text-anchor="middle" x="108.5" y="-102" font-family="Helvetica,sans-Serif" font-size="10.00">RefList</text>
</a>
</g>
</g>
<!-- Node2&#45;&gt;Node1 -->
<g id="edge1_Node000001_Node000002" class="edge">
<title>Node2&#45;&gt;Node1</title>
<g id="a_edge1_Node000001_Node000002"><a xlink:title=" ">
<path fill="none" stroke="#9a32cd" stroke-dasharray="5,2" d="M108.5,-84.84C108.5,-64.83 108.5,-33.93 108.5,-19.06"/>
<polygon fill="#9a32cd" stroke="#9a32cd" points="105,-84.92 108.5,-94.92 112,-84.92 105,-84.92"/>
</a>
</g>
<text text-anchor="middle" x="125.5" y="-40" font-family="Helvetica,sans-Serif" font-size="10.00" fill="grey"> m_list</text>
</g>
<!-- Node3 -->
<g id="Node000003" class="node">
<title>Node3</title>
<g id="a_Node000003"><a xlink:href="../../d9/d45/class_q_c_string.html" target="_top" xlink:title="This is an alternative implementation of QCString.">
<polygon fill="white" stroke="#666666" points="59,-242 0,-242 0,-223 59,-223 59,-242"/>
<text text-anchor="middle" x="29.5" y="-230" font-family="Helvetica,sans-Serif" font-size="10.00">QCString</text>
</a>
</g>
</g>
<!-- Node3&#45;&gt;Node1 -->
<g id="edge3_Node000001_Node000003" class="edge">
<title>Node3&#45;&gt;Node1</title>
<g id="a_edge3_Node000001_Node000003"><a xlink:title=" ">
<path fill="none" stroke="#9a32cd" stroke-dasharray="5,2" d="M22.93,-213.1C12.66,-181.01 -3.47,-113.67 22.5,-66 35.25,-42.59 62.59,-27.56 83.04,-19.13"/>
<polygon fill="#9a32cd" stroke="#9a32cd" points="19.72,-214.54 26.24,-222.9 26.35,-212.3 19.72,-214.54"/>
</a>
</g>
<text text-anchor="middle" x="48.5" y="-135" font-family="Helvetica,sans-Serif" font-size="10.00" fill="grey"> m_anchor</text>
<text text-anchor="middle" x="48.5" y="-124" font-family="Helvetica,sans-Serif" font-size="10.00" fill="grey">m_args</text>
<text text-anchor="middle" x="48.5" y="-113" font-family="Helvetica,sans-Serif" font-size="10.00" fill="grey">m_group</text>
<text text-anchor="middle" x="48.5" y="-102" font-family="Helvetica,sans-Serif" font-size="10.00" fill="grey">m_name</text>
<text text-anchor="middle" x="48.5" y="-91" font-family="Helvetica,sans-Serif" font-size="10.00" fill="grey">m_prefix</text>
<text text-anchor="middle" x="48.5" y="-80" font-family="Helvetica,sans-Serif" font-size="10.00" fill="grey">m_text</text>
<text text-anchor="middle" x="48.5" y="-69" font-family="Helvetica,sans-Serif" font-size="10.00" fill="grey">m_title</text>
</g>
<!-- Node3&#45;&gt;Node2 -->
<g id="edge2_Node000002_Node000003" class="edge">
<title>Node3&#45;&gt;Node2</title>
<g id="a_edge2_Node000002_Node000003"><a xlink:title=" ">
<path fill="none" stroke="#9a32cd" stroke-dasharray="5,2" d="M40.26,-214.33C57.35,-187.07 90.08,-134.87 103.03,-114.22"/>
<polygon fill="#9a32cd" stroke="#9a32cd" points="37.28,-212.51 34.93,-222.84 43.21,-216.23 37.28,-212.51"/>
</a>
</g>
<text text-anchor="middle" x="103" y="-197" font-family="Helvetica,sans-Serif" font-size="10.00" fill="grey"> m_fileName</text>
<text text-anchor="middle" x="103" y="-186" font-family="Helvetica,sans-Serif" font-size="10.00" fill="grey">m_listName</text>
<text text-anchor="middle" x="103" y="-175" font-family="Helvetica,sans-Serif" font-size="10.00" fill="grey">m_pageTitle</text>
<text text-anchor="middle" x="103" y="-164" font-family="Helvetica,sans-Serif" font-size="10.00" fill="grey">m_secTitle</text>
</g>
<!-- Node4 -->
<g id="Node000004" class="node">
<title>Node4</title>
<g id="a_Node000004"><a xlink:href="../../d5/dcc/class_definition.html" target="_top" xlink:title="The common base class of all entity definitions found in the sources.">
<polygon fill="white" stroke="#666666" points="215.5,-114 151.5,-114 151.5,-95 215.5,-95 215.5,-114"/>
<text text-anchor="middle" x="183.5" y="-102" font-family="Helvetica,sans-Serif" font-size="10.00">Definition</text>
</a>
</g>
</g>
<!-- Node4&#45;&gt;Node1 -->
<g id="edge4_Node000001_Node000004" class="edge">
<title>Node4&#45;&gt;Node1</title>
<g id="a_edge4_Node000001_Node000004"><a xlink:title=" ">
<path fill="none" stroke="#9a32cd" stroke-dasharray="5,2" d="M176.31,-85.74C169.94,-71.48 159.61,-51.51 146.5,-37 140.14,-29.96 131.57,-23.78 124.18,-19.16"/>
<polygon fill="#9a32cd" stroke="#9a32cd" points="173.09,-87.13 180.23,-94.96 179.53,-84.39 173.09,-87.13"/>
</a>
</g>
<text text-anchor="middle" x="177" y="-40" font-family="Helvetica,sans-Serif" font-size="10.00" fill="grey"> m_scope</text>
</g>
</g>
</svg>
