<?xml version="1.0" encoding="UTF-8" standalone="no"?>
<!DOCTYPE svg PUBLIC "-//W3C//DTD SVG 1.1//EN"
 "http://www.w3.org/Graphics/SVG/1.1/DTD/svg11.dtd">
<!-- Generated by graphviz version 2.43.0 (0)
 -->
<!-- Title: /home/runner/work/doxygen/doxygen/src/latexdocvisitor.h Pages: 1 -->
<svg width="698pt" height="104pt"
 viewBox="0.00 0.00 698.00 104.00" xmlns="http://www.w3.org/2000/svg" xmlns:xlink="http://www.w3.org/1999/xlink">
<g id="graph0" class="graph" transform="scale(1 1) rotate(0) translate(4 100)">
<title>/home/runner/work/doxygen/doxygen/src/latexdocvisitor.h</title>
<!-- Node1 -->
<g id="Node000001" class="node">
<title>Node1</title>
<g id="a_Node000001"><a xlink:title=" ">
<polygon fill="#999999" stroke="#666666" points="431.5,-96 268.5,-96 268.5,-66 431.5,-66 431.5,-96"/>
<text text-anchor="start" x="276.5" y="-84" font-family="Helvetica,sans-Serif" font-size="10.00">/home/runner/work/doxygen</text>
<text text-anchor="middle" x="350" y="-73" font-family="Helvetica,sans-Serif" font-size="10.00">/doxygen/src/latexdocvisitor.h</text>
</a>
</g>
</g>
<!-- Node2 -->
<g id="Node000002" class="node">
<title>Node2</title>
<g id="a_Node000002"><a xlink:href="../../db/d12/context_8cpp.html" target="_top" xlink:title=" ">
<polygon fill="white" stroke="#666666" points="154,-30 0,-30 0,0 154,0 154,-30"/>
<text text-anchor="start" x="8" y="-18" font-family="Helvetica,sans-Serif" font-size="10.00">/home/runner/work/doxygen</text>
<text text-anchor="middle" x="77" y="-7" font-family="Helvetica,sans-Serif" font-size="10.00">/doxygen/src/context.cpp</text>
</a>
</g>
</g>
<!-- Node1&#45;&gt;Node2 -->
<g id="edge1_Node000001_Node000002" class="edge">
<title>Node1&#45;&gt;Node2</title>
<g id="a_edge1_Node000001_Node000002"><a xlink:title=" ">
<path fill="none" stroke="#63b8ff" d="M280.25,-63.65C235.89,-53.25 179.06,-39.93 136.77,-30.01"/>
<polygon fill="#63b8ff" stroke="#63b8ff" points="279.55,-67.08 290.09,-65.95 281.15,-60.26 279.55,-67.08"/>
</a>
</g>
</g>
<!-- Node3 -->
<g id="Node000003" class="node">
<title>Node3</title>
<g id="a_Node000003"><a xlink:href="../../d1/d4e/latexdocvisitor_8cpp.html" target="_top" xlink:title=" ">
<polygon fill="white" stroke="#666666" points="346,-30 172,-30 172,0 346,0 346,-30"/>
<text text-anchor="start" x="180" y="-18" font-family="Helvetica,sans-Serif" font-size="10.00">/home/runner/work/doxygen</text>
<text text-anchor="middle" x="259" y="-7" font-family="Helvetica,sans-Serif" font-size="10.00">/doxygen/src/latexdocvisitor.cpp</text>
</a>
</g>
</g>
<!-- Node1&#45;&gt;Node3 -->
<g id="edge2_Node000001_Node000003" class="edge">
<title>Node1&#45;&gt;Node3</title>
<g id="a_edge2_Node000001_Node000003"><a xlink:title=" ">
<path fill="none" stroke="#63b8ff" d="M321.6,-60.03C307.83,-50.34 291.62,-38.94 279.14,-30.16"/>
<polygon fill="#63b8ff" stroke="#63b8ff" points="319.61,-62.91 329.8,-65.8 323.64,-57.18 319.61,-62.91"/>
</a>
</g>
</g>
<!-- Node4 -->
<g id="Node000004" class="node">
<title>Node4</title>
<g id="a_Node000004"><a xlink:href="../../d4/d42/latexgen_8cpp.html" target="_top" xlink:title=" ">
<polygon fill="white" stroke="#666666" points="518,-30 364,-30 364,0 518,0 518,-30"/>
<text text-anchor="start" x="372" y="-18" font-family="Helvetica,sans-Serif" font-size="10.00">/home/runner/work/doxygen</text>
<text text-anchor="middle" x="441" y="-7" font-family="Helvetica,sans-Serif" font-size="10.00">/doxygen/src/latexgen.cpp</text>
</a>
</g>
</g>
<!-- Node1&#45;&gt;Node4 -->
<g id="edge3_Node000001_Node000004" class="edge">
<title>Node1&#45;&gt;Node4</title>
<g id="a_edge3_Node000001_Node000004"><a xlink:title=" ">
<path fill="none" stroke="#63b8ff" d="M378.4,-60.03C392.17,-50.34 408.38,-38.94 420.86,-30.16"/>
<polygon fill="#63b8ff" stroke="#63b8ff" points="376.36,-57.18 370.2,-65.8 380.39,-62.91 376.36,-57.18"/>
</a>
</g>
</g>
<!-- Node5 -->
<g id="Node000005" class="node">
<title>Node5</title>
<g id="a_Node000005"><a xlink:href="../../df/d2d/util_8cpp.html" target="_top" xlink:title=" ">
<polygon fill="white" stroke="#666666" points="690,-30 536,-30 536,0 690,0 690,-30"/>
<text text-anchor="start" x="544" y="-18" font-family="Helvetica,sans-Serif" font-size="10.00">/home/runner/work/doxygen</text>
<text text-anchor="middle" x="613" y="-7" font-family="Helvetica,sans-Serif" font-size="10.00">/doxygen/src/util.cpp</text>
</a>
</g>
</g>
<!-- Node1&#45;&gt;Node5 -->
<g id="edge4_Node000001_Node000005" class="edge">
<title>Node1&#45;&gt;Node5</title>
<g id="a_edge4_Node000001_Node000005"><a xlink:title=" ">
<path fill="none" stroke="#63b8ff" d="M417.46,-63.58C460.16,-53.19 514.77,-39.9 555.42,-30.01"/>
<polygon fill="#63b8ff" stroke="#63b8ff" points="416.61,-60.19 407.72,-65.95 418.26,-66.99 416.61,-60.19"/>
</a>
</g>
</g>
</g>
</svg>
