<?xml version="1.0" encoding="UTF-8" standalone="no"?>
<!DOCTYPE svg PUBLIC "-//W3C//DTD SVG 1.1//EN"
 "http://www.w3.org/Graphics/SVG/1.1/DTD/svg11.dtd">
<!-- Generated by graphviz version 2.43.0 (0)
 -->
<!-- Title: src/dotrunner.h Pages: 1 -->
<svg width="790pt" height="192pt"
 viewBox="0.00 0.00 790.08 192.00" xmlns="http://www.w3.org/2000/svg" xmlns:xlink="http://www.w3.org/1999/xlink">
<g id="graph0" class="graph" transform="scale(1 1) rotate(0) translate(4 188)">
<title>src/dotrunner.h</title>
<!-- Node1 -->
<g id="Node000001" class="node">
<title>Node1</title>
<g id="a_Node000001"><a xlink:title=" ">
<polygon fill="#999999" stroke="#666666" points="548.58,-184 459.58,-184 459.58,-165 548.58,-165 548.58,-184"/>
<text text-anchor="middle" x="504.08" y="-172" font-family="Helvetica,sans-Serif" font-size="10.00">src/dotrunner.h</text>
</a>
</g>
</g>
<!-- Node2 -->
<g id="Node000002" class="node">
<title>Node2</title>
<g id="a_Node000002"><a xlink:title=" ">
<polygon fill="#e0e0e0" stroke="#999999" points="625.08,-19 581.08,-19 581.08,0 625.08,0 625.08,-19"/>
<text text-anchor="middle" x="603.08" y="-7" font-family="Helvetica,sans-Serif" font-size="10.00">string</text>
</a>
</g>
</g>
<!-- Node1&#45;&gt;Node2 -->
<g id="edge1_Node000001_Node000002" class="edge">
<title>Node1&#45;&gt;Node2</title>
<g id="a_edge1_Node000001_Node000002"><a xlink:title=" ">
<path fill="none" stroke="#63b8ff" d="M548.81,-172.78C617.5,-170.63 743.98,-162.15 772.08,-129 817.2,-75.77 695.89,-34.95 635.24,-18.47"/>
<polygon fill="#63b8ff" stroke="#63b8ff" points="635.93,-15.03 625.36,-15.85 634.13,-21.79 635.93,-15.03"/>
</a>
</g>
</g>
<!-- Node3 -->
<g id="Node000003" class="node">
<title>Node3</title>
<g id="a_Node000003"><a xlink:title=" ">
<polygon fill="#e0e0e0" stroke="#999999" points="379.08,-129 331.08,-129 331.08,-110 379.08,-110 379.08,-129"/>
<text text-anchor="middle" x="355.08" y="-117" font-family="Helvetica,sans-Serif" font-size="10.00">thread</text>
</a>
</g>
</g>
<!-- Node1&#45;&gt;Node3 -->
<g id="edge2_Node000001_Node000003" class="edge">
<title>Node1&#45;&gt;Node3</title>
<g id="a_edge2_Node000001_Node000003"><a xlink:title=" ">
<path fill="none" stroke="#63b8ff" d="M480.14,-164.98C455.52,-156.23 416.96,-142.51 389.16,-132.62"/>
<polygon fill="#63b8ff" stroke="#63b8ff" points="390.05,-129.22 379.45,-129.17 387.7,-135.82 390.05,-129.22"/>
</a>
</g>
</g>
<!-- Node4 -->
<g id="Node000004" class="node">
<title>Node4</title>
<g id="a_Node000004"><a xlink:title=" ">
<polygon fill="#e0e0e0" stroke="#999999" points="429.08,-129 397.08,-129 397.08,-110 429.08,-110 429.08,-129"/>
<text text-anchor="middle" x="413.08" y="-117" font-family="Helvetica,sans-Serif" font-size="10.00">list</text>
</a>
</g>
</g>
<!-- Node1&#45;&gt;Node4 -->
<g id="edge3_Node000001_Node000004" class="edge">
<title>Node1&#45;&gt;Node4</title>
<g id="a_edge3_Node000001_Node000004"><a xlink:title=" ">
<path fill="none" stroke="#63b8ff" d="M489.46,-164.98C475.22,-156.69 453.33,-143.94 436.63,-134.22"/>
<polygon fill="#63b8ff" stroke="#63b8ff" points="438.37,-131.18 427.97,-129.17 434.85,-137.23 438.37,-131.18"/>
</a>
</g>
</g>
<!-- Node5 -->
<g id="Node000005" class="node">
<title>Node5</title>
<g id="a_Node000005"><a xlink:title=" ">
<polygon fill="#e0e0e0" stroke="#999999" points="494.58,-129 447.58,-129 447.58,-110 494.58,-110 494.58,-129"/>
<text text-anchor="middle" x="471.08" y="-117" font-family="Helvetica,sans-Serif" font-size="10.00">queue</text>
</a>
</g>
</g>
<!-- Node1&#45;&gt;Node5 -->
<g id="edge4_Node000001_Node000005" class="edge">
<title>Node1&#45;&gt;Node5</title>
<g id="a_edge4_Node000001_Node000005"><a xlink:title=" ">
<path fill="none" stroke="#63b8ff" d="M498.63,-164.75C494.06,-157.42 487.41,-146.73 481.79,-137.7"/>
<polygon fill="#63b8ff" stroke="#63b8ff" points="484.68,-135.73 476.43,-129.09 478.74,-139.43 484.68,-135.73"/>
</a>
</g>
</g>
<!-- Node6 -->
<g id="Node000006" class="node">
<title>Node6</title>
<g id="a_Node000006"><a xlink:title=" ">
<polygon fill="#e0e0e0" stroke="#999999" points="561.08,-129 513.08,-129 513.08,-110 561.08,-110 561.08,-129"/>
<text text-anchor="middle" x="537.08" y="-117" font-family="Helvetica,sans-Serif" font-size="10.00">mutex</text>
</a>
</g>
</g>
<!-- Node1&#45;&gt;Node6 -->
<g id="edge5_Node000001_Node000006" class="edge">
<title>Node1&#45;&gt;Node6</title>
<g id="a_edge5_Node000001_Node000006"><a xlink:title=" ">
<path fill="none" stroke="#63b8ff" d="M509.53,-164.75C514.09,-157.42 520.75,-146.73 526.37,-137.7"/>
<polygon fill="#63b8ff" stroke="#63b8ff" points="529.42,-139.43 531.73,-129.09 523.47,-135.73 529.42,-139.43"/>
</a>
</g>
</g>
<!-- Node7 -->
<g id="Node000007" class="node">
<title>Node7</title>
<g id="a_Node000007"><a xlink:title=" ">
<polygon fill="#e0e0e0" stroke="#999999" points="686.58,-129 579.58,-129 579.58,-110 686.58,-110 686.58,-129"/>
<text text-anchor="middle" x="633.08" y="-117" font-family="Helvetica,sans-Serif" font-size="10.00">condition_variable</text>
</a>
</g>
</g>
<!-- Node1&#45;&gt;Node7 -->
<g id="edge6_Node000001_Node000007" class="edge">
<title>Node1&#45;&gt;Node7</title>
<g id="a_edge6_Node000001_Node000007"><a xlink:title=" ">
<path fill="none" stroke="#63b8ff" d="M524.81,-164.98C545.84,-156.34 578.63,-142.87 602.62,-133.02"/>
<polygon fill="#63b8ff" stroke="#63b8ff" points="604.06,-136.21 611.98,-129.17 601.4,-129.73 604.06,-136.21"/>
</a>
</g>
</g>
<!-- Node8 -->
<g id="Node000008" class="node">
<title>Node8</title>
<g id="a_Node000008"><a xlink:title=" ">
<polygon fill="#e0e0e0" stroke="#999999" points="763.08,-129 705.08,-129 705.08,-110 763.08,-110 763.08,-129"/>
<text text-anchor="middle" x="734.08" y="-117" font-family="Helvetica,sans-Serif" font-size="10.00">memory</text>
</a>
</g>
</g>
<!-- Node1&#45;&gt;Node8 -->
<g id="edge7_Node000001_Node000008" class="edge">
<title>Node1&#45;&gt;Node8</title>
<g id="a_edge7_Node000001_Node000008"><a xlink:title=" ">
<path fill="none" stroke="#63b8ff" d="M541.03,-164.98C583.24,-155.26 651.99,-139.42 695.05,-129.49"/>
<polygon fill="#63b8ff" stroke="#63b8ff" points="695.92,-132.89 704.88,-127.23 694.35,-126.06 695.92,-132.89"/>
</a>
</g>
</g>
<!-- Node9 -->
<g id="Node000009" class="node">
<title>Node9</title>
<g id="a_Node000009"><a xlink:href="../../d7/d5c/qcstring_8h.html" target="_top" xlink:title=" ">
<polygon fill="white" stroke="#666666" points="312.58,-129 247.58,-129 247.58,-110 312.58,-110 312.58,-129"/>
<text text-anchor="middle" x="280.08" y="-117" font-family="Helvetica,sans-Serif" font-size="10.00">qcstring.h</text>
</a>
</g>
</g>
<!-- Node1&#45;&gt;Node9 -->
<g id="edge8_Node000001_Node000009" class="edge">
<title>Node1&#45;&gt;Node9</title>
<g id="a_edge8_Node000001_Node000009"><a xlink:title=" ">
<path fill="none" stroke="#63b8ff" d="M468.09,-164.98C428.44,-155.6 364.74,-140.53 322.65,-130.57"/>
<polygon fill="#63b8ff" stroke="#63b8ff" points="323.24,-127.12 312.7,-128.22 321.63,-133.93 323.24,-127.12"/>
</a>
</g>
</g>
<!-- Node9&#45;&gt;Node2 -->
<g id="edge9_Node000009_Node000002" class="edge">
<title>Node9&#45;&gt;Node2</title>
<g id="a_edge9_Node000009_Node000002"><a xlink:title=" ">
<path fill="none" stroke="#63b8ff" d="M312.6,-111.71C315.8,-111.1 319,-110.52 322.08,-110 380.02,-100.17 539.45,-112.23 584.08,-74 596.91,-63.01 601.27,-43.75 602.66,-29.32"/>
<polygon fill="#63b8ff" stroke="#63b8ff" points="606.17,-29.21 603.24,-19.02 599.18,-28.81 606.17,-29.21"/>
</a>
</g>
</g>
<!-- Node10 -->
<g id="Node000010" class="node">
<title>Node10</title>
<g id="a_Node000010"><a xlink:title=" ">
<polygon fill="#e0e0e0" stroke="#999999" points="86.58,-74 13.58,-74 13.58,-55 86.58,-55 86.58,-74"/>
<text text-anchor="middle" x="50.08" y="-62" font-family="Helvetica,sans-Serif" font-size="10.00">string_view</text>
</a>
</g>
</g>
<!-- Node9&#45;&gt;Node10 -->
<g id="edge10_Node000009_Node000010" class="edge">
<title>Node9&#45;&gt;Node10</title>
<g id="a_edge10_Node000009_Node000010"><a xlink:title=" ">
<path fill="none" stroke="#63b8ff" d="M247.13,-110.91C207.71,-101.82 141.48,-86.56 96.8,-76.27"/>
<polygon fill="#63b8ff" stroke="#63b8ff" points="97.3,-72.79 86.77,-73.96 95.73,-79.61 97.3,-72.79"/>
</a>
</g>
</g>
<!-- Node11 -->
<g id="Node000011" class="node">
<title>Node11</title>
<g id="a_Node000011"><a xlink:title=" ">
<polygon fill="#e0e0e0" stroke="#999999" points="169.08,-74 105.08,-74 105.08,-55 169.08,-55 169.08,-74"/>
<text text-anchor="middle" x="137.08" y="-62" font-family="Helvetica,sans-Serif" font-size="10.00">algorithm</text>
</a>
</g>
</g>
<!-- Node9&#45;&gt;Node11 -->
<g id="edge11_Node000009_Node000011" class="edge">
<title>Node9&#45;&gt;Node11</title>
<g id="a_edge11_Node000009_Node000011"><a xlink:title=" ">
<path fill="none" stroke="#63b8ff" d="M257.1,-109.98C233.58,-101.27 196.79,-87.63 170.14,-77.75"/>
<polygon fill="#63b8ff" stroke="#63b8ff" points="171.07,-74.36 160.47,-74.17 168.63,-80.93 171.07,-74.36"/>
</a>
</g>
</g>
<!-- Node12 -->
<g id="Node000012" class="node">
<title>Node12</title>
<g id="a_Node000012"><a xlink:title=" ">
<polygon fill="#e0e0e0" stroke="#999999" points="236.58,-74 187.58,-74 187.58,-55 236.58,-55 236.58,-74"/>
<text text-anchor="middle" x="212.08" y="-62" font-family="Helvetica,sans-Serif" font-size="10.00">cctype</text>
</a>
</g>
</g>
<!-- Node9&#45;&gt;Node12 -->
<g id="edge12_Node000009_Node000012" class="edge">
<title>Node9&#45;&gt;Node12</title>
<g id="a_edge12_Node000009_Node000012"><a xlink:title=" ">
<path fill="none" stroke="#63b8ff" d="M269.15,-109.98C259,-102.07 243.66,-90.11 231.43,-80.58"/>
<polygon fill="#63b8ff" stroke="#63b8ff" points="233.24,-77.56 223.2,-74.17 228.94,-83.08 233.24,-77.56"/>
</a>
</g>
</g>
<!-- Node13 -->
<g id="Node000013" class="node">
<title>Node13</title>
<g id="a_Node000013"><a xlink:title=" ">
<polygon fill="#e0e0e0" stroke="#999999" points="305.08,-74 255.08,-74 255.08,-55 305.08,-55 305.08,-74"/>
<text text-anchor="middle" x="280.08" y="-62" font-family="Helvetica,sans-Serif" font-size="10.00">cstring</text>
</a>
</g>
</g>
<!-- Node9&#45;&gt;Node13 -->
<g id="edge13_Node000009_Node000013" class="edge">
<title>Node9&#45;&gt;Node13</title>
<g id="a_edge13_Node000009_Node000013"><a xlink:title=" ">
<path fill="none" stroke="#63b8ff" d="M280.08,-109.75C280.08,-102.8 280.08,-92.85 280.08,-84.13"/>
<polygon fill="#63b8ff" stroke="#63b8ff" points="283.58,-84.09 280.08,-74.09 276.58,-84.09 283.58,-84.09"/>
</a>
</g>
</g>
<!-- Node14 -->
<g id="Node000014" class="node">
<title>Node14</title>
<g id="a_Node000014"><a xlink:title=" ">
<polygon fill="#e0e0e0" stroke="#999999" points="369.08,-74 323.08,-74 323.08,-55 369.08,-55 369.08,-74"/>
<text text-anchor="middle" x="346.08" y="-62" font-family="Helvetica,sans-Serif" font-size="10.00">cstdio</text>
</a>
</g>
</g>
<!-- Node9&#45;&gt;Node14 -->
<g id="edge14_Node000009_Node000014" class="edge">
<title>Node9&#45;&gt;Node14</title>
<g id="a_edge14_Node000009_Node000014"><a xlink:title=" ">
<path fill="none" stroke="#63b8ff" d="M290.68,-109.98C300.54,-102.07 315.43,-90.11 327.29,-80.58"/>
<polygon fill="#63b8ff" stroke="#63b8ff" points="329.68,-83.16 335.28,-74.17 325.29,-77.7 329.68,-83.16"/>
</a>
</g>
</g>
<!-- Node15 -->
<g id="Node000015" class="node">
<title>Node15</title>
<g id="a_Node000015"><a xlink:title=" ">
<polygon fill="#e0e0e0" stroke="#999999" points="436.58,-74 387.58,-74 387.58,-55 436.58,-55 436.58,-74"/>
<text text-anchor="middle" x="412.08" y="-62" font-family="Helvetica,sans-Serif" font-size="10.00">cstdlib</text>
</a>
</g>
</g>
<!-- Node9&#45;&gt;Node15 -->
<g id="edge15_Node000009_Node000015" class="edge">
<title>Node9&#45;&gt;Node15</title>
<g id="a_edge15_Node000009_Node000015"><a xlink:title=" ">
<path fill="none" stroke="#63b8ff" d="M301.29,-109.98C322.81,-101.34 356.36,-87.87 380.91,-78.02"/>
<polygon fill="#63b8ff" stroke="#63b8ff" points="382.51,-81.14 390.49,-74.17 379.9,-74.65 382.51,-81.14"/>
</a>
</g>
</g>
<!-- Node16 -->
<g id="Node000016" class="node">
<title>Node16</title>
<g id="a_Node000016"><a xlink:title=" ">
<polygon fill="#e0e0e0" stroke="#999999" points="256.08,-19 206.08,-19 206.08,0 256.08,0 256.08,-19"/>
<text text-anchor="middle" x="231.08" y="-7" font-family="Helvetica,sans-Serif" font-size="10.00">cstdint</text>
</a>
</g>
</g>
<!-- Node9&#45;&gt;Node16 -->
<g id="edge16_Node000009_Node000016" class="edge">
<title>Node9&#45;&gt;Node16</title>
<g id="a_edge16_Node000009_Node000016"><a xlink:title=" ">
<path fill="none" stroke="#63b8ff" d="M247.54,-118.29C181.44,-117.11 35.04,-110.35 4.08,-74 -1.4,-67.57 -1.29,-61.52 4.08,-55 27.92,-26.03 137.91,-15.64 195.58,-12.14"/>
<polygon fill="#63b8ff" stroke="#63b8ff" points="195.92,-15.63 205.7,-11.57 195.52,-8.64 195.92,-15.63"/>
</a>
</g>
</g>
<!-- Node17 -->
<g id="Node000017" class="node">
<title>Node17</title>
<g id="a_Node000017"><a xlink:title=" ">
<polygon fill="#e0e0e0" stroke="#999999" points="574.58,-74 517.58,-74 517.58,-55 574.58,-55 574.58,-74"/>
<text text-anchor="middle" x="546.08" y="-62" font-family="Helvetica,sans-Serif" font-size="10.00">ostream</text>
</a>
</g>
</g>
<!-- Node9&#45;&gt;Node17 -->
<g id="edge17_Node000009_Node000017" class="edge">
<title>Node9&#45;&gt;Node17</title>
<g id="a_edge17_Node000009_Node000017"><a xlink:title=" ">
<path fill="none" stroke="#63b8ff" d="M312.63,-111.88C315.82,-111.24 319.01,-110.61 322.08,-110 402.03,-94.21 424.61,-91.66 507.55,-74.27"/>
<polygon fill="#63b8ff" stroke="#63b8ff" points="508.35,-77.68 517.42,-72.19 506.91,-70.83 508.35,-77.68"/>
</a>
</g>
</g>
<!-- Node18 -->
<g id="Node000018" class="node">
<title>Node18</title>
<g id="a_Node000018"><a xlink:href="../../db/d7c/utf8_8h.html" target="_top" xlink:title="Various UTF8 related helper functions.">
<polygon fill="white" stroke="#666666" points="499.58,-74 454.58,-74 454.58,-55 499.58,-55 499.58,-74"/>
<text text-anchor="middle" x="477.08" y="-62" font-family="Helvetica,sans-Serif" font-size="10.00">utf8.h</text>
</a>
</g>
</g>
<!-- Node9&#45;&gt;Node18 -->
<g id="edge18_Node000009_Node000018" class="edge">
<title>Node9&#45;&gt;Node18</title>
<g id="a_edge18_Node000009_Node000018"><a xlink:title=" ">
<path fill="none" stroke="#63b8ff" d="M312.23,-109.94C343.65,-101.56 393.12,-88.33 444.45,-74.43"/>
<polygon fill="#63b8ff" stroke="#63b8ff" points="445.66,-77.73 454.4,-71.74 443.83,-70.97 445.66,-77.73"/>
</a>
</g>
</g>
<!-- Node18&#45;&gt;Node2 -->
<g id="edge20_Node000018_Node000002" class="edge">
<title>Node18&#45;&gt;Node2</title>
<g id="a_edge20_Node000018_Node000002"><a xlink:title=" ">
<path fill="none" stroke="#63b8ff" d="M497.32,-54.98C517.78,-46.38 549.61,-32.99 573.01,-23.15"/>
<polygon fill="#63b8ff" stroke="#63b8ff" points="574.61,-26.27 582.47,-19.17 571.89,-19.82 574.61,-26.27"/>
</a>
</g>
</g>
<!-- Node18&#45;&gt;Node16 -->
<g id="edge19_Node000018_Node000016" class="edge">
<title>Node18&#45;&gt;Node16</title>
<g id="a_edge19_Node000018_Node000016"><a xlink:title=" ">
<path fill="none" stroke="#63b8ff" d="M454.44,-57.11C451.63,-56.37 448.79,-55.65 446.08,-55 383.08,-39.86 308.95,-25.21 266.25,-17.07"/>
<polygon fill="#63b8ff" stroke="#63b8ff" points="266.83,-13.62 256.35,-15.19 265.52,-20.49 266.83,-13.62"/>
</a>
</g>
</g>
</g>
</svg>
