<?xml version="1.0" encoding="UTF-8" standalone="no"?>
<!DOCTYPE svg PUBLIC "-//W3C//DTD SVG 1.1//EN"
 "http://www.w3.org/Graphics/SVG/1.1/DTD/svg11.dtd">
<!-- Generated by graphviz version 2.43.0 (0)
 -->
<!-- Title: src/htmlattrib.h Pages: 1 -->
<svg width="2288pt" height="247pt"
 viewBox="0.00 0.00 2287.70 247.00" xmlns="http://www.w3.org/2000/svg" xmlns:xlink="http://www.w3.org/1999/xlink">
<g id="graph0" class="graph" transform="scale(1 1) rotate(0) translate(4 243)">
<title>src/htmlattrib.h</title>
<!-- Node1 -->
<g id="Node000001" class="node">
<title>Node1</title>
<g id="a_Node000001"><a xlink:title=" ">
<polygon fill="#999999" stroke="#666666" points="913.2,-239 821.2,-239 821.2,-220 913.2,-220 913.2,-239"/>
<text text-anchor="middle" x="867.2" y="-227" font-family="Helvetica,sans-Serif" font-size="10.00">src/htmlattrib.h</text>
</a>
</g>
</g>
<!-- Node2 -->
<g id="Node000002" class="node">
<title>Node2</title>
<g id="a_Node000002"><a xlink:href="../../de/d2b/docnode_8h.html" target="_top" xlink:title=" ">
<polygon fill="white" stroke="#666666" points="909.2,-129 825.2,-129 825.2,-110 909.2,-110 909.2,-129"/>
<text text-anchor="middle" x="867.2" y="-117" font-family="Helvetica,sans-Serif" font-size="10.00">src/docnode.h</text>
</a>
</g>
</g>
<!-- Node1&#45;&gt;Node2 -->
<g id="edge1_Node000001_Node000002" class="edge">
<title>Node1&#45;&gt;Node2</title>
<g id="a_edge1_Node000001_Node000002"><a xlink:title=" ">
<path fill="none" stroke="#63b8ff" d="M867.2,-209.48C867.2,-185.84 867.2,-146.5 867.2,-129.16"/>
<polygon fill="#63b8ff" stroke="#63b8ff" points="863.7,-209.66 867.2,-219.66 870.7,-209.66 863.7,-209.66"/>
</a>
</g>
</g>
<!-- Node16 -->
<g id="Node000016" class="node">
<title>Node16</title>
<g id="a_Node000016"><a xlink:href="../../d1/d4e/latexdocvisitor_8cpp.html" target="_top" xlink:title=" ">
<polygon fill="white" stroke="#666666" points="1272.2,-19 1146.2,-19 1146.2,0 1272.2,0 1272.2,-19"/>
<text text-anchor="middle" x="1209.2" y="-7" font-family="Helvetica,sans-Serif" font-size="10.00">src/latexdocvisitor.cpp</text>
</a>
</g>
</g>
<!-- Node1&#45;&gt;Node16 -->
<g id="edge43_Node000001_Node000016" class="edge">
<title>Node1&#45;&gt;Node16</title>
<g id="a_edge43_Node000001_Node000016"><a xlink:title=" ">
<path fill="none" stroke="#63b8ff" d="M923.36,-227.75C1019.98,-223.06 1215.67,-197.87 1303.2,-74 1321.78,-47.7 1278.28,-29.09 1244.42,-19.08"/>
<polygon fill="#63b8ff" stroke="#63b8ff" points="923.05,-224.26 913.21,-228.19 923.35,-231.26 923.05,-224.26"/>
</a>
</g>
</g>
<!-- Node34 -->
<g id="Node000034" class="node">
<title>Node34</title>
<g id="a_Node000034"><a xlink:href="../../d0/d0c/doctokenizer_8h.html" target="_top" xlink:title=" ">
<polygon fill="white" stroke="#666666" points="242.2,-184 138.2,-184 138.2,-165 242.2,-165 242.2,-184"/>
<text text-anchor="middle" x="190.2" y="-172" font-family="Helvetica,sans-Serif" font-size="10.00">src/doctokenizer.h</text>
</a>
</g>
</g>
<!-- Node1&#45;&gt;Node34 -->
<g id="edge38_Node000001_Node000034" class="edge">
<title>Node1&#45;&gt;Node34</title>
<g id="a_edge38_Node000001_Node000034"><a xlink:title=" ">
<path fill="none" stroke="#63b8ff" d="M811.15,-224.11C682.4,-214.03 366.99,-189.34 242.22,-179.57"/>
<polygon fill="#63b8ff" stroke="#63b8ff" points="810.95,-227.61 821.2,-224.9 811.5,-220.63 810.95,-227.61"/>
</a>
</g>
</g>
<!-- Node3 -->
<g id="Node000003" class="node">
<title>Node3</title>
<g id="a_Node000003"><a xlink:href="../../de/dcd/docbookvisitor_8h.html" target="_top" xlink:title=" ">
<polygon fill="white" stroke="#666666" points="2137.2,-74 2023.2,-74 2023.2,-55 2137.2,-55 2137.2,-74"/>
<text text-anchor="middle" x="2080.2" y="-62" font-family="Helvetica,sans-Serif" font-size="10.00">src/docbookvisitor.h</text>
</a>
</g>
</g>
<!-- Node2&#45;&gt;Node3 -->
<g id="edge2_Node000002_Node000003" class="edge">
<title>Node2&#45;&gt;Node3</title>
<g id="a_edge2_Node000002_Node000003"><a xlink:title=" ">
<path fill="none" stroke="#63b8ff" d="M919.41,-116.22C1116.85,-107.59 1817,-77 2022.86,-68.01"/>
<polygon fill="#63b8ff" stroke="#63b8ff" points="919.14,-112.73 909.3,-116.66 919.45,-119.72 919.14,-112.73"/>
</a>
</g>
</g>
<!-- Node6 -->
<g id="Node000006" class="node">
<title>Node6</title>
<g id="a_Node000006"><a xlink:href="../../d0/d2b/docnode_8cpp.html" target="_top" xlink:title=" ">
<polygon fill="white" stroke="#666666" points="255.7,-19 160.7,-19 160.7,0 255.7,0 255.7,-19"/>
<text text-anchor="middle" x="208.2" y="-7" font-family="Helvetica,sans-Serif" font-size="10.00">src/docnode.cpp</text>
</a>
</g>
</g>
<!-- Node2&#45;&gt;Node6 -->
<g id="edge5_Node000002_Node000006" class="edge">
<title>Node2&#45;&gt;Node6</title>
<g id="a_edge5_Node000002_Node000006"><a xlink:title=" ">
<path fill="none" stroke="#63b8ff" d="M814.53,-118.37C690.49,-117.43 383.27,-111.29 288.2,-74 257.49,-61.96 229.17,-33.89 215.98,-19.45"/>
<polygon fill="#63b8ff" stroke="#63b8ff" points="814.87,-121.87 824.9,-118.44 814.92,-114.87 814.87,-121.87"/>
</a>
</g>
</g>
<!-- Node7 -->
<g id="Node000007" class="node">
<title>Node7</title>
<g id="a_Node000007"><a xlink:href="../../df/dc9/docparser__p_8h.html" target="_top" xlink:title="Private header shared between docparser.cpp and docnode.cpp.">
<polygon fill="white" stroke="#666666" points="241.2,-74 139.2,-74 139.2,-55 241.2,-55 241.2,-74"/>
<text text-anchor="middle" x="190.2" y="-62" font-family="Helvetica,sans-Serif" font-size="10.00">src/docparser_p.h</text>
</a>
</g>
</g>
<!-- Node2&#45;&gt;Node7 -->
<g id="edge6_Node000002_Node000007" class="edge">
<title>Node2&#45;&gt;Node7</title>
<g id="a_edge6_Node000002_Node000007"><a xlink:title=" ">
<path fill="none" stroke="#63b8ff" d="M814.72,-115.7C708.79,-109.83 461.87,-95.01 255.2,-74 250.67,-73.54 245.97,-73.02 241.26,-72.46"/>
<polygon fill="#63b8ff" stroke="#63b8ff" points="814.65,-119.2 824.83,-116.26 815.04,-112.22 814.65,-119.2"/>
</a>
</g>
</g>
<!-- Node9 -->
<g id="Node000009" class="node">
<title>Node9</title>
<g id="a_Node000009"><a xlink:href="../../d1/d39/doctokenizer_8l.html" target="_top" xlink:title=" ">
<polygon fill="white" stroke="#666666" points="120.7,-74 19.7,-74 19.7,-55 120.7,-55 120.7,-74"/>
<text text-anchor="middle" x="70.2" y="-62" font-family="Helvetica,sans-Serif" font-size="10.00">src/doctokenizer.l</text>
</a>
</g>
</g>
<!-- Node2&#45;&gt;Node9 -->
<g id="edge9_Node000002_Node000009" class="edge">
<title>Node2&#45;&gt;Node9</title>
<g id="a_edge9_Node000002_Node000009"><a xlink:title=" ">
<path fill="none" stroke="#63b8ff" d="M815.07,-116.79C694.36,-112.53 386.41,-99.84 130.2,-74 127.16,-73.69 124.04,-73.35 120.9,-72.98"/>
<polygon fill="#63b8ff" stroke="#63b8ff" points="815.02,-120.29 825.14,-117.15 815.27,-113.3 815.02,-120.29"/>
</a>
</g>
</g>
<!-- Node10 -->
<g id="Node000010" class="node">
<title>Node10</title>
<g id="a_Node000010"><a xlink:href="../../d9/d92/dotfilepatcher_8cpp.html" target="_top" xlink:title=" ">
<polygon fill="white" stroke="#666666" points="1161.7,-74 1040.7,-74 1040.7,-55 1161.7,-55 1161.7,-74"/>
<text text-anchor="middle" x="1101.2" y="-62" font-family="Helvetica,sans-Serif" font-size="10.00">src/dotfilepatcher.cpp</text>
</a>
</g>
</g>
<!-- Node2&#45;&gt;Node10 -->
<g id="edge10_Node000002_Node000010" class="edge">
<title>Node2&#45;&gt;Node10</title>
<g id="a_edge10_Node000002_Node000010"><a xlink:title=" ">
<path fill="none" stroke="#63b8ff" d="M914.65,-107.75C958.49,-97.82 1022.8,-83.26 1063.31,-74.08"/>
<polygon fill="#63b8ff" stroke="#63b8ff" points="913.77,-104.36 904.79,-109.98 915.32,-111.19 913.77,-104.36"/>
</a>
</g>
</g>
<!-- Node11 -->
<g id="Node000011" class="node">
<title>Node11</title>
<g id="a_Node000011"><a xlink:href="../../d0/d71/htmldocvisitor_8h.html" target="_top" xlink:title=" ">
<polygon fill="white" stroke="#666666" points="1828.7,-74 1715.7,-74 1715.7,-55 1828.7,-55 1828.7,-74"/>
<text text-anchor="middle" x="1772.2" y="-62" font-family="Helvetica,sans-Serif" font-size="10.00">src/htmldocvisitor.h</text>
</a>
</g>
</g>
<!-- Node2&#45;&gt;Node11 -->
<g id="edge11_Node000002_Node000011" class="edge">
<title>Node2&#45;&gt;Node11</title>
<g id="a_edge11_Node000002_Node000011"><a xlink:title=" ">
<path fill="none" stroke="#63b8ff" d="M919.55,-115.92C1046.57,-109.58 1381.16,-92.42 1660.2,-74 1678.19,-72.81 1697.81,-71.37 1715.52,-70.02"/>
<polygon fill="#63b8ff" stroke="#63b8ff" points="919.15,-112.43 909.34,-116.43 919.5,-119.43 919.15,-112.43"/>
</a>
</g>
</g>
<!-- Node14 -->
<g id="Node000014" class="node">
<title>Node14</title>
<g id="a_Node000014"><a xlink:href="../../d8/d6e/htmlgen_8cpp.html" target="_top" xlink:title=" ">
<polygon fill="white" stroke="#666666" points="1756.7,-19 1661.7,-19 1661.7,0 1756.7,0 1756.7,-19"/>
<text text-anchor="middle" x="1709.2" y="-7" font-family="Helvetica,sans-Serif" font-size="10.00">src/htmlgen.cpp</text>
</a>
</g>
</g>
<!-- Node2&#45;&gt;Node14 -->
<g id="edge15_Node000002_Node000014" class="edge">
<title>Node2&#45;&gt;Node14</title>
<g id="a_edge15_Node000002_Node000014"><a xlink:title=" ">
<path fill="none" stroke="#63b8ff" d="M919.58,-119.1C1029.9,-119.44 1293.79,-115.39 1510.2,-74 1576.8,-61.26 1652.29,-33.25 1688.14,-19.08"/>
<polygon fill="#63b8ff" stroke="#63b8ff" points="919.41,-115.6 909.39,-119.05 919.38,-122.6 919.41,-115.6"/>
</a>
</g>
</g>
<!-- Node15 -->
<g id="Node000015" class="node">
<title>Node15</title>
<g id="a_Node000015"><a xlink:href="../../d8/d99/latexdocvisitor_8h.html" target="_top" xlink:title=" ">
<polygon fill="white" stroke="#666666" points="1294.7,-74 1179.7,-74 1179.7,-55 1294.7,-55 1294.7,-74"/>
<text text-anchor="middle" x="1237.2" y="-62" font-family="Helvetica,sans-Serif" font-size="10.00">src/latexdocvisitor.h</text>
</a>
</g>
</g>
<!-- Node2&#45;&gt;Node15 -->
<g id="edge16_Node000002_Node000015" class="edge">
<title>Node2&#45;&gt;Node15</title>
<g id="a_edge16_Node000002_Node000015"><a xlink:title=" ">
<path fill="none" stroke="#63b8ff" d="M919.42,-111.02C988.03,-101.19 1108.12,-83.99 1179.39,-73.78"/>
<polygon fill="#63b8ff" stroke="#63b8ff" points="918.68,-107.59 909.28,-112.47 919.67,-114.52 918.68,-107.59"/>
</a>
</g>
</g>
<!-- Node17 -->
<g id="Node000017" class="node">
<title>Node17</title>
<g id="a_Node000017"><a xlink:href="../../d4/d42/latexgen_8cpp.html" target="_top" xlink:title=" ">
<polygon fill="white" stroke="#666666" points="1127.7,-19 1030.7,-19 1030.7,0 1127.7,0 1127.7,-19"/>
<text text-anchor="middle" x="1079.2" y="-7" font-family="Helvetica,sans-Serif" font-size="10.00">src/latexgen.cpp</text>
</a>
</g>
</g>
<!-- Node2&#45;&gt;Node17 -->
<g id="edge20_Node000002_Node000017" class="edge">
<title>Node2&#45;&gt;Node17</title>
<g id="a_edge20_Node000002_Node000017"><a xlink:title=" ">
<path fill="none" stroke="#63b8ff" d="M909.23,-107.08C934.37,-99.43 966.51,-88.16 993.2,-74 1023.2,-58.08 1054.25,-32.47 1069.52,-19.16"/>
<polygon fill="#63b8ff" stroke="#63b8ff" points="908.21,-103.73 899.62,-109.94 910.2,-110.44 908.21,-103.73"/>
</a>
</g>
</g>
<!-- Node19 -->
<g id="Node000019" class="node">
<title>Node19</title>
<g id="a_Node000019"><a xlink:href="../../db/d16/layout_8cpp.html" target="_top" xlink:title=" ">
<polygon fill="white" stroke="#666666" points="512.7,-74 427.7,-74 427.7,-55 512.7,-55 512.7,-74"/>
<text text-anchor="middle" x="470.2" y="-62" font-family="Helvetica,sans-Serif" font-size="10.00">src/layout.cpp</text>
</a>
</g>
</g>
<!-- Node2&#45;&gt;Node19 -->
<g id="edge21_Node000002_Node000019" class="edge">
<title>Node2&#45;&gt;Node19</title>
<g id="a_edge21_Node000002_Node000019"><a xlink:title=" ">
<path fill="none" stroke="#63b8ff" d="M815.21,-112.35C747.61,-104.22 625.93,-89.16 522.2,-74 519.12,-73.55 515.94,-73.07 512.75,-72.58"/>
<polygon fill="#63b8ff" stroke="#63b8ff" points="814.83,-115.83 825.18,-113.54 815.67,-108.88 814.83,-115.83"/>
</a>
</g>
</g>
<!-- Node20 -->
<g id="Node000020" class="node">
<title>Node20</title>
<g id="a_Node000020"><a xlink:href="../../d6/d6e/mandocvisitor_8h.html" target="_top" xlink:title=" ">
<polygon fill="white" stroke="#666666" points="409.2,-74 297.2,-74 297.2,-55 409.2,-55 409.2,-74"/>
<text text-anchor="middle" x="353.2" y="-62" font-family="Helvetica,sans-Serif" font-size="10.00">src/mandocvisitor.h</text>
</a>
</g>
</g>
<!-- Node2&#45;&gt;Node20 -->
<g id="edge22_Node000002_Node000020" class="edge">
<title>Node2&#45;&gt;Node20</title>
<g id="a_edge22_Node000002_Node000020"><a xlink:title=" ">
<path fill="none" stroke="#63b8ff" d="M815.03,-113.86C731.27,-106.3 561.63,-90.48 418.2,-74 415.26,-73.66 412.24,-73.31 409.2,-72.94"/>
<polygon fill="#63b8ff" stroke="#63b8ff" points="814.78,-117.35 825.06,-114.77 815.41,-110.38 814.78,-117.35"/>
</a>
</g>
</g>
<!-- Node23 -->
<g id="Node000023" class="node">
<title>Node23</title>
<g id="a_Node000023"><a xlink:href="../../db/d33/msc_8cpp.html" target="_top" xlink:title=" ">
<polygon fill="white" stroke="#666666" points="605.2,-74 531.2,-74 531.2,-55 605.2,-55 605.2,-74"/>
<text text-anchor="middle" x="568.2" y="-62" font-family="Helvetica,sans-Serif" font-size="10.00">src/msc.cpp</text>
</a>
</g>
</g>
<!-- Node2&#45;&gt;Node23 -->
<g id="edge25_Node000002_Node000023" class="edge">
<title>Node2&#45;&gt;Node23</title>
<g id="a_edge25_Node000002_Node000023"><a xlink:title=" ">
<path fill="none" stroke="#63b8ff" d="M814.95,-109.44C763.77,-100.54 683.59,-86.51 614.2,-74 611.32,-73.48 608.34,-72.94 605.35,-72.39"/>
<polygon fill="#63b8ff" stroke="#63b8ff" points="814.64,-112.95 825.1,-111.21 815.84,-106.05 814.64,-112.95"/>
</a>
</g>
</g>
<!-- Node24 -->
<g id="Node000024" class="node">
<title>Node24</title>
<g id="a_Node000024"><a xlink:href="../../de/dd0/perlmodgen_8cpp.html" target="_top" xlink:title=" ">
<polygon fill="white" stroke="#666666" points="736.7,-74 623.7,-74 623.7,-55 736.7,-55 736.7,-74"/>
<text text-anchor="middle" x="680.2" y="-62" font-family="Helvetica,sans-Serif" font-size="10.00">src/perlmodgen.cpp</text>
</a>
</g>
</g>
<!-- Node2&#45;&gt;Node24 -->
<g id="edge26_Node000002_Node000024" class="edge">
<title>Node2&#45;&gt;Node24</title>
<g id="a_edge26_Node000002_Node000024"><a xlink:title=" ">
<path fill="none" stroke="#63b8ff" d="M827.27,-107.18C792.3,-97.27 742.23,-83.08 710.48,-74.08"/>
<polygon fill="#63b8ff" stroke="#63b8ff" points="826.58,-110.63 837.15,-109.98 828.48,-103.89 826.58,-110.63"/>
</a>
</g>
</g>
<!-- Node25 -->
<g id="Node000025" class="node">
<title>Node25</title>
<g id="a_Node000025"><a xlink:href="../../d1/da7/rtfdocvisitor_8h.html" target="_top" xlink:title=" ">
<polygon fill="white" stroke="#666666" points="855.7,-74 754.7,-74 754.7,-55 855.7,-55 855.7,-74"/>
<text text-anchor="middle" x="805.2" y="-62" font-family="Helvetica,sans-Serif" font-size="10.00">src/rtfdocvisitor.h</text>
</a>
</g>
</g>
<!-- Node2&#45;&gt;Node25 -->
<g id="edge27_Node000002_Node000025" class="edge">
<title>Node2&#45;&gt;Node25</title>
<g id="a_edge27_Node000002_Node000025"><a xlink:title=" ">
<path fill="none" stroke="#63b8ff" d="M849.44,-103.32C838.39,-93.87 824.56,-82.06 815.34,-74.17"/>
<polygon fill="#63b8ff" stroke="#63b8ff" points="847.36,-106.15 857.23,-109.98 851.91,-100.83 847.36,-106.15"/>
</a>
</g>
</g>
<!-- Node28 -->
<g id="Node000028" class="node">
<title>Node28</title>
<g id="a_Node000028"><a xlink:href="../../d8/df8/sqlite3gen_8cpp.html" target="_top" xlink:title=" ">
<polygon fill="white" stroke="#666666" points="1395.7,-19 1290.7,-19 1290.7,0 1395.7,0 1395.7,-19"/>
<text text-anchor="middle" x="1343.2" y="-7" font-family="Helvetica,sans-Serif" font-size="10.00">src/sqlite3gen.cpp</text>
</a>
</g>
</g>
<!-- Node2&#45;&gt;Node28 -->
<g id="edge30_Node000002_Node000028" class="edge">
<title>Node2&#45;&gt;Node28</title>
<g id="a_edge30_Node000002_Node000028"><a xlink:title=" ">
<path fill="none" stroke="#63b8ff" d="M919.22,-118.78C1020.61,-118.44 1240.21,-113.07 1303.2,-74 1323.79,-61.23 1335.57,-33.49 1340.48,-19.28"/>
<polygon fill="#63b8ff" stroke="#63b8ff" points="919.2,-115.28 909.21,-118.8 919.21,-122.28 919.2,-115.28"/>
</a>
</g>
</g>
<!-- Node29 -->
<g id="Node000029" class="node">
<title>Node29</title>
<g id="a_Node000029"><a xlink:href="../../dd/d66/textdocvisitor_8h.html" target="_top" xlink:title=" ">
<polygon fill="white" stroke="#666666" points="984.2,-74 874.2,-74 874.2,-55 984.2,-55 984.2,-74"/>
<text text-anchor="middle" x="929.2" y="-62" font-family="Helvetica,sans-Serif" font-size="10.00">src/textdocvisitor.h</text>
</a>
</g>
</g>
<!-- Node2&#45;&gt;Node29 -->
<g id="edge31_Node000002_Node000029" class="edge">
<title>Node2&#45;&gt;Node29</title>
<g id="a_edge31_Node000002_Node000029"><a xlink:title=" ">
<path fill="none" stroke="#63b8ff" d="M884.95,-103.32C896,-93.87 909.83,-82.06 919.05,-74.17"/>
<polygon fill="#63b8ff" stroke="#63b8ff" points="882.48,-100.83 877.16,-109.98 887.03,-106.15 882.48,-100.83"/>
</a>
</g>
</g>
<!-- Node31 -->
<g id="Node000031" class="node">
<title>Node31</title>
<g id="a_Node000031"><a xlink:href="../../df/d2b/xmldocvisitor_8h.html" target="_top" xlink:title=" ">
<polygon fill="white" stroke="#666666" points="1500.7,-74 1391.7,-74 1391.7,-55 1500.7,-55 1500.7,-74"/>
<text text-anchor="middle" x="1446.2" y="-62" font-family="Helvetica,sans-Serif" font-size="10.00">src/xmldocvisitor.h</text>
</a>
</g>
</g>
<!-- Node2&#45;&gt;Node31 -->
<g id="edge34_Node000002_Node000031" class="edge">
<title>Node2&#45;&gt;Node31</title>
<g id="a_edge34_Node000002_Node000031"><a xlink:title=" ">
<path fill="none" stroke="#63b8ff" d="M919.41,-113.72C1028.6,-103.73 1280.09,-80.7 1391.44,-70.51"/>
<polygon fill="#63b8ff" stroke="#63b8ff" points="918.94,-110.25 909.3,-114.65 919.58,-117.22 918.94,-110.25"/>
</a>
</g>
</g>
<!-- Node4 -->
<g id="Node000004" class="node">
<title>Node4</title>
<g id="a_Node000004"><a xlink:href="../../d8/d29/docbookgen_8cpp.html" target="_top" xlink:title=" ">
<polygon fill="white" stroke="#666666" points="2136.7,-19 2023.7,-19 2023.7,0 2136.7,0 2136.7,-19"/>
<text text-anchor="middle" x="2080.2" y="-7" font-family="Helvetica,sans-Serif" font-size="10.00">src/docbookgen.cpp</text>
</a>
</g>
</g>
<!-- Node3&#45;&gt;Node4 -->
<g id="edge3_Node000003_Node000004" class="edge">
<title>Node3&#45;&gt;Node4</title>
<g id="a_edge3_Node000003_Node000004"><a xlink:title=" ">
<path fill="none" stroke="#63b8ff" d="M2080.2,-44.66C2080.2,-35.93 2080.2,-25.99 2080.2,-19.09"/>
<polygon fill="#63b8ff" stroke="#63b8ff" points="2076.7,-44.75 2080.2,-54.75 2083.7,-44.75 2076.7,-44.75"/>
</a>
</g>
</g>
<!-- Node5 -->
<g id="Node000005" class="node">
<title>Node5</title>
<g id="a_Node000005"><a xlink:href="../../dc/d05/docbookvisitor_8cpp.html" target="_top" xlink:title=" ">
<polygon fill="white" stroke="#666666" points="2279.7,-19 2154.7,-19 2154.7,0 2279.7,0 2279.7,-19"/>
<text text-anchor="middle" x="2217.2" y="-7" font-family="Helvetica,sans-Serif" font-size="10.00">src/docbookvisitor.cpp</text>
</a>
</g>
</g>
<!-- Node3&#45;&gt;Node5 -->
<g id="edge4_Node000003_Node000005" class="edge">
<title>Node3&#45;&gt;Node5</title>
<g id="a_edge4_Node000003_Node000005"><a xlink:title=" ">
<path fill="none" stroke="#63b8ff" d="M2111.76,-51.29C2137.15,-41.47 2172.2,-27.91 2194.78,-19.17"/>
<polygon fill="#63b8ff" stroke="#63b8ff" points="2110.27,-48.11 2102.21,-54.98 2112.8,-54.64 2110.27,-48.11"/>
</a>
</g>
</g>
<!-- Node7&#45;&gt;Node6 -->
<g id="edge7_Node000007_Node000006" class="edge">
<title>Node7&#45;&gt;Node6</title>
<g id="a_edge7_Node000007_Node000006"><a xlink:title=" ">
<path fill="none" stroke="#63b8ff" d="M196.4,-45.24C199.41,-36.37 202.88,-26.14 205.28,-19.09"/>
<polygon fill="#63b8ff" stroke="#63b8ff" points="193.07,-44.15 193.17,-54.75 199.7,-46.4 193.07,-44.15"/>
</a>
</g>
</g>
<!-- Node8 -->
<g id="Node000008" class="node">
<title>Node8</title>
<g id="a_Node000008"><a xlink:href="../../da/d17/docparser_8cpp.html" target="_top" xlink:title=" ">
<polygon fill="white" stroke="#666666" points="142.7,-19 41.7,-19 41.7,0 142.7,0 142.7,-19"/>
<text text-anchor="middle" x="92.2" y="-7" font-family="Helvetica,sans-Serif" font-size="10.00">src/docparser.cpp</text>
</a>
</g>
</g>
<!-- Node7&#45;&gt;Node8 -->
<g id="edge8_Node000007_Node000008" class="edge">
<title>Node7&#45;&gt;Node8</title>
<g id="a_edge8_Node000007_Node000008"><a xlink:title=" ">
<path fill="none" stroke="#63b8ff" d="M165.17,-49.97C147.26,-40.28 123.67,-27.52 108.23,-19.17"/>
<polygon fill="#63b8ff" stroke="#63b8ff" points="163.99,-53.31 174.45,-54.98 167.32,-47.15 163.99,-53.31"/>
</a>
</g>
</g>
<!-- Node12 -->
<g id="Node000012" class="node">
<title>Node12</title>
<g id="a_Node000012"><a xlink:href="../../db/d41/ftvhelp_8cpp.html" target="_top" xlink:title=" ">
<polygon fill="white" stroke="#666666" points="2005.2,-19 1917.2,-19 1917.2,0 2005.2,0 2005.2,-19"/>
<text text-anchor="middle" x="1961.2" y="-7" font-family="Helvetica,sans-Serif" font-size="10.00">src/ftvhelp.cpp</text>
</a>
</g>
</g>
<!-- Node11&#45;&gt;Node12 -->
<g id="edge12_Node000011_Node000012" class="edge">
<title>Node11&#45;&gt;Node12</title>
<g id="a_edge12_Node000011_Node000012"><a xlink:title=" ">
<path fill="none" stroke="#63b8ff" d="M1812.55,-52.18C1847.9,-42.27 1898.49,-28.08 1930.59,-19.08"/>
<polygon fill="#63b8ff" stroke="#63b8ff" points="1811.25,-48.91 1802.56,-54.98 1813.14,-55.65 1811.25,-48.91"/>
</a>
</g>
</g>
<!-- Node13 -->
<g id="Node000013" class="node">
<title>Node13</title>
<g id="a_Node000013"><a xlink:href="../../da/db0/htmldocvisitor_8cpp.html" target="_top" xlink:title=" ">
<polygon fill="white" stroke="#666666" points="1899.2,-19 1775.2,-19 1775.2,0 1899.2,0 1899.2,-19"/>
<text text-anchor="middle" x="1837.2" y="-7" font-family="Helvetica,sans-Serif" font-size="10.00">src/htmldocvisitor.cpp</text>
</a>
</g>
</g>
<!-- Node11&#45;&gt;Node13 -->
<g id="edge13_Node000011_Node000013" class="edge">
<title>Node11&#45;&gt;Node13</title>
<g id="a_edge13_Node000011_Node000013"><a xlink:title=" ">
<path fill="none" stroke="#63b8ff" d="M1790.47,-48.6C1802.11,-39.11 1816.8,-27.13 1826.56,-19.17"/>
<polygon fill="#63b8ff" stroke="#63b8ff" points="1788.18,-45.95 1782.64,-54.98 1792.6,-51.38 1788.18,-45.95"/>
</a>
</g>
</g>
<!-- Node11&#45;&gt;Node14 -->
<g id="edge14_Node000011_Node000014" class="edge">
<title>Node11&#45;&gt;Node14</title>
<g id="a_edge14_Node000011_Node000014"><a xlink:title=" ">
<path fill="none" stroke="#63b8ff" d="M1754.16,-48.32C1742.92,-38.87 1728.88,-27.06 1719.5,-19.17"/>
<polygon fill="#63b8ff" stroke="#63b8ff" points="1752.17,-51.23 1762.07,-54.98 1756.67,-45.87 1752.17,-51.23"/>
</a>
</g>
</g>
<!-- Node15&#45;&gt;Node16 -->
<g id="edge17_Node000015_Node000016" class="edge">
<title>Node15&#45;&gt;Node16</title>
<g id="a_edge17_Node000015_Node000016"><a xlink:title=" ">
<path fill="none" stroke="#63b8ff" d="M1227.85,-45.82C1223.1,-36.82 1217.54,-26.29 1213.73,-19.09"/>
<polygon fill="#63b8ff" stroke="#63b8ff" points="1224.81,-47.54 1232.57,-54.75 1231,-44.27 1224.81,-47.54"/>
</a>
</g>
</g>
<!-- Node15&#45;&gt;Node17 -->
<g id="edge18_Node000015_Node000017" class="edge">
<title>Node15&#45;&gt;Node17</title>
<g id="a_edge18_Node000015_Node000017"><a xlink:title=" ">
<path fill="none" stroke="#63b8ff" d="M1202.31,-51.8C1172.83,-41.91 1131.27,-27.97 1104.78,-19.08"/>
<polygon fill="#63b8ff" stroke="#63b8ff" points="1201.22,-55.12 1211.81,-54.98 1203.44,-48.49 1201.22,-55.12"/>
</a>
</g>
</g>
<!-- Node18 -->
<g id="Node000018" class="node">
<title>Node18</title>
<g id="a_Node000018"><a xlink:href="../../df/d2d/util_8cpp.html" target="_top" xlink:title=" ">
<polygon fill="white" stroke="#666666" points="1012.2,-19 942.2,-19 942.2,0 1012.2,0 1012.2,-19"/>
<text text-anchor="middle" x="977.2" y="-7" font-family="Helvetica,sans-Serif" font-size="10.00">src/util.cpp</text>
</a>
</g>
</g>
<!-- Node15&#45;&gt;Node18 -->
<g id="edge19_Node000015_Node000018" class="edge">
<title>Node15&#45;&gt;Node18</title>
<g id="a_edge19_Node000015_Node000018"><a xlink:title=" ">
<path fill="none" stroke="#63b8ff" d="M1185.51,-52.96C1134.14,-42.49 1056.77,-26.72 1012.2,-17.63"/>
<polygon fill="#63b8ff" stroke="#63b8ff" points="1184.93,-56.42 1195.42,-54.98 1186.32,-49.56 1184.93,-56.42"/>
</a>
</g>
</g>
<!-- Node21 -->
<g id="Node000021" class="node">
<title>Node21</title>
<g id="a_Node000021"><a xlink:href="../../d8/dde/mandocvisitor_8cpp.html" target="_top" xlink:title=" ">
<polygon fill="white" stroke="#666666" points="528.7,-19 405.7,-19 405.7,0 528.7,0 528.7,-19"/>
<text text-anchor="middle" x="467.2" y="-7" font-family="Helvetica,sans-Serif" font-size="10.00">src/mandocvisitor.cpp</text>
</a>
</g>
</g>
<!-- Node20&#45;&gt;Node21 -->
<g id="edge23_Node000020_Node000021" class="edge">
<title>Node20&#45;&gt;Node21</title>
<g id="a_edge23_Node000020_Node000021"><a xlink:title=" ">
<path fill="none" stroke="#63b8ff" d="M380.59,-50.77C401.62,-40.99 430.09,-27.75 448.55,-19.17"/>
<polygon fill="#63b8ff" stroke="#63b8ff" points="379.1,-47.6 371.51,-54.98 382.06,-53.94 379.1,-47.6"/>
</a>
</g>
</g>
<!-- Node22 -->
<g id="Node000022" class="node">
<title>Node22</title>
<g id="a_Node000022"><a xlink:href="../../d7/de7/mangen_8cpp.html" target="_top" xlink:title=" ">
<polygon fill="white" stroke="#666666" points="387.2,-19 293.2,-19 293.2,0 387.2,0 387.2,-19"/>
<text text-anchor="middle" x="340.2" y="-7" font-family="Helvetica,sans-Serif" font-size="10.00">src/mangen.cpp</text>
</a>
</g>
</g>
<!-- Node20&#45;&gt;Node22 -->
<g id="edge24_Node000020_Node000022" class="edge">
<title>Node20&#45;&gt;Node22</title>
<g id="a_edge24_Node000020_Node000022"><a xlink:title=" ">
<path fill="none" stroke="#63b8ff" d="M348.65,-44.95C346.49,-36.15 344.01,-26.06 342.3,-19.09"/>
<polygon fill="#63b8ff" stroke="#63b8ff" points="345.27,-45.87 351.05,-54.75 352.07,-44.2 345.27,-45.87"/>
</a>
</g>
</g>
<!-- Node26 -->
<g id="Node000026" class="node">
<title>Node26</title>
<g id="a_Node000026"><a xlink:href="../../de/d9a/rtfdocvisitor_8cpp.html" target="_top" xlink:title=" ">
<polygon fill="white" stroke="#666666" points="784.7,-19 671.7,-19 671.7,0 784.7,0 784.7,-19"/>
<text text-anchor="middle" x="728.2" y="-7" font-family="Helvetica,sans-Serif" font-size="10.00">src/rtfdocvisitor.cpp</text>
</a>
</g>
</g>
<!-- Node25&#45;&gt;Node26 -->
<g id="edge28_Node000025_Node000026" class="edge">
<title>Node25&#45;&gt;Node26</title>
<g id="a_edge28_Node000025_Node000026"><a xlink:title=" ">
<path fill="none" stroke="#63b8ff" d="M784.35,-49.15C770.43,-39.57 752.59,-27.29 740.79,-19.17"/>
<polygon fill="#63b8ff" stroke="#63b8ff" points="782.6,-52.2 792.82,-54.98 786.57,-46.43 782.6,-52.2"/>
</a>
</g>
</g>
<!-- Node27 -->
<g id="Node000027" class="node">
<title>Node27</title>
<g id="a_Node000027"><a xlink:href="../../d0/d9c/rtfgen_8cpp.html" target="_top" xlink:title=" ">
<polygon fill="white" stroke="#666666" points="653.7,-19 570.7,-19 570.7,0 653.7,0 653.7,-19"/>
<text text-anchor="middle" x="612.2" y="-7" font-family="Helvetica,sans-Serif" font-size="10.00">src/rtfgen.cpp</text>
</a>
</g>
</g>
<!-- Node25&#45;&gt;Node27 -->
<g id="edge29_Node000025_Node000027" class="edge">
<title>Node25&#45;&gt;Node27</title>
<g id="a_edge29_Node000025_Node000027"><a xlink:title=" ">
<path fill="none" stroke="#63b8ff" d="M764.45,-52.31C728.34,-42.39 676.37,-28.12 643.45,-19.08"/>
<polygon fill="#63b8ff" stroke="#63b8ff" points="763.62,-55.71 774.19,-54.98 765.47,-48.96 763.62,-55.71"/>
</a>
</g>
</g>
<!-- Node29&#45;&gt;Node18 -->
<g id="edge33_Node000029_Node000018" class="edge">
<title>Node29&#45;&gt;Node18</title>
<g id="a_edge33_Node000029_Node000018"><a xlink:title=" ">
<path fill="none" stroke="#63b8ff" d="M943.92,-47.24C952.34,-37.95 962.54,-26.68 969.42,-19.09"/>
<polygon fill="#63b8ff" stroke="#63b8ff" points="941.24,-44.99 937.12,-54.75 946.43,-49.69 941.24,-44.99"/>
</a>
</g>
</g>
<!-- Node30 -->
<g id="Node000030" class="node">
<title>Node30</title>
<g id="a_Node000030"><a xlink:href="../../d3/da6/textdocvisitor_8cpp.html" target="_top" xlink:title=" ">
<polygon fill="white" stroke="#666666" points="923.7,-19 802.7,-19 802.7,0 923.7,0 923.7,-19"/>
<text text-anchor="middle" x="863.2" y="-7" font-family="Helvetica,sans-Serif" font-size="10.00">src/textdocvisitor.cpp</text>
</a>
</g>
</g>
<!-- Node29&#45;&gt;Node30 -->
<g id="edge32_Node000029_Node000030" class="edge">
<title>Node29&#45;&gt;Node30</title>
<g id="a_edge32_Node000029_Node000030"><a xlink:title=" ">
<path fill="none" stroke="#63b8ff" d="M910.64,-48.6C898.82,-39.11 883.91,-27.13 873.99,-19.17"/>
<polygon fill="#63b8ff" stroke="#63b8ff" points="908.6,-51.45 918.59,-54.98 912.99,-45.99 908.6,-51.45"/>
</a>
</g>
</g>
<!-- Node31&#45;&gt;Node28 -->
<g id="edge35_Node000031_Node000028" class="edge">
<title>Node31&#45;&gt;Node28</title>
<g id="a_edge35_Node000031_Node000028"><a xlink:title=" ">
<path fill="none" stroke="#63b8ff" d="M1420.67,-50.37C1401.76,-40.63 1376.5,-27.64 1360.05,-19.17"/>
<polygon fill="#63b8ff" stroke="#63b8ff" points="1419.15,-53.52 1429.65,-54.98 1422.36,-47.3 1419.15,-53.52"/>
</a>
</g>
</g>
<!-- Node32 -->
<g id="Node000032" class="node">
<title>Node32</title>
<g id="a_Node000032"><a xlink:href="../../dd/db6/xmldocvisitor_8cpp.html" target="_top" xlink:title=" ">
<polygon fill="white" stroke="#666666" points="1643.2,-19 1523.2,-19 1523.2,0 1643.2,0 1643.2,-19"/>
<text text-anchor="middle" x="1583.2" y="-7" font-family="Helvetica,sans-Serif" font-size="10.00">src/xmldocvisitor.cpp</text>
</a>
</g>
</g>
<!-- Node31&#45;&gt;Node32 -->
<g id="edge36_Node000031_Node000032" class="edge">
<title>Node31&#45;&gt;Node32</title>
<g id="a_edge36_Node000031_Node000032"><a xlink:title=" ">
<path fill="none" stroke="#63b8ff" d="M1477.76,-51.29C1503.15,-41.47 1538.2,-27.91 1560.78,-19.17"/>
<polygon fill="#63b8ff" stroke="#63b8ff" points="1476.27,-48.11 1468.21,-54.98 1478.8,-54.64 1476.27,-48.11"/>
</a>
</g>
</g>
<!-- Node33 -->
<g id="Node000033" class="node">
<title>Node33</title>
<g id="a_Node000033"><a xlink:href="../../d0/dc3/xmlgen_8cpp.html" target="_top" xlink:title=" ">
<polygon fill="white" stroke="#666666" points="1504.7,-19 1413.7,-19 1413.7,0 1504.7,0 1504.7,-19"/>
<text text-anchor="middle" x="1459.2" y="-7" font-family="Helvetica,sans-Serif" font-size="10.00">src/xmlgen.cpp</text>
</a>
</g>
</g>
<!-- Node31&#45;&gt;Node33 -->
<g id="edge37_Node000031_Node000033" class="edge">
<title>Node31&#45;&gt;Node33</title>
<g id="a_edge37_Node000031_Node000033"><a xlink:title=" ">
<path fill="none" stroke="#63b8ff" d="M1450.75,-44.95C1452.9,-36.15 1455.38,-26.06 1457.09,-19.09"/>
<polygon fill="#63b8ff" stroke="#63b8ff" points="1447.33,-44.2 1448.34,-54.75 1454.12,-45.87 1447.33,-44.2"/>
</a>
</g>
</g>
<!-- Node34&#45;&gt;Node2 -->
<g id="edge40_Node000034_Node000002" class="edge">
<title>Node34&#45;&gt;Node2</title>
<g id="a_edge40_Node000034_Node000002"><a xlink:title=" ">
<path fill="none" stroke="#63b8ff" d="M252.74,-168.6C388.96,-157.94 709.47,-132.85 824.87,-123.81"/>
<polygon fill="#63b8ff" stroke="#63b8ff" points="252.17,-165.14 242.48,-169.41 252.72,-172.12 252.17,-165.14"/>
</a>
</g>
</g>
<!-- Node34&#45;&gt;Node6 -->
<g id="edge39_Node000034_Node000006" class="edge">
<title>Node34&#45;&gt;Node6</title>
<g id="a_edge39_Node000034_Node000006"><a xlink:title=" ">
<path fill="none" stroke="#63b8ff" d="M141.7,-162.48C75.06,-145.1 -32.05,-107.79 10.2,-55 19.61,-43.24 104.79,-27.34 160.32,-18.07"/>
<polygon fill="#63b8ff" stroke="#63b8ff" points="141.06,-165.93 151.62,-165 142.79,-159.15 141.06,-165.93"/>
</a>
</g>
</g>
<!-- Node34&#45;&gt;Node7 -->
<g id="edge41_Node000034_Node000007" class="edge">
<title>Node34&#45;&gt;Node7</title>
<g id="a_edge41_Node000034_Node000007"><a xlink:title=" ">
<path fill="none" stroke="#63b8ff" d="M190.2,-154.48C190.2,-130.84 190.2,-91.5 190.2,-74.16"/>
<polygon fill="#63b8ff" stroke="#63b8ff" points="186.7,-154.66 190.2,-164.66 193.7,-154.66 186.7,-154.66"/>
</a>
</g>
</g>
<!-- Node34&#45;&gt;Node9 -->
<g id="edge42_Node000034_Node000009" class="edge">
<title>Node34&#45;&gt;Node9</title>
<g id="a_edge42_Node000034_Node000009"><a xlink:title=" ">
<path fill="none" stroke="#63b8ff" d="M172.87,-157.91C147.23,-134.83 100.05,-92.37 79.82,-74.16"/>
<polygon fill="#63b8ff" stroke="#63b8ff" points="170.6,-160.57 180.38,-164.66 175.28,-155.37 170.6,-160.57"/>
</a>
</g>
</g>
</g>
</svg>
