<?xml version="1.0" encoding="UTF-8" standalone="no"?>
<!DOCTYPE svg PUBLIC "-//W3C//DTD SVG 1.1//EN"
 "http://www.w3.org/Graphics/SVG/1.1/DTD/svg11.dtd">
<!-- Generated by graphviz version 2.43.0 (0)
 -->
<!-- Title: /home/runner/work/doxygen/doxygen/src/htmlattrib.h Pages: 1 -->
<svg width="3379pt" height="236pt"
 viewBox="0.00 0.00 3378.50 236.00" xmlns="http://www.w3.org/2000/svg" xmlns:xlink="http://www.w3.org/1999/xlink">
<g id="graph0" class="graph" transform="scale(1 1) rotate(0) translate(4 232)">
<title>/home/runner/work/doxygen/doxygen/src/htmlattrib.h</title>
<!-- Node1 -->
<g id="Node000001" class="node">
<title>Node1</title>
<g id="a_Node000001"><a xlink:title=" ">
<polygon fill="#999999" stroke="#666666" points="696,-228 542,-228 542,-198 696,-198 696,-228"/>
<text text-anchor="start" x="550" y="-216" font-family="Helvetica,sans-Serif" font-size="10.00">/home/runner/work/doxygen</text>
<text text-anchor="middle" x="619" y="-205" font-family="Helvetica,sans-Serif" font-size="10.00">/doxygen/src/htmlattrib.h</text>
</a>
</g>
</g>
<!-- Node2 -->
<g id="Node000002" class="node">
<title>Node2</title>
<g id="a_Node000002"><a xlink:href="../../de/d2b/docnode_8h.html" target="_top" xlink:title=" ">
<polygon fill="white" stroke="#666666" points="1645,-162 1491,-162 1491,-132 1645,-132 1645,-162"/>
<text text-anchor="start" x="1499" y="-150" font-family="Helvetica,sans-Serif" font-size="10.00">/home/runner/work/doxygen</text>
<text text-anchor="middle" x="1568" y="-139" font-family="Helvetica,sans-Serif" font-size="10.00">/doxygen/src/docnode.h</text>
</a>
</g>
</g>
<!-- Node1&#45;&gt;Node2 -->
<g id="edge1_Node000001_Node000002" class="edge">
<title>Node1&#45;&gt;Node2</title>
<g id="a_edge1_Node000001_Node000002"><a xlink:title=" ">
<path fill="none" stroke="#63b8ff" d="M706.44,-206.1C890.65,-193.68 1316.02,-164.99 1490.84,-153.2"/>
<polygon fill="#63b8ff" stroke="#63b8ff" points="706,-202.62 696.26,-206.79 706.47,-209.61 706,-202.62"/>
</a>
</g>
</g>
<!-- Node16 -->
<g id="Node000016" class="node">
<title>Node16</title>
<g id="a_Node000016"><a xlink:href="../../d1/d4e/latexdocvisitor_8cpp.html" target="_top" xlink:title=" ">
<polygon fill="white" stroke="#666666" points="706,-30 532,-30 532,0 706,0 706,-30"/>
<text text-anchor="start" x="540" y="-18" font-family="Helvetica,sans-Serif" font-size="10.00">/home/runner/work/doxygen</text>
<text text-anchor="middle" x="619" y="-7" font-family="Helvetica,sans-Serif" font-size="10.00">/doxygen/src/latexdocvisitor.cpp</text>
</a>
</g>
</g>
<!-- Node1&#45;&gt;Node16 -->
<g id="edge42_Node000001_Node000016" class="edge">
<title>Node1&#45;&gt;Node16</title>
<g id="a_edge42_Node000001_Node000016"><a xlink:title=" ">
<path fill="none" stroke="#63b8ff" d="M619,-187.89C619,-146.58 619,-63.48 619,-30.23"/>
<polygon fill="#63b8ff" stroke="#63b8ff" points="615.5,-187.9 619,-197.9 622.5,-187.9 615.5,-187.9"/>
</a>
</g>
</g>
<!-- Node33 -->
<g id="Node000033" class="node">
<title>Node33</title>
<g id="a_Node000033"><a xlink:href="../../d0/d0c/doctokenizer_8h.html" target="_top" xlink:title=" ">
<polygon fill="white" stroke="#666666" points="379,-162 225,-162 225,-132 379,-132 379,-162"/>
<text text-anchor="start" x="233" y="-150" font-family="Helvetica,sans-Serif" font-size="10.00">/home/runner/work/doxygen</text>
<text text-anchor="middle" x="302" y="-139" font-family="Helvetica,sans-Serif" font-size="10.00">/doxygen/src/doctokenizer.h</text>
</a>
</g>
</g>
<!-- Node1&#45;&gt;Node33 -->
<g id="edge38_Node000001_Node000033" class="edge">
<title>Node1&#45;&gt;Node33</title>
<g id="a_edge38_Node000001_Node000033"><a xlink:title=" ">
<path fill="none" stroke="#63b8ff" d="M539.63,-195.98C487.89,-185.53 421.02,-172.03 371.4,-162.01"/>
<polygon fill="#63b8ff" stroke="#63b8ff" points="538.94,-199.41 549.43,-197.95 540.32,-192.55 538.94,-199.41"/>
</a>
</g>
</g>
<!-- Node3 -->
<g id="Node000003" class="node">
<title>Node3</title>
<g id="a_Node000003"><a xlink:href="../../de/dcd/docbookvisitor_8h.html" target="_top" xlink:title=" ">
<polygon fill="white" stroke="#666666" points="3186,-96 3024,-96 3024,-66 3186,-66 3186,-96"/>
<text text-anchor="start" x="3032" y="-84" font-family="Helvetica,sans-Serif" font-size="10.00">/home/runner/work/doxygen</text>
<text text-anchor="middle" x="3105" y="-73" font-family="Helvetica,sans-Serif" font-size="10.00">/doxygen/src/docbookvisitor.h</text>
</a>
</g>
</g>
<!-- Node2&#45;&gt;Node3 -->
<g id="edge2_Node000002_Node000003" class="edge">
<title>Node2&#45;&gt;Node3</title>
<g id="a_edge2_Node000002_Node000003"><a xlink:title=" ">
<path fill="none" stroke="#63b8ff" d="M1655.24,-142.98C1861.37,-135.74 2394.66,-116.52 2840,-96 2901.67,-93.16 2971.39,-89.46 3023.83,-86.57"/>
<polygon fill="#63b8ff" stroke="#63b8ff" points="1654.96,-139.48 1645.09,-143.33 1655.2,-146.48 1654.96,-139.48"/>
</a>
</g>
</g>
<!-- Node6 -->
<g id="Node000006" class="node">
<title>Node6</title>
<g id="a_Node000006"><a xlink:href="../../d0/d2b/docnode_8cpp.html" target="_top" xlink:title=" ">
<polygon fill="white" stroke="#666666" points="326,-30 172,-30 172,0 326,0 326,-30"/>
<text text-anchor="start" x="180" y="-18" font-family="Helvetica,sans-Serif" font-size="10.00">/home/runner/work/doxygen</text>
<text text-anchor="middle" x="249" y="-7" font-family="Helvetica,sans-Serif" font-size="10.00">/doxygen/src/docnode.cpp</text>
</a>
</g>
</g>
<!-- Node2&#45;&gt;Node6 -->
<g id="edge5_Node000002_Node000006" class="edge">
<title>Node2&#45;&gt;Node6</title>
<g id="a_edge5_Node000002_Node000006"><a xlink:title=" ">
<path fill="none" stroke="#63b8ff" d="M1480.4,-144.18C1324.84,-140.21 990.37,-128.39 710,-96 568.79,-79.69 405.21,-48.29 315.84,-30.06"/>
<polygon fill="#63b8ff" stroke="#63b8ff" points="1480.75,-147.69 1490.84,-144.44 1480.93,-140.69 1480.75,-147.69"/>
</a>
</g>
</g>
<!-- Node7 -->
<g id="Node000007" class="node">
<title>Node7</title>
<g id="a_Node000007"><a xlink:href="../../df/dc9/docparser__p_8h.html" target="_top" xlink:title="Private header shared between docparser.cpp and docnode.cpp.">
<polygon fill="white" stroke="#666666" points="431,-96 277,-96 277,-66 431,-66 431,-96"/>
<text text-anchor="start" x="285" y="-84" font-family="Helvetica,sans-Serif" font-size="10.00">/home/runner/work/doxygen</text>
<text text-anchor="middle" x="354" y="-73" font-family="Helvetica,sans-Serif" font-size="10.00">/doxygen/src/docparser_p.h</text>
</a>
</g>
</g>
<!-- Node2&#45;&gt;Node7 -->
<g id="edge6_Node000002_Node000007" class="edge">
<title>Node2&#45;&gt;Node7</title>
<g id="a_edge6_Node000002_Node000007"><a xlink:title=" ">
<path fill="none" stroke="#63b8ff" d="M1480.95,-143.22C1299.51,-137.14 867.66,-121.16 506,-96 481.68,-94.31 455.21,-92.02 431.27,-89.79"/>
<polygon fill="#63b8ff" stroke="#63b8ff" points="1480.86,-146.72 1490.97,-143.56 1481.1,-139.73 1480.86,-146.72"/>
</a>
</g>
</g>
<!-- Node9 -->
<g id="Node000009" class="node">
<title>Node9</title>
<g id="a_Node000009"><a xlink:href="../../d9/d92/dotfilepatcher_8cpp.html" target="_top" xlink:title=" ">
<polygon fill="white" stroke="#666666" points="2830.5,-96 2661.5,-96 2661.5,-66 2830.5,-66 2830.5,-96"/>
<text text-anchor="start" x="2669.5" y="-84" font-family="Helvetica,sans-Serif" font-size="10.00">/home/runner/work/doxygen</text>
<text text-anchor="middle" x="2746" y="-73" font-family="Helvetica,sans-Serif" font-size="10.00">/doxygen/src/dotfilepatcher.cpp</text>
</a>
</g>
</g>
<!-- Node2&#45;&gt;Node9 -->
<g id="edge9_Node000002_Node000009" class="edge">
<title>Node2&#45;&gt;Node9</title>
<g id="a_edge9_Node000002_Node000009"><a xlink:title=" ">
<path fill="none" stroke="#63b8ff" d="M1655.35,-145.03C1839.96,-142.32 2283.25,-132.25 2653,-96 2655.76,-95.73 2658.57,-95.43 2661.4,-95.11"/>
<polygon fill="#63b8ff" stroke="#63b8ff" points="1655.1,-141.54 1645.15,-145.18 1655.2,-148.54 1655.1,-141.54"/>
</a>
</g>
</g>
<!-- Node10 -->
<g id="Node000010" class="node">
<title>Node10</title>
<g id="a_Node000010"><a xlink:href="../../d0/d71/htmldocvisitor_8h.html" target="_top" xlink:title=" ">
<polygon fill="white" stroke="#666666" points="1384.5,-96 1223.5,-96 1223.5,-66 1384.5,-66 1384.5,-96"/>
<text text-anchor="start" x="1231.5" y="-84" font-family="Helvetica,sans-Serif" font-size="10.00">/home/runner/work/doxygen</text>
<text text-anchor="middle" x="1304" y="-73" font-family="Helvetica,sans-Serif" font-size="10.00">/doxygen/src/htmldocvisitor.h</text>
</a>
</g>
</g>
<!-- Node2&#45;&gt;Node10 -->
<g id="edge10_Node000002_Node000010" class="edge">
<title>Node2&#45;&gt;Node10</title>
<g id="a_edge10_Node000002_Node000010"><a xlink:title=" ">
<path fill="none" stroke="#63b8ff" d="M1500.28,-129.58C1457.42,-119.19 1402.61,-105.9 1361.8,-96.01"/>
<polygon fill="#63b8ff" stroke="#63b8ff" points="1499.52,-133 1510.06,-131.95 1501.17,-126.2 1499.52,-133"/>
</a>
</g>
</g>
<!-- Node14 -->
<g id="Node000014" class="node">
<title>Node14</title>
<g id="a_Node000014"><a xlink:href="../../d8/d6e/htmlgen_8cpp.html" target="_top" xlink:title=" ">
<polygon fill="white" stroke="#666666" points="1756,-30 1602,-30 1602,0 1756,0 1756,-30"/>
<text text-anchor="start" x="1610" y="-18" font-family="Helvetica,sans-Serif" font-size="10.00">/home/runner/work/doxygen</text>
<text text-anchor="middle" x="1679" y="-7" font-family="Helvetica,sans-Serif" font-size="10.00">/doxygen/src/htmlgen.cpp</text>
</a>
</g>
</g>
<!-- Node2&#45;&gt;Node14 -->
<g id="edge15_Node000002_Node000014" class="edge">
<title>Node2&#45;&gt;Node14</title>
<g id="a_edge15_Node000002_Node000014"><a xlink:title=" ">
<path fill="none" stroke="#63b8ff" d="M1655.15,-131.56C1693.93,-123.19 1733.45,-111.26 1745,-96 1762.93,-72.31 1730.33,-45.92 1704.89,-30.16"/>
<polygon fill="#63b8ff" stroke="#63b8ff" points="1654.4,-128.14 1645.32,-133.61 1655.83,-135 1654.4,-128.14"/>
</a>
</g>
</g>
<!-- Node15 -->
<g id="Node000015" class="node">
<title>Node15</title>
<g id="a_Node000015"><a xlink:href="../../d8/d99/latexdocvisitor_8h.html" target="_top" xlink:title=" ">
<polygon fill="white" stroke="#666666" points="1058.5,-96 895.5,-96 895.5,-66 1058.5,-66 1058.5,-96"/>
<text text-anchor="start" x="903.5" y="-84" font-family="Helvetica,sans-Serif" font-size="10.00">/home/runner/work/doxygen</text>
<text text-anchor="middle" x="977" y="-73" font-family="Helvetica,sans-Serif" font-size="10.00">/doxygen/src/latexdocvisitor.h</text>
</a>
</g>
</g>
<!-- Node2&#45;&gt;Node15 -->
<g id="edge16_Node000002_Node000015" class="edge">
<title>Node2&#45;&gt;Node15</title>
<g id="a_edge16_Node000002_Node000015"><a xlink:title=" ">
<path fill="none" stroke="#63b8ff" d="M1480.67,-136.54C1366.88,-124.22 1169.42,-102.84 1058.55,-90.83"/>
<polygon fill="#63b8ff" stroke="#63b8ff" points="1480.42,-140.04 1490.74,-137.63 1481.17,-133.08 1480.42,-140.04"/>
</a>
</g>
</g>
<!-- Node17 -->
<g id="Node000017" class="node">
<title>Node17</title>
<g id="a_Node000017"><a xlink:href="../../d4/d42/latexgen_8cpp.html" target="_top" xlink:title=" ">
<polygon fill="white" stroke="#666666" points="1050,-30 896,-30 896,0 1050,0 1050,-30"/>
<text text-anchor="start" x="904" y="-18" font-family="Helvetica,sans-Serif" font-size="10.00">/home/runner/work/doxygen</text>
<text text-anchor="middle" x="973" y="-7" font-family="Helvetica,sans-Serif" font-size="10.00">/doxygen/src/latexgen.cpp</text>
</a>
</g>
</g>
<!-- Node2&#45;&gt;Node17 -->
<g id="edge21_Node000002_Node000017" class="edge">
<title>Node2&#45;&gt;Node17</title>
<g id="a_edge21_Node000002_Node000017"><a xlink:title=" ">
<path fill="none" stroke="#63b8ff" d="M1481,-138.13C1408.84,-130.55 1303.89,-117.09 1214,-96 1139.53,-78.53 1055.31,-48 1008.75,-30.13"/>
<polygon fill="#63b8ff" stroke="#63b8ff" points="1480.65,-141.61 1490.96,-139.16 1481.37,-134.65 1480.65,-141.61"/>
</a>
</g>
</g>
<!-- Node19 -->
<g id="Node000019" class="node">
<title>Node19</title>
<g id="a_Node000019"><a xlink:href="../../d6/d6e/mandocvisitor_8h.html" target="_top" xlink:title=" ">
<polygon fill="white" stroke="#666666" points="1953,-96 1793,-96 1793,-66 1953,-66 1953,-96"/>
<text text-anchor="start" x="1801" y="-84" font-family="Helvetica,sans-Serif" font-size="10.00">/home/runner/work/doxygen</text>
<text text-anchor="middle" x="1873" y="-73" font-family="Helvetica,sans-Serif" font-size="10.00">/doxygen/src/mandocvisitor.h</text>
</a>
</g>
</g>
<!-- Node2&#45;&gt;Node19 -->
<g id="edge22_Node000002_Node000019" class="edge">
<title>Node2&#45;&gt;Node19</title>
<g id="a_edge22_Node000002_Node000019"><a xlink:title=" ">
<path fill="none" stroke="#63b8ff" d="M1644.99,-129.84C1694.68,-119.42 1758.68,-105.99 1806.22,-96.01"/>
<polygon fill="#63b8ff" stroke="#63b8ff" points="1644,-126.48 1634.93,-131.95 1645.44,-133.33 1644,-126.48"/>
</a>
</g>
</g>
<!-- Node22 -->
<g id="Node000022" class="node">
<title>Node22</title>
<g id="a_Node000022"><a xlink:href="../../db/d33/msc_8cpp.html" target="_top" xlink:title=" ">
<polygon fill="white" stroke="#666666" points="1557,-96 1403,-96 1403,-66 1557,-66 1557,-96"/>
<text text-anchor="start" x="1411" y="-84" font-family="Helvetica,sans-Serif" font-size="10.00">/home/runner/work/doxygen</text>
<text text-anchor="middle" x="1480" y="-73" font-family="Helvetica,sans-Serif" font-size="10.00">/doxygen/src/msc.cpp</text>
</a>
</g>
</g>
<!-- Node2&#45;&gt;Node22 -->
<g id="edge25_Node000002_Node000022" class="edge">
<title>Node2&#45;&gt;Node22</title>
<g id="a_edge25_Node000002_Node000022"><a xlink:title=" ">
<path fill="none" stroke="#63b8ff" d="M1540.16,-125.75C1526.93,-116.13 1511.43,-104.86 1499.48,-96.16"/>
<polygon fill="#63b8ff" stroke="#63b8ff" points="1538.32,-128.75 1548.47,-131.8 1542.44,-123.08 1538.32,-128.75"/>
</a>
</g>
</g>
<!-- Node23 -->
<g id="Node000023" class="node">
<title>Node23</title>
<g id="a_Node000023"><a xlink:href="../../de/dd0/perlmodgen_8cpp.html" target="_top" xlink:title=" ">
<polygon fill="white" stroke="#666666" points="1736.5,-96 1575.5,-96 1575.5,-66 1736.5,-66 1736.5,-96"/>
<text text-anchor="start" x="1583.5" y="-84" font-family="Helvetica,sans-Serif" font-size="10.00">/home/runner/work/doxygen</text>
<text text-anchor="middle" x="1656" y="-73" font-family="Helvetica,sans-Serif" font-size="10.00">/doxygen/src/perlmodgen.cpp</text>
</a>
</g>
</g>
<!-- Node2&#45;&gt;Node23 -->
<g id="edge26_Node000002_Node000023" class="edge">
<title>Node2&#45;&gt;Node23</title>
<g id="a_edge26_Node000002_Node000023"><a xlink:title=" ">
<path fill="none" stroke="#63b8ff" d="M1595.84,-125.75C1609.07,-116.13 1624.57,-104.86 1636.52,-96.16"/>
<polygon fill="#63b8ff" stroke="#63b8ff" points="1593.56,-123.08 1587.53,-131.8 1597.68,-128.75 1593.56,-123.08"/>
</a>
</g>
</g>
<!-- Node24 -->
<g id="Node000024" class="node">
<title>Node24</title>
<g id="a_Node000024"><a xlink:href="../../d1/da7/rtfdocvisitor_8h.html" target="_top" xlink:title=" ">
<polygon fill="white" stroke="#666666" points="2290,-96 2136,-96 2136,-66 2290,-66 2290,-96"/>
<text text-anchor="start" x="2144" y="-84" font-family="Helvetica,sans-Serif" font-size="10.00">/home/runner/work/doxygen</text>
<text text-anchor="middle" x="2213" y="-73" font-family="Helvetica,sans-Serif" font-size="10.00">/doxygen/src/rtfdocvisitor.h</text>
</a>
</g>
</g>
<!-- Node2&#45;&gt;Node24 -->
<g id="edge27_Node000002_Node000024" class="edge">
<title>Node2&#45;&gt;Node24</title>
<g id="a_edge27_Node000002_Node000024"><a xlink:title=" ">
<path fill="none" stroke="#63b8ff" d="M1655.22,-137.35C1781.92,-124.77 2014.91,-101.66 2135.75,-89.67"/>
<polygon fill="#63b8ff" stroke="#63b8ff" points="1654.77,-133.87 1645.16,-138.34 1655.46,-140.84 1654.77,-133.87"/>
</a>
</g>
</g>
<!-- Node27 -->
<g id="Node000027" class="node">
<title>Node27</title>
<g id="a_Node000027"><a xlink:href="../../d8/df8/sqlite3gen_8cpp.html" target="_top" xlink:title=" ">
<polygon fill="white" stroke="#666666" points="2642,-30 2488,-30 2488,0 2642,0 2642,-30"/>
<text text-anchor="start" x="2496" y="-18" font-family="Helvetica,sans-Serif" font-size="10.00">/home/runner/work/doxygen</text>
<text text-anchor="middle" x="2565" y="-7" font-family="Helvetica,sans-Serif" font-size="10.00">/doxygen/src/sqlite3gen.cpp</text>
</a>
</g>
</g>
<!-- Node2&#45;&gt;Node27 -->
<g id="edge30_Node000002_Node000027" class="edge">
<title>Node2&#45;&gt;Node27</title>
<g id="a_edge30_Node000002_Node000027"><a xlink:title=" ">
<path fill="none" stroke="#63b8ff" d="M1655.35,-146.31C1793.25,-145.39 2069.32,-137.85 2299,-96 2382.5,-80.79 2476.91,-48.68 2527.77,-30.1"/>
<polygon fill="#63b8ff" stroke="#63b8ff" points="1655.24,-142.81 1645.26,-146.37 1655.28,-149.81 1655.24,-142.81"/>
</a>
</g>
</g>
<!-- Node28 -->
<g id="Node000028" class="node">
<title>Node28</title>
<g id="a_Node000028"><a xlink:href="../../dd/d66/textdocvisitor_8h.html" target="_top" xlink:title=" ">
<polygon fill="white" stroke="#666666" points="877,-96 719,-96 719,-66 877,-66 877,-96"/>
<text text-anchor="start" x="727" y="-84" font-family="Helvetica,sans-Serif" font-size="10.00">/home/runner/work/doxygen</text>
<text text-anchor="middle" x="798" y="-73" font-family="Helvetica,sans-Serif" font-size="10.00">/doxygen/src/textdocvisitor.h</text>
</a>
</g>
</g>
<!-- Node2&#45;&gt;Node28 -->
<g id="edge31_Node000002_Node000028" class="edge">
<title>Node2&#45;&gt;Node28</title>
<g id="a_edge31_Node000002_Node000028"><a xlink:title=" ">
<path fill="none" stroke="#63b8ff" d="M1480.55,-141.96C1350.57,-135.42 1098.85,-120.69 886,-96 883.08,-95.66 880.11,-95.3 877.11,-94.91"/>
<polygon fill="#63b8ff" stroke="#63b8ff" points="1480.67,-145.47 1490.84,-142.47 1481.02,-138.48 1480.67,-145.47"/>
</a>
</g>
</g>
<!-- Node30 -->
<g id="Node000030" class="node">
<title>Node30</title>
<g id="a_Node000030"><a xlink:href="../../df/d2b/xmldocvisitor_8h.html" target="_top" xlink:title=" ">
<polygon fill="white" stroke="#666666" points="2643.5,-96 2486.5,-96 2486.5,-66 2643.5,-66 2643.5,-96"/>
<text text-anchor="start" x="2494.5" y="-84" font-family="Helvetica,sans-Serif" font-size="10.00">/home/runner/work/doxygen</text>
<text text-anchor="middle" x="2565" y="-73" font-family="Helvetica,sans-Serif" font-size="10.00">/doxygen/src/xmldocvisitor.h</text>
</a>
</g>
</g>
<!-- Node2&#45;&gt;Node30 -->
<g id="edge34_Node000002_Node000030" class="edge">
<title>Node2&#45;&gt;Node30</title>
<g id="a_edge34_Node000002_Node000030"><a xlink:title=" ">
<path fill="none" stroke="#63b8ff" d="M1655.28,-141.51C1807.13,-133.53 2129.77,-115.85 2402,-96 2429.48,-94 2459.53,-91.5 2486.27,-89.17"/>
<polygon fill="#63b8ff" stroke="#63b8ff" points="1654.88,-138.03 1645.08,-142.04 1655.25,-145.02 1654.88,-138.03"/>
</a>
</g>
</g>
<!-- Node4 -->
<g id="Node000004" class="node">
<title>Node4</title>
<g id="a_Node000004"><a xlink:href="../../d8/d29/docbookgen_8cpp.html" target="_top" xlink:title=" ">
<polygon fill="white" stroke="#666666" points="3370.5,-30 3209.5,-30 3209.5,0 3370.5,0 3370.5,-30"/>
<text text-anchor="start" x="3217.5" y="-18" font-family="Helvetica,sans-Serif" font-size="10.00">/home/runner/work/doxygen</text>
<text text-anchor="middle" x="3290" y="-7" font-family="Helvetica,sans-Serif" font-size="10.00">/doxygen/src/docbookgen.cpp</text>
</a>
</g>
</g>
<!-- Node3&#45;&gt;Node4 -->
<g id="edge3_Node000003_Node000004" class="edge">
<title>Node3&#45;&gt;Node4</title>
<g id="a_edge3_Node000003_Node000004"><a xlink:title=" ">
<path fill="none" stroke="#63b8ff" d="M3155.33,-62.59C3184.9,-52.36 3221.8,-39.59 3249.5,-30.01"/>
<polygon fill="#63b8ff" stroke="#63b8ff" points="3153.91,-59.38 3145.6,-65.95 3156.19,-65.99 3153.91,-59.38"/>
</a>
</g>
</g>
<!-- Node5 -->
<g id="Node000005" class="node">
<title>Node5</title>
<g id="a_Node000005"><a xlink:href="../../dc/d05/docbookvisitor_8cpp.html" target="_top" xlink:title=" ">
<polygon fill="white" stroke="#666666" points="3191.5,-30 3018.5,-30 3018.5,0 3191.5,0 3191.5,-30"/>
<text text-anchor="start" x="3026.5" y="-18" font-family="Helvetica,sans-Serif" font-size="10.00">/home/runner/work/doxygen</text>
<text text-anchor="middle" x="3105" y="-7" font-family="Helvetica,sans-Serif" font-size="10.00">/doxygen/src/docbookvisitor.cpp</text>
</a>
</g>
</g>
<!-- Node3&#45;&gt;Node5 -->
<g id="edge4_Node000003_Node000005" class="edge">
<title>Node3&#45;&gt;Node5</title>
<g id="a_edge4_Node000003_Node000005"><a xlink:title=" ">
<path fill="none" stroke="#63b8ff" d="M3105,-55.54C3105,-46.96 3105,-37.61 3105,-30.16"/>
<polygon fill="#63b8ff" stroke="#63b8ff" points="3101.5,-55.8 3105,-65.8 3108.5,-55.8 3101.5,-55.8"/>
</a>
</g>
</g>
<!-- Node7&#45;&gt;Node6 -->
<g id="edge7_Node000007_Node000006" class="edge">
<title>Node7&#45;&gt;Node6</title>
<g id="a_edge7_Node000007_Node000006"><a xlink:title=" ">
<path fill="none" stroke="#63b8ff" d="M322.33,-60.69C306.12,-50.82 286.75,-39.01 271.99,-30.01"/>
<polygon fill="#63b8ff" stroke="#63b8ff" points="320.6,-63.74 330.96,-65.95 324.24,-57.76 320.6,-63.74"/>
</a>
</g>
</g>
<!-- Node8 -->
<g id="Node000008" class="node">
<title>Node8</title>
<g id="a_Node000008"><a xlink:href="../../da/d17/docparser_8cpp.html" target="_top" xlink:title=" ">
<polygon fill="white" stroke="#666666" points="154,-30 0,-30 0,0 154,0 154,-30"/>
<text text-anchor="start" x="8" y="-18" font-family="Helvetica,sans-Serif" font-size="10.00">/home/runner/work/doxygen</text>
<text text-anchor="middle" x="77" y="-7" font-family="Helvetica,sans-Serif" font-size="10.00">/doxygen/src/docparser.cpp</text>
</a>
</g>
</g>
<!-- Node7&#45;&gt;Node8 -->
<g id="edge8_Node000007_Node000008" class="edge">
<title>Node7&#45;&gt;Node8</title>
<g id="a_edge8_Node000007_Node000008"><a xlink:title=" ">
<path fill="none" stroke="#63b8ff" d="M283.23,-63.65C238.22,-53.25 180.55,-39.93 137.65,-30.01"/>
<polygon fill="#63b8ff" stroke="#63b8ff" points="282.68,-67.11 293.21,-65.95 284.26,-60.29 282.68,-67.11"/>
</a>
</g>
</g>
<!-- Node11 -->
<g id="Node000011" class="node">
<title>Node11</title>
<g id="a_Node000011"><a xlink:href="../../db/d12/context_8cpp.html" target="_top" xlink:title=" ">
<polygon fill="white" stroke="#666666" points="1222,-30 1068,-30 1068,0 1222,0 1222,-30"/>
<text text-anchor="start" x="1076" y="-18" font-family="Helvetica,sans-Serif" font-size="10.00">/home/runner/work/doxygen</text>
<text text-anchor="middle" x="1145" y="-7" font-family="Helvetica,sans-Serif" font-size="10.00">/doxygen/src/context.cpp</text>
</a>
</g>
</g>
<!-- Node10&#45;&gt;Node11 -->
<g id="edge11_Node000010_Node000011" class="edge">
<title>Node10&#45;&gt;Node11</title>
<g id="a_edge11_Node000010_Node000011"><a xlink:title=" ">
<path fill="none" stroke="#63b8ff" d="M1259.75,-62.19C1234.5,-52.02 1203.3,-39.47 1179.81,-30.01"/>
<polygon fill="#63b8ff" stroke="#63b8ff" points="1258.52,-65.47 1269.11,-65.95 1261.14,-58.97 1258.52,-65.47"/>
</a>
</g>
</g>
<!-- Node12 -->
<g id="Node000012" class="node">
<title>Node12</title>
<g id="a_Node000012"><a xlink:href="../../db/d41/ftvhelp_8cpp.html" target="_top" xlink:title=" ">
<polygon fill="white" stroke="#666666" points="1394,-30 1240,-30 1240,0 1394,0 1394,-30"/>
<text text-anchor="start" x="1248" y="-18" font-family="Helvetica,sans-Serif" font-size="10.00">/home/runner/work/doxygen</text>
<text text-anchor="middle" x="1317" y="-7" font-family="Helvetica,sans-Serif" font-size="10.00">/doxygen/src/ftvhelp.cpp</text>
</a>
</g>
</g>
<!-- Node10&#45;&gt;Node12 -->
<g id="edge12_Node000010_Node000012" class="edge">
<title>Node10&#45;&gt;Node12</title>
<g id="a_edge12_Node000010_Node000012"><a xlink:title=" ">
<path fill="none" stroke="#63b8ff" d="M1308.91,-55.83C1310.67,-47.17 1312.59,-37.7 1314.12,-30.16"/>
<polygon fill="#63b8ff" stroke="#63b8ff" points="1305.45,-55.3 1306.89,-65.8 1312.31,-56.69 1305.45,-55.3"/>
</a>
</g>
</g>
<!-- Node13 -->
<g id="Node000013" class="node">
<title>Node13</title>
<g id="a_Node000013"><a xlink:href="../../da/db0/htmldocvisitor_8cpp.html" target="_top" xlink:title=" ">
<polygon fill="white" stroke="#666666" points="1584,-30 1412,-30 1412,0 1584,0 1584,-30"/>
<text text-anchor="start" x="1420" y="-18" font-family="Helvetica,sans-Serif" font-size="10.00">/home/runner/work/doxygen</text>
<text text-anchor="middle" x="1498" y="-7" font-family="Helvetica,sans-Serif" font-size="10.00">/doxygen/src/htmldocvisitor.cpp</text>
</a>
</g>
</g>
<!-- Node10&#45;&gt;Node13 -->
<g id="edge13_Node000010_Node000013" class="edge">
<title>Node10&#45;&gt;Node13</title>
<g id="a_edge13_Node000010_Node000013"><a xlink:title=" ">
<path fill="none" stroke="#63b8ff" d="M1356.37,-62.72C1387.46,-52.47 1426.36,-39.63 1455.53,-30.01"/>
<polygon fill="#63b8ff" stroke="#63b8ff" points="1354.97,-59.5 1346.57,-65.95 1357.17,-66.15 1354.97,-59.5"/>
</a>
</g>
</g>
<!-- Node10&#45;&gt;Node14 -->
<g id="edge14_Node000010_Node000014" class="edge">
<title>Node10&#45;&gt;Node14</title>
<g id="a_edge14_Node000010_Node000014"><a xlink:title=" ">
<path fill="none" stroke="#63b8ff" d="M1394.89,-64.49C1458.18,-53.69 1541.68,-39.44 1601.76,-29.18"/>
<polygon fill="#63b8ff" stroke="#63b8ff" points="1394.18,-61.06 1384.91,-66.19 1395.35,-67.96 1394.18,-61.06"/>
</a>
</g>
</g>
<!-- Node15&#45;&gt;Node11 -->
<g id="edge17_Node000015_Node000011" class="edge">
<title>Node15&#45;&gt;Node11</title>
<g id="a_edge17_Node000015_Node000011"><a xlink:title=" ">
<path fill="none" stroke="#63b8ff" d="M1023.4,-62.32C1050.14,-52.14 1083.29,-39.51 1108.22,-30.01"/>
<polygon fill="#63b8ff" stroke="#63b8ff" points="1021.97,-59.12 1013.87,-65.95 1024.46,-65.67 1021.97,-59.12"/>
</a>
</g>
</g>
<!-- Node15&#45;&gt;Node16 -->
<g id="edge18_Node000015_Node000016" class="edge">
<title>Node15&#45;&gt;Node16</title>
<g id="a_edge18_Node000015_Node000016"><a xlink:title=" ">
<path fill="none" stroke="#63b8ff" d="M888.45,-64.17C829.87,-53.7 753.76,-40.09 697.38,-30.01"/>
<polygon fill="#63b8ff" stroke="#63b8ff" points="887.98,-67.64 898.44,-65.95 889.21,-60.75 887.98,-67.64"/>
</a>
</g>
</g>
<!-- Node15&#45;&gt;Node17 -->
<g id="edge19_Node000015_Node000017" class="edge">
<title>Node15&#45;&gt;Node17</title>
<g id="a_edge19_Node000015_Node000017"><a xlink:title=" ">
<path fill="none" stroke="#63b8ff" d="M975.47,-55.54C974.94,-46.96 974.35,-37.61 973.89,-30.16"/>
<polygon fill="#63b8ff" stroke="#63b8ff" points="972,-56.03 976.11,-65.8 978.98,-55.6 972,-56.03"/>
</a>
</g>
</g>
<!-- Node18 -->
<g id="Node000018" class="node">
<title>Node18</title>
<g id="a_Node000018"><a xlink:href="../../df/d2d/util_8cpp.html" target="_top" xlink:title=" ">
<polygon fill="white" stroke="#666666" points="878,-30 724,-30 724,0 878,0 878,-30"/>
<text text-anchor="start" x="732" y="-18" font-family="Helvetica,sans-Serif" font-size="10.00">/home/runner/work/doxygen</text>
<text text-anchor="middle" x="801" y="-7" font-family="Helvetica,sans-Serif" font-size="10.00">/doxygen/src/util.cpp</text>
</a>
</g>
</g>
<!-- Node15&#45;&gt;Node18 -->
<g id="edge20_Node000015_Node000018" class="edge">
<title>Node15&#45;&gt;Node18</title>
<g id="a_edge20_Node000015_Node000018"><a xlink:title=" ">
<path fill="none" stroke="#63b8ff" d="M928.76,-62.46C900.68,-52.25 865.76,-39.55 839.53,-30.01"/>
<polygon fill="#63b8ff" stroke="#63b8ff" points="927.78,-65.83 938.38,-65.95 930.17,-59.25 927.78,-65.83"/>
</a>
</g>
</g>
<!-- Node20 -->
<g id="Node000020" class="node">
<title>Node20</title>
<g id="a_Node000020"><a xlink:href="../../d8/dde/mandocvisitor_8cpp.html" target="_top" xlink:title=" ">
<polygon fill="white" stroke="#666666" points="1945.5,-30 1774.5,-30 1774.5,0 1945.5,0 1945.5,-30"/>
<text text-anchor="start" x="1782.5" y="-18" font-family="Helvetica,sans-Serif" font-size="10.00">/home/runner/work/doxygen</text>
<text text-anchor="middle" x="1860" y="-7" font-family="Helvetica,sans-Serif" font-size="10.00">/doxygen/src/mandocvisitor.cpp</text>
</a>
</g>
</g>
<!-- Node19&#45;&gt;Node20 -->
<g id="edge23_Node000019_Node000020" class="edge">
<title>Node19&#45;&gt;Node20</title>
<g id="a_edge23_Node000019_Node000020"><a xlink:title=" ">
<path fill="none" stroke="#63b8ff" d="M1868.09,-55.83C1866.33,-47.17 1864.41,-37.7 1862.88,-30.16"/>
<polygon fill="#63b8ff" stroke="#63b8ff" points="1864.69,-56.69 1870.11,-65.8 1871.55,-55.3 1864.69,-56.69"/>
</a>
</g>
</g>
<!-- Node21 -->
<g id="Node000021" class="node">
<title>Node21</title>
<g id="a_Node000021"><a xlink:href="../../d7/de7/mangen_8cpp.html" target="_top" xlink:title=" ">
<polygon fill="white" stroke="#666666" points="2118,-30 1964,-30 1964,0 2118,0 2118,-30"/>
<text text-anchor="start" x="1972" y="-18" font-family="Helvetica,sans-Serif" font-size="10.00">/home/runner/work/doxygen</text>
<text text-anchor="middle" x="2041" y="-7" font-family="Helvetica,sans-Serif" font-size="10.00">/doxygen/src/mangen.cpp</text>
</a>
</g>
</g>
<!-- Node19&#45;&gt;Node21 -->
<g id="edge24_Node000019_Node000021" class="edge">
<title>Node19&#45;&gt;Node21</title>
<g id="a_edge24_Node000019_Node000021"><a xlink:title=" ">
<path fill="none" stroke="#63b8ff" d="M1919.4,-62.32C1946.14,-52.14 1979.29,-39.51 2004.22,-30.01"/>
<polygon fill="#63b8ff" stroke="#63b8ff" points="1917.97,-59.12 1909.87,-65.95 1920.46,-65.67 1917.97,-59.12"/>
</a>
</g>
</g>
<!-- Node25 -->
<g id="Node000025" class="node">
<title>Node25</title>
<g id="a_Node000025"><a xlink:href="../../de/d9a/rtfdocvisitor_8cpp.html" target="_top" xlink:title=" ">
<polygon fill="white" stroke="#666666" points="2469.5,-30 2308.5,-30 2308.5,0 2469.5,0 2469.5,-30"/>
<text text-anchor="start" x="2316.5" y="-18" font-family="Helvetica,sans-Serif" font-size="10.00">/home/runner/work/doxygen</text>
<text text-anchor="middle" x="2389" y="-7" font-family="Helvetica,sans-Serif" font-size="10.00">/doxygen/src/rtfdocvisitor.cpp</text>
</a>
</g>
</g>
<!-- Node24&#45;&gt;Node25 -->
<g id="edge28_Node000024_Node000025" class="edge">
<title>Node24&#45;&gt;Node25</title>
<g id="a_edge28_Node000024_Node000025"><a xlink:title=" ">
<path fill="none" stroke="#63b8ff" d="M2261.24,-62.46C2289.32,-52.25 2324.24,-39.55 2350.47,-30.01"/>
<polygon fill="#63b8ff" stroke="#63b8ff" points="2259.83,-59.25 2251.62,-65.95 2262.22,-65.83 2259.83,-59.25"/>
</a>
</g>
</g>
<!-- Node26 -->
<g id="Node000026" class="node">
<title>Node26</title>
<g id="a_Node000026"><a xlink:href="../../d0/d9c/rtfgen_8cpp.html" target="_top" xlink:title=" ">
<polygon fill="white" stroke="#666666" points="2290,-30 2136,-30 2136,0 2290,0 2290,-30"/>
<text text-anchor="start" x="2144" y="-18" font-family="Helvetica,sans-Serif" font-size="10.00">/home/runner/work/doxygen</text>
<text text-anchor="middle" x="2213" y="-7" font-family="Helvetica,sans-Serif" font-size="10.00">/doxygen/src/rtfgen.cpp</text>
</a>
</g>
</g>
<!-- Node24&#45;&gt;Node26 -->
<g id="edge29_Node000024_Node000026" class="edge">
<title>Node24&#45;&gt;Node26</title>
<g id="a_edge29_Node000024_Node000026"><a xlink:title=" ">
<path fill="none" stroke="#63b8ff" d="M2213,-55.54C2213,-46.96 2213,-37.61 2213,-30.16"/>
<polygon fill="#63b8ff" stroke="#63b8ff" points="2209.5,-55.8 2213,-65.8 2216.5,-55.8 2209.5,-55.8"/>
</a>
</g>
</g>
<!-- Node28&#45;&gt;Node18 -->
<g id="edge33_Node000028_Node000018" class="edge">
<title>Node28&#45;&gt;Node18</title>
<g id="a_edge33_Node000028_Node000018"><a xlink:title=" ">
<path fill="none" stroke="#63b8ff" d="M799.15,-55.54C799.55,-46.96 799.99,-37.61 800.34,-30.16"/>
<polygon fill="#63b8ff" stroke="#63b8ff" points="795.64,-55.64 798.67,-65.8 802.63,-55.97 795.64,-55.64"/>
</a>
</g>
</g>
<!-- Node29 -->
<g id="Node000029" class="node">
<title>Node29</title>
<g id="a_Node000029"><a xlink:href="../../d3/da6/textdocvisitor_8cpp.html" target="_top" xlink:title=" ">
<polygon fill="white" stroke="#666666" points="513.5,-30 344.5,-30 344.5,0 513.5,0 513.5,-30"/>
<text text-anchor="start" x="352.5" y="-18" font-family="Helvetica,sans-Serif" font-size="10.00">/home/runner/work/doxygen</text>
<text text-anchor="middle" x="429" y="-7" font-family="Helvetica,sans-Serif" font-size="10.00">/doxygen/src/textdocvisitor.cpp</text>
</a>
</g>
</g>
<!-- Node28&#45;&gt;Node29 -->
<g id="edge32_Node000028_Node000029" class="edge">
<title>Node28&#45;&gt;Node29</title>
<g id="a_edge32_Node000028_Node000029"><a xlink:title=" ">
<path fill="none" stroke="#63b8ff" d="M708.9,-64.55C648.29,-54.03 568.74,-40.24 509.94,-30.04"/>
<polygon fill="#63b8ff" stroke="#63b8ff" points="708.39,-68.01 718.84,-66.27 709.59,-61.11 708.39,-68.01"/>
</a>
</g>
</g>
<!-- Node30&#45;&gt;Node27 -->
<g id="edge35_Node000030_Node000027" class="edge">
<title>Node30&#45;&gt;Node27</title>
<g id="a_edge35_Node000030_Node000027"><a xlink:title=" ">
<path fill="none" stroke="#63b8ff" d="M2565,-55.54C2565,-46.96 2565,-37.61 2565,-30.16"/>
<polygon fill="#63b8ff" stroke="#63b8ff" points="2561.5,-55.8 2565,-65.8 2568.5,-55.8 2561.5,-55.8"/>
</a>
</g>
</g>
<!-- Node31 -->
<g id="Node000031" class="node">
<title>Node31</title>
<g id="a_Node000031"><a xlink:href="../../dd/db6/xmldocvisitor_8cpp.html" target="_top" xlink:title=" ">
<polygon fill="white" stroke="#666666" points="3000,-30 2832,-30 2832,0 3000,0 3000,-30"/>
<text text-anchor="start" x="2840" y="-18" font-family="Helvetica,sans-Serif" font-size="10.00">/home/runner/work/doxygen</text>
<text text-anchor="middle" x="2916" y="-7" font-family="Helvetica,sans-Serif" font-size="10.00">/doxygen/src/xmldocvisitor.cpp</text>
</a>
</g>
</g>
<!-- Node30&#45;&gt;Node31 -->
<g id="edge36_Node000030_Node000031" class="edge">
<title>Node30&#45;&gt;Node31</title>
<g id="a_edge36_Node000030_Node000031"><a xlink:title=" ">
<path fill="none" stroke="#63b8ff" d="M2652.17,-64.11C2709.56,-53.64 2783.99,-40.07 2839.15,-30.01"/>
<polygon fill="#63b8ff" stroke="#63b8ff" points="2651.24,-60.72 2642.03,-65.95 2652.49,-67.6 2651.24,-60.72"/>
</a>
</g>
</g>
<!-- Node32 -->
<g id="Node000032" class="node">
<title>Node32</title>
<g id="a_Node000032"><a xlink:href="../../d0/dc3/xmlgen_8cpp.html" target="_top" xlink:title=" ">
<polygon fill="white" stroke="#666666" points="2814,-30 2660,-30 2660,0 2814,0 2814,-30"/>
<text text-anchor="start" x="2668" y="-18" font-family="Helvetica,sans-Serif" font-size="10.00">/home/runner/work/doxygen</text>
<text text-anchor="middle" x="2737" y="-7" font-family="Helvetica,sans-Serif" font-size="10.00">/doxygen/src/xmlgen.cpp</text>
</a>
</g>
</g>
<!-- Node30&#45;&gt;Node32 -->
<g id="edge37_Node000030_Node000032" class="edge">
<title>Node30&#45;&gt;Node32</title>
<g id="a_edge37_Node000030_Node000032"><a xlink:title=" ">
<path fill="none" stroke="#63b8ff" d="M2612.15,-62.46C2639.59,-52.25 2673.71,-39.55 2699.34,-30.01"/>
<polygon fill="#63b8ff" stroke="#63b8ff" points="2610.9,-59.19 2602.75,-65.95 2613.34,-65.75 2610.9,-59.19"/>
</a>
</g>
</g>
<!-- Node33&#45;&gt;Node6 -->
<g id="edge39_Node000033_Node000006" class="edge">
<title>Node33&#45;&gt;Node6</title>
<g id="a_edge39_Node000033_Node000006"><a xlink:title=" ">
<path fill="none" stroke="#63b8ff" d="M284.39,-123.86C278.46,-115.52 272.27,-105.7 268,-96 258.33,-74.06 253.17,-46.46 250.76,-30.08"/>
<polygon fill="#63b8ff" stroke="#63b8ff" points="281.62,-126 290.39,-131.95 287.25,-121.83 281.62,-126"/>
</a>
</g>
</g>
<!-- Node33&#45;&gt;Node7 -->
<g id="edge40_Node000033_Node000007" class="edge">
<title>Node33&#45;&gt;Node7</title>
<g id="a_edge40_Node000033_Node000007"><a xlink:title=" ">
<path fill="none" stroke="#63b8ff" d="M320.03,-123.81C327.48,-114.64 335.9,-104.28 342.49,-96.16"/>
<polygon fill="#63b8ff" stroke="#63b8ff" points="317.13,-121.83 313.54,-131.8 322.56,-126.24 317.13,-121.83"/>
</a>
</g>
</g>
<!-- Node34 -->
<g id="Node000034" class="node">
<title>Node34</title>
<g id="a_Node000034"><a xlink:href="../../d1/d39/doctokenizer_8l.html" target="_top" xlink:title=" ">
<polygon fill="white" stroke="#666666" points="221,-96 67,-96 67,-66 221,-66 221,-96"/>
<text text-anchor="start" x="75" y="-84" font-family="Helvetica,sans-Serif" font-size="10.00">/home/runner/work/doxygen</text>
<text text-anchor="middle" x="144" y="-73" font-family="Helvetica,sans-Serif" font-size="10.00">/doxygen/src/doctokenizer.l</text>
</a>
</g>
</g>
<!-- Node33&#45;&gt;Node34 -->
<g id="edge41_Node000033_Node000034" class="edge">
<title>Node33&#45;&gt;Node34</title>
<g id="a_edge41_Node000033_Node000034"><a xlink:title=" ">
<path fill="none" stroke="#63b8ff" d="M258.03,-128.19C232.94,-118.02 201.93,-105.47 178.59,-96.01"/>
<polygon fill="#63b8ff" stroke="#63b8ff" points="256.74,-131.44 267.33,-131.95 259.37,-124.96 256.74,-131.44"/>
</a>
</g>
</g>
</g>
</svg>
