<?xml version="1.0" encoding="UTF-8" standalone="no"?>
<!DOCTYPE svg PUBLIC "-//W3C//DTD SVG 1.1//EN"
 "http://www.w3.org/Graphics/SVG/1.1/DTD/svg11.dtd">
<!-- Generated by graphviz version 2.43.0 (0)
 -->
<!-- Title: src/cite.h Pages: 1 -->
<svg width="597pt" height="192pt"
 viewBox="0.00 0.00 596.86 192.00" xmlns="http://www.w3.org/2000/svg" xmlns:xlink="http://www.w3.org/1999/xlink">
<g id="graph0" class="graph" transform="scale(1 1) rotate(0) translate(4 188)">
<title>src/cite.h</title>
<!-- Node1 -->
<g id="Node000001" class="node">
<title>Node1</title>
<g id="a_Node000001"><a xlink:title=" ">
<polygon fill="#999999" stroke="#666666" points="343.64,-184 282.64,-184 282.64,-165 343.64,-165 343.64,-184"/>
<text text-anchor="middle" x="313.14" y="-172" font-family="Helvetica,sans-Serif" font-size="10.00">src/cite.h</text>
</a>
</g>
</g>
<!-- Node2 -->
<g id="Node000002" class="node">
<title>Node2</title>
<g id="a_Node000002"><a xlink:title=" ">
<polygon fill="#e0e0e0" stroke="#999999" points="262.14,-129 204.14,-129 204.14,-110 262.14,-110 262.14,-129"/>
<text text-anchor="middle" x="233.14" y="-117" font-family="Helvetica,sans-Serif" font-size="10.00">memory</text>
</a>
</g>
</g>
<!-- Node1&#45;&gt;Node2 -->
<g id="edge1_Node000001_Node000002" class="edge">
<title>Node1&#45;&gt;Node2</title>
<g id="a_edge1_Node000001_Node000002"><a xlink:title=" ">
<path fill="none" stroke="#63b8ff" d="M300.29,-164.98C288,-156.84 269.23,-144.41 254.66,-134.76"/>
<polygon fill="#63b8ff" stroke="#63b8ff" points="256.5,-131.78 246.23,-129.17 252.63,-137.61 256.5,-131.78"/>
</a>
</g>
</g>
<!-- Node3 -->
<g id="Node000003" class="node">
<title>Node3</title>
<g id="a_Node000003"><a xlink:href="../../d7/d5c/qcstring_8h.html" target="_top" xlink:title=" ">
<polygon fill="white" stroke="#666666" points="345.64,-129 280.64,-129 280.64,-110 345.64,-110 345.64,-129"/>
<text text-anchor="middle" x="313.14" y="-117" font-family="Helvetica,sans-Serif" font-size="10.00">qcstring.h</text>
</a>
</g>
</g>
<!-- Node1&#45;&gt;Node3 -->
<g id="edge2_Node000001_Node000003" class="edge">
<title>Node1&#45;&gt;Node3</title>
<g id="a_edge2_Node000001_Node000003"><a xlink:title=" ">
<path fill="none" stroke="#63b8ff" d="M313.14,-164.75C313.14,-157.8 313.14,-147.85 313.14,-139.13"/>
<polygon fill="#63b8ff" stroke="#63b8ff" points="316.64,-139.09 313.14,-129.09 309.64,-139.09 316.64,-139.09"/>
</a>
</g>
</g>
<!-- Node14 -->
<g id="Node000014" class="node">
<title>Node14</title>
<g id="a_Node000014"><a xlink:href="../../d7/dfc/construct_8h.html" target="_top" xlink:title=" ">
<polygon fill="white" stroke="#666666" points="434.64,-129 363.64,-129 363.64,-110 434.64,-110 434.64,-129"/>
<text text-anchor="middle" x="399.14" y="-117" font-family="Helvetica,sans-Serif" font-size="10.00">construct.h</text>
</a>
</g>
</g>
<!-- Node1&#45;&gt;Node14 -->
<g id="edge15_Node000001_Node000014" class="edge">
<title>Node1&#45;&gt;Node14</title>
<g id="a_edge15_Node000001_Node000014"><a xlink:title=" ">
<path fill="none" stroke="#63b8ff" d="M326.96,-164.98C340.29,-156.77 360.72,-144.18 376.44,-134.49"/>
<polygon fill="#63b8ff" stroke="#63b8ff" points="378.39,-137.4 385.07,-129.17 374.72,-131.44 378.39,-137.4"/>
</a>
</g>
</g>
<!-- Node4 -->
<g id="Node000004" class="node">
<title>Node4</title>
<g id="a_Node000004"><a xlink:title=" ">
<polygon fill="#e0e0e0" stroke="#999999" points="284.14,-19 240.14,-19 240.14,0 284.14,0 284.14,-19"/>
<text text-anchor="middle" x="262.14" y="-7" font-family="Helvetica,sans-Serif" font-size="10.00">string</text>
</a>
</g>
</g>
<!-- Node3&#45;&gt;Node4 -->
<g id="edge3_Node000003_Node000004" class="edge">
<title>Node3&#45;&gt;Node4</title>
<g id="a_edge3_Node000003_Node000004"><a xlink:title=" ">
<path fill="none" stroke="#63b8ff" d="M280.62,-111.7C277.42,-111.1 274.22,-110.52 271.14,-110 212.1,-100.06 43.54,-119.07 4.14,-74 -1.42,-67.64 -1.3,-61.46 4.14,-55 32.65,-21.15 167.07,-13.05 229.78,-11.11"/>
<polygon fill="#63b8ff" stroke="#63b8ff" points="230.01,-14.61 239.91,-10.83 229.82,-7.61 230.01,-14.61"/>
</a>
</g>
</g>
<!-- Node5 -->
<g id="Node000005" class="node">
<title>Node5</title>
<g id="a_Node000005"><a xlink:title=" ">
<polygon fill="#e0e0e0" stroke="#999999" points="86.64,-74 13.64,-74 13.64,-55 86.64,-55 86.64,-74"/>
<text text-anchor="middle" x="50.14" y="-62" font-family="Helvetica,sans-Serif" font-size="10.00">string_view</text>
</a>
</g>
</g>
<!-- Node3&#45;&gt;Node5 -->
<g id="edge4_Node000003_Node000005" class="edge">
<title>Node3&#45;&gt;Node5</title>
<g id="a_edge4_Node000003_Node000005"><a xlink:title=" ">
<path fill="none" stroke="#63b8ff" d="M280.58,-111.91C277.39,-111.26 274.2,-110.62 271.14,-110 210.99,-97.86 141.62,-83.9 96.89,-74.9"/>
<polygon fill="#63b8ff" stroke="#63b8ff" points="97.39,-71.43 86.9,-72.89 96.01,-78.29 97.39,-71.43"/>
</a>
</g>
</g>
<!-- Node6 -->
<g id="Node000006" class="node">
<title>Node6</title>
<g id="a_Node000006"><a xlink:title=" ">
<polygon fill="#e0e0e0" stroke="#999999" points="169.14,-74 105.14,-74 105.14,-55 169.14,-55 169.14,-74"/>
<text text-anchor="middle" x="137.14" y="-62" font-family="Helvetica,sans-Serif" font-size="10.00">algorithm</text>
</a>
</g>
</g>
<!-- Node3&#45;&gt;Node6 -->
<g id="edge5_Node000003_Node000006" class="edge">
<title>Node3&#45;&gt;Node6</title>
<g id="a_edge5_Node000003_Node000006"><a xlink:title=" ">
<path fill="none" stroke="#63b8ff" d="M284.86,-109.98C255.19,-101.05 208.35,-86.94 175.39,-77.02"/>
<polygon fill="#63b8ff" stroke="#63b8ff" points="176.22,-73.61 165.64,-74.08 174.2,-80.32 176.22,-73.61"/>
</a>
</g>
</g>
<!-- Node7 -->
<g id="Node000007" class="node">
<title>Node7</title>
<g id="a_Node000007"><a xlink:title=" ">
<polygon fill="#e0e0e0" stroke="#999999" points="236.64,-74 187.64,-74 187.64,-55 236.64,-55 236.64,-74"/>
<text text-anchor="middle" x="212.14" y="-62" font-family="Helvetica,sans-Serif" font-size="10.00">cctype</text>
</a>
</g>
</g>
<!-- Node3&#45;&gt;Node7 -->
<g id="edge6_Node000003_Node000007" class="edge">
<title>Node3&#45;&gt;Node7</title>
<g id="a_edge6_Node000003_Node000007"><a xlink:title=" ">
<path fill="none" stroke="#63b8ff" d="M296.91,-109.98C280.96,-101.61 256.36,-88.7 237.76,-78.95"/>
<polygon fill="#63b8ff" stroke="#63b8ff" points="239.14,-75.72 228.66,-74.17 235.89,-81.92 239.14,-75.72"/>
</a>
</g>
</g>
<!-- Node8 -->
<g id="Node000008" class="node">
<title>Node8</title>
<g id="a_Node000008"><a xlink:title=" ">
<polygon fill="#e0e0e0" stroke="#999999" points="305.14,-74 255.14,-74 255.14,-55 305.14,-55 305.14,-74"/>
<text text-anchor="middle" x="280.14" y="-62" font-family="Helvetica,sans-Serif" font-size="10.00">cstring</text>
</a>
</g>
</g>
<!-- Node3&#45;&gt;Node8 -->
<g id="edge7_Node000003_Node000008" class="edge">
<title>Node3&#45;&gt;Node8</title>
<g id="a_edge7_Node000003_Node000008"><a xlink:title=" ">
<path fill="none" stroke="#63b8ff" d="M307.69,-109.75C303.12,-102.42 296.47,-91.73 290.85,-82.7"/>
<polygon fill="#63b8ff" stroke="#63b8ff" points="293.74,-80.73 285.49,-74.09 287.8,-84.43 293.74,-80.73"/>
</a>
</g>
</g>
<!-- Node9 -->
<g id="Node000009" class="node">
<title>Node9</title>
<g id="a_Node000009"><a xlink:title=" ">
<polygon fill="#e0e0e0" stroke="#999999" points="369.14,-74 323.14,-74 323.14,-55 369.14,-55 369.14,-74"/>
<text text-anchor="middle" x="346.14" y="-62" font-family="Helvetica,sans-Serif" font-size="10.00">cstdio</text>
</a>
</g>
</g>
<!-- Node3&#45;&gt;Node9 -->
<g id="edge8_Node000003_Node000009" class="edge">
<title>Node3&#45;&gt;Node9</title>
<g id="a_edge8_Node000003_Node000009"><a xlink:title=" ">
<path fill="none" stroke="#63b8ff" d="M318.59,-109.75C323.15,-102.42 329.81,-91.73 335.43,-82.7"/>
<polygon fill="#63b8ff" stroke="#63b8ff" points="338.48,-84.43 340.79,-74.09 332.53,-80.73 338.48,-84.43"/>
</a>
</g>
</g>
<!-- Node10 -->
<g id="Node000010" class="node">
<title>Node10</title>
<g id="a_Node000010"><a xlink:title=" ">
<polygon fill="#e0e0e0" stroke="#999999" points="436.64,-74 387.64,-74 387.64,-55 436.64,-55 436.64,-74"/>
<text text-anchor="middle" x="412.14" y="-62" font-family="Helvetica,sans-Serif" font-size="10.00">cstdlib</text>
</a>
</g>
</g>
<!-- Node3&#45;&gt;Node10 -->
<g id="edge9_Node000003_Node000010" class="edge">
<title>Node3&#45;&gt;Node10</title>
<g id="a_edge9_Node000003_Node000010"><a xlink:title=" ">
<path fill="none" stroke="#63b8ff" d="M329.05,-109.98C344.68,-101.61 368.79,-88.7 387.02,-78.95"/>
<polygon fill="#63b8ff" stroke="#63b8ff" points="388.78,-81.98 395.94,-74.17 385.48,-75.8 388.78,-81.98"/>
</a>
</g>
</g>
<!-- Node11 -->
<g id="Node000011" class="node">
<title>Node11</title>
<g id="a_Node000011"><a xlink:title=" ">
<polygon fill="#e0e0e0" stroke="#999999" points="565.14,-19 515.14,-19 515.14,0 565.14,0 565.14,-19"/>
<text text-anchor="middle" x="540.14" y="-7" font-family="Helvetica,sans-Serif" font-size="10.00">cstdint</text>
</a>
</g>
</g>
<!-- Node3&#45;&gt;Node11 -->
<g id="edge10_Node000003_Node000011" class="edge">
<title>Node3&#45;&gt;Node11</title>
<g id="a_edge10_Node000003_Node000011"><a xlink:title=" ">
<path fill="none" stroke="#63b8ff" d="M345.78,-111.58C348.61,-111.03 351.42,-110.49 354.14,-110 405.04,-100.75 550.51,-113.31 584.14,-74 597.63,-58.24 578.75,-38.34 561.7,-25.06"/>
<polygon fill="#63b8ff" stroke="#63b8ff" points="563.75,-22.22 553.62,-19.12 559.6,-27.86 563.75,-22.22"/>
</a>
</g>
</g>
<!-- Node12 -->
<g id="Node000012" class="node">
<title>Node12</title>
<g id="a_Node000012"><a xlink:title=" ">
<polygon fill="#e0e0e0" stroke="#999999" points="574.64,-74 517.64,-74 517.64,-55 574.64,-55 574.64,-74"/>
<text text-anchor="middle" x="546.14" y="-62" font-family="Helvetica,sans-Serif" font-size="10.00">ostream</text>
</a>
</g>
</g>
<!-- Node3&#45;&gt;Node12 -->
<g id="edge11_Node000003_Node000012" class="edge">
<title>Node3&#45;&gt;Node12</title>
<g id="a_edge11_Node000003_Node000012"><a xlink:title=" ">
<path fill="none" stroke="#63b8ff" d="M346.03,-111.02C388.51,-101.36 462.33,-84.56 507.45,-74.3"/>
<polygon fill="#63b8ff" stroke="#63b8ff" points="508.47,-77.66 517.45,-72.03 506.92,-70.83 508.47,-77.66"/>
</a>
</g>
</g>
<!-- Node13 -->
<g id="Node000013" class="node">
<title>Node13</title>
<g id="a_Node000013"><a xlink:href="../../db/d7c/utf8_8h.html" target="_top" xlink:title="Various UTF8 related helper functions.">
<polygon fill="white" stroke="#666666" points="499.64,-74 454.64,-74 454.64,-55 499.64,-55 499.64,-74"/>
<text text-anchor="middle" x="477.14" y="-62" font-family="Helvetica,sans-Serif" font-size="10.00">utf8.h</text>
</a>
</g>
</g>
<!-- Node3&#45;&gt;Node13 -->
<g id="edge12_Node000003_Node000013" class="edge">
<title>Node3&#45;&gt;Node13</title>
<g id="a_edge12_Node000003_Node000013"><a xlink:title=" ">
<path fill="none" stroke="#63b8ff" d="M339.49,-109.98C368.12,-100.73 413.9,-85.94 444.72,-75.98"/>
<polygon fill="#63b8ff" stroke="#63b8ff" points="446.11,-79.21 454.55,-72.8 443.96,-72.54 446.11,-79.21"/>
</a>
</g>
</g>
<!-- Node13&#45;&gt;Node4 -->
<g id="edge14_Node000013_Node000004" class="edge">
<title>Node13&#45;&gt;Node4</title>
<g id="a_edge14_Node000013_Node000004"><a xlink:title=" ">
<path fill="none" stroke="#63b8ff" d="M454.43,-57.4C451.31,-56.59 448.15,-55.77 445.14,-55 392.36,-41.57 330.79,-26.78 294.22,-18.08"/>
<polygon fill="#63b8ff" stroke="#63b8ff" points="294.69,-14.6 284.15,-15.69 293.07,-21.41 294.69,-14.6"/>
</a>
</g>
</g>
<!-- Node13&#45;&gt;Node11 -->
<g id="edge13_Node000013_Node000011" class="edge">
<title>Node13&#45;&gt;Node11</title>
<g id="a_edge13_Node000013_Node000011"><a xlink:title=" ">
<path fill="none" stroke="#63b8ff" d="M487.26,-54.98C496.57,-47.15 510.61,-35.34 521.88,-25.86"/>
<polygon fill="#63b8ff" stroke="#63b8ff" points="524.43,-28.29 529.83,-19.17 519.93,-22.93 524.43,-28.29"/>
</a>
</g>
</g>
</g>
</svg>
