<?xml version="1.0" encoding="UTF-8" standalone="no"?>
<!DOCTYPE svg PUBLIC "-//W3C//DTD SVG 1.1//EN"
 "http://www.w3.org/Graphics/SVG/1.1/DTD/svg11.dtd">
<!-- Generated by graphviz version 2.43.0 (0)
 -->
<!-- Title: src/definitionimpl.h Pages: 1 -->
<svg width="1170pt" height="82pt"
 viewBox="0.00 0.00 1169.50 82.00" xmlns="http://www.w3.org/2000/svg" xmlns:xlink="http://www.w3.org/1999/xlink">
<g id="graph0" class="graph" transform="scale(1 1) rotate(0) translate(4 78)">
<title>src/definitionimpl.h</title>
<!-- Node1 -->
<g id="Node000001" class="node">
<title>Node1</title>
<g id="a_Node000001"><a xlink:title=" ">
<polygon fill="#999999" stroke="#666666" points="607,-74 497,-74 497,-55 607,-55 607,-74"/>
<text text-anchor="middle" x="552" y="-62" font-family="Helvetica,sans-Serif" font-size="10.00">src/definitionimpl.h</text>
</a>
</g>
</g>
<!-- Node2 -->
<g id="Node000002" class="node">
<title>Node2</title>
<g id="a_Node000002"><a xlink:href="../../de/d89/classdef_8cpp.html" target="_top" xlink:title=" ">
<polygon fill="white" stroke="#666666" points="94,-19 0,-19 0,0 94,0 94,-19"/>
<text text-anchor="middle" x="47" y="-7" font-family="Helvetica,sans-Serif" font-size="10.00">src/classdef.cpp</text>
</a>
</g>
</g>
<!-- Node1&#45;&gt;Node2 -->
<g id="edge1_Node000001_Node000002" class="edge">
<title>Node1&#45;&gt;Node2</title>
<g id="a_edge1_Node000001_Node000002"><a xlink:title=" ">
<path fill="none" stroke="#63b8ff" d="M486.91,-58.11C399.46,-50.64 239.26,-36.08 103,-19 100.07,-18.63 97.06,-18.24 94.03,-17.82"/>
<polygon fill="#63b8ff" stroke="#63b8ff" points="486.69,-61.61 496.95,-58.97 487.28,-54.63 486.69,-61.61"/>
</a>
</g>
</g>
<!-- Node3 -->
<g id="Node000003" class="node">
<title>Node3</title>
<g id="a_Node000003"><a xlink:href="../../d8/d0a/conceptdef_8cpp.html" target="_top" xlink:title=" ">
<polygon fill="white" stroke="#666666" points="219.5,-19 112.5,-19 112.5,0 219.5,0 219.5,-19"/>
<text text-anchor="middle" x="166" y="-7" font-family="Helvetica,sans-Serif" font-size="10.00">src/conceptdef.cpp</text>
</a>
</g>
</g>
<!-- Node1&#45;&gt;Node3 -->
<g id="edge2_Node000001_Node000003" class="edge">
<title>Node1&#45;&gt;Node3</title>
<g id="a_edge2_Node000001_Node000003"><a xlink:title=" ">
<path fill="none" stroke="#63b8ff" d="M486.41,-54.49C411.22,-44.17 289.42,-27.45 219.65,-17.87"/>
<polygon fill="#63b8ff" stroke="#63b8ff" points="486.31,-58.01 496.7,-55.91 487.26,-51.08 486.31,-58.01"/>
</a>
</g>
</g>
<!-- Node4 -->
<g id="Node000004" class="node">
<title>Node4</title>
<g id="a_Node000004"><a xlink:href="../../d3/dea/definition_8cpp.html" target="_top" xlink:title=" ">
<polygon fill="white" stroke="#666666" points="338,-19 238,-19 238,0 338,0 338,-19"/>
<text text-anchor="middle" x="288" y="-7" font-family="Helvetica,sans-Serif" font-size="10.00">src/definition.cpp</text>
</a>
</g>
</g>
<!-- Node1&#45;&gt;Node4 -->
<g id="edge3_Node000001_Node000004" class="edge">
<title>Node1&#45;&gt;Node4</title>
<g id="a_edge3_Node000001_Node000004"><a xlink:title=" ">
<path fill="none" stroke="#63b8ff" d="M499.71,-53C450.22,-43.07 376.83,-28.33 330.75,-19.08"/>
<polygon fill="#63b8ff" stroke="#63b8ff" points="499.09,-56.45 509.58,-54.98 500.47,-49.58 499.09,-56.45"/>
</a>
</g>
</g>
<!-- Node5 -->
<g id="Node000005" class="node">
<title>Node5</title>
<g id="a_Node000005"><a xlink:href="../../d8/d52/dirdef_8cpp.html" target="_top" xlink:title=" ">
<polygon fill="white" stroke="#666666" points="438,-19 356,-19 356,0 438,0 438,-19"/>
<text text-anchor="middle" x="397" y="-7" font-family="Helvetica,sans-Serif" font-size="10.00">src/dirdef.cpp</text>
</a>
</g>
</g>
<!-- Node1&#45;&gt;Node5 -->
<g id="edge4_Node000001_Node000005" class="edge">
<title>Node1&#45;&gt;Node5</title>
<g id="a_edge4_Node000001_Node000005"><a xlink:title=" ">
<path fill="none" stroke="#63b8ff" d="M517.4,-51.67C488.5,-41.79 447.97,-27.93 422.1,-19.08"/>
<polygon fill="#63b8ff" stroke="#63b8ff" points="516.5,-55.06 527.1,-54.98 518.77,-48.44 516.5,-55.06"/>
</a>
</g>
</g>
<!-- Node6 -->
<g id="Node000006" class="node">
<title>Node6</title>
<g id="a_Node000006"><a xlink:href="../../d6/ddc/filedef_8cpp.html" target="_top" xlink:title=" ">
<polygon fill="white" stroke="#666666" points="540,-19 456,-19 456,0 540,0 540,-19"/>
<text text-anchor="middle" x="498" y="-7" font-family="Helvetica,sans-Serif" font-size="10.00">src/filedef.cpp</text>
</a>
</g>
</g>
<!-- Node1&#45;&gt;Node6 -->
<g id="edge5_Node000001_Node000006" class="edge">
<title>Node1&#45;&gt;Node6</title>
<g id="a_edge5_Node000001_Node000006"><a xlink:title=" ">
<path fill="none" stroke="#63b8ff" d="M535.72,-47.52C526.2,-38.18 514.56,-26.75 506.75,-19.09"/>
<polygon fill="#63b8ff" stroke="#63b8ff" points="533.49,-50.24 543.08,-54.75 538.4,-45.25 533.49,-50.24"/>
</a>
</g>
</g>
<!-- Node7 -->
<g id="Node000007" class="node">
<title>Node7</title>
<g id="a_Node000007"><a xlink:href="../../d6/d42/groupdef_8cpp.html" target="_top" xlink:title=" ">
<polygon fill="white" stroke="#666666" points="654.5,-19 557.5,-19 557.5,0 654.5,0 654.5,-19"/>
<text text-anchor="middle" x="606" y="-7" font-family="Helvetica,sans-Serif" font-size="10.00">src/groupdef.cpp</text>
</a>
</g>
</g>
<!-- Node1&#45;&gt;Node7 -->
<g id="edge6_Node000001_Node000007" class="edge">
<title>Node1&#45;&gt;Node7</title>
<g id="a_edge6_Node000001_Node000007"><a xlink:title=" ">
<path fill="none" stroke="#63b8ff" d="M568.28,-47.52C577.8,-38.18 589.44,-26.75 597.25,-19.09"/>
<polygon fill="#63b8ff" stroke="#63b8ff" points="565.6,-45.25 560.92,-54.75 570.51,-50.24 565.6,-45.25"/>
</a>
</g>
</g>
<!-- Node8 -->
<g id="Node000008" class="node">
<title>Node8</title>
<g id="a_Node000008"><a xlink:href="../../d0/d72/memberdef_8cpp.html" target="_top" xlink:title=" ">
<polygon fill="white" stroke="#666666" points="783,-19 673,-19 673,0 783,0 783,-19"/>
<text text-anchor="middle" x="728" y="-7" font-family="Helvetica,sans-Serif" font-size="10.00">src/memberdef.cpp</text>
</a>
</g>
</g>
<!-- Node1&#45;&gt;Node8 -->
<g id="edge7_Node000001_Node000008" class="edge">
<title>Node1&#45;&gt;Node8</title>
<g id="a_edge7_Node000001_Node000008"><a xlink:title=" ">
<path fill="none" stroke="#63b8ff" d="M590,-52.06C622.9,-42.15 669.74,-28.04 699.5,-19.08"/>
<polygon fill="#63b8ff" stroke="#63b8ff" points="588.84,-48.75 580.28,-54.98 590.86,-55.45 588.84,-48.75"/>
</a>
</g>
</g>
<!-- Node9 -->
<g id="Node000009" class="node">
<title>Node9</title>
<g id="a_Node000009"><a xlink:href="../../dd/d5c/moduledef_8cpp.html" target="_top" xlink:title=" ">
<polygon fill="white" stroke="#666666" points="907,-19 801,-19 801,0 907,0 907,-19"/>
<text text-anchor="middle" x="854" y="-7" font-family="Helvetica,sans-Serif" font-size="10.00">src/moduledef.cpp</text>
</a>
</g>
</g>
<!-- Node1&#45;&gt;Node9 -->
<g id="edge8_Node000001_Node000009" class="edge">
<title>Node1&#45;&gt;Node9</title>
<g id="a_edge8_Node000001_Node000009"><a xlink:title=" ">
<path fill="none" stroke="#63b8ff" d="M610.42,-53.25C667.13,-43.3 752.21,-28.36 805.35,-19.04"/>
<polygon fill="#63b8ff" stroke="#63b8ff" points="609.77,-49.81 600.52,-54.98 610.98,-56.7 609.77,-49.81"/>
</a>
</g>
</g>
<!-- Node10 -->
<g id="Node000010" class="node">
<title>Node10</title>
<g id="a_Node000010"><a xlink:href="../../d7/d1c/namespacedef_8cpp.html" target="_top" xlink:title=" ">
<polygon fill="white" stroke="#666666" points="1050.5,-19 925.5,-19 925.5,0 1050.5,0 1050.5,-19"/>
<text text-anchor="middle" x="988" y="-7" font-family="Helvetica,sans-Serif" font-size="10.00">src/namespacedef.cpp</text>
</a>
</g>
</g>
<!-- Node1&#45;&gt;Node10 -->
<g id="edge9_Node000001_Node000010" class="edge">
<title>Node1&#45;&gt;Node10</title>
<g id="a_edge9_Node000001_Node000010"><a xlink:title=" ">
<path fill="none" stroke="#63b8ff" d="M617.32,-55.56C700.6,-45.44 843.58,-28.06 925.49,-18.1"/>
<polygon fill="#63b8ff" stroke="#63b8ff" points="616.72,-52.11 607.22,-56.79 617.57,-59.06 616.72,-52.11"/>
</a>
</g>
</g>
<!-- Node11 -->
<g id="Node000011" class="node">
<title>Node11</title>
<g id="a_Node000011"><a xlink:href="../../d9/db4/pagedef_8cpp.html" target="_top" xlink:title=" ">
<polygon fill="white" stroke="#666666" points="1161.5,-19 1068.5,-19 1068.5,0 1161.5,0 1161.5,-19"/>
<text text-anchor="middle" x="1115" y="-7" font-family="Helvetica,sans-Serif" font-size="10.00">src/pagedef.cpp</text>
</a>
</g>
</g>
<!-- Node1&#45;&gt;Node11 -->
<g id="edge10_Node000001_Node000011" class="edge">
<title>Node1&#45;&gt;Node11</title>
<g id="a_edge10_Node000001_Node000011"><a xlink:title=" ">
<path fill="none" stroke="#63b8ff" d="M617.61,-59.14C714.53,-52.39 901.63,-38.15 1060,-19 1062.69,-18.68 1065.44,-18.32 1068.22,-17.94"/>
<polygon fill="#63b8ff" stroke="#63b8ff" points="617.11,-55.67 607.37,-59.85 617.59,-62.65 617.11,-55.67"/>
</a>
</g>
</g>
</g>
</svg>
