<?xml version="1.0" encoding="UTF-8" standalone="no"?>
<!DOCTYPE svg PUBLIC "-//W3C//DTD SVG 1.1//EN"
 "http://www.w3.org/Graphics/SVG/1.1/DTD/svg11.dtd">
<!-- Generated by graphviz version 2.43.0 (0)
 -->
<!-- Title: /home/runner/work/doxygen/doxygen/src/docgroup.h Pages: 1 -->
<!--zoomable 368 -->

<svg id="main" version="1.1" xmlns="http://www.w3.org/2000/svg" xmlns:xlink="http://www.w3.org/1999/xlink" xml:space="preserve" onload="init(evt)">
<style type="text/css"><![CDATA[
.node, .edge {opacity: 0.7;}
.node.selected, .edge.selected {opacity: 1;}
.edge:hover path { stroke: red; }
.edge:hover polygon { stroke: red; fill: red; }
]]></style>

<defs>
  <circle id="rim" cx="0" cy="0" r="7"/>
  <circle id="rim2" cx="0" cy="0" r="3.5"/>
  <g id="zoomPlus">
    <use xlink:href="#rim" fill="#404040"><set attributeName="fill" to="#808080" begin="zoomplus.mouseover" end="zoomplus.mouseout"/></use>
    <path d="M-4,0h8M0,-4v8" fill="none" stroke="white" stroke-width="1.5" pointer-events="none"/>
  </g>
  <g id="zoomMin">
    <use xlink:href="#rim" fill="#404040"><set attributeName="fill" to="#808080" begin="zoomminus.mouseover" end="zoomminus.mouseout"/></use>
    <path d="M-4,0h8" fill="none" stroke="white" stroke-width="1.5" pointer-events="none"/>
  </g>
  <g id="arrowUp" transform="translate(30 24)">
    <use xlink:href="#rim"/>
    <path pointer-events="none" fill="none" stroke="white" stroke-width="1.5" d="M0,-3.0v7 M-2.5,-0.5L0,-3.0L2.5,-0.5"/>
  </g>
  <g id="arrowRight" transform="rotate(90) translate(36 -43)">
    <use xlink:href="#rim"/>
    <path pointer-events="none" fill="none" stroke="white" stroke-width="1.5" d="M0,-3.0v7 M-2.5,-0.5L0,-3.0L2.5,-0.5"/>
  </g>
  <g id="arrowDown" transform="rotate(180) translate(-30 -48)">
    <use xlink:href="#rim"/>
    <path pointer-events="none" fill="none" stroke="white" stroke-width="1.5" d="M0,-3.0v7 M-2.5,-0.5L0,-3.0L2.5,-0.5"/>
  </g>
  <g id="arrowLeft" transform="rotate(270) translate(-36 17)">
    <use xlink:href="#rim"/>
    <path pointer-events="none" fill="none" stroke="white" stroke-width="1.5" d="M0,-3.0v7 M-2.5,-0.5L0,-3.0L2.5,-0.5"/>
  </g>
  <g id="resetDef">
    <use xlink:href="#rim2" fill="#404040"><set attributeName="fill" to="#808080" begin="reset.mouseover" end="reset.mouseout"/></use>
  </g>
</defs>
<script type="application/ecmascript">
var viewWidth = 765;
var viewHeight = 368;
var sectionId = 'dynsection-0';
</script>
<script type="application/ecmascript" xlink:href="../../svg.min.js"/>
<svg id="graph" class="graph">
<g id="viewport">
<title>/home/runner/work/doxygen/doxygen/src/docgroup.h</title>
<!-- Node1 -->
<g id="Node000001" class="node">
<title>Node1</title>
<g id="a_Node000001"><a xlink:title=" ">
<polygon fill="#999999" stroke="#666666" points="436,-360 282,-360 282,-330 436,-330 436,-360"/>
<text text-anchor="start" x="290" y="-348" font-family="Helvetica,sans-Serif" font-size="10.00">/home/runner/work/doxygen</text>
<text text-anchor="middle" x="359" y="-337" font-family="Helvetica,sans-Serif" font-size="10.00">/doxygen/src/docgroup.h</text>
</a>
</g>
</g>
<!-- Node2 -->
<g id="Node000002" class="node">
<title>Node2</title>
<g id="a_Node000002"><a xlink:title=" ">
<polygon fill="#e0e0e0" stroke="#999999" points="466.5,-129 419.5,-129 419.5,-110 466.5,-110 466.5,-129"/>
<text text-anchor="middle" x="443" y="-117" font-family="Helvetica,sans-Serif" font-size="10.00">vector</text>
</a>
</g>
</g>
<!-- Node1&#45;&gt;Node2 -->
<g id="edge1_Node000001_Node000002" class="edge">
<title>Node1&#45;&gt;Node2</title>
<g id="a_edge1_Node000001_Node000002"><a xlink:title=" ">
<path fill="none" stroke="#63b8ff" d="M365.57,-329.65C378.14,-301.91 406,-238.79 425,-184 430.17,-169.1 434.98,-151.86 438.33,-139.11"/>
<polygon fill="#63b8ff" stroke="#63b8ff" points="441.77,-139.78 440.87,-129.23 434.99,-138.04 441.77,-139.78"/>
</a>
</g>
</g>
<!-- Node3 -->
<g id="Node000003" class="node">
<title>Node3</title>
<g id="a_Node000003"><a xlink:href="../../d9/d11/membergroup_8h.html" target="_top" xlink:title=" ">
<polygon fill="white" stroke="#666666" points="360.5,-294 265.5,-294 265.5,-275 360.5,-275 360.5,-294"/>
<text text-anchor="middle" x="313" y="-282" font-family="Helvetica,sans-Serif" font-size="10.00">membergroup.h</text>
</a>
</g>
</g>
<!-- Node1&#45;&gt;Node3 -->
<g id="edge2_Node000001_Node000003" class="edge">
<title>Node1&#45;&gt;Node3</title>
<g id="a_edge2_Node000001_Node000003"><a xlink:title=" ">
<path fill="none" stroke="#63b8ff" d="M347.86,-329.84C341.32,-321.52 333.02,-310.96 326.16,-302.23"/>
<polygon fill="#63b8ff" stroke="#63b8ff" points="328.83,-299.96 319.89,-294.27 323.32,-304.29 328.83,-299.96"/>
</a>
</g>
</g>
<!-- Node3&#45;&gt;Node2 -->
<g id="edge3_Node000003_Node000002" class="edge">
<title>Node3&#45;&gt;Node2</title>
<g id="a_edge3_Node000003_Node000002"><a xlink:title=" ">
<path fill="none" stroke="#63b8ff" d="M321.44,-274.7C329.98,-265.78 343.51,-251.53 355,-239 377.13,-214.87 384.47,-210.27 404,-184 415.07,-169.11 425.98,-150.97 433.43,-137.9"/>
<polygon fill="#63b8ff" stroke="#63b8ff" points="436.57,-139.46 438.4,-129.03 430.46,-136.04 436.57,-139.46"/>
</a>
</g>
</g>
<!-- Node4 -->
<g id="Node000004" class="node">
<title>Node4</title>
<g id="a_Node000004"><a xlink:title=" ">
<polygon fill="#e0e0e0" stroke="#999999" points="38,-239 0,-239 0,-220 38,-220 38,-239"/>
<text text-anchor="middle" x="19" y="-227" font-family="Helvetica,sans-Serif" font-size="10.00">map</text>
</a>
</g>
</g>
<!-- Node3&#45;&gt;Node4 -->
<g id="edge4_Node000003_Node000004" class="edge">
<title>Node3&#45;&gt;Node4</title>
<g id="a_edge4_Node000003_Node000004"><a xlink:title=" ">
<path fill="none" stroke="#63b8ff" d="M265.15,-276.56C212.63,-268.67 125.95,-254.8 52,-239 50.73,-238.73 49.44,-238.44 48.13,-238.14"/>
<polygon fill="#63b8ff" stroke="#63b8ff" points="48.67,-234.67 38.13,-235.72 47.02,-241.48 48.67,-234.67"/>
</a>
</g>
</g>
<!-- Node5 -->
<g id="Node000005" class="node">
<title>Node5</title>
<g id="a_Node000005"><a xlink:title=" ">
<polygon fill="#e0e0e0" stroke="#999999" points="63,-129 5,-129 5,-110 63,-110 63,-129"/>
<text text-anchor="middle" x="34" y="-117" font-family="Helvetica,sans-Serif" font-size="10.00">memory</text>
</a>
</g>
</g>
<!-- Node3&#45;&gt;Node5 -->
<g id="edge5_Node000003_Node000005" class="edge">
<title>Node3&#45;&gt;Node5</title>
<g id="a_edge5_Node000003_Node000005"><a xlink:title=" ">
<path fill="none" stroke="#63b8ff" d="M288.98,-274.91C248.94,-259.96 166.92,-226.64 106,-184 85.45,-169.62 64.19,-150.21 50.14,-136.64"/>
<polygon fill="#63b8ff" stroke="#63b8ff" points="52.36,-133.92 42.77,-129.42 47.46,-138.92 52.36,-133.92"/>
</a>
</g>
</g>
<!-- Node6 -->
<g id="Node000006" class="node">
<title>Node6</title>
<g id="a_Node000006"><a xlink:href="../../d9/d49/types_8h.html" target="_top" xlink:title="This file contains a number of basic enums and types.">
<polygon fill="white" stroke="#666666" points="395.5,-184 342.5,-184 342.5,-165 395.5,-165 395.5,-184"/>
<text text-anchor="middle" x="369" y="-172" font-family="Helvetica,sans-Serif" font-size="10.00">types.h</text>
</a>
</g>
</g>
<!-- Node3&#45;&gt;Node6 -->
<g id="edge6_Node000003_Node000006" class="edge">
<title>Node3&#45;&gt;Node6</title>
<g id="a_edge6_Node000003_Node000006"><a xlink:title=" ">
<path fill="none" stroke="#63b8ff" d="M317.58,-274.66C326.78,-256.93 347.62,-216.73 359.76,-193.32"/>
<polygon fill="#63b8ff" stroke="#63b8ff" points="363.01,-194.65 364.51,-184.16 356.8,-191.42 363.01,-194.65"/>
</a>
</g>
</g>
<!-- Node17 -->
<g id="Node000017" class="node">
<title>Node17</title>
<g id="a_Node000017"><a xlink:href="../../d1/d02/reflist_8h.html" target="_top" xlink:title=" ">
<polygon fill="white" stroke="#666666" points="269.5,-239 216.5,-239 216.5,-220 269.5,-220 269.5,-239"/>
<text text-anchor="middle" x="243" y="-227" font-family="Helvetica,sans-Serif" font-size="10.00">reflist.h</text>
</a>
</g>
</g>
<!-- Node3&#45;&gt;Node17 -->
<g id="edge19_Node000003_Node000017" class="edge">
<title>Node3&#45;&gt;Node17</title>
<g id="a_edge19_Node000003_Node000017"><a xlink:title=" ">
<path fill="none" stroke="#63b8ff" d="M301.75,-274.98C291.2,-267 275.2,-254.88 262.56,-245.31"/>
<polygon fill="#63b8ff" stroke="#63b8ff" points="264.54,-242.42 254.45,-239.17 260.31,-248 264.54,-242.42"/>
</a>
</g>
</g>
<!-- Node7 -->
<g id="Node000007" class="node">
<title>Node7</title>
<g id="a_Node000007"><a xlink:href="../../d7/d5c/qcstring_8h.html" target="_top" xlink:title=" ">
<polygon fill="white" stroke="#666666" points="401.5,-129 336.5,-129 336.5,-110 401.5,-110 401.5,-129"/>
<text text-anchor="middle" x="369" y="-117" font-family="Helvetica,sans-Serif" font-size="10.00">qcstring.h</text>
</a>
</g>
</g>
<!-- Node6&#45;&gt;Node7 -->
<g id="edge7_Node000006_Node000007" class="edge">
<title>Node6&#45;&gt;Node7</title>
<g id="a_edge7_Node000006_Node000007"><a xlink:title=" ">
<path fill="none" stroke="#63b8ff" d="M369,-164.75C369,-157.8 369,-147.85 369,-139.13"/>
<polygon fill="#63b8ff" stroke="#63b8ff" points="372.5,-139.09 369,-129.09 365.5,-139.09 372.5,-139.09"/>
</a>
</g>
</g>
<!-- Node8 -->
<g id="Node000008" class="node">
<title>Node8</title>
<g id="a_Node000008"><a xlink:title=" ">
<polygon fill="#e0e0e0" stroke="#999999" points="391,-19 347,-19 347,0 391,0 391,-19"/>
<text text-anchor="middle" x="369" y="-7" font-family="Helvetica,sans-Serif" font-size="10.00">string</text>
</a>
</g>
</g>
<!-- Node7&#45;&gt;Node8 -->
<g id="edge8_Node000007_Node000008" class="edge">
<title>Node7&#45;&gt;Node8</title>
<g id="a_edge8_Node000007_Node000008"><a xlink:title=" ">
<path fill="none" stroke="#63b8ff" d="M369,-109.66C369,-92.17 369,-52.8 369,-29.27"/>
<polygon fill="#63b8ff" stroke="#63b8ff" points="372.5,-29.16 369,-19.16 365.5,-29.16 372.5,-29.16"/>
</a>
</g>
</g>
<!-- Node9 -->
<g id="Node000009" class="node">
<title>Node9</title>
<g id="a_Node000009"><a xlink:title=" ">
<polygon fill="#e0e0e0" stroke="#999999" points="341,-74 277,-74 277,-55 341,-55 341,-74"/>
<text text-anchor="middle" x="309" y="-62" font-family="Helvetica,sans-Serif" font-size="10.00">algorithm</text>
</a>
</g>
</g>
<!-- Node7&#45;&gt;Node9 -->
<g id="edge9_Node000007_Node000009" class="edge">
<title>Node7&#45;&gt;Node9</title>
<g id="a_edge9_Node000007_Node000009"><a xlink:title=" ">
<path fill="none" stroke="#63b8ff" d="M359.36,-109.98C350.49,-102.15 337.13,-90.34 326.39,-80.86"/>
<polygon fill="#63b8ff" stroke="#63b8ff" points="328.63,-78.17 318.82,-74.17 323.99,-83.41 328.63,-78.17"/>
</a>
</g>
</g>
<!-- Node10 -->
<g id="Node000010" class="node">
<title>Node10</title>
<g id="a_Node000010"><a xlink:title=" ">
<polygon fill="#e0e0e0" stroke="#999999" points="258.5,-74 209.5,-74 209.5,-55 258.5,-55 258.5,-74"/>
<text text-anchor="middle" x="234" y="-62" font-family="Helvetica,sans-Serif" font-size="10.00">cctype</text>
</a>
</g>
</g>
<!-- Node7&#45;&gt;Node10 -->
<g id="edge10_Node000007_Node000010" class="edge">
<title>Node7&#45;&gt;Node10</title>
<g id="a_edge10_Node000007_Node000010"><a xlink:title=" ">
<path fill="none" stroke="#63b8ff" d="M347.31,-109.98C325.2,-101.3 290.68,-87.75 265.55,-77.88"/>
<polygon fill="#63b8ff" stroke="#63b8ff" points="266.67,-74.57 256.08,-74.17 264.11,-81.08 266.67,-74.57"/>
</a>
</g>
</g>
<!-- Node11 -->
<g id="Node000011" class="node">
<title>Node11</title>
<g id="a_Node000011"><a xlink:title=" ">
<polygon fill="#e0e0e0" stroke="#999999" points="511,-74 461,-74 461,-55 511,-55 511,-74"/>
<text text-anchor="middle" x="486" y="-62" font-family="Helvetica,sans-Serif" font-size="10.00">cstring</text>
</a>
</g>
</g>
<!-- Node7&#45;&gt;Node11 -->
<g id="edge11_Node000007_Node000011" class="edge">
<title>Node7&#45;&gt;Node11</title>
<g id="a_edge11_Node000007_Node000011"><a xlink:title=" ">
<path fill="none" stroke="#63b8ff" d="M387.8,-109.98C406.62,-101.46 435.82,-88.23 457.5,-78.41"/>
<polygon fill="#63b8ff" stroke="#63b8ff" points="459.2,-81.48 466.86,-74.17 456.31,-75.11 459.2,-81.48"/>
</a>
</g>
</g>
<!-- Node12 -->
<g id="Node000012" class="node">
<title>Node12</title>
<g id="a_Node000012"><a xlink:title=" ">
<polygon fill="#e0e0e0" stroke="#999999" points="575,-74 529,-74 529,-55 575,-55 575,-74"/>
<text text-anchor="middle" x="552" y="-62" font-family="Helvetica,sans-Serif" font-size="10.00">cstdio</text>
</a>
</g>
</g>
<!-- Node7&#45;&gt;Node12 -->
<g id="edge12_Node000007_Node000012" class="edge">
<title>Node7&#45;&gt;Node12</title>
<g id="a_edge12_Node000007_Node000012"><a xlink:title=" ">
<path fill="none" stroke="#63b8ff" d="M398.4,-109.98C431.27,-100.46 484.39,-85.08 518.75,-75.13"/>
<polygon fill="#63b8ff" stroke="#63b8ff" points="520.13,-78.37 528.77,-72.23 518.19,-71.65 520.13,-78.37"/>
</a>
</g>
</g>
<!-- Node13 -->
<g id="Node000013" class="node">
<title>Node13</title>
<g id="a_Node000013"><a xlink:title=" ">
<polygon fill="#e0e0e0" stroke="#999999" points="642.5,-74 593.5,-74 593.5,-55 642.5,-55 642.5,-74"/>
<text text-anchor="middle" x="618" y="-62" font-family="Helvetica,sans-Serif" font-size="10.00">cstdlib</text>
</a>
</g>
</g>
<!-- Node7&#45;&gt;Node13 -->
<g id="edge13_Node000007_Node000013" class="edge">
<title>Node7&#45;&gt;Node13</title>
<g id="a_edge13_Node000007_Node000013"><a xlink:title=" ">
<path fill="none" stroke="#63b8ff" d="M401.67,-111.73C404.49,-111.14 407.3,-110.56 410,-110 484.31,-94.61 505.39,-91.79 583.35,-74.07"/>
<polygon fill="#63b8ff" stroke="#63b8ff" points="584.18,-77.48 593.15,-71.84 582.62,-70.65 584.18,-77.48"/>
</a>
</g>
</g>
<!-- Node14 -->
<g id="Node000014" class="node">
<title>Node14</title>
<g id="a_Node000014"><a xlink:title=" ">
<polygon fill="#e0e0e0" stroke="#999999" points="577,-19 527,-19 527,0 577,0 577,-19"/>
<text text-anchor="middle" x="552" y="-7" font-family="Helvetica,sans-Serif" font-size="10.00">cstdint</text>
</a>
</g>
</g>
<!-- Node7&#45;&gt;Node14 -->
<g id="edge14_Node000007_Node000014" class="edge">
<title>Node7&#45;&gt;Node14</title>
<g id="a_edge14_Node000007_Node000014"><a xlink:title=" ">
<path fill="none" stroke="#63b8ff" d="M401.64,-111.56C404.46,-111.01 407.28,-110.48 410,-110 463.53,-100.48 616.5,-115.18 652,-74 674.59,-47.8 624.33,-28.62 587.2,-18.54"/>
<polygon fill="#63b8ff" stroke="#63b8ff" points="587.7,-15.06 577.14,-15.94 585.95,-21.83 587.7,-15.06"/>
</a>
</g>
</g>
<!-- Node15 -->
<g id="Node000015" class="node">
<title>Node15</title>
<g id="a_Node000015"><a xlink:title=" ">
<polygon fill="#e0e0e0" stroke="#999999" points="756.5,-74 699.5,-74 699.5,-55 756.5,-55 756.5,-74"/>
<text text-anchor="middle" x="728" y="-62" font-family="Helvetica,sans-Serif" font-size="10.00">ostream</text>
</a>
</g>
</g>
<!-- Node7&#45;&gt;Node15 -->
<g id="edge15_Node000007_Node000015" class="edge">
<title>Node7&#45;&gt;Node15</title>
<g id="a_edge15_Node000007_Node000015"><a xlink:title=" ">
<path fill="none" stroke="#63b8ff" d="M401.63,-111.51C404.46,-110.97 407.28,-110.46 410,-110 531.54,-89.47 563.36,-93.96 685,-74 686.45,-73.76 687.94,-73.51 689.43,-73.25"/>
<polygon fill="#63b8ff" stroke="#63b8ff" points="690.16,-76.67 699.37,-71.43 688.9,-69.79 690.16,-76.67"/>
</a>
</g>
</g>
<!-- Node16 -->
<g id="Node000016" class="node">
<title>Node16</title>
<g id="a_Node000016"><a xlink:href="../../db/d7c/utf8_8h.html" target="_top" xlink:title="Various UTF8 related helper functions.">
<polygon fill="white" stroke="#666666" points="442.5,-74 397.5,-74 397.5,-55 442.5,-55 442.5,-74"/>
<text text-anchor="middle" x="420" y="-62" font-family="Helvetica,sans-Serif" font-size="10.00">utf8.h</text>
</a>
</g>
</g>
<!-- Node7&#45;&gt;Node16 -->
<g id="edge16_Node000007_Node000016" class="edge">
<title>Node7&#45;&gt;Node16</title>
<g id="a_edge16_Node000007_Node000016"><a xlink:title=" ">
<path fill="none" stroke="#63b8ff" d="M377.42,-109.75C384.77,-102.11 395.63,-90.82 404.54,-81.56"/>
<polygon fill="#63b8ff" stroke="#63b8ff" points="407.32,-83.72 411.74,-74.09 402.28,-78.87 407.32,-83.72"/>
</a>
</g>
</g>
<!-- Node16&#45;&gt;Node8 -->
<g id="edge18_Node000016_Node000008" class="edge">
<title>Node16&#45;&gt;Node8</title>
<g id="a_edge18_Node000016_Node000008"><a xlink:title=" ">
<path fill="none" stroke="#63b8ff" d="M411.58,-54.75C404.23,-47.11 393.37,-35.82 384.46,-26.56"/>
<polygon fill="#63b8ff" stroke="#63b8ff" points="386.72,-23.87 377.26,-19.09 381.68,-28.72 386.72,-23.87"/>
</a>
</g>
</g>
<!-- Node16&#45;&gt;Node14 -->
<g id="edge17_Node000016_Node000014" class="edge">
<title>Node16&#45;&gt;Node14</title>
<g id="a_edge17_Node000016_Node000014"><a xlink:title=" ">
<path fill="none" stroke="#63b8ff" d="M441.21,-54.98C462.73,-46.34 496.28,-32.87 520.83,-23.02"/>
<polygon fill="#63b8ff" stroke="#63b8ff" points="522.43,-26.14 530.41,-19.17 519.82,-19.65 522.43,-26.14"/>
</a>
</g>
</g>
<!-- Node17&#45;&gt;Node2 -->
<g id="edge20_Node000017_Node000002" class="edge">
<title>Node17&#45;&gt;Node2</title>
<g id="a_edge20_Node000017_Node000002"><a xlink:title=" ">
<path fill="none" stroke="#63b8ff" d="M253.55,-219.83C269.85,-206.73 302.45,-181.67 333,-165 357.62,-151.57 387.17,-139.84 409.43,-131.8"/>
<polygon fill="#63b8ff" stroke="#63b8ff" points="410.85,-135.01 419.11,-128.37 408.52,-128.41 410.85,-135.01"/>
</a>
</g>
</g>
<!-- Node17&#45;&gt;Node5 -->
<g id="edge22_Node000017_Node000005" class="edge">
<title>Node17&#45;&gt;Node5</title>
<g id="a_edge22_Node000017_Node000005"><a xlink:title=" ">
<path fill="none" stroke="#63b8ff" d="M222.01,-219.94C201.55,-211.42 169.73,-197.68 143,-184 112.26,-168.27 78.04,-147.83 56.29,-134.45"/>
<polygon fill="#63b8ff" stroke="#63b8ff" points="57.84,-131.29 47.5,-129.01 54.16,-137.25 57.84,-131.29"/>
</a>
</g>
</g>
<!-- Node17&#45;&gt;Node7 -->
<g id="edge23_Node000017_Node000007" class="edge">
<title>Node17&#45;&gt;Node7</title>
<g id="a_edge23_Node000017_Node000007"><a xlink:title=" ">
<path fill="none" stroke="#63b8ff" d="M249.72,-219.61C259.77,-206.67 279.71,-182.3 300,-165 313.66,-153.35 330.58,-142.4 344.24,-134.27"/>
<polygon fill="#63b8ff" stroke="#63b8ff" points="346.22,-137.17 353.1,-129.12 342.7,-131.12 346.22,-137.17"/>
</a>
</g>
</g>
<!-- Node18 -->
<g id="Node000018" class="node">
<title>Node18</title>
<g id="a_Node000018"><a xlink:title=" ">
<polygon fill="#e0e0e0" stroke="#999999" points="174.5,-129 81.5,-129 81.5,-110 174.5,-110 174.5,-129"/>
<text text-anchor="middle" x="128" y="-117" font-family="Helvetica,sans-Serif" font-size="10.00">unordered_map</text>
</a>
</g>
</g>
<!-- Node17&#45;&gt;Node18 -->
<g id="edge21_Node000017_Node000018" class="edge">
<title>Node17&#45;&gt;Node18</title>
<g id="a_edge21_Node000017_Node000018"><a xlink:title=" ">
<path fill="none" stroke="#63b8ff" d="M219.03,-219.96C201.25,-212.64 177.34,-200.64 161,-184 148.5,-171.27 139.64,-152.84 134.27,-139.11"/>
<polygon fill="#63b8ff" stroke="#63b8ff" points="137.41,-137.51 130.71,-129.31 130.83,-139.9 137.41,-137.51"/>
</a>
</g>
</g>
<!-- Node19 -->
<g id="Node000019" class="node">
<title>Node19</title>
<g id="a_Node000019"><a xlink:href="../../da/de1/linkedmap_8h.html" target="_top" xlink:title=" ">
<polygon fill="white" stroke="#666666" points="247.5,-184 170.5,-184 170.5,-165 247.5,-165 247.5,-184"/>
<text text-anchor="middle" x="209" y="-172" font-family="Helvetica,sans-Serif" font-size="10.00">linkedmap.h</text>
</a>
</g>
</g>
<!-- Node17&#45;&gt;Node19 -->
<g id="edge24_Node000017_Node000019" class="edge">
<title>Node17&#45;&gt;Node19</title>
<g id="a_edge24_Node000017_Node000019"><a xlink:title=" ">
<path fill="none" stroke="#63b8ff" d="M237.39,-219.75C232.68,-212.42 225.83,-201.73 220.03,-192.7"/>
<polygon fill="#63b8ff" stroke="#63b8ff" points="222.86,-190.62 214.51,-184.09 216.96,-194.4 222.86,-190.62"/>
</a>
</g>
</g>
<!-- Node19&#45;&gt;Node2 -->
<g id="edge26_Node000019_Node000002" class="edge">
<title>Node19&#45;&gt;Node2</title>
<g id="a_edge26_Node000019_Node000002"><a xlink:title=" ">
<path fill="none" stroke="#63b8ff" d="M247.62,-165.36C286.1,-157.16 347.1,-143.91 409.25,-129.11"/>
<polygon fill="#63b8ff" stroke="#63b8ff" points="410.32,-132.46 419.23,-126.73 408.69,-125.65 410.32,-132.46"/>
</a>
</g>
</g>
<!-- Node19&#45;&gt;Node5 -->
<g id="edge27_Node000019_Node000005" class="edge">
<title>Node19&#45;&gt;Node5</title>
<g id="a_edge27_Node000019_Node000005"><a xlink:title=" ">
<path fill="none" stroke="#63b8ff" d="M180.88,-164.98C151.38,-156.05 104.81,-141.94 72.03,-132.02"/>
<polygon fill="#63b8ff" stroke="#63b8ff" points="72.92,-128.63 62.34,-129.08 70.89,-135.33 72.92,-128.63"/>
</a>
</g>
</g>
<!-- Node19&#45;&gt;Node7 -->
<g id="edge31_Node000019_Node000007" class="edge">
<title>Node19&#45;&gt;Node7</title>
<g id="a_edge31_Node000019_Node000007"><a xlink:title=" ">
<path fill="none" stroke="#63b8ff" d="M234.71,-164.98C261.45,-156.13 303.53,-142.19 333.45,-132.28"/>
<polygon fill="#63b8ff" stroke="#63b8ff" points="334.7,-135.55 343.09,-129.08 332.5,-128.9 334.7,-135.55"/>
</a>
</g>
</g>
<!-- Node19&#45;&gt;Node8 -->
<g id="edge28_Node000019_Node000008" class="edge">
<title>Node19&#45;&gt;Node8</title>
<g id="a_edge28_Node000019_Node000008"><a xlink:title=" ">
<path fill="none" stroke="#63b8ff" d="M204.86,-164.94C195.28,-143.79 174.31,-88.34 200,-55 216.59,-33.48 292.72,-20.29 336.93,-14.3"/>
<polygon fill="#63b8ff" stroke="#63b8ff" points="337.44,-17.77 346.9,-13 336.53,-10.83 337.44,-17.77"/>
</a>
</g>
</g>
<!-- Node19&#45;&gt;Node9 -->
<g id="edge29_Node000019_Node000009" class="edge">
<title>Node19&#45;&gt;Node9</title>
<g id="a_edge29_Node000019_Node000009"><a xlink:title=" ">
<path fill="none" stroke="#63b8ff" d="M217.18,-164.66C233.97,-146.54 272.51,-104.91 293.93,-81.77"/>
<polygon fill="#63b8ff" stroke="#63b8ff" points="296.76,-83.87 300.98,-74.16 291.62,-79.12 296.76,-83.87"/>
</a>
</g>
</g>
<!-- Node19&#45;&gt;Node10 -->
<g id="edge30_Node000019_Node000010" class="edge">
<title>Node19&#45;&gt;Node10</title>
<g id="a_edge30_Node000019_Node000010"><a xlink:title=" ">
<path fill="none" stroke="#63b8ff" d="M211.05,-164.66C215.11,-147.09 224.29,-107.45 229.73,-83.95"/>
<polygon fill="#63b8ff" stroke="#63b8ff" points="233.15,-84.69 232,-74.16 226.33,-83.11 233.15,-84.69"/>
</a>
</g>
</g>
<!-- Node19&#45;&gt;Node18 -->
<g id="edge25_Node000019_Node000018" class="edge">
<title>Node19&#45;&gt;Node18</title>
<g id="a_edge25_Node000019_Node000018"><a xlink:title=" ">
<path fill="none" stroke="#63b8ff" d="M195.99,-164.98C183.54,-156.84 164.54,-144.41 149.79,-134.76"/>
<polygon fill="#63b8ff" stroke="#63b8ff" points="151.54,-131.72 141.25,-129.17 147.7,-137.57 151.54,-131.72"/>
</a>
</g>
</g>
</g>
</svg>

<g id="navigator" transform="translate(0 0)" fill="#404254">
  <rect fill="#f2f5e9" fill-opacity="0.5" stroke="#606060" stroke-width=".5" x="0" y="0" width="60" height="60"/>
  <use id="zoomplus" xlink:href="#zoomPlus" x="17" y="9" onmousedown="handleZoom(evt,'in')"/>
  <use id="zoomminus" xlink:href="#zoomMin" x="42" y="9" onmousedown="handleZoom(evt,'out')"/>
  <use id="reset" xlink:href="#resetDef" x="30" y="36" onmousedown="handleReset()"/>
   <use id="arrowup" xlink:href="#arrowUp" x="0" y="0" onmousedown="handlePan(0,-1)"/>
  <use id="arrowright" xlink:href="#arrowRight" x="0" y="0" onmousedown="handlePan(1,0)"/>
  <use id="arrowdown" xlink:href="#arrowDown" x="0" y="0" onmousedown="handlePan(0,1)"/>
  <use id="arrowleft" xlink:href="#arrowLeft" x="0" y="0" onmousedown="handlePan(-1,0)"/>
</g>
<svg viewBox="0 0 15 15" width="100%" height="30px" preserveAspectRatio="xMaxYMin meet">
 <g id="arrow_out" transform="scale(0.3 0.3)">
  <a xlink:href="docgroup_8h__incl_org.svg" target="_base">
   <rect id="button" ry="5" rx="5" y="6" x="6" height="38" width="38"
        fill="#f2f5e9" fill-opacity="0.5" stroke="#606060" stroke-width="1.0"/>
   <path id="arrow"
     d="M 11.500037,31.436501 C 11.940474,20.09759 22.043105,11.32322 32.158766,21.979434 L 37.068811,17.246167 C 37.068811,17.246167 37.088388,32 37.088388,32 L 22.160133,31.978069 C 22.160133,31.978069 26.997745,27.140456 26.997745,27.140456 C 18.528582,18.264221 13.291696,25.230495 11.500037,31.436501 z"
     style="fill:#404040;"/>
  </a>
 </g>
</svg>

<style type='text/css'>
<![CDATA[
[data-mouse-over-selected='false'] { opacity: 0.7; }
[data-mouse-over-selected='true']  { opacity: 1.0; }
]]>
</style>
<script type="application/ecmascript"><![CDATA[
document.addEventListener('DOMContentLoaded', (event) => {
  highlightEdges();
  highlightAdjacentNodes();
});
]]></script>
</svg>
