<?xml version="1.0" encoding="UTF-8" standalone="no"?>
<!DOCTYPE svg PUBLIC "-//W3C//DTD SVG 1.1//EN"
 "http://www.w3.org/Graphics/SVG/1.1/DTD/svg11.dtd">
<!-- Generated by graphviz version 2.43.0 (0)
 -->
<!-- Title: NestingNodeContext::Private Pages: 1 -->
<svg width="697pt" height="873pt"
 viewBox="0.00 0.00 697.00 873.31" xmlns="http://www.w3.org/2000/svg" xmlns:xlink="http://www.w3.org/1999/xlink">
<g id="graph0" class="graph" transform="scale(1 1) rotate(0) translate(4 869.31)">
<title>NestingNodeContext::Private</title>
<!-- Node1 -->
<g id="Node000001" class="node">
<title>Node1</title>
<g id="a_Node000001"><a xlink:title=" ">
<polygon fill="#999999" stroke="#666666" points="689,-524.81 571,-524.81 571,-494.81 689,-494.81 689,-524.81"/>
<text text-anchor="start" x="579" y="-512.81" font-family="Helvetica,sans-Serif" font-size="10.00">NestingNodeContext</text>
<text text-anchor="middle" x="630" y="-501.81" font-family="Helvetica,sans-Serif" font-size="10.00">::Private</text>
</a>
</g>
</g>
<!-- Node2 -->
<g id="Node000002" class="node">
<title>Node2</title>
<g id="a_Node000002"><a xlink:href="../../db/dc9/class_nesting_node_context.html" target="_top" xlink:title=" ">
<polygon fill="white" stroke="#666666" points="434.5,-833.31 316.5,-833.31 316.5,-814.31 434.5,-814.31 434.5,-833.31"/>
<text text-anchor="middle" x="375.5" y="-821.31" font-family="Helvetica,sans-Serif" font-size="10.00">NestingNodeContext</text>
</a>
</g>
</g>
<!-- Node2&#45;&gt;Node1 -->
<g id="edge1_Node000001_Node000002" class="edge">
<title>Node2&#45;&gt;Node1</title>
<g id="a_edge1_Node000001_Node000002"><a xlink:title=" ">
<path fill="none" stroke="#9a32cd" stroke-dasharray="5,2" d="M430.27,-811.52C469.36,-799.97 520.84,-778.9 553,-742.81 611.6,-677.06 625.12,-565.3 628.15,-524.93"/>
<polygon fill="#9a32cd" stroke="#9a32cd" points="429.29,-808.16 420.62,-814.26 431.2,-814.9 429.29,-808.16"/>
</a>
</g>
<text text-anchor="middle" x="515.5" y="-795.81" font-family="Helvetica,sans-Serif" font-size="10.00" fill="grey"> m_parent</text>
</g>
<!-- Node3 -->
<g id="Node000003" class="node">
<title>Node3</title>
<g id="a_Node000003"><a xlink:href="../../d9/de8/class_template_struct_intf.html" target="_top" xlink:title="Abstract interface for a context value of type struct.">
<polygon fill="white" stroke="#666666" points="123,-865.31 16,-865.31 16,-846.31 123,-846.31 123,-865.31"/>
<text text-anchor="middle" x="69.5" y="-853.31" font-family="Helvetica,sans-Serif" font-size="10.00">TemplateStructIntf</text>
</a>
</g>
</g>
<!-- Node3&#45;&gt;Node2 -->
<g id="edge2_Node000002_Node000003" class="edge">
<title>Node3&#45;&gt;Node2</title>
<g id="a_edge2_Node000002_Node000003"><a xlink:title=" ">
<path fill="none" stroke="#63b8ff" d="M133.25,-853.2C173.33,-851.11 226.34,-847.55 273,-841.81 290.67,-839.64 309.94,-836.44 326.9,-833.33"/>
<polygon fill="#63b8ff" stroke="#63b8ff" points="132.9,-849.71 123.09,-853.71 133.26,-856.7 132.9,-849.71"/>
</a>
</g>
</g>
<!-- Node4 -->
<g id="Node000004" class="node">
<title>Node4</title>
<g id="a_Node000004"><a xlink:href="../../d5/dcc/class_definition.html" target="_top" xlink:title="The common base class of all entity definitions found in the sources.">
<polygon fill="white" stroke="#666666" points="407.5,-765.31 343.5,-765.31 343.5,-746.31 407.5,-746.31 407.5,-765.31"/>
<text text-anchor="middle" x="375.5" y="-753.31" font-family="Helvetica,sans-Serif" font-size="10.00">Definition</text>
</a>
</g>
</g>
<!-- Node4&#45;&gt;Node1 -->
<g id="edge3_Node000001_Node000004" class="edge">
<title>Node4&#45;&gt;Node1</title>
<g id="a_edge3_Node000001_Node000004"><a xlink:title=" ">
<path fill="none" stroke="#9a32cd" stroke-dasharray="5,2" d="M417.82,-750.39C431.62,-747.67 446.83,-743.67 460,-737.81 506.55,-717.12 520.43,-709.98 553,-670.81 591.54,-624.47 615.46,-555.31 624.68,-524.99"/>
<polygon fill="#9a32cd" stroke="#9a32cd" points="416.82,-747.01 407.59,-752.22 418.06,-753.9 416.82,-747.01"/>
</a>
</g>
<text text-anchor="middle" x="515.5" y="-730.81" font-family="Helvetica,sans-Serif" font-size="10.00" fill="grey"> m_def</text>
</g>
<!-- Node5 -->
<g id="Node000005" class="node">
<title>Node5</title>
<g id="a_Node000005"><a xlink:href="../../d7/dc1/class_cached_item.html" target="_top" xlink:title=" ">
<polygon fill="white" stroke="#666666" points="460,-471.31 291,-471.31 291,-430.31 460,-430.31 460,-471.31"/>
<text text-anchor="start" x="299" y="-459.31" font-family="Helvetica,sans-Serif" font-size="10.00">CachedItem&lt; TemplateVariant,</text>
<text text-anchor="start" x="299" y="-448.31" font-family="Helvetica,sans-Serif" font-size="10.00"> NestingNodeContext::Private,</text>
<text text-anchor="middle" x="375.5" y="-437.31" font-family="Helvetica,sans-Serif" font-size="10.00"> &amp;Private::createClass &gt;</text>
</a>
</g>
</g>
<!-- Node5&#45;&gt;Node1 -->
<g id="edge4_Node000001_Node000005" class="edge">
<title>Node5&#45;&gt;Node1</title>
<g id="a_edge4_Node000001_Node000005"><a xlink:title=" ">
<path fill="none" stroke="#9a32cd" stroke-dasharray="5,2" d="M470.1,-472.68C503.78,-480.55 540.8,-489.2 570.62,-496.17"/>
<polygon fill="#9a32cd" stroke="#9a32cd" points="470.76,-469.24 460.23,-470.38 469.17,-476.06 470.76,-469.24"/>
</a>
</g>
<text text-anchor="middle" x="515.5" y="-492.81" font-family="Helvetica,sans-Serif" font-size="10.00" fill="grey"> m_class</text>
</g>
<!-- Node6 -->
<g id="Node000006" class="node">
<title>Node6</title>
<g id="a_Node000006"><a xlink:href="../../d1/dba/class_template_variant.html" target="_top" xlink:title="Variant type which can hold one value of a fixed set of types.">
<polygon fill="white" stroke="#666666" points="117.5,-552.31 21.5,-552.31 21.5,-533.31 117.5,-533.31 117.5,-552.31"/>
<text text-anchor="middle" x="69.5" y="-540.31" font-family="Helvetica,sans-Serif" font-size="10.00">TemplateVariant</text>
</a>
</g>
</g>
<!-- Node6&#45;&gt;Node5 -->
<g id="edge5_Node000005_Node000006" class="edge">
<title>Node6&#45;&gt;Node5</title>
<g id="a_edge5_Node000005_Node000006"><a xlink:title=" ">
<path fill="none" stroke="#9a32cd" stroke-dasharray="5,2" d="M92.8,-527.53C109.72,-516.6 133.93,-502.37 157,-493.81 157.42,-493.66 229.8,-479.36 290.94,-467.29"/>
<polygon fill="#9a32cd" stroke="#9a32cd" points="90.62,-524.77 84.21,-533.2 94.48,-530.61 90.62,-524.77"/>
</a>
</g>
<text text-anchor="middle" x="215" y="-496.81" font-family="Helvetica,sans-Serif" font-size="10.00" fill="grey"> m_item</text>
</g>
<!-- Node8 -->
<g id="Node000008" class="node">
<title>Node8</title>
<g id="a_Node000008"><a xlink:href="../../d7/dc1/class_cached_item.html" target="_top" xlink:title=" ">
<polygon fill="white" stroke="#666666" points="460,-412.31 291,-412.31 291,-371.31 460,-371.31 460,-412.31"/>
<text text-anchor="start" x="299" y="-400.31" font-family="Helvetica,sans-Serif" font-size="10.00">CachedItem&lt; TemplateVariant,</text>
<text text-anchor="start" x="299" y="-389.31" font-family="Helvetica,sans-Serif" font-size="10.00"> NestingNodeContext::Private,</text>
<text text-anchor="middle" x="375.5" y="-378.31" font-family="Helvetica,sans-Serif" font-size="10.00"> &amp;Private::createNamespace &gt;</text>
</a>
</g>
</g>
<!-- Node6&#45;&gt;Node8 -->
<g id="edge8_Node000008_Node000006" class="edge">
<title>Node6&#45;&gt;Node8</title>
<g id="a_edge8_Node000008_Node000006"><a xlink:title=" ">
<path fill="none" stroke="#9a32cd" stroke-dasharray="5,2" d="M74.91,-523.22C83.76,-489.12 107.26,-419.74 157,-390.81 179.24,-377.88 239.41,-379 290.85,-382.87"/>
<polygon fill="#9a32cd" stroke="#9a32cd" points="71.51,-522.41 72.54,-532.96 78.31,-524.07 71.51,-522.41"/>
</a>
</g>
<text text-anchor="middle" x="215" y="-393.81" font-family="Helvetica,sans-Serif" font-size="10.00" fill="grey"> m_item</text>
</g>
<!-- Node9 -->
<g id="Node000009" class="node">
<title>Node9</title>
<g id="a_Node000009"><a xlink:href="../../d7/dc1/class_cached_item.html" target="_top" xlink:title=" ">
<polygon fill="white" stroke="#666666" points="460,-589.31 291,-589.31 291,-548.31 460,-548.31 460,-589.31"/>
<text text-anchor="start" x="299" y="-577.31" font-family="Helvetica,sans-Serif" font-size="10.00">CachedItem&lt; TemplateVariant,</text>
<text text-anchor="start" x="299" y="-566.31" font-family="Helvetica,sans-Serif" font-size="10.00"> NestingNodeContext::Private,</text>
<text text-anchor="middle" x="375.5" y="-555.31" font-family="Helvetica,sans-Serif" font-size="10.00"> &amp;Private::createDir &gt;</text>
</a>
</g>
</g>
<!-- Node6&#45;&gt;Node9 -->
<g id="edge11_Node000009_Node000006" class="edge">
<title>Node6&#45;&gt;Node9</title>
<g id="a_edge11_Node000009_Node000006"><a xlink:title=" ">
<path fill="none" stroke="#9a32cd" stroke-dasharray="5,2" d="M76.68,-562.11C87.48,-592.18 112.95,-649.21 157,-672.81 202.44,-697.16 232.46,-704.67 273,-672.81 299.61,-651.9 268.37,-623.98 291,-598.81 294.19,-595.26 297.84,-592.13 301.77,-589.37"/>
<polygon fill="#9a32cd" stroke="#9a32cd" points="79.9,-560.7 73.36,-552.37 73.27,-562.96 79.9,-560.7"/>
</a>
</g>
<text text-anchor="middle" x="215" y="-696.81" font-family="Helvetica,sans-Serif" font-size="10.00" fill="grey"> m_item</text>
</g>
<!-- Node10 -->
<g id="Node000010" class="node">
<title>Node10</title>
<g id="a_Node000010"><a xlink:href="../../d7/dc1/class_cached_item.html" target="_top" xlink:title=" ">
<polygon fill="white" stroke="#666666" points="460,-311.31 291,-311.31 291,-270.31 460,-270.31 460,-311.31"/>
<text text-anchor="start" x="299" y="-299.31" font-family="Helvetica,sans-Serif" font-size="10.00">CachedItem&lt; TemplateVariant,</text>
<text text-anchor="start" x="299" y="-288.31" font-family="Helvetica,sans-Serif" font-size="10.00"> NestingNodeContext::Private,</text>
<text text-anchor="middle" x="375.5" y="-277.31" font-family="Helvetica,sans-Serif" font-size="10.00"> &amp;Private::createFile &gt;</text>
</a>
</g>
</g>
<!-- Node6&#45;&gt;Node10 -->
<g id="edge14_Node000010_Node000006" class="edge">
<title>Node6&#45;&gt;Node10</title>
<g id="a_edge14_Node000010_Node000006"><a xlink:title=" ">
<path fill="none" stroke="#9a32cd" stroke-dasharray="5,2" d="M81.3,-524.4C96.5,-497.64 124.03,-446.06 139,-398.81 153.3,-353.68 121.01,-324.58 157,-293.81 176.77,-276.91 238.24,-277.33 290.81,-281.32"/>
<polygon fill="#9a32cd" stroke="#9a32cd" points="78.26,-522.66 76.3,-533.07 84.32,-526.15 78.26,-522.66"/>
</a>
</g>
<text text-anchor="middle" x="215" y="-296.81" font-family="Helvetica,sans-Serif" font-size="10.00" fill="grey"> m_item</text>
</g>
<!-- Node11 -->
<g id="Node000011" class="node">
<title>Node11</title>
<g id="a_Node000011"><a xlink:href="../../d7/dc1/class_cached_item.html" target="_top" xlink:title=" ">
<polygon fill="white" stroke="#666666" points="460,-210.31 291,-210.31 291,-169.31 460,-169.31 460,-210.31"/>
<text text-anchor="start" x="299" y="-198.31" font-family="Helvetica,sans-Serif" font-size="10.00">CachedItem&lt; TemplateVariant,</text>
<text text-anchor="start" x="299" y="-187.31" font-family="Helvetica,sans-Serif" font-size="10.00"> NestingNodeContext::Private,</text>
<text text-anchor="middle" x="375.5" y="-176.31" font-family="Helvetica,sans-Serif" font-size="10.00"> &amp;Private::createPage &gt;</text>
</a>
</g>
</g>
<!-- Node6&#45;&gt;Node11 -->
<g id="edge17_Node000011_Node000006" class="edge">
<title>Node6&#45;&gt;Node11</title>
<g id="a_edge17_Node000011_Node000006"><a xlink:title=" ">
<path fill="none" stroke="#9a32cd" stroke-dasharray="5,2" d="M81.84,-524.56C97.7,-498 126.03,-446.65 139,-398.81 151.26,-353.61 122.5,-220.49 157,-188.81 176.23,-171.16 238.12,-172.87 290.99,-178.17"/>
<polygon fill="#9a32cd" stroke="#9a32cd" points="78.81,-522.8 76.61,-533.17 84.79,-526.44 78.81,-522.8"/>
</a>
</g>
<text text-anchor="middle" x="215" y="-191.81" font-family="Helvetica,sans-Serif" font-size="10.00" fill="grey"> m_item</text>
</g>
<!-- Node12 -->
<g id="Node000012" class="node">
<title>Node12</title>
<g id="a_Node000012"><a xlink:href="../../d7/dc1/class_cached_item.html" target="_top" xlink:title=" ">
<polygon fill="white" stroke="#666666" points="460,-728.31 291,-728.31 291,-687.31 460,-687.31 460,-728.31"/>
<text text-anchor="start" x="299" y="-716.31" font-family="Helvetica,sans-Serif" font-size="10.00">CachedItem&lt; TemplateVariant,</text>
<text text-anchor="start" x="299" y="-705.31" font-family="Helvetica,sans-Serif" font-size="10.00"> NestingNodeContext::Private,</text>
<text text-anchor="middle" x="375.5" y="-694.31" font-family="Helvetica,sans-Serif" font-size="10.00"> &amp;Private::createModule &gt;</text>
</a>
</g>
</g>
<!-- Node6&#45;&gt;Node12 -->
<g id="edge20_Node000012_Node000006" class="edge">
<title>Node6&#45;&gt;Node12</title>
<g id="a_edge20_Node000012_Node000006"><a xlink:title=" ">
<path fill="none" stroke="#9a32cd" stroke-dasharray="5,2" d="M70.1,-562.62C70.3,-612.54 78.61,-743.49 157,-799.81 198.87,-829.9 231.77,-830.77 273,-799.81 295.94,-782.58 271.35,-758.73 291,-737.81 294.27,-734.33 297.97,-731.26 301.95,-728.53"/>
<polygon fill="#9a32cd" stroke="#9a32cd" points="73.6,-562.53 70.17,-552.51 66.6,-562.48 73.6,-562.53"/>
</a>
</g>
<text text-anchor="middle" x="215" y="-824.81" font-family="Helvetica,sans-Serif" font-size="10.00" fill="grey"> m_item</text>
</g>
<!-- Node13 -->
<g id="Node000013" class="node">
<title>Node13</title>
<g id="a_Node000013"><a xlink:href="../../d7/dc1/class_cached_item.html" target="_top" xlink:title=" ">
<polygon fill="white" stroke="#666666" points="460,-530.31 291,-530.31 291,-489.31 460,-489.31 460,-530.31"/>
<text text-anchor="start" x="299" y="-518.31" font-family="Helvetica,sans-Serif" font-size="10.00">CachedItem&lt; TemplateVariant,</text>
<text text-anchor="start" x="299" y="-507.31" font-family="Helvetica,sans-Serif" font-size="10.00"> NestingNodeContext::Private,</text>
<text text-anchor="middle" x="375.5" y="-496.31" font-family="Helvetica,sans-Serif" font-size="10.00"> &amp;Private::createMember &gt;</text>
</a>
</g>
</g>
<!-- Node6&#45;&gt;Node13 -->
<g id="edge23_Node000013_Node000006" class="edge">
<title>Node6&#45;&gt;Node13</title>
<g id="a_edge23_Node000013_Node000006"><a xlink:title=" ">
<path fill="none" stroke="#9a32cd" stroke-dasharray="5,2" d="M97.24,-556.74C138.07,-575.9 217.09,-604.51 273,-571.81 287.09,-563.58 278.54,-550.35 291,-539.81 295.12,-536.33 299.67,-533.24 304.46,-530.5"/>
<polygon fill="#9a32cd" stroke="#9a32cd" points="98.71,-553.57 88.19,-552.35 95.66,-559.87 98.71,-553.57"/>
</a>
</g>
<text text-anchor="middle" x="215" y="-588.81" font-family="Helvetica,sans-Serif" font-size="10.00" fill="grey"> m_item</text>
</g>
<!-- Node14 -->
<g id="Node000014" class="node">
<title>Node14</title>
<g id="a_Node000014"><a xlink:href="../../d7/dc1/class_cached_item.html" target="_top" xlink:title=" ">
<polygon fill="white" stroke="#666666" points="460,-648.31 291,-648.31 291,-607.31 460,-607.31 460,-648.31"/>
<text text-anchor="start" x="299" y="-636.31" font-family="Helvetica,sans-Serif" font-size="10.00">CachedItem&lt; TemplateVariant,</text>
<text text-anchor="start" x="299" y="-625.31" font-family="Helvetica,sans-Serif" font-size="10.00"> NestingNodeContext::Private,</text>
<text text-anchor="middle" x="375.5" y="-614.31" font-family="Helvetica,sans-Serif" font-size="10.00"> &amp;Private::createBrief &gt;</text>
</a>
</g>
</g>
<!-- Node6&#45;&gt;Node14 -->
<g id="edge26_Node000014_Node000006" class="edge">
<title>Node6&#45;&gt;Node14</title>
<g id="a_edge26_Node000014_Node000006"><a xlink:title=" ">
<path fill="none" stroke="#9a32cd" stroke-dasharray="5,2" d="M70.94,-562.81C73.17,-609.32 85.95,-724.55 157,-773.81 178.18,-788.5 253.15,-790.26 273,-773.81 306.09,-746.4 266.56,-714.16 291,-678.81 299.69,-666.24 312.59,-656.2 325.67,-648.47"/>
<polygon fill="#9a32cd" stroke="#9a32cd" points="74.43,-562.41 70.57,-552.55 67.43,-562.66 74.43,-562.41"/>
</a>
</g>
<text text-anchor="middle" x="215" y="-787.81" font-family="Helvetica,sans-Serif" font-size="10.00" fill="grey"> m_item</text>
</g>
<!-- Node7 -->
<g id="Node000007" class="node">
<title>Node7</title>
<g id="a_Node000007"><a xlink:href="../../d7/dc1/class_cached_item.html" target="_top" xlink:title="Wrapper for data that needs to be cached.">
<polygon fill="white" stroke="#666666" points="139,-389.81 0,-389.81 0,-359.81 139,-359.81 139,-389.81"/>
<text text-anchor="start" x="8" y="-377.81" font-family="Helvetica,sans-Serif" font-size="10.00">CachedItem&lt; T, TOwner,</text>
<text text-anchor="middle" x="69.5" y="-366.81" font-family="Helvetica,sans-Serif" font-size="10.00"> creator &gt;</text>
</a>
</g>
</g>
<!-- Node7&#45;&gt;Node5 -->
<g id="edge6_Node000005_Node000007" class="edge">
<title>Node7&#45;&gt;Node5</title>
<g id="a_edge6_Node000005_Node000007"><a xlink:title=" ">
<path fill="none" stroke="orange" stroke-dasharray="5,2" d="M99.4,-353.95C142.15,-325.86 222.59,-283.98 273,-325.81 306.4,-353.54 262.67,-388.92 291,-421.81 293.7,-424.95 296.77,-427.75 300.08,-430.25"/>
<polygon fill="orange" stroke="orange" points="97.21,-351.2 90.88,-359.7 101.13,-357.01 97.21,-351.2"/>
</a>
</g>
<text text-anchor="start" x="162.5" y="-361.81" font-family="Helvetica,sans-Serif" font-size="10.00" fill="grey"> &lt; TemplateVariant,</text>
<text text-anchor="start" x="162.5" y="-350.81" font-family="Helvetica,sans-Serif" font-size="10.00" fill="grey"> NestingNodeContext</text>
<text text-anchor="start" x="162.5" y="-339.81" font-family="Helvetica,sans-Serif" font-size="10.00" fill="grey">::Private, &amp;Private::</text>
<text text-anchor="middle" x="215" y="-328.81" font-family="Helvetica,sans-Serif" font-size="10.00" fill="grey">createClass &gt;</text>
</g>
<!-- Node7&#45;&gt;Node8 -->
<g id="edge9_Node000008_Node000007" class="edge">
<title>Node7&#45;&gt;Node8</title>
<g id="a_edge9_Node000008_Node000007"><a xlink:title=" ">
<path fill="none" stroke="orange" stroke-dasharray="5,2" d="M76.55,-349.83C86.56,-314.65 110.29,-251.8 157,-224.81 201.64,-199.02 233.3,-191.93 273,-224.81 306.09,-252.23 269.53,-282.59 291,-319.81 303.05,-340.7 323.47,-358.47 341.09,-371.13"/>
<polygon fill="orange" stroke="orange" points="73.09,-349.22 73.87,-359.79 79.85,-351.04 73.09,-349.22"/>
</a>
</g>
<text text-anchor="start" x="162.5" y="-260.81" font-family="Helvetica,sans-Serif" font-size="10.00" fill="grey"> &lt; TemplateVariant,</text>
<text text-anchor="start" x="162.5" y="-249.81" font-family="Helvetica,sans-Serif" font-size="10.00" fill="grey"> NestingNodeContext</text>
<text text-anchor="start" x="162.5" y="-238.81" font-family="Helvetica,sans-Serif" font-size="10.00" fill="grey">::Private, &amp;Private::</text>
<text text-anchor="middle" x="215" y="-227.81" font-family="Helvetica,sans-Serif" font-size="10.00" fill="grey">createNamespace &gt;</text>
</g>
<!-- Node7&#45;&gt;Node9 -->
<g id="edge12_Node000009_Node000007" class="edge">
<title>Node7&#45;&gt;Node9</title>
<g id="a_edge12_Node000009_Node000007"><a xlink:title=" ">
<path fill="none" stroke="orange" stroke-dasharray="5,2" d="M79.56,-399.19C92.09,-429.25 117.71,-479.46 157,-504.81 200.9,-533.14 225.83,-501.35 273,-523.81 282.66,-528.42 281.77,-534.4 291,-539.81 296.16,-542.84 301.69,-545.62 307.35,-548.15"/>
<polygon fill="orange" stroke="orange" points="82.78,-397.82 75.82,-389.83 76.29,-400.42 82.78,-397.82"/>
</a>
</g>
<text text-anchor="start" x="162.5" y="-559.81" font-family="Helvetica,sans-Serif" font-size="10.00" fill="grey"> &lt; TemplateVariant,</text>
<text text-anchor="start" x="162.5" y="-548.81" font-family="Helvetica,sans-Serif" font-size="10.00" fill="grey"> NestingNodeContext</text>
<text text-anchor="start" x="162.5" y="-537.81" font-family="Helvetica,sans-Serif" font-size="10.00" fill="grey">::Private, &amp;Private::</text>
<text text-anchor="middle" x="215" y="-526.81" font-family="Helvetica,sans-Serif" font-size="10.00" fill="grey">createDir &gt;</text>
</g>
<!-- Node7&#45;&gt;Node10 -->
<g id="edge15_Node000010_Node000007" class="edge">
<title>Node7&#45;&gt;Node10</title>
<g id="a_edge15_Node000010_Node000007"><a xlink:title=" ">
<path fill="none" stroke="orange" stroke-dasharray="5,2" d="M70.39,-349.35C71.7,-296.74 83.08,-176.53 157,-123.81 177.99,-108.85 253.15,-107.37 273,-123.81 306.09,-151.23 269.53,-181.59 291,-218.81 303.05,-239.7 323.47,-257.47 341.09,-270.13"/>
<polygon fill="orange" stroke="orange" points="66.88,-349.46 70.24,-359.51 73.88,-349.56 66.88,-349.46"/>
</a>
</g>
<text text-anchor="start" x="162.5" y="-159.81" font-family="Helvetica,sans-Serif" font-size="10.00" fill="grey"> &lt; TemplateVariant,</text>
<text text-anchor="start" x="162.5" y="-148.81" font-family="Helvetica,sans-Serif" font-size="10.00" fill="grey"> NestingNodeContext</text>
<text text-anchor="start" x="162.5" y="-137.81" font-family="Helvetica,sans-Serif" font-size="10.00" fill="grey">::Private, &amp;Private::</text>
<text text-anchor="middle" x="215" y="-126.81" font-family="Helvetica,sans-Serif" font-size="10.00" fill="grey">createFile &gt;</text>
</g>
<!-- Node7&#45;&gt;Node11 -->
<g id="edge18_Node000011_Node000007" class="edge">
<title>Node7&#45;&gt;Node11</title>
<g id="a_edge18_Node000011_Node000007"><a xlink:title=" ">
<path fill="none" stroke="orange" stroke-dasharray="5,2" d="M73.67,-349.38C82.69,-281.67 110.84,-99.86 157,-64.81 198.06,-33.64 228.67,-38.5 273,-64.81 287.37,-73.34 281.32,-84.2 291,-97.81 309.75,-124.18 335.2,-151.23 353.05,-169.12"/>
<polygon fill="orange" stroke="orange" points="70.16,-349.21 72.34,-359.58 77.11,-350.11 70.16,-349.21"/>
</a>
</g>
<text text-anchor="start" x="162.5" y="-100.81" font-family="Helvetica,sans-Serif" font-size="10.00" fill="grey"> &lt; TemplateVariant,</text>
<text text-anchor="start" x="162.5" y="-89.81" font-family="Helvetica,sans-Serif" font-size="10.00" fill="grey"> NestingNodeContext</text>
<text text-anchor="start" x="162.5" y="-78.81" font-family="Helvetica,sans-Serif" font-size="10.00" fill="grey">::Private, &amp;Private::</text>
<text text-anchor="middle" x="215" y="-67.81" font-family="Helvetica,sans-Serif" font-size="10.00" fill="grey">createPage &gt;</text>
</g>
<!-- Node7&#45;&gt;Node12 -->
<g id="edge21_Node000012_Node000007" class="edge">
<title>Node7&#45;&gt;Node12</title>
<g id="a_edge21_Node000012_Node000007"><a xlink:title=" ">
<path fill="none" stroke="orange" stroke-dasharray="5,2" d="M84.52,-398.87C100.61,-427.75 126.41,-478.13 139,-524.81 149.58,-564.05 126.94,-679.46 157,-706.81 176.27,-724.35 237.97,-723.27 290.75,-718.55"/>
<polygon fill="orange" stroke="orange" points="87.44,-396.92 79.46,-389.94 81.34,-400.37 87.44,-396.92"/>
</a>
</g>
<text text-anchor="start" x="162.5" y="-756.81" font-family="Helvetica,sans-Serif" font-size="10.00" fill="grey"> &lt; TemplateVariant,</text>
<text text-anchor="start" x="162.5" y="-745.81" font-family="Helvetica,sans-Serif" font-size="10.00" fill="grey"> NestingNodeContext</text>
<text text-anchor="start" x="162.5" y="-734.81" font-family="Helvetica,sans-Serif" font-size="10.00" fill="grey">::Private, &amp;Private::</text>
<text text-anchor="middle" x="215" y="-723.81" font-family="Helvetica,sans-Serif" font-size="10.00" fill="grey">createModule &gt;</text>
</g>
<!-- Node7&#45;&gt;Node13 -->
<g id="edge24_Node000013_Node000007" class="edge">
<title>Node7&#45;&gt;Node13</title>
<g id="a_edge24_Node000013_Node000007"><a xlink:title=" ">
<path fill="none" stroke="orange" stroke-dasharray="5,2" d="M120.71,-393.17C132.51,-397.05 145.11,-400.87 157,-403.81 207.71,-416.38 233.59,-388.52 273,-422.81 293.36,-440.53 272.24,-461.41 291,-480.81 293.99,-483.9 297.32,-486.66 300.89,-489.13"/>
<polygon fill="orange" stroke="orange" points="121.62,-389.78 111.02,-389.9 119.38,-396.41 121.62,-389.78"/>
</a>
</g>
<text text-anchor="start" x="162.5" y="-458.81" font-family="Helvetica,sans-Serif" font-size="10.00" fill="grey"> &lt; TemplateVariant,</text>
<text text-anchor="start" x="162.5" y="-447.81" font-family="Helvetica,sans-Serif" font-size="10.00" fill="grey"> NestingNodeContext</text>
<text text-anchor="start" x="162.5" y="-436.81" font-family="Helvetica,sans-Serif" font-size="10.00" fill="grey">::Private, &amp;Private::</text>
<text text-anchor="middle" x="215" y="-425.81" font-family="Helvetica,sans-Serif" font-size="10.00" fill="grey">createMember &gt;</text>
</g>
<!-- Node7&#45;&gt;Node14 -->
<g id="edge27_Node000014_Node000007" class="edge">
<title>Node7&#45;&gt;Node14</title>
<g id="a_edge27_Node000014_Node000007"><a xlink:title=" ">
<path fill="none" stroke="orange" stroke-dasharray="5,2" d="M83.44,-399.2C98.5,-428.39 123.31,-479.07 139,-524.81 150.26,-557.65 131.15,-577.64 157,-600.81 167.15,-609.91 234.04,-617.28 291,-622.01"/>
<polygon fill="orange" stroke="orange" points="86.46,-397.42 78.74,-390.17 80.25,-400.65 86.46,-397.42"/>
</a>
</g>
<text text-anchor="start" x="162.5" y="-655.81" font-family="Helvetica,sans-Serif" font-size="10.00" fill="grey"> &lt; TemplateVariant,</text>
<text text-anchor="start" x="162.5" y="-644.81" font-family="Helvetica,sans-Serif" font-size="10.00" fill="grey"> NestingNodeContext</text>
<text text-anchor="start" x="162.5" y="-633.81" font-family="Helvetica,sans-Serif" font-size="10.00" fill="grey">::Private, &amp;Private::</text>
<text text-anchor="middle" x="215" y="-622.81" font-family="Helvetica,sans-Serif" font-size="10.00" fill="grey">createBrief &gt;</text>
</g>
<!-- Node8&#45;&gt;Node1 -->
<g id="edge7_Node000001_Node000008" class="edge">
<title>Node8&#45;&gt;Node1</title>
<g id="a_edge7_Node000001_Node000008"><a xlink:title=" ">
<path fill="none" stroke="#9a32cd" stroke-dasharray="5,2" d="M450.39,-415.91C482.66,-427.53 520.48,-442.68 553,-459.81 572.56,-470.12 593.46,-484.11 608.38,-494.67"/>
<polygon fill="#9a32cd" stroke="#9a32cd" points="451.16,-412.47 440.57,-412.41 448.82,-419.06 451.16,-412.47"/>
</a>
</g>
<text text-anchor="middle" x="515.5" y="-462.81" font-family="Helvetica,sans-Serif" font-size="10.00" fill="grey"> m_namespace</text>
</g>
<!-- Node9&#45;&gt;Node1 -->
<g id="edge10_Node000001_Node000009" class="edge">
<title>Node9&#45;&gt;Node1</title>
<g id="a_edge10_Node000001_Node000009"><a xlink:title=" ">
<path fill="none" stroke="#9a32cd" stroke-dasharray="5,2" d="M470.1,-546.94C503.78,-539.07 540.8,-530.42 570.62,-523.45"/>
<polygon fill="#9a32cd" stroke="#9a32cd" points="469.17,-543.57 460.23,-549.25 470.76,-550.38 469.17,-543.57"/>
</a>
</g>
<text text-anchor="middle" x="515.5" y="-546.81" font-family="Helvetica,sans-Serif" font-size="10.00" fill="grey"> m_dir</text>
</g>
<!-- Node10&#45;&gt;Node1 -->
<g id="edge13_Node000001_Node000010" class="edge">
<title>Node10&#45;&gt;Node1</title>
<g id="a_edge13_Node000001_Node000010"><a xlink:title=" ">
<path fill="none" stroke="#9a32cd" stroke-dasharray="5,2" d="M421.32,-316.55C458.74,-339.21 512.33,-374.51 553,-412.81 580.25,-438.48 605.76,-474.39 619.17,-494.54"/>
<polygon fill="#9a32cd" stroke="#9a32cd" points="423.02,-313.49 412.65,-311.34 419.42,-319.49 423.02,-313.49"/>
</a>
</g>
<text text-anchor="middle" x="515.5" y="-415.81" font-family="Helvetica,sans-Serif" font-size="10.00" fill="grey"> m_file</text>
</g>
<!-- Node11&#45;&gt;Node1 -->
<g id="edge16_Node000001_Node000011" class="edge">
<title>Node11&#45;&gt;Node1</title>
<g id="a_edge16_Node000001_Node000011"><a xlink:title=" ">
<path fill="none" stroke="#9a32cd" stroke-dasharray="5,2" d="M417.16,-216.32C456.21,-243.46 514.76,-288.81 553,-339.81 591.01,-390.51 615.37,-463.23 624.7,-494.53"/>
<polygon fill="#9a32cd" stroke="#9a32cd" points="418.87,-213.25 408.65,-210.48 414.91,-219.02 418.87,-213.25"/>
</a>
</g>
<text text-anchor="middle" x="515.5" y="-342.81" font-family="Helvetica,sans-Serif" font-size="10.00" fill="grey"> m_page</text>
</g>
<!-- Node12&#45;&gt;Node1 -->
<g id="edge19_Node000001_Node000012" class="edge">
<title>Node12&#45;&gt;Node1</title>
<g id="a_edge19_Node000001_Node000012"><a xlink:title=" ">
<path fill="none" stroke="#9a32cd" stroke-dasharray="5,2" d="M431.76,-682.69C468.41,-664.46 516.34,-637.49 553,-605.81 581.31,-581.35 606.62,-545.15 619.67,-524.91"/>
<polygon fill="#9a32cd" stroke="#9a32cd" points="430.13,-679.59 422.69,-687.14 433.21,-685.88 430.13,-679.59"/>
</a>
</g>
<text text-anchor="middle" x="515.5" y="-658.81" font-family="Helvetica,sans-Serif" font-size="10.00" fill="grey"> m_module</text>
</g>
<!-- Node13&#45;&gt;Node1 -->
<g id="edge22_Node000001_Node000013" class="edge">
<title>Node13&#45;&gt;Node1</title>
<g id="a_edge22_Node000001_Node000013"><a xlink:title=" ">
<path fill="none" stroke="#9a32cd" stroke-dasharray="5,2" d="M470.53,-509.81C504.1,-509.81 540.93,-509.81 570.62,-509.81"/>
<polygon fill="#9a32cd" stroke="#9a32cd" points="470.23,-506.31 460.23,-509.81 470.23,-513.31 470.23,-506.31"/>
</a>
</g>
<text text-anchor="middle" x="515.5" y="-512.81" font-family="Helvetica,sans-Serif" font-size="10.00" fill="grey"> m_member</text>
</g>
<!-- Node14&#45;&gt;Node1 -->
<g id="edge25_Node000001_Node000014" class="edge">
<title>Node14&#45;&gt;Node1</title>
<g id="a_edge25_Node000001_Node000014"><a xlink:title=" ">
<path fill="none" stroke="#9a32cd" stroke-dasharray="5,2" d="M448.81,-603.88C481.43,-591.99 519.96,-576.41 553,-558.81 572.12,-548.63 592.71,-535.18 607.63,-524.96"/>
<polygon fill="#9a32cd" stroke="#9a32cd" points="447.56,-600.61 439.34,-607.29 449.93,-607.2 447.56,-600.61"/>
</a>
</g>
<text text-anchor="middle" x="515.5" y="-593.81" font-family="Helvetica,sans-Serif" font-size="10.00" fill="grey"> m_brief</text>
</g>
<!-- Node15 -->
<g id="Node000015" class="node">
<title>Node15</title>
<g id="a_Node000015"><a xlink:href="../../d5/dbf/class_property_map.html" target="_top" xlink:title=" ">
<polygon fill="white" stroke="#666666" points="452,-88.81 299,-88.81 299,-58.81 452,-58.81 452,-88.81"/>
<text text-anchor="start" x="307" y="-76.81" font-family="Helvetica,sans-Serif" font-size="10.00">PropertyMap&lt; NestingNode</text>
<text text-anchor="middle" x="375.5" y="-65.81" font-family="Helvetica,sans-Serif" font-size="10.00">Context::Private &gt;</text>
</a>
</g>
</g>
<!-- Node15&#45;&gt;Node1 -->
<g id="edge28_Node000001_Node000015" class="edge">
<title>Node15&#45;&gt;Node1</title>
<g id="a_edge28_Node000001_Node000015"><a xlink:title=" ">
<path fill="none" stroke="#9a32cd" stroke-dasharray="5,2" d="M405.95,-95.19C445.18,-125.18 514.14,-183.47 553,-248.81 603.18,-333.19 621.99,-452.75 627.28,-494.63"/>
<polygon fill="#9a32cd" stroke="#9a32cd" points="407.67,-92.11 397.58,-88.88 403.46,-97.69 407.67,-92.11"/>
</a>
</g>
<text text-anchor="middle" x="515.5" y="-251.81" font-family="Helvetica,sans-Serif" font-size="10.00" fill="grey"> s_inst</text>
</g>
<!-- Node16 -->
<g id="Node000016" class="node">
<title>Node16</title>
<g id="a_Node000016"><a xlink:href="../../d5/dbf/class_property_map.html" target="_top" xlink:title="Class representing a mapping of properties and the corresponding getter function.">
<polygon fill="white" stroke="#666666" points="123,-20.31 16,-20.31 16,-1.31 123,-1.31 123,-20.31"/>
<text text-anchor="middle" x="69.5" y="-8.31" font-family="Helvetica,sans-Serif" font-size="10.00">PropertyMap&lt; T &gt;</text>
</a>
</g>
</g>
<!-- Node16&#45;&gt;Node15 -->
<g id="edge29_Node000015_Node000016" class="edge">
<title>Node16&#45;&gt;Node15</title>
<g id="a_edge29_Node000015_Node000016"><a xlink:title=" ">
<path fill="none" stroke="orange" stroke-dasharray="5,2" d="M133.22,-2.55C173.85,0.72 227.48,1.11 273,-11.81 305.18,-20.95 337.28,-43.35 356.51,-58.57"/>
<polygon fill="orange" stroke="orange" points="132.84,0.93 123.18,-3.44 133.45,-6.05 132.84,0.93"/>
</a>
</g>
<text text-anchor="start" x="157" y="-25.81" font-family="Helvetica,sans-Serif" font-size="10.00" fill="grey"> &lt; NestingNodeContext</text>
<text text-anchor="middle" x="215" y="-14.81" font-family="Helvetica,sans-Serif" font-size="10.00" fill="grey">::Private &gt;</text>
</g>
</g>
</svg>
