<?xml version="1.0" encoding="UTF-8" standalone="no"?>
<!DOCTYPE svg PUBLIC "-//W3C//DTD SVG 1.1//EN"
 "http://www.w3.org/Graphics/SVG/1.1/DTD/svg11.dtd">
<!-- Generated by graphviz version 2.43.0 (0)
 -->
<!-- Title: src/vhdljjparser.h Pages: 1 -->
<svg width="508pt" height="258pt"
 viewBox="0.00 0.00 507.50 258.00" xmlns="http://www.w3.org/2000/svg" xmlns:xlink="http://www.w3.org/1999/xlink">
<g id="graph0" class="graph" transform="scale(1 1) rotate(0) translate(4 254)">
<title>src/vhdljjparser.h</title>
<!-- Node1 -->
<g id="Node000001" class="node">
<title>Node1</title>
<g id="a_Node000001"><a xlink:title=" ">
<polygon fill="#999999" stroke="#666666" points="201,-250 101,-250 101,-231 201,-231 201,-250"/>
<text text-anchor="middle" x="151" y="-238" font-family="Helvetica,sans-Serif" font-size="10.00">src/vhdljjparser.h</text>
</a>
</g>
</g>
<!-- Node2 -->
<g id="Node000002" class="node">
<title>Node2</title>
<g id="a_Node000002"><a xlink:href="../../dc/d98/doxygen_8cpp.html" target="_top" xlink:title=" ">
<polygon fill="white" stroke="#666666" points="96,-195 0,-195 0,-176 96,-176 96,-195"/>
<text text-anchor="middle" x="48" y="-183" font-family="Helvetica,sans-Serif" font-size="10.00">src/doxygen.cpp</text>
</a>
</g>
</g>
<!-- Node1&#45;&gt;Node2 -->
<g id="edge1_Node000001_Node000002" class="edge">
<title>Node1&#45;&gt;Node2</title>
<g id="a_edge1_Node000001_Node000002"><a xlink:title=" ">
<path fill="none" stroke="#63b8ff" d="M125.48,-226.37C106.56,-216.63 81.3,-203.64 64.85,-195.17"/>
<polygon fill="#63b8ff" stroke="#63b8ff" points="123.96,-229.52 134.45,-230.98 127.16,-223.3 123.96,-229.52"/>
</a>
</g>
</g>
<!-- Node3 -->
<g id="Node000003" class="node">
<title>Node3</title>
<g id="a_Node000003"><a xlink:href="../../de/dea/vhdldocgen_8cpp.html" target="_top" xlink:title=" ">
<polygon fill="white" stroke="#666666" points="262,-140 152,-140 152,-121 262,-121 262,-140"/>
<text text-anchor="middle" x="207" y="-128" font-family="Helvetica,sans-Serif" font-size="10.00">src/vhdldocgen.cpp</text>
</a>
</g>
</g>
<!-- Node1&#45;&gt;Node3 -->
<g id="edge2_Node000001_Node000003" class="edge">
<title>Node1&#45;&gt;Node3</title>
<g id="a_edge2_Node000001_Node000003"><a xlink:title=" ">
<path fill="none" stroke="#63b8ff" d="M160.2,-221.76C172.37,-198.28 193.36,-157.81 202.51,-140.16"/>
<polygon fill="#63b8ff" stroke="#63b8ff" points="157.08,-220.17 155.58,-230.66 163.29,-223.4 157.08,-220.17"/>
</a>
</g>
</g>
<!-- Node4 -->
<g id="Node000004" class="node">
<title>Node4</title>
<g id="a_Node000004"><a xlink:href="../../d1/d86/vhdljjparser_8cpp.html" target="_top" xlink:title=" ">
<polygon fill="white" stroke="#666666" points="312.5,-19 201.5,-19 201.5,0 312.5,0 312.5,-19"/>
<text text-anchor="middle" x="257" y="-7" font-family="Helvetica,sans-Serif" font-size="10.00">src/vhdljjparser.cpp</text>
</a>
</g>
</g>
<!-- Node1&#45;&gt;Node4 -->
<g id="edge3_Node000001_Node000004" class="edge">
<title>Node1&#45;&gt;Node4</title>
<g id="a_edge3_Node000001_Node000004"><a xlink:title=" ">
<path fill="none" stroke="#63b8ff" d="M146.41,-220.71C141.39,-197.12 135.07,-155.54 143,-121 150.3,-89.23 152.48,-78.57 175,-55 191,-38.25 214.71,-26.33 232.53,-19.07"/>
<polygon fill="#63b8ff" stroke="#63b8ff" points="143.06,-221.77 148.69,-230.74 149.88,-220.21 143.06,-221.77"/>
</a>
</g>
</g>
<!-- Node5 -->
<g id="Node000005" class="node">
<title>Node5</title>
<g id="a_Node000005"><a xlink:href="../../d5/df9/_vhdl_parser_8h.html" target="_top" xlink:title=" ">
<polygon fill="white" stroke="#666666" points="346.5,-195 215.5,-195 215.5,-176 346.5,-176 346.5,-195"/>
<text text-anchor="middle" x="281" y="-183" font-family="Helvetica,sans-Serif" font-size="10.00">vhdlparser/VhdlParser.h</text>
</a>
</g>
</g>
<!-- Node1&#45;&gt;Node5 -->
<g id="edge4_Node000001_Node000005" class="edge">
<title>Node1&#45;&gt;Node5</title>
<g id="a_edge4_Node000001_Node000005"><a xlink:title=" ">
<path fill="none" stroke="#63b8ff" d="M181.27,-227.16C205.34,-217.35 238.4,-203.87 259.73,-195.17"/>
<polygon fill="#63b8ff" stroke="#63b8ff" points="179.83,-223.97 171.89,-230.98 182.47,-230.45 179.83,-223.97"/>
</a>
</g>
</g>
<!-- Node5&#45;&gt;Node3 -->
<g id="edge5_Node000005_Node000003" class="edge">
<title>Node5&#45;&gt;Node3</title>
<g id="a_edge5_Node000005_Node000003"><a xlink:title=" ">
<path fill="none" stroke="#63b8ff" d="M260.97,-170.15C247.59,-160.57 230.44,-148.29 219.11,-140.17"/>
<polygon fill="#63b8ff" stroke="#63b8ff" points="258.94,-173.01 269.11,-175.98 263.02,-167.32 258.94,-173.01"/>
</a>
</g>
</g>
<!-- Node6 -->
<g id="Node000006" class="node">
<title>Node6</title>
<g id="a_Node000006"><a xlink:href="../../d2/dc3/_vhdl_parser_error_handler_8hpp.html" target="_top" xlink:title=" ">
<polygon fill="white" stroke="#666666" points="330,-85 184,-85 184,-55 330,-55 330,-85"/>
<text text-anchor="start" x="192" y="-73" font-family="Helvetica,sans-Serif" font-size="10.00">vhdlparser/VhdlParserError</text>
<text text-anchor="middle" x="257" y="-62" font-family="Helvetica,sans-Serif" font-size="10.00">Handler.hpp</text>
</a>
</g>
</g>
<!-- Node5&#45;&gt;Node6 -->
<g id="edge6_Node000005_Node000006" class="edge">
<title>Node5&#45;&gt;Node6</title>
<g id="a_edge6_Node000005_Node000006"><a xlink:title=" ">
<path fill="none" stroke="#63b8ff" d="M278.61,-165.58C276.86,-152.89 274.24,-135.86 271,-121 268.35,-108.85 264.49,-95.27 261.49,-85.33"/>
<polygon fill="#63b8ff" stroke="#63b8ff" points="275.18,-166.36 279.96,-175.81 282.12,-165.44 275.18,-166.36"/>
</a>
</g>
</g>
<!-- Node7 -->
<g id="Node000007" class="node">
<title>Node7</title>
<g id="a_Node000007"><a xlink:href="../../d9/d48/vhdlstring_8h.html" target="_top" xlink:title=" ">
<polygon fill="white" stroke="#666666" points="447.5,-140 318.5,-140 318.5,-121 447.5,-121 447.5,-140"/>
<text text-anchor="middle" x="383" y="-128" font-family="Helvetica,sans-Serif" font-size="10.00">vhdlparser/vhdlstring.h</text>
</a>
</g>
</g>
<!-- Node5&#45;&gt;Node7 -->
<g id="edge8_Node000005_Node000007" class="edge">
<title>Node5&#45;&gt;Node7</title>
<g id="a_edge8_Node000005_Node000007"><a xlink:title=" ">
<path fill="none" stroke="#63b8ff" d="M306.27,-171.37C325.01,-161.63 350.02,-148.64 366.31,-140.17"/>
<polygon fill="#63b8ff" stroke="#63b8ff" points="304.65,-168.27 297.39,-175.98 307.88,-174.48 304.65,-168.27"/>
</a>
</g>
</g>
<!-- Node6&#45;&gt;Node4 -->
<g id="edge7_Node000006_Node000004" class="edge">
<title>Node6&#45;&gt;Node4</title>
<g id="a_edge7_Node000006_Node000004"><a xlink:title=" ">
<path fill="none" stroke="#63b8ff" d="M257,-44.75C257,-35.72 257,-26.03 257,-19.27"/>
<polygon fill="#63b8ff" stroke="#63b8ff" points="253.5,-44.84 257,-54.84 260.5,-44.84 253.5,-44.84"/>
</a>
</g>
</g>
<!-- Node7&#45;&gt;Node6 -->
<g id="edge9_Node000007_Node000006" class="edge">
<title>Node7&#45;&gt;Node6</title>
<g id="a_edge9_Node000007_Node000006"><a xlink:title=" ">
<path fill="none" stroke="#63b8ff" d="M355.47,-116.72C335.41,-107.41 308.25,-94.8 287.54,-85.18"/>
<polygon fill="#63b8ff" stroke="#63b8ff" points="354.13,-119.96 364.68,-120.99 357.08,-113.61 354.13,-119.96"/>
</a>
</g>
</g>
<!-- Node8 -->
<g id="Node000008" class="node">
<title>Node8</title>
<g id="a_Node000008"><a xlink:href="../../d7/dad/_vhdl_parser_token_manager_8h.html" target="_top" xlink:title=" ">
<polygon fill="white" stroke="#666666" points="499.5,-85 348.5,-85 348.5,-55 499.5,-55 499.5,-85"/>
<text text-anchor="start" x="356.5" y="-73" font-family="Helvetica,sans-Serif" font-size="10.00">vhdlparser/VhdlParserToken</text>
<text text-anchor="middle" x="424" y="-62" font-family="Helvetica,sans-Serif" font-size="10.00">Manager.h</text>
</a>
</g>
</g>
<!-- Node7&#45;&gt;Node8 -->
<g id="edge10_Node000007_Node000008" class="edge">
<title>Node7&#45;&gt;Node8</title>
<g id="a_edge10_Node000007_Node000008"><a xlink:title=" ">
<path fill="none" stroke="#63b8ff" d="M394.84,-112.61C400.95,-103.89 408.31,-93.39 414.11,-85.11"/>
<polygon fill="#63b8ff" stroke="#63b8ff" points="391.92,-110.67 389.05,-120.87 397.66,-114.69 391.92,-110.67"/>
</a>
</g>
</g>
<!-- Node8&#45;&gt;Node4 -->
<g id="edge11_Node000008_Node000004" class="edge">
<title>Node8&#45;&gt;Node4</title>
<g id="a_edge11_Node000008_Node000004"><a xlink:title=" ">
<path fill="none" stroke="#63b8ff" d="M374.36,-51.61C343.81,-40.91 305.97,-27.65 281.66,-19.14"/>
<polygon fill="#63b8ff" stroke="#63b8ff" points="373.4,-54.98 384,-54.99 375.72,-48.38 373.4,-54.98"/>
</a>
</g>
</g>
</g>
</svg>
