<?xml version="1.0" encoding="UTF-8" standalone="no"?>
<!DOCTYPE svg PUBLIC "-//W3C//DTD SVG 1.1//EN"
 "http://www.w3.org/Graphics/SVG/1.1/DTD/svg11.dtd">
<!-- Generated by graphviz version 2.43.0 (0)
 -->
<!-- Title: LinkedRefMap&lt; T, Hash, KeyEqual, Map &gt; Pages: 1 -->
<svg width="677pt" height="337pt"
 viewBox="0.00 0.00 677.00 337.00" xmlns="http://www.w3.org/2000/svg" xmlns:xlink="http://www.w3.org/1999/xlink">
<g id="page0,1_graph0" class="graph" transform="scale(1 1) rotate(0) translate(4 333)">
<title>LinkedRefMap&lt; T, Hash, KeyEqual, Map &gt;</title>
<!-- Node1 -->
<g id="Node000001" class="node">
<title>Node1</title>
<g id="a_Node000001"><a xlink:title="Container class representing a vector of objects with keys.">
<polygon fill="#999999" stroke="#666666" points="137,-175 0,-175 0,-145 137,-145 137,-175"/>
<text text-anchor="start" x="8" y="-163" font-family="Helvetica,sans-Serif" font-size="10.00">LinkedRefMap&lt; T, Hash,</text>
<text text-anchor="middle" x="68.5" y="-152" font-family="Helvetica,sans-Serif" font-size="10.00"> KeyEqual, Map &gt;</text>
</a>
</g>
</g>
<!-- Node2 -->
<g id="Node000002" class="node">
<title>Node2</title>
<g id="a_Node000002"><a xlink:href="../../d2/db7/class_linked_ref_map.html" target="_top" xlink:title=" ">
<polygon fill="white" stroke="#666666" points="473.5,-313.5 321.5,-313.5 321.5,-294.5 473.5,-294.5 473.5,-313.5"/>
<text text-anchor="middle" x="397.5" y="-301.5" font-family="Helvetica,sans-Serif" font-size="10.00">LinkedRefMap&lt; ClassDef &gt;</text>
</a>
</g>
</g>
<!-- Node1&#45;&gt;Node2 -->
<g id="edge1_Node000001_Node000002" class="edge">
<title>Node1&#45;&gt;Node2</title>
<g id="a_edge1_Node000001_Node000002"><a xlink:title=" ">
<path fill="none" stroke="orange" stroke-dasharray="5,2" d="M79.44,-184.61C92.3,-212.93 117.58,-258.31 155,-280 205.12,-309.06 271.07,-313.82 321.39,-312.01"/>
<polygon fill="orange" stroke="orange" points="82.62,-183.14 75.41,-175.37 76.2,-185.94 82.62,-183.14"/>
</a>
</g>
<text text-anchor="start" x="188.5" y="-317.5" font-family="Helvetica,sans-Serif" font-size="10.00" fill="grey">&lt; ClassDef &gt;</text>
</g>
<!-- Node4 -->
<g id="Node000004" class="node">
<title>Node4</title>
<g id="a_Node000004"><a xlink:href="../../d2/db7/class_linked_ref_map.html" target="_top" xlink:title=" ">
<polygon fill="white" stroke="#666666" points="480,-276.5 315,-276.5 315,-257.5 480,-257.5 480,-276.5"/>
<text text-anchor="middle" x="397.5" y="-264.5" font-family="Helvetica,sans-Serif" font-size="10.00">LinkedRefMap&lt; ConceptDef &gt;</text>
</a>
</g>
</g>
<!-- Node1&#45;&gt;Node4 -->
<g id="edge3_Node000001_Node000004" class="edge">
<title>Node1&#45;&gt;Node4</title>
<g id="a_edge3_Node000001_Node000004"><a xlink:title=" ">
<path fill="none" stroke="orange" stroke-dasharray="5,2" d="M87.86,-182.89C103.64,-200.81 128.05,-224.7 155,-237 182.77,-249.68 256.13,-257.6 314.77,-262.1"/>
<polygon fill="orange" stroke="orange" points="90.4,-180.47 81.24,-175.14 85.07,-185.01 90.4,-180.47"/>
</a>
</g>
<text text-anchor="start" x="181.5" y="-264.5" font-family="Helvetica,sans-Serif" font-size="10.00" fill="grey">&lt; ConceptDef &gt;</text>
</g>
<!-- Node6 -->
<g id="Node000006" class="node">
<title>Node6</title>
<g id="a_Node000006"><a xlink:href="../../d2/db7/class_linked_ref_map.html" target="_top" xlink:title=" ">
<polygon fill="white" stroke="#666666" points="459,-239 336,-239 336,-209 459,-209 459,-239"/>
<text text-anchor="start" x="344" y="-227" font-family="Helvetica,sans-Serif" font-size="10.00">LinkedRefMap&lt; const</text>
<text text-anchor="middle" x="397.5" y="-216" font-family="Helvetica,sans-Serif" font-size="10.00"> MemberDef &gt;</text>
</a>
</g>
</g>
<!-- Node1&#45;&gt;Node6 -->
<g id="edge5_Node000001_Node000006" class="edge">
<title>Node1&#45;&gt;Node6</title>
<g id="a_edge5_Node000001_Node000006"><a xlink:title=" ">
<path fill="none" stroke="orange" stroke-dasharray="5,2" d="M111.34,-179.11C125.01,-184.68 140.43,-190.26 155,-194 215.47,-209.51 286.58,-217.11 335.91,-220.76"/>
<polygon fill="orange" stroke="orange" points="112.31,-175.72 101.74,-175.08 109.61,-182.17 112.31,-175.72"/>
</a>
</g>
<text text-anchor="start" x="166.5" y="-221.5" font-family="Helvetica,sans-Serif" font-size="10.00" fill="grey">&lt; const MemberDef &gt;</text>
</g>
<!-- Node8 -->
<g id="Node000008" class="node">
<title>Node8</title>
<g id="a_Node000008"><a xlink:href="../../d2/db7/class_linked_ref_map.html" target="_top" xlink:title=" ">
<polygon fill="white" stroke="#666666" points="478,-190.5 317,-190.5 317,-171.5 478,-171.5 478,-190.5"/>
<text text-anchor="middle" x="397.5" y="-178.5" font-family="Helvetica,sans-Serif" font-size="10.00">LinkedRefMap&lt; ModuleDef &gt;</text>
</a>
</g>
</g>
<!-- Node1&#45;&gt;Node8 -->
<g id="edge7_Node000001_Node000008" class="edge">
<title>Node1&#45;&gt;Node8</title>
<g id="a_edge7_Node000001_Node000008"><a xlink:title=" ">
<path fill="none" stroke="orange" stroke-dasharray="5,2" d="M147.27,-164.99C198.42,-168.28 265.18,-172.57 316.73,-175.88"/>
<polygon fill="orange" stroke="orange" points="147.46,-161.5 137.25,-164.35 147.01,-168.48 147.46,-161.5"/>
</a>
</g>
<text text-anchor="start" x="183.5" y="-178.5" font-family="Helvetica,sans-Serif" font-size="10.00" fill="grey">&lt; ModuleDef &gt;</text>
</g>
<!-- Node10 -->
<g id="Node000010" class="node">
<title>Node10</title>
<g id="a_Node000010"><a xlink:href="../../d2/db7/class_linked_ref_map.html" target="_top" xlink:title=" ">
<polygon fill="white" stroke="#666666" points="459,-153 336,-153 336,-123 459,-123 459,-153"/>
<text text-anchor="start" x="344" y="-141" font-family="Helvetica,sans-Serif" font-size="10.00">LinkedRefMap&lt; const</text>
<text text-anchor="middle" x="397.5" y="-130" font-family="Helvetica,sans-Serif" font-size="10.00"> NamespaceDef &gt;</text>
</a>
</g>
</g>
<!-- Node1&#45;&gt;Node10 -->
<g id="edge9_Node000001_Node000010" class="edge">
<title>Node1&#45;&gt;Node10</title>
<g id="a_edge9_Node000001_Node000010"><a xlink:title=" ">
<path fill="none" stroke="orange" stroke-dasharray="5,2" d="M146.93,-144.94C149.65,-144.6 152.35,-144.28 155,-144 216.31,-137.54 286.84,-136.52 335.78,-136.83"/>
<polygon fill="orange" stroke="orange" points="146.44,-141.48 137.03,-146.33 147.41,-148.41 146.44,-141.48"/>
</a>
</g>
<text text-anchor="start" x="158.5" y="-149.5" font-family="Helvetica,sans-Serif" font-size="10.00" fill="grey">&lt; const NamespaceDef &gt;</text>
</g>
<!-- Node12 -->
<g id="Node000012" class="node">
<title>Node12</title>
<g id="a_Node000012"><a xlink:href="../../d2/db7/class_linked_ref_map.html" target="_top" xlink:title=" ">
<polygon fill="white" stroke="#666666" points="472,-104.5 323,-104.5 323,-85.5 472,-85.5 472,-104.5"/>
<text text-anchor="middle" x="397.5" y="-92.5" font-family="Helvetica,sans-Serif" font-size="10.00">LinkedRefMap&lt; PageDef &gt;</text>
</a>
</g>
</g>
<!-- Node1&#45;&gt;Node12 -->
<g id="edge11_Node000001_Node000012" class="edge">
<title>Node1&#45;&gt;Node12</title>
<g id="a_edge11_Node000001_Node000012"><a xlink:title=" ">
<path fill="none" stroke="orange" stroke-dasharray="5,2" d="M101.47,-139.78C117.03,-130.94 136.36,-121.38 155,-116 209.79,-100.19 274.24,-95.23 322.77,-94.07"/>
<polygon fill="orange" stroke="orange" points="99.65,-136.79 92.78,-144.86 103.18,-142.83 99.65,-136.79"/>
</a>
</g>
<text text-anchor="start" x="189.5" y="-121.5" font-family="Helvetica,sans-Serif" font-size="10.00" fill="grey">&lt; PageDef &gt;</text>
</g>
<!-- Node14 -->
<g id="Node000014" class="node">
<title>Node14</title>
<g id="a_Node000014"><a xlink:href="../../d2/db7/class_linked_ref_map.html" target="_top" xlink:title=" ">
<polygon fill="white" stroke="#666666" points="489,-67.5 306,-67.5 306,-48.5 489,-48.5 489,-67.5"/>
<text text-anchor="middle" x="397.5" y="-55.5" font-family="Helvetica,sans-Serif" font-size="10.00">LinkedRefMap&lt; NamespaceDef &gt;</text>
</a>
</g>
</g>
<!-- Node1&#45;&gt;Node14 -->
<g id="edge13_Node000001_Node000014" class="edge">
<title>Node1&#45;&gt;Node14</title>
<g id="a_edge13_Node000001_Node000014"><a xlink:title=" ">
<path fill="none" stroke="orange" stroke-dasharray="5,2" d="M85.09,-136.67C100.26,-116.15 125.32,-87.51 155,-74 201.75,-52.72 258.92,-48.11 305.9,-49.11"/>
<polygon fill="orange" stroke="orange" points="82.18,-134.73 79.21,-144.9 87.87,-138.8 82.18,-134.73"/>
</a>
</g>
<text text-anchor="start" x="172.5" y="-79.5" font-family="Helvetica,sans-Serif" font-size="10.00" fill="grey">&lt; NamespaceDef &gt;</text>
</g>
<!-- Node15 -->
<g id="Node000015" class="node">
<title>Node15</title>
<g id="a_Node000015"><a xlink:href="../../d2/db7/class_linked_ref_map.html" target="_top" xlink:title=" ">
<polygon fill="white" stroke="#666666" points="459,-30 336,-30 336,0 459,0 459,-30"/>
<text text-anchor="start" x="344" y="-18" font-family="Helvetica,sans-Serif" font-size="10.00">LinkedRefMap&lt; const</text>
<text text-anchor="middle" x="397.5" y="-7" font-family="Helvetica,sans-Serif" font-size="10.00"> Definition &gt;</text>
</a>
</g>
</g>
<!-- Node1&#45;&gt;Node15 -->
<g id="edge14_Node000001_Node000015" class="edge">
<title>Node1&#45;&gt;Node15</title>
<g id="a_edge14_Node000001_Node000015"><a xlink:title=" ">
<path fill="none" stroke="orange" stroke-dasharray="5,2" d="M77.73,-135.26C89.48,-104.34 114.26,-52.61 155,-29 209.96,2.85 284.28,1.95 335.89,-4.12"/>
<polygon fill="orange" stroke="orange" points="74.37,-134.28 74.25,-144.88 80.95,-136.67 74.37,-134.28"/>
</a>
</g>
<text text-anchor="start" x="171.5" y="-34.5" font-family="Helvetica,sans-Serif" font-size="10.00" fill="grey">&lt; const Definition &gt;</text>
</g>
<!-- Node3 -->
<g id="Node000003" class="node">
<title>Node3</title>
<g id="a_Node000003"><a xlink:href="../../da/d08/class_class_linked_ref_map.html" target="_top" xlink:title=" ">
<polygon fill="white" stroke="#666666" points="653.5,-313.5 541.5,-313.5 541.5,-294.5 653.5,-294.5 653.5,-313.5"/>
<text text-anchor="middle" x="597.5" y="-301.5" font-family="Helvetica,sans-Serif" font-size="10.00">ClassLinkedRefMap</text>
</a>
</g>
</g>
<!-- Node2&#45;&gt;Node3 -->
<g id="edge2_Node000002_Node000003" class="edge">
<title>Node2&#45;&gt;Node3</title>
<g id="a_edge2_Node000002_Node000003"><a xlink:title=" ">
<path fill="none" stroke="#63b8ff" d="M483.77,-304C503.31,-304 523.58,-304 541.45,-304"/>
<polygon fill="#63b8ff" stroke="#63b8ff" points="483.64,-300.5 473.64,-304 483.64,-307.5 483.64,-300.5"/>
</a>
</g>
</g>
<!-- Node5 -->
<g id="Node000005" class="node">
<title>Node5</title>
<g id="a_Node000005"><a xlink:href="../../d4/daa/class_concept_linked_ref_map.html" target="_top" xlink:title=" ">
<polygon fill="white" stroke="#666666" points="660,-276.5 535,-276.5 535,-257.5 660,-257.5 660,-276.5"/>
<text text-anchor="middle" x="597.5" y="-264.5" font-family="Helvetica,sans-Serif" font-size="10.00">ConceptLinkedRefMap</text>
</a>
</g>
</g>
<!-- Node4&#45;&gt;Node5 -->
<g id="edge4_Node000004_Node000005" class="edge">
<title>Node4&#45;&gt;Node5</title>
<g id="a_edge4_Node000004_Node000005"><a xlink:title=" ">
<path fill="none" stroke="#63b8ff" d="M490.55,-267C505.61,-267 520.89,-267 534.98,-267"/>
<polygon fill="#63b8ff" stroke="#63b8ff" points="490.18,-263.5 480.18,-267 490.18,-270.5 490.18,-263.5"/>
</a>
</g>
</g>
<!-- Node7 -->
<g id="Node000007" class="node">
<title>Node7</title>
<g id="a_Node000007"><a xlink:href="../../dc/d77/class_member_linked_ref_map.html" target="_top" xlink:title=" ">
<polygon fill="white" stroke="#666666" points="660.5,-233.5 534.5,-233.5 534.5,-214.5 660.5,-214.5 660.5,-233.5"/>
<text text-anchor="middle" x="597.5" y="-221.5" font-family="Helvetica,sans-Serif" font-size="10.00">MemberLinkedRefMap</text>
</a>
</g>
</g>
<!-- Node6&#45;&gt;Node7 -->
<g id="edge6_Node000006_Node000007" class="edge">
<title>Node6&#45;&gt;Node7</title>
<g id="a_edge6_Node000006_Node000007"><a xlink:title=" ">
<path fill="none" stroke="#63b8ff" d="M469.51,-224C490.76,-224 513.88,-224 534.5,-224"/>
<polygon fill="#63b8ff" stroke="#63b8ff" points="469.25,-220.5 459.25,-224 469.25,-227.5 469.25,-220.5"/>
</a>
</g>
</g>
<!-- Node9 -->
<g id="Node000009" class="node">
<title>Node9</title>
<g id="a_Node000009"><a xlink:href="../../d7/d68/class_module_linked_ref_map.html" target="_top" xlink:title=" ">
<polygon fill="white" stroke="#666666" points="658.5,-190.5 536.5,-190.5 536.5,-171.5 658.5,-171.5 658.5,-190.5"/>
<text text-anchor="middle" x="597.5" y="-178.5" font-family="Helvetica,sans-Serif" font-size="10.00">ModuleLinkedRefMap</text>
</a>
</g>
</g>
<!-- Node8&#45;&gt;Node9 -->
<g id="edge8_Node000008_Node000009" class="edge">
<title>Node8&#45;&gt;Node9</title>
<g id="a_edge8_Node000008_Node000009"><a xlink:title=" ">
<path fill="none" stroke="#63b8ff" d="M488.28,-181C504.61,-181 521.27,-181 536.47,-181"/>
<polygon fill="#63b8ff" stroke="#63b8ff" points="488.18,-177.5 478.18,-181 488.18,-184.5 488.18,-177.5"/>
</a>
</g>
</g>
<!-- Node11 -->
<g id="Node000011" class="node">
<title>Node11</title>
<g id="a_Node000011"><a xlink:href="../../da/df0/class_namespace_linked_ref_map.html" target="_top" xlink:title=" ">
<polygon fill="white" stroke="#666666" points="669,-147.5 526,-147.5 526,-128.5 669,-128.5 669,-147.5"/>
<text text-anchor="middle" x="597.5" y="-135.5" font-family="Helvetica,sans-Serif" font-size="10.00">NamespaceLinkedRefMap</text>
</a>
</g>
</g>
<!-- Node10&#45;&gt;Node11 -->
<g id="edge10_Node000010_Node000011" class="edge">
<title>Node10&#45;&gt;Node11</title>
<g id="a_edge10_Node000010_Node000011"><a xlink:title=" ">
<path fill="none" stroke="#63b8ff" d="M469.29,-138C487.66,-138 507.43,-138 525.79,-138"/>
<polygon fill="#63b8ff" stroke="#63b8ff" points="469.25,-134.5 459.25,-138 469.25,-141.5 469.25,-134.5"/>
</a>
</g>
</g>
<!-- Node13 -->
<g id="Node000013" class="node">
<title>Node13</title>
<g id="a_Node000013"><a xlink:href="../../d9/de6/class_page_linked_ref_map.html" target="_top" xlink:title=" ">
<polygon fill="white" stroke="#666666" points="652,-104.5 543,-104.5 543,-85.5 652,-85.5 652,-104.5"/>
<text text-anchor="middle" x="597.5" y="-92.5" font-family="Helvetica,sans-Serif" font-size="10.00">PageLinkedRefMap</text>
</a>
</g>
</g>
<!-- Node12&#45;&gt;Node13 -->
<g id="edge12_Node000012_Node000013" class="edge">
<title>Node12&#45;&gt;Node13</title>
<g id="a_edge12_Node000012_Node000013"><a xlink:title=" ">
<path fill="none" stroke="#63b8ff" d="M482.49,-95C502.92,-95 524.23,-95 542.82,-95"/>
<polygon fill="#63b8ff" stroke="#63b8ff" points="482.23,-91.5 472.23,-95 482.23,-98.5 482.23,-91.5"/>
</a>
</g>
</g>
</g>
</svg>
