<?xml version="1.0" encoding="UTF-8" standalone="no"?>
<!DOCTYPE svg PUBLIC "-//W3C//DTD SVG 1.1//EN"
 "http://www.w3.org/Graphics/SVG/1.1/DTD/svg11.dtd">
<!-- Generated by graphviz version 2.43.0 (0)
 -->
<!-- Title: /home/runner/work/doxygen/doxygen/src/docbookgen.h Pages: 1 -->
<svg width="1110pt" height="368pt"
 viewBox="0.00 0.00 1109.84 368.00" xmlns="http://www.w3.org/2000/svg" xmlns:xlink="http://www.w3.org/1999/xlink">
<g id="graph0" class="graph" transform="scale(1 1) rotate(0) translate(4 364)">
<title>/home/runner/work/doxygen/doxygen/src/docbookgen.h</title>
<!-- Node1 -->
<g id="Node000001" class="node">
<title>Node1</title>
<g id="a_Node000001"><a xlink:title=" ">
<polygon fill="#999999" stroke="#666666" points="675,-360 521,-360 521,-330 675,-330 675,-360"/>
<text text-anchor="start" x="529" y="-348" font-family="Helvetica,sans-Serif" font-size="10.00">/home/runner/work/doxygen</text>
<text text-anchor="middle" x="598" y="-337" font-family="Helvetica,sans-Serif" font-size="10.00">/doxygen/src/docbookgen.h</text>
</a>
</g>
</g>
<!-- Node2 -->
<g id="Node000002" class="node">
<title>Node2</title>
<g id="a_Node000002"><a xlink:title=" ">
<polygon fill="#e0e0e0" stroke="#999999" points="58,-129 0,-129 0,-110 58,-110 58,-129"/>
<text text-anchor="middle" x="29" y="-117" font-family="Helvetica,sans-Serif" font-size="10.00">memory</text>
</a>
</g>
</g>
<!-- Node1&#45;&gt;Node2 -->
<g id="edge1_Node000001_Node000002" class="edge">
<title>Node1&#45;&gt;Node2</title>
<g id="a_edge1_Node000001_Node000002"><a xlink:title=" ">
<path fill="none" stroke="#63b8ff" d="M520.7,-335.77C426.51,-323.67 264.12,-296.03 136,-239 97.25,-221.75 85.08,-216.65 58,-184 46.89,-170.6 39.12,-152.26 34.44,-138.73"/>
<polygon fill="#63b8ff" stroke="#63b8ff" points="37.73,-137.54 31.34,-129.09 31.07,-139.69 37.73,-137.54"/>
</a>
</g>
</g>
<!-- Node3 -->
<g id="Node000003" class="node">
<title>Node3</title>
<g id="a_Node000003"><a xlink:title=" ">
<polygon fill="#e0e0e0" stroke="#999999" points="657,-294 615,-294 615,-275 657,-275 657,-294"/>
<text text-anchor="middle" x="636" y="-282" font-family="Helvetica,sans-Serif" font-size="10.00">array</text>
</a>
</g>
</g>
<!-- Node1&#45;&gt;Node3 -->
<g id="edge2_Node000001_Node000003" class="edge">
<title>Node1&#45;&gt;Node3</title>
<g id="a_edge2_Node000001_Node000003"><a xlink:title=" ">
<path fill="none" stroke="#63b8ff" d="M607.2,-329.84C612.49,-321.69 619.18,-311.4 624.78,-302.78"/>
<polygon fill="#63b8ff" stroke="#63b8ff" points="627.79,-304.56 630.31,-294.27 621.92,-300.75 627.79,-304.56"/>
</a>
</g>
</g>
<!-- Node4 -->
<g id="Node000004" class="node">
<title>Node4</title>
<g id="a_Node000004"><a xlink:href="../../db/d16/config_8h.html" target="_top" xlink:title=" ">
<polygon fill="white" stroke="#666666" points="787.5,-294 732.5,-294 732.5,-275 787.5,-275 787.5,-294"/>
<text text-anchor="middle" x="760" y="-282" font-family="Helvetica,sans-Serif" font-size="10.00">config.h</text>
</a>
</g>
</g>
<!-- Node1&#45;&gt;Node4 -->
<g id="edge3_Node000001_Node000004" class="edge">
<title>Node1&#45;&gt;Node4</title>
<g id="a_edge3_Node000001_Node000004"><a xlink:title=" ">
<path fill="none" stroke="#63b8ff" d="M636.8,-329.99C664.19,-320.1 700.52,-306.98 726.61,-297.56"/>
<polygon fill="#63b8ff" stroke="#63b8ff" points="727.86,-300.83 736.08,-294.14 725.48,-294.24 727.86,-300.83"/>
</a>
</g>
</g>
<!-- Node6 -->
<g id="Node000006" class="node">
<title>Node6</title>
<g id="a_Node000006"><a xlink:href="../../df/d06/outputgen_8h.html" target="_top" xlink:title=" ">
<polygon fill="white" stroke="#666666" points="597.5,-294 522.5,-294 522.5,-275 597.5,-275 597.5,-294"/>
<text text-anchor="middle" x="560" y="-282" font-family="Helvetica,sans-Serif" font-size="10.00">outputgen.h</text>
</a>
</g>
</g>
<!-- Node1&#45;&gt;Node6 -->
<g id="edge5_Node000001_Node000006" class="edge">
<title>Node1&#45;&gt;Node6</title>
<g id="a_edge5_Node000001_Node000006"><a xlink:title=" ">
<path fill="none" stroke="#63b8ff" d="M588.8,-329.84C583.51,-321.69 576.82,-311.4 571.22,-302.78"/>
<polygon fill="#63b8ff" stroke="#63b8ff" points="574.08,-300.75 565.69,-294.27 568.21,-304.56 574.08,-300.75"/>
</a>
</g>
</g>
<!-- Node5 -->
<g id="Node000005" class="node">
<title>Node5</title>
<g id="a_Node000005"><a xlink:title=" ">
<polygon fill="#e0e0e0" stroke="#999999" points="861.5,-239 774.5,-239 774.5,-220 861.5,-220 861.5,-239"/>
<text text-anchor="middle" x="818" y="-227" font-family="Helvetica,sans-Serif" font-size="10.00">configvalues.h</text>
</a>
</g>
</g>
<!-- Node4&#45;&gt;Node5 -->
<g id="edge4_Node000004_Node000005" class="edge">
<title>Node4&#45;&gt;Node5</title>
<g id="a_edge4_Node000004_Node000005"><a xlink:title=" ">
<path fill="none" stroke="#63b8ff" d="M769.32,-274.98C777.81,-267.23 790.56,-255.58 800.88,-246.14"/>
<polygon fill="#63b8ff" stroke="#63b8ff" points="803.49,-248.5 808.51,-239.17 798.77,-243.33 803.49,-248.5"/>
</a>
</g>
</g>
<!-- Node6&#45;&gt;Node2 -->
<g id="edge6_Node000006_Node000002" class="edge">
<title>Node6&#45;&gt;Node2</title>
<g id="a_edge6_Node000006_Node000002"><a xlink:title=" ">
<path fill="none" stroke="#63b8ff" d="M522.45,-282.66C456.13,-280.35 314.46,-271.66 200,-239 143.97,-223.01 127.07,-219.67 81,-184 64.34,-171.1 49.58,-151.92 40.08,-138.01"/>
<polygon fill="#63b8ff" stroke="#63b8ff" points="42.81,-135.8 34.38,-129.37 36.96,-139.65 42.81,-135.8"/>
</a>
</g>
</g>
<!-- Node7 -->
<g id="Node000007" class="node">
<title>Node7</title>
<g id="a_Node000007"><a xlink:title=" ">
<polygon fill="#e0e0e0" stroke="#999999" points="452.5,-239 409.5,-239 409.5,-220 452.5,-220 452.5,-239"/>
<text text-anchor="middle" x="431" y="-227" font-family="Helvetica,sans-Serif" font-size="10.00">stack</text>
</a>
</g>
</g>
<!-- Node6&#45;&gt;Node7 -->
<g id="edge7_Node000006_Node000007" class="edge">
<title>Node6&#45;&gt;Node7</title>
<g id="a_edge7_Node000006_Node000007"><a xlink:title=" ">
<path fill="none" stroke="#63b8ff" d="M539.27,-274.98C518.24,-266.34 485.45,-252.87 461.46,-243.02"/>
<polygon fill="#63b8ff" stroke="#63b8ff" points="462.68,-239.73 452.1,-239.17 460.02,-246.21 462.68,-239.73"/>
</a>
</g>
</g>
<!-- Node8 -->
<g id="Node000008" class="node">
<title>Node8</title>
<g id="a_Node000008"><a xlink:title=" ">
<polygon fill="#e0e0e0" stroke="#999999" points="708,-129 648,-129 648,-110 708,-110 708,-129"/>
<text text-anchor="middle" x="678" y="-117" font-family="Helvetica,sans-Serif" font-size="10.00">iostream</text>
</a>
</g>
</g>
<!-- Node6&#45;&gt;Node8 -->
<g id="edge8_Node000006_Node000008" class="edge">
<title>Node6&#45;&gt;Node8</title>
<g id="a_edge8_Node000006_Node000008"><a xlink:title=" ">
<path fill="none" stroke="#63b8ff" d="M592.81,-274.97C612.2,-268.28 635.68,-257.01 650,-239 673.28,-209.73 677.75,-164.33 678.3,-139.06"/>
<polygon fill="#63b8ff" stroke="#63b8ff" points="681.8,-139.01 678.33,-129 674.8,-138.99 681.8,-139.01"/>
</a>
</g>
</g>
<!-- Node9 -->
<g id="Node000009" class="node">
<title>Node9</title>
<g id="a_Node000009"><a xlink:title=" ">
<polygon fill="#e0e0e0" stroke="#999999" points="827.5,-129 772.5,-129 772.5,-110 827.5,-110 827.5,-129"/>
<text text-anchor="middle" x="800" y="-117" font-family="Helvetica,sans-Serif" font-size="10.00">fstream</text>
</a>
</g>
</g>
<!-- Node6&#45;&gt;Node9 -->
<g id="edge9_Node000006_Node000009" class="edge">
<title>Node6&#45;&gt;Node9</title>
<g id="a_edge9_Node000006_Node000009"><a xlink:title=" ">
<path fill="none" stroke="#63b8ff" d="M588.91,-274.94C611.91,-267.41 644.37,-255.13 670,-239 717.16,-209.31 763.14,-161.74 785.66,-136.86"/>
<polygon fill="#63b8ff" stroke="#63b8ff" points="788.57,-138.86 792.61,-129.07 783.34,-134.2 788.57,-138.86"/>
</a>
</g>
</g>
<!-- Node10 -->
<g id="Node000010" class="node">
<title>Node10</title>
<g id="a_Node000010"><a xlink:href="../../d9/d49/types_8h.html" target="_top" xlink:title="This file contains a number of basic enums and types.">
<polygon fill="white" stroke="#666666" points="641.5,-239 588.5,-239 588.5,-220 641.5,-220 641.5,-239"/>
<text text-anchor="middle" x="615" y="-227" font-family="Helvetica,sans-Serif" font-size="10.00">types.h</text>
</a>
</g>
</g>
<!-- Node6&#45;&gt;Node10 -->
<g id="edge10_Node000006_Node000010" class="edge">
<title>Node6&#45;&gt;Node10</title>
<g id="a_edge10_Node000006_Node000010"><a xlink:title=" ">
<path fill="none" stroke="#63b8ff" d="M569.08,-274.75C577.09,-267.03 588.96,-255.6 598.62,-246.28"/>
<polygon fill="#63b8ff" stroke="#63b8ff" points="601.31,-248.55 606.09,-239.09 596.46,-243.51 601.31,-248.55"/>
</a>
</g>
</g>
<!-- Node21 -->
<g id="Node000021" class="node">
<title>Node21</title>
<g id="a_Node000021"><a xlink:href="../../d1/db5/index_8h.html" target="_top" xlink:title=" ">
<polygon fill="white" stroke="#666666" points="475.5,-184 422.5,-184 422.5,-165 475.5,-165 475.5,-184"/>
<text text-anchor="middle" x="449" y="-172" font-family="Helvetica,sans-Serif" font-size="10.00">index.h</text>
</a>
</g>
</g>
<!-- Node6&#45;&gt;Node21 -->
<g id="edge23_Node000006_Node000021" class="edge">
<title>Node6&#45;&gt;Node21</title>
<g id="a_edge23_Node000006_Node000021"><a xlink:title=" ">
<path fill="none" stroke="#63b8ff" d="M559.39,-274.65C558.04,-261.31 553.72,-235.95 540,-220 525.8,-203.5 504.07,-192.56 485.4,-185.65"/>
<polygon fill="#63b8ff" stroke="#63b8ff" points="486.28,-182.25 475.69,-182.31 484.01,-188.87 486.28,-182.25"/>
</a>
</g>
</g>
<!-- Node24 -->
<g id="Node000024" class="node">
<title>Node24</title>
<g id="a_Node000024"><a xlink:href="../../d1/d2a/section_8h.html" target="_top" xlink:title=" ">
<polygon fill="white" stroke="#666666" points="531.5,-239 470.5,-239 470.5,-220 531.5,-220 531.5,-239"/>
<text text-anchor="middle" x="501" y="-227" font-family="Helvetica,sans-Serif" font-size="10.00">section.h</text>
</a>
</g>
</g>
<!-- Node6&#45;&gt;Node24 -->
<g id="edge28_Node000006_Node000024" class="edge">
<title>Node6&#45;&gt;Node24</title>
<g id="a_edge28_Node000006_Node000024"><a xlink:title=" ">
<path fill="none" stroke="#63b8ff" d="M550.52,-274.98C541.8,-267.15 528.66,-255.34 518.1,-245.86"/>
<polygon fill="#63b8ff" stroke="#63b8ff" points="520.43,-243.25 510.65,-239.17 515.75,-248.46 520.43,-243.25"/>
</a>
</g>
</g>
<!-- Node27 -->
<g id="Node000027" class="node">
<title>Node27</title>
<g id="a_Node000027"><a xlink:href="../../d4/d7d/textstream_8h.html" target="_top" xlink:title=" ">
<polygon fill="white" stroke="#666666" points="919,-184 839,-184 839,-165 919,-165 919,-184"/>
<text text-anchor="middle" x="879" y="-172" font-family="Helvetica,sans-Serif" font-size="10.00">textstream.h</text>
</a>
</g>
</g>
<!-- Node6&#45;&gt;Node27 -->
<g id="edge40_Node000006_Node000027" class="edge">
<title>Node6&#45;&gt;Node27</title>
<g id="a_edge40_Node000006_Node000027"><a xlink:title=" ">
<path fill="none" stroke="#63b8ff" d="M597.16,-274.96C630.31,-266.94 679.96,-253.97 722,-239 741.68,-231.99 745.71,-228.02 765,-220 792.34,-208.63 823.7,-196.45 846.6,-187.71"/>
<polygon fill="#63b8ff" stroke="#63b8ff" points="848.07,-190.9 856.17,-184.07 845.58,-184.36 848.07,-190.9"/>
</a>
</g>
</g>
<!-- Node30 -->
<g id="Node000030" class="node">
<title>Node30</title>
<g id="a_Node000030"><a xlink:href="../../de/d9c/docparser_8h.html" target="_top" xlink:title=" ">
<polygon fill="white" stroke="#666666" points="282.5,-239 209.5,-239 209.5,-220 282.5,-220 282.5,-239"/>
<text text-anchor="middle" x="246" y="-227" font-family="Helvetica,sans-Serif" font-size="10.00">docparser.h</text>
</a>
</g>
</g>
<!-- Node6&#45;&gt;Node30 -->
<g id="edge49_Node000006_Node000030" class="edge">
<title>Node6&#45;&gt;Node30</title>
<g id="a_edge49_Node000006_Node000030"><a xlink:title=" ">
<path fill="none" stroke="#63b8ff" d="M522.44,-277.16C464.92,-267.45 355.14,-248.92 292.62,-238.37"/>
<polygon fill="#63b8ff" stroke="#63b8ff" points="293.08,-234.9 282.63,-236.68 291.91,-241.8 293.08,-234.9"/>
</a>
</g>
</g>
<!-- Node11 -->
<g id="Node000011" class="node">
<title>Node11</title>
<g id="a_Node000011"><a xlink:href="../../d7/d5c/qcstring_8h.html" target="_top" xlink:title=" ">
<polygon fill="white" stroke="#666666" points="625.5,-129 560.5,-129 560.5,-110 625.5,-110 625.5,-129"/>
<text text-anchor="middle" x="593" y="-117" font-family="Helvetica,sans-Serif" font-size="10.00">qcstring.h</text>
</a>
</g>
</g>
<!-- Node10&#45;&gt;Node11 -->
<g id="edge11_Node000010_Node000011" class="edge">
<title>Node10&#45;&gt;Node11</title>
<g id="a_edge11_Node000010_Node000011"><a xlink:title=" ">
<path fill="none" stroke="#63b8ff" d="M613.2,-219.66C609.64,-202.17 601.62,-162.8 596.82,-139.27"/>
<polygon fill="#63b8ff" stroke="#63b8ff" points="600.19,-138.26 594.76,-129.16 593.33,-139.66 600.19,-138.26"/>
</a>
</g>
</g>
<!-- Node12 -->
<g id="Node000012" class="node">
<title>Node12</title>
<g id="a_Node000012"><a xlink:title=" ">
<polygon fill="#e0e0e0" stroke="#999999" points="562,-19 518,-19 518,0 562,0 562,-19"/>
<text text-anchor="middle" x="540" y="-7" font-family="Helvetica,sans-Serif" font-size="10.00">string</text>
</a>
</g>
</g>
<!-- Node11&#45;&gt;Node12 -->
<g id="edge12_Node000011_Node000012" class="edge">
<title>Node11&#45;&gt;Node12</title>
<g id="a_edge12_Node000011_Node000012"><a xlink:title=" ">
<path fill="none" stroke="#63b8ff" d="M584.94,-109.95C577.29,-101.43 565.98,-87.69 559,-74 551.72,-59.73 546.74,-42.2 543.71,-29.18"/>
<polygon fill="#63b8ff" stroke="#63b8ff" points="547.07,-28.13 541.54,-19.09 540.22,-29.6 547.07,-28.13"/>
</a>
</g>
</g>
<!-- Node13 -->
<g id="Node000013" class="node">
<title>Node13</title>
<g id="a_Node000013"><a xlink:title=" ">
<polygon fill="#e0e0e0" stroke="#999999" points="406,-74 342,-74 342,-55 406,-55 406,-74"/>
<text text-anchor="middle" x="374" y="-62" font-family="Helvetica,sans-Serif" font-size="10.00">algorithm</text>
</a>
</g>
</g>
<!-- Node11&#45;&gt;Node13 -->
<g id="edge13_Node000011_Node000013" class="edge">
<title>Node11&#45;&gt;Node13</title>
<g id="a_edge13_Node000011_Node000013"><a xlink:title=" ">
<path fill="none" stroke="#63b8ff" d="M560.21,-110.57C521.85,-101.28 458.25,-85.89 416.22,-75.72"/>
<polygon fill="#63b8ff" stroke="#63b8ff" points="416.84,-72.27 406.3,-73.32 415.19,-79.07 416.84,-72.27"/>
</a>
</g>
</g>
<!-- Node14 -->
<g id="Node000014" class="node">
<title>Node14</title>
<g id="a_Node000014"><a xlink:title=" ">
<polygon fill="#e0e0e0" stroke="#999999" points="473.5,-74 424.5,-74 424.5,-55 473.5,-55 473.5,-74"/>
<text text-anchor="middle" x="449" y="-62" font-family="Helvetica,sans-Serif" font-size="10.00">cctype</text>
</a>
</g>
</g>
<!-- Node11&#45;&gt;Node14 -->
<g id="edge14_Node000011_Node000014" class="edge">
<title>Node11&#45;&gt;Node14</title>
<g id="a_edge14_Node000011_Node000014"><a xlink:title=" ">
<path fill="none" stroke="#63b8ff" d="M569.86,-109.98C546.18,-101.27 509.13,-87.63 482.29,-77.75"/>
<polygon fill="#63b8ff" stroke="#63b8ff" points="483.15,-74.34 472.56,-74.17 480.73,-80.91 483.15,-74.34"/>
</a>
</g>
</g>
<!-- Node15 -->
<g id="Node000015" class="node">
<title>Node15</title>
<g id="a_Node000015"><a xlink:title=" ">
<polygon fill="#e0e0e0" stroke="#999999" points="618,-74 568,-74 568,-55 618,-55 618,-74"/>
<text text-anchor="middle" x="593" y="-62" font-family="Helvetica,sans-Serif" font-size="10.00">cstring</text>
</a>
</g>
</g>
<!-- Node11&#45;&gt;Node15 -->
<g id="edge15_Node000011_Node000015" class="edge">
<title>Node11&#45;&gt;Node15</title>
<g id="a_edge15_Node000011_Node000015"><a xlink:title=" ">
<path fill="none" stroke="#63b8ff" d="M593,-109.75C593,-102.8 593,-92.85 593,-84.13"/>
<polygon fill="#63b8ff" stroke="#63b8ff" points="596.5,-84.09 593,-74.09 589.5,-84.09 596.5,-84.09"/>
</a>
</g>
</g>
<!-- Node16 -->
<g id="Node000016" class="node">
<title>Node16</title>
<g id="a_Node000016"><a xlink:title=" ">
<polygon fill="#e0e0e0" stroke="#999999" points="926,-74 880,-74 880,-55 926,-55 926,-74"/>
<text text-anchor="middle" x="903" y="-62" font-family="Helvetica,sans-Serif" font-size="10.00">cstdio</text>
</a>
</g>
</g>
<!-- Node11&#45;&gt;Node16 -->
<g id="edge16_Node000011_Node000016" class="edge">
<title>Node11&#45;&gt;Node16</title>
<g id="a_edge16_Node000011_Node000016"><a xlink:title=" ">
<path fill="none" stroke="#63b8ff" d="M625.65,-112.36C630.13,-111.55 634.68,-110.74 639,-110 739.68,-92.72 765.72,-93.45 866,-74 867.27,-73.75 868.57,-73.49 869.88,-73.23"/>
<polygon fill="#63b8ff" stroke="#63b8ff" points="870.92,-76.58 879.96,-71.05 869.45,-69.74 870.92,-76.58"/>
</a>
</g>
</g>
<!-- Node17 -->
<g id="Node000017" class="node">
<title>Node17</title>
<g id="a_Node000017"><a xlink:title=" ">
<polygon fill="#e0e0e0" stroke="#999999" points="685.5,-74 636.5,-74 636.5,-55 685.5,-55 685.5,-74"/>
<text text-anchor="middle" x="661" y="-62" font-family="Helvetica,sans-Serif" font-size="10.00">cstdlib</text>
</a>
</g>
</g>
<!-- Node11&#45;&gt;Node17 -->
<g id="edge17_Node000011_Node000017" class="edge">
<title>Node11&#45;&gt;Node17</title>
<g id="a_edge17_Node000011_Node000017"><a xlink:title=" ">
<path fill="none" stroke="#63b8ff" d="M603.93,-109.98C614.08,-102.07 629.42,-90.11 641.65,-80.58"/>
<polygon fill="#63b8ff" stroke="#63b8ff" points="644.14,-83.08 649.88,-74.17 639.84,-77.56 644.14,-83.08"/>
</a>
</g>
</g>
<!-- Node18 -->
<g id="Node000018" class="node">
<title>Node18</title>
<g id="a_Node000018"><a xlink:title=" ">
<polygon fill="#e0e0e0" stroke="#999999" points="877,-19 827,-19 827,0 877,0 877,-19"/>
<text text-anchor="middle" x="852" y="-7" font-family="Helvetica,sans-Serif" font-size="10.00">cstdint</text>
</a>
</g>
</g>
<!-- Node11&#45;&gt;Node18 -->
<g id="edge18_Node000011_Node000018" class="edge">
<title>Node11&#45;&gt;Node18</title>
<g id="a_edge18_Node000011_Node000018"><a xlink:title=" ">
<path fill="none" stroke="#63b8ff" d="M625.69,-112.44C691.07,-100.32 831.76,-74.21 832,-74 844.56,-62.87 849.31,-43.94 851.06,-29.64"/>
<polygon fill="#63b8ff" stroke="#63b8ff" points="854.57,-29.65 851.92,-19.4 847.6,-29.07 854.57,-29.65"/>
</a>
</g>
</g>
<!-- Node19 -->
<g id="Node000019" class="node">
<title>Node19</title>
<g id="a_Node000019"><a xlink:title=" ">
<polygon fill="#e0e0e0" stroke="#999999" points="760.5,-74 703.5,-74 703.5,-55 760.5,-55 760.5,-74"/>
<text text-anchor="middle" x="732" y="-62" font-family="Helvetica,sans-Serif" font-size="10.00">ostream</text>
</a>
</g>
</g>
<!-- Node11&#45;&gt;Node19 -->
<g id="edge19_Node000011_Node000019" class="edge">
<title>Node11&#45;&gt;Node19</title>
<g id="a_edge19_Node000011_Node000019"><a xlink:title=" ">
<path fill="none" stroke="#63b8ff" d="M615.33,-109.98C638.2,-101.27 673.96,-87.63 699.86,-77.75"/>
<polygon fill="#63b8ff" stroke="#63b8ff" points="701.16,-81 709.26,-74.17 698.67,-74.46 701.16,-81"/>
</a>
</g>
</g>
<!-- Node20 -->
<g id="Node000020" class="node">
<title>Node20</title>
<g id="a_Node000020"><a xlink:href="../../db/d7c/utf8_8h.html" target="_top" xlink:title="Various UTF8 related helper functions.">
<polygon fill="white" stroke="#666666" points="823.5,-74 778.5,-74 778.5,-55 823.5,-55 823.5,-74"/>
<text text-anchor="middle" x="801" y="-62" font-family="Helvetica,sans-Serif" font-size="10.00">utf8.h</text>
</a>
</g>
</g>
<!-- Node11&#45;&gt;Node20 -->
<g id="edge20_Node000011_Node000020" class="edge">
<title>Node11&#45;&gt;Node20</title>
<g id="a_edge20_Node000011_Node000020"><a xlink:title=" ">
<path fill="none" stroke="#63b8ff" d="M625.79,-110.33C659.23,-101.98 712.85,-88.51 768.59,-74.08"/>
<polygon fill="#63b8ff" stroke="#63b8ff" points="769.48,-77.47 778.28,-71.57 767.72,-70.69 769.48,-77.47"/>
</a>
</g>
</g>
<!-- Node20&#45;&gt;Node12 -->
<g id="edge22_Node000020_Node000012" class="edge">
<title>Node20&#45;&gt;Node12</title>
<g id="a_edge22_Node000020_Node000012"><a xlink:title=" ">
<path fill="none" stroke="#63b8ff" d="M778.32,-57.27C775.2,-56.47 772.03,-55.69 769,-55 699.2,-38.97 616.57,-23.85 572.14,-16.04"/>
<polygon fill="#63b8ff" stroke="#63b8ff" points="572.66,-12.58 562.21,-14.3 571.46,-19.47 572.66,-12.58"/>
</a>
</g>
</g>
<!-- Node20&#45;&gt;Node18 -->
<g id="edge21_Node000020_Node000018" class="edge">
<title>Node20&#45;&gt;Node18</title>
<g id="a_edge21_Node000020_Node000018"><a xlink:title=" ">
<path fill="none" stroke="#63b8ff" d="M809.42,-54.75C816.77,-47.11 827.63,-35.82 836.54,-26.56"/>
<polygon fill="#63b8ff" stroke="#63b8ff" points="839.32,-28.72 843.74,-19.09 834.28,-23.87 839.32,-28.72"/>
</a>
</g>
</g>
<!-- Node21&#45;&gt;Node2 -->
<g id="edge24_Node000021_Node000002" class="edge">
<title>Node21&#45;&gt;Node2</title>
<g id="a_edge24_Node000021_Node000002"><a xlink:title=" ">
<path fill="none" stroke="#63b8ff" d="M422.34,-166.8C419.2,-166.14 416.04,-165.51 413,-165 263.84,-139.74 221.4,-153.3 68.62,-129.08"/>
<polygon fill="#63b8ff" stroke="#63b8ff" points="68.82,-125.57 58.39,-127.43 67.71,-132.48 68.82,-125.57"/>
</a>
</g>
</g>
<!-- Node21&#45;&gt;Node11 -->
<g id="edge27_Node000021_Node000011" class="edge">
<title>Node21&#45;&gt;Node11</title>
<g id="a_edge27_Node000021_Node000011"><a xlink:title=" ">
<path fill="none" stroke="#63b8ff" d="M472.14,-164.98C495.82,-156.27 532.87,-142.63 559.71,-132.75"/>
<polygon fill="#63b8ff" stroke="#63b8ff" points="561.27,-135.91 569.44,-129.17 558.85,-129.34 561.27,-135.91"/>
</a>
</g>
</g>
<!-- Node22 -->
<g id="Node000022" class="node">
<title>Node22</title>
<g id="a_Node000022"><a xlink:title=" ">
<polygon fill="#e0e0e0" stroke="#999999" points="305.5,-129 258.5,-129 258.5,-110 305.5,-110 305.5,-129"/>
<text text-anchor="middle" x="282" y="-117" font-family="Helvetica,sans-Serif" font-size="10.00">vector</text>
</a>
</g>
</g>
<!-- Node21&#45;&gt;Node22 -->
<g id="edge25_Node000021_Node000022" class="edge">
<title>Node21&#45;&gt;Node22</title>
<g id="a_edge25_Node000021_Node000022"><a xlink:title=" ">
<path fill="none" stroke="#63b8ff" d="M422.17,-164.98C393.05,-155.74 346.52,-140.98 315.14,-131.02"/>
<polygon fill="#63b8ff" stroke="#63b8ff" points="316.12,-127.66 305.53,-127.97 314,-134.33 316.12,-127.66"/>
</a>
</g>
</g>
<!-- Node23 -->
<g id="Node000023" class="node">
<title>Node23</title>
<g id="a_Node000023"><a xlink:title=" ">
<polygon fill="#e0e0e0" stroke="#999999" points="476,-129 438,-129 438,-110 476,-110 476,-129"/>
<text text-anchor="middle" x="457" y="-117" font-family="Helvetica,sans-Serif" font-size="10.00">map</text>
</a>
</g>
</g>
<!-- Node21&#45;&gt;Node23 -->
<g id="edge26_Node000021_Node000023" class="edge">
<title>Node21&#45;&gt;Node23</title>
<g id="a_edge26_Node000021_Node000023"><a xlink:title=" ">
<path fill="none" stroke="#63b8ff" d="M450.32,-164.75C451.37,-157.8 452.87,-147.85 454.19,-139.13"/>
<polygon fill="#63b8ff" stroke="#63b8ff" points="457.67,-139.5 455.7,-129.09 450.75,-138.45 457.67,-139.5"/>
</a>
</g>
</g>
<!-- Node24&#45;&gt;Node11 -->
<g id="edge31_Node000024_Node000011" class="edge">
<title>Node24&#45;&gt;Node11</title>
<g id="a_edge31_Node000024_Node000011"><a xlink:title=" ">
<path fill="none" stroke="#63b8ff" d="M514.37,-219.77C526.28,-211.54 543.68,-198.36 556,-184 567.92,-170.11 578.1,-151.85 584.74,-138.48"/>
<polygon fill="#63b8ff" stroke="#63b8ff" points="587.95,-139.89 589.11,-129.36 581.63,-136.87 587.95,-139.89"/>
</a>
</g>
</g>
<!-- Node24&#45;&gt;Node12 -->
<g id="edge29_Node000024_Node000012" class="edge">
<title>Node24&#45;&gt;Node12</title>
<g id="a_edge29_Node000024_Node000012"><a xlink:title=" ">
<path fill="none" stroke="#63b8ff" d="M502.53,-219.95C508.27,-187.88 528.6,-74.2 536.67,-29.12"/>
<polygon fill="#63b8ff" stroke="#63b8ff" points="540.12,-29.68 538.44,-19.22 533.23,-28.45 540.12,-29.68"/>
</a>
</g>
</g>
<!-- Node25 -->
<g id="Node000025" class="node">
<title>Node25</title>
<g id="a_Node000025"><a xlink:title=" ">
<polygon fill="#e0e0e0" stroke="#999999" points="240.5,-129 147.5,-129 147.5,-110 240.5,-110 240.5,-129"/>
<text text-anchor="middle" x="194" y="-117" font-family="Helvetica,sans-Serif" font-size="10.00">unordered_map</text>
</a>
</g>
</g>
<!-- Node24&#45;&gt;Node25 -->
<g id="edge30_Node000024_Node000025" class="edge">
<title>Node24&#45;&gt;Node25</title>
<g id="a_edge30_Node000024_Node000025"><a xlink:title=" ">
<path fill="none" stroke="#63b8ff" d="M470.22,-221.93C425.73,-212.29 345.74,-194.31 318,-184 312.94,-182.12 254.52,-151.92 219.71,-133.86"/>
<polygon fill="#63b8ff" stroke="#63b8ff" points="221.06,-130.62 210.57,-129.12 217.84,-136.83 221.06,-130.62"/>
</a>
</g>
</g>
<!-- Node26 -->
<g id="Node000026" class="node">
<title>Node26</title>
<g id="a_Node000026"><a xlink:href="../../da/de1/linkedmap_8h.html" target="_top" xlink:title=" ">
<polygon fill="white" stroke="#666666" points="404.5,-184 327.5,-184 327.5,-165 404.5,-165 404.5,-184"/>
<text text-anchor="middle" x="366" y="-172" font-family="Helvetica,sans-Serif" font-size="10.00">linkedmap.h</text>
</a>
</g>
</g>
<!-- Node24&#45;&gt;Node26 -->
<g id="edge32_Node000024_Node000026" class="edge">
<title>Node24&#45;&gt;Node26</title>
<g id="a_edge32_Node000024_Node000026"><a xlink:title=" ">
<path fill="none" stroke="#63b8ff" d="M479.31,-219.98C457.2,-211.3 422.68,-197.75 397.55,-187.88"/>
<polygon fill="#63b8ff" stroke="#63b8ff" points="398.67,-184.57 388.08,-184.17 396.11,-191.08 398.67,-184.57"/>
</a>
</g>
</g>
<!-- Node26&#45;&gt;Node2 -->
<g id="edge35_Node000026_Node000002" class="edge">
<title>Node26&#45;&gt;Node2</title>
<g id="a_edge35_Node000026_Node000002"><a xlink:title=" ">
<path fill="none" stroke="#63b8ff" d="M327.15,-168.63C271.81,-161.49 166.91,-147.23 67.87,-129.04"/>
<polygon fill="#63b8ff" stroke="#63b8ff" points="68.47,-125.6 58,-127.21 67.2,-132.48 68.47,-125.6"/>
</a>
</g>
</g>
<!-- Node26&#45;&gt;Node11 -->
<g id="edge39_Node000026_Node000011" class="edge">
<title>Node26&#45;&gt;Node11</title>
<g id="a_edge39_Node000026_Node000011"><a xlink:title=" ">
<path fill="none" stroke="#63b8ff" d="M402.47,-164.98C442.85,-155.56 507.85,-140.38 550.5,-130.42"/>
<polygon fill="#63b8ff" stroke="#63b8ff" points="551.36,-133.82 560.3,-128.13 549.77,-127 551.36,-133.82"/>
</a>
</g>
</g>
<!-- Node26&#45;&gt;Node12 -->
<g id="edge36_Node000026_Node000012" class="edge">
<title>Node26&#45;&gt;Node12</title>
<g id="a_edge36_Node000026_Node000012"><a xlink:title=" ">
<path fill="none" stroke="#63b8ff" d="M358.84,-164.7C342.47,-143.48 305.76,-88.72 333,-55 354.61,-28.25 455.21,-16.83 507.79,-12.62"/>
<polygon fill="#63b8ff" stroke="#63b8ff" points="508.23,-16.1 517.93,-11.85 507.7,-9.12 508.23,-16.1"/>
</a>
</g>
</g>
<!-- Node26&#45;&gt;Node13 -->
<g id="edge37_Node000026_Node000013" class="edge">
<title>Node26&#45;&gt;Node13</title>
<g id="a_edge37_Node000026_Node000013"><a xlink:title=" ">
<path fill="none" stroke="#63b8ff" d="M366.65,-164.66C367.95,-147.17 370.87,-107.8 372.61,-84.27"/>
<polygon fill="#63b8ff" stroke="#63b8ff" points="376.11,-84.39 373.36,-74.16 369.13,-83.87 376.11,-84.39"/>
</a>
</g>
</g>
<!-- Node26&#45;&gt;Node14 -->
<g id="edge38_Node000026_Node000014" class="edge">
<title>Node26&#45;&gt;Node14</title>
<g id="a_edge38_Node000026_Node000014"><a xlink:title=" ">
<path fill="none" stroke="#63b8ff" d="M372.79,-164.66C386.6,-146.69 418.15,-105.64 436.02,-82.38"/>
<polygon fill="#63b8ff" stroke="#63b8ff" points="439.03,-84.22 442.35,-74.16 433.48,-79.95 439.03,-84.22"/>
</a>
</g>
</g>
<!-- Node26&#45;&gt;Node22 -->
<g id="edge34_Node000026_Node000022" class="edge">
<title>Node26&#45;&gt;Node22</title>
<g id="a_edge34_Node000026_Node000022"><a xlink:title=" ">
<path fill="none" stroke="#63b8ff" d="M352.5,-164.98C339.6,-156.84 319.9,-144.41 304.6,-134.76"/>
<polygon fill="#63b8ff" stroke="#63b8ff" points="306.07,-131.55 295.74,-129.17 302.33,-137.47 306.07,-131.55"/>
</a>
</g>
</g>
<!-- Node26&#45;&gt;Node25 -->
<g id="edge33_Node000026_Node000025" class="edge">
<title>Node26&#45;&gt;Node25</title>
<g id="a_edge33_Node000026_Node000025"><a xlink:title=" ">
<path fill="none" stroke="#63b8ff" d="M338.37,-164.98C309.49,-156.09 263.99,-142.07 231.8,-132.15"/>
<polygon fill="#63b8ff" stroke="#63b8ff" points="232.44,-128.68 221.85,-129.08 230.38,-135.37 232.44,-128.68"/>
</a>
</g>
</g>
<!-- Node27&#45;&gt;Node8 -->
<g id="edge42_Node000027_Node000008" class="edge">
<title>Node27&#45;&gt;Node8</title>
<g id="a_edge42_Node000027_Node000008"><a xlink:title=" ">
<path fill="none" stroke="#63b8ff" d="M846.71,-164.98C811.81,-155.78 756.15,-141.11 718.39,-131.15"/>
<polygon fill="#63b8ff" stroke="#63b8ff" points="718.8,-127.64 708.24,-128.47 717.02,-134.41 718.8,-127.64"/>
</a>
</g>
</g>
<!-- Node27&#45;&gt;Node9 -->
<g id="edge46_Node000027_Node000009" class="edge">
<title>Node27&#45;&gt;Node9</title>
<g id="a_edge46_Node000027_Node000009"><a xlink:title=" ">
<path fill="none" stroke="#63b8ff" d="M866.31,-164.98C854.17,-156.84 835.64,-144.41 821.25,-134.76"/>
<polygon fill="#63b8ff" stroke="#63b8ff" points="823.18,-131.84 812.92,-129.17 819.28,-137.65 823.18,-131.84"/>
</a>
</g>
</g>
<!-- Node27&#45;&gt;Node11 -->
<g id="edge48_Node000027_Node000011" class="edge">
<title>Node27&#45;&gt;Node11</title>
<g id="a_edge48_Node000027_Node000011"><a xlink:title=" ">
<path fill="none" stroke="#63b8ff" d="M838.93,-166.07C785.35,-156.15 690.75,-138.62 635.81,-128.43"/>
<polygon fill="#63b8ff" stroke="#63b8ff" points="636.18,-124.94 625.7,-126.56 634.9,-131.82 636.18,-124.94"/>
</a>
</g>
</g>
<!-- Node27&#45;&gt;Node12 -->
<g id="edge41_Node000027_Node000012" class="edge">
<title>Node27&#45;&gt;Node12</title>
<g id="a_edge41_Node000027_Node000012"><a xlink:title=" ">
<path fill="none" stroke="#63b8ff" d="M889.16,-164.79C912.53,-143.77 965.78,-89.44 935,-55 910.94,-28.08 662.32,-15.44 572.31,-11.72"/>
<polygon fill="#63b8ff" stroke="#63b8ff" points="572.28,-8.21 562.14,-11.31 571.99,-15.21 572.28,-8.21"/>
</a>
</g>
</g>
<!-- Node27&#45;&gt;Node16 -->
<g id="edge45_Node000027_Node000016" class="edge">
<title>Node27&#45;&gt;Node16</title>
<g id="a_edge45_Node000027_Node000016"><a xlink:title=" ">
<path fill="none" stroke="#63b8ff" d="M880.96,-164.66C884.87,-147.09 893.68,-107.45 898.9,-83.95"/>
<polygon fill="#63b8ff" stroke="#63b8ff" points="902.32,-84.68 901.08,-74.16 895.49,-83.16 902.32,-84.68"/>
</a>
</g>
</g>
<!-- Node27&#45;&gt;Node18 -->
<g id="edge44_Node000027_Node000018" class="edge">
<title>Node27&#45;&gt;Node18</title>
<g id="a_edge44_Node000027_Node000018"><a xlink:title=" ">
<path fill="none" stroke="#63b8ff" d="M919.13,-171.25C976.06,-167.11 1075.84,-156.11 1098,-129 1103.34,-122.46 1102.66,-117.04 1098,-110 1050.9,-38.93 943.33,-18.62 887.34,-12.81"/>
<polygon fill="#63b8ff" stroke="#63b8ff" points="887.47,-9.31 877.19,-11.86 886.82,-16.28 887.47,-9.31"/>
</a>
</g>
</g>
<!-- Node28 -->
<g id="Node000028" class="node">
<title>Node28</title>
<g id="a_Node000028"><a xlink:title=" ">
<polygon fill="#e0e0e0" stroke="#999999" points="1001,-129 945,-129 945,-110 1001,-110 1001,-129"/>
<text text-anchor="middle" x="973" y="-117" font-family="Helvetica,sans-Serif" font-size="10.00">sstream</text>
</a>
</g>
</g>
<!-- Node27&#45;&gt;Node28 -->
<g id="edge43_Node000027_Node000028" class="edge">
<title>Node27&#45;&gt;Node28</title>
<g id="a_edge43_Node000027_Node000028"><a xlink:title=" ">
<path fill="none" stroke="#63b8ff" d="M894.1,-164.98C908.82,-156.69 931.42,-143.94 948.67,-134.22"/>
<polygon fill="#63b8ff" stroke="#63b8ff" points="950.63,-137.13 957.62,-129.17 947.19,-131.03 950.63,-137.13"/>
</a>
</g>
</g>
<!-- Node29 -->
<g id="Node000029" class="node">
<title>Node29</title>
<g id="a_Node000029"><a xlink:title=" ">
<polygon fill="#e0e0e0" stroke="#999999" points="1088.5,-129 1019.5,-129 1019.5,-110 1088.5,-110 1088.5,-129"/>
<text text-anchor="middle" x="1054" y="-117" font-family="Helvetica,sans-Serif" font-size="10.00">type_traits</text>
</a>
</g>
</g>
<!-- Node27&#45;&gt;Node29 -->
<g id="edge47_Node000027_Node000029" class="edge">
<title>Node27&#45;&gt;Node29</title>
<g id="a_edge47_Node000027_Node000029"><a xlink:title=" ">
<path fill="none" stroke="#63b8ff" d="M907.12,-164.98C936.62,-156.05 983.19,-141.94 1015.97,-132.02"/>
<polygon fill="#63b8ff" stroke="#63b8ff" points="1017.11,-135.33 1025.66,-129.08 1015.08,-128.63 1017.11,-135.33"/>
</a>
</g>
</g>
<!-- Node30&#45;&gt;Node2 -->
<g id="edge51_Node000030_Node000002" class="edge">
<title>Node30&#45;&gt;Node2</title>
<g id="a_edge51_Node000030_Node000002"><a xlink:title=" ">
<path fill="none" stroke="#63b8ff" d="M210.87,-219.93C183.54,-212.49 145.16,-200.35 114,-184 88.44,-170.59 62.33,-149.8 45.91,-135.7"/>
<polygon fill="#63b8ff" stroke="#63b8ff" points="48.1,-132.96 38.27,-129.01 43.49,-138.23 48.1,-132.96"/>
</a>
</g>
</g>
<!-- Node30&#45;&gt;Node11 -->
<g id="edge52_Node000030_Node000011" class="edge">
<title>Node30&#45;&gt;Node11</title>
<g id="a_edge52_Node000030_Node000011"><a xlink:title=" ">
<path fill="none" stroke="#63b8ff" d="M282.51,-225.58C330.13,-220.9 415.45,-209.5 484,-184 517.08,-171.69 551.7,-149.72 572.82,-135.12"/>
<polygon fill="#63b8ff" stroke="#63b8ff" points="575.1,-137.8 581.26,-129.18 571.07,-132.08 575.1,-137.8"/>
</a>
</g>
</g>
<!-- Node31 -->
<g id="Node000031" class="node">
<title>Node31</title>
<g id="a_Node000031"><a xlink:title=" ">
<polygon fill="#e0e0e0" stroke="#999999" points="271,-184 221,-184 221,-165 271,-165 271,-184"/>
<text text-anchor="middle" x="246" y="-172" font-family="Helvetica,sans-Serif" font-size="10.00">stdio.h</text>
</a>
</g>
</g>
<!-- Node30&#45;&gt;Node31 -->
<g id="edge50_Node000030_Node000031" class="edge">
<title>Node30&#45;&gt;Node31</title>
<g id="a_edge50_Node000030_Node000031"><a xlink:title=" ">
<path fill="none" stroke="#63b8ff" d="M246,-219.75C246,-212.8 246,-202.85 246,-194.13"/>
<polygon fill="#63b8ff" stroke="#63b8ff" points="249.5,-194.09 246,-184.09 242.5,-194.09 249.5,-194.09"/>
</a>
</g>
</g>
<!-- Node32 -->
<g id="Node000032" class="node">
<title>Node32</title>
<g id="a_Node000032"><a xlink:href="../../d7/d50/growvector_8h.html" target="_top" xlink:title=" ">
<polygon fill="white" stroke="#666666" points="203,-184 123,-184 123,-165 203,-165 203,-184"/>
<text text-anchor="middle" x="163" y="-172" font-family="Helvetica,sans-Serif" font-size="10.00">growvector.h</text>
</a>
</g>
</g>
<!-- Node30&#45;&gt;Node32 -->
<g id="edge53_Node000030_Node000032" class="edge">
<title>Node30&#45;&gt;Node32</title>
<g id="a_edge53_Node000030_Node000032"><a xlink:title=" ">
<path fill="none" stroke="#63b8ff" d="M232.66,-219.98C219.91,-211.84 200.45,-199.41 185.33,-189.76"/>
<polygon fill="#63b8ff" stroke="#63b8ff" points="186.89,-186.6 176.58,-184.17 183.12,-192.5 186.89,-186.6"/>
</a>
</g>
</g>
<!-- Node32&#45;&gt;Node2 -->
<g id="edge55_Node000032_Node000002" class="edge">
<title>Node32&#45;&gt;Node2</title>
<g id="a_edge55_Node000032_Node000002"><a xlink:title=" ">
<path fill="none" stroke="#63b8ff" d="M141.47,-164.98C119.53,-156.3 85.26,-142.75 60.31,-132.88"/>
<polygon fill="#63b8ff" stroke="#63b8ff" points="61.51,-129.59 50.92,-129.17 58.93,-136.1 61.51,-129.59"/>
</a>
</g>
</g>
<!-- Node32&#45;&gt;Node22 -->
<g id="edge54_Node000032_Node000022" class="edge">
<title>Node32&#45;&gt;Node22</title>
<g id="a_edge54_Node000032_Node000022"><a xlink:title=" ">
<path fill="none" stroke="#63b8ff" d="M182.12,-164.98C201.35,-156.42 231.23,-143.11 253.31,-133.28"/>
<polygon fill="#63b8ff" stroke="#63b8ff" points="254.82,-136.44 262.53,-129.17 251.97,-130.04 254.82,-136.44"/>
</a>
</g>
</g>
<!-- Node33 -->
<g id="Node000033" class="node">
<title>Node33</title>
<g id="a_Node000033"><a xlink:title=" ">
<polygon fill="#e0e0e0" stroke="#999999" points="129.5,-129 76.5,-129 76.5,-110 129.5,-110 129.5,-129"/>
<text text-anchor="middle" x="103" y="-117" font-family="Helvetica,sans-Serif" font-size="10.00">iterator</text>
</a>
</g>
</g>
<!-- Node32&#45;&gt;Node33 -->
<g id="edge56_Node000032_Node000033" class="edge">
<title>Node32&#45;&gt;Node33</title>
<g id="a_edge56_Node000032_Node000033"><a xlink:title=" ">
<path fill="none" stroke="#63b8ff" d="M153.36,-164.98C144.49,-157.15 131.13,-145.34 120.39,-135.86"/>
<polygon fill="#63b8ff" stroke="#63b8ff" points="122.63,-133.17 112.82,-129.17 117.99,-138.41 122.63,-133.17"/>
</a>
</g>
</g>
</g>
</svg>
