<?xml version="1.0" encoding="UTF-8" standalone="no"?>
<!DOCTYPE svg PUBLIC "-//W3C//DTD SVG 1.1//EN"
 "http://www.w3.org/Graphics/SVG/1.1/DTD/svg11.dtd">
<!-- Generated by graphviz version 2.43.0 (0)
 -->
<!-- Title: src/translator_adapter.h Pages: 1 -->
<svg width="1160pt" height="467pt"
 viewBox="0.00 0.00 1159.52 467.00" xmlns="http://www.w3.org/2000/svg" xmlns:xlink="http://www.w3.org/1999/xlink">
<g id="graph0" class="graph" transform="scale(1 1) rotate(0) translate(4 463)">
<title>src/translator_adapter.h</title>
<!-- Node1 -->
<g id="Node000001" class="node">
<title>Node1</title>
<g id="a_Node000001"><a xlink:title=" ">
<polygon fill="#999999" stroke="#666666" points="180.55,-459 48.55,-459 48.55,-440 180.55,-440 180.55,-459"/>
<text text-anchor="middle" x="114.55" y="-447" font-family="Helvetica,sans-Serif" font-size="10.00">src/translator_adapter.h</text>
</a>
</g>
</g>
<!-- Node2 -->
<g id="Node000002" class="node">
<title>Node2</title>
<g id="a_Node000002"><a xlink:title=" ">
<polygon fill="#e0e0e0" stroke="#999999" points="103.55,-404 41.55,-404 41.55,-385 103.55,-385 103.55,-404"/>
<text text-anchor="middle" x="72.55" y="-392" font-family="Helvetica,sans-Serif" font-size="10.00">version.h</text>
</a>
</g>
</g>
<!-- Node1&#45;&gt;Node2 -->
<g id="edge1_Node000001_Node000002" class="edge">
<title>Node1&#45;&gt;Node2</title>
<g id="a_edge1_Node000001_Node000002"><a xlink:title=" ">
<path fill="none" stroke="#63b8ff" d="M107.61,-439.75C101.68,-432.26 92.97,-421.28 85.72,-412.13"/>
<polygon fill="#63b8ff" stroke="#63b8ff" points="88.31,-409.75 79.35,-404.09 82.82,-414.1 88.31,-409.75"/>
</a>
</g>
</g>
<!-- Node3 -->
<g id="Node000003" class="node">
<title>Node3</title>
<g id="a_Node000003"><a xlink:href="../../d9/df1/translator_8h.html" target="_top" xlink:title=" ">
<polygon fill="white" stroke="#666666" points="193.55,-404 121.55,-404 121.55,-385 193.55,-385 193.55,-404"/>
<text text-anchor="middle" x="157.55" y="-392" font-family="Helvetica,sans-Serif" font-size="10.00">translator.h</text>
</a>
</g>
</g>
<!-- Node1&#45;&gt;Node3 -->
<g id="edge2_Node000001_Node000003" class="edge">
<title>Node1&#45;&gt;Node3</title>
<g id="a_edge2_Node000001_Node000003"><a xlink:title=" ">
<path fill="none" stroke="#63b8ff" d="M121.65,-439.75C127.72,-432.26 136.63,-421.28 144.06,-412.13"/>
<polygon fill="#63b8ff" stroke="#63b8ff" points="147,-414.06 150.58,-404.09 141.56,-409.65 147,-414.06"/>
</a>
</g>
</g>
<!-- Node4 -->
<g id="Node000004" class="node">
<title>Node4</title>
<g id="a_Node000004"><a xlink:href="../../d1/da6/classdef_8h.html" target="_top" xlink:title=" ">
<polygon fill="white" stroke="#666666" points="541.05,-349 476.05,-349 476.05,-330 541.05,-330 541.05,-349"/>
<text text-anchor="middle" x="508.55" y="-337" font-family="Helvetica,sans-Serif" font-size="10.00">classdef.h</text>
</a>
</g>
</g>
<!-- Node3&#45;&gt;Node4 -->
<g id="edge3_Node000003_Node000004" class="edge">
<title>Node3&#45;&gt;Node4</title>
<g id="a_edge3_Node000003_Node000004"><a xlink:title=" ">
<path fill="none" stroke="#63b8ff" d="M193.79,-388.03C259.01,-378.18 395.86,-357.52 465.65,-346.98"/>
<polygon fill="#63b8ff" stroke="#63b8ff" points="466.48,-350.39 475.84,-345.44 465.43,-343.47 466.48,-350.39"/>
</a>
</g>
</g>
<!-- Node28 -->
<g id="Node000028" class="node">
<title>Node28</title>
<g id="a_Node000028"><a xlink:href="../../d7/dfc/construct_8h.html" target="_top" xlink:title=" ">
<polygon fill="white" stroke="#666666" points="218.05,-184 147.05,-184 147.05,-165 218.05,-165 218.05,-184"/>
<text text-anchor="middle" x="182.55" y="-172" font-family="Helvetica,sans-Serif" font-size="10.00">construct.h</text>
</a>
</g>
</g>
<!-- Node3&#45;&gt;Node28 -->
<g id="edge68_Node000003_Node000028" class="edge">
<title>Node3&#45;&gt;Node28</title>
<g id="a_edge68_Node000003_Node000028"><a xlink:title=" ">
<path fill="none" stroke="#63b8ff" d="M153.74,-384.78C142.91,-358.66 114.25,-279.14 138.55,-220 143.35,-208.31 152.88,-198.05 161.85,-190.34"/>
<polygon fill="#63b8ff" stroke="#63b8ff" points="164.14,-192.98 169.77,-184 159.77,-187.51 164.14,-192.98"/>
</a>
</g>
</g>
<!-- Node32 -->
<g id="Node000032" class="node">
<title>Node32</title>
<g id="a_Node000032"><a xlink:href="../../db/d16/config_8h.html" target="_top" xlink:title=" ">
<polygon fill="white" stroke="#666666" points="822.05,-349 767.05,-349 767.05,-330 822.05,-330 822.05,-349"/>
<text text-anchor="middle" x="794.55" y="-337" font-family="Helvetica,sans-Serif" font-size="10.00">config.h</text>
</a>
</g>
</g>
<!-- Node3&#45;&gt;Node32 -->
<g id="edge57_Node000003_Node000032" class="edge">
<title>Node3&#45;&gt;Node32</title>
<g id="a_edge57_Node000003_Node000032"><a xlink:title=" ">
<path fill="none" stroke="#63b8ff" d="M193.62,-390.5C305.04,-381.23 643.04,-353.11 756.75,-343.64"/>
<polygon fill="#63b8ff" stroke="#63b8ff" points="757.37,-347.11 767.04,-342.79 756.79,-340.13 757.37,-347.11"/>
</a>
</g>
</g>
<!-- Node33 -->
<g id="Node000033" class="node">
<title>Node33</title>
<g id="a_Node000033"><a xlink:href="../../de/d1b/datetime_8h.html" target="_top" xlink:title=" ">
<polygon fill="white" stroke="#666666" points="80.55,-349 10.55,-349 10.55,-330 80.55,-330 80.55,-349"/>
<text text-anchor="middle" x="45.55" y="-337" font-family="Helvetica,sans-Serif" font-size="10.00">datetime.h</text>
</a>
</g>
</g>
<!-- Node3&#45;&gt;Node33 -->
<g id="edge59_Node000003_Node000033" class="edge">
<title>Node3&#45;&gt;Node33</title>
<g id="a_edge59_Node000003_Node000033"><a xlink:title=" ">
<path fill="none" stroke="#63b8ff" d="M139.55,-384.98C121.62,-376.5 93.83,-363.35 73.11,-353.54"/>
<polygon fill="#63b8ff" stroke="#63b8ff" points="74.4,-350.28 63.87,-349.17 71.41,-356.61 74.4,-350.28"/>
</a>
</g>
</g>
<!-- Node35 -->
<g id="Node000035" class="node">
<title>Node35</title>
<g id="a_Node000035"><a xlink:href="../../d1/db5/index_8h.html" target="_top" xlink:title=" ">
<polygon fill="white" stroke="#666666" points="311.05,-239 258.05,-239 258.05,-220 311.05,-220 311.05,-239"/>
<text text-anchor="middle" x="284.55" y="-227" font-family="Helvetica,sans-Serif" font-size="10.00">index.h</text>
</a>
</g>
</g>
<!-- Node3&#45;&gt;Node35 -->
<g id="edge62_Node000003_Node000035" class="edge">
<title>Node3&#45;&gt;Node35</title>
<g id="a_edge62_Node000003_Node000035"><a xlink:title=" ">
<path fill="none" stroke="#63b8ff" d="M164.37,-384.74C184.62,-358.76 244.56,-281.83 271.35,-247.44"/>
<polygon fill="#63b8ff" stroke="#63b8ff" points="274.3,-249.35 277.68,-239.31 268.78,-245.04 274.3,-249.35"/>
</a>
</g>
</g>
<!-- Node5 -->
<g id="Node000005" class="node">
<title>Node5</title>
<g id="a_Node000005"><a xlink:title=" ">
<polygon fill="#e0e0e0" stroke="#999999" points="758.55,-129 700.55,-129 700.55,-110 758.55,-110 758.55,-129"/>
<text text-anchor="middle" x="729.55" y="-117" font-family="Helvetica,sans-Serif" font-size="10.00">memory</text>
</a>
</g>
</g>
<!-- Node4&#45;&gt;Node5 -->
<g id="edge4_Node000004_Node000005" class="edge">
<title>Node4&#45;&gt;Node5</title>
<g id="a_edge4_Node000004_Node000005"><a xlink:title=" ">
<path fill="none" stroke="#63b8ff" d="M536.31,-329.98C579.74,-315.79 665.11,-284.32 726.55,-239 758.29,-215.58 790.94,-201.32 775.55,-165 770.57,-153.25 760.8,-143.09 751.54,-135.45"/>
<polygon fill="#63b8ff" stroke="#63b8ff" points="753.4,-132.47 743.33,-129.18 749.15,-138.03 753.4,-132.47"/>
</a>
</g>
</g>
<!-- Node6 -->
<g id="Node000006" class="node">
<title>Node6</title>
<g id="a_Node000006"><a xlink:title=" ">
<polygon fill="#e0e0e0" stroke="#999999" points="423.05,-129 376.05,-129 376.05,-110 423.05,-110 423.05,-129"/>
<text text-anchor="middle" x="399.55" y="-117" font-family="Helvetica,sans-Serif" font-size="10.00">vector</text>
</a>
</g>
</g>
<!-- Node4&#45;&gt;Node6 -->
<g id="edge5_Node000004_Node000006" class="edge">
<title>Node4&#45;&gt;Node6</title>
<g id="a_edge5_Node000004_Node000006"><a xlink:title=" ">
<path fill="none" stroke="#63b8ff" d="M494.76,-329.79C482.46,-321.58 464.45,-308.4 451.55,-294 432.36,-272.6 427.46,-265.97 417.55,-239 405.15,-205.26 401.28,-163.1 400.08,-139.25"/>
<polygon fill="#63b8ff" stroke="#63b8ff" points="403.58,-138.98 399.68,-129.12 396.58,-139.25 403.58,-138.98"/>
</a>
</g>
</g>
<!-- Node7 -->
<g id="Node000007" class="node">
<title>Node7</title>
<g id="a_Node000007"><a xlink:title=" ">
<polygon fill="#e0e0e0" stroke="#999999" points="968.55,-184 882.55,-184 882.55,-165 968.55,-165 968.55,-184"/>
<text text-anchor="middle" x="925.55" y="-172" font-family="Helvetica,sans-Serif" font-size="10.00">unordered_set</text>
</a>
</g>
</g>
<!-- Node4&#45;&gt;Node7 -->
<g id="edge6_Node000004_Node000007" class="edge">
<title>Node4&#45;&gt;Node7</title>
<g id="a_edge6_Node000004_Node000007"><a xlink:title=" ">
<path fill="none" stroke="#63b8ff" d="M541.19,-338.37C619.71,-337.45 816.5,-331.37 868.55,-294 901.97,-270 916.59,-221.05 922.31,-194.18"/>
<polygon fill="#63b8ff" stroke="#63b8ff" points="925.78,-194.64 924.24,-184.16 918.91,-193.31 925.78,-194.64"/>
</a>
</g>
</g>
<!-- Node8 -->
<g id="Node000008" class="node">
<title>Node8</title>
<g id="a_Node000008"><a xlink:href="../../d5/d75/containers_8h.html" target="_top" xlink:title=" ">
<polygon fill="white" stroke="#666666" points="1035.05,-239 958.05,-239 958.05,-220 1035.05,-220 1035.05,-239"/>
<text text-anchor="middle" x="996.55" y="-227" font-family="Helvetica,sans-Serif" font-size="10.00">containers.h</text>
</a>
</g>
</g>
<!-- Node4&#45;&gt;Node8 -->
<g id="edge7_Node000004_Node000008" class="edge">
<title>Node4&#45;&gt;Node8</title>
<g id="a_edge7_Node000004_Node000008"><a xlink:title=" ">
<path fill="none" stroke="#63b8ff" d="M541.1,-336.95C623.73,-332.68 839.76,-319.36 906.55,-294 935.12,-283.15 963.1,-261.09 980.09,-246.05"/>
<polygon fill="#63b8ff" stroke="#63b8ff" points="982.45,-248.63 987.5,-239.31 977.74,-243.45 982.45,-248.63"/>
</a>
</g>
</g>
<!-- Node15 -->
<g id="Node000015" class="node">
<title>Node15</title>
<g id="a_Node000015"><a xlink:href="../../df/da1/definition_8h.html" target="_top" xlink:title=" ">
<polygon fill="white" stroke="#666666" points="370.05,-294 299.05,-294 299.05,-275 370.05,-275 370.05,-294"/>
<text text-anchor="middle" x="334.55" y="-282" font-family="Helvetica,sans-Serif" font-size="10.00">definition.h</text>
</a>
</g>
</g>
<!-- Node4&#45;&gt;Node15 -->
<g id="edge16_Node000004_Node000015" class="edge">
<title>Node4&#45;&gt;Node15</title>
<g id="a_edge16_Node000004_Node000015"><a xlink:title=" ">
<path fill="none" stroke="#63b8ff" d="M480.59,-329.98C451.25,-321.05 404.95,-306.94 372.36,-297.02"/>
<polygon fill="#63b8ff" stroke="#63b8ff" points="373.31,-293.65 362.72,-294.08 371.27,-300.34 373.31,-293.65"/>
</a>
</g>
</g>
<!-- Node29 -->
<g id="Node000029" class="node">
<title>Node29</title>
<g id="a_Node000029"><a xlink:href="../../df/d9b/arguments_8h.html" target="_top" xlink:title=" ">
<polygon fill="white" stroke="#666666" points="128.55,-184 50.55,-184 50.55,-165 128.55,-165 128.55,-184"/>
<text text-anchor="middle" x="89.55" y="-172" font-family="Helvetica,sans-Serif" font-size="10.00">arguments.h</text>
</a>
</g>
</g>
<!-- Node4&#45;&gt;Node29 -->
<g id="edge47_Node000004_Node000029" class="edge">
<title>Node4&#45;&gt;Node29</title>
<g id="a_edge47_Node000004_Node000029"><a xlink:title=" ">
<path fill="none" stroke="#63b8ff" d="M476.03,-337.44C407.23,-333.66 244.59,-316.55 138.55,-239 121.74,-226.71 107.85,-207.12 99.21,-192.95"/>
<polygon fill="#63b8ff" stroke="#63b8ff" points="102.14,-191.03 94.09,-184.15 96.09,-194.56 102.14,-191.03"/>
</a>
</g>
</g>
<!-- Node30 -->
<g id="Node000030" class="node">
<title>Node30</title>
<g id="a_Node000030"><a xlink:href="../../d9/d11/membergroup_8h.html" target="_top" xlink:title=" ">
<polygon fill="white" stroke="#666666" points="556.05,-294 461.05,-294 461.05,-275 556.05,-275 556.05,-294"/>
<text text-anchor="middle" x="508.55" y="-282" font-family="Helvetica,sans-Serif" font-size="10.00">membergroup.h</text>
</a>
</g>
</g>
<!-- Node4&#45;&gt;Node30 -->
<g id="edge50_Node000004_Node000030" class="edge">
<title>Node4&#45;&gt;Node30</title>
<g id="a_edge50_Node000004_Node000030"><a xlink:title=" ">
<path fill="none" stroke="#63b8ff" d="M508.55,-329.75C508.55,-322.8 508.55,-312.85 508.55,-304.13"/>
<polygon fill="#63b8ff" stroke="#63b8ff" points="512.05,-304.09 508.55,-294.09 505.05,-304.09 512.05,-304.09"/>
</a>
</g>
</g>
<!-- Node31 -->
<g id="Node000031" class="node">
<title>Node31</title>
<g id="a_Node000031"><a xlink:title=" ">
<polygon fill="#e0e0e0" stroke="#999999" points="1046.05,-294 959.05,-294 959.05,-275 1046.05,-275 1046.05,-294"/>
<text text-anchor="middle" x="1002.55" y="-282" font-family="Helvetica,sans-Serif" font-size="10.00">configvalues.h</text>
</a>
</g>
</g>
<!-- Node4&#45;&gt;Node31 -->
<g id="edge56_Node000004_Node000031" class="edge">
<title>Node4&#45;&gt;Node31</title>
<g id="a_edge56_Node000004_Node000031"><a xlink:title=" ">
<path fill="none" stroke="#63b8ff" d="M541.14,-335.66C613.72,-329.24 794.1,-312.69 944.55,-294 946,-293.82 947.47,-293.63 948.95,-293.44"/>
<polygon fill="#63b8ff" stroke="#63b8ff" points="949.42,-296.91 958.87,-292.11 948.49,-289.97 949.42,-296.91"/>
</a>
</g>
</g>
<!-- Node8&#45;&gt;Node6 -->
<g id="edge8_Node000008_Node000006" class="edge">
<title>Node8&#45;&gt;Node6</title>
<g id="a_edge8_Node000008_Node000006"><a xlink:title=" ">
<path fill="none" stroke="#63b8ff" d="M957.74,-229.34C876.87,-230.11 685.05,-226.8 531.55,-184 520.63,-180.96 460.92,-151.37 425.66,-133.67"/>
<polygon fill="#63b8ff" stroke="#63b8ff" points="426.93,-130.4 416.42,-129.03 423.79,-136.65 426.93,-130.4"/>
</a>
</g>
</g>
<!-- Node8&#45;&gt;Node7 -->
<g id="edge13_Node000008_Node000007" class="edge">
<title>Node8&#45;&gt;Node7</title>
<g id="a_edge13_Node000008_Node000007"><a xlink:title=" ">
<path fill="none" stroke="#63b8ff" d="M985.14,-219.98C974.44,-212 958.21,-199.88 945.38,-190.31"/>
<polygon fill="#63b8ff" stroke="#63b8ff" points="947.27,-187.35 937.16,-184.17 943.08,-192.96 947.27,-187.35"/>
</a>
</g>
</g>
<!-- Node9 -->
<g id="Node000009" class="node">
<title>Node9</title>
<g id="a_Node000009"><a xlink:title=" ">
<polygon fill="#e0e0e0" stroke="#999999" points="250.55,-19 206.55,-19 206.55,0 250.55,0 250.55,-19"/>
<text text-anchor="middle" x="228.55" y="-7" font-family="Helvetica,sans-Serif" font-size="10.00">string</text>
</a>
</g>
</g>
<!-- Node8&#45;&gt;Node9 -->
<g id="edge9_Node000008_Node000009" class="edge">
<title>Node8&#45;&gt;Node9</title>
<g id="a_edge9_Node000008_Node000009"><a xlink:title=" ">
<path fill="none" stroke="#63b8ff" d="M1035.25,-225.6C1088.86,-220.08 1175.77,-204.82 1144.55,-165 1032.65,-22.31 410.55,-11.09 260.92,-10.47"/>
<polygon fill="#63b8ff" stroke="#63b8ff" points="260.6,-6.97 250.59,-10.44 260.58,-13.97 260.6,-6.97"/>
</a>
</g>
</g>
<!-- Node10 -->
<g id="Node000010" class="node">
<title>Node10</title>
<g id="a_Node000010"><a xlink:title=" ">
<polygon fill="#e0e0e0" stroke="#999999" points="644.05,-74 571.05,-74 571.05,-55 644.05,-55 644.05,-74"/>
<text text-anchor="middle" x="607.55" y="-62" font-family="Helvetica,sans-Serif" font-size="10.00">string_view</text>
</a>
</g>
</g>
<!-- Node8&#45;&gt;Node10 -->
<g id="edge10_Node000008_Node000010" class="edge">
<title>Node8&#45;&gt;Node10</title>
<g id="a_edge10_Node000008_Node000010"><a xlink:title=" ">
<path fill="none" stroke="#63b8ff" d="M995.99,-219.74C994.74,-206.53 990.67,-181.32 977.55,-165 946.01,-125.77 926.08,-126.54 878.55,-110 802.82,-83.65 709.65,-72.71 654.62,-68.31"/>
<polygon fill="#63b8ff" stroke="#63b8ff" points="654.71,-64.81 644.47,-67.54 654.18,-71.79 654.71,-64.81"/>
</a>
</g>
</g>
<!-- Node11 -->
<g id="Node000011" class="node">
<title>Node11</title>
<g id="a_Node000011"><a xlink:title=" ">
<polygon fill="#e0e0e0" stroke="#999999" points="1056.55,-184 1024.55,-184 1024.55,-165 1056.55,-165 1056.55,-184"/>
<text text-anchor="middle" x="1040.55" y="-172" font-family="Helvetica,sans-Serif" font-size="10.00">set</text>
</a>
</g>
</g>
<!-- Node8&#45;&gt;Node11 -->
<g id="edge11_Node000008_Node000011" class="edge">
<title>Node8&#45;&gt;Node11</title>
<g id="a_edge11_Node000008_Node000011"><a xlink:title=" ">
<path fill="none" stroke="#63b8ff" d="M1003.81,-219.75C1010.09,-212.18 1019.33,-201.05 1026.98,-191.84"/>
<polygon fill="#63b8ff" stroke="#63b8ff" points="1029.72,-194.02 1033.42,-184.09 1024.33,-189.55 1029.72,-194.02"/>
</a>
</g>
</g>
<!-- Node12 -->
<g id="Node000012" class="node">
<title>Node12</title>
<g id="a_Node000012"><a xlink:title=" ">
<polygon fill="#e0e0e0" stroke="#999999" points="750.55,-184 712.55,-184 712.55,-165 750.55,-165 750.55,-184"/>
<text text-anchor="middle" x="731.55" y="-172" font-family="Helvetica,sans-Serif" font-size="10.00">map</text>
</a>
</g>
</g>
<!-- Node8&#45;&gt;Node12 -->
<g id="edge12_Node000008_Node000012" class="edge">
<title>Node8&#45;&gt;Node12</title>
<g id="a_edge12_Node000008_Node000012"><a xlink:title=" ">
<path fill="none" stroke="#63b8ff" d="M958.01,-220.79C904.5,-210.09 808.85,-190.96 760.79,-181.35"/>
<polygon fill="#63b8ff" stroke="#63b8ff" points="761.24,-177.87 750.75,-179.34 759.87,-184.73 761.24,-177.87"/>
</a>
</g>
</g>
<!-- Node13 -->
<g id="Node000013" class="node">
<title>Node13</title>
<g id="a_Node000013"><a xlink:title=" ">
<polygon fill="#e0e0e0" stroke="#999999" points="870.05,-129 777.05,-129 777.05,-110 870.05,-110 870.05,-129"/>
<text text-anchor="middle" x="823.55" y="-117" font-family="Helvetica,sans-Serif" font-size="10.00">unordered_map</text>
</a>
</g>
</g>
<!-- Node8&#45;&gt;Node13 -->
<g id="edge14_Node000008_Node000013" class="edge">
<title>Node8&#45;&gt;Node13</title>
<g id="a_edge14_Node000008_Node000013"><a xlink:title=" ">
<path fill="none" stroke="#63b8ff" d="M1035.45,-223.63C1083.81,-216.05 1156.63,-198.65 1127.55,-165 1096.25,-128.79 959.46,-121.48 880.45,-120.34"/>
<polygon fill="#63b8ff" stroke="#63b8ff" points="880.21,-116.84 870.17,-120.23 880.13,-123.84 880.21,-116.84"/>
</a>
</g>
</g>
<!-- Node14 -->
<g id="Node000014" class="node">
<title>Node14</title>
<g id="a_Node000014"><a xlink:title=" ">
<polygon fill="#e0e0e0" stroke="#999999" points="1118.05,-184 1075.05,-184 1075.05,-165 1118.05,-165 1118.05,-184"/>
<text text-anchor="middle" x="1096.55" y="-172" font-family="Helvetica,sans-Serif" font-size="10.00">stack</text>
</a>
</g>
</g>
<!-- Node8&#45;&gt;Node14 -->
<g id="edge15_Node000008_Node000014" class="edge">
<title>Node8&#45;&gt;Node14</title>
<g id="a_edge15_Node000008_Node000014"><a xlink:title=" ">
<path fill="none" stroke="#63b8ff" d="M1012.61,-219.98C1028.41,-211.61 1052.76,-198.7 1071.18,-188.95"/>
<polygon fill="#63b8ff" stroke="#63b8ff" points="1072.99,-191.95 1080.19,-184.17 1069.71,-185.76 1072.99,-191.95"/>
</a>
</g>
</g>
<!-- Node15&#45;&gt;Node6 -->
<g id="edge17_Node000015_Node000006" class="edge">
<title>Node15&#45;&gt;Node6</title>
<g id="a_edge17_Node000015_Node000006"><a xlink:title=" ">
<path fill="none" stroke="#63b8ff" d="M338.04,-274.74C348.27,-249.09 378.3,-173.78 392.26,-138.78"/>
<polygon fill="#63b8ff" stroke="#63b8ff" points="395.58,-139.89 396.03,-129.31 389.08,-137.3 395.58,-139.89"/>
</a>
</g>
</g>
<!-- Node16 -->
<g id="Node000016" class="node">
<title>Node16</title>
<g id="a_Node000016"><a xlink:href="../../d9/d49/types_8h.html" target="_top" xlink:title="This file contains a number of basic enums and types.">
<polygon fill="white" stroke="#666666" points="201.05,-239 148.05,-239 148.05,-220 201.05,-220 201.05,-239"/>
<text text-anchor="middle" x="174.55" y="-227" font-family="Helvetica,sans-Serif" font-size="10.00">types.h</text>
</a>
</g>
</g>
<!-- Node15&#45;&gt;Node16 -->
<g id="edge18_Node000015_Node000016" class="edge">
<title>Node15&#45;&gt;Node16</title>
<g id="a_edge18_Node000015_Node000016"><a xlink:title=" ">
<path fill="none" stroke="#63b8ff" d="M308.84,-274.98C282.09,-266.13 240.02,-252.19 210.1,-242.28"/>
<polygon fill="#63b8ff" stroke="#63b8ff" points="211.05,-238.9 200.45,-239.08 208.85,-245.55 211.05,-238.9"/>
</a>
</g>
</g>
<!-- Node26 -->
<g id="Node000026" class="node">
<title>Node26</title>
<g id="a_Node000026"><a xlink:href="../../d1/d02/reflist_8h.html" target="_top" xlink:title=" ">
<polygon fill="white" stroke="#666666" points="480.05,-239 427.05,-239 427.05,-220 480.05,-220 480.05,-239"/>
<text text-anchor="middle" x="453.55" y="-227" font-family="Helvetica,sans-Serif" font-size="10.00">reflist.h</text>
</a>
</g>
</g>
<!-- Node15&#45;&gt;Node26 -->
<g id="edge32_Node000015_Node000026" class="edge">
<title>Node15&#45;&gt;Node26</title>
<g id="a_edge32_Node000015_Node000026"><a xlink:title=" ">
<path fill="none" stroke="#63b8ff" d="M353.67,-274.98C372.9,-266.42 402.78,-253.11 424.85,-243.28"/>
<polygon fill="#63b8ff" stroke="#63b8ff" points="426.37,-246.44 434.08,-239.17 423.52,-240.04 426.37,-246.44"/>
</a>
</g>
</g>
<!-- Node15&#45;&gt;Node28 -->
<g id="edge46_Node000015_Node000028" class="edge">
<title>Node15&#45;&gt;Node28</title>
<g id="a_edge46_Node000015_Node000028"><a xlink:title=" ">
<path fill="none" stroke="#63b8ff" d="M314.14,-274.96C296.09,-266.95 269.45,-253.98 248.55,-239 229.07,-225.04 209.65,-205.51 196.97,-191.8"/>
<polygon fill="#63b8ff" stroke="#63b8ff" points="199.32,-189.18 190.01,-184.12 194.13,-193.88 199.32,-189.18"/>
</a>
</g>
</g>
<!-- Node17 -->
<g id="Node000017" class="node">
<title>Node17</title>
<g id="a_Node000017"><a xlink:href="../../d7/d5c/qcstring_8h.html" target="_top" xlink:title=" ">
<polygon fill="white" stroke="#666666" points="279.05,-129 214.05,-129 214.05,-110 279.05,-110 279.05,-129"/>
<text text-anchor="middle" x="246.55" y="-117" font-family="Helvetica,sans-Serif" font-size="10.00">qcstring.h</text>
</a>
</g>
</g>
<!-- Node16&#45;&gt;Node17 -->
<g id="edge19_Node000016_Node000017" class="edge">
<title>Node16&#45;&gt;Node17</title>
<g id="a_edge19_Node000016_Node000017"><a xlink:title=" ">
<path fill="none" stroke="#63b8ff" d="M147.98,-225.75C100.94,-219.84 10.71,-203.25 41.55,-165 61.52,-140.23 149.73,-128.54 203.73,-123.62"/>
<polygon fill="#63b8ff" stroke="#63b8ff" points="204.06,-127.1 213.71,-122.75 203.45,-120.13 204.06,-127.1"/>
</a>
</g>
</g>
<!-- Node17&#45;&gt;Node9 -->
<g id="edge20_Node000017_Node000009" class="edge">
<title>Node17&#45;&gt;Node9</title>
<g id="a_edge20_Node000017_Node000009"><a xlink:title=" ">
<path fill="none" stroke="#63b8ff" d="M236.94,-109.69C228.67,-101.41 217.34,-88.18 212.55,-74 207.43,-58.87 212.74,-41.23 218.58,-28.39"/>
<polygon fill="#63b8ff" stroke="#63b8ff" points="221.81,-29.76 223.19,-19.25 215.56,-26.61 221.81,-29.76"/>
</a>
</g>
</g>
<!-- Node17&#45;&gt;Node10 -->
<g id="edge21_Node000017_Node000010" class="edge">
<title>Node17&#45;&gt;Node10</title>
<g id="a_edge21_Node000017_Node000010"><a xlink:title=" ">
<path fill="none" stroke="#63b8ff" d="M279.27,-114.34C334.89,-107.17 451.69,-91.69 561.03,-74.02"/>
<polygon fill="#63b8ff" stroke="#63b8ff" points="561.6,-77.47 570.91,-72.41 560.48,-70.56 561.6,-77.47"/>
</a>
</g>
</g>
<!-- Node18 -->
<g id="Node000018" class="node">
<title>Node18</title>
<g id="a_Node000018"><a xlink:title=" ">
<polygon fill="#e0e0e0" stroke="#999999" points="485.55,-74 421.55,-74 421.55,-55 485.55,-55 485.55,-74"/>
<text text-anchor="middle" x="453.55" y="-62" font-family="Helvetica,sans-Serif" font-size="10.00">algorithm</text>
</a>
</g>
</g>
<!-- Node17&#45;&gt;Node18 -->
<g id="edge22_Node000017_Node000018" class="edge">
<title>Node17&#45;&gt;Node18</title>
<g id="a_edge22_Node000017_Node000018"><a xlink:title=" ">
<path fill="none" stroke="#63b8ff" d="M279.35,-110.1C315.03,-100.97 372.2,-86.33 411.24,-76.33"/>
<polygon fill="#63b8ff" stroke="#63b8ff" points="412.42,-79.64 421.24,-73.77 410.68,-72.86 412.42,-79.64"/>
</a>
</g>
</g>
<!-- Node19 -->
<g id="Node000019" class="node">
<title>Node19</title>
<g id="a_Node000019"><a xlink:title=" ">
<polygon fill="#e0e0e0" stroke="#999999" points="553.05,-74 504.05,-74 504.05,-55 553.05,-55 553.05,-74"/>
<text text-anchor="middle" x="528.55" y="-62" font-family="Helvetica,sans-Serif" font-size="10.00">cctype</text>
</a>
</g>
</g>
<!-- Node17&#45;&gt;Node19 -->
<g id="edge23_Node000017_Node000019" class="edge">
<title>Node17&#45;&gt;Node19</title>
<g id="a_edge23_Node000017_Node000019"><a xlink:title=" ">
<path fill="none" stroke="#63b8ff" d="M279.18,-113.36C324.92,-106.01 410.9,-91.62 493.87,-74.02"/>
<polygon fill="#63b8ff" stroke="#63b8ff" points="494.66,-77.43 503.71,-71.91 493.2,-70.58 494.66,-77.43"/>
</a>
</g>
</g>
<!-- Node20 -->
<g id="Node000020" class="node">
<title>Node20</title>
<g id="a_Node000020"><a xlink:title=" ">
<polygon fill="#e0e0e0" stroke="#999999" points="271.55,-74 221.55,-74 221.55,-55 271.55,-55 271.55,-74"/>
<text text-anchor="middle" x="246.55" y="-62" font-family="Helvetica,sans-Serif" font-size="10.00">cstring</text>
</a>
</g>
</g>
<!-- Node17&#45;&gt;Node20 -->
<g id="edge24_Node000017_Node000020" class="edge">
<title>Node17&#45;&gt;Node20</title>
<g id="a_edge24_Node000017_Node000020"><a xlink:title=" ">
<path fill="none" stroke="#63b8ff" d="M246.55,-109.75C246.55,-102.8 246.55,-92.85 246.55,-84.13"/>
<polygon fill="#63b8ff" stroke="#63b8ff" points="250.05,-84.09 246.55,-74.09 243.05,-84.09 250.05,-84.09"/>
</a>
</g>
</g>
<!-- Node21 -->
<g id="Node000021" class="node">
<title>Node21</title>
<g id="a_Node000021"><a xlink:title=" ">
<polygon fill="#e0e0e0" stroke="#999999" points="335.55,-74 289.55,-74 289.55,-55 335.55,-55 335.55,-74"/>
<text text-anchor="middle" x="312.55" y="-62" font-family="Helvetica,sans-Serif" font-size="10.00">cstdio</text>
</a>
</g>
</g>
<!-- Node17&#45;&gt;Node21 -->
<g id="edge25_Node000017_Node000021" class="edge">
<title>Node17&#45;&gt;Node21</title>
<g id="a_edge25_Node000017_Node000021"><a xlink:title=" ">
<path fill="none" stroke="#63b8ff" d="M257.15,-109.98C267,-102.07 281.9,-90.11 293.76,-80.58"/>
<polygon fill="#63b8ff" stroke="#63b8ff" points="296.14,-83.16 301.75,-74.17 291.76,-77.7 296.14,-83.16"/>
</a>
</g>
</g>
<!-- Node22 -->
<g id="Node000022" class="node">
<title>Node22</title>
<g id="a_Node000022"><a xlink:title=" ">
<polygon fill="#e0e0e0" stroke="#999999" points="403.05,-74 354.05,-74 354.05,-55 403.05,-55 403.05,-74"/>
<text text-anchor="middle" x="378.55" y="-62" font-family="Helvetica,sans-Serif" font-size="10.00">cstdlib</text>
</a>
</g>
</g>
<!-- Node17&#45;&gt;Node22 -->
<g id="edge26_Node000017_Node000022" class="edge">
<title>Node17&#45;&gt;Node22</title>
<g id="a_edge26_Node000017_Node000022"><a xlink:title=" ">
<path fill="none" stroke="#63b8ff" d="M267.75,-109.98C289.28,-101.34 322.83,-87.87 347.37,-78.02"/>
<polygon fill="#63b8ff" stroke="#63b8ff" points="348.98,-81.14 356.95,-74.17 346.37,-74.65 348.98,-81.14"/>
</a>
</g>
</g>
<!-- Node23 -->
<g id="Node000023" class="node">
<title>Node23</title>
<g id="a_Node000023"><a xlink:title=" ">
<polygon fill="#e0e0e0" stroke="#999999" points="132.55,-19 82.55,-19 82.55,0 132.55,0 132.55,-19"/>
<text text-anchor="middle" x="107.55" y="-7" font-family="Helvetica,sans-Serif" font-size="10.00">cstdint</text>
</a>
</g>
</g>
<!-- Node17&#45;&gt;Node23 -->
<g id="edge27_Node000017_Node000023" class="edge">
<title>Node17&#45;&gt;Node23</title>
<g id="a_edge27_Node000017_Node000023"><a xlink:title=" ">
<path fill="none" stroke="#63b8ff" d="M213.63,-116.47C160.02,-112.4 57.6,-101.19 35.55,-74 19.37,-54.06 48.75,-35.12 74.7,-23.2"/>
<polygon fill="#63b8ff" stroke="#63b8ff" points="76.25,-26.34 84.02,-19.13 73.45,-19.92 76.25,-26.34"/>
</a>
</g>
</g>
<!-- Node24 -->
<g id="Node000024" class="node">
<title>Node24</title>
<g id="a_Node000024"><a xlink:title=" ">
<polygon fill="#e0e0e0" stroke="#999999" points="102.05,-74 45.05,-74 45.05,-55 102.05,-55 102.05,-74"/>
<text text-anchor="middle" x="73.55" y="-62" font-family="Helvetica,sans-Serif" font-size="10.00">ostream</text>
</a>
</g>
</g>
<!-- Node17&#45;&gt;Node24 -->
<g id="edge28_Node000017_Node000024" class="edge">
<title>Node17&#45;&gt;Node24</title>
<g id="a_edge28_Node000017_Node000024"><a xlink:title=" ">
<path fill="none" stroke="#63b8ff" d="M218.75,-109.98C189.58,-101.05 143.54,-86.94 111.14,-77.02"/>
<polygon fill="#63b8ff" stroke="#63b8ff" points="112.15,-73.66 101.56,-74.08 110.1,-80.36 112.15,-73.66"/>
</a>
</g>
</g>
<!-- Node25 -->
<g id="Node000025" class="node">
<title>Node25</title>
<g id="a_Node000025"><a xlink:href="../../db/d7c/utf8_8h.html" target="_top" xlink:title="Various UTF8 related helper functions.">
<polygon fill="white" stroke="#666666" points="165.05,-74 120.05,-74 120.05,-55 165.05,-55 165.05,-74"/>
<text text-anchor="middle" x="142.55" y="-62" font-family="Helvetica,sans-Serif" font-size="10.00">utf8.h</text>
</a>
</g>
</g>
<!-- Node17&#45;&gt;Node25 -->
<g id="edge29_Node000017_Node000025" class="edge">
<title>Node17&#45;&gt;Node25</title>
<g id="a_edge29_Node000017_Node000025"><a xlink:title=" ">
<path fill="none" stroke="#63b8ff" d="M229.84,-109.98C213.33,-101.57 187.85,-88.59 168.67,-78.81"/>
<polygon fill="#63b8ff" stroke="#63b8ff" points="170.06,-75.59 159.56,-74.17 166.88,-81.83 170.06,-75.59"/>
</a>
</g>
</g>
<!-- Node25&#45;&gt;Node9 -->
<g id="edge31_Node000025_Node000009" class="edge">
<title>Node25&#45;&gt;Node9</title>
<g id="a_edge31_Node000025_Node000009"><a xlink:title=" ">
<path fill="none" stroke="#63b8ff" d="M156.36,-54.98C169.7,-46.77 190.13,-34.18 205.85,-24.49"/>
<polygon fill="#63b8ff" stroke="#63b8ff" points="207.8,-27.4 214.48,-19.17 204.13,-21.44 207.8,-27.4"/>
</a>
</g>
</g>
<!-- Node25&#45;&gt;Node23 -->
<g id="edge30_Node000025_Node000023" class="edge">
<title>Node25&#45;&gt;Node23</title>
<g id="a_edge30_Node000025_Node000023"><a xlink:title=" ">
<path fill="none" stroke="#63b8ff" d="M136.77,-54.75C131.92,-47.42 124.87,-36.73 118.9,-27.7"/>
<polygon fill="#63b8ff" stroke="#63b8ff" points="121.65,-25.5 113.22,-19.09 115.81,-29.36 121.65,-25.5"/>
</a>
</g>
</g>
<!-- Node26&#45;&gt;Node5 -->
<g id="edge35_Node000026_Node000005" class="edge">
<title>Node26&#45;&gt;Node5</title>
<g id="a_edge35_Node000026_Node000005"><a xlink:title=" ">
<path fill="none" stroke="#63b8ff" d="M480.21,-227.23C521.14,-224.33 600.98,-214.85 660.55,-184 683.02,-172.36 703.65,-151.43 716.38,-136.8"/>
<polygon fill="#63b8ff" stroke="#63b8ff" points="719.16,-138.93 722.92,-129.02 713.81,-134.42 719.16,-138.93"/>
</a>
</g>
</g>
<!-- Node26&#45;&gt;Node6 -->
<g id="edge33_Node000026_Node000006" class="edge">
<title>Node26&#45;&gt;Node6</title>
<g id="a_edge33_Node000026_Node000006"><a xlink:title=" ">
<path fill="none" stroke="#63b8ff" d="M449.13,-219.66C440.26,-201.93 420.16,-161.73 408.46,-138.32"/>
<polygon fill="#63b8ff" stroke="#63b8ff" points="411.48,-136.54 403.88,-129.16 405.22,-139.67 411.48,-136.54"/>
</a>
</g>
</g>
<!-- Node26&#45;&gt;Node13 -->
<g id="edge34_Node000026_Node000013" class="edge">
<title>Node26&#45;&gt;Node13</title>
<g id="a_edge34_Node000026_Node000013"><a xlink:title=" ">
<path fill="none" stroke="#63b8ff" d="M480.23,-226.76C545.33,-222.19 710.55,-208.45 759.55,-184 781.12,-173.23 799.9,-152.43 811.44,-137.57"/>
<polygon fill="#63b8ff" stroke="#63b8ff" points="814.49,-139.34 817.65,-129.23 808.87,-135.16 814.49,-139.34"/>
</a>
</g>
</g>
<!-- Node26&#45;&gt;Node17 -->
<g id="edge36_Node000026_Node000017" class="edge">
<title>Node26&#45;&gt;Node17</title>
<g id="a_edge36_Node000026_Node000017"><a xlink:title=" ">
<path fill="none" stroke="#63b8ff" d="M436.96,-219.84C400.83,-201 314.86,-156.14 271.9,-133.73"/>
<polygon fill="#63b8ff" stroke="#63b8ff" points="273.41,-130.57 262.93,-129.05 270.17,-136.78 273.41,-130.57"/>
</a>
</g>
</g>
<!-- Node27 -->
<g id="Node000027" class="node">
<title>Node27</title>
<g id="a_Node000027"><a xlink:href="../../da/de1/linkedmap_8h.html" target="_top" xlink:title=" ">
<polygon fill="white" stroke="#666666" points="618.05,-184 541.05,-184 541.05,-165 618.05,-165 618.05,-184"/>
<text text-anchor="middle" x="579.55" y="-172" font-family="Helvetica,sans-Serif" font-size="10.00">linkedmap.h</text>
</a>
</g>
</g>
<!-- Node26&#45;&gt;Node27 -->
<g id="edge37_Node000026_Node000027" class="edge">
<title>Node26&#45;&gt;Node27</title>
<g id="a_edge37_Node000026_Node000027"><a xlink:title=" ">
<path fill="none" stroke="#63b8ff" d="M473.79,-219.98C494.24,-211.38 526.08,-197.99 549.48,-188.15"/>
<polygon fill="#63b8ff" stroke="#63b8ff" points="551.07,-191.27 558.93,-184.17 548.36,-184.82 551.07,-191.27"/>
</a>
</g>
</g>
<!-- Node26&#45;&gt;Node28 -->
<g id="edge45_Node000026_Node000028" class="edge">
<title>Node26&#45;&gt;Node28</title>
<g id="a_edge45_Node000026_Node000028"><a xlink:title=" ">
<path fill="none" stroke="#63b8ff" d="M426.57,-223.22C380.32,-214.18 285.37,-195.61 228.51,-184.49"/>
<polygon fill="#63b8ff" stroke="#63b8ff" points="228.84,-180.99 218.35,-182.5 227.5,-187.86 228.84,-180.99"/>
</a>
</g>
</g>
<!-- Node27&#45;&gt;Node5 -->
<g id="edge40_Node000027_Node000005" class="edge">
<title>Node27&#45;&gt;Node5</title>
<g id="a_edge40_Node000027_Node000005"><a xlink:title=" ">
<path fill="none" stroke="#63b8ff" d="M603.65,-164.98C628.43,-156.23 667.25,-142.51 695.23,-132.62"/>
<polygon fill="#63b8ff" stroke="#63b8ff" points="696.74,-135.8 705.01,-129.17 694.41,-129.2 696.74,-135.8"/>
</a>
</g>
</g>
<!-- Node27&#45;&gt;Node6 -->
<g id="edge39_Node000027_Node000006" class="edge">
<title>Node27&#45;&gt;Node6</title>
<g id="a_edge39_Node000027_Node000006"><a xlink:title=" ">
<path fill="none" stroke="#63b8ff" d="M550.63,-164.98C518.56,-155.54 466.92,-140.34 433.1,-130.38"/>
<polygon fill="#63b8ff" stroke="#63b8ff" points="433.8,-126.94 423.22,-127.47 431.83,-133.65 433.8,-126.94"/>
</a>
</g>
</g>
<!-- Node27&#45;&gt;Node9 -->
<g id="edge41_Node000027_Node000009" class="edge">
<title>Node27&#45;&gt;Node9</title>
<g id="a_edge41_Node000027_Node000009"><a xlink:title=" ">
<path fill="none" stroke="#63b8ff" d="M592.28,-164.75C620.87,-144.08 685.21,-91.27 652.55,-55 626.4,-25.97 355.03,-14.56 260.67,-11.45"/>
<polygon fill="#63b8ff" stroke="#63b8ff" points="260.68,-7.95 250.57,-11.12 260.46,-14.94 260.68,-7.95"/>
</a>
</g>
</g>
<!-- Node27&#45;&gt;Node13 -->
<g id="edge38_Node000027_Node000013" class="edge">
<title>Node27&#45;&gt;Node13</title>
<g id="a_edge38_Node000027_Node000013"><a xlink:title=" ">
<path fill="none" stroke="#63b8ff" d="M618.21,-165.1C660.43,-155.93 728.17,-141.22 774.21,-131.22"/>
<polygon fill="#63b8ff" stroke="#63b8ff" points="775.23,-134.58 784.26,-129.03 773.74,-127.74 775.23,-134.58"/>
</a>
</g>
</g>
<!-- Node27&#45;&gt;Node17 -->
<g id="edge44_Node000027_Node000017" class="edge">
<title>Node27&#45;&gt;Node17</title>
<g id="a_edge44_Node000027_Node000017"><a xlink:title=" ">
<path fill="none" stroke="#63b8ff" d="M541.02,-167.37C478.29,-157.38 354.54,-137.69 289.23,-127.29"/>
<polygon fill="#63b8ff" stroke="#63b8ff" points="289.69,-123.82 279.26,-125.71 288.59,-130.74 289.69,-123.82"/>
</a>
</g>
</g>
<!-- Node27&#45;&gt;Node18 -->
<g id="edge42_Node000027_Node000018" class="edge">
<title>Node27&#45;&gt;Node18</title>
<g id="a_edge42_Node000027_Node000018"><a xlink:title=" ">
<path fill="none" stroke="#63b8ff" d="M569.23,-164.66C547.81,-146.3 498.24,-103.81 471.47,-80.87"/>
<polygon fill="#63b8ff" stroke="#63b8ff" points="473.52,-78.01 463.65,-74.16 468.96,-83.32 473.52,-78.01"/>
</a>
</g>
</g>
<!-- Node27&#45;&gt;Node19 -->
<g id="edge43_Node000027_Node000019" class="edge">
<title>Node27&#45;&gt;Node19</title>
<g id="a_edge43_Node000027_Node000019"><a xlink:title=" ">
<path fill="none" stroke="#63b8ff" d="M575.37,-164.66C567,-146.93 548.01,-106.73 536.96,-83.32"/>
<polygon fill="#63b8ff" stroke="#63b8ff" points="540.07,-81.71 532.63,-74.16 533.74,-84.7 540.07,-81.71"/>
</a>
</g>
</g>
<!-- Node29&#45;&gt;Node6 -->
<g id="edge48_Node000029_Node000006" class="edge">
<title>Node29&#45;&gt;Node6</title>
<g id="a_edge48_Node000029_Node000006"><a xlink:title=" ">
<path fill="none" stroke="#63b8ff" d="M128.57,-166.57C131.61,-166.03 134.63,-165.51 137.55,-165 219.46,-150.79 315.86,-134.54 365.77,-126.16"/>
<polygon fill="#63b8ff" stroke="#63b8ff" points="366.41,-129.6 375.69,-124.49 365.25,-122.7 366.41,-129.6"/>
</a>
</g>
</g>
<!-- Node29&#45;&gt;Node17 -->
<g id="edge49_Node000029_Node000017" class="edge">
<title>Node29&#45;&gt;Node17</title>
<g id="a_edge49_Node000029_Node000017"><a xlink:title=" ">
<path fill="none" stroke="#63b8ff" d="M114.77,-164.98C140.9,-156.16 181.94,-142.31 211.28,-132.41"/>
<polygon fill="#63b8ff" stroke="#63b8ff" points="212.77,-135.6 221.12,-129.08 210.53,-128.96 212.77,-135.6"/>
</a>
</g>
</g>
<!-- Node30&#45;&gt;Node5 -->
<g id="edge53_Node000030_Node000005" class="edge">
<title>Node30&#45;&gt;Node5</title>
<g id="a_edge53_Node000030_Node000005"><a xlink:title=" ">
<path fill="none" stroke="#63b8ff" d="M556.1,-280.38C615.61,-273.6 715.1,-252.11 759.55,-184 769.48,-168.78 757.67,-149.75 746.08,-136.52"/>
<polygon fill="#63b8ff" stroke="#63b8ff" points="748.49,-133.97 739.08,-129.11 743.4,-138.78 748.49,-133.97"/>
</a>
</g>
</g>
<!-- Node30&#45;&gt;Node6 -->
<g id="edge51_Node000030_Node000006" class="edge">
<title>Node30&#45;&gt;Node6</title>
<g id="a_edge51_Node000030_Node000006"><a xlink:title=" ">
<path fill="none" stroke="#63b8ff" d="M507,-274.83C504.48,-262.17 498.73,-238.14 488.55,-220 469.51,-186.07 437.17,-153.85 417.16,-135.69"/>
<polygon fill="#63b8ff" stroke="#63b8ff" points="419.45,-133.05 409.66,-129.02 414.8,-138.28 419.45,-133.05"/>
</a>
</g>
</g>
<!-- Node30&#45;&gt;Node12 -->
<g id="edge52_Node000030_Node000012" class="edge">
<title>Node30&#45;&gt;Node12</title>
<g id="a_edge52_Node000030_Node000012"><a xlink:title=" ">
<path fill="none" stroke="#63b8ff" d="M526.42,-274.84C565.5,-255.92 658.73,-210.77 704.82,-188.45"/>
<polygon fill="#63b8ff" stroke="#63b8ff" points="706.42,-191.56 713.9,-184.05 703.37,-185.26 706.42,-191.56"/>
</a>
</g>
</g>
<!-- Node30&#45;&gt;Node16 -->
<g id="edge54_Node000030_Node000016" class="edge">
<title>Node30&#45;&gt;Node16</title>
<g id="a_edge54_Node000030_Node000016"><a xlink:title=" ">
<path fill="none" stroke="#63b8ff" d="M460.69,-275.91C393.34,-265.22 272.03,-245.97 211.29,-236.33"/>
<polygon fill="#63b8ff" stroke="#63b8ff" points="211.81,-232.87 201.38,-234.76 210.71,-239.78 211.81,-232.87"/>
</a>
</g>
</g>
<!-- Node30&#45;&gt;Node26 -->
<g id="edge55_Node000030_Node000026" class="edge">
<title>Node30&#45;&gt;Node26</title>
<g id="a_edge55_Node000030_Node000026"><a xlink:title=" ">
<path fill="none" stroke="#63b8ff" d="M499.46,-274.75C491.45,-267.03 479.59,-255.6 469.92,-246.28"/>
<polygon fill="#63b8ff" stroke="#63b8ff" points="472.09,-243.51 462.46,-239.09 467.23,-248.55 472.09,-243.51"/>
</a>
</g>
</g>
<!-- Node32&#45;&gt;Node31 -->
<g id="edge58_Node000032_Node000031" class="edge">
<title>Node32&#45;&gt;Node31</title>
<g id="a_edge58_Node000032_Node000031"><a xlink:title=" ">
<path fill="none" stroke="#63b8ff" d="M822.17,-331.46C857.18,-322.54 917.95,-307.06 959.18,-296.55"/>
<polygon fill="#63b8ff" stroke="#63b8ff" points="960.12,-299.92 968.95,-294.06 958.4,-293.14 960.12,-299.92"/>
</a>
</g>
</g>
<!-- Node33&#45;&gt;Node17 -->
<g id="edge61_Node000033_Node000017" class="edge">
<title>Node33&#45;&gt;Node17</title>
<g id="a_edge61_Node000033_Node000017"><a xlink:title=" ">
<path fill="none" stroke="#63b8ff" d="M37.06,-329.85C29.49,-321.47 18.95,-308.01 14.55,-294 2.12,-254.43 -17.28,-216.37 31.55,-165 54.67,-140.67 147.77,-128.75 203.59,-123.69"/>
<polygon fill="#63b8ff" stroke="#63b8ff" points="204.23,-127.14 213.89,-122.79 203.63,-120.17 204.23,-127.14"/>
</a>
</g>
</g>
<!-- Node34 -->
<g id="Node000034" class="node">
<title>Node34</title>
<g id="a_Node000034"><a xlink:title=" ">
<polygon fill="#e0e0e0" stroke="#999999" points="67.55,-294 23.55,-294 23.55,-275 67.55,-275 67.55,-294"/>
<text text-anchor="middle" x="45.55" y="-282" font-family="Helvetica,sans-Serif" font-size="10.00">ctime</text>
</a>
</g>
</g>
<!-- Node33&#45;&gt;Node34 -->
<g id="edge60_Node000033_Node000034" class="edge">
<title>Node33&#45;&gt;Node34</title>
<g id="a_edge60_Node000033_Node000034"><a xlink:title=" ">
<path fill="none" stroke="#63b8ff" d="M45.55,-329.75C45.55,-322.8 45.55,-312.85 45.55,-304.13"/>
<polygon fill="#63b8ff" stroke="#63b8ff" points="49.05,-304.09 45.55,-294.09 42.05,-304.09 49.05,-304.09"/>
</a>
</g>
</g>
<!-- Node35&#45;&gt;Node5 -->
<g id="edge63_Node000035_Node000005" class="edge">
<title>Node35&#45;&gt;Node5</title>
<g id="a_edge63_Node000035_Node000005"><a xlink:title=" ">
<path fill="none" stroke="#63b8ff" d="M311.17,-226.49C381.03,-220.99 568.21,-204.7 626.55,-184 635.22,-180.92 680.26,-152.32 707.83,-134.57"/>
<polygon fill="#63b8ff" stroke="#63b8ff" points="709.93,-137.38 716.43,-129.01 706.13,-131.5 709.93,-137.38"/>
</a>
</g>
</g>
<!-- Node35&#45;&gt;Node6 -->
<g id="edge64_Node000035_Node000006" class="edge">
<title>Node35&#45;&gt;Node6</title>
<g id="a_edge64_Node000035_Node000006"><a xlink:title=" ">
<path fill="none" stroke="#63b8ff" d="M285.78,-219.63C288.07,-206.26 294.1,-180.86 308.55,-165 323.97,-148.06 347.27,-136.84 366.43,-129.9"/>
<polygon fill="#63b8ff" stroke="#63b8ff" points="367.66,-133.18 376,-126.65 365.41,-126.55 367.66,-133.18"/>
</a>
</g>
</g>
<!-- Node35&#45;&gt;Node12 -->
<g id="edge65_Node000035_Node000012" class="edge">
<title>Node35&#45;&gt;Node12</title>
<g id="a_edge65_Node000035_Node000012"><a xlink:title=" ">
<path fill="none" stroke="#63b8ff" d="M311.45,-225.33C373.16,-218.05 529.67,-199.58 660.55,-184 674.22,-182.37 689.38,-180.56 702.16,-179.03"/>
<polygon fill="#63b8ff" stroke="#63b8ff" points="702.75,-182.48 712.26,-177.82 701.92,-175.53 702.75,-182.48"/>
</a>
</g>
</g>
<!-- Node35&#45;&gt;Node17 -->
<g id="edge66_Node000035_Node000017" class="edge">
<title>Node35&#45;&gt;Node17</title>
<g id="a_edge66_Node000035_Node000017"><a xlink:title=" ">
<path fill="none" stroke="#63b8ff" d="M281.44,-219.66C275.23,-202.01 261.18,-162.09 252.93,-138.64"/>
<polygon fill="#63b8ff" stroke="#63b8ff" points="256.21,-137.43 249.59,-129.16 249.61,-139.75 256.21,-137.43"/>
</a>
</g>
</g>
<!-- Node35&#45;&gt;Node28 -->
<g id="edge67_Node000035_Node000028" class="edge">
<title>Node35&#45;&gt;Node28</title>
<g id="a_edge67_Node000035_Node000028"><a xlink:title=" ">
<path fill="none" stroke="#63b8ff" d="M268.16,-219.98C251.97,-211.57 226.98,-198.59 208.16,-188.81"/>
<polygon fill="#63b8ff" stroke="#63b8ff" points="209.72,-185.68 199.23,-184.17 206.49,-191.89 209.72,-185.68"/>
</a>
</g>
</g>
</g>
</svg>
