<?xml version="1.0" encoding="UTF-8" standalone="no"?>
<!DOCTYPE svg PUBLIC "-//W3C//DTD SVG 1.1//EN"
 "http://www.w3.org/Graphics/SVG/1.1/DTD/svg11.dtd">
<!-- Generated by graphviz version 2.43.0 (0)
 -->
<!-- Title: src/docparser.h Pages: 1 -->
<svg width="662pt" height="247pt"
 viewBox="0.00 0.00 661.62 247.00" xmlns="http://www.w3.org/2000/svg" xmlns:xlink="http://www.w3.org/1999/xlink">
<g id="graph0" class="graph" transform="scale(1 1) rotate(0) translate(4 243)">
<title>src/docparser.h</title>
<!-- Node1 -->
<g id="Node000001" class="node">
<title>Node1</title>
<g id="a_Node000001"><a xlink:title=" ">
<polygon fill="#999999" stroke="#666666" points="428.12,-239 338.12,-239 338.12,-220 428.12,-220 428.12,-239"/>
<text text-anchor="middle" x="383.12" y="-227" font-family="Helvetica,sans-Serif" font-size="10.00">src/docparser.h</text>
</a>
</g>
</g>
<!-- Node2 -->
<g id="Node000002" class="node">
<title>Node2</title>
<g id="a_Node000002"><a xlink:title=" ">
<polygon fill="#e0e0e0" stroke="#999999" points="273.12,-184 223.12,-184 223.12,-165 273.12,-165 273.12,-184"/>
<text text-anchor="middle" x="248.12" y="-172" font-family="Helvetica,sans-Serif" font-size="10.00">stdio.h</text>
</a>
</g>
</g>
<!-- Node1&#45;&gt;Node2 -->
<g id="edge1_Node000001_Node000002" class="edge">
<title>Node1&#45;&gt;Node2</title>
<g id="a_edge1_Node000001_Node000002"><a xlink:title=" ">
<path fill="none" stroke="#63b8ff" d="M361.43,-219.98C339.33,-211.3 304.8,-197.75 279.67,-187.88"/>
<polygon fill="#63b8ff" stroke="#63b8ff" points="280.8,-184.57 270.21,-184.17 278.24,-191.08 280.8,-184.57"/>
</a>
</g>
</g>
<!-- Node3 -->
<g id="Node000003" class="node">
<title>Node3</title>
<g id="a_Node000003"><a xlink:title=" ">
<polygon fill="#e0e0e0" stroke="#999999" points="428.12,-129 370.12,-129 370.12,-110 428.12,-110 428.12,-129"/>
<text text-anchor="middle" x="399.12" y="-117" font-family="Helvetica,sans-Serif" font-size="10.00">memory</text>
</a>
</g>
</g>
<!-- Node1&#45;&gt;Node3 -->
<g id="edge2_Node000001_Node000003" class="edge">
<title>Node1&#45;&gt;Node3</title>
<g id="a_edge2_Node000001_Node000003"><a xlink:title=" ">
<path fill="none" stroke="#63b8ff" d="M384.79,-219.99C386.51,-211.05 389.2,-196.57 391.12,-184 393.41,-169.03 395.53,-152 397.01,-139.35"/>
<polygon fill="#63b8ff" stroke="#63b8ff" points="400.52,-139.48 398.18,-129.15 393.57,-138.68 400.52,-139.48"/>
</a>
</g>
</g>
<!-- Node4 -->
<g id="Node000004" class="node">
<title>Node4</title>
<g id="a_Node000004"><a xlink:href="../../d7/d5c/qcstring_8h.html" target="_top" xlink:title=" ">
<polygon fill="white" stroke="#666666" points="345.62,-129 280.62,-129 280.62,-110 345.62,-110 345.62,-129"/>
<text text-anchor="middle" x="313.12" y="-117" font-family="Helvetica,sans-Serif" font-size="10.00">qcstring.h</text>
</a>
</g>
</g>
<!-- Node1&#45;&gt;Node4 -->
<g id="edge3_Node000001_Node000004" class="edge">
<title>Node1&#45;&gt;Node4</title>
<g id="a_edge3_Node000001_Node000004"><a xlink:title=" ">
<path fill="none" stroke="#63b8ff" d="M363.12,-219.94C348.63,-212.61 329.92,-200.61 320.12,-184 312.28,-170.7 310.9,-153.09 311.27,-139.78"/>
<polygon fill="#63b8ff" stroke="#63b8ff" points="314.79,-139.62 311.93,-129.42 307.8,-139.18 314.79,-139.62"/>
</a>
</g>
</g>
<!-- Node15 -->
<g id="Node000015" class="node">
<title>Node15</title>
<g id="a_Node000015"><a xlink:href="../../d7/d50/growvector_8h.html" target="_top" xlink:title=" ">
<polygon fill="white" stroke="#666666" points="519.12,-184 439.12,-184 439.12,-165 519.12,-165 519.12,-184"/>
<text text-anchor="middle" x="479.12" y="-172" font-family="Helvetica,sans-Serif" font-size="10.00">growvector.h</text>
</a>
</g>
</g>
<!-- Node1&#45;&gt;Node15 -->
<g id="edge16_Node000001_Node000015" class="edge">
<title>Node1&#45;&gt;Node15</title>
<g id="a_edge16_Node000001_Node000015"><a xlink:title=" ">
<path fill="none" stroke="#63b8ff" d="M398.55,-219.98C413.57,-211.69 436.66,-198.94 454.28,-189.22"/>
<polygon fill="#63b8ff" stroke="#63b8ff" points="456.36,-192.07 463.42,-184.17 452.97,-185.94 456.36,-192.07"/>
</a>
</g>
</g>
<!-- Node18 -->
<g id="Node000018" class="node">
<title>Node18</title>
<g id="a_Node000018"><a xlink:href="../../d7/dfc/construct_8h.html" target="_top" xlink:title=" ">
<polygon fill="white" stroke="#666666" points="653.62,-129 582.62,-129 582.62,-110 653.62,-110 653.62,-129"/>
<text text-anchor="middle" x="618.12" y="-117" font-family="Helvetica,sans-Serif" font-size="10.00">construct.h</text>
</a>
</g>
</g>
<!-- Node1&#45;&gt;Node18 -->
<g id="edge21_Node000001_Node000018" class="edge">
<title>Node1&#45;&gt;Node18</title>
<g id="a_edge21_Node000001_Node000018"><a xlink:title=" ">
<path fill="none" stroke="#63b8ff" d="M422.55,-219.99C452.46,-212.69 494.08,-200.7 528.12,-184 555.02,-170.8 582.71,-149.97 600.14,-135.8"/>
<polygon fill="#63b8ff" stroke="#63b8ff" points="602.8,-138.14 608.27,-129.07 598.33,-132.75 602.8,-138.14"/>
</a>
</g>
</g>
<!-- Node19 -->
<g id="Node000019" class="node">
<title>Node19</title>
<g id="a_Node000019"><a xlink:href="../../d9/d49/types_8h.html" target="_top" xlink:title="This file contains a number of basic enums and types.">
<polygon fill="white" stroke="#666666" points="382.62,-184 329.62,-184 329.62,-165 382.62,-165 382.62,-184"/>
<text text-anchor="middle" x="356.12" y="-172" font-family="Helvetica,sans-Serif" font-size="10.00">types.h</text>
</a>
</g>
</g>
<!-- Node1&#45;&gt;Node19 -->
<g id="edge22_Node000001_Node000019" class="edge">
<title>Node1&#45;&gt;Node19</title>
<g id="a_edge22_Node000001_Node000019"><a xlink:title=" ">
<path fill="none" stroke="#63b8ff" d="M378.67,-219.75C375.01,-212.57 369.72,-202.18 365.18,-193.27"/>
<polygon fill="#63b8ff" stroke="#63b8ff" points="368.16,-191.41 360.5,-184.09 361.92,-194.59 368.16,-191.41"/>
</a>
</g>
</g>
<!-- Node5 -->
<g id="Node000005" class="node">
<title>Node5</title>
<g id="a_Node000005"><a xlink:title=" ">
<polygon fill="#e0e0e0" stroke="#999999" points="284.12,-19 240.12,-19 240.12,0 284.12,0 284.12,-19"/>
<text text-anchor="middle" x="262.12" y="-7" font-family="Helvetica,sans-Serif" font-size="10.00">string</text>
</a>
</g>
</g>
<!-- Node4&#45;&gt;Node5 -->
<g id="edge4_Node000004_Node000005" class="edge">
<title>Node4&#45;&gt;Node5</title>
<g id="a_edge4_Node000004_Node000005"><a xlink:title=" ">
<path fill="none" stroke="#63b8ff" d="M280.6,-118.92C208.67,-119.09 39.66,-115.02 4.12,-74 -1.4,-67.62 -1.32,-61.46 4.12,-55 32.64,-21.15 167.06,-13.05 229.77,-11.11"/>
<polygon fill="#63b8ff" stroke="#63b8ff" points="229.99,-14.61 239.89,-10.83 229.8,-7.61 229.99,-14.61"/>
</a>
</g>
</g>
<!-- Node6 -->
<g id="Node000006" class="node">
<title>Node6</title>
<g id="a_Node000006"><a xlink:title=" ">
<polygon fill="#e0e0e0" stroke="#999999" points="86.62,-74 13.62,-74 13.62,-55 86.62,-55 86.62,-74"/>
<text text-anchor="middle" x="50.12" y="-62" font-family="Helvetica,sans-Serif" font-size="10.00">string_view</text>
</a>
</g>
</g>
<!-- Node4&#45;&gt;Node6 -->
<g id="edge5_Node000004_Node000006" class="edge">
<title>Node4&#45;&gt;Node6</title>
<g id="a_edge5_Node000004_Node000006"><a xlink:title=" ">
<path fill="none" stroke="#63b8ff" d="M280.61,-111.95C234.49,-102.65 149.79,-85.58 96.91,-74.93"/>
<polygon fill="#63b8ff" stroke="#63b8ff" points="97.28,-71.43 86.78,-72.89 95.89,-78.29 97.28,-71.43"/>
</a>
</g>
</g>
<!-- Node7 -->
<g id="Node000007" class="node">
<title>Node7</title>
<g id="a_Node000007"><a xlink:title=" ">
<polygon fill="#e0e0e0" stroke="#999999" points="169.12,-74 105.12,-74 105.12,-55 169.12,-55 169.12,-74"/>
<text text-anchor="middle" x="137.12" y="-62" font-family="Helvetica,sans-Serif" font-size="10.00">algorithm</text>
</a>
</g>
</g>
<!-- Node4&#45;&gt;Node7 -->
<g id="edge6_Node000004_Node000007" class="edge">
<title>Node4&#45;&gt;Node7</title>
<g id="a_edge6_Node000004_Node000007"><a xlink:title=" ">
<path fill="none" stroke="#63b8ff" d="M284.85,-109.98C255.17,-101.05 208.34,-86.94 175.37,-77.02"/>
<polygon fill="#63b8ff" stroke="#63b8ff" points="176.21,-73.61 165.62,-74.08 174.19,-80.32 176.21,-73.61"/>
</a>
</g>
</g>
<!-- Node8 -->
<g id="Node000008" class="node">
<title>Node8</title>
<g id="a_Node000008"><a xlink:title=" ">
<polygon fill="#e0e0e0" stroke="#999999" points="236.62,-74 187.62,-74 187.62,-55 236.62,-55 236.62,-74"/>
<text text-anchor="middle" x="212.12" y="-62" font-family="Helvetica,sans-Serif" font-size="10.00">cctype</text>
</a>
</g>
</g>
<!-- Node4&#45;&gt;Node8 -->
<g id="edge7_Node000004_Node000008" class="edge">
<title>Node4&#45;&gt;Node8</title>
<g id="a_edge7_Node000004_Node000008"><a xlink:title=" ">
<path fill="none" stroke="#63b8ff" d="M296.9,-109.98C280.94,-101.61 256.35,-88.7 237.75,-78.95"/>
<polygon fill="#63b8ff" stroke="#63b8ff" points="239.13,-75.72 228.65,-74.17 235.88,-81.92 239.13,-75.72"/>
</a>
</g>
</g>
<!-- Node9 -->
<g id="Node000009" class="node">
<title>Node9</title>
<g id="a_Node000009"><a xlink:title=" ">
<polygon fill="#e0e0e0" stroke="#999999" points="305.12,-74 255.12,-74 255.12,-55 305.12,-55 305.12,-74"/>
<text text-anchor="middle" x="280.12" y="-62" font-family="Helvetica,sans-Serif" font-size="10.00">cstring</text>
</a>
</g>
</g>
<!-- Node4&#45;&gt;Node9 -->
<g id="edge8_Node000004_Node000009" class="edge">
<title>Node4&#45;&gt;Node9</title>
<g id="a_edge8_Node000004_Node000009"><a xlink:title=" ">
<path fill="none" stroke="#63b8ff" d="M307.68,-109.75C303.11,-102.42 296.46,-91.73 290.83,-82.7"/>
<polygon fill="#63b8ff" stroke="#63b8ff" points="293.73,-80.73 285.47,-74.09 287.79,-84.43 293.73,-80.73"/>
</a>
</g>
</g>
<!-- Node10 -->
<g id="Node000010" class="node">
<title>Node10</title>
<g id="a_Node000010"><a xlink:title=" ">
<polygon fill="#e0e0e0" stroke="#999999" points="369.12,-74 323.12,-74 323.12,-55 369.12,-55 369.12,-74"/>
<text text-anchor="middle" x="346.12" y="-62" font-family="Helvetica,sans-Serif" font-size="10.00">cstdio</text>
</a>
</g>
</g>
<!-- Node4&#45;&gt;Node10 -->
<g id="edge9_Node000004_Node000010" class="edge">
<title>Node4&#45;&gt;Node10</title>
<g id="a_edge9_Node000004_Node000010"><a xlink:title=" ">
<path fill="none" stroke="#63b8ff" d="M318.57,-109.75C323.14,-102.42 329.79,-91.73 335.42,-82.7"/>
<polygon fill="#63b8ff" stroke="#63b8ff" points="338.46,-84.43 340.78,-74.09 332.52,-80.73 338.46,-84.43"/>
</a>
</g>
</g>
<!-- Node11 -->
<g id="Node000011" class="node">
<title>Node11</title>
<g id="a_Node000011"><a xlink:title=" ">
<polygon fill="#e0e0e0" stroke="#999999" points="436.62,-74 387.62,-74 387.62,-55 436.62,-55 436.62,-74"/>
<text text-anchor="middle" x="412.12" y="-62" font-family="Helvetica,sans-Serif" font-size="10.00">cstdlib</text>
</a>
</g>
</g>
<!-- Node4&#45;&gt;Node11 -->
<g id="edge10_Node000004_Node000011" class="edge">
<title>Node4&#45;&gt;Node11</title>
<g id="a_edge10_Node000004_Node000011"><a xlink:title=" ">
<path fill="none" stroke="#63b8ff" d="M329.03,-109.98C344.67,-101.61 368.78,-88.7 387.01,-78.95"/>
<polygon fill="#63b8ff" stroke="#63b8ff" points="388.76,-81.98 395.93,-74.17 385.46,-75.8 388.76,-81.98"/>
</a>
</g>
</g>
<!-- Node12 -->
<g id="Node000012" class="node">
<title>Node12</title>
<g id="a_Node000012"><a xlink:title=" ">
<polygon fill="#e0e0e0" stroke="#999999" points="565.12,-19 515.12,-19 515.12,0 565.12,0 565.12,-19"/>
<text text-anchor="middle" x="540.12" y="-7" font-family="Helvetica,sans-Serif" font-size="10.00">cstdint</text>
</a>
</g>
</g>
<!-- Node4&#45;&gt;Node12 -->
<g id="edge11_Node000004_Node000012" class="edge">
<title>Node4&#45;&gt;Node12</title>
<g id="a_edge11_Node000004_Node000012"><a xlink:title=" ">
<path fill="none" stroke="#63b8ff" d="M345.65,-112.67C350.82,-111.76 356.12,-110.85 361.12,-110 410.62,-101.62 551.58,-112.22 584.12,-74 597.58,-58.2 578.71,-38.31 561.66,-25.04"/>
<polygon fill="#63b8ff" stroke="#63b8ff" points="563.72,-22.21 553.59,-19.11 559.58,-27.85 563.72,-22.21"/>
</a>
</g>
</g>
<!-- Node13 -->
<g id="Node000013" class="node">
<title>Node13</title>
<g id="a_Node000013"><a xlink:title=" ">
<polygon fill="#e0e0e0" stroke="#999999" points="574.62,-74 517.62,-74 517.62,-55 574.62,-55 574.62,-74"/>
<text text-anchor="middle" x="546.12" y="-62" font-family="Helvetica,sans-Serif" font-size="10.00">ostream</text>
</a>
</g>
</g>
<!-- Node4&#45;&gt;Node13 -->
<g id="edge12_Node000004_Node000013" class="edge">
<title>Node4&#45;&gt;Node13</title>
<g id="a_edge12_Node000004_Node000013"><a xlink:title=" ">
<path fill="none" stroke="#63b8ff" d="M345.73,-111.12C382.66,-102.76 444.9,-88.66 507.41,-74.39"/>
<polygon fill="#63b8ff" stroke="#63b8ff" points="508.47,-77.74 517.44,-72.1 506.91,-70.91 508.47,-77.74"/>
</a>
</g>
</g>
<!-- Node14 -->
<g id="Node000014" class="node">
<title>Node14</title>
<g id="a_Node000014"><a xlink:href="../../db/d7c/utf8_8h.html" target="_top" xlink:title="Various UTF8 related helper functions.">
<polygon fill="white" stroke="#666666" points="499.62,-74 454.62,-74 454.62,-55 499.62,-55 499.62,-74"/>
<text text-anchor="middle" x="477.12" y="-62" font-family="Helvetica,sans-Serif" font-size="10.00">utf8.h</text>
</a>
</g>
</g>
<!-- Node4&#45;&gt;Node14 -->
<g id="edge13_Node000004_Node000014" class="edge">
<title>Node4&#45;&gt;Node14</title>
<g id="a_edge13_Node000004_Node000014"><a xlink:title=" ">
<path fill="none" stroke="#63b8ff" d="M339.47,-109.98C368.11,-100.73 413.89,-85.94 444.7,-75.98"/>
<polygon fill="#63b8ff" stroke="#63b8ff" points="446.1,-79.21 454.54,-72.8 443.94,-72.54 446.1,-79.21"/>
</a>
</g>
</g>
<!-- Node14&#45;&gt;Node5 -->
<g id="edge15_Node000014_Node000005" class="edge">
<title>Node14&#45;&gt;Node5</title>
<g id="a_edge15_Node000014_Node000005"><a xlink:title=" ">
<path fill="none" stroke="#63b8ff" d="M454.46,-57.2C451.66,-56.45 448.83,-55.7 446.12,-55 393.12,-41.33 331.2,-26.61 294.4,-17.99"/>
<polygon fill="#63b8ff" stroke="#63b8ff" points="294.8,-14.49 284.27,-15.63 293.21,-21.31 294.8,-14.49"/>
</a>
</g>
</g>
<!-- Node14&#45;&gt;Node12 -->
<g id="edge14_Node000014_Node000012" class="edge">
<title>Node14&#45;&gt;Node12</title>
<g id="a_edge14_Node000014_Node000012"><a xlink:title=" ">
<path fill="none" stroke="#63b8ff" d="M487.25,-54.98C496.56,-47.15 510.59,-35.34 521.86,-25.86"/>
<polygon fill="#63b8ff" stroke="#63b8ff" points="524.42,-28.29 529.82,-19.17 519.91,-22.93 524.42,-28.29"/>
</a>
</g>
</g>
<!-- Node15&#45;&gt;Node3 -->
<g id="edge18_Node000015_Node000003" class="edge">
<title>Node15&#45;&gt;Node3</title>
<g id="a_edge18_Node000015_Node000003"><a xlink:title=" ">
<path fill="none" stroke="#63b8ff" d="M466.27,-164.98C453.98,-156.84 435.22,-144.41 420.65,-134.76"/>
<polygon fill="#63b8ff" stroke="#63b8ff" points="422.48,-131.78 412.21,-129.17 418.62,-137.61 422.48,-131.78"/>
</a>
</g>
</g>
<!-- Node16 -->
<g id="Node000016" class="node">
<title>Node16</title>
<g id="a_Node000016"><a xlink:title=" ">
<polygon fill="#e0e0e0" stroke="#999999" points="564.62,-129 517.62,-129 517.62,-110 564.62,-110 564.62,-129"/>
<text text-anchor="middle" x="541.12" y="-117" font-family="Helvetica,sans-Serif" font-size="10.00">vector</text>
</a>
</g>
</g>
<!-- Node15&#45;&gt;Node16 -->
<g id="edge17_Node000015_Node000016" class="edge">
<title>Node15&#45;&gt;Node16</title>
<g id="a_edge17_Node000015_Node000016"><a xlink:title=" ">
<path fill="none" stroke="#63b8ff" d="M489.09,-164.98C498.25,-157.15 512.06,-145.34 523.15,-135.86"/>
<polygon fill="#63b8ff" stroke="#63b8ff" points="525.65,-138.33 530.98,-129.17 521.11,-133.01 525.65,-138.33"/>
</a>
</g>
</g>
<!-- Node17 -->
<g id="Node000017" class="node">
<title>Node17</title>
<g id="a_Node000017"><a xlink:title=" ">
<polygon fill="#e0e0e0" stroke="#999999" points="499.62,-129 446.62,-129 446.62,-110 499.62,-110 499.62,-129"/>
<text text-anchor="middle" x="473.12" y="-117" font-family="Helvetica,sans-Serif" font-size="10.00">iterator</text>
</a>
</g>
</g>
<!-- Node15&#45;&gt;Node17 -->
<g id="edge19_Node000015_Node000017" class="edge">
<title>Node15&#45;&gt;Node17</title>
<g id="a_edge19_Node000015_Node000017"><a xlink:title=" ">
<path fill="none" stroke="#63b8ff" d="M478.13,-164.75C477.35,-157.8 476.22,-147.85 475.23,-139.13"/>
<polygon fill="#63b8ff" stroke="#63b8ff" points="478.7,-138.63 474.1,-129.09 471.74,-139.42 478.7,-138.63"/>
</a>
</g>
</g>
<!-- Node15&#45;&gt;Node18 -->
<g id="edge20_Node000015_Node000018" class="edge">
<title>Node15&#45;&gt;Node18</title>
<g id="a_edge20_Node000015_Node000018"><a xlink:title=" ">
<path fill="none" stroke="#63b8ff" d="M501.46,-164.98C524.32,-156.27 560.08,-142.63 585.99,-132.75"/>
<polygon fill="#63b8ff" stroke="#63b8ff" points="587.29,-136 595.39,-129.17 584.79,-129.46 587.29,-136"/>
</a>
</g>
</g>
<!-- Node19&#45;&gt;Node4 -->
<g id="edge23_Node000019_Node000004" class="edge">
<title>Node19&#45;&gt;Node4</title>
<g id="a_edge23_Node000019_Node000004"><a xlink:title=" ">
<path fill="none" stroke="#63b8ff" d="M349.02,-164.75C342.95,-157.26 334.04,-146.28 326.61,-137.13"/>
<polygon fill="#63b8ff" stroke="#63b8ff" points="329.11,-134.65 320.09,-129.09 323.68,-139.06 329.11,-134.65"/>
</a>
</g>
</g>
</g>
</svg>
