<?xml version="1.0" encoding="UTF-8" standalone="no"?>
<!DOCTYPE svg PUBLIC "-//W3C//DTD SVG 1.1//EN"
 "http://www.w3.org/Graphics/SVG/1.1/DTD/svg11.dtd">
<!-- Generated by graphviz version 2.43.0 (0)
 -->
<!-- Title: DocHtmlDescList Pages: 1 -->
<svg width="1694pt" height="409pt"
 viewBox="0.00 0.00 1694.00 408.50" xmlns="http://www.w3.org/2000/svg" xmlns:xlink="http://www.w3.org/1999/xlink">
<g id="graph0" class="graph" transform="scale(1 1) rotate(0) translate(4 404.5)">
<title>DocHtmlDescList</title>
<!-- Node1 -->
<g id="Node000001" class="node">
<title>Node1</title>
<g id="a_Node000001"><a xlink:title="Node representing a Html description list.">
<polygon fill="#999999" stroke="#666666" points="1686,-21.5 1585,-21.5 1585,-2.5 1686,-2.5 1686,-21.5"/>
<text text-anchor="middle" x="1635.5" y="-9.5" font-family="Helvetica,sans-Serif" font-size="10.00">DocHtmlDescList</text>
</a>
</g>
</g>
<!-- Node2 -->
<g id="Node000002" class="node">
<title>Node2</title>
<g id="a_Node000002"><a xlink:href="../../da/dfc/class_doc_compound_node.html" target="_top" xlink:title="Base class for nodes with children.">
<polygon fill="white" stroke="#666666" points="1548,-250.5 1435,-250.5 1435,-231.5 1548,-231.5 1548,-250.5"/>
<text text-anchor="middle" x="1491.5" y="-238.5" font-family="Helvetica,sans-Serif" font-size="10.00">DocCompoundNode</text>
</a>
</g>
</g>
<!-- Node2&#45;&gt;Node1 -->
<g id="edge1_Node000001_Node000002" class="edge">
<title>Node2&#45;&gt;Node1</title>
<g id="a_edge1_Node000001_Node000002"><a xlink:title=" ">
<path fill="none" stroke="#63b8ff" d="M1503.79,-222.79C1532.39,-176.67 1606.95,-56.43 1628.55,-21.59"/>
<polygon fill="#63b8ff" stroke="#63b8ff" points="1500.72,-221.11 1498.42,-231.45 1506.67,-224.8 1500.72,-221.11"/>
</a>
</g>
</g>
<!-- Node3 -->
<g id="Node000003" class="node">
<title>Node3</title>
<g id="a_Node000003"><a xlink:href="../../d9/d0e/class_doc_node.html" target="_top" xlink:title="Abstract node interface with type information.">
<polygon fill="white" stroke="#666666" points="1332.5,-250.5 1271.5,-250.5 1271.5,-231.5 1332.5,-231.5 1332.5,-250.5"/>
<text text-anchor="middle" x="1302" y="-238.5" font-family="Helvetica,sans-Serif" font-size="10.00">DocNode</text>
</a>
</g>
</g>
<!-- Node3&#45;&gt;Node2 -->
<g id="edge2_Node000002_Node000003" class="edge">
<title>Node3&#45;&gt;Node2</title>
<g id="a_edge2_Node000002_Node000003"><a xlink:title=" ">
<path fill="none" stroke="#63b8ff" d="M1342.87,-241C1369.65,-241 1405.31,-241 1434.87,-241"/>
<polygon fill="#63b8ff" stroke="#63b8ff" points="1342.71,-237.5 1332.71,-241 1342.71,-244.5 1342.71,-237.5"/>
</a>
</g>
</g>
<!-- Node4 -->
<g id="Node000004" class="node">
<title>Node4</title>
<g id="a_Node000004"><a xlink:href="../../da/d02/class_doc_parser.html" target="_top" xlink:title=" ">
<polygon fill="white" stroke="#666666" points="1123.5,-250.5 1058.5,-250.5 1058.5,-231.5 1123.5,-231.5 1123.5,-250.5"/>
<text text-anchor="middle" x="1091" y="-238.5" font-family="Helvetica,sans-Serif" font-size="10.00">DocParser</text>
</a>
</g>
</g>
<!-- Node4&#45;&gt;Node3 -->
<g id="edge3_Node000003_Node000004" class="edge">
<title>Node4&#45;&gt;Node3</title>
<g id="a_edge3_Node000003_Node000004"><a xlink:title=" ">
<path fill="none" stroke="#9a32cd" stroke-dasharray="5,2" d="M1133.89,-241C1174.6,-241 1235.39,-241 1271.33,-241"/>
<polygon fill="#9a32cd" stroke="#9a32cd" points="1133.74,-237.5 1123.74,-241 1133.74,-244.5 1133.74,-237.5"/>
</a>
</g>
<text text-anchor="middle" x="1220.5" y="-244" font-family="Helvetica,sans-Serif" font-size="10.00" fill="grey"> m_parser</text>
</g>
<!-- Node5 -->
<g id="Node000005" class="node">
<title>Node5</title>
<g id="a_Node000005"><a xlink:href="../../de/dad/class_i_doc_parser.html" target="_top" xlink:title="opaque parser interface">
<polygon fill="white" stroke="#666666" points="845,-250.5 777,-250.5 777,-231.5 845,-231.5 845,-250.5"/>
<text text-anchor="middle" x="811" y="-238.5" font-family="Helvetica,sans-Serif" font-size="10.00">IDocParser</text>
</a>
</g>
</g>
<!-- Node5&#45;&gt;Node4 -->
<g id="edge4_Node000004_Node000005" class="edge">
<title>Node5&#45;&gt;Node4</title>
<g id="a_edge4_Node000004_Node000005"><a xlink:title=" ">
<path fill="none" stroke="#63b8ff" d="M855.27,-241C911.56,-241 1008.57,-241 1058.42,-241"/>
<polygon fill="#63b8ff" stroke="#63b8ff" points="855.26,-237.5 845.26,-241 855.26,-244.5 855.26,-237.5"/>
</a>
</g>
</g>
<!-- Node6 -->
<g id="Node000006" class="node">
<title>Node6</title>
<g id="a_Node000006"><a xlink:href="../../d8/d7d/struct_doc_parser_context.html" target="_top" xlink:title="Parser&#39;s context to store all global variables.">
<polygon fill="white" stroke="#666666" points="863,-213.5 759,-213.5 759,-194.5 863,-194.5 863,-213.5"/>
<text text-anchor="middle" x="811" y="-201.5" font-family="Helvetica,sans-Serif" font-size="10.00">DocParserContext</text>
</a>
</g>
</g>
<!-- Node6&#45;&gt;Node4 -->
<g id="edge5_Node000004_Node000006" class="edge">
<title>Node6&#45;&gt;Node4</title>
<g id="a_edge5_Node000004_Node000006"><a xlink:title=" ">
<path fill="none" stroke="#9a32cd" stroke-dasharray="5,2" d="M873.11,-211.46C906.49,-215.6 948.54,-220.93 986,-226 1010.22,-229.28 1037.58,-233.23 1058.16,-236.26"/>
<polygon fill="#9a32cd" stroke="#9a32cd" points="873.4,-207.97 863.04,-210.22 872.54,-214.92 873.4,-207.97"/>
</a>
</g>
<text text-anchor="middle" x="933.5" y="-229" font-family="Helvetica,sans-Serif" font-size="10.00" fill="grey"> context</text>
</g>
<!-- Node7 -->
<g id="Node000007" class="node">
<title>Node7</title>
<g id="a_Node000007"><a xlink:href="../../d5/dcc/class_definition.html" target="_top" xlink:title="The common base class of all entity definitions found in the sources.">
<polygon fill="white" stroke="#666666" points="293,-294.5 229,-294.5 229,-275.5 293,-275.5 293,-294.5"/>
<text text-anchor="middle" x="261" y="-282.5" font-family="Helvetica,sans-Serif" font-size="10.00">Definition</text>
</a>
</g>
</g>
<!-- Node7&#45;&gt;Node6 -->
<g id="edge6_Node000006_Node000007" class="edge">
<title>Node7&#45;&gt;Node6</title>
<g id="a_edge6_Node000006_Node000007"><a xlink:title=" ">
<path fill="none" stroke="#9a32cd" stroke-dasharray="5,2" d="M303.18,-290.23C372.88,-298.13 518.43,-310.54 640,-294 686.16,-287.72 706.18,-296.94 741,-266 756.79,-251.97 743.7,-236.57 759,-222 762.6,-218.57 766.9,-215.79 771.45,-213.53"/>
<polygon fill="#9a32cd" stroke="#9a32cd" points="303.39,-286.73 293.05,-289.05 302.58,-293.68 303.39,-286.73"/>
</a>
</g>
<text text-anchor="middle" x="580.5" y="-305" font-family="Helvetica,sans-Serif" font-size="10.00" fill="grey"> scope</text>
</g>
<!-- Node13 -->
<g id="Node000013" class="node">
<title>Node13</title>
<g id="a_Node000013"><a xlink:href="../../da/d09/class_member_def.html" target="_top" xlink:title="A model of a class/file/namespace member symbol.">
<polygon fill="white" stroke="#666666" points="617.5,-284.5 543.5,-284.5 543.5,-265.5 617.5,-265.5 617.5,-284.5"/>
<text text-anchor="middle" x="580.5" y="-272.5" font-family="Helvetica,sans-Serif" font-size="10.00">MemberDef</text>
</a>
</g>
</g>
<!-- Node7&#45;&gt;Node13 -->
<g id="edge13_Node000013_Node000007" class="edge">
<title>Node7&#45;&gt;Node13</title>
<g id="a_edge13_Node000013_Node000007"><a xlink:title=" ">
<path fill="none" stroke="#63b8ff" d="M303.3,-283.7C365.81,-281.73 483.49,-278.02 543.02,-276.15"/>
<polygon fill="#63b8ff" stroke="#63b8ff" points="302.91,-280.21 293.02,-284.02 303.13,-287.21 302.91,-280.21"/>
</a>
</g>
</g>
<!-- Node8 -->
<g id="Node000008" class="node">
<title>Node8</title>
<g id="a_Node000008"><a xlink:href="../../d9/d45/class_q_c_string.html" target="_top" xlink:title="This is an alternative implementation of QCString.">
<polygon fill="white" stroke="#666666" points="290.5,-129.5 231.5,-129.5 231.5,-110.5 290.5,-110.5 290.5,-129.5"/>
<text text-anchor="middle" x="261" y="-117.5" font-family="Helvetica,sans-Serif" font-size="10.00">QCString</text>
</a>
</g>
</g>
<!-- Node8&#45;&gt;Node6 -->
<g id="edge7_Node000006_Node000008" class="edge">
<title>Node8&#45;&gt;Node6</title>
<g id="a_edge7_Node000006_Node000008"><a xlink:title=" ">
<path fill="none" stroke="#9a32cd" stroke-dasharray="5,2" d="M292.59,-133.52C311.84,-141.43 337.42,-150.84 361,-156 482.54,-182.61 516.39,-164.83 640,-179 680.01,-183.59 725.1,-190.29 758.78,-195.6"/>
<polygon fill="#9a32cd" stroke="#9a32cd" points="293.71,-130.2 283.14,-129.56 291,-136.66 293.71,-130.2"/>
</a>
</g>
<text text-anchor="middle" x="580.5" y="-248" font-family="Helvetica,sans-Serif" font-size="10.00" fill="grey"> context</text>
<text text-anchor="middle" x="580.5" y="-237" font-family="Helvetica,sans-Serif" font-size="10.00" fill="grey">exampleName</text>
<text text-anchor="middle" x="580.5" y="-226" font-family="Helvetica,sans-Serif" font-size="10.00" fill="grey">fileName</text>
<text text-anchor="middle" x="580.5" y="-215" font-family="Helvetica,sans-Serif" font-size="10.00" fill="grey">includeFileName</text>
<text text-anchor="middle" x="580.5" y="-204" font-family="Helvetica,sans-Serif" font-size="10.00" fill="grey">includeFileText</text>
<text text-anchor="middle" x="580.5" y="-193" font-family="Helvetica,sans-Serif" font-size="10.00" fill="grey">relPath</text>
<text text-anchor="middle" x="580.5" y="-182" font-family="Helvetica,sans-Serif" font-size="10.00" fill="grey">searchUrl</text>
</g>
<!-- Node14 -->
<g id="Node000014" class="node">
<title>Node14</title>
<g id="a_Node000014"><a xlink:href="../../d6/df4/struct_token_info.html" target="_top" xlink:title="Data associated with a token used by the comment block parser.">
<polygon fill="white" stroke="#666666" points="612,-76.5 549,-76.5 549,-57.5 612,-57.5 612,-76.5"/>
<text text-anchor="middle" x="580.5" y="-64.5" font-family="Helvetica,sans-Serif" font-size="10.00">TokenInfo</text>
</a>
</g>
</g>
<!-- Node8&#45;&gt;Node14 -->
<g id="edge15_Node000014_Node000008" class="edge">
<title>Node8&#45;&gt;Node14</title>
<g id="a_edge15_Node000014_Node000008"><a xlink:title=" ">
<path fill="none" stroke="#9a32cd" stroke-dasharray="5,2" d="M283.59,-104.74C302.86,-92.11 332.38,-75.13 361,-68 426.34,-51.73 506.11,-57.54 548.9,-62.63"/>
<polygon fill="#9a32cd" stroke="#9a32cd" points="281.59,-101.87 275.25,-110.36 285.5,-107.68 281.59,-101.87"/>
</a>
</g>
<text text-anchor="middle" x="432" y="-148" font-family="Helvetica,sans-Serif" font-size="10.00" fill="grey"> attribsStr</text>
<text text-anchor="middle" x="432" y="-137" font-family="Helvetica,sans-Serif" font-size="10.00" fill="grey">chars</text>
<text text-anchor="middle" x="432" y="-126" font-family="Helvetica,sans-Serif" font-size="10.00" fill="grey">name</text>
<text text-anchor="middle" x="432" y="-115" font-family="Helvetica,sans-Serif" font-size="10.00" fill="grey">sectionId</text>
<text text-anchor="middle" x="432" y="-104" font-family="Helvetica,sans-Serif" font-size="10.00" fill="grey">simpleSectName</text>
<text text-anchor="middle" x="432" y="-93" font-family="Helvetica,sans-Serif" font-size="10.00" fill="grey">simpleSectText</text>
<text text-anchor="middle" x="432" y="-82" font-family="Helvetica,sans-Serif" font-size="10.00" fill="grey">text</text>
<text text-anchor="middle" x="432" y="-71" font-family="Helvetica,sans-Serif" font-size="10.00" fill="grey">verb</text>
</g>
<!-- Node9 -->
<g id="Node000009" class="node">
<title>Node9</title>
<g id="a_Node000009"><a xlink:href="../../d9/d82/class_iterable_stack.html" target="_top" xlink:title=" ">
<polygon fill="white" stroke="#666666" points="640,-380 521,-380 521,-350 640,-350 640,-380"/>
<text text-anchor="start" x="529" y="-368" font-family="Helvetica,sans-Serif" font-size="10.00">IterableStack&lt; const</text>
<text text-anchor="middle" x="580.5" y="-357" font-family="Helvetica,sans-Serif" font-size="10.00"> DocNodeVariant * &gt;</text>
</a>
</g>
</g>
<!-- Node9&#45;&gt;Node6 -->
<g id="edge8_Node000006_Node000009" class="edge">
<title>Node9&#45;&gt;Node6</title>
<g id="a_edge8_Node000006_Node000009"><a xlink:title=" ">
<path fill="none" stroke="#9a32cd" stroke-dasharray="5,2" d="M650.2,-369.04C682,-367.1 717.78,-358.88 741,-335 776.45,-298.54 726.44,-261.07 759,-222 761.77,-218.68 765.18,-215.98 768.93,-213.77"/>
<polygon fill="#9a32cd" stroke="#9a32cd" points="649.89,-365.55 640.04,-369.45 650.18,-372.54 649.89,-365.55"/>
</a>
</g>
<text text-anchor="middle" x="699.5" y="-382" font-family="Helvetica,sans-Serif" font-size="10.00" fill="grey"> initialStyleStack</text>
<text text-anchor="middle" x="699.5" y="-371" font-family="Helvetica,sans-Serif" font-size="10.00" fill="grey">styleStack</text>
</g>
<!-- Node10 -->
<g id="Node000010" class="node">
<title>Node10</title>
<g id="a_Node000010"><a xlink:title=" ">
<polygon fill="white" stroke="#666666" points="343,-400.5 179,-400.5 179,-359.5 343,-359.5 343,-400.5"/>
<text text-anchor="start" x="187" y="-388.5" font-family="Helvetica,sans-Serif" font-size="10.00">std::stack&lt; const DocNode</text>
<text text-anchor="start" x="187" y="-377.5" font-family="Helvetica,sans-Serif" font-size="10.00">Variant * , std::deque</text>
<text text-anchor="middle" x="261" y="-366.5" font-family="Helvetica,sans-Serif" font-size="10.00">&lt;const DocNodeVariant * &gt; &gt;</text>
</a>
</g>
</g>
<!-- Node10&#45;&gt;Node9 -->
<g id="edge9_Node000009_Node000010" class="edge">
<title>Node10&#45;&gt;Node9</title>
<g id="a_edge9_Node000009_Node000010"><a xlink:title=" ">
<path fill="none" stroke="#63b8ff" d="M353.61,-375.67C407.5,-373.13 474.05,-369.98 520.91,-367.77"/>
<polygon fill="#63b8ff" stroke="#63b8ff" points="353.18,-372.19 343.35,-376.16 353.51,-379.18 353.18,-372.19"/>
</a>
</g>
</g>
<!-- Node11 -->
<g id="Node000011" class="node">
<title>Node11</title>
<g id="a_Node000011"><a xlink:href="../../d9/d82/class_iterable_stack.html" target="_top" xlink:title=" ">
<polygon fill="white" stroke="#666666" points="342.5,-341.5 179.5,-341.5 179.5,-322.5 342.5,-322.5 342.5,-341.5"/>
<text text-anchor="middle" x="261" y="-329.5" font-family="Helvetica,sans-Serif" font-size="10.00">IterableStack&lt; T, Container &gt;</text>
</a>
</g>
</g>
<!-- Node11&#45;&gt;Node9 -->
<g id="edge10_Node000009_Node000011" class="edge">
<title>Node11&#45;&gt;Node9</title>
<g id="a_edge10_Node000009_Node000011"><a xlink:title=" ">
<path fill="none" stroke="orange" stroke-dasharray="5,2" d="M352.83,-338.43C398.04,-342.01 453.49,-346.97 503,-353 508.74,-353.7 514.71,-354.5 520.67,-355.35"/>
<polygon fill="orange" stroke="orange" points="352.99,-334.93 342.75,-337.64 352.45,-341.91 352.99,-334.93"/>
</a>
</g>
<text text-anchor="middle" x="432" y="-356" font-family="Helvetica,sans-Serif" font-size="10.00" fill="grey"> &lt; const DocNodeVariant * &gt;</text>
</g>
<!-- Node12 -->
<g id="Node000012" class="node">
<title>Node12</title>
<g id="a_Node000012"><a xlink:title=" ">
<polygon fill="white" stroke="#666666" points="122,-347 20,-347 20,-317 122,-317 122,-347"/>
<text text-anchor="start" x="28" y="-335" font-family="Helvetica,sans-Serif" font-size="10.00">std::stack&lt; T, std</text>
<text text-anchor="middle" x="71" y="-324" font-family="Helvetica,sans-Serif" font-size="10.00">::deque&lt; T &gt; &gt;</text>
</a>
</g>
</g>
<!-- Node12&#45;&gt;Node11 -->
<g id="edge11_Node000011_Node000012" class="edge">
<title>Node12&#45;&gt;Node11</title>
<g id="a_edge11_Node000011_Node000012"><a xlink:title=" ">
<path fill="none" stroke="#63b8ff" d="M132.48,-332C147.4,-332 163.62,-332 179.34,-332"/>
<polygon fill="#63b8ff" stroke="#63b8ff" points="132.38,-328.5 122.38,-332 132.38,-335.5 132.38,-328.5"/>
</a>
</g>
</g>
<!-- Node13&#45;&gt;Node6 -->
<g id="edge12_Node000006_Node000013" class="edge">
<title>Node13&#45;&gt;Node6</title>
<g id="a_edge12_Node000006_Node000013"><a xlink:title=" ">
<path fill="none" stroke="#9a32cd" stroke-dasharray="5,2" d="M622.05,-262.4C667.06,-248.41 738.71,-226.15 779.31,-213.54"/>
<polygon fill="#9a32cd" stroke="#9a32cd" points="620.83,-259.11 612.32,-265.42 622.9,-265.8 620.83,-259.11"/>
</a>
</g>
<text text-anchor="middle" x="699.5" y="-254" font-family="Helvetica,sans-Serif" font-size="10.00" fill="grey"> memberDef</text>
</g>
<!-- Node14&#45;&gt;Node6 -->
<g id="edge14_Node000006_Node000014" class="edge">
<title>Node14&#45;&gt;Node6</title>
<g id="a_edge14_Node000006_Node000014"><a xlink:title=" ">
<path fill="none" stroke="#9a32cd" stroke-dasharray="5,2" d="M615.03,-80.45C648.25,-94.44 699.96,-118.05 741,-145 763.92,-160.06 787.56,-181.9 800.35,-194.35"/>
<polygon fill="#9a32cd" stroke="#9a32cd" points="616.33,-77.2 605.76,-76.59 613.65,-83.66 616.33,-77.2"/>
</a>
</g>
<text text-anchor="middle" x="699.5" y="-148" font-family="Helvetica,sans-Serif" font-size="10.00" fill="grey"> token</text>
</g>
<!-- Node15 -->
<g id="Node000015" class="node">
<title>Node15</title>
<g id="a_Node000015"><a xlink:href="../../db/d4d/class_html_attrib_list.html" target="_top" xlink:title="Class representing a list of HTML attributes.">
<polygon fill="white" stroke="#666666" points="303.5,-26.5 218.5,-26.5 218.5,-7.5 303.5,-7.5 303.5,-26.5"/>
<text text-anchor="middle" x="261" y="-14.5" font-family="Helvetica,sans-Serif" font-size="10.00">HtmlAttribList</text>
</a>
</g>
</g>
<!-- Node15&#45;&gt;Node1 -->
<g id="edge22_Node000001_Node000015" class="edge">
<title>Node15&#45;&gt;Node1</title>
<g id="a_edge22_Node000001_Node000015"><a xlink:title=" ">
<path fill="none" stroke="#9a32cd" stroke-dasharray="5,2" d="M313.61,-12.54C376.4,-7.5 485.64,0 579.5,0 579.5,0 579.5,0 1492.5,0 1523.3,0 1557.73,-2.84 1584.97,-5.75"/>
<polygon fill="#9a32cd" stroke="#9a32cd" points="313.25,-9.05 303.57,-13.35 313.82,-16.03 313.25,-9.05"/>
</a>
</g>
<text text-anchor="middle" x="1091" y="-3" font-family="Helvetica,sans-Serif" font-size="10.00" fill="grey"> m_attribs</text>
</g>
<!-- Node15&#45;&gt;Node14 -->
<g id="edge16_Node000014_Node000015" class="edge">
<title>Node15&#45;&gt;Node14</title>
<g id="a_edge16_Node000014_Node000015"><a xlink:title=" ">
<path fill="none" stroke="#9a32cd" stroke-dasharray="5,2" d="M313.69,-15.67C363.02,-15.56 439.08,-18.44 503,-34 524.08,-39.13 546.72,-49.58 561.86,-57.35"/>
<polygon fill="#9a32cd" stroke="#9a32cd" points="313.56,-12.17 303.58,-15.74 313.61,-19.17 313.56,-12.17"/>
</a>
</g>
<text text-anchor="middle" x="432" y="-37" font-family="Helvetica,sans-Serif" font-size="10.00" fill="grey"> attribs</text>
</g>
<!-- Node16 -->
<g id="Node000016" class="node">
<title>Node16</title>
<g id="a_Node000016"><a xlink:title=" ">
<polygon fill="white" stroke="#666666" points="142,-26.5 0,-26.5 0,-7.5 142,-7.5 142,-26.5"/>
<text text-anchor="middle" x="71" y="-14.5" font-family="Helvetica,sans-Serif" font-size="10.00">std::vector&lt; HtmlAttrib &gt;</text>
</a>
</g>
</g>
<!-- Node16&#45;&gt;Node15 -->
<g id="edge17_Node000015_Node000016" class="edge">
<title>Node16&#45;&gt;Node15</title>
<g id="a_edge17_Node000015_Node000016"><a xlink:title=" ">
<path fill="none" stroke="#63b8ff" d="M152.05,-17C174.87,-17 198.82,-17 218.34,-17"/>
<polygon fill="#63b8ff" stroke="#63b8ff" points="152,-13.5 142,-17 152,-20.5 152,-13.5"/>
</a>
</g>
</g>
<!-- Node17 -->
<g id="Node000017" class="node">
<title>Node17</title>
<g id="a_Node000017"><a xlink:href="../../d1/d7f/class_doc_tokenizer.html" target="_top" xlink:title=" ">
<polygon fill="white" stroke="#666666" points="851.5,-287.5 770.5,-287.5 770.5,-268.5 851.5,-268.5 851.5,-287.5"/>
<text text-anchor="middle" x="811" y="-275.5" font-family="Helvetica,sans-Serif" font-size="10.00">DocTokenizer</text>
</a>
</g>
</g>
<!-- Node17&#45;&gt;Node4 -->
<g id="edge18_Node000004_Node000017" class="edge">
<title>Node17&#45;&gt;Node4</title>
<g id="a_edge18_Node000004_Node000017"><a xlink:title=" ">
<path fill="none" stroke="#9a32cd" stroke-dasharray="5,2" d="M861.66,-271.47C896.47,-266.88 944.08,-260.59 986,-255 1010.2,-251.77 1037.56,-248.09 1058.14,-245.31"/>
<polygon fill="#9a32cd" stroke="#9a32cd" points="861.2,-268 851.74,-272.77 862.11,-274.94 861.2,-268"/>
</a>
</g>
<text text-anchor="middle" x="933.5" y="-271" font-family="Helvetica,sans-Serif" font-size="10.00" fill="grey"> tokenizer</text>
</g>
<!-- Node18 -->
<g id="Node000018" class="node">
<title>Node18</title>
<g id="a_Node000018"><a xlink:href="../../d9/dd3/struct_doc_node_list.html" target="_top" xlink:title=" ">
<polygon fill="white" stroke="#666666" points="1341,-296.5 1263,-296.5 1263,-277.5 1341,-277.5 1341,-296.5"/>
<text text-anchor="middle" x="1302" y="-284.5" font-family="Helvetica,sans-Serif" font-size="10.00">DocNodeList</text>
</a>
</g>
</g>
<!-- Node18&#45;&gt;Node2 -->
<g id="edge19_Node000002_Node000018" class="edge">
<title>Node18&#45;&gt;Node2</title>
<g id="a_edge19_Node000002_Node000018"><a xlink:title=" ">
<path fill="none" stroke="#9a32cd" stroke-dasharray="5,2" d="M1351.17,-275.18C1382.33,-267.54 1422.36,-257.72 1451.51,-250.57"/>
<polygon fill="#9a32cd" stroke="#9a32cd" points="1350.27,-271.8 1341.4,-277.58 1351.94,-278.6 1350.27,-271.8"/>
</a>
</g>
<text text-anchor="middle" x="1388" y="-275" font-family="Helvetica,sans-Serif" font-size="10.00" fill="grey"> m_children</text>
</g>
<!-- Node19 -->
<g id="Node000019" class="node">
<title>Node19</title>
<g id="a_Node000019"><a xlink:href="../../d0/d08/class_grow_vector.html" target="_top" xlink:title=" ">
<polygon fill="white" stroke="#666666" points="1178,-319.5 1004,-319.5 1004,-300.5 1178,-300.5 1178,-319.5"/>
<text text-anchor="middle" x="1091" y="-307.5" font-family="Helvetica,sans-Serif" font-size="10.00">GrowVector&lt; DocNodeVariant &gt;</text>
</a>
</g>
</g>
<!-- Node19&#45;&gt;Node18 -->
<g id="edge20_Node000018_Node000019" class="edge">
<title>Node19&#45;&gt;Node18</title>
<g id="a_edge20_Node000018_Node000019"><a xlink:title=" ">
<path fill="none" stroke="#63b8ff" d="M1188.29,-299.4C1214.7,-296.5 1241.82,-293.51 1262.84,-291.2"/>
<polygon fill="#63b8ff" stroke="#63b8ff" points="1187.77,-295.94 1178.21,-300.51 1188.54,-302.9 1187.77,-295.94"/>
</a>
</g>
</g>
<!-- Node20 -->
<g id="Node000020" class="node">
<title>Node20</title>
<g id="a_Node000020"><a xlink:href="../../d0/d08/class_grow_vector.html" target="_top" xlink:title="std::vector like container optimised for pushing elements to the back.">
<polygon fill="white" stroke="#666666" points="861.5,-324.5 760.5,-324.5 760.5,-305.5 861.5,-305.5 861.5,-324.5"/>
<text text-anchor="middle" x="811" y="-312.5" font-family="Helvetica,sans-Serif" font-size="10.00">GrowVector&lt; T &gt;</text>
</a>
</g>
</g>
<!-- Node20&#45;&gt;Node19 -->
<g id="edge21_Node000019_Node000020" class="edge">
<title>Node20&#45;&gt;Node19</title>
<g id="a_edge21_Node000019_Node000020"><a xlink:title=" ">
<path fill="none" stroke="orange" stroke-dasharray="5,2" d="M871.73,-313.93C910.27,-313.23 961.03,-312.32 1003.9,-311.55"/>
<polygon fill="orange" stroke="orange" points="871.64,-310.43 861.7,-314.11 871.76,-317.43 871.64,-310.43"/>
</a>
</g>
<text text-anchor="middle" x="933.5" y="-316" font-family="Helvetica,sans-Serif" font-size="10.00" fill="grey"> &lt; DocNodeVariant &gt;</text>
</g>
</g>
</svg>
