<?xml version="1.0" encoding="UTF-8" standalone="no"?>
<!DOCTYPE svg PUBLIC "-//W3C//DTD SVG 1.1//EN"
 "http://www.w3.org/Graphics/SVG/1.1/DTD/svg11.dtd">
<!-- Generated by graphviz version 2.43.0 (0)
 -->
<!-- Title: DefinitionMixin&lt; Base &gt; Pages: 1 -->
<svg width="717pt" height="370pt"
 viewBox="0.00 0.00 717.00 369.50" xmlns="http://www.w3.org/2000/svg" xmlns:xlink="http://www.w3.org/1999/xlink">
<g id="graph0" class="graph" transform="scale(1 1) rotate(0) translate(4 365.5)">
<title>DefinitionMixin&lt; Base &gt;</title>
<!-- Node1 -->
<g id="Node000001" class="node">
<title>Node1</title>
<g id="a_Node000001"><a xlink:title=" ">
<polygon fill="#999999" stroke="#666666" points="215,-191 78,-191 78,-172 215,-172 215,-191"/>
<text text-anchor="middle" x="146.5" y="-179" font-family="Helvetica,sans-Serif" font-size="10.00">DefinitionMixin&lt; Base &gt;</text>
</a>
</g>
</g>
<!-- Node3 -->
<g id="Node000003" class="node">
<title>Node3</title>
<g id="a_Node000003"><a xlink:href="../../dd/d10/class_definition_mixin.html" target="_top" xlink:title=" ">
<polygon fill="white" stroke="#666666" points="548.5,-361.5 402.5,-361.5 402.5,-331.5 548.5,-331.5 548.5,-361.5"/>
<text text-anchor="start" x="410.5" y="-349.5" font-family="Helvetica,sans-Serif" font-size="10.00">DefinitionMixin&lt; ClassDef</text>
<text text-anchor="middle" x="475.5" y="-338.5" font-family="Helvetica,sans-Serif" font-size="10.00">Mutable &gt;</text>
</a>
</g>
</g>
<!-- Node1&#45;&gt;Node3 -->
<g id="edge2_Node000001_Node000003" class="edge">
<title>Node1&#45;&gt;Node3</title>
<g id="a_edge2_Node000001_Node000003"><a xlink:title=" ">
<path fill="none" stroke="orange" stroke-dasharray="5,2" d="M154.07,-200.65C165.26,-230.07 190.95,-285.77 233,-312.5 283.29,-344.47 351.29,-351.56 402.31,-351.47"/>
<polygon fill="orange" stroke="orange" points="157.31,-199.31 150.61,-191.11 150.73,-201.7 157.31,-199.31"/>
</a>
</g>
<text text-anchor="middle" x="303.5" y="-353.5" font-family="Helvetica,sans-Serif" font-size="10.00" fill="grey"> &lt; ClassDefMutable &gt;</text>
</g>
<!-- Node5 -->
<g id="Node000005" class="node">
<title>Node5</title>
<g id="a_Node000005"><a xlink:href="../../dd/d10/class_definition_mixin.html" target="_top" xlink:title=" ">
<polygon fill="white" stroke="#666666" points="546.5,-313.5 404.5,-313.5 404.5,-283.5 546.5,-283.5 546.5,-313.5"/>
<text text-anchor="start" x="412.5" y="-301.5" font-family="Helvetica,sans-Serif" font-size="10.00">DefinitionMixin&lt; Concept</text>
<text text-anchor="middle" x="475.5" y="-290.5" font-family="Helvetica,sans-Serif" font-size="10.00">DefMutable &gt;</text>
</a>
</g>
</g>
<!-- Node1&#45;&gt;Node5 -->
<g id="edge4_Node000001_Node000005" class="edge">
<title>Node1&#45;&gt;Node5</title>
<g id="a_edge4_Node000001_Node000005"><a xlink:title=" ">
<path fill="none" stroke="orange" stroke-dasharray="5,2" d="M160.26,-199.05C175.32,-218.31 202.23,-248.48 233,-263.5 286.58,-289.66 354.25,-297.64 404.31,-299.51"/>
<polygon fill="orange" stroke="orange" points="163.04,-196.92 154.21,-191.06 157.46,-201.15 163.04,-196.92"/>
</a>
</g>
<text text-anchor="middle" x="303.5" y="-300.5" font-family="Helvetica,sans-Serif" font-size="10.00" fill="grey"> &lt; ConceptDefMutable &gt;</text>
</g>
<!-- Node7 -->
<g id="Node000007" class="node">
<title>Node7</title>
<g id="a_Node000007"><a xlink:href="../../dd/d10/class_definition_mixin.html" target="_top" xlink:title=" ">
<polygon fill="white" stroke="#666666" points="548,-265 403,-265 403,-246 548,-246 548,-265"/>
<text text-anchor="middle" x="475.5" y="-253" font-family="Helvetica,sans-Serif" font-size="10.00">DefinitionMixin&lt; DirDef &gt;</text>
</a>
</g>
</g>
<!-- Node1&#45;&gt;Node7 -->
<g id="edge6_Node000001_Node000007" class="edge">
<title>Node1&#45;&gt;Node7</title>
<g id="a_edge6_Node000001_Node000007"><a xlink:title=" ">
<path fill="none" stroke="orange" stroke-dasharray="5,2" d="M171.96,-196.18C188.6,-205.49 211.43,-216.97 233,-223.5 288.66,-240.36 354.19,-248.34 402.94,-252.12"/>
<polygon fill="orange" stroke="orange" points="173.35,-192.95 162.94,-191.01 169.87,-199.02 173.35,-192.95"/>
</a>
</g>
<text text-anchor="middle" x="303.5" y="-251.5" font-family="Helvetica,sans-Serif" font-size="10.00" fill="grey"> &lt; DirDef &gt;</text>
</g>
<!-- Node9 -->
<g id="Node000009" class="node">
<title>Node9</title>
<g id="a_Node000009"><a xlink:href="../../dd/d10/class_definition_mixin.html" target="_top" xlink:title=" ">
<polygon fill="white" stroke="#666666" points="549.5,-228 401.5,-228 401.5,-209 549.5,-209 549.5,-228"/>
<text text-anchor="middle" x="475.5" y="-216" font-family="Helvetica,sans-Serif" font-size="10.00">DefinitionMixin&lt; FileDef &gt;</text>
</a>
</g>
</g>
<!-- Node1&#45;&gt;Node9 -->
<g id="edge8_Node000001_Node000009" class="edge">
<title>Node1&#45;&gt;Node9</title>
<g id="a_edge8_Node000001_Node000009"><a xlink:title=" ">
<path fill="none" stroke="orange" stroke-dasharray="5,2" d="M217.67,-192.47C222.86,-193.19 228.01,-193.87 233,-194.5 289.44,-201.59 353.51,-207.88 401.47,-212.24"/>
<polygon fill="orange" stroke="orange" points="218.1,-188.99 207.7,-191.05 217.11,-195.92 218.1,-188.99"/>
</a>
</g>
<text text-anchor="middle" x="303.5" y="-211.5" font-family="Helvetica,sans-Serif" font-size="10.00" fill="grey"> &lt; FileDef &gt;</text>
</g>
<!-- Node11 -->
<g id="Node000011" class="node">
<title>Node11</title>
<g id="a_Node000011"><a xlink:href="../../dd/d10/class_definition_mixin.html" target="_top" xlink:title=" ">
<polygon fill="white" stroke="#666666" points="555.5,-191 395.5,-191 395.5,-172 555.5,-172 555.5,-191"/>
<text text-anchor="middle" x="475.5" y="-179" font-family="Helvetica,sans-Serif" font-size="10.00">DefinitionMixin&lt; GroupDef &gt;</text>
</a>
</g>
</g>
<!-- Node1&#45;&gt;Node11 -->
<g id="edge10_Node000001_Node000011" class="edge">
<title>Node1&#45;&gt;Node11</title>
<g id="a_edge10_Node000001_Node000011"><a xlink:title=" ">
<path fill="none" stroke="orange" stroke-dasharray="5,2" d="M225.3,-181.5C276.64,-181.5 343.7,-181.5 395.32,-181.5"/>
<polygon fill="orange" stroke="orange" points="225.25,-178 215.25,-181.5 225.25,-185 225.25,-178"/>
</a>
</g>
<text text-anchor="middle" x="303.5" y="-184.5" font-family="Helvetica,sans-Serif" font-size="10.00" fill="grey"> &lt; GroupDef &gt;</text>
</g>
<!-- Node13 -->
<g id="Node000013" class="node">
<title>Node13</title>
<g id="a_Node000013"><a xlink:href="../../dd/d10/class_definition_mixin.html" target="_top" xlink:title=" ">
<polygon fill="white" stroke="#666666" points="555.5,-153.5 395.5,-153.5 395.5,-123.5 555.5,-123.5 555.5,-153.5"/>
<text text-anchor="start" x="403.5" y="-141.5" font-family="Helvetica,sans-Serif" font-size="10.00">DefinitionMixin&lt; MemberDef</text>
<text text-anchor="middle" x="475.5" y="-130.5" font-family="Helvetica,sans-Serif" font-size="10.00">Mutable &gt;</text>
</a>
</g>
</g>
<!-- Node1&#45;&gt;Node13 -->
<g id="edge12_Node000001_Node000013" class="edge">
<title>Node1&#45;&gt;Node13</title>
<g id="a_edge12_Node000001_Node000013"><a xlink:title=" ">
<path fill="none" stroke="orange" stroke-dasharray="5,2" d="M209.06,-170.26C217.1,-168.92 225.24,-167.63 233,-166.5 287.09,-158.63 348.25,-151.55 395.49,-146.49"/>
<polygon fill="orange" stroke="orange" points="208.24,-166.85 198.96,-171.97 209.41,-173.75 208.24,-166.85"/>
</a>
</g>
<text text-anchor="middle" x="303.5" y="-169.5" font-family="Helvetica,sans-Serif" font-size="10.00" fill="grey"> &lt; MemberDefMutable &gt;</text>
</g>
<!-- Node15 -->
<g id="Node000015" class="node">
<title>Node15</title>
<g id="a_Node000015"><a xlink:href="../../dd/d10/class_definition_mixin.html" target="_top" xlink:title=" ">
<polygon fill="white" stroke="#666666" points="559,-105 392,-105 392,-86 559,-86 559,-105"/>
<text text-anchor="middle" x="475.5" y="-93" font-family="Helvetica,sans-Serif" font-size="10.00">DefinitionMixin&lt; ModuleDef &gt;</text>
</a>
</g>
</g>
<!-- Node1&#45;&gt;Node15 -->
<g id="edge14_Node000001_Node000015" class="edge">
<title>Node1&#45;&gt;Node15</title>
<g id="a_edge14_Node000001_Node000015"><a xlink:title=" ">
<path fill="none" stroke="orange" stroke-dasharray="5,2" d="M169.82,-166.44C186.52,-155.88 210.3,-142.31 233,-134.5 284.2,-116.88 344.31,-107.14 391.75,-101.8"/>
<polygon fill="orange" stroke="orange" points="167.82,-163.57 161.32,-171.94 171.62,-169.44 167.82,-163.57"/>
</a>
</g>
<text text-anchor="middle" x="303.5" y="-137.5" font-family="Helvetica,sans-Serif" font-size="10.00" fill="grey"> &lt; ModuleDef &gt;</text>
</g>
<!-- Node17 -->
<g id="Node000017" class="node">
<title>Node17</title>
<g id="a_Node000017"><a xlink:href="../../dd/d10/class_definition_mixin.html" target="_top" xlink:title=" ">
<polygon fill="white" stroke="#666666" points="555.5,-67.5 395.5,-67.5 395.5,-37.5 555.5,-37.5 555.5,-67.5"/>
<text text-anchor="start" x="403.5" y="-55.5" font-family="Helvetica,sans-Serif" font-size="10.00">DefinitionMixin&lt; Namespace</text>
<text text-anchor="middle" x="475.5" y="-44.5" font-family="Helvetica,sans-Serif" font-size="10.00">DefMutable &gt;</text>
</a>
</g>
</g>
<!-- Node1&#45;&gt;Node17 -->
<g id="edge16_Node000001_Node000017" class="edge">
<title>Node1&#45;&gt;Node17</title>
<g id="a_edge16_Node000001_Node000017"><a xlink:title=" ">
<path fill="none" stroke="orange" stroke-dasharray="5,2" d="M158.97,-163.37C173.45,-142.15 200.45,-107.71 233,-90.5 282.9,-64.12 346.14,-54.89 395.38,-52.12"/>
<polygon fill="orange" stroke="orange" points="155.97,-161.55 153.38,-171.83 161.82,-165.41 155.97,-161.55"/>
</a>
</g>
<text text-anchor="middle" x="303.5" y="-93.5" font-family="Helvetica,sans-Serif" font-size="10.00" fill="grey"> &lt; NamespaceDefMutable &gt;</text>
</g>
<!-- Node19 -->
<g id="Node000019" class="node">
<title>Node19</title>
<g id="a_Node000019"><a xlink:href="../../dd/d10/class_definition_mixin.html" target="_top" xlink:title=" ">
<polygon fill="white" stroke="#666666" points="552.5,-19 398.5,-19 398.5,0 552.5,0 552.5,-19"/>
<text text-anchor="middle" x="475.5" y="-7" font-family="Helvetica,sans-Serif" font-size="10.00">DefinitionMixin&lt; PageDef &gt;</text>
</a>
</g>
</g>
<!-- Node1&#45;&gt;Node19 -->
<g id="edge18_Node000001_Node000019" class="edge">
<title>Node1&#45;&gt;Node19</title>
<g id="a_edge18_Node000001_Node000019"><a xlink:title=" ">
<path fill="none" stroke="orange" stroke-dasharray="5,2" d="M153.1,-162.03C163.3,-130.45 188.1,-68.67 233,-39.5 281.71,-7.85 347.77,-1.54 398.48,-2.49"/>
<polygon fill="orange" stroke="orange" points="149.68,-161.25 150.1,-171.84 156.38,-163.3 149.68,-161.25"/>
</a>
</g>
<text text-anchor="middle" x="303.5" y="-42.5" font-family="Helvetica,sans-Serif" font-size="10.00" fill="grey"> &lt; PageDef &gt;</text>
</g>
<!-- Node2 -->
<g id="Node000002" class="node">
<title>Node2</title>
<g id="a_Node000002"><a xlink:title=" ">
<polygon fill="white" stroke="#666666" points="41,-191 0,-191 0,-172 41,-172 41,-191"/>
<text text-anchor="middle" x="20.5" y="-179" font-family="Helvetica,sans-Serif" font-size="10.00">Base</text>
</a>
</g>
</g>
<!-- Node2&#45;&gt;Node1 -->
<g id="edge1_Node000001_Node000002" class="edge">
<title>Node2&#45;&gt;Node1</title>
<g id="a_edge1_Node000001_Node000002"><a xlink:title=" ">
<path fill="none" stroke="#63b8ff" d="M51.19,-181.5C59.33,-181.5 68.51,-181.5 77.86,-181.5"/>
<polygon fill="#63b8ff" stroke="#63b8ff" points="51.15,-178 41.15,-181.5 51.15,-185 51.15,-178"/>
</a>
</g>
</g>
<!-- Node4 -->
<g id="Node000004" class="node">
<title>Node4</title>
<g id="a_Node000004"><a xlink:href="../../d1/d25/class_class_def_impl.html" target="_top" xlink:title="Implementation of the ClassDef interface.">
<polygon fill="white" stroke="#666666" points="693.5,-356 611.5,-356 611.5,-337 693.5,-337 693.5,-356"/>
<text text-anchor="middle" x="652.5" y="-344" font-family="Helvetica,sans-Serif" font-size="10.00">ClassDefImpl</text>
</a>
</g>
</g>
<!-- Node3&#45;&gt;Node4 -->
<g id="edge3_Node000003_Node000004" class="edge">
<title>Node3&#45;&gt;Node4</title>
<g id="a_edge3_Node000003_Node000004"><a xlink:title=" ">
<path fill="none" stroke="#63b8ff" d="M558.74,-346.5C576.91,-346.5 595.39,-346.5 611.02,-346.5"/>
<polygon fill="#63b8ff" stroke="#63b8ff" points="558.69,-343 548.69,-346.5 558.69,-350 558.69,-343"/>
</a>
</g>
</g>
<!-- Node6 -->
<g id="Node000006" class="node">
<title>Node6</title>
<g id="a_Node000006"><a xlink:href="../../d8/d72/class_concept_def_impl.html" target="_top" xlink:title=" ">
<polygon fill="white" stroke="#666666" points="700,-308 605,-308 605,-289 700,-289 700,-308"/>
<text text-anchor="middle" x="652.5" y="-296" font-family="Helvetica,sans-Serif" font-size="10.00">ConceptDefImpl</text>
</a>
</g>
</g>
<!-- Node5&#45;&gt;Node6 -->
<g id="edge5_Node000005_Node000006" class="edge">
<title>Node5&#45;&gt;Node6</title>
<g id="a_edge5_Node000005_Node000006"><a xlink:title=" ">
<path fill="none" stroke="#63b8ff" d="M556.86,-298.5C573.32,-298.5 590.12,-298.5 604.92,-298.5"/>
<polygon fill="#63b8ff" stroke="#63b8ff" points="556.67,-295 546.67,-298.5 556.67,-302 556.67,-295"/>
</a>
</g>
</g>
<!-- Node8 -->
<g id="Node000008" class="node">
<title>Node8</title>
<g id="a_Node000008"><a xlink:href="../../d8/db7/class_dir_def_impl.html" target="_top" xlink:title=" ">
<polygon fill="white" stroke="#666666" points="687.5,-265 617.5,-265 617.5,-246 687.5,-246 687.5,-265"/>
<text text-anchor="middle" x="652.5" y="-253" font-family="Helvetica,sans-Serif" font-size="10.00">DirDefImpl</text>
</a>
</g>
</g>
<!-- Node7&#45;&gt;Node8 -->
<g id="edge7_Node000007_Node000008" class="edge">
<title>Node7&#45;&gt;Node8</title>
<g id="a_edge7_Node000007_Node000008"><a xlink:title=" ">
<path fill="none" stroke="#63b8ff" d="M558.29,-255.5C579,-255.5 600.14,-255.5 617.03,-255.5"/>
<polygon fill="#63b8ff" stroke="#63b8ff" points="558.18,-252 548.18,-255.5 558.18,-259 558.18,-252"/>
</a>
</g>
</g>
<!-- Node10 -->
<g id="Node000010" class="node">
<title>Node10</title>
<g id="a_Node000010"><a xlink:href="../../d5/d14/class_file_def_impl.html" target="_top" xlink:title=" ">
<polygon fill="white" stroke="#666666" points="689,-228 616,-228 616,-209 689,-209 689,-228"/>
<text text-anchor="middle" x="652.5" y="-216" font-family="Helvetica,sans-Serif" font-size="10.00">FileDefImpl</text>
</a>
</g>
</g>
<!-- Node9&#45;&gt;Node10 -->
<g id="edge9_Node000009_Node000010" class="edge">
<title>Node9&#45;&gt;Node10</title>
<g id="a_edge9_Node000009_Node000010"><a xlink:title=" ">
<path fill="none" stroke="#63b8ff" d="M559.95,-218.5C579.62,-218.5 599.58,-218.5 615.81,-218.5"/>
<polygon fill="#63b8ff" stroke="#63b8ff" points="559.7,-215 549.7,-218.5 559.7,-222 559.7,-215"/>
</a>
</g>
</g>
<!-- Node12 -->
<g id="Node000012" class="node">
<title>Node12</title>
<g id="a_Node000012"><a xlink:href="../../db/d22/class_group_def_impl.html" target="_top" xlink:title=" ">
<polygon fill="white" stroke="#666666" points="695,-191 610,-191 610,-172 695,-172 695,-191"/>
<text text-anchor="middle" x="652.5" y="-179" font-family="Helvetica,sans-Serif" font-size="10.00">GroupDefImpl</text>
</a>
</g>
</g>
<!-- Node11&#45;&gt;Node12 -->
<g id="edge11_Node000011_Node000012" class="edge">
<title>Node11&#45;&gt;Node12</title>
<g id="a_edge11_Node000011_Node000012"><a xlink:title=" ">
<path fill="none" stroke="#63b8ff" d="M565.64,-181.5C581.01,-181.5 596.31,-181.5 609.64,-181.5"/>
<polygon fill="#63b8ff" stroke="#63b8ff" points="565.55,-178 555.55,-181.5 565.55,-185 565.55,-178"/>
</a>
</g>
</g>
<!-- Node14 -->
<g id="Node000014" class="node">
<title>Node14</title>
<g id="a_Node000014"><a xlink:href="../../d7/d7e/class_member_def_impl.html" target="_top" xlink:title=" ">
<polygon fill="white" stroke="#666666" points="700.5,-148 604.5,-148 604.5,-129 700.5,-129 700.5,-148"/>
<text text-anchor="middle" x="652.5" y="-136" font-family="Helvetica,sans-Serif" font-size="10.00">MemberDefImpl</text>
</a>
</g>
</g>
<!-- Node13&#45;&gt;Node14 -->
<g id="edge13_Node000013_Node000014" class="edge">
<title>Node13&#45;&gt;Node14</title>
<g id="a_edge13_Node000013_Node000014"><a xlink:title=" ">
<path fill="none" stroke="#63b8ff" d="M565.74,-138.5C579.07,-138.5 592.35,-138.5 604.34,-138.5"/>
<polygon fill="#63b8ff" stroke="#63b8ff" points="565.55,-135 555.55,-138.5 565.55,-142 565.55,-135"/>
</a>
</g>
</g>
<!-- Node16 -->
<g id="Node000016" class="node">
<title>Node16</title>
<g id="a_Node000016"><a xlink:href="../../df/d4d/class_module_def_impl.html" target="_top" xlink:title=" ">
<polygon fill="white" stroke="#666666" points="698.5,-105 606.5,-105 606.5,-86 698.5,-86 698.5,-105"/>
<text text-anchor="middle" x="652.5" y="-93" font-family="Helvetica,sans-Serif" font-size="10.00">ModuleDefImpl</text>
</a>
</g>
</g>
<!-- Node15&#45;&gt;Node16 -->
<g id="edge15_Node000015_Node000016" class="edge">
<title>Node15&#45;&gt;Node16</title>
<g id="a_edge15_Node000015_Node000016"><a xlink:title=" ">
<path fill="none" stroke="#63b8ff" d="M569.44,-95.5C582.29,-95.5 594.98,-95.5 606.39,-95.5"/>
<polygon fill="#63b8ff" stroke="#63b8ff" points="569.13,-92 559.13,-95.5 569.13,-99 569.13,-92"/>
</a>
</g>
</g>
<!-- Node18 -->
<g id="Node000018" class="node">
<title>Node18</title>
<g id="a_Node000018"><a xlink:href="../../d5/dfa/class_namespace_def_impl.html" target="_top" xlink:title=" ">
<polygon fill="white" stroke="#666666" points="709,-62 596,-62 596,-43 709,-43 709,-62"/>
<text text-anchor="middle" x="652.5" y="-50" font-family="Helvetica,sans-Serif" font-size="10.00">NamespaceDefImpl</text>
</a>
</g>
</g>
<!-- Node17&#45;&gt;Node18 -->
<g id="edge17_Node000017_Node000018" class="edge">
<title>Node17&#45;&gt;Node18</title>
<g id="a_edge17_Node000017_Node000018"><a xlink:title=" ">
<path fill="none" stroke="#63b8ff" d="M565.77,-52.5C576,-52.5 586.2,-52.5 595.81,-52.5"/>
<polygon fill="#63b8ff" stroke="#63b8ff" points="565.55,-49 555.55,-52.5 565.55,-56 565.55,-49"/>
</a>
</g>
</g>
<!-- Node20 -->
<g id="Node000020" class="node">
<title>Node20</title>
<g id="a_Node000020"><a xlink:href="../../dd/de8/class_page_def_impl.html" target="_top" xlink:title=" ">
<polygon fill="white" stroke="#666666" points="692,-19 613,-19 613,0 692,0 692,-19"/>
<text text-anchor="middle" x="652.5" y="-7" font-family="Helvetica,sans-Serif" font-size="10.00">PageDefImpl</text>
</a>
</g>
</g>
<!-- Node19&#45;&gt;Node20 -->
<g id="edge19_Node000019_Node000020" class="edge">
<title>Node19&#45;&gt;Node20</title>
<g id="a_edge19_Node000019_Node000020"><a xlink:title=" ">
<path fill="none" stroke="#63b8ff" d="M563.04,-9.5C580.57,-9.5 598.15,-9.5 612.97,-9.5"/>
<polygon fill="#63b8ff" stroke="#63b8ff" points="562.75,-6 552.75,-9.5 562.75,-13 562.75,-6"/>
</a>
</g>
</g>
</g>
</svg>
