<?xml version="1.0" encoding="UTF-8" standalone="no"?>
<!DOCTYPE svg PUBLIC "-//W3C//DTD SVG 1.1//EN"
 "http://www.w3.org/Graphics/SVG/1.1/DTD/svg11.dtd">
<!-- Generated by graphviz version 2.43.0 (0)
 -->
<!-- Title: /home/runner/work/doxygen/doxygen/src/fileinfo.cpp Pages: 1 -->
<svg width="176pt" height="148pt"
 viewBox="0.00 0.00 175.50 148.00" xmlns="http://www.w3.org/2000/svg" xmlns:xlink="http://www.w3.org/1999/xlink">
<g id="graph0" class="graph" transform="scale(1 1) rotate(0) translate(4 144)">
<title>/home/runner/work/doxygen/doxygen/src/fileinfo.cpp</title>
<!-- Node1 -->
<g id="Node000001" class="node">
<title>Node1</title>
<g id="a_Node000001"><a xlink:title=" ">
<polygon fill="#999999" stroke="#666666" points="167.5,-140 13.5,-140 13.5,-110 167.5,-110 167.5,-140"/>
<text text-anchor="start" x="21.5" y="-128" font-family="Helvetica,sans-Serif" font-size="10.00">/home/runner/work/doxygen</text>
<text text-anchor="middle" x="90.5" y="-117" font-family="Helvetica,sans-Serif" font-size="10.00">/doxygen/src/fileinfo.cpp</text>
</a>
</g>
</g>
<!-- Node2 -->
<g id="Node000002" class="node">
<title>Node2</title>
<g id="a_Node000002"><a xlink:title=" ">
<polygon fill="#e0e0e0" stroke="#999999" points="89,-74 0,-74 0,-55 89,-55 89,-74"/>
<text text-anchor="middle" x="44.5" y="-62" font-family="Helvetica,sans-Serif" font-size="10.00">filesystem.hpp</text>
</a>
</g>
</g>
<!-- Node1&#45;&gt;Node2 -->
<g id="edge1_Node000001_Node000002" class="edge">
<title>Node1&#45;&gt;Node2</title>
<g id="a_edge1_Node000001_Node000002"><a xlink:title=" ">
<path fill="none" stroke="#63b8ff" d="M79.36,-109.84C72.82,-101.52 64.52,-90.96 57.66,-82.23"/>
<polygon fill="#63b8ff" stroke="#63b8ff" points="60.33,-79.96 51.39,-74.27 54.82,-84.29 60.33,-79.96"/>
</a>
</g>
</g>
<!-- Node3 -->
<g id="Node000003" class="node">
<title>Node3</title>
<g id="a_Node000003"><a xlink:href="../../df/d45/fileinfo_8h.html" target="_top" xlink:title=" ">
<polygon fill="white" stroke="#666666" points="166,-74 107,-74 107,-55 166,-55 166,-74"/>
<text text-anchor="middle" x="136.5" y="-62" font-family="Helvetica,sans-Serif" font-size="10.00">fileinfo.h</text>
</a>
</g>
</g>
<!-- Node1&#45;&gt;Node3 -->
<g id="edge2_Node000001_Node000003" class="edge">
<title>Node1&#45;&gt;Node3</title>
<g id="a_edge2_Node000001_Node000003"><a xlink:title=" ">
<path fill="none" stroke="#63b8ff" d="M101.64,-109.84C108.18,-101.52 116.48,-90.96 123.34,-82.23"/>
<polygon fill="#63b8ff" stroke="#63b8ff" points="126.18,-84.29 129.61,-74.27 120.67,-79.96 126.18,-84.29"/>
</a>
</g>
</g>
<!-- Node4 -->
<g id="Node000004" class="node">
<title>Node4</title>
<g id="a_Node000004"><a xlink:title=" ">
<polygon fill="#e0e0e0" stroke="#999999" points="158.5,-19 114.5,-19 114.5,0 158.5,0 158.5,-19"/>
<text text-anchor="middle" x="136.5" y="-7" font-family="Helvetica,sans-Serif" font-size="10.00">string</text>
</a>
</g>
</g>
<!-- Node3&#45;&gt;Node4 -->
<g id="edge3_Node000003_Node000004" class="edge">
<title>Node3&#45;&gt;Node4</title>
<g id="a_edge3_Node000003_Node000004"><a xlink:title=" ">
<path fill="none" stroke="#63b8ff" d="M136.5,-54.75C136.5,-47.8 136.5,-37.85 136.5,-29.13"/>
<polygon fill="#63b8ff" stroke="#63b8ff" points="140,-29.09 136.5,-19.09 133,-29.09 140,-29.09"/>
</a>
</g>
</g>
</g>
</svg>
