<?xml version="1.0" encoding="UTF-8" standalone="no"?>
<!DOCTYPE svg PUBLIC "-//W3C//DTD SVG 1.1//EN"
 "http://www.w3.org/Graphics/SVG/1.1/DTD/svg11.dtd">
<!-- Generated by graphviz version 2.43.0 (0)
 -->
<!-- Title: QhpSectionTree Pages: 1 -->
<svg width="185pt" height="181pt"
 viewBox="0.00 0.00 185.00 181.00" xmlns="http://www.w3.org/2000/svg" xmlns:xlink="http://www.w3.org/1999/xlink">
<g id="graph0" class="graph" transform="scale(1 1) rotate(0) translate(4 177)">
<title>QhpSectionTree</title>
<!-- Node1 -->
<g id="Node000001" class="node">
<title>Node1</title>
<g id="a_Node000001"><a xlink:title=" ">
<polygon fill="#999999" stroke="#666666" points="108,-19 16,-19 16,0 108,0 108,-19"/>
<text text-anchor="middle" x="62" y="-7" font-family="Helvetica,sans-Serif" font-size="10.00">QhpSectionTree</text>
</a>
</g>
</g>
<!-- Node2 -->
<g id="Node000002" class="node">
<title>Node2</title>
<g id="a_Node000002"><a xlink:href="../../dd/d74/struct_qhp_section_tree_1_1_node.html" target="_top" xlink:title=" ">
<polygon fill="white" stroke="#666666" points="124,-96 0,-96 0,-77 124,-77 124,-96"/>
<text text-anchor="middle" x="62" y="-84" font-family="Helvetica,sans-Serif" font-size="10.00">QhpSectionTree::Node</text>
</a>
</g>
</g>
<!-- Node2&#45;&gt;Node1 -->
<g id="edge1_Node000001_Node000002" class="edge">
<title>Node2&#45;&gt;Node1</title>
<g id="a_edge1_Node000001_Node000002"><a xlink:title=" ">
<path fill="none" stroke="#9a32cd" stroke-dasharray="5,2" d="M62,-66.52C62,-51.24 62,-30.48 62,-19"/>
<polygon fill="#9a32cd" stroke="#9a32cd" points="58.5,-66.9 62,-76.9 65.5,-66.9 58.5,-66.9"/>
</a>
</g>
<text text-anchor="middle" x="88.5" y="-51" font-family="Helvetica,sans-Serif" font-size="10.00" fill="grey"> m_current</text>
<text text-anchor="middle" x="88.5" y="-40" font-family="Helvetica,sans-Serif" font-size="10.00" fill="grey">m_root</text>
</g>
<!-- Node2&#45;&gt;Node2 -->
<g id="edge2_Node000002_Node000002" class="edge">
<title>Node2&#45;&gt;Node2</title>
<g id="a_edge2_Node000002_Node000002"><a xlink:title=" ">
<path fill="none" stroke="#9a32cd" stroke-dasharray="5,2" d="M134.03,-91.66C138.99,-90.48 142,-88.76 142,-86.5 142,-82.97 134.66,-80.76 124.05,-79.85"/>
<polygon fill="#9a32cd" stroke="#9a32cd" points="133.43,-88.22 124.05,-93.15 134.46,-95.14 133.43,-88.22"/>
</a>
</g>
<text text-anchor="middle" x="159.5" y="-84" font-family="Helvetica,sans-Serif" font-size="10.00" fill="grey"> parent</text>
</g>
<!-- Node3 -->
<g id="Node000003" class="node">
<title>Node3</title>
<g id="a_Node000003"><a xlink:href="../../d9/d45/class_q_c_string.html" target="_top" xlink:title="This is an alternative implementation of QCString.">
<polygon fill="white" stroke="#666666" points="91.5,-173 32.5,-173 32.5,-154 91.5,-154 91.5,-173"/>
<text text-anchor="middle" x="62" y="-161" font-family="Helvetica,sans-Serif" font-size="10.00">QCString</text>
</a>
</g>
</g>
<!-- Node3&#45;&gt;Node2 -->
<g id="edge3_Node000002_Node000003" class="edge">
<title>Node3&#45;&gt;Node2</title>
<g id="a_edge3_Node000002_Node000003"><a xlink:title=" ">
<path fill="none" stroke="#9a32cd" stroke-dasharray="5,2" d="M62,-143.52C62,-128.24 62,-107.48 62,-96"/>
<polygon fill="#9a32cd" stroke="#9a32cd" points="58.5,-143.9 62,-153.9 65.5,-143.9 58.5,-143.9"/>
</a>
</g>
<text text-anchor="middle" x="72" y="-128" font-family="Helvetica,sans-Serif" font-size="10.00" fill="grey"> ref</text>
<text text-anchor="middle" x="72" y="-117" font-family="Helvetica,sans-Serif" font-size="10.00" fill="grey">title</text>
</g>
</g>
</svg>
