<?xml version="1.0" encoding="UTF-8" standalone="no"?>
<!DOCTYPE svg PUBLIC "-//W3C//DTD SVG 1.1//EN"
 "http://www.w3.org/Graphics/SVG/1.1/DTD/svg11.dtd">
<!-- Generated by graphviz version 2.43.0 (0)
 -->
<!-- Title: src/membername.h Pages: 1 -->
<!--zoomable 82 -->

<svg id="main" version="1.1" xmlns="http://www.w3.org/2000/svg" xmlns:xlink="http://www.w3.org/1999/xlink" xml:space="preserve" onload="init(evt)">

<style type="text/css"><![CDATA[
.node, .edge {opacity: 0.7;}
.node.selected, .edge.selected {opacity: 1;}
.edge:hover path { stroke: red; }
.edge:hover polygon { stroke: red; fill: red; }
]]></style>

<defs>
  <circle id="rim" cx="0" cy="0" r="7"/>
  <circle id="rim2" cx="0" cy="0" r="3.5"/>
  <g id="zoomPlus">
    <use xlink:href="#rim" fill="#404040"><set attributeName="fill" to="#808080" begin="zoomplus.mouseover" end="zoomplus.mouseout"/></use>
    <path d="M-4,0h8M0,-4v8" fill="none" stroke="white" stroke-width="1.5" pointer-events="none"/>
  </g>
  <g id="zoomMin">
    <use xlink:href="#rim" fill="#404040"><set attributeName="fill" to="#808080" begin="zoomminus.mouseover" end="zoomminus.mouseout"/></use>
    <path d="M-4,0h8" fill="none" stroke="white" stroke-width="1.5" pointer-events="none"/>
  </g>
  <g id="arrowUp" transform="translate(30 24)">
    <use xlink:href="#rim"/>
    <path pointer-events="none" fill="none" stroke="white" stroke-width="1.5" d="M0,-3.0v7 M-2.5,-0.5L0,-3.0L2.5,-0.5"/>
  </g>
  <g id="arrowRight" transform="rotate(90) translate(36 -43)">
    <use xlink:href="#rim"/>
    <path pointer-events="none" fill="none" stroke="white" stroke-width="1.5" d="M0,-3.0v7 M-2.5,-0.5L0,-3.0L2.5,-0.5"/>
  </g>
  <g id="arrowDown" transform="rotate(180) translate(-30 -48)">
    <use xlink:href="#rim"/>
    <path pointer-events="none" fill="none" stroke="white" stroke-width="1.5" d="M0,-3.0v7 M-2.5,-0.5L0,-3.0L2.5,-0.5"/>
  </g>
  <g id="arrowLeft" transform="rotate(270) translate(-36 17)">
    <use xlink:href="#rim"/>
    <path pointer-events="none" fill="none" stroke="white" stroke-width="1.5" d="M0,-3.0v7 M-2.5,-0.5L0,-3.0L2.5,-0.5"/>
  </g>
  <g id="resetDef">
    <use xlink:href="#rim2" fill="#404040"><set attributeName="fill" to="#808080" begin="reset.mouseover" end="reset.mouseout"/></use>
  </g>
</defs>
<script type="application/ecmascript">
var viewWidth = 2046;
var viewHeight = 82;
var sectionId = 'dynsection-1';
</script>
<script type="application/ecmascript" xlink:href="../../svg.min.js"/>
<svg id="graph" class="graph">
<g id="viewport">
<title>src/membername.h</title>
<!-- Node1 -->
<g id="Node000001" class="node">
<title>Node1</title>
<g id="a_Node000001"><a xlink:title=" ">
<polygon fill="#999999" stroke="#666666" points="1109,-74 997,-74 997,-55 1109,-55 1109,-74"/>
<text text-anchor="middle" x="1053" y="-62" font-family="Helvetica,sans-Serif" font-size="10.00">src/membername.h</text>
</a>
</g>
</g>
<!-- Node2 -->
<g id="Node000002" class="node">
<title>Node2</title>
<g id="a_Node000002"><a xlink:href="../../de/d89/classdef_8cpp.html" target="_top" xlink:title=" ">
<polygon fill="white" stroke="#666666" points="94,-19 0,-19 0,0 94,0 94,-19"/>
<text text-anchor="middle" x="47" y="-7" font-family="Helvetica,sans-Serif" font-size="10.00">src/classdef.cpp</text>
</a>
</g>
</g>
<!-- Node1&#45;&gt;Node2 -->
<g id="edge1_Node000001_Node000002" class="edge">
<title>Node1&#45;&gt;Node2</title>
<g id="a_edge1_Node000001_Node000002"><a xlink:title=" ">
<path fill="none" stroke="#63b8ff" d="M986.6,-62.76C831.55,-60.51 433.67,-51.75 103,-19 100.06,-18.71 97.05,-18.37 94.01,-18"/>
<polygon fill="#63b8ff" stroke="#63b8ff" points="986.86,-66.26 996.9,-62.9 986.96,-59.26 986.86,-66.26"/>
</a>
</g>
</g>
<!-- Node3 -->
<g id="Node000003" class="node">
<title>Node3</title>
<g id="a_Node000003"><a xlink:href="../../da/d1f/code_8l.html" target="_top" xlink:title=" ">
<polygon fill="white" stroke="#666666" points="175.5,-19 112.5,-19 112.5,0 175.5,0 175.5,-19"/>
<text text-anchor="middle" x="144" y="-7" font-family="Helvetica,sans-Serif" font-size="10.00">src/code.l</text>
</a>
</g>
</g>
<!-- Node1&#45;&gt;Node3 -->
<g id="edge2_Node000001_Node000003" class="edge">
<title>Node1&#45;&gt;Node3</title>
<g id="a_edge2_Node000001_Node000003"><a xlink:title=" ">
<path fill="none" stroke="#63b8ff" d="M986.68,-63.67C840.87,-63.27 481.67,-58 184,-19 181.33,-18.65 178.56,-18.22 175.8,-17.73"/>
<polygon fill="#63b8ff" stroke="#63b8ff" points="986.8,-67.17 996.81,-63.69 986.81,-60.17 986.8,-67.17"/>
</a>
</g>
</g>
<!-- Node4 -->
<g id="Node000004" class="node">
<title>Node4</title>
<g id="a_Node000004"><a xlink:href="../../d8/d29/docbookgen_8cpp.html" target="_top" xlink:title=" ">
<polygon fill="white" stroke="#666666" points="306.5,-19 193.5,-19 193.5,0 306.5,0 306.5,-19"/>
<text text-anchor="middle" x="250" y="-7" font-family="Helvetica,sans-Serif" font-size="10.00">src/docbookgen.cpp</text>
</a>
</g>
</g>
<!-- Node1&#45;&gt;Node4 -->
<g id="edge3_Node000001_Node000004" class="edge">
<title>Node1&#45;&gt;Node4</title>
<g id="a_edge3_Node000001_Node000004"><a xlink:title=" ">
<path fill="none" stroke="#63b8ff" d="M986.84,-61.01C857.67,-55.82 562.95,-42.33 316,-19 313.01,-18.72 309.95,-18.4 306.85,-18.07"/>
<polygon fill="#63b8ff" stroke="#63b8ff" points="986.83,-64.51 996.96,-61.41 987.11,-57.52 986.83,-64.51"/>
</a>
</g>
</g>
<!-- Node5 -->
<g id="Node000005" class="node">
<title>Node5</title>
<g id="a_Node000005"><a xlink:href="../../dc/d98/doxygen_8cpp.html" target="_top" xlink:title=" ">
<polygon fill="white" stroke="#666666" points="421,-19 325,-19 325,0 421,0 421,-19"/>
<text text-anchor="middle" x="373" y="-7" font-family="Helvetica,sans-Serif" font-size="10.00">src/doxygen.cpp</text>
</a>
</g>
</g>
<!-- Node1&#45;&gt;Node5 -->
<g id="edge4_Node000001_Node000005" class="edge">
<title>Node1&#45;&gt;Node5</title>
<g id="a_edge4_Node000001_Node000005"><a xlink:title=" ">
<path fill="none" stroke="#63b8ff" d="M986.28,-60.42C872.1,-54.77 631.99,-41.24 430,-19 427.12,-18.68 424.15,-18.33 421.17,-17.95"/>
<polygon fill="#63b8ff" stroke="#63b8ff" points="986.44,-63.93 996.6,-60.92 986.78,-56.94 986.44,-63.93"/>
</a>
</g>
</g>
<!-- Node6 -->
<g id="Node000006" class="node">
<title>Node6</title>
<g id="a_Node000006"><a xlink:href="../../d9/d5b/fortrancode_8l.html" target="_top" xlink:title=" ">
<polygon fill="white" stroke="#666666" points="535,-19 439,-19 439,0 535,0 535,-19"/>
<text text-anchor="middle" x="487" y="-7" font-family="Helvetica,sans-Serif" font-size="10.00">src/fortrancode.l</text>
</a>
</g>
</g>
<!-- Node1&#45;&gt;Node6 -->
<g id="edge5_Node000001_Node000006" class="edge">
<title>Node1&#45;&gt;Node6</title>
<g id="a_edge5_Node000001_Node000006"><a xlink:title=" ">
<path fill="none" stroke="#63b8ff" d="M986.79,-59C889.55,-52.11 702.46,-37.72 544,-19 541.12,-18.66 538.16,-18.29 535.17,-17.89"/>
<polygon fill="#63b8ff" stroke="#63b8ff" points="986.55,-62.5 996.77,-59.71 987.04,-55.51 986.55,-62.5"/>
</a>
</g>
</g>
<!-- Node7 -->
<g id="Node000007" class="node">
<title>Node7</title>
<g id="a_Node000007"><a xlink:href="../../d6/d42/groupdef_8cpp.html" target="_top" xlink:title=" ">
<polygon fill="white" stroke="#666666" points="650.5,-19 553.5,-19 553.5,0 650.5,0 650.5,-19"/>
<text text-anchor="middle" x="602" y="-7" font-family="Helvetica,sans-Serif" font-size="10.00">src/groupdef.cpp</text>
</a>
</g>
</g>
<!-- Node1&#45;&gt;Node7 -->
<g id="edge6_Node000001_Node000007" class="edge">
<title>Node1&#45;&gt;Node7</title>
<g id="a_edge6_Node000001_Node000007"><a xlink:title=" ">
<path fill="none" stroke="#63b8ff" d="M986.77,-56.67C908.59,-48.45 774.69,-33.89 660,-19 656.97,-18.61 653.86,-18.19 650.72,-17.76"/>
<polygon fill="#63b8ff" stroke="#63b8ff" points="986.65,-60.18 996.96,-57.74 987.38,-53.21 986.65,-60.18"/>
</a>
</g>
</g>
<!-- Node8 -->
<g id="Node000008" class="node">
<title>Node8</title>
<g id="a_Node000008"><a xlink:href="../../d0/d72/memberdef_8cpp.html" target="_top" xlink:title=" ">
<polygon fill="white" stroke="#666666" points="779,-19 669,-19 669,0 779,0 779,-19"/>
<text text-anchor="middle" x="724" y="-7" font-family="Helvetica,sans-Serif" font-size="10.00">src/memberdef.cpp</text>
</a>
</g>
</g>
<!-- Node1&#45;&gt;Node8 -->
<g id="edge7_Node000001_Node000008" class="edge">
<title>Node1&#45;&gt;Node8</title>
<g id="a_edge7_Node000001_Node000008"><a xlink:title=" ">
<path fill="none" stroke="#63b8ff" d="M990.13,-53.37C928.35,-43.42 835.13,-28.4 777,-19.04"/>
<polygon fill="#63b8ff" stroke="#63b8ff" points="989.71,-56.85 1000.14,-54.98 990.82,-49.94 989.71,-56.85"/>
</a>
</g>
</g>
<!-- Node9 -->
<g id="Node000009" class="node">
<title>Node9</title>
<g id="a_Node000009"><a xlink:href="../../d7/d1c/namespacedef_8cpp.html" target="_top" xlink:title=" ">
<polygon fill="white" stroke="#666666" points="922.5,-19 797.5,-19 797.5,0 922.5,0 922.5,-19"/>
<text text-anchor="middle" x="860" y="-7" font-family="Helvetica,sans-Serif" font-size="10.00">src/namespacedef.cpp</text>
</a>
</g>
</g>
<!-- Node1&#45;&gt;Node9 -->
<g id="edge8_Node000001_Node000009" class="edge">
<title>Node1&#45;&gt;Node9</title>
<g id="a_edge8_Node000001_Node000009"><a xlink:title=" ">
<path fill="none" stroke="#63b8ff" d="M1012.25,-52.31C976.14,-42.39 924.17,-28.12 891.25,-19.08"/>
<polygon fill="#63b8ff" stroke="#63b8ff" points="1011.42,-55.71 1021.99,-54.98 1013.28,-48.96 1011.42,-55.71"/>
</a>
</g>
</g>
<!-- Node10 -->
<g id="Node000010" class="node">
<title>Node10</title>
<g id="a_Node000010"><a xlink:href="../../de/dd0/perlmodgen_8cpp.html" target="_top" xlink:title=" ">
<polygon fill="white" stroke="#666666" points="1053.5,-19 940.5,-19 940.5,0 1053.5,0 1053.5,-19"/>
<text text-anchor="middle" x="997" y="-7" font-family="Helvetica,sans-Serif" font-size="10.00">src/perlmodgen.cpp</text>
</a>
</g>
</g>
<!-- Node1&#45;&gt;Node10 -->
<g id="edge9_Node000001_Node000010" class="edge">
<title>Node1&#45;&gt;Node10</title>
<g id="a_edge9_Node000001_Node000010"><a xlink:title=" ">
<path fill="none" stroke="#63b8ff" d="M1036.67,-48.04C1026.74,-38.64 1014.41,-26.98 1006.16,-19.17"/>
<polygon fill="#63b8ff" stroke="#63b8ff" points="1034.33,-50.65 1044,-54.98 1039.15,-45.57 1034.33,-50.65"/>
</a>
</g>
</g>
<!-- Node11 -->
<g id="Node000011" class="node">
<title>Node11</title>
<g id="a_Node000011"><a xlink:href="../../d3/ded/pycode_8l.html" target="_top" xlink:title=" ">
<polygon fill="white" stroke="#666666" points="1146.5,-19 1071.5,-19 1071.5,0 1146.5,0 1146.5,-19"/>
<text text-anchor="middle" x="1109" y="-7" font-family="Helvetica,sans-Serif" font-size="10.00">src/pycode.l</text>
</a>
</g>
</g>
<!-- Node1&#45;&gt;Node11 -->
<g id="edge10_Node000001_Node000011" class="edge">
<title>Node1&#45;&gt;Node11</title>
<g id="a_edge10_Node000001_Node000011"><a xlink:title=" ">
<path fill="none" stroke="#63b8ff" d="M1069.33,-48.04C1079.26,-38.64 1091.59,-26.98 1099.84,-19.17"/>
<polygon fill="#63b8ff" stroke="#63b8ff" points="1066.85,-45.57 1062,-54.98 1071.67,-50.65 1066.85,-45.57"/>
</a>
</g>
</g>
<!-- Node12 -->
<g id="Node000012" class="node">
<title>Node12</title>
<g id="a_Node000012"><a xlink:href="../../d9/d2f/searchindex__js_8cpp.html" target="_top" xlink:title=" ">
<polygon fill="white" stroke="#666666" points="1291.5,-19 1164.5,-19 1164.5,0 1291.5,0 1291.5,-19"/>
<text text-anchor="middle" x="1228" y="-7" font-family="Helvetica,sans-Serif" font-size="10.00">src/searchindex_js.cpp</text>
</a>
</g>
</g>
<!-- Node1&#45;&gt;Node12 -->
<g id="edge11_Node000001_Node000012" class="edge">
<title>Node1&#45;&gt;Node12</title>
<g id="a_edge11_Node000001_Node000012"><a xlink:title=" ">
<path fill="none" stroke="#63b8ff" d="M1090.79,-52.06C1123.5,-42.15 1170.07,-28.04 1199.66,-19.08"/>
<polygon fill="#63b8ff" stroke="#63b8ff" points="1089.67,-48.74 1081.12,-54.98 1091.7,-55.44 1089.67,-48.74"/>
</a>
</g>
</g>
<!-- Node13 -->
<g id="Node000013" class="node">
<title>Node13</title>
<g id="a_Node000013"><a xlink:href="../../d2/dda/sqlcode_8l.html" target="_top" xlink:title=" ">
<polygon fill="white" stroke="#666666" points="1386.5,-19 1309.5,-19 1309.5,0 1386.5,0 1386.5,-19"/>
<text text-anchor="middle" x="1348" y="-7" font-family="Helvetica,sans-Serif" font-size="10.00">src/sqlcode.l</text>
</a>
</g>
</g>
<!-- Node1&#45;&gt;Node13 -->
<g id="edge12_Node000001_Node000013" class="edge">
<title>Node1&#45;&gt;Node13</title>
<g id="a_edge12_Node000001_Node000013"><a xlink:title=" ">
<path fill="none" stroke="#63b8ff" d="M1110.57,-53.19C1160.84,-44.19 1235.75,-30.75 1301,-19 1303.69,-18.51 1306.47,-18.01 1309.27,-17.51"/>
<polygon fill="#63b8ff" stroke="#63b8ff" points="1109.77,-49.78 1100.55,-54.99 1111.01,-56.67 1109.77,-49.78"/>
</a>
</g>
</g>
<!-- Node14 -->
<g id="Node000014" class="node">
<title>Node14</title>
<g id="a_Node000014"><a xlink:href="../../d8/df8/sqlite3gen_8cpp.html" target="_top" xlink:title=" ">
<polygon fill="white" stroke="#666666" points="1509.5,-19 1404.5,-19 1404.5,0 1509.5,0 1509.5,-19"/>
<text text-anchor="middle" x="1457" y="-7" font-family="Helvetica,sans-Serif" font-size="10.00">src/sqlite3gen.cpp</text>
</a>
</g>
</g>
<!-- Node1&#45;&gt;Node14 -->
<g id="edge13_Node000001_Node000014" class="edge">
<title>Node1&#45;&gt;Node14</title>
<g id="a_edge13_Node000001_Node000014"><a xlink:title=" ">
<path fill="none" stroke="#63b8ff" d="M1119.47,-55.07C1188.59,-46.25 1299.91,-31.93 1396,-19 1398.76,-18.63 1401.58,-18.25 1404.43,-17.86"/>
<polygon fill="#63b8ff" stroke="#63b8ff" points="1118.64,-51.64 1109.17,-56.38 1119.53,-58.59 1118.64,-51.64"/>
</a>
</g>
</g>
<!-- Node15 -->
<g id="Node000015" class="node">
<title>Node15</title>
<g id="a_Node000015"><a xlink:href="../../df/d2d/util_8cpp.html" target="_top" xlink:title=" ">
<polygon fill="white" stroke="#666666" points="1598,-19 1528,-19 1528,0 1598,0 1598,-19"/>
<text text-anchor="middle" x="1563" y="-7" font-family="Helvetica,sans-Serif" font-size="10.00">src/util.cpp</text>
</a>
</g>
</g>
<!-- Node1&#45;&gt;Node15 -->
<g id="edge14_Node000001_Node000015" class="edge">
<title>Node1&#45;&gt;Node15</title>
<g id="a_edge14_Node000001_Node000015"><a xlink:title=" ">
<path fill="none" stroke="#63b8ff" d="M1119.28,-59.17C1209.86,-52.81 1377.26,-39.41 1519,-19 1521.93,-18.58 1524.95,-18.1 1527.99,-17.58"/>
<polygon fill="#63b8ff" stroke="#63b8ff" points="1118.89,-55.69 1109.16,-59.88 1119.38,-62.68 1118.89,-55.69"/>
</a>
</g>
</g>
<!-- Node16 -->
<g id="Node000016" class="node">
<title>Node16</title>
<g id="a_Node000016"><a xlink:href="../../d5/d6a/vhdlcode_8l.html" target="_top" xlink:title=" ">
<polygon fill="white" stroke="#666666" points="1700,-19 1616,-19 1616,0 1700,0 1700,-19"/>
<text text-anchor="middle" x="1658" y="-7" font-family="Helvetica,sans-Serif" font-size="10.00">src/vhdlcode.l</text>
</a>
</g>
</g>
<!-- Node1&#45;&gt;Node16 -->
<g id="edge15_Node000001_Node000016" class="edge">
<title>Node1&#45;&gt;Node16</title>
<g id="a_edge15_Node000001_Node000016"><a xlink:title=" ">
<path fill="none" stroke="#63b8ff" d="M1119.44,-59.99C1223.61,-54.08 1431.6,-40.62 1607,-19 1609.85,-18.65 1612.79,-18.25 1615.74,-17.83"/>
<polygon fill="#63b8ff" stroke="#63b8ff" points="1119.17,-56.5 1109.39,-60.56 1119.57,-63.49 1119.17,-56.5"/>
</a>
</g>
</g>
<!-- Node17 -->
<g id="Node000017" class="node">
<title>Node17</title>
<g id="a_Node000017"><a xlink:href="../../de/dea/vhdldocgen_8cpp.html" target="_top" xlink:title=" ">
<polygon fill="white" stroke="#666666" points="1828,-19 1718,-19 1718,0 1828,0 1828,-19"/>
<text text-anchor="middle" x="1773" y="-7" font-family="Helvetica,sans-Serif" font-size="10.00">src/vhdldocgen.cpp</text>
</a>
</g>
</g>
<!-- Node1&#45;&gt;Node17 -->
<g id="edge16_Node000001_Node000017" class="edge">
<title>Node1&#45;&gt;Node17</title>
<g id="a_edge16_Node000001_Node000017"><a xlink:title=" ">
<path fill="none" stroke="#63b8ff" d="M1119.27,-60.42C1237.79,-54.59 1493.79,-40.57 1709,-19 1711.9,-18.71 1714.87,-18.39 1717.87,-18.05"/>
<polygon fill="#63b8ff" stroke="#63b8ff" points="1119.08,-56.92 1109.26,-60.91 1119.42,-63.91 1119.08,-56.92"/>
</a>
</g>
</g>
<!-- Node18 -->
<g id="Node000018" class="node">
<title>Node18</title>
<g id="a_Node000018"><a xlink:href="../../dc/dc1/xmlcode_8l.html" target="_top" xlink:title=" ">
<polygon fill="white" stroke="#666666" points="1928,-19 1846,-19 1846,0 1928,0 1928,-19"/>
<text text-anchor="middle" x="1887" y="-7" font-family="Helvetica,sans-Serif" font-size="10.00">src/xmlcode.l</text>
</a>
</g>
</g>
<!-- Node1&#45;&gt;Node18 -->
<g id="edge17_Node000001_Node000018" class="edge">
<title>Node1&#45;&gt;Node18</title>
<g id="a_edge17_Node000001_Node000018"><a xlink:title=" ">
<path fill="none" stroke="#63b8ff" d="M1119.48,-62.23C1254.89,-59.09 1572.28,-48.92 1837,-19 1839.89,-18.67 1842.86,-18.29 1845.85,-17.87"/>
<polygon fill="#63b8ff" stroke="#63b8ff" points="1119.19,-58.74 1109.27,-62.46 1119.35,-65.73 1119.19,-58.74"/>
</a>
</g>
</g>
<!-- Node19 -->
<g id="Node000019" class="node">
<title>Node19</title>
<g id="a_Node000019"><a xlink:href="../../d0/dc3/xmlgen_8cpp.html" target="_top" xlink:title=" ">
<polygon fill="white" stroke="#666666" points="2037.5,-19 1946.5,-19 1946.5,0 2037.5,0 2037.5,-19"/>
<text text-anchor="middle" x="1992" y="-7" font-family="Helvetica,sans-Serif" font-size="10.00">src/xmlgen.cpp</text>
</a>
</g>
</g>
<!-- Node1&#45;&gt;Node19 -->
<g id="edge18_Node000001_Node000019" class="edge">
<title>Node1&#45;&gt;Node19</title>
<g id="a_edge18_Node000001_Node000019"><a xlink:title=" ">
<path fill="none" stroke="#63b8ff" d="M1119.23,-62.5C1266.56,-59.75 1632.45,-50.11 1937,-19 1940.08,-18.69 1943.24,-18.32 1946.43,-17.91"/>
<polygon fill="#63b8ff" stroke="#63b8ff" points="1118.94,-59 1109,-62.68 1119.06,-66 1118.94,-59"/>
</a>
</g>
</g>
</g>
</svg>

<g id="navigator" transform="translate(0 0)" fill="#404254">
  <rect fill="#f2f5e9" fill-opacity="0.5" stroke="#606060" stroke-width=".5" x="0" y="0" width="60" height="60"/>
  <use id="zoomplus" xlink:href="#zoomPlus" x="17" y="9" onmousedown="handleZoom(evt,'in')"/>
  <use id="zoomminus" xlink:href="#zoomMin" x="42" y="9" onmousedown="handleZoom(evt,'out')"/>
  <use id="reset" xlink:href="#resetDef" x="30" y="36" onmousedown="handleReset()"/>
   <use id="arrowup" xlink:href="#arrowUp" x="0" y="0" onmousedown="handlePan(0,-1)"/>
  <use id="arrowright" xlink:href="#arrowRight" x="0" y="0" onmousedown="handlePan(1,0)"/>
  <use id="arrowdown" xlink:href="#arrowDown" x="0" y="0" onmousedown="handlePan(0,1)"/>
  <use id="arrowleft" xlink:href="#arrowLeft" x="0" y="0" onmousedown="handlePan(-1,0)"/>
</g>
<svg viewBox="0 0 15 15" width="100%" height="30px" preserveAspectRatio="xMaxYMin meet">
 <g id="arrow_out" transform="scale(0.3 0.3)">
  <a xlink:href="membername_8h__dep__incl_org.svg" target="_base">
   <rect id="button" ry="5" rx="5" y="6" x="6" height="38" width="38"
        fill="#f2f5e9" fill-opacity="0.5" stroke="#606060" stroke-width="1.0"/>
   <path id="arrow"
     d="M 11.500037,31.436501 C 11.940474,20.09759 22.043105,11.32322 32.158766,21.979434 L 37.068811,17.246167 C 37.068811,17.246167 37.088388,32 37.088388,32 L 22.160133,31.978069 C 22.160133,31.978069 26.997745,27.140456 26.997745,27.140456 C 18.528582,18.264221 13.291696,25.230495 11.500037,31.436501 z"
     style="fill:#404040;"/>
  </a>
 </g>
</svg>

<style type='text/css'>
<![CDATA[
[data-mouse-over-selected='false'] { opacity: 0.7; }
[data-mouse-over-selected='true']  { opacity: 1.0; }
]]>
</style>
<script type="application/ecmascript"><![CDATA[
document.addEventListener('DOMContentLoaded', (event) => {
  highlightEdges();
  highlightAdjacentNodes();
});
]]></script>
</svg>
