<?xml version="1.0" encoding="UTF-8" standalone="no"?>
<!DOCTYPE svg PUBLIC "-//W3C//DTD SVG 1.1//EN"
 "http://www.w3.org/Graphics/SVG/1.1/DTD/svg11.dtd">
<!-- Generated by graphviz version 2.43.0 (0)
 -->
<!-- Title: src/cppvalue.h Pages: 1 -->
<svg width="254pt" height="137pt"
 viewBox="0.00 0.00 254.00 137.00" xmlns="http://www.w3.org/2000/svg" xmlns:xlink="http://www.w3.org/1999/xlink">
<g id="graph0" class="graph" transform="scale(1 1) rotate(0) translate(4 133)">
<title>src/cppvalue.h</title>
<!-- Node1 -->
<g id="Node000001" class="node">
<title>Node1</title>
<g id="a_Node000001"><a xlink:title=" ">
<polygon fill="#999999" stroke="#666666" points="124.5,-129 37.5,-129 37.5,-110 124.5,-110 124.5,-129"/>
<text text-anchor="middle" x="81" y="-117" font-family="Helvetica,sans-Serif" font-size="10.00">src/cppvalue.h</text>
</a>
</g>
</g>
<!-- Node2 -->
<g id="Node000002" class="node">
<title>Node2</title>
<g id="a_Node000002"><a xlink:href="../../dc/dee/constexp_8l.html" target="_top" xlink:title=" ">
<polygon fill="white" stroke="#666666" points="84,-19 0,-19 0,0 84,0 84,-19"/>
<text text-anchor="middle" x="42" y="-7" font-family="Helvetica,sans-Serif" font-size="10.00">src/constexp.l</text>
</a>
</g>
</g>
<!-- Node1&#45;&gt;Node2 -->
<g id="edge1_Node000001_Node000002" class="edge">
<title>Node1&#45;&gt;Node2</title>
<g id="a_edge1_Node000001_Node000002"><a xlink:title=" ">
<path fill="none" stroke="#63b8ff" d="M53.64,-104.89C41.93,-97.5 29.49,-87.15 23,-74 13.84,-55.42 26.95,-31.58 35.55,-19.05"/>
<polygon fill="#63b8ff" stroke="#63b8ff" points="51.93,-107.95 62.33,-109.97 55.46,-101.9 51.93,-107.95"/>
</a>
</g>
</g>
<!-- Node3 -->
<g id="Node000003" class="node">
<title>Node3</title>
<g id="a_Node000003"><a xlink:href="../../da/d12/constexp__p_8h.html" target="_top" xlink:title="Private interface between Parser (constexp.y) and Lexer (constexp.l)">
<polygon fill="white" stroke="#666666" points="130,-74 32,-74 32,-55 130,-55 130,-74"/>
<text text-anchor="middle" x="81" y="-62" font-family="Helvetica,sans-Serif" font-size="10.00">src/constexp_p.h</text>
</a>
</g>
</g>
<!-- Node1&#45;&gt;Node3 -->
<g id="edge2_Node000001_Node000003" class="edge">
<title>Node1&#45;&gt;Node3</title>
<g id="a_edge2_Node000001_Node000003"><a xlink:title=" ">
<path fill="none" stroke="#63b8ff" d="M81,-99.66C81,-90.93 81,-80.99 81,-74.09"/>
<polygon fill="#63b8ff" stroke="#63b8ff" points="77.5,-99.75 81,-109.75 84.5,-99.75 77.5,-99.75"/>
</a>
</g>
</g>
<!-- Node4 -->
<g id="Node000004" class="node">
<title>Node4</title>
<g id="a_Node000004"><a xlink:href="../../d6/dda/cppvalue_8cpp.html" target="_top" xlink:title=" ">
<polygon fill="white" stroke="#666666" points="246,-74 148,-74 148,-55 246,-55 246,-74"/>
<text text-anchor="middle" x="197" y="-62" font-family="Helvetica,sans-Serif" font-size="10.00">src/cppvalue.cpp</text>
</a>
</g>
</g>
<!-- Node1&#45;&gt;Node4 -->
<g id="edge4_Node000001_Node000004" class="edge">
<title>Node1&#45;&gt;Node4</title>
<g id="a_edge4_Node000001_Node000004"><a xlink:title=" ">
<path fill="none" stroke="#63b8ff" d="M108.87,-105.77C130.27,-95.99 159.24,-82.75 178.02,-74.17"/>
<polygon fill="#63b8ff" stroke="#63b8ff" points="107.28,-102.65 99.64,-109.98 110.19,-109.01 107.28,-102.65"/>
</a>
</g>
</g>
<!-- Node3&#45;&gt;Node2 -->
<g id="edge3_Node000003_Node000002" class="edge">
<title>Node3&#45;&gt;Node2</title>
<g id="a_edge3_Node000003_Node000002"><a xlink:title=" ">
<path fill="none" stroke="#63b8ff" d="M68.62,-46.67C61.86,-37.5 53.79,-26.52 48.32,-19.09"/>
<polygon fill="#63b8ff" stroke="#63b8ff" points="65.81,-48.77 74.56,-54.75 71.45,-44.62 65.81,-48.77"/>
</a>
</g>
</g>
</g>
</svg>
