<?xml version="1.0" encoding="UTF-8" standalone="no"?>
<!DOCTYPE svg PUBLIC "-//W3C//DTD SVG 1.1//EN"
 "http://www.w3.org/Graphics/SVG/1.1/DTD/svg11.dtd">
<!-- Generated by graphviz version 2.43.0 (0)
 -->
<!-- Title: SearchIndexExternal Pages: 1 -->
<svg width="181pt" height="214pt"
 viewBox="0.00 0.00 180.50 214.00" xmlns="http://www.w3.org/2000/svg" xmlns:xlink="http://www.w3.org/1999/xlink">
<g id="graph0" class="graph" transform="scale(1 1) rotate(0) translate(4 210)">
<title>SearchIndexExternal</title>
<!-- Node1 -->
<g id="Node000001" class="node">
<title>Node1</title>
<g id="a_Node000001"><a xlink:title="Writes search index that should be used with an externally provided search engine,...">
<polygon fill="#999999" stroke="#666666" points="126,-19 9,-19 9,0 126,0 126,-19"/>
<text text-anchor="middle" x="67.5" y="-7" font-family="Helvetica,sans-Serif" font-size="10.00">SearchIndexExternal</text>
</a>
</g>
</g>
<!-- Node2 -->
<g id="Node000002" class="node">
<title>Node2</title>
<g id="a_Node000002"><a xlink:href="../../d4/d7c/struct_search_index_external_1_1_search_doc_entry.html" target="_top" xlink:title=" ">
<polygon fill="white" stroke="#666666" points="126,-96 9,-96 9,-66 126,-66 126,-96"/>
<text text-anchor="start" x="17" y="-84" font-family="Helvetica,sans-Serif" font-size="10.00">SearchIndexExternal</text>
<text text-anchor="middle" x="67.5" y="-73" font-family="Helvetica,sans-Serif" font-size="10.00">::SearchDocEntry</text>
</a>
</g>
</g>
<!-- Node2&#45;&gt;Node1 -->
<g id="edge1_Node000001_Node000002" class="edge">
<title>Node2&#45;&gt;Node1</title>
<g id="a_edge1_Node000001_Node000002"><a xlink:title=" ">
<path fill="none" stroke="#9a32cd" stroke-dasharray="5,2" d="M67.5,-55.56C67.5,-42.95 67.5,-28.35 67.5,-19.27"/>
<polygon fill="#9a32cd" stroke="#9a32cd" points="64,-55.94 67.5,-65.94 71,-55.94 64,-55.94"/>
</a>
</g>
<text text-anchor="middle" x="94" y="-40" font-family="Helvetica,sans-Serif" font-size="10.00" fill="grey"> m_current</text>
</g>
<!-- Node3 -->
<g id="Node000003" class="node">
<title>Node3</title>
<g id="a_Node000003"><a xlink:href="../../d9/d45/class_q_c_string.html" target="_top" xlink:title="This is an alternative implementation of QCString.">
<polygon fill="white" stroke="#666666" points="59,-206 0,-206 0,-187 59,-187 59,-206"/>
<text text-anchor="middle" x="29.5" y="-194" font-family="Helvetica,sans-Serif" font-size="10.00">QCString</text>
</a>
</g>
</g>
<!-- Node3&#45;&gt;Node2 -->
<g id="edge2_Node000002_Node000003" class="edge">
<title>Node3&#45;&gt;Node2</title>
<g id="a_edge2_Node000002_Node000003"><a xlink:title=" ">
<path fill="none" stroke="#9a32cd" stroke-dasharray="5,2" d="M35.58,-176.95C41.01,-160.42 49.22,-135.57 56.5,-114 58.49,-108.1 60.72,-101.6 62.65,-96.01"/>
<polygon fill="#9a32cd" stroke="#9a32cd" points="32.1,-176.33 32.31,-186.92 38.75,-178.51 32.1,-176.33"/>
</a>
</g>
<text text-anchor="middle" x="70.5" y="-161" font-family="Helvetica,sans-Serif" font-size="10.00" fill="grey"> args</text>
<text text-anchor="middle" x="70.5" y="-150" font-family="Helvetica,sans-Serif" font-size="10.00" fill="grey">extId</text>
<text text-anchor="middle" x="70.5" y="-139" font-family="Helvetica,sans-Serif" font-size="10.00" fill="grey">name</text>
<text text-anchor="middle" x="70.5" y="-128" font-family="Helvetica,sans-Serif" font-size="10.00" fill="grey">type</text>
<text text-anchor="middle" x="70.5" y="-117" font-family="Helvetica,sans-Serif" font-size="10.00" fill="grey">url</text>
</g>
<!-- Node4 -->
<g id="Node000004" class="node">
<title>Node4</title>
<g id="a_Node000004"><a xlink:href="../../d8/d33/class_grow_buf.html" target="_top" xlink:title="Class representing a string buffer optimised for growing.">
<polygon fill="white" stroke="#666666" points="136,-206 77,-206 77,-187 136,-187 136,-206"/>
<text text-anchor="middle" x="106.5" y="-194" font-family="Helvetica,sans-Serif" font-size="10.00">GrowBuf</text>
</a>
</g>
</g>
<!-- Node4&#45;&gt;Node2 -->
<g id="edge3_Node000002_Node000004" class="edge">
<title>Node4&#45;&gt;Node2</title>
<g id="a_edge3_Node000002_Node000004"><a xlink:title=" ">
<path fill="none" stroke="#9a32cd" stroke-dasharray="5,2" d="M102.66,-176.58C98.96,-159.81 92.72,-134.82 84.5,-114 82.1,-107.91 78.84,-101.49 75.82,-96.01"/>
<polygon fill="#9a32cd" stroke="#9a32cd" points="99.31,-177.67 104.81,-186.73 106.16,-176.22 99.31,-177.67"/>
</a>
</g>
<text text-anchor="middle" x="136.5" y="-144.5" font-family="Helvetica,sans-Serif" font-size="10.00" fill="grey"> importantText</text>
<text text-anchor="middle" x="136.5" y="-133.5" font-family="Helvetica,sans-Serif" font-size="10.00" fill="grey">normalText</text>
</g>
</g>
</svg>
