<?xml version="1.0" encoding="UTF-8" standalone="no"?>
<!DOCTYPE svg PUBLIC "-//W3C//DTD SVG 1.1//EN"
 "http://www.w3.org/Graphics/SVG/1.1/DTD/svg11.dtd">
<!-- Generated by graphviz version 2.43.0 (0)
 -->
<!-- Title: anonymous_namespace{tagreader.cpp}::TagGroupInfo Pages: 1 -->
<svg width="282pt" height="182pt"
 viewBox="0.00 0.00 281.50 182.00" xmlns="http://www.w3.org/2000/svg" xmlns:xlink="http://www.w3.org/1999/xlink">
<g id="graph0" class="graph" transform="scale(1 1) rotate(0) translate(4 178)">
<title>anonymous_namespace{tagreader.cpp}::TagGroupInfo</title>
<!-- Node1 -->
<g id="Node000001" class="node">
<title>Node1</title>
<g id="a_Node000001"><a xlink:title="Container for group specific info that can be read from a tagfile.">
<polygon fill="#999999" stroke="#666666" points="166,-30 0,-30 0,0 166,0 166,-30"/>
<text text-anchor="start" x="8" y="-18" font-family="Helvetica,sans-Serif" font-size="10.00">anonymous_namespace</text>
<text text-anchor="middle" x="83" y="-7" font-family="Helvetica,sans-Serif" font-size="10.00">{tagreader.cpp}::TagGroupInfo</text>
</a>
</g>
</g>
<!-- Node2 -->
<g id="Node000002" class="node">
<title>Node2</title>
<g id="a_Node000002"><a xlink:href="../../d8/da1/structanonymous__namespace_02tagreader_8cpp_03_1_1_tag_compound_info.html" target="_top" xlink:title="Base class for all compound types.">
<polygon fill="white" stroke="#666666" points="273.5,-97 84.5,-97 84.5,-67 273.5,-67 273.5,-97"/>
<text text-anchor="start" x="92.5" y="-85" font-family="Helvetica,sans-Serif" font-size="10.00">anonymous_namespace</text>
<text text-anchor="middle" x="179" y="-74" font-family="Helvetica,sans-Serif" font-size="10.00">{tagreader.cpp}::TagCompoundInfo</text>
</a>
</g>
</g>
<!-- Node2&#45;&gt;Node1 -->
<g id="edge1_Node000001_Node000002" class="edge">
<title>Node2&#45;&gt;Node1</title>
<g id="a_edge1_Node000001_Node000002"><a xlink:title=" ">
<path fill="none" stroke="#63b8ff" d="M149.81,-61.23C134.95,-51.18 117.24,-39.18 103.79,-30.08"/>
<polygon fill="#63b8ff" stroke="#63b8ff" points="147.93,-64.19 158.17,-66.9 151.85,-58.39 147.93,-64.19"/>
</a>
</g>
</g>
<!-- Node3 -->
<g id="Node000003" class="node">
<title>Node3</title>
<g id="a_Node000003"><a xlink:href="../../d9/d45/class_q_c_string.html" target="_top" xlink:title="This is an alternative implementation of QCString.">
<polygon fill="white" stroke="#666666" points="88.5,-174 29.5,-174 29.5,-155 88.5,-155 88.5,-174"/>
<text text-anchor="middle" x="59" y="-162" font-family="Helvetica,sans-Serif" font-size="10.00">QCString</text>
</a>
</g>
</g>
<!-- Node3&#45;&gt;Node1 -->
<g id="edge3_Node000001_Node000003" class="edge">
<title>Node3&#45;&gt;Node1</title>
<g id="a_edge3_Node000001_Node000003"><a xlink:title=" ">
<path fill="none" stroke="#9a32cd" stroke-dasharray="5,2" d="M54.35,-144.97C50.21,-125.28 45.81,-93.39 53,-67 56.67,-53.52 64.91,-39.97 71.82,-30.23"/>
<polygon fill="#9a32cd" stroke="#9a32cd" points="50.95,-145.83 56.61,-154.79 57.78,-144.26 50.95,-145.83"/>
</a>
</g>
<text text-anchor="middle" x="64.5" y="-79.5" font-family="Helvetica,sans-Serif" font-size="10.00" fill="grey"> title</text>
</g>
<!-- Node3&#45;&gt;Node2 -->
<g id="edge2_Node000002_Node000003" class="edge">
<title>Node3&#45;&gt;Node2</title>
<g id="a_edge2_Node000002_Node000003"><a xlink:title=" ">
<path fill="none" stroke="#9a32cd" stroke-dasharray="5,2" d="M80.42,-149.13C102.28,-134.46 136.02,-111.83 157.81,-97.22"/>
<polygon fill="#9a32cd" stroke="#9a32cd" points="78.2,-146.41 71.84,-154.89 82.1,-152.22 78.2,-146.41"/>
</a>
</g>
<text text-anchor="middle" x="152" y="-129" font-family="Helvetica,sans-Serif" font-size="10.00" fill="grey"> filename</text>
<text text-anchor="middle" x="152" y="-118" font-family="Helvetica,sans-Serif" font-size="10.00" fill="grey">name</text>
</g>
</g>
</svg>
