<?xml version="1.0" encoding="UTF-8" standalone="no"?>
<!DOCTYPE svg PUBLIC "-//W3C//DTD SVG 1.1//EN"
 "http://www.w3.org/Graphics/SVG/1.1/DTD/svg11.dtd">
<!-- Generated by graphviz version 2.43.0 (0)
 -->
<!-- Title: src/portable.h Pages: 1 -->
<svg width="1134pt" height="192pt"
 viewBox="0.00 0.00 1133.50 192.00" xmlns="http://www.w3.org/2000/svg" xmlns:xlink="http://www.w3.org/1999/xlink">
<g id="graph0" class="graph" transform="scale(1 1) rotate(0) translate(4 188)">
<title>src/portable.h</title>
<!-- Node1 -->
<g id="Node000001" class="node">
<title>Node1</title>
<g id="a_Node000001"><a xlink:title="Portable versions of functions that are platform dependent.">
<polygon fill="#999999" stroke="#666666" points="277.5,-184 194.5,-184 194.5,-165 277.5,-165 277.5,-184"/>
<text text-anchor="middle" x="236" y="-172" font-family="Helvetica,sans-Serif" font-size="10.00">src/portable.h</text>
</a>
</g>
</g>
<!-- Node2 -->
<g id="Node000002" class="node">
<title>Node2</title>
<g id="a_Node000002"><a xlink:title=" ">
<polygon fill="#e0e0e0" stroke="#999999" points="65,-129 15,-129 15,-110 65,-110 65,-129"/>
<text text-anchor="middle" x="40" y="-117" font-family="Helvetica,sans-Serif" font-size="10.00">stdio.h</text>
</a>
</g>
</g>
<!-- Node1&#45;&gt;Node2 -->
<g id="edge1_Node000001_Node000002" class="edge">
<title>Node1&#45;&gt;Node2</title>
<g id="a_edge1_Node000001_Node000002"><a xlink:title=" ">
<path fill="none" stroke="#63b8ff" d="M204.51,-164.98C169.1,-155.41 111.75,-139.9 74.97,-129.96"/>
<polygon fill="#63b8ff" stroke="#63b8ff" points="75.75,-126.54 65.18,-127.31 73.92,-133.3 75.75,-126.54"/>
</a>
</g>
</g>
<!-- Node3 -->
<g id="Node000003" class="node">
<title>Node3</title>
<g id="a_Node000003"><a xlink:title=" ">
<polygon fill="#e0e0e0" stroke="#999999" points="155,-129 83,-129 83,-110 155,-110 155,-129"/>
<text text-anchor="middle" x="119" y="-117" font-family="Helvetica,sans-Serif" font-size="10.00">sys/types.h</text>
</a>
</g>
</g>
<!-- Node1&#45;&gt;Node3 -->
<g id="edge2_Node000001_Node000003" class="edge">
<title>Node1&#45;&gt;Node3</title>
<g id="a_edge2_Node000001_Node000003"><a xlink:title=" ">
<path fill="none" stroke="#63b8ff" d="M217.2,-164.98C198.38,-156.46 169.18,-143.23 147.5,-133.41"/>
<polygon fill="#63b8ff" stroke="#63b8ff" points="148.69,-130.11 138.14,-129.17 145.8,-136.48 148.69,-130.11"/>
</a>
</g>
</g>
<!-- Node4 -->
<g id="Node000004" class="node">
<title>Node4</title>
<g id="a_Node000004"><a xlink:title=" ">
<polygon fill="#e0e0e0" stroke="#999999" points="226.5,-129 173.5,-129 173.5,-110 226.5,-110 226.5,-129"/>
<text text-anchor="middle" x="200" y="-117" font-family="Helvetica,sans-Serif" font-size="10.00">stdint.h</text>
</a>
</g>
</g>
<!-- Node1&#45;&gt;Node4 -->
<g id="edge3_Node000001_Node000004" class="edge">
<title>Node1&#45;&gt;Node4</title>
<g id="a_edge3_Node000001_Node000004"><a xlink:title=" ">
<path fill="none" stroke="#63b8ff" d="M230.06,-164.75C225.02,-157.34 217.66,-146.5 211.49,-137.41"/>
<polygon fill="#63b8ff" stroke="#63b8ff" points="214.35,-135.39 205.83,-129.09 208.56,-139.33 214.35,-135.39"/>
</a>
</g>
</g>
<!-- Node5 -->
<g id="Node000005" class="node">
<title>Node5</title>
<g id="a_Node000005"><a xlink:title=" ">
<polygon fill="#e0e0e0" stroke="#999999" points="299.5,-129 244.5,-129 244.5,-110 299.5,-110 299.5,-129"/>
<text text-anchor="middle" x="272" y="-117" font-family="Helvetica,sans-Serif" font-size="10.00">fstream</text>
</a>
</g>
</g>
<!-- Node1&#45;&gt;Node5 -->
<g id="edge4_Node000001_Node000005" class="edge">
<title>Node1&#45;&gt;Node5</title>
<g id="a_edge4_Node000001_Node000005"><a xlink:title=" ">
<path fill="none" stroke="#63b8ff" d="M241.94,-164.75C246.98,-157.34 254.34,-146.5 260.51,-137.41"/>
<polygon fill="#63b8ff" stroke="#63b8ff" points="263.44,-139.33 266.17,-129.09 257.65,-135.39 263.44,-139.33"/>
</a>
</g>
</g>
<!-- Node6 -->
<g id="Node000006" class="node">
<title>Node6</title>
<g id="a_Node000006"><a xlink:href="../../d5/d75/containers_8h.html" target="_top" xlink:title=" ">
<polygon fill="white" stroke="#666666" points="394.5,-129 317.5,-129 317.5,-110 394.5,-110 394.5,-129"/>
<text text-anchor="middle" x="356" y="-117" font-family="Helvetica,sans-Serif" font-size="10.00">containers.h</text>
</a>
</g>
</g>
<!-- Node1&#45;&gt;Node6 -->
<g id="edge5_Node000001_Node000006" class="edge">
<title>Node1&#45;&gt;Node6</title>
<g id="a_edge5_Node000001_Node000006"><a xlink:title=" ">
<path fill="none" stroke="#63b8ff" d="M255.28,-164.98C274.67,-156.42 304.81,-143.11 327.07,-133.28"/>
<polygon fill="#63b8ff" stroke="#63b8ff" points="328.64,-136.41 336.37,-129.17 325.81,-130.01 328.64,-136.41"/>
</a>
</g>
</g>
<!-- Node15 -->
<g id="Node000015" class="node">
<title>Node15</title>
<g id="a_Node000015"><a xlink:href="../../d7/d5c/qcstring_8h.html" target="_top" xlink:title=" ">
<polygon fill="white" stroke="#666666" points="819.5,-129 754.5,-129 754.5,-110 819.5,-110 819.5,-129"/>
<text text-anchor="middle" x="787" y="-117" font-family="Helvetica,sans-Serif" font-size="10.00">qcstring.h</text>
</a>
</g>
</g>
<!-- Node1&#45;&gt;Node15 -->
<g id="edge14_Node000001_Node000015" class="edge">
<title>Node1&#45;&gt;Node15</title>
<g id="a_edge14_Node000001_Node000015"><a xlink:title=" ">
<path fill="none" stroke="#63b8ff" d="M277.87,-169.47C380.09,-159.64 641.54,-134.49 744.46,-124.59"/>
<polygon fill="#63b8ff" stroke="#63b8ff" points="744.87,-128.07 754.49,-123.63 744.2,-121.1 744.87,-128.07"/>
</a>
</g>
</g>
<!-- Node7 -->
<g id="Node000007" class="node">
<title>Node7</title>
<g id="a_Node000007"><a xlink:title=" ">
<polygon fill="#e0e0e0" stroke="#999999" points="379.5,-74 332.5,-74 332.5,-55 379.5,-55 379.5,-74"/>
<text text-anchor="middle" x="356" y="-62" font-family="Helvetica,sans-Serif" font-size="10.00">vector</text>
</a>
</g>
</g>
<!-- Node6&#45;&gt;Node7 -->
<g id="edge6_Node000006_Node000007" class="edge">
<title>Node6&#45;&gt;Node7</title>
<g id="a_edge6_Node000006_Node000007"><a xlink:title=" ">
<path fill="none" stroke="#63b8ff" d="M356,-109.75C356,-102.8 356,-92.85 356,-84.13"/>
<polygon fill="#63b8ff" stroke="#63b8ff" points="359.5,-84.09 356,-74.09 352.5,-84.09 359.5,-84.09"/>
</a>
</g>
</g>
<!-- Node8 -->
<g id="Node000008" class="node">
<title>Node8</title>
<g id="a_Node000008"><a xlink:title=" ">
<polygon fill="#e0e0e0" stroke="#999999" points="610,-19 566,-19 566,0 610,0 610,-19"/>
<text text-anchor="middle" x="588" y="-7" font-family="Helvetica,sans-Serif" font-size="10.00">string</text>
</a>
</g>
</g>
<!-- Node6&#45;&gt;Node8 -->
<g id="edge7_Node000006_Node000008" class="edge">
<title>Node6&#45;&gt;Node8</title>
<g id="a_edge7_Node000006_Node000008"><a xlink:title=" ">
<path fill="none" stroke="#63b8ff" d="M363.35,-109.72C375.3,-96.01 400.29,-69.58 427,-55 468.34,-32.43 522.03,-20.59 555.76,-14.94"/>
<polygon fill="#63b8ff" stroke="#63b8ff" points="556.64,-18.35 565.97,-13.32 555.55,-11.44 556.64,-18.35"/>
</a>
</g>
</g>
<!-- Node9 -->
<g id="Node000009" class="node">
<title>Node9</title>
<g id="a_Node000009"><a xlink:title=" ">
<polygon fill="#e0e0e0" stroke="#999999" points="559.5,-74 486.5,-74 486.5,-55 559.5,-55 559.5,-74"/>
<text text-anchor="middle" x="523" y="-62" font-family="Helvetica,sans-Serif" font-size="10.00">string_view</text>
</a>
</g>
</g>
<!-- Node6&#45;&gt;Node9 -->
<g id="edge8_Node000006_Node000009" class="edge">
<title>Node6&#45;&gt;Node9</title>
<g id="a_edge8_Node000006_Node000009"><a xlink:title=" ">
<path fill="none" stroke="#63b8ff" d="M382.83,-109.98C410.87,-101.09 455.05,-87.07 486.3,-77.15"/>
<polygon fill="#63b8ff" stroke="#63b8ff" points="487.49,-80.44 495.96,-74.08 485.37,-73.77 487.49,-80.44"/>
</a>
</g>
</g>
<!-- Node10 -->
<g id="Node000010" class="node">
<title>Node10</title>
<g id="a_Node000010"><a xlink:title=" ">
<polygon fill="#e0e0e0" stroke="#999999" points="468,-74 436,-74 436,-55 468,-55 468,-74"/>
<text text-anchor="middle" x="452" y="-62" font-family="Helvetica,sans-Serif" font-size="10.00">set</text>
</a>
</g>
</g>
<!-- Node6&#45;&gt;Node10 -->
<g id="edge9_Node000006_Node000010" class="edge">
<title>Node6&#45;&gt;Node10</title>
<g id="a_edge9_Node000006_Node000010"><a xlink:title=" ">
<path fill="none" stroke="#63b8ff" d="M371.42,-109.98C386.45,-101.69 409.54,-88.94 427.16,-79.22"/>
<polygon fill="#63b8ff" stroke="#63b8ff" points="429.23,-82.07 436.3,-74.17 425.85,-75.94 429.23,-82.07"/>
</a>
</g>
</g>
<!-- Node11 -->
<g id="Node000011" class="node">
<title>Node11</title>
<g id="a_Node000011"><a xlink:title=" ">
<polygon fill="#e0e0e0" stroke="#999999" points="38,-74 0,-74 0,-55 38,-55 38,-74"/>
<text text-anchor="middle" x="19" y="-62" font-family="Helvetica,sans-Serif" font-size="10.00">map</text>
</a>
</g>
</g>
<!-- Node6&#45;&gt;Node11 -->
<g id="edge10_Node000006_Node000011" class="edge">
<title>Node6&#45;&gt;Node11</title>
<g id="a_edge10_Node000006_Node000011"><a xlink:title=" ">
<path fill="none" stroke="#63b8ff" d="M317.25,-111.51C314.12,-110.98 311.01,-110.47 308,-110 195.49,-92.29 163.14,-98.71 48.08,-73.92"/>
<polygon fill="#63b8ff" stroke="#63b8ff" points="48.69,-70.47 38.17,-71.76 47.2,-77.31 48.69,-70.47"/>
</a>
</g>
</g>
<!-- Node12 -->
<g id="Node000012" class="node">
<title>Node12</title>
<g id="a_Node000012"><a xlink:title=" ">
<polygon fill="#e0e0e0" stroke="#999999" points="142,-74 56,-74 56,-55 142,-55 142,-74"/>
<text text-anchor="middle" x="99" y="-62" font-family="Helvetica,sans-Serif" font-size="10.00">unordered_set</text>
</a>
</g>
</g>
<!-- Node6&#45;&gt;Node12 -->
<g id="edge11_Node000006_Node000012" class="edge">
<title>Node6&#45;&gt;Node12</title>
<g id="a_edge11_Node000006_Node000012"><a xlink:title=" ">
<path fill="none" stroke="#63b8ff" d="M317.25,-110.51C272.77,-101.34 199.66,-86.26 150.44,-76.11"/>
<polygon fill="#63b8ff" stroke="#63b8ff" points="151.13,-72.68 140.63,-74.09 149.72,-79.53 151.13,-72.68"/>
</a>
</g>
</g>
<!-- Node13 -->
<g id="Node000013" class="node">
<title>Node13</title>
<g id="a_Node000013"><a xlink:title=" ">
<polygon fill="#e0e0e0" stroke="#999999" points="253.5,-74 160.5,-74 160.5,-55 253.5,-55 253.5,-74"/>
<text text-anchor="middle" x="207" y="-62" font-family="Helvetica,sans-Serif" font-size="10.00">unordered_map</text>
</a>
</g>
</g>
<!-- Node6&#45;&gt;Node13 -->
<g id="edge12_Node000006_Node000013" class="edge">
<title>Node6&#45;&gt;Node13</title>
<g id="a_edge12_Node000006_Node000013"><a xlink:title=" ">
<path fill="none" stroke="#63b8ff" d="M332.06,-109.98C307.44,-101.23 268.88,-87.51 241.08,-77.62"/>
<polygon fill="#63b8ff" stroke="#63b8ff" points="241.97,-74.22 231.38,-74.17 239.62,-80.82 241.97,-74.22"/>
</a>
</g>
</g>
<!-- Node14 -->
<g id="Node000014" class="node">
<title>Node14</title>
<g id="a_Node000014"><a xlink:title=" ">
<polygon fill="#e0e0e0" stroke="#999999" points="314.5,-74 271.5,-74 271.5,-55 314.5,-55 314.5,-74"/>
<text text-anchor="middle" x="293" y="-62" font-family="Helvetica,sans-Serif" font-size="10.00">stack</text>
</a>
</g>
</g>
<!-- Node6&#45;&gt;Node14 -->
<g id="edge13_Node000006_Node000014" class="edge">
<title>Node6&#45;&gt;Node14</title>
<g id="a_edge13_Node000006_Node000014"><a xlink:title=" ">
<path fill="none" stroke="#63b8ff" d="M345.88,-109.98C336.56,-102.15 322.53,-90.34 311.26,-80.86"/>
<polygon fill="#63b8ff" stroke="#63b8ff" points="313.21,-77.93 303.31,-74.17 308.71,-83.29 313.21,-77.93"/>
</a>
</g>
</g>
<!-- Node15&#45;&gt;Node8 -->
<g id="edge15_Node000015_Node000008" class="edge">
<title>Node15&#45;&gt;Node8</title>
<g id="a_edge15_Node000015_Node000008"><a xlink:title=" ">
<path fill="none" stroke="#63b8ff" d="M754.21,-114.23C708.52,-107.64 628.94,-93.69 608,-74 595.78,-62.5 590.98,-43.62 589.13,-29.43"/>
<polygon fill="#63b8ff" stroke="#63b8ff" points="592.59,-28.92 588.18,-19.29 585.62,-29.57 592.59,-28.92"/>
</a>
</g>
</g>
<!-- Node15&#45;&gt;Node9 -->
<g id="edge16_Node000015_Node000009" class="edge">
<title>Node15&#45;&gt;Node9</title>
<g id="a_edge16_Node000015_Node000009"><a xlink:title=" ">
<path fill="none" stroke="#63b8ff" d="M754.36,-111.95C707.97,-102.63 622.69,-85.51 569.64,-74.86"/>
<polygon fill="#63b8ff" stroke="#63b8ff" points="570.29,-71.42 559.8,-72.89 568.91,-78.29 570.29,-71.42"/>
</a>
</g>
</g>
<!-- Node16 -->
<g id="Node000016" class="node">
<title>Node16</title>
<g id="a_Node000016"><a xlink:title=" ">
<polygon fill="#e0e0e0" stroke="#999999" points="744,-74 680,-74 680,-55 744,-55 744,-74"/>
<text text-anchor="middle" x="712" y="-62" font-family="Helvetica,sans-Serif" font-size="10.00">algorithm</text>
</a>
</g>
</g>
<!-- Node15&#45;&gt;Node16 -->
<g id="edge17_Node000015_Node000016" class="edge">
<title>Node15&#45;&gt;Node16</title>
<g id="a_edge17_Node000015_Node000016"><a xlink:title=" ">
<path fill="none" stroke="#63b8ff" d="M774.95,-109.98C763.54,-101.92 746.17,-89.65 732.57,-80.03"/>
<polygon fill="#63b8ff" stroke="#63b8ff" points="734.46,-77.08 724.27,-74.17 730.42,-82.8 734.46,-77.08"/>
</a>
</g>
</g>
<!-- Node17 -->
<g id="Node000017" class="node">
<title>Node17</title>
<g id="a_Node000017"><a xlink:title=" ">
<polygon fill="#e0e0e0" stroke="#999999" points="811.5,-74 762.5,-74 762.5,-55 811.5,-55 811.5,-74"/>
<text text-anchor="middle" x="787" y="-62" font-family="Helvetica,sans-Serif" font-size="10.00">cctype</text>
</a>
</g>
</g>
<!-- Node15&#45;&gt;Node17 -->
<g id="edge18_Node000015_Node000017" class="edge">
<title>Node15&#45;&gt;Node17</title>
<g id="a_edge18_Node000015_Node000017"><a xlink:title=" ">
<path fill="none" stroke="#63b8ff" d="M787,-109.75C787,-102.8 787,-92.85 787,-84.13"/>
<polygon fill="#63b8ff" stroke="#63b8ff" points="790.5,-84.09 787,-74.09 783.5,-84.09 790.5,-84.09"/>
</a>
</g>
</g>
<!-- Node18 -->
<g id="Node000018" class="node">
<title>Node18</title>
<g id="a_Node000018"><a xlink:title=" ">
<polygon fill="#e0e0e0" stroke="#999999" points="880,-74 830,-74 830,-55 880,-55 880,-74"/>
<text text-anchor="middle" x="855" y="-62" font-family="Helvetica,sans-Serif" font-size="10.00">cstring</text>
</a>
</g>
</g>
<!-- Node15&#45;&gt;Node18 -->
<g id="edge19_Node000015_Node000018" class="edge">
<title>Node15&#45;&gt;Node18</title>
<g id="a_edge19_Node000015_Node000018"><a xlink:title=" ">
<path fill="none" stroke="#63b8ff" d="M797.93,-109.98C808.08,-102.07 823.42,-90.11 835.65,-80.58"/>
<polygon fill="#63b8ff" stroke="#63b8ff" points="838.14,-83.08 843.88,-74.17 833.84,-77.56 838.14,-83.08"/>
</a>
</g>
</g>
<!-- Node19 -->
<g id="Node000019" class="node">
<title>Node19</title>
<g id="a_Node000019"><a xlink:title=" ">
<polygon fill="#e0e0e0" stroke="#999999" points="944,-74 898,-74 898,-55 944,-55 944,-74"/>
<text text-anchor="middle" x="921" y="-62" font-family="Helvetica,sans-Serif" font-size="10.00">cstdio</text>
</a>
</g>
</g>
<!-- Node15&#45;&gt;Node19 -->
<g id="edge20_Node000015_Node000019" class="edge">
<title>Node15&#45;&gt;Node19</title>
<g id="a_edge20_Node000015_Node000019"><a xlink:title=" ">
<path fill="none" stroke="#63b8ff" d="M808.53,-109.98C830.47,-101.3 864.74,-87.75 889.69,-77.88"/>
<polygon fill="#63b8ff" stroke="#63b8ff" points="891.07,-81.1 899.08,-74.17 888.49,-74.59 891.07,-81.1"/>
</a>
</g>
</g>
<!-- Node20 -->
<g id="Node000020" class="node">
<title>Node20</title>
<g id="a_Node000020"><a xlink:title=" ">
<polygon fill="#e0e0e0" stroke="#999999" points="1011.5,-74 962.5,-74 962.5,-55 1011.5,-55 1011.5,-74"/>
<text text-anchor="middle" x="987" y="-62" font-family="Helvetica,sans-Serif" font-size="10.00">cstdlib</text>
</a>
</g>
</g>
<!-- Node15&#45;&gt;Node20 -->
<g id="edge21_Node000015_Node000020" class="edge">
<title>Node15&#45;&gt;Node20</title>
<g id="a_edge21_Node000015_Node000020"><a xlink:title=" ">
<path fill="none" stroke="#63b8ff" d="M819.13,-109.98C855.57,-100.33 914.77,-84.64 952.25,-74.71"/>
<polygon fill="#63b8ff" stroke="#63b8ff" points="953.44,-78.01 962.21,-72.07 951.65,-71.25 953.44,-78.01"/>
</a>
</g>
</g>
<!-- Node21 -->
<g id="Node000021" class="node">
<title>Node21</title>
<g id="a_Node000021"><a xlink:title=" ">
<polygon fill="#e0e0e0" stroke="#999999" points="871,-19 821,-19 821,0 871,0 871,-19"/>
<text text-anchor="middle" x="846" y="-7" font-family="Helvetica,sans-Serif" font-size="10.00">cstdint</text>
</a>
</g>
</g>
<!-- Node15&#45;&gt;Node21 -->
<g id="edge22_Node000015_Node000021" class="edge">
<title>Node15&#45;&gt;Node21</title>
<g id="a_edge22_Node000015_Node000021"><a xlink:title=" ">
<path fill="none" stroke="#63b8ff" d="M819.73,-117.23C877.95,-114.22 995.82,-104.42 1021,-74 1060.45,-26.34 943.05,-14.45 881.32,-11.49"/>
<polygon fill="#63b8ff" stroke="#63b8ff" points="881.34,-7.98 871.2,-11.06 881.04,-14.98 881.34,-7.98"/>
</a>
</g>
</g>
<!-- Node22 -->
<g id="Node000022" class="node">
<title>Node22</title>
<g id="a_Node000022"><a xlink:title=" ">
<polygon fill="#e0e0e0" stroke="#999999" points="1125.5,-74 1068.5,-74 1068.5,-55 1125.5,-55 1125.5,-74"/>
<text text-anchor="middle" x="1097" y="-62" font-family="Helvetica,sans-Serif" font-size="10.00">ostream</text>
</a>
</g>
</g>
<!-- Node15&#45;&gt;Node22 -->
<g id="edge23_Node000015_Node000022" class="edge">
<title>Node15&#45;&gt;Node22</title>
<g id="a_edge23_Node000015_Node000022"><a xlink:title=" ">
<path fill="none" stroke="#63b8ff" d="M819.52,-113.4C869.86,-105.44 969.62,-89.37 1054,-74 1055.45,-73.74 1056.93,-73.46 1058.42,-73.18"/>
<polygon fill="#63b8ff" stroke="#63b8ff" points="1059.18,-76.6 1068.34,-71.29 1057.86,-69.73 1059.18,-76.6"/>
</a>
</g>
</g>
<!-- Node23 -->
<g id="Node000023" class="node">
<title>Node23</title>
<g id="a_Node000023"><a xlink:href="../../db/d7c/utf8_8h.html" target="_top" xlink:title="Various UTF8 related helper functions.">
<polygon fill="white" stroke="#666666" points="661.5,-74 616.5,-74 616.5,-55 661.5,-55 661.5,-74"/>
<text text-anchor="middle" x="639" y="-62" font-family="Helvetica,sans-Serif" font-size="10.00">utf8.h</text>
</a>
</g>
</g>
<!-- Node15&#45;&gt;Node23 -->
<g id="edge24_Node000015_Node000023" class="edge">
<title>Node15&#45;&gt;Node23</title>
<g id="a_edge24_Node000015_Node000023"><a xlink:title=" ">
<path fill="none" stroke="#63b8ff" d="M763.22,-109.98C738.33,-101.07 699.09,-87.02 671.39,-77.1"/>
<polygon fill="#63b8ff" stroke="#63b8ff" points="672.34,-73.72 661.75,-73.65 669.98,-80.31 672.34,-73.72"/>
</a>
</g>
</g>
<!-- Node23&#45;&gt;Node8 -->
<g id="edge26_Node000023_Node000008" class="edge">
<title>Node23&#45;&gt;Node8</title>
<g id="a_edge26_Node000023_Node000008"><a xlink:title=" ">
<path fill="none" stroke="#63b8ff" d="M630.58,-54.75C623.23,-47.11 612.37,-35.82 603.46,-26.56"/>
<polygon fill="#63b8ff" stroke="#63b8ff" points="605.72,-23.87 596.26,-19.09 600.68,-28.72 605.72,-23.87"/>
</a>
</g>
</g>
<!-- Node23&#45;&gt;Node21 -->
<g id="edge25_Node000023_Node000021" class="edge">
<title>Node23&#45;&gt;Node21</title>
<g id="a_edge25_Node000023_Node000021"><a xlink:title=" ">
<path fill="none" stroke="#63b8ff" d="M661.72,-57.43C664.84,-56.61 668,-55.78 671,-55 719.46,-42.4 775.58,-28.2 810.93,-19.3"/>
<polygon fill="#63b8ff" stroke="#63b8ff" points="811.92,-22.66 820.77,-16.83 810.21,-15.87 811.92,-22.66"/>
</a>
</g>
</g>
</g>
</svg>
