<?xml version="1.0" encoding="UTF-8" standalone="no"?>
<!DOCTYPE svg PUBLIC "-//W3C//DTD SVG 1.1//EN"
 "http://www.w3.org/Graphics/SVG/1.1/DTD/svg11.dtd">
<!-- Generated by graphviz version 2.43.0 (0)
 -->
<!-- Title: LatexCodeGenerator Pages: 1 -->
<svg width="205pt" height="104pt"
 viewBox="0.00 0.00 205.00 104.00" xmlns="http://www.w3.org/2000/svg" xmlns:xlink="http://www.w3.org/1999/xlink">
<g id="graph0" class="graph" transform="scale(1 1) rotate(0) translate(4 100)">
<title>LatexCodeGenerator</title>
<!-- Node1 -->
<g id="Node000001" class="node">
<title>Node1</title>
<g id="a_Node000001"><a xlink:title="Generator for LaTeX code fragments.">
<polygon fill="#999999" stroke="#666666" points="136.5,-19 19.5,-19 19.5,0 136.5,0 136.5,-19"/>
<text text-anchor="middle" x="78" y="-7" font-family="Helvetica,sans-Serif" font-size="10.00">LatexCodeGenerator</text>
</a>
</g>
</g>
<!-- Node2 -->
<g id="Node000002" class="node">
<title>Node2</title>
<g id="a_Node000002"><a xlink:href="../../d3/d30/class_text_stream.html" target="_top" xlink:title="Text streaming class that buffers data.">
<polygon fill="white" stroke="#666666" points="72,-96 0,-96 0,-77 72,-77 72,-96"/>
<text text-anchor="middle" x="36" y="-84" font-family="Helvetica,sans-Serif" font-size="10.00">TextStream</text>
</a>
</g>
</g>
<!-- Node2&#45;&gt;Node1 -->
<g id="edge1_Node000001_Node000002" class="edge">
<title>Node2&#45;&gt;Node1</title>
<g id="a_edge1_Node000001_Node000002"><a xlink:title=" ">
<path fill="none" stroke="#9a32cd" stroke-dasharray="5,2" d="M45.88,-67.86C54.5,-52.47 66.62,-30.82 73.24,-19"/>
<polygon fill="#9a32cd" stroke="#9a32cd" points="42.65,-66.46 40.82,-76.9 48.76,-69.88 42.65,-66.46"/>
</a>
</g>
<text text-anchor="middle" x="73" y="-45.5" font-family="Helvetica,sans-Serif" font-size="10.00" fill="grey"> m_t</text>
</g>
<!-- Node3 -->
<g id="Node000003" class="node">
<title>Node3</title>
<g id="a_Node000003"><a xlink:href="../../d9/d45/class_q_c_string.html" target="_top" xlink:title="This is an alternative implementation of QCString.">
<polygon fill="white" stroke="#666666" points="149.5,-96 90.5,-96 90.5,-77 149.5,-77 149.5,-96"/>
<text text-anchor="middle" x="120" y="-84" font-family="Helvetica,sans-Serif" font-size="10.00">QCString</text>
</a>
</g>
</g>
<!-- Node3&#45;&gt;Node1 -->
<g id="edge2_Node000001_Node000003" class="edge">
<title>Node3&#45;&gt;Node1</title>
<g id="a_edge2_Node000001_Node000003"><a xlink:title=" ">
<path fill="none" stroke="#9a32cd" stroke-dasharray="5,2" d="M110.12,-67.86C101.5,-52.47 89.38,-30.82 82.76,-19"/>
<polygon fill="#9a32cd" stroke="#9a32cd" points="107.24,-69.88 115.18,-76.9 113.35,-66.46 107.24,-69.88"/>
</a>
</g>
<text text-anchor="middle" x="150" y="-51" font-family="Helvetica,sans-Serif" font-size="10.00" fill="grey"> m_relPath</text>
<text text-anchor="middle" x="150" y="-40" font-family="Helvetica,sans-Serif" font-size="10.00" fill="grey">m_sourceFileName</text>
</g>
</g>
</svg>
