<?xml version="1.0" encoding="UTF-8" standalone="no"?>
<!DOCTYPE svg PUBLIC "-//W3C//DTD SVG 1.1//EN"
 "http://www.w3.org/Graphics/SVG/1.1/DTD/svg11.dtd">
<!-- Generated by graphviz version 2.43.0 (0)
 -->
<!-- Title: FormulaManager::Private Pages: 1 -->
<svg width="148pt" height="170pt"
 viewBox="0.00 0.00 148.00 170.00" xmlns="http://www.w3.org/2000/svg" xmlns:xlink="http://www.w3.org/1999/xlink">
<g id="graph0" class="graph" transform="scale(1 1) rotate(0) translate(4 166)">
<title>FormulaManager::Private</title>
<!-- Node1 -->
<g id="Node000001" class="node">
<title>Node1</title>
<g id="a_Node000001"><a xlink:title=" ">
<polygon fill="#999999" stroke="#666666" points="140,-19 0,-19 0,0 140,0 140,-19"/>
<text text-anchor="middle" x="70" y="-7" font-family="Helvetica,sans-Serif" font-size="10.00">FormulaManager::Private</text>
</a>
</g>
</g>
<!-- Node2 -->
<g id="Node000002" class="node">
<title>Node2</title>
<g id="a_Node000002"><a xlink:href="../../d0/d2c/class_linked_map.html" target="_top" xlink:title=" ">
<polygon fill="white" stroke="#666666" points="135.5,-85 4.5,-85 4.5,-66 135.5,-66 135.5,-85"/>
<text text-anchor="middle" x="70" y="-73" font-family="Helvetica,sans-Serif" font-size="10.00">LinkedMap&lt; Formula &gt;</text>
</a>
</g>
</g>
<!-- Node2&#45;&gt;Node1 -->
<g id="edge1_Node000001_Node000002" class="edge">
<title>Node2&#45;&gt;Node1</title>
<g id="a_edge1_Node000001_Node000002"><a xlink:title=" ">
<path fill="none" stroke="#9a32cd" stroke-dasharray="5,2" d="M70,-55.58C70,-43.63 70,-28.72 70,-19.41"/>
<polygon fill="#9a32cd" stroke="#9a32cd" points="66.5,-55.87 70,-65.87 73.5,-55.87 66.5,-55.87"/>
</a>
</g>
<text text-anchor="middle" x="93.5" y="-40" font-family="Helvetica,sans-Serif" font-size="10.00" fill="grey"> formulas</text>
</g>
<!-- Node3 -->
<g id="Node000003" class="node">
<title>Node3</title>
<g id="a_Node000003"><a xlink:href="../../d0/d2c/class_linked_map.html" target="_top" xlink:title="Container class representing a vector of objects with keys.">
<polygon fill="white" stroke="#666666" points="130,-162 10,-162 10,-132 130,-132 130,-162"/>
<text text-anchor="start" x="18" y="-150" font-family="Helvetica,sans-Serif" font-size="10.00">LinkedMap&lt; T, Hash,</text>
<text text-anchor="middle" x="70" y="-139" font-family="Helvetica,sans-Serif" font-size="10.00"> KeyEqual, Map &gt;</text>
</a>
</g>
</g>
<!-- Node3&#45;&gt;Node2 -->
<g id="edge2_Node000002_Node000003" class="edge">
<title>Node3&#45;&gt;Node2</title>
<g id="a_edge2_Node000002_Node000003"><a xlink:title=" ">
<path fill="none" stroke="orange" stroke-dasharray="5,2" d="M70,-121.56C70,-108.95 70,-94.35 70,-85.27"/>
<polygon fill="orange" stroke="orange" points="66.5,-121.94 70,-131.94 73.5,-121.94 66.5,-121.94"/>
</a>
</g>
<text text-anchor="middle" x="103" y="-106" font-family="Helvetica,sans-Serif" font-size="10.00" fill="grey"> &lt; Formula &gt;</text>
</g>
</g>
</svg>
