<?xml version="1.0" encoding="UTF-8" standalone="no"?>
<!DOCTYPE svg PUBLIC "-//W3C//DTD SVG 1.1//EN"
 "http://www.w3.org/Graphics/SVG/1.1/DTD/svg11.dtd">
<!-- Generated by graphviz version 2.43.0 (0)
 -->
<!-- Title: DocbookCodeGenerator Pages: 1 -->
<svg width="212pt" height="126pt"
 viewBox="0.00 0.00 212.00 126.00" xmlns="http://www.w3.org/2000/svg" xmlns:xlink="http://www.w3.org/1999/xlink">
<g id="graph0" class="graph" transform="scale(1 1) rotate(0) translate(4 122)">
<title>DocbookCodeGenerator</title>
<!-- Node1 -->
<g id="Node000001" class="node">
<title>Node1</title>
<g id="a_Node000001"><a xlink:title=" ">
<polygon fill="#999999" stroke="#666666" points="144.5,-19 11.5,-19 11.5,0 144.5,0 144.5,-19"/>
<text text-anchor="middle" x="78" y="-7" font-family="Helvetica,sans-Serif" font-size="10.00">DocbookCodeGenerator</text>
</a>
</g>
</g>
<!-- Node2 -->
<g id="Node000002" class="node">
<title>Node2</title>
<g id="a_Node000002"><a xlink:href="../../d3/d30/class_text_stream.html" target="_top" xlink:title="Text streaming class that buffers data.">
<polygon fill="white" stroke="#666666" points="72,-118 0,-118 0,-99 72,-99 72,-118"/>
<text text-anchor="middle" x="36" y="-106" font-family="Helvetica,sans-Serif" font-size="10.00">TextStream</text>
</a>
</g>
</g>
<!-- Node2&#45;&gt;Node1 -->
<g id="edge1_Node000001_Node000002" class="edge">
<title>Node2&#45;&gt;Node1</title>
<g id="a_edge1_Node000001_Node000002"><a xlink:title=" ">
<path fill="none" stroke="#9a32cd" stroke-dasharray="5,2" d="M43.77,-89.54C52.82,-68.66 67.38,-35.03 74.22,-19.23"/>
<polygon fill="#9a32cd" stroke="#9a32cd" points="40.49,-88.32 39.73,-98.89 46.91,-91.11 40.49,-88.32"/>
</a>
</g>
<text text-anchor="middle" x="77" y="-56.5" font-family="Helvetica,sans-Serif" font-size="10.00" fill="grey"> m_t</text>
</g>
<!-- Node3 -->
<g id="Node000003" class="node">
<title>Node3</title>
<g id="a_Node000003"><a xlink:href="../../d9/d45/class_q_c_string.html" target="_top" xlink:title="This is an alternative implementation of QCString.">
<polygon fill="white" stroke="#666666" points="149.5,-118 90.5,-118 90.5,-99 149.5,-99 149.5,-118"/>
<text text-anchor="middle" x="120" y="-106" font-family="Helvetica,sans-Serif" font-size="10.00">QCString</text>
</a>
</g>
</g>
<!-- Node3&#45;&gt;Node1 -->
<g id="edge2_Node000001_Node000003" class="edge">
<title>Node3&#45;&gt;Node1</title>
<g id="a_edge2_Node000001_Node000003"><a xlink:title=" ">
<path fill="none" stroke="#9a32cd" stroke-dasharray="5,2" d="M113.29,-89.02C107.92,-74.66 100,-54.34 92,-37 89.21,-30.95 85.71,-24.33 82.91,-19.21"/>
<polygon fill="#9a32cd" stroke="#9a32cd" points="110.11,-90.52 116.85,-98.69 116.68,-88.1 110.11,-90.52"/>
</a>
</g>
<text text-anchor="middle" x="157" y="-73" font-family="Helvetica,sans-Serif" font-size="10.00" fill="grey"> m_external</text>
<text text-anchor="middle" x="157" y="-62" font-family="Helvetica,sans-Serif" font-size="10.00" fill="grey">m_refId</text>
<text text-anchor="middle" x="157" y="-51" font-family="Helvetica,sans-Serif" font-size="10.00" fill="grey">m_relPath</text>
<text text-anchor="middle" x="157" y="-40" font-family="Helvetica,sans-Serif" font-size="10.00" fill="grey">m_sourceFileName</text>
</g>
</g>
</svg>
