<?xml version="1.0" encoding="UTF-8" standalone="no"?>
<!DOCTYPE svg PUBLIC "-//W3C//DTD SVG 1.1//EN"
 "http://www.w3.org/Graphics/SVG/1.1/DTD/svg11.dtd">
<!-- Generated by graphviz version 2.43.0 (0)
 -->
<!-- Title: src/xmldocvisitor.h Pages: 1 -->
<svg width="1222pt" height="357pt"
 viewBox="0.00 0.00 1221.79 357.00" xmlns="http://www.w3.org/2000/svg" xmlns:xlink="http://www.w3.org/1999/xlink">
<g id="graph0" class="graph" transform="scale(1 1) rotate(0) translate(4 353)">
<title>src/xmldocvisitor.h</title>
<!-- Node1 -->
<g id="Node000001" class="node">
<title>Node1</title>
<g id="a_Node000001"><a xlink:title=" ">
<polygon fill="#999999" stroke="#666666" points="631.5,-349 522.5,-349 522.5,-330 631.5,-330 631.5,-349"/>
<text text-anchor="middle" x="577" y="-337" font-family="Helvetica,sans-Serif" font-size="10.00">src/xmldocvisitor.h</text>
</a>
</g>
</g>
<!-- Node2 -->
<g id="Node000002" class="node">
<title>Node2</title>
<g id="a_Node000002"><a xlink:title=" ">
<polygon fill="#e0e0e0" stroke="#999999" points="60,-129 0,-129 0,-110 60,-110 60,-129"/>
<text text-anchor="middle" x="30" y="-117" font-family="Helvetica,sans-Serif" font-size="10.00">iostream</text>
</a>
</g>
</g>
<!-- Node1&#45;&gt;Node2 -->
<g id="edge1_Node000001_Node000002" class="edge">
<title>Node1&#45;&gt;Node2</title>
<g id="a_edge1_Node000001_Node000002"><a xlink:title=" ">
<path fill="none" stroke="#63b8ff" d="M522.3,-332.17C425.96,-318.81 222.96,-280.61 83,-184 65.33,-171.8 50.23,-152.2 40.71,-137.99"/>
<polygon fill="#63b8ff" stroke="#63b8ff" points="43.4,-135.71 35.06,-129.18 37.51,-139.49 43.4,-135.71"/>
</a>
</g>
</g>
<!-- Node3 -->
<g id="Node000003" class="node">
<title>Node3</title>
<g id="a_Node000003"><a xlink:href="../../d7/d5c/qcstring_8h.html" target="_top" xlink:title=" ">
<polygon fill="white" stroke="#666666" points="815.5,-129 750.5,-129 750.5,-110 815.5,-110 815.5,-129"/>
<text text-anchor="middle" x="783" y="-117" font-family="Helvetica,sans-Serif" font-size="10.00">qcstring.h</text>
</a>
</g>
</g>
<!-- Node1&#45;&gt;Node3 -->
<g id="edge2_Node000001_Node000003" class="edge">
<title>Node1&#45;&gt;Node3</title>
<g id="a_edge2_Node000001_Node000003"><a xlink:title=" ">
<path fill="none" stroke="#63b8ff" d="M631.54,-329.98C716.11,-315.52 872.55,-283.37 905,-239 921.84,-215.97 892.59,-179.33 878,-165 862.91,-150.18 841.96,-139.65 823.57,-132.57"/>
<polygon fill="#63b8ff" stroke="#63b8ff" points="824.55,-129.2 813.96,-129.08 822.16,-135.78 824.55,-129.2"/>
</a>
</g>
</g>
<!-- Node14 -->
<g id="Node000014" class="node">
<title>Node14</title>
<g id="a_Node000014"><a xlink:href="../../d2/d3c/docvisitor_8h.html" target="_top" xlink:title=" ">
<polygon fill="white" stroke="#666666" points="895.5,-239 822.5,-239 822.5,-220 895.5,-220 895.5,-239"/>
<text text-anchor="middle" x="859" y="-227" font-family="Helvetica,sans-Serif" font-size="10.00">docvisitor.h</text>
</a>
</g>
</g>
<!-- Node1&#45;&gt;Node14 -->
<g id="edge15_Node000001_Node000014" class="edge">
<title>Node1&#45;&gt;Node14</title>
<g id="a_edge15_Node000001_Node000014"><a xlink:title=" ">
<path fill="none" stroke="#63b8ff" d="M599.6,-329.84C649.54,-310.72 769.39,-264.82 827.01,-242.75"/>
<polygon fill="#63b8ff" stroke="#63b8ff" points="828.6,-245.89 836.68,-239.05 826.09,-239.35 828.6,-245.89"/>
</a>
</g>
</g>
<!-- Node16 -->
<g id="Node000016" class="node">
<title>Node16</title>
<g id="a_Node000016"><a xlink:href="../../de/d2b/docnode_8h.html" target="_top" xlink:title=" ">
<polygon fill="white" stroke="#666666" points="610.5,-294 543.5,-294 543.5,-275 610.5,-275 610.5,-294"/>
<text text-anchor="middle" x="577" y="-282" font-family="Helvetica,sans-Serif" font-size="10.00">docnode.h</text>
</a>
</g>
</g>
<!-- Node1&#45;&gt;Node16 -->
<g id="edge18_Node000001_Node000016" class="edge">
<title>Node1&#45;&gt;Node16</title>
<g id="a_edge18_Node000001_Node000016"><a xlink:title=" ">
<path fill="none" stroke="#63b8ff" d="M577,-329.75C577,-322.8 577,-312.85 577,-304.13"/>
<polygon fill="#63b8ff" stroke="#63b8ff" points="580.5,-304.09 577,-294.09 573.5,-304.09 580.5,-304.09"/>
</a>
</g>
</g>
<!-- Node29 -->
<g id="Node000029" class="node">
<title>Node29</title>
<g id="a_Node000029"><a xlink:href="../../d4/d7d/textstream_8h.html" target="_top" xlink:title=" ">
<polygon fill="white" stroke="#666666" points="296,-184 216,-184 216,-165 296,-165 296,-184"/>
<text text-anchor="middle" x="256" y="-172" font-family="Helvetica,sans-Serif" font-size="10.00">textstream.h</text>
</a>
</g>
</g>
<!-- Node1&#45;&gt;Node29 -->
<g id="edge55_Node000001_Node000029" class="edge">
<title>Node1&#45;&gt;Node29</title>
<g id="a_edge55_Node000001_Node000029"><a xlink:title=" ">
<path fill="none" stroke="#63b8ff" d="M548.1,-329.99C500.85,-315.4 405,-282.85 332,-239 309.37,-225.4 286.54,-205.27 271.9,-191.33"/>
<polygon fill="#63b8ff" stroke="#63b8ff" points="274.27,-188.76 264.66,-184.31 269.4,-193.79 274.27,-188.76"/>
</a>
</g>
</g>
<!-- Node4 -->
<g id="Node000004" class="node">
<title>Node4</title>
<g id="a_Node000004"><a xlink:title=" ">
<polygon fill="#e0e0e0" stroke="#999999" points="903,-19 859,-19 859,0 903,0 903,-19"/>
<text text-anchor="middle" x="881" y="-7" font-family="Helvetica,sans-Serif" font-size="10.00">string</text>
</a>
</g>
</g>
<!-- Node3&#45;&gt;Node4 -->
<g id="edge3_Node000003_Node000004" class="edge">
<title>Node3&#45;&gt;Node4</title>
<g id="a_edge3_Node000003_Node000004"><a xlink:title=" ">
<path fill="none" stroke="#63b8ff" d="M765.46,-109.83C743.75,-97.94 711.45,-75.68 727,-55 741.62,-35.56 808.06,-21.92 848.75,-15.23"/>
<polygon fill="#63b8ff" stroke="#63b8ff" points="849.41,-18.66 858.74,-13.63 848.31,-11.75 849.41,-18.66"/>
</a>
</g>
</g>
<!-- Node5 -->
<g id="Node000005" class="node">
<title>Node5</title>
<g id="a_Node000005"><a xlink:title=" ">
<polygon fill="#e0e0e0" stroke="#999999" points="808.5,-74 735.5,-74 735.5,-55 808.5,-55 808.5,-74"/>
<text text-anchor="middle" x="772" y="-62" font-family="Helvetica,sans-Serif" font-size="10.00">string_view</text>
</a>
</g>
</g>
<!-- Node3&#45;&gt;Node5 -->
<g id="edge4_Node000003_Node000005" class="edge">
<title>Node3&#45;&gt;Node5</title>
<g id="a_edge4_Node000003_Node000005"><a xlink:title=" ">
<path fill="none" stroke="#63b8ff" d="M781.18,-109.75C779.74,-102.8 777.68,-92.85 775.87,-84.13"/>
<polygon fill="#63b8ff" stroke="#63b8ff" points="779.24,-83.17 773.78,-74.09 772.39,-84.59 779.24,-83.17"/>
</a>
</g>
</g>
<!-- Node6 -->
<g id="Node000006" class="node">
<title>Node6</title>
<g id="a_Node000006"><a xlink:title=" ">
<polygon fill="#e0e0e0" stroke="#999999" points="959,-74 895,-74 895,-55 959,-55 959,-74"/>
<text text-anchor="middle" x="927" y="-62" font-family="Helvetica,sans-Serif" font-size="10.00">algorithm</text>
</a>
</g>
</g>
<!-- Node3&#45;&gt;Node6 -->
<g id="edge5_Node000003_Node000006" class="edge">
<title>Node3&#45;&gt;Node6</title>
<g id="a_edge5_Node000003_Node000006"><a xlink:title=" ">
<path fill="none" stroke="#63b8ff" d="M806.14,-109.98C829.82,-101.27 866.87,-87.63 893.71,-77.75"/>
<polygon fill="#63b8ff" stroke="#63b8ff" points="895.27,-80.91 903.44,-74.17 892.85,-74.34 895.27,-80.91"/>
</a>
</g>
</g>
<!-- Node7 -->
<g id="Node000007" class="node">
<title>Node7</title>
<g id="a_Node000007"><a xlink:title=" ">
<polygon fill="#e0e0e0" stroke="#999999" points="1026.5,-74 977.5,-74 977.5,-55 1026.5,-55 1026.5,-74"/>
<text text-anchor="middle" x="1002" y="-62" font-family="Helvetica,sans-Serif" font-size="10.00">cctype</text>
</a>
</g>
</g>
<!-- Node3&#45;&gt;Node7 -->
<g id="edge6_Node000003_Node000007" class="edge">
<title>Node3&#45;&gt;Node7</title>
<g id="a_edge6_Node000003_Node000007"><a xlink:title=" ">
<path fill="none" stroke="#63b8ff" d="M815.77,-110.71C850.81,-102.36 908.27,-88.61 967.58,-74.09"/>
<polygon fill="#63b8ff" stroke="#63b8ff" points="968.61,-77.44 977.49,-71.65 966.95,-70.64 968.61,-77.44"/>
</a>
</g>
</g>
<!-- Node8 -->
<g id="Node000008" class="node">
<title>Node8</title>
<g id="a_Node000008"><a xlink:title=" ">
<polygon fill="#e0e0e0" stroke="#999999" points="877,-74 827,-74 827,-55 877,-55 877,-74"/>
<text text-anchor="middle" x="852" y="-62" font-family="Helvetica,sans-Serif" font-size="10.00">cstring</text>
</a>
</g>
</g>
<!-- Node3&#45;&gt;Node8 -->
<g id="edge7_Node000003_Node000008" class="edge">
<title>Node3&#45;&gt;Node8</title>
<g id="a_edge7_Node000003_Node000008"><a xlink:title=" ">
<path fill="none" stroke="#63b8ff" d="M794.09,-109.98C804.49,-102 820.26,-89.88 832.72,-80.31"/>
<polygon fill="#63b8ff" stroke="#63b8ff" points="834.91,-83.04 840.71,-74.17 830.65,-77.49 834.91,-83.04"/>
</a>
</g>
</g>
<!-- Node9 -->
<g id="Node000009" class="node">
<title>Node9</title>
<g id="a_Node000009"><a xlink:title=" ">
<polygon fill="#e0e0e0" stroke="#999999" points="435,-74 389,-74 389,-55 435,-55 435,-74"/>
<text text-anchor="middle" x="412" y="-62" font-family="Helvetica,sans-Serif" font-size="10.00">cstdio</text>
</a>
</g>
</g>
<!-- Node3&#45;&gt;Node9 -->
<g id="edge8_Node000003_Node000009" class="edge">
<title>Node3&#45;&gt;Node9</title>
<g id="a_edge8_Node000003_Node000009"><a xlink:title=" ">
<path fill="none" stroke="#63b8ff" d="M750.46,-113.54C742.47,-112.35 733.93,-111.11 726,-110 603.04,-92.84 571.2,-95.92 449,-74 447.72,-73.77 446.42,-73.53 445.11,-73.27"/>
<polygon fill="#63b8ff" stroke="#63b8ff" points="445.53,-69.78 435.02,-71.15 444.09,-76.63 445.53,-69.78"/>
</a>
</g>
</g>
<!-- Node10 -->
<g id="Node000010" class="node">
<title>Node10</title>
<g id="a_Node000010"><a xlink:title=" ">
<polygon fill="#e0e0e0" stroke="#999999" points="540.5,-74 491.5,-74 491.5,-55 540.5,-55 540.5,-74"/>
<text text-anchor="middle" x="516" y="-62" font-family="Helvetica,sans-Serif" font-size="10.00">cstdlib</text>
</a>
</g>
</g>
<!-- Node3&#45;&gt;Node10 -->
<g id="edge9_Node000003_Node000010" class="edge">
<title>Node3&#45;&gt;Node10</title>
<g id="a_edge9_Node000003_Node000010"><a xlink:title=" ">
<path fill="none" stroke="#63b8ff" d="M750.47,-112.88C707.17,-105.28 628.02,-90.92 550.75,-74.06"/>
<polygon fill="#63b8ff" stroke="#63b8ff" points="551.36,-70.61 540.84,-71.88 549.86,-77.45 551.36,-70.61"/>
</a>
</g>
</g>
<!-- Node11 -->
<g id="Node000011" class="node">
<title>Node11</title>
<g id="a_Node000011"><a xlink:title=" ">
<polygon fill="#e0e0e0" stroke="#999999" points="320,-19 270,-19 270,0 320,0 320,-19"/>
<text text-anchor="middle" x="295" y="-7" font-family="Helvetica,sans-Serif" font-size="10.00">cstdint</text>
</a>
</g>
</g>
<!-- Node3&#45;&gt;Node11 -->
<g id="edge10_Node000003_Node000011" class="edge">
<title>Node3&#45;&gt;Node11</title>
<g id="a_edge10_Node000003_Node000011"><a xlink:title=" ">
<path fill="none" stroke="#63b8ff" d="M750.45,-113.64C742.45,-112.45 733.92,-111.18 726,-110 618.01,-93.95 587.3,-106.29 483,-74 464.58,-68.3 461.96,-62 444,-55 405.81,-40.11 360.51,-27.23 329.96,-19.21"/>
<polygon fill="#63b8ff" stroke="#63b8ff" points="330.76,-15.8 320.2,-16.68 329,-22.58 330.76,-15.8"/>
</a>
</g>
</g>
<!-- Node12 -->
<g id="Node000012" class="node">
<title>Node12</title>
<g id="a_Node000012"><a xlink:title=" ">
<polygon fill="#e0e0e0" stroke="#999999" points="678.5,-74 621.5,-74 621.5,-55 678.5,-55 678.5,-74"/>
<text text-anchor="middle" x="650" y="-62" font-family="Helvetica,sans-Serif" font-size="10.00">ostream</text>
</a>
</g>
</g>
<!-- Node3&#45;&gt;Node12 -->
<g id="edge11_Node000003_Node000012" class="edge">
<title>Node3&#45;&gt;Node12</title>
<g id="a_edge11_Node000003_Node000012"><a xlink:title=" ">
<path fill="none" stroke="#63b8ff" d="M761.63,-109.98C739.85,-101.3 705.84,-87.75 681.08,-77.88"/>
<polygon fill="#63b8ff" stroke="#63b8ff" points="682.34,-74.62 671.76,-74.17 679.75,-81.12 682.34,-74.62"/>
</a>
</g>
</g>
<!-- Node13 -->
<g id="Node000013" class="node">
<title>Node13</title>
<g id="a_Node000013"><a xlink:href="../../db/d7c/utf8_8h.html" target="_top" xlink:title="Various UTF8 related helper functions.">
<polygon fill="white" stroke="#666666" points="603.5,-74 558.5,-74 558.5,-55 603.5,-55 603.5,-74"/>
<text text-anchor="middle" x="581" y="-62" font-family="Helvetica,sans-Serif" font-size="10.00">utf8.h</text>
</a>
</g>
</g>
<!-- Node3&#45;&gt;Node13 -->
<g id="edge12_Node000003_Node000013" class="edge">
<title>Node3&#45;&gt;Node13</title>
<g id="a_edge12_Node000003_Node000013"><a xlink:title=" ">
<path fill="none" stroke="#63b8ff" d="M750.4,-110C718.11,-101.58 667,-88.22 613.4,-74.1"/>
<polygon fill="#63b8ff" stroke="#63b8ff" points="614.28,-70.71 603.72,-71.55 612.5,-77.48 614.28,-70.71"/>
</a>
</g>
</g>
<!-- Node13&#45;&gt;Node4 -->
<g id="edge14_Node000013_Node000004" class="edge">
<title>Node13&#45;&gt;Node4</title>
<g id="a_edge14_Node000013_Node000004"><a xlink:title=" ">
<path fill="none" stroke="#63b8ff" d="M603.66,-57.2C606.79,-56.41 609.97,-55.65 613,-55 697.59,-36.79 798.57,-21.83 849.01,-14.81"/>
<polygon fill="#63b8ff" stroke="#63b8ff" points="849.55,-18.27 858.98,-13.43 848.6,-11.33 849.55,-18.27"/>
</a>
</g>
</g>
<!-- Node13&#45;&gt;Node11 -->
<g id="edge13_Node000013_Node000011" class="edge">
<title>Node13&#45;&gt;Node11</title>
<g id="a_edge13_Node000013_Node000011"><a xlink:title=" ">
<path fill="none" stroke="#63b8ff" d="M558.38,-57.03C555.56,-56.31 552.72,-55.61 550,-55 472.17,-37.58 379.69,-22.93 330.29,-15.57"/>
<polygon fill="#63b8ff" stroke="#63b8ff" points="330.53,-12.07 320.13,-14.08 329.51,-19 330.53,-12.07"/>
</a>
</g>
</g>
<!-- Node14&#45;&gt;Node3 -->
<g id="edge17_Node000014_Node000003" class="edge">
<title>Node14&#45;&gt;Node3</title>
<g id="a_edge17_Node000014_Node000003"><a xlink:title=" ">
<path fill="none" stroke="#63b8ff" d="M862.15,-220C866.34,-207.12 872.14,-182.34 862,-165 853.32,-150.14 837.65,-139.86 822.54,-132.95"/>
<polygon fill="#63b8ff" stroke="#63b8ff" points="823.85,-129.71 813.27,-129.08 821.15,-136.17 823.85,-129.71"/>
</a>
</g>
</g>
<!-- Node15 -->
<g id="Node000015" class="node">
<title>Node15</title>
<g id="a_Node000015"><a xlink:title=" ">
<polygon fill="#e0e0e0" stroke="#999999" points="634,-129 576,-129 576,-110 634,-110 634,-129"/>
<text text-anchor="middle" x="605" y="-117" font-family="Helvetica,sans-Serif" font-size="10.00">memory</text>
</a>
</g>
</g>
<!-- Node14&#45;&gt;Node15 -->
<g id="edge16_Node000014_Node000015" class="edge">
<title>Node14&#45;&gt;Node15</title>
<g id="a_edge16_Node000014_Node000015"><a xlink:title=" ">
<path fill="none" stroke="#63b8ff" d="M833.01,-219.85C808.11,-211.37 769.62,-197.75 737,-184 699.23,-168.07 656.68,-147.02 630.36,-133.62"/>
<polygon fill="#63b8ff" stroke="#63b8ff" points="631.93,-130.49 621.43,-129.05 628.74,-136.72 631.93,-130.49"/>
</a>
</g>
</g>
<!-- Node16&#45;&gt;Node3 -->
<g id="edge25_Node000016_Node000003" class="edge">
<title>Node16&#45;&gt;Node3</title>
<g id="a_edge25_Node000016_Node000003"><a xlink:title=" ">
<path fill="none" stroke="#63b8ff" d="M610.9,-281.66C667.48,-276.54 779.79,-257.19 829,-184 840.45,-166.97 822.47,-147.98 805.75,-135.24"/>
<polygon fill="#63b8ff" stroke="#63b8ff" points="807.45,-132.16 797.28,-129.2 803.38,-137.86 807.45,-132.16"/>
</a>
</g>
</g>
<!-- Node16&#45;&gt;Node9 -->
<g id="edge19_Node000016_Node000009" class="edge">
<title>Node16&#45;&gt;Node9</title>
<g id="a_edge19_Node000016_Node000009"><a xlink:title=" ">
<path fill="none" stroke="#63b8ff" d="M543.3,-279.38C498.81,-273.18 424.07,-259.92 407,-239 386.18,-213.5 388.59,-194.09 404,-165 417.33,-139.84 443.67,-154.16 457,-129 466.39,-111.27 449.75,-92.74 434.11,-80.31"/>
<polygon fill="#63b8ff" stroke="#63b8ff" points="435.82,-77.22 425.7,-74.07 431.65,-82.84 435.82,-77.22"/>
</a>
</g>
</g>
<!-- Node16&#45;&gt;Node11 -->
<g id="edge20_Node000016_Node000011" class="edge">
<title>Node16&#45;&gt;Node11</title>
<g id="a_edge20_Node000016_Node000011"><a xlink:title=" ">
<path fill="none" stroke="#63b8ff" d="M543.12,-279.9C495.29,-274.24 405.58,-261.53 332,-239 273.96,-221.23 258.94,-215.4 207,-184 173.44,-163.71 155.02,-164.33 138,-129 123.6,-99.1 170.72,-55.23 171,-55 196.59,-33.99 232.9,-22.51 259.61,-16.5"/>
<polygon fill="#63b8ff" stroke="#63b8ff" points="260.63,-19.86 269.7,-14.39 259.19,-13.01 260.63,-19.86"/>
</a>
</g>
</g>
<!-- Node16&#45;&gt;Node14 -->
<g id="edge26_Node000016_Node000014" class="edge">
<title>Node16&#45;&gt;Node14</title>
<g id="a_edge26_Node000016_Node000014"><a xlink:title=" ">
<path fill="none" stroke="#63b8ff" d="M610.74,-277.16C660.83,-267.74 755.08,-250.03 811.94,-239.35"/>
<polygon fill="#63b8ff" stroke="#63b8ff" points="812.92,-242.72 822.1,-237.44 811.63,-235.84 812.92,-242.72"/>
</a>
</g>
</g>
<!-- Node16&#45;&gt;Node15 -->
<g id="edge22_Node000016_Node000015" class="edge">
<title>Node16&#45;&gt;Node15</title>
<g id="a_edge22_Node000016_Node000015"><a xlink:title=" ">
<path fill="none" stroke="#63b8ff" d="M543.43,-283.97C507.86,-282.48 452.94,-274.12 424,-239 403.04,-213.56 398.58,-190.88 419,-165 420.16,-163.53 511.55,-142.15 565.77,-129.57"/>
<polygon fill="#63b8ff" stroke="#63b8ff" points="566.81,-132.92 575.76,-127.25 565.23,-126.1 566.81,-132.92"/>
</a>
</g>
</g>
<!-- Node17 -->
<g id="Node000017" class="node">
<title>Node17</title>
<g id="a_Node000017"><a xlink:title=" ">
<polygon fill="#e0e0e0" stroke="#999999" points="716.5,-129 669.5,-129 669.5,-110 716.5,-110 716.5,-129"/>
<text text-anchor="middle" x="693" y="-117" font-family="Helvetica,sans-Serif" font-size="10.00">vector</text>
</a>
</g>
</g>
<!-- Node16&#45;&gt;Node17 -->
<g id="edge21_Node000016_Node000017" class="edge">
<title>Node16&#45;&gt;Node17</title>
<g id="a_edge21_Node000016_Node000017"><a xlink:title=" ">
<path fill="none" stroke="#63b8ff" d="M587.28,-274.99C597.15,-266.51 612.13,-252.79 623,-239 649.04,-205.99 672.35,-162.37 684.39,-138.33"/>
<polygon fill="#63b8ff" stroke="#63b8ff" points="687.68,-139.55 688.96,-129.03 681.4,-136.46 687.68,-139.55"/>
</a>
</g>
</g>
<!-- Node18 -->
<g id="Node000018" class="node">
<title>Node18</title>
<g id="a_Node000018"><a xlink:title=" ">
<polygon fill="#e0e0e0" stroke="#999999" points="483.5,-239 432.5,-239 432.5,-220 483.5,-220 483.5,-239"/>
<text text-anchor="middle" x="458" y="-227" font-family="Helvetica,sans-Serif" font-size="10.00">variant</text>
</a>
</g>
</g>
<!-- Node16&#45;&gt;Node18 -->
<g id="edge23_Node000016_Node000018" class="edge">
<title>Node16&#45;&gt;Node18</title>
<g id="a_edge23_Node000016_Node000018"><a xlink:title=" ">
<path fill="none" stroke="#63b8ff" d="M557.88,-274.98C538.65,-266.42 508.77,-253.11 486.69,-243.28"/>
<polygon fill="#63b8ff" stroke="#63b8ff" points="488.03,-240.04 477.47,-239.17 485.18,-246.44 488.03,-240.04"/>
</a>
</g>
</g>
<!-- Node19 -->
<g id="Node000019" class="node">
<title>Node19</title>
<g id="a_Node000019"><a xlink:title=" ">
<polygon fill="#e0e0e0" stroke="#999999" points="447.5,-129 378.5,-129 378.5,-110 447.5,-110 447.5,-129"/>
<text text-anchor="middle" x="413" y="-117" font-family="Helvetica,sans-Serif" font-size="10.00">type_traits</text>
</a>
</g>
</g>
<!-- Node16&#45;&gt;Node19 -->
<g id="edge24_Node000016_Node000019" class="edge">
<title>Node16&#45;&gt;Node19</title>
<g id="a_edge24_Node000016_Node000019"><a xlink:title=" ">
<path fill="none" stroke="#63b8ff" d="M543.16,-282.02C485.56,-278.71 372.35,-268.53 348,-239 327.08,-213.62 332.66,-194.09 348,-165 355.24,-151.27 368.83,-140.97 381.72,-133.76"/>
<polygon fill="#63b8ff" stroke="#63b8ff" points="383.59,-136.73 390.88,-129.05 380.39,-130.51 383.59,-136.73"/>
</a>
</g>
</g>
<!-- Node20 -->
<g id="Node000020" class="node">
<title>Node20</title>
<g id="a_Node000020"><a xlink:href="../../de/d9c/docparser_8h.html" target="_top" xlink:title=" ">
<polygon fill="white" stroke="#666666" points="613.5,-239 540.5,-239 540.5,-220 613.5,-220 613.5,-239"/>
<text text-anchor="middle" x="577" y="-227" font-family="Helvetica,sans-Serif" font-size="10.00">docparser.h</text>
</a>
</g>
</g>
<!-- Node16&#45;&gt;Node20 -->
<g id="edge27_Node000016_Node000020" class="edge">
<title>Node16&#45;&gt;Node20</title>
<g id="a_edge27_Node000016_Node000020"><a xlink:title=" ">
<path fill="none" stroke="#63b8ff" d="M577,-274.75C577,-267.8 577,-257.85 577,-249.13"/>
<polygon fill="#63b8ff" stroke="#63b8ff" points="580.5,-249.09 577,-239.09 573.5,-249.09 580.5,-249.09"/>
</a>
</g>
</g>
<!-- Node22 -->
<g id="Node000022" class="node">
<title>Node22</title>
<g id="a_Node000022"><a xlink:href="../../d7/d50/growvector_8h.html" target="_top" xlink:title=" ">
<polygon fill="white" stroke="#666666" points="508,-184 428,-184 428,-165 508,-165 508,-184"/>
<text text-anchor="middle" x="468" y="-172" font-family="Helvetica,sans-Serif" font-size="10.00">growvector.h</text>
</a>
</g>
</g>
<!-- Node16&#45;&gt;Node22 -->
<g id="edge42_Node000016_Node000022" class="edge">
<title>Node16&#45;&gt;Node22</title>
<g id="a_edge42_Node000016_Node000022"><a xlink:title=" ">
<path fill="none" stroke="#63b8ff" d="M568.37,-274.97C559.31,-266.02 544.65,-251.53 532,-239 515.61,-222.76 496.87,-204.17 483.93,-191.32"/>
<polygon fill="#63b8ff" stroke="#63b8ff" points="486.25,-188.69 476.69,-184.13 481.32,-193.66 486.25,-188.69"/>
</a>
</g>
</g>
<!-- Node24 -->
<g id="Node000024" class="node">
<title>Node24</title>
<g id="a_Node000024"><a xlink:href="../../d0/d73/htmlattrib_8h.html" target="_top" xlink:title=" ">
<polygon fill="white" stroke="#666666" points="820,-184 746,-184 746,-165 820,-165 820,-184"/>
<text text-anchor="middle" x="783" y="-172" font-family="Helvetica,sans-Serif" font-size="10.00">htmlattrib.h</text>
</a>
</g>
</g>
<!-- Node16&#45;&gt;Node24 -->
<g id="edge35_Node000016_Node000024" class="edge">
<title>Node16&#45;&gt;Node24</title>
<g id="a_edge35_Node000016_Node000024"><a xlink:title=" ">
<path fill="none" stroke="#63b8ff" d="M593.51,-274.84C629.46,-256 715.01,-211.14 757.77,-188.73"/>
<polygon fill="#63b8ff" stroke="#63b8ff" points="759.47,-191.79 766.7,-184.05 756.22,-185.59 759.47,-191.79"/>
</a>
</g>
</g>
<!-- Node25 -->
<g id="Node000025" class="node">
<title>Node25</title>
<g id="a_Node000025"><a xlink:href="../../db/dc6/htmlentity_8h.html" target="_top" xlink:title=" ">
<polygon fill="white" stroke="#666666" points="1199.5,-184 1124.5,-184 1124.5,-165 1199.5,-165 1199.5,-184"/>
<text text-anchor="middle" x="1162" y="-172" font-family="Helvetica,sans-Serif" font-size="10.00">htmlentity.h</text>
</a>
</g>
</g>
<!-- Node16&#45;&gt;Node25 -->
<g id="edge38_Node000016_Node000025" class="edge">
<title>Node16&#45;&gt;Node25</title>
<g id="a_edge38_Node000016_Node000025"><a xlink:title=" ">
<path fill="none" stroke="#63b8ff" d="M610.74,-282.65C707.47,-279.88 984.24,-269.43 1069,-239 1098.57,-228.38 1127.66,-206.07 1145.23,-190.93"/>
<polygon fill="#63b8ff" stroke="#63b8ff" points="1147.71,-193.41 1152.87,-184.16 1143.07,-188.17 1147.71,-193.41"/>
</a>
</g>
</g>
<!-- Node27 -->
<g id="Node000027" class="node">
<title>Node27</title>
<g id="a_Node000027"><a xlink:href="../../d1/d2a/section_8h.html" target="_top" xlink:title=" ">
<polygon fill="white" stroke="#666666" points="1059.5,-239 998.5,-239 998.5,-220 1059.5,-220 1059.5,-239"/>
<text text-anchor="middle" x="1029" y="-227" font-family="Helvetica,sans-Serif" font-size="10.00">section.h</text>
</a>
</g>
</g>
<!-- Node16&#45;&gt;Node27 -->
<g id="edge43_Node000016_Node000027" class="edge">
<title>Node16&#45;&gt;Node27</title>
<g id="a_edge43_Node000016_Node000027"><a xlink:title=" ">
<path fill="none" stroke="#63b8ff" d="M610.6,-279.56C692.1,-270 900.01,-245.63 988.33,-235.27"/>
<polygon fill="#63b8ff" stroke="#63b8ff" points="988.96,-238.72 998.49,-234.08 988.15,-231.77 988.96,-238.72"/>
</a>
</g>
</g>
<!-- Node20&#45;&gt;Node3 -->
<g id="edge30_Node000020_Node000003" class="edge">
<title>Node20&#45;&gt;Node3</title>
<g id="a_edge30_Node000020_Node000003"><a xlink:title=" ">
<path fill="none" stroke="#63b8ff" d="M593.51,-219.84C629.46,-201 715.01,-156.14 757.77,-133.73"/>
<polygon fill="#63b8ff" stroke="#63b8ff" points="759.47,-136.79 766.7,-129.05 756.22,-130.59 759.47,-136.79"/>
</a>
</g>
</g>
<!-- Node20&#45;&gt;Node15 -->
<g id="edge29_Node000020_Node000015" class="edge">
<title>Node20&#45;&gt;Node15</title>
<g id="a_edge29_Node000020_Node000015"><a xlink:title=" ">
<path fill="none" stroke="#63b8ff" d="M579.29,-219.66C583.85,-202.09 594.12,-162.45 600.22,-138.95"/>
<polygon fill="#63b8ff" stroke="#63b8ff" points="603.63,-139.72 602.76,-129.16 596.86,-137.96 603.63,-139.72"/>
</a>
</g>
</g>
<!-- Node21 -->
<g id="Node000021" class="node">
<title>Node21</title>
<g id="a_Node000021"><a xlink:title=" ">
<polygon fill="#e0e0e0" stroke="#999999" points="576,-184 526,-184 526,-165 576,-165 576,-184"/>
<text text-anchor="middle" x="551" y="-172" font-family="Helvetica,sans-Serif" font-size="10.00">stdio.h</text>
</a>
</g>
</g>
<!-- Node20&#45;&gt;Node21 -->
<g id="edge28_Node000020_Node000021" class="edge">
<title>Node20&#45;&gt;Node21</title>
<g id="a_edge28_Node000020_Node000021"><a xlink:title=" ">
<path fill="none" stroke="#63b8ff" d="M572.71,-219.75C569.19,-212.57 564.09,-202.18 559.72,-193.27"/>
<polygon fill="#63b8ff" stroke="#63b8ff" points="562.76,-191.53 555.21,-184.09 556.48,-194.61 562.76,-191.53"/>
</a>
</g>
</g>
<!-- Node20&#45;&gt;Node22 -->
<g id="edge31_Node000020_Node000022" class="edge">
<title>Node20&#45;&gt;Node22</title>
<g id="a_edge31_Node000020_Node000022"><a xlink:title=" ">
<path fill="none" stroke="#63b8ff" d="M559.49,-219.98C542.03,-211.5 514.99,-198.35 494.83,-188.54"/>
<polygon fill="#63b8ff" stroke="#63b8ff" points="496.36,-185.4 485.83,-184.17 493.29,-191.69 496.36,-185.4"/>
</a>
</g>
</g>
<!-- Node22&#45;&gt;Node15 -->
<g id="edge33_Node000022_Node000015" class="edge">
<title>Node22&#45;&gt;Node15</title>
<g id="a_edge33_Node000022_Node000015"><a xlink:title=" ">
<path fill="none" stroke="#63b8ff" d="M490.01,-164.98C512.45,-156.3 547.48,-142.75 572.99,-132.88"/>
<polygon fill="#63b8ff" stroke="#63b8ff" points="574.52,-136.04 582.59,-129.17 572,-129.51 574.52,-136.04"/>
</a>
</g>
</g>
<!-- Node22&#45;&gt;Node17 -->
<g id="edge32_Node000022_Node000017" class="edge">
<title>Node22&#45;&gt;Node17</title>
<g id="a_edge32_Node000022_Node000017"><a xlink:title=" ">
<path fill="none" stroke="#63b8ff" d="M504.15,-164.98C546.98,-154.9 617.76,-138.22 659.43,-128.41"/>
<polygon fill="#63b8ff" stroke="#63b8ff" points="660.43,-131.77 669.36,-126.07 658.83,-124.95 660.43,-131.77"/>
</a>
</g>
</g>
<!-- Node23 -->
<g id="Node000023" class="node">
<title>Node23</title>
<g id="a_Node000023"><a xlink:title=" ">
<polygon fill="#e0e0e0" stroke="#999999" points="557.5,-129 504.5,-129 504.5,-110 557.5,-110 557.5,-129"/>
<text text-anchor="middle" x="531" y="-117" font-family="Helvetica,sans-Serif" font-size="10.00">iterator</text>
</a>
</g>
</g>
<!-- Node22&#45;&gt;Node23 -->
<g id="edge34_Node000022_Node000023" class="edge">
<title>Node22&#45;&gt;Node23</title>
<g id="a_edge34_Node000022_Node000023"><a xlink:title=" ">
<path fill="none" stroke="#63b8ff" d="M478.12,-164.98C487.44,-157.15 501.47,-145.34 512.74,-135.86"/>
<polygon fill="#63b8ff" stroke="#63b8ff" points="515.29,-138.29 520.69,-129.17 510.79,-132.93 515.29,-138.29"/>
</a>
</g>
</g>
<!-- Node24&#45;&gt;Node3 -->
<g id="edge37_Node000024_Node000003" class="edge">
<title>Node24&#45;&gt;Node3</title>
<g id="a_edge37_Node000024_Node000003"><a xlink:title=" ">
<path fill="none" stroke="#63b8ff" d="M783,-164.75C783,-157.8 783,-147.85 783,-139.13"/>
<polygon fill="#63b8ff" stroke="#63b8ff" points="786.5,-139.09 783,-129.09 779.5,-139.09 786.5,-139.09"/>
</a>
</g>
</g>
<!-- Node24&#45;&gt;Node17 -->
<g id="edge36_Node000024_Node000017" class="edge">
<title>Node24&#45;&gt;Node17</title>
<g id="a_edge36_Node000024_Node000017"><a xlink:title=" ">
<path fill="none" stroke="#63b8ff" d="M768.54,-164.98C754.58,-156.77 733.21,-144.18 716.75,-134.49"/>
<polygon fill="#63b8ff" stroke="#63b8ff" points="718.12,-131.23 707.72,-129.17 714.56,-137.26 718.12,-131.23"/>
</a>
</g>
</g>
<!-- Node25&#45;&gt;Node3 -->
<g id="edge41_Node000025_Node000003" class="edge">
<title>Node25&#45;&gt;Node3</title>
<g id="a_edge41_Node000025_Node000003"><a xlink:title=" ">
<path fill="none" stroke="#63b8ff" d="M1124.27,-168.22C1053.28,-158.3 900.27,-136.9 825.66,-126.47"/>
<polygon fill="#63b8ff" stroke="#63b8ff" points="826.06,-122.99 815.67,-125.07 825.09,-129.92 826.06,-122.99"/>
</a>
</g>
</g>
<!-- Node25&#45;&gt;Node4 -->
<g id="edge40_Node000025_Node000004" class="edge">
<title>Node25&#45;&gt;Node4</title>
<g id="a_edge40_Node000025_Node000004"><a xlink:title=" ">
<path fill="none" stroke="#63b8ff" d="M1166.54,-164.94C1172.73,-151.99 1181.86,-127.11 1171,-110 1115.44,-22.49 976.6,-10.54 913.33,-9.83"/>
<polygon fill="#63b8ff" stroke="#63b8ff" points="913.15,-6.33 903.14,-9.81 913.13,-13.33 913.15,-6.33"/>
</a>
</g>
</g>
<!-- Node26 -->
<g id="Node000026" class="node">
<title>Node26</title>
<g id="a_Node000026"><a xlink:title=" ">
<polygon fill="#e0e0e0" stroke="#999999" points="1161.5,-129 1068.5,-129 1068.5,-110 1161.5,-110 1161.5,-129"/>
<text text-anchor="middle" x="1115" y="-117" font-family="Helvetica,sans-Serif" font-size="10.00">unordered_map</text>
</a>
</g>
</g>
<!-- Node25&#45;&gt;Node26 -->
<g id="edge39_Node000025_Node000026" class="edge">
<title>Node25&#45;&gt;Node26</title>
<g id="a_edge39_Node000025_Node000026"><a xlink:title=" ">
<path fill="none" stroke="#63b8ff" d="M1154.24,-164.75C1147.53,-157.18 1137.66,-146.05 1129.49,-136.84"/>
<polygon fill="#63b8ff" stroke="#63b8ff" points="1131.87,-134.25 1122.62,-129.09 1126.63,-138.89 1131.87,-134.25"/>
</a>
</g>
</g>
<!-- Node27&#45;&gt;Node3 -->
<g id="edge46_Node000027_Node000003" class="edge">
<title>Node27&#45;&gt;Node3</title>
<g id="a_edge46_Node000027_Node000003"><a xlink:title=" ">
<path fill="none" stroke="#63b8ff" d="M1019.05,-219.87C1003.01,-206.38 970,-180.24 938,-165 901.73,-147.73 857.43,-135.84 825.49,-128.73"/>
<polygon fill="#63b8ff" stroke="#63b8ff" points="826.1,-125.28 815.59,-126.58 824.62,-132.12 826.1,-125.28"/>
</a>
</g>
</g>
<!-- Node27&#45;&gt;Node4 -->
<g id="edge44_Node000027_Node000004" class="edge">
<title>Node27&#45;&gt;Node4</title>
<g id="a_edge44_Node000027_Node000004"><a xlink:title=" ">
<path fill="none" stroke="#63b8ff" d="M1059.75,-225.41C1106.2,-220.04 1190.79,-207.26 1209,-184 1223.67,-165.26 1200.28,-131.46 1187,-110 1169.77,-82.16 1166.62,-70.9 1138,-55 1099.82,-33.78 973.24,-19.27 913.17,-13.41"/>
<polygon fill="#63b8ff" stroke="#63b8ff" points="913.39,-9.91 903.1,-12.45 912.73,-16.88 913.39,-9.91"/>
</a>
</g>
</g>
<!-- Node27&#45;&gt;Node26 -->
<g id="edge45_Node000027_Node000026" class="edge">
<title>Node27&#45;&gt;Node26</title>
<g id="a_edge45_Node000027_Node000026"><a xlink:title=" ">
<path fill="none" stroke="#63b8ff" d="M1040.14,-219.74C1050.45,-211.28 1065.84,-197.77 1077,-184 1088.61,-169.69 1099.14,-151.48 1106.15,-138.23"/>
<polygon fill="#63b8ff" stroke="#63b8ff" points="1109.33,-139.71 1110.79,-129.22 1103.1,-136.51 1109.33,-139.71"/>
</a>
</g>
</g>
<!-- Node28 -->
<g id="Node000028" class="node">
<title>Node28</title>
<g id="a_Node000028"><a xlink:href="../../da/de1/linkedmap_8h.html" target="_top" xlink:title=" ">
<polygon fill="white" stroke="#666666" points="1067.5,-184 990.5,-184 990.5,-165 1067.5,-165 1067.5,-184"/>
<text text-anchor="middle" x="1029" y="-172" font-family="Helvetica,sans-Serif" font-size="10.00">linkedmap.h</text>
</a>
</g>
</g>
<!-- Node27&#45;&gt;Node28 -->
<g id="edge47_Node000027_Node000028" class="edge">
<title>Node27&#45;&gt;Node28</title>
<g id="a_edge47_Node000027_Node000028"><a xlink:title=" ">
<path fill="none" stroke="#63b8ff" d="M1029,-219.75C1029,-212.8 1029,-202.85 1029,-194.13"/>
<polygon fill="#63b8ff" stroke="#63b8ff" points="1032.5,-194.09 1029,-184.09 1025.5,-194.09 1032.5,-194.09"/>
</a>
</g>
</g>
<!-- Node28&#45;&gt;Node3 -->
<g id="edge54_Node000028_Node000003" class="edge">
<title>Node28&#45;&gt;Node3</title>
<g id="a_edge54_Node000028_Node000003"><a xlink:title=" ">
<path fill="none" stroke="#63b8ff" d="M990.29,-165.16C945.51,-155.51 872,-139.68 825.62,-129.68"/>
<polygon fill="#63b8ff" stroke="#63b8ff" points="826.1,-126.21 815.59,-127.52 824.63,-133.05 826.1,-126.21"/>
</a>
</g>
</g>
<!-- Node28&#45;&gt;Node4 -->
<g id="edge51_Node000028_Node000004" class="edge">
<title>Node28&#45;&gt;Node4</title>
<g id="a_edge51_Node000028_Node000004"><a xlink:title=" ">
<path fill="none" stroke="#63b8ff" d="M1032.88,-164.97C1041.83,-143.89 1061.3,-88.58 1036,-55 1021.24,-35.41 954.05,-21.78 913.13,-15.14"/>
<polygon fill="#63b8ff" stroke="#63b8ff" points="913.52,-11.66 903.1,-13.57 912.43,-18.57 913.52,-11.66"/>
</a>
</g>
</g>
<!-- Node28&#45;&gt;Node6 -->
<g id="edge52_Node000028_Node000006" class="edge">
<title>Node28&#45;&gt;Node6</title>
<g id="a_edge52_Node000028_Node000006"><a xlink:title=" ">
<path fill="none" stroke="#63b8ff" d="M1020.65,-164.66C1003.46,-146.46 963.88,-104.55 942.08,-81.47"/>
<polygon fill="#63b8ff" stroke="#63b8ff" points="944.59,-79.03 935.18,-74.16 939.5,-83.83 944.59,-79.03"/>
</a>
</g>
</g>
<!-- Node28&#45;&gt;Node7 -->
<g id="edge53_Node000028_Node000007" class="edge">
<title>Node28&#45;&gt;Node7</title>
<g id="a_edge53_Node000028_Node000007"><a xlink:title=" ">
<path fill="none" stroke="#63b8ff" d="M1026.79,-164.66C1022.4,-147.09 1012.49,-107.45 1006.61,-83.95"/>
<polygon fill="#63b8ff" stroke="#63b8ff" points="1009.99,-83.01 1004.16,-74.16 1003.19,-84.71 1009.99,-83.01"/>
</a>
</g>
</g>
<!-- Node28&#45;&gt;Node15 -->
<g id="edge50_Node000028_Node000015" class="edge">
<title>Node28&#45;&gt;Node15</title>
<g id="a_edge50_Node000028_Node000015"><a xlink:title=" ">
<path fill="none" stroke="#63b8ff" d="M990.27,-169.21C923.15,-161.68 780.88,-145.34 661,-129 655.52,-128.25 649.74,-127.42 644.07,-126.58"/>
<polygon fill="#63b8ff" stroke="#63b8ff" points="644.45,-123.1 634.04,-125.08 643.41,-130.03 644.45,-123.1"/>
</a>
</g>
</g>
<!-- Node28&#45;&gt;Node17 -->
<g id="edge49_Node000028_Node000017" class="edge">
<title>Node28&#45;&gt;Node17</title>
<g id="a_edge49_Node000028_Node000017"><a xlink:title=" ">
<path fill="none" stroke="#63b8ff" d="M990.44,-167.74C935.31,-159.47 830.81,-143.59 742,-129 737.14,-128.2 732.02,-127.34 726.99,-126.48"/>
<polygon fill="#63b8ff" stroke="#63b8ff" points="727.36,-122.99 716.91,-124.74 726.17,-129.89 727.36,-122.99"/>
</a>
</g>
</g>
<!-- Node28&#45;&gt;Node26 -->
<g id="edge48_Node000028_Node000026" class="edge">
<title>Node28&#45;&gt;Node26</title>
<g id="a_edge48_Node000028_Node000026"><a xlink:title=" ">
<path fill="none" stroke="#63b8ff" d="M1042.82,-164.98C1056.15,-156.77 1076.58,-144.18 1092.31,-134.49"/>
<polygon fill="#63b8ff" stroke="#63b8ff" points="1094.25,-137.4 1100.93,-129.17 1090.58,-131.44 1094.25,-137.4"/>
</a>
</g>
</g>
<!-- Node29&#45;&gt;Node2 -->
<g id="edge57_Node000029_Node000002" class="edge">
<title>Node29&#45;&gt;Node2</title>
<g id="a_edge57_Node000029_Node000002"><a xlink:title=" ">
<path fill="none" stroke="#63b8ff" d="M219.69,-164.98C178.77,-155.39 112.44,-139.83 70.05,-129.89"/>
<polygon fill="#63b8ff" stroke="#63b8ff" points="70.61,-126.43 60.07,-127.55 69.01,-133.24 70.61,-126.43"/>
</a>
</g>
</g>
<!-- Node29&#45;&gt;Node3 -->
<g id="edge63_Node000029_Node000003" class="edge">
<title>Node29&#45;&gt;Node3</title>
<g id="a_edge63_Node000029_Node000003"><a xlink:title=" ">
<path fill="none" stroke="#63b8ff" d="M296,-170.44C377.2,-164.07 567.14,-148.35 726,-129 730.72,-128.43 735.65,-127.77 740.55,-127.09"/>
<polygon fill="#63b8ff" stroke="#63b8ff" points="741.09,-130.55 750.49,-125.66 740.09,-123.62 741.09,-130.55"/>
</a>
</g>
</g>
<!-- Node29&#45;&gt;Node4 -->
<g id="edge56_Node000029_Node000004" class="edge">
<title>Node29&#45;&gt;Node4</title>
<g id="a_edge56_Node000029_Node000004"><a xlink:title=" ">
<path fill="none" stroke="#63b8ff" d="M263.81,-164.65C286.33,-139.38 351.52,-67.91 380,-55 464.23,-16.81 752.04,-11.35 848.9,-10.61"/>
<polygon fill="#63b8ff" stroke="#63b8ff" points="848.99,-14.11 858.96,-10.54 848.94,-7.11 848.99,-14.11"/>
</a>
</g>
</g>
<!-- Node29&#45;&gt;Node9 -->
<g id="edge60_Node000029_Node000009" class="edge">
<title>Node29&#45;&gt;Node9</title>
<g id="a_edge60_Node000029_Node000009"><a xlink:title=" ">
<path fill="none" stroke="#63b8ff" d="M270.13,-164.92C284.41,-156.16 307,-142.03 326,-129 349.33,-113 375.37,-93.54 392.62,-80.41"/>
<polygon fill="#63b8ff" stroke="#63b8ff" points="394.96,-83.03 400.78,-74.18 390.7,-77.47 394.96,-83.03"/>
</a>
</g>
</g>
<!-- Node29&#45;&gt;Node11 -->
<g id="edge59_Node000029_Node000011" class="edge">
<title>Node29&#45;&gt;Node11</title>
<g id="a_edge59_Node000029_Node000011"><a xlink:title=" ">
<path fill="none" stroke="#63b8ff" d="M215.94,-166.92C177.98,-158.67 129.1,-141.6 146,-110 170,-65.12 224.18,-36.96 260.17,-22.49"/>
<polygon fill="#63b8ff" stroke="#63b8ff" points="261.73,-25.64 269.79,-18.76 259.21,-19.11 261.73,-25.64"/>
</a>
</g>
</g>
<!-- Node29&#45;&gt;Node19 -->
<g id="edge62_Node000029_Node000019" class="edge">
<title>Node29&#45;&gt;Node19</title>
<g id="a_edge62_Node000029_Node000019"><a xlink:title=" ">
<path fill="none" stroke="#63b8ff" d="M281.22,-164.98C307.36,-156.16 348.4,-142.31 377.73,-132.41"/>
<polygon fill="#63b8ff" stroke="#63b8ff" points="379.22,-135.6 387.58,-129.08 376.98,-128.96 379.22,-135.6"/>
</a>
</g>
</g>
<!-- Node30 -->
<g id="Node000030" class="node">
<title>Node30</title>
<g id="a_Node000030"><a xlink:title=" ">
<polygon fill="#e0e0e0" stroke="#999999" points="284,-129 228,-129 228,-110 284,-110 284,-129"/>
<text text-anchor="middle" x="256" y="-117" font-family="Helvetica,sans-Serif" font-size="10.00">sstream</text>
</a>
</g>
</g>
<!-- Node29&#45;&gt;Node30 -->
<g id="edge58_Node000029_Node000030" class="edge">
<title>Node29&#45;&gt;Node30</title>
<g id="a_edge58_Node000029_Node000030"><a xlink:title=" ">
<path fill="none" stroke="#63b8ff" d="M256,-164.75C256,-157.8 256,-147.85 256,-139.13"/>
<polygon fill="#63b8ff" stroke="#63b8ff" points="259.5,-139.09 256,-129.09 252.5,-139.09 259.5,-139.09"/>
</a>
</g>
</g>
<!-- Node31 -->
<g id="Node000031" class="node">
<title>Node31</title>
<g id="a_Node000031"><a xlink:title=" ">
<polygon fill="#e0e0e0" stroke="#999999" points="209.5,-129 154.5,-129 154.5,-110 209.5,-110 209.5,-129"/>
<text text-anchor="middle" x="182" y="-117" font-family="Helvetica,sans-Serif" font-size="10.00">fstream</text>
</a>
</g>
</g>
<!-- Node29&#45;&gt;Node31 -->
<g id="edge61_Node000029_Node000031" class="edge">
<title>Node29&#45;&gt;Node31</title>
<g id="a_edge61_Node000029_Node000031"><a xlink:title=" ">
<path fill="none" stroke="#63b8ff" d="M244.11,-164.98C232.85,-156.92 215.71,-144.65 202.29,-135.03"/>
<polygon fill="#63b8ff" stroke="#63b8ff" points="204.27,-132.15 194.11,-129.17 200.2,-137.84 204.27,-132.15"/>
</a>
</g>
</g>
</g>
</svg>
