<?xml version="1.0" encoding="UTF-8" standalone="no"?>
<!DOCTYPE svg PUBLIC "-//W3C//DTD SVG 1.1//EN"
 "http://www.w3.org/Graphics/SVG/1.1/DTD/svg11.dtd">
<!-- Generated by graphviz version 2.43.0 (0)
 -->
<!-- Title: LatexGenerator Pages: 1 -->
<svg width="422pt" height="170pt"
 viewBox="0.00 0.00 422.16 170.00" xmlns="http://www.w3.org/2000/svg" xmlns:xlink="http://www.w3.org/1999/xlink">
<g id="graph0" class="graph" transform="scale(1 1) rotate(0) translate(4 166)">
<title>LatexGenerator</title>
<!-- Node1 -->
<g id="Node000001" class="node">
<title>Node1</title>
<g id="a_Node000001"><a xlink:title="Generator for LaTeX output.">
<polygon fill="#999999" stroke="#666666" points="243.66,-19 151.66,-19 151.66,0 243.66,0 243.66,-19"/>
<text text-anchor="middle" x="197.66" y="-7" font-family="Helvetica,sans-Serif" font-size="10.00">LatexGenerator</text>
</a>
</g>
</g>
<!-- Node2 -->
<g id="Node000002" class="node">
<title>Node2</title>
<g id="a_Node000002"><a xlink:href="../../d3/d8e/class_output_generator.html" target="_top" xlink:title="Base class for shared implementation for all output generators.">
<polygon fill="white" stroke="#666666" points="164.66,-85 66.66,-85 66.66,-66 164.66,-66 164.66,-85"/>
<text text-anchor="middle" x="115.66" y="-73" font-family="Helvetica,sans-Serif" font-size="10.00">OutputGenerator</text>
</a>
</g>
</g>
<!-- Node2&#45;&gt;Node1 -->
<g id="edge1_Node000001_Node000002" class="edge">
<title>Node2&#45;&gt;Node1</title>
<g id="a_edge1_Node000001_Node000002"><a xlink:title=" ">
<path fill="none" stroke="#63b8ff" d="M134.89,-59.49C150.94,-46.96 173.27,-29.54 186.51,-19.2"/>
<polygon fill="#63b8ff" stroke="#63b8ff" points="132.44,-56.96 126.71,-65.87 136.75,-62.48 132.44,-56.96"/>
</a>
</g>
</g>
<!-- Node3 -->
<g id="Node000003" class="node">
<title>Node3</title>
<g id="a_Node000003"><a xlink:href="../../d3/d30/class_text_stream.html" target="_top" xlink:title="Text streaming class that buffers data.">
<polygon fill="white" stroke="#666666" points="304.66,-162 232.66,-162 232.66,-143 304.66,-143 304.66,-162"/>
<text text-anchor="middle" x="268.66" y="-150" font-family="Helvetica,sans-Serif" font-size="10.00">TextStream</text>
</a>
</g>
</g>
<!-- Node3&#45;&gt;Node2 -->
<g id="edge2_Node000002_Node000003" class="edge">
<title>Node3&#45;&gt;Node2</title>
<g id="a_edge2_Node000002_Node000003"><a xlink:title=" ">
<path fill="none" stroke="#9a32cd" stroke-dasharray="5,2" d="M264.69,-133.05C261.51,-122.71 256,-110.44 246.66,-103 240.1,-97.78 199.21,-90.01 164.83,-84.23"/>
<polygon fill="#9a32cd" stroke="#9a32cd" points="261.32,-134.03 267.2,-142.84 268.1,-132.29 261.32,-134.03"/>
</a>
</g>
<text text-anchor="middle" x="271.66" y="-111.5" font-family="Helvetica,sans-Serif" font-size="10.00" fill="grey"> m_t</text>
</g>
<!-- Node6 -->
<g id="Node000006" class="node">
<title>Node6</title>
<g id="a_Node000006"><a xlink:href="../../d0/d37/class_latex_code_generator.html" target="_top" xlink:title="Generator for LaTeX code fragments.">
<polygon fill="white" stroke="#666666" points="404.16,-85 287.16,-85 287.16,-66 404.16,-66 404.16,-85"/>
<text text-anchor="middle" x="345.66" y="-73" font-family="Helvetica,sans-Serif" font-size="10.00">LatexCodeGenerator</text>
</a>
</g>
</g>
<!-- Node3&#45;&gt;Node6 -->
<g id="edge8_Node000006_Node000003" class="edge">
<title>Node3&#45;&gt;Node6</title>
<g id="a_edge8_Node000006_Node000003"><a xlink:title=" ">
<path fill="none" stroke="#9a32cd" stroke-dasharray="5,2" d="M284.99,-135.59C300.86,-120.13 324.34,-97.27 336.93,-85"/>
<polygon fill="#9a32cd" stroke="#9a32cd" points="282.21,-133.41 277.49,-142.9 287.09,-138.43 282.21,-133.41"/>
</a>
</g>
<text text-anchor="middle" x="326.66" y="-111.5" font-family="Helvetica,sans-Serif" font-size="10.00" fill="grey"> m_t</text>
</g>
<!-- Node4 -->
<g id="Node000004" class="node">
<title>Node4</title>
<g id="a_Node000004"><a xlink:href="../../d9/d45/class_q_c_string.html" target="_top" xlink:title="This is an alternative implementation of QCString.">
<polygon fill="white" stroke="#666666" points="98.16,-162 39.16,-162 39.16,-143 98.16,-143 98.16,-162"/>
<text text-anchor="middle" x="68.66" y="-150" font-family="Helvetica,sans-Serif" font-size="10.00">QCString</text>
</a>
</g>
</g>
<!-- Node4&#45;&gt;Node1 -->
<g id="edge5_Node000001_Node000004" class="edge">
<title>Node4&#45;&gt;Node1</title>
<g id="a_edge5_Node000001_Node000004"><a xlink:title=" ">
<path fill="none" stroke="#9a32cd" stroke-dasharray="5,2" d="M45.38,-137.28C20.47,-120.27 -13.09,-90.94 5.66,-66 23.17,-42.7 100.39,-26.08 151.4,-17.41"/>
<polygon fill="#9a32cd" stroke="#9a32cd" points="43.77,-140.41 54.05,-142.96 47.61,-134.56 43.77,-140.41"/>
</a>
</g>
<text text-anchor="middle" x="31.66" y="-73" font-family="Helvetica,sans-Serif" font-size="10.00" fill="grey"> m_relPath</text>
</g>
<!-- Node4&#45;&gt;Node2 -->
<g id="edge3_Node000002_Node000004" class="edge">
<title>Node4&#45;&gt;Node2</title>
<g id="a_edge3_Node000002_Node000004"><a xlink:title=" ">
<path fill="none" stroke="#9a32cd" stroke-dasharray="5,2" d="M64.89,-132.86C63.95,-123.31 64.41,-111.86 69.66,-103 74.35,-95.07 82.4,-89.29 90.46,-85.19"/>
<polygon fill="#9a32cd" stroke="#9a32cd" points="61.46,-133.58 66.45,-142.93 68.38,-132.51 61.46,-133.58"/>
</a>
</g>
<text text-anchor="middle" x="99.66" y="-117" font-family="Helvetica,sans-Serif" font-size="10.00" fill="grey"> m_dir</text>
<text text-anchor="middle" x="99.66" y="-106" font-family="Helvetica,sans-Serif" font-size="10.00" fill="grey">m_fileName</text>
</g>
<!-- Node4&#45;&gt;Node6 -->
<g id="edge9_Node000006_Node000004" class="edge">
<title>Node4&#45;&gt;Node6</title>
<g id="a_edge9_Node000006_Node000004"><a xlink:title=" ">
<path fill="none" stroke="#9a32cd" stroke-dasharray="5,2" d="M104.75,-139C113.33,-135.19 122.15,-130.52 129.66,-125 140.06,-117.35 137.29,-109.15 148.66,-103 151.73,-101.33 230.04,-91.14 286.99,-83.89"/>
<polygon fill="#9a32cd" stroke="#9a32cd" points="103.16,-135.87 95.26,-142.93 105.84,-142.34 103.16,-135.87"/>
</a>
</g>
<text text-anchor="middle" x="195.66" y="-117" font-family="Helvetica,sans-Serif" font-size="10.00" fill="grey"> m_relPath</text>
<text text-anchor="middle" x="195.66" y="-106" font-family="Helvetica,sans-Serif" font-size="10.00" fill="grey">m_sourceFileName</text>
</g>
<!-- Node5 -->
<g id="Node000005" class="node">
<title>Node5</title>
<g id="a_Node000005"><a xlink:href="../../d9/de9/class_output_gen_intf.html" target="_top" xlink:title="Abstract interface for output generators.">
<polygon fill="white" stroke="#666666" points="268.66,-85 182.66,-85 182.66,-66 268.66,-66 268.66,-85"/>
<text text-anchor="middle" x="225.66" y="-73" font-family="Helvetica,sans-Serif" font-size="10.00">OutputGenIntf</text>
</a>
</g>
</g>
<!-- Node5&#45;&gt;Node1 -->
<g id="edge4_Node000001_Node000005" class="edge">
<title>Node5&#45;&gt;Node1</title>
<g id="a_edge4_Node000001_Node000005"><a xlink:title=" ">
<path fill="none" stroke="#63b8ff" d="M217.86,-56.68C212.55,-44.55 205.75,-29.01 201.55,-19.41"/>
<polygon fill="#63b8ff" stroke="#63b8ff" points="214.66,-58.11 221.88,-65.87 221.08,-55.3 214.66,-58.11"/>
</a>
</g>
</g>
<!-- Node6&#45;&gt;Node1 -->
<g id="edge6_Node000001_Node000006" class="edge">
<title>Node6&#45;&gt;Node1</title>
<g id="a_edge6_Node000001_Node000006"><a xlink:title=" ">
<path fill="none" stroke="#9a32cd" stroke-dasharray="5,2" d="M316.42,-61.86C287.26,-49.25 243.23,-30.21 217.77,-19.2"/>
<polygon fill="#9a32cd" stroke="#9a32cd" points="315.13,-65.11 325.7,-65.87 317.91,-58.69 315.13,-65.11"/>
</a>
</g>
<text text-anchor="middle" x="310.16" y="-40" font-family="Helvetica,sans-Serif" font-size="10.00" fill="grey"> m_codeGen</text>
</g>
<!-- Node7 -->
<g id="Node000007" class="node">
<title>Node7</title>
<g id="a_Node000007"><a xlink:href="../../db/d44/class_output_code_intf.html" target="_top" xlink:title="Base class for code generators.">
<polygon fill="white" stroke="#666666" points="414.16,-162 323.16,-162 323.16,-143 414.16,-143 414.16,-162"/>
<text text-anchor="middle" x="368.66" y="-150" font-family="Helvetica,sans-Serif" font-size="10.00">OutputCodeIntf</text>
</a>
</g>
</g>
<!-- Node7&#45;&gt;Node6 -->
<g id="edge7_Node000006_Node000007" class="edge">
<title>Node7&#45;&gt;Node6</title>
<g id="a_edge7_Node000006_Node000007"><a xlink:title=" ">
<path fill="none" stroke="#63b8ff" d="M362.97,-132.97C358.27,-117.65 351.82,-96.59 348.26,-85"/>
<polygon fill="#63b8ff" stroke="#63b8ff" points="359.74,-134.36 366.02,-142.9 366.43,-132.31 359.74,-134.36"/>
</a>
</g>
</g>
</g>
</svg>
