<?xml version="1.0" encoding="UTF-8" standalone="no"?>
<!DOCTYPE svg PUBLIC "-//W3C//DTD SVG 1.1//EN"
 "http://www.w3.org/Graphics/SVG/1.1/DTD/svg11.dtd">
<!-- Generated by graphviz version 2.43.0 (0)
 -->
<!-- Title: LatexGenerator Pages: 1 -->
<svg width="336pt" height="170pt"
 viewBox="0.00 0.00 336.00 170.00" xmlns="http://www.w3.org/2000/svg" xmlns:xlink="http://www.w3.org/1999/xlink">
<g id="graph0" class="graph" transform="scale(1 1) rotate(0) translate(4 166)">
<title>LatexGenerator</title>
<!-- Node1 -->
<g id="Node000001" class="node">
<title>Node1</title>
<g id="a_Node000001"><a xlink:title="Generator for LaTeX output.">
<polygon fill="#999999" stroke="#666666" points="256,-19 164,-19 164,0 256,0 256,-19"/>
<text text-anchor="middle" x="210" y="-7" font-family="Helvetica,sans-Serif" font-size="10.00">LatexGenerator</text>
</a>
</g>
</g>
<!-- Node2 -->
<g id="Node000002" class="node">
<title>Node2</title>
<g id="a_Node000002"><a xlink:href="../../d3/d8e/class_output_generator.html" target="_top" xlink:title="Base class for specific output generators.">
<polygon fill="white" stroke="#666666" points="259,-85 161,-85 161,-66 259,-66 259,-85"/>
<text text-anchor="middle" x="210" y="-73" font-family="Helvetica,sans-Serif" font-size="10.00">OutputGenerator</text>
</a>
</g>
</g>
<!-- Node2&#45;&gt;Node1 -->
<g id="edge1_Node000001_Node000002" class="edge">
<title>Node2&#45;&gt;Node1</title>
<g id="a_edge1_Node000001_Node000002"><a xlink:title=" ">
<path fill="none" stroke="#63b8ff" d="M210,-55.58C210,-43.63 210,-28.72 210,-19.41"/>
<polygon fill="#63b8ff" stroke="#63b8ff" points="206.5,-55.87 210,-65.87 213.5,-55.87 206.5,-55.87"/>
</a>
</g>
</g>
<!-- Node3 -->
<g id="Node000003" class="node">
<title>Node3</title>
<g id="a_Node000003"><a xlink:href="../../d3/d30/class_text_stream.html" target="_top" xlink:title="Text streaming class that buffers data.">
<polygon fill="white" stroke="#666666" points="72,-162 0,-162 0,-143 72,-143 72,-162"/>
<text text-anchor="middle" x="36" y="-150" font-family="Helvetica,sans-Serif" font-size="10.00">TextStream</text>
</a>
</g>
</g>
<!-- Node3&#45;&gt;Node2 -->
<g id="edge2_Node000002_Node000003" class="edge">
<title>Node3&#45;&gt;Node2</title>
<g id="a_edge2_Node000002_Node000003"><a xlink:title=" ">
<path fill="none" stroke="#9a32cd" stroke-dasharray="5,2" d="M44.19,-133.53C49.93,-123 58.61,-110.35 70,-103 77.72,-98.02 123.59,-89.9 160.75,-83.96"/>
<polygon fill="#9a32cd" stroke="#9a32cd" points="40.93,-132.24 39.6,-142.75 47.2,-135.36 40.93,-132.24"/>
</a>
</g>
<text text-anchor="middle" x="81" y="-111.5" font-family="Helvetica,sans-Serif" font-size="10.00" fill="grey"> m_t</text>
</g>
<!-- Node5 -->
<g id="Node000005" class="node">
<title>Node5</title>
<g id="a_Node000005"><a xlink:href="../../d0/d37/class_latex_code_generator.html" target="_top" xlink:title="Generator for LaTeX code fragments.">
<polygon fill="white" stroke="#666666" points="142.5,-85 25.5,-85 25.5,-66 142.5,-66 142.5,-85"/>
<text text-anchor="middle" x="84" y="-73" font-family="Helvetica,sans-Serif" font-size="10.00">LatexCodeGenerator</text>
</a>
</g>
</g>
<!-- Node3&#45;&gt;Node5 -->
<g id="edge6_Node000005_Node000003" class="edge">
<title>Node3&#45;&gt;Node5</title>
<g id="a_edge6_Node000005_Node000003"><a xlink:title=" ">
<path fill="none" stroke="#9a32cd" stroke-dasharray="5,2" d="M19.4,-134.9C17.19,-131.83 15.26,-128.48 14,-125 10.68,-115.8 8.44,-111.05 14,-103 19.76,-94.66 28.51,-88.94 37.89,-85.02"/>
<polygon fill="#9a32cd" stroke="#9a32cd" points="16.9,-137.36 26.03,-142.72 22.24,-132.83 16.9,-137.36"/>
</a>
</g>
<text text-anchor="middle" x="25" y="-111.5" font-family="Helvetica,sans-Serif" font-size="10.00" fill="grey"> m_t</text>
</g>
<!-- Node4 -->
<g id="Node000004" class="node">
<title>Node4</title>
<g id="a_Node000004"><a xlink:href="../../d9/d45/class_q_c_string.html" target="_top" xlink:title="This is an alternative implementation of QCString.">
<polygon fill="white" stroke="#666666" points="249.5,-162 190.5,-162 190.5,-143 249.5,-143 249.5,-162"/>
<text text-anchor="middle" x="220" y="-150" font-family="Helvetica,sans-Serif" font-size="10.00">QCString</text>
</a>
</g>
</g>
<!-- Node4&#45;&gt;Node1 -->
<g id="edge4_Node000001_Node000004" class="edge">
<title>Node4&#45;&gt;Node1</title>
<g id="a_edge4_Node000001_Node000004"><a xlink:title=" ">
<path fill="none" stroke="#9a32cd" stroke-dasharray="5,2" d="M259.06,-141.96C267.32,-138.07 275.03,-132.63 280,-125 285.34,-116.81 281.53,-112.66 280,-103 277.3,-85.92 277.19,-80.64 268,-66 255.85,-46.64 235.46,-29.31 222.38,-19.35"/>
<polygon fill="#9a32cd" stroke="#9a32cd" points="257.61,-138.77 249.61,-145.71 260.2,-145.27 257.61,-138.77"/>
</a>
</g>
<text text-anchor="middle" x="302" y="-73" font-family="Helvetica,sans-Serif" font-size="10.00" fill="grey"> m_relPath</text>
</g>
<!-- Node4&#45;&gt;Node2 -->
<g id="edge3_Node000002_Node000004" class="edge">
<title>Node4&#45;&gt;Node2</title>
<g id="a_edge3_Node000002_Node000004"><a xlink:title=" ">
<path fill="none" stroke="#9a32cd" stroke-dasharray="5,2" d="M217.53,-132.97C215.49,-117.65 212.68,-96.59 211.13,-85"/>
<polygon fill="#9a32cd" stroke="#9a32cd" points="214.06,-133.45 218.85,-142.9 221,-132.52 214.06,-133.45"/>
</a>
</g>
<text text-anchor="middle" x="246" y="-117" font-family="Helvetica,sans-Serif" font-size="10.00" fill="grey"> m_dir</text>
<text text-anchor="middle" x="246" y="-106" font-family="Helvetica,sans-Serif" font-size="10.00" fill="grey">m_fileName</text>
</g>
<!-- Node4&#45;&gt;Node5 -->
<g id="edge7_Node000005_Node000004" class="edge">
<title>Node4&#45;&gt;Node5</title>
<g id="a_edge7_Node000005_Node000004"><a xlink:title=" ">
<path fill="none" stroke="#9a32cd" stroke-dasharray="5,2" d="M180.43,-148.55C159.38,-145.34 134,-138.7 115,-125 100.9,-114.83 91.64,-96.08 87.16,-85.11"/>
<polygon fill="#9a32cd" stroke="#9a32cd" points="180,-152.02 190.37,-149.87 180.92,-145.08 180,-152.02"/>
</a>
</g>
<text text-anchor="middle" x="162" y="-117" font-family="Helvetica,sans-Serif" font-size="10.00" fill="grey"> m_relPath</text>
<text text-anchor="middle" x="162" y="-106" font-family="Helvetica,sans-Serif" font-size="10.00" fill="grey">m_sourceFileName</text>
</g>
<!-- Node5&#45;&gt;Node1 -->
<g id="edge5_Node000001_Node000005" class="edge">
<title>Node5&#45;&gt;Node1</title>
<g id="a_edge5_Node000001_Node000005"><a xlink:title=" ">
<path fill="none" stroke="#9a32cd" stroke-dasharray="5,2" d="M105.22,-60.27C116.72,-52.85 131.35,-43.92 145,-37 158.37,-30.22 173.9,-23.84 186.42,-19.04"/>
<polygon fill="#9a32cd" stroke="#9a32cd" points="103.18,-57.41 96.73,-65.82 107.02,-63.27 103.18,-57.41"/>
</a>
</g>
<text text-anchor="middle" x="175.5" y="-40" font-family="Helvetica,sans-Serif" font-size="10.00" fill="grey"> m_codeGen</text>
</g>
</g>
</svg>
