<?xml version="1.0" encoding="UTF-8" standalone="no"?>
<!DOCTYPE svg PUBLIC "-//W3C//DTD SVG 1.1//EN"
 "http://www.w3.org/Graphics/SVG/1.1/DTD/svg11.dtd">
<!-- Generated by graphviz version 2.43.0 (0)
 -->
<!-- Title: MemberInfo Pages: 1 -->
<svg width="381pt" height="160pt"
 viewBox="0.00 0.00 381.00 160.00" xmlns="http://www.w3.org/2000/svg" xmlns:xlink="http://www.w3.org/1999/xlink">
<g id="graph0" class="graph" transform="scale(1 1) rotate(0) translate(4 156)">
<title>MemberInfo</title>
<!-- Node1 -->
<g id="Node000001" class="node">
<title>Node1</title>
<g id="a_Node000001"><a xlink:title="Data associated with a MemberDef in an inheritance relation.">
<polygon fill="#999999" stroke="#666666" points="171,-19 95,-19 95,0 171,0 171,-19"/>
<text text-anchor="middle" x="133" y="-7" font-family="Helvetica,sans-Serif" font-size="10.00">MemberInfo</text>
</a>
</g>
</g>
<!-- Node2 -->
<g id="Node000002" class="node">
<title>Node2</title>
<g id="a_Node000002"><a xlink:href="../../da/d09/class_member_def.html" target="_top" xlink:title="A model of a class/file/namespace member symbol.">
<polygon fill="white" stroke="#666666" points="74,-96 0,-96 0,-77 74,-77 74,-96"/>
<text text-anchor="middle" x="37" y="-84" font-family="Helvetica,sans-Serif" font-size="10.00">MemberDef</text>
</a>
</g>
</g>
<!-- Node2&#45;&gt;Node1 -->
<g id="edge1_Node000001_Node000002" class="edge">
<title>Node2&#45;&gt;Node1</title>
<g id="a_edge1_Node000001_Node000002"><a xlink:title=" ">
<path fill="none" stroke="#9a32cd" stroke-dasharray="5,2" d="M36.5,-66.64C37.22,-56.7 39.77,-44.95 47,-37 59.19,-23.59 77.99,-16.89 94.91,-13.57"/>
<polygon fill="#9a32cd" stroke="#9a32cd" points="33,-66.73 36.31,-76.8 40,-66.86 33,-66.73"/>
</a>
</g>
<text text-anchor="middle" x="85.5" y="-45.5" font-family="Helvetica,sans-Serif" font-size="10.00" fill="grey"> m_memberDef</text>
</g>
<!-- Node3 -->
<g id="Node000003" class="node">
<title>Node3</title>
<g id="a_Node000003"><a xlink:href="../../d5/dcc/class_definition.html" target="_top" xlink:title="The common base class of all entity definitions found in the sources.">
<polygon fill="white" stroke="#666666" points="111,-152 47,-152 47,-133 111,-133 111,-152"/>
<text text-anchor="middle" x="79" y="-140" font-family="Helvetica,sans-Serif" font-size="10.00">Definition</text>
</a>
</g>
</g>
<!-- Node3&#45;&gt;Node2 -->
<g id="edge2_Node000002_Node000003" class="edge">
<title>Node3&#45;&gt;Node2</title>
<g id="a_edge2_Node000002_Node000003"><a xlink:title=" ">
<path fill="none" stroke="#63b8ff" d="M65.89,-124.64C58.57,-115.24 49.76,-103.9 43.81,-96.25"/>
<polygon fill="#63b8ff" stroke="#63b8ff" points="63.16,-126.84 72.06,-132.58 68.69,-122.54 63.16,-126.84"/>
</a>
</g>
</g>
<!-- Node5 -->
<g id="Node000005" class="node">
<title>Node5</title>
<g id="a_Node000005"><a xlink:href="../../d1/dcf/class_class_def.html" target="_top" xlink:title="A abstract class representing of a compound symbol.">
<polygon fill="white" stroke="#666666" points="156,-96 96,-96 96,-77 156,-77 156,-96"/>
<text text-anchor="middle" x="126" y="-84" font-family="Helvetica,sans-Serif" font-size="10.00">ClassDef</text>
</a>
</g>
</g>
<!-- Node3&#45;&gt;Node5 -->
<g id="edge5_Node000005_Node000003" class="edge">
<title>Node3&#45;&gt;Node5</title>
<g id="a_edge5_Node000005_Node000003"><a xlink:title=" ">
<path fill="none" stroke="#63b8ff" d="M93.42,-124.93C101.66,-115.47 111.65,-103.98 118.38,-96.25"/>
<polygon fill="#63b8ff" stroke="#63b8ff" points="90.69,-122.74 86.76,-132.58 95.97,-127.34 90.69,-122.74"/>
</a>
</g>
</g>
<!-- Node4 -->
<g id="Node000004" class="node">
<title>Node4</title>
<g id="a_Node000004"><a xlink:href="../../d9/d45/class_q_c_string.html" target="_top" xlink:title="This is an alternative implementation of QCString.">
<polygon fill="white" stroke="#666666" points="261.5,-96 202.5,-96 202.5,-77 261.5,-77 261.5,-96"/>
<text text-anchor="middle" x="232" y="-84" font-family="Helvetica,sans-Serif" font-size="10.00">QCString</text>
</a>
</g>
</g>
<!-- Node4&#45;&gt;Node1 -->
<g id="edge3_Node000001_Node000004" class="edge">
<title>Node4&#45;&gt;Node1</title>
<g id="a_edge3_Node000001_Node000004"><a xlink:title=" ">
<path fill="none" stroke="#9a32cd" stroke-dasharray="5,2" d="M227.43,-66.82C224.11,-56.77 218.64,-44.86 210,-37 199.23,-27.2 184.66,-21 171.09,-17.08"/>
<polygon fill="#9a32cd" stroke="#9a32cd" points="224.15,-68.06 230.25,-76.72 230.88,-66.14 224.15,-68.06"/>
</a>
</g>
<text text-anchor="middle" x="298.5" y="-51" font-family="Helvetica,sans-Serif" font-size="10.00" fill="grey"> m_ambiguityResolutionScope</text>
<text text-anchor="middle" x="298.5" y="-40" font-family="Helvetica,sans-Serif" font-size="10.00" fill="grey">m_scopePath</text>
</g>
<!-- Node5&#45;&gt;Node1 -->
<g id="edge4_Node000001_Node000005" class="edge">
<title>Node5&#45;&gt;Node1</title>
<g id="a_edge4_Node000001_Node000005"><a xlink:title=" ">
<path fill="none" stroke="#9a32cd" stroke-dasharray="5,2" d="M127.77,-66.52C129.2,-51.24 131.14,-30.48 132.21,-19"/>
<polygon fill="#9a32cd" stroke="#9a32cd" points="124.25,-66.61 126.8,-76.9 131.22,-67.27 124.25,-66.61"/>
</a>
</g>
<text text-anchor="middle" x="168" y="-45.5" font-family="Helvetica,sans-Serif" font-size="10.00" fill="grey"> m_ambigClass</text>
</g>
</g>
</svg>
