<?xml version="1.0" encoding="UTF-8" standalone="no"?>
<!DOCTYPE svg PUBLIC "-//W3C//DTD SVG 1.1//EN"
 "http://www.w3.org/Graphics/SVG/1.1/DTD/svg11.dtd">
<!-- Generated by graphviz version 2.43.0 (0)
 -->
<!-- Title: NamespaceDef Pages: 1 -->
<svg width="324pt" height="269pt"
 viewBox="0.00 0.00 323.50 269.00" xmlns="http://www.w3.org/2000/svg" xmlns:xlink="http://www.w3.org/1999/xlink">
<g id="graph0" class="graph" transform="scale(1 1) rotate(0) translate(4 265)">
<title>NamespaceDef</title>
<!-- Node1 -->
<g id="Node000001" class="node">
<title>Node1</title>
<g id="a_Node000001"><a xlink:title="An abstract interface of a namespace symbol.">
<polygon fill="#999999" stroke="#666666" points="197.5,-206 105.5,-206 105.5,-187 197.5,-187 197.5,-206"/>
<text text-anchor="middle" x="151.5" y="-194" font-family="Helvetica,sans-Serif" font-size="10.00">NamespaceDef</text>
</a>
</g>
</g>
<!-- Node3 -->
<g id="Node000003" class="node">
<title>Node3</title>
<g id="a_Node000003"><a xlink:href="../../d8/d83/class_definition_alias_mixin.html" target="_top" xlink:title=" ">
<polygon fill="white" stroke="#666666" points="139,-151 24,-151 24,-121 139,-121 139,-151"/>
<text text-anchor="start" x="32" y="-139" font-family="Helvetica,sans-Serif" font-size="10.00">DefinitionAliasMixin</text>
<text text-anchor="middle" x="81.5" y="-128" font-family="Helvetica,sans-Serif" font-size="10.00">&lt; NamespaceDef &gt;</text>
</a>
</g>
</g>
<!-- Node1&#45;&gt;Node3 -->
<g id="edge2_Node000001_Node000003" class="edge">
<title>Node1&#45;&gt;Node3</title>
<g id="a_edge2_Node000001_Node000003"><a xlink:title=" ">
<path fill="none" stroke="#63b8ff" d="M133.23,-180.23C122.46,-171.23 108.92,-159.91 98.39,-151.11"/>
<polygon fill="#63b8ff" stroke="#63b8ff" points="131.25,-183.14 141.17,-186.87 135.74,-177.77 131.25,-183.14"/>
</a>
</g>
</g>
<!-- Node5 -->
<g id="Node000005" class="node">
<title>Node5</title>
<g id="a_Node000005"><a xlink:href="../../dd/dd5/class_namespace_def_mutable.html" target="_top" xlink:title=" ">
<polygon fill="white" stroke="#666666" points="294,-145.5 163,-145.5 163,-126.5 294,-126.5 294,-145.5"/>
<text text-anchor="middle" x="228.5" y="-133.5" font-family="Helvetica,sans-Serif" font-size="10.00">NamespaceDefMutable</text>
</a>
</g>
</g>
<!-- Node1&#45;&gt;Node5 -->
<g id="edge4_Node000001_Node000005" class="edge">
<title>Node1&#45;&gt;Node5</title>
<g id="a_edge4_Node000001_Node000005"><a xlink:title=" ">
<path fill="none" stroke="#63b8ff" d="M171.19,-180.54C185.73,-169.49 205.02,-154.84 217.09,-145.67"/>
<polygon fill="#63b8ff" stroke="#63b8ff" points="168.71,-178.03 162.86,-186.87 172.94,-183.61 168.71,-178.03"/>
</a>
</g>
</g>
<!-- Node2 -->
<g id="Node000002" class="node">
<title>Node2</title>
<g id="a_Node000002"><a xlink:href="../../d5/dcc/class_definition.html" target="_top" xlink:title="The common base class of all entity definitions found in the sources.">
<polygon fill="white" stroke="#666666" points="183.5,-261 119.5,-261 119.5,-242 183.5,-242 183.5,-261"/>
<text text-anchor="middle" x="151.5" y="-249" font-family="Helvetica,sans-Serif" font-size="10.00">Definition</text>
</a>
</g>
</g>
<!-- Node2&#45;&gt;Node1 -->
<g id="edge1_Node000001_Node000002" class="edge">
<title>Node2&#45;&gt;Node1</title>
<g id="a_edge1_Node000001_Node000002"><a xlink:title=" ">
<path fill="none" stroke="#63b8ff" d="M151.5,-231.66C151.5,-222.93 151.5,-212.99 151.5,-206.09"/>
<polygon fill="#63b8ff" stroke="#63b8ff" points="148,-231.75 151.5,-241.75 155,-231.75 148,-231.75"/>
</a>
</g>
</g>
<!-- Node4 -->
<g id="Node000004" class="node">
<title>Node4</title>
<g id="a_Node000004"><a xlink:href="../../d2/d9c/class_namespace_def_alias_impl.html" target="_top" xlink:title=" ">
<polygon fill="white" stroke="#666666" points="137,-79.5 0,-79.5 0,-60.5 137,-60.5 137,-79.5"/>
<text text-anchor="middle" x="68.5" y="-67.5" font-family="Helvetica,sans-Serif" font-size="10.00">NamespaceDefAliasImpl</text>
</a>
</g>
</g>
<!-- Node3&#45;&gt;Node4 -->
<g id="edge3_Node000003_Node000004" class="edge">
<title>Node3&#45;&gt;Node4</title>
<g id="a_edge3_Node000003_Node000004"><a xlink:title=" ">
<path fill="none" stroke="#63b8ff" d="M76.61,-110.94C74.4,-100.06 71.93,-87.86 70.3,-79.84"/>
<polygon fill="#63b8ff" stroke="#63b8ff" points="73.19,-111.69 78.61,-120.8 80.05,-110.3 73.19,-111.69"/>
</a>
</g>
</g>
<!-- Node6 -->
<g id="Node000006" class="node">
<title>Node6</title>
<g id="a_Node000006"><a xlink:href="../../dd/d10/class_definition_mixin.html" target="_top" xlink:title=" ">
<polygon fill="white" stroke="#666666" points="315.5,-85 155.5,-85 155.5,-55 315.5,-55 315.5,-85"/>
<text text-anchor="start" x="163.5" y="-73" font-family="Helvetica,sans-Serif" font-size="10.00">DefinitionMixin&lt; Namespace</text>
<text text-anchor="middle" x="235.5" y="-62" font-family="Helvetica,sans-Serif" font-size="10.00">DefMutable &gt;</text>
</a>
</g>
</g>
<!-- Node5&#45;&gt;Node6 -->
<g id="edge5_Node000005_Node000006" class="edge">
<title>Node5&#45;&gt;Node6</title>
<g id="a_edge5_Node000005_Node000006"><a xlink:title=" ">
<path fill="none" stroke="#63b8ff" d="M230.54,-116.35C231.62,-106.47 232.93,-94.51 233.93,-85.36"/>
<polygon fill="#63b8ff" stroke="#63b8ff" points="227.05,-116.05 229.44,-126.37 234.01,-116.81 227.05,-116.05"/>
</a>
</g>
</g>
<!-- Node7 -->
<g id="Node000007" class="node">
<title>Node7</title>
<g id="a_Node000007"><a xlink:href="../../d5/dfa/class_namespace_def_impl.html" target="_top" xlink:title=" ">
<polygon fill="white" stroke="#666666" points="292,-19 179,-19 179,0 292,0 292,-19"/>
<text text-anchor="middle" x="235.5" y="-7" font-family="Helvetica,sans-Serif" font-size="10.00">NamespaceDefImpl</text>
</a>
</g>
</g>
<!-- Node6&#45;&gt;Node7 -->
<g id="edge6_Node000006_Node000007" class="edge">
<title>Node6&#45;&gt;Node7</title>
<g id="a_edge6_Node000006_Node000007"><a xlink:title=" ">
<path fill="none" stroke="#63b8ff" d="M235.5,-44.75C235.5,-35.72 235.5,-26.03 235.5,-19.27"/>
<polygon fill="#63b8ff" stroke="#63b8ff" points="232,-44.84 235.5,-54.84 239,-44.84 232,-44.84"/>
</a>
</g>
</g>
</g>
</svg>
