<?xml version="1.0" encoding="UTF-8" standalone="no"?>
<!DOCTYPE svg PUBLIC "-//W3C//DTD SVG 1.1//EN"
 "http://www.w3.org/Graphics/SVG/1.1/DTD/svg11.dtd">
<!-- Generated by graphviz version 2.43.0 (0)
 -->
<!-- Title: commentscanYY_state Pages: 1 -->
<svg width="1239pt" height="470pt"
 viewBox="0.00 0.00 1238.50 470.00" xmlns="http://www.w3.org/2000/svg" xmlns:xlink="http://www.w3.org/1999/xlink">
<g id="graph0" class="graph" transform="scale(1 1) rotate(0) translate(4 466)">
<title>commentscanYY_state</title>
<!-- Node1 -->
<g id="Node000001" class="node">
<title>Node1</title>
<g id="a_Node000001"><a xlink:title=" ">
<polygon fill="#999999" stroke="#666666" points="321.5,-19 193.5,-19 193.5,0 321.5,0 321.5,-19"/>
<text text-anchor="middle" x="257.5" y="-7" font-family="Helvetica,sans-Serif" font-size="10.00">commentscanYY_state</text>
</a>
</g>
</g>
<!-- Node2 -->
<g id="Node000002" class="node">
<title>Node2</title>
<g id="a_Node000002"><a xlink:href="../../d5/d79/class_outline_parser_interface.html" target="_top" xlink:title="Abstract interface for outline parsers.">
<polygon fill="white" stroke="#666666" points="125,-85 0,-85 0,-66 125,-66 125,-85"/>
<text text-anchor="middle" x="62.5" y="-73" font-family="Helvetica,sans-Serif" font-size="10.00">OutlineParserInterface</text>
</a>
</g>
</g>
<!-- Node2&#45;&gt;Node1 -->
<g id="edge1_Node000001_Node000002" class="edge">
<title>Node2&#45;&gt;Node1</title>
<g id="a_edge1_Node000001_Node000002"><a xlink:title=" ">
<path fill="none" stroke="#9a32cd" stroke-dasharray="5,2" d="M69.21,-56.14C72.71,-49.08 77.7,-41.61 84.5,-37 101.98,-25.14 151.48,-18.35 193.07,-14.62"/>
<polygon fill="#9a32cd" stroke="#9a32cd" points="65.79,-55.25 65.13,-65.82 72.24,-57.97 65.79,-55.25"/>
</a>
</g>
<text text-anchor="middle" x="112" y="-40" font-family="Helvetica,sans-Serif" font-size="10.00" fill="grey"> langParser</text>
</g>
<!-- Node3 -->
<g id="Node000003" class="node">
<title>Node3</title>
<g id="a_Node000003"><a xlink:href="../../d9/d45/class_q_c_string.html" target="_top" xlink:title="This is an alternative implementation of QCString.">
<polygon fill="white" stroke="#666666" points="768,-462 709,-462 709,-443 768,-443 768,-462"/>
<text text-anchor="middle" x="738.5" y="-450" font-family="Helvetica,sans-Serif" font-size="10.00">QCString</text>
</a>
</g>
</g>
<!-- Node3&#45;&gt;Node1 -->
<g id="edge2_Node000001_Node000003" class="edge">
<title>Node3&#45;&gt;Node1</title>
<g id="a_edge2_Node000001_Node000003"><a xlink:title=" ">
<path fill="none" stroke="#9a32cd" stroke-dasharray="5,2" d="M698.69,-451.67C581.3,-451.25 240.47,-443.02 172.5,-363 97.69,-274.93 129.23,-210.55 171.5,-103 186.34,-65.25 224.64,-33.75 244.75,-19.19"/>
<polygon fill="#9a32cd" stroke="#9a32cd" points="698.69,-455.17 708.7,-451.69 698.7,-448.17 698.69,-455.17"/>
</a>
</g>
<text text-anchor="middle" x="211.5" y="-216" font-family="Helvetica,sans-Serif" font-size="10.00" fill="grey"> anchorTitle</text>
<text text-anchor="middle" x="211.5" y="-205" font-family="Helvetica,sans-Serif" font-size="10.00" fill="grey">blockName</text>
<text text-anchor="middle" x="211.5" y="-194" font-family="Helvetica,sans-Serif" font-size="10.00" fill="grey">copyDocArg</text>
<text text-anchor="middle" x="211.5" y="-183" font-family="Helvetica,sans-Serif" font-size="10.00" fill="grey">currentCmd</text>
<text text-anchor="middle" x="211.5" y="-172" font-family="Helvetica,sans-Serif" font-size="10.00" fill="grey">fileName</text>
<text text-anchor="middle" x="211.5" y="-161" font-family="Helvetica,sans-Serif" font-size="10.00" fill="grey">formulaEnv</text>
<text text-anchor="middle" x="211.5" y="-150" font-family="Helvetica,sans-Serif" font-size="10.00" fill="grey">formulaPostText</text>
<text text-anchor="middle" x="211.5" y="-139" font-family="Helvetica,sans-Serif" font-size="10.00" fill="grey">formulaPreText</text>
<text text-anchor="middle" x="211.5" y="-128" font-family="Helvetica,sans-Serif" font-size="10.00" fill="grey">formulaText</text>
<text text-anchor="middle" x="211.5" y="-117" font-family="Helvetica,sans-Serif" font-size="10.00" fill="grey">functionProto</text>
<text text-anchor="middle" x="211.5" y="-106" font-family="Helvetica,sans-Serif" font-size="10.00" fill="grey">...</text>
</g>
<!-- Node5 -->
<g id="Node000005" class="node">
<title>Node5</title>
<g id="a_Node000005"><a xlink:href="../../d4/dd7/class_entry.html" target="_top" xlink:title="Represents an unstructured piece of information, about an entity found in the sources.">
<polygon fill="white" stroke="#666666" points="595.5,-85 553.5,-85 553.5,-66 595.5,-66 595.5,-85"/>
<text text-anchor="middle" x="574.5" y="-73" font-family="Helvetica,sans-Serif" font-size="10.00">Entry</text>
</a>
</g>
</g>
<!-- Node3&#45;&gt;Node5 -->
<g id="edge6_Node000005_Node000003" class="edge">
<title>Node3&#45;&gt;Node5</title>
<g id="a_edge6_Node000005_Node000003"><a xlink:title=" ">
<path fill="none" stroke="#9a32cd" stroke-dasharray="5,2" d="M698.59,-448.05C647.98,-441.29 562.61,-421.39 523.5,-363 493.57,-318.32 515.49,-295.18 523.5,-242 532.81,-180.16 560.66,-109.55 570.78,-85.25"/>
<polygon fill="#9a32cd" stroke="#9a32cd" points="698.48,-451.56 708.83,-449.3 699.33,-444.62 698.48,-451.56"/>
</a>
</g>
<text text-anchor="middle" x="552.5" y="-355" font-family="Helvetica,sans-Serif" font-size="10.00" fill="grey"> args</text>
<text text-anchor="middle" x="552.5" y="-344" font-family="Helvetica,sans-Serif" font-size="10.00" fill="grey">bitfields</text>
<text text-anchor="middle" x="552.5" y="-333" font-family="Helvetica,sans-Serif" font-size="10.00" fill="grey">brief</text>
<text text-anchor="middle" x="552.5" y="-322" font-family="Helvetica,sans-Serif" font-size="10.00" fill="grey">briefFile</text>
<text text-anchor="middle" x="552.5" y="-311" font-family="Helvetica,sans-Serif" font-size="10.00" fill="grey">doc</text>
<text text-anchor="middle" x="552.5" y="-300" font-family="Helvetica,sans-Serif" font-size="10.00" fill="grey">docFile</text>
<text text-anchor="middle" x="552.5" y="-289" font-family="Helvetica,sans-Serif" font-size="10.00" fill="grey">exception</text>
<text text-anchor="middle" x="552.5" y="-278" font-family="Helvetica,sans-Serif" font-size="10.00" fill="grey">fileName</text>
<text text-anchor="middle" x="552.5" y="-267" font-family="Helvetica,sans-Serif" font-size="10.00" fill="grey">id</text>
<text text-anchor="middle" x="552.5" y="-256" font-family="Helvetica,sans-Serif" font-size="10.00" fill="grey">inbodyDocs</text>
<text text-anchor="middle" x="552.5" y="-245" font-family="Helvetica,sans-Serif" font-size="10.00" fill="grey">...</text>
</g>
<!-- Node6 -->
<g id="Node000006" class="node">
<title>Node6</title>
<g id="a_Node000006"><a xlink:href="../../d3/dc3/struct_tag_info.html" target="_top" xlink:title="This struct is used to capture the tag file information for an Entry.">
<polygon fill="white" stroke="#666666" points="808.5,-312 756.5,-312 756.5,-293 808.5,-293 808.5,-312"/>
<text text-anchor="middle" x="782.5" y="-300" font-family="Helvetica,sans-Serif" font-size="10.00">TagInfo</text>
</a>
</g>
</g>
<!-- Node3&#45;&gt;Node6 -->
<g id="edge8_Node000006_Node000003" class="edge">
<title>Node3&#45;&gt;Node6</title>
<g id="a_edge8_Node000006_Node000003"><a xlink:title=" ">
<path fill="none" stroke="#9a32cd" stroke-dasharray="5,2" d="M736.29,-432.49C735.21,-418.1 734.97,-397.99 739.5,-381 741.47,-373.6 766.36,-330.88 777.35,-312.22"/>
<polygon fill="#9a32cd" stroke="#9a32cd" points="732.83,-433.01 737.26,-442.63 739.79,-432.34 732.83,-433.01"/>
</a>
</g>
<text text-anchor="middle" x="762.5" y="-411.5" font-family="Helvetica,sans-Serif" font-size="10.00" fill="grey"> anchor</text>
<text text-anchor="middle" x="762.5" y="-400.5" font-family="Helvetica,sans-Serif" font-size="10.00" fill="grey">fileName</text>
<text text-anchor="middle" x="762.5" y="-389.5" font-family="Helvetica,sans-Serif" font-size="10.00" fill="grey">tagName</text>
</g>
<!-- Node9 -->
<g id="Node000009" class="node">
<title>Node9</title>
<g id="a_Node000009"><a xlink:href="../../d7/df8/class_argument_list.html" target="_top" xlink:title="This class represents an function or template argument list.">
<polygon fill="white" stroke="#666666" points="908.5,-312 826.5,-312 826.5,-293 908.5,-293 908.5,-312"/>
<text text-anchor="middle" x="867.5" y="-300" font-family="Helvetica,sans-Serif" font-size="10.00">ArgumentList</text>
</a>
</g>
</g>
<!-- Node3&#45;&gt;Node9 -->
<g id="edge12_Node000009_Node000003" class="edge">
<title>Node3&#45;&gt;Node9</title>
<g id="a_edge12_Node000009_Node000003"><a xlink:title=" ">
<path fill="none" stroke="#9a32cd" stroke-dasharray="5,2" d="M768.37,-438.09C774.51,-434.44 780.6,-430.06 785.5,-425 800.85,-409.15 796.66,-399.62 808.5,-381 825.19,-354.74 848.37,-326.19 860.08,-312.21"/>
<polygon fill="#9a32cd" stroke="#9a32cd" points="766.57,-435.09 759.45,-442.93 769.91,-441.24 766.57,-435.09"/>
</a>
</g>
<text text-anchor="middle" x="862.5" y="-400.5" font-family="Helvetica,sans-Serif" font-size="10.00" fill="grey"> m_trailingReturnType</text>
</g>
<!-- Node15 -->
<g id="Node000015" class="node">
<title>Node15</title>
<g id="a_Node000015"><a xlink:href="../../d1/d05/class_doc_group.html" target="_top" xlink:title=" ">
<polygon fill="white" stroke="#666666" points="972,-173 907,-173 907,-154 972,-154 972,-173"/>
<text text-anchor="middle" x="939.5" y="-161" font-family="Helvetica,sans-Serif" font-size="10.00">DocGroup</text>
</a>
</g>
</g>
<!-- Node3&#45;&gt;Node15 -->
<g id="edge20_Node000015_Node000003" class="edge">
<title>Node3&#45;&gt;Node15</title>
<g id="a_edge20_Node000015_Node000003"><a xlink:title=" ">
<path fill="none" stroke="#9a32cd" stroke-dasharray="5,2" d="M778.23,-451.11C824.86,-449.74 898.18,-444.45 916.5,-425 985.61,-351.63 952.15,-209.61 942.05,-173.18"/>
<polygon fill="#9a32cd" stroke="#9a32cd" points="778.05,-447.61 768.14,-451.36 778.23,-454.61 778.05,-447.61"/>
</a>
</g>
<text text-anchor="middle" x="1004" y="-417" font-family="Helvetica,sans-Serif" font-size="10.00" fill="grey"> m_compoundName</text>
<text text-anchor="middle" x="1004" y="-406" font-family="Helvetica,sans-Serif" font-size="10.00" fill="grey">m_memberGroupDocs</text>
<text text-anchor="middle" x="1004" y="-395" font-family="Helvetica,sans-Serif" font-size="10.00" fill="grey">m_memberGroupHeader</text>
<text text-anchor="middle" x="1004" y="-384" font-family="Helvetica,sans-Serif" font-size="10.00" fill="grey">m_memberGroupRelates</text>
</g>
<!-- Node4 -->
<g id="Node000004" class="node">
<title>Node4</title>
<g id="a_Node000004"><a xlink:href="../../d0/d32/class_entry_type.html" target="_top" xlink:title="Wrapper class for the Entry type.">
<polygon fill="white" stroke="#666666" points="346,-312 281,-312 281,-293 346,-293 346,-312"/>
<text text-anchor="middle" x="313.5" y="-300" font-family="Helvetica,sans-Serif" font-size="10.00">EntryType</text>
</a>
</g>
</g>
<!-- Node4&#45;&gt;Node1 -->
<g id="edge3_Node000001_Node000004" class="edge">
<title>Node4&#45;&gt;Node1</title>
<g id="a_edge3_Node000001_Node000004"><a xlink:title=" ">
<path fill="none" stroke="#9a32cd" stroke-dasharray="5,2" d="M301.61,-284.7C291.62,-269.59 277.97,-246.4 271.5,-224 249.35,-147.27 254.53,-48.83 256.76,-19.27"/>
<polygon fill="#9a32cd" stroke="#9a32cd" points="298.73,-286.69 307.26,-292.98 304.51,-282.74 298.73,-286.69"/>
</a>
</g>
<text text-anchor="middle" x="311.5" y="-73" font-family="Helvetica,sans-Serif" font-size="10.00" fill="grey"> currentMakeEntryType</text>
</g>
<!-- Node4&#45;&gt;Node5 -->
<g id="edge5_Node000005_Node000004" class="edge">
<title>Node4&#45;&gt;Node5</title>
<g id="a_edge5_Node000005_Node000004"><a xlink:title=" ">
<path fill="none" stroke="#9a32cd" stroke-dasharray="5,2" d="M315.26,-282.54C319.82,-235.32 332.57,-115.37 345.5,-103 374.93,-74.85 502.28,-74.71 553.27,-75.84"/>
<polygon fill="#9a32cd" stroke="#9a32cd" points="311.76,-282.35 314.3,-292.63 318.73,-283.01 311.76,-282.35"/>
</a>
</g>
<text text-anchor="middle" x="365" y="-161" font-family="Helvetica,sans-Serif" font-size="10.00" fill="grey"> section</text>
</g>
<!-- Node5&#45;&gt;Node1 -->
<g id="edge4_Node000001_Node000005" class="edge">
<title>Node5&#45;&gt;Node1</title>
<g id="a_edge4_Node000001_Node000005"><a xlink:title=" ">
<path fill="none" stroke="#9a32cd" stroke-dasharray="5,2" d="M543.31,-68.2C486.13,-56.66 364.49,-32.1 299.88,-19.06"/>
<polygon fill="#9a32cd" stroke="#9a32cd" points="542.71,-71.65 553.21,-70.2 544.1,-64.79 542.71,-71.65"/>
</a>
</g>
<text text-anchor="middle" x="454.5" y="-40" font-family="Helvetica,sans-Serif" font-size="10.00" fill="grey"> current</text>
</g>
<!-- Node5&#45;&gt;Node5 -->
<g id="edge15_Node000005_Node000005" class="edge">
<title>Node5&#45;&gt;Node5</title>
<g id="a_edge15_Node000005_Node000005"><a xlink:title=" ">
<path fill="none" stroke="#9a32cd" stroke-dasharray="5,2" d="M605.91,-80.91C610.45,-80.04 613.5,-78.24 613.5,-75.5 613.5,-71 605.27,-69.03 595.76,-69.59"/>
<polygon fill="#9a32cd" stroke="#9a32cd" points="605.58,-77.42 595.76,-81.41 605.92,-84.41 605.58,-77.42"/>
</a>
</g>
<text text-anchor="middle" x="638.5" y="-73" font-family="Helvetica,sans-Serif" font-size="10.00" fill="grey"> m_parent</text>
</g>
<!-- Node6&#45;&gt;Node5 -->
<g id="edge7_Node000005_Node000006" class="edge">
<title>Node6&#45;&gt;Node5</title>
<g id="a_edge7_Node000005_Node000006"><a xlink:title=" ">
<path fill="none" stroke="#9a32cd" stroke-dasharray="5,2" d="M777.97,-282.97C774.2,-267.29 768.77,-244.23 764.5,-224 753.19,-170.44 780.79,-141.11 741.5,-103 721.06,-83.17 635.69,-78.18 595.54,-76.92"/>
<polygon fill="#9a32cd" stroke="#9a32cd" points="774.63,-284.03 780.39,-292.92 781.43,-282.38 774.63,-284.03"/>
</a>
</g>
<text text-anchor="middle" x="795" y="-161" font-family="Helvetica,sans-Serif" font-size="10.00" fill="grey"> tagInfoData</text>
</g>
<!-- Node7 -->
<g id="Node000007" class="node">
<title>Node7</title>
<g id="a_Node000007"><a xlink:href="../../d7/dc8/class_type_specifier.html" target="_top" xlink:title="Wrapper class for a number of boolean properties.">
<polygon fill="white" stroke="#666666" points="263,-312 182,-312 182,-293 263,-293 263,-312"/>
<text text-anchor="middle" x="222.5" y="-300" font-family="Helvetica,sans-Serif" font-size="10.00">TypeSpecifier</text>
</a>
</g>
</g>
<!-- Node7&#45;&gt;Node5 -->
<g id="edge9_Node000005_Node000007" class="edge">
<title>Node7&#45;&gt;Node5</title>
<g id="a_edge9_Node000005_Node000007"><a xlink:title=" ">
<path fill="none" stroke="#9a32cd" stroke-dasharray="5,2" d="M226.39,-282.92C236.18,-238.07 263.16,-125.9 292.5,-103 312.95,-87.04 491.26,-79.39 553.32,-77.19"/>
<polygon fill="#9a32cd" stroke="#9a32cd" points="222.95,-282.27 224.28,-292.78 229.8,-283.73 222.95,-282.27"/>
</a>
</g>
<text text-anchor="middle" x="305.5" y="-161" font-family="Helvetica,sans-Serif" font-size="10.00" fill="grey"> spec</text>
</g>
<!-- Node8 -->
<g id="Node000008" class="node">
<title>Node8</title>
<g id="a_Node000008"><a xlink:href="../../d7/d80/class_command_overrides.html" target="_top" xlink:title=" ">
<polygon fill="white" stroke="#666666" points="478.5,-312 364.5,-312 364.5,-293 478.5,-293 478.5,-312"/>
<text text-anchor="middle" x="421.5" y="-300" font-family="Helvetica,sans-Serif" font-size="10.00">CommandOverrides</text>
</a>
</g>
</g>
<!-- Node8&#45;&gt;Node5 -->
<g id="edge10_Node000005_Node000008" class="edge">
<title>Node8&#45;&gt;Node5</title>
<g id="a_edge10_Node000005_Node000008"><a xlink:title=" ">
<path fill="none" stroke="#9a32cd" stroke-dasharray="5,2" d="M413.24,-283.24C397.25,-244.81 367.36,-154.89 411.5,-103 429.47,-81.87 513.4,-77.54 553.31,-76.69"/>
<polygon fill="#9a32cd" stroke="#9a32cd" points="410.12,-284.85 417.31,-292.63 416.55,-282.07 410.12,-284.85"/>
</a>
</g>
<text text-anchor="middle" x="461.5" y="-161" font-family="Helvetica,sans-Serif" font-size="10.00" fill="grey"> commandOverrides</text>
</g>
<!-- Node9&#45;&gt;Node5 -->
<g id="edge11_Node000005_Node000009" class="edge">
<title>Node9&#45;&gt;Node5</title>
<g id="a_edge11_Node000005_Node000009"><a xlink:title=" ">
<path fill="none" stroke="#9a32cd" stroke-dasharray="5,2" d="M861.29,-283.1C856.21,-267.51 849.13,-244.49 844.5,-224 838.5,-197.45 845.23,-121.75 825.5,-103 808.95,-87.26 652.86,-79.58 595.51,-77.27"/>
<polygon fill="#9a32cd" stroke="#9a32cd" points="858.1,-284.61 864.57,-293 864.74,-282.4 858.1,-284.61"/>
</a>
</g>
<text text-anchor="middle" x="871.5" y="-166.5" font-family="Helvetica,sans-Serif" font-size="10.00" fill="grey"> argList</text>
<text text-anchor="middle" x="871.5" y="-155.5" font-family="Helvetica,sans-Serif" font-size="10.00" fill="grey">typeConstr</text>
</g>
<!-- Node10 -->
<g id="Node000010" class="node">
<title>Node10</title>
<g id="a_Node000010"><a xlink:href="../../d3/d30/class_text_stream.html" target="_top" xlink:title="Text streaming class that buffers data.">
<polygon fill="white" stroke="#666666" points="662.5,-312 590.5,-312 590.5,-293 662.5,-293 662.5,-312"/>
<text text-anchor="middle" x="626.5" y="-300" font-family="Helvetica,sans-Serif" font-size="10.00">TextStream</text>
</a>
</g>
</g>
<!-- Node10&#45;&gt;Node5 -->
<g id="edge13_Node000005_Node000010" class="edge">
<title>Node10&#45;&gt;Node5</title>
<g id="a_edge13_Node000005_Node000010"><a xlink:title=" ">
<path fill="none" stroke="#9a32cd" stroke-dasharray="5,2" d="M622.26,-283.14C611.61,-237.09 584.09,-117.99 576.48,-85.05"/>
<polygon fill="#9a32cd" stroke="#9a32cd" points="618.86,-284 624.53,-292.95 625.68,-282.42 618.86,-284"/>
</a>
</g>
<text text-anchor="middle" x="632" y="-166.5" font-family="Helvetica,sans-Serif" font-size="10.00" fill="grey"> initializer</text>
<text text-anchor="middle" x="632" y="-155.5" font-family="Helvetica,sans-Serif" font-size="10.00" fill="grey">program</text>
</g>
<!-- Node11 -->
<g id="Node000011" class="node">
<title>Node11</title>
<g id="a_Node000011"><a xlink:href="../../da/d1d/class_local_toc.html" target="_top" xlink:title=" ">
<polygon fill="white" stroke="#666666" points="738.5,-312 680.5,-312 680.5,-293 738.5,-293 738.5,-312"/>
<text text-anchor="middle" x="709.5" y="-300" font-family="Helvetica,sans-Serif" font-size="10.00">LocalToc</text>
</a>
</g>
</g>
<!-- Node11&#45;&gt;Node5 -->
<g id="edge14_Node000005_Node000011" class="edge">
<title>Node11&#45;&gt;Node5</title>
<g id="a_edge14_Node000005_Node000011"><a xlink:title=" ">
<path fill="none" stroke="#9a32cd" stroke-dasharray="5,2" d="M707.24,-282.78C701.53,-238.52 685.23,-129.17 660.5,-103 643.66,-85.17 615.13,-79.24 595.58,-77.32"/>
<polygon fill="#9a32cd" stroke="#9a32cd" points="703.8,-283.49 708.51,-292.98 710.75,-282.63 703.8,-283.49"/>
</a>
</g>
<text text-anchor="middle" x="719" y="-161" font-family="Helvetica,sans-Serif" font-size="10.00" fill="grey"> localToc</text>
</g>
<!-- Node12 -->
<g id="Node000012" class="node">
<title>Node12</title>
<g id="a_Node000012"><a xlink:href="../../de/db0/class_file_def.html" target="_top" xlink:title="A model of a file symbol.">
<polygon fill="white" stroke="#666666" points="1102,-312 1051,-312 1051,-293 1102,-293 1102,-312"/>
<text text-anchor="middle" x="1076.5" y="-300" font-family="Helvetica,sans-Serif" font-size="10.00">FileDef</text>
</a>
</g>
</g>
<!-- Node12&#45;&gt;Node5 -->
<g id="edge16_Node000005_Node000012" class="edge">
<title>Node12&#45;&gt;Node5</title>
<g id="a_edge16_Node000005_Node000012"><a xlink:title=" ">
<path fill="none" stroke="#9a32cd" stroke-dasharray="5,2" d="M1073.86,-282.86C1067.01,-242.17 1044.56,-145.65 981.5,-103 965.39,-92.1 677.04,-80.39 595.7,-77.29"/>
<polygon fill="#9a32cd" stroke="#9a32cd" points="1070.41,-283.42 1075.4,-292.76 1077.32,-282.34 1070.41,-283.42"/>
</a>
</g>
<text text-anchor="middle" x="1084" y="-161" font-family="Helvetica,sans-Serif" font-size="10.00" fill="grey"> m_fileDef</text>
</g>
<!-- Node13 -->
<g id="Node000013" class="node">
<title>Node13</title>
<g id="a_Node000013"><a xlink:href="../../d0/d46/class_definition_mutable.html" target="_top" xlink:title=" ">
<polygon fill="white" stroke="#666666" points="1230.5,-462 1126.5,-462 1126.5,-443 1230.5,-443 1230.5,-462"/>
<text text-anchor="middle" x="1178.5" y="-450" font-family="Helvetica,sans-Serif" font-size="10.00">DefinitionMutable</text>
</a>
</g>
</g>
<!-- Node13&#45;&gt;Node12 -->
<g id="edge17_Node000012_Node000013" class="edge">
<title>Node13&#45;&gt;Node12</title>
<g id="a_edge17_Node000012_Node000013"><a xlink:title=" ">
<path fill="none" stroke="#63b8ff" d="M1166.71,-434.4C1144.85,-402.68 1098.77,-335.82 1082.42,-312.08"/>
<polygon fill="#63b8ff" stroke="#63b8ff" points="1163.87,-436.44 1172.42,-442.69 1169.63,-432.47 1163.87,-436.44"/>
</a>
</g>
</g>
<!-- Node14 -->
<g id="Node000014" class="node">
<title>Node14</title>
<g id="a_Node000014"><a xlink:href="../../d5/dcc/class_definition.html" target="_top" xlink:title="The common base class of all entity definitions found in the sources.">
<polygon fill="white" stroke="#666666" points="1108.5,-462 1044.5,-462 1044.5,-443 1108.5,-443 1108.5,-462"/>
<text text-anchor="middle" x="1076.5" y="-450" font-family="Helvetica,sans-Serif" font-size="10.00">Definition</text>
</a>
</g>
</g>
<!-- Node14&#45;&gt;Node12 -->
<g id="edge18_Node000012_Node000014" class="edge">
<title>Node14&#45;&gt;Node12</title>
<g id="a_edge18_Node000012_Node000014"><a xlink:title=" ">
<path fill="none" stroke="#63b8ff" d="M1076.5,-432.31C1076.5,-399.83 1076.5,-335.31 1076.5,-312.08"/>
<polygon fill="#63b8ff" stroke="#63b8ff" points="1073,-432.69 1076.5,-442.69 1080,-432.69 1073,-432.69"/>
</a>
</g>
</g>
<!-- Node15&#45;&gt;Node1 -->
<g id="edge19_Node000001_Node000015" class="edge">
<title>Node15&#45;&gt;Node1</title>
<g id="a_edge19_Node000001_Node000015"><a xlink:title=" ">
<path fill="none" stroke="#9a32cd" stroke-dasharray="5,2" d="M933.14,-144.61C927.33,-130.96 917.35,-112.88 902.5,-103 743.34,2.87 666.95,-62.49 477.5,-37 425.08,-29.95 365.5,-22.82 321.58,-17.74"/>
<polygon fill="#9a32cd" stroke="#9a32cd" points="929.9,-145.92 936.79,-153.97 936.42,-143.38 929.9,-145.92"/>
</a>
</g>
<text text-anchor="middle" x="894.5" y="-73" font-family="Helvetica,sans-Serif" font-size="10.00" fill="grey"> docGroup</text>
</g>
</g>
</svg>
