<?xml version="1.0" encoding="UTF-8" standalone="no"?>
<!DOCTYPE svg PUBLIC "-//W3C//DTD SVG 1.1//EN"
 "http://www.w3.org/Graphics/SVG/1.1/DTD/svg11.dtd">
<!-- Generated by graphviz version 2.43.0 (0)
 -->
<!-- Title: commentscanYY_state Pages: 1 -->
<!--zoomable 470 -->

<svg id="main" version="1.1" xmlns="http://www.w3.org/2000/svg" xmlns:xlink="http://www.w3.org/1999/xlink" xml:space="preserve" onload="init(evt)">
<style type="text/css"><![CDATA[
.node, .edge {opacity: 0.7;}
.node.selected, .edge.selected {opacity: 1;}
.edge:hover path { stroke: red; }
.edge:hover polygon { stroke: red; fill: red; }
]]></style>

<defs>
  <circle id="rim" cx="0" cy="0" r="7"/>
  <circle id="rim2" cx="0" cy="0" r="3.5"/>
  <g id="zoomPlus">
    <use xlink:href="#rim" fill="#404040"><set attributeName="fill" to="#808080" begin="zoomplus.mouseover" end="zoomplus.mouseout"/></use>
    <path d="M-4,0h8M0,-4v8" fill="none" stroke="white" stroke-width="1.5" pointer-events="none"/>
  </g>
  <g id="zoomMin">
    <use xlink:href="#rim" fill="#404040"><set attributeName="fill" to="#808080" begin="zoomminus.mouseover" end="zoomminus.mouseout"/></use>
    <path d="M-4,0h8" fill="none" stroke="white" stroke-width="1.5" pointer-events="none"/>
  </g>
  <g id="arrowUp" transform="translate(30 24)">
    <use xlink:href="#rim"/>
    <path pointer-events="none" fill="none" stroke="white" stroke-width="1.5" d="M0,-3.0v7 M-2.5,-0.5L0,-3.0L2.5,-0.5"/>
  </g>
  <g id="arrowRight" transform="rotate(90) translate(36 -43)">
    <use xlink:href="#rim"/>
    <path pointer-events="none" fill="none" stroke="white" stroke-width="1.5" d="M0,-3.0v7 M-2.5,-0.5L0,-3.0L2.5,-0.5"/>
  </g>
  <g id="arrowDown" transform="rotate(180) translate(-30 -48)">
    <use xlink:href="#rim"/>
    <path pointer-events="none" fill="none" stroke="white" stroke-width="1.5" d="M0,-3.0v7 M-2.5,-0.5L0,-3.0L2.5,-0.5"/>
  </g>
  <g id="arrowLeft" transform="rotate(270) translate(-36 17)">
    <use xlink:href="#rim"/>
    <path pointer-events="none" fill="none" stroke="white" stroke-width="1.5" d="M0,-3.0v7 M-2.5,-0.5L0,-3.0L2.5,-0.5"/>
  </g>
  <g id="resetDef">
    <use xlink:href="#rim2" fill="#404040"><set attributeName="fill" to="#808080" begin="reset.mouseover" end="reset.mouseout"/></use>
  </g>
</defs>
<script type="application/ecmascript">
var viewWidth = 854;
var viewHeight = 470;
var sectionId = 'dynsection-0';
</script>
<script type="application/ecmascript" xlink:href="../../svg.min.js"/>
<svg id="graph" class="graph">
<g id="viewport">
<title>commentscanYY_state</title>
<!-- Node1 -->
<g id="Node000001" class="node">
<title>Node1</title>
<g id="a_Node000001"><a xlink:title=" ">
<polygon fill="#999999" stroke="#666666" points="264.5,-19 136.5,-19 136.5,0 264.5,0 264.5,-19"/>
<text text-anchor="middle" x="200.5" y="-7" font-family="Helvetica,sans-Serif" font-size="10.00">commentscanYY_state</text>
</a>
</g>
</g>
<!-- Node2 -->
<g id="Node000002" class="node">
<title>Node2</title>
<g id="a_Node000002"><a xlink:href="../../d5/d79/class_outline_parser_interface.html" target="_top" xlink:title="Abstract interface for outline parsers.">
<polygon fill="white" stroke="#666666" points="125,-85 0,-85 0,-66 125,-66 125,-85"/>
<text text-anchor="middle" x="62.5" y="-73" font-family="Helvetica,sans-Serif" font-size="10.00">OutlineParserInterface</text>
</a>
</g>
</g>
<!-- Node2&#45;&gt;Node1 -->
<g id="edge1_Node000001_Node000002" class="edge">
<title>Node2&#45;&gt;Node1</title>
<g id="a_edge1_Node000001_Node000002"><a xlink:title=" ">
<path fill="none" stroke="#9a32cd" stroke-dasharray="5,2" d="M72.57,-57.39C77.68,-50.1 84.5,-42.11 92.5,-37 105.6,-28.64 121.14,-22.91 136.29,-18.99"/>
<polygon fill="#9a32cd" stroke="#9a32cd" points="69.51,-55.68 67.06,-65.99 75.4,-59.46 69.51,-55.68"/>
</a>
</g>
<text text-anchor="middle" x="120" y="-40" font-family="Helvetica,sans-Serif" font-size="10.00" fill="grey"> langParser</text>
</g>
<!-- Node3 -->
<g id="Node000003" class="node">
<title>Node3</title>
<g id="a_Node000003"><a xlink:href="../../d9/d45/class_q_c_string.html" target="_top" xlink:title="This is an alternative implementation of QCString.">
<polygon fill="white" stroke="#666666" points="334,-462 275,-462 275,-443 334,-443 334,-462"/>
<text text-anchor="middle" x="304.5" y="-450" font-family="Helvetica,sans-Serif" font-size="10.00">QCString</text>
</a>
</g>
</g>
<!-- Node3&#45;&gt;Node1 -->
<g id="edge2_Node000001_Node000003" class="edge">
<title>Node3&#45;&gt;Node1</title>
<g id="a_edge2_Node000001_Node000003"><a xlink:title=" ">
<path fill="none" stroke="#9a32cd" stroke-dasharray="5,2" d="M296.54,-433.4C295.44,-430.61 294.39,-427.75 293.5,-425 265.14,-337.64 261.96,-314.36 245.5,-224 232.82,-154.36 244.69,-134.13 225.5,-66 220.63,-48.71 211.2,-29.91 205.42,-19.23"/>
<polygon fill="#9a32cd" stroke="#9a32cd" points="293.39,-434.93 300.48,-442.8 299.84,-432.22 293.39,-434.93"/>
</a>
</g>
<text text-anchor="middle" x="280.5" y="-216" font-family="Helvetica,sans-Serif" font-size="10.00" fill="grey"> anchorTitle</text>
<text text-anchor="middle" x="280.5" y="-205" font-family="Helvetica,sans-Serif" font-size="10.00" fill="grey">blockName</text>
<text text-anchor="middle" x="280.5" y="-194" font-family="Helvetica,sans-Serif" font-size="10.00" fill="grey">copyDocArg</text>
<text text-anchor="middle" x="280.5" y="-183" font-family="Helvetica,sans-Serif" font-size="10.00" fill="grey">currentCmd</text>
<text text-anchor="middle" x="280.5" y="-172" font-family="Helvetica,sans-Serif" font-size="10.00" fill="grey">fileName</text>
<text text-anchor="middle" x="280.5" y="-161" font-family="Helvetica,sans-Serif" font-size="10.00" fill="grey">formulaEnv</text>
<text text-anchor="middle" x="280.5" y="-150" font-family="Helvetica,sans-Serif" font-size="10.00" fill="grey">formulaText</text>
<text text-anchor="middle" x="280.5" y="-139" font-family="Helvetica,sans-Serif" font-size="10.00" fill="grey">functionProto</text>
<text text-anchor="middle" x="280.5" y="-128" font-family="Helvetica,sans-Serif" font-size="10.00" fill="grey">guardExpr</text>
<text text-anchor="middle" x="280.5" y="-117" font-family="Helvetica,sans-Serif" font-size="10.00" fill="grey">htmlAnchorStr</text>
<text text-anchor="middle" x="280.5" y="-106" font-family="Helvetica,sans-Serif" font-size="10.00" fill="grey">...</text>
</g>
<!-- Node4 -->
<g id="Node000004" class="node">
<title>Node4</title>
<g id="a_Node000004"><a xlink:href="../../d4/dd7/class_entry.html" target="_top" xlink:title="Represents an unstructured piece of information, about an entity found in the sources.">
<polygon fill="white" stroke="#666666" points="520.5,-85 478.5,-85 478.5,-66 520.5,-66 520.5,-85"/>
<text text-anchor="middle" x="499.5" y="-73" font-family="Helvetica,sans-Serif" font-size="10.00">Entry</text>
</a>
</g>
</g>
<!-- Node3&#45;&gt;Node4 -->
<g id="edge4_Node000004_Node000003" class="edge">
<title>Node3&#45;&gt;Node4</title>
<g id="a_edge4_Node000004_Node000003"><a xlink:title=" ">
<path fill="none" stroke="#9a32cd" stroke-dasharray="5,2" d="M301.99,-432.88C297.67,-395.54 291.27,-309.36 313.5,-242 336.87,-171.18 347.17,-146.84 407.5,-103 428.61,-87.66 458.43,-81.17 478.34,-78.44"/>
<polygon fill="#9a32cd" stroke="#9a32cd" points="298.52,-433.33 303.23,-442.82 305.46,-432.46 298.52,-433.33"/>
</a>
</g>
<text text-anchor="middle" x="342.5" y="-355" font-family="Helvetica,sans-Serif" font-size="10.00" fill="grey"> args</text>
<text text-anchor="middle" x="342.5" y="-344" font-family="Helvetica,sans-Serif" font-size="10.00" fill="grey">bitfields</text>
<text text-anchor="middle" x="342.5" y="-333" font-family="Helvetica,sans-Serif" font-size="10.00" fill="grey">brief</text>
<text text-anchor="middle" x="342.5" y="-322" font-family="Helvetica,sans-Serif" font-size="10.00" fill="grey">briefFile</text>
<text text-anchor="middle" x="342.5" y="-311" font-family="Helvetica,sans-Serif" font-size="10.00" fill="grey">doc</text>
<text text-anchor="middle" x="342.5" y="-300" font-family="Helvetica,sans-Serif" font-size="10.00" fill="grey">docFile</text>
<text text-anchor="middle" x="342.5" y="-289" font-family="Helvetica,sans-Serif" font-size="10.00" fill="grey">exception</text>
<text text-anchor="middle" x="342.5" y="-278" font-family="Helvetica,sans-Serif" font-size="10.00" fill="grey">fileName</text>
<text text-anchor="middle" x="342.5" y="-267" font-family="Helvetica,sans-Serif" font-size="10.00" fill="grey">id</text>
<text text-anchor="middle" x="342.5" y="-256" font-family="Helvetica,sans-Serif" font-size="10.00" fill="grey">inbodyDocs</text>
<text text-anchor="middle" x="342.5" y="-245" font-family="Helvetica,sans-Serif" font-size="10.00" fill="grey">...</text>
</g>
<!-- Node5 -->
<g id="Node000005" class="node">
<title>Node5</title>
<g id="a_Node000005"><a xlink:href="../../d3/dc3/struct_tag_info.html" target="_top" xlink:title="This struct is used to capture the tag file information for an Entry.">
<polygon fill="white" stroke="#666666" points="598.5,-312 546.5,-312 546.5,-293 598.5,-293 598.5,-312"/>
<text text-anchor="middle" x="572.5" y="-300" font-family="Helvetica,sans-Serif" font-size="10.00">TagInfo</text>
</a>
</g>
</g>
<!-- Node3&#45;&gt;Node5 -->
<g id="edge6_Node000005_Node000003" class="edge">
<title>Node3&#45;&gt;Node5</title>
<g id="a_edge6_Node000005_Node000003"><a xlink:title=" ">
<path fill="none" stroke="#9a32cd" stroke-dasharray="5,2" d="M332.28,-438.56C365.25,-423.5 422.12,-398.47 472.5,-381 500.82,-371.18 513.72,-381.25 537.5,-363 554.8,-349.72 565.19,-325.25 569.75,-312.21"/>
<polygon fill="#9a32cd" stroke="#9a32cd" points="330.47,-435.54 322.85,-442.89 333.39,-441.9 330.47,-435.54"/>
</a>
</g>
<text text-anchor="middle" x="495.5" y="-411.5" font-family="Helvetica,sans-Serif" font-size="10.00" fill="grey"> anchor</text>
<text text-anchor="middle" x="495.5" y="-400.5" font-family="Helvetica,sans-Serif" font-size="10.00" fill="grey">fileName</text>
<text text-anchor="middle" x="495.5" y="-389.5" font-family="Helvetica,sans-Serif" font-size="10.00" fill="grey">tagName</text>
</g>
<!-- Node6 -->
<g id="Node000006" class="node">
<title>Node6</title>
<g id="a_Node000006"><a xlink:href="../../d7/df8/class_argument_list.html" target="_top" xlink:title="This class represents an function or template argument list.">
<polygon fill="white" stroke="#666666" points="698.5,-312 616.5,-312 616.5,-293 698.5,-293 698.5,-312"/>
<text text-anchor="middle" x="657.5" y="-300" font-family="Helvetica,sans-Serif" font-size="10.00">ArgumentList</text>
</a>
</g>
</g>
<!-- Node3&#45;&gt;Node6 -->
<g id="edge8_Node000006_Node000003" class="edge">
<title>Node3&#45;&gt;Node6</title>
<g id="a_edge8_Node000006_Node000003"><a xlink:title=" ">
<path fill="none" stroke="#9a32cd" stroke-dasharray="5,2" d="M344.33,-452.21C388.37,-451.73 460.73,-447.13 518.5,-425 563.52,-407.75 571.91,-395.51 607.5,-363 625.23,-346.8 642.48,-324.36 651.34,-312.19"/>
<polygon fill="#9a32cd" stroke="#9a32cd" points="344.29,-448.71 334.31,-452.26 344.32,-455.71 344.29,-448.71"/>
</a>
</g>
<text text-anchor="middle" x="640.5" y="-400.5" font-family="Helvetica,sans-Serif" font-size="10.00" fill="grey"> m_trailingReturnType</text>
</g>
<!-- Node12 -->
<g id="Node000012" class="node">
<title>Node12</title>
<g id="a_Node000012"><a xlink:href="../../d1/d05/class_doc_group.html" target="_top" xlink:title=" ">
<polygon fill="white" stroke="#666666" points="164,-173 99,-173 99,-154 164,-154 164,-173"/>
<text text-anchor="middle" x="131.5" y="-161" font-family="Helvetica,sans-Serif" font-size="10.00">DocGroup</text>
</a>
</g>
</g>
<!-- Node3&#45;&gt;Node12 -->
<g id="edge16_Node000012_Node000003" class="edge">
<title>Node3&#45;&gt;Node12</title>
<g id="a_edge16_Node000012_Node000003"><a xlink:title=" ">
<path fill="none" stroke="#9a32cd" stroke-dasharray="5,2" d="M264.73,-452.21C211.99,-452.2 123.17,-448.55 102.5,-425 35.87,-349.06 106.61,-208.93 126.58,-173.05"/>
<polygon fill="#9a32cd" stroke="#9a32cd" points="264.78,-455.71 274.76,-452.17 264.75,-448.71 264.78,-455.71"/>
</a>
</g>
<text text-anchor="middle" x="164" y="-417" font-family="Helvetica,sans-Serif" font-size="10.00" fill="grey"> m_compoundName</text>
<text text-anchor="middle" x="164" y="-406" font-family="Helvetica,sans-Serif" font-size="10.00" fill="grey">m_memberGroupDocs</text>
<text text-anchor="middle" x="164" y="-395" font-family="Helvetica,sans-Serif" font-size="10.00" fill="grey">m_memberGroupHeader</text>
<text text-anchor="middle" x="164" y="-384" font-family="Helvetica,sans-Serif" font-size="10.00" fill="grey">m_memberGroupRelates</text>
</g>
<!-- Node4&#45;&gt;Node1 -->
<g id="edge3_Node000001_Node000004" class="edge">
<title>Node4&#45;&gt;Node1</title>
<g id="a_edge3_Node000001_Node000004"><a xlink:title=" ">
<path fill="none" stroke="#9a32cd" stroke-dasharray="5,2" d="M468.36,-67.83C413.72,-56.14 300.67,-31.94 240.39,-19.04"/>
<polygon fill="#9a32cd" stroke="#9a32cd" points="467.96,-71.33 478.47,-70 469.43,-64.48 467.96,-71.33"/>
</a>
</g>
<text text-anchor="middle" x="386.5" y="-40" font-family="Helvetica,sans-Serif" font-size="10.00" fill="grey"> current</text>
</g>
<!-- Node4&#45;&gt;Node4 -->
<g id="edge11_Node000004_Node000004" class="edge">
<title>Node4&#45;&gt;Node4</title>
<g id="a_edge11_Node000004_Node000004"><a xlink:title=" ">
<path fill="none" stroke="#9a32cd" stroke-dasharray="5,2" d="M530.91,-80.91C535.45,-80.04 538.5,-78.24 538.5,-75.5 538.5,-71 530.27,-69.03 520.76,-69.59"/>
<polygon fill="#9a32cd" stroke="#9a32cd" points="530.58,-77.42 520.76,-81.41 530.92,-84.41 530.58,-77.42"/>
</a>
</g>
<text text-anchor="middle" x="563.5" y="-73" font-family="Helvetica,sans-Serif" font-size="10.00" fill="grey"> m_parent</text>
</g>
<!-- Node5&#45;&gt;Node4 -->
<g id="edge5_Node000004_Node000005" class="edge">
<title>Node5&#45;&gt;Node4</title>
<g id="a_edge5_Node000004_Node000005"><a xlink:title=" ">
<path fill="none" stroke="#9a32cd" stroke-dasharray="5,2" d="M572.14,-282.58C570.97,-238.81 566.14,-132.09 546.5,-103 540.42,-93.99 530.2,-87.71 520.84,-83.53"/>
<polygon fill="#9a32cd" stroke="#9a32cd" points="568.64,-282.79 572.37,-292.71 575.64,-282.63 568.64,-282.79"/>
</a>
</g>
<text text-anchor="middle" x="599" y="-161" font-family="Helvetica,sans-Serif" font-size="10.00" fill="grey"> tagInfoData</text>
</g>
<!-- Node6&#45;&gt;Node4 -->
<g id="edge7_Node000004_Node000006" class="edge">
<title>Node6&#45;&gt;Node4</title>
<g id="a_edge7_Node000004_Node000006"><a xlink:title=" ">
<path fill="none" stroke="#9a32cd" stroke-dasharray="5,2" d="M657.82,-282.73C658.17,-238.36 656.51,-128.79 632.5,-103 617.58,-86.97 554.13,-80.25 520.55,-77.77"/>
<polygon fill="#9a32cd" stroke="#9a32cd" points="654.32,-282.92 657.69,-292.96 661.32,-283 654.32,-282.92"/>
</a>
</g>
<text text-anchor="middle" x="683.5" y="-166.5" font-family="Helvetica,sans-Serif" font-size="10.00" fill="grey"> argList</text>
<text text-anchor="middle" x="683.5" y="-155.5" font-family="Helvetica,sans-Serif" font-size="10.00" fill="grey">typeConstr</text>
</g>
<!-- Node7 -->
<g id="Node000007" class="node">
<title>Node7</title>
<g id="a_Node000007"><a xlink:href="../../d3/d30/class_text_stream.html" target="_top" xlink:title="Text streaming class that buffers data.">
<polygon fill="white" stroke="#666666" points="452.5,-312 380.5,-312 380.5,-293 452.5,-293 452.5,-312"/>
<text text-anchor="middle" x="416.5" y="-300" font-family="Helvetica,sans-Serif" font-size="10.00">TextStream</text>
</a>
</g>
</g>
<!-- Node7&#45;&gt;Node4 -->
<g id="edge9_Node000004_Node000007" class="edge">
<title>Node7&#45;&gt;Node4</title>
<g id="a_edge9_Node000004_Node000007"><a xlink:title=" ">
<path fill="none" stroke="#9a32cd" stroke-dasharray="5,2" d="M414.04,-282.86C410.08,-245.04 406.38,-158.19 446.5,-103 454.12,-92.52 467.08,-85.93 478.28,-81.95"/>
<polygon fill="#9a32cd" stroke="#9a32cd" points="410.58,-283.42 415.23,-292.94 417.53,-282.59 410.58,-283.42"/>
</a>
</g>
<text text-anchor="middle" x="471" y="-166.5" font-family="Helvetica,sans-Serif" font-size="10.00" fill="grey"> initializer</text>
<text text-anchor="middle" x="471" y="-155.5" font-family="Helvetica,sans-Serif" font-size="10.00" fill="grey">program</text>
</g>
<!-- Node8 -->
<g id="Node000008" class="node">
<title>Node8</title>
<g id="a_Node000008"><a xlink:href="../../da/d1d/class_local_toc.html" target="_top" xlink:title=" ">
<polygon fill="white" stroke="#666666" points="528.5,-312 470.5,-312 470.5,-293 528.5,-293 528.5,-312"/>
<text text-anchor="middle" x="499.5" y="-300" font-family="Helvetica,sans-Serif" font-size="10.00">LocalToc</text>
</a>
</g>
</g>
<!-- Node8&#45;&gt;Node4 -->
<g id="edge10_Node000004_Node000008" class="edge">
<title>Node8&#45;&gt;Node4</title>
<g id="a_edge10_Node000004_Node000008"><a xlink:title=" ">
<path fill="none" stroke="#9a32cd" stroke-dasharray="5,2" d="M499.5,-282.85C499.5,-236.59 499.5,-117.92 499.5,-85.05"/>
<polygon fill="#9a32cd" stroke="#9a32cd" points="496,-282.95 499.5,-292.95 503,-282.95 496,-282.95"/>
</a>
</g>
<text text-anchor="middle" x="521" y="-161" font-family="Helvetica,sans-Serif" font-size="10.00" fill="grey"> localToc</text>
</g>
<!-- Node9 -->
<g id="Node000009" class="node">
<title>Node9</title>
<g id="a_Node000009"><a xlink:href="../../de/db0/class_file_def.html" target="_top" xlink:title="A model of a file symbol.">
<polygon fill="white" stroke="#666666" points="768,-312 717,-312 717,-293 768,-293 768,-312"/>
<text text-anchor="middle" x="742.5" y="-300" font-family="Helvetica,sans-Serif" font-size="10.00">FileDef</text>
</a>
</g>
</g>
<!-- Node9&#45;&gt;Node4 -->
<g id="edge12_Node000004_Node000009" class="edge">
<title>Node9&#45;&gt;Node4</title>
<g id="a_edge12_Node000004_Node000009"><a xlink:title=" ">
<path fill="none" stroke="#9a32cd" stroke-dasharray="5,2" d="M746.42,-282.94C753.53,-243.56 763.63,-151.28 714.5,-103 687.41,-76.38 569.21,-75.27 520.55,-75.99"/>
<polygon fill="#9a32cd" stroke="#9a32cd" points="742.98,-282.28 744.5,-292.77 749.85,-283.62 742.98,-282.28"/>
</a>
</g>
<text text-anchor="middle" x="777" y="-161" font-family="Helvetica,sans-Serif" font-size="10.00" fill="grey"> m_fileDef</text>
</g>
<!-- Node10 -->
<g id="Node000010" class="node">
<title>Node10</title>
<g id="a_Node000010"><a xlink:href="../../d0/d46/class_definition_mutable.html" target="_top" xlink:title=" ">
<polygon fill="white" stroke="#666666" points="845.5,-462 741.5,-462 741.5,-443 845.5,-443 845.5,-462"/>
<text text-anchor="middle" x="793.5" y="-450" font-family="Helvetica,sans-Serif" font-size="10.00">DefinitionMutable</text>
</a>
</g>
</g>
<!-- Node10&#45;&gt;Node9 -->
<g id="edge13_Node000009_Node000010" class="edge">
<title>Node10&#45;&gt;Node9</title>
<g id="a_edge13_Node000009_Node000010"><a xlink:title=" ">
<path fill="none" stroke="#63b8ff" d="M787.18,-433.15C776.09,-400.97 753.53,-335.51 745.46,-312.08"/>
<polygon fill="#63b8ff" stroke="#63b8ff" points="783.9,-434.37 790.46,-442.69 790.51,-432.09 783.9,-434.37"/>
</a>
</g>
</g>
<!-- Node11 -->
<g id="Node000011" class="node">
<title>Node11</title>
<g id="a_Node000011"><a xlink:href="../../d5/dcc/class_definition.html" target="_top" xlink:title="The common base class of all entity definitions found in the sources.">
<polygon fill="white" stroke="#666666" points="723.5,-462 659.5,-462 659.5,-443 723.5,-443 723.5,-462"/>
<text text-anchor="middle" x="691.5" y="-450" font-family="Helvetica,sans-Serif" font-size="10.00">Definition</text>
</a>
</g>
</g>
<!-- Node11&#45;&gt;Node9 -->
<g id="edge14_Node000009_Node000011" class="edge">
<title>Node11&#45;&gt;Node9</title>
<g id="a_edge14_Node000009_Node000011"><a xlink:title=" ">
<path fill="none" stroke="#63b8ff" d="M697.82,-433.15C708.91,-400.97 731.47,-335.51 739.54,-312.08"/>
<polygon fill="#63b8ff" stroke="#63b8ff" points="694.49,-432.09 694.54,-442.69 701.1,-434.37 694.49,-432.09"/>
</a>
</g>
</g>
<!-- Node12&#45;&gt;Node1 -->
<g id="edge15_Node000001_Node000012" class="edge">
<title>Node12&#45;&gt;Node1</title>
<g id="a_edge15_Node000001_Node000012"><a xlink:title=" ">
<path fill="none" stroke="#9a32cd" stroke-dasharray="5,2" d="M139.63,-144.59C154.54,-111.74 185.73,-43.04 196.64,-19.01"/>
<polygon fill="#9a32cd" stroke="#9a32cd" points="136.35,-143.34 135.41,-153.89 142.73,-146.23 136.35,-143.34"/>
</a>
</g>
<text text-anchor="middle" x="200.5" y="-73" font-family="Helvetica,sans-Serif" font-size="10.00" fill="grey"> docGroup</text>
</g>
</g>
</svg>

<g id="navigator" transform="translate(0 0)" fill="#404254">
  <rect fill="#f2f5e9" fill-opacity="0.5" stroke="#606060" stroke-width=".5" x="0" y="0" width="60" height="60"/>
  <use id="zoomplus" xlink:href="#zoomPlus" x="17" y="9" onmousedown="handleZoom(evt,'in')"/>
  <use id="zoomminus" xlink:href="#zoomMin" x="42" y="9" onmousedown="handleZoom(evt,'out')"/>
  <use id="reset" xlink:href="#resetDef" x="30" y="36" onmousedown="handleReset()"/>
   <use id="arrowup" xlink:href="#arrowUp" x="0" y="0" onmousedown="handlePan(0,-1)"/>
  <use id="arrowright" xlink:href="#arrowRight" x="0" y="0" onmousedown="handlePan(1,0)"/>
  <use id="arrowdown" xlink:href="#arrowDown" x="0" y="0" onmousedown="handlePan(0,1)"/>
  <use id="arrowleft" xlink:href="#arrowLeft" x="0" y="0" onmousedown="handlePan(-1,0)"/>
</g>
<svg viewBox="0 0 15 15" width="100%" height="30px" preserveAspectRatio="xMaxYMin meet">
 <g id="arrow_out" transform="scale(0.3 0.3)">
  <a xlink:href="structcommentscan_y_y__state__coll__graph_org.svg" target="_base">
   <rect id="button" ry="5" rx="5" y="6" x="6" height="38" width="38"
        fill="#f2f5e9" fill-opacity="0.5" stroke="#606060" stroke-width="1.0"/>
   <path id="arrow"
     d="M 11.500037,31.436501 C 11.940474,20.09759 22.043105,11.32322 32.158766,21.979434 L 37.068811,17.246167 C 37.068811,17.246167 37.088388,32 37.088388,32 L 22.160133,31.978069 C 22.160133,31.978069 26.997745,27.140456 26.997745,27.140456 C 18.528582,18.264221 13.291696,25.230495 11.500037,31.436501 z"
     style="fill:#404040;"/>
  </a>
 </g>
</svg>

<style type='text/css'>
<![CDATA[
[data-mouse-over-selected='false'] { opacity: 0.7; }
[data-mouse-over-selected='true']  { opacity: 1.0; }
]]>
</style>
<script type="application/ecmascript"><![CDATA[
document.addEventListener('DOMContentLoaded', (event) => {
  highlightEdges();
  highlightAdjacentNodes();
});
]]></script>
</svg>
