<?xml version="1.0" encoding="UTF-8" standalone="no"?>
<!DOCTYPE svg PUBLIC "-//W3C//DTD SVG 1.1//EN"
 "http://www.w3.org/Graphics/SVG/1.1/DTD/svg11.dtd">
<!-- Generated by graphviz version 2.43.0 (0)
 -->
<!-- Title: TranslatorAdapter_1_10_0 Pages: 1 -->
<!--zoomable 962 -->

<svg id="main" version="1.1" xmlns="http://www.w3.org/2000/svg" xmlns:xlink="http://www.w3.org/1999/xlink" xml:space="preserve" onload="init(evt)">

<style type="text/css"><![CDATA[
.node, .edge {opacity: 0.7;}
.node.selected, .edge.selected {opacity: 1;}
.edge:hover path { stroke: red; }
.edge:hover polygon { stroke: red; fill: red; }
]]></style>

<defs>
  <circle id="rim" cx="0" cy="0" r="7"/>
  <circle id="rim2" cx="0" cy="0" r="3.5"/>
  <g id="zoomPlus">
    <use xlink:href="#rim" fill="#404040"><set attributeName="fill" to="#808080" begin="zoomplus.mouseover" end="zoomplus.mouseout"/></use>
    <path d="M-4,0h8M0,-4v8" fill="none" stroke="white" stroke-width="1.5" pointer-events="none"/>
  </g>
  <g id="zoomMin">
    <use xlink:href="#rim" fill="#404040"><set attributeName="fill" to="#808080" begin="zoomminus.mouseover" end="zoomminus.mouseout"/></use>
    <path d="M-4,0h8" fill="none" stroke="white" stroke-width="1.5" pointer-events="none"/>
  </g>
  <g id="arrowUp" transform="translate(30 24)">
    <use xlink:href="#rim"/>
    <path pointer-events="none" fill="none" stroke="white" stroke-width="1.5" d="M0,-3.0v7 M-2.5,-0.5L0,-3.0L2.5,-0.5"/>
  </g>
  <g id="arrowRight" transform="rotate(90) translate(36 -43)">
    <use xlink:href="#rim"/>
    <path pointer-events="none" fill="none" stroke="white" stroke-width="1.5" d="M0,-3.0v7 M-2.5,-0.5L0,-3.0L2.5,-0.5"/>
  </g>
  <g id="arrowDown" transform="rotate(180) translate(-30 -48)">
    <use xlink:href="#rim"/>
    <path pointer-events="none" fill="none" stroke="white" stroke-width="1.5" d="M0,-3.0v7 M-2.5,-0.5L0,-3.0L2.5,-0.5"/>
  </g>
  <g id="arrowLeft" transform="rotate(270) translate(-36 17)">
    <use xlink:href="#rim"/>
    <path pointer-events="none" fill="none" stroke="white" stroke-width="1.5" d="M0,-3.0v7 M-2.5,-0.5L0,-3.0L2.5,-0.5"/>
  </g>
  <g id="resetDef">
    <use xlink:href="#rim2" fill="#404040"><set attributeName="fill" to="#808080" begin="reset.mouseover" end="reset.mouseout"/></use>
  </g>
</defs>
<script type="application/ecmascript">
var viewWidth = 2518;
var viewHeight = 962;
var sectionId = 'dynsection-0';
</script>
<script type="application/ecmascript" xlink:href="../../svg.min.js"/>
<svg id="graph" class="graph">
<g id="viewport">
<title>TranslatorAdapter_1_10_0</title>
<!-- Node1 -->
<g id="Node000001" class="node">
<title>Node1</title>
<g id="a_Node000001"><a xlink:title=" ">
<polygon fill="#999999" stroke="#666666" points="2348,-789 2205,-789 2205,-770 2348,-770 2348,-789"/>
<text text-anchor="middle" x="2276.5" y="-777" font-family="Helvetica,sans-Serif" font-size="10.00">TranslatorAdapter_1_10_0</text>
</a>
</g>
</g>
<!-- Node5 -->
<g id="Node000005" class="node">
<title>Node5</title>
<g id="a_Node000005"><a xlink:href="../../d7/d9d/class_translator_adapter__1__9__8.html" target="_top" xlink:title=" ">
<polygon fill="white" stroke="#666666" points="2345,-734 2208,-734 2208,-715 2345,-715 2345,-734"/>
<text text-anchor="middle" x="2276.5" y="-722" font-family="Helvetica,sans-Serif" font-size="10.00">TranslatorAdapter_1_9_8</text>
</a>
</g>
</g>
<!-- Node1&#45;&gt;Node5 -->
<g id="edge4_Node000001_Node000005" class="edge">
<title>Node1&#45;&gt;Node5</title>
<g id="a_edge4_Node000001_Node000005"><a xlink:title=" ">
<path fill="none" stroke="#63b8ff" d="M2276.5,-759.66C2276.5,-750.93 2276.5,-740.99 2276.5,-734.09"/>
<polygon fill="#63b8ff" stroke="#63b8ff" points="2273,-759.75 2276.5,-769.75 2280,-759.75 2273,-759.75"/>
</a>
</g>
</g>
<!-- Node2 -->
<g id="Node000002" class="node">
<title>Node2</title>
<g id="a_Node000002"><a xlink:href="../../d8/d55/class_translator_adapter__1__11__0.html" target="_top" xlink:title=" ">
<polygon fill="white" stroke="#666666" points="2348,-844 2205,-844 2205,-825 2348,-825 2348,-844"/>
<text text-anchor="middle" x="2276.5" y="-832" font-family="Helvetica,sans-Serif" font-size="10.00">TranslatorAdapter_1_11_0</text>
</a>
</g>
</g>
<!-- Node2&#45;&gt;Node1 -->
<g id="edge1_Node000001_Node000002" class="edge">
<title>Node2&#45;&gt;Node1</title>
<g id="a_edge1_Node000001_Node000002"><a xlink:title=" ">
<path fill="none" stroke="#63b8ff" d="M2276.5,-814.66C2276.5,-805.93 2276.5,-795.99 2276.5,-789.09"/>
<polygon fill="#63b8ff" stroke="#63b8ff" points="2273,-814.75 2276.5,-824.75 2280,-814.75 2273,-814.75"/>
</a>
</g>
</g>
<!-- Node3 -->
<g id="Node000003" class="node">
<title>Node3</title>
<g id="a_Node000003"><a xlink:href="../../db/d6c/class_translator_adapter_base.html" target="_top" xlink:title="Base of the translator adapter tree.">
<polygon fill="white" stroke="#666666" points="2340,-899 2213,-899 2213,-880 2340,-880 2340,-899"/>
<text text-anchor="middle" x="2276.5" y="-887" font-family="Helvetica,sans-Serif" font-size="10.00">TranslatorAdapterBase</text>
</a>
</g>
</g>
<!-- Node3&#45;&gt;Node2 -->
<g id="edge2_Node000002_Node000003" class="edge">
<title>Node3&#45;&gt;Node2</title>
<g id="a_edge2_Node000002_Node000003"><a xlink:title=" ">
<path fill="none" stroke="#63b8ff" d="M2276.5,-869.66C2276.5,-860.93 2276.5,-850.99 2276.5,-844.09"/>
<polygon fill="#63b8ff" stroke="#63b8ff" points="2273,-869.75 2276.5,-879.75 2280,-869.75 2273,-869.75"/>
</a>
</g>
</g>
<!-- Node4 -->
<g id="Node000004" class="node">
<title>Node4</title>
<g id="a_Node000004"><a xlink:href="../../d8/dfb/class_translator.html" target="_top" xlink:title="Abstract base class for all translatable text fragments.">
<polygon fill="white" stroke="#666666" points="2309,-954 2244,-954 2244,-935 2309,-935 2309,-954"/>
<text text-anchor="middle" x="2276.5" y="-942" font-family="Helvetica,sans-Serif" font-size="10.00">Translator</text>
</a>
</g>
</g>
<!-- Node4&#45;&gt;Node3 -->
<g id="edge3_Node000003_Node000004" class="edge">
<title>Node4&#45;&gt;Node3</title>
<g id="a_edge3_Node000003_Node000004"><a xlink:title=" ">
<path fill="none" stroke="#63b8ff" d="M2276.5,-924.66C2276.5,-915.93 2276.5,-905.99 2276.5,-899.09"/>
<polygon fill="#63b8ff" stroke="#63b8ff" points="2273,-924.75 2276.5,-934.75 2280,-924.75 2273,-924.75"/>
</a>
</g>
</g>
<!-- Node6 -->
<g id="Node000006" class="node">
<title>Node6</title>
<g id="a_Node000006"><a xlink:href="../../db/d71/class_translator_adapter__1__9__6.html" target="_top" xlink:title=" ">
<polygon fill="white" stroke="#666666" points="2345,-679 2208,-679 2208,-660 2345,-660 2345,-679"/>
<text text-anchor="middle" x="2276.5" y="-667" font-family="Helvetica,sans-Serif" font-size="10.00">TranslatorAdapter_1_9_6</text>
</a>
</g>
</g>
<!-- Node5&#45;&gt;Node6 -->
<g id="edge5_Node000005_Node000006" class="edge">
<title>Node5&#45;&gt;Node6</title>
<g id="a_edge5_Node000005_Node000006"><a xlink:title=" ">
<path fill="none" stroke="#63b8ff" d="M2276.5,-704.66C2276.5,-695.93 2276.5,-685.99 2276.5,-679.09"/>
<polygon fill="#63b8ff" stroke="#63b8ff" points="2273,-704.75 2276.5,-714.75 2280,-704.75 2273,-704.75"/>
</a>
</g>
</g>
<!-- Node7 -->
<g id="Node000007" class="node">
<title>Node7</title>
<g id="a_Node000007"><a xlink:href="../../dd/dba/class_translator_adapter__1__9__5.html" target="_top" xlink:title=" ">
<polygon fill="white" stroke="#666666" points="2153,-624 2016,-624 2016,-605 2153,-605 2153,-624"/>
<text text-anchor="middle" x="2084.5" y="-612" font-family="Helvetica,sans-Serif" font-size="10.00">TranslatorAdapter_1_9_5</text>
</a>
</g>
</g>
<!-- Node6&#45;&gt;Node7 -->
<g id="edge6_Node000006_Node000007" class="edge">
<title>Node6&#45;&gt;Node7</title>
<g id="a_edge6_Node000006_Node000007"><a xlink:title=" ">
<path fill="none" stroke="#63b8ff" d="M2235.97,-657.31C2200.04,-647.39 2148.34,-633.12 2115.59,-624.08"/>
<polygon fill="#63b8ff" stroke="#63b8ff" points="2235.08,-660.7 2245.65,-659.98 2236.94,-653.95 2235.08,-660.7"/>
</a>
</g>
</g>
<!-- Node49 -->
<g id="Node000049" class="node">
<title>Node49</title>
<g id="a_Node000049"><a xlink:href="../../dd/d8a/class_translator_czech.html" target="_top" xlink:title=" ">
<polygon fill="white" stroke="#666666" points="2265.5,-624 2171.5,-624 2171.5,-605 2265.5,-605 2265.5,-624"/>
<text text-anchor="middle" x="2218.5" y="-612" font-family="Helvetica,sans-Serif" font-size="10.00">TranslatorCzech</text>
</a>
</g>
</g>
<!-- Node6&#45;&gt;Node49 -->
<g id="edge48_Node000006_Node000049" class="edge">
<title>Node6&#45;&gt;Node49</title>
<g id="a_edge48_Node000006_Node000049"><a xlink:title=" ">
<path fill="none" stroke="#63b8ff" d="M2259.59,-653.04C2249.3,-643.64 2236.53,-631.98 2227.99,-624.17"/>
<polygon fill="#63b8ff" stroke="#63b8ff" points="2257.44,-655.82 2267.18,-659.98 2262.16,-650.66 2257.44,-655.82"/>
</a>
</g>
</g>
<!-- Node50 -->
<g id="Node000050" class="node">
<title>Node50</title>
<g id="a_Node000050"><a xlink:href="../../dc/d44/class_translator_spanish.html" target="_top" xlink:title=" ">
<polygon fill="white" stroke="#666666" points="2387,-624 2284,-624 2284,-605 2387,-605 2387,-624"/>
<text text-anchor="middle" x="2335.5" y="-612" font-family="Helvetica,sans-Serif" font-size="10.00">TranslatorSpanish</text>
</a>
</g>
</g>
<!-- Node6&#45;&gt;Node50 -->
<g id="edge49_Node000006_Node000050" class="edge">
<title>Node6&#45;&gt;Node50</title>
<g id="a_edge49_Node000006_Node000050"><a xlink:title=" ">
<path fill="none" stroke="#63b8ff" d="M2293.7,-653.04C2304.17,-643.64 2317.15,-631.98 2325.85,-624.17"/>
<polygon fill="#63b8ff" stroke="#63b8ff" points="2291.08,-650.7 2285.98,-659.98 2295.76,-655.91 2291.08,-650.7"/>
</a>
</g>
</g>
<!-- Node51 -->
<g id="Node000051" class="node">
<title>Node51</title>
<g id="a_Node000051"><a xlink:href="../../d5/d5c/class_translator_swedish.html" target="_top" xlink:title=" ">
<polygon fill="white" stroke="#666666" points="2510,-624 2405,-624 2405,-605 2510,-605 2510,-624"/>
<text text-anchor="middle" x="2457.5" y="-612" font-family="Helvetica,sans-Serif" font-size="10.00">TranslatorSwedish</text>
</a>
</g>
</g>
<!-- Node6&#45;&gt;Node51 -->
<g id="edge50_Node000006_Node000051" class="edge">
<title>Node6&#45;&gt;Node51</title>
<g id="a_edge50_Node000006_Node000051"><a xlink:title=" ">
<path fill="none" stroke="#63b8ff" d="M2315.58,-657.06C2349.41,-647.15 2397.58,-633.04 2428.19,-624.08"/>
<polygon fill="#63b8ff" stroke="#63b8ff" points="2314.19,-653.82 2305.58,-659.98 2316.16,-660.53 2314.19,-653.82"/>
</a>
</g>
</g>
<!-- Node8 -->
<g id="Node000008" class="node">
<title>Node8</title>
<g id="a_Node000008"><a xlink:href="../../d0/d33/class_translator_adapter__1__9__4.html" target="_top" xlink:title=" ">
<polygon fill="white" stroke="#666666" points="2086,-569 1949,-569 1949,-550 2086,-550 2086,-569"/>
<text text-anchor="middle" x="2017.5" y="-557" font-family="Helvetica,sans-Serif" font-size="10.00">TranslatorAdapter_1_9_4</text>
</a>
</g>
</g>
<!-- Node7&#45;&gt;Node8 -->
<g id="edge7_Node000007_Node000008" class="edge">
<title>Node7&#45;&gt;Node8</title>
<g id="a_edge7_Node000007_Node000008"><a xlink:title=" ">
<path fill="none" stroke="#63b8ff" d="M2065.67,-598.6C2053.66,-589.11 2038.53,-577.13 2028.46,-569.17"/>
<polygon fill="#63b8ff" stroke="#63b8ff" points="2063.72,-601.53 2073.74,-604.98 2068.06,-596.04 2063.72,-601.53"/>
</a>
</g>
</g>
<!-- Node48 -->
<g id="Node000048" class="node">
<title>Node48</title>
<g id="a_Node000048"><a xlink:href="../../da/d1a/class_translator_french.html" target="_top" xlink:title=" ">
<polygon fill="white" stroke="#666666" points="2201,-569 2104,-569 2104,-550 2201,-550 2201,-569"/>
<text text-anchor="middle" x="2152.5" y="-557" font-family="Helvetica,sans-Serif" font-size="10.00">TranslatorFrench</text>
</a>
</g>
</g>
<!-- Node7&#45;&gt;Node48 -->
<g id="edge47_Node000007_Node000048" class="edge">
<title>Node7&#45;&gt;Node48</title>
<g id="a_edge47_Node000007_Node000048"><a xlink:title=" ">
<path fill="none" stroke="#63b8ff" d="M2103.62,-598.6C2115.8,-589.11 2131.16,-577.13 2141.38,-569.17"/>
<polygon fill="#63b8ff" stroke="#63b8ff" points="2101.16,-596.08 2095.43,-604.98 2105.46,-601.6 2101.16,-596.08"/>
</a>
</g>
</g>
<!-- Node9 -->
<g id="Node000009" class="node">
<title>Node9</title>
<g id="a_Node000009"><a xlink:href="../../d3/d2e/class_translator_adapter__1__9__2.html" target="_top" xlink:title=" ">
<polygon fill="white" stroke="#666666" points="1944,-514 1807,-514 1807,-495 1944,-495 1944,-514"/>
<text text-anchor="middle" x="1875.5" y="-502" font-family="Helvetica,sans-Serif" font-size="10.00">TranslatorAdapter_1_9_2</text>
</a>
</g>
</g>
<!-- Node8&#45;&gt;Node9 -->
<g id="edge8_Node000008_Node000009" class="edge">
<title>Node8&#45;&gt;Node9</title>
<g id="a_edge8_Node000008_Node000009"><a xlink:title=" ">
<path fill="none" stroke="#63b8ff" d="M1985.14,-546.42C1958.79,-536.59 1922.24,-522.95 1898.73,-514.17"/>
<polygon fill="#63b8ff" stroke="#63b8ff" points="1984.09,-549.77 1994.69,-549.98 1986.54,-543.21 1984.09,-549.77"/>
</a>
</g>
</g>
<!-- Node46 -->
<g id="Node000046" class="node">
<title>Node46</title>
<g id="a_Node000046"><a xlink:href="../../da/dbb/class_translator_bulgarian.html" target="_top" xlink:title=" ">
<polygon fill="white" stroke="#666666" points="2073,-514 1962,-514 1962,-495 2073,-495 2073,-514"/>
<text text-anchor="middle" x="2017.5" y="-502" font-family="Helvetica,sans-Serif" font-size="10.00">TranslatorBulgarian</text>
</a>
</g>
</g>
<!-- Node8&#45;&gt;Node46 -->
<g id="edge45_Node000008_Node000046" class="edge">
<title>Node8&#45;&gt;Node46</title>
<g id="a_edge45_Node000008_Node000046"><a xlink:title=" ">
<path fill="none" stroke="#63b8ff" d="M2017.5,-539.66C2017.5,-530.93 2017.5,-520.99 2017.5,-514.09"/>
<polygon fill="#63b8ff" stroke="#63b8ff" points="2014,-539.75 2017.5,-549.75 2021,-539.75 2014,-539.75"/>
</a>
</g>
</g>
<!-- Node47 -->
<g id="Node000047" class="node">
<title>Node47</title>
<g id="a_Node000047"><a xlink:href="../../d1/d8a/class_translator_hindi.html" target="_top" xlink:title=" ">
<polygon fill="white" stroke="#666666" points="2181.5,-514 2091.5,-514 2091.5,-495 2181.5,-495 2181.5,-514"/>
<text text-anchor="middle" x="2136.5" y="-502" font-family="Helvetica,sans-Serif" font-size="10.00">TranslatorHindi</text>
</a>
</g>
</g>
<!-- Node8&#45;&gt;Node47 -->
<g id="edge46_Node000008_Node000047" class="edge">
<title>Node8&#45;&gt;Node47</title>
<g id="a_edge46_Node000008_Node000047"><a xlink:title=" ">
<path fill="none" stroke="#63b8ff" d="M2045.8,-545.9C2067.78,-536.11 2097.68,-522.79 2117.03,-514.17"/>
<polygon fill="#63b8ff" stroke="#63b8ff" points="2044.33,-542.72 2036.62,-549.98 2047.18,-549.11 2044.33,-542.72"/>
</a>
</g>
</g>
<!-- Node10 -->
<g id="Node000010" class="node">
<title>Node10</title>
<g id="a_Node000010"><a xlink:href="../../de/dde/class_translator_adapter__1__8__19.html" target="_top" xlink:title=" ">
<polygon fill="white" stroke="#666666" points="1947,-459 1804,-459 1804,-440 1947,-440 1947,-459"/>
<text text-anchor="middle" x="1875.5" y="-447" font-family="Helvetica,sans-Serif" font-size="10.00">TranslatorAdapter_1_8_19</text>
</a>
</g>
</g>
<!-- Node9&#45;&gt;Node10 -->
<g id="edge9_Node000009_Node000010" class="edge">
<title>Node9&#45;&gt;Node10</title>
<g id="a_edge9_Node000009_Node000010"><a xlink:title=" ">
<path fill="none" stroke="#63b8ff" d="M1875.5,-484.66C1875.5,-475.93 1875.5,-465.99 1875.5,-459.09"/>
<polygon fill="#63b8ff" stroke="#63b8ff" points="1872,-484.75 1875.5,-494.75 1879,-484.75 1872,-484.75"/>
</a>
</g>
</g>
<!-- Node11 -->
<g id="Node000011" class="node">
<title>Node11</title>
<g id="a_Node000011"><a xlink:href="../../d4/d2e/class_translator_adapter__1__8__15.html" target="_top" xlink:title=" ">
<polygon fill="white" stroke="#666666" points="1947,-404 1804,-404 1804,-385 1947,-385 1947,-404"/>
<text text-anchor="middle" x="1875.5" y="-392" font-family="Helvetica,sans-Serif" font-size="10.00">TranslatorAdapter_1_8_15</text>
</a>
</g>
</g>
<!-- Node10&#45;&gt;Node11 -->
<g id="edge10_Node000010_Node000011" class="edge">
<title>Node10&#45;&gt;Node11</title>
<g id="a_edge10_Node000010_Node000011"><a xlink:title=" ">
<path fill="none" stroke="#63b8ff" d="M1875.5,-429.66C1875.5,-420.93 1875.5,-410.99 1875.5,-404.09"/>
<polygon fill="#63b8ff" stroke="#63b8ff" points="1872,-429.75 1875.5,-439.75 1879,-429.75 1872,-429.75"/>
</a>
</g>
</g>
<!-- Node12 -->
<g id="Node000012" class="node">
<title>Node12</title>
<g id="a_Node000012"><a xlink:href="../../de/d2f/class_translator_adapter__1__8__4.html" target="_top" xlink:title=" ">
<polygon fill="white" stroke="#666666" points="1382,-349 1245,-349 1245,-330 1382,-330 1382,-349"/>
<text text-anchor="middle" x="1313.5" y="-337" font-family="Helvetica,sans-Serif" font-size="10.00">TranslatorAdapter_1_8_4</text>
</a>
</g>
</g>
<!-- Node11&#45;&gt;Node12 -->
<g id="edge11_Node000011_Node000012" class="edge">
<title>Node11&#45;&gt;Node12</title>
<g id="a_edge11_Node000011_Node000012"><a xlink:title=" ">
<path fill="none" stroke="#63b8ff" d="M1793.46,-386.38C1697.16,-377.93 1532.66,-363.18 1391.5,-349 1388.52,-348.7 1385.47,-348.39 1382.4,-348.07"/>
<polygon fill="#63b8ff" stroke="#63b8ff" points="1793.44,-389.89 1803.71,-387.28 1794.05,-382.92 1793.44,-389.89"/>
</a>
</g>
</g>
<!-- Node38 -->
<g id="Node000038" class="node">
<title>Node38</title>
<g id="a_Node000038"><a xlink:href="../../dd/df6/class_translator_chinesetraditional.html" target="_top" xlink:title=" ">
<polygon fill="white" stroke="#666666" points="1554.5,-349 1400.5,-349 1400.5,-330 1554.5,-330 1554.5,-349"/>
<text text-anchor="middle" x="1477.5" y="-337" font-family="Helvetica,sans-Serif" font-size="10.00">TranslatorChinesetraditional</text>
</a>
</g>
</g>
<!-- Node11&#45;&gt;Node38 -->
<g id="edge37_Node000011_Node000038" class="edge">
<title>Node11&#45;&gt;Node38</title>
<g id="a_edge37_Node000011_Node000038"><a xlink:title=" ">
<path fill="none" stroke="#63b8ff" d="M1801.28,-383.62C1726.57,-373.67 1612.52,-358.48 1541.62,-349.04"/>
<polygon fill="#63b8ff" stroke="#63b8ff" points="1801.18,-387.13 1811.55,-384.98 1802.1,-380.2 1801.18,-387.13"/>
</a>
</g>
</g>
<!-- Node39 -->
<g id="Node000039" class="node">
<title>Node39</title>
<g id="a_Node000039"><a xlink:href="../../d6/d07/class_translator_german.html" target="_top" xlink:title=" ">
<polygon fill="white" stroke="#666666" points="1676.5,-349 1572.5,-349 1572.5,-330 1676.5,-330 1676.5,-349"/>
<text text-anchor="middle" x="1624.5" y="-337" font-family="Helvetica,sans-Serif" font-size="10.00">TranslatorGerman</text>
</a>
</g>
</g>
<!-- Node11&#45;&gt;Node39 -->
<g id="edge38_Node000011_Node000039" class="edge">
<title>Node11&#45;&gt;Node39</title>
<g id="a_edge38_Node000011_Node000039"><a xlink:title=" ">
<path fill="none" stroke="#63b8ff" d="M1825.2,-382.88C1778.15,-372.94 1708.78,-358.3 1665.14,-349.08"/>
<polygon fill="#63b8ff" stroke="#63b8ff" points="1824.67,-386.34 1835.17,-384.98 1826.11,-379.49 1824.67,-386.34"/>
</a>
</g>
</g>
<!-- Node40 -->
<g id="Node000040" class="node">
<title>Node40</title>
<g id="a_Node000040"><a xlink:href="../../db/d5f/class_translator_hungarian.html" target="_top" xlink:title=" ">
<polygon fill="white" stroke="#666666" points="1810,-349 1695,-349 1695,-330 1810,-330 1810,-349"/>
<text text-anchor="middle" x="1752.5" y="-337" font-family="Helvetica,sans-Serif" font-size="10.00">TranslatorHungarian</text>
</a>
</g>
</g>
<!-- Node11&#45;&gt;Node40 -->
<g id="edge39_Node000011_Node000040" class="edge">
<title>Node11&#45;&gt;Node40</title>
<g id="a_edge39_Node000011_Node000040"><a xlink:title=" ">
<path fill="none" stroke="#63b8ff" d="M1846.25,-380.9C1823.53,-371.11 1792.63,-357.79 1772.62,-349.17"/>
<polygon fill="#63b8ff" stroke="#63b8ff" points="1845.17,-384.24 1855.74,-384.98 1847.94,-377.81 1845.17,-384.24"/>
</a>
</g>
</g>
<!-- Node41 -->
<g id="Node000041" class="node">
<title>Node41</title>
<g id="a_Node000041"><a xlink:href="../../d2/df8/class_translator_italian.html" target="_top" xlink:title=" ">
<polygon fill="white" stroke="#666666" points="1923,-349 1828,-349 1828,-330 1923,-330 1923,-349"/>
<text text-anchor="middle" x="1875.5" y="-337" font-family="Helvetica,sans-Serif" font-size="10.00">TranslatorItalian</text>
</a>
</g>
</g>
<!-- Node11&#45;&gt;Node41 -->
<g id="edge40_Node000011_Node000041" class="edge">
<title>Node11&#45;&gt;Node41</title>
<g id="a_edge40_Node000011_Node000041"><a xlink:title=" ">
<path fill="none" stroke="#63b8ff" d="M1875.5,-374.66C1875.5,-365.93 1875.5,-355.99 1875.5,-349.09"/>
<polygon fill="#63b8ff" stroke="#63b8ff" points="1872,-374.75 1875.5,-384.75 1879,-374.75 1872,-374.75"/>
</a>
</g>
</g>
<!-- Node42 -->
<g id="Node000042" class="node">
<title>Node42</title>
<g id="a_Node000042"><a xlink:href="../../d1/d6a/class_translator_japanese.html" target="_top" xlink:title=" ">
<polygon fill="white" stroke="#666666" points="2050,-349 1941,-349 1941,-330 2050,-330 2050,-349"/>
<text text-anchor="middle" x="1995.5" y="-337" font-family="Helvetica,sans-Serif" font-size="10.00">TranslatorJapanese</text>
</a>
</g>
</g>
<!-- Node11&#45;&gt;Node42 -->
<g id="edge41_Node000011_Node000042" class="edge">
<title>Node11&#45;&gt;Node42</title>
<g id="a_edge41_Node000011_Node000042"><a xlink:title=" ">
<path fill="none" stroke="#63b8ff" d="M1904.03,-380.9C1926.2,-371.11 1956.35,-357.79 1975.87,-349.17"/>
<polygon fill="#63b8ff" stroke="#63b8ff" points="1902.51,-377.74 1894.78,-384.98 1905.34,-384.15 1902.51,-377.74"/>
</a>
</g>
</g>
<!-- Node43 -->
<g id="Node000043" class="node">
<title>Node43</title>
<g id="a_Node000043"><a xlink:href="../../db/dcc/class_translator_korean.html" target="_top" xlink:title=" ">
<polygon fill="white" stroke="#666666" points="2166.5,-349 2068.5,-349 2068.5,-330 2166.5,-330 2166.5,-349"/>
<text text-anchor="middle" x="2117.5" y="-337" font-family="Helvetica,sans-Serif" font-size="10.00">TranslatorKorean</text>
</a>
</g>
</g>
<!-- Node11&#45;&gt;Node43 -->
<g id="edge42_Node000011_Node000043" class="edge">
<title>Node11&#45;&gt;Node43</title>
<g id="a_edge42_Node000011_Node000043"><a xlink:title=" ">
<path fill="none" stroke="#63b8ff" d="M1924.29,-382.82C1969.64,-372.88 2036.33,-358.28 2078.31,-349.08"/>
<polygon fill="#63b8ff" stroke="#63b8ff" points="1923.4,-379.43 1914.38,-384.98 1924.9,-386.26 1923.4,-379.43"/>
</a>
</g>
</g>
<!-- Node44 -->
<g id="Node000044" class="node">
<title>Node44</title>
<g id="a_Node000044"><a xlink:href="../../da/d32/class_translator_romanian.html" target="_top" xlink:title=" ">
<polygon fill="white" stroke="#666666" points="2298.5,-349 2184.5,-349 2184.5,-330 2298.5,-330 2298.5,-349"/>
<text text-anchor="middle" x="2241.5" y="-337" font-family="Helvetica,sans-Serif" font-size="10.00">TranslatorRomanian</text>
</a>
</g>
</g>
<!-- Node11&#45;&gt;Node44 -->
<g id="edge43_Node000011_Node000044" class="edge">
<title>Node11&#45;&gt;Node44</title>
<g id="a_edge43_Node000011_Node000044"><a xlink:title=" ">
<path fill="none" stroke="#63b8ff" d="M1944.26,-383.54C2013.62,-373.5 2119.46,-358.17 2184.35,-348.78"/>
<polygon fill="#63b8ff" stroke="#63b8ff" points="1943.7,-380.09 1934.3,-384.98 1944.7,-387.02 1943.7,-380.09"/>
</a>
</g>
</g>
<!-- Node45 -->
<g id="Node000045" class="node">
<title>Node45</title>
<g id="a_Node000045"><a xlink:href="../../d2/d53/class_translator_slovak.html" target="_top" xlink:title=" ">
<polygon fill="white" stroke="#666666" points="2414.5,-349 2316.5,-349 2316.5,-330 2414.5,-330 2414.5,-349"/>
<text text-anchor="middle" x="2365.5" y="-337" font-family="Helvetica,sans-Serif" font-size="10.00">TranslatorSlovak</text>
</a>
</g>
</g>
<!-- Node11&#45;&gt;Node45 -->
<g id="edge44_Node000011_Node000045" class="edge">
<title>Node11&#45;&gt;Node45</title>
<g id="a_edge44_Node000011_Node000045"><a xlink:title=" ">
<path fill="none" stroke="#63b8ff" d="M1957.14,-386.14C2044.1,-378.06 2185.69,-364.19 2307.5,-349 2310.43,-348.63 2313.44,-348.24 2316.47,-347.84"/>
<polygon fill="#63b8ff" stroke="#63b8ff" points="1956.71,-382.67 1947.08,-387.07 1957.36,-389.64 1956.71,-382.67"/>
</a>
</g>
</g>
<!-- Node13 -->
<g id="Node000013" class="node">
<title>Node13</title>
<g id="a_Node000013"><a xlink:href="../../d2/d75/class_translator_adapter__1__8__2.html" target="_top" xlink:title=" ">
<polygon fill="white" stroke="#666666" points="1177,-294 1040,-294 1040,-275 1177,-275 1177,-294"/>
<text text-anchor="middle" x="1108.5" y="-282" font-family="Helvetica,sans-Serif" font-size="10.00">TranslatorAdapter_1_8_2</text>
</a>
</g>
</g>
<!-- Node12&#45;&gt;Node13 -->
<g id="edge12_Node000012_Node000013" class="edge">
<title>Node12&#45;&gt;Node13</title>
<g id="a_edge12_Node000012_Node000013"><a xlink:title=" ">
<path fill="none" stroke="#63b8ff" d="M1270.71,-327.44C1232.33,-317.52 1176.81,-303.16 1141.69,-294.08"/>
<polygon fill="#63b8ff" stroke="#63b8ff" points="1270.01,-330.87 1280.56,-329.98 1271.76,-324.09 1270.01,-330.87"/>
</a>
</g>
</g>
<!-- Node35 -->
<g id="Node000035" class="node">
<title>Node35</title>
<g id="a_Node000035"><a xlink:href="../../d2/d07/class_translator_esperanto.html" target="_top" xlink:title=" ">
<polygon fill="white" stroke="#666666" points="1308,-294 1195,-294 1195,-275 1308,-275 1308,-294"/>
<text text-anchor="middle" x="1251.5" y="-282" font-family="Helvetica,sans-Serif" font-size="10.00">TranslatorEsperanto</text>
</a>
</g>
</g>
<!-- Node12&#45;&gt;Node35 -->
<g id="edge34_Node000012_Node000035" class="edge">
<title>Node12&#45;&gt;Node35</title>
<g id="a_edge34_Node000012_Node000035"><a xlink:title=" ">
<path fill="none" stroke="#63b8ff" d="M1295.75,-323.32C1284.69,-313.87 1270.87,-302.06 1261.64,-294.17"/>
<polygon fill="#63b8ff" stroke="#63b8ff" points="1293.66,-326.15 1303.54,-329.98 1298.21,-320.83 1293.66,-326.15"/>
</a>
</g>
</g>
<!-- Node36 -->
<g id="Node000036" class="node">
<title>Node36</title>
<g id="a_Node000036"><a xlink:href="../../d8/d83/class_translator_latvian.html" target="_top" xlink:title=" ">
<polygon fill="white" stroke="#666666" points="1427,-294 1326,-294 1326,-275 1427,-275 1427,-294"/>
<text text-anchor="middle" x="1376.5" y="-282" font-family="Helvetica,sans-Serif" font-size="10.00">TranslatorLatvian</text>
</a>
</g>
</g>
<!-- Node12&#45;&gt;Node36 -->
<g id="edge35_Node000012_Node000036" class="edge">
<title>Node12&#45;&gt;Node36</title>
<g id="a_edge35_Node000012_Node000036"><a xlink:title=" ">
<path fill="none" stroke="#63b8ff" d="M1331.54,-323.32C1342.77,-313.87 1356.82,-302.06 1366.19,-294.17"/>
<polygon fill="#63b8ff" stroke="#63b8ff" points="1329.02,-320.87 1323.62,-329.98 1333.53,-326.23 1329.02,-320.87"/>
</a>
</g>
</g>
<!-- Node37 -->
<g id="Node000037" class="node">
<title>Node37</title>
<g id="a_Node000037"><a xlink:href="../../d1/d56/class_translator_ukrainian.html" target="_top" xlink:title=" ">
<polygon fill="white" stroke="#666666" points="1557.5,-294 1445.5,-294 1445.5,-275 1557.5,-275 1557.5,-294"/>
<text text-anchor="middle" x="1501.5" y="-282" font-family="Helvetica,sans-Serif" font-size="10.00">TranslatorUkrainian</text>
</a>
</g>
</g>
<!-- Node12&#45;&gt;Node37 -->
<g id="edge36_Node000012_Node000037" class="edge">
<title>Node12&#45;&gt;Node37</title>
<g id="a_edge36_Node000012_Node000037"><a xlink:title=" ">
<path fill="none" stroke="#63b8ff" d="M1353.64,-327.18C1388.8,-317.27 1439.13,-303.08 1471.06,-294.08"/>
<polygon fill="#63b8ff" stroke="#63b8ff" points="1352.38,-323.9 1343.71,-329.98 1354.28,-330.64 1352.38,-323.9"/>
</a>
</g>
</g>
<!-- Node14 -->
<g id="Node000014" class="node">
<title>Node14</title>
<g id="a_Node000014"><a xlink:href="../../de/d49/class_translator_adapter__1__8__0.html" target="_top" xlink:title="Adapter class for languages that only contain translations up to version 1.8.0.">
<polygon fill="white" stroke="#666666" points="1107,-239 970,-239 970,-220 1107,-220 1107,-239"/>
<text text-anchor="middle" x="1038.5" y="-227" font-family="Helvetica,sans-Serif" font-size="10.00">TranslatorAdapter_1_8_0</text>
</a>
</g>
</g>
<!-- Node13&#45;&gt;Node14 -->
<g id="edge13_Node000013_Node000014" class="edge">
<title>Node13&#45;&gt;Node14</title>
<g id="a_edge13_Node000013_Node000014"><a xlink:title=" ">
<path fill="none" stroke="#63b8ff" d="M1089.19,-268.88C1076.59,-259.34 1060.57,-247.21 1049.95,-239.17"/>
<polygon fill="#63b8ff" stroke="#63b8ff" points="1087.17,-271.74 1097.25,-274.98 1091.39,-266.16 1087.17,-271.74"/>
</a>
</g>
</g>
<!-- Node34 -->
<g id="Node000034" class="node">
<title>Node34</title>
<g id="a_Node000034"><a xlink:href="../../d9/d82/class_translator_croatian.html" target="_top" xlink:title=" ">
<polygon fill="white" stroke="#666666" points="1231.5,-239 1125.5,-239 1125.5,-220 1231.5,-220 1231.5,-239"/>
<text text-anchor="middle" x="1178.5" y="-227" font-family="Helvetica,sans-Serif" font-size="10.00">TranslatorCroatian</text>
</a>
</g>
</g>
<!-- Node13&#45;&gt;Node34 -->
<g id="edge33_Node000013_Node000034" class="edge">
<title>Node13&#45;&gt;Node34</title>
<g id="a_edge33_Node000013_Node000034"><a xlink:title=" ">
<path fill="none" stroke="#63b8ff" d="M1127.81,-268.88C1140.41,-259.34 1156.43,-247.21 1167.05,-239.17"/>
<polygon fill="#63b8ff" stroke="#63b8ff" points="1125.61,-266.16 1119.75,-274.98 1129.83,-271.74 1125.61,-266.16"/>
</a>
</g>
</g>
<!-- Node15 -->
<g id="Node000015" class="node">
<title>Node15</title>
<g id="a_Node000015"><a xlink:href="../../da/d24/class_translator_adapter__1__7__5.html" target="_top" xlink:title="Adapter class for languages that only contain translations up to version 1.7.5.">
<polygon fill="white" stroke="#666666" points="839,-184 702,-184 702,-165 839,-165 839,-184"/>
<text text-anchor="middle" x="770.5" y="-172" font-family="Helvetica,sans-Serif" font-size="10.00">TranslatorAdapter_1_7_5</text>
</a>
</g>
</g>
<!-- Node14&#45;&gt;Node15 -->
<g id="edge14_Node000014_Node000015" class="edge">
<title>Node14&#45;&gt;Node15</title>
<g id="a_edge14_Node000014_Node000015"><a xlink:title=" ">
<path fill="none" stroke="#63b8ff" d="M985.42,-218C935.18,-208.07 860.68,-193.33 813.9,-184.08"/>
<polygon fill="#63b8ff" stroke="#63b8ff" points="984.95,-221.48 995.44,-219.98 986.31,-214.61 984.95,-221.48"/>
</a>
</g>
</g>
<!-- Node30 -->
<g id="Node000030" class="node">
<title>Node30</title>
<g id="a_Node000030"><a xlink:href="../../da/db8/class_translator_armenian.html" target="_top" xlink:title=" ">
<polygon fill="white" stroke="#666666" points="969.5,-184 857.5,-184 857.5,-165 969.5,-165 969.5,-184"/>
<text text-anchor="middle" x="913.5" y="-172" font-family="Helvetica,sans-Serif" font-size="10.00">TranslatorArmenian</text>
</a>
</g>
</g>
<!-- Node14&#45;&gt;Node30 -->
<g id="edge29_Node000014_Node000030" class="edge">
<title>Node14&#45;&gt;Node30</title>
<g id="a_edge29_Node000014_Node000030"><a xlink:title=" ">
<path fill="none" stroke="#63b8ff" d="M1009.09,-216.03C985.97,-206.23 954.37,-192.83 933.95,-184.17"/>
<polygon fill="#63b8ff" stroke="#63b8ff" points="1007.84,-219.3 1018.42,-219.98 1010.58,-212.86 1007.84,-219.3"/>
</a>
</g>
</g>
<!-- Node31 -->
<g id="Node000031" class="node">
<title>Node31</title>
<g id="a_Node000031"><a xlink:href="../../d9/dc1/class_translator_catalan.html" target="_top" xlink:title=" ">
<polygon fill="white" stroke="#666666" points="1089.5,-184 987.5,-184 987.5,-165 1089.5,-165 1089.5,-184"/>
<text text-anchor="middle" x="1038.5" y="-172" font-family="Helvetica,sans-Serif" font-size="10.00">TranslatorCatalan</text>
</a>
</g>
</g>
<!-- Node14&#45;&gt;Node31 -->
<g id="edge30_Node000014_Node000031" class="edge">
<title>Node14&#45;&gt;Node31</title>
<g id="a_edge30_Node000014_Node000031"><a xlink:title=" ">
<path fill="none" stroke="#63b8ff" d="M1038.5,-209.66C1038.5,-200.93 1038.5,-190.99 1038.5,-184.09"/>
<polygon fill="#63b8ff" stroke="#63b8ff" points="1035,-209.75 1038.5,-219.75 1042,-209.75 1035,-209.75"/>
</a>
</g>
</g>
<!-- Node32 -->
<g id="Node000032" class="node">
<title>Node32</title>
<g id="a_Node000032"><a xlink:href="../../d7/d21/class_translator_danish.html" target="_top" xlink:title=" ">
<polygon fill="white" stroke="#666666" points="1205.5,-184 1107.5,-184 1107.5,-165 1205.5,-165 1205.5,-184"/>
<text text-anchor="middle" x="1156.5" y="-172" font-family="Helvetica,sans-Serif" font-size="10.00">TranslatorDanish</text>
</a>
</g>
</g>
<!-- Node14&#45;&gt;Node32 -->
<g id="edge31_Node000014_Node000032" class="edge">
<title>Node14&#45;&gt;Node32</title>
<g id="a_edge31_Node000014_Node000032"><a xlink:title=" ">
<path fill="none" stroke="#63b8ff" d="M1066.85,-215.77C1088.62,-205.99 1118.09,-192.75 1137.2,-184.17"/>
<polygon fill="#63b8ff" stroke="#63b8ff" points="1065.15,-212.69 1057.46,-219.98 1068.01,-219.08 1065.15,-212.69"/>
</a>
</g>
</g>
<!-- Node33 -->
<g id="Node000033" class="node">
<title>Node33</title>
<g id="a_Node000033"><a xlink:href="../../df/dc8/class_translator_indonesian.html" target="_top" xlink:title=" ">
<polygon fill="white" stroke="#666666" points="1341.5,-184 1223.5,-184 1223.5,-165 1341.5,-165 1341.5,-184"/>
<text text-anchor="middle" x="1282.5" y="-172" font-family="Helvetica,sans-Serif" font-size="10.00">TranslatorIndonesian</text>
</a>
</g>
</g>
<!-- Node14&#45;&gt;Node33 -->
<g id="edge32_Node000014_Node000033" class="edge">
<title>Node14&#45;&gt;Node33</title>
<g id="a_edge32_Node000014_Node000033"><a xlink:title=" ">
<path fill="none" stroke="#63b8ff" d="M1087.69,-217.82C1133.42,-207.88 1200.66,-193.28 1242.99,-184.08"/>
<polygon fill="#63b8ff" stroke="#63b8ff" points="1086.73,-214.44 1077.7,-219.98 1088.22,-221.28 1086.73,-214.44"/>
</a>
</g>
</g>
<!-- Node16 -->
<g id="Node000016" class="node">
<title>Node16</title>
<g id="a_Node000016"><a xlink:href="../../d3/da1/class_translator_adapter__1__6__0.html" target="_top" xlink:title="Adapter class for languages that only contain translations up to version 1.6.0.">
<polygon fill="white" stroke="#666666" points="702,-129 565,-129 565,-110 702,-110 702,-129"/>
<text text-anchor="middle" x="633.5" y="-117" font-family="Helvetica,sans-Serif" font-size="10.00">TranslatorAdapter_1_6_0</text>
</a>
</g>
</g>
<!-- Node15&#45;&gt;Node16 -->
<g id="edge15_Node000015_Node000016" class="edge">
<title>Node15&#45;&gt;Node16</title>
<g id="a_edge15_Node000015_Node000016"><a xlink:title=" ">
<path fill="none" stroke="#63b8ff" d="M738.94,-161.29C713.55,-151.47 678.5,-137.91 655.91,-129.17"/>
<polygon fill="#63b8ff" stroke="#63b8ff" points="737.9,-164.64 748.49,-164.98 740.42,-158.11 737.9,-164.64"/>
</a>
</g>
</g>
<!-- Node28 -->
<g id="Node000028" class="node">
<title>Node28</title>
<g id="a_Node000028"><a xlink:href="../../d5/d43/class_translator_persian.html" target="_top" xlink:title=" ">
<polygon fill="white" stroke="#666666" points="821,-129 720,-129 720,-110 821,-110 821,-129"/>
<text text-anchor="middle" x="770.5" y="-117" font-family="Helvetica,sans-Serif" font-size="10.00">TranslatorPersian</text>
</a>
</g>
</g>
<!-- Node15&#45;&gt;Node28 -->
<g id="edge27_Node000015_Node000028" class="edge">
<title>Node15&#45;&gt;Node28</title>
<g id="a_edge27_Node000015_Node000028"><a xlink:title=" ">
<path fill="none" stroke="#63b8ff" d="M770.5,-154.66C770.5,-145.93 770.5,-135.99 770.5,-129.09"/>
<polygon fill="#63b8ff" stroke="#63b8ff" points="767,-154.75 770.5,-164.75 774,-154.75 767,-154.75"/>
</a>
</g>
</g>
<!-- Node29 -->
<g id="Node000029" class="node">
<title>Node29</title>
<g id="a_Node000029"><a xlink:href="../../dd/d80/class_translator_turkish.html" target="_top" xlink:title=" ">
<polygon fill="white" stroke="#666666" points="938,-129 839,-129 839,-110 938,-110 938,-129"/>
<text text-anchor="middle" x="888.5" y="-117" font-family="Helvetica,sans-Serif" font-size="10.00">TranslatorTurkish</text>
</a>
</g>
</g>
<!-- Node15&#45;&gt;Node29 -->
<g id="edge28_Node000015_Node000029" class="edge">
<title>Node15&#45;&gt;Node29</title>
<g id="a_edge28_Node000015_Node000029"><a xlink:title=" ">
<path fill="none" stroke="#63b8ff" d="M798.85,-160.77C820.62,-150.99 850.09,-137.75 869.2,-129.17"/>
<polygon fill="#63b8ff" stroke="#63b8ff" points="797.15,-157.69 789.46,-164.98 800.01,-164.08 797.15,-157.69"/>
</a>
</g>
</g>
<!-- Node17 -->
<g id="Node000017" class="node">
<title>Node17</title>
<g id="a_Node000017"><a xlink:href="../../d4/d2b/class_translator_adapter__1__4__6.html" target="_top" xlink:title="Adapter class for languages that only contain translations up to version 1.4.6.">
<polygon fill="white" stroke="#666666" points="307,-74 170,-74 170,-55 307,-55 307,-74"/>
<text text-anchor="middle" x="238.5" y="-62" font-family="Helvetica,sans-Serif" font-size="10.00">TranslatorAdapter_1_4_6</text>
</a>
</g>
</g>
<!-- Node16&#45;&gt;Node17 -->
<g id="edge16_Node000016_Node000017" class="edge">
<title>Node16&#45;&gt;Node17</title>
<g id="a_edge16_Node000016_Node000017"><a xlink:title=" ">
<path fill="none" stroke="#63b8ff" d="M559.84,-108.62C485.69,-98.67 372.5,-83.48 302.13,-74.04"/>
<polygon fill="#63b8ff" stroke="#63b8ff" points="559.66,-112.12 570.04,-109.98 560.59,-105.19 559.66,-112.12"/>
</a>
</g>
</g>
<!-- Node22 -->
<g id="Node000022" class="node">
<title>Node22</title>
<g id="a_Node000022"><a xlink:href="../../d3/d65/class_translator_afrikaans.html" target="_top" xlink:title=" ">
<polygon fill="white" stroke="#666666" points="435.5,-74 325.5,-74 325.5,-55 435.5,-55 435.5,-74"/>
<text text-anchor="middle" x="380.5" y="-62" font-family="Helvetica,sans-Serif" font-size="10.00">TranslatorAfrikaans</text>
</a>
</g>
</g>
<!-- Node16&#45;&gt;Node22 -->
<g id="edge21_Node000016_Node000022" class="edge">
<title>Node16&#45;&gt;Node22</title>
<g id="a_edge21_Node000016_Node000022"><a xlink:title=" ">
<path fill="none" stroke="#63b8ff" d="M582.8,-107.88C535.38,-97.94 465.45,-83.3 421.47,-74.08"/>
<polygon fill="#63b8ff" stroke="#63b8ff" points="582.35,-111.36 592.85,-109.98 583.78,-104.51 582.35,-111.36"/>
</a>
</g>
</g>
<!-- Node23 -->
<g id="Node000023" class="node">
<title>Node23</title>
<g id="a_Node000023"><a xlink:href="../../de/df7/class_translator_finnish.html" target="_top" xlink:title=" ">
<polygon fill="white" stroke="#666666" points="553,-74 454,-74 454,-55 553,-55 553,-74"/>
<text text-anchor="middle" x="503.5" y="-62" font-family="Helvetica,sans-Serif" font-size="10.00">TranslatorFinnish</text>
</a>
</g>
</g>
<!-- Node16&#45;&gt;Node23 -->
<g id="edge22_Node000016_Node000023" class="edge">
<title>Node16&#45;&gt;Node23</title>
<g id="a_edge22_Node000016_Node000023"><a xlink:title=" ">
<path fill="none" stroke="#63b8ff" d="M603.23,-106.16C579.16,-96.35 546.1,-82.87 524.77,-74.17"/>
<polygon fill="#63b8ff" stroke="#63b8ff" points="602.03,-109.45 612.61,-109.98 604.67,-102.97 602.03,-109.45"/>
</a>
</g>
</g>
<!-- Node24 -->
<g id="Node000024" class="node">
<title>Node24</title>
<g id="a_Node000024"><a xlink:href="../../d9/ddf/class_translator_macedonian.html" target="_top" xlink:title=" ">
<polygon fill="white" stroke="#666666" points="695.5,-74 571.5,-74 571.5,-55 695.5,-55 695.5,-74"/>
<text text-anchor="middle" x="633.5" y="-62" font-family="Helvetica,sans-Serif" font-size="10.00">TranslatorMacedonian</text>
</a>
</g>
</g>
<!-- Node16&#45;&gt;Node24 -->
<g id="edge23_Node000016_Node000024" class="edge">
<title>Node16&#45;&gt;Node24</title>
<g id="a_edge23_Node000016_Node000024"><a xlink:title=" ">
<path fill="none" stroke="#63b8ff" d="M633.5,-99.66C633.5,-90.93 633.5,-80.99 633.5,-74.09"/>
<polygon fill="#63b8ff" stroke="#63b8ff" points="630,-99.75 633.5,-109.75 637,-99.75 630,-99.75"/>
</a>
</g>
</g>
<!-- Node25 -->
<g id="Node000025" class="node">
<title>Node25</title>
<g id="a_Node000025"><a xlink:href="../../d5/d0a/class_translator_serbian.html" target="_top" xlink:title=" ">
<polygon fill="white" stroke="#666666" points="815,-74 714,-74 714,-55 815,-55 815,-74"/>
<text text-anchor="middle" x="764.5" y="-62" font-family="Helvetica,sans-Serif" font-size="10.00">TranslatorSerbian</text>
</a>
</g>
</g>
<!-- Node16&#45;&gt;Node25 -->
<g id="edge24_Node000016_Node000025" class="edge">
<title>Node16&#45;&gt;Node25</title>
<g id="a_edge24_Node000016_Node000025"><a xlink:title=" ">
<path fill="none" stroke="#63b8ff" d="M664,-106.16C688.25,-96.35 721.57,-82.87 743.07,-74.17"/>
<polygon fill="#63b8ff" stroke="#63b8ff" points="662.5,-102.99 654.55,-109.98 665.13,-109.48 662.5,-102.99"/>
</a>
</g>
</g>
<!-- Node26 -->
<g id="Node000026" class="node">
<title>Node26</title>
<g id="a_Node000026"><a xlink:href="../../dc/d03/class_translator_serbian_cyrillic.html" target="_top" xlink:title=" ">
<polygon fill="white" stroke="#666666" points="968,-74 833,-74 833,-55 968,-55 968,-74"/>
<text text-anchor="middle" x="900.5" y="-62" font-family="Helvetica,sans-Serif" font-size="10.00">TranslatorSerbianCyrillic</text>
</a>
</g>
</g>
<!-- Node16&#45;&gt;Node26 -->
<g id="edge25_Node000016_Node000026" class="edge">
<title>Node16&#45;&gt;Node26</title>
<g id="a_edge25_Node000016_Node000026"><a xlink:title=" ">
<path fill="none" stroke="#63b8ff" d="M686.38,-108C736.43,-98.07 810.66,-83.33 857.27,-74.08"/>
<polygon fill="#63b8ff" stroke="#63b8ff" points="685.53,-104.6 676.4,-109.98 686.89,-111.47 685.53,-104.6"/>
</a>
</g>
</g>
<!-- Node27 -->
<g id="Node000027" class="node">
<title>Node27</title>
<g id="a_Node000027"><a xlink:href="../../df/d20/class_translator_vietnamese.html" target="_top" xlink:title=" ">
<polygon fill="white" stroke="#666666" points="1109,-74 986,-74 986,-55 1109,-55 1109,-74"/>
<text text-anchor="middle" x="1047.5" y="-62" font-family="Helvetica,sans-Serif" font-size="10.00">TranslatorVietnamese</text>
</a>
</g>
</g>
<!-- Node16&#45;&gt;Node27 -->
<g id="edge26_Node000016_Node000027" class="edge">
<title>Node16&#45;&gt;Node27</title>
<g id="a_edge26_Node000016_Node000027"><a xlink:title=" ">
<path fill="none" stroke="#63b8ff" d="M709.97,-108.71C789.48,-98.53 912.37,-82.8 985.88,-73.39"/>
<polygon fill="#63b8ff" stroke="#63b8ff" points="709.49,-105.24 700.02,-109.98 710.38,-112.19 709.49,-105.24"/>
</a>
</g>
</g>
<!-- Node18 -->
<g id="Node000018" class="node">
<title>Node18</title>
<g id="a_Node000018"><a xlink:href="../../d3/de9/class_translator_arabic.html" target="_top" xlink:title=" ">
<polygon fill="white" stroke="#666666" points="95,-19 0,-19 0,0 95,0 95,-19"/>
<text text-anchor="middle" x="47.5" y="-7" font-family="Helvetica,sans-Serif" font-size="10.00">TranslatorArabic</text>
</a>
</g>
</g>
<!-- Node17&#45;&gt;Node18 -->
<g id="edge17_Node000017_Node000018" class="edge">
<title>Node17&#45;&gt;Node18</title>
<g id="a_edge17_Node000017_Node000018"><a xlink:title=" ">
<path fill="none" stroke="#63b8ff" d="M197.72,-52.18C162,-42.27 110.87,-28.08 78.43,-19.08"/>
<polygon fill="#63b8ff" stroke="#63b8ff" points="197.24,-55.68 207.81,-54.98 199.11,-48.94 197.24,-55.68"/>
</a>
</g>
</g>
<!-- Node19 -->
<g id="Node000019" class="node">
<title>Node19</title>
<g id="a_Node000019"><a xlink:href="../../dc/d53/class_translator_lithuanian.html" target="_top" xlink:title=" ">
<polygon fill="white" stroke="#666666" points="229.5,-19 113.5,-19 113.5,0 229.5,0 229.5,-19"/>
<text text-anchor="middle" x="171.5" y="-7" font-family="Helvetica,sans-Serif" font-size="10.00">TranslatorLithuanian</text>
</a>
</g>
</g>
<!-- Node17&#45;&gt;Node19 -->
<g id="edge18_Node000017_Node000019" class="edge">
<title>Node17&#45;&gt;Node19</title>
<g id="a_edge18_Node000017_Node000019"><a xlink:title=" ">
<path fill="none" stroke="#63b8ff" d="M219.67,-48.6C207.66,-39.11 192.53,-27.13 182.46,-19.17"/>
<polygon fill="#63b8ff" stroke="#63b8ff" points="217.72,-51.53 227.74,-54.98 222.06,-46.04 217.72,-51.53"/>
</a>
</g>
</g>
<!-- Node20 -->
<g id="Node000020" class="node">
<title>Node20</title>
<g id="a_Node000020"><a xlink:href="../../dd/d38/class_translator_norwegian.html" target="_top" xlink:title=" ">
<polygon fill="white" stroke="#666666" points="365,-19 248,-19 248,0 365,0 365,-19"/>
<text text-anchor="middle" x="306.5" y="-7" font-family="Helvetica,sans-Serif" font-size="10.00">TranslatorNorwegian</text>
</a>
</g>
</g>
<!-- Node17&#45;&gt;Node20 -->
<g id="edge19_Node000017_Node000020" class="edge">
<title>Node17&#45;&gt;Node20</title>
<g id="a_edge19_Node000017_Node000020"><a xlink:title=" ">
<path fill="none" stroke="#63b8ff" d="M257.62,-48.6C269.8,-39.11 285.16,-27.13 295.38,-19.17"/>
<polygon fill="#63b8ff" stroke="#63b8ff" points="255.16,-46.08 249.43,-54.98 259.46,-51.6 255.16,-46.08"/>
</a>
</g>
</g>
<!-- Node21 -->
<g id="Node000021" class="node">
<title>Node21</title>
<g id="a_Node000021"><a xlink:href="../../dd/d0b/class_translator_slovene.html" target="_top" xlink:title=" ">
<polygon fill="white" stroke="#666666" points="487.5,-19 383.5,-19 383.5,0 487.5,0 487.5,-19"/>
<text text-anchor="middle" x="435.5" y="-7" font-family="Helvetica,sans-Serif" font-size="10.00">TranslatorSlovene</text>
</a>
</g>
</g>
<!-- Node17&#45;&gt;Node21 -->
<g id="edge20_Node000017_Node000021" class="edge">
<title>Node17&#45;&gt;Node21</title>
<g id="a_edge20_Node000017_Node000021"><a xlink:title=" ">
<path fill="none" stroke="#63b8ff" d="M280.09,-52.31C316.95,-42.39 370,-28.12 403.6,-19.08"/>
<polygon fill="#63b8ff" stroke="#63b8ff" points="278.9,-49.01 270.15,-54.98 280.72,-55.77 278.9,-49.01"/>
</a>
</g>
</g>
</g>
</svg>

<g id="navigator" transform="translate(0 0)" fill="#404254">
  <rect fill="#f2f5e9" fill-opacity="0.5" stroke="#606060" stroke-width=".5" x="0" y="0" width="60" height="60"/>
  <use id="zoomplus" xlink:href="#zoomPlus" x="17" y="9" onmousedown="handleZoom(evt,'in')"/>
  <use id="zoomminus" xlink:href="#zoomMin" x="42" y="9" onmousedown="handleZoom(evt,'out')"/>
  <use id="reset" xlink:href="#resetDef" x="30" y="36" onmousedown="handleReset()"/>
   <use id="arrowup" xlink:href="#arrowUp" x="0" y="0" onmousedown="handlePan(0,-1)"/>
  <use id="arrowright" xlink:href="#arrowRight" x="0" y="0" onmousedown="handlePan(1,0)"/>
  <use id="arrowdown" xlink:href="#arrowDown" x="0" y="0" onmousedown="handlePan(0,1)"/>
  <use id="arrowleft" xlink:href="#arrowLeft" x="0" y="0" onmousedown="handlePan(-1,0)"/>
</g>
<svg viewBox="0 0 15 15" width="100%" height="30px" preserveAspectRatio="xMaxYMin meet">
 <g id="arrow_out" transform="scale(0.3 0.3)">
  <a xlink:href="class_translator_adapter__1__10__0__inherit__graph_org.svg" target="_base">
   <rect id="button" ry="5" rx="5" y="6" x="6" height="38" width="38"
        fill="#f2f5e9" fill-opacity="0.5" stroke="#606060" stroke-width="1.0"/>
   <path id="arrow"
     d="M 11.500037,31.436501 C 11.940474,20.09759 22.043105,11.32322 32.158766,21.979434 L 37.068811,17.246167 C 37.068811,17.246167 37.088388,32 37.088388,32 L 22.160133,31.978069 C 22.160133,31.978069 26.997745,27.140456 26.997745,27.140456 C 18.528582,18.264221 13.291696,25.230495 11.500037,31.436501 z"
     style="fill:#404040;"/>
  </a>
 </g>
</svg>

<style type='text/css'>
<![CDATA[
[data-mouse-over-selected='false'] { opacity: 0.7; }
[data-mouse-over-selected='true']  { opacity: 1.0; }
]]>
</style>
<script type="application/ecmascript"><![CDATA[
document.addEventListener('DOMContentLoaded', (event) => {
  highlightEdges();
  highlightAdjacentNodes();
});
]]></script>
</svg>
