<?xml version="1.0" encoding="UTF-8" standalone="no"?>
<!DOCTYPE svg PUBLIC "-//W3C//DTD SVG 1.1//EN"
 "http://www.w3.org/Graphics/SVG/1.1/DTD/svg11.dtd">
<!-- Generated by graphviz version 2.43.0 (0)
 -->
<!-- Title: DocSeparator Pages: 1 -->
<svg width="1286pt" height="351pt"
 viewBox="0.00 0.00 1286.00 351.00" xmlns="http://www.w3.org/2000/svg" xmlns:xlink="http://www.w3.org/1999/xlink">
<g id="graph0" class="graph" transform="scale(1 1) rotate(0) translate(4 347)">
<title>DocSeparator</title>
<!-- Node1 -->
<g id="Node000001" class="node">
<title>Node1</title>
<g id="a_Node000001"><a xlink:title="Node representing a separator.">
<polygon fill="#999999" stroke="#666666" points="1278,-42.5 1195,-42.5 1195,-23.5 1278,-23.5 1278,-42.5"/>
<text text-anchor="middle" x="1236.5" y="-30.5" font-family="Helvetica,sans-Serif" font-size="10.00">DocSeparator</text>
</a>
</g>
</g>
<!-- Node2 -->
<g id="Node000002" class="node">
<title>Node2</title>
<g id="a_Node000002"><a xlink:href="../../d9/d0e/class_doc_node.html" target="_top" xlink:title="Abstract node interface with type information.">
<polygon fill="white" stroke="#666666" points="1158,-116.5 1097,-116.5 1097,-97.5 1158,-97.5 1158,-116.5"/>
<text text-anchor="middle" x="1127.5" y="-104.5" font-family="Helvetica,sans-Serif" font-size="10.00">DocNode</text>
</a>
</g>
</g>
<!-- Node2&#45;&gt;Node1 -->
<g id="edge1_Node000001_Node000002" class="edge">
<title>Node2&#45;&gt;Node1</title>
<g id="a_edge1_Node000001_Node000002"><a xlink:title=" ">
<path fill="none" stroke="#63b8ff" d="M1150.93,-91.49C1172.22,-76.76 1203.56,-55.09 1221.51,-42.68"/>
<polygon fill="#63b8ff" stroke="#63b8ff" points="1148.72,-88.76 1142.49,-97.33 1152.7,-94.52 1148.72,-88.76"/>
</a>
</g>
</g>
<!-- Node3 -->
<g id="Node000003" class="node">
<title>Node3</title>
<g id="a_Node000003"><a xlink:href="../../da/d02/class_doc_parser.html" target="_top" xlink:title=" ">
<polygon fill="white" stroke="#666666" points="1012,-185.5 947,-185.5 947,-166.5 1012,-166.5 1012,-185.5"/>
<text text-anchor="middle" x="979.5" y="-173.5" font-family="Helvetica,sans-Serif" font-size="10.00">DocParser</text>
</a>
</g>
</g>
<!-- Node3&#45;&gt;Node2 -->
<g id="edge2_Node000002_Node000003" class="edge">
<title>Node3&#45;&gt;Node2</title>
<g id="a_edge2_Node000002_Node000003"><a xlink:title=" ">
<path fill="none" stroke="#9a32cd" stroke-dasharray="5,2" d="M1009.93,-162.09C1038.6,-148.54 1081.39,-128.32 1106.37,-116.51"/>
<polygon fill="#9a32cd" stroke="#9a32cd" points="1008.35,-158.97 1000.8,-166.41 1011.34,-165.3 1008.35,-158.97"/>
</a>
</g>
<text text-anchor="middle" x="1054.5" y="-155" font-family="Helvetica,sans-Serif" font-size="10.00" fill="grey"> m_parser</text>
</g>
<!-- Node4 -->
<g id="Node000004" class="node">
<title>Node4</title>
<g id="a_Node000004"><a xlink:href="../../de/dad/class_i_doc_parser.html" target="_top" xlink:title="opaque parser interface">
<polygon fill="white" stroke="#666666" points="844,-241.5 776,-241.5 776,-222.5 844,-222.5 844,-241.5"/>
<text text-anchor="middle" x="810" y="-229.5" font-family="Helvetica,sans-Serif" font-size="10.00">IDocParser</text>
</a>
</g>
</g>
<!-- Node4&#45;&gt;Node3 -->
<g id="edge3_Node000003_Node000004" class="edge">
<title>Node4&#45;&gt;Node3</title>
<g id="a_edge3_Node000003_Node000004"><a xlink:title=" ">
<path fill="none" stroke="#63b8ff" d="M854.13,-222.97C876.78,-217.66 904.78,-210.18 929,-201 940.16,-196.77 952.13,-190.77 961.49,-185.71"/>
<polygon fill="#63b8ff" stroke="#63b8ff" points="853.1,-219.62 844.14,-225.26 854.66,-226.44 853.1,-219.62"/>
</a>
</g>
</g>
<!-- Node5 -->
<g id="Node000005" class="node">
<title>Node5</title>
<g id="a_Node000005"><a xlink:href="../../d8/d7d/struct_doc_parser_context.html" target="_top" xlink:title="Parser&#39;s context to store all global variables.">
<polygon fill="white" stroke="#666666" points="862,-204.5 758,-204.5 758,-185.5 862,-185.5 862,-204.5"/>
<text text-anchor="middle" x="810" y="-192.5" font-family="Helvetica,sans-Serif" font-size="10.00">DocParserContext</text>
</a>
</g>
</g>
<!-- Node5&#45;&gt;Node3 -->
<g id="edge4_Node000003_Node000005" class="edge">
<title>Node5&#45;&gt;Node3</title>
<g id="a_edge4_Node000003_Node000005"><a xlink:title=" ">
<path fill="none" stroke="#9a32cd" stroke-dasharray="5,2" d="M872.42,-188.03C897.68,-185.17 925.88,-181.97 946.84,-179.59"/>
<polygon fill="#9a32cd" stroke="#9a32cd" points="871.71,-184.59 862.17,-189.2 872.5,-191.55 871.71,-184.59"/>
</a>
</g>
<text text-anchor="middle" x="904.5" y="-189" font-family="Helvetica,sans-Serif" font-size="10.00" fill="grey"> context</text>
</g>
<!-- Node6 -->
<g id="Node000006" class="node">
<title>Node6</title>
<g id="a_Node000006"><a xlink:href="../../d5/dcc/class_definition.html" target="_top" xlink:title="The common base class of all entity definitions found in the sources.">
<polygon fill="white" stroke="#666666" points="292.5,-340.5 228.5,-340.5 228.5,-321.5 292.5,-321.5 292.5,-340.5"/>
<text text-anchor="middle" x="260.5" y="-328.5" font-family="Helvetica,sans-Serif" font-size="10.00">Definition</text>
</a>
</g>
</g>
<!-- Node6&#45;&gt;Node5 -->
<g id="edge5_Node000005_Node000006" class="edge">
<title>Node6&#45;&gt;Node5</title>
<g id="a_edge5_Node000005_Node000006"><a xlink:title=" ">
<path fill="none" stroke="#9a32cd" stroke-dasharray="5,2" d="M302.77,-333.45C372.6,-336.76 518.26,-340.05 639,-319 685.01,-310.98 707.76,-323.79 740,-290 763.96,-264.88 735.02,-240.02 758,-214 761.44,-210.1 765.76,-207.01 770.41,-204.54"/>
<polygon fill="#9a32cd" stroke="#9a32cd" points="302.79,-329.95 292.63,-332.94 302.44,-336.94 302.79,-329.95"/>
</a>
</g>
<text text-anchor="middle" x="579.5" y="-335" font-family="Helvetica,sans-Serif" font-size="10.00" fill="grey"> scope</text>
</g>
<!-- Node12 -->
<g id="Node000012" class="node">
<title>Node12</title>
<g id="a_Node000012"><a xlink:href="../../da/d09/class_member_def.html" target="_top" xlink:title="A model of a class/file/namespace member symbol.">
<polygon fill="white" stroke="#666666" points="616.5,-309.5 542.5,-309.5 542.5,-290.5 616.5,-290.5 616.5,-309.5"/>
<text text-anchor="middle" x="579.5" y="-297.5" font-family="Helvetica,sans-Serif" font-size="10.00">MemberDef</text>
</a>
</g>
</g>
<!-- Node6&#45;&gt;Node12 -->
<g id="edge12_Node000012_Node000006" class="edge">
<title>Node6&#45;&gt;Node12</title>
<g id="a_edge12_Node000012_Node000006"><a xlink:title=" ">
<path fill="none" stroke="#63b8ff" d="M303.04,-326.94C365.57,-320.82 482.84,-309.35 542.16,-303.55"/>
<polygon fill="#63b8ff" stroke="#63b8ff" points="302.37,-323.49 292.76,-327.94 303.06,-330.45 302.37,-323.49"/>
</a>
</g>
</g>
<!-- Node7 -->
<g id="Node000007" class="node">
<title>Node7</title>
<g id="a_Node000007"><a xlink:href="../../d9/d45/class_q_c_string.html" target="_top" xlink:title="This is an alternative implementation of QCString.">
<polygon fill="white" stroke="#666666" points="290,-42.5 231,-42.5 231,-23.5 290,-23.5 290,-42.5"/>
<text text-anchor="middle" x="260.5" y="-30.5" font-family="Helvetica,sans-Serif" font-size="10.00">QCString</text>
</a>
</g>
</g>
<!-- Node7&#45;&gt;Node1 -->
<g id="edge18_Node000001_Node000007" class="edge">
<title>Node7&#45;&gt;Node1</title>
<g id="a_edge18_Node000001_Node000007"><a xlink:title=" ">
<path fill="none" stroke="#9a32cd" stroke-dasharray="5,2" d="M300.15,-24.9C318.25,-21.37 340.15,-17.49 360,-15 456.58,-2.9 481.16,0 578.5,0 578.5,0 578.5,0 1128.5,0 1160.58,0 1195.75,-13.71 1216.71,-23.46"/>
<polygon fill="#9a32cd" stroke="#9a32cd" points="299.37,-21.49 290.25,-26.87 300.74,-28.35 299.37,-21.49"/>
</a>
</g>
<text text-anchor="middle" x="904.5" y="-3" font-family="Helvetica,sans-Serif" font-size="10.00" fill="grey"> m_chars</text>
</g>
<!-- Node7&#45;&gt;Node5 -->
<g id="edge6_Node000005_Node000007" class="edge">
<title>Node7&#45;&gt;Node5</title>
<g id="a_edge6_Node000005_Node000007"><a xlink:title=" ">
<path fill="none" stroke="#9a32cd" stroke-dasharray="5,2" d="M274.79,-50.6C291.89,-71.74 323.75,-106.31 360,-122 474.18,-171.43 516.68,-122.22 639,-145 690.87,-154.66 749.54,-173.82 782.62,-185.41"/>
<polygon fill="#9a32cd" stroke="#9a32cd" points="277.52,-48.41 268.59,-42.71 272.02,-52.74 277.52,-48.41"/>
</a>
</g>
<text text-anchor="middle" x="579.5" y="-225" font-family="Helvetica,sans-Serif" font-size="10.00" fill="grey"> context</text>
<text text-anchor="middle" x="579.5" y="-214" font-family="Helvetica,sans-Serif" font-size="10.00" fill="grey">exampleName</text>
<text text-anchor="middle" x="579.5" y="-203" font-family="Helvetica,sans-Serif" font-size="10.00" fill="grey">fileName</text>
<text text-anchor="middle" x="579.5" y="-192" font-family="Helvetica,sans-Serif" font-size="10.00" fill="grey">includeFileName</text>
<text text-anchor="middle" x="579.5" y="-181" font-family="Helvetica,sans-Serif" font-size="10.00" fill="grey">includeFileText</text>
<text text-anchor="middle" x="579.5" y="-170" font-family="Helvetica,sans-Serif" font-size="10.00" fill="grey">prefix</text>
<text text-anchor="middle" x="579.5" y="-159" font-family="Helvetica,sans-Serif" font-size="10.00" fill="grey">relPath</text>
<text text-anchor="middle" x="579.5" y="-148" font-family="Helvetica,sans-Serif" font-size="10.00" fill="grey">searchUrl</text>
</g>
<!-- Node13 -->
<g id="Node000013" class="node">
<title>Node13</title>
<g id="a_Node000013"><a xlink:href="../../d6/df4/struct_token_info.html" target="_top" xlink:title="Data associated with a token used by the comment block parser.">
<polygon fill="white" stroke="#666666" points="611,-99.5 548,-99.5 548,-80.5 611,-80.5 611,-99.5"/>
<text text-anchor="middle" x="579.5" y="-87.5" font-family="Helvetica,sans-Serif" font-size="10.00">TokenInfo</text>
</a>
</g>
</g>
<!-- Node7&#45;&gt;Node13 -->
<g id="edge14_Node000013_Node000007" class="edge">
<title>Node7&#45;&gt;Node13</title>
<g id="a_edge14_Node000013_Node000007"><a xlink:title=" ">
<path fill="none" stroke="#9a32cd" stroke-dasharray="5,2" d="M300.25,-25.98C348.78,-18.8 433.83,-11.56 502,-34 529.83,-43.16 555.94,-66.66 569.27,-80.12"/>
<polygon fill="#9a32cd" stroke="#9a32cd" points="299.52,-22.56 290.18,-27.55 300.6,-29.47 299.52,-22.56"/>
</a>
</g>
<text text-anchor="middle" x="431" y="-114" font-family="Helvetica,sans-Serif" font-size="10.00" fill="grey"> attribsStr</text>
<text text-anchor="middle" x="431" y="-103" font-family="Helvetica,sans-Serif" font-size="10.00" fill="grey">chars</text>
<text text-anchor="middle" x="431" y="-92" font-family="Helvetica,sans-Serif" font-size="10.00" fill="grey">name</text>
<text text-anchor="middle" x="431" y="-81" font-family="Helvetica,sans-Serif" font-size="10.00" fill="grey">sectionId</text>
<text text-anchor="middle" x="431" y="-70" font-family="Helvetica,sans-Serif" font-size="10.00" fill="grey">simpleSectName</text>
<text text-anchor="middle" x="431" y="-59" font-family="Helvetica,sans-Serif" font-size="10.00" fill="grey">simpleSectText</text>
<text text-anchor="middle" x="431" y="-48" font-family="Helvetica,sans-Serif" font-size="10.00" fill="grey">text</text>
<text text-anchor="middle" x="431" y="-37" font-family="Helvetica,sans-Serif" font-size="10.00" fill="grey">verb</text>
</g>
<!-- Node8 -->
<g id="Node000008" class="node">
<title>Node8</title>
<g id="a_Node000008"><a xlink:href="../../d9/d82/class_iterable_stack.html" target="_top" xlink:title=" ">
<polygon fill="white" stroke="#666666" points="639,-272 520,-272 520,-242 639,-242 639,-272"/>
<text text-anchor="start" x="528" y="-260" font-family="Helvetica,sans-Serif" font-size="10.00">IterableStack&lt; const</text>
<text text-anchor="middle" x="579.5" y="-249" font-family="Helvetica,sans-Serif" font-size="10.00"> DocNodeVariant * &gt;</text>
</a>
</g>
</g>
<!-- Node8&#45;&gt;Node5 -->
<g id="edge7_Node000005_Node000008" class="edge">
<title>Node8&#45;&gt;Node5</title>
<g id="a_edge7_Node000005_Node000008"><a xlink:title=" ">
<path fill="none" stroke="#9a32cd" stroke-dasharray="5,2" d="M623.21,-238.08C634.09,-233.71 645.86,-229.36 657,-226 690,-216.04 728,-208.29 757.75,-203.03"/>
<polygon fill="#9a32cd" stroke="#9a32cd" points="621.83,-234.86 613.91,-241.9 624.49,-241.34 621.83,-234.86"/>
</a>
</g>
<text text-anchor="middle" x="698.5" y="-240" font-family="Helvetica,sans-Serif" font-size="10.00" fill="grey"> initialStyleStack</text>
<text text-anchor="middle" x="698.5" y="-229" font-family="Helvetica,sans-Serif" font-size="10.00" fill="grey">styleStack</text>
</g>
<!-- Node9 -->
<g id="Node000009" class="node">
<title>Node9</title>
<g id="a_Node000009"><a xlink:title=" ">
<polygon fill="white" stroke="#666666" points="336,-246.5 185,-246.5 185,-205.5 336,-205.5 336,-246.5"/>
<text text-anchor="start" x="193" y="-234.5" font-family="Helvetica,sans-Serif" font-size="10.00">std::stack&lt; const DocNode</text>
<text text-anchor="start" x="193" y="-223.5" font-family="Helvetica,sans-Serif" font-size="10.00">Variant *, std::deque&lt;const</text>
<text text-anchor="middle" x="260.5" y="-212.5" font-family="Helvetica,sans-Serif" font-size="10.00"> DocNodeVariant *&gt; &gt;</text>
</a>
</g>
</g>
<!-- Node9&#45;&gt;Node8 -->
<g id="edge8_Node000008_Node000009" class="edge">
<title>Node9&#45;&gt;Node8</title>
<g id="a_edge8_Node000008_Node000009"><a xlink:title=" ">
<path fill="none" stroke="#63b8ff" d="M346.28,-234.29C401.12,-239.65 471.12,-246.5 519.86,-251.27"/>
<polygon fill="#63b8ff" stroke="#63b8ff" points="346.52,-230.8 336.22,-233.31 345.84,-237.76 346.52,-230.8"/>
</a>
</g>
</g>
<!-- Node10 -->
<g id="Node000010" class="node">
<title>Node10</title>
<g id="a_Node000010"><a xlink:href="../../d9/d82/class_iterable_stack.html" target="_top" xlink:title=" ">
<polygon fill="white" stroke="#666666" points="342,-283.5 179,-283.5 179,-264.5 342,-264.5 342,-283.5"/>
<text text-anchor="middle" x="260.5" y="-271.5" font-family="Helvetica,sans-Serif" font-size="10.00">IterableStack&lt; T, Container &gt;</text>
</a>
</g>
</g>
<!-- Node10&#45;&gt;Node8 -->
<g id="edge9_Node000008_Node000010" class="edge">
<title>Node10&#45;&gt;Node8</title>
<g id="a_edge9_Node000008_Node000010"><a xlink:title=" ">
<path fill="none" stroke="orange" stroke-dasharray="5,2" d="M352.55,-269.12C406.37,-266.23 472.95,-262.66 519.85,-260.15"/>
<polygon fill="orange" stroke="orange" points="352.11,-265.64 342.31,-269.67 352.49,-272.63 352.11,-265.64"/>
</a>
</g>
<text text-anchor="middle" x="431" y="-271" font-family="Helvetica,sans-Serif" font-size="10.00" fill="grey"> &lt; const DocNodeVariant * &gt;</text>
</g>
<!-- Node11 -->
<g id="Node000011" class="node">
<title>Node11</title>
<g id="a_Node000011"><a xlink:title=" ">
<polygon fill="white" stroke="#666666" points="122,-289 20,-289 20,-259 122,-259 122,-289"/>
<text text-anchor="start" x="28" y="-277" font-family="Helvetica,sans-Serif" font-size="10.00">std::stack&lt; T, std</text>
<text text-anchor="middle" x="71" y="-266" font-family="Helvetica,sans-Serif" font-size="10.00">::deque&lt; T &gt; &gt;</text>
</a>
</g>
</g>
<!-- Node11&#45;&gt;Node10 -->
<g id="edge10_Node000010_Node000011" class="edge">
<title>Node11&#45;&gt;Node10</title>
<g id="a_edge10_Node000010_Node000011"><a xlink:title=" ">
<path fill="none" stroke="#63b8ff" d="M132.26,-274C147.04,-274 163.11,-274 178.69,-274"/>
<polygon fill="#63b8ff" stroke="#63b8ff" points="132.25,-270.5 122.25,-274 132.25,-277.5 132.25,-270.5"/>
</a>
</g>
</g>
<!-- Node12&#45;&gt;Node5 -->
<g id="edge11_Node000005_Node000012" class="edge">
<title>Node12&#45;&gt;Node5</title>
<g id="a_edge11_Node000005_Node000012"><a xlink:title=" ">
<path fill="none" stroke="#9a32cd" stroke-dasharray="5,2" d="M619.83,-287.24C626.24,-285.15 632.8,-283.02 639,-281 683.9,-266.37 703.88,-278.42 740,-248 753.08,-236.99 745.15,-225.28 758,-214 762.4,-210.14 767.67,-207.03 773.11,-204.54"/>
<polygon fill="#9a32cd" stroke="#9a32cd" points="618.39,-284.02 609.96,-290.44 620.56,-290.68 618.39,-284.02"/>
</a>
</g>
<text text-anchor="middle" x="698.5" y="-278" font-family="Helvetica,sans-Serif" font-size="10.00" fill="grey"> memberDef</text>
</g>
<!-- Node13&#45;&gt;Node5 -->
<g id="edge13_Node000005_Node000013" class="edge">
<title>Node13&#45;&gt;Node5</title>
<g id="a_edge13_Node000005_Node000013"><a xlink:title=" ">
<path fill="none" stroke="#9a32cd" stroke-dasharray="5,2" d="M621.3,-83.84C656.88,-80.87 707.73,-82.83 740,-111 762.9,-131 737.3,-154.73 758,-177 761.2,-180.44 765.09,-183.22 769.29,-185.47"/>
<polygon fill="#9a32cd" stroke="#9a32cd" points="620.84,-80.36 611.24,-84.84 621.54,-87.33 620.84,-80.36"/>
</a>
</g>
<text text-anchor="middle" x="698.5" y="-114" font-family="Helvetica,sans-Serif" font-size="10.00" fill="grey"> token</text>
</g>
<!-- Node14 -->
<g id="Node000014" class="node">
<title>Node14</title>
<g id="a_Node000014"><a xlink:href="../../db/d4d/class_html_attrib_list.html" target="_top" xlink:title="Class representing a list of HTML attributes.">
<polygon fill="white" stroke="#666666" points="303,-178.5 218,-178.5 218,-159.5 303,-159.5 303,-178.5"/>
<text text-anchor="middle" x="260.5" y="-166.5" font-family="Helvetica,sans-Serif" font-size="10.00">HtmlAttribList</text>
</a>
</g>
</g>
<!-- Node14&#45;&gt;Node13 -->
<g id="edge15_Node000013_Node000014" class="edge">
<title>Node14&#45;&gt;Node13</title>
<g id="a_edge15_Node000013_Node000014"><a xlink:title=" ">
<path fill="none" stroke="#9a32cd" stroke-dasharray="5,2" d="M313.57,-165.86C363.46,-161.44 440.1,-150.9 502,-126 510.92,-122.41 511.51,-118.51 520,-114 530.18,-108.59 541.85,-103.58 552.07,-99.55"/>
<polygon fill="#9a32cd" stroke="#9a32cd" points="313.02,-162.39 303.34,-166.71 313.6,-169.37 313.02,-162.39"/>
</a>
</g>
<text text-anchor="middle" x="431" y="-163" font-family="Helvetica,sans-Serif" font-size="10.00" fill="grey"> attribs</text>
</g>
<!-- Node15 -->
<g id="Node000015" class="node">
<title>Node15</title>
<g id="a_Node000015"><a xlink:title=" ">
<polygon fill="white" stroke="#666666" points="142,-178.5 0,-178.5 0,-159.5 142,-159.5 142,-178.5"/>
<text text-anchor="middle" x="71" y="-166.5" font-family="Helvetica,sans-Serif" font-size="10.00">std::vector&lt; HtmlAttrib &gt;</text>
</a>
</g>
</g>
<!-- Node15&#45;&gt;Node14 -->
<g id="edge16_Node000014_Node000015" class="edge">
<title>Node15&#45;&gt;Node14</title>
<g id="a_edge16_Node000014_Node000015"><a xlink:title=" ">
<path fill="none" stroke="#63b8ff" d="M152.35,-169C174.9,-169 198.5,-169 217.8,-169"/>
<polygon fill="#63b8ff" stroke="#63b8ff" points="152.08,-165.5 142.08,-169 152.08,-172.5 152.08,-165.5"/>
</a>
</g>
</g>
<!-- Node16 -->
<g id="Node000016" class="node">
<title>Node16</title>
<g id="a_Node000016"><a xlink:href="../../d1/d7f/class_doc_tokenizer.html" target="_top" xlink:title=" ">
<polygon fill="white" stroke="#666666" points="850.5,-167.5 769.5,-167.5 769.5,-148.5 850.5,-148.5 850.5,-167.5"/>
<text text-anchor="middle" x="810" y="-155.5" font-family="Helvetica,sans-Serif" font-size="10.00">DocTokenizer</text>
</a>
</g>
</g>
<!-- Node16&#45;&gt;Node3 -->
<g id="edge17_Node000003_Node000016" class="edge">
<title>Node16&#45;&gt;Node3</title>
<g id="a_edge17_Node000003_Node000016"><a xlink:title=" ">
<path fill="none" stroke="#9a32cd" stroke-dasharray="5,2" d="M860.65,-156.31C881.83,-156.35 906.75,-157.41 929,-161 936.54,-162.21 944.52,-164.28 951.83,-166.49"/>
<polygon fill="#9a32cd" stroke="#9a32cd" points="860.56,-152.81 850.58,-156.37 860.6,-159.81 860.56,-152.81"/>
</a>
</g>
<text text-anchor="middle" x="904.5" y="-164" font-family="Helvetica,sans-Serif" font-size="10.00" fill="grey"> tokenizer</text>
</g>
</g>
</svg>
