<?xml version="1.0" encoding="UTF-8" standalone="no"?>
<!DOCTYPE svg PUBLIC "-//W3C//DTD SVG 1.1//EN"
 "http://www.w3.org/Graphics/SVG/1.1/DTD/svg11.dtd">
<!-- Generated by graphviz version 2.43.0 (0)
 -->
<!-- Title: PerlModDocVisitor Pages: 1 -->
<svg width="259pt" height="159pt"
 viewBox="0.00 0.00 259.00 159.00" xmlns="http://www.w3.org/2000/svg" xmlns:xlink="http://www.w3.org/1999/xlink">
<g id="graph0" class="graph" transform="scale(1 1) rotate(0) translate(4 155)">
<title>PerlModDocVisitor</title>
<!-- Node1 -->
<g id="Node000001" class="node">
<title>Node1</title>
<g id="a_Node000001"><a xlink:title="Concrete visitor implementation for PerlMod output.">
<polygon fill="#999999" stroke="#666666" points="183,-19 76,-19 76,0 183,0 183,-19"/>
<text text-anchor="middle" x="129.5" y="-7" font-family="Helvetica,sans-Serif" font-size="10.00">PerlModDocVisitor</text>
</a>
</g>
</g>
<!-- Node2 -->
<g id="Node000002" class="node">
<title>Node2</title>
<g id="a_Node000002"><a xlink:href="../../d0/d78/class_doc_visitor.html" target="_top" xlink:title="Helper base class for functionality shared by all visitors.">
<polygon fill="white" stroke="#666666" points="67,-85 0,-85 0,-66 67,-66 67,-85"/>
<text text-anchor="middle" x="33.5" y="-73" font-family="Helvetica,sans-Serif" font-size="10.00">DocVisitor</text>
</a>
</g>
</g>
<!-- Node2&#45;&gt;Node1 -->
<g id="edge1_Node000001_Node000002" class="edge">
<title>Node2&#45;&gt;Node1</title>
<g id="a_edge1_Node000001_Node000002"><a xlink:title=" ">
<path fill="none" stroke="#63b8ff" d="M54.98,-60.18C73.84,-47.61 100.66,-29.73 116.45,-19.2"/>
<polygon fill="#63b8ff" stroke="#63b8ff" points="52.83,-57.41 46.45,-65.87 56.71,-63.23 52.83,-57.41"/>
</a>
</g>
</g>
<!-- Node3 -->
<g id="Node000003" class="node">
<title>Node3</title>
<g id="a_Node000003"><a xlink:href="../../d5/d6c/class_perl_mod_output.html" target="_top" xlink:title=" ">
<polygon fill="white" stroke="#666666" points="174,-85 85,-85 85,-66 174,-66 174,-85"/>
<text text-anchor="middle" x="129.5" y="-73" font-family="Helvetica,sans-Serif" font-size="10.00">PerlModOutput</text>
</a>
</g>
</g>
<!-- Node3&#45;&gt;Node1 -->
<g id="edge2_Node000001_Node000003" class="edge">
<title>Node3&#45;&gt;Node1</title>
<g id="a_edge2_Node000001_Node000003"><a xlink:title=" ">
<path fill="none" stroke="#9a32cd" stroke-dasharray="5,2" d="M129.5,-55.58C129.5,-43.63 129.5,-28.72 129.5,-19.41"/>
<polygon fill="#9a32cd" stroke="#9a32cd" points="126,-55.87 129.5,-65.87 133,-55.87 126,-55.87"/>
</a>
</g>
<text text-anchor="middle" x="154.5" y="-40" font-family="Helvetica,sans-Serif" font-size="10.00" fill="grey"> m_output</text>
</g>
<!-- Node4 -->
<g id="Node000004" class="node">
<title>Node4</title>
<g id="a_Node000004"><a xlink:href="../../d4/de6/class_perl_mod_output_stream.html" target="_top" xlink:title=" ">
<polygon fill="white" stroke="#666666" points="192,-151 67,-151 67,-132 192,-132 192,-151"/>
<text text-anchor="middle" x="129.5" y="-139" font-family="Helvetica,sans-Serif" font-size="10.00">PerlModOutputStream</text>
</a>
</g>
</g>
<!-- Node4&#45;&gt;Node3 -->
<g id="edge3_Node000003_Node000004" class="edge">
<title>Node4&#45;&gt;Node3</title>
<g id="a_edge3_Node000003_Node000004"><a xlink:title=" ">
<path fill="none" stroke="#9a32cd" stroke-dasharray="5,2" d="M129.5,-121.58C129.5,-109.63 129.5,-94.72 129.5,-85.41"/>
<polygon fill="#9a32cd" stroke="#9a32cd" points="126,-121.87 129.5,-131.87 133,-121.87 126,-121.87"/>
</a>
</g>
<text text-anchor="middle" x="156" y="-106" font-family="Helvetica,sans-Serif" font-size="10.00" fill="grey"> m_stream</text>
</g>
<!-- Node5 -->
<g id="Node000005" class="node">
<title>Node5</title>
<g id="a_Node000005"><a xlink:href="../../d9/d45/class_q_c_string.html" target="_top" xlink:title="This is an alternative implementation of QCString.">
<polygon fill="white" stroke="#666666" points="251,-85 192,-85 192,-66 251,-66 251,-85"/>
<text text-anchor="middle" x="221.5" y="-73" font-family="Helvetica,sans-Serif" font-size="10.00">QCString</text>
</a>
</g>
</g>
<!-- Node5&#45;&gt;Node1 -->
<g id="edge4_Node000001_Node000005" class="edge">
<title>Node5&#45;&gt;Node1</title>
<g id="a_edge4_Node000001_Node000005"><a xlink:title=" ">
<path fill="none" stroke="#9a32cd" stroke-dasharray="5,2" d="M207.27,-58.25C200.53,-51.16 192.08,-43.09 183.5,-37 173.45,-29.87 161.19,-23.68 150.9,-19.08"/>
<polygon fill="#9a32cd" stroke="#9a32cd" points="204.98,-60.93 214.31,-65.95 210.14,-56.21 204.98,-60.93"/>
</a>
</g>
<text text-anchor="middle" x="218.5" y="-40" font-family="Helvetica,sans-Serif" font-size="10.00" fill="grey"> m_other</text>
</g>
</g>
</svg>
