<?xml version="1.0" encoding="UTF-8" standalone="no"?>
<!DOCTYPE svg PUBLIC "-//W3C//DTD SVG 1.1//EN"
 "http://www.w3.org/Graphics/SVG/1.1/DTD/svg11.dtd">
<!-- Generated by graphviz version 2.43.0 (0)
 -->
<!-- Title: fortrancodeYY_state Pages: 1 -->
<svg width="741pt" height="217pt"
 viewBox="0.00 0.00 740.75 217.00" xmlns="http://www.w3.org/2000/svg" xmlns:xlink="http://www.w3.org/1999/xlink">
<g id="graph0" class="graph" transform="scale(1 1) rotate(0) translate(4 213)">
<title>fortrancodeYY_state</title>
<!-- Node1 -->
<g id="Node000001" class="node">
<title>Node1</title>
<g id="a_Node000001"><a xlink:title=" ">
<polygon fill="#999999" stroke="#666666" points="392.25,-19 277.25,-19 277.25,0 392.25,0 392.25,-19"/>
<text text-anchor="middle" x="334.75" y="-7" font-family="Helvetica,sans-Serif" font-size="10.00">fortrancodeYY_state</text>
</a>
</g>
</g>
<!-- Node2 -->
<g id="Node000002" class="node">
<title>Node2</title>
<g id="a_Node000002"><a xlink:href="../../d9/d45/class_q_c_string.html" target="_top" xlink:title="This is an alternative implementation of QCString.">
<polygon fill="white" stroke="#666666" points="77.25,-203.5 18.25,-203.5 18.25,-184.5 77.25,-184.5 77.25,-203.5"/>
<text text-anchor="middle" x="47.75" y="-191.5" font-family="Helvetica,sans-Serif" font-size="10.00">QCString</text>
</a>
</g>
</g>
<!-- Node2&#45;&gt;Node1 -->
<g id="edge1_Node000001_Node000002" class="edge">
<title>Node2&#45;&gt;Node1</title>
<g id="a_edge1_Node000001_Node000002"><a xlink:title=" ">
<path fill="none" stroke="#9a32cd" stroke-dasharray="5,2" d="M34.02,-175.96C14.49,-149.56 -16.13,-98.42 10.75,-66 43.86,-26.08 193.27,-14.87 277.15,-11.72"/>
<polygon fill="#9a32cd" stroke="#9a32cd" points="31.49,-178.41 40.36,-184.2 37.03,-174.14 31.49,-178.41"/>
</a>
</g>
<text text-anchor="middle" x="47.75" y="-124" font-family="Helvetica,sans-Serif" font-size="10.00" fill="grey"> currentModule</text>
<text text-anchor="middle" x="47.75" y="-113" font-family="Helvetica,sans-Serif" font-size="10.00" fill="grey">docBlock</text>
<text text-anchor="middle" x="47.75" y="-102" font-family="Helvetica,sans-Serif" font-size="10.00" fill="grey">exampleFile</text>
<text text-anchor="middle" x="47.75" y="-91" font-family="Helvetica,sans-Serif" font-size="10.00" fill="grey">exampleName</text>
<text text-anchor="middle" x="47.75" y="-80" font-family="Helvetica,sans-Serif" font-size="10.00" fill="grey">fileName</text>
<text text-anchor="middle" x="47.75" y="-69" font-family="Helvetica,sans-Serif" font-size="10.00" fill="grey">str</text>
</g>
<!-- Node5 -->
<g id="Node000005" class="node">
<title>Node5</title>
<g id="a_Node000005"><a xlink:href="../../de/dd6/class_use_entry.html" target="_top" xlink:title="data of an use&#45;statement">
<polygon fill="white" stroke="#666666" points="155.25,-108.5 94.25,-108.5 94.25,-89.5 155.25,-89.5 155.25,-108.5"/>
<text text-anchor="middle" x="124.75" y="-96.5" font-family="Helvetica,sans-Serif" font-size="10.00">UseEntry</text>
</a>
</g>
</g>
<!-- Node2&#45;&gt;Node5 -->
<g id="edge5_Node000005_Node000002" class="edge">
<title>Node2&#45;&gt;Node5</title>
<g id="a_edge5_Node000005_Node000002"><a xlink:title=" ">
<path fill="none" stroke="#9a32cd" stroke-dasharray="5,2" d="M61.39,-176.53C77.85,-156.65 104.9,-123.98 117.67,-108.56"/>
<polygon fill="#9a32cd" stroke="#9a32cd" points="58.54,-174.48 54.86,-184.42 63.93,-178.95 58.54,-174.48"/>
</a>
</g>
<text text-anchor="middle" x="101.75" y="-153" font-family="Helvetica,sans-Serif" font-size="10.00" fill="grey"> module</text>
</g>
<!-- Node3 -->
<g id="Node000003" class="node">
<title>Node3</title>
<g id="a_Node000003"><a xlink:href="../../d2/d76/class_use_map.html" target="_top" xlink:title="module name &#45;&gt; list of ONLY/remote entries (module name = name of the module, which can be accessed v...">
<polygon fill="white" stroke="#666666" points="229.75,-108.5 173.75,-108.5 173.75,-89.5 229.75,-89.5 229.75,-108.5"/>
<text text-anchor="middle" x="201.75" y="-96.5" font-family="Helvetica,sans-Serif" font-size="10.00">UseMap</text>
</a>
</g>
</g>
<!-- Node3&#45;&gt;Node1 -->
<g id="edge2_Node000001_Node000003" class="edge">
<title>Node3&#45;&gt;Node1</title>
<g id="a_edge2_Node000001_Node000003"><a xlink:title=" ">
<path fill="none" stroke="#9a32cd" stroke-dasharray="5,2" d="M210.77,-80.15C218.54,-66.47 231,-48.1 246.75,-37 258.49,-28.73 272.85,-23 286.54,-19.04"/>
<polygon fill="#9a32cd" stroke="#9a32cd" points="207.6,-78.65 205.95,-89.11 213.77,-81.96 207.6,-78.65"/>
</a>
</g>
<text text-anchor="middle" x="280.25" y="-40" font-family="Helvetica,sans-Serif" font-size="10.00" fill="grey"> useMembers</text>
</g>
<!-- Node4 -->
<g id="Node000004" class="node">
<title>Node4</title>
<g id="a_Node000004"><a xlink:title=" ">
<polygon fill="white" stroke="#666666" points="262.75,-209 140.75,-209 140.75,-179 262.75,-179 262.75,-209"/>
<text text-anchor="start" x="148.75" y="-197" font-family="Helvetica,sans-Serif" font-size="10.00">std::map&lt; std::string,</text>
<text text-anchor="middle" x="201.75" y="-186" font-family="Helvetica,sans-Serif" font-size="10.00"> UseEntry &gt;</text>
</a>
</g>
</g>
<!-- Node4&#45;&gt;Node3 -->
<g id="edge3_Node000003_Node000004" class="edge">
<title>Node4&#45;&gt;Node3</title>
<g id="a_edge3_Node000003_Node000004"><a xlink:title=" ">
<path fill="none" stroke="#63b8ff" d="M201.75,-168.75C201.75,-149 201.75,-122.24 201.75,-108.67"/>
<polygon fill="#63b8ff" stroke="#63b8ff" points="198.25,-168.88 201.75,-178.88 205.25,-168.88 198.25,-168.88"/>
</a>
</g>
</g>
<!-- Node5&#45;&gt;Node1 -->
<g id="edge4_Node000001_Node000005" class="edge">
<title>Node5&#45;&gt;Node1</title>
<g id="a_edge4_Node000001_Node000005"><a xlink:title=" ">
<path fill="none" stroke="#9a32cd" stroke-dasharray="5,2" d="M136.48,-80.88C147.12,-66.76 164.11,-47.42 183.75,-37 212.32,-21.84 247.78,-15.1 277.16,-12.21"/>
<polygon fill="#9a32cd" stroke="#9a32cd" points="133.46,-79.1 130.45,-89.25 139.13,-83.19 133.46,-79.1"/>
</a>
</g>
<text text-anchor="middle" x="206.75" y="-40" font-family="Helvetica,sans-Serif" font-size="10.00" fill="grey"> useEntry</text>
</g>
<!-- Node6 -->
<g id="Node000006" class="node">
<title>Node6</title>
<g id="a_Node000006"><a xlink:href="../../db/d8e/class_output_code_list.html" target="_top" xlink:title="Class representing a list of different code generators.">
<polygon fill="white" stroke="#666666" points="339.75,-108.5 247.75,-108.5 247.75,-89.5 339.75,-89.5 339.75,-108.5"/>
<text text-anchor="middle" x="293.75" y="-96.5" font-family="Helvetica,sans-Serif" font-size="10.00">OutputCodeList</text>
</a>
</g>
</g>
<!-- Node6&#45;&gt;Node1 -->
<g id="edge6_Node000001_Node000006" class="edge">
<title>Node6&#45;&gt;Node1</title>
<g id="a_edge6_Node000001_Node000006"><a xlink:title=" ">
<path fill="none" stroke="#9a32cd" stroke-dasharray="5,2" d="M302.13,-80.13C310.83,-61.57 324.07,-33.3 330.69,-19.17"/>
<polygon fill="#9a32cd" stroke="#9a32cd" points="298.91,-78.75 297.84,-89.29 305.25,-81.72 298.91,-78.75"/>
</a>
</g>
<text text-anchor="middle" x="334.25" y="-40" font-family="Helvetica,sans-Serif" font-size="10.00" fill="grey"> code</text>
</g>
<!-- Node7 -->
<g id="Node000007" class="node">
<title>Node7</title>
<g id="a_Node000007"><a xlink:href="../../d5/dcc/class_definition.html" target="_top" xlink:title="The common base class of all entity definitions found in the sources.">
<polygon fill="white" stroke="#666666" points="478.75,-203.5 414.75,-203.5 414.75,-184.5 478.75,-184.5 478.75,-203.5"/>
<text text-anchor="middle" x="446.75" y="-191.5" font-family="Helvetica,sans-Serif" font-size="10.00">Definition</text>
</a>
</g>
</g>
<!-- Node7&#45;&gt;Node1 -->
<g id="edge7_Node000001_Node000007" class="edge">
<title>Node7&#45;&gt;Node1</title>
<g id="a_edge7_Node000001_Node000007"><a xlink:title=" ">
<path fill="none" stroke="#9a32cd" stroke-dasharray="5,2" d="M427.29,-177.55C414.03,-166.17 396.93,-149.64 385.75,-132 361.76,-94.11 371.54,-77.24 351.75,-37 348.67,-30.72 344.42,-24.1 340.94,-19.04"/>
<polygon fill="#9a32cd" stroke="#9a32cd" points="425.41,-180.55 435.34,-184.26 429.89,-175.17 425.41,-180.55"/>
</a>
</g>
<text text-anchor="middle" x="428.25" y="-102" font-family="Helvetica,sans-Serif" font-size="10.00" fill="grey"> currentDefinition</text>
<text text-anchor="middle" x="428.25" y="-91" font-family="Helvetica,sans-Serif" font-size="10.00" fill="grey">searchCtx</text>
</g>
<!-- Node8 -->
<g id="Node000008" class="node">
<title>Node8</title>
<g id="a_Node000008"><a xlink:href="../../de/db0/class_file_def.html" target="_top" xlink:title="A model of a file symbol.">
<polygon fill="white" stroke="#666666" points="530.25,-108.5 479.25,-108.5 479.25,-89.5 530.25,-89.5 530.25,-108.5"/>
<text text-anchor="middle" x="504.75" y="-96.5" font-family="Helvetica,sans-Serif" font-size="10.00">FileDef</text>
</a>
</g>
</g>
<!-- Node7&#45;&gt;Node8 -->
<g id="edge10_Node000008_Node000007" class="edge">
<title>Node7&#45;&gt;Node8</title>
<g id="a_edge10_Node000008_Node000007"><a xlink:title=" ">
<path fill="none" stroke="#63b8ff" d="M457.53,-175.72C469.97,-155.78 489.93,-123.77 499.42,-108.56"/>
<polygon fill="#63b8ff" stroke="#63b8ff" points="454.43,-174.08 452.11,-184.42 460.37,-177.78 454.43,-174.08"/>
</a>
</g>
</g>
<!-- Node10 -->
<g id="Node000010" class="node">
<title>Node10</title>
<g id="a_Node000010"><a xlink:href="../../da/d09/class_member_def.html" target="_top" xlink:title="A model of a class/file/namespace member symbol.">
<polygon fill="white" stroke="#666666" points="622.75,-108.5 548.75,-108.5 548.75,-89.5 622.75,-89.5 622.75,-108.5"/>
<text text-anchor="middle" x="585.75" y="-96.5" font-family="Helvetica,sans-Serif" font-size="10.00">MemberDef</text>
</a>
</g>
</g>
<!-- Node7&#45;&gt;Node10 -->
<g id="edge12_Node000010_Node000007" class="edge">
<title>Node7&#45;&gt;Node10</title>
<g id="a_edge12_Node000010_Node000007"><a xlink:title=" ">
<path fill="none" stroke="#63b8ff" d="M468.57,-178.93C487.49,-166.67 515.56,-148.35 539.75,-132 551.36,-124.16 564.47,-115.01 573.71,-108.51"/>
<polygon fill="#63b8ff" stroke="#63b8ff" points="466.57,-176.06 460.07,-184.43 470.37,-181.93 466.57,-176.06"/>
</a>
</g>
</g>
<!-- Node8&#45;&gt;Node1 -->
<g id="edge8_Node000001_Node000008" class="edge">
<title>Node8&#45;&gt;Node1</title>
<g id="a_edge8_Node000001_Node000008"><a xlink:title=" ">
<path fill="none" stroke="#9a32cd" stroke-dasharray="5,2" d="M487.6,-82.58C480.79,-76.93 472.7,-70.75 464.75,-66 430.43,-45.46 387.11,-28.58 360.17,-19.02"/>
<polygon fill="#9a32cd" stroke="#9a32cd" points="485.57,-85.46 495.44,-89.33 490.14,-80.15 485.57,-85.46"/>
</a>
</g>
<text text-anchor="middle" x="464.75" y="-40" font-family="Helvetica,sans-Serif" font-size="10.00" fill="grey"> sourceFileDef</text>
</g>
<!-- Node9 -->
<g id="Node000009" class="node">
<title>Node9</title>
<g id="a_Node000009"><a xlink:href="../../d0/d46/class_definition_mutable.html" target="_top" xlink:title=" ">
<polygon fill="white" stroke="#666666" points="600.75,-203.5 496.75,-203.5 496.75,-184.5 600.75,-184.5 600.75,-203.5"/>
<text text-anchor="middle" x="548.75" y="-191.5" font-family="Helvetica,sans-Serif" font-size="10.00">DefinitionMutable</text>
</a>
</g>
</g>
<!-- Node9&#45;&gt;Node8 -->
<g id="edge9_Node000008_Node000009" class="edge">
<title>Node9&#45;&gt;Node8</title>
<g id="a_edge9_Node000008_Node000009"><a xlink:title=" ">
<path fill="none" stroke="#63b8ff" d="M540.32,-175.17C530.87,-155.2 515.94,-123.63 508.81,-108.56"/>
<polygon fill="#63b8ff" stroke="#63b8ff" points="537.25,-176.87 544.69,-184.42 543.58,-173.88 537.25,-176.87"/>
</a>
</g>
</g>
<!-- Node10&#45;&gt;Node1 -->
<g id="edge11_Node000001_Node000010" class="edge">
<title>Node10&#45;&gt;Node1</title>
<g id="a_edge11_Node000001_Node000010"><a xlink:title=" ">
<path fill="none" stroke="#9a32cd" stroke-dasharray="5,2" d="M569.45,-82.05C553.9,-67.83 529.15,-47.67 503.75,-37 468.57,-22.22 426.13,-15.61 392.58,-12.68"/>
<polygon fill="#9a32cd" stroke="#9a32cd" points="567.41,-84.93 577.09,-89.24 572.21,-79.83 567.41,-84.93"/>
</a>
</g>
<text text-anchor="middle" x="570.75" y="-40" font-family="Helvetica,sans-Serif" font-size="10.00" fill="grey"> currentMemberDef</text>
</g>
<!-- Node11 -->
<g id="Node000011" class="node">
<title>Node11</title>
<g id="a_Node000011"><a xlink:href="../../d5/dae/class_tooltip_manager.html" target="_top" xlink:title="Class that manages the tooltips for a source file.">
<polygon fill="white" stroke="#666666" points="732.75,-108.5 640.75,-108.5 640.75,-89.5 732.75,-89.5 732.75,-108.5"/>
<text text-anchor="middle" x="686.75" y="-96.5" font-family="Helvetica,sans-Serif" font-size="10.00">TooltipManager</text>
</a>
</g>
</g>
<!-- Node11&#45;&gt;Node1 -->
<g id="edge13_Node000001_Node000011" class="edge">
<title>Node11&#45;&gt;Node1</title>
<g id="a_edge13_Node000001_Node000011"><a xlink:title=" ">
<path fill="none" stroke="#9a32cd" stroke-dasharray="5,2" d="M674.63,-81.33C663.07,-66.88 644.28,-46.78 622.75,-37 583.04,-18.95 464.57,-13.2 392.54,-11.36"/>
<polygon fill="#9a32cd" stroke="#9a32cd" points="671.99,-83.65 680.85,-89.46 677.55,-79.39 671.99,-83.65"/>
</a>
</g>
<text text-anchor="middle" x="677.75" y="-40" font-family="Helvetica,sans-Serif" font-size="10.00" fill="grey"> tooltipManager</text>
</g>
</g>
</svg>
