<?xml version="1.0" encoding="UTF-8" standalone="no"?>
<!DOCTYPE svg PUBLIC "-//W3C//DTD SVG 1.1//EN"
 "http://www.w3.org/Graphics/SVG/1.1/DTD/svg11.dtd">
<!-- Generated by graphviz version 2.43.0 (0)
 -->
<!-- Title: ClassDefImpl Pages: 1 -->
<svg width="351pt" height="278pt"
 viewBox="0.00 0.00 351.00 278.00" xmlns="http://www.w3.org/2000/svg" xmlns:xlink="http://www.w3.org/1999/xlink">
<g id="page0,1_graph0" class="graph" transform="scale(1 1) rotate(0) translate(4 274)">
<title>ClassDefImpl</title>
<!-- Node1 -->
<g id="Node000001" class="node">
<title>Node1</title>
<g id="a_Node000001"><a xlink:title="Implementation of the ClassDef interface.">
<polygon fill="#999999" stroke="#666666" points="227,-19 145,-19 145,0 227,0 227,-19"/>
<text text-anchor="middle" x="186" y="-7" font-family="Helvetica,sans-Serif" font-size="10.00">ClassDefImpl</text>
</a>
</g>
</g>
<!-- Node2 -->
<g id="Node000002" class="node">
<title>Node2</title>
<g id="a_Node000002"><a xlink:href="../../dd/d10/class_definition_mixin.html" target="_top" xlink:title=" ">
<polygon fill="white" stroke="#666666" points="259,-86 113,-86 113,-56 259,-56 259,-86"/>
<text text-anchor="start" x="121" y="-74" font-family="Helvetica,sans-Serif" font-size="10.00">DefinitionMixin&lt; ClassDef</text>
<text text-anchor="middle" x="186" y="-63" font-family="Helvetica,sans-Serif" font-size="10.00">Mutable &gt;</text>
</a>
</g>
</g>
<!-- Node2&#45;&gt;Node1 -->
<g id="edge1_Node000001_Node000002" class="edge">
<title>Node2&#45;&gt;Node1</title>
<g id="a_edge1_Node000001_Node000002"><a xlink:title=" ">
<path fill="none" stroke="#63b8ff" d="M186,-45.79C186,-36.36 186,-26.15 186,-19.16"/>
<polygon fill="#63b8ff" stroke="#63b8ff" points="182.5,-45.9 186,-55.9 189.5,-45.9 182.5,-45.9"/>
</a>
</g>
</g>
<!-- Node3 -->
<g id="Node000003" class="node">
<title>Node3</title>
<g id="a_Node000003"><a xlink:href="../../d0/dc2/class_class_def_mutable.html" target="_top" xlink:title=" ">
<polygon fill="white" stroke="#666666" points="168,-158 68,-158 68,-139 168,-139 168,-158"/>
<text text-anchor="middle" x="118" y="-146" font-family="Helvetica,sans-Serif" font-size="10.00">ClassDefMutable</text>
</a>
</g>
</g>
<!-- Node3&#45;&gt;Node2 -->
<g id="edge2_Node000002_Node000003" class="edge">
<title>Node3&#45;&gt;Node2</title>
<g id="a_edge2_Node000002_Node000003"><a xlink:title=" ">
<path fill="none" stroke="#63b8ff" d="M132.59,-131.3C144.67,-117.89 161.65,-99.03 173.2,-86.21"/>
<polygon fill="#63b8ff" stroke="#63b8ff" points="129.89,-129.07 125.8,-138.84 135.09,-133.75 129.89,-129.07"/>
</a>
</g>
</g>
<!-- Node4 -->
<g id="Node000004" class="node">
<title>Node4</title>
<g id="a_Node000004"><a xlink:href="../../d0/d46/class_definition_mutable.html" target="_top" xlink:title=" ">
<polygon fill="white" stroke="#666666" points="104,-214 0,-214 0,-195 104,-195 104,-214"/>
<text text-anchor="middle" x="52" y="-202" font-family="Helvetica,sans-Serif" font-size="10.00">DefinitionMutable</text>
</a>
</g>
</g>
<!-- Node4&#45;&gt;Node3 -->
<g id="edge3_Node000003_Node000004" class="edge">
<title>Node4&#45;&gt;Node3</title>
<g id="a_edge3_Node000003_Node000004"><a xlink:title=" ">
<path fill="none" stroke="#63b8ff" d="M70.55,-188.32C82.38,-178.65 97.29,-166.45 107.2,-158.33"/>
<polygon fill="#63b8ff" stroke="#63b8ff" points="68.13,-185.78 62.6,-194.82 72.56,-191.2 68.13,-185.78"/>
</a>
</g>
</g>
<!-- Node5 -->
<g id="Node000005" class="node">
<title>Node5</title>
<g id="a_Node000005"><a xlink:href="../../d1/dcf/class_class_def.html" target="_top" xlink:title="A abstract class representing of a compound symbol.">
<polygon fill="white" stroke="#666666" points="182,-214 122,-214 122,-195 182,-195 182,-214"/>
<text text-anchor="middle" x="152" y="-202" font-family="Helvetica,sans-Serif" font-size="10.00">ClassDef</text>
</a>
</g>
</g>
<!-- Node5&#45;&gt;Node3 -->
<g id="edge4_Node000003_Node000005" class="edge">
<title>Node5&#45;&gt;Node3</title>
<g id="a_edge4_Node000003_Node000005"><a xlink:title=" ">
<path fill="none" stroke="#63b8ff" d="M141.02,-186.07C135.17,-176.77 128.23,-165.75 123.51,-158.25"/>
<polygon fill="#63b8ff" stroke="#63b8ff" points="138.1,-187.99 146.39,-194.58 144.02,-184.26 138.1,-187.99"/>
</a>
</g>
</g>
<!-- Node6 -->
<g id="Node000006" class="node">
<title>Node6</title>
<g id="a_Node000006"><a xlink:href="../../d5/dcc/class_definition.html" target="_top" xlink:title="The common base class of all entity definitions found in the sources.">
<polygon fill="white" stroke="#666666" points="184,-270 120,-270 120,-251 184,-251 184,-270"/>
<text text-anchor="middle" x="152" y="-258" font-family="Helvetica,sans-Serif" font-size="10.00">Definition</text>
</a>
</g>
</g>
<!-- Node6&#45;&gt;Node5 -->
<g id="edge5_Node000005_Node000006" class="edge">
<title>Node6&#45;&gt;Node5</title>
<g id="a_edge5_Node000005_Node000006"><a xlink:title=" ">
<path fill="none" stroke="#63b8ff" d="M152,-240.3C152,-231.41 152,-221.28 152,-214.25"/>
<polygon fill="#63b8ff" stroke="#63b8ff" points="148.5,-240.58 152,-250.58 155.5,-240.58 148.5,-240.58"/>
</a>
</g>
</g>
<!-- Node7 -->
<g id="Node000007" class="node">
<title>Node7</title>
<g id="a_Node000007"><a xlink:href="../../dd/d10/class_definition_mixin.html" target="_top" xlink:title=" ">
<polygon fill="white" stroke="#666666" points="323.5,-158 186.5,-158 186.5,-139 323.5,-139 323.5,-158"/>
<text text-anchor="middle" x="255" y="-146" font-family="Helvetica,sans-Serif" font-size="10.00">DefinitionMixin&lt; Base &gt;</text>
</a>
</g>
</g>
<!-- Node7&#45;&gt;Node2 -->
<g id="edge6_Node000002_Node000007" class="edge">
<title>Node7&#45;&gt;Node2</title>
<g id="a_edge6_Node000002_Node000007"><a xlink:title=" ">
<path fill="none" stroke="orange" stroke-dasharray="5,2" d="M240.19,-131.3C227.94,-117.89 210.7,-99.03 198.98,-86.21"/>
<polygon fill="orange" stroke="orange" points="237.76,-133.82 247.08,-138.84 242.92,-129.1 237.76,-133.82"/>
</a>
</g>
<text text-anchor="start" x="234" y="-109.5" font-family="Helvetica,sans-Serif" font-size="10.00" fill="grey">&lt; ClassDefMutable &gt;</text>
</g>
<!-- Node8 -->
<g id="Node000008" class="node">
<title>Node8</title>
<g id="a_Node000008"><a xlink:title=" ">
<polygon fill="white" stroke="#666666" points="275.5,-214 234.5,-214 234.5,-195 275.5,-195 275.5,-214"/>
<text text-anchor="middle" x="255" y="-202" font-family="Helvetica,sans-Serif" font-size="10.00">Base</text>
</a>
</g>
</g>
<!-- Node8&#45;&gt;Node7 -->
<g id="edge7_Node000007_Node000008" class="edge">
<title>Node8&#45;&gt;Node7</title>
<g id="a_edge7_Node000007_Node000008"><a xlink:title=" ">
<path fill="none" stroke="#63b8ff" d="M255,-184.3C255,-175.41 255,-165.28 255,-158.25"/>
<polygon fill="#63b8ff" stroke="#63b8ff" points="251.5,-184.58 255,-194.58 258.5,-184.58 251.5,-184.58"/>
</a>
</g>
</g>
</g>
</svg>
