<?xml version="1.0" encoding="UTF-8" standalone="no"?>
<!DOCTYPE svg PUBLIC "-//W3C//DTD SVG 1.1//EN"
 "http://www.w3.org/Graphics/SVG/1.1/DTD/svg11.dtd">
<!-- Generated by graphviz version 2.43.0 (0)
 -->
<!-- Title: /home/runner/work/doxygen/doxygen/src/section.h Pages: 1 -->
<svg width="697pt" height="258pt"
 viewBox="0.00 0.00 697.40 258.00" xmlns="http://www.w3.org/2000/svg" xmlns:xlink="http://www.w3.org/1999/xlink">
<g id="graph0" class="graph" transform="scale(1 1) rotate(0) translate(4 254)">
<title>/home/runner/work/doxygen/doxygen/src/section.h</title>
<!-- Node1 -->
<g id="Node000001" class="node">
<title>Node1</title>
<g id="a_Node000001"><a xlink:title=" ">
<polygon fill="#999999" stroke="#666666" points="639.05,-250 485.05,-250 485.05,-220 639.05,-220 639.05,-250"/>
<text text-anchor="start" x="493.05" y="-238" font-family="Helvetica,sans-Serif" font-size="10.00">/home/runner/work/doxygen</text>
<text text-anchor="middle" x="562.05" y="-227" font-family="Helvetica,sans-Serif" font-size="10.00">/doxygen/src/section.h</text>
</a>
</g>
</g>
<!-- Node2 -->
<g id="Node000002" class="node">
<title>Node2</title>
<g id="a_Node000002"><a xlink:title=" ">
<polygon fill="#e0e0e0" stroke="#999999" points="479.05,-19 435.05,-19 435.05,0 479.05,0 479.05,-19"/>
<text text-anchor="middle" x="457.05" y="-7" font-family="Helvetica,sans-Serif" font-size="10.00">string</text>
</a>
</g>
</g>
<!-- Node1&#45;&gt;Node2 -->
<g id="edge1_Node000001_Node000002" class="edge">
<title>Node1&#45;&gt;Node2</title>
<g id="a_edge1_Node000001_Node000002"><a xlink:title=" ">
<path fill="none" stroke="#63b8ff" d="M594.91,-219.83C639.8,-198.37 711.56,-155.31 682.05,-110 638.97,-43.84 540.79,-21.35 489.55,-13.95"/>
<polygon fill="#63b8ff" stroke="#63b8ff" points="489.74,-10.45 479.36,-12.59 488.81,-17.39 489.74,-10.45"/>
</a>
</g>
</g>
<!-- Node3 -->
<g id="Node000003" class="node">
<title>Node3</title>
<g id="a_Node000003"><a xlink:title=" ">
<polygon fill="#e0e0e0" stroke="#999999" points="672.55,-129 579.55,-129 579.55,-110 672.55,-110 672.55,-129"/>
<text text-anchor="middle" x="626.05" y="-117" font-family="Helvetica,sans-Serif" font-size="10.00">unordered_map</text>
</a>
</g>
</g>
<!-- Node1&#45;&gt;Node3 -->
<g id="edge2_Node000001_Node000003" class="edge">
<title>Node1&#45;&gt;Node3</title>
<g id="a_edge2_Node000001_Node000003"><a xlink:title=" ">
<path fill="none" stroke="#63b8ff" d="M570.16,-219.63C581.88,-198.84 603.53,-160.44 616.17,-138.02"/>
<polygon fill="#63b8ff" stroke="#63b8ff" points="619.27,-139.66 621.13,-129.23 613.17,-136.22 619.27,-139.66"/>
</a>
</g>
</g>
<!-- Node4 -->
<g id="Node000004" class="node">
<title>Node4</title>
<g id="a_Node000004"><a xlink:href="../../d7/d5c/qcstring_8h.html" target="_top" xlink:title=" ">
<polygon fill="white" stroke="#666666" points="304.55,-129 239.55,-129 239.55,-110 304.55,-110 304.55,-129"/>
<text text-anchor="middle" x="272.05" y="-117" font-family="Helvetica,sans-Serif" font-size="10.00">qcstring.h</text>
</a>
</g>
</g>
<!-- Node1&#45;&gt;Node4 -->
<g id="edge3_Node000001_Node000004" class="edge">
<title>Node1&#45;&gt;Node4</title>
<g id="a_edge3_Node000001_Node000004"><a xlink:title=" ">
<path fill="none" stroke="#63b8ff" d="M524.42,-219.98C497.97,-210.06 461.79,-196.38 430.05,-184 385.57,-166.64 334.32,-145.91 302.55,-132.97"/>
<polygon fill="#63b8ff" stroke="#63b8ff" points="303.54,-129.59 292.96,-129.06 300.9,-136.07 303.54,-129.59"/>
</a>
</g>
</g>
<!-- Node13 -->
<g id="Node000013" class="node">
<title>Node13</title>
<g id="a_Node000013"><a xlink:href="../../da/de1/linkedmap_8h.html" target="_top" xlink:title=" ">
<polygon fill="white" stroke="#666666" points="515.55,-184 438.55,-184 438.55,-165 515.55,-165 515.55,-184"/>
<text text-anchor="middle" x="477.05" y="-172" font-family="Helvetica,sans-Serif" font-size="10.00">linkedmap.h</text>
</a>
</g>
</g>
<!-- Node1&#45;&gt;Node13 -->
<g id="edge15_Node000001_Node000013" class="edge">
<title>Node1&#45;&gt;Node13</title>
<g id="a_edge15_Node000001_Node000013"><a xlink:title=" ">
<path fill="none" stroke="#63b8ff" d="M541.48,-219.84C528.38,-210.83 511.47,-199.18 498.25,-190.09"/>
<polygon fill="#63b8ff" stroke="#63b8ff" points="500.01,-187.05 489.79,-184.27 496.04,-192.82 500.01,-187.05"/>
</a>
</g>
</g>
<!-- Node4&#45;&gt;Node2 -->
<g id="edge4_Node000004_Node000002" class="edge">
<title>Node4&#45;&gt;Node2</title>
<g id="a_edge4_Node000004_Node000002"><a xlink:title=" ">
<path fill="none" stroke="#63b8ff" d="M286.88,-109.84C318.89,-91.16 394.71,-46.9 433.42,-24.3"/>
<polygon fill="#63b8ff" stroke="#63b8ff" points="435.54,-27.11 442.41,-19.05 432.01,-21.07 435.54,-27.11"/>
</a>
</g>
</g>
<!-- Node5 -->
<g id="Node000005" class="node">
<title>Node5</title>
<g id="a_Node000005"><a xlink:title=" ">
<polygon fill="#e0e0e0" stroke="#999999" points="455.05,-74 391.05,-74 391.05,-55 455.05,-55 455.05,-74"/>
<text text-anchor="middle" x="423.05" y="-62" font-family="Helvetica,sans-Serif" font-size="10.00">algorithm</text>
</a>
</g>
</g>
<!-- Node4&#45;&gt;Node5 -->
<g id="edge5_Node000004_Node000005" class="edge">
<title>Node4&#45;&gt;Node5</title>
<g id="a_edge5_Node000004_Node000005"><a xlink:title=" ">
<path fill="none" stroke="#63b8ff" d="M296.31,-109.98C321.37,-101.19 360.69,-87.39 388.88,-77.49"/>
<polygon fill="#63b8ff" stroke="#63b8ff" points="390.07,-80.78 398.35,-74.17 387.76,-74.18 390.07,-80.78"/>
</a>
</g>
</g>
<!-- Node6 -->
<g id="Node000006" class="node">
<title>Node6</title>
<g id="a_Node000006"><a xlink:title=" ">
<polygon fill="#e0e0e0" stroke="#999999" points="522.55,-74 473.55,-74 473.55,-55 522.55,-55 522.55,-74"/>
<text text-anchor="middle" x="498.05" y="-62" font-family="Helvetica,sans-Serif" font-size="10.00">cctype</text>
</a>
</g>
</g>
<!-- Node4&#45;&gt;Node6 -->
<g id="edge6_Node000004_Node000006" class="edge">
<title>Node4&#45;&gt;Node6</title>
<g id="a_edge6_Node000004_Node000006"><a xlink:title=" ">
<path fill="none" stroke="#63b8ff" d="M304.71,-111.11C341,-102.86 401.61,-88.96 463.6,-74.08"/>
<polygon fill="#63b8ff" stroke="#63b8ff" points="464.65,-77.42 473.55,-71.68 463.01,-70.62 464.65,-77.42"/>
</a>
</g>
</g>
<!-- Node7 -->
<g id="Node000007" class="node">
<title>Node7</title>
<g id="a_Node000007"><a xlink:title=" ">
<polygon fill="#e0e0e0" stroke="#999999" points="65.05,-74 15.05,-74 15.05,-55 65.05,-55 65.05,-74"/>
<text text-anchor="middle" x="40.05" y="-62" font-family="Helvetica,sans-Serif" font-size="10.00">cstring</text>
</a>
</g>
</g>
<!-- Node4&#45;&gt;Node7 -->
<g id="edge7_Node000004_Node000007" class="edge">
<title>Node4&#45;&gt;Node7</title>
<g id="a_edge7_Node000004_Node000007"><a xlink:title=" ">
<path fill="none" stroke="#63b8ff" d="M239.41,-111.42C202.04,-103.25 138.73,-89.24 75.09,-74.2"/>
<polygon fill="#63b8ff" stroke="#63b8ff" points="75.83,-70.78 65.29,-71.88 74.21,-77.59 75.83,-70.78"/>
</a>
</g>
</g>
<!-- Node8 -->
<g id="Node000008" class="node">
<title>Node8</title>
<g id="a_Node000008"><a xlink:title=" ">
<polygon fill="#e0e0e0" stroke="#999999" points="129.05,-74 83.05,-74 83.05,-55 129.05,-55 129.05,-74"/>
<text text-anchor="middle" x="106.05" y="-62" font-family="Helvetica,sans-Serif" font-size="10.00">cstdio</text>
</a>
</g>
</g>
<!-- Node4&#45;&gt;Node8 -->
<g id="edge8_Node000004_Node000008" class="edge">
<title>Node4&#45;&gt;Node8</title>
<g id="a_edge8_Node000004_Node000008"><a xlink:title=" ">
<path fill="none" stroke="#63b8ff" d="M245.38,-109.98C216.36,-100.72 169.92,-85.89 138.73,-75.93"/>
<polygon fill="#63b8ff" stroke="#63b8ff" points="139.77,-72.59 129.18,-72.88 137.64,-79.26 139.77,-72.59"/>
</a>
</g>
</g>
<!-- Node9 -->
<g id="Node000009" class="node">
<title>Node9</title>
<g id="a_Node000009"><a xlink:title=" ">
<polygon fill="#e0e0e0" stroke="#999999" points="196.55,-74 147.55,-74 147.55,-55 196.55,-55 196.55,-74"/>
<text text-anchor="middle" x="172.05" y="-62" font-family="Helvetica,sans-Serif" font-size="10.00">cstdlib</text>
</a>
</g>
</g>
<!-- Node4&#45;&gt;Node9 -->
<g id="edge9_Node000004_Node000009" class="edge">
<title>Node4&#45;&gt;Node9</title>
<g id="a_edge9_Node000004_Node000009"><a xlink:title=" ">
<path fill="none" stroke="#63b8ff" d="M255.99,-109.98C240.19,-101.61 215.84,-88.7 197.42,-78.95"/>
<polygon fill="#63b8ff" stroke="#63b8ff" points="198.89,-75.76 188.41,-74.17 195.61,-81.95 198.89,-75.76"/>
</a>
</g>
</g>
<!-- Node10 -->
<g id="Node000010" class="node">
<title>Node10</title>
<g id="a_Node000010"><a xlink:title=" ">
<polygon fill="#e0e0e0" stroke="#999999" points="137.05,-19 87.05,-19 87.05,0 137.05,0 137.05,-19"/>
<text text-anchor="middle" x="112.05" y="-7" font-family="Helvetica,sans-Serif" font-size="10.00">cstdint</text>
</a>
</g>
</g>
<!-- Node4&#45;&gt;Node10 -->
<g id="edge10_Node000004_Node000010" class="edge">
<title>Node4&#45;&gt;Node10</title>
<g id="a_edge10_Node000004_Node000010"><a xlink:title=" ">
<path fill="none" stroke="#63b8ff" d="M239.46,-118.07C175.16,-116.46 35.63,-108.93 6.05,-74 -17.66,-45.99 37.68,-27.05 76.99,-17.58"/>
<polygon fill="#63b8ff" stroke="#63b8ff" points="77.87,-20.97 86.83,-15.32 76.3,-14.14 77.87,-20.97"/>
</a>
</g>
</g>
<!-- Node11 -->
<g id="Node000011" class="node">
<title>Node11</title>
<g id="a_Node000011"><a xlink:title=" ">
<polygon fill="#e0e0e0" stroke="#999999" points="334.55,-74 277.55,-74 277.55,-55 334.55,-55 334.55,-74"/>
<text text-anchor="middle" x="306.05" y="-62" font-family="Helvetica,sans-Serif" font-size="10.00">ostream</text>
</a>
</g>
</g>
<!-- Node4&#45;&gt;Node11 -->
<g id="edge11_Node000004_Node000011" class="edge">
<title>Node4&#45;&gt;Node11</title>
<g id="a_edge11_Node000004_Node000011"><a xlink:title=" ">
<path fill="none" stroke="#63b8ff" d="M277.67,-109.75C282.37,-102.42 289.23,-91.73 295.02,-82.7"/>
<polygon fill="#63b8ff" stroke="#63b8ff" points="298.09,-84.4 300.54,-74.09 292.2,-80.62 298.09,-84.4"/>
</a>
</g>
</g>
<!-- Node12 -->
<g id="Node000012" class="node">
<title>Node12</title>
<g id="a_Node000012"><a xlink:href="../../db/d7c/utf8_8h.html" target="_top" xlink:title="Various UTF8 related helper functions.">
<polygon fill="white" stroke="#666666" points="259.55,-74 214.55,-74 214.55,-55 259.55,-55 259.55,-74"/>
<text text-anchor="middle" x="237.05" y="-62" font-family="Helvetica,sans-Serif" font-size="10.00">utf8.h</text>
</a>
</g>
</g>
<!-- Node4&#45;&gt;Node12 -->
<g id="edge12_Node000004_Node000012" class="edge">
<title>Node4&#45;&gt;Node12</title>
<g id="a_edge12_Node000004_Node000012"><a xlink:title=" ">
<path fill="none" stroke="#63b8ff" d="M266.27,-109.75C261.43,-102.42 254.38,-91.73 248.41,-82.7"/>
<polygon fill="#63b8ff" stroke="#63b8ff" points="251.16,-80.5 242.73,-74.09 245.32,-84.36 251.16,-80.5"/>
</a>
</g>
</g>
<!-- Node12&#45;&gt;Node2 -->
<g id="edge14_Node000012_Node000002" class="edge">
<title>Node12&#45;&gt;Node2</title>
<g id="a_edge14_Node000012_Node000002"><a xlink:title=" ">
<path fill="none" stroke="#63b8ff" d="M259.72,-57.18C262.52,-56.43 265.35,-55.69 268.05,-55 322.99,-41 387.32,-26.19 424.99,-17.68"/>
<polygon fill="#63b8ff" stroke="#63b8ff" points="425.89,-21.06 434.88,-15.45 424.35,-14.23 425.89,-21.06"/>
</a>
</g>
</g>
<!-- Node12&#45;&gt;Node10 -->
<g id="edge13_Node000012_Node000010" class="edge">
<title>Node12&#45;&gt;Node10</title>
<g id="a_edge13_Node000012_Node000010"><a xlink:title=" ">
<path fill="none" stroke="#63b8ff" d="M216.97,-54.98C196.68,-46.38 165.1,-32.99 141.88,-23.15"/>
<polygon fill="#63b8ff" stroke="#63b8ff" points="143.08,-19.85 132.5,-19.17 140.34,-26.3 143.08,-19.85"/>
</a>
</g>
</g>
<!-- Node13&#45;&gt;Node2 -->
<g id="edge19_Node000013_Node000002" class="edge">
<title>Node13&#45;&gt;Node2</title>
<g id="a_edge19_Node000013_Node000002"><a xlink:title=" ">
<path fill="none" stroke="#63b8ff" d="M486.7,-164.93C507.84,-145.07 554.61,-94.62 532.05,-55 522.75,-38.66 504.81,-27.7 488.82,-20.74"/>
<polygon fill="#63b8ff" stroke="#63b8ff" points="489.79,-17.36 479.2,-16.92 487.2,-23.87 489.79,-17.36"/>
</a>
</g>
</g>
<!-- Node13&#45;&gt;Node3 -->
<g id="edge16_Node000013_Node000003" class="edge">
<title>Node13&#45;&gt;Node3</title>
<g id="a_edge16_Node000013_Node000003"><a xlink:title=" ">
<path fill="none" stroke="#63b8ff" d="M500.99,-164.98C525.61,-156.23 564.17,-142.51 591.97,-132.62"/>
<polygon fill="#63b8ff" stroke="#63b8ff" points="593.43,-135.82 601.68,-129.17 591.08,-129.22 593.43,-135.82"/>
</a>
</g>
</g>
<!-- Node13&#45;&gt;Node4 -->
<g id="edge22_Node000013_Node000004" class="edge">
<title>Node13&#45;&gt;Node4</title>
<g id="a_edge22_Node000013_Node000004"><a xlink:title=" ">
<path fill="none" stroke="#63b8ff" d="M444.12,-164.98C408.9,-155.88 352.93,-141.41 314.44,-131.46"/>
<polygon fill="#63b8ff" stroke="#63b8ff" points="315.13,-128.02 304.57,-128.91 313.38,-134.8 315.13,-128.02"/>
</a>
</g>
</g>
<!-- Node13&#45;&gt;Node5 -->
<g id="edge20_Node000013_Node000005" class="edge">
<title>Node13&#45;&gt;Node5</title>
<g id="a_edge20_Node000013_Node000005"><a xlink:title=" ">
<path fill="none" stroke="#63b8ff" d="M438.39,-171C409.64,-166.87 372.2,-156.22 353.05,-129 338.65,-108.53 366.26,-89.91 390.93,-78.21"/>
<polygon fill="#63b8ff" stroke="#63b8ff" points="392.46,-81.36 400.14,-74.07 389.59,-74.97 392.46,-81.36"/>
</a>
</g>
</g>
<!-- Node13&#45;&gt;Node6 -->
<g id="edge21_Node000013_Node000006" class="edge">
<title>Node13&#45;&gt;Node6</title>
<g id="a_edge21_Node000013_Node000006"><a xlink:title=" ">
<path fill="none" stroke="#63b8ff" d="M481.25,-164.88C485.31,-156.08 491.24,-141.93 494.05,-129 497.25,-114.29 498.18,-97.25 498.34,-84.52"/>
<polygon fill="#63b8ff" stroke="#63b8ff" points="501.84,-84.24 498.33,-74.24 494.84,-84.25 501.84,-84.24"/>
</a>
</g>
</g>
<!-- Node14 -->
<g id="Node000014" class="node">
<title>Node14</title>
<g id="a_Node000014"><a xlink:title=" ">
<polygon fill="#e0e0e0" stroke="#999999" points="408.55,-129 361.55,-129 361.55,-110 408.55,-110 408.55,-129"/>
<text text-anchor="middle" x="385.05" y="-117" font-family="Helvetica,sans-Serif" font-size="10.00">vector</text>
</a>
</g>
</g>
<!-- Node13&#45;&gt;Node14 -->
<g id="edge17_Node000013_Node000014" class="edge">
<title>Node13&#45;&gt;Node14</title>
<g id="a_edge17_Node000013_Node000014"><a xlink:title=" ">
<path fill="none" stroke="#63b8ff" d="M462.27,-164.98C447.87,-156.69 425.74,-143.94 408.86,-134.22"/>
<polygon fill="#63b8ff" stroke="#63b8ff" points="410.52,-131.13 400.1,-129.17 407.02,-137.19 410.52,-131.13"/>
</a>
</g>
</g>
<!-- Node15 -->
<g id="Node000015" class="node">
<title>Node15</title>
<g id="a_Node000015"><a xlink:title=" ">
<polygon fill="#e0e0e0" stroke="#999999" points="485.05,-129 427.05,-129 427.05,-110 485.05,-110 485.05,-129"/>
<text text-anchor="middle" x="456.05" y="-117" font-family="Helvetica,sans-Serif" font-size="10.00">memory</text>
</a>
</g>
</g>
<!-- Node13&#45;&gt;Node15 -->
<g id="edge18_Node000013_Node000015" class="edge">
<title>Node13&#45;&gt;Node15</title>
<g id="a_edge18_Node000013_Node000015"><a xlink:title=" ">
<path fill="none" stroke="#63b8ff" d="M473.59,-164.75C470.77,-157.65 466.71,-147.4 463.21,-138.56"/>
<polygon fill="#63b8ff" stroke="#63b8ff" points="466.39,-137.1 459.46,-129.09 459.89,-139.68 466.39,-137.1"/>
</a>
</g>
</g>
</g>
</svg>
