<?xml version="1.0" encoding="UTF-8" standalone="no"?>
<!DOCTYPE svg PUBLIC "-//W3C//DTD SVG 1.1//EN"
 "http://www.w3.org/Graphics/SVG/1.1/DTD/svg11.dtd">
<!-- Generated by graphviz version 2.43.0 (0)
 -->
<!-- Title: vhdlparser/JavaCC.h Pages: 1 -->
<!--zoomable 368 -->

<svg id="main" version="1.1" xmlns="http://www.w3.org/2000/svg" xmlns:xlink="http://www.w3.org/1999/xlink" xml:space="preserve" onload="init(evt)">

<style type="text/css"><![CDATA[
.node, .edge {opacity: 0.7;}
.node.selected, .edge.selected {opacity: 1;}
.edge:hover path { stroke: red; }
.edge:hover polygon { stroke: red; fill: red; }
]]></style>

<defs>
  <circle id="rim" cx="0" cy="0" r="7"/>
  <circle id="rim2" cx="0" cy="0" r="3.5"/>
  <g id="zoomPlus">
    <use xlink:href="#rim" fill="#404040"><set attributeName="fill" to="#808080" begin="zoomplus.mouseover" end="zoomplus.mouseout"/></use>
    <path d="M-4,0h8M0,-4v8" fill="none" stroke="white" stroke-width="1.5" pointer-events="none"/>
  </g>
  <g id="zoomMin">
    <use xlink:href="#rim" fill="#404040"><set attributeName="fill" to="#808080" begin="zoomminus.mouseover" end="zoomminus.mouseout"/></use>
    <path d="M-4,0h8" fill="none" stroke="white" stroke-width="1.5" pointer-events="none"/>
  </g>
  <g id="arrowUp" transform="translate(30 24)">
    <use xlink:href="#rim"/>
    <path pointer-events="none" fill="none" stroke="white" stroke-width="1.5" d="M0,-3.0v7 M-2.5,-0.5L0,-3.0L2.5,-0.5"/>
  </g>
  <g id="arrowRight" transform="rotate(90) translate(36 -43)">
    <use xlink:href="#rim"/>
    <path pointer-events="none" fill="none" stroke="white" stroke-width="1.5" d="M0,-3.0v7 M-2.5,-0.5L0,-3.0L2.5,-0.5"/>
  </g>
  <g id="arrowDown" transform="rotate(180) translate(-30 -48)">
    <use xlink:href="#rim"/>
    <path pointer-events="none" fill="none" stroke="white" stroke-width="1.5" d="M0,-3.0v7 M-2.5,-0.5L0,-3.0L2.5,-0.5"/>
  </g>
  <g id="arrowLeft" transform="rotate(270) translate(-36 17)">
    <use xlink:href="#rim"/>
    <path pointer-events="none" fill="none" stroke="white" stroke-width="1.5" d="M0,-3.0v7 M-2.5,-0.5L0,-3.0L2.5,-0.5"/>
  </g>
  <g id="resetDef">
    <use xlink:href="#rim2" fill="#404040"><set attributeName="fill" to="#808080" begin="reset.mouseover" end="reset.mouseout"/></use>
  </g>
</defs>
<script type="application/ecmascript">
var viewWidth = 989;
var viewHeight = 368;
var sectionId = 'dynsection-1';
</script>
<script type="application/ecmascript" xlink:href="../../svg.min.js"/>
<svg id="graph" class="graph">
<g id="viewport">
<title>vhdlparser/JavaCC.h</title>
<!-- Node1 -->
<g id="Node000001" class="node">
<title>Node1</title>
<g id="a_Node000001"><a xlink:title=" ">
<polygon fill="#999999" stroke="#666666" points="561,-360 446,-360 446,-341 561,-341 561,-360"/>
<text text-anchor="middle" x="503.5" y="-348" font-family="Helvetica,sans-Serif" font-size="10.00">vhdlparser/JavaCC.h</text>
</a>
</g>
</g>
<!-- Node2 -->
<g id="Node000002" class="node">
<title>Node2</title>
<g id="a_Node000002"><a xlink:href="../../df/ddf/_char_stream_8h.html" target="_top" xlink:title=" ">
<polygon fill="white" stroke="#666666" points="952.5,-250 814.5,-250 814.5,-231 952.5,-231 952.5,-250"/>
<text text-anchor="middle" x="883.5" y="-238" font-family="Helvetica,sans-Serif" font-size="10.00">vhdlparser/CharStream.h</text>
</a>
</g>
</g>
<!-- Node1&#45;&gt;Node2 -->
<g id="edge1_Node000001_Node000002" class="edge">
<title>Node1&#45;&gt;Node2</title>
<g id="a_edge1_Node000001_Node000002"><a xlink:title=" ">
<path fill="none" stroke="#63b8ff" d="M523.34,-334.74C546.27,-317.97 582.84,-292.11 598.5,-286 618.68,-278.13 741.74,-260.57 819.41,-250.02"/>
<polygon fill="#63b8ff" stroke="#63b8ff" points="520.99,-332.13 515.02,-340.88 525.14,-337.76 520.99,-332.13"/>
</a>
</g>
</g>
<!-- Node3 -->
<g id="Node000003" class="node">
<title>Node3</title>
<g id="a_Node000003"><a xlink:href="../../d5/df9/_vhdl_parser_8h.html" target="_top" xlink:title=" ">
<polygon fill="white" stroke="#666666" points="338,-195 207,-195 207,-176 338,-176 338,-195"/>
<text text-anchor="middle" x="272.5" y="-183" font-family="Helvetica,sans-Serif" font-size="10.00">vhdlparser/VhdlParser.h</text>
</a>
</g>
</g>
<!-- Node1&#45;&gt;Node3 -->
<g id="edge26_Node000001_Node000003" class="edge">
<title>Node1&#45;&gt;Node3</title>
<g id="a_edge26_Node000001_Node000003"><a xlink:title=" ">
<path fill="none" stroke="#63b8ff" d="M439.79,-339.23C355.78,-324.14 215.42,-293.05 188.5,-250 172.46,-224.35 212.26,-205.32 242.41,-195.08"/>
<polygon fill="#63b8ff" stroke="#63b8ff" points="439.28,-342.69 449.74,-340.99 440.5,-335.8 439.28,-342.69"/>
</a>
</g>
</g>
<!-- Node8 -->
<g id="Node000008" class="node">
<title>Node8</title>
<g id="a_Node000008"><a xlink:href="../../d7/dad/_vhdl_parser_token_manager_8h.html" target="_top" xlink:title=" ">
<polygon fill="white" stroke="#666666" points="479,-85 328,-85 328,-55 479,-55 479,-85"/>
<text text-anchor="start" x="336" y="-73" font-family="Helvetica,sans-Serif" font-size="10.00">vhdlparser/VhdlParserToken</text>
<text text-anchor="middle" x="403.5" y="-62" font-family="Helvetica,sans-Serif" font-size="10.00">Manager.h</text>
</a>
</g>
</g>
<!-- Node1&#45;&gt;Node8 -->
<g id="edge30_Node000001_Node000008" class="edge">
<title>Node1&#45;&gt;Node8</title>
<g id="a_edge30_Node000001_Node000008"><a xlink:title=" ">
<path fill="none" stroke="#63b8ff" d="M571.41,-348.14C703.13,-343.66 980.5,-324.38 980.5,-241.5 980.5,-241.5 980.5,-241.5 980.5,-184.5 980.5,-83.49 635.77,-70.82 479.23,-70.27"/>
<polygon fill="#63b8ff" stroke="#63b8ff" points="570.92,-344.66 561.04,-348.47 571.14,-351.65 570.92,-344.66"/>
</a>
</g>
</g>
<!-- Node9 -->
<g id="Node000009" class="node">
<title>Node9</title>
<g id="a_Node000009"><a xlink:href="../../d3/dd5/_error_handler_8h.html" target="_top" xlink:title=" ">
<polygon fill="white" stroke="#666666" points="141,-250 0,-250 0,-231 141,-231 141,-250"/>
<text text-anchor="middle" x="70.5" y="-238" font-family="Helvetica,sans-Serif" font-size="10.00">vhdlparser/ErrorHandler.h</text>
</a>
</g>
</g>
<!-- Node1&#45;&gt;Node9 -->
<g id="edge11_Node000001_Node000009" class="edge">
<title>Node1&#45;&gt;Node9</title>
<g id="a_edge11_Node000001_Node000009"><a xlink:title=" ">
<path fill="none" stroke="#63b8ff" d="M435.97,-344.96C349.5,-338.45 204.93,-324.99 155.5,-305 123.74,-292.15 93.26,-264.45 78.97,-250.26"/>
<polygon fill="#63b8ff" stroke="#63b8ff" points="435.73,-348.46 445.96,-345.71 436.24,-341.47 435.73,-348.46"/>
</a>
</g>
</g>
<!-- Node10 -->
<g id="Node000010" class="node">
<title>Node10</title>
<g id="a_Node000010"><a xlink:href="../../d7/de0/_parse_exception_8h.html" target="_top" xlink:title=" ">
<polygon fill="white" stroke="#666666" points="597,-250 442,-250 442,-231 597,-231 597,-250"/>
<text text-anchor="middle" x="519.5" y="-238" font-family="Helvetica,sans-Serif" font-size="10.00">vhdlparser/ParseException.h</text>
</a>
</g>
</g>
<!-- Node1&#45;&gt;Node10 -->
<g id="edge15_Node000001_Node000010" class="edge">
<title>Node1&#45;&gt;Node10</title>
<g id="a_edge15_Node000001_Node000010"><a xlink:title=" ">
<path fill="none" stroke="#63b8ff" d="M506.32,-330.48C509.82,-306.84 515.65,-267.5 518.22,-250.16"/>
<polygon fill="#63b8ff" stroke="#63b8ff" points="502.81,-330.26 504.81,-340.66 509.74,-331.28 502.81,-330.26"/>
</a>
</g>
</g>
<!-- Node11 -->
<g id="Node000011" class="node">
<title>Node11</title>
<g id="a_Node000011"><a xlink:href="../../dd/dcd/_token_8h.html" target="_top" xlink:title=" ">
<polygon fill="white" stroke="#666666" points="444.5,-305 336.5,-305 336.5,-286 444.5,-286 444.5,-305"/>
<text text-anchor="middle" x="390.5" y="-293" font-family="Helvetica,sans-Serif" font-size="10.00">vhdlparser/Token.h</text>
</a>
</g>
</g>
<!-- Node1&#45;&gt;Node11 -->
<g id="edge16_Node000001_Node000011" class="edge">
<title>Node1&#45;&gt;Node11</title>
<g id="a_edge16_Node000001_Node000011"><a xlink:title=" ">
<path fill="none" stroke="#63b8ff" d="M476.07,-336.63C455.25,-326.87 427.2,-313.71 408.99,-305.17"/>
<polygon fill="#63b8ff" stroke="#63b8ff" points="474.8,-339.91 485.34,-340.98 477.78,-333.57 474.8,-339.91"/>
</a>
</g>
</g>
<!-- Node12 -->
<g id="Node000012" class="node">
<title>Node12</title>
<g id="a_Node000012"><a xlink:href="../../d4/df9/_token_manager_8h.html" target="_top" xlink:title=" ">
<polygon fill="white" stroke="#666666" points="347.5,-250 197.5,-250 197.5,-231 347.5,-231 347.5,-250"/>
<text text-anchor="middle" x="272.5" y="-238" font-family="Helvetica,sans-Serif" font-size="10.00">vhdlparser/TokenManager.h</text>
</a>
</g>
</g>
<!-- Node1&#45;&gt;Node12 -->
<g id="edge24_Node000001_Node000012" class="edge">
<title>Node1&#45;&gt;Node12</title>
<g id="a_edge24_Node000001_Node000012"><a xlink:title=" ">
<path fill="none" stroke="#63b8ff" d="M435.8,-342.2C401.4,-336.14 360.1,-325.09 327.5,-305 304.65,-290.92 286.24,-264.28 277.68,-250.4"/>
<polygon fill="#63b8ff" stroke="#63b8ff" points="435.34,-345.67 445.77,-343.85 436.48,-338.76 435.34,-345.67"/>
</a>
</g>
</g>
<!-- Node13 -->
<g id="Node000013" class="node">
<title>Node13</title>
<g id="a_Node000013"><a xlink:href="../../de/d2f/_token_mgr_error_8h.html" target="_top" xlink:title=" ">
<polygon fill="white" stroke="#666666" points="756,-305 607,-305 607,-286 756,-286 756,-305"/>
<text text-anchor="middle" x="681.5" y="-293" font-family="Helvetica,sans-Serif" font-size="10.00">vhdlparser/TokenMgrError.h</text>
</a>
</g>
</g>
<!-- Node1&#45;&gt;Node13 -->
<g id="edge25_Node000001_Node000013" class="edge">
<title>Node1&#45;&gt;Node13</title>
<g id="a_edge25_Node000001_Node000013"><a xlink:title=" ">
<path fill="none" stroke="#63b8ff" d="M541.94,-338.06C575.2,-328.15 622.58,-314.04 652.68,-305.08"/>
<polygon fill="#63b8ff" stroke="#63b8ff" points="540.68,-334.78 532.1,-340.98 542.68,-341.49 540.68,-334.78"/>
</a>
</g>
</g>
<!-- Node14 -->
<g id="Node000014" class="node">
<title>Node14</title>
<g id="a_Node000014"><a xlink:href="../../dc/d21/_vhdl_parser_constants_8h.html" target="_top" xlink:title=" ">
<polygon fill="white" stroke="#666666" points="796,-250 615,-250 615,-231 796,-231 796,-250"/>
<text text-anchor="middle" x="705.5" y="-238" font-family="Helvetica,sans-Serif" font-size="10.00">vhdlparser/VhdlParserConstants.h</text>
</a>
</g>
</g>
<!-- Node1&#45;&gt;Node14 -->
<g id="edge27_Node000001_Node000014" class="edge">
<title>Node1&#45;&gt;Node14</title>
<g id="a_edge27_Node000001_Node000014"><a xlink:title=" ">
<path fill="none" stroke="#63b8ff" d="M515.93,-332.77C527.36,-318.47 545.52,-298.32 565.5,-286 594.48,-268.13 631.31,-256.8 659.92,-250.04"/>
<polygon fill="#63b8ff" stroke="#63b8ff" points="513.08,-330.74 509.73,-340.79 518.61,-335.02 513.08,-330.74"/>
</a>
</g>
</g>
<!-- Node2&#45;&gt;Node3 -->
<g id="edge2_Node000002_Node000003" class="edge">
<title>Node2&#45;&gt;Node3</title>
<g id="a_edge2_Node000002_Node000003"><a xlink:title=" ">
<path fill="none" stroke="#63b8ff" d="M804.06,-230.88C629.76,-214.22 436.93,-199 338.19,-191.45"/>
<polygon fill="#63b8ff" stroke="#63b8ff" points="803.9,-234.38 814.19,-231.85 804.57,-227.42 803.9,-234.38"/>
</a>
</g>
</g>
<!-- Node2&#45;&gt;Node8 -->
<g id="edge10_Node000002_Node000008" class="edge">
<title>Node2&#45;&gt;Node8</title>
<g id="a_edge10_Node000002_Node000008"><a xlink:title=" ">
<path fill="none" stroke="#63b8ff" d="M849.47,-227.55C763.19,-197.27 536.22,-117.59 443.66,-85.1"/>
<polygon fill="#63b8ff" stroke="#63b8ff" points="848.44,-230.9 859.04,-230.91 850.76,-224.3 848.44,-230.9"/>
</a>
</g>
</g>
<!-- Node4 -->
<g id="Node000004" class="node">
<title>Node4</title>
<g id="a_Node000004"><a xlink:href="../../de/dea/vhdldocgen_8cpp.html" target="_top" xlink:title=" ">
<polygon fill="white" stroke="#666666" points="356.5,-140 246.5,-140 246.5,-121 356.5,-121 356.5,-140"/>
<text text-anchor="middle" x="301.5" y="-128" font-family="Helvetica,sans-Serif" font-size="10.00">src/vhdldocgen.cpp</text>
</a>
</g>
</g>
<!-- Node3&#45;&gt;Node4 -->
<g id="edge3_Node000003_Node000004" class="edge">
<title>Node3&#45;&gt;Node4</title>
<g id="a_edge3_Node000003_Node000004"><a xlink:title=" ">
<path fill="none" stroke="#63b8ff" d="M282.18,-166.82C287.1,-157.82 292.86,-147.29 296.8,-140.09"/>
<polygon fill="#63b8ff" stroke="#63b8ff" points="279.02,-165.3 277.29,-175.75 285.16,-168.66 279.02,-165.3"/>
</a>
</g>
</g>
<!-- Node5 -->
<g id="Node000005" class="node">
<title>Node5</title>
<g id="a_Node000005"><a xlink:href="../../d2/dc3/_vhdl_parser_error_handler_8hpp.html" target="_top" xlink:title=" ">
<polygon fill="white" stroke="#666666" points="171.5,-85 25.5,-85 25.5,-55 171.5,-55 171.5,-85"/>
<text text-anchor="start" x="33.5" y="-73" font-family="Helvetica,sans-Serif" font-size="10.00">vhdlparser/VhdlParserError</text>
<text text-anchor="middle" x="98.5" y="-62" font-family="Helvetica,sans-Serif" font-size="10.00">Handler.hpp</text>
</a>
</g>
</g>
<!-- Node3&#45;&gt;Node5 -->
<g id="edge4_Node000003_Node000005" class="edge">
<title>Node3&#45;&gt;Node5</title>
<g id="a_edge4_Node000003_Node000005"><a xlink:title=" ">
<path fill="none" stroke="#63b8ff" d="M196.99,-175.6C152.79,-168.67 103.07,-157.27 89.5,-140 77.18,-124.33 84.48,-100.19 91.23,-85.02"/>
<polygon fill="#63b8ff" stroke="#63b8ff" points="196.49,-179.07 206.9,-177.1 197.54,-172.14 196.49,-179.07"/>
</a>
</g>
</g>
<!-- Node7 -->
<g id="Node000007" class="node">
<title>Node7</title>
<g id="a_Node000007"><a xlink:href="../../d9/d48/vhdlstring_8h.html" target="_top" xlink:title=" ">
<polygon fill="white" stroke="#666666" points="228,-140 99,-140 99,-121 228,-121 228,-140"/>
<text text-anchor="middle" x="163.5" y="-128" font-family="Helvetica,sans-Serif" font-size="10.00">vhdlparser/vhdlstring.h</text>
</a>
</g>
</g>
<!-- Node3&#45;&gt;Node7 -->
<g id="edge6_Node000003_Node000007" class="edge">
<title>Node3&#45;&gt;Node7</title>
<g id="a_edge6_Node000003_Node000007"><a xlink:title=" ">
<path fill="none" stroke="#63b8ff" d="M245.77,-171.5C225.71,-161.75 198.82,-148.68 181.33,-140.17"/>
<polygon fill="#63b8ff" stroke="#63b8ff" points="244.46,-174.76 254.99,-175.98 247.52,-168.46 244.46,-174.76"/>
</a>
</g>
</g>
<!-- Node6 -->
<g id="Node000006" class="node">
<title>Node6</title>
<g id="a_Node000006"><a xlink:href="../../d1/d86/vhdljjparser_8cpp.html" target="_top" xlink:title=" ">
<polygon fill="white" stroke="#666666" points="297,-19 186,-19 186,0 297,0 297,-19"/>
<text text-anchor="middle" x="241.5" y="-7" font-family="Helvetica,sans-Serif" font-size="10.00">src/vhdljjparser.cpp</text>
</a>
</g>
</g>
<!-- Node5&#45;&gt;Node6 -->
<g id="edge5_Node000005_Node000006" class="edge">
<title>Node5&#45;&gt;Node6</title>
<g id="a_edge5_Node000005_Node000006"><a xlink:title=" ">
<path fill="none" stroke="#63b8ff" d="M142.03,-51.19C168.01,-40.57 199.84,-27.54 220.38,-19.14"/>
<polygon fill="#63b8ff" stroke="#63b8ff" points="140.68,-47.96 132.75,-54.99 143.33,-54.44 140.68,-47.96"/>
</a>
</g>
</g>
<!-- Node7&#45;&gt;Node5 -->
<g id="edge7_Node000007_Node000005" class="edge">
<title>Node7&#45;&gt;Node5</title>
<g id="a_edge7_Node000007_Node000005"><a xlink:title=" ">
<path fill="none" stroke="#63b8ff" d="M146.24,-113.97C136.28,-105.01 123.86,-93.82 114.18,-85.11"/>
<polygon fill="#63b8ff" stroke="#63b8ff" points="144.13,-116.78 153.91,-120.87 148.82,-111.58 144.13,-116.78"/>
</a>
</g>
</g>
<!-- Node7&#45;&gt;Node8 -->
<g id="edge8_Node000007_Node000008" class="edge">
<title>Node7&#45;&gt;Node8</title>
<g id="a_edge8_Node000007_Node000008"><a xlink:title=" ">
<path fill="none" stroke="#63b8ff" d="M208.37,-118.56C247.2,-109.1 303.61,-95.35 345.8,-85.06"/>
<polygon fill="#63b8ff" stroke="#63b8ff" points="207.28,-115.22 198.4,-120.99 208.94,-122.03 207.28,-115.22"/>
</a>
</g>
</g>
<!-- Node8&#45;&gt;Node6 -->
<g id="edge9_Node000008_Node000006" class="edge">
<title>Node8&#45;&gt;Node6</title>
<g id="a_edge9_Node000008_Node000006"><a xlink:title=" ">
<path fill="none" stroke="#63b8ff" d="M354.96,-51.47C325.39,-40.79 288.9,-27.62 265.42,-19.14"/>
<polygon fill="#63b8ff" stroke="#63b8ff" points="354.1,-54.88 364.7,-54.99 356.48,-48.3 354.1,-54.88"/>
</a>
</g>
</g>
<!-- Node9&#45;&gt;Node3 -->
<g id="edge12_Node000009_Node000003" class="edge">
<title>Node9&#45;&gt;Node3</title>
<g id="a_edge12_Node000009_Node000003"><a xlink:title=" ">
<path fill="none" stroke="#63b8ff" d="M112.66,-228.44C150.48,-218.52 205.19,-204.16 239.79,-195.08"/>
<polygon fill="#63b8ff" stroke="#63b8ff" points="111.74,-225.06 102.95,-230.98 113.52,-231.83 111.74,-225.06"/>
</a>
</g>
</g>
<!-- Node9&#45;&gt;Node5 -->
<g id="edge13_Node000009_Node000005" class="edge">
<title>Node9&#45;&gt;Node5</title>
<g id="a_edge13_Node000009_Node000005"><a xlink:title=" ">
<path fill="none" stroke="#63b8ff" d="M62.55,-221.51C57.92,-208.82 53.53,-191.42 56.5,-176 63.07,-141.88 80.63,-104.74 90.85,-85.08"/>
<polygon fill="#63b8ff" stroke="#63b8ff" points="59.35,-222.94 66.33,-230.9 65.84,-220.32 59.35,-222.94"/>
</a>
</g>
</g>
<!-- Node9&#45;&gt;Node8 -->
<g id="edge14_Node000009_Node000008" class="edge">
<title>Node9&#45;&gt;Node8</title>
<g id="a_edge14_Node000009_Node000008"><a xlink:title=" ">
<path fill="none" stroke="#63b8ff" d="M67.44,-220.75C64.33,-194.57 63.18,-147.3 89.5,-121 122.11,-88.43 245.8,-77.07 327.86,-73.12"/>
<polygon fill="#63b8ff" stroke="#63b8ff" points="64,-221.45 68.86,-230.86 70.93,-220.47 64,-221.45"/>
</a>
</g>
</g>
<!-- Node11&#45;&gt;Node3 -->
<g id="edge22_Node000011_Node000003" class="edge">
<title>Node11&#45;&gt;Node3</title>
<g id="a_edge22_Node000011_Node000003"><a xlink:title=" ">
<path fill="none" stroke="#63b8ff" d="M384.12,-276.26C378.55,-262.47 369.35,-243.8 356.5,-231 339.78,-214.35 315.53,-202.42 297.38,-195.12"/>
<polygon fill="#63b8ff" stroke="#63b8ff" points="380.86,-277.55 387.66,-285.68 387.41,-275.08 380.86,-277.55"/>
</a>
</g>
</g>
<!-- Node11&#45;&gt;Node8 -->
<g id="edge23_Node000011_Node000008" class="edge">
<title>Node11&#45;&gt;Node8</title>
<g id="a_edge23_Node000011_Node000008"><a xlink:title=" ">
<path fill="none" stroke="#63b8ff" d="M391.6,-275.61C394.15,-231.76 400.43,-123.84 402.68,-85.12"/>
<polygon fill="#63b8ff" stroke="#63b8ff" points="388.1,-275.55 391.01,-285.74 395.08,-275.96 388.1,-275.55"/>
</a>
</g>
</g>
<!-- Node11&#45;&gt;Node9 -->
<g id="edge17_Node000011_Node000009" class="edge">
<title>Node11&#45;&gt;Node9</title>
<g id="a_edge17_Node000011_Node000009"><a xlink:title=" ">
<path fill="none" stroke="#63b8ff" d="M328.97,-284.31C268.88,-274.36 178.47,-259.38 122.05,-250.04"/>
<polygon fill="#63b8ff" stroke="#63b8ff" points="328.65,-287.8 339.09,-285.98 329.79,-280.9 328.65,-287.8"/>
</a>
</g>
</g>
<!-- Node11&#45;&gt;Node10 -->
<g id="edge18_Node000011_Node000010" class="edge">
<title>Node11&#45;&gt;Node10</title>
<g id="a_edge18_Node000011_Node000010"><a xlink:title=" ">
<path fill="none" stroke="#63b8ff" d="M420.54,-282.16C444.42,-272.35 477.22,-258.87 498.4,-250.17"/>
<polygon fill="#63b8ff" stroke="#63b8ff" points="419.15,-278.95 411.23,-285.98 421.81,-285.42 419.15,-278.95"/>
</a>
</g>
</g>
<!-- Node11&#45;&gt;Node12 -->
<g id="edge19_Node000011_Node000012" class="edge">
<title>Node11&#45;&gt;Node12</title>
<g id="a_edge19_Node000011_Node000012"><a xlink:title=" ">
<path fill="none" stroke="#63b8ff" d="M362.15,-281.77C340.38,-271.99 310.91,-258.75 291.8,-250.17"/>
<polygon fill="#63b8ff" stroke="#63b8ff" points="360.99,-285.08 371.54,-285.98 363.85,-278.69 360.99,-285.08"/>
</a>
</g>
</g>
<!-- Node12&#45;&gt;Node3 -->
<g id="edge20_Node000012_Node000003" class="edge">
<title>Node12&#45;&gt;Node3</title>
<g id="a_edge20_Node000012_Node000003"><a xlink:title=" ">
<path fill="none" stroke="#63b8ff" d="M272.5,-220.66C272.5,-211.93 272.5,-201.99 272.5,-195.09"/>
<polygon fill="#63b8ff" stroke="#63b8ff" points="269,-220.75 272.5,-230.75 276,-220.75 269,-220.75"/>
</a>
</g>
</g>
<!-- Node12&#45;&gt;Node8 -->
<g id="edge21_Node000012_Node000008" class="edge">
<title>Node12&#45;&gt;Node8</title>
<g id="a_edge21_Node000012_Node000008"><a xlink:title=" ">
<path fill="none" stroke="#63b8ff" d="M303.65,-226.43C318.45,-218.98 335.49,-208.42 347.5,-195 377.26,-161.72 393.6,-110 400.12,-85.2"/>
<polygon fill="#63b8ff" stroke="#63b8ff" points="301.84,-223.42 294.32,-230.89 304.85,-229.74 301.84,-223.42"/>
</a>
</g>
</g>
<!-- Node14&#45;&gt;Node3 -->
<g id="edge28_Node000014_Node000003" class="edge">
<title>Node14&#45;&gt;Node3</title>
<g id="a_edge28_Node000014_Node000003"><a xlink:title=" ">
<path fill="none" stroke="#63b8ff" d="M625.83,-229.75C543.19,-219.63 415.48,-204 338.35,-194.56"/>
<polygon fill="#63b8ff" stroke="#63b8ff" points="625.58,-233.24 635.93,-230.98 626.43,-226.3 625.58,-233.24"/>
</a>
</g>
</g>
<!-- Node14&#45;&gt;Node8 -->
<g id="edge29_Node000014_Node000008" class="edge">
<title>Node14&#45;&gt;Node8</title>
<g id="a_edge29_Node000014_Node000008"><a xlink:title=" ">
<path fill="none" stroke="#63b8ff" d="M681.21,-225.95C625,-194.58 486.36,-117.23 428.99,-85.22"/>
<polygon fill="#63b8ff" stroke="#63b8ff" points="679.67,-229.1 690.11,-230.91 683.08,-222.98 679.67,-229.1"/>
</a>
</g>
</g>
</g>
</svg>

<g id="navigator" transform="translate(0 0)" fill="#404254">
  <rect fill="#f2f5e9" fill-opacity="0.5" stroke="#606060" stroke-width=".5" x="0" y="0" width="60" height="60"/>
  <use id="zoomplus" xlink:href="#zoomPlus" x="17" y="9" onmousedown="handleZoom(evt,'in')"/>
  <use id="zoomminus" xlink:href="#zoomMin" x="42" y="9" onmousedown="handleZoom(evt,'out')"/>
  <use id="reset" xlink:href="#resetDef" x="30" y="36" onmousedown="handleReset()"/>
   <use id="arrowup" xlink:href="#arrowUp" x="0" y="0" onmousedown="handlePan(0,-1)"/>
  <use id="arrowright" xlink:href="#arrowRight" x="0" y="0" onmousedown="handlePan(1,0)"/>
  <use id="arrowdown" xlink:href="#arrowDown" x="0" y="0" onmousedown="handlePan(0,1)"/>
  <use id="arrowleft" xlink:href="#arrowLeft" x="0" y="0" onmousedown="handlePan(-1,0)"/>
</g>
<svg viewBox="0 0 15 15" width="100%" height="30px" preserveAspectRatio="xMaxYMin meet">
 <g id="arrow_out" transform="scale(0.3 0.3)">
  <a xlink:href="_java_c_c_8h__dep__incl_org.svg" target="_base">
   <rect id="button" ry="5" rx="5" y="6" x="6" height="38" width="38"
        fill="#f2f5e9" fill-opacity="0.5" stroke="#606060" stroke-width="1.0"/>
   <path id="arrow"
     d="M 11.500037,31.436501 C 11.940474,20.09759 22.043105,11.32322 32.158766,21.979434 L 37.068811,17.246167 C 37.068811,17.246167 37.088388,32 37.088388,32 L 22.160133,31.978069 C 22.160133,31.978069 26.997745,27.140456 26.997745,27.140456 C 18.528582,18.264221 13.291696,25.230495 11.500037,31.436501 z"
     style="fill:#404040;"/>
  </a>
 </g>
</svg>

<style type='text/css'>
<![CDATA[
[data-mouse-over-selected='false'] { opacity: 0.7; }
[data-mouse-over-selected='true']  { opacity: 1.0; }
]]>
</style>
<script type="application/ecmascript"><![CDATA[
document.addEventListener('DOMContentLoaded', (event) => {
  highlightEdges();
  highlightAdjacentNodes();
});
]]></script>
</svg>
