<?xml version="1.0" encoding="UTF-8" standalone="no"?>
<!DOCTYPE svg PUBLIC "-//W3C//DTD SVG 1.1//EN"
 "http://www.w3.org/Graphics/SVG/1.1/DTD/svg11.dtd">
<!-- Generated by graphviz version 2.43.0 (0)
 -->
<!-- Title: TemplateNodeTree::TreeContext Pages: 1 -->
<svg width="500pt" height="313pt"
 viewBox="0.00 0.00 499.50 313.00" xmlns="http://www.w3.org/2000/svg" xmlns:xlink="http://www.w3.org/1999/xlink">
<g id="graph0" class="graph" transform="scale(1 1) rotate(0) translate(4 309)">
<title>TemplateNodeTree::TreeContext</title>
<!-- Node1 -->
<g id="Node000001" class="node">
<title>Node1</title>
<g id="a_Node000001"><a xlink:title=" ">
<polygon fill="#999999" stroke="#666666" points="379.5,-19 207.5,-19 207.5,0 379.5,0 379.5,-19"/>
<text text-anchor="middle" x="293.5" y="-7" font-family="Helvetica,sans-Serif" font-size="10.00">TemplateNodeTree::TreeContext</text>
</a>
</g>
</g>
<!-- Node2 -->
<g id="Node000002" class="node">
<title>Node2</title>
<g id="a_Node000002"><a xlink:href="../../d8/d31/class_template_node_tree.html" target="_top" xlink:title="Class representing an &#39;tree&#39; tag in a template.">
<polygon fill="white" stroke="#666666" points="286,-85 179,-85 179,-66 286,-66 286,-85"/>
<text text-anchor="middle" x="232.5" y="-73" font-family="Helvetica,sans-Serif" font-size="10.00">TemplateNodeTree</text>
</a>
</g>
</g>
<!-- Node2&#45;&gt;Node1 -->
<g id="edge1_Node000001_Node000002" class="edge">
<title>Node2&#45;&gt;Node1</title>
<g id="a_edge1_Node000001_Node000002"><a xlink:title=" ">
<path fill="none" stroke="#9a32cd" stroke-dasharray="5,2" d="M247.77,-58.48C259.55,-46.12 275.4,-29.49 285.01,-19.41"/>
<polygon fill="#9a32cd" stroke="#9a32cd" points="245.09,-56.22 240.73,-65.87 250.16,-61.04 245.09,-56.22"/>
</a>
</g>
<text text-anchor="middle" x="284.5" y="-40" font-family="Helvetica,sans-Serif" font-size="10.00" fill="grey"> object</text>
</g>
<!-- Node3 -->
<g id="Node000003" class="node">
<title>Node3</title>
<g id="a_Node000003"><a xlink:href="../../d8/d78/class_template_node_creator.html" target="_top" xlink:title=" ">
<polygon fill="white" stroke="#666666" points="230.5,-162 100.5,-162 100.5,-132 230.5,-132 230.5,-162"/>
<text text-anchor="start" x="108.5" y="-150" font-family="Helvetica,sans-Serif" font-size="10.00">TemplateNodeCreator</text>
<text text-anchor="middle" x="165.5" y="-139" font-family="Helvetica,sans-Serif" font-size="10.00">&lt; TemplateNodeTree &gt;</text>
</a>
</g>
</g>
<!-- Node3&#45;&gt;Node2 -->
<g id="edge2_Node000002_Node000003" class="edge">
<title>Node3&#45;&gt;Node2</title>
<g id="a_edge2_Node000002_Node000003"><a xlink:title=" ">
<path fill="none" stroke="#63b8ff" d="M186.16,-124.57C198.91,-111.34 214.59,-95.08 224.05,-85.27"/>
<polygon fill="#63b8ff" stroke="#63b8ff" points="183.48,-122.31 179.06,-131.94 188.52,-127.17 183.48,-122.31"/>
</a>
</g>
</g>
<!-- Node4 -->
<g id="Node000004" class="node">
<title>Node4</title>
<g id="a_Node000004"><a xlink:href="../../d6/d53/class_template_node.html" target="_top" xlink:title="Base class of all nodes in a template&#39;s AST.">
<polygon fill="white" stroke="#666666" points="87,-305 0,-305 0,-286 87,-286 87,-305"/>
<text text-anchor="middle" x="43.5" y="-293" font-family="Helvetica,sans-Serif" font-size="10.00">TemplateNode</text>
</a>
</g>
</g>
<!-- Node4&#45;&gt;Node3 -->
<g id="edge3_Node000003_Node000004" class="edge">
<title>Node4&#45;&gt;Node3</title>
<g id="a_edge3_Node000003_Node000004"><a xlink:title=" ">
<path fill="none" stroke="#63b8ff" d="M35.46,-276.41C28.6,-258.01 21.71,-229.39 34.5,-209 49.17,-185.62 75.41,-171.07 100.58,-162.08"/>
<polygon fill="#63b8ff" stroke="#63b8ff" points="32.22,-277.75 39.24,-285.69 38.71,-275.11 32.22,-277.75"/>
</a>
</g>
</g>
<!-- Node4&#45;&gt;Node4 -->
<g id="edge4_Node000004_Node000004" class="edge">
<title>Node4&#45;&gt;Node4</title>
<g id="a_edge4_Node000004_Node000004"><a xlink:title=" ">
<path fill="none" stroke="#9a32cd" stroke-dasharray="5,2" d="M97.32,-300.21C102.04,-299.22 105,-297.65 105,-295.5 105,-292.06 97.43,-290.1 87.17,-289.62"/>
<polygon fill="#9a32cd" stroke="#9a32cd" points="96.7,-296.76 87.17,-301.38 97.5,-303.72 96.7,-296.76"/>
</a>
</g>
<text text-anchor="middle" x="130" y="-293" font-family="Helvetica,sans-Serif" font-size="10.00" fill="grey"> m_parent</text>
</g>
<!-- Node6 -->
<g id="Node000006" class="node">
<title>Node6</title>
<g id="a_Node000006"><a xlink:href="../../d8/d78/class_template_node_creator.html" target="_top" xlink:title="Helper class for creating template AST tag nodes and returning the template for a given node.">
<polygon fill="white" stroke="#666666" points="195.5,-233.5 43.5,-233.5 43.5,-214.5 195.5,-214.5 195.5,-233.5"/>
<text text-anchor="middle" x="119.5" y="-221.5" font-family="Helvetica,sans-Serif" font-size="10.00">TemplateNodeCreator&lt; T &gt;</text>
</a>
</g>
</g>
<!-- Node4&#45;&gt;Node6 -->
<g id="edge7_Node000006_Node000004" class="edge">
<title>Node4&#45;&gt;Node6</title>
<g id="a_edge7_Node000006_Node000004"><a xlink:title=" ">
<path fill="none" stroke="#63b8ff" d="M60.54,-278.92C75.85,-264.92 97.76,-244.88 110.1,-233.59"/>
<polygon fill="#63b8ff" stroke="#63b8ff" points="57.84,-276.65 52.82,-285.98 62.56,-281.81 57.84,-276.65"/>
</a>
</g>
</g>
<!-- Node5 -->
<g id="Node000005" class="node">
<title>Node5</title>
<g id="a_Node000005"><a xlink:href="../../d9/d45/class_q_c_string.html" target="_top" xlink:title="This is an alternative implementation of QCString.">
<polygon fill="white" stroke="#666666" points="246,-305 187,-305 187,-286 246,-286 246,-305"/>
<text text-anchor="middle" x="216.5" y="-293" font-family="Helvetica,sans-Serif" font-size="10.00">QCString</text>
</a>
</g>
</g>
<!-- Node5&#45;&gt;Node3 -->
<g id="edge5_Node000003_Node000005" class="edge">
<title>Node5&#45;&gt;Node3</title>
<g id="a_edge5_Node000003_Node000005"><a xlink:title=" ">
<path fill="none" stroke="#9a32cd" stroke-dasharray="5,2" d="M221.98,-275.88C227.88,-252.01 234.33,-210.11 217.5,-180 213.36,-172.6 206.73,-166.7 199.57,-162.08"/>
<polygon fill="#9a32cd" stroke="#9a32cd" points="218.55,-275.18 219.32,-285.75 225.31,-277.01 218.55,-275.18"/>
</a>
</g>
<text text-anchor="middle" x="274.5" y="-221.5" font-family="Helvetica,sans-Serif" font-size="10.00" fill="grey"> m_templateName</text>
</g>
<!-- Node5&#45;&gt;Node6 -->
<g id="edge8_Node000006_Node000005" class="edge">
<title>Node5&#45;&gt;Node6</title>
<g id="a_edge8_Node000006_Node000005"><a xlink:title=" ">
<path fill="none" stroke="#9a32cd" stroke-dasharray="5,2" d="M176.9,-287.39C155.67,-282.74 132.47,-276.06 125.5,-268 117.32,-258.54 117.22,-243.27 118.17,-233.7"/>
<polygon fill="#9a32cd" stroke="#9a32cd" points="176.26,-290.83 186.77,-289.43 177.69,-283.97 176.26,-290.83"/>
</a>
</g>
<text text-anchor="middle" x="171.5" y="-260" font-family="Helvetica,sans-Serif" font-size="10.00" fill="grey"> m_templateName</text>
</g>
<!-- Node6&#45;&gt;Node3 -->
<g id="edge6_Node000003_Node000006" class="edge">
<title>Node6&#45;&gt;Node3</title>
<g id="a_edge6_Node000003_Node000006"><a xlink:title=" ">
<path fill="none" stroke="orange" stroke-dasharray="5,2" d="M104.59,-206.31C99.11,-198.11 95.37,-188.24 100.5,-180 105.22,-172.42 112.32,-166.58 120.12,-162.1"/>
<polygon fill="orange" stroke="orange" points="101.97,-208.65 110.87,-214.41 107.5,-204.36 101.97,-208.65"/>
</a>
</g>
<text text-anchor="middle" x="159" y="-183" font-family="Helvetica,sans-Serif" font-size="10.00" fill="grey"> &lt; TemplateNodeTree &gt;</text>
</g>
<!-- Node7 -->
<g id="Node000007" class="node">
<title>Node7</title>
<g id="a_Node000007"><a xlink:href="../../df/daf/class_template_node_list.html" target="_top" xlink:title="Class representing a list of AST nodes in a template.">
<polygon fill="white" stroke="#666666" points="410.5,-156.5 306.5,-156.5 306.5,-137.5 410.5,-137.5 410.5,-156.5"/>
<text text-anchor="middle" x="358.5" y="-144.5" font-family="Helvetica,sans-Serif" font-size="10.00">TemplateNodeList</text>
</a>
</g>
</g>
<!-- Node7&#45;&gt;Node2 -->
<g id="edge9_Node000002_Node000007" class="edge">
<title>Node7&#45;&gt;Node2</title>
<g id="a_edge9_Node000002_Node000007"><a xlink:title=" ">
<path fill="none" stroke="#9a32cd" stroke-dasharray="5,2" d="M334.04,-132.51C308.61,-118.48 269.59,-96.96 248.08,-85.09"/>
<polygon fill="#9a32cd" stroke="#9a32cd" points="332.6,-135.71 343.05,-137.48 335.98,-129.58 332.6,-135.71"/>
</a>
</g>
<text text-anchor="middle" x="333" y="-106" font-family="Helvetica,sans-Serif" font-size="10.00" fill="grey"> m_treeNodes</text>
</g>
<!-- Node8 -->
<g id="Node000008" class="node">
<title>Node8</title>
<g id="a_Node000008"><a xlink:title=" ">
<polygon fill="white" stroke="#666666" points="491.5,-239 341.5,-239 341.5,-209 491.5,-209 491.5,-239"/>
<text text-anchor="start" x="349.5" y="-227" font-family="Helvetica,sans-Serif" font-size="10.00">std::vector&lt; TemplateNode</text>
<text text-anchor="middle" x="416.5" y="-216" font-family="Helvetica,sans-Serif" font-size="10.00">Ptr &gt;</text>
</a>
</g>
</g>
<!-- Node8&#45;&gt;Node7 -->
<g id="edge10_Node000007_Node000008" class="edge">
<title>Node8&#45;&gt;Node7</title>
<g id="a_edge10_Node000007_Node000008"><a xlink:title=" ">
<path fill="none" stroke="#63b8ff" d="M399.31,-200.77C387.94,-186.07 373.67,-167.61 365.36,-156.87"/>
<polygon fill="#63b8ff" stroke="#63b8ff" points="396.7,-203.12 405.59,-208.89 402.24,-198.84 396.7,-203.12"/>
</a>
</g>
</g>
<!-- Node9 -->
<g id="Node000009" class="node">
<title>Node9</title>
<g id="a_Node000009"><a xlink:href="../../da/d1b/class_template_context.html" target="_top" xlink:title="Abstract interface for a template context.">
<polygon fill="white" stroke="#666666" points="404.5,-85 304.5,-85 304.5,-66 404.5,-66 404.5,-85"/>
<text text-anchor="middle" x="354.5" y="-73" font-family="Helvetica,sans-Serif" font-size="10.00">TemplateContext</text>
</a>
</g>
</g>
<!-- Node9&#45;&gt;Node1 -->
<g id="edge11_Node000001_Node000009" class="edge">
<title>Node9&#45;&gt;Node1</title>
<g id="a_edge11_Node000001_Node000009"><a xlink:title=" ">
<path fill="none" stroke="#9a32cd" stroke-dasharray="5,2" d="M339.23,-58.48C327.45,-46.12 311.6,-29.49 301.99,-19.41"/>
<polygon fill="#9a32cd" stroke="#9a32cd" points="336.84,-61.04 346.27,-65.87 341.91,-56.22 336.84,-61.04"/>
</a>
</g>
<text text-anchor="middle" x="359.5" y="-40" font-family="Helvetica,sans-Serif" font-size="10.00" fill="grey"> templateCtx</text>
</g>
</g>
</svg>
