<?xml version="1.0" encoding="UTF-8" standalone="no"?>
<!DOCTYPE svg PUBLIC "-//W3C//DTD SVG 1.1//EN"
 "http://www.w3.org/Graphics/SVG/1.1/DTD/svg11.dtd">
<!-- Generated by graphviz version 2.43.0 (0)
 -->
<!-- Title: TemplateNodeCloseSubIndex Pages: 1 -->
<svg width="319pt" height="216pt"
 viewBox="0.00 0.00 319.00 216.00" xmlns="http://www.w3.org/2000/svg" xmlns:xlink="http://www.w3.org/1999/xlink">
<g id="graph0" class="graph" transform="scale(1 1) rotate(0) translate(4 212)">
<title>TemplateNodeCloseSubIndex</title>
<!-- Node1 -->
<g id="Node000001" class="node">
<title>Node1</title>
<g id="a_Node000001"><a xlink:title="Class representing an &#39;closesubindex&#39; tag in a template.">
<polygon fill="#999999" stroke="#666666" points="170.5,-19 11.5,-19 11.5,0 170.5,0 170.5,-19"/>
<text text-anchor="middle" x="91" y="-7" font-family="Helvetica,sans-Serif" font-size="10.00">TemplateNodeCloseSubIndex</text>
</a>
</g>
</g>
<!-- Node2 -->
<g id="Node000002" class="node">
<title>Node2</title>
<g id="a_Node000002"><a xlink:href="../../d8/d78/class_template_node_creator.html" target="_top" xlink:title=" ">
<polygon fill="white" stroke="#666666" points="182,-86 0,-86 0,-56 182,-56 182,-86"/>
<text text-anchor="start" x="8" y="-74" font-family="Helvetica,sans-Serif" font-size="10.00">TemplateNodeCreator</text>
<text text-anchor="middle" x="91" y="-63" font-family="Helvetica,sans-Serif" font-size="10.00">&lt; TemplateNodeCloseSubIndex &gt;</text>
</a>
</g>
</g>
<!-- Node2&#45;&gt;Node1 -->
<g id="edge1_Node000001_Node000002" class="edge">
<title>Node2&#45;&gt;Node1</title>
<g id="a_edge1_Node000001_Node000002"><a xlink:title=" ">
<path fill="none" stroke="#63b8ff" d="M91,-45.79C91,-36.36 91,-26.15 91,-19.16"/>
<polygon fill="#63b8ff" stroke="#63b8ff" points="87.5,-45.9 91,-55.9 94.5,-45.9 87.5,-45.9"/>
</a>
</g>
</g>
<!-- Node3 -->
<g id="Node000003" class="node">
<title>Node3</title>
<g id="a_Node000003"><a xlink:href="../../d6/d53/class_template_node.html" target="_top" xlink:title="Base class of all nodes in a template&#39;s AST.">
<polygon fill="white" stroke="#666666" points="130.5,-208 43.5,-208 43.5,-189 130.5,-189 130.5,-208"/>
<text text-anchor="middle" x="87" y="-196" font-family="Helvetica,sans-Serif" font-size="10.00">TemplateNode</text>
</a>
</g>
</g>
<!-- Node3&#45;&gt;Node2 -->
<g id="edge2_Node000002_Node000003" class="edge">
<title>Node3&#45;&gt;Node2</title>
<g id="a_edge2_Node000002_Node000003"><a xlink:title=" ">
<path fill="none" stroke="#63b8ff" d="M87.6,-178.76C88.4,-153.48 89.82,-109.02 90.55,-86.27"/>
<polygon fill="#63b8ff" stroke="#63b8ff" points="84.1,-178.77 87.27,-188.87 91.09,-178.99 84.1,-178.77"/>
</a>
</g>
</g>
<!-- Node4 -->
<g id="Node000004" class="node">
<title>Node4</title>
<g id="a_Node000004"><a xlink:href="../../d8/d78/class_template_node_creator.html" target="_top" xlink:title="Helper class for creating template AST tag nodes and returning the template for a given node.">
<polygon fill="white" stroke="#666666" points="255,-152 103,-152 103,-133 255,-133 255,-152"/>
<text text-anchor="middle" x="179" y="-140" font-family="Helvetica,sans-Serif" font-size="10.00">TemplateNodeCreator&lt; T &gt;</text>
</a>
</g>
</g>
<!-- Node3&#45;&gt;Node4 -->
<g id="edge4_Node000004_Node000003" class="edge">
<title>Node3&#45;&gt;Node4</title>
<g id="a_edge4_Node000004_Node000003"><a xlink:title=" ">
<path fill="none" stroke="#63b8ff" d="M110.55,-183.68C127.48,-173.74 149.78,-160.65 164.26,-152.15"/>
<polygon fill="#63b8ff" stroke="#63b8ff" points="108.63,-180.74 101.78,-188.82 112.18,-186.78 108.63,-180.74"/>
</a>
</g>
</g>
<!-- Node4&#45;&gt;Node2 -->
<g id="edge3_Node000002_Node000004" class="edge">
<title>Node4&#45;&gt;Node2</title>
<g id="a_edge3_Node000002_Node000004"><a xlink:title=" ">
<path fill="none" stroke="orange" stroke-dasharray="5,2" d="M160.06,-126.54C144.9,-114.57 123.78,-97.89 108.9,-86.14"/>
<polygon fill="orange" stroke="orange" points="158.19,-129.53 168.21,-132.98 162.53,-124.03 158.19,-129.53"/>
</a>
</g>
<text text-anchor="middle" x="226.5" y="-107" font-family="Helvetica,sans-Serif" font-size="10.00" fill="grey"> &lt; TemplateNodeCloseSubIndex &gt;</text>
</g>
</g>
</svg>
