<?xml version="1.0" encoding="UTF-8" standalone="no"?>
<!DOCTYPE svg PUBLIC "-//W3C//DTD SVG 1.1//EN"
 "http://www.w3.org/Graphics/SVG/1.1/DTD/svg11.dtd">
<!-- Generated by graphviz version 2.43.0 (0)
 -->
<!-- Title: InheritanceGraphContext::Private Pages: 1 -->
<svg width="914pt" height="322pt"
 viewBox="0.00 0.00 914.00 322.00" xmlns="http://www.w3.org/2000/svg" xmlns:xlink="http://www.w3.org/1999/xlink">
<g id="graph0" class="graph" transform="scale(1 1) rotate(0) translate(4 318)">
<title>InheritanceGraphContext::Private</title>
<!-- Node1 -->
<g id="Node000001" class="node">
<title>Node1</title>
<g id="a_Node000001"><a xlink:title=" ">
<polygon fill="#999999" stroke="#666666" points="906,-117.5 767,-117.5 767,-87.5 906,-87.5 906,-117.5"/>
<text text-anchor="start" x="775" y="-105.5" font-family="Helvetica,sans-Serif" font-size="10.00">InheritanceGraphContext</text>
<text text-anchor="middle" x="836.5" y="-94.5" font-family="Helvetica,sans-Serif" font-size="10.00">::Private</text>
</a>
</g>
</g>
<!-- Node2 -->
<g id="Node000002" class="node">
<title>Node2</title>
<g id="a_Node000002"><a xlink:href="../../dd/d7e/class_dot_node.html" target="_top" xlink:title="A node in a dot graph.">
<polygon fill="white" stroke="#666666" points="625,-170 566,-170 566,-151 625,-151 625,-170"/>
<text text-anchor="middle" x="595.5" y="-158" font-family="Helvetica,sans-Serif" font-size="10.00">DotNode</text>
</a>
</g>
</g>
<!-- Node2&#45;&gt;Node1 -->
<g id="edge1_Node000001_Node000002" class="edge">
<title>Node2&#45;&gt;Node1</title>
<g id="a_edge1_Node000001_Node000002"><a xlink:title=" ">
<path fill="none" stroke="#9a32cd" stroke-dasharray="5,2" d="M635.32,-151.08C672.69,-142.01 729.82,-128.15 773.49,-117.55"/>
<polygon fill="#9a32cd" stroke="#9a32cd" points="634.22,-147.74 625.33,-153.5 635.87,-154.55 634.22,-147.74"/>
</a>
</g>
<text text-anchor="middle" x="726" y="-135.5" font-family="Helvetica,sans-Serif" font-size="10.00" fill="grey"> m_node</text>
</g>
<!-- Node3 -->
<g id="Node000003" class="node">
<title>Node3</title>
<g id="a_Node000003"><a xlink:href="../../d0/d32/class_dot_graph.html" target="_top" xlink:title="A dot graph.">
<polygon fill="white" stroke="#666666" points="269,-264 206,-264 206,-245 269,-245 269,-264"/>
<text text-anchor="middle" x="237.5" y="-252" font-family="Helvetica,sans-Serif" font-size="10.00">DotGraph</text>
</a>
</g>
</g>
<!-- Node3&#45;&gt;Node2 -->
<g id="edge2_Node000002_Node000003" class="edge">
<title>Node3&#45;&gt;Node2</title>
<g id="a_edge2_Node000002_Node000003"><a xlink:title=" ">
<path fill="none" stroke="#9a32cd" stroke-dasharray="5,2" d="M279.08,-249.77C329.03,-243.28 416.08,-229.82 488,-207.5 520.04,-197.56 555.31,-180.75 576.15,-170.16"/>
<polygon fill="#9a32cd" stroke="#9a32cd" points="278.48,-246.31 269,-251.05 279.36,-253.26 278.48,-246.31"/>
</a>
</g>
<text text-anchor="middle" x="406.5" y="-245.5" font-family="Helvetica,sans-Serif" font-size="10.00" fill="grey"> m_graph</text>
</g>
<!-- Node4 -->
<g id="Node000004" class="node">
<title>Node4</title>
<g id="a_Node000004"><a xlink:href="../../d2/dc2/class_dir.html" target="_top" xlink:title="Class representing a directory in the file system.">
<polygon fill="white" stroke="#666666" points="47.5,-314 16.5,-314 16.5,-295 47.5,-295 47.5,-314"/>
<text text-anchor="middle" x="32" y="-302" font-family="Helvetica,sans-Serif" font-size="10.00">Dir</text>
</a>
</g>
</g>
<!-- Node4&#45;&gt;Node3 -->
<g id="edge3_Node000003_Node000004" class="edge">
<title>Node4&#45;&gt;Node3</title>
<g id="a_edge3_Node000003_Node000004"><a xlink:title=" ">
<path fill="none" stroke="#9a32cd" stroke-dasharray="5,2" d="M57.48,-300.83C81.28,-297.04 118.39,-290.55 150,-282.5 170.34,-277.32 192.9,-269.96 209.87,-264.09"/>
<polygon fill="#9a32cd" stroke="#9a32cd" points="56.88,-297.38 47.54,-302.38 57.96,-304.3 56.88,-297.38"/>
</a>
</g>
<text text-anchor="middle" x="116" y="-298.5" font-family="Helvetica,sans-Serif" font-size="10.00" fill="grey"> m_dir</text>
</g>
<!-- Node5 -->
<g id="Node000005" class="node">
<title>Node5</title>
<g id="a_Node000005"><a xlink:href="../../d9/d45/class_q_c_string.html" target="_top" xlink:title="This is an alternative implementation of QCString.">
<polygon fill="white" stroke="#666666" points="61.5,-220 2.5,-220 2.5,-201 61.5,-201 61.5,-220"/>
<text text-anchor="middle" x="32" y="-208" font-family="Helvetica,sans-Serif" font-size="10.00">QCString</text>
</a>
</g>
</g>
<!-- Node5&#45;&gt;Node2 -->
<g id="edge5_Node000002_Node000005" class="edge">
<title>Node5&#45;&gt;Node2</title>
<g id="a_edge5_Node000002_Node000005"><a xlink:title=" ">
<path fill="none" stroke="#9a32cd" stroke-dasharray="5,2" d="M72.16,-207.14C150.92,-200.35 334.13,-184.49 488,-170.5 514.26,-168.11 544.16,-165.3 565.58,-163.26"/>
<polygon fill="#9a32cd" stroke="#9a32cd" points="71.41,-203.69 61.75,-208.03 72.02,-210.66 71.41,-203.69"/>
</a>
</g>
<text text-anchor="middle" x="237.5" y="-222.5" font-family="Helvetica,sans-Serif" font-size="10.00" fill="grey"> m_label</text>
<text text-anchor="middle" x="237.5" y="-211.5" font-family="Helvetica,sans-Serif" font-size="10.00" fill="grey">m_tooltip</text>
<text text-anchor="middle" x="237.5" y="-200.5" font-family="Helvetica,sans-Serif" font-size="10.00" fill="grey">m_url</text>
</g>
<!-- Node5&#45;&gt;Node3 -->
<g id="edge4_Node000003_Node000005" class="edge">
<title>Node5&#45;&gt;Node3</title>
<g id="a_edge4_Node000003_Node000005"><a xlink:title=" ">
<path fill="none" stroke="#9a32cd" stroke-dasharray="5,2" d="M71.64,-214.56C94.58,-217.35 124.14,-221.62 150,-227.5 170.25,-232.1 192.61,-239.14 209.53,-244.87"/>
<polygon fill="#9a32cd" stroke="#9a32cd" points="71.94,-211.07 61.6,-213.38 71.13,-218.02 71.94,-211.07"/>
</a>
</g>
<text text-anchor="middle" x="116" y="-274.5" font-family="Helvetica,sans-Serif" font-size="10.00" fill="grey"> m_absPath</text>
<text text-anchor="middle" x="116" y="-263.5" font-family="Helvetica,sans-Serif" font-size="10.00" fill="grey">m_baseName</text>
<text text-anchor="middle" x="116" y="-252.5" font-family="Helvetica,sans-Serif" font-size="10.00" fill="grey">m_fileName</text>
<text text-anchor="middle" x="116" y="-241.5" font-family="Helvetica,sans-Serif" font-size="10.00" fill="grey">m_relPath</text>
<text text-anchor="middle" x="116" y="-230.5" font-family="Helvetica,sans-Serif" font-size="10.00" fill="grey">m_theGraph</text>
</g>
<!-- Node6 -->
<g id="Node000006" class="node">
<title>Node6</title>
<g id="a_Node000006"><a xlink:href="../../d1/dcf/class_class_def.html" target="_top" xlink:title="A abstract class representing of a compound symbol.">
<polygon fill="white" stroke="#666666" points="267.5,-157 207.5,-157 207.5,-138 267.5,-138 267.5,-157"/>
<text text-anchor="middle" x="237.5" y="-145" font-family="Helvetica,sans-Serif" font-size="10.00">ClassDef</text>
</a>
</g>
</g>
<!-- Node6&#45;&gt;Node2 -->
<g id="edge6_Node000002_Node000006" class="edge">
<title>Node6&#45;&gt;Node2</title>
<g id="a_edge6_Node000002_Node000006"><a xlink:title=" ">
<path fill="none" stroke="#9a32cd" stroke-dasharray="5,2" d="M277.69,-148.93C349.95,-151.57 502.57,-157.14 565.96,-159.46"/>
<polygon fill="#9a32cd" stroke="#9a32cd" points="277.75,-145.43 267.63,-148.56 277.5,-152.43 277.75,-145.43"/>
</a>
</g>
<text text-anchor="middle" x="406.5" y="-158.5" font-family="Helvetica,sans-Serif" font-size="10.00" fill="grey"> m_classDef</text>
</g>
<!-- Node7 -->
<g id="Node000007" class="node">
<title>Node7</title>
<g id="a_Node000007"><a xlink:href="../../d5/dcc/class_definition.html" target="_top" xlink:title="The common base class of all entity definitions found in the sources.">
<polygon fill="white" stroke="#666666" points="64,-157 0,-157 0,-138 64,-138 64,-157"/>
<text text-anchor="middle" x="32" y="-145" font-family="Helvetica,sans-Serif" font-size="10.00">Definition</text>
</a>
</g>
</g>
<!-- Node7&#45;&gt;Node6 -->
<g id="edge7_Node000006_Node000007" class="edge">
<title>Node7&#45;&gt;Node6</title>
<g id="a_edge7_Node000006_Node000007"><a xlink:title=" ">
<path fill="none" stroke="#63b8ff" d="M74.47,-147.5C114.03,-147.5 172.6,-147.5 207.42,-147.5"/>
<polygon fill="#63b8ff" stroke="#63b8ff" points="74.35,-144 64.35,-147.5 74.35,-151 74.35,-144"/>
</a>
</g>
</g>
<!-- Node8 -->
<g id="Node000008" class="node">
<title>Node8</title>
<g id="a_Node000008"><a xlink:href="../../d7/dc1/class_cached_item.html" target="_top" xlink:title=" ">
<polygon fill="white" stroke="#666666" points="685,-123 506,-123 506,-82 685,-82 685,-123"/>
<text text-anchor="start" x="514" y="-111" font-family="Helvetica,sans-Serif" font-size="10.00">CachedItem&lt; TemplateVariant,</text>
<text text-anchor="start" x="514" y="-100" font-family="Helvetica,sans-Serif" font-size="10.00"> InheritanceGraphContext</text>
<text text-anchor="middle" x="595.5" y="-89" font-family="Helvetica,sans-Serif" font-size="10.00">::Private,&amp;Private::createGraph &gt;</text>
</a>
</g>
</g>
<!-- Node8&#45;&gt;Node1 -->
<g id="edge8_Node000001_Node000008" class="edge">
<title>Node8&#45;&gt;Node1</title>
<g id="a_edge8_Node000001_Node000008"><a xlink:title=" ">
<path fill="none" stroke="#9a32cd" stroke-dasharray="5,2" d="M695.36,-102.5C719.37,-102.5 744.52,-102.5 766.78,-102.5"/>
<polygon fill="#9a32cd" stroke="#9a32cd" points="695.16,-99 685.16,-102.5 695.16,-106 695.16,-99"/>
</a>
</g>
<text text-anchor="middle" x="726" y="-105.5" font-family="Helvetica,sans-Serif" font-size="10.00" fill="grey"> m_graph</text>
</g>
<!-- Node9 -->
<g id="Node000009" class="node">
<title>Node9</title>
<g id="a_Node000009"><a xlink:href="../../d1/dba/class_template_variant.html" target="_top" xlink:title="Variant type which can hold one value of a fixed set of types.">
<polygon fill="white" stroke="#666666" points="285.5,-120 189.5,-120 189.5,-101 285.5,-101 285.5,-120"/>
<text text-anchor="middle" x="237.5" y="-108" font-family="Helvetica,sans-Serif" font-size="10.00">TemplateVariant</text>
</a>
</g>
</g>
<!-- Node9&#45;&gt;Node8 -->
<g id="edge9_Node000008_Node000009" class="edge">
<title>Node9&#45;&gt;Node8</title>
<g id="a_edge9_Node000008_Node000009"><a xlink:title=" ">
<path fill="none" stroke="#9a32cd" stroke-dasharray="5,2" d="M296,-109.21C352.74,-107.93 440.28,-105.97 505.91,-104.49"/>
<polygon fill="#9a32cd" stroke="#9a32cd" points="295.69,-105.71 285.77,-109.44 295.85,-112.71 295.69,-105.71"/>
</a>
</g>
<text text-anchor="middle" x="406.5" y="-110.5" font-family="Helvetica,sans-Serif" font-size="10.00" fill="grey"> m_item</text>
</g>
<!-- Node10 -->
<g id="Node000010" class="node">
<title>Node10</title>
<g id="a_Node000010"><a xlink:href="../../d7/dc1/class_cached_item.html" target="_top" xlink:title="Wrapper for data that needs to be cached.">
<polygon fill="white" stroke="#666666" points="307,-69.5 168,-69.5 168,-39.5 307,-39.5 307,-69.5"/>
<text text-anchor="start" x="176" y="-57.5" font-family="Helvetica,sans-Serif" font-size="10.00">CachedItem&lt; T, TOwner,</text>
<text text-anchor="middle" x="237.5" y="-46.5" font-family="Helvetica,sans-Serif" font-size="10.00"> creator &gt;</text>
</a>
</g>
</g>
<!-- Node10&#45;&gt;Node8 -->
<g id="edge10_Node000008_Node000010" class="edge">
<title>Node10&#45;&gt;Node8</title>
<g id="a_edge10_Node000008_Node000010"><a xlink:title=" ">
<path fill="none" stroke="orange" stroke-dasharray="5,2" d="M317.41,-53.29C366.81,-53.84 431.58,-56.95 488,-67.5 505.7,-70.81 524.51,-76.29 541.32,-81.95"/>
<polygon fill="orange" stroke="orange" points="317.14,-49.78 307.11,-53.21 317.09,-56.78 317.14,-49.78"/>
</a>
</g>
<text text-anchor="start" x="325" y="-92.5" font-family="Helvetica,sans-Serif" font-size="10.00" fill="grey"> &lt; TemplateVariant,</text>
<text text-anchor="start" x="325" y="-81.5" font-family="Helvetica,sans-Serif" font-size="10.00" fill="grey"> InheritanceGraphContext</text>
<text text-anchor="middle" x="406.5" y="-70.5" font-family="Helvetica,sans-Serif" font-size="10.00" fill="grey">::Private,&amp;Private::createGraph &gt;</text>
</g>
<!-- Node11 -->
<g id="Node000011" class="node">
<title>Node11</title>
<g id="a_Node000011"><a xlink:href="../../d5/dbf/class_property_map.html" target="_top" xlink:title=" ">
<polygon fill="white" stroke="#666666" points="668,-43.5 523,-43.5 523,-13.5 668,-13.5 668,-43.5"/>
<text text-anchor="start" x="531" y="-31.5" font-family="Helvetica,sans-Serif" font-size="10.00">PropertyMap&lt; Inheritance</text>
<text text-anchor="middle" x="595.5" y="-20.5" font-family="Helvetica,sans-Serif" font-size="10.00">GraphContext::Private &gt;</text>
</a>
</g>
</g>
<!-- Node11&#45;&gt;Node1 -->
<g id="edge11_Node000001_Node000011" class="edge">
<title>Node11&#45;&gt;Node1</title>
<g id="a_edge11_Node000001_Node000011"><a xlink:title=" ">
<path fill="none" stroke="#9a32cd" stroke-dasharray="5,2" d="M654.9,-46.58C695.4,-59.12 748.73,-75.63 786.91,-87.46"/>
<polygon fill="#9a32cd" stroke="#9a32cd" points="655.74,-43.18 645.15,-43.56 653.67,-49.87 655.74,-43.18"/>
</a>
</g>
<text text-anchor="middle" x="726" y="-76.5" font-family="Helvetica,sans-Serif" font-size="10.00" fill="grey"> s_inst</text>
</g>
<!-- Node12 -->
<g id="Node000012" class="node">
<title>Node12</title>
<g id="a_Node000012"><a xlink:href="../../d5/dbf/class_property_map.html" target="_top" xlink:title="Class representing a mapping of properties and the corresponding getter function.">
<polygon fill="white" stroke="#666666" points="291,-19 184,-19 184,0 291,0 291,-19"/>
<text text-anchor="middle" x="237.5" y="-7" font-family="Helvetica,sans-Serif" font-size="10.00">PropertyMap&lt; T &gt;</text>
</a>
</g>
</g>
<!-- Node12&#45;&gt;Node11 -->
<g id="edge12_Node000011_Node000012" class="edge">
<title>Node12&#45;&gt;Node11</title>
<g id="a_edge12_Node000011_Node000012"><a xlink:title=" ">
<path fill="none" stroke="orange" stroke-dasharray="5,2" d="M301.3,-6.92C351.83,-5.53 424.61,-5.05 488,-10.5 499.3,-11.47 511.21,-12.99 522.81,-14.74"/>
<polygon fill="orange" stroke="orange" points="301.07,-3.43 291.18,-7.22 301.28,-10.42 301.07,-3.43"/>
</a>
</g>
<text text-anchor="start" x="338" y="-24.5" font-family="Helvetica,sans-Serif" font-size="10.00" fill="grey"> &lt; InheritanceGraphContext</text>
<text text-anchor="middle" x="406.5" y="-13.5" font-family="Helvetica,sans-Serif" font-size="10.00" fill="grey">::Private &gt;</text>
</g>
</g>
</svg>
