<?xml version="1.0" encoding="UTF-8" standalone="no"?>
<!DOCTYPE svg PUBLIC "-//W3C//DTD SVG 1.1//EN"
 "http://www.w3.org/Graphics/SVG/1.1/DTD/svg11.dtd">
<!-- Generated by graphviz version 2.43.0 (0)
 -->
<!-- Title: PageContext::Private::Cachable Pages: 1 -->
<svg width="690pt" height="131pt"
 viewBox="0.00 0.00 690.00 130.50" xmlns="http://www.w3.org/2000/svg" xmlns:xlink="http://www.w3.org/1999/xlink">
<g id="graph0" class="graph" transform="scale(1 1) rotate(0) translate(4 126.5)">
<title>PageContext::Private::Cachable</title>
<!-- Node1 -->
<g id="Node000001" class="node">
<title>Node1</title>
<g id="a_Node000001"><a xlink:title=" ">
<polygon fill="#999999" stroke="#666666" points="682,-88 563,-88 563,-58 682,-58 682,-88"/>
<text text-anchor="start" x="571" y="-76" font-family="Helvetica,sans-Serif" font-size="10.00">PageContext::Private</text>
<text text-anchor="middle" x="622.5" y="-65" font-family="Helvetica,sans-Serif" font-size="10.00">::Cachable</text>
</a>
</g>
</g>
<!-- Node2 -->
<g id="Node000002" class="node">
<title>Node2</title>
<g id="a_Node000002"><a xlink:title=" ">
<polygon fill="white" stroke="#666666" points="457,-122.5 335,-122.5 335,-81.5 457,-81.5 457,-122.5"/>
<text text-anchor="start" x="343" y="-110.5" font-family="Helvetica,sans-Serif" font-size="10.00">DefinitionContext&lt;</text>
<text text-anchor="start" x="343" y="-99.5" font-family="Helvetica,sans-Serif" font-size="10.00"> PageContext::Private</text>
<text text-anchor="middle" x="396" y="-88.5" font-family="Helvetica,sans-Serif" font-size="10.00"> &gt;::Cachable</text>
</a>
</g>
</g>
<!-- Node2&#45;&gt;Node1 -->
<g id="edge1_Node000001_Node000002" class="edge">
<title>Node2&#45;&gt;Node1</title>
<g id="a_edge1_Node000001_Node000002"><a xlink:title=" ">
<path fill="none" stroke="#63b8ff" d="M467.35,-92.91C498,-88.95 533.52,-84.37 562.73,-80.59"/>
<polygon fill="#63b8ff" stroke="#63b8ff" points="466.63,-89.48 457.16,-94.23 467.53,-96.42 466.63,-89.48"/>
</a>
</g>
</g>
<!-- Node3 -->
<g id="Node000003" class="node">
<title>Node3</title>
<g id="a_Node000003"><a xlink:href="../../d7/dc1/class_cached_item.html" target="_top" xlink:title=" ">
<polygon fill="white" stroke="#666666" points="481,-63.5 311,-63.5 311,-22.5 481,-22.5 481,-63.5"/>
<text text-anchor="start" x="319" y="-51.5" font-family="Helvetica,sans-Serif" font-size="10.00">CachedItem&lt; TemplateVariant,</text>
<text text-anchor="start" x="319" y="-40.5" font-family="Helvetica,sans-Serif" font-size="10.00"> PageContext::Private, &amp;Private</text>
<text text-anchor="middle" x="396" y="-29.5" font-family="Helvetica,sans-Serif" font-size="10.00">::createExample &gt;</text>
</a>
</g>
</g>
<!-- Node3&#45;&gt;Node1 -->
<g id="edge2_Node000001_Node000003" class="edge">
<title>Node3&#45;&gt;Node1</title>
<g id="a_edge2_Node000001_Node000003"><a xlink:title=" ">
<path fill="none" stroke="#9a32cd" stroke-dasharray="5,2" d="M491.18,-55.59C515.42,-58.83 540.83,-62.22 562.7,-65.14"/>
<polygon fill="#9a32cd" stroke="#9a32cd" points="491.61,-52.11 481.23,-54.26 490.68,-59.05 491.61,-52.11"/>
</a>
</g>
<text text-anchor="middle" x="522" y="-65" font-family="Helvetica,sans-Serif" font-size="10.00" fill="grey"> example</text>
</g>
<!-- Node4 -->
<g id="Node000004" class="node">
<title>Node4</title>
<g id="a_Node000004"><a xlink:href="../../d1/dba/class_template_variant.html" target="_top" xlink:title="Variant type which can hold one value of a fixed set of types.">
<polygon fill="white" stroke="#666666" points="117.5,-80.5 21.5,-80.5 21.5,-61.5 117.5,-61.5 117.5,-80.5"/>
<text text-anchor="middle" x="69.5" y="-68.5" font-family="Helvetica,sans-Serif" font-size="10.00">TemplateVariant</text>
</a>
</g>
</g>
<!-- Node4&#45;&gt;Node3 -->
<g id="edge3_Node000003_Node000004" class="edge">
<title>Node4&#45;&gt;Node3</title>
<g id="a_edge3_Node000003_Node000004"><a xlink:title=" ">
<path fill="none" stroke="#9a32cd" stroke-dasharray="5,2" d="M127.83,-66.05C178.61,-61.67 253.41,-55.22 310.95,-50.25"/>
<polygon fill="#9a32cd" stroke="#9a32cd" points="127.35,-62.58 117.69,-66.93 127.95,-69.56 127.35,-62.58"/>
</a>
</g>
<text text-anchor="middle" x="225" y="-66" font-family="Helvetica,sans-Serif" font-size="10.00" fill="grey"> m_item</text>
</g>
<!-- Node5 -->
<g id="Node000005" class="node">
<title>Node5</title>
<g id="a_Node000005"><a xlink:href="../../d7/dc1/class_cached_item.html" target="_top" xlink:title="Wrapper for data that needs to be cached.">
<polygon fill="white" stroke="#666666" points="139,-30 0,-30 0,0 139,0 139,-30"/>
<text text-anchor="start" x="8" y="-18" font-family="Helvetica,sans-Serif" font-size="10.00">CachedItem&lt; T, TOwner,</text>
<text text-anchor="middle" x="69.5" y="-7" font-family="Helvetica,sans-Serif" font-size="10.00"> creator &gt;</text>
</a>
</g>
</g>
<!-- Node5&#45;&gt;Node3 -->
<g id="edge4_Node000003_Node000005" class="edge">
<title>Node5&#45;&gt;Node3</title>
<g id="a_edge4_Node000003_Node000005"><a xlink:title=" ">
<path fill="none" stroke="orange" stroke-dasharray="5,2" d="M149.51,-10.5C192.18,-9.28 245.67,-9.73 293,-16 304.17,-17.48 315.86,-19.81 327.17,-22.49"/>
<polygon fill="orange" stroke="orange" points="149.35,-7 139.47,-10.82 149.57,-14 149.35,-7"/>
</a>
</g>
<text text-anchor="start" x="157" y="-41" font-family="Helvetica,sans-Serif" font-size="10.00" fill="grey"> &lt; TemplateVariant,</text>
<text text-anchor="start" x="157" y="-30" font-family="Helvetica,sans-Serif" font-size="10.00" fill="grey"> PageContext::Private,</text>
<text text-anchor="middle" x="225" y="-19" font-family="Helvetica,sans-Serif" font-size="10.00" fill="grey"> &amp;Private::createExample &gt;</text>
</g>
</g>
</svg>
