<?xml version="1.0" encoding="UTF-8" standalone="no"?>
<!DOCTYPE svg PUBLIC "-//W3C//DTD SVG 1.1//EN"
 "http://www.w3.org/Graphics/SVG/1.1/DTD/svg11.dtd">
<!-- Generated by graphviz version 2.43.0 (0)
 -->
<!-- Title: src/classdef.h Pages: 1 -->
<svg width="1076pt" height="357pt"
 viewBox="0.00 0.00 1076.42 357.00" xmlns="http://www.w3.org/2000/svg" xmlns:xlink="http://www.w3.org/1999/xlink">
<g id="graph0" class="graph" transform="scale(1 1) rotate(0) translate(4 353)">
<title>src/classdef.h</title>
<!-- Node1 -->
<g id="Node000001" class="node">
<title>Node1</title>
<g id="a_Node000001"><a xlink:title=" ">
<polygon fill="#999999" stroke="#666666" points="505.5,-349 422.5,-349 422.5,-330 505.5,-330 505.5,-349"/>
<text text-anchor="middle" x="464" y="-337" font-family="Helvetica,sans-Serif" font-size="10.00">src/classdef.h</text>
</a>
</g>
</g>
<!-- Node2 -->
<g id="Node000002" class="node">
<title>Node2</title>
<g id="a_Node000002"><a xlink:title=" ">
<polygon fill="#e0e0e0" stroke="#999999" points="879,-129 821,-129 821,-110 879,-110 879,-129"/>
<text text-anchor="middle" x="850" y="-117" font-family="Helvetica,sans-Serif" font-size="10.00">memory</text>
</a>
</g>
</g>
<!-- Node1&#45;&gt;Node2 -->
<g id="edge1_Node000001_Node000002" class="edge">
<title>Node1&#45;&gt;Node2</title>
<g id="a_edge1_Node000001_Node000002"><a xlink:title=" ">
<path fill="none" stroke="#63b8ff" d="M497.8,-329.97C563.02,-312.15 708.17,-265.68 803,-184 818.22,-170.89 831.41,-152 839.91,-138.23"/>
<polygon fill="#63b8ff" stroke="#63b8ff" points="843.13,-139.65 845.23,-129.27 837.11,-136.08 843.13,-139.65"/>
</a>
</g>
</g>
<!-- Node3 -->
<g id="Node000003" class="node">
<title>Node3</title>
<g id="a_Node000003"><a xlink:title=" ">
<polygon fill="#e0e0e0" stroke="#999999" points="506.5,-129 459.5,-129 459.5,-110 506.5,-110 506.5,-129"/>
<text text-anchor="middle" x="483" y="-117" font-family="Helvetica,sans-Serif" font-size="10.00">vector</text>
</a>
</g>
</g>
<!-- Node1&#45;&gt;Node3 -->
<g id="edge2_Node000001_Node000003" class="edge">
<title>Node1&#45;&gt;Node3</title>
<g id="a_edge2_Node000001_Node000003"><a xlink:title=" ">
<path fill="none" stroke="#63b8ff" d="M436.73,-329.91C416.7,-322.64 389.68,-310.72 370,-294 323.01,-254.09 281.55,-213.97 319,-165 319.51,-164.34 401.46,-142.32 449.31,-129.51"/>
<polygon fill="#63b8ff" stroke="#63b8ff" points="450.49,-132.81 459.25,-126.85 448.68,-126.05 450.49,-132.81"/>
</a>
</g>
</g>
<!-- Node4 -->
<g id="Node000004" class="node">
<title>Node4</title>
<g id="a_Node000004"><a xlink:title=" ">
<polygon fill="#e0e0e0" stroke="#999999" points="86,-129 0,-129 0,-110 86,-110 86,-129"/>
<text text-anchor="middle" x="43" y="-117" font-family="Helvetica,sans-Serif" font-size="10.00">unordered_set</text>
</a>
</g>
</g>
<!-- Node1&#45;&gt;Node4 -->
<g id="edge3_Node000001_Node000004" class="edge">
<title>Node1&#45;&gt;Node4</title>
<g id="a_edge3_Node000001_Node000004"><a xlink:title=" ">
<path fill="none" stroke="#63b8ff" d="M422.36,-334.87C357.71,-328.69 236.72,-314.72 199,-294 129.23,-255.67 74.65,-173.94 53.05,-138.04"/>
<polygon fill="#63b8ff" stroke="#63b8ff" points="55.94,-136.04 47.85,-129.2 49.91,-139.59 55.94,-136.04"/>
</a>
</g>
</g>
<!-- Node5 -->
<g id="Node000005" class="node">
<title>Node5</title>
<g id="a_Node000005"><a xlink:href="../../d5/d75/containers_8h.html" target="_top" xlink:title=" ">
<polygon fill="white" stroke="#666666" points="206.5,-184 129.5,-184 129.5,-165 206.5,-165 206.5,-184"/>
<text text-anchor="middle" x="168" y="-172" font-family="Helvetica,sans-Serif" font-size="10.00">containers.h</text>
</a>
</g>
</g>
<!-- Node1&#45;&gt;Node5 -->
<g id="edge4_Node000001_Node000005" class="edge">
<title>Node1&#45;&gt;Node5</title>
<g id="a_edge4_Node000001_Node000005"><a xlink:title=" ">
<path fill="none" stroke="#63b8ff" d="M422.27,-335.52C361.26,-330.39 251.65,-318.07 221,-294 189.05,-268.91 175.82,-220.41 170.78,-193.9"/>
<polygon fill="#63b8ff" stroke="#63b8ff" points="174.23,-193.28 169.1,-184.01 167.33,-194.46 174.23,-193.28"/>
</a>
</g>
</g>
<!-- Node12 -->
<g id="Node000012" class="node">
<title>Node12</title>
<g id="a_Node000012"><a xlink:href="../../df/da1/definition_8h.html" target="_top" xlink:title=" ">
<polygon fill="white" stroke="#666666" points="449.5,-294 378.5,-294 378.5,-275 449.5,-275 449.5,-294"/>
<text text-anchor="middle" x="414" y="-282" font-family="Helvetica,sans-Serif" font-size="10.00">definition.h</text>
</a>
</g>
</g>
<!-- Node1&#45;&gt;Node12 -->
<g id="edge13_Node000001_Node000012" class="edge">
<title>Node1&#45;&gt;Node12</title>
<g id="a_edge13_Node000001_Node000012"><a xlink:title=" ">
<path fill="none" stroke="#63b8ff" d="M455.74,-329.75C448.54,-322.11 437.89,-310.82 429.15,-301.56"/>
<polygon fill="#63b8ff" stroke="#63b8ff" points="431.51,-298.96 422.1,-294.09 426.42,-303.76 431.51,-298.96"/>
</a>
</g>
</g>
<!-- Node26 -->
<g id="Node000026" class="node">
<title>Node26</title>
<g id="a_Node000026"><a xlink:href="../../df/d9b/arguments_8h.html" target="_top" xlink:title=" ">
<polygon fill="white" stroke="#666666" points="717,-184 639,-184 639,-165 717,-165 717,-184"/>
<text text-anchor="middle" x="678" y="-172" font-family="Helvetica,sans-Serif" font-size="10.00">arguments.h</text>
</a>
</g>
</g>
<!-- Node1&#45;&gt;Node26 -->
<g id="edge44_Node000001_Node000026" class="edge">
<title>Node1&#45;&gt;Node26</title>
<g id="a_edge44_Node000001_Node000026"><a xlink:title=" ">
<path fill="none" stroke="#63b8ff" d="M494.72,-329.94C517.4,-322.68 548.33,-310.75 572,-294 612.76,-265.15 648.84,-217.91 666.51,-192.67"/>
<polygon fill="#63b8ff" stroke="#63b8ff" points="669.57,-194.38 672.35,-184.15 663.8,-190.42 669.57,-194.38"/>
</a>
</g>
</g>
<!-- Node27 -->
<g id="Node000027" class="node">
<title>Node27</title>
<g id="a_Node000027"><a xlink:href="../../d9/d11/membergroup_8h.html" target="_top" xlink:title=" ">
<polygon fill="white" stroke="#666666" points="562.5,-294 467.5,-294 467.5,-275 562.5,-275 562.5,-294"/>
<text text-anchor="middle" x="515" y="-282" font-family="Helvetica,sans-Serif" font-size="10.00">membergroup.h</text>
</a>
</g>
</g>
<!-- Node1&#45;&gt;Node27 -->
<g id="edge47_Node000001_Node000027" class="edge">
<title>Node1&#45;&gt;Node27</title>
<g id="a_edge47_Node000001_Node000027"><a xlink:title=" ">
<path fill="none" stroke="#63b8ff" d="M472.42,-329.75C479.77,-322.11 490.63,-310.82 499.54,-301.56"/>
<polygon fill="#63b8ff" stroke="#63b8ff" points="502.32,-303.72 506.74,-294.09 497.28,-298.87 502.32,-303.72"/>
</a>
</g>
</g>
<!-- Node28 -->
<g id="Node000028" class="node">
<title>Node28</title>
<g id="a_Node000028"><a xlink:title=" ">
<polygon fill="#e0e0e0" stroke="#999999" points="1012.5,-294 925.5,-294 925.5,-275 1012.5,-275 1012.5,-294"/>
<text text-anchor="middle" x="969" y="-282" font-family="Helvetica,sans-Serif" font-size="10.00">configvalues.h</text>
</a>
</g>
</g>
<!-- Node1&#45;&gt;Node28 -->
<g id="edge53_Node000001_Node000028" class="edge">
<title>Node1&#45;&gt;Node28</title>
<g id="a_edge53_Node000001_Node000028"><a xlink:title=" ">
<path fill="none" stroke="#63b8ff" d="M505.67,-335C584.79,-328.21 762.19,-312.3 911,-294 912.45,-293.82 913.92,-293.64 915.41,-293.45"/>
<polygon fill="#63b8ff" stroke="#63b8ff" points="915.88,-296.91 925.32,-292.12 914.95,-289.98 915.88,-296.91"/>
</a>
</g>
</g>
<!-- Node5&#45;&gt;Node3 -->
<g id="edge5_Node000005_Node000003" class="edge">
<title>Node5&#45;&gt;Node3</title>
<g id="a_edge5_Node000005_Node000003"><a xlink:title=" ">
<path fill="none" stroke="#63b8ff" d="M206.78,-167.26C211.57,-166.5 216.4,-165.73 221,-165 320,-149.31 348.02,-150.23 449.27,-129.2"/>
<polygon fill="#63b8ff" stroke="#63b8ff" points="450.23,-132.57 459.3,-127.09 448.79,-125.72 450.23,-132.57"/>
</a>
</g>
</g>
<!-- Node5&#45;&gt;Node4 -->
<g id="edge10_Node000005_Node000004" class="edge">
<title>Node5&#45;&gt;Node4</title>
<g id="a_edge10_Node000005_Node000004"><a xlink:title=" ">
<path fill="none" stroke="#63b8ff" d="M147.92,-164.98C127.63,-156.38 96.04,-142.99 72.83,-133.15"/>
<polygon fill="#63b8ff" stroke="#63b8ff" points="74.02,-129.85 63.45,-129.17 71.29,-136.3 74.02,-129.85"/>
</a>
</g>
</g>
<!-- Node6 -->
<g id="Node000006" class="node">
<title>Node6</title>
<g id="a_Node000006"><a xlink:title=" ">
<polygon fill="#e0e0e0" stroke="#999999" points="708,-19 664,-19 664,0 708,0 708,-19"/>
<text text-anchor="middle" x="686" y="-7" font-family="Helvetica,sans-Serif" font-size="10.00">string</text>
</a>
</g>
</g>
<!-- Node5&#45;&gt;Node6 -->
<g id="edge6_Node000005_Node000006" class="edge">
<title>Node5&#45;&gt;Node6</title>
<g id="a_edge6_Node000005_Node000006"><a xlink:title=" ">
<path fill="none" stroke="#63b8ff" d="M156.74,-164.64C141.69,-151.73 118.49,-127.41 133,-110 200.24,-29.31 545.69,-13.96 653.69,-11.13"/>
<polygon fill="#63b8ff" stroke="#63b8ff" points="654.05,-14.62 663.96,-10.88 653.87,-7.62 654.05,-14.62"/>
</a>
</g>
</g>
<!-- Node7 -->
<g id="Node000007" class="node">
<title>Node7</title>
<g id="a_Node000007"><a xlink:title=" ">
<polygon fill="#e0e0e0" stroke="#999999" points="524.5,-74 451.5,-74 451.5,-55 524.5,-55 524.5,-74"/>
<text text-anchor="middle" x="488" y="-62" font-family="Helvetica,sans-Serif" font-size="10.00">string_view</text>
</a>
</g>
</g>
<!-- Node5&#45;&gt;Node7 -->
<g id="edge7_Node000005_Node000007" class="edge">
<title>Node5&#45;&gt;Node7</title>
<g id="a_edge7_Node000005_Node000007"><a xlink:title=" ">
<path fill="none" stroke="#63b8ff" d="M183.15,-164.81C211.94,-148.35 272.64,-113.89 283,-110 335.45,-90.31 398.88,-78.22 441.16,-71.7"/>
<polygon fill="#63b8ff" stroke="#63b8ff" points="441.8,-75.14 451.17,-70.2 440.76,-68.22 441.8,-75.14"/>
</a>
</g>
</g>
<!-- Node8 -->
<g id="Node000008" class="node">
<title>Node8</title>
<g id="a_Node000008"><a xlink:title=" ">
<polygon fill="#e0e0e0" stroke="#999999" points="174,-129 142,-129 142,-110 174,-110 174,-129"/>
<text text-anchor="middle" x="158" y="-117" font-family="Helvetica,sans-Serif" font-size="10.00">set</text>
</a>
</g>
</g>
<!-- Node5&#45;&gt;Node8 -->
<g id="edge8_Node000005_Node000008" class="edge">
<title>Node5&#45;&gt;Node8</title>
<g id="a_edge8_Node000005_Node000008"><a xlink:title=" ">
<path fill="none" stroke="#63b8ff" d="M166.35,-164.75C165.04,-157.8 163.16,-147.85 161.52,-139.13"/>
<polygon fill="#63b8ff" stroke="#63b8ff" points="164.91,-138.27 159.62,-129.09 158.04,-139.56 164.91,-138.27"/>
</a>
</g>
</g>
<!-- Node9 -->
<g id="Node000009" class="node">
<title>Node9</title>
<g id="a_Node000009"><a xlink:title=" ">
<polygon fill="#e0e0e0" stroke="#999999" points="330,-129 292,-129 292,-110 330,-110 330,-129"/>
<text text-anchor="middle" x="311" y="-117" font-family="Helvetica,sans-Serif" font-size="10.00">map</text>
</a>
</g>
</g>
<!-- Node5&#45;&gt;Node9 -->
<g id="edge9_Node000005_Node000009" class="edge">
<title>Node5&#45;&gt;Node9</title>
<g id="a_edge9_Node000005_Node000009"><a xlink:title=" ">
<path fill="none" stroke="#63b8ff" d="M190.98,-164.98C215.76,-155.8 255.27,-141.16 282.13,-131.2"/>
<polygon fill="#63b8ff" stroke="#63b8ff" points="283.59,-134.39 291.75,-127.63 281.16,-127.83 283.59,-134.39"/>
</a>
</g>
</g>
<!-- Node10 -->
<g id="Node000010" class="node">
<title>Node10</title>
<g id="a_Node000010"><a xlink:title=" ">
<polygon fill="#e0e0e0" stroke="#999999" points="441.5,-129 348.5,-129 348.5,-110 441.5,-110 441.5,-129"/>
<text text-anchor="middle" x="395" y="-117" font-family="Helvetica,sans-Serif" font-size="10.00">unordered_map</text>
</a>
</g>
</g>
<!-- Node5&#45;&gt;Node10 -->
<g id="edge11_Node000005_Node000010" class="edge">
<title>Node5&#45;&gt;Node10</title>
<g id="a_edge11_Node000005_Node000010"><a xlink:title=" ">
<path fill="none" stroke="#63b8ff" d="M204.47,-164.98C243.57,-155.86 305.77,-141.33 348.39,-131.38"/>
<polygon fill="#63b8ff" stroke="#63b8ff" points="349.3,-134.76 358.24,-129.08 347.71,-127.95 349.3,-134.76"/>
</a>
</g>
</g>
<!-- Node11 -->
<g id="Node000011" class="node">
<title>Node11</title>
<g id="a_Node000011"><a xlink:title=" ">
<polygon fill="#e0e0e0" stroke="#999999" points="235.5,-129 192.5,-129 192.5,-110 235.5,-110 235.5,-129"/>
<text text-anchor="middle" x="214" y="-117" font-family="Helvetica,sans-Serif" font-size="10.00">stack</text>
</a>
</g>
</g>
<!-- Node5&#45;&gt;Node11 -->
<g id="edge12_Node000005_Node000011" class="edge">
<title>Node5&#45;&gt;Node11</title>
<g id="a_edge12_Node000005_Node000011"><a xlink:title=" ">
<path fill="none" stroke="#63b8ff" d="M175.6,-164.75C182.16,-157.18 191.82,-146.05 199.81,-136.84"/>
<polygon fill="#63b8ff" stroke="#63b8ff" points="202.63,-138.94 206.55,-129.09 197.35,-134.35 202.63,-138.94"/>
</a>
</g>
</g>
<!-- Node12&#45;&gt;Node3 -->
<g id="edge14_Node000012_Node000003" class="edge">
<title>Node12&#45;&gt;Node3</title>
<g id="a_edge14_Node000012_Node000003"><a xlink:title=" ">
<path fill="none" stroke="#63b8ff" d="M399.5,-274.74C368.48,-254.92 300.88,-205.2 331,-165 332.83,-162.56 405.33,-142.07 449.52,-129.76"/>
<polygon fill="#63b8ff" stroke="#63b8ff" points="450.59,-133.1 459.29,-127.05 448.72,-126.36 450.59,-133.1"/>
</a>
</g>
</g>
<!-- Node13 -->
<g id="Node000013" class="node">
<title>Node13</title>
<g id="a_Node000013"><a xlink:href="../../d9/d49/types_8h.html" target="_top" xlink:title="This file contains a number of basic enums and types.">
<polygon fill="white" stroke="#666666" points="596.5,-239 543.5,-239 543.5,-220 596.5,-220 596.5,-239"/>
<text text-anchor="middle" x="570" y="-227" font-family="Helvetica,sans-Serif" font-size="10.00">types.h</text>
</a>
</g>
</g>
<!-- Node12&#45;&gt;Node13 -->
<g id="edge15_Node000012_Node000013" class="edge">
<title>Node12&#45;&gt;Node13</title>
<g id="a_edge15_Node000012_Node000013"><a xlink:title=" ">
<path fill="none" stroke="#63b8ff" d="M439.06,-274.98C465.03,-266.16 505.81,-252.31 534.96,-242.41"/>
<polygon fill="#63b8ff" stroke="#63b8ff" points="536.4,-245.61 544.74,-239.08 534.15,-238.99 536.4,-245.61"/>
</a>
</g>
</g>
<!-- Node23 -->
<g id="Node000023" class="node">
<title>Node23</title>
<g id="a_Node000023"><a xlink:href="../../d1/d02/reflist_8h.html" target="_top" xlink:title=" ">
<polygon fill="white" stroke="#666666" points="486.5,-239 433.5,-239 433.5,-220 486.5,-220 486.5,-239"/>
<text text-anchor="middle" x="460" y="-227" font-family="Helvetica,sans-Serif" font-size="10.00">reflist.h</text>
</a>
</g>
</g>
<!-- Node12&#45;&gt;Node23 -->
<g id="edge29_Node000012_Node000023" class="edge">
<title>Node12&#45;&gt;Node23</title>
<g id="a_edge29_Node000012_Node000023"><a xlink:title=" ">
<path fill="none" stroke="#63b8ff" d="M421.6,-274.75C428.16,-267.18 437.82,-256.05 445.81,-246.84"/>
<polygon fill="#63b8ff" stroke="#63b8ff" points="448.63,-248.94 452.55,-239.09 443.35,-244.35 448.63,-248.94"/>
</a>
</g>
</g>
<!-- Node25 -->
<g id="Node000025" class="node">
<title>Node25</title>
<g id="a_Node000025"><a xlink:href="../../d7/dfc/construct_8h.html" target="_top" xlink:title=" ">
<polygon fill="white" stroke="#666666" points="410.5,-184 339.5,-184 339.5,-165 410.5,-165 410.5,-184"/>
<text text-anchor="middle" x="375" y="-172" font-family="Helvetica,sans-Serif" font-size="10.00">construct.h</text>
</a>
</g>
</g>
<!-- Node12&#45;&gt;Node25 -->
<g id="edge43_Node000012_Node000025" class="edge">
<title>Node12&#45;&gt;Node25</title>
<g id="a_edge43_Node000012_Node000025"><a xlink:title=" ">
<path fill="none" stroke="#63b8ff" d="M410.81,-274.66C404.43,-257.01 390.02,-217.09 381.55,-193.64"/>
<polygon fill="#63b8ff" stroke="#63b8ff" points="384.82,-192.38 378.13,-184.16 378.23,-194.75 384.82,-192.38"/>
</a>
</g>
</g>
<!-- Node14 -->
<g id="Node000014" class="node">
<title>Node14</title>
<g id="a_Node000014"><a xlink:href="../../d7/d5c/qcstring_8h.html" target="_top" xlink:title=" ">
<polygon fill="white" stroke="#666666" points="785.5,-129 720.5,-129 720.5,-110 785.5,-110 785.5,-129"/>
<text text-anchor="middle" x="753" y="-117" font-family="Helvetica,sans-Serif" font-size="10.00">qcstring.h</text>
</a>
</g>
</g>
<!-- Node13&#45;&gt;Node14 -->
<g id="edge16_Node000013_Node000014" class="edge">
<title>Node13&#45;&gt;Node14</title>
<g id="a_edge16_Node000013_Node000014"><a xlink:title=" ">
<path fill="none" stroke="#63b8ff" d="M596.5,-226.23C643.64,-221.59 739.01,-209.24 759,-184 768.97,-171.41 765.72,-152.7 761.02,-138.85"/>
<polygon fill="#63b8ff" stroke="#63b8ff" points="764.23,-137.44 757.35,-129.39 757.71,-139.98 764.23,-137.44"/>
</a>
</g>
</g>
<!-- Node14&#45;&gt;Node6 -->
<g id="edge17_Node000014_Node000006" class="edge">
<title>Node14&#45;&gt;Node6</title>
<g id="a_edge17_Node000014_Node000006"><a xlink:title=" ">
<path fill="none" stroke="#63b8ff" d="M756.85,-109.63C761.83,-96.71 768.76,-72.38 759,-55 750.09,-39.14 732.98,-28.26 717.56,-21.24"/>
<polygon fill="#63b8ff" stroke="#63b8ff" points="718.85,-17.98 708.27,-17.35 716.15,-24.44 718.85,-17.98"/>
</a>
</g>
</g>
<!-- Node14&#45;&gt;Node7 -->
<g id="edge18_Node000014_Node000007" class="edge">
<title>Node14&#45;&gt;Node7</title>
<g id="a_edge18_Node000014_Node000007"><a xlink:title=" ">
<path fill="none" stroke="#63b8ff" d="M720.24,-111.95C673.54,-102.61 587.59,-85.42 534.37,-74.77"/>
<polygon fill="#63b8ff" stroke="#63b8ff" points="535,-71.33 524.5,-72.8 533.62,-78.19 535,-71.33"/>
</a>
</g>
</g>
<!-- Node15 -->
<g id="Node000015" class="node">
<title>Node15</title>
<g id="a_Node000015"><a xlink:title=" ">
<polygon fill="#e0e0e0" stroke="#999999" points="674,-74 610,-74 610,-55 674,-55 674,-74"/>
<text text-anchor="middle" x="642" y="-62" font-family="Helvetica,sans-Serif" font-size="10.00">algorithm</text>
</a>
</g>
</g>
<!-- Node14&#45;&gt;Node15 -->
<g id="edge19_Node000014_Node000015" class="edge">
<title>Node14&#45;&gt;Node15</title>
<g id="a_edge19_Node000014_Node000015"><a xlink:title=" ">
<path fill="none" stroke="#63b8ff" d="M735.17,-109.98C717.39,-101.5 689.85,-88.35 669.32,-78.54"/>
<polygon fill="#63b8ff" stroke="#63b8ff" points="670.69,-75.32 660.16,-74.17 667.67,-81.64 670.69,-75.32"/>
</a>
</g>
</g>
<!-- Node16 -->
<g id="Node000016" class="node">
<title>Node16</title>
<g id="a_Node000016"><a xlink:title=" ">
<polygon fill="#e0e0e0" stroke="#999999" points="591.5,-74 542.5,-74 542.5,-55 591.5,-55 591.5,-74"/>
<text text-anchor="middle" x="567" y="-62" font-family="Helvetica,sans-Serif" font-size="10.00">cctype</text>
</a>
</g>
</g>
<!-- Node14&#45;&gt;Node16 -->
<g id="edge20_Node000014_Node000016" class="edge">
<title>Node14&#45;&gt;Node16</title>
<g id="a_edge20_Node000014_Node000016"><a xlink:title=" ">
<path fill="none" stroke="#63b8ff" d="M723.12,-109.98C689.94,-100.53 636.46,-85.29 601.52,-75.34"/>
<polygon fill="#63b8ff" stroke="#63b8ff" points="602.33,-71.93 591.75,-72.55 600.41,-78.66 602.33,-71.93"/>
</a>
</g>
</g>
<!-- Node17 -->
<g id="Node000017" class="node">
<title>Node17</title>
<g id="a_Node000017"><a xlink:title=" ">
<polygon fill="#e0e0e0" stroke="#999999" points="920,-74 870,-74 870,-55 920,-55 920,-74"/>
<text text-anchor="middle" x="895" y="-62" font-family="Helvetica,sans-Serif" font-size="10.00">cstring</text>
</a>
</g>
</g>
<!-- Node14&#45;&gt;Node17 -->
<g id="edge21_Node000014_Node000017" class="edge">
<title>Node14&#45;&gt;Node17</title>
<g id="a_edge21_Node000014_Node000017"><a xlink:title=" ">
<path fill="none" stroke="#63b8ff" d="M775.81,-109.98C799.17,-101.27 835.7,-87.63 862.17,-77.75"/>
<polygon fill="#63b8ff" stroke="#63b8ff" points="863.63,-80.95 871.77,-74.17 861.18,-74.39 863.63,-80.95"/>
</a>
</g>
</g>
<!-- Node18 -->
<g id="Node000018" class="node">
<title>Node18</title>
<g id="a_Node000018"><a xlink:title=" ">
<polygon fill="#e0e0e0" stroke="#999999" points="984,-74 938,-74 938,-55 984,-55 984,-74"/>
<text text-anchor="middle" x="961" y="-62" font-family="Helvetica,sans-Serif" font-size="10.00">cstdio</text>
</a>
</g>
</g>
<!-- Node14&#45;&gt;Node18 -->
<g id="edge22_Node000014_Node000018" class="edge">
<title>Node14&#45;&gt;Node18</title>
<g id="a_edge22_Node000014_Node000018"><a xlink:title=" ">
<path fill="none" stroke="#63b8ff" d="M785.79,-110.33C819.16,-102 872.63,-88.56 927.95,-74.25"/>
<polygon fill="#63b8ff" stroke="#63b8ff" points="929.13,-77.56 937.94,-71.66 927.38,-70.78 929.13,-77.56"/>
</a>
</g>
</g>
<!-- Node19 -->
<g id="Node000019" class="node">
<title>Node19</title>
<g id="a_Node000019"><a xlink:title=" ">
<polygon fill="#e0e0e0" stroke="#999999" points="1051.5,-74 1002.5,-74 1002.5,-55 1051.5,-55 1051.5,-74"/>
<text text-anchor="middle" x="1027" y="-62" font-family="Helvetica,sans-Serif" font-size="10.00">cstdlib</text>
</a>
</g>
</g>
<!-- Node14&#45;&gt;Node19 -->
<g id="edge23_Node000014_Node000019" class="edge">
<title>Node14&#45;&gt;Node19</title>
<g id="a_edge23_Node000014_Node000019"><a xlink:title=" ">
<path fill="none" stroke="#63b8ff" d="M785.74,-113.09C830.15,-105.6 912.2,-91.27 991.94,-74.11"/>
<polygon fill="#63b8ff" stroke="#63b8ff" points="993.13,-77.44 1002.16,-71.9 991.64,-70.6 993.13,-77.44"/>
</a>
</g>
</g>
<!-- Node20 -->
<g id="Node000020" class="node">
<title>Node20</title>
<g id="a_Node000020"><a xlink:title=" ">
<polygon fill="#e0e0e0" stroke="#999999" points="946,-19 896,-19 896,0 946,0 946,-19"/>
<text text-anchor="middle" x="921" y="-7" font-family="Helvetica,sans-Serif" font-size="10.00">cstdint</text>
</a>
</g>
</g>
<!-- Node14&#45;&gt;Node20 -->
<g id="edge24_Node000014_Node000020" class="edge">
<title>Node14&#45;&gt;Node20</title>
<g id="a_edge24_Node000014_Node000020"><a xlink:title=" ">
<path fill="none" stroke="#63b8ff" d="M785.67,-113.78C864.94,-102.33 1061,-74 1061,-74 1093.04,-37 1007.35,-20.43 956.15,-14"/>
<polygon fill="#63b8ff" stroke="#63b8ff" points="956.45,-10.51 946.11,-12.81 955.63,-17.46 956.45,-10.51"/>
</a>
</g>
</g>
<!-- Node21 -->
<g id="Node000021" class="node">
<title>Node21</title>
<g id="a_Node000021"><a xlink:title=" ">
<polygon fill="#e0e0e0" stroke="#999999" points="749.5,-74 692.5,-74 692.5,-55 749.5,-55 749.5,-74"/>
<text text-anchor="middle" x="721" y="-62" font-family="Helvetica,sans-Serif" font-size="10.00">ostream</text>
</a>
</g>
</g>
<!-- Node14&#45;&gt;Node21 -->
<g id="edge25_Node000014_Node000021" class="edge">
<title>Node14&#45;&gt;Node21</title>
<g id="a_edge25_Node000014_Node000021"><a xlink:title=" ">
<path fill="none" stroke="#63b8ff" d="M747.72,-109.75C743.29,-102.42 736.84,-91.73 731.38,-82.7"/>
<polygon fill="#63b8ff" stroke="#63b8ff" points="734.35,-80.84 726.19,-74.09 728.36,-84.46 734.35,-80.84"/>
</a>
</g>
</g>
<!-- Node22 -->
<g id="Node000022" class="node">
<title>Node22</title>
<g id="a_Node000022"><a xlink:href="../../db/d7c/utf8_8h.html" target="_top" xlink:title="Various UTF8 related helper functions.">
<polygon fill="white" stroke="#666666" points="851.5,-74 806.5,-74 806.5,-55 851.5,-55 851.5,-74"/>
<text text-anchor="middle" x="829" y="-62" font-family="Helvetica,sans-Serif" font-size="10.00">utf8.h</text>
</a>
</g>
</g>
<!-- Node14&#45;&gt;Node22 -->
<g id="edge26_Node000014_Node000022" class="edge">
<title>Node14&#45;&gt;Node22</title>
<g id="a_edge26_Node000014_Node000022"><a xlink:title=" ">
<path fill="none" stroke="#63b8ff" d="M765.21,-109.98C776.78,-101.92 794.38,-89.65 808.16,-80.03"/>
<polygon fill="#63b8ff" stroke="#63b8ff" points="810.37,-82.76 816.57,-74.17 806.36,-77.02 810.37,-82.76"/>
</a>
</g>
</g>
<!-- Node22&#45;&gt;Node6 -->
<g id="edge28_Node000022_Node000006" class="edge">
<title>Node22&#45;&gt;Node6</title>
<g id="a_edge28_Node000022_Node000006"><a xlink:title=" ">
<path fill="none" stroke="#63b8ff" d="M806.34,-55.1C782.46,-46.25 744.65,-32.24 717.79,-22.28"/>
<polygon fill="#63b8ff" stroke="#63b8ff" points="718.68,-18.88 708.08,-18.68 716.24,-25.44 718.68,-18.88"/>
</a>
</g>
</g>
<!-- Node22&#45;&gt;Node20 -->
<g id="edge27_Node000022_Node000020" class="edge">
<title>Node22&#45;&gt;Node20</title>
<g id="a_edge27_Node000022_Node000020"><a xlink:title=" ">
<path fill="none" stroke="#63b8ff" d="M843.78,-54.98C858.18,-46.69 880.31,-33.94 897.19,-24.22"/>
<polygon fill="#63b8ff" stroke="#63b8ff" points="899.03,-27.19 905.95,-19.17 895.54,-21.13 899.03,-27.19"/>
</a>
</g>
</g>
<!-- Node23&#45;&gt;Node2 -->
<g id="edge32_Node000023_Node000002" class="edge">
<title>Node23&#45;&gt;Node2</title>
<g id="a_edge32_Node000023_Node000002"><a xlink:title=" ">
<path fill="none" stroke="#63b8ff" d="M486.75,-224.97C553.3,-216.1 722.75,-192.94 747,-184 778.79,-172.28 811.41,-150.12 831.19,-135.33"/>
<polygon fill="#63b8ff" stroke="#63b8ff" points="833.51,-137.97 839.33,-129.12 829.26,-132.4 833.51,-137.97"/>
</a>
</g>
</g>
<!-- Node23&#45;&gt;Node3 -->
<g id="edge30_Node000023_Node000003" class="edge">
<title>Node23&#45;&gt;Node3</title>
<g id="a_edge30_Node000023_Node000003"><a xlink:title=" ">
<path fill="none" stroke="#63b8ff" d="M461.88,-219.66C465.62,-202.09 474.07,-162.45 479.07,-138.95"/>
<polygon fill="#63b8ff" stroke="#63b8ff" points="482.5,-139.67 481.16,-129.16 475.65,-138.21 482.5,-139.67"/>
</a>
</g>
</g>
<!-- Node23&#45;&gt;Node10 -->
<g id="edge31_Node000023_Node000010" class="edge">
<title>Node23&#45;&gt;Node10</title>
<g id="a_edge31_Node000023_Node000010"><a xlink:title=" ">
<path fill="none" stroke="#63b8ff" d="M454.68,-219.66C443.96,-201.85 419.6,-161.37 405.54,-138.01"/>
<polygon fill="#63b8ff" stroke="#63b8ff" points="408.37,-135.92 400.21,-129.16 402.37,-139.53 408.37,-135.92"/>
</a>
</g>
</g>
<!-- Node23&#45;&gt;Node14 -->
<g id="edge33_Node000023_Node000014" class="edge">
<title>Node23&#45;&gt;Node14</title>
<g id="a_edge33_Node000023_Node000014"><a xlink:title=" ">
<path fill="none" stroke="#63b8ff" d="M486.61,-225.51C550.24,-218.17 707.29,-198.74 726,-184 739.95,-173.01 746.8,-153.46 750.09,-138.95"/>
<polygon fill="#63b8ff" stroke="#63b8ff" points="753.54,-139.53 751.97,-129.05 746.66,-138.22 753.54,-139.53"/>
</a>
</g>
</g>
<!-- Node24 -->
<g id="Node000024" class="node">
<title>Node24</title>
<g id="a_Node000024"><a xlink:href="../../da/de1/linkedmap_8h.html" target="_top" xlink:title=" ">
<polygon fill="white" stroke="#666666" points="620.5,-184 543.5,-184 543.5,-165 620.5,-165 620.5,-184"/>
<text text-anchor="middle" x="582" y="-172" font-family="Helvetica,sans-Serif" font-size="10.00">linkedmap.h</text>
</a>
</g>
</g>
<!-- Node23&#45;&gt;Node24 -->
<g id="edge34_Node000023_Node000024" class="edge">
<title>Node23&#45;&gt;Node24</title>
<g id="a_edge34_Node000023_Node000024"><a xlink:title=" ">
<path fill="none" stroke="#63b8ff" d="M479.6,-219.98C499.32,-211.42 529.95,-198.11 552.58,-188.28"/>
<polygon fill="#63b8ff" stroke="#63b8ff" points="554.26,-191.37 562.04,-184.17 551.48,-184.94 554.26,-191.37"/>
</a>
</g>
</g>
<!-- Node23&#45;&gt;Node25 -->
<g id="edge42_Node000023_Node000025" class="edge">
<title>Node23&#45;&gt;Node25</title>
<g id="a_edge42_Node000023_Node000025"><a xlink:title=" ">
<path fill="none" stroke="#63b8ff" d="M446.34,-219.98C433.16,-211.77 412.97,-199.18 397.43,-189.49"/>
<polygon fill="#63b8ff" stroke="#63b8ff" points="399.24,-186.49 388.91,-184.17 395.54,-192.43 399.24,-186.49"/>
</a>
</g>
</g>
<!-- Node24&#45;&gt;Node2 -->
<g id="edge37_Node000024_Node000002" class="edge">
<title>Node24&#45;&gt;Node2</title>
<g id="a_edge37_Node000024_Node000002"><a xlink:title=" ">
<path fill="none" stroke="#63b8ff" d="M620.68,-165.85C671.4,-155.82 759.9,-138.32 810.85,-128.24"/>
<polygon fill="#63b8ff" stroke="#63b8ff" points="811.69,-131.64 820.82,-126.27 810.33,-124.78 811.69,-131.64"/>
</a>
</g>
</g>
<!-- Node24&#45;&gt;Node3 -->
<g id="edge36_Node000024_Node000003" class="edge">
<title>Node24&#45;&gt;Node3</title>
<g id="a_edge36_Node000024_Node000003"><a xlink:title=" ">
<path fill="none" stroke="#63b8ff" d="M566.09,-164.98C550.45,-156.61 526.34,-143.7 508.12,-133.95"/>
<polygon fill="#63b8ff" stroke="#63b8ff" points="509.66,-130.8 499.2,-129.17 506.36,-136.98 509.66,-130.8"/>
</a>
</g>
</g>
<!-- Node24&#45;&gt;Node6 -->
<g id="edge38_Node000024_Node000006" class="edge">
<title>Node24&#45;&gt;Node6</title>
<g id="a_edge38_Node000024_Node000006"><a xlink:title=" ">
<path fill="none" stroke="#63b8ff" d="M574.58,-164.82C563.05,-151.71 539.68,-126.63 516,-110 482.75,-86.66 416.99,-86.2 443,-55 469.49,-23.22 594.05,-14.07 653.83,-11.49"/>
<polygon fill="#63b8ff" stroke="#63b8ff" points="654.01,-14.98 663.86,-11.09 653.73,-7.99 654.01,-14.98"/>
</a>
</g>
</g>
<!-- Node24&#45;&gt;Node10 -->
<g id="edge35_Node000024_Node000010" class="edge">
<title>Node24&#45;&gt;Node10</title>
<g id="a_edge35_Node000024_Node000010"><a xlink:title=" ">
<path fill="none" stroke="#63b8ff" d="M551.96,-164.98C520.29,-156.01 470.23,-141.82 435.19,-131.89"/>
<polygon fill="#63b8ff" stroke="#63b8ff" points="435.86,-128.44 425.28,-129.08 433.95,-135.18 435.86,-128.44"/>
</a>
</g>
</g>
<!-- Node24&#45;&gt;Node14 -->
<g id="edge41_Node000024_Node000014" class="edge">
<title>Node24&#45;&gt;Node14</title>
<g id="a_edge41_Node000024_Node000014"><a xlink:title=" ">
<path fill="none" stroke="#63b8ff" d="M609.47,-164.98C638.18,-156.09 683.42,-142.07 715.42,-132.15"/>
<polygon fill="#63b8ff" stroke="#63b8ff" points="716.8,-135.39 725.31,-129.08 714.72,-128.7 716.8,-135.39"/>
</a>
</g>
</g>
<!-- Node24&#45;&gt;Node15 -->
<g id="edge39_Node000024_Node000015" class="edge">
<title>Node24&#45;&gt;Node15</title>
<g id="a_edge39_Node000024_Node000015"><a xlink:title=" ">
<path fill="none" stroke="#63b8ff" d="M586.91,-164.66C596.8,-146.85 619.3,-106.37 632.27,-83.01"/>
<polygon fill="#63b8ff" stroke="#63b8ff" points="635.39,-84.6 637.19,-74.16 629.27,-81.2 635.39,-84.6"/>
</a>
</g>
</g>
<!-- Node24&#45;&gt;Node16 -->
<g id="edge40_Node000024_Node000016" class="edge">
<title>Node24&#45;&gt;Node16</title>
<g id="a_edge40_Node000024_Node000016"><a xlink:title=" ">
<path fill="none" stroke="#63b8ff" d="M580.77,-164.66C578.34,-147.17 572.88,-107.8 569.61,-84.27"/>
<polygon fill="#63b8ff" stroke="#63b8ff" points="573.05,-83.58 568.2,-74.16 566.11,-84.54 573.05,-83.58"/>
</a>
</g>
</g>
<!-- Node26&#45;&gt;Node3 -->
<g id="edge45_Node000026_Node000003" class="edge">
<title>Node26&#45;&gt;Node3</title>
<g id="a_edge45_Node000026_Node000003"><a xlink:title=" ">
<path fill="none" stroke="#63b8ff" d="M646.67,-164.98C610.95,-155.28 552.79,-139.47 516.27,-129.54"/>
<polygon fill="#63b8ff" stroke="#63b8ff" points="517.15,-126.16 506.59,-126.91 515.32,-132.91 517.15,-126.16"/>
</a>
</g>
</g>
<!-- Node26&#45;&gt;Node14 -->
<g id="edge46_Node000026_Node000014" class="edge">
<title>Node26&#45;&gt;Node14</title>
<g id="a_edge46_Node000026_Node000014"><a xlink:title=" ">
<path fill="none" stroke="#63b8ff" d="M690.05,-164.98C701.46,-156.92 718.83,-144.65 732.43,-135.03"/>
<polygon fill="#63b8ff" stroke="#63b8ff" points="734.58,-137.8 740.73,-129.17 730.54,-132.08 734.58,-137.8"/>
</a>
</g>
</g>
<!-- Node27&#45;&gt;Node2 -->
<g id="edge50_Node000027_Node000002" class="edge">
<title>Node27&#45;&gt;Node2</title>
<g id="a_edge50_Node000027_Node000002"><a xlink:title=" ">
<path fill="none" stroke="#63b8ff" d="M547.96,-274.91C599.13,-260.72 699.73,-229.37 776,-184 798.13,-170.83 820.1,-150.89 834.27,-136.87"/>
<polygon fill="#63b8ff" stroke="#63b8ff" points="837.12,-138.97 841.66,-129.4 832.14,-134.05 837.12,-138.97"/>
</a>
</g>
</g>
<!-- Node27&#45;&gt;Node3 -->
<g id="edge48_Node000027_Node000003" class="edge">
<title>Node27&#45;&gt;Node3</title>
<g id="a_edge48_Node000027_Node000003"><a xlink:title=" ">
<path fill="none" stroke="#63b8ff" d="M513.28,-274.74C508.27,-249.2 493.59,-174.43 486.68,-139.23"/>
<polygon fill="#63b8ff" stroke="#63b8ff" points="490.09,-138.45 484.73,-129.31 483.22,-139.79 490.09,-138.45"/>
</a>
</g>
</g>
<!-- Node27&#45;&gt;Node9 -->
<g id="edge49_Node000027_Node000009" class="edge">
<title>Node27&#45;&gt;Node9</title>
<g id="a_edge49_Node000027_Node000009"><a xlink:title=" ">
<path fill="none" stroke="#63b8ff" d="M483.65,-274.95C442.47,-262.1 370.74,-233.83 331,-184 320.75,-171.15 315.72,-152.99 313.27,-139.37"/>
<polygon fill="#63b8ff" stroke="#63b8ff" points="316.69,-138.6 311.76,-129.23 309.77,-139.63 316.69,-138.6"/>
</a>
</g>
</g>
<!-- Node27&#45;&gt;Node13 -->
<g id="edge51_Node000027_Node000013" class="edge">
<title>Node27&#45;&gt;Node13</title>
<g id="a_edge51_Node000027_Node000013"><a xlink:title=" ">
<path fill="none" stroke="#63b8ff" d="M524.08,-274.75C532.09,-267.03 543.96,-255.6 553.62,-246.28"/>
<polygon fill="#63b8ff" stroke="#63b8ff" points="556.31,-248.55 561.09,-239.09 551.46,-243.51 556.31,-248.55"/>
</a>
</g>
</g>
<!-- Node27&#45;&gt;Node23 -->
<g id="edge52_Node000027_Node000023" class="edge">
<title>Node27&#45;&gt;Node23</title>
<g id="a_edge52_Node000027_Node000023"><a xlink:title=" ">
<path fill="none" stroke="#63b8ff" d="M505.92,-274.75C497.91,-267.03 486.04,-255.6 476.38,-246.28"/>
<polygon fill="#63b8ff" stroke="#63b8ff" points="478.54,-243.51 468.91,-239.09 473.69,-248.55 478.54,-243.51"/>
</a>
</g>
</g>
</g>
</svg>
