<?xml version="1.0" encoding="UTF-8" standalone="no"?>
<!DOCTYPE svg PUBLIC "-//W3C//DTD SVG 1.1//EN"
 "http://www.w3.org/Graphics/SVG/1.1/DTD/svg11.dtd">
<!-- Generated by graphviz version 2.43.0 (0)
 -->
<!-- Title: src/classdef.h Pages: 1 -->
<svg width="994pt" height="357pt"
 viewBox="0.00 0.00 993.50 357.00" xmlns="http://www.w3.org/2000/svg" xmlns:xlink="http://www.w3.org/1999/xlink">
<g id="graph0" class="graph" transform="scale(1 1) rotate(0) translate(4 353)">
<title>src/classdef.h</title>
<!-- Node1 -->
<g id="Node000001" class="node">
<title>Node1</title>
<g id="a_Node000001"><a xlink:title=" ">
<polygon fill="#999999" stroke="#666666" points="461.5,-349 378.5,-349 378.5,-330 461.5,-330 461.5,-349"/>
<text text-anchor="middle" x="420" y="-337" font-family="Helvetica,sans-Serif" font-size="10.00">src/classdef.h</text>
</a>
</g>
</g>
<!-- Node2 -->
<g id="Node000002" class="node">
<title>Node2</title>
<g id="a_Node000002"><a xlink:title=" ">
<polygon fill="#e0e0e0" stroke="#999999" points="899,-129 841,-129 841,-110 899,-110 899,-129"/>
<text text-anchor="middle" x="870" y="-117" font-family="Helvetica,sans-Serif" font-size="10.00">memory</text>
</a>
</g>
</g>
<!-- Node1&#45;&gt;Node2 -->
<g id="edge1_Node000001_Node000002" class="edge">
<title>Node1&#45;&gt;Node2</title>
<g id="a_edge1_Node000001_Node000002"><a xlink:title=" ">
<path fill="none" stroke="#63b8ff" d="M461.6,-333.51C542.53,-321.75 722.61,-285.21 830,-184 843.75,-171.04 854.76,-152.38 861.72,-138.65"/>
<polygon fill="#63b8ff" stroke="#63b8ff" points="865.05,-139.8 866.23,-129.27 858.74,-136.77 865.05,-139.8"/>
</a>
</g>
</g>
<!-- Node3 -->
<g id="Node000003" class="node">
<title>Node3</title>
<g id="a_Node000003"><a xlink:title=" ">
<polygon fill="#e0e0e0" stroke="#999999" points="493.5,-129 446.5,-129 446.5,-110 493.5,-110 493.5,-129"/>
<text text-anchor="middle" x="470" y="-117" font-family="Helvetica,sans-Serif" font-size="10.00">vector</text>
</a>
</g>
</g>
<!-- Node1&#45;&gt;Node3 -->
<g id="edge2_Node000001_Node000003" class="edge">
<title>Node1&#45;&gt;Node3</title>
<g id="a_edge2_Node000001_Node000003"><a xlink:title=" ">
<path fill="none" stroke="#63b8ff" d="M411.48,-329.87C386.33,-303.32 316.45,-221.25 355,-165 373.06,-138.65 409.13,-127.9 436.08,-123.52"/>
<polygon fill="#63b8ff" stroke="#63b8ff" points="436.85,-126.94 446.27,-122.08 435.88,-120.01 436.85,-126.94"/>
</a>
</g>
</g>
<!-- Node4 -->
<g id="Node000004" class="node">
<title>Node4</title>
<g id="a_Node000004"><a xlink:title=" ">
<polygon fill="#e0e0e0" stroke="#999999" points="86,-129 0,-129 0,-110 86,-110 86,-129"/>
<text text-anchor="middle" x="43" y="-117" font-family="Helvetica,sans-Serif" font-size="10.00">unordered_set</text>
</a>
</g>
</g>
<!-- Node1&#45;&gt;Node4 -->
<g id="edge3_Node000001_Node000004" class="edge">
<title>Node1&#45;&gt;Node4</title>
<g id="a_edge3_Node000001_Node000004"><a xlink:title=" ">
<path fill="none" stroke="#63b8ff" d="M390.3,-329.94C365.05,-322.14 328.2,-309.48 298,-294 203.44,-245.54 102.26,-167.96 61.54,-135.52"/>
<polygon fill="#63b8ff" stroke="#63b8ff" points="63.57,-132.66 53.58,-129.14 59.19,-138.12 63.57,-132.66"/>
</a>
</g>
</g>
<!-- Node5 -->
<g id="Node000005" class="node">
<title>Node5</title>
<g id="a_Node000005"><a xlink:href="../../d5/d75/containers_8h.html" target="_top" xlink:title=" ">
<polygon fill="white" stroke="#666666" points="269.5,-184 192.5,-184 192.5,-165 269.5,-165 269.5,-184"/>
<text text-anchor="middle" x="231" y="-172" font-family="Helvetica,sans-Serif" font-size="10.00">containers.h</text>
</a>
</g>
</g>
<!-- Node1&#45;&gt;Node5 -->
<g id="edge4_Node000001_Node000005" class="edge">
<title>Node1&#45;&gt;Node5</title>
<g id="a_edge4_Node000001_Node000005"><a xlink:title=" ">
<path fill="none" stroke="#63b8ff" d="M391.81,-329.86C371.05,-322.55 342.93,-310.62 322,-294 285.42,-264.95 255.27,-218.13 240.61,-192.91"/>
<polygon fill="#63b8ff" stroke="#63b8ff" points="243.59,-191.08 235.61,-184.11 237.5,-194.53 243.59,-191.08"/>
</a>
</g>
</g>
<!-- Node12 -->
<g id="Node000012" class="node">
<title>Node12</title>
<g id="a_Node000012"><a xlink:href="../../df/da1/definition_8h.html" target="_top" xlink:title=" ">
<polygon fill="white" stroke="#666666" points="483.5,-294 412.5,-294 412.5,-275 483.5,-275 483.5,-294"/>
<text text-anchor="middle" x="448" y="-282" font-family="Helvetica,sans-Serif" font-size="10.00">definition.h</text>
</a>
</g>
</g>
<!-- Node1&#45;&gt;Node12 -->
<g id="edge13_Node000001_Node000012" class="edge">
<title>Node1&#45;&gt;Node12</title>
<g id="a_edge13_Node000001_Node000012"><a xlink:title=" ">
<path fill="none" stroke="#63b8ff" d="M424.62,-329.75C428.46,-322.49 434.02,-311.95 438.76,-302.98"/>
<polygon fill="#63b8ff" stroke="#63b8ff" points="441.89,-304.57 443.46,-294.09 435.7,-301.3 441.89,-304.57"/>
</a>
</g>
</g>
<!-- Node25 -->
<g id="Node000025" class="node">
<title>Node25</title>
<g id="a_Node000025"><a xlink:href="../../df/d9b/arguments_8h.html" target="_top" xlink:title=" ">
<polygon fill="white" stroke="#666666" points="442,-184 364,-184 364,-165 442,-165 442,-184"/>
<text text-anchor="middle" x="403" y="-172" font-family="Helvetica,sans-Serif" font-size="10.00">arguments.h</text>
</a>
</g>
</g>
<!-- Node1&#45;&gt;Node25 -->
<g id="edge42_Node000001_Node000025" class="edge">
<title>Node1&#45;&gt;Node25</title>
<g id="a_edge42_Node000001_Node000025"><a xlink:title=" ">
<path fill="none" stroke="#63b8ff" d="M415.99,-329.86C412.12,-321.06 406.49,-306.9 404,-294 397.3,-259.28 399.14,-217.77 401.08,-194.23"/>
<polygon fill="#63b8ff" stroke="#63b8ff" points="404.57,-194.51 402,-184.23 397.6,-193.87 404.57,-194.51"/>
</a>
</g>
</g>
<!-- Node26 -->
<g id="Node000026" class="node">
<title>Node26</title>
<g id="a_Node000026"><a xlink:href="../../d9/d11/membergroup_8h.html" target="_top" xlink:title=" ">
<polygon fill="white" stroke="#666666" points="601.5,-294 506.5,-294 506.5,-275 601.5,-275 601.5,-294"/>
<text text-anchor="middle" x="554" y="-282" font-family="Helvetica,sans-Serif" font-size="10.00">membergroup.h</text>
</a>
</g>
</g>
<!-- Node1&#45;&gt;Node26 -->
<g id="edge45_Node000001_Node000026" class="edge">
<title>Node1&#45;&gt;Node26</title>
<g id="a_edge45_Node000001_Node000026"><a xlink:title=" ">
<path fill="none" stroke="#63b8ff" d="M441.53,-329.98C463.47,-321.3 497.74,-307.75 522.69,-297.88"/>
<polygon fill="#63b8ff" stroke="#63b8ff" points="524.07,-301.1 532.08,-294.17 521.49,-294.59 524.07,-301.1"/>
</a>
</g>
</g>
<!-- Node27 -->
<g id="Node000027" class="node">
<title>Node27</title>
<g id="a_Node000027"><a xlink:title=" ">
<polygon fill="#e0e0e0" stroke="#999999" points="985.5,-294 898.5,-294 898.5,-275 985.5,-275 985.5,-294"/>
<text text-anchor="middle" x="942" y="-282" font-family="Helvetica,sans-Serif" font-size="10.00">configvalues.h</text>
</a>
</g>
</g>
<!-- Node1&#45;&gt;Node27 -->
<g id="edge51_Node000001_Node000027" class="edge">
<title>Node1&#45;&gt;Node27</title>
<g id="a_edge51_Node000001_Node000027"><a xlink:title=" ">
<path fill="none" stroke="#63b8ff" d="M461.67,-335.21C543,-328.62 728.55,-312.83 884,-294 885.45,-293.82 886.92,-293.64 888.41,-293.45"/>
<polygon fill="#63b8ff" stroke="#63b8ff" points="888.87,-296.92 898.33,-292.14 887.95,-289.98 888.87,-296.92"/>
</a>
</g>
</g>
<!-- Node5&#45;&gt;Node3 -->
<g id="edge5_Node000005_Node000003" class="edge">
<title>Node5&#45;&gt;Node3</title>
<g id="a_edge5_Node000005_Node000003"><a xlink:title=" ">
<path fill="none" stroke="#63b8ff" d="M269.4,-164.98C315.58,-154.74 392.34,-137.72 436.31,-127.97"/>
<polygon fill="#63b8ff" stroke="#63b8ff" points="437.22,-131.36 446.22,-125.77 435.7,-124.52 437.22,-131.36"/>
</a>
</g>
</g>
<!-- Node5&#45;&gt;Node4 -->
<g id="edge10_Node000005_Node000004" class="edge">
<title>Node5&#45;&gt;Node4</title>
<g id="a_edge10_Node000005_Node000004"><a xlink:title=" ">
<path fill="none" stroke="#63b8ff" d="M200.79,-164.98C168.96,-156.01 118.64,-141.82 83.4,-131.89"/>
<polygon fill="#63b8ff" stroke="#63b8ff" points="84.02,-128.43 73.44,-129.08 82.12,-135.16 84.02,-128.43"/>
</a>
</g>
</g>
<!-- Node6 -->
<g id="Node000006" class="node">
<title>Node6</title>
<g id="a_Node000006"><a xlink:title=" ">
<polygon fill="#e0e0e0" stroke="#999999" points="375,-19 331,-19 331,0 375,0 375,-19"/>
<text text-anchor="middle" x="353" y="-7" font-family="Helvetica,sans-Serif" font-size="10.00">string</text>
</a>
</g>
</g>
<!-- Node5&#45;&gt;Node6 -->
<g id="edge6_Node000005_Node000006" class="edge">
<title>Node5&#45;&gt;Node6</title>
<g id="a_edge6_Node000005_Node000006"><a xlink:title=" ">
<path fill="none" stroke="#63b8ff" d="M233.04,-164.83C238.34,-143.89 254.2,-89.72 284,-55 295.16,-41.99 311.06,-31.39 324.79,-23.8"/>
<polygon fill="#63b8ff" stroke="#63b8ff" points="326.63,-26.78 333.86,-19.03 323.38,-20.58 326.63,-26.78"/>
</a>
</g>
</g>
<!-- Node7 -->
<g id="Node000007" class="node">
<title>Node7</title>
<g id="a_Node000007"><a xlink:title=" ">
<polygon fill="#e0e0e0" stroke="#999999" points="197.5,-74 124.5,-74 124.5,-55 197.5,-55 197.5,-74"/>
<text text-anchor="middle" x="161" y="-62" font-family="Helvetica,sans-Serif" font-size="10.00">string_view</text>
</a>
</g>
</g>
<!-- Node5&#45;&gt;Node7 -->
<g id="edge7_Node000005_Node000007" class="edge">
<title>Node5&#45;&gt;Node7</title>
<g id="a_edge7_Node000005_Node000007"><a xlink:title=" ">
<path fill="none" stroke="#63b8ff" d="M228.8,-164.74C225.33,-151.96 217.74,-127.8 206,-110 198.78,-99.04 188.5,-88.63 179.59,-80.63"/>
<polygon fill="#63b8ff" stroke="#63b8ff" points="181.78,-77.89 171.92,-74.02 177.21,-83.2 181.78,-77.89"/>
</a>
</g>
</g>
<!-- Node8 -->
<g id="Node000008" class="node">
<title>Node8</title>
<g id="a_Node000008"><a xlink:title=" ">
<polygon fill="#e0e0e0" stroke="#999999" points="136,-129 104,-129 104,-110 136,-110 136,-129"/>
<text text-anchor="middle" x="120" y="-117" font-family="Helvetica,sans-Serif" font-size="10.00">set</text>
</a>
</g>
</g>
<!-- Node5&#45;&gt;Node8 -->
<g id="edge8_Node000005_Node000008" class="edge">
<title>Node5&#45;&gt;Node8</title>
<g id="a_edge8_Node000005_Node000008"><a xlink:title=" ">
<path fill="none" stroke="#63b8ff" d="M213.17,-164.98C194.86,-156.24 166.21,-142.56 145.51,-132.68"/>
<polygon fill="#63b8ff" stroke="#63b8ff" points="146.88,-129.45 136.34,-128.3 143.86,-135.77 146.88,-129.45"/>
</a>
</g>
</g>
<!-- Node9 -->
<g id="Node000009" class="node">
<title>Node9</title>
<g id="a_Node000009"><a xlink:title=" ">
<polygon fill="#e0e0e0" stroke="#999999" points="330,-129 292,-129 292,-110 330,-110 330,-129"/>
<text text-anchor="middle" x="311" y="-117" font-family="Helvetica,sans-Serif" font-size="10.00">map</text>
</a>
</g>
</g>
<!-- Node5&#45;&gt;Node9 -->
<g id="edge9_Node000005_Node000009" class="edge">
<title>Node5&#45;&gt;Node9</title>
<g id="a_edge9_Node000005_Node000009"><a xlink:title=" ">
<path fill="none" stroke="#63b8ff" d="M243.85,-164.98C256.14,-156.84 274.91,-144.41 289.48,-134.76"/>
<polygon fill="#63b8ff" stroke="#63b8ff" points="291.51,-137.61 297.91,-129.17 287.64,-131.78 291.51,-137.61"/>
</a>
</g>
</g>
<!-- Node10 -->
<g id="Node000010" class="node">
<title>Node10</title>
<g id="a_Node000010"><a xlink:title=" ">
<polygon fill="#e0e0e0" stroke="#999999" points="698.5,-129 605.5,-129 605.5,-110 698.5,-110 698.5,-129"/>
<text text-anchor="middle" x="652" y="-117" font-family="Helvetica,sans-Serif" font-size="10.00">unordered_map</text>
</a>
</g>
</g>
<!-- Node5&#45;&gt;Node10 -->
<g id="edge11_Node000005_Node000010" class="edge">
<title>Node5&#45;&gt;Node10</title>
<g id="a_edge11_Node000005_Node000010"><a xlink:title=" ">
<path fill="none" stroke="#63b8ff" d="M269.76,-168.95C335.9,-161.15 474.78,-144.53 592,-129 593.1,-128.85 594.2,-128.71 595.32,-128.56"/>
<polygon fill="#63b8ff" stroke="#63b8ff" points="596.06,-131.99 605.5,-127.17 595.12,-125.05 596.06,-131.99"/>
</a>
</g>
</g>
<!-- Node11 -->
<g id="Node000011" class="node">
<title>Node11</title>
<g id="a_Node000011"><a xlink:title=" ">
<polygon fill="#e0e0e0" stroke="#999999" points="197.5,-129 154.5,-129 154.5,-110 197.5,-110 197.5,-129"/>
<text text-anchor="middle" x="176" y="-117" font-family="Helvetica,sans-Serif" font-size="10.00">stack</text>
</a>
</g>
</g>
<!-- Node5&#45;&gt;Node11 -->
<g id="edge12_Node000005_Node000011" class="edge">
<title>Node5&#45;&gt;Node11</title>
<g id="a_edge12_Node000005_Node000011"><a xlink:title=" ">
<path fill="none" stroke="#63b8ff" d="M221.92,-164.75C213.91,-157.03 202.04,-145.6 192.38,-136.28"/>
<polygon fill="#63b8ff" stroke="#63b8ff" points="194.54,-133.51 184.91,-129.09 189.69,-138.55 194.54,-133.51"/>
</a>
</g>
</g>
<!-- Node12&#45;&gt;Node3 -->
<g id="edge14_Node000012_Node000003" class="edge">
<title>Node12&#45;&gt;Node3</title>
<g id="a_edge14_Node000012_Node000003"><a xlink:title=" ">
<path fill="none" stroke="#63b8ff" d="M449.18,-274.74C452.63,-249.2 462.72,-174.43 467.47,-139.23"/>
<polygon fill="#63b8ff" stroke="#63b8ff" points="470.94,-139.69 468.81,-129.31 464.01,-138.75 470.94,-139.69"/>
</a>
</g>
</g>
<!-- Node13 -->
<g id="Node000013" class="node">
<title>Node13</title>
<g id="a_Node000013"><a xlink:href="../../d9/d49/types_8h.html" target="_top" xlink:title="This file contains a number of basic enums and types.">
<polygon fill="white" stroke="#666666" points="535.5,-239 482.5,-239 482.5,-220 535.5,-220 535.5,-239"/>
<text text-anchor="middle" x="509" y="-227" font-family="Helvetica,sans-Serif" font-size="10.00">types.h</text>
</a>
</g>
</g>
<!-- Node12&#45;&gt;Node13 -->
<g id="edge15_Node000012_Node000013" class="edge">
<title>Node12&#45;&gt;Node13</title>
<g id="a_edge15_Node000012_Node000013"><a xlink:title=" ">
<path fill="none" stroke="#63b8ff" d="M457.8,-274.98C466.82,-267.15 480.41,-255.34 491.32,-245.86"/>
<polygon fill="#63b8ff" stroke="#63b8ff" points="493.77,-248.37 499.02,-239.17 489.18,-243.09 493.77,-248.37"/>
</a>
</g>
</g>
<!-- Node23 -->
<g id="Node000023" class="node">
<title>Node23</title>
<g id="a_Node000023"><a xlink:href="../../d1/d02/reflist_8h.html" target="_top" xlink:title=" ">
<polygon fill="white" stroke="#666666" points="648.5,-239 595.5,-239 595.5,-220 648.5,-220 648.5,-239"/>
<text text-anchor="middle" x="622" y="-227" font-family="Helvetica,sans-Serif" font-size="10.00">reflist.h</text>
</a>
</g>
</g>
<!-- Node12&#45;&gt;Node23 -->
<g id="edge29_Node000012_Node000023" class="edge">
<title>Node12&#45;&gt;Node23</title>
<g id="a_edge29_Node000012_Node000023"><a xlink:title=" ">
<path fill="none" stroke="#63b8ff" d="M475.96,-274.98C505.73,-265.92 552.97,-251.53 585.63,-241.58"/>
<polygon fill="#63b8ff" stroke="#63b8ff" points="586.71,-244.91 595.26,-238.65 584.67,-238.21 586.71,-244.91"/>
</a>
</g>
</g>
<!-- Node14 -->
<g id="Node000014" class="node">
<title>Node14</title>
<g id="a_Node000014"><a xlink:href="../../d7/d5c/qcstring_8h.html" target="_top" xlink:title=" ">
<polygon fill="white" stroke="#666666" points="582.5,-129 517.5,-129 517.5,-110 582.5,-110 582.5,-129"/>
<text text-anchor="middle" x="550" y="-117" font-family="Helvetica,sans-Serif" font-size="10.00">qcstring.h</text>
</a>
</g>
</g>
<!-- Node13&#45;&gt;Node14 -->
<g id="edge16_Node000013_Node000014" class="edge">
<title>Node13&#45;&gt;Node14</title>
<g id="a_edge16_Node000013_Node000014"><a xlink:title=" ">
<path fill="none" stroke="#63b8ff" d="M512.36,-219.66C519.06,-202.01 534.21,-162.09 543.12,-138.64"/>
<polygon fill="#63b8ff" stroke="#63b8ff" points="546.44,-139.75 546.71,-129.16 539.89,-137.27 546.44,-139.75"/>
</a>
</g>
</g>
<!-- Node14&#45;&gt;Node6 -->
<g id="edge17_Node000014_Node000006" class="edge">
<title>Node14&#45;&gt;Node6</title>
<g id="a_edge17_Node000014_Node000006"><a xlink:title=" ">
<path fill="none" stroke="#63b8ff" d="M553.96,-109.58C559.25,-96.16 566.59,-70.68 554,-55 533.22,-29.11 436.74,-17.36 385.38,-12.86"/>
<polygon fill="#63b8ff" stroke="#63b8ff" points="385.4,-9.35 375.15,-12.01 384.82,-16.33 385.4,-9.35"/>
</a>
</g>
</g>
<!-- Node14&#45;&gt;Node7 -->
<g id="edge18_Node000014_Node000007" class="edge">
<title>Node14&#45;&gt;Node7</title>
<g id="a_edge18_Node000014_Node000007"><a xlink:title=" ">
<path fill="none" stroke="#63b8ff" d="M517.42,-112.37C512.59,-111.53 507.67,-110.71 503,-110 374.16,-90.4 340.97,-92.72 212,-74 210.7,-73.81 209.38,-73.62 208.05,-73.42"/>
<polygon fill="#63b8ff" stroke="#63b8ff" points="208.16,-69.89 197.74,-71.81 207.09,-76.81 208.16,-69.89"/>
</a>
</g>
</g>
<!-- Node15 -->
<g id="Node000015" class="node">
<title>Node15</title>
<g id="a_Node000015"><a xlink:title=" ">
<polygon fill="#e0e0e0" stroke="#999999" points="733,-74 669,-74 669,-55 733,-55 733,-74"/>
<text text-anchor="middle" x="701" y="-62" font-family="Helvetica,sans-Serif" font-size="10.00">algorithm</text>
</a>
</g>
</g>
<!-- Node14&#45;&gt;Node15 -->
<g id="edge19_Node000014_Node000015" class="edge">
<title>Node14&#45;&gt;Node15</title>
<g id="a_edge19_Node000014_Node000015"><a xlink:title=" ">
<path fill="none" stroke="#63b8ff" d="M574.26,-109.98C599.32,-101.19 638.63,-87.39 666.83,-77.49"/>
<polygon fill="#63b8ff" stroke="#63b8ff" points="668.02,-80.78 676.3,-74.17 665.7,-74.18 668.02,-80.78"/>
</a>
</g>
</g>
<!-- Node16 -->
<g id="Node000016" class="node">
<title>Node16</title>
<g id="a_Node000016"><a xlink:title=" ">
<polygon fill="#e0e0e0" stroke="#999999" points="800.5,-74 751.5,-74 751.5,-55 800.5,-55 800.5,-74"/>
<text text-anchor="middle" x="776" y="-62" font-family="Helvetica,sans-Serif" font-size="10.00">cctype</text>
</a>
</g>
</g>
<!-- Node14&#45;&gt;Node16 -->
<g id="edge20_Node000014_Node000016" class="edge">
<title>Node14&#45;&gt;Node16</title>
<g id="a_edge20_Node000014_Node000016"><a xlink:title=" ">
<path fill="none" stroke="#63b8ff" d="M582.65,-111.11C618.95,-102.86 679.56,-88.96 741.54,-74.08"/>
<polygon fill="#63b8ff" stroke="#63b8ff" points="742.6,-77.42 751.5,-71.68 740.96,-70.62 742.6,-77.42"/>
</a>
</g>
</g>
<!-- Node17 -->
<g id="Node000017" class="node">
<title>Node17</title>
<g id="a_Node000017"><a xlink:title=" ">
<polygon fill="#e0e0e0" stroke="#999999" points="651,-74 601,-74 601,-55 651,-55 651,-74"/>
<text text-anchor="middle" x="626" y="-62" font-family="Helvetica,sans-Serif" font-size="10.00">cstring</text>
</a>
</g>
</g>
<!-- Node14&#45;&gt;Node17 -->
<g id="edge21_Node000014_Node000017" class="edge">
<title>Node14&#45;&gt;Node17</title>
<g id="a_edge21_Node000014_Node000017"><a xlink:title=" ">
<path fill="none" stroke="#63b8ff" d="M562.21,-109.98C573.78,-101.92 591.38,-89.65 605.16,-80.03"/>
<polygon fill="#63b8ff" stroke="#63b8ff" points="607.37,-82.76 613.57,-74.17 603.36,-77.02 607.37,-82.76"/>
</a>
</g>
</g>
<!-- Node18 -->
<g id="Node000018" class="node">
<title>Node18</title>
<g id="a_Node000018"><a xlink:title=" ">
<polygon fill="#e0e0e0" stroke="#999999" points="402,-74 356,-74 356,-55 402,-55 402,-74"/>
<text text-anchor="middle" x="379" y="-62" font-family="Helvetica,sans-Serif" font-size="10.00">cstdio</text>
</a>
</g>
</g>
<!-- Node14&#45;&gt;Node18 -->
<g id="edge22_Node000014_Node000018" class="edge">
<title>Node14&#45;&gt;Node18</title>
<g id="a_edge22_Node000014_Node000018"><a xlink:title=" ">
<path fill="none" stroke="#63b8ff" d="M522.53,-109.98C492.37,-100.64 443.98,-85.64 411.84,-75.68"/>
<polygon fill="#63b8ff" stroke="#63b8ff" points="412.61,-72.25 402.02,-72.63 410.54,-78.94 412.61,-72.25"/>
</a>
</g>
</g>
<!-- Node19 -->
<g id="Node000019" class="node">
<title>Node19</title>
<g id="a_Node000019"><a xlink:title=" ">
<polygon fill="#e0e0e0" stroke="#999999" points="469.5,-74 420.5,-74 420.5,-55 469.5,-55 469.5,-74"/>
<text text-anchor="middle" x="445" y="-62" font-family="Helvetica,sans-Serif" font-size="10.00">cstdlib</text>
</a>
</g>
</g>
<!-- Node14&#45;&gt;Node19 -->
<g id="edge23_Node000014_Node000019" class="edge">
<title>Node14&#45;&gt;Node19</title>
<g id="a_edge23_Node000014_Node000019"><a xlink:title=" ">
<path fill="none" stroke="#63b8ff" d="M533.13,-109.98C516.39,-101.54 490.5,-88.47 471.11,-78.68"/>
<polygon fill="#63b8ff" stroke="#63b8ff" points="472.68,-75.55 462.18,-74.17 469.53,-81.8 472.68,-75.55"/>
</a>
</g>
</g>
<!-- Node20 -->
<g id="Node000020" class="node">
<title>Node20</title>
<g id="a_Node000020"><a xlink:title=" ">
<polygon fill="#e0e0e0" stroke="#999999" points="301,-19 251,-19 251,0 301,0 301,-19"/>
<text text-anchor="middle" x="276" y="-7" font-family="Helvetica,sans-Serif" font-size="10.00">cstdint</text>
</a>
</g>
</g>
<!-- Node14&#45;&gt;Node20 -->
<g id="edge24_Node000014_Node000020" class="edge">
<title>Node14&#45;&gt;Node20</title>
<g id="a_edge24_Node000014_Node000020"><a xlink:title=" ">
<path fill="none" stroke="#63b8ff" d="M517.4,-112.53C512.57,-111.67 507.66,-110.8 503,-110 454.4,-101.61 318.21,-109.52 284,-74 272.81,-62.38 271.74,-43.52 272.91,-29.36"/>
<polygon fill="#63b8ff" stroke="#63b8ff" points="276.41,-29.61 274.18,-19.25 269.46,-28.74 276.41,-29.61"/>
</a>
</g>
</g>
<!-- Node21 -->
<g id="Node000021" class="node">
<title>Node21</title>
<g id="a_Node000021"><a xlink:title=" ">
<polygon fill="#e0e0e0" stroke="#999999" points="544.5,-74 487.5,-74 487.5,-55 544.5,-55 544.5,-74"/>
<text text-anchor="middle" x="516" y="-62" font-family="Helvetica,sans-Serif" font-size="10.00">ostream</text>
</a>
</g>
</g>
<!-- Node14&#45;&gt;Node21 -->
<g id="edge25_Node000014_Node000021" class="edge">
<title>Node14&#45;&gt;Node21</title>
<g id="a_edge25_Node000014_Node000021"><a xlink:title=" ">
<path fill="none" stroke="#63b8ff" d="M544.39,-109.75C539.68,-102.42 532.83,-91.73 527.03,-82.7"/>
<polygon fill="#63b8ff" stroke="#63b8ff" points="529.86,-80.62 521.51,-74.09 523.96,-84.4 529.86,-80.62"/>
</a>
</g>
</g>
<!-- Node22 -->
<g id="Node000022" class="node">
<title>Node22</title>
<g id="a_Node000022"><a xlink:href="../../db/d7c/utf8_8h.html" target="_top" xlink:title="Various UTF8 related helper functions.">
<polygon fill="white" stroke="#666666" points="337.5,-74 292.5,-74 292.5,-55 337.5,-55 337.5,-74"/>
<text text-anchor="middle" x="315" y="-62" font-family="Helvetica,sans-Serif" font-size="10.00">utf8.h</text>
</a>
</g>
</g>
<!-- Node14&#45;&gt;Node22 -->
<g id="edge26_Node000014_Node000022" class="edge">
<title>Node14&#45;&gt;Node22</title>
<g id="a_edge26_Node000014_Node000022"><a xlink:title=" ">
<path fill="none" stroke="#63b8ff" d="M517.2,-111.77C478.87,-103.81 413.3,-89.87 347.41,-74.01"/>
<polygon fill="#63b8ff" stroke="#63b8ff" points="348.24,-70.61 337.69,-71.66 346.59,-77.41 348.24,-70.61"/>
</a>
</g>
</g>
<!-- Node22&#45;&gt;Node6 -->
<g id="edge28_Node000022_Node000006" class="edge">
<title>Node22&#45;&gt;Node6</title>
<g id="a_edge28_Node000022_Node000006"><a xlink:title=" ">
<path fill="none" stroke="#63b8ff" d="M321.27,-54.75C326.59,-47.34 334.36,-36.5 340.88,-27.41"/>
<polygon fill="#63b8ff" stroke="#63b8ff" points="343.86,-29.26 346.84,-19.09 338.17,-25.18 343.86,-29.26"/>
</a>
</g>
</g>
<!-- Node22&#45;&gt;Node20 -->
<g id="edge27_Node000022_Node000020" class="edge">
<title>Node22&#45;&gt;Node20</title>
<g id="a_edge27_Node000022_Node000020"><a xlink:title=" ">
<path fill="none" stroke="#63b8ff" d="M308.56,-54.75C303.11,-47.34 295.14,-36.5 288.44,-27.41"/>
<polygon fill="#63b8ff" stroke="#63b8ff" points="291.07,-25.07 282.32,-19.09 285.43,-29.22 291.07,-25.07"/>
</a>
</g>
</g>
<!-- Node23&#45;&gt;Node2 -->
<g id="edge32_Node000023_Node000002" class="edge">
<title>Node23&#45;&gt;Node2</title>
<g id="a_edge32_Node000023_Node000002"><a xlink:title=" ">
<path fill="none" stroke="#63b8ff" d="M648.6,-223.36C679.83,-216.74 732.75,-203.69 775,-184 803.43,-170.75 832.99,-149.64 851.43,-135.44"/>
<polygon fill="#63b8ff" stroke="#63b8ff" points="853.82,-138.01 859.53,-129.08 849.5,-132.5 853.82,-138.01"/>
</a>
</g>
</g>
<!-- Node23&#45;&gt;Node3 -->
<g id="edge30_Node000023_Node000003" class="edge">
<title>Node23&#45;&gt;Node3</title>
<g id="a_edge30_Node000023_Node000003"><a xlink:title=" ">
<path fill="none" stroke="#63b8ff" d="M609.82,-219.84C583.8,-201.36 522.58,-157.86 490.47,-135.05"/>
<polygon fill="#63b8ff" stroke="#63b8ff" points="492.42,-132.14 482.24,-129.2 488.36,-137.84 492.42,-132.14"/>
</a>
</g>
</g>
<!-- Node23&#45;&gt;Node10 -->
<g id="edge31_Node000023_Node000010" class="edge">
<title>Node23&#45;&gt;Node10</title>
<g id="a_edge31_Node000023_Node000010"><a xlink:title=" ">
<path fill="none" stroke="#63b8ff" d="M624.94,-219.68C627.88,-210.73 632.47,-196.47 636,-184 640.26,-168.94 644.57,-151.71 647.64,-139.01"/>
<polygon fill="#63b8ff" stroke="#63b8ff" points="651.07,-139.71 649.98,-129.17 644.26,-138.08 651.07,-139.71"/>
</a>
</g>
</g>
<!-- Node23&#45;&gt;Node14 -->
<g id="edge33_Node000023_Node000014" class="edge">
<title>Node23&#45;&gt;Node14</title>
<g id="a_edge33_Node000023_Node000014"><a xlink:title=" ">
<path fill="none" stroke="#63b8ff" d="M616.11,-219.66C604.18,-201.77 577,-161 561.46,-137.69"/>
<polygon fill="#63b8ff" stroke="#63b8ff" points="564.23,-135.54 555.77,-129.16 558.41,-139.42 564.23,-135.54"/>
</a>
</g>
</g>
<!-- Node24 -->
<g id="Node000024" class="node">
<title>Node24</title>
<g id="a_Node000024"><a xlink:href="../../da/de1/linkedmap_8h.html" target="_top" xlink:title=" ">
<polygon fill="white" stroke="#666666" points="765.5,-184 688.5,-184 688.5,-165 765.5,-165 765.5,-184"/>
<text text-anchor="middle" x="727" y="-172" font-family="Helvetica,sans-Serif" font-size="10.00">linkedmap.h</text>
</a>
</g>
</g>
<!-- Node23&#45;&gt;Node24 -->
<g id="edge34_Node000023_Node000024" class="edge">
<title>Node23&#45;&gt;Node24</title>
<g id="a_edge34_Node000023_Node000024"><a xlink:title=" ">
<path fill="none" stroke="#63b8ff" d="M638.87,-219.98C655.61,-211.54 681.5,-198.47 700.89,-188.68"/>
<polygon fill="#63b8ff" stroke="#63b8ff" points="702.47,-191.8 709.82,-184.17 699.32,-185.55 702.47,-191.8"/>
</a>
</g>
</g>
<!-- Node24&#45;&gt;Node2 -->
<g id="edge37_Node000024_Node000002" class="edge">
<title>Node24&#45;&gt;Node2</title>
<g id="a_edge37_Node000024_Node000002"><a xlink:title=" ">
<path fill="none" stroke="#63b8ff" d="M749.98,-164.98C773.5,-156.27 810.29,-142.63 836.94,-132.75"/>
<polygon fill="#63b8ff" stroke="#63b8ff" points="838.45,-135.93 846.61,-129.17 836.01,-129.36 838.45,-135.93"/>
</a>
</g>
</g>
<!-- Node24&#45;&gt;Node3 -->
<g id="edge36_Node000024_Node000003" class="edge">
<title>Node24&#45;&gt;Node3</title>
<g id="a_edge36_Node000024_Node000003"><a xlink:title=" ">
<path fill="none" stroke="#63b8ff" d="M688.38,-165.78C644.78,-157.02 571.74,-142.24 509,-129 507.32,-128.65 505.6,-128.28 503.87,-127.91"/>
<polygon fill="#63b8ff" stroke="#63b8ff" points="504.43,-124.45 493.91,-125.76 502.95,-131.29 504.43,-124.45"/>
</a>
</g>
</g>
<!-- Node24&#45;&gt;Node6 -->
<g id="edge38_Node000024_Node000006" class="edge">
<title>Node24&#45;&gt;Node6</title>
<g id="a_edge38_Node000024_Node000006"><a xlink:title=" ">
<path fill="none" stroke="#63b8ff" d="M741.07,-164.92C772.71,-144.63 844.09,-92.57 810,-55 781.51,-23.6 484.75,-13.66 385.29,-11.19"/>
<polygon fill="#63b8ff" stroke="#63b8ff" points="385.3,-7.69 375.22,-10.95 385.14,-14.69 385.3,-7.69"/>
</a>
</g>
</g>
<!-- Node24&#45;&gt;Node10 -->
<g id="edge35_Node000024_Node000010" class="edge">
<title>Node24&#45;&gt;Node10</title>
<g id="a_edge35_Node000024_Node000010"><a xlink:title=" ">
<path fill="none" stroke="#63b8ff" d="M714.95,-164.98C703.54,-156.92 686.17,-144.65 672.57,-135.03"/>
<polygon fill="#63b8ff" stroke="#63b8ff" points="674.46,-132.08 664.27,-129.17 670.42,-137.8 674.46,-132.08"/>
</a>
</g>
</g>
<!-- Node24&#45;&gt;Node14 -->
<g id="edge41_Node000024_Node000014" class="edge">
<title>Node24&#45;&gt;Node14</title>
<g id="a_edge41_Node000024_Node000014"><a xlink:title=" ">
<path fill="none" stroke="#63b8ff" d="M698.56,-164.98C668.72,-156.05 621.62,-141.94 588.47,-132.02"/>
<polygon fill="#63b8ff" stroke="#63b8ff" points="589.24,-128.6 578.66,-129.08 587.24,-135.3 589.24,-128.6"/>
</a>
</g>
</g>
<!-- Node24&#45;&gt;Node15 -->
<g id="edge39_Node000024_Node000015" class="edge">
<title>Node24&#45;&gt;Node15</title>
<g id="a_edge39_Node000024_Node000015"><a xlink:title=" ">
<path fill="none" stroke="#63b8ff" d="M724.87,-164.66C720.64,-147.09 711.1,-107.45 705.44,-83.95"/>
<polygon fill="#63b8ff" stroke="#63b8ff" points="708.83,-83.06 703.08,-74.16 702.02,-84.7 708.83,-83.06"/>
</a>
</g>
</g>
<!-- Node24&#45;&gt;Node16 -->
<g id="edge40_Node000024_Node000016" class="edge">
<title>Node24&#45;&gt;Node16</title>
<g id="a_edge40_Node000024_Node000016"><a xlink:title=" ">
<path fill="none" stroke="#63b8ff" d="M731.01,-164.66C739.05,-146.93 757.3,-106.73 767.92,-83.32"/>
<polygon fill="#63b8ff" stroke="#63b8ff" points="771.13,-84.71 772.07,-74.16 764.75,-81.82 771.13,-84.71"/>
</a>
</g>
</g>
<!-- Node25&#45;&gt;Node3 -->
<g id="edge43_Node000025_Node000003" class="edge">
<title>Node25&#45;&gt;Node3</title>
<g id="a_edge43_Node000025_Node000003"><a xlink:title=" ">
<path fill="none" stroke="#63b8ff" d="M413.76,-164.98C423.77,-157.07 438.89,-145.11 450.93,-135.58"/>
<polygon fill="#63b8ff" stroke="#63b8ff" points="453.37,-138.12 459.04,-129.17 449.03,-132.63 453.37,-138.12"/>
</a>
</g>
</g>
<!-- Node25&#45;&gt;Node14 -->
<g id="edge44_Node000025_Node000014" class="edge">
<title>Node25&#45;&gt;Node14</title>
<g id="a_edge44_Node000025_Node000014"><a xlink:title=" ">
<path fill="none" stroke="#63b8ff" d="M426.62,-164.98C450.9,-156.23 488.95,-142.51 516.37,-132.62"/>
<polygon fill="#63b8ff" stroke="#63b8ff" points="517.73,-135.85 525.95,-129.17 515.36,-129.27 517.73,-135.85"/>
</a>
</g>
</g>
<!-- Node26&#45;&gt;Node2 -->
<g id="edge48_Node000026_Node000002" class="edge">
<title>Node26&#45;&gt;Node2</title>
<g id="a_edge48_Node000026_Node000002"><a xlink:title=" ">
<path fill="none" stroke="#63b8ff" d="M587.27,-274.89C637.29,-260.97 733.63,-230.31 805,-184 824.95,-171.06 843.94,-151.34 856.18,-137.32"/>
<polygon fill="#63b8ff" stroke="#63b8ff" points="859.08,-139.32 862.88,-129.43 853.74,-134.79 859.08,-139.32"/>
</a>
</g>
</g>
<!-- Node26&#45;&gt;Node3 -->
<g id="edge46_Node000026_Node000003" class="edge">
<title>Node26&#45;&gt;Node3</title>
<g id="a_edge46_Node000026_Node000003"><a xlink:title=" ">
<path fill="none" stroke="#63b8ff" d="M554.12,-274.93C554.01,-262.38 552.68,-238.51 545,-220 531.21,-186.76 503.66,-154.7 486.07,-136.32"/>
<polygon fill="#63b8ff" stroke="#63b8ff" points="488.49,-133.79 478.99,-129.11 483.49,-138.7 488.49,-133.79"/>
</a>
</g>
</g>
<!-- Node26&#45;&gt;Node9 -->
<g id="edge47_Node000026_Node000009" class="edge">
<title>Node26&#45;&gt;Node9</title>
<g id="a_edge47_Node000026_Node000009"><a xlink:title=" ">
<path fill="none" stroke="#63b8ff" d="M527.04,-274.91C486.29,-260.91 408.12,-230.05 355,-184 340.16,-171.13 327.9,-152.21 320.12,-138.36"/>
<polygon fill="#63b8ff" stroke="#63b8ff" points="323.09,-136.5 315.28,-129.34 316.93,-139.81 323.09,-136.5"/>
</a>
</g>
</g>
<!-- Node26&#45;&gt;Node13 -->
<g id="edge49_Node000026_Node000013" class="edge">
<title>Node26&#45;&gt;Node13</title>
<g id="a_edge49_Node000026_Node000013"><a xlink:title=" ">
<path fill="none" stroke="#63b8ff" d="M546.57,-274.75C540.15,-267.18 530.69,-256.05 522.88,-246.84"/>
<polygon fill="#63b8ff" stroke="#63b8ff" points="525.43,-244.45 516.29,-239.09 520.1,-248.98 525.43,-244.45"/>
</a>
</g>
</g>
<!-- Node26&#45;&gt;Node23 -->
<g id="edge50_Node000026_Node000023" class="edge">
<title>Node26&#45;&gt;Node23</title>
<g id="a_edge50_Node000026_Node000023"><a xlink:title=" ">
<path fill="none" stroke="#63b8ff" d="M564.93,-274.98C575.08,-267.07 590.42,-255.11 602.65,-245.58"/>
<polygon fill="#63b8ff" stroke="#63b8ff" points="605.14,-248.08 610.88,-239.17 600.84,-242.56 605.14,-248.08"/>
</a>
</g>
</g>
</g>
</svg>
