<?xml version="1.0" encoding="UTF-8" standalone="no"?>
<!DOCTYPE svg PUBLIC "-//W3C//DTD SVG 1.1//EN"
 "http://www.w3.org/Graphics/SVG/1.1/DTD/svg11.dtd">
<!-- Generated by graphviz version 2.43.0 (0)
 -->
<!-- Title: src/clangparser.cpp Pages: 1 -->
<!--zoomable 302 -->

<svg id="main" version="1.1" xmlns="http://www.w3.org/2000/svg" xmlns:xlink="http://www.w3.org/1999/xlink" xml:space="preserve" onload="init(evt)">
<style type="text/css"><![CDATA[
.node, .edge {opacity: 0.7;}
.node.selected, .edge.selected {opacity: 1;}
.edge:hover path { stroke: red; }
.edge:hover polygon { stroke: red; fill: red; }
]]></style>

<defs>
  <circle id="rim" cx="0" cy="0" r="7"/>
  <circle id="rim2" cx="0" cy="0" r="3.5"/>
  <g id="zoomPlus">
    <use xlink:href="#rim" fill="#404040"><set attributeName="fill" to="#808080" begin="zoomplus.mouseover" end="zoomplus.mouseout"/></use>
    <path d="M-4,0h8M0,-4v8" fill="none" stroke="white" stroke-width="1.5" pointer-events="none"/>
  </g>
  <g id="zoomMin">
    <use xlink:href="#rim" fill="#404040"><set attributeName="fill" to="#808080" begin="zoomminus.mouseover" end="zoomminus.mouseout"/></use>
    <path d="M-4,0h8" fill="none" stroke="white" stroke-width="1.5" pointer-events="none"/>
  </g>
  <g id="arrowUp" transform="translate(30 24)">
    <use xlink:href="#rim"/>
    <path pointer-events="none" fill="none" stroke="white" stroke-width="1.5" d="M0,-3.0v7 M-2.5,-0.5L0,-3.0L2.5,-0.5"/>
  </g>
  <g id="arrowRight" transform="rotate(90) translate(36 -43)">
    <use xlink:href="#rim"/>
    <path pointer-events="none" fill="none" stroke="white" stroke-width="1.5" d="M0,-3.0v7 M-2.5,-0.5L0,-3.0L2.5,-0.5"/>
  </g>
  <g id="arrowDown" transform="rotate(180) translate(-30 -48)">
    <use xlink:href="#rim"/>
    <path pointer-events="none" fill="none" stroke="white" stroke-width="1.5" d="M0,-3.0v7 M-2.5,-0.5L0,-3.0L2.5,-0.5"/>
  </g>
  <g id="arrowLeft" transform="rotate(270) translate(-36 17)">
    <use xlink:href="#rim"/>
    <path pointer-events="none" fill="none" stroke="white" stroke-width="1.5" d="M0,-3.0v7 M-2.5,-0.5L0,-3.0L2.5,-0.5"/>
  </g>
  <g id="resetDef">
    <use xlink:href="#rim2" fill="#404040"><set attributeName="fill" to="#808080" begin="reset.mouseover" end="reset.mouseout"/></use>
  </g>
</defs>
<script type="application/ecmascript">
var viewWidth = 990;
var viewHeight = 302;
var sectionId = 'dynsection-0';
</script>
<script type="application/ecmascript" xlink:href="../../svg.min.js"/>
<svg id="graph" class="graph">
<g id="viewport">
<title>src/clangparser.cpp</title>
<!-- Node1 -->
<g id="Node000001" class="node">
<title>Node1</title>
<g id="a_Node000001"><a xlink:title=" ">
<polygon fill="#999999" stroke="#666666" points="856.63,-294 746.63,-294 746.63,-275 856.63,-275 856.63,-294"/>
<text text-anchor="middle" x="801.63" y="-282" font-family="Helvetica,sans-Serif" font-size="10.00">src/clangparser.cpp</text>
</a>
</g>
</g>
<!-- Node2 -->
<g id="Node000002" class="node">
<title>Node2</title>
<g id="a_Node000002"><a xlink:href="../../d5/df7/clangparser_8h.html" target="_top" xlink:title=" ">
<polygon fill="white" stroke="#666666" points="372.63,-239 290.63,-239 290.63,-220 372.63,-220 372.63,-239"/>
<text text-anchor="middle" x="331.63" y="-227" font-family="Helvetica,sans-Serif" font-size="10.00">clangparser.h</text>
</a>
</g>
</g>
<!-- Node1&#45;&gt;Node2 -->
<g id="edge1_Node000001_Node000002" class="edge">
<title>Node1&#45;&gt;Node2</title>
<g id="a_edge1_Node000001_Node000002"><a xlink:title=" ">
<path fill="none" stroke="#63b8ff" d="M746.33,-277.26C654.48,-266.91 471.78,-246.31 382.76,-236.27"/>
<polygon fill="#63b8ff" stroke="#63b8ff" points="382.97,-232.77 372.64,-235.13 382.19,-239.72 382.97,-232.77"/>
</a>
</g>
</g>
<!-- Node4 -->
<g id="Node000004" class="node">
<title>Node4</title>
<g id="a_Node000004"><a xlink:title=" ">
<polygon fill="#e0e0e0" stroke="#999999" points="523.13,-129 476.13,-129 476.13,-110 523.13,-110 523.13,-129"/>
<text text-anchor="middle" x="499.63" y="-117" font-family="Helvetica,sans-Serif" font-size="10.00">vector</text>
</a>
</g>
</g>
<!-- Node1&#45;&gt;Node4 -->
<g id="edge31_Node000001_Node000004" class="edge">
<title>Node1&#45;&gt;Node4</title>
<g id="a_edge31_Node000001_Node000004"><a xlink:title=" ">
<path fill="none" stroke="#63b8ff" d="M785.81,-274.97C736.39,-248.29 584.55,-166.34 524.47,-133.91"/>
<polygon fill="#63b8ff" stroke="#63b8ff" points="526.11,-130.82 515.65,-129.15 522.78,-136.98 526.11,-130.82"/>
</a>
</g>
</g>
<!-- Node17 -->
<g id="Node000017" class="node">
<title>Node17</title>
<g id="a_Node000017"><a xlink:title=" ">
<polygon fill="#e0e0e0" stroke="#999999" points="793.63,-74 747.63,-74 747.63,-55 793.63,-55 793.63,-74"/>
<text text-anchor="middle" x="770.63" y="-62" font-family="Helvetica,sans-Serif" font-size="10.00">cstdio</text>
</a>
</g>
</g>
<!-- Node1&#45;&gt;Node17 -->
<g id="edge29_Node000001_Node000017" class="edge">
<title>Node1&#45;&gt;Node17</title>
<g id="a_edge29_Node000001_Node000017"><a xlink:title=" ">
<path fill="none" stroke="#63b8ff" d="M800.41,-274.95C795.86,-242.95 779.75,-129.68 773.31,-84.4"/>
<polygon fill="#63b8ff" stroke="#63b8ff" points="776.74,-83.63 771.87,-74.22 769.81,-84.62 776.74,-83.63"/>
</a>
</g>
</g>
<!-- Node19 -->
<g id="Node000019" class="node">
<title>Node19</title>
<g id="a_Node000019"><a xlink:title=" ">
<polygon fill="#e0e0e0" stroke="#999999" points="725.63,-19 675.63,-19 675.63,0 725.63,0 725.63,-19"/>
<text text-anchor="middle" x="700.63" y="-7" font-family="Helvetica,sans-Serif" font-size="10.00">cstdint</text>
</a>
</g>
</g>
<!-- Node1&#45;&gt;Node19 -->
<g id="edge30_Node000001_Node000019" class="edge">
<title>Node1&#45;&gt;Node19</title>
<g id="a_edge30_Node000001_Node000019"><a xlink:title=" ">
<path fill="none" stroke="#63b8ff" d="M804.32,-274.92C809.78,-256.77 821.63,-213.07 821.63,-175.5 821.63,-175.5 821.63,-175.5 821.63,-118.5 821.63,-89.04 822.16,-77.05 802.63,-55 785.29,-35.44 757.79,-24.12 735.72,-17.8"/>
<polygon fill="#63b8ff" stroke="#63b8ff" points="736.57,-14.41 726.01,-15.24 734.78,-21.18 736.57,-14.41"/>
</a>
</g>
</g>
<!-- Node23 -->
<g id="Node000023" class="node">
<title>Node23</title>
<g id="a_Node000023"><a xlink:title=" ">
<polygon fill="#e0e0e0" stroke="#999999" points="915.13,-239 850.13,-239 850.13,-220 915.13,-220 915.13,-239"/>
<text text-anchor="middle" x="882.63" y="-227" font-family="Helvetica,sans-Serif" font-size="10.00">settings.h</text>
</a>
</g>
</g>
<!-- Node1&#45;&gt;Node23 -->
<g id="edge28_Node000001_Node000023" class="edge">
<title>Node1&#45;&gt;Node23</title>
<g id="a_edge28_Node000001_Node000023"><a xlink:title=" ">
<path fill="none" stroke="#63b8ff" d="M814.64,-274.98C827.08,-266.84 846.08,-254.41 860.83,-244.76"/>
<polygon fill="#63b8ff" stroke="#63b8ff" points="862.92,-247.57 869.38,-239.17 859.09,-241.72 862.92,-247.57"/>
</a>
</g>
</g>
<!-- Node24 -->
<g id="Node000024" class="node">
<title>Node24</title>
<g id="a_Node000024"><a xlink:title=" ">
<polygon fill="#e0e0e0" stroke="#999999" points="981.63,-239 933.63,-239 933.63,-220 981.63,-220 981.63,-239"/>
<text text-anchor="middle" x="957.63" y="-227" font-family="Helvetica,sans-Serif" font-size="10.00">mutex</text>
</a>
</g>
</g>
<!-- Node1&#45;&gt;Node24 -->
<g id="edge32_Node000001_Node000024" class="edge">
<title>Node1&#45;&gt;Node24</title>
<g id="a_edge32_Node000001_Node000024"><a xlink:title=" ">
<path fill="none" stroke="#63b8ff" d="M826.69,-274.98C852.96,-266.06 894.4,-251.98 923.62,-242.05"/>
<polygon fill="#63b8ff" stroke="#63b8ff" points="925.05,-245.26 933.39,-238.73 922.8,-238.64 925.05,-245.26"/>
</a>
</g>
</g>
<!-- Node3 -->
<g id="Node000003" class="node">
<title>Node3</title>
<g id="a_Node000003"><a xlink:href="../../d5/d75/containers_8h.html" target="_top" xlink:title=" ">
<polygon fill="white" stroke="#666666" points="302.13,-184 225.13,-184 225.13,-165 302.13,-165 302.13,-184"/>
<text text-anchor="middle" x="263.63" y="-172" font-family="Helvetica,sans-Serif" font-size="10.00">containers.h</text>
</a>
</g>
</g>
<!-- Node2&#45;&gt;Node3 -->
<g id="edge2_Node000002_Node000003" class="edge">
<title>Node2&#45;&gt;Node3</title>
<g id="a_edge2_Node000002_Node000003"><a xlink:title=" ">
<path fill="none" stroke="#63b8ff" d="M320.7,-219.98C310.55,-212.07 295.2,-200.11 282.98,-190.58"/>
<polygon fill="#63b8ff" stroke="#63b8ff" points="284.79,-187.56 274.75,-184.17 280.49,-193.08 284.79,-187.56"/>
</a>
</g>
</g>
<!-- Node5 -->
<g id="Node000005" class="node">
<title>Node5</title>
<g id="a_Node000005"><a xlink:title=" ">
<polygon fill="#e0e0e0" stroke="#999999" points="175.63,-19 131.63,-19 131.63,0 175.63,0 175.63,-19"/>
<text text-anchor="middle" x="153.63" y="-7" font-family="Helvetica,sans-Serif" font-size="10.00">string</text>
</a>
</g>
</g>
<!-- Node2&#45;&gt;Node5 -->
<g id="edge26_Node000002_Node000005" class="edge">
<title>Node2&#45;&gt;Node5</title>
<g id="a_edge26_Node000002_Node000005"><a xlink:title=" ">
<path fill="none" stroke="#63b8ff" d="M290.63,-222.38C210.78,-209.48 39.45,-176.74 7.63,-129 -26.57,-77.71 69.12,-37.61 121.68,-20.1"/>
<polygon fill="#63b8ff" stroke="#63b8ff" points="122.83,-23.41 131.26,-17 120.67,-16.75 122.83,-23.41"/>
</a>
</g>
</g>
<!-- Node12 -->
<g id="Node000012" class="node">
<title>Node12</title>
<g id="a_Node000012"><a xlink:href="../../d9/d49/types_8h.html" target="_top" xlink:title="This file contains a number of basic enums and types.">
<polygon fill="white" stroke="#666666" points="533.13,-184 480.13,-184 480.13,-165 533.13,-165 533.13,-184"/>
<text text-anchor="middle" x="506.63" y="-172" font-family="Helvetica,sans-Serif" font-size="10.00">types.h</text>
</a>
</g>
</g>
<!-- Node2&#45;&gt;Node12 -->
<g id="edge11_Node000002_Node000012" class="edge">
<title>Node2&#45;&gt;Node12</title>
<g id="a_edge11_Node000002_Node000012"><a xlink:title=" ">
<path fill="none" stroke="#63b8ff" d="M359.74,-219.98C389.78,-210.89 437.48,-196.44 470.33,-186.49"/>
<polygon fill="#63b8ff" stroke="#63b8ff" points="471.46,-189.81 480.01,-183.56 469.43,-183.11 471.46,-189.81"/>
</a>
</g>
</g>
<!-- Node2&#45;&gt;Node19 -->
<g id="edge27_Node000002_Node000019" class="edge">
<title>Node2&#45;&gt;Node19</title>
<g id="a_edge27_Node000002_Node000019"><a xlink:title=" ">
<path fill="none" stroke="#63b8ff" d="M372.94,-225.15C416.72,-220.39 487.08,-209.26 542.63,-184 614.98,-151.1 640.33,-140.65 683.63,-74 692.37,-60.54 696.64,-42.71 698.71,-29.37"/>
<polygon fill="#63b8ff" stroke="#63b8ff" points="702.18,-29.78 699.98,-19.41 695.24,-28.89 702.18,-29.78"/>
</a>
</g>
</g>
<!-- Node22 -->
<g id="Node000022" class="node">
<title>Node22</title>
<g id="a_Node000022"><a xlink:title=" ">
<polygon fill="#e0e0e0" stroke="#999999" points="206.63,-184 148.63,-184 148.63,-165 206.63,-165 206.63,-184"/>
<text text-anchor="middle" x="177.63" y="-172" font-family="Helvetica,sans-Serif" font-size="10.00">memory</text>
</a>
</g>
</g>
<!-- Node2&#45;&gt;Node22 -->
<g id="edge25_Node000002_Node000022" class="edge">
<title>Node2&#45;&gt;Node22</title>
<g id="a_edge25_Node000002_Node000022"><a xlink:title=" ">
<path fill="none" stroke="#63b8ff" d="M306.88,-219.98C281.25,-211.16 240.99,-197.31 212.22,-187.41"/>
<polygon fill="#63b8ff" stroke="#63b8ff" points="213.16,-184.03 202.56,-184.08 210.88,-190.65 213.16,-184.03"/>
</a>
</g>
</g>
<!-- Node3&#45;&gt;Node4 -->
<g id="edge3_Node000003_Node000004" class="edge">
<title>Node3&#45;&gt;Node4</title>
<g id="a_edge3_Node000003_Node000004"><a xlink:title=" ">
<path fill="none" stroke="#63b8ff" d="M302.47,-165.57C341.52,-157.47 403.66,-144.27 465.9,-129.34"/>
<polygon fill="#63b8ff" stroke="#63b8ff" points="466.99,-132.68 475.89,-126.93 465.35,-125.87 466.99,-132.68"/>
</a>
</g>
</g>
<!-- Node3&#45;&gt;Node5 -->
<g id="edge4_Node000003_Node000005" class="edge">
<title>Node3&#45;&gt;Node5</title>
<g id="a_edge4_Node000003_Node000005"><a xlink:title=" ">
<path fill="none" stroke="#63b8ff" d="M230.93,-164.99C198.3,-155.98 151.01,-141.39 136.63,-129 109.87,-105.94 93.84,-87.52 107.63,-55 112.61,-43.25 122.38,-33.09 131.64,-25.45"/>
<polygon fill="#63b8ff" stroke="#63b8ff" points="134.02,-28.03 139.84,-19.18 129.77,-22.47 134.02,-28.03"/>
</a>
</g>
</g>
<!-- Node6 -->
<g id="Node000006" class="node">
<title>Node6</title>
<g id="a_Node000006"><a xlink:title=" ">
<polygon fill="#e0e0e0" stroke="#999999" points="190.13,-74 117.13,-74 117.13,-55 190.13,-55 190.13,-74"/>
<text text-anchor="middle" x="153.63" y="-62" font-family="Helvetica,sans-Serif" font-size="10.00">string_view</text>
</a>
</g>
</g>
<!-- Node3&#45;&gt;Node6 -->
<g id="edge5_Node000003_Node000006" class="edge">
<title>Node3&#45;&gt;Node6</title>
<g id="a_edge5_Node000003_Node000006"><a xlink:title=" ">
<path fill="none" stroke="#63b8ff" d="M228.42,-164.94C197.3,-156.58 155.37,-143.09 145.63,-129 136.46,-115.75 140.25,-97.13 145.25,-83.48"/>
<polygon fill="#63b8ff" stroke="#63b8ff" points="148.51,-84.76 149.12,-74.18 142.05,-82.07 148.51,-84.76"/>
</a>
</g>
</g>
<!-- Node7 -->
<g id="Node000007" class="node">
<title>Node7</title>
<g id="a_Node000007"><a xlink:title=" ">
<polygon fill="#e0e0e0" stroke="#999999" points="186.63,-129 154.63,-129 154.63,-110 186.63,-110 186.63,-129"/>
<text text-anchor="middle" x="170.63" y="-117" font-family="Helvetica,sans-Serif" font-size="10.00">set</text>
</a>
</g>
</g>
<!-- Node3&#45;&gt;Node7 -->
<g id="edge6_Node000003_Node000007" class="edge">
<title>Node3&#45;&gt;Node7</title>
<g id="a_edge6_Node000003_Node000007"><a xlink:title=" ">
<path fill="none" stroke="#63b8ff" d="M248.68,-164.98C234.13,-156.69 211.76,-143.94 194.69,-134.22"/>
<polygon fill="#63b8ff" stroke="#63b8ff" points="196.26,-131.08 185.84,-129.17 192.8,-137.16 196.26,-131.08"/>
</a>
</g>
</g>
<!-- Node8 -->
<g id="Node000008" class="node">
<title>Node8</title>
<g id="a_Node000008"><a xlink:title=" ">
<polygon fill="#e0e0e0" stroke="#999999" points="242.63,-129 204.63,-129 204.63,-110 242.63,-110 242.63,-129"/>
<text text-anchor="middle" x="223.63" y="-117" font-family="Helvetica,sans-Serif" font-size="10.00">map</text>
</a>
</g>
</g>
<!-- Node3&#45;&gt;Node8 -->
<g id="edge7_Node000003_Node000008" class="edge">
<title>Node3&#45;&gt;Node8</title>
<g id="a_edge7_Node000003_Node000008"><a xlink:title=" ">
<path fill="none" stroke="#63b8ff" d="M257.02,-164.75C251.37,-157.26 243.08,-146.28 236.17,-137.13"/>
<polygon fill="#63b8ff" stroke="#63b8ff" points="238.93,-134.96 230.11,-129.09 233.34,-139.18 238.93,-134.96"/>
</a>
</g>
</g>
<!-- Node9 -->
<g id="Node000009" class="node">
<title>Node9</title>
<g id="a_Node000009"><a xlink:title=" ">
<polygon fill="#e0e0e0" stroke="#999999" points="346.63,-129 260.63,-129 260.63,-110 346.63,-110 346.63,-129"/>
<text text-anchor="middle" x="303.63" y="-117" font-family="Helvetica,sans-Serif" font-size="10.00">unordered_set</text>
</a>
</g>
</g>
<!-- Node3&#45;&gt;Node9 -->
<g id="edge8_Node000003_Node000009" class="edge">
<title>Node3&#45;&gt;Node9</title>
<g id="a_edge8_Node000003_Node000009"><a xlink:title=" ">
<path fill="none" stroke="#63b8ff" d="M270.23,-164.75C275.88,-157.26 284.17,-146.28 291.08,-137.13"/>
<polygon fill="#63b8ff" stroke="#63b8ff" points="293.91,-139.18 297.14,-129.09 288.33,-134.96 293.91,-139.18"/>
</a>
</g>
</g>
<!-- Node10 -->
<g id="Node000010" class="node">
<title>Node10</title>
<g id="a_Node000010"><a xlink:title=" ">
<polygon fill="#e0e0e0" stroke="#999999" points="458.13,-129 365.13,-129 365.13,-110 458.13,-110 458.13,-129"/>
<text text-anchor="middle" x="411.63" y="-117" font-family="Helvetica,sans-Serif" font-size="10.00">unordered_map</text>
</a>
</g>
</g>
<!-- Node3&#45;&gt;Node10 -->
<g id="edge9_Node000003_Node000010" class="edge">
<title>Node3&#45;&gt;Node10</title>
<g id="a_edge9_Node000003_Node000010"><a xlink:title=" ">
<path fill="none" stroke="#63b8ff" d="M287.4,-164.98C311.86,-156.23 350.16,-142.51 377.77,-132.62"/>
<polygon fill="#63b8ff" stroke="#63b8ff" points="379.18,-135.84 387.41,-129.17 376.82,-129.25 379.18,-135.84"/>
</a>
</g>
</g>
<!-- Node11 -->
<g id="Node000011" class="node">
<title>Node11</title>
<g id="a_Node000011"><a xlink:title=" ">
<polygon fill="#e0e0e0" stroke="#999999" points="60.13,-129 17.13,-129 17.13,-110 60.13,-110 60.13,-129"/>
<text text-anchor="middle" x="38.63" y="-117" font-family="Helvetica,sans-Serif" font-size="10.00">stack</text>
</a>
</g>
</g>
<!-- Node3&#45;&gt;Node11 -->
<g id="edge10_Node000003_Node000011" class="edge">
<title>Node3&#45;&gt;Node11</title>
<g id="a_edge10_Node000003_Node000011"><a xlink:title=" ">
<path fill="none" stroke="#63b8ff" d="M227.39,-164.98C189.35,-156.02 127.78,-141.53 74.63,-129 73.18,-128.66 71.7,-128.31 70.21,-127.96"/>
<polygon fill="#63b8ff" stroke="#63b8ff" points="70.86,-124.52 60.33,-125.63 69.26,-131.33 70.86,-124.52"/>
</a>
</g>
</g>
<!-- Node13 -->
<g id="Node000013" class="node">
<title>Node13</title>
<g id="a_Node000013"><a xlink:href="../../d7/d5c/qcstring_8h.html" target="_top" xlink:title=" ">
<polygon fill="white" stroke="#666666" points="606.13,-129 541.13,-129 541.13,-110 606.13,-110 606.13,-129"/>
<text text-anchor="middle" x="573.63" y="-117" font-family="Helvetica,sans-Serif" font-size="10.00">qcstring.h</text>
</a>
</g>
</g>
<!-- Node12&#45;&gt;Node13 -->
<g id="edge12_Node000012_Node000013" class="edge">
<title>Node12&#45;&gt;Node13</title>
<g id="a_edge12_Node000012_Node000013"><a xlink:title=" ">
<path fill="none" stroke="#63b8ff" d="M517.39,-164.98C527.39,-157.07 542.51,-145.11 554.56,-135.58"/>
<polygon fill="#63b8ff" stroke="#63b8ff" points="556.99,-138.12 562.67,-129.17 552.65,-132.63 556.99,-138.12"/>
</a>
</g>
</g>
<!-- Node13&#45;&gt;Node5 -->
<g id="edge13_Node000013_Node000005" class="edge">
<title>Node13&#45;&gt;Node5</title>
<g id="a_edge13_Node000013_Node000005"><a xlink:title=" ">
<path fill="none" stroke="#63b8ff" d="M541,-111.48C538.17,-110.95 535.35,-110.45 532.63,-110 402.29,-88.58 360.07,-123.53 237.63,-74 210.78,-63.14 185,-41.41 169.24,-26.42"/>
<polygon fill="#63b8ff" stroke="#63b8ff" points="171.55,-23.79 161.96,-19.29 166.66,-28.79 171.55,-23.79"/>
</a>
</g>
</g>
<!-- Node13&#45;&gt;Node6 -->
<g id="edge14_Node000013_Node000006" class="edge">
<title>Node13&#45;&gt;Node6</title>
<g id="a_edge14_Node000013_Node000006"><a xlink:title=" ">
<path fill="none" stroke="#63b8ff" d="M541,-111.45C538.18,-110.92 535.35,-110.43 532.63,-110 387.77,-87.09 349.9,-94.06 204.63,-74 203.33,-73.82 202.01,-73.63 200.68,-73.44"/>
<polygon fill="#63b8ff" stroke="#63b8ff" points="200.77,-69.92 190.36,-71.87 199.72,-76.84 200.77,-69.92"/>
</a>
</g>
</g>
<!-- Node14 -->
<g id="Node000014" class="node">
<title>Node14</title>
<g id="a_Node000014"><a xlink:title=" ">
<polygon fill="#e0e0e0" stroke="#999999" points="449.63,-74 385.63,-74 385.63,-55 449.63,-55 449.63,-74"/>
<text text-anchor="middle" x="417.63" y="-62" font-family="Helvetica,sans-Serif" font-size="10.00">algorithm</text>
</a>
</g>
</g>
<!-- Node13&#45;&gt;Node14 -->
<g id="edge15_Node000013_Node000014" class="edge">
<title>Node13&#45;&gt;Node14</title>
<g id="a_edge15_Node000013_Node000014"><a xlink:title=" ">
<path fill="none" stroke="#63b8ff" d="M548.56,-109.98C522.6,-101.16 481.82,-87.31 452.67,-77.41"/>
<polygon fill="#63b8ff" stroke="#63b8ff" points="453.48,-73.99 442.89,-74.08 451.23,-80.61 453.48,-73.99"/>
</a>
</g>
</g>
<!-- Node15 -->
<g id="Node000015" class="node">
<title>Node15</title>
<g id="a_Node000015"><a xlink:title=" ">
<polygon fill="#e0e0e0" stroke="#999999" points="517.13,-74 468.13,-74 468.13,-55 517.13,-55 517.13,-74"/>
<text text-anchor="middle" x="492.63" y="-62" font-family="Helvetica,sans-Serif" font-size="10.00">cctype</text>
</a>
</g>
</g>
<!-- Node13&#45;&gt;Node15 -->
<g id="edge16_Node000013_Node000015" class="edge">
<title>Node13&#45;&gt;Node15</title>
<g id="a_edge16_Node000013_Node000015"><a xlink:title=" ">
<path fill="none" stroke="#63b8ff" d="M560.61,-109.98C548.17,-101.84 529.17,-89.41 514.42,-79.76"/>
<polygon fill="#63b8ff" stroke="#63b8ff" points="516.16,-76.72 505.88,-74.17 512.33,-82.57 516.16,-76.72"/>
</a>
</g>
</g>
<!-- Node16 -->
<g id="Node000016" class="node">
<title>Node16</title>
<g id="a_Node000016"><a xlink:title=" ">
<polygon fill="#e0e0e0" stroke="#999999" points="585.63,-74 535.63,-74 535.63,-55 585.63,-55 585.63,-74"/>
<text text-anchor="middle" x="560.63" y="-62" font-family="Helvetica,sans-Serif" font-size="10.00">cstring</text>
</a>
</g>
</g>
<!-- Node13&#45;&gt;Node16 -->
<g id="edge17_Node000013_Node000016" class="edge">
<title>Node13&#45;&gt;Node16</title>
<g id="a_edge17_Node000013_Node000016"><a xlink:title=" ">
<path fill="none" stroke="#63b8ff" d="M571.48,-109.75C569.76,-102.72 567.28,-92.62 565.13,-83.84"/>
<polygon fill="#63b8ff" stroke="#63b8ff" points="568.51,-82.97 562.73,-74.09 561.72,-84.63 568.51,-82.97"/>
</a>
</g>
</g>
<!-- Node13&#45;&gt;Node17 -->
<g id="edge18_Node000013_Node000017" class="edge">
<title>Node13&#45;&gt;Node17</title>
<g id="a_edge18_Node000013_Node000017"><a xlink:title=" ">
<path fill="none" stroke="#63b8ff" d="M605.28,-109.98C641.56,-100.22 700.77,-84.29 737.62,-74.38"/>
<polygon fill="#63b8ff" stroke="#63b8ff" points="738.63,-77.73 747.38,-71.75 736.81,-70.97 738.63,-77.73"/>
</a>
</g>
</g>
<!-- Node18 -->
<g id="Node000018" class="node">
<title>Node18</title>
<g id="a_Node000018"><a xlink:title=" ">
<polygon fill="#e0e0e0" stroke="#999999" points="653.13,-74 604.13,-74 604.13,-55 653.13,-55 653.13,-74"/>
<text text-anchor="middle" x="628.63" y="-62" font-family="Helvetica,sans-Serif" font-size="10.00">cstdlib</text>
</a>
</g>
</g>
<!-- Node13&#45;&gt;Node18 -->
<g id="edge19_Node000013_Node000018" class="edge">
<title>Node13&#45;&gt;Node18</title>
<g id="a_edge19_Node000013_Node000018"><a xlink:title=" ">
<path fill="none" stroke="#63b8ff" d="M582.71,-109.75C590.72,-102.03 602.58,-90.6 612.25,-81.28"/>
<polygon fill="#63b8ff" stroke="#63b8ff" points="614.94,-83.55 619.71,-74.09 610.08,-78.51 614.94,-83.55"/>
</a>
</g>
</g>
<!-- Node13&#45;&gt;Node19 -->
<g id="edge20_Node000013_Node000019" class="edge">
<title>Node13&#45;&gt;Node19</title>
<g id="a_edge20_Node000013_Node000019"><a xlink:title=" ">
<path fill="none" stroke="#63b8ff" d="M599.75,-109.96C618.86,-102.71 644.51,-90.8 662.63,-74 676.29,-61.33 686.67,-42.64 693.1,-28.81"/>
<polygon fill="#63b8ff" stroke="#63b8ff" points="696.43,-29.93 697.23,-19.37 690.02,-27.12 696.43,-29.93"/>
</a>
</g>
</g>
<!-- Node20 -->
<g id="Node000020" class="node">
<title>Node20</title>
<g id="a_Node000020"><a xlink:title=" ">
<polygon fill="#e0e0e0" stroke="#999999" points="304.13,-74 247.13,-74 247.13,-55 304.13,-55 304.13,-74"/>
<text text-anchor="middle" x="275.63" y="-62" font-family="Helvetica,sans-Serif" font-size="10.00">ostream</text>
</a>
</g>
</g>
<!-- Node13&#45;&gt;Node20 -->
<g id="edge21_Node000013_Node000020" class="edge">
<title>Node13&#45;&gt;Node20</title>
<g id="a_edge21_Node000013_Node000020"><a xlink:title=" ">
<path fill="none" stroke="#63b8ff" d="M540.98,-111.6C538.16,-111.04 535.34,-110.5 532.63,-110 438.35,-92.52 411.56,-93.05 314.23,-74.22"/>
<polygon fill="#63b8ff" stroke="#63b8ff" points="314.76,-70.75 304.27,-72.27 313.41,-77.62 314.76,-70.75"/>
</a>
</g>
</g>
<!-- Node21 -->
<g id="Node000021" class="node">
<title>Node21</title>
<g id="a_Node000021"><a xlink:href="../../db/d7c/utf8_8h.html" target="_top" xlink:title="Various UTF8 related helper functions.">
<polygon fill="white" stroke="#666666" points="367.13,-74 322.13,-74 322.13,-55 367.13,-55 367.13,-74"/>
<text text-anchor="middle" x="344.63" y="-62" font-family="Helvetica,sans-Serif" font-size="10.00">utf8.h</text>
</a>
</g>
</g>
<!-- Node13&#45;&gt;Node21 -->
<g id="edge22_Node000013_Node000021" class="edge">
<title>Node13&#45;&gt;Node21</title>
<g id="a_edge22_Node000013_Node000021"><a xlink:title=" ">
<path fill="none" stroke="#63b8ff" d="M541.12,-111.55C503.9,-103.5 440.88,-89.62 377.14,-74.05"/>
<polygon fill="#63b8ff" stroke="#63b8ff" points="377.87,-70.63 367.32,-71.64 376.2,-77.42 377.87,-70.63"/>
</a>
</g>
</g>
<!-- Node21&#45;&gt;Node5 -->
<g id="edge24_Node000021_Node000005" class="edge">
<title>Node21&#45;&gt;Node5</title>
<g id="a_edge24_Node000021_Node000005"><a xlink:title=" ">
<path fill="none" stroke="#63b8ff" d="M321.97,-57.21C288.04,-47.8 223.92,-30.01 185.35,-19.3"/>
<polygon fill="#63b8ff" stroke="#63b8ff" points="186.24,-15.92 175.67,-16.62 184.37,-22.66 186.24,-15.92"/>
</a>
</g>
</g>
<!-- Node21&#45;&gt;Node19 -->
<g id="edge23_Node000021_Node000019" class="edge">
<title>Node21&#45;&gt;Node19</title>
<g id="a_edge23_Node000021_Node000019"><a xlink:title=" ">
<path fill="none" stroke="#63b8ff" d="M367.27,-57.12C370.4,-56.34 373.58,-55.61 376.63,-55 480.61,-34.13 605.34,-20.03 665.18,-13.92"/>
<polygon fill="#63b8ff" stroke="#63b8ff" points="665.64,-17.39 675.24,-12.91 664.94,-10.43 665.64,-17.39"/>
</a>
</g>
</g>
</g>
</svg>

<g id="navigator" transform="translate(0 0)" fill="#404254">
  <rect fill="#f2f5e9" fill-opacity="0.5" stroke="#606060" stroke-width=".5" x="0" y="0" width="60" height="60"/>
  <use id="zoomplus" xlink:href="#zoomPlus" x="17" y="9" onmousedown="handleZoom(evt,'in')"/>
  <use id="zoomminus" xlink:href="#zoomMin" x="42" y="9" onmousedown="handleZoom(evt,'out')"/>
  <use id="reset" xlink:href="#resetDef" x="30" y="36" onmousedown="handleReset()"/>
   <use id="arrowup" xlink:href="#arrowUp" x="0" y="0" onmousedown="handlePan(0,-1)"/>
  <use id="arrowright" xlink:href="#arrowRight" x="0" y="0" onmousedown="handlePan(1,0)"/>
  <use id="arrowdown" xlink:href="#arrowDown" x="0" y="0" onmousedown="handlePan(0,1)"/>
  <use id="arrowleft" xlink:href="#arrowLeft" x="0" y="0" onmousedown="handlePan(-1,0)"/>
</g>
<svg viewBox="0 0 15 15" width="100%" height="30px" preserveAspectRatio="xMaxYMin meet">
 <g id="arrow_out" transform="scale(0.3 0.3)">
  <a xlink:href="clangparser_8cpp__incl_org.svg" target="_base">
   <rect id="button" ry="5" rx="5" y="6" x="6" height="38" width="38"
        fill="#f2f5e9" fill-opacity="0.5" stroke="#606060" stroke-width="1.0"/>
   <path id="arrow"
     d="M 11.500037,31.436501 C 11.940474,20.09759 22.043105,11.32322 32.158766,21.979434 L 37.068811,17.246167 C 37.068811,17.246167 37.088388,32 37.088388,32 L 22.160133,31.978069 C 22.160133,31.978069 26.997745,27.140456 26.997745,27.140456 C 18.528582,18.264221 13.291696,25.230495 11.500037,31.436501 z"
     style="fill:#404040;"/>
  </a>
 </g>
</svg>

<style type='text/css'>
<![CDATA[
[data-mouse-over-selected='false'] { opacity: 0.7; }
[data-mouse-over-selected='true']  { opacity: 1.0; }
]]>
</style>
<script type="application/ecmascript"><![CDATA[
document.addEventListener('DOMContentLoaded', (event) => {
  highlightEdges();
  highlightAdjacentNodes();
});
]]></script>
</svg>
