<?xml version="1.0" encoding="UTF-8" standalone="no"?>
<!DOCTYPE svg PUBLIC "-//W3C//DTD SVG 1.1//EN"
 "http://www.w3.org/Graphics/SVG/1.1/DTD/svg11.dtd">
<!-- Generated by graphviz version 2.43.0 (0)
 -->
<!-- Title: src/rtfdocvisitor.h Pages: 1 -->
<svg width="1318pt" height="357pt"
 viewBox="0.00 0.00 1318.25 357.00" xmlns="http://www.w3.org/2000/svg" xmlns:xlink="http://www.w3.org/1999/xlink">
<g id="graph0" class="graph" transform="scale(1 1) rotate(0) translate(4 353)">
<title>src/rtfdocvisitor.h</title>
<!-- Node1 -->
<g id="Node000001" class="node">
<title>Node1</title>
<g id="a_Node000001"><a xlink:title=" ">
<polygon fill="#999999" stroke="#666666" points="138.5,-349 37.5,-349 37.5,-330 138.5,-330 138.5,-349"/>
<text text-anchor="middle" x="88" y="-337" font-family="Helvetica,sans-Serif" font-size="10.00">src/rtfdocvisitor.h</text>
</a>
</g>
</g>
<!-- Node2 -->
<g id="Node000002" class="node">
<title>Node2</title>
<g id="a_Node000002"><a xlink:title=" ">
<polygon fill="#e0e0e0" stroke="#999999" points="60,-294 0,-294 0,-275 60,-275 60,-294"/>
<text text-anchor="middle" x="30" y="-282" font-family="Helvetica,sans-Serif" font-size="10.00">iostream</text>
</a>
</g>
</g>
<!-- Node1&#45;&gt;Node2 -->
<g id="edge1_Node000001_Node000002" class="edge">
<title>Node1&#45;&gt;Node2</title>
<g id="a_edge1_Node000001_Node000002"><a xlink:title=" ">
<path fill="none" stroke="#63b8ff" d="M78.68,-329.98C70.19,-322.23 57.44,-310.58 47.12,-301.14"/>
<polygon fill="#63b8ff" stroke="#63b8ff" points="49.23,-298.33 39.49,-294.17 44.51,-303.5 49.23,-298.33"/>
</a>
</g>
</g>
<!-- Node3 -->
<g id="Node000003" class="node">
<title>Node3</title>
<g id="a_Node000003"><a xlink:href="../../d2/d3c/docvisitor_8h.html" target="_top" xlink:title=" ">
<polygon fill="white" stroke="#666666" points="379.5,-184 306.5,-184 306.5,-165 379.5,-165 379.5,-184"/>
<text text-anchor="middle" x="343" y="-172" font-family="Helvetica,sans-Serif" font-size="10.00">docvisitor.h</text>
</a>
</g>
</g>
<!-- Node1&#45;&gt;Node3 -->
<g id="edge2_Node000001_Node000003" class="edge">
<title>Node1&#45;&gt;Node3</title>
<g id="a_edge2_Node000001_Node000003"><a xlink:title=" ">
<path fill="none" stroke="#63b8ff" d="M101.35,-329.97C142.74,-303.51 269.19,-222.68 320.75,-189.72"/>
<polygon fill="#63b8ff" stroke="#63b8ff" points="322.93,-192.48 329.47,-184.15 319.16,-186.58 322.93,-192.48"/>
</a>
</g>
</g>
<!-- Node17 -->
<g id="Node000017" class="node">
<title>Node17</title>
<g id="a_Node000017"><a xlink:href="../../de/d2b/docnode_8h.html" target="_top" xlink:title=" ">
<polygon fill="white" stroke="#666666" points="569.5,-294 502.5,-294 502.5,-275 569.5,-275 569.5,-294"/>
<text text-anchor="middle" x="536" y="-282" font-family="Helvetica,sans-Serif" font-size="10.00">docnode.h</text>
</a>
</g>
</g>
<!-- Node1&#45;&gt;Node17 -->
<g id="edge18_Node000001_Node000017" class="edge">
<title>Node1&#45;&gt;Node17</title>
<g id="a_edge18_Node000001_Node000017"><a xlink:title=" ">
<path fill="none" stroke="#63b8ff" d="M138.52,-332.52C227.07,-322.05 408.8,-300.55 492.3,-290.67"/>
<polygon fill="#63b8ff" stroke="#63b8ff" points="492.94,-294.12 502.46,-289.47 492.11,-287.17 492.94,-294.12"/>
</a>
</g>
</g>
<!-- Node4 -->
<g id="Node000004" class="node">
<title>Node4</title>
<g id="a_Node000004"><a xlink:title=" ">
<polygon fill="#e0e0e0" stroke="#999999" points="340,-129 282,-129 282,-110 340,-110 340,-129"/>
<text text-anchor="middle" x="311" y="-117" font-family="Helvetica,sans-Serif" font-size="10.00">memory</text>
</a>
</g>
</g>
<!-- Node3&#45;&gt;Node4 -->
<g id="edge3_Node000003_Node000004" class="edge">
<title>Node3&#45;&gt;Node4</title>
<g id="a_edge3_Node000003_Node000004"><a xlink:title=" ">
<path fill="none" stroke="#63b8ff" d="M337.72,-164.75C333.29,-157.42 326.84,-146.73 321.38,-137.7"/>
<polygon fill="#63b8ff" stroke="#63b8ff" points="324.35,-135.84 316.19,-129.09 318.36,-139.46 324.35,-135.84"/>
</a>
</g>
</g>
<!-- Node5 -->
<g id="Node000005" class="node">
<title>Node5</title>
<g id="a_Node000005"><a xlink:href="../../d7/d5c/qcstring_8h.html" target="_top" xlink:title=" ">
<polygon fill="white" stroke="#666666" points="856.5,-129 791.5,-129 791.5,-110 856.5,-110 856.5,-129"/>
<text text-anchor="middle" x="824" y="-117" font-family="Helvetica,sans-Serif" font-size="10.00">qcstring.h</text>
</a>
</g>
</g>
<!-- Node3&#45;&gt;Node5 -->
<g id="edge4_Node000003_Node000005" class="edge">
<title>Node3&#45;&gt;Node5</title>
<g id="a_edge4_Node000003_Node000005"><a xlink:title=" ">
<path fill="none" stroke="#63b8ff" d="M379.61,-166.46C382.78,-165.93 385.95,-165.44 389,-165 532,-144.51 702.77,-129.89 781.01,-123.74"/>
<polygon fill="#63b8ff" stroke="#63b8ff" points="781.72,-127.19 791.42,-122.93 781.18,-120.22 781.72,-127.19"/>
</a>
</g>
</g>
<!-- Node16 -->
<g id="Node000016" class="node">
<title>Node16</title>
<g id="a_Node000016"><a xlink:href="../../d7/dfc/construct_8h.html" target="_top" xlink:title=" ">
<polygon fill="white" stroke="#666666" points="579.5,-129 508.5,-129 508.5,-110 579.5,-110 579.5,-129"/>
<text text-anchor="middle" x="544" y="-117" font-family="Helvetica,sans-Serif" font-size="10.00">construct.h</text>
</a>
</g>
</g>
<!-- Node3&#45;&gt;Node16 -->
<g id="edge17_Node000003_Node000016" class="edge">
<title>Node3&#45;&gt;Node16</title>
<g id="a_edge17_Node000003_Node000016"><a xlink:title=" ">
<path fill="none" stroke="#63b8ff" d="M375.29,-164.98C409.62,-155.93 464.06,-141.58 501.77,-131.64"/>
<polygon fill="#63b8ff" stroke="#63b8ff" points="502.68,-135.02 511.45,-129.08 500.89,-128.25 502.68,-135.02"/>
</a>
</g>
</g>
<!-- Node6 -->
<g id="Node000006" class="node">
<title>Node6</title>
<g id="a_Node000006"><a xlink:title=" ">
<polygon fill="#e0e0e0" stroke="#999999" points="1160,-19 1116,-19 1116,0 1160,0 1160,-19"/>
<text text-anchor="middle" x="1138" y="-7" font-family="Helvetica,sans-Serif" font-size="10.00">string</text>
</a>
</g>
</g>
<!-- Node5&#45;&gt;Node6 -->
<g id="edge5_Node000005_Node000006" class="edge">
<title>Node5&#45;&gt;Node6</title>
<g id="a_edge5_Node000005_Node000006"><a xlink:title=" ">
<path fill="none" stroke="#63b8ff" d="M845.91,-109.9C867.68,-101.25 901.91,-87.3 931,-74 948.17,-66.15 951.33,-61.66 969,-55 1015.44,-37.49 1071.53,-24.19 1105.98,-16.87"/>
<polygon fill="#63b8ff" stroke="#63b8ff" points="1106.87,-20.26 1115.94,-14.79 1105.44,-13.4 1106.87,-20.26"/>
</a>
</g>
</g>
<!-- Node7 -->
<g id="Node000007" class="node">
<title>Node7</title>
<g id="a_Node000007"><a xlink:title=" ">
<polygon fill="#e0e0e0" stroke="#999999" points="647.5,-74 574.5,-74 574.5,-55 647.5,-55 647.5,-74"/>
<text text-anchor="middle" x="611" y="-62" font-family="Helvetica,sans-Serif" font-size="10.00">string_view</text>
</a>
</g>
</g>
<!-- Node5&#45;&gt;Node7 -->
<g id="edge6_Node000005_Node000007" class="edge">
<title>Node5&#45;&gt;Node7</title>
<g id="a_edge6_Node000005_Node000007"><a xlink:title=" ">
<path fill="none" stroke="#63b8ff" d="M791.19,-110.33C754.72,-101.26 695.64,-86.56 655.14,-76.48"/>
<polygon fill="#63b8ff" stroke="#63b8ff" points="655.81,-73.04 645.26,-74.03 654.12,-79.84 655.81,-73.04"/>
</a>
</g>
</g>
<!-- Node8 -->
<g id="Node000008" class="node">
<title>Node8</title>
<g id="a_Node000008"><a xlink:title=" ">
<polygon fill="#e0e0e0" stroke="#999999" points="1042,-74 978,-74 978,-55 1042,-55 1042,-74"/>
<text text-anchor="middle" x="1010" y="-62" font-family="Helvetica,sans-Serif" font-size="10.00">algorithm</text>
</a>
</g>
</g>
<!-- Node5&#45;&gt;Node8 -->
<g id="edge7_Node000005_Node000008" class="edge">
<title>Node5&#45;&gt;Node8</title>
<g id="a_edge7_Node000005_Node000008"><a xlink:title=" ">
<path fill="none" stroke="#63b8ff" d="M853.88,-109.98C885.38,-101.01 935.17,-86.82 970.03,-76.89"/>
<polygon fill="#63b8ff" stroke="#63b8ff" points="971.22,-80.19 979.88,-74.08 969.31,-73.46 971.22,-80.19"/>
</a>
</g>
</g>
<!-- Node9 -->
<g id="Node000009" class="node">
<title>Node9</title>
<g id="a_Node000009"><a xlink:title=" ">
<polygon fill="#e0e0e0" stroke="#999999" points="1109.5,-74 1060.5,-74 1060.5,-55 1109.5,-55 1109.5,-74"/>
<text text-anchor="middle" x="1085" y="-62" font-family="Helvetica,sans-Serif" font-size="10.00">cctype</text>
</a>
</g>
</g>
<!-- Node5&#45;&gt;Node9 -->
<g id="edge8_Node000005_Node000009" class="edge">
<title>Node5&#45;&gt;Node9</title>
<g id="a_edge8_Node000005_Node000009"><a xlink:title=" ">
<path fill="none" stroke="#63b8ff" d="M856.81,-112.61C899.15,-104.9 975.3,-90.63 1050.09,-74.11"/>
<polygon fill="#63b8ff" stroke="#63b8ff" points="1051.15,-77.46 1060.15,-71.87 1049.63,-70.62 1051.15,-77.46"/>
</a>
</g>
</g>
<!-- Node10 -->
<g id="Node000010" class="node">
<title>Node10</title>
<g id="a_Node000010"><a xlink:title=" ">
<polygon fill="#e0e0e0" stroke="#999999" points="716,-74 666,-74 666,-55 716,-55 716,-74"/>
<text text-anchor="middle" x="691" y="-62" font-family="Helvetica,sans-Serif" font-size="10.00">cstring</text>
</a>
</g>
</g>
<!-- Node5&#45;&gt;Node10 -->
<g id="edge9_Node000005_Node000010" class="edge">
<title>Node5&#45;&gt;Node10</title>
<g id="a_edge9_Node000005_Node000010"><a xlink:title=" ">
<path fill="none" stroke="#63b8ff" d="M802.63,-109.98C780.85,-101.3 746.84,-87.75 722.08,-77.88"/>
<polygon fill="#63b8ff" stroke="#63b8ff" points="723.34,-74.62 712.76,-74.17 720.75,-81.12 723.34,-74.62"/>
</a>
</g>
</g>
<!-- Node11 -->
<g id="Node000011" class="node">
<title>Node11</title>
<g id="a_Node000011"><a xlink:title=" ">
<polygon fill="#e0e0e0" stroke="#999999" points="359,-74 313,-74 313,-55 359,-55 359,-74"/>
<text text-anchor="middle" x="336" y="-62" font-family="Helvetica,sans-Serif" font-size="10.00">cstdio</text>
</a>
</g>
</g>
<!-- Node5&#45;&gt;Node11 -->
<g id="edge10_Node000005_Node000011" class="edge">
<title>Node5&#45;&gt;Node11</title>
<g id="a_edge10_Node000005_Node000011"><a xlink:title=" ">
<path fill="none" stroke="#63b8ff" d="M791.22,-114.94C702.51,-105.31 458.4,-78.79 369.2,-69.11"/>
<polygon fill="#63b8ff" stroke="#63b8ff" points="369.43,-65.61 359.11,-68.01 368.67,-72.57 369.43,-65.61"/>
</a>
</g>
</g>
<!-- Node12 -->
<g id="Node000012" class="node">
<title>Node12</title>
<g id="a_Node000012"><a xlink:title=" ">
<polygon fill="#e0e0e0" stroke="#999999" points="783.5,-74 734.5,-74 734.5,-55 783.5,-55 783.5,-74"/>
<text text-anchor="middle" x="759" y="-62" font-family="Helvetica,sans-Serif" font-size="10.00">cstdlib</text>
</a>
</g>
</g>
<!-- Node5&#45;&gt;Node12 -->
<g id="edge11_Node000005_Node000012" class="edge">
<title>Node5&#45;&gt;Node12</title>
<g id="a_edge11_Node000005_Node000012"><a xlink:title=" ">
<path fill="none" stroke="#63b8ff" d="M813.56,-109.98C803.85,-102.07 789.18,-90.11 777.5,-80.58"/>
<polygon fill="#63b8ff" stroke="#63b8ff" points="779.6,-77.78 769.63,-74.17 775.17,-83.2 779.6,-77.78"/>
</a>
</g>
</g>
<!-- Node13 -->
<g id="Node000013" class="node">
<title>Node13</title>
<g id="a_Node000013"><a xlink:title=" ">
<polygon fill="#e0e0e0" stroke="#999999" points="571,-19 521,-19 521,0 571,0 571,-19"/>
<text text-anchor="middle" x="546" y="-7" font-family="Helvetica,sans-Serif" font-size="10.00">cstdint</text>
</a>
</g>
</g>
<!-- Node5&#45;&gt;Node13 -->
<g id="edge12_Node000005_Node000013" class="edge">
<title>Node5&#45;&gt;Node13</title>
<g id="a_edge12_Node000005_Node000013"><a xlink:title=" ">
<path fill="none" stroke="#63b8ff" d="M791.3,-117.01C729.57,-113.55 599.11,-102.94 566,-74 553.36,-62.96 548.63,-44.02 546.9,-29.69"/>
<polygon fill="#63b8ff" stroke="#63b8ff" points="550.36,-29.1 546.06,-19.42 543.38,-29.67 550.36,-29.1"/>
</a>
</g>
</g>
<!-- Node14 -->
<g id="Node000014" class="node">
<title>Node14</title>
<g id="a_Node000014"><a xlink:title=" ">
<polygon fill="#e0e0e0" stroke="#999999" points="921.5,-74 864.5,-74 864.5,-55 921.5,-55 921.5,-74"/>
<text text-anchor="middle" x="893" y="-62" font-family="Helvetica,sans-Serif" font-size="10.00">ostream</text>
</a>
</g>
</g>
<!-- Node5&#45;&gt;Node14 -->
<g id="edge13_Node000005_Node000014" class="edge">
<title>Node5&#45;&gt;Node14</title>
<g id="a_edge13_Node000005_Node000014"><a xlink:title=" ">
<path fill="none" stroke="#63b8ff" d="M835.09,-109.98C845.49,-102 861.26,-89.88 873.72,-80.31"/>
<polygon fill="#63b8ff" stroke="#63b8ff" points="875.91,-83.04 881.71,-74.17 871.65,-77.49 875.91,-83.04"/>
</a>
</g>
</g>
<!-- Node15 -->
<g id="Node000015" class="node">
<title>Node15</title>
<g id="a_Node000015"><a xlink:href="../../db/d7c/utf8_8h.html" target="_top" xlink:title="Various UTF8 related helper functions.">
<polygon fill="white" stroke="#666666" points="846.5,-74 801.5,-74 801.5,-55 846.5,-55 846.5,-74"/>
<text text-anchor="middle" x="824" y="-62" font-family="Helvetica,sans-Serif" font-size="10.00">utf8.h</text>
</a>
</g>
</g>
<!-- Node5&#45;&gt;Node15 -->
<g id="edge14_Node000005_Node000015" class="edge">
<title>Node5&#45;&gt;Node15</title>
<g id="a_edge14_Node000005_Node000015"><a xlink:title=" ">
<path fill="none" stroke="#63b8ff" d="M824,-109.75C824,-102.8 824,-92.85 824,-84.13"/>
<polygon fill="#63b8ff" stroke="#63b8ff" points="827.5,-84.09 824,-74.09 820.5,-84.09 827.5,-84.09"/>
</a>
</g>
</g>
<!-- Node15&#45;&gt;Node6 -->
<g id="edge16_Node000015_Node000006" class="edge">
<title>Node15&#45;&gt;Node6</title>
<g id="a_edge16_Node000015_Node000006"><a xlink:title=" ">
<path fill="none" stroke="#63b8ff" d="M846.66,-57.17C849.78,-56.39 852.96,-55.64 856,-55 945.83,-36.03 1053.31,-21.22 1105.86,-14.47"/>
<polygon fill="#63b8ff" stroke="#63b8ff" points="1106.44,-17.93 1115.92,-13.2 1105.56,-10.98 1106.44,-17.93"/>
</a>
</g>
</g>
<!-- Node15&#45;&gt;Node13 -->
<g id="edge15_Node000015_Node000013" class="edge">
<title>Node15&#45;&gt;Node13</title>
<g id="a_edge15_Node000015_Node000013"><a xlink:title=" ">
<path fill="none" stroke="#63b8ff" d="M801.37,-57.04C798.56,-56.32 795.72,-55.62 793,-55 717.98,-37.99 628.96,-23.28 580.93,-15.78"/>
<polygon fill="#63b8ff" stroke="#63b8ff" points="581.46,-12.32 571.04,-14.25 580.39,-19.24 581.46,-12.32"/>
</a>
</g>
</g>
<!-- Node17&#45;&gt;Node3 -->
<g id="edge26_Node000017_Node000003" class="edge">
<title>Node17&#45;&gt;Node3</title>
<g id="a_edge26_Node000017_Node000003"><a xlink:title=" ">
<path fill="none" stroke="#63b8ff" d="M505.42,-274.95C481.05,-267.42 446.57,-255.14 419,-239 396.22,-225.66 373.42,-205.47 358.82,-191.46"/>
<polygon fill="#63b8ff" stroke="#63b8ff" points="361.2,-188.89 351.61,-184.39 356.3,-193.89 361.2,-188.89"/>
</a>
</g>
</g>
<!-- Node17&#45;&gt;Node4 -->
<g id="edge22_Node000017_Node000004" class="edge">
<title>Node17&#45;&gt;Node4</title>
<g id="a_edge22_Node000017_Node000004"><a xlink:title=" ">
<path fill="none" stroke="#63b8ff" d="M502.45,-283.44C440.68,-281.27 310.23,-266.6 255,-184 242.6,-165.46 264.58,-146.58 284.54,-134.29"/>
<polygon fill="#63b8ff" stroke="#63b8ff" points="286.54,-137.17 293.43,-129.13 283.03,-131.12 286.54,-137.17"/>
</a>
</g>
</g>
<!-- Node17&#45;&gt;Node5 -->
<g id="edge25_Node000017_Node000005" class="edge">
<title>Node17&#45;&gt;Node5</title>
<g id="a_edge25_Node000017_Node000005"><a xlink:title=" ">
<path fill="none" stroke="#63b8ff" d="M569.68,-283.13C636.56,-281.64 782.48,-274.32 815,-239 839.96,-211.9 834.48,-164.95 828.88,-139.02"/>
<polygon fill="#63b8ff" stroke="#63b8ff" points="832.22,-137.94 826.48,-129.03 825.41,-139.57 832.22,-137.94"/>
</a>
</g>
</g>
<!-- Node17&#45;&gt;Node11 -->
<g id="edge19_Node000017_Node000011" class="edge">
<title>Node17&#45;&gt;Node11</title>
<g id="a_edge19_Node000017_Node000011"><a xlink:title=" ">
<path fill="none" stroke="#63b8ff" d="M502.08,-280.72C442.14,-275.3 320.47,-261.78 285,-239 253.89,-219.02 238.9,-201.07 247,-165 252.92,-138.62 255.61,-130.7 273,-110 283.47,-97.54 298.19,-86.88 310.77,-79.13"/>
<polygon fill="#63b8ff" stroke="#63b8ff" points="312.62,-82.1 319.46,-74 309.07,-76.07 312.62,-82.1"/>
</a>
</g>
</g>
<!-- Node17&#45;&gt;Node13 -->
<g id="edge20_Node000017_Node000013" class="edge">
<title>Node17&#45;&gt;Node13</title>
<g id="a_edge20_Node000017_Node000013"><a xlink:title=" ">
<path fill="none" stroke="#63b8ff" d="M502.45,-281.86C404.53,-276.17 126,-253.16 126,-175.5 126,-175.5 126,-175.5 126,-118.5 126,-39.24 410.1,-17.3 510.98,-12.01"/>
<polygon fill="#63b8ff" stroke="#63b8ff" points="511.17,-15.5 520.98,-11.51 510.82,-8.51 511.17,-15.5"/>
</a>
</g>
</g>
<!-- Node17&#45;&gt;Node16 -->
<g id="edge61_Node000017_Node000016" class="edge">
<title>Node17&#45;&gt;Node16</title>
<g id="a_edge61_Node000017_Node000016"><a xlink:title=" ">
<path fill="none" stroke="#63b8ff" d="M509.43,-274.94C492.87,-268.06 472.88,-256.6 463,-239 458.87,-231.64 460.17,-227.96 463,-220 466.45,-210.29 507.25,-162.61 529.59,-136.94"/>
<polygon fill="#63b8ff" stroke="#63b8ff" points="532.44,-139 536.38,-129.17 527.16,-134.4 532.44,-139"/>
</a>
</g>
</g>
<!-- Node18 -->
<g id="Node000018" class="node">
<title>Node18</title>
<g id="a_Node000018"><a xlink:title=" ">
<polygon fill="#e0e0e0" stroke="#999999" points="957.5,-129 910.5,-129 910.5,-110 957.5,-110 957.5,-129"/>
<text text-anchor="middle" x="934" y="-117" font-family="Helvetica,sans-Serif" font-size="10.00">vector</text>
</a>
</g>
</g>
<!-- Node17&#45;&gt;Node18 -->
<g id="edge21_Node000017_Node000018" class="edge">
<title>Node17&#45;&gt;Node18</title>
<g id="a_edge21_Node000017_Node000018"><a xlink:title=" ">
<path fill="none" stroke="#63b8ff" d="M569.58,-281.26C643.73,-275.96 819.22,-261.41 874,-239 911.6,-223.62 928.87,-220.35 947,-184 954.13,-169.7 949.35,-151.72 943.68,-138.55"/>
<polygon fill="#63b8ff" stroke="#63b8ff" points="946.65,-136.65 939.15,-129.17 940.35,-139.7 946.65,-136.65"/>
</a>
</g>
</g>
<!-- Node19 -->
<g id="Node000019" class="node">
<title>Node19</title>
<g id="a_Node000019"><a xlink:title=" ">
<polygon fill="#e0e0e0" stroke="#999999" points="522.5,-239 471.5,-239 471.5,-220 522.5,-220 522.5,-239"/>
<text text-anchor="middle" x="497" y="-227" font-family="Helvetica,sans-Serif" font-size="10.00">variant</text>
</a>
</g>
</g>
<!-- Node17&#45;&gt;Node19 -->
<g id="edge23_Node000017_Node000019" class="edge">
<title>Node17&#45;&gt;Node19</title>
<g id="a_edge23_Node000017_Node000019"><a xlink:title=" ">
<path fill="none" stroke="#63b8ff" d="M529.56,-274.75C524.11,-267.34 516.14,-256.5 509.44,-247.41"/>
<polygon fill="#63b8ff" stroke="#63b8ff" points="512.07,-245.07 503.32,-239.09 506.43,-249.22 512.07,-245.07"/>
</a>
</g>
</g>
<!-- Node20 -->
<g id="Node000020" class="node">
<title>Node20</title>
<g id="a_Node000020"><a xlink:title=" ">
<polygon fill="#e0e0e0" stroke="#999999" points="609.5,-239 540.5,-239 540.5,-220 609.5,-220 609.5,-239"/>
<text text-anchor="middle" x="575" y="-227" font-family="Helvetica,sans-Serif" font-size="10.00">type_traits</text>
</a>
</g>
</g>
<!-- Node17&#45;&gt;Node20 -->
<g id="edge24_Node000017_Node000020" class="edge">
<title>Node17&#45;&gt;Node20</title>
<g id="a_edge24_Node000017_Node000020"><a xlink:title=" ">
<path fill="none" stroke="#63b8ff" d="M542.44,-274.75C547.89,-267.34 555.86,-256.5 562.56,-247.41"/>
<polygon fill="#63b8ff" stroke="#63b8ff" points="565.57,-249.22 568.68,-239.09 559.93,-245.07 565.57,-249.22"/>
</a>
</g>
</g>
<!-- Node21 -->
<g id="Node000021" class="node">
<title>Node21</title>
<g id="a_Node000021"><a xlink:href="../../de/d9c/docparser_8h.html" target="_top" xlink:title=" ">
<polygon fill="white" stroke="#666666" points="700.5,-239 627.5,-239 627.5,-220 700.5,-220 700.5,-239"/>
<text text-anchor="middle" x="664" y="-227" font-family="Helvetica,sans-Serif" font-size="10.00">docparser.h</text>
</a>
</g>
</g>
<!-- Node17&#45;&gt;Node21 -->
<g id="edge27_Node000017_Node000021" class="edge">
<title>Node17&#45;&gt;Node21</title>
<g id="a_edge27_Node000017_Node000021"><a xlink:title=" ">
<path fill="none" stroke="#63b8ff" d="M556.57,-274.98C577.43,-266.34 609.97,-252.87 633.77,-243.02"/>
<polygon fill="#63b8ff" stroke="#63b8ff" points="635.16,-246.23 643.06,-239.17 632.48,-239.76 635.16,-246.23"/>
</a>
</g>
</g>
<!-- Node23 -->
<g id="Node000023" class="node">
<title>Node23</title>
<g id="a_Node000023"><a xlink:href="../../d7/d50/growvector_8h.html" target="_top" xlink:title=" ">
<polygon fill="white" stroke="#666666" points="478,-184 398,-184 398,-165 478,-165 478,-184"/>
<text text-anchor="middle" x="438" y="-172" font-family="Helvetica,sans-Serif" font-size="10.00">growvector.h</text>
</a>
</g>
</g>
<!-- Node17&#45;&gt;Node23 -->
<g id="edge47_Node000017_Node000023" class="edge">
<title>Node17&#45;&gt;Node23</title>
<g id="a_edge47_Node000017_Node000023"><a xlink:title=" ">
<path fill="none" stroke="#63b8ff" d="M502.48,-279.4C477.59,-274.4 445.25,-263.35 429,-239 420.04,-225.57 424.12,-206.97 429.34,-193.38"/>
<polygon fill="#63b8ff" stroke="#63b8ff" points="432.59,-194.69 433.36,-184.12 426.17,-191.9 432.59,-194.69"/>
</a>
</g>
</g>
<!-- Node26 -->
<g id="Node000026" class="node">
<title>Node26</title>
<g id="a_Node000026"><a xlink:href="../../d0/d73/htmlattrib_8h.html" target="_top" xlink:title=" ">
<polygon fill="white" stroke="#666666" points="938,-184 864,-184 864,-165 938,-165 938,-184"/>
<text text-anchor="middle" x="901" y="-172" font-family="Helvetica,sans-Serif" font-size="10.00">htmlattrib.h</text>
</a>
</g>
</g>
<!-- Node17&#45;&gt;Node26 -->
<g id="edge39_Node000017_Node000026" class="edge">
<title>Node17&#45;&gt;Node26</title>
<g id="a_edge39_Node000017_Node000026"><a xlink:title=" ">
<path fill="none" stroke="#63b8ff" d="M569.76,-281.83C640.7,-277.84 802.63,-265.96 850,-239 868.75,-228.33 883.27,-207.82 891.93,-192.99"/>
<polygon fill="#63b8ff" stroke="#63b8ff" points="895,-194.67 896.77,-184.23 888.88,-191.29 895,-194.67"/>
</a>
</g>
</g>
<!-- Node27 -->
<g id="Node000027" class="node">
<title>Node27</title>
<g id="a_Node000027"><a xlink:href="../../db/dc6/htmlentity_8h.html" target="_top" xlink:title=" ">
<polygon fill="white" stroke="#666666" points="1279.5,-184 1204.5,-184 1204.5,-165 1279.5,-165 1279.5,-184"/>
<text text-anchor="middle" x="1242" y="-172" font-family="Helvetica,sans-Serif" font-size="10.00">htmlentity.h</text>
</a>
</g>
</g>
<!-- Node17&#45;&gt;Node27 -->
<g id="edge42_Node000017_Node000027" class="edge">
<title>Node17&#45;&gt;Node27</title>
<g id="a_edge42_Node000017_Node000027"><a xlink:title=" ">
<path fill="none" stroke="#63b8ff" d="M569.62,-282.61C677.07,-279.52 1011.16,-267.76 1115,-239 1154.39,-228.09 1196.04,-204.67 1220.49,-189.53"/>
<polygon fill="#63b8ff" stroke="#63b8ff" points="1222.39,-192.47 1228.98,-184.17 1218.65,-186.55 1222.39,-192.47"/>
</a>
</g>
</g>
<!-- Node29 -->
<g id="Node000029" class="node">
<title>Node29</title>
<g id="a_Node000029"><a xlink:href="../../d1/d2a/section_8h.html" target="_top" xlink:title=" ">
<polygon fill="white" stroke="#666666" points="1105.5,-239 1044.5,-239 1044.5,-220 1105.5,-220 1105.5,-239"/>
<text text-anchor="middle" x="1075" y="-227" font-family="Helvetica,sans-Serif" font-size="10.00">section.h</text>
</a>
</g>
</g>
<!-- Node17&#45;&gt;Node29 -->
<g id="edge48_Node000017_Node000029" class="edge">
<title>Node17&#45;&gt;Node29</title>
<g id="a_edge48_Node000017_Node000029"><a xlink:title=" ">
<path fill="none" stroke="#63b8ff" d="M569.72,-280.18C664.3,-270.88 931.91,-244.57 1034.38,-234.49"/>
<polygon fill="#63b8ff" stroke="#63b8ff" points="1034.73,-237.98 1044.34,-233.51 1034.05,-231.01 1034.73,-237.98"/>
</a>
</g>
</g>
<!-- Node31 -->
<g id="Node000031" class="node">
<title>Node31</title>
<g id="a_Node000031"><a xlink:href="../../d0/d0c/doctokenizer_8h.html" target="_top" xlink:title=" ">
<polygon fill="white" stroke="#666666" points="805.5,-239 718.5,-239 718.5,-220 805.5,-220 805.5,-239"/>
<text text-anchor="middle" x="762" y="-227" font-family="Helvetica,sans-Serif" font-size="10.00">doctokenizer.h</text>
</a>
</g>
</g>
<!-- Node17&#45;&gt;Node31 -->
<g id="edge62_Node000017_Node000031" class="edge">
<title>Node17&#45;&gt;Node31</title>
<g id="a_edge62_Node000017_Node000031"><a xlink:title=" ">
<path fill="none" stroke="#63b8ff" d="M569.83,-275.57C608.59,-266.48 672.33,-251.53 715.68,-241.36"/>
<polygon fill="#63b8ff" stroke="#63b8ff" points="716.75,-244.71 725.69,-239.02 715.15,-237.89 716.75,-244.71"/>
</a>
</g>
</g>
<!-- Node21&#45;&gt;Node4 -->
<g id="edge29_Node000021_Node000004" class="edge">
<title>Node21&#45;&gt;Node4</title>
<g id="a_edge29_Node000021_Node000004"><a xlink:title=" ">
<path fill="none" stroke="#63b8ff" d="M627.21,-221.28C624.43,-220.82 621.68,-220.39 619,-220 540.53,-208.63 317.17,-242.83 264,-184 249.77,-168.26 269.9,-148.36 288.06,-135.07"/>
<polygon fill="#63b8ff" stroke="#63b8ff" points="290.42,-137.69 296.66,-129.12 286.44,-131.93 290.42,-137.69"/>
</a>
</g>
</g>
<!-- Node21&#45;&gt;Node5 -->
<g id="edge30_Node000021_Node000005" class="edge">
<title>Node21&#45;&gt;Node5</title>
<g id="a_edge30_Node000021_Node000005"><a xlink:title=" ">
<path fill="none" stroke="#63b8ff" d="M662.56,-219.94C660.82,-206.52 659.61,-180.5 673,-165 699.72,-134.07 746.74,-124.09 781.23,-121.14"/>
<polygon fill="#63b8ff" stroke="#63b8ff" points="781.76,-124.61 791.5,-120.44 781.28,-117.63 781.76,-124.61"/>
</a>
</g>
</g>
<!-- Node21&#45;&gt;Node16 -->
<g id="edge36_Node000021_Node000016" class="edge">
<title>Node21&#45;&gt;Node16</title>
<g id="a_edge36_Node000021_Node000016"><a xlink:title=" ">
<path fill="none" stroke="#63b8ff" d="M627.13,-220.17C605.98,-213.62 580.45,-202.43 564,-184 553.06,-171.74 548.1,-153.51 545.86,-139.72"/>
<polygon fill="#63b8ff" stroke="#63b8ff" points="549.28,-138.89 544.54,-129.42 542.33,-139.78 549.28,-138.89"/>
</a>
</g>
</g>
<!-- Node22 -->
<g id="Node000022" class="node">
<title>Node22</title>
<g id="a_Node000022"><a xlink:title=" ">
<polygon fill="#e0e0e0" stroke="#999999" points="732,-184 682,-184 682,-165 732,-165 732,-184"/>
<text text-anchor="middle" x="707" y="-172" font-family="Helvetica,sans-Serif" font-size="10.00">stdio.h</text>
</a>
</g>
</g>
<!-- Node21&#45;&gt;Node22 -->
<g id="edge28_Node000021_Node000022" class="edge">
<title>Node21&#45;&gt;Node22</title>
<g id="a_edge28_Node000021_Node000022"><a xlink:title=" ">
<path fill="none" stroke="#63b8ff" d="M671.1,-219.75C677.17,-212.26 686.09,-201.28 693.51,-192.13"/>
<polygon fill="#63b8ff" stroke="#63b8ff" points="696.45,-194.06 700.03,-184.09 691.01,-189.65 696.45,-194.06"/>
</a>
</g>
</g>
<!-- Node21&#45;&gt;Node23 -->
<g id="edge31_Node000021_Node000023" class="edge">
<title>Node21&#45;&gt;Node23</title>
<g id="a_edge31_Node000021_Node000023"><a xlink:title=" ">
<path fill="none" stroke="#63b8ff" d="M627.69,-219.98C588.76,-210.86 526.84,-196.33 484.4,-186.38"/>
<polygon fill="#63b8ff" stroke="#63b8ff" points="485.13,-182.96 474.6,-184.08 483.53,-189.77 485.13,-182.96"/>
</a>
</g>
</g>
<!-- Node25 -->
<g id="Node000025" class="node">
<title>Node25</title>
<g id="a_Node000025"><a xlink:href="../../d9/d49/types_8h.html" target="_top" xlink:title="This file contains a number of basic enums and types.">
<polygon fill="white" stroke="#666666" points="625.5,-184 572.5,-184 572.5,-165 625.5,-165 625.5,-184"/>
<text text-anchor="middle" x="599" y="-172" font-family="Helvetica,sans-Serif" font-size="10.00">types.h</text>
</a>
</g>
</g>
<!-- Node21&#45;&gt;Node25 -->
<g id="edge37_Node000021_Node000025" class="edge">
<title>Node21&#45;&gt;Node25</title>
<g id="a_edge37_Node000021_Node000025"><a xlink:title=" ">
<path fill="none" stroke="#63b8ff" d="M653.56,-219.98C643.85,-212.07 629.18,-200.11 617.5,-190.58"/>
<polygon fill="#63b8ff" stroke="#63b8ff" points="619.6,-187.78 609.63,-184.17 615.17,-193.2 619.6,-187.78"/>
</a>
</g>
</g>
<!-- Node23&#45;&gt;Node4 -->
<g id="edge33_Node000023_Node000004" class="edge">
<title>Node23&#45;&gt;Node4</title>
<g id="a_edge33_Node000023_Node000004"><a xlink:title=" ">
<path fill="none" stroke="#63b8ff" d="M417.6,-164.98C396.98,-156.38 364.89,-142.99 341.31,-133.15"/>
<polygon fill="#63b8ff" stroke="#63b8ff" points="342.35,-129.79 331.78,-129.17 339.66,-136.25 342.35,-129.79"/>
</a>
</g>
</g>
<!-- Node23&#45;&gt;Node16 -->
<g id="edge35_Node000023_Node000016" class="edge">
<title>Node23&#45;&gt;Node16</title>
<g id="a_edge35_Node000023_Node000016"><a xlink:title=" ">
<path fill="none" stroke="#63b8ff" d="M455.03,-164.98C471.93,-156.54 498.06,-143.47 517.64,-133.68"/>
<polygon fill="#63b8ff" stroke="#63b8ff" points="519.28,-136.77 526.66,-129.17 516.15,-130.51 519.28,-136.77"/>
</a>
</g>
</g>
<!-- Node23&#45;&gt;Node18 -->
<g id="edge32_Node000023_Node000018" class="edge">
<title>Node23&#45;&gt;Node18</title>
<g id="a_edge32_Node000023_Node000018"><a xlink:title=" ">
<path fill="none" stroke="#63b8ff" d="M478.16,-169.61C554,-162.19 723.49,-145.31 866,-129 877.2,-127.72 889.42,-126.22 900.37,-124.84"/>
<polygon fill="#63b8ff" stroke="#63b8ff" points="900.93,-128.3 910.41,-123.57 900.05,-121.36 900.93,-128.3"/>
</a>
</g>
</g>
<!-- Node24 -->
<g id="Node000024" class="node">
<title>Node24</title>
<g id="a_Node000024"><a xlink:title=" ">
<polygon fill="#e0e0e0" stroke="#999999" points="464.5,-129 411.5,-129 411.5,-110 464.5,-110 464.5,-129"/>
<text text-anchor="middle" x="438" y="-117" font-family="Helvetica,sans-Serif" font-size="10.00">iterator</text>
</a>
</g>
</g>
<!-- Node23&#45;&gt;Node24 -->
<g id="edge34_Node000023_Node000024" class="edge">
<title>Node23&#45;&gt;Node24</title>
<g id="a_edge34_Node000023_Node000024"><a xlink:title=" ">
<path fill="none" stroke="#63b8ff" d="M438,-164.75C438,-157.8 438,-147.85 438,-139.13"/>
<polygon fill="#63b8ff" stroke="#63b8ff" points="441.5,-139.09 438,-129.09 434.5,-139.09 441.5,-139.09"/>
</a>
</g>
</g>
<!-- Node25&#45;&gt;Node5 -->
<g id="edge38_Node000025_Node000005" class="edge">
<title>Node25&#45;&gt;Node5</title>
<g id="a_edge38_Node000025_Node000005"><a xlink:title=" ">
<path fill="none" stroke="#63b8ff" d="M625.69,-167.21C664.11,-158.16 735.4,-141.37 781.22,-130.58"/>
<polygon fill="#63b8ff" stroke="#63b8ff" points="782.22,-133.94 791.15,-128.24 780.62,-127.12 782.22,-133.94"/>
</a>
</g>
</g>
<!-- Node26&#45;&gt;Node5 -->
<g id="edge41_Node000026_Node000005" class="edge">
<title>Node26&#45;&gt;Node5</title>
<g id="a_edge41_Node000026_Node000005"><a xlink:title=" ">
<path fill="none" stroke="#63b8ff" d="M888.63,-164.98C876.91,-156.92 859.08,-144.65 845.11,-135.03"/>
<polygon fill="#63b8ff" stroke="#63b8ff" points="846.82,-131.96 836.6,-129.17 842.85,-137.72 846.82,-131.96"/>
</a>
</g>
</g>
<!-- Node26&#45;&gt;Node18 -->
<g id="edge40_Node000026_Node000018" class="edge">
<title>Node26&#45;&gt;Node18</title>
<g id="a_edge40_Node000026_Node000018"><a xlink:title=" ">
<path fill="none" stroke="#63b8ff" d="M906.45,-164.75C911.01,-157.42 917.67,-146.73 923.29,-137.7"/>
<polygon fill="#63b8ff" stroke="#63b8ff" points="926.34,-139.43 928.65,-129.09 920.4,-135.73 926.34,-139.43"/>
</a>
</g>
</g>
<!-- Node27&#45;&gt;Node5 -->
<g id="edge45_Node000027_Node000005" class="edge">
<title>Node27&#45;&gt;Node5</title>
<g id="a_edge45_Node000027_Node000005"><a xlink:title=" ">
<path fill="none" stroke="#63b8ff" d="M1204.17,-168.7C1126.31,-158.83 948.6,-136.3 866.74,-125.92"/>
<polygon fill="#63b8ff" stroke="#63b8ff" points="867.13,-122.44 856.77,-124.66 866.25,-129.39 867.13,-122.44"/>
</a>
</g>
</g>
<!-- Node27&#45;&gt;Node6 -->
<g id="edge44_Node000027_Node000006" class="edge">
<title>Node27&#45;&gt;Node6</title>
<g id="a_edge44_Node000027_Node000006"><a xlink:title=" ">
<path fill="none" stroke="#63b8ff" d="M1263.17,-164.89C1286.89,-153.88 1320.39,-133.42 1307,-110 1277.62,-58.61 1210.19,-31.13 1169.95,-18.78"/>
<polygon fill="#63b8ff" stroke="#63b8ff" points="1170.69,-15.35 1160.11,-15.9 1168.72,-22.07 1170.69,-15.35"/>
</a>
</g>
</g>
<!-- Node27&#45;&gt;Node16 -->
<g id="edge46_Node000027_Node000016" class="edge">
<title>Node27&#45;&gt;Node16</title>
<g id="a_edge46_Node000027_Node000016"><a xlink:title=" ">
<path fill="none" stroke="#63b8ff" d="M1204.36,-169.51C1189.6,-168.01 1172.51,-166.34 1157,-165 945.23,-146.73 691.87,-129.95 589.86,-123.4"/>
<polygon fill="#63b8ff" stroke="#63b8ff" points="589.82,-119.89 579.61,-122.75 589.37,-126.88 589.82,-119.89"/>
</a>
</g>
</g>
<!-- Node28 -->
<g id="Node000028" class="node">
<title>Node28</title>
<g id="a_Node000028"><a xlink:title=" ">
<polygon fill="#e0e0e0" stroke="#999999" points="1297.5,-129 1204.5,-129 1204.5,-110 1297.5,-110 1297.5,-129"/>
<text text-anchor="middle" x="1251" y="-117" font-family="Helvetica,sans-Serif" font-size="10.00">unordered_map</text>
</a>
</g>
</g>
<!-- Node27&#45;&gt;Node28 -->
<g id="edge43_Node000027_Node000028" class="edge">
<title>Node27&#45;&gt;Node28</title>
<g id="a_edge43_Node000027_Node000028"><a xlink:title=" ">
<path fill="none" stroke="#63b8ff" d="M1243.49,-164.75C1244.67,-157.8 1246.36,-147.85 1247.84,-139.13"/>
<polygon fill="#63b8ff" stroke="#63b8ff" points="1251.32,-139.53 1249.54,-129.09 1244.42,-138.36 1251.32,-139.53"/>
</a>
</g>
</g>
<!-- Node29&#45;&gt;Node5 -->
<g id="edge51_Node000029_Node000005" class="edge">
<title>Node29&#45;&gt;Node5</title>
<g id="a_edge51_Node000029_Node000005"><a xlink:title=" ">
<path fill="none" stroke="#63b8ff" d="M1069.87,-219.99C1061.07,-206.17 1041.74,-178.99 1018,-165 992.78,-150.14 915.95,-135.46 866.88,-127.22"/>
<polygon fill="#63b8ff" stroke="#63b8ff" points="867.3,-123.75 856.86,-125.57 866.16,-130.65 867.3,-123.75"/>
</a>
</g>
</g>
<!-- Node29&#45;&gt;Node6 -->
<g id="edge49_Node000029_Node000006" class="edge">
<title>Node29&#45;&gt;Node6</title>
<g id="a_edge49_Node000029_Node000006"><a xlink:title=" ">
<path fill="none" stroke="#63b8ff" d="M1105.56,-220.52C1123.95,-213.97 1145.9,-202.65 1157,-184 1186.64,-134.19 1161.37,-61.94 1146.71,-28.6"/>
<polygon fill="#63b8ff" stroke="#63b8ff" points="1149.76,-26.85 1142.4,-19.22 1143.39,-29.77 1149.76,-26.85"/>
</a>
</g>
</g>
<!-- Node29&#45;&gt;Node16 -->
<g id="edge60_Node000029_Node000016" class="edge">
<title>Node29&#45;&gt;Node16</title>
<g id="a_edge60_Node000029_Node000016"><a xlink:title=" ">
<path fill="none" stroke="#63b8ff" d="M1061.82,-219.99C1039.29,-205.92 991.51,-178.05 947,-165 821.36,-128.16 665.55,-121.36 589.73,-120.4"/>
<polygon fill="#63b8ff" stroke="#63b8ff" points="589.61,-116.9 579.58,-120.3 589.54,-123.9 589.61,-116.9"/>
</a>
</g>
</g>
<!-- Node29&#45;&gt;Node28 -->
<g id="edge50_Node000029_Node000028" class="edge">
<title>Node29&#45;&gt;Node28</title>
<g id="a_edge50_Node000029_Node000028"><a xlink:title=" ">
<path fill="none" stroke="#63b8ff" d="M1105.8,-226.73C1159.39,-222.93 1266.25,-211.97 1289,-184 1301.38,-168.78 1285.47,-149.12 1270.61,-135.73"/>
<polygon fill="#63b8ff" stroke="#63b8ff" points="1272.55,-132.79 1262.65,-129.01 1268.03,-138.14 1272.55,-132.79"/>
</a>
</g>
</g>
<!-- Node30 -->
<g id="Node000030" class="node">
<title>Node30</title>
<g id="a_Node000030"><a xlink:href="../../da/de1/linkedmap_8h.html" target="_top" xlink:title=" ">
<polygon fill="white" stroke="#666666" points="1147.5,-184 1070.5,-184 1070.5,-165 1147.5,-165 1147.5,-184"/>
<text text-anchor="middle" x="1109" y="-172" font-family="Helvetica,sans-Serif" font-size="10.00">linkedmap.h</text>
</a>
</g>
</g>
<!-- Node29&#45;&gt;Node30 -->
<g id="edge52_Node000029_Node000030" class="edge">
<title>Node29&#45;&gt;Node30</title>
<g id="a_edge52_Node000029_Node000030"><a xlink:title=" ">
<path fill="none" stroke="#63b8ff" d="M1080.61,-219.75C1085.32,-212.42 1092.17,-201.73 1097.97,-192.7"/>
<polygon fill="#63b8ff" stroke="#63b8ff" points="1101.04,-194.4 1103.49,-184.09 1095.14,-190.62 1101.04,-194.4"/>
</a>
</g>
</g>
<!-- Node30&#45;&gt;Node4 -->
<g id="edge55_Node000030_Node000004" class="edge">
<title>Node30&#45;&gt;Node4</title>
<g id="a_edge55_Node000030_Node000004"><a xlink:title=" ">
<path fill="none" stroke="#63b8ff" d="M1070.32,-171.46C963.84,-165.76 657.38,-148.76 403,-129 385.81,-127.66 366.85,-125.95 350.62,-124.42"/>
<polygon fill="#63b8ff" stroke="#63b8ff" points="350.69,-120.91 340.4,-123.44 350.02,-127.87 350.69,-120.91"/>
</a>
</g>
</g>
<!-- Node30&#45;&gt;Node5 -->
<g id="edge59_Node000030_Node000005" class="edge">
<title>Node30&#45;&gt;Node5</title>
<g id="a_edge59_Node000030_Node000005"><a xlink:title=" ">
<path fill="none" stroke="#63b8ff" d="M1070.27,-166.3C1017.22,-156.43 922.28,-138.78 867.06,-128.51"/>
<polygon fill="#63b8ff" stroke="#63b8ff" points="867.37,-125.01 856.9,-126.62 866.09,-131.89 867.37,-125.01"/>
</a>
</g>
</g>
<!-- Node30&#45;&gt;Node6 -->
<g id="edge56_Node000030_Node000006" class="edge">
<title>Node30&#45;&gt;Node6</title>
<g id="a_edge56_Node000030_Node000006"><a xlink:title=" ">
<path fill="none" stroke="#63b8ff" d="M1110.56,-164.74C1115.1,-139.2 1128.4,-64.43 1134.67,-29.23"/>
<polygon fill="#63b8ff" stroke="#63b8ff" points="1138.13,-29.77 1136.43,-19.31 1131.24,-28.54 1138.13,-29.77"/>
</a>
</g>
</g>
<!-- Node30&#45;&gt;Node8 -->
<g id="edge57_Node000030_Node000008" class="edge">
<title>Node30&#45;&gt;Node8</title>
<g id="a_edge57_Node000030_Node000008"><a xlink:title=" ">
<path fill="none" stroke="#63b8ff" d="M1100.9,-164.66C1084.28,-146.54 1046.13,-104.91 1024.91,-81.77"/>
<polygon fill="#63b8ff" stroke="#63b8ff" points="1027.27,-79.16 1017.94,-74.16 1022.11,-83.89 1027.27,-79.16"/>
</a>
</g>
</g>
<!-- Node30&#45;&gt;Node9 -->
<g id="edge58_Node000030_Node000009" class="edge">
<title>Node30&#45;&gt;Node9</title>
<g id="a_edge58_Node000030_Node000009"><a xlink:title=" ">
<path fill="none" stroke="#63b8ff" d="M1107.04,-164.66C1103.13,-147.09 1094.32,-107.45 1089.1,-83.95"/>
<polygon fill="#63b8ff" stroke="#63b8ff" points="1092.51,-83.16 1086.92,-74.16 1085.68,-84.68 1092.51,-83.16"/>
</a>
</g>
</g>
<!-- Node30&#45;&gt;Node18 -->
<g id="edge54_Node000030_Node000018" class="edge">
<title>Node30&#45;&gt;Node18</title>
<g id="a_edge54_Node000030_Node000018"><a xlink:title=" ">
<path fill="none" stroke="#63b8ff" d="M1080.88,-164.98C1049.89,-155.6 1000.07,-140.51 967.18,-130.55"/>
<polygon fill="#63b8ff" stroke="#63b8ff" points="968.14,-127.18 957.56,-127.63 966.11,-133.88 968.14,-127.18"/>
</a>
</g>
</g>
<!-- Node30&#45;&gt;Node28 -->
<g id="edge53_Node000030_Node000028" class="edge">
<title>Node30&#45;&gt;Node28</title>
<g id="a_edge53_Node000030_Node000028"><a xlink:title=" ">
<path fill="none" stroke="#63b8ff" d="M1131.81,-164.98C1155.17,-156.27 1191.7,-142.63 1218.17,-132.75"/>
<polygon fill="#63b8ff" stroke="#63b8ff" points="1219.63,-135.95 1227.77,-129.17 1217.18,-129.39 1219.63,-135.95"/>
</a>
</g>
</g>
<!-- Node31&#45;&gt;Node4 -->
<g id="edge64_Node000031_Node000004" class="edge">
<title>Node31&#45;&gt;Node4</title>
<g id="a_edge64_Node000031_Node000004"><a xlink:title=" ">
<path fill="none" stroke="#63b8ff" d="M718.34,-221.12C715.52,-220.72 712.72,-220.34 710,-220 664.4,-214.29 329.05,-217.88 298,-184 286.63,-171.6 292.98,-152.02 300.22,-137.89"/>
<polygon fill="#63b8ff" stroke="#63b8ff" points="303.3,-139.55 305.17,-129.12 297.21,-136.11 303.3,-139.55"/>
</a>
</g>
</g>
<!-- Node31&#45;&gt;Node5 -->
<g id="edge66_Node000031_Node000005" class="edge">
<title>Node31&#45;&gt;Node5</title>
<g id="a_edge66_Node000031_Node000005"><a xlink:title=" ">
<path fill="none" stroke="#63b8ff" d="M767.07,-219.66C777.3,-201.85 800.54,-161.37 813.95,-138.01"/>
<polygon fill="#63b8ff" stroke="#63b8ff" points="817.09,-139.57 819.03,-129.16 811.02,-136.09 817.09,-139.57"/>
</a>
</g>
</g>
<!-- Node31&#45;&gt;Node16 -->
<g id="edge67_Node000031_Node000016" class="edge">
<title>Node31&#45;&gt;Node16</title>
<g id="a_edge67_Node000031_Node000016"><a xlink:title=" ">
<path fill="none" stroke="#63b8ff" d="M761.71,-219.66C760.75,-205.88 756.82,-179.36 741,-165 719.13,-145.16 640.79,-132.17 589.74,-125.6"/>
<polygon fill="#63b8ff" stroke="#63b8ff" points="589.96,-122.1 579.6,-124.33 589.09,-129.04 589.96,-122.1"/>
</a>
</g>
</g>
<!-- Node31&#45;&gt;Node22 -->
<g id="edge63_Node000031_Node000022" class="edge">
<title>Node31&#45;&gt;Node22</title>
<g id="a_edge63_Node000031_Node000022"><a xlink:title=" ">
<path fill="none" stroke="#63b8ff" d="M752.92,-219.75C744.91,-212.03 733.04,-200.6 723.38,-191.28"/>
<polygon fill="#63b8ff" stroke="#63b8ff" points="725.54,-188.51 715.91,-184.09 720.69,-193.55 725.54,-188.51"/>
</a>
</g>
</g>
<!-- Node31&#45;&gt;Node26 -->
<g id="edge65_Node000031_Node000026" class="edge">
<title>Node31&#45;&gt;Node26</title>
<g id="a_edge65_Node000031_Node000026"><a xlink:title=" ">
<path fill="none" stroke="#63b8ff" d="M784.33,-219.98C807.2,-211.27 842.96,-197.63 868.86,-187.75"/>
<polygon fill="#63b8ff" stroke="#63b8ff" points="870.16,-191 878.26,-184.17 867.67,-184.46 870.16,-191"/>
</a>
</g>
</g>
</g>
</svg>
