<?xml version="1.0" encoding="UTF-8" standalone="no"?>
<!DOCTYPE svg PUBLIC "-//W3C//DTD SVG 1.1//EN"
 "http://www.w3.org/Graphics/SVG/1.1/DTD/svg11.dtd">
<!-- Generated by graphviz version 2.43.0 (0)
 -->
<!-- Title: LayoutDocEntryMemberDef Pages: 1 -->
<svg width="295pt" height="93pt"
 viewBox="0.00 0.00 294.50 93.00" xmlns="http://www.w3.org/2000/svg" xmlns:xlink="http://www.w3.org/1999/xlink">
<g id="graph0" class="graph" transform="scale(1 1) rotate(0) translate(4 89)">
<title>LayoutDocEntryMemberDef</title>
<!-- Node1 -->
<g id="Node000001" class="node">
<title>Node1</title>
<g id="a_Node000001"><a xlink:title="Represents of a member definition list with configurable title.">
<polygon fill="#999999" stroke="#666666" points="237,-19 85,-19 85,0 237,0 237,-19"/>
<text text-anchor="middle" x="161" y="-7" font-family="Helvetica,sans-Serif" font-size="10.00">LayoutDocEntryMemberDef</text>
</a>
</g>
</g>
<!-- Node2 -->
<g id="Node000002" class="node">
<title>Node2</title>
<g id="a_Node000002"><a xlink:href="../../d9/dba/struct_layout_doc_entry.html" target="_top" xlink:title="Base class representing a piece of a documentation page.">
<polygon fill="white" stroke="#666666" points="94,-85 0,-85 0,-66 94,-66 94,-85"/>
<text text-anchor="middle" x="47" y="-73" font-family="Helvetica,sans-Serif" font-size="10.00">LayoutDocEntry</text>
</a>
</g>
</g>
<!-- Node2&#45;&gt;Node1 -->
<g id="edge1_Node000001_Node000002" class="edge">
<title>Node2&#45;&gt;Node1</title>
<g id="a_edge1_Node000001_Node000002"><a xlink:title=" ">
<path fill="none" stroke="#63b8ff" d="M71.3,-60.86C93.74,-48.26 126.41,-29.92 145.5,-19.2"/>
<polygon fill="#63b8ff" stroke="#63b8ff" points="69.38,-57.92 62.37,-65.87 72.81,-64.03 69.38,-57.92"/>
</a>
</g>
</g>
<!-- Node3 -->
<g id="Node000003" class="node">
<title>Node3</title>
<g id="a_Node000003"><a xlink:href="../../d0/dd9/class_member_list_type.html" target="_top" xlink:title="Wrapper class for the MemberListType type.">
<polygon fill="white" stroke="#666666" points="209.5,-85 112.5,-85 112.5,-66 209.5,-66 209.5,-85"/>
<text text-anchor="middle" x="161" y="-73" font-family="Helvetica,sans-Serif" font-size="10.00">MemberListType</text>
</a>
</g>
</g>
<!-- Node3&#45;&gt;Node1 -->
<g id="edge2_Node000001_Node000003" class="edge">
<title>Node3&#45;&gt;Node1</title>
<g id="a_edge2_Node000001_Node000003"><a xlink:title=" ">
<path fill="none" stroke="#9a32cd" stroke-dasharray="5,2" d="M161,-55.58C161,-43.63 161,-28.72 161,-19.41"/>
<polygon fill="#9a32cd" stroke="#9a32cd" points="157.5,-55.87 161,-65.87 164.5,-55.87 157.5,-55.87"/>
</a>
</g>
<text text-anchor="middle" x="173.5" y="-40" font-family="Helvetica,sans-Serif" font-size="10.00" fill="grey"> type</text>
</g>
<!-- Node4 -->
<g id="Node000004" class="node">
<title>Node4</title>
<g id="a_Node000004"><a xlink:href="../../d9/d45/class_q_c_string.html" target="_top" xlink:title="This is an alternative implementation of QCString.">
<polygon fill="white" stroke="#666666" points="286.5,-85 227.5,-85 227.5,-66 286.5,-66 286.5,-85"/>
<text text-anchor="middle" x="257" y="-73" font-family="Helvetica,sans-Serif" font-size="10.00">QCString</text>
</a>
</g>
</g>
<!-- Node4&#45;&gt;Node1 -->
<g id="edge3_Node000001_Node000004" class="edge">
<title>Node4&#45;&gt;Node1</title>
<g id="a_edge3_Node000001_Node000004"><a xlink:title=" ">
<path fill="none" stroke="#9a32cd" stroke-dasharray="5,2" d="M235.52,-60.18C216.66,-47.61 189.84,-29.73 174.05,-19.2"/>
<polygon fill="#9a32cd" stroke="#9a32cd" points="233.79,-63.23 244.05,-65.87 237.67,-57.41 233.79,-63.23"/>
</a>
</g>
<text text-anchor="middle" x="233" y="-40" font-family="Helvetica,sans-Serif" font-size="10.00" fill="grey"> m_title</text>
</g>
</g>
</svg>
