<?xml version="1.0" encoding="UTF-8" standalone="no"?>
<!DOCTYPE svg PUBLIC "-//W3C//DTD SVG 1.1//EN"
 "http://www.w3.org/Graphics/SVG/1.1/DTD/svg11.dtd">
<!-- Generated by graphviz version 2.43.0 (0)
 -->
<!-- Title: MemberDefImpl Pages: 1 -->
<svg width="1181pt" height="962pt"
 viewBox="0.00 0.00 1181.00 961.73" xmlns="http://www.w3.org/2000/svg" xmlns:xlink="http://www.w3.org/1999/xlink">
<g id="graph0" class="graph" transform="scale(1 1) rotate(0) translate(4 957.73)">
<title>MemberDefImpl</title>
<!-- Node1 -->
<g id="Node000001" class="node">
<title>Node1</title>
<g id="a_Node000001"><a xlink:title=" ">
<polygon fill="#999999" stroke="#666666" points="1173,-531.73 1077,-531.73 1077,-512.73 1173,-512.73 1173,-531.73"/>
<text text-anchor="middle" x="1125" y="-519.73" font-family="Helvetica,sans-Serif" font-size="10.00">MemberDefImpl</text>
</a>
</g>
</g>
<!-- Node2 -->
<g id="Node000002" class="node">
<title>Node2</title>
<g id="a_Node000002"><a xlink:href="../../dd/d10/class_definition_mixin.html" target="_top" xlink:title=" ">
<polygon fill="white" stroke="#666666" points="948,-729.23 788,-729.23 788,-699.23 948,-699.23 948,-729.23"/>
<text text-anchor="start" x="796" y="-717.23" font-family="Helvetica,sans-Serif" font-size="10.00">DefinitionMixin&lt; MemberDef</text>
<text text-anchor="middle" x="868" y="-706.23" font-family="Helvetica,sans-Serif" font-size="10.00">Mutable &gt;</text>
</a>
</g>
</g>
<!-- Node2&#45;&gt;Node1 -->
<g id="edge1_Node000001_Node000002" class="edge">
<title>Node2&#45;&gt;Node1</title>
<g id="a_edge1_Node000001_Node000002"><a xlink:title=" ">
<path fill="none" stroke="#63b8ff" d="M958.44,-713.77C993.06,-709.44 1031.01,-699.07 1059,-676.23 1105.99,-637.89 1119.58,-559.51 1122.98,-532.02"/>
<polygon fill="#63b8ff" stroke="#63b8ff" points="957.86,-710.31 948.3,-714.89 958.62,-717.27 957.86,-710.31"/>
</a>
</g>
</g>
<!-- Node3 -->
<g id="Node000003" class="node">
<title>Node3</title>
<g id="a_Node000003"><a xlink:href="../../dd/d4b/class_member_def_mutable.html" target="_top" xlink:title=" ">
<polygon fill="white" stroke="#666666" points="610.5,-721.73 496.5,-721.73 496.5,-702.73 610.5,-702.73 610.5,-721.73"/>
<text text-anchor="middle" x="553.5" y="-709.73" font-family="Helvetica,sans-Serif" font-size="10.00">MemberDefMutable</text>
</a>
</g>
</g>
<!-- Node3&#45;&gt;Node2 -->
<g id="edge2_Node000002_Node000003" class="edge">
<title>Node3&#45;&gt;Node2</title>
<g id="a_edge2_Node000002_Node000003"><a xlink:title=" ">
<path fill="none" stroke="#63b8ff" d="M620.86,-712.66C669.64,-712.97 736.15,-713.39 787.73,-713.72"/>
<polygon fill="#63b8ff" stroke="#63b8ff" points="620.75,-709.15 610.73,-712.59 620.71,-716.15 620.75,-709.15"/>
</a>
</g>
</g>
<!-- Node4 -->
<g id="Node000004" class="node">
<title>Node4</title>
<g id="a_Node000004"><a xlink:href="../../d0/d46/class_definition_mutable.html" target="_top" xlink:title=" ">
<polygon fill="white" stroke="#666666" points="318,-614.73 214,-614.73 214,-595.73 318,-595.73 318,-614.73"/>
<text text-anchor="middle" x="266" y="-602.73" font-family="Helvetica,sans-Serif" font-size="10.00">DefinitionMutable</text>
</a>
</g>
</g>
<!-- Node4&#45;&gt;Node3 -->
<g id="edge3_Node000003_Node000004" class="edge">
<title>Node4&#45;&gt;Node3</title>
<g id="a_edge3_Node000003_Node000004"><a xlink:title=" ">
<path fill="none" stroke="#63b8ff" d="M297.32,-619.04C339.02,-637.71 416.66,-671.27 485,-694.23 494.08,-697.28 503.99,-700.16 513.34,-702.69"/>
<polygon fill="#63b8ff" stroke="#63b8ff" points="298.57,-615.77 288.01,-614.86 295.7,-622.15 298.57,-615.77"/>
</a>
</g>
</g>
<!-- Node11 -->
<g id="Node000011" class="node">
<title>Node11</title>
<g id="a_Node000011"><a xlink:href="../../de/db0/class_file_def.html" target="_top" xlink:title="A model of a file symbol.">
<polygon fill="white" stroke="#666666" points="579,-609.73 528,-609.73 528,-590.73 579,-590.73 579,-609.73"/>
<text text-anchor="middle" x="553.5" y="-597.73" font-family="Helvetica,sans-Serif" font-size="10.00">FileDef</text>
</a>
</g>
</g>
<!-- Node4&#45;&gt;Node11 -->
<g id="edge13_Node000011_Node000004" class="edge">
<title>Node4&#45;&gt;Node11</title>
<g id="a_edge13_Node000011_Node000004"><a xlink:title=" ">
<path fill="none" stroke="#63b8ff" d="M328.13,-604.16C390.34,-603.07 483.7,-601.44 527.78,-600.66"/>
<polygon fill="#63b8ff" stroke="#63b8ff" points="327.98,-600.66 318.04,-604.34 328.1,-607.66 327.98,-600.66"/>
</a>
</g>
</g>
<!-- Node13 -->
<g id="Node000013" class="node">
<title>Node13</title>
<g id="a_Node000013"><a xlink:href="../../d0/ded/class_module_def.html" target="_top" xlink:title=" ">
<polygon fill="white" stroke="#666666" points="588.5,-572.73 518.5,-572.73 518.5,-553.73 588.5,-553.73 588.5,-572.73"/>
<text text-anchor="middle" x="553.5" y="-560.73" font-family="Helvetica,sans-Serif" font-size="10.00">ModuleDef</text>
</a>
</g>
</g>
<!-- Node4&#45;&gt;Node13 -->
<g id="edge18_Node000013_Node000004" class="edge">
<title>Node4&#45;&gt;Node13</title>
<g id="a_edge18_Node000013_Node000004"><a xlink:title=" ">
<path fill="none" stroke="#63b8ff" d="M328.2,-596.23C386.32,-587.68 471.57,-575.14 518.46,-568.24"/>
<polygon fill="#63b8ff" stroke="#63b8ff" points="327.43,-592.8 318.04,-597.72 328.44,-599.73 327.43,-592.8"/>
</a>
</g>
</g>
<!-- Node25 -->
<g id="Node000025" class="node">
<title>Node25</title>
<g id="a_Node000025"><a xlink:href="../../d8/d09/class_group_def.html" target="_top" xlink:title="A model of a group of symbols.">
<polygon fill="white" stroke="#666666" points="585,-647.73 522,-647.73 522,-628.73 585,-628.73 585,-647.73"/>
<text text-anchor="middle" x="553.5" y="-635.73" font-family="Helvetica,sans-Serif" font-size="10.00">GroupDef</text>
</a>
</g>
</g>
<!-- Node4&#45;&gt;Node25 -->
<g id="edge37_Node000025_Node000004" class="edge">
<title>Node4&#45;&gt;Node25</title>
<g id="a_edge37_Node000025_Node000004"><a xlink:title=" ">
<path fill="none" stroke="#63b8ff" d="M328.07,-612.29C387.55,-619.16 475.55,-629.34 521.7,-634.67"/>
<polygon fill="#63b8ff" stroke="#63b8ff" points="328.38,-608.8 318.04,-611.13 327.57,-615.76 328.38,-608.8"/>
</a>
</g>
</g>
<!-- Node5 -->
<g id="Node000005" class="node">
<title>Node5</title>
<g id="a_Node000005"><a xlink:href="../../da/d09/class_member_def.html" target="_top" xlink:title="A model of a class/file/namespace member symbol.">
<polygon fill="white" stroke="#666666" points="303,-792.73 229,-792.73 229,-773.73 303,-773.73 303,-792.73"/>
<text text-anchor="middle" x="266" y="-780.73" font-family="Helvetica,sans-Serif" font-size="10.00">MemberDef</text>
</a>
</g>
</g>
<!-- Node5&#45;&gt;Node1 -->
<g id="edge20_Node000001_Node000005" class="edge">
<title>Node5&#45;&gt;Node1</title>
<g id="a_edge20_Node000001_Node000005"><a xlink:title=" ">
<path fill="none" stroke="#9a32cd" stroke-dasharray="5,2" d="M313.47,-785.88C466.39,-793.55 950.38,-809.27 1059,-708.23 1112.35,-658.6 1121.92,-562.8 1123.63,-532.01"/>
<polygon fill="#9a32cd" stroke="#9a32cd" points="313.63,-782.38 303.46,-785.36 313.27,-789.37 313.63,-782.38"/>
</a>
</g>
<text text-anchor="middle" x="705" y="-902.23" font-family="Helvetica,sans-Serif" font-size="10.00" fill="grey"> m_annEnumType</text>
<text text-anchor="middle" x="705" y="-891.23" font-family="Helvetica,sans-Serif" font-size="10.00" fill="grey">m_annMemb</text>
<text text-anchor="middle" x="705" y="-880.23" font-family="Helvetica,sans-Serif" font-size="10.00" fill="grey">m_categoryRelation</text>
<text text-anchor="middle" x="705" y="-869.23" font-family="Helvetica,sans-Serif" font-size="10.00" fill="grey">m_docProvider</text>
<text text-anchor="middle" x="705" y="-858.23" font-family="Helvetica,sans-Serif" font-size="10.00" fill="grey">m_enumScope</text>
<text text-anchor="middle" x="705" y="-847.23" font-family="Helvetica,sans-Serif" font-size="10.00" fill="grey">m_groupAlias</text>
<text text-anchor="middle" x="705" y="-836.23" font-family="Helvetica,sans-Serif" font-size="10.00" fill="grey">m_groupMember</text>
<text text-anchor="middle" x="705" y="-825.23" font-family="Helvetica,sans-Serif" font-size="10.00" fill="grey">m_memDec</text>
<text text-anchor="middle" x="705" y="-814.23" font-family="Helvetica,sans-Serif" font-size="10.00" fill="grey">m_memDef</text>
<text text-anchor="middle" x="705" y="-803.23" font-family="Helvetica,sans-Serif" font-size="10.00" fill="grey">m_redefines</text>
<text text-anchor="middle" x="705" y="-792.23" font-family="Helvetica,sans-Serif" font-size="10.00" fill="grey">...</text>
</g>
<!-- Node5&#45;&gt;Node3 -->
<g id="edge4_Node000003_Node000005" class="edge">
<title>Node5&#45;&gt;Node3</title>
<g id="a_edge4_Node000003_Node000005"><a xlink:title=" ">
<path fill="none" stroke="#63b8ff" d="M313.12,-772.98C353.75,-763.81 414.46,-749.77 467,-736.23 484.47,-731.73 503.83,-726.33 519.7,-721.79"/>
<polygon fill="#63b8ff" stroke="#63b8ff" points="312.23,-769.59 303.24,-775.2 313.77,-776.42 312.23,-769.59"/>
</a>
</g>
</g>
<!-- Node6 -->
<g id="Node000006" class="node">
<title>Node6</title>
<g id="a_Node000006"><a xlink:href="../../d5/dcc/class_definition.html" target="_top" xlink:title="The common base class of all entity definitions found in the sources.">
<polygon fill="white" stroke="#666666" points="116.5,-558.73 52.5,-558.73 52.5,-539.73 116.5,-539.73 116.5,-558.73"/>
<text text-anchor="middle" x="84.5" y="-546.73" font-family="Helvetica,sans-Serif" font-size="10.00">Definition</text>
</a>
</g>
</g>
<!-- Node6&#45;&gt;Node5 -->
<g id="edge5_Node000005_Node000006" class="edge">
<title>Node6&#45;&gt;Node5</title>
<g id="a_edge5_Node000005_Node000006"><a xlink:title=" ">
<path fill="none" stroke="#63b8ff" d="M91.83,-568.48C106.02,-608.92 144.09,-703.46 206,-758.23 213.5,-764.86 223.02,-769.92 232.21,-773.7"/>
<polygon fill="#63b8ff" stroke="#63b8ff" points="95.13,-567.34 88.59,-559 88.51,-569.6 95.13,-567.34"/>
</a>
</g>
</g>
<!-- Node10 -->
<g id="Node000010" class="node">
<title>Node10</title>
<g id="a_Node000010"><a xlink:href="../../d1/dcf/class_class_def.html" target="_top" xlink:title="A abstract class representing of a compound symbol.">
<polygon fill="white" stroke="#666666" points="435.5,-270.73 375.5,-270.73 375.5,-251.73 435.5,-251.73 435.5,-270.73"/>
<text text-anchor="middle" x="405.5" y="-258.73" font-family="Helvetica,sans-Serif" font-size="10.00">ClassDef</text>
</a>
</g>
</g>
<!-- Node6&#45;&gt;Node10 -->
<g id="edge11_Node000010_Node000006" class="edge">
<title>Node6&#45;&gt;Node10</title>
<g id="a_edge11_Node000010_Node000006"><a xlink:title=" ">
<path fill="none" stroke="#63b8ff" d="M103.55,-532.94C162.37,-479.83 347.41,-312.78 393.85,-270.85"/>
<polygon fill="#63b8ff" stroke="#63b8ff" points="101.19,-530.35 96.11,-539.65 105.88,-535.54 101.19,-530.35"/>
</a>
</g>
</g>
<!-- Node6&#45;&gt;Node11 -->
<g id="edge14_Node000011_Node000006" class="edge">
<title>Node6&#45;&gt;Node11</title>
<g id="a_edge14_Node000011_Node000006"><a xlink:title=" ">
<path fill="none" stroke="#63b8ff" d="M126.55,-553.71C221.12,-564.04 452.05,-589.26 527.91,-597.54"/>
<polygon fill="#63b8ff" stroke="#63b8ff" points="126.82,-550.22 116.5,-552.62 126.06,-557.18 126.82,-550.22"/>
</a>
</g>
</g>
<!-- Node12 -->
<g id="Node000012" class="node">
<title>Node12</title>
<g id="a_Node000012"><a xlink:href="../../d0/d07/class_namespace_def.html" target="_top" xlink:title="An abstract interface of a namespace symbol.">
<polygon fill="white" stroke="#666666" points="751,-953.73 659,-953.73 659,-934.73 751,-934.73 751,-953.73"/>
<text text-anchor="middle" x="705" y="-941.73" font-family="Helvetica,sans-Serif" font-size="10.00">NamespaceDef</text>
</a>
</g>
</g>
<!-- Node6&#45;&gt;Node12 -->
<g id="edge16_Node000012_Node000006" class="edge">
<title>Node6&#45;&gt;Node12</title>
<g id="a_edge16_Node000012_Node000006"><a xlink:title=" ">
<path fill="none" stroke="#63b8ff" d="M89.17,-568.87C99.09,-616.31 130.87,-737.97 206,-802.23 340.76,-917.5 563.51,-939.44 658.65,-943.44"/>
<polygon fill="#63b8ff" stroke="#63b8ff" points="92.59,-568.08 87.2,-558.96 85.72,-569.45 92.59,-568.08"/>
</a>
</g>
</g>
<!-- Node6&#45;&gt;Node13 -->
<g id="edge19_Node000013_Node000006" class="edge">
<title>Node6&#45;&gt;Node13</title>
<g id="a_edge19_Node000013_Node000006"><a xlink:title=" ">
<path fill="none" stroke="#63b8ff" d="M127.15,-542.39C197.64,-531.98 344.72,-515.39 467,-535.23 475.32,-536.58 476.99,-538.59 485,-541.23 497.41,-545.32 511.11,-549.8 522.91,-553.64"/>
<polygon fill="#63b8ff" stroke="#63b8ff" points="126.28,-538.98 116.91,-543.93 127.32,-545.9 126.28,-538.98"/>
</a>
</g>
</g>
<!-- Node20 -->
<g id="Node000020" class="node">
<title>Node20</title>
<g id="a_Node000020"><a xlink:href="../../da/d32/class_member_group.html" target="_top" xlink:title="A class representing a group of members.">
<polygon fill="white" stroke="#666666" points="911,-175.73 825,-175.73 825,-156.73 911,-156.73 911,-175.73"/>
<text text-anchor="middle" x="868" y="-163.73" font-family="Helvetica,sans-Serif" font-size="10.00">MemberGroup</text>
</a>
</g>
</g>
<!-- Node6&#45;&gt;Node20 -->
<g id="edge29_Node000020_Node000006" class="edge">
<title>Node6&#45;&gt;Node20</title>
<g id="a_edge29_Node000020_Node000006"><a xlink:title=" ">
<path fill="none" stroke="#9a32cd" stroke-dasharray="5,2" d="M92.51,-529.86C108,-489 148.41,-392.44 206,-328.23 255.89,-272.61 275.74,-262.62 344,-232.23 509.96,-158.35 733,-159.36 824.82,-163.54"/>
<polygon fill="#9a32cd" stroke="#9a32cd" points="89.16,-528.83 88.96,-539.42 95.72,-531.27 89.16,-528.83"/>
</a>
</g>
<text text-anchor="middle" x="405.5" y="-235.23" font-family="Helvetica,sans-Serif" font-size="10.00" fill="grey"> m_container</text>
</g>
<!-- Node6&#45;&gt;Node25 -->
<g id="edge38_Node000025_Node000006" class="edge">
<title>Node6&#45;&gt;Node25</title>
<g id="a_edge38_Node000025_Node000006"><a xlink:title=" ">
<path fill="none" stroke="#63b8ff" d="M104.65,-565.27C127.27,-583.17 166.78,-611.31 206,-624.23 317.51,-660.95 460.19,-649.85 521.85,-642.48"/>
<polygon fill="#63b8ff" stroke="#63b8ff" points="106.83,-562.52 96.85,-558.96 102.43,-567.97 106.83,-562.52"/>
</a>
</g>
</g>
<!-- Node7 -->
<g id="Node000007" class="node">
<title>Node7</title>
<g id="a_Node000007"><a xlink:href="../../d3/ddf/class_definition_impl.html" target="_top" xlink:title=" ">
<polygon fill="white" stroke="#666666" points="309,-748.73 223,-748.73 223,-729.73 309,-729.73 309,-748.73"/>
<text text-anchor="middle" x="266" y="-736.73" font-family="Helvetica,sans-Serif" font-size="10.00">DefinitionImpl</text>
</a>
</g>
</g>
<!-- Node7&#45;&gt;Node2 -->
<g id="edge6_Node000002_Node000007" class="edge">
<title>Node7&#45;&gt;Node2</title>
<g id="a_edge6_Node000002_Node000007"><a xlink:title=" ">
<path fill="none" stroke="#9a32cd" stroke-dasharray="5,2" d="M319.25,-739.69C410.74,-740.08 605.85,-739.13 770,-726.23 775.84,-725.77 781.86,-725.22 787.92,-724.61"/>
<polygon fill="#9a32cd" stroke="#9a32cd" points="319.16,-736.19 309.14,-739.64 319.12,-743.19 319.16,-736.19"/>
</a>
</g>
<text text-anchor="middle" x="553.5" y="-741.23" font-family="Helvetica,sans-Serif" font-size="10.00" fill="grey"> m_impl</text>
</g>
<!-- Node8 -->
<g id="Node000008" class="node">
<title>Node8</title>
<g id="a_Node000008"><a xlink:href="../../dd/d10/class_definition_mixin.html" target="_top" xlink:title=" ">
<polygon fill="white" stroke="#666666" points="622,-684.73 485,-684.73 485,-665.73 622,-665.73 622,-684.73"/>
<text text-anchor="middle" x="553.5" y="-672.73" font-family="Helvetica,sans-Serif" font-size="10.00">DefinitionMixin&lt; Base &gt;</text>
</a>
</g>
</g>
<!-- Node7&#45;&gt;Node8 -->
<g id="edge9_Node000008_Node000007" class="edge">
<title>Node7&#45;&gt;Node8</title>
<g id="a_edge9_Node000008_Node000007"><a xlink:title=" ">
<path fill="none" stroke="#9a32cd" stroke-dasharray="5,2" d="M319.06,-727.97C359.45,-719.19 416.82,-706.62 467,-695.23 481.72,-691.89 497.84,-688.14 512.08,-684.8"/>
<polygon fill="#9a32cd" stroke="#9a32cd" points="318.2,-724.58 309.18,-730.12 319.69,-731.42 318.2,-724.58"/>
</a>
</g>
<text text-anchor="middle" x="405.5" y="-724.23" font-family="Helvetica,sans-Serif" font-size="10.00" fill="grey"> m_impl</text>
</g>
<!-- Node8&#45;&gt;Node2 -->
<g id="edge7_Node000002_Node000008" class="edge">
<title>Node8&#45;&gt;Node2</title>
<g id="a_edge7_Node000002_Node000008"><a xlink:title=" ">
<path fill="none" stroke="orange" stroke-dasharray="5,2" d="M632.31,-681.82C673.36,-685.63 724.5,-690.93 770,-697.23 775.84,-698.04 781.87,-698.94 787.93,-699.89"/>
<polygon fill="orange" stroke="orange" points="632.39,-678.31 622.11,-680.88 631.75,-685.28 632.39,-678.31"/>
</a>
</g>
<text text-anchor="middle" x="705" y="-700.23" font-family="Helvetica,sans-Serif" font-size="10.00" fill="grey"> &lt; MemberDefMutable &gt;</text>
</g>
<!-- Node9 -->
<g id="Node000009" class="node">
<title>Node9</title>
<g id="a_Node000009"><a xlink:title=" ">
<polygon fill="white" stroke="#666666" points="286.5,-696.73 245.5,-696.73 245.5,-677.73 286.5,-677.73 286.5,-696.73"/>
<text text-anchor="middle" x="266" y="-684.73" font-family="Helvetica,sans-Serif" font-size="10.00">Base</text>
</a>
</g>
</g>
<!-- Node9&#45;&gt;Node8 -->
<g id="edge8_Node000008_Node000009" class="edge">
<title>Node9&#45;&gt;Node8</title>
<g id="a_edge8_Node000008_Node000009"><a xlink:title=" ">
<path fill="none" stroke="#63b8ff" d="M296.7,-685.98C340.86,-684.13 425.06,-680.59 484.78,-678.08"/>
<polygon fill="#63b8ff" stroke="#63b8ff" points="296.47,-682.49 286.62,-686.41 296.76,-689.48 296.47,-682.49"/>
</a>
</g>
</g>
<!-- Node10&#45;&gt;Node1 -->
<g id="edge10_Node000001_Node000010" class="edge">
<title>Node10&#45;&gt;Node1</title>
<g id="a_edge10_Node000001_Node000010"><a xlink:title=" ">
<path fill="none" stroke="#9a32cd" stroke-dasharray="5,2" d="M443.84,-248.52C489.48,-233.72 569.35,-210.16 640,-201.23 733.03,-189.47 990.6,-187.08 1059,-251.23 1098.61,-288.38 1118.74,-468.79 1123.09,-512.62"/>
<polygon fill="#9a32cd" stroke="#9a32cd" points="442.51,-245.28 434.09,-251.72 444.69,-251.93 442.51,-245.28"/>
</a>
</g>
<text text-anchor="middle" x="705" y="-259.23" font-family="Helvetica,sans-Serif" font-size="10.00" fill="grey"> m_accessorClass</text>
<text text-anchor="middle" x="705" y="-248.23" font-family="Helvetica,sans-Serif" font-size="10.00" fill="grey">m_cachedAnonymousType</text>
<text text-anchor="middle" x="705" y="-237.23" font-family="Helvetica,sans-Serif" font-size="10.00" fill="grey">m_cachedTypedefValue</text>
<text text-anchor="middle" x="705" y="-226.23" font-family="Helvetica,sans-Serif" font-size="10.00" fill="grey">m_category</text>
<text text-anchor="middle" x="705" y="-215.23" font-family="Helvetica,sans-Serif" font-size="10.00" fill="grey">m_classDef</text>
<text text-anchor="middle" x="705" y="-204.23" font-family="Helvetica,sans-Serif" font-size="10.00" fill="grey">m_relatedAlso</text>
</g>
<!-- Node11&#45;&gt;Node1 -->
<g id="edge12_Node000001_Node000011" class="edge">
<title>Node11&#45;&gt;Node1</title>
<g id="a_edge12_Node000001_Node000011"><a xlink:title=" ">
<path fill="none" stroke="#9a32cd" stroke-dasharray="5,2" d="M589.72,-599.02C658.68,-596.41 816.28,-589.23 948,-574.23 997.66,-568.58 1011.58,-572.02 1059,-556.23 1077.13,-550.2 1096.33,-539.56 1109.12,-531.79"/>
<polygon fill="#9a32cd" stroke="#9a32cd" points="589.3,-595.54 579.43,-599.4 589.56,-602.53 589.3,-595.54"/>
</a>
</g>
<text text-anchor="middle" x="868" y="-590.23" font-family="Helvetica,sans-Serif" font-size="10.00" fill="grey"> m_fileDef</text>
</g>
<!-- Node12&#45;&gt;Node1 -->
<g id="edge15_Node000001_Node000012" class="edge">
<title>Node12&#45;&gt;Node1</title>
<g id="a_edge15_Node000001_Node000012"><a xlink:title=" ">
<path fill="none" stroke="#9a32cd" stroke-dasharray="5,2" d="M761.44,-941.66C840.11,-934.87 983,-910.34 1059,-822.23 1098.33,-776.63 1118.88,-577.74 1123.15,-531.75"/>
<polygon fill="#9a32cd" stroke="#9a32cd" points="760.93,-938.19 751.24,-942.47 761.49,-945.17 760.93,-938.19"/>
</a>
</g>
<text text-anchor="middle" x="868" y="-941.23" font-family="Helvetica,sans-Serif" font-size="10.00" fill="grey"> m_nspace</text>
</g>
<!-- Node13&#45;&gt;Node1 -->
<g id="edge17_Node000001_Node000013" class="edge">
<title>Node13&#45;&gt;Node1</title>
<g id="a_edge17_Node000001_Node000013"><a xlink:title=" ">
<path fill="none" stroke="#9a32cd" stroke-dasharray="5,2" d="M598.81,-563.55C686.93,-563.6 890.2,-560.87 1059,-537.23 1068.4,-535.91 1078.45,-533.9 1087.77,-531.77"/>
<polygon fill="#9a32cd" stroke="#9a32cd" points="598.66,-560.05 588.65,-563.53 598.64,-567.05 598.66,-560.05"/>
</a>
</g>
<text text-anchor="middle" x="868" y="-562.23" font-family="Helvetica,sans-Serif" font-size="10.00" fill="grey"> m_moduleDef</text>
</g>
<!-- Node14 -->
<g id="Node000014" class="node">
<title>Node14</title>
<g id="a_Node000014"><a xlink:href="../../d1/d7d/class_member_vector.html" target="_top" xlink:title="A vector of MemberDef object.">
<polygon fill="white" stroke="#666666" points="310,-54.73 222,-54.73 222,-35.73 310,-35.73 310,-54.73"/>
<text text-anchor="middle" x="266" y="-42.73" font-family="Helvetica,sans-Serif" font-size="10.00">MemberVector</text>
</a>
</g>
</g>
<!-- Node14&#45;&gt;Node1 -->
<g id="edge21_Node000001_Node000014" class="edge">
<title>Node14&#45;&gt;Node1</title>
<g id="a_edge21_Node000001_Node000014"><a xlink:title=" ">
<path fill="none" stroke="#9a32cd" stroke-dasharray="5,2" d="M316.21,-33.51C455.5,-3.56 855.55,59.59 1059,-147.23 1112.06,-201.16 1122.2,-458.68 1123.75,-512.4"/>
<polygon fill="#9a32cd" stroke="#9a32cd" points="315.27,-30.13 306.25,-35.69 316.77,-36.97 315.27,-30.13"/>
</a>
</g>
<text text-anchor="middle" x="705" y="-25.23" font-family="Helvetica,sans-Serif" font-size="10.00" fill="grey"> m_enumFields</text>
<text text-anchor="middle" x="705" y="-14.23" font-family="Helvetica,sans-Serif" font-size="10.00" fill="grey">m_redefinedBy</text>
</g>
<!-- Node21 -->
<g id="Node000021" class="node">
<title>Node21</title>
<g id="a_Node000021"><a xlink:href="../../dd/d13/class_member_list.html" target="_top" xlink:title="A list of MemberDef objects as shown in documentation sections.">
<polygon fill="white" stroke="#666666" points="590.5,-114.73 516.5,-114.73 516.5,-95.73 590.5,-95.73 590.5,-114.73"/>
<text text-anchor="middle" x="553.5" y="-102.73" font-family="Helvetica,sans-Serif" font-size="10.00">MemberList</text>
</a>
</g>
</g>
<!-- Node14&#45;&gt;Node21 -->
<g id="edge31_Node000021_Node000014" class="edge">
<title>Node14&#45;&gt;Node21</title>
<g id="a_edge31_Node000021_Node000014"><a xlink:title=" ">
<path fill="none" stroke="#63b8ff" d="M320.18,-56.39C360.48,-64.85 417.23,-76.77 467,-87.23 483.18,-90.63 501.08,-94.4 516.31,-97.61"/>
<polygon fill="#63b8ff" stroke="#63b8ff" points="320.81,-52.95 310.31,-54.32 319.37,-59.8 320.81,-52.95"/>
</a>
</g>
</g>
<!-- Node15 -->
<g id="Node000015" class="node">
<title>Node15</title>
<g id="a_Node000015"><a xlink:href="../../d1/d48/class_example_list.html" target="_top" xlink:title=" ">
<polygon fill="white" stroke="#666666" points="906.5,-531.73 829.5,-531.73 829.5,-512.73 906.5,-512.73 906.5,-531.73"/>
<text text-anchor="middle" x="868" y="-519.73" font-family="Helvetica,sans-Serif" font-size="10.00">ExampleList</text>
</a>
</g>
</g>
<!-- Node15&#45;&gt;Node1 -->
<g id="edge22_Node000001_Node000015" class="edge">
<title>Node15&#45;&gt;Node1</title>
<g id="a_edge22_Node000001_Node000015"><a xlink:title=" ">
<path fill="none" stroke="#9a32cd" stroke-dasharray="5,2" d="M916.88,-522.23C962.6,-522.23 1031.11,-522.23 1076.66,-522.23"/>
<polygon fill="#9a32cd" stroke="#9a32cd" points="916.63,-518.73 906.63,-522.23 916.63,-525.73 916.63,-518.73"/>
</a>
</g>
<text text-anchor="middle" x="1012.5" y="-525.23" font-family="Helvetica,sans-Serif" font-size="10.00" fill="grey"> m_examples</text>
</g>
<!-- Node16 -->
<g id="Node000016" class="node">
<title>Node16</title>
<g id="a_Node000016"><a xlink:title=" ">
<polygon fill="white" stroke="#666666" points="620.5,-531.73 486.5,-531.73 486.5,-512.73 620.5,-512.73 620.5,-531.73"/>
<text text-anchor="middle" x="553.5" y="-519.73" font-family="Helvetica,sans-Serif" font-size="10.00">std::vector&lt; Example &gt;</text>
</a>
</g>
</g>
<!-- Node16&#45;&gt;Node15 -->
<g id="edge23_Node000015_Node000016" class="edge">
<title>Node16&#45;&gt;Node15</title>
<g id="a_edge23_Node000015_Node000016"><a xlink:title=" ">
<path fill="none" stroke="#63b8ff" d="M631.05,-522.23C693.93,-522.23 780.35,-522.23 829.25,-522.23"/>
<polygon fill="#63b8ff" stroke="#63b8ff" points="630.77,-518.73 620.77,-522.23 630.77,-525.73 630.77,-518.73"/>
</a>
</g>
</g>
<!-- Node17 -->
<g id="Node000017" class="node">
<title>Node17</title>
<g id="a_Node000017"><a xlink:href="../../d9/d45/class_q_c_string.html" target="_top" xlink:title="This is an alternative implementation of QCString.">
<polygon fill="white" stroke="#666666" points="583,-369.73 524,-369.73 524,-350.73 583,-350.73 583,-369.73"/>
<text text-anchor="middle" x="553.5" y="-357.73" font-family="Helvetica,sans-Serif" font-size="10.00">QCString</text>
</a>
</g>
</g>
<!-- Node17&#45;&gt;Node1 -->
<g id="edge24_Node000001_Node000017" class="edge">
<title>Node17&#45;&gt;Node1</title>
<g id="a_edge24_Node000001_Node000017"><a xlink:title=" ">
<path fill="none" stroke="#9a32cd" stroke-dasharray="5,2" d="M593.53,-364.55C608.09,-365.98 624.79,-367.42 640,-368.23 657.09,-369.14 931.98,-366.21 948,-372.23 1027.3,-402.02 1095.44,-484.61 1116.95,-512.72"/>
<polygon fill="#9a32cd" stroke="#9a32cd" points="593.65,-361.04 583.35,-363.51 592.94,-368.01 593.65,-361.04"/>
</a>
</g>
<text text-anchor="middle" x="868" y="-496.23" font-family="Helvetica,sans-Serif" font-size="10.00" fill="grey"> m_accessorType</text>
<text text-anchor="middle" x="868" y="-485.23" font-family="Helvetica,sans-Serif" font-size="10.00" fill="grey">m_anc</text>
<text text-anchor="middle" x="868" y="-474.23" font-family="Helvetica,sans-Serif" font-size="10.00" fill="grey">m_args</text>
<text text-anchor="middle" x="868" y="-463.23" font-family="Helvetica,sans-Serif" font-size="10.00" fill="grey">m_bitfields</text>
<text text-anchor="middle" x="868" y="-452.23" font-family="Helvetica,sans-Serif" font-size="10.00" fill="grey">m_cachedResolvedType</text>
<text text-anchor="start" x="809" y="-441.23" font-family="Helvetica,sans-Serif" font-size="10.00" fill="grey">m_cachedTypedefTempl</text>
<text text-anchor="middle" x="868" y="-430.23" font-family="Helvetica,sans-Serif" font-size="10.00" fill="grey">Spec</text>
<text text-anchor="middle" x="868" y="-419.23" font-family="Helvetica,sans-Serif" font-size="10.00" fill="grey">m_decl</text>
<text text-anchor="middle" x="868" y="-408.23" font-family="Helvetica,sans-Serif" font-size="10.00" fill="grey">m_declFileName</text>
<text text-anchor="middle" x="868" y="-397.23" font-family="Helvetica,sans-Serif" font-size="10.00" fill="grey">m_def</text>
<text text-anchor="middle" x="868" y="-386.23" font-family="Helvetica,sans-Serif" font-size="10.00" fill="grey">m_enumBaseType</text>
<text text-anchor="middle" x="868" y="-375.23" font-family="Helvetica,sans-Serif" font-size="10.00" fill="grey">...</text>
</g>
<!-- Node19 -->
<g id="Node000019" class="node">
<title>Node19</title>
<g id="a_Node000019"><a xlink:href="../../d7/df8/class_argument_list.html" target="_top" xlink:title="This class represents an function or template argument list.">
<polygon fill="white" stroke="#666666" points="909,-323.73 827,-323.73 827,-304.73 909,-304.73 909,-323.73"/>
<text text-anchor="middle" x="868" y="-311.73" font-family="Helvetica,sans-Serif" font-size="10.00">ArgumentList</text>
</a>
</g>
</g>
<!-- Node17&#45;&gt;Node19 -->
<g id="edge27_Node000019_Node000017" class="edge">
<title>Node17&#45;&gt;Node19</title>
<g id="a_edge27_Node000019_Node000017"><a xlink:title=" ">
<path fill="none" stroke="#9a32cd" stroke-dasharray="5,2" d="M593.37,-357.92C636.7,-354.95 708.73,-348.88 770,-338.23 791.36,-334.52 814.99,-328.71 833.58,-323.73"/>
<polygon fill="#9a32cd" stroke="#9a32cd" points="593.01,-354.43 583.26,-358.59 593.47,-361.42 593.01,-354.43"/>
</a>
</g>
<text text-anchor="middle" x="705" y="-356.23" font-family="Helvetica,sans-Serif" font-size="10.00" fill="grey"> m_trailingReturnType</text>
</g>
<!-- Node17&#45;&gt;Node20 -->
<g id="edge35_Node000020_Node000017" class="edge">
<title>Node17&#45;&gt;Node20</title>
<g id="a_edge35_Node000020_Node000017"><a xlink:title=" ">
<path fill="none" stroke="#9a32cd" stroke-dasharray="5,2" d="M569.75,-343.26C585.59,-326.82 611.95,-302.61 640,-290.23 693.42,-266.66 718.34,-298.46 770,-271.23 775.68,-268.24 835.6,-201.43 858.32,-175.97"/>
<polygon fill="#9a32cd" stroke="#9a32cd" points="567.14,-340.93 562.86,-350.62 572.25,-345.72 567.14,-340.93"/>
</a>
</g>
<text text-anchor="middle" x="705" y="-326.23" font-family="Helvetica,sans-Serif" font-size="10.00" fill="grey"> doc</text>
<text text-anchor="middle" x="705" y="-315.23" font-family="Helvetica,sans-Serif" font-size="10.00" fill="grey">fileName</text>
<text text-anchor="middle" x="705" y="-304.23" font-family="Helvetica,sans-Serif" font-size="10.00" fill="grey">grpHeader</text>
<text text-anchor="middle" x="705" y="-293.23" font-family="Helvetica,sans-Serif" font-size="10.00" fill="grey">m_docFile</text>
</g>
<!-- Node18 -->
<g id="Node000018" class="node">
<title>Node18</title>
<g id="a_Node000018"><a xlink:href="../../d7/dc8/class_type_specifier.html" target="_top" xlink:title="Wrapper class for a number of boolean properties.">
<polygon fill="white" stroke="#666666" points="908.5,-281.73 827.5,-281.73 827.5,-262.73 908.5,-262.73 908.5,-281.73"/>
<text text-anchor="middle" x="868" y="-269.73" font-family="Helvetica,sans-Serif" font-size="10.00">TypeSpecifier</text>
</a>
</g>
</g>
<!-- Node18&#45;&gt;Node1 -->
<g id="edge25_Node000001_Node000018" class="edge">
<title>Node18&#45;&gt;Node1</title>
<g id="a_edge25_Node000001_Node000018"><a xlink:title=" ">
<path fill="none" stroke="#9a32cd" stroke-dasharray="5,2" d="M915.25,-260.75C957.39,-253.21 1019,-249.92 1059,-282.23 1096.36,-312.41 1117.88,-471.43 1122.87,-512.53"/>
<polygon fill="#9a32cd" stroke="#9a32cd" points="914.4,-257.34 905.24,-262.68 915.72,-264.22 914.4,-257.34"/>
</a>
</g>
<text text-anchor="middle" x="1012.5" y="-285.23" font-family="Helvetica,sans-Serif" font-size="10.00" fill="grey"> m_memSpec</text>
</g>
<!-- Node19&#45;&gt;Node1 -->
<g id="edge26_Node000001_Node000019" class="edge">
<title>Node19&#45;&gt;Node1</title>
<g id="a_edge26_Node000001_Node000019"><a xlink:title=" ">
<path fill="none" stroke="#9a32cd" stroke-dasharray="5,2" d="M919.22,-305.52C967.98,-298.25 1037.66,-291.39 1059,-307.23 1093.6,-332.91 1116.9,-474.48 1122.63,-512.71"/>
<polygon fill="#9a32cd" stroke="#9a32cd" points="918.51,-302.08 909.16,-307.07 919.58,-309 918.51,-302.08"/>
</a>
</g>
<text text-anchor="middle" x="1012.5" y="-343.23" font-family="Helvetica,sans-Serif" font-size="10.00" fill="grey"> m_declArgList</text>
<text text-anchor="middle" x="1012.5" y="-332.23" font-family="Helvetica,sans-Serif" font-size="10.00" fill="grey">m_defArgList</text>
<text text-anchor="middle" x="1012.5" y="-321.23" font-family="Helvetica,sans-Serif" font-size="10.00" fill="grey">m_tArgList</text>
<text text-anchor="middle" x="1012.5" y="-310.23" font-family="Helvetica,sans-Serif" font-size="10.00" fill="grey">m_typeConstraints</text>
</g>
<!-- Node20&#45;&gt;Node1 -->
<g id="edge28_Node000001_Node000020" class="edge">
<title>Node20&#45;&gt;Node1</title>
<g id="a_edge28_Node000001_Node000020"><a xlink:title=" ">
<path fill="none" stroke="#9a32cd" stroke-dasharray="5,2" d="M916.05,-154.89C958.68,-147.64 1020.54,-145.09 1059,-179.23 1110.67,-225.1 1121.86,-461.34 1123.69,-512.46"/>
<polygon fill="#9a32cd" stroke="#9a32cd" points="915.39,-151.46 906.19,-156.71 916.66,-158.34 915.39,-151.46"/>
</a>
</g>
<text text-anchor="middle" x="1012.5" y="-182.23" font-family="Helvetica,sans-Serif" font-size="10.00" fill="grey"> m_memberGroup</text>
</g>
<!-- Node21&#45;&gt;Node20 -->
<g id="edge30_Node000020_Node000021" class="edge">
<title>Node21&#45;&gt;Node20</title>
<g id="a_edge30_Node000020_Node000021"><a xlink:title=" ">
<path fill="none" stroke="#9a32cd" stroke-dasharray="5,2" d="M600.58,-111.74C644.36,-118.21 711.94,-128.92 770,-141.23 791.1,-145.7 814.51,-151.71 833.05,-156.71"/>
<polygon fill="#9a32cd" stroke="#9a32cd" points="600.92,-108.26 590.52,-110.27 599.91,-115.18 600.92,-108.26"/>
</a>
</g>
<text text-anchor="middle" x="705" y="-144.23" font-family="Helvetica,sans-Serif" font-size="10.00" fill="grey"> inDeclSection</text>
</g>
<!-- Node22 -->
<g id="Node000022" class="node">
<title>Node22</title>
<g id="a_Node000022"><a xlink:href="../../d4/d15/class_member_group_ref_list.html" target="_top" xlink:title=" ">
<polygon fill="white" stroke="#666666" points="326,-100.73 206,-100.73 206,-81.73 326,-81.73 326,-100.73"/>
<text text-anchor="middle" x="266" y="-88.73" font-family="Helvetica,sans-Serif" font-size="10.00">MemberGroupRefList</text>
</a>
</g>
</g>
<!-- Node22&#45;&gt;Node21 -->
<g id="edge32_Node000021_Node000022" class="edge">
<title>Node22&#45;&gt;Node21</title>
<g id="a_edge32_Node000021_Node000022"><a xlink:title=" ">
<path fill="none" stroke="#9a32cd" stroke-dasharray="5,2" d="M336.21,-90.97C374.75,-91.24 423.58,-92.26 467,-95.23 483.25,-96.34 501.16,-98.32 516.38,-100.22"/>
<polygon fill="#9a32cd" stroke="#9a32cd" points="336.16,-87.47 326.14,-90.92 336.12,-94.47 336.16,-87.47"/>
</a>
</g>
<text text-anchor="middle" x="405.5" y="-98.23" font-family="Helvetica,sans-Serif" font-size="10.00" fill="grey"> m_memberGroupRefList</text>
</g>
<!-- Node23 -->
<g id="Node000023" class="node">
<title>Node23</title>
<g id="a_Node000023"><a xlink:title=" ">
<polygon fill="white" stroke="#666666" points="169,-100.73 0,-100.73 0,-81.73 169,-81.73 169,-100.73"/>
<text text-anchor="middle" x="84.5" y="-88.73" font-family="Helvetica,sans-Serif" font-size="10.00">std::vector&lt; MemberGroup * &gt;</text>
</a>
</g>
</g>
<!-- Node23&#45;&gt;Node22 -->
<g id="edge33_Node000022_Node000023" class="edge">
<title>Node23&#45;&gt;Node22</title>
<g id="a_edge33_Node000022_Node000023"><a xlink:title=" ">
<path fill="none" stroke="#63b8ff" d="M179.34,-91.23C188.32,-91.23 197.24,-91.23 205.74,-91.23"/>
<polygon fill="#63b8ff" stroke="#63b8ff" points="179.21,-87.73 169.21,-91.23 179.21,-94.73 179.21,-87.73"/>
</a>
</g>
</g>
<!-- Node24 -->
<g id="Node000024" class="node">
<title>Node24</title>
<g id="a_Node000024"><a xlink:href="../../d0/dd9/class_member_list_type.html" target="_top" xlink:title="Wrapper class for the MemberListType type.">
<polygon fill="white" stroke="#666666" points="314.5,-137.73 217.5,-137.73 217.5,-118.73 314.5,-118.73 314.5,-137.73"/>
<text text-anchor="middle" x="266" y="-125.73" font-family="Helvetica,sans-Serif" font-size="10.00">MemberListType</text>
</a>
</g>
</g>
<!-- Node24&#45;&gt;Node21 -->
<g id="edge34_Node000021_Node000024" class="edge">
<title>Node24&#45;&gt;Node21</title>
<g id="a_edge34_Node000021_Node000024"><a xlink:title=" ">
<path fill="none" stroke="#9a32cd" stroke-dasharray="5,2" d="M324.78,-123.58C382.08,-118.96 468.09,-112.03 516.34,-108.14"/>
<polygon fill="#9a32cd" stroke="#9a32cd" points="324.47,-120.09 314.79,-124.38 325.04,-127.07 324.47,-120.09"/>
</a>
</g>
<text text-anchor="middle" x="405.5" y="-125.23" font-family="Helvetica,sans-Serif" font-size="10.00" fill="grey"> m_listType</text>
</g>
<!-- Node25&#45;&gt;Node1 -->
<g id="edge36_Node000001_Node000025" class="edge">
<title>Node25&#45;&gt;Node1</title>
<g id="a_edge36_Node000001_Node000025"><a xlink:title=" ">
<path fill="none" stroke="#9a32cd" stroke-dasharray="5,2" d="M595.19,-642.28C684.45,-649.34 901.98,-656.43 1059,-578.23 1082.47,-566.54 1104.39,-544.46 1115.8,-531.8"/>
<polygon fill="#9a32cd" stroke="#9a32cd" points="595.46,-638.79 585.21,-641.45 594.88,-645.77 595.46,-638.79"/>
</a>
</g>
<text text-anchor="middle" x="868" y="-645.23" font-family="Helvetica,sans-Serif" font-size="10.00" fill="grey"> m_group</text>
</g>
</g>
</svg>
