<?xml version="1.0" encoding="UTF-8" standalone="no"?>
<!DOCTYPE svg PUBLIC "-//W3C//DTD SVG 1.1//EN"
 "http://www.w3.org/Graphics/SVG/1.1/DTD/svg11.dtd">
<!-- Generated by graphviz version 2.43.0 (0)
 -->
<!-- Title: /home/runner/work/doxygen/doxygen/src/htmlentity.cpp Pages: 1 -->
<svg width="726pt" height="258pt"
 viewBox="0.00 0.00 725.82 258.00" xmlns="http://www.w3.org/2000/svg" xmlns:xlink="http://www.w3.org/1999/xlink">
<g id="graph0" class="graph" transform="scale(1 1) rotate(0) translate(4 254)">
<title>/home/runner/work/doxygen/doxygen/src/htmlentity.cpp</title>
<!-- Node1 -->
<g id="Node000001" class="node">
<title>Node1</title>
<g id="a_Node000001"><a xlink:title=" ">
<polygon fill="#999999" stroke="#666666" points="244.82,-250 90.82,-250 90.82,-220 244.82,-220 244.82,-250"/>
<text text-anchor="start" x="98.82" y="-238" font-family="Helvetica,sans-Serif" font-size="10.00">/home/runner/work/doxygen</text>
<text text-anchor="middle" x="167.82" y="-227" font-family="Helvetica,sans-Serif" font-size="10.00">/doxygen/src/htmlentity.cpp</text>
</a>
</g>
</g>
<!-- Node2 -->
<g id="Node000002" class="node">
<title>Node2</title>
<g id="a_Node000002"><a xlink:title=" ">
<polygon fill="#e0e0e0" stroke="#999999" points="67.32,-184 20.32,-184 20.32,-165 67.32,-165 67.32,-184"/>
<text text-anchor="middle" x="43.82" y="-172" font-family="Helvetica,sans-Serif" font-size="10.00">vector</text>
</a>
</g>
</g>
<!-- Node1&#45;&gt;Node2 -->
<g id="edge1_Node000001_Node000002" class="edge">
<title>Node1&#45;&gt;Node2</title>
<g id="a_edge1_Node000001_Node000002"><a xlink:title=" ">
<path fill="none" stroke="#63b8ff" d="M138.11,-219.99C117.8,-210.4 91.06,-197.79 71.24,-188.44"/>
<polygon fill="#63b8ff" stroke="#63b8ff" points="72.67,-185.24 62.13,-184.14 69.68,-191.57 72.67,-185.24"/>
</a>
</g>
</g>
<!-- Node3 -->
<g id="Node000003" class="node">
<title>Node3</title>
<g id="a_Node000003"><a xlink:href="../../db/dc6/htmlentity_8h.html" target="_top" xlink:title=" ">
<polygon fill="white" stroke="#666666" points="160.32,-184 85.32,-184 85.32,-165 160.32,-165 160.32,-184"/>
<text text-anchor="middle" x="122.82" y="-172" font-family="Helvetica,sans-Serif" font-size="10.00">htmlentity.h</text>
</a>
</g>
</g>
<!-- Node1&#45;&gt;Node3 -->
<g id="edge2_Node000001_Node000003" class="edge">
<title>Node1&#45;&gt;Node3</title>
<g id="a_edge2_Node000001_Node000003"><a xlink:title=" ">
<path fill="none" stroke="#63b8ff" d="M156.92,-219.84C150.52,-211.52 142.4,-200.96 135.69,-192.23"/>
<polygon fill="#63b8ff" stroke="#63b8ff" points="138.43,-190.06 129.56,-184.27 132.88,-194.33 138.43,-190.06"/>
</a>
</g>
</g>
<!-- Node15 -->
<g id="Node000015" class="node">
<title>Node15</title>
<g id="a_Node000015"><a xlink:href="../../d2/d0d/message_8h.html" target="_top" xlink:title=" ">
<polygon fill="white" stroke="#666666" points="248.82,-184 178.82,-184 178.82,-165 248.82,-165 248.82,-184"/>
<text text-anchor="middle" x="213.82" y="-172" font-family="Helvetica,sans-Serif" font-size="10.00">message.h</text>
</a>
</g>
</g>
<!-- Node1&#45;&gt;Node15 -->
<g id="edge17_Node000001_Node000015" class="edge">
<title>Node1&#45;&gt;Node15</title>
<g id="a_edge17_Node000001_Node000015"><a xlink:title=" ">
<path fill="none" stroke="#63b8ff" d="M178.95,-219.84C185.49,-211.52 193.8,-200.96 200.66,-192.23"/>
<polygon fill="#63b8ff" stroke="#63b8ff" points="203.49,-194.29 206.92,-184.27 197.99,-189.96 203.49,-194.29"/>
</a>
</g>
</g>
<!-- Node17 -->
<g id="Node000017" class="node">
<title>Node17</title>
<g id="a_Node000017"><a xlink:href="../../d4/d7d/textstream_8h.html" target="_top" xlink:title=" ">
<polygon fill="white" stroke="#666666" points="468.82,-184 388.82,-184 388.82,-165 468.82,-165 468.82,-184"/>
<text text-anchor="middle" x="428.82" y="-172" font-family="Helvetica,sans-Serif" font-size="10.00">textstream.h</text>
</a>
</g>
</g>
<!-- Node1&#45;&gt;Node17 -->
<g id="edge20_Node000001_Node000017" class="edge">
<title>Node1&#45;&gt;Node17</title>
<g id="a_edge20_Node000001_Node000017"><a xlink:title=" ">
<path fill="none" stroke="#63b8ff" d="M230.33,-219.99C276.55,-209.63 338.54,-195.73 380.87,-186.25"/>
<polygon fill="#63b8ff" stroke="#63b8ff" points="381.66,-189.66 390.65,-184.05 380.13,-182.83 381.66,-189.66"/>
</a>
</g>
</g>
<!-- Node4 -->
<g id="Node000004" class="node">
<title>Node4</title>
<g id="a_Node000004"><a xlink:title=" ">
<polygon fill="#e0e0e0" stroke="#999999" points="110.32,-129 17.32,-129 17.32,-110 110.32,-110 110.32,-129"/>
<text text-anchor="middle" x="63.82" y="-117" font-family="Helvetica,sans-Serif" font-size="10.00">unordered_map</text>
</a>
</g>
</g>
<!-- Node3&#45;&gt;Node4 -->
<g id="edge3_Node000003_Node000004" class="edge">
<title>Node3&#45;&gt;Node4</title>
<g id="a_edge3_Node000003_Node000004"><a xlink:title=" ">
<path fill="none" stroke="#63b8ff" d="M113.34,-164.98C104.61,-157.15 91.47,-145.34 80.92,-135.86"/>
<polygon fill="#63b8ff" stroke="#63b8ff" points="83.25,-133.25 73.47,-129.17 78.57,-138.46 83.25,-133.25"/>
</a>
</g>
</g>
<!-- Node5 -->
<g id="Node000005" class="node">
<title>Node5</title>
<g id="a_Node000005"><a xlink:title=" ">
<polygon fill="#e0e0e0" stroke="#999999" points="139.82,-19 95.82,-19 95.82,0 139.82,0 139.82,-19"/>
<text text-anchor="middle" x="117.82" y="-7" font-family="Helvetica,sans-Serif" font-size="10.00">string</text>
</a>
</g>
</g>
<!-- Node3&#45;&gt;Node5 -->
<g id="edge4_Node000003_Node000005" class="edge">
<title>Node3&#45;&gt;Node5</title>
<g id="a_edge4_Node000003_Node000005"><a xlink:title=" ">
<path fill="none" stroke="#63b8ff" d="M89.07,-164.98C58.68,-156.55 17.35,-142.91 7.82,-129 -1.11,-115.97 -5.7,-80.38 12.82,-55 29.87,-31.63 61.66,-20.44 85.82,-15.14"/>
<polygon fill="#63b8ff" stroke="#63b8ff" points="86.5,-18.57 95.63,-13.21 85.15,-11.7 86.5,-18.57"/>
</a>
</g>
</g>
<!-- Node6 -->
<g id="Node000006" class="node">
<title>Node6</title>
<g id="a_Node000006"><a xlink:href="../../d7/d5c/qcstring_8h.html" target="_top" xlink:title=" ">
<polygon fill="white" stroke="#666666" points="305.32,-129 240.32,-129 240.32,-110 305.32,-110 305.32,-129"/>
<text text-anchor="middle" x="272.82" y="-117" font-family="Helvetica,sans-Serif" font-size="10.00">qcstring.h</text>
</a>
</g>
</g>
<!-- Node3&#45;&gt;Node6 -->
<g id="edge5_Node000003_Node000006" class="edge">
<title>Node3&#45;&gt;Node6</title>
<g id="a_edge5_Node000003_Node000006"><a xlink:title=" ">
<path fill="none" stroke="#63b8ff" d="M146.92,-164.98C171.7,-156.23 210.52,-142.51 238.5,-132.62"/>
<polygon fill="#63b8ff" stroke="#63b8ff" points="240.01,-135.8 248.28,-129.17 237.68,-129.2 240.01,-135.8"/>
</a>
</g>
</g>
<!-- Node6&#45;&gt;Node5 -->
<g id="edge6_Node000006_Node000005" class="edge">
<title>Node6&#45;&gt;Node5</title>
<g id="a_edge6_Node000006_Node000005"><a xlink:title=" ">
<path fill="none" stroke="#63b8ff" d="M262.17,-109.97C246.43,-97.48 215.91,-73.68 188.82,-55 173.1,-44.16 154.83,-32.74 140.77,-24.18"/>
<polygon fill="#63b8ff" stroke="#63b8ff" points="142.57,-21.18 132.2,-19.01 138.95,-27.17 142.57,-21.18"/>
</a>
</g>
</g>
<!-- Node7 -->
<g id="Node000007" class="node">
<title>Node7</title>
<g id="a_Node000007"><a xlink:title=" ">
<polygon fill="#e0e0e0" stroke="#999999" points="299.82,-74 235.82,-74 235.82,-55 299.82,-55 299.82,-74"/>
<text text-anchor="middle" x="267.82" y="-62" font-family="Helvetica,sans-Serif" font-size="10.00">algorithm</text>
</a>
</g>
</g>
<!-- Node6&#45;&gt;Node7 -->
<g id="edge7_Node000006_Node000007" class="edge">
<title>Node6&#45;&gt;Node7</title>
<g id="a_edge7_Node000006_Node000007"><a xlink:title=" ">
<path fill="none" stroke="#63b8ff" d="M271.99,-109.75C271.34,-102.8 270.4,-92.85 269.57,-84.13"/>
<polygon fill="#63b8ff" stroke="#63b8ff" points="273.05,-83.72 268.63,-74.09 266.08,-84.37 273.05,-83.72"/>
</a>
</g>
</g>
<!-- Node8 -->
<g id="Node000008" class="node">
<title>Node8</title>
<g id="a_Node000008"><a xlink:title=" ">
<polygon fill="#e0e0e0" stroke="#999999" points="367.32,-74 318.32,-74 318.32,-55 367.32,-55 367.32,-74"/>
<text text-anchor="middle" x="342.82" y="-62" font-family="Helvetica,sans-Serif" font-size="10.00">cctype</text>
</a>
</g>
</g>
<!-- Node6&#45;&gt;Node8 -->
<g id="edge8_Node000006_Node000008" class="edge">
<title>Node6&#45;&gt;Node8</title>
<g id="a_edge8_Node000006_Node000008"><a xlink:title=" ">
<path fill="none" stroke="#63b8ff" d="M284.06,-109.98C294.61,-102 310.62,-89.88 323.26,-80.31"/>
<polygon fill="#63b8ff" stroke="#63b8ff" points="325.5,-83 331.36,-74.17 321.28,-77.42 325.5,-83"/>
</a>
</g>
</g>
<!-- Node9 -->
<g id="Node000009" class="node">
<title>Node9</title>
<g id="a_Node000009"><a xlink:title=" ">
<polygon fill="#e0e0e0" stroke="#999999" points="435.82,-74 385.82,-74 385.82,-55 435.82,-55 435.82,-74"/>
<text text-anchor="middle" x="410.82" y="-62" font-family="Helvetica,sans-Serif" font-size="10.00">cstring</text>
</a>
</g>
</g>
<!-- Node6&#45;&gt;Node9 -->
<g id="edge9_Node000006_Node000009" class="edge">
<title>Node6&#45;&gt;Node9</title>
<g id="a_edge9_Node000006_Node000009"><a xlink:title=" ">
<path fill="none" stroke="#63b8ff" d="M294.99,-109.98C317.59,-101.3 352.88,-87.75 378.57,-77.88"/>
<polygon fill="#63b8ff" stroke="#63b8ff" points="380.16,-81.02 388.24,-74.17 377.65,-74.49 380.16,-81.02"/>
</a>
</g>
</g>
<!-- Node10 -->
<g id="Node000010" class="node">
<title>Node10</title>
<g id="a_Node000010"><a xlink:title=" ">
<polygon fill="#e0e0e0" stroke="#999999" points="601.82,-74 555.82,-74 555.82,-55 601.82,-55 601.82,-74"/>
<text text-anchor="middle" x="578.82" y="-62" font-family="Helvetica,sans-Serif" font-size="10.00">cstdio</text>
</a>
</g>
</g>
<!-- Node6&#45;&gt;Node10 -->
<g id="edge10_Node000006_Node000010" class="edge">
<title>Node6&#45;&gt;Node10</title>
<g id="a_edge10_Node000006_Node000010"><a xlink:title=" ">
<path fill="none" stroke="#63b8ff" d="M305.73,-112.18C309.8,-111.43 313.9,-110.68 317.82,-110 417.14,-92.64 442.85,-93.3 541.82,-74 543.09,-73.75 544.39,-73.49 545.69,-73.22"/>
<polygon fill="#63b8ff" stroke="#63b8ff" points="546.74,-76.58 555.77,-71.04 545.26,-69.74 546.74,-76.58"/>
</a>
</g>
</g>
<!-- Node11 -->
<g id="Node000011" class="node">
<title>Node11</title>
<g id="a_Node000011"><a xlink:title=" ">
<polygon fill="#e0e0e0" stroke="#999999" points="104.32,-74 55.32,-74 55.32,-55 104.32,-55 104.32,-74"/>
<text text-anchor="middle" x="79.82" y="-62" font-family="Helvetica,sans-Serif" font-size="10.00">cstdlib</text>
</a>
</g>
</g>
<!-- Node6&#45;&gt;Node11 -->
<g id="edge11_Node000006_Node000011" class="edge">
<title>Node6&#45;&gt;Node11</title>
<g id="a_edge11_Node000006_Node000011"><a xlink:title=" ">
<path fill="none" stroke="#63b8ff" d="M241.81,-109.98C206.99,-100.42 150.64,-84.95 114.42,-75"/>
<polygon fill="#63b8ff" stroke="#63b8ff" points="114.89,-71.5 104.32,-72.23 113.04,-78.25 114.89,-71.5"/>
</a>
</g>
</g>
<!-- Node12 -->
<g id="Node000012" class="node">
<title>Node12</title>
<g id="a_Node000012"><a xlink:title=" ">
<polygon fill="#e0e0e0" stroke="#999999" points="552.82,-19 502.82,-19 502.82,0 552.82,0 552.82,-19"/>
<text text-anchor="middle" x="527.82" y="-7" font-family="Helvetica,sans-Serif" font-size="10.00">cstdint</text>
</a>
</g>
</g>
<!-- Node6&#45;&gt;Node12 -->
<g id="edge12_Node000006_Node000012" class="edge">
<title>Node6&#45;&gt;Node12</title>
<g id="a_edge12_Node000006_Node000012"><a xlink:title=" ">
<path fill="none" stroke="#63b8ff" d="M305.75,-112.28C309.81,-111.51 313.91,-110.74 317.82,-110 402.7,-93.98 444.63,-131.81 508.82,-74 521.23,-62.82 525.67,-43.9 527.2,-29.61"/>
<polygon fill="#63b8ff" stroke="#63b8ff" points="530.7,-29.59 527.89,-19.38 523.72,-29.12 530.7,-29.59"/>
</a>
</g>
</g>
<!-- Node13 -->
<g id="Node000013" class="node">
<title>Node13</title>
<g id="a_Node000013"><a xlink:title=" ">
<polygon fill="#e0e0e0" stroke="#999999" points="179.32,-74 122.32,-74 122.32,-55 179.32,-55 179.32,-74"/>
<text text-anchor="middle" x="150.82" y="-62" font-family="Helvetica,sans-Serif" font-size="10.00">ostream</text>
</a>
</g>
</g>
<!-- Node6&#45;&gt;Node13 -->
<g id="edge13_Node000006_Node000013" class="edge">
<title>Node6&#45;&gt;Node13</title>
<g id="a_edge13_Node000006_Node000013"><a xlink:title=" ">
<path fill="none" stroke="#63b8ff" d="M253.21,-109.98C233.5,-101.42 202.86,-88.11 180.23,-78.28"/>
<polygon fill="#63b8ff" stroke="#63b8ff" points="181.34,-74.94 170.77,-74.17 178.55,-81.37 181.34,-74.94"/>
</a>
</g>
</g>
<!-- Node14 -->
<g id="Node000014" class="node">
<title>Node14</title>
<g id="a_Node000014"><a xlink:href="../../db/d7c/utf8_8h.html" target="_top" xlink:title="Various UTF8 related helper functions.">
<polygon fill="white" stroke="#666666" points="499.32,-74 454.32,-74 454.32,-55 499.32,-55 499.32,-74"/>
<text text-anchor="middle" x="476.82" y="-62" font-family="Helvetica,sans-Serif" font-size="10.00">utf8.h</text>
</a>
</g>
</g>
<!-- Node6&#45;&gt;Node14 -->
<g id="edge14_Node000006_Node000014" class="edge">
<title>Node6&#45;&gt;Node14</title>
<g id="a_edge14_Node000006_Node000014"><a xlink:title=" ">
<path fill="none" stroke="#63b8ff" d="M305.49,-110.11C338.14,-101.72 390.03,-88.34 444.3,-74.12"/>
<polygon fill="#63b8ff" stroke="#63b8ff" points="445.31,-77.48 454.1,-71.55 443.53,-70.7 445.31,-77.48"/>
</a>
</g>
</g>
<!-- Node14&#45;&gt;Node5 -->
<g id="edge16_Node000014_Node000005" class="edge">
<title>Node14&#45;&gt;Node5</title>
<g id="a_edge16_Node000014_Node000005"><a xlink:title=" ">
<path fill="none" stroke="#63b8ff" d="M454.17,-57.11C451.04,-56.34 447.86,-55.61 444.82,-55 337.98,-33.63 209.43,-19.45 150.38,-13.58"/>
<polygon fill="#63b8ff" stroke="#63b8ff" points="150.47,-10.07 140.18,-12.57 149.79,-17.03 150.47,-10.07"/>
</a>
</g>
</g>
<!-- Node14&#45;&gt;Node12 -->
<g id="edge15_Node000014_Node000012" class="edge">
<title>Node14&#45;&gt;Node12</title>
<g id="a_edge15_Node000014_Node000012"><a xlink:title=" ">
<path fill="none" stroke="#63b8ff" d="M485.24,-54.75C492.59,-47.11 503.45,-35.82 512.36,-26.56"/>
<polygon fill="#63b8ff" stroke="#63b8ff" points="515.14,-28.72 519.55,-19.09 510.1,-23.87 515.14,-28.72"/>
</a>
</g>
</g>
<!-- Node15&#45;&gt;Node6 -->
<g id="edge19_Node000015_Node000006" class="edge">
<title>Node15&#45;&gt;Node6</title>
<g id="a_edge19_Node000015_Node000006"><a xlink:title=" ">
<path fill="none" stroke="#63b8ff" d="M223.3,-164.98C232.02,-157.15 245.16,-145.34 255.71,-135.86"/>
<polygon fill="#63b8ff" stroke="#63b8ff" points="258.06,-138.46 263.16,-129.17 253.39,-133.25 258.06,-138.46"/>
</a>
</g>
</g>
<!-- Node16 -->
<g id="Node000016" class="node">
<title>Node16</title>
<g id="a_Node000016"><a xlink:title=" ">
<polygon fill="#e0e0e0" stroke="#999999" points="181.32,-129 128.32,-129 128.32,-110 181.32,-110 181.32,-129"/>
<text text-anchor="middle" x="154.82" y="-117" font-family="Helvetica,sans-Serif" font-size="10.00">cstdarg</text>
</a>
</g>
</g>
<!-- Node15&#45;&gt;Node16 -->
<g id="edge18_Node000015_Node000016" class="edge">
<title>Node15&#45;&gt;Node16</title>
<g id="a_edge18_Node000015_Node000016"><a xlink:title=" ">
<path fill="none" stroke="#63b8ff" d="M204.34,-164.98C195.61,-157.15 182.47,-145.34 171.92,-135.86"/>
<polygon fill="#63b8ff" stroke="#63b8ff" points="174.25,-133.25 164.47,-129.17 169.57,-138.46 174.25,-133.25"/>
</a>
</g>
</g>
<!-- Node17&#45;&gt;Node5 -->
<g id="edge21_Node000017_Node000005" class="edge">
<title>Node17&#45;&gt;Node5</title>
<g id="a_edge21_Node000017_Node000005"><a xlink:title=" ">
<path fill="none" stroke="#63b8ff" d="M388.51,-166.98C348.2,-159.86 284.76,-147.02 231.82,-129 212.8,-122.53 209.76,-116.67 190.82,-110 128.19,-87.94 86.72,-126.3 45.82,-74 29.81,-53.54 59.98,-34.45 86.04,-22.65"/>
<polygon fill="#63b8ff" stroke="#63b8ff" points="87.55,-25.81 95.36,-18.65 84.79,-19.38 87.55,-25.81"/>
</a>
</g>
</g>
<!-- Node17&#45;&gt;Node6 -->
<g id="edge28_Node000017_Node000006" class="edge">
<title>Node17&#45;&gt;Node6</title>
<g id="a_edge28_Node000017_Node000006"><a xlink:title=" ">
<path fill="none" stroke="#63b8ff" d="M403.75,-164.98C377.79,-156.16 337.01,-142.31 307.86,-132.41"/>
<polygon fill="#63b8ff" stroke="#63b8ff" points="308.67,-128.99 298.08,-129.08 306.42,-135.61 308.67,-128.99"/>
</a>
</g>
</g>
<!-- Node17&#45;&gt;Node10 -->
<g id="edge25_Node000017_Node000010" class="edge">
<title>Node17&#45;&gt;Node10</title>
<g id="a_edge25_Node000017_Node000010"><a xlink:title=" ">
<path fill="none" stroke="#63b8ff" d="M469.03,-167.76C495.76,-162.05 530.01,-150.82 552.82,-129 565.31,-117.04 572,-98.22 575.44,-84.17"/>
<polygon fill="#63b8ff" stroke="#63b8ff" points="578.92,-84.65 577.56,-74.15 572.07,-83.21 578.92,-84.65"/>
</a>
</g>
</g>
<!-- Node17&#45;&gt;Node12 -->
<g id="edge24_Node000017_Node000012" class="edge">
<title>Node17&#45;&gt;Node12</title>
<g id="a_edge24_Node000017_Node000012"><a xlink:title=" ">
<path fill="none" stroke="#63b8ff" d="M468.98,-168.37C499.8,-162.82 542.12,-151.52 572.82,-129 596.77,-111.42 601.97,-102.36 610.82,-74 613.33,-65.94 615.15,-62.25 610.82,-55 600.33,-37.48 580.33,-26.46 562.58,-19.78"/>
<polygon fill="#63b8ff" stroke="#63b8ff" points="563.63,-16.43 553.03,-16.49 561.35,-23.05 563.63,-16.43"/>
</a>
</g>
</g>
<!-- Node18 -->
<g id="Node000018" class="node">
<title>Node18</title>
<g id="a_Node000018"><a xlink:title=" ">
<polygon fill="#e0e0e0" stroke="#999999" points="717.82,-129 657.82,-129 657.82,-110 717.82,-110 717.82,-129"/>
<text text-anchor="middle" x="687.82" y="-117" font-family="Helvetica,sans-Serif" font-size="10.00">iostream</text>
</a>
</g>
</g>
<!-- Node17&#45;&gt;Node18 -->
<g id="edge22_Node000017_Node000018" class="edge">
<title>Node17&#45;&gt;Node18</title>
<g id="a_edge22_Node000017_Node000018"><a xlink:title=" ">
<path fill="none" stroke="#63b8ff" d="M469,-165.28C517.68,-155.31 599.2,-138.63 647.81,-128.69"/>
<polygon fill="#63b8ff" stroke="#63b8ff" points="648.56,-132.11 657.65,-126.67 647.15,-125.25 648.56,-132.11"/>
</a>
</g>
</g>
<!-- Node19 -->
<g id="Node000019" class="node">
<title>Node19</title>
<g id="a_Node000019"><a xlink:title=" ">
<polygon fill="#e0e0e0" stroke="#999999" points="382.82,-129 326.82,-129 326.82,-110 382.82,-110 382.82,-129"/>
<text text-anchor="middle" x="354.82" y="-117" font-family="Helvetica,sans-Serif" font-size="10.00">sstream</text>
</a>
</g>
</g>
<!-- Node17&#45;&gt;Node19 -->
<g id="edge23_Node000017_Node000019" class="edge">
<title>Node17&#45;&gt;Node19</title>
<g id="a_edge23_Node000017_Node000019"><a xlink:title=" ">
<path fill="none" stroke="#63b8ff" d="M416.93,-164.98C405.67,-156.92 388.53,-144.65 375.11,-135.03"/>
<polygon fill="#63b8ff" stroke="#63b8ff" points="377.09,-132.15 366.92,-129.17 373.01,-137.84 377.09,-132.15"/>
</a>
</g>
</g>
<!-- Node20 -->
<g id="Node000020" class="node">
<title>Node20</title>
<g id="a_Node000020"><a xlink:title=" ">
<polygon fill="#e0e0e0" stroke="#999999" points="456.32,-129 401.32,-129 401.32,-110 456.32,-110 456.32,-129"/>
<text text-anchor="middle" x="428.82" y="-117" font-family="Helvetica,sans-Serif" font-size="10.00">fstream</text>
</a>
</g>
</g>
<!-- Node17&#45;&gt;Node20 -->
<g id="edge26_Node000017_Node000020" class="edge">
<title>Node17&#45;&gt;Node20</title>
<g id="a_edge26_Node000017_Node000020"><a xlink:title=" ">
<path fill="none" stroke="#63b8ff" d="M428.82,-164.75C428.82,-157.8 428.82,-147.85 428.82,-139.13"/>
<polygon fill="#63b8ff" stroke="#63b8ff" points="432.32,-139.09 428.82,-129.09 425.32,-139.09 432.32,-139.09"/>
</a>
</g>
</g>
<!-- Node21 -->
<g id="Node000021" class="node">
<title>Node21</title>
<g id="a_Node000021"><a xlink:title=" ">
<polygon fill="#e0e0e0" stroke="#999999" points="543.32,-129 474.32,-129 474.32,-110 543.32,-110 543.32,-129"/>
<text text-anchor="middle" x="508.82" y="-117" font-family="Helvetica,sans-Serif" font-size="10.00">type_traits</text>
</a>
</g>
</g>
<!-- Node17&#45;&gt;Node21 -->
<g id="edge27_Node000017_Node000021" class="edge">
<title>Node17&#45;&gt;Node21</title>
<g id="a_edge27_Node000017_Node000021"><a xlink:title=" ">
<path fill="none" stroke="#63b8ff" d="M441.67,-164.98C453.96,-156.84 472.72,-144.41 487.29,-134.76"/>
<polygon fill="#63b8ff" stroke="#63b8ff" points="489.33,-137.61 495.73,-129.17 485.46,-131.78 489.33,-137.61"/>
</a>
</g>
</g>
</g>
</svg>
