<?xml version="1.0" encoding="UTF-8" standalone="no"?>
<!DOCTYPE svg PUBLIC "-//W3C//DTD SVG 1.1//EN"
 "http://www.w3.org/Graphics/SVG/1.1/DTD/svg11.dtd">
<!-- Generated by graphviz version 2.43.0 (0)
 -->
<!-- Title: TemplateNodeBlock Pages: 1 -->
<svg width="252pt" height="216pt"
 viewBox="0.00 0.00 251.50 216.00" xmlns="http://www.w3.org/2000/svg" xmlns:xlink="http://www.w3.org/1999/xlink">
<g id="graph0" class="graph" transform="scale(1 1) rotate(0) translate(4 212)">
<title>TemplateNodeBlock</title>
<!-- Node1 -->
<g id="Node000001" class="node">
<title>Node1</title>
<g id="a_Node000001"><a xlink:title="Class representing a &#39;block&#39; tag in a template.">
<polygon fill="#999999" stroke="#666666" points="125.5,-19 11.5,-19 11.5,0 125.5,0 125.5,-19"/>
<text text-anchor="middle" x="68.5" y="-7" font-family="Helvetica,sans-Serif" font-size="10.00">TemplateNodeBlock</text>
</a>
</g>
</g>
<!-- Node2 -->
<g id="Node000002" class="node">
<title>Node2</title>
<g id="a_Node000002"><a xlink:href="../../d8/d78/class_template_node_creator.html" target="_top" xlink:title=" ">
<polygon fill="white" stroke="#666666" points="137,-86 0,-86 0,-56 137,-56 137,-86"/>
<text text-anchor="start" x="8" y="-74" font-family="Helvetica,sans-Serif" font-size="10.00">TemplateNodeCreator</text>
<text text-anchor="middle" x="68.5" y="-63" font-family="Helvetica,sans-Serif" font-size="10.00">&lt; TemplateNodeBlock &gt;</text>
</a>
</g>
</g>
<!-- Node2&#45;&gt;Node1 -->
<g id="edge1_Node000001_Node000002" class="edge">
<title>Node2&#45;&gt;Node1</title>
<g id="a_edge1_Node000001_Node000002"><a xlink:title=" ">
<path fill="none" stroke="#63b8ff" d="M68.5,-45.79C68.5,-36.36 68.5,-26.15 68.5,-19.16"/>
<polygon fill="#63b8ff" stroke="#63b8ff" points="65,-45.9 68.5,-55.9 72,-45.9 65,-45.9"/>
</a>
</g>
</g>
<!-- Node3 -->
<g id="Node000003" class="node">
<title>Node3</title>
<g id="a_Node000003"><a xlink:href="../../d6/d53/class_template_node.html" target="_top" xlink:title="Base class of all nodes in a template&#39;s AST.">
<polygon fill="white" stroke="#666666" points="108,-208 21,-208 21,-189 108,-189 108,-208"/>
<text text-anchor="middle" x="64.5" y="-196" font-family="Helvetica,sans-Serif" font-size="10.00">TemplateNode</text>
</a>
</g>
</g>
<!-- Node3&#45;&gt;Node2 -->
<g id="edge2_Node000002_Node000003" class="edge">
<title>Node3&#45;&gt;Node2</title>
<g id="a_edge2_Node000002_Node000003"><a xlink:title=" ">
<path fill="none" stroke="#63b8ff" d="M65.1,-178.76C65.9,-153.48 67.32,-109.02 68.05,-86.27"/>
<polygon fill="#63b8ff" stroke="#63b8ff" points="61.6,-178.77 64.77,-188.87 68.59,-178.99 61.6,-178.77"/>
</a>
</g>
</g>
<!-- Node4 -->
<g id="Node000004" class="node">
<title>Node4</title>
<g id="a_Node000004"><a xlink:href="../../d8/d78/class_template_node_creator.html" target="_top" xlink:title="Helper class for creating template AST tag nodes and returning the template for a given node.">
<polygon fill="white" stroke="#666666" points="232.5,-152 80.5,-152 80.5,-133 232.5,-133 232.5,-152"/>
<text text-anchor="middle" x="156.5" y="-140" font-family="Helvetica,sans-Serif" font-size="10.00">TemplateNodeCreator&lt; T &gt;</text>
</a>
</g>
</g>
<!-- Node3&#45;&gt;Node4 -->
<g id="edge4_Node000004_Node000003" class="edge">
<title>Node3&#45;&gt;Node4</title>
<g id="a_edge4_Node000004_Node000003"><a xlink:title=" ">
<path fill="none" stroke="#63b8ff" d="M88.05,-183.68C104.98,-173.74 127.28,-160.65 141.76,-152.15"/>
<polygon fill="#63b8ff" stroke="#63b8ff" points="86.13,-180.74 79.28,-188.82 89.68,-186.78 86.13,-180.74"/>
</a>
</g>
</g>
<!-- Node4&#45;&gt;Node2 -->
<g id="edge3_Node000002_Node000004" class="edge">
<title>Node4&#45;&gt;Node2</title>
<g id="a_edge3_Node000002_Node000004"><a xlink:title=" ">
<path fill="none" stroke="orange" stroke-dasharray="5,2" d="M137.56,-126.54C122.4,-114.57 101.28,-97.89 86.4,-86.14"/>
<polygon fill="orange" stroke="orange" points="135.69,-129.53 145.71,-132.98 140.03,-124.03 135.69,-129.53"/>
</a>
</g>
<text text-anchor="middle" x="181.5" y="-107" font-family="Helvetica,sans-Serif" font-size="10.00" fill="grey"> &lt; TemplateNodeBlock &gt;</text>
</g>
</g>
</svg>
