<?xml version="1.0" encoding="UTF-8" standalone="no"?>
<!DOCTYPE svg PUBLIC "-//W3C//DTD SVG 1.1//EN"
 "http://www.w3.org/Graphics/SVG/1.1/DTD/svg11.dtd">
<!-- Generated by graphviz version 2.43.0 (0)
 -->
<!-- Title: src/conceptdef.h Pages: 1 -->
<!--zoomable 577 -->

<svg id="main" version="1.1" xmlns="http://www.w3.org/2000/svg" xmlns:xlink="http://www.w3.org/1999/xlink" xml:space="preserve" onload="init(evt)">

<style type="text/css"><![CDATA[
.node, .edge {opacity: 0.7;}
.node.selected, .edge.selected {opacity: 1;}
.edge:hover path { stroke: red; }
.edge:hover polygon { stroke: red; fill: red; }
]]></style>

<defs>
  <circle id="rim" cx="0" cy="0" r="7"/>
  <circle id="rim2" cx="0" cy="0" r="3.5"/>
  <g id="zoomPlus">
    <use xlink:href="#rim" fill="#404040"><set attributeName="fill" to="#808080" begin="zoomplus.mouseover" end="zoomplus.mouseout"/></use>
    <path d="M-4,0h8M0,-4v8" fill="none" stroke="white" stroke-width="1.5" pointer-events="none"/>
  </g>
  <g id="zoomMin">
    <use xlink:href="#rim" fill="#404040"><set attributeName="fill" to="#808080" begin="zoomminus.mouseover" end="zoomminus.mouseout"/></use>
    <path d="M-4,0h8" fill="none" stroke="white" stroke-width="1.5" pointer-events="none"/>
  </g>
  <g id="arrowUp" transform="translate(30 24)">
    <use xlink:href="#rim"/>
    <path pointer-events="none" fill="none" stroke="white" stroke-width="1.5" d="M0,-3.0v7 M-2.5,-0.5L0,-3.0L2.5,-0.5"/>
  </g>
  <g id="arrowRight" transform="rotate(90) translate(36 -43)">
    <use xlink:href="#rim"/>
    <path pointer-events="none" fill="none" stroke="white" stroke-width="1.5" d="M0,-3.0v7 M-2.5,-0.5L0,-3.0L2.5,-0.5"/>
  </g>
  <g id="arrowDown" transform="rotate(180) translate(-30 -48)">
    <use xlink:href="#rim"/>
    <path pointer-events="none" fill="none" stroke="white" stroke-width="1.5" d="M0,-3.0v7 M-2.5,-0.5L0,-3.0L2.5,-0.5"/>
  </g>
  <g id="arrowLeft" transform="rotate(270) translate(-36 17)">
    <use xlink:href="#rim"/>
    <path pointer-events="none" fill="none" stroke="white" stroke-width="1.5" d="M0,-3.0v7 M-2.5,-0.5L0,-3.0L2.5,-0.5"/>
  </g>
  <g id="resetDef">
    <use xlink:href="#rim2" fill="#404040"><set attributeName="fill" to="#808080" begin="reset.mouseover" end="reset.mouseout"/></use>
  </g>
</defs>
<script type="application/ecmascript">
var viewWidth = 1149;
var viewHeight = 577;
var sectionId = 'dynsection-0';
</script>
<script type="application/ecmascript" xlink:href="../../svg.min.js"/>
<svg id="graph" class="graph">
<g id="viewport">
<title>src/conceptdef.h</title>
<!-- Node1 -->
<g id="Node000001" class="node">
<title>Node1</title>
<g id="a_Node000001"><a xlink:title=" ">
<polygon fill="#999999" stroke="#666666" points="796,-569 700,-569 700,-550 796,-550 796,-569"/>
<text text-anchor="middle" x="748" y="-557" font-family="Helvetica,sans-Serif" font-size="10.00">src/conceptdef.h</text>
</a>
</g>
</g>
<!-- Node2 -->
<g id="Node000002" class="node">
<title>Node2</title>
<g id="a_Node000002"><a xlink:title=" ">
<polygon fill="#e0e0e0" stroke="#999999" points="181,-129 123,-129 123,-110 181,-110 181,-129"/>
<text text-anchor="middle" x="152" y="-117" font-family="Helvetica,sans-Serif" font-size="10.00">memory</text>
</a>
</g>
</g>
<!-- Node1&#45;&gt;Node2 -->
<g id="edge1_Node000001_Node000002" class="edge">
<title>Node1&#45;&gt;Node2</title>
<g id="a_edge1_Node000001_Node000002"><a xlink:title=" ">
<path fill="none" stroke="#63b8ff" d="M699.79,-556.64C534.36,-549.63 0,-521.48 0,-450.5 0,-450.5 0,-450.5 0,-393.5 0,-284.83 17.12,-248.22 87,-165 97.55,-152.44 112.47,-141.89 125.36,-134.21"/>
<polygon fill="#63b8ff" stroke="#63b8ff" points="127.32,-137.12 134.29,-129.15 123.87,-131.03 127.32,-137.12"/>
</a>
</g>
</g>
<!-- Node3 -->
<g id="Node000003" class="node">
<title>Node3</title>
<g id="a_Node000003"><a xlink:href="../../df/da1/definition_8h.html" target="_top" xlink:title=" ">
<polygon fill="white" stroke="#666666" points="660.5,-294 589.5,-294 589.5,-275 660.5,-275 660.5,-294"/>
<text text-anchor="middle" x="625" y="-282" font-family="Helvetica,sans-Serif" font-size="10.00">definition.h</text>
</a>
</g>
</g>
<!-- Node1&#45;&gt;Node3 -->
<g id="edge2_Node000001_Node000003" class="edge">
<title>Node1&#45;&gt;Node3</title>
<g id="a_edge2_Node000001_Node000003"><a xlink:title=" ">
<path fill="none" stroke="#63b8ff" d="M758.44,-549.87C767.42,-541.7 779.74,-528.55 785,-514 787.87,-506.06 787.51,-503.06 785,-495 758.38,-409.66 679.23,-332.58 643.21,-300.84"/>
<polygon fill="#63b8ff" stroke="#63b8ff" points="645.28,-298 635.43,-294.1 640.7,-303.29 645.28,-298"/>
</a>
</g>
</g>
<!-- Node21 -->
<g id="Node000021" class="node">
<title>Node21</title>
<g id="a_Node000021"><a xlink:href="../../d4/d3a/filedef_8h.html" target="_top" xlink:title=" ">
<polygon fill="white" stroke="#666666" points="776,-514 720,-514 720,-495 776,-495 776,-514"/>
<text text-anchor="middle" x="748" y="-502" font-family="Helvetica,sans-Serif" font-size="10.00">filedef.h</text>
</a>
</g>
</g>
<!-- Node1&#45;&gt;Node21 -->
<g id="edge33_Node000001_Node000021" class="edge">
<title>Node1&#45;&gt;Node21</title>
<g id="a_edge33_Node000001_Node000021"><a xlink:title=" ">
<path fill="none" stroke="#63b8ff" d="M748,-549.75C748,-542.8 748,-532.85 748,-524.13"/>
<polygon fill="#63b8ff" stroke="#63b8ff" points="751.5,-524.09 748,-514.09 744.5,-524.09 751.5,-524.09"/>
</a>
</g>
</g>
<!-- Node4 -->
<g id="Node000004" class="node">
<title>Node4</title>
<g id="a_Node000004"><a xlink:title=" ">
<polygon fill="#e0e0e0" stroke="#999999" points="470.5,-129 423.5,-129 423.5,-110 470.5,-110 470.5,-129"/>
<text text-anchor="middle" x="447" y="-117" font-family="Helvetica,sans-Serif" font-size="10.00">vector</text>
</a>
</g>
</g>
<!-- Node3&#45;&gt;Node4 -->
<g id="edge3_Node000003_Node000004" class="edge">
<title>Node3&#45;&gt;Node4</title>
<g id="a_edge3_Node000003_Node000004"><a xlink:title=" ">
<path fill="none" stroke="#63b8ff" d="M589.38,-277.38C565.45,-271.47 534.94,-260.17 516,-239 493.21,-213.52 512.87,-194.15 495,-165 488.02,-153.61 477.33,-143.3 467.8,-135.47"/>
<polygon fill="#63b8ff" stroke="#63b8ff" points="469.9,-132.67 459.86,-129.27 465.59,-138.19 469.9,-132.67"/>
</a>
</g>
</g>
<!-- Node5 -->
<g id="Node000005" class="node">
<title>Node5</title>
<g id="a_Node000005"><a xlink:href="../../d9/d49/types_8h.html" target="_top" xlink:title="This file contains a number of basic enums and types.">
<polygon fill="white" stroke="#666666" points="726.5,-239 673.5,-239 673.5,-220 726.5,-220 726.5,-239"/>
<text text-anchor="middle" x="700" y="-227" font-family="Helvetica,sans-Serif" font-size="10.00">types.h</text>
</a>
</g>
</g>
<!-- Node3&#45;&gt;Node5 -->
<g id="edge4_Node000003_Node000005" class="edge">
<title>Node3&#45;&gt;Node5</title>
<g id="a_edge4_Node000003_Node000005"><a xlink:title=" ">
<path fill="none" stroke="#63b8ff" d="M637.05,-274.98C648.46,-266.92 665.83,-254.65 679.43,-245.03"/>
<polygon fill="#63b8ff" stroke="#63b8ff" points="681.58,-247.8 687.73,-239.17 677.54,-242.08 681.58,-247.8"/>
</a>
</g>
</g>
<!-- Node17 -->
<g id="Node000017" class="node">
<title>Node17</title>
<g id="a_Node000017"><a xlink:href="../../d1/d02/reflist_8h.html" target="_top" xlink:title=" ">
<polygon fill="white" stroke="#666666" points="578.5,-239 525.5,-239 525.5,-220 578.5,-220 578.5,-239"/>
<text text-anchor="middle" x="552" y="-227" font-family="Helvetica,sans-Serif" font-size="10.00">reflist.h</text>
</a>
</g>
</g>
<!-- Node3&#45;&gt;Node17 -->
<g id="edge18_Node000003_Node000017" class="edge">
<title>Node3&#45;&gt;Node17</title>
<g id="a_edge18_Node000003_Node000017"><a xlink:title=" ">
<path fill="none" stroke="#63b8ff" d="M613.27,-274.98C602.27,-267 585.58,-254.88 572.4,-245.31"/>
<polygon fill="#63b8ff" stroke="#63b8ff" points="574.09,-242.21 563.94,-239.17 569.98,-247.88 574.09,-242.21"/>
</a>
</g>
</g>
<!-- Node20 -->
<g id="Node000020" class="node">
<title>Node20</title>
<g id="a_Node000020"><a xlink:href="../../d7/dfc/construct_8h.html" target="_top" xlink:title=" ">
<polygon fill="white" stroke="#666666" points="689.5,-184 618.5,-184 618.5,-165 689.5,-165 689.5,-184"/>
<text text-anchor="middle" x="654" y="-172" font-family="Helvetica,sans-Serif" font-size="10.00">construct.h</text>
</a>
</g>
</g>
<!-- Node3&#45;&gt;Node20 -->
<g id="edge32_Node000003_Node000020" class="edge">
<title>Node3&#45;&gt;Node20</title>
<g id="a_edge32_Node000003_Node000020"><a xlink:title=" ">
<path fill="none" stroke="#63b8ff" d="M624.78,-274.67C624.72,-262.22 625.45,-238.91 631,-220 633.75,-210.63 638.52,-200.91 643,-192.96"/>
<polygon fill="#63b8ff" stroke="#63b8ff" points="646.06,-194.66 648.17,-184.27 640.05,-191.08 646.06,-194.66"/>
</a>
</g>
</g>
<!-- Node6 -->
<g id="Node000006" class="node">
<title>Node6</title>
<g id="a_Node000006"><a xlink:href="../../d7/d5c/qcstring_8h.html" target="_top" xlink:title=" ">
<polygon fill="white" stroke="#666666" points="688.5,-129 623.5,-129 623.5,-110 688.5,-110 688.5,-129"/>
<text text-anchor="middle" x="656" y="-117" font-family="Helvetica,sans-Serif" font-size="10.00">qcstring.h</text>
</a>
</g>
</g>
<!-- Node5&#45;&gt;Node6 -->
<g id="edge5_Node000005_Node000006" class="edge">
<title>Node5&#45;&gt;Node6</title>
<g id="a_edge5_Node000005_Node000006"><a xlink:title=" ">
<path fill="none" stroke="#63b8ff" d="M701.59,-219.88C703.51,-207.28 705.62,-183.33 698,-165 693.3,-153.7 684.33,-143.56 675.88,-135.82"/>
<polygon fill="#63b8ff" stroke="#63b8ff" points="677.97,-133.01 668.09,-129.18 673.43,-138.34 677.97,-133.01"/>
</a>
</g>
</g>
<!-- Node7 -->
<g id="Node000007" class="node">
<title>Node7</title>
<g id="a_Node000007"><a xlink:title=" ">
<polygon fill="#e0e0e0" stroke="#999999" points="610,-19 566,-19 566,0 610,0 610,-19"/>
<text text-anchor="middle" x="588" y="-7" font-family="Helvetica,sans-Serif" font-size="10.00">string</text>
</a>
</g>
</g>
<!-- Node6&#45;&gt;Node7 -->
<g id="edge6_Node000006_Node000007" class="edge">
<title>Node6&#45;&gt;Node7</title>
<g id="a_edge6_Node000006_Node000007"><a xlink:title=" ">
<path fill="none" stroke="#63b8ff" d="M634.44,-109.98C619.42,-102.8 600.46,-90.96 591,-74 583.44,-60.45 583.28,-42.62 584.67,-29.31"/>
<polygon fill="#63b8ff" stroke="#63b8ff" points="588.14,-29.77 586.08,-19.38 581.21,-28.79 588.14,-29.77"/>
</a>
</g>
</g>
<!-- Node8 -->
<g id="Node000008" class="node">
<title>Node8</title>
<g id="a_Node000008"><a xlink:title=" ">
<polygon fill="#e0e0e0" stroke="#999999" points="1083.5,-74 1010.5,-74 1010.5,-55 1083.5,-55 1083.5,-74"/>
<text text-anchor="middle" x="1047" y="-62" font-family="Helvetica,sans-Serif" font-size="10.00">string_view</text>
</a>
</g>
</g>
<!-- Node6&#45;&gt;Node8 -->
<g id="edge7_Node000006_Node000008" class="edge">
<title>Node6&#45;&gt;Node8</title>
<g id="a_edge7_Node000006_Node000008"><a xlink:title=" ">
<path fill="none" stroke="#63b8ff" d="M688.66,-114.07C757.96,-104.68 919.91,-82.73 1000.18,-71.85"/>
<polygon fill="#63b8ff" stroke="#63b8ff" points="1001.05,-75.26 1010.49,-70.45 1000.11,-68.32 1001.05,-75.26"/>
</a>
</g>
</g>
<!-- Node9 -->
<g id="Node000009" class="node">
<title>Node9</title>
<g id="a_Node000009"><a xlink:title=" ">
<polygon fill="#e0e0e0" stroke="#999999" points="442,-74 378,-74 378,-55 442,-55 442,-74"/>
<text text-anchor="middle" x="410" y="-62" font-family="Helvetica,sans-Serif" font-size="10.00">algorithm</text>
</a>
</g>
</g>
<!-- Node6&#45;&gt;Node9 -->
<g id="edge8_Node000006_Node000009" class="edge">
<title>Node6&#45;&gt;Node9</title>
<g id="a_edge8_Node000006_Node000009"><a xlink:title=" ">
<path fill="none" stroke="#63b8ff" d="M623.33,-111.46C579.16,-101.95 500.35,-84.97 451.88,-74.52"/>
<polygon fill="#63b8ff" stroke="#63b8ff" points="452.53,-71.08 442.02,-72.4 451.06,-77.93 452.53,-71.08"/>
</a>
</g>
</g>
<!-- Node10 -->
<g id="Node000010" class="node">
<title>Node10</title>
<g id="a_Node000010"><a xlink:title=" ">
<polygon fill="#e0e0e0" stroke="#999999" points="924.5,-74 875.5,-74 875.5,-55 924.5,-55 924.5,-74"/>
<text text-anchor="middle" x="900" y="-62" font-family="Helvetica,sans-Serif" font-size="10.00">cctype</text>
</a>
</g>
</g>
<!-- Node6&#45;&gt;Node10 -->
<g id="edge9_Node000006_Node000010" class="edge">
<title>Node6&#45;&gt;Node10</title>
<g id="a_edge9_Node000006_Node000010"><a xlink:title=" ">
<path fill="none" stroke="#63b8ff" d="M688.82,-111.93C728.27,-103.94 796.74,-89.82 865.07,-74.15"/>
<polygon fill="#63b8ff" stroke="#63b8ff" points="866.18,-77.48 875.14,-71.82 864.61,-70.66 866.18,-77.48"/>
</a>
</g>
</g>
<!-- Node11 -->
<g id="Node000011" class="node">
<title>Node11</title>
<g id="a_Node000011"><a xlink:title=" ">
<polygon fill="#e0e0e0" stroke="#999999" points="857,-74 807,-74 807,-55 857,-55 857,-74"/>
<text text-anchor="middle" x="832" y="-62" font-family="Helvetica,sans-Serif" font-size="10.00">cstring</text>
</a>
</g>
</g>
<!-- Node6&#45;&gt;Node11 -->
<g id="edge10_Node000006_Node000011" class="edge">
<title>Node6&#45;&gt;Node11</title>
<g id="a_edge10_Node000006_Node000011"><a xlink:title=" ">
<path fill="none" stroke="#63b8ff" d="M684.28,-109.98C715.01,-100.73 764.14,-85.93 797.22,-75.97"/>
<polygon fill="#63b8ff" stroke="#63b8ff" points="798.36,-79.28 806.93,-73.05 796.34,-72.58 798.36,-79.28"/>
</a>
</g>
</g>
<!-- Node12 -->
<g id="Node000012" class="node">
<title>Node12</title>
<g id="a_Node000012"><a xlink:title=" ">
<polygon fill="#e0e0e0" stroke="#999999" points="646,-74 600,-74 600,-55 646,-55 646,-74"/>
<text text-anchor="middle" x="623" y="-62" font-family="Helvetica,sans-Serif" font-size="10.00">cstdio</text>
</a>
</g>
</g>
<!-- Node6&#45;&gt;Node12 -->
<g id="edge11_Node000006_Node000012" class="edge">
<title>Node6&#45;&gt;Node12</title>
<g id="a_edge11_Node000006_Node000012"><a xlink:title=" ">
<path fill="none" stroke="#63b8ff" d="M650.55,-109.75C645.99,-102.42 639.33,-91.73 633.71,-82.7"/>
<polygon fill="#63b8ff" stroke="#63b8ff" points="636.6,-80.73 628.35,-74.09 630.66,-84.43 636.6,-80.73"/>
</a>
</g>
</g>
<!-- Node13 -->
<g id="Node000013" class="node">
<title>Node13</title>
<g id="a_Node000013"><a xlink:title=" ">
<polygon fill="#e0e0e0" stroke="#999999" points="713.5,-74 664.5,-74 664.5,-55 713.5,-55 713.5,-74"/>
<text text-anchor="middle" x="689" y="-62" font-family="Helvetica,sans-Serif" font-size="10.00">cstdlib</text>
</a>
</g>
</g>
<!-- Node6&#45;&gt;Node13 -->
<g id="edge12_Node000006_Node000013" class="edge">
<title>Node6&#45;&gt;Node13</title>
<g id="a_edge12_Node000006_Node000013"><a xlink:title=" ">
<path fill="none" stroke="#63b8ff" d="M661.45,-109.75C666.01,-102.42 672.67,-91.73 678.29,-82.7"/>
<polygon fill="#63b8ff" stroke="#63b8ff" points="681.34,-84.43 683.65,-74.09 675.4,-80.73 681.34,-84.43"/>
</a>
</g>
</g>
<!-- Node14 -->
<g id="Node000014" class="node">
<title>Node14</title>
<g id="a_Node000014"><a xlink:title=" ">
<polygon fill="#e0e0e0" stroke="#999999" points="530,-19 480,-19 480,0 530,0 530,-19"/>
<text text-anchor="middle" x="505" y="-7" font-family="Helvetica,sans-Serif" font-size="10.00">cstdint</text>
</a>
</g>
</g>
<!-- Node6&#45;&gt;Node14 -->
<g id="edge13_Node000006_Node000014" class="edge">
<title>Node6&#45;&gt;Node14</title>
<g id="a_edge13_Node000006_Node000014"><a xlink:title=" ">
<path fill="none" stroke="#63b8ff" d="M623.47,-114.52C579.65,-108.42 505.27,-95.17 489,-74 478.76,-60.67 485.69,-41.55 493.37,-27.78"/>
<polygon fill="#63b8ff" stroke="#63b8ff" points="496.36,-29.59 498.6,-19.24 490.39,-25.93 496.36,-29.59"/>
</a>
</g>
</g>
<!-- Node15 -->
<g id="Node000015" class="node">
<title>Node15</title>
<g id="a_Node000015"><a xlink:title=" ">
<polygon fill="#e0e0e0" stroke="#999999" points="788.5,-74 731.5,-74 731.5,-55 788.5,-55 788.5,-74"/>
<text text-anchor="middle" x="760" y="-62" font-family="Helvetica,sans-Serif" font-size="10.00">ostream</text>
</a>
</g>
</g>
<!-- Node6&#45;&gt;Node15 -->
<g id="edge14_Node000006_Node000015" class="edge">
<title>Node6&#45;&gt;Node15</title>
<g id="a_edge14_Node000006_Node000015"><a xlink:title=" ">
<path fill="none" stroke="#63b8ff" d="M672.71,-109.98C689.21,-101.57 714.7,-88.59 733.88,-78.81"/>
<polygon fill="#63b8ff" stroke="#63b8ff" points="735.67,-81.83 742.99,-74.17 732.49,-75.59 735.67,-81.83"/>
</a>
</g>
</g>
<!-- Node16 -->
<g id="Node000016" class="node">
<title>Node16</title>
<g id="a_Node000016"><a xlink:href="../../db/d7c/utf8_8h.html" target="_top" xlink:title="Various UTF8 related helper functions.">
<polygon fill="white" stroke="#666666" points="543.5,-74 498.5,-74 498.5,-55 543.5,-55 543.5,-74"/>
<text text-anchor="middle" x="521" y="-62" font-family="Helvetica,sans-Serif" font-size="10.00">utf8.h</text>
</a>
</g>
</g>
<!-- Node6&#45;&gt;Node16 -->
<g id="edge15_Node000006_Node000016" class="edge">
<title>Node6&#45;&gt;Node16</title>
<g id="a_edge15_Node000006_Node000016"><a xlink:title=" ">
<path fill="none" stroke="#63b8ff" d="M634.31,-109.98C612.2,-101.3 577.68,-87.75 552.55,-77.88"/>
<polygon fill="#63b8ff" stroke="#63b8ff" points="553.67,-74.57 543.08,-74.17 551.11,-81.08 553.67,-74.57"/>
</a>
</g>
</g>
<!-- Node16&#45;&gt;Node7 -->
<g id="edge17_Node000016_Node000007" class="edge">
<title>Node16&#45;&gt;Node7</title>
<g id="a_edge17_Node000016_Node000007"><a xlink:title=" ">
<path fill="none" stroke="#63b8ff" d="M531.76,-54.98C541.77,-47.07 556.89,-35.11 568.93,-25.58"/>
<polygon fill="#63b8ff" stroke="#63b8ff" points="571.37,-28.12 577.04,-19.17 567.03,-22.63 571.37,-28.12"/>
</a>
</g>
</g>
<!-- Node16&#45;&gt;Node14 -->
<g id="edge16_Node000016_Node000014" class="edge">
<title>Node16&#45;&gt;Node14</title>
<g id="a_edge16_Node000016_Node000014"><a xlink:title=" ">
<path fill="none" stroke="#63b8ff" d="M518.36,-54.75C516.24,-47.72 513.19,-37.62 510.54,-28.84"/>
<polygon fill="#63b8ff" stroke="#63b8ff" points="513.83,-27.65 507.59,-19.09 507.13,-29.67 513.83,-27.65"/>
</a>
</g>
</g>
<!-- Node17&#45;&gt;Node2 -->
<g id="edge21_Node000017_Node000002" class="edge">
<title>Node17&#45;&gt;Node2</title>
<g id="a_edge21_Node000017_Node000002"><a xlink:title=" ">
<path fill="none" stroke="#63b8ff" d="M525.45,-221.33C456.59,-202.74 272.03,-152.91 191.03,-131.04"/>
<polygon fill="#63b8ff" stroke="#63b8ff" points="191.78,-127.62 181.22,-128.39 189.96,-134.37 191.78,-127.62"/>
</a>
</g>
</g>
<!-- Node17&#45;&gt;Node4 -->
<g id="edge19_Node000017_Node000004" class="edge">
<title>Node17&#45;&gt;Node4</title>
<g id="a_edge19_Node000017_Node000004"><a xlink:title=" ">
<path fill="none" stroke="#63b8ff" d="M550.67,-219.71C548.26,-206.46 542.06,-181.2 528,-165 515.16,-150.21 496.16,-139.41 479.78,-132.15"/>
<polygon fill="#63b8ff" stroke="#63b8ff" points="481.08,-128.91 470.51,-128.29 478.39,-135.37 481.08,-128.91"/>
</a>
</g>
</g>
<!-- Node17&#45;&gt;Node6 -->
<g id="edge22_Node000017_Node000006" class="edge">
<title>Node17&#45;&gt;Node6</title>
<g id="a_edge22_Node000017_Node000006"><a xlink:title=" ">
<path fill="none" stroke="#63b8ff" d="M559.53,-219.67C570.23,-207.21 590.6,-183.89 609,-165 618.6,-155.14 629.78,-144.52 638.82,-136.14"/>
<polygon fill="#63b8ff" stroke="#63b8ff" points="641.43,-138.49 646.42,-129.15 636.69,-133.34 641.43,-138.49"/>
</a>
</g>
</g>
<!-- Node18 -->
<g id="Node000018" class="node">
<title>Node18</title>
<g id="a_Node000018"><a xlink:title=" ">
<polygon fill="#e0e0e0" stroke="#999999" points="1074.5,-129 981.5,-129 981.5,-110 1074.5,-110 1074.5,-129"/>
<text text-anchor="middle" x="1028" y="-117" font-family="Helvetica,sans-Serif" font-size="10.00">unordered_map</text>
</a>
</g>
</g>
<!-- Node17&#45;&gt;Node18 -->
<g id="edge20_Node000017_Node000018" class="edge">
<title>Node17&#45;&gt;Node18</title>
<g id="a_edge20_Node000017_Node000018"><a xlink:title=" ">
<path fill="none" stroke="#63b8ff" d="M578.78,-226.24C669.03,-218.55 957.43,-193.37 975,-184 994.33,-173.69 1009.45,-153.11 1018.5,-138.17"/>
<polygon fill="#63b8ff" stroke="#63b8ff" points="1021.63,-139.74 1023.56,-129.33 1015.56,-136.27 1021.63,-139.74"/>
</a>
</g>
</g>
<!-- Node19 -->
<g id="Node000019" class="node">
<title>Node19</title>
<g id="a_Node000019"><a xlink:href="../../da/de1/linkedmap_8h.html" target="_top" xlink:title=" ">
<polygon fill="white" stroke="#666666" points="965.5,-184 888.5,-184 888.5,-165 965.5,-165 965.5,-184"/>
<text text-anchor="middle" x="927" y="-172" font-family="Helvetica,sans-Serif" font-size="10.00">linkedmap.h</text>
</a>
</g>
</g>
<!-- Node17&#45;&gt;Node19 -->
<g id="edge23_Node000017_Node000019" class="edge">
<title>Node17&#45;&gt;Node19</title>
<g id="a_edge23_Node000017_Node000019"><a xlink:title=" ">
<path fill="none" stroke="#63b8ff" d="M578.67,-224.73C641.12,-215.9 797.63,-193.78 877.88,-182.44"/>
<polygon fill="#63b8ff" stroke="#63b8ff" points="878.8,-185.85 888.21,-180.98 877.82,-178.92 878.8,-185.85"/>
</a>
</g>
</g>
<!-- Node17&#45;&gt;Node20 -->
<g id="edge31_Node000017_Node000020" class="edge">
<title>Node17&#45;&gt;Node20</title>
<g id="a_edge31_Node000017_Node000020"><a xlink:title=" ">
<path fill="none" stroke="#63b8ff" d="M568.39,-219.98C584.57,-211.57 609.57,-198.59 628.38,-188.81"/>
<polygon fill="#63b8ff" stroke="#63b8ff" points="630.05,-191.89 637.31,-184.17 626.83,-185.68 630.05,-191.89"/>
</a>
</g>
</g>
<!-- Node19&#45;&gt;Node2 -->
<g id="edge26_Node000019_Node000002" class="edge">
<title>Node19&#45;&gt;Node2</title>
<g id="a_edge26_Node000019_Node000002"><a xlink:title=" ">
<path fill="none" stroke="#63b8ff" d="M888.3,-170.85C756.24,-161.82 324.15,-132.27 191.25,-123.18"/>
<polygon fill="#63b8ff" stroke="#63b8ff" points="191.34,-119.68 181.12,-122.49 190.86,-126.67 191.34,-119.68"/>
</a>
</g>
</g>
<!-- Node19&#45;&gt;Node4 -->
<g id="edge25_Node000019_Node000004" class="edge">
<title>Node19&#45;&gt;Node4</title>
<g id="a_edge25_Node000019_Node000004"><a xlink:title=" ">
<path fill="none" stroke="#63b8ff" d="M888.25,-167.03C883.46,-166.31 878.62,-165.61 874,-165 728.16,-145.72 553.39,-129.72 480.99,-123.4"/>
<polygon fill="#63b8ff" stroke="#63b8ff" points="480.93,-119.88 470.66,-122.5 480.32,-126.86 480.93,-119.88"/>
</a>
</g>
</g>
<!-- Node19&#45;&gt;Node6 -->
<g id="edge30_Node000019_Node000006" class="edge">
<title>Node19&#45;&gt;Node6</title>
<g id="a_edge30_Node000019_Node000006"><a xlink:title=" ">
<path fill="none" stroke="#63b8ff" d="M888.46,-165.96C838.32,-156.16 750.98,-139.08 698.82,-128.87"/>
<polygon fill="#63b8ff" stroke="#63b8ff" points="699.37,-125.41 688.88,-126.93 698.02,-132.28 699.37,-125.41"/>
</a>
</g>
</g>
<!-- Node19&#45;&gt;Node7 -->
<g id="edge27_Node000019_Node000007" class="edge">
<title>Node19&#45;&gt;Node7</title>
<g id="a_edge27_Node000019_Node000007"><a xlink:title=" ">
<path fill="none" stroke="#63b8ff" d="M931.08,-164.72C940.46,-143.07 960.75,-86.56 933,-55 912.49,-31.67 702.07,-17.1 620.27,-12.27"/>
<polygon fill="#63b8ff" stroke="#63b8ff" points="620.25,-8.77 610.06,-11.68 619.85,-15.75 620.25,-8.77"/>
</a>
</g>
</g>
<!-- Node19&#45;&gt;Node9 -->
<g id="edge28_Node000019_Node000009" class="edge">
<title>Node19&#45;&gt;Node9</title>
<g id="a_edge28_Node000019_Node000009"><a xlink:title=" ">
<path fill="none" stroke="#63b8ff" d="M888.23,-167.18C883.44,-166.43 878.61,-165.69 874,-165 758.62,-147.76 727.85,-154.42 614,-129 552.43,-115.25 482.62,-91.74 442.7,-77.51"/>
<polygon fill="#63b8ff" stroke="#63b8ff" points="443.81,-74.19 433.22,-74.1 441.45,-80.78 443.81,-74.19"/>
</a>
</g>
</g>
<!-- Node19&#45;&gt;Node10 -->
<g id="edge29_Node000019_Node000010" class="edge">
<title>Node19&#45;&gt;Node10</title>
<g id="a_edge29_Node000019_Node000010"><a xlink:title=" ">
<path fill="none" stroke="#63b8ff" d="M924.79,-164.66C920.4,-147.09 910.49,-107.45 904.61,-83.95"/>
<polygon fill="#63b8ff" stroke="#63b8ff" points="907.99,-83.01 902.16,-74.16 901.19,-84.71 907.99,-83.01"/>
</a>
</g>
</g>
<!-- Node19&#45;&gt;Node18 -->
<g id="edge24_Node000019_Node000018" class="edge">
<title>Node19&#45;&gt;Node18</title>
<g id="a_edge24_Node000019_Node000018"><a xlink:title=" ">
<path fill="none" stroke="#63b8ff" d="M943.23,-164.98C959.18,-156.61 983.78,-143.7 1002.38,-133.95"/>
<polygon fill="#63b8ff" stroke="#63b8ff" points="1004.25,-136.92 1011.48,-129.17 1001,-130.72 1004.25,-136.92"/>
</a>
</g>
</g>
<!-- Node21&#45;&gt;Node2 -->
<g id="edge34_Node000021_Node000002" class="edge">
<title>Node21&#45;&gt;Node2</title>
<g id="a_edge34_Node000021_Node000002"><a xlink:title=" ">
<path fill="none" stroke="#63b8ff" d="M719.98,-500.66C592.8,-487.03 76,-423.18 76,-285.5 76,-285.5 76,-285.5 76,-228.5 76,-189.47 109.61,-154.58 132.13,-135.6"/>
<polygon fill="#63b8ff" stroke="#63b8ff" points="134.56,-138.14 140.12,-129.12 130.15,-132.7 134.56,-138.14"/>
</a>
</g>
</g>
<!-- Node21&#45;&gt;Node3 -->
<g id="edge36_Node000021_Node000003" class="edge">
<title>Node21&#45;&gt;Node3</title>
<g id="a_edge36_Node000021_Node000003"><a xlink:title=" ">
<path fill="none" stroke="#63b8ff" d="M743.18,-494.95C724.93,-462.61 659.85,-347.26 634.87,-302.98"/>
<polygon fill="#63b8ff" stroke="#63b8ff" points="637.88,-301.21 629.92,-294.22 631.79,-304.65 637.88,-301.21"/>
</a>
</g>
</g>
<!-- Node22 -->
<g id="Node000022" class="node">
<title>Node22</title>
<g id="a_Node000022"><a xlink:title=" ">
<polygon fill="#e0e0e0" stroke="#999999" points="887,-239 801,-239 801,-220 887,-220 887,-239"/>
<text text-anchor="middle" x="844" y="-227" font-family="Helvetica,sans-Serif" font-size="10.00">unordered_set</text>
</a>
</g>
</g>
<!-- Node21&#45;&gt;Node22 -->
<g id="edge35_Node000021_Node000022" class="edge">
<title>Node21&#45;&gt;Node22</title>
<g id="a_edge35_Node000021_Node000022"><a xlink:title=" ">
<path fill="none" stroke="#63b8ff" d="M764.12,-494.88C791.22,-479.07 843,-442.7 843,-395.5 843,-395.5 843,-395.5 843,-338.5 843,-307.19 843.43,-270.77 843.72,-249.23"/>
<polygon fill="#63b8ff" stroke="#63b8ff" points="847.22,-249.23 843.87,-239.18 840.22,-249.13 847.22,-249.23"/>
</a>
</g>
</g>
<!-- Node23 -->
<g id="Node000023" class="node">
<title>Node23</title>
<g id="a_Node000023"><a xlink:href="../../dd/d78/memberlist_8h.html" target="_top" xlink:title=" ">
<polygon fill="white" stroke="#666666" points="674,-459 592,-459 592,-440 674,-440 674,-459"/>
<text text-anchor="middle" x="633" y="-447" font-family="Helvetica,sans-Serif" font-size="10.00">memberlist.h</text>
</a>
</g>
</g>
<!-- Node21&#45;&gt;Node23 -->
<g id="edge37_Node000021_Node000023" class="edge">
<title>Node21&#45;&gt;Node23</title>
<g id="a_edge37_Node000021_Node000023"><a xlink:title=" ">
<path fill="none" stroke="#63b8ff" d="M729.52,-494.98C711.02,-486.46 682.32,-473.23 661.02,-463.41"/>
<polygon fill="#63b8ff" stroke="#63b8ff" points="662.36,-460.18 651.81,-459.17 659.43,-466.53 662.36,-460.18"/>
</a>
</g>
</g>
<!-- Node29 -->
<g id="Node000029" class="node">
<title>Node29</title>
<g id="a_Node000029"><a xlink:href="../../d5/d75/containers_8h.html" target="_top" xlink:title=" ">
<polygon fill="white" stroke="#666666" points="996.5,-294 919.5,-294 919.5,-275 996.5,-275 996.5,-294"/>
<text text-anchor="middle" x="958" y="-282" font-family="Helvetica,sans-Serif" font-size="10.00">containers.h</text>
</a>
</g>
</g>
<!-- Node21&#45;&gt;Node29 -->
<g id="edge76_Node000021_Node000029" class="edge">
<title>Node21&#45;&gt;Node29</title>
<g id="a_edge76_Node000021_Node000029"><a xlink:title=" ">
<path fill="none" stroke="#63b8ff" d="M776.21,-497.4C799.97,-491.09 833.71,-479.25 857,-459 907.79,-414.84 939.43,-338.59 951.9,-303.78"/>
<polygon fill="#63b8ff" stroke="#63b8ff" points="955.32,-304.62 955.28,-294.03 948.7,-302.33 955.32,-304.62"/>
</a>
</g>
</g>
<!-- Node23&#45;&gt;Node4 -->
<g id="edge38_Node000023_Node000004" class="edge">
<title>Node23&#45;&gt;Node4</title>
<g id="a_edge38_Node000023_Node000004"><a xlink:title=" ">
<path fill="none" stroke="#63b8ff" d="M591.97,-445.84C493,-438.42 246.06,-413.65 202,-349 146.18,-267.1 241.94,-214.16 328,-165 355.27,-149.42 389.02,-137.41 413.6,-129.81"/>
<polygon fill="#63b8ff" stroke="#63b8ff" points="414.63,-133.16 423.2,-126.92 412.62,-126.45 414.63,-133.16"/>
</a>
</g>
</g>
<!-- Node23&#45;&gt;Node5 -->
<g id="edge73_Node000023_Node000005" class="edge">
<title>Node23&#45;&gt;Node5</title>
<g id="a_edge73_Node000023_Node000005"><a xlink:title=" ">
<path fill="none" stroke="#63b8ff" d="M641.97,-439.98C658.06,-423.98 691.23,-387.59 703,-349 713.37,-315 708.38,-272.93 704.04,-249.16"/>
<polygon fill="#63b8ff" stroke="#63b8ff" points="707.42,-248.2 702.03,-239.08 700.55,-249.57 707.42,-248.2"/>
</a>
</g>
</g>
<!-- Node23&#45;&gt;Node9 -->
<g id="edge39_Node000023_Node000009" class="edge">
<title>Node23&#45;&gt;Node9</title>
<g id="a_edge39_Node000023_Node000009"><a xlink:title=" ">
<path fill="none" stroke="#63b8ff" d="M591.94,-446.23C506.56,-441.11 312.7,-427.25 251,-404 124.1,-356.18 0,-366.11 0,-230.5 0,-230.5 0,-230.5 0,-173.5 0,-98.07 262.81,-74.19 367.61,-67.67"/>
<polygon fill="#63b8ff" stroke="#63b8ff" points="368.06,-71.15 377.83,-67.06 367.64,-64.16 368.06,-71.15"/>
</a>
</g>
</g>
<!-- Node23&#45;&gt;Node19 -->
<g id="edge72_Node000023_Node000019" class="edge">
<title>Node23&#45;&gt;Node19</title>
<g id="a_edge72_Node000023_Node000019"><a xlink:title=" ">
<path fill="none" stroke="#63b8ff" d="M671.46,-439.98C743.33,-422.55 900.29,-377.29 1006,-294 1035.37,-270.86 1067.31,-250.72 1046,-220 1030.13,-197.12 1000.97,-185.98 975.49,-180.57"/>
<polygon fill="#63b8ff" stroke="#63b8ff" points="976.06,-177.12 965.58,-178.71 974.76,-184 976.06,-177.12"/>
</a>
</g>
</g>
<!-- Node23&#45;&gt;Node20 -->
<g id="edge75_Node000023_Node000020" class="edge">
<title>Node23&#45;&gt;Node20</title>
<g id="a_edge75_Node000023_Node000020"><a xlink:title=" ">
<path fill="none" stroke="#63b8ff" d="M636.54,-439.95C646.51,-414.9 673.83,-339.42 669,-275 668.41,-267.11 661.15,-220.58 656.95,-194.03"/>
<polygon fill="#63b8ff" stroke="#63b8ff" points="660.39,-193.38 655.36,-184.05 653.47,-194.47 660.39,-193.38"/>
</a>
</g>
</g>
<!-- Node24 -->
<g id="Node000024" class="node">
<title>Node24</title>
<g id="a_Node000024"><a xlink:href="../../d4/d46/memberdef_8h.html" target="_top" xlink:title=" ">
<polygon fill="white" stroke="#666666" points="433,-404 351,-404 351,-385 433,-385 433,-404"/>
<text text-anchor="middle" x="392" y="-392" font-family="Helvetica,sans-Serif" font-size="10.00">memberdef.h</text>
</a>
</g>
</g>
<!-- Node23&#45;&gt;Node24 -->
<g id="edge40_Node000023_Node000024" class="edge">
<title>Node23&#45;&gt;Node24</title>
<g id="a_edge40_Node000023_Node000024"><a xlink:title=" ">
<path fill="none" stroke="#63b8ff" d="M594.28,-439.98C552.59,-430.82 486.18,-416.21 440.91,-406.26"/>
<polygon fill="#63b8ff" stroke="#63b8ff" points="441.54,-402.81 431.02,-404.08 440.04,-409.65 441.54,-402.81"/>
</a>
</g>
</g>
<!-- Node33 -->
<g id="Node000033" class="node">
<title>Node33</title>
<g id="a_Node000033"><a xlink:href="../../d9/d11/membergroup_8h.html" target="_top" xlink:title=" ">
<polygon fill="white" stroke="#666666" points="571.5,-294 476.5,-294 476.5,-275 571.5,-275 571.5,-294"/>
<text text-anchor="middle" x="524" y="-282" font-family="Helvetica,sans-Serif" font-size="10.00">membergroup.h</text>
</a>
</g>
</g>
<!-- Node23&#45;&gt;Node33 -->
<g id="edge74_Node000023_Node000033" class="edge">
<title>Node23&#45;&gt;Node33</title>
<g id="a_edge74_Node000023_Node000033"><a xlink:title=" ">
<path fill="none" stroke="#63b8ff" d="M627.14,-439.74C609.84,-413.87 558.76,-337.48 535.62,-302.88"/>
<polygon fill="#63b8ff" stroke="#63b8ff" points="538.36,-300.67 529.89,-294.31 532.54,-304.57 538.36,-300.67"/>
</a>
</g>
</g>
<!-- Node24&#45;&gt;Node2 -->
<g id="edge42_Node000024_Node000002" class="edge">
<title>Node24&#45;&gt;Node2</title>
<g id="a_edge42_Node000024_Node000002"><a xlink:title=" ">
<path fill="none" stroke="#63b8ff" d="M350.66,-388.97C301.19,-382.71 222.45,-369.75 202,-349 144.56,-290.71 146.57,-182.59 150.03,-139.22"/>
<polygon fill="#63b8ff" stroke="#63b8ff" points="153.53,-139.29 150.97,-129.01 146.56,-138.65 153.53,-139.29"/>
</a>
</g>
</g>
<!-- Node24&#45;&gt;Node3 -->
<g id="edge46_Node000024_Node000003" class="edge">
<title>Node24&#45;&gt;Node3</title>
<g id="a_edge46_Node000024_Node000003"><a xlink:title=" ">
<path fill="none" stroke="#63b8ff" d="M412.43,-384.87C433.1,-376.08 465.92,-361.92 494,-349 530.6,-332.15 572.42,-311.66 598.76,-298.6"/>
<polygon fill="#63b8ff" stroke="#63b8ff" points="600.33,-301.73 607.73,-294.14 597.22,-295.46 600.33,-301.73"/>
</a>
</g>
</g>
<!-- Node24&#45;&gt;Node4 -->
<g id="edge41_Node000024_Node000004" class="edge">
<title>Node24&#45;&gt;Node4</title>
<g id="a_edge41_Node000024_Node000004"><a xlink:title=" ">
<path fill="none" stroke="#63b8ff" d="M350.59,-389.31C302.12,-383.45 226.28,-370.98 209,-349 203.78,-342.36 205.99,-337.89 209,-330 243.96,-238.22 277.75,-224.35 356,-165 373.62,-151.64 395.88,-140.67 413.97,-132.96"/>
<polygon fill="#63b8ff" stroke="#63b8ff" points="415.62,-136.07 423.54,-129.02 412.96,-129.59 415.62,-136.07"/>
</a>
</g>
</g>
<!-- Node24&#45;&gt;Node5 -->
<g id="edge45_Node000024_Node000005" class="edge">
<title>Node24&#45;&gt;Node5</title>
<g id="a_edge45_Node000024_Node000005"><a xlink:title=" ">
<path fill="none" stroke="#63b8ff" d="M433.35,-388.8C492.49,-380.05 601.53,-356.14 669,-294 682.1,-281.93 690.31,-263.13 694.97,-249.11"/>
<polygon fill="#63b8ff" stroke="#63b8ff" points="698.45,-249.7 697.96,-239.11 691.74,-247.69 698.45,-249.7"/>
</a>
</g>
</g>
<!-- Node25 -->
<g id="Node000025" class="node">
<title>Node25</title>
<g id="a_Node000025"><a xlink:title=" ">
<polygon fill="#e0e0e0" stroke="#999999" points="274,-349 218,-349 218,-330 274,-330 274,-349"/>
<text text-anchor="middle" x="246" y="-337" font-family="Helvetica,sans-Serif" font-size="10.00">optional</text>
</a>
</g>
</g>
<!-- Node24&#45;&gt;Node25 -->
<g id="edge43_Node000024_Node000025" class="edge">
<title>Node24&#45;&gt;Node25</title>
<g id="a_edge43_Node000024_Node000025"><a xlink:title=" ">
<path fill="none" stroke="#63b8ff" d="M368.54,-384.98C344.42,-376.23 306.63,-362.51 279.4,-352.62"/>
<polygon fill="#63b8ff" stroke="#63b8ff" points="280.48,-349.29 269.88,-349.17 278.09,-355.87 280.48,-349.29"/>
</a>
</g>
</g>
<!-- Node26 -->
<g id="Node000026" class="node">
<title>Node26</title>
<g id="a_Node000026"><a xlink:title=" ">
<polygon fill="#e0e0e0" stroke="#999999" points="364,-349 292,-349 292,-330 364,-330 364,-349"/>
<text text-anchor="middle" x="328" y="-337" font-family="Helvetica,sans-Serif" font-size="10.00">sys/types.h</text>
</a>
</g>
</g>
<!-- Node24&#45;&gt;Node26 -->
<g id="edge44_Node000024_Node000026" class="edge">
<title>Node24&#45;&gt;Node26</title>
<g id="a_edge44_Node000024_Node000026"><a xlink:title=" ">
<path fill="none" stroke="#63b8ff" d="M381.72,-384.98C372.16,-377.07 357.72,-365.11 346.22,-355.58"/>
<polygon fill="#63b8ff" stroke="#63b8ff" points="348.4,-352.85 338.47,-349.17 343.94,-358.24 348.4,-352.85"/>
</a>
</g>
</g>
<!-- Node27 -->
<g id="Node000027" class="node">
<title>Node27</title>
<g id="a_Node000027"><a xlink:href="../../df/d9b/arguments_8h.html" target="_top" xlink:title=" ">
<polygon fill="white" stroke="#666666" points="486,-184 408,-184 408,-165 486,-165 486,-184"/>
<text text-anchor="middle" x="447" y="-172" font-family="Helvetica,sans-Serif" font-size="10.00">arguments.h</text>
</a>
</g>
</g>
<!-- Node24&#45;&gt;Node27 -->
<g id="edge47_Node000024_Node000027" class="edge">
<title>Node24&#45;&gt;Node27</title>
<g id="a_edge47_Node000024_Node000027"><a xlink:title=" ">
<path fill="none" stroke="#63b8ff" d="M391.2,-384.93C389.63,-371.96 385.15,-347.06 373,-330 357.12,-307.69 335.48,-318.37 323,-294 319.15,-286.48 319.35,-282.61 323,-275 342.71,-233.91 388.59,-204.43 418.67,-188.68"/>
<polygon fill="#63b8ff" stroke="#63b8ff" points="420.48,-191.68 427.83,-184.05 417.33,-185.43 420.48,-191.68"/>
</a>
</g>
</g>
<!-- Node28 -->
<g id="Node000028" class="node">
<title>Node28</title>
<g id="a_Node000028"><a xlink:href="../../d1/da6/classdef_8h.html" target="_top" xlink:title=" ">
<polygon fill="white" stroke="#666666" points="485.5,-349 420.5,-349 420.5,-330 485.5,-330 485.5,-349"/>
<text text-anchor="middle" x="453" y="-337" font-family="Helvetica,sans-Serif" font-size="10.00">classdef.h</text>
</a>
</g>
</g>
<!-- Node24&#45;&gt;Node28 -->
<g id="edge50_Node000024_Node000028" class="edge">
<title>Node24&#45;&gt;Node28</title>
<g id="a_edge50_Node000024_Node000028"><a xlink:title=" ">
<path fill="none" stroke="#63b8ff" d="M401.8,-384.98C410.82,-377.15 424.41,-365.34 435.32,-355.86"/>
<polygon fill="#63b8ff" stroke="#63b8ff" points="437.77,-358.37 443.02,-349.17 433.18,-353.09 437.77,-358.37"/>
</a>
</g>
</g>
<!-- Node27&#45;&gt;Node4 -->
<g id="edge48_Node000027_Node000004" class="edge">
<title>Node27&#45;&gt;Node4</title>
<g id="a_edge48_Node000027_Node000004"><a xlink:title=" ">
<path fill="none" stroke="#63b8ff" d="M447,-164.75C447,-157.8 447,-147.85 447,-139.13"/>
<polygon fill="#63b8ff" stroke="#63b8ff" points="450.5,-139.09 447,-129.09 443.5,-139.09 450.5,-139.09"/>
</a>
</g>
</g>
<!-- Node27&#45;&gt;Node6 -->
<g id="edge49_Node000027_Node000006" class="edge">
<title>Node27&#45;&gt;Node6</title>
<g id="a_edge49_Node000027_Node000006"><a xlink:title=" ">
<path fill="none" stroke="#63b8ff" d="M480.58,-164.98C516.67,-155.83 574.13,-141.26 613.38,-131.31"/>
<polygon fill="#63b8ff" stroke="#63b8ff" points="614.36,-134.67 623.19,-128.82 612.64,-127.89 614.36,-134.67"/>
</a>
</g>
</g>
<!-- Node28&#45;&gt;Node2 -->
<g id="edge51_Node000028_Node000002" class="edge">
<title>Node28&#45;&gt;Node2</title>
<g id="a_edge51_Node000028_Node000002"><a xlink:title=" ">
<path fill="none" stroke="#63b8ff" d="M420.49,-333.33C390.3,-327.42 345.01,-315.62 311,-294 243.56,-251.12 186.35,-172.47 163.11,-137.75"/>
<polygon fill="#63b8ff" stroke="#63b8ff" points="165.9,-135.62 157.48,-129.19 160.05,-139.47 165.9,-135.62"/>
</a>
</g>
</g>
<!-- Node28&#45;&gt;Node3 -->
<g id="edge63_Node000028_Node000003" class="edge">
<title>Node28&#45;&gt;Node3</title>
<g id="a_edge63_Node000028_Node000003"><a xlink:title=" ">
<path fill="none" stroke="#63b8ff" d="M480.63,-329.98C509.51,-321.09 555.01,-307.07 587.2,-297.15"/>
<polygon fill="#63b8ff" stroke="#63b8ff" points="588.62,-300.37 597.15,-294.08 586.56,-293.68 588.62,-300.37"/>
</a>
</g>
</g>
<!-- Node28&#45;&gt;Node4 -->
<g id="edge52_Node000028_Node000004" class="edge">
<title>Node28&#45;&gt;Node4</title>
<g id="a_edge52_Node000028_Node000004"><a xlink:title=" ">
<path fill="none" stroke="#63b8ff" d="M420.36,-337.44C389.58,-334.49 344.98,-324.76 323,-294 280.62,-234.7 376.76,-163.99 423.43,-134.5"/>
<polygon fill="#63b8ff" stroke="#63b8ff" points="425.39,-137.4 432.05,-129.17 421.7,-131.45 425.39,-137.4"/>
</a>
</g>
</g>
<!-- Node28&#45;&gt;Node22 -->
<g id="edge53_Node000028_Node000022" class="edge">
<title>Node28&#45;&gt;Node22</title>
<g id="a_edge53_Node000028_Node000022"><a xlink:title=" ">
<path fill="none" stroke="#63b8ff" d="M485.56,-333.31C528.15,-326.17 604.89,-312.13 669,-294 720.94,-279.31 779.59,-256.76 814.09,-242.86"/>
<polygon fill="#63b8ff" stroke="#63b8ff" points="815.62,-246.01 823.57,-239.01 812.99,-239.53 815.62,-246.01"/>
</a>
</g>
</g>
<!-- Node28&#45;&gt;Node27 -->
<g id="edge64_Node000028_Node000027" class="edge">
<title>Node28&#45;&gt;Node27</title>
<g id="a_edge64_Node000028_Node000027"><a xlink:title=" ">
<path fill="none" stroke="#63b8ff" d="M452.68,-329.74C451.74,-304.31 449.01,-230.08 447.71,-194.69"/>
<polygon fill="#63b8ff" stroke="#63b8ff" points="451.19,-194.17 447.32,-184.31 444.19,-194.43 451.19,-194.17"/>
</a>
</g>
</g>
<!-- Node28&#45;&gt;Node29 -->
<g id="edge54_Node000028_Node000029" class="edge">
<title>Node28&#45;&gt;Node29</title>
<g id="a_edge54_Node000028_Node000029"><a xlink:title=" ">
<path fill="none" stroke="#63b8ff" d="M485.75,-335.06C572.17,-325.99 806.78,-301.37 909.14,-290.63"/>
<polygon fill="#63b8ff" stroke="#63b8ff" points="909.63,-294.1 919.21,-289.57 908.9,-287.13 909.63,-294.1"/>
</a>
</g>
</g>
<!-- Node28&#45;&gt;Node33 -->
<g id="edge65_Node000028_Node000033" class="edge">
<title>Node28&#45;&gt;Node33</title>
<g id="a_edge65_Node000028_Node000033"><a xlink:title=" ">
<path fill="none" stroke="#63b8ff" d="M464.41,-329.98C475.11,-322 491.34,-309.88 504.16,-300.31"/>
<polygon fill="#63b8ff" stroke="#63b8ff" points="506.47,-302.96 512.39,-294.17 502.28,-297.35 506.47,-302.96"/>
</a>
</g>
</g>
<!-- Node34 -->
<g id="Node000034" class="node">
<title>Node34</title>
<g id="a_Node000034"><a xlink:title=" ">
<polygon fill="#e0e0e0" stroke="#999999" points="419.5,-294 332.5,-294 332.5,-275 419.5,-275 419.5,-294"/>
<text text-anchor="middle" x="376" y="-282" font-family="Helvetica,sans-Serif" font-size="10.00">configvalues.h</text>
</a>
</g>
</g>
<!-- Node28&#45;&gt;Node34 -->
<g id="edge71_Node000028_Node000034" class="edge">
<title>Node28&#45;&gt;Node34</title>
<g id="a_edge71_Node000028_Node000034"><a xlink:title=" ">
<path fill="none" stroke="#63b8ff" d="M440.63,-329.98C428.91,-321.92 411.08,-309.65 397.11,-300.03"/>
<polygon fill="#63b8ff" stroke="#63b8ff" points="398.82,-296.96 388.6,-294.17 394.85,-302.72 398.82,-296.96"/>
</a>
</g>
</g>
<!-- Node29&#45;&gt;Node4 -->
<g id="edge55_Node000029_Node000004" class="edge">
<title>Node29&#45;&gt;Node4</title>
<g id="a_edge55_Node000029_Node000004"><a xlink:title=" ">
<path fill="none" stroke="#63b8ff" d="M951.84,-274.68C941.75,-260.92 920.4,-234.43 896,-220 824.53,-177.72 572.76,-138.46 480.88,-125.22"/>
<polygon fill="#63b8ff" stroke="#63b8ff" points="481.13,-121.72 470.74,-123.77 480.14,-128.65 481.13,-121.72"/>
</a>
</g>
</g>
<!-- Node29&#45;&gt;Node7 -->
<g id="edge56_Node000029_Node000007" class="edge">
<title>Node29&#45;&gt;Node7</title>
<g id="a_edge56_Node000029_Node000007"><a xlink:title=" ">
<path fill="none" stroke="#63b8ff" d="M996.81,-278.15C1050.53,-268.32 1141,-241.9 1141,-175.5 1141,-175.5 1141,-175.5 1141,-118.5 1141,-83.12 1123.95,-72.14 1093,-55 1011.36,-9.79 718.48,-8.95 620.32,-9.99"/>
<polygon fill="#63b8ff" stroke="#63b8ff" points="620.08,-6.49 610.13,-10.11 620.17,-13.49 620.08,-6.49"/>
</a>
</g>
</g>
<!-- Node29&#45;&gt;Node8 -->
<g id="edge57_Node000029_Node000008" class="edge">
<title>Node29&#45;&gt;Node8</title>
<g id="a_edge57_Node000029_Node000008"><a xlink:title=" ">
<path fill="none" stroke="#63b8ff" d="M996.74,-276.53C1019.39,-270.44 1046.64,-259.26 1063,-239 1099.49,-193.81 1103.74,-164.63 1084,-110 1080.06,-99.09 1072.14,-88.96 1064.64,-81.14"/>
<polygon fill="#63b8ff" stroke="#63b8ff" points="1067.05,-78.6 1057.44,-74.13 1062.16,-83.61 1067.05,-78.6"/>
</a>
</g>
</g>
<!-- Node29&#45;&gt;Node18 -->
<g id="edge61_Node000029_Node000018" class="edge">
<title>Node29&#45;&gt;Node18</title>
<g id="a_edge61_Node000029_Node000018"><a xlink:title=" ">
<path fill="none" stroke="#63b8ff" d="M994.29,-274.94C1013.21,-268.44 1034.7,-257.38 1046,-239 1065.36,-207.51 1049.19,-162.67 1037.47,-138.17"/>
<polygon fill="#63b8ff" stroke="#63b8ff" points="1040.48,-136.35 1032.84,-129.01 1034.23,-139.51 1040.48,-136.35"/>
</a>
</g>
</g>
<!-- Node29&#45;&gt;Node22 -->
<g id="edge60_Node000029_Node000022" class="edge">
<title>Node29&#45;&gt;Node22</title>
<g id="a_edge60_Node000029_Node000022"><a xlink:title=" ">
<path fill="none" stroke="#63b8ff" d="M939.68,-274.98C921.34,-266.46 892.89,-253.23 871.77,-243.41"/>
<polygon fill="#63b8ff" stroke="#63b8ff" points="873.19,-240.21 862.65,-239.17 870.24,-246.56 873.19,-240.21"/>
</a>
</g>
</g>
<!-- Node30 -->
<g id="Node000030" class="node">
<title>Node30</title>
<g id="a_Node000030"><a xlink:title=" ">
<polygon fill="#e0e0e0" stroke="#999999" points="1037,-239 1005,-239 1005,-220 1037,-220 1037,-239"/>
<text text-anchor="middle" x="1021" y="-227" font-family="Helvetica,sans-Serif" font-size="10.00">set</text>
</a>
</g>
</g>
<!-- Node29&#45;&gt;Node30 -->
<g id="edge58_Node000029_Node000030" class="edge">
<title>Node29&#45;&gt;Node30</title>
<g id="a_edge58_Node000029_Node000030"><a xlink:title=" ">
<path fill="none" stroke="#63b8ff" d="M968.12,-274.98C977.44,-267.15 991.47,-255.34 1002.74,-245.86"/>
<polygon fill="#63b8ff" stroke="#63b8ff" points="1005.29,-248.29 1010.69,-239.17 1000.79,-242.93 1005.29,-248.29"/>
</a>
</g>
</g>
<!-- Node31 -->
<g id="Node000031" class="node">
<title>Node31</title>
<g id="a_Node000031"><a xlink:title=" ">
<polygon fill="#e0e0e0" stroke="#999999" points="783,-239 745,-239 745,-220 783,-220 783,-239"/>
<text text-anchor="middle" x="764" y="-227" font-family="Helvetica,sans-Serif" font-size="10.00">map</text>
</a>
</g>
</g>
<!-- Node29&#45;&gt;Node31 -->
<g id="edge59_Node000029_Node000031" class="edge">
<title>Node29&#45;&gt;Node31</title>
<g id="a_edge59_Node000029_Node000031"><a xlink:title=" ">
<path fill="none" stroke="#63b8ff" d="M924.84,-274.95C893.3,-266.75 844.29,-253.8 793.16,-239.27"/>
<polygon fill="#63b8ff" stroke="#63b8ff" points="793.83,-235.82 783.26,-236.44 791.91,-242.55 793.83,-235.82"/>
</a>
</g>
</g>
<!-- Node32 -->
<g id="Node000032" class="node">
<title>Node32</title>
<g id="a_Node000032"><a xlink:title=" ">
<polygon fill="#e0e0e0" stroke="#999999" points="986.5,-239 943.5,-239 943.5,-220 986.5,-220 986.5,-239"/>
<text text-anchor="middle" x="965" y="-227" font-family="Helvetica,sans-Serif" font-size="10.00">stack</text>
</a>
</g>
</g>
<!-- Node29&#45;&gt;Node32 -->
<g id="edge62_Node000029_Node000032" class="edge">
<title>Node29&#45;&gt;Node32</title>
<g id="a_edge62_Node000029_Node000032"><a xlink:title=" ">
<path fill="none" stroke="#63b8ff" d="M959.16,-274.75C960.07,-267.8 961.39,-257.85 962.54,-249.13"/>
<polygon fill="#63b8ff" stroke="#63b8ff" points="966.03,-249.46 963.87,-239.09 959.09,-248.54 966.03,-249.46"/>
</a>
</g>
</g>
<!-- Node33&#45;&gt;Node2 -->
<g id="edge68_Node000033_Node000002" class="edge">
<title>Node33&#45;&gt;Node2</title>
<g id="a_edge68_Node000033_Node000002"><a xlink:title=" ">
<path fill="none" stroke="#63b8ff" d="M504.44,-274.98C483.9,-266.03 450.67,-251.55 422,-239 334.25,-200.6 230.54,-155.03 181.07,-133.28"/>
<polygon fill="#63b8ff" stroke="#63b8ff" points="182.21,-129.96 171.64,-129.14 179.39,-136.37 182.21,-129.96"/>
</a>
</g>
</g>
<!-- Node33&#45;&gt;Node4 -->
<g id="edge66_Node000033_Node000004" class="edge">
<title>Node33&#45;&gt;Node4</title>
<g id="a_edge66_Node000033_Node000004"><a xlink:title=" ">
<path fill="none" stroke="#63b8ff" d="M504.68,-275C475.45,-260.92 421.04,-229.72 399,-184 390.06,-165.45 407.79,-146.98 424.17,-134.78"/>
<polygon fill="#63b8ff" stroke="#63b8ff" points="426.26,-137.59 432.47,-129.01 422.26,-131.85 426.26,-137.59"/>
</a>
</g>
</g>
<!-- Node33&#45;&gt;Node5 -->
<g id="edge69_Node000033_Node000005" class="edge">
<title>Node33&#45;&gt;Node5</title>
<g id="a_edge69_Node000033_Node000005"><a xlink:title=" ">
<path fill="none" stroke="#63b8ff" d="M552.28,-274.98C582.48,-265.89 630.46,-251.44 663.5,-241.49"/>
<polygon fill="#63b8ff" stroke="#63b8ff" points="664.67,-244.79 673.24,-238.56 662.65,-238.09 664.67,-244.79"/>
</a>
</g>
</g>
<!-- Node33&#45;&gt;Node17 -->
<g id="edge70_Node000033_Node000017" class="edge">
<title>Node33&#45;&gt;Node17</title>
<g id="a_edge70_Node000033_Node000017"><a xlink:title=" ">
<path fill="none" stroke="#63b8ff" d="M528.62,-274.75C532.46,-267.49 538.02,-256.95 542.76,-247.98"/>
<polygon fill="#63b8ff" stroke="#63b8ff" points="545.89,-249.57 547.46,-239.09 539.7,-246.3 545.89,-249.57"/>
</a>
</g>
</g>
<!-- Node33&#45;&gt;Node31 -->
<g id="edge67_Node000033_Node000031" class="edge">
<title>Node33&#45;&gt;Node31</title>
<g id="a_edge67_Node000033_Node000031"><a xlink:title=" ">
<path fill="none" stroke="#63b8ff" d="M569.51,-274.96C612.4,-266.66 678.36,-253.25 735,-239 735.1,-238.98 735.2,-238.95 735.3,-238.93"/>
<polygon fill="#63b8ff" stroke="#63b8ff" points="735.97,-242.37 744.71,-236.38 734.15,-235.61 735.97,-242.37"/>
</a>
</g>
</g>
</g>
</svg>

<g id="navigator" transform="translate(0 0)" fill="#404254">
  <rect fill="#f2f5e9" fill-opacity="0.5" stroke="#606060" stroke-width=".5" x="0" y="0" width="60" height="60"/>
  <use id="zoomplus" xlink:href="#zoomPlus" x="17" y="9" onmousedown="handleZoom(evt,'in')"/>
  <use id="zoomminus" xlink:href="#zoomMin" x="42" y="9" onmousedown="handleZoom(evt,'out')"/>
  <use id="reset" xlink:href="#resetDef" x="30" y="36" onmousedown="handleReset()"/>
   <use id="arrowup" xlink:href="#arrowUp" x="0" y="0" onmousedown="handlePan(0,-1)"/>
  <use id="arrowright" xlink:href="#arrowRight" x="0" y="0" onmousedown="handlePan(1,0)"/>
  <use id="arrowdown" xlink:href="#arrowDown" x="0" y="0" onmousedown="handlePan(0,1)"/>
  <use id="arrowleft" xlink:href="#arrowLeft" x="0" y="0" onmousedown="handlePan(-1,0)"/>
</g>
<svg viewBox="0 0 15 15" width="100%" height="30px" preserveAspectRatio="xMaxYMin meet">
 <g id="arrow_out" transform="scale(0.3 0.3)">
  <a xlink:href="conceptdef_8h__incl_org.svg" target="_base">
   <rect id="button" ry="5" rx="5" y="6" x="6" height="38" width="38"
        fill="#f2f5e9" fill-opacity="0.5" stroke="#606060" stroke-width="1.0"/>
   <path id="arrow"
     d="M 11.500037,31.436501 C 11.940474,20.09759 22.043105,11.32322 32.158766,21.979434 L 37.068811,17.246167 C 37.068811,17.246167 37.088388,32 37.088388,32 L 22.160133,31.978069 C 22.160133,31.978069 26.997745,27.140456 26.997745,27.140456 C 18.528582,18.264221 13.291696,25.230495 11.500037,31.436501 z"
     style="fill:#404040;"/>
  </a>
 </g>
</svg>

<style type='text/css'>
<![CDATA[
[data-mouse-over-selected='false'] { opacity: 0.7; }
[data-mouse-over-selected='true']  { opacity: 1.0; }
]]>
</style>
<script type="application/ecmascript"><![CDATA[
document.addEventListener('DOMContentLoaded', (event) => {
  highlightEdges();
  highlightAdjacentNodes();
});
]]></script>
</svg>
