<?xml version="1.0" encoding="UTF-8" standalone="no"?>
<!DOCTYPE svg PUBLIC "-//W3C//DTD SVG 1.1//EN"
 "http://www.w3.org/Graphics/SVG/1.1/DTD/svg11.dtd">
<!-- Generated by graphviz version 2.43.0 (0)
 -->
<!-- Title: src/conceptdef.h Pages: 1 -->
<!--zoomable 577 -->

<svg id="main" version="1.1" xmlns="http://www.w3.org/2000/svg" xmlns:xlink="http://www.w3.org/1999/xlink" xml:space="preserve" onload="init(evt)">
<style type="text/css"><![CDATA[
.node, .edge {opacity: 0.7;}
.node.selected, .edge.selected {opacity: 1;}
.edge:hover path { stroke: red; }
.edge:hover polygon { stroke: red; fill: red; }
]]></style>

<defs>
  <circle id="rim" cx="0" cy="0" r="7"/>
  <circle id="rim2" cx="0" cy="0" r="3.5"/>
  <g id="zoomPlus">
    <use xlink:href="#rim" fill="#404040"><set attributeName="fill" to="#808080" begin="zoomplus.mouseover" end="zoomplus.mouseout"/></use>
    <path d="M-4,0h8M0,-4v8" fill="none" stroke="white" stroke-width="1.5" pointer-events="none"/>
  </g>
  <g id="zoomMin">
    <use xlink:href="#rim" fill="#404040"><set attributeName="fill" to="#808080" begin="zoomminus.mouseover" end="zoomminus.mouseout"/></use>
    <path d="M-4,0h8" fill="none" stroke="white" stroke-width="1.5" pointer-events="none"/>
  </g>
  <g id="arrowUp" transform="translate(30 24)">
    <use xlink:href="#rim"/>
    <path pointer-events="none" fill="none" stroke="white" stroke-width="1.5" d="M0,-3.0v7 M-2.5,-0.5L0,-3.0L2.5,-0.5"/>
  </g>
  <g id="arrowRight" transform="rotate(90) translate(36 -43)">
    <use xlink:href="#rim"/>
    <path pointer-events="none" fill="none" stroke="white" stroke-width="1.5" d="M0,-3.0v7 M-2.5,-0.5L0,-3.0L2.5,-0.5"/>
  </g>
  <g id="arrowDown" transform="rotate(180) translate(-30 -48)">
    <use xlink:href="#rim"/>
    <path pointer-events="none" fill="none" stroke="white" stroke-width="1.5" d="M0,-3.0v7 M-2.5,-0.5L0,-3.0L2.5,-0.5"/>
  </g>
  <g id="arrowLeft" transform="rotate(270) translate(-36 17)">
    <use xlink:href="#rim"/>
    <path pointer-events="none" fill="none" stroke="white" stroke-width="1.5" d="M0,-3.0v7 M-2.5,-0.5L0,-3.0L2.5,-0.5"/>
  </g>
  <g id="resetDef">
    <use xlink:href="#rim2" fill="#404040"><set attributeName="fill" to="#808080" begin="reset.mouseover" end="reset.mouseout"/></use>
  </g>
</defs>
<script type="application/ecmascript">
var viewWidth = 1071;
var viewHeight = 577;
var sectionId = 'dynsection-0';
</script>
<script type="application/ecmascript" xlink:href="../../svg.min.js"/>
<svg id="graph" class="graph">
<g id="viewport">
<title>src/conceptdef.h</title>
<!-- Node1 -->
<g id="Node000001" class="node">
<title>Node1</title>
<g id="a_Node000001"><a xlink:title=" ">
<polygon fill="#999999" stroke="#666666" points="641,-569 545,-569 545,-550 641,-550 641,-569"/>
<text text-anchor="middle" x="593" y="-557" font-family="Helvetica,sans-Serif" font-size="10.00">src/conceptdef.h</text>
</a>
</g>
</g>
<!-- Node2 -->
<g id="Node000002" class="node">
<title>Node2</title>
<g id="a_Node000002"><a xlink:title=" ">
<polygon fill="#e0e0e0" stroke="#999999" points="181,-129 123,-129 123,-110 181,-110 181,-129"/>
<text text-anchor="middle" x="152" y="-117" font-family="Helvetica,sans-Serif" font-size="10.00">memory</text>
</a>
</g>
</g>
<!-- Node1&#45;&gt;Node2 -->
<g id="edge1_Node000001_Node000002" class="edge">
<title>Node1&#45;&gt;Node2</title>
<g id="a_edge1_Node000001_Node000002"><a xlink:title=" ">
<path fill="none" stroke="#63b8ff" d="M544.97,-554.82C403.8,-543.36 0,-505.77 0,-450.5 0,-450.5 0,-450.5 0,-228.5 0,-173.12 67.87,-143.53 112.91,-129.99"/>
<polygon fill="#63b8ff" stroke="#63b8ff" points="114.04,-133.31 122.69,-127.19 112.12,-126.58 114.04,-133.31"/>
</a>
</g>
</g>
<!-- Node3 -->
<g id="Node000003" class="node">
<title>Node3</title>
<g id="a_Node000003"><a xlink:href="../../df/da1/definition_8h.html" target="_top" xlink:title=" ">
<polygon fill="white" stroke="#666666" points="698.5,-294 627.5,-294 627.5,-275 698.5,-275 698.5,-294"/>
<text text-anchor="middle" x="663" y="-282" font-family="Helvetica,sans-Serif" font-size="10.00">definition.h</text>
</a>
</g>
</g>
<!-- Node1&#45;&gt;Node3 -->
<g id="edge2_Node000001_Node000003" class="edge">
<title>Node1&#45;&gt;Node3</title>
<g id="a_edge2_Node000001_Node000003"><a xlink:title=" ">
<path fill="none" stroke="#63b8ff" d="M595.25,-549.73C605.1,-511.3 644.57,-357.38 658.28,-303.91"/>
<polygon fill="#63b8ff" stroke="#63b8ff" points="661.7,-304.66 660.79,-294.11 654.92,-302.92 661.7,-304.66"/>
</a>
</g>
</g>
<!-- Node20 -->
<g id="Node000020" class="node">
<title>Node20</title>
<g id="a_Node000020"><a xlink:href="../../d4/d3a/filedef_8h.html" target="_top" xlink:title=" ">
<polygon fill="white" stroke="#666666" points="702,-514 646,-514 646,-495 702,-495 702,-514"/>
<text text-anchor="middle" x="674" y="-502" font-family="Helvetica,sans-Serif" font-size="10.00">filedef.h</text>
</a>
</g>
</g>
<!-- Node1&#45;&gt;Node20 -->
<g id="edge31_Node000001_Node000020" class="edge">
<title>Node1&#45;&gt;Node20</title>
<g id="a_edge31_Node000001_Node000020"><a xlink:title=" ">
<path fill="none" stroke="#63b8ff" d="M606.01,-549.98C618.46,-541.84 637.46,-529.41 652.21,-519.76"/>
<polygon fill="#63b8ff" stroke="#63b8ff" points="654.3,-522.57 660.75,-514.17 650.46,-516.72 654.3,-522.57"/>
</a>
</g>
</g>
<!-- Node4 -->
<g id="Node000004" class="node">
<title>Node4</title>
<g id="a_Node000004"><a xlink:title=" ">
<polygon fill="#e0e0e0" stroke="#999999" points="498.5,-129 451.5,-129 451.5,-110 498.5,-110 498.5,-129"/>
<text text-anchor="middle" x="475" y="-117" font-family="Helvetica,sans-Serif" font-size="10.00">vector</text>
</a>
</g>
</g>
<!-- Node3&#45;&gt;Node4 -->
<g id="edge3_Node000003_Node000004" class="edge">
<title>Node3&#45;&gt;Node4</title>
<g id="a_edge3_Node000003_Node000004"><a xlink:title=" ">
<path fill="none" stroke="#63b8ff" d="M630.09,-274.96C598.86,-266.23 554.98,-252.13 543,-239 520.03,-213.84 540.62,-194.16 523,-165 516.09,-153.57 505.4,-143.25 495.87,-135.43"/>
<polygon fill="#63b8ff" stroke="#63b8ff" points="497.95,-132.62 487.91,-129.25 493.65,-138.15 497.95,-132.62"/>
</a>
</g>
</g>
<!-- Node5 -->
<g id="Node000005" class="node">
<title>Node5</title>
<g id="a_Node000005"><a xlink:href="../../d9/d49/types_8h.html" target="_top" xlink:title="This file contains a number of basic enums and types.">
<polygon fill="white" stroke="#666666" points="676.5,-239 623.5,-239 623.5,-220 676.5,-220 676.5,-239"/>
<text text-anchor="middle" x="650" y="-227" font-family="Helvetica,sans-Serif" font-size="10.00">types.h</text>
</a>
</g>
</g>
<!-- Node3&#45;&gt;Node5 -->
<g id="edge4_Node000003_Node000005" class="edge">
<title>Node3&#45;&gt;Node5</title>
<g id="a_edge4_Node000003_Node000005"><a xlink:title=" ">
<path fill="none" stroke="#63b8ff" d="M660.85,-274.75C659.13,-267.72 656.65,-257.62 654.5,-248.84"/>
<polygon fill="#63b8ff" stroke="#63b8ff" points="657.89,-247.97 652.11,-239.09 651.09,-249.63 657.89,-247.97"/>
</a>
</g>
</g>
<!-- Node17 -->
<g id="Node000017" class="node">
<title>Node17</title>
<g id="a_Node000017"><a xlink:href="../../d1/d02/reflist_8h.html" target="_top" xlink:title=" ">
<polygon fill="white" stroke="#666666" points="605.5,-239 552.5,-239 552.5,-220 605.5,-220 605.5,-239"/>
<text text-anchor="middle" x="579" y="-227" font-family="Helvetica,sans-Serif" font-size="10.00">reflist.h</text>
</a>
</g>
</g>
<!-- Node3&#45;&gt;Node17 -->
<g id="edge18_Node000003_Node000017" class="edge">
<title>Node3&#45;&gt;Node17</title>
<g id="a_edge18_Node000003_Node000017"><a xlink:title=" ">
<path fill="none" stroke="#63b8ff" d="M649.5,-274.98C636.6,-266.84 616.9,-254.41 601.6,-244.76"/>
<polygon fill="#63b8ff" stroke="#63b8ff" points="603.07,-241.55 592.74,-239.17 599.33,-247.47 603.07,-241.55"/>
</a>
</g>
</g>
<!-- Node6 -->
<g id="Node000006" class="node">
<title>Node6</title>
<g id="a_Node000006"><a xlink:href="../../d7/d5c/qcstring_8h.html" target="_top" xlink:title=" ">
<polygon fill="white" stroke="#666666" points="649.5,-129 584.5,-129 584.5,-110 649.5,-110 649.5,-129"/>
<text text-anchor="middle" x="617" y="-117" font-family="Helvetica,sans-Serif" font-size="10.00">qcstring.h</text>
</a>
</g>
</g>
<!-- Node5&#45;&gt;Node6 -->
<g id="edge5_Node000005_Node000006" class="edge">
<title>Node5&#45;&gt;Node6</title>
<g id="a_edge5_Node000005_Node000006"><a xlink:title=" ">
<path fill="none" stroke="#63b8ff" d="M647.69,-219.83C644.38,-207.57 638.04,-184.48 632,-165 629.31,-156.34 626.13,-146.8 623.39,-138.78"/>
<polygon fill="#63b8ff" stroke="#63b8ff" points="626.69,-137.63 620.12,-129.32 620.08,-139.92 626.69,-137.63"/>
</a>
</g>
</g>
<!-- Node7 -->
<g id="Node000007" class="node">
<title>Node7</title>
<g id="a_Node000007"><a xlink:title=" ">
<polygon fill="#e0e0e0" stroke="#999999" points="831,-19 787,-19 787,0 831,0 831,-19"/>
<text text-anchor="middle" x="809" y="-7" font-family="Helvetica,sans-Serif" font-size="10.00">string</text>
</a>
</g>
</g>
<!-- Node6&#45;&gt;Node7 -->
<g id="edge6_Node000006_Node000007" class="edge">
<title>Node6&#45;&gt;Node7</title>
<g id="a_edge6_Node000006_Node000007"><a xlink:title=" ">
<path fill="none" stroke="#63b8ff" d="M625.19,-109.57C637.92,-96.13 663.73,-70.64 690,-55 717.65,-38.54 752.44,-26.39 777.24,-18.98"/>
<polygon fill="#63b8ff" stroke="#63b8ff" points="778.25,-22.33 786.88,-16.19 776.3,-15.61 778.25,-22.33"/>
</a>
</g>
</g>
<!-- Node8 -->
<g id="Node000008" class="node">
<title>Node8</title>
<g id="a_Node000008"><a xlink:title=" ">
<polygon fill="#e0e0e0" stroke="#999999" points="838.5,-74 765.5,-74 765.5,-55 838.5,-55 838.5,-74"/>
<text text-anchor="middle" x="802" y="-62" font-family="Helvetica,sans-Serif" font-size="10.00">string_view</text>
</a>
</g>
</g>
<!-- Node6&#45;&gt;Node8 -->
<g id="edge7_Node000006_Node000008" class="edge">
<title>Node6&#45;&gt;Node8</title>
<g id="a_edge7_Node000006_Node000008"><a xlink:title=" ">
<path fill="none" stroke="#63b8ff" d="M646.72,-109.98C678.05,-101.01 727.57,-86.82 762.24,-76.89"/>
<polygon fill="#63b8ff" stroke="#63b8ff" points="763.39,-80.2 772.04,-74.08 761.47,-73.47 763.39,-80.2"/>
</a>
</g>
</g>
<!-- Node9 -->
<g id="Node000009" class="node">
<title>Node9</title>
<g id="a_Node000009"><a xlink:title=" ">
<polygon fill="#e0e0e0" stroke="#999999" points="921,-74 857,-74 857,-55 921,-55 921,-74"/>
<text text-anchor="middle" x="889" y="-62" font-family="Helvetica,sans-Serif" font-size="10.00">algorithm</text>
</a>
</g>
</g>
<!-- Node6&#45;&gt;Node9 -->
<g id="edge8_Node000006_Node000009" class="edge">
<title>Node6&#45;&gt;Node9</title>
<g id="a_edge8_Node000006_Node000009"><a xlink:title=" ">
<path fill="none" stroke="#63b8ff" d="M649.55,-112.38C692.37,-104.3 770.25,-89.48 846.52,-74.27"/>
<polygon fill="#63b8ff" stroke="#63b8ff" points="847.66,-77.62 856.78,-72.22 846.29,-70.75 847.66,-77.62"/>
</a>
</g>
</g>
<!-- Node10 -->
<g id="Node000010" class="node">
<title>Node10</title>
<g id="a_Node000010"><a xlink:title=" ">
<polygon fill="#e0e0e0" stroke="#999999" points="747.5,-74 698.5,-74 698.5,-55 747.5,-55 747.5,-74"/>
<text text-anchor="middle" x="723" y="-62" font-family="Helvetica,sans-Serif" font-size="10.00">cctype</text>
</a>
</g>
</g>
<!-- Node6&#45;&gt;Node10 -->
<g id="edge9_Node000006_Node000010" class="edge">
<title>Node6&#45;&gt;Node10</title>
<g id="a_edge9_Node000006_Node000010"><a xlink:title=" ">
<path fill="none" stroke="#63b8ff" d="M634.03,-109.98C650.93,-101.54 677.06,-88.47 696.64,-78.68"/>
<polygon fill="#63b8ff" stroke="#63b8ff" points="698.28,-81.77 705.66,-74.17 695.15,-75.51 698.28,-81.77"/>
</a>
</g>
</g>
<!-- Node11 -->
<g id="Node000011" class="node">
<title>Node11</title>
<g id="a_Node000011"><a xlink:title=" ">
<polygon fill="#e0e0e0" stroke="#999999" points="510,-74 460,-74 460,-55 510,-55 510,-74"/>
<text text-anchor="middle" x="485" y="-62" font-family="Helvetica,sans-Serif" font-size="10.00">cstring</text>
</a>
</g>
</g>
<!-- Node6&#45;&gt;Node11 -->
<g id="edge10_Node000006_Node000011" class="edge">
<title>Node6&#45;&gt;Node11</title>
<g id="a_edge10_Node000006_Node000011"><a xlink:title=" ">
<path fill="none" stroke="#63b8ff" d="M595.79,-109.98C574.27,-101.34 540.72,-87.87 516.17,-78.02"/>
<polygon fill="#63b8ff" stroke="#63b8ff" points="517.18,-74.65 506.59,-74.17 514.57,-81.14 517.18,-74.65"/>
</a>
</g>
</g>
<!-- Node12 -->
<g id="Node000012" class="node">
<title>Node12</title>
<g id="a_Node000012"><a xlink:title=" ">
<polygon fill="#e0e0e0" stroke="#999999" points="574,-74 528,-74 528,-55 574,-55 574,-74"/>
<text text-anchor="middle" x="551" y="-62" font-family="Helvetica,sans-Serif" font-size="10.00">cstdio</text>
</a>
</g>
</g>
<!-- Node6&#45;&gt;Node12 -->
<g id="edge11_Node000006_Node000012" class="edge">
<title>Node6&#45;&gt;Node12</title>
<g id="a_edge11_Node000006_Node000012"><a xlink:title=" ">
<path fill="none" stroke="#63b8ff" d="M606.4,-109.98C596.54,-102.07 581.65,-90.11 569.78,-80.58"/>
<polygon fill="#63b8ff" stroke="#63b8ff" points="571.79,-77.7 561.8,-74.17 567.4,-83.16 571.79,-77.7"/>
</a>
</g>
</g>
<!-- Node13 -->
<g id="Node000013" class="node">
<title>Node13</title>
<g id="a_Node000013"><a xlink:title=" ">
<polygon fill="#e0e0e0" stroke="#999999" points="641.5,-74 592.5,-74 592.5,-55 641.5,-55 641.5,-74"/>
<text text-anchor="middle" x="617" y="-62" font-family="Helvetica,sans-Serif" font-size="10.00">cstdlib</text>
</a>
</g>
</g>
<!-- Node6&#45;&gt;Node13 -->
<g id="edge12_Node000006_Node000013" class="edge">
<title>Node6&#45;&gt;Node13</title>
<g id="a_edge12_Node000006_Node000013"><a xlink:title=" ">
<path fill="none" stroke="#63b8ff" d="M617,-109.75C617,-102.8 617,-92.85 617,-84.13"/>
<polygon fill="#63b8ff" stroke="#63b8ff" points="620.5,-84.09 617,-74.09 613.5,-84.09 620.5,-84.09"/>
</a>
</g>
</g>
<!-- Node14 -->
<g id="Node000014" class="node">
<title>Node14</title>
<g id="a_Node000014"><a xlink:title=" ">
<polygon fill="#e0e0e0" stroke="#999999" points="419,-19 369,-19 369,0 419,0 419,-19"/>
<text text-anchor="middle" x="394" y="-7" font-family="Helvetica,sans-Serif" font-size="10.00">cstdint</text>
</a>
</g>
</g>
<!-- Node6&#45;&gt;Node14 -->
<g id="edge13_Node000006_Node000014" class="edge">
<title>Node6&#45;&gt;Node14</title>
<g id="a_edge13_Node000006_Node000014"><a xlink:title=" ">
<path fill="none" stroke="#63b8ff" d="M584.34,-114.49C523.87,-106.74 399.49,-89.14 387,-74 376.65,-61.46 380.45,-42.45 385.59,-28.5"/>
<polygon fill="#63b8ff" stroke="#63b8ff" points="388.93,-29.58 389.57,-19.01 382.48,-26.88 388.93,-29.58"/>
</a>
</g>
</g>
<!-- Node15 -->
<g id="Node000015" class="node">
<title>Node15</title>
<g id="a_Node000015"><a xlink:title=" ">
<polygon fill="#e0e0e0" stroke="#999999" points="339.5,-74 282.5,-74 282.5,-55 339.5,-55 339.5,-74"/>
<text text-anchor="middle" x="311" y="-62" font-family="Helvetica,sans-Serif" font-size="10.00">ostream</text>
</a>
</g>
</g>
<!-- Node6&#45;&gt;Node15 -->
<g id="edge14_Node000006_Node000015" class="edge">
<title>Node6&#45;&gt;Node15</title>
<g id="a_edge14_Node000006_Node000015"><a xlink:title=" ">
<path fill="none" stroke="#63b8ff" d="M584.15,-113.24C534.32,-105.19 436.67,-89.16 354,-74 352.55,-73.73 351.07,-73.46 349.58,-73.18"/>
<polygon fill="#63b8ff" stroke="#63b8ff" points="350.14,-69.72 339.66,-71.28 348.82,-76.6 350.14,-69.72"/>
</a>
</g>
</g>
<!-- Node16 -->
<g id="Node000016" class="node">
<title>Node16</title>
<g id="a_Node000016"><a xlink:href="../../db/d7c/utf8_8h.html" target="_top" xlink:title="Various UTF8 related helper functions.">
<polygon fill="white" stroke="#666666" points="441.5,-74 396.5,-74 396.5,-55 441.5,-55 441.5,-74"/>
<text text-anchor="middle" x="419" y="-62" font-family="Helvetica,sans-Serif" font-size="10.00">utf8.h</text>
</a>
</g>
</g>
<!-- Node6&#45;&gt;Node16 -->
<g id="edge15_Node000006_Node000016" class="edge">
<title>Node6&#45;&gt;Node16</title>
<g id="a_edge15_Node000006_Node000016"><a xlink:title=" ">
<path fill="none" stroke="#63b8ff" d="M585.19,-109.98C548.52,-100.17 488.56,-84.12 451.57,-74.22"/>
<polygon fill="#63b8ff" stroke="#63b8ff" points="452.35,-70.8 441.78,-71.6 450.54,-77.57 452.35,-70.8"/>
</a>
</g>
</g>
<!-- Node16&#45;&gt;Node7 -->
<g id="edge17_Node000016_Node000007" class="edge">
<title>Node16&#45;&gt;Node7</title>
<g id="a_edge17_Node000016_Node000007"><a xlink:title=" ">
<path fill="none" stroke="#63b8ff" d="M441.64,-57.08C444.77,-56.31 447.95,-55.59 451,-55 569.86,-31.94 713.35,-18.33 776.5,-13.05"/>
<polygon fill="#63b8ff" stroke="#63b8ff" points="776.95,-16.52 786.63,-12.22 776.38,-9.55 776.95,-16.52"/>
</a>
</g>
</g>
<!-- Node16&#45;&gt;Node14 -->
<g id="edge16_Node000016_Node000014" class="edge">
<title>Node16&#45;&gt;Node14</title>
<g id="a_edge16_Node000016_Node000014"><a xlink:title=" ">
<path fill="none" stroke="#63b8ff" d="M414.87,-54.75C411.49,-47.57 406.58,-37.18 402.38,-28.27"/>
<polygon fill="#63b8ff" stroke="#63b8ff" points="405.48,-26.64 398.05,-19.09 399.15,-29.63 405.48,-26.64"/>
</a>
</g>
</g>
<!-- Node17&#45;&gt;Node2 -->
<g id="edge21_Node000017_Node000002" class="edge">
<title>Node17&#45;&gt;Node2</title>
<g id="a_edge21_Node000017_Node000002"><a xlink:title=" ">
<path fill="none" stroke="#63b8ff" d="M552.29,-221.74C479.39,-203.31 276.76,-152.06 191.07,-130.38"/>
<polygon fill="#63b8ff" stroke="#63b8ff" points="191.77,-126.95 181.21,-127.89 190.05,-133.73 191.77,-126.95"/>
</a>
</g>
</g>
<!-- Node17&#45;&gt;Node4 -->
<g id="edge19_Node000017_Node000004" class="edge">
<title>Node17&#45;&gt;Node4</title>
<g id="a_edge19_Node000017_Node000004"><a xlink:title=" ">
<path fill="none" stroke="#63b8ff" d="M577.82,-219.71C575.65,-206.47 569.88,-181.21 556,-165 543.27,-150.12 524.26,-139.32 507.86,-132.08"/>
<polygon fill="#63b8ff" stroke="#63b8ff" points="509.15,-128.83 498.58,-128.23 506.47,-135.29 509.15,-128.83"/>
</a>
</g>
</g>
<!-- Node17&#45;&gt;Node6 -->
<g id="edge22_Node000017_Node000006" class="edge">
<title>Node17&#45;&gt;Node6</title>
<g id="a_edge22_Node000017_Node000006"><a xlink:title=" ">
<path fill="none" stroke="#63b8ff" d="M582.11,-219.66C588.32,-202.01 602.37,-162.09 610.62,-138.64"/>
<polygon fill="#63b8ff" stroke="#63b8ff" points="613.94,-139.75 613.95,-129.16 607.33,-137.43 613.94,-139.75"/>
</a>
</g>
</g>
<!-- Node18 -->
<g id="Node000018" class="node">
<title>Node18</title>
<g id="a_Node000018"><a xlink:title=" ">
<polygon fill="#e0e0e0" stroke="#999999" points="920.5,-129 827.5,-129 827.5,-110 920.5,-110 920.5,-129"/>
<text text-anchor="middle" x="874" y="-117" font-family="Helvetica,sans-Serif" font-size="10.00">unordered_map</text>
</a>
</g>
</g>
<!-- Node17&#45;&gt;Node18 -->
<g id="edge20_Node000017_Node000018" class="edge">
<title>Node17&#45;&gt;Node18</title>
<g id="a_edge20_Node000017_Node000018"><a xlink:title=" ">
<path fill="none" stroke="#63b8ff" d="M605.69,-222C608.82,-221.29 611.98,-220.61 615,-220 709.1,-200.96 746.43,-234.64 828,-184 845.48,-173.15 858.35,-152.98 865.96,-138.28"/>
<polygon fill="#63b8ff" stroke="#63b8ff" points="869.18,-139.68 870.39,-129.15 862.88,-136.62 869.18,-139.68"/>
</a>
</g>
</g>
<!-- Node19 -->
<g id="Node000019" class="node">
<title>Node19</title>
<g id="a_Node000019"><a xlink:href="../../da/de1/linkedmap_8h.html" target="_top" xlink:title=" ">
<polygon fill="white" stroke="#666666" points="818.5,-184 741.5,-184 741.5,-165 818.5,-165 818.5,-184"/>
<text text-anchor="middle" x="780" y="-172" font-family="Helvetica,sans-Serif" font-size="10.00">linkedmap.h</text>
</a>
</g>
</g>
<!-- Node17&#45;&gt;Node19 -->
<g id="edge23_Node000017_Node000019" class="edge">
<title>Node17&#45;&gt;Node19</title>
<g id="a_edge23_Node000017_Node000019"><a xlink:title=" ">
<path fill="none" stroke="#63b8ff" d="M605.69,-221.46C639.46,-212.56 698,-197.12 737.84,-186.62"/>
<polygon fill="#63b8ff" stroke="#63b8ff" points="738.76,-189.99 747.54,-184.06 736.97,-183.23 738.76,-189.99"/>
</a>
</g>
</g>
<!-- Node19&#45;&gt;Node2 -->
<g id="edge26_Node000019_Node000002" class="edge">
<title>Node19&#45;&gt;Node2</title>
<g id="a_edge26_Node000019_Node000002"><a xlink:title=" ">
<path fill="none" stroke="#63b8ff" d="M741.19,-170.22C628.89,-160.75 304.43,-133.36 191.39,-123.82"/>
<polygon fill="#63b8ff" stroke="#63b8ff" points="191.39,-120.31 181.13,-122.96 190.8,-127.29 191.39,-120.31"/>
</a>
</g>
</g>
<!-- Node19&#45;&gt;Node4 -->
<g id="edge25_Node000019_Node000004" class="edge">
<title>Node19&#45;&gt;Node4</title>
<g id="a_edge25_Node000019_Node000004"><a xlink:title=" ">
<path fill="none" stroke="#63b8ff" d="M741.37,-166.79C681.16,-156.32 565.93,-136.3 508.81,-126.38"/>
<polygon fill="#63b8ff" stroke="#63b8ff" points="509.3,-122.91 498.85,-124.64 508.1,-129.81 509.3,-122.91"/>
</a>
</g>
</g>
<!-- Node19&#45;&gt;Node6 -->
<g id="edge30_Node000019_Node000006" class="edge">
<title>Node19&#45;&gt;Node6</title>
<g id="a_edge30_Node000019_Node000006"><a xlink:title=" ">
<path fill="none" stroke="#63b8ff" d="M753.81,-164.98C726.56,-156.13 683.7,-142.19 653.22,-132.28"/>
<polygon fill="#63b8ff" stroke="#63b8ff" points="653.99,-128.85 643.39,-129.08 651.82,-135.5 653.99,-128.85"/>
</a>
</g>
</g>
<!-- Node19&#45;&gt;Node7 -->
<g id="edge27_Node000019_Node000007" class="edge">
<title>Node19&#45;&gt;Node7</title>
<g id="a_edge27_Node000019_Node000007"><a xlink:title=" ">
<path fill="none" stroke="#63b8ff" d="M783.08,-164.75C788.33,-151.09 800.29,-124.72 819,-110 859.75,-77.92 899.5,-115.95 930,-74 955.12,-39.45 885.04,-22.09 841.25,-14.83"/>
<polygon fill="#63b8ff" stroke="#63b8ff" points="841.71,-11.36 831.29,-13.27 840.63,-18.27 841.71,-11.36"/>
</a>
</g>
</g>
<!-- Node19&#45;&gt;Node9 -->
<g id="edge28_Node000019_Node000009" class="edge">
<title>Node19&#45;&gt;Node9</title>
<g id="a_edge28_Node000019_Node000009"><a xlink:title=" ">
<path fill="none" stroke="#63b8ff" d="M778.07,-164.75C775.69,-151.55 773.26,-126.35 785,-110 793.17,-98.61 824.57,-86.09 850.75,-77.23"/>
<polygon fill="#63b8ff" stroke="#63b8ff" points="852.07,-80.48 860.47,-74.03 849.88,-73.84 852.07,-80.48"/>
</a>
</g>
</g>
<!-- Node19&#45;&gt;Node10 -->
<g id="edge29_Node000019_Node000010" class="edge">
<title>Node19&#45;&gt;Node10</title>
<g id="a_edge29_Node000019_Node000010"><a xlink:title=" ">
<path fill="none" stroke="#63b8ff" d="M772.4,-164.79C765.15,-156.16 754.28,-142.34 747,-129 739.06,-114.45 732.6,-96.73 728.39,-83.7"/>
<polygon fill="#63b8ff" stroke="#63b8ff" points="731.7,-82.56 725.4,-74.04 725.01,-84.63 731.7,-82.56"/>
</a>
</g>
</g>
<!-- Node19&#45;&gt;Node18 -->
<g id="edge24_Node000019_Node000018" class="edge">
<title>Node19&#45;&gt;Node18</title>
<g id="a_edge24_Node000019_Node000018"><a xlink:title=" ">
<path fill="none" stroke="#63b8ff" d="M795.1,-164.98C809.82,-156.69 832.42,-143.94 849.67,-134.22"/>
<polygon fill="#63b8ff" stroke="#63b8ff" points="851.63,-137.13 858.62,-129.17 848.19,-131.03 851.63,-137.13"/>
</a>
</g>
</g>
<!-- Node20&#45;&gt;Node2 -->
<g id="edge32_Node000020_Node000002" class="edge">
<title>Node20&#45;&gt;Node2</title>
<g id="a_edge32_Node000020_Node000002"><a xlink:title=" ">
<path fill="none" stroke="#63b8ff" d="M645.85,-501.75C522.77,-493.71 38,-458.08 38,-395.5 38,-395.5 38,-395.5 38,-228.5 38,-182.47 87.58,-150.18 121.35,-133.53"/>
<polygon fill="#63b8ff" stroke="#63b8ff" points="123.28,-136.49 130.82,-129.05 120.29,-130.16 123.28,-136.49"/>
</a>
</g>
</g>
<!-- Node20&#45;&gt;Node3 -->
<g id="edge34_Node000020_Node000003" class="edge">
<title>Node20&#45;&gt;Node3</title>
<g id="a_edge34_Node000020_Node000003"><a xlink:title=" ">
<path fill="none" stroke="#63b8ff" d="M702.01,-495.08C719.16,-488.3 739.73,-476.91 750,-459 754.2,-451.67 752.14,-448.17 750,-440 735.62,-385.16 696.9,-329.26 676.31,-302.21"/>
<polygon fill="#63b8ff" stroke="#63b8ff" points="678.97,-299.94 670.08,-294.18 673.44,-304.23 678.97,-299.94"/>
</a>
</g>
</g>
<!-- Node21 -->
<g id="Node000021" class="node">
<title>Node21</title>
<g id="a_Node000021"><a xlink:title=" ">
<polygon fill="#e0e0e0" stroke="#999999" points="304,-239 218,-239 218,-220 304,-220 304,-239"/>
<text text-anchor="middle" x="261" y="-227" font-family="Helvetica,sans-Serif" font-size="10.00">unordered_set</text>
</a>
</g>
</g>
<!-- Node20&#45;&gt;Node21 -->
<g id="edge33_Node000020_Node000021" class="edge">
<title>Node20&#45;&gt;Node21</title>
<g id="a_edge33_Node000020_Node000021"><a xlink:title=" ">
<path fill="none" stroke="#63b8ff" d="M645.84,-501.13C573.79,-493.47 381.63,-462.85 285,-349 260.97,-320.69 258.69,-274.92 259.58,-249.34"/>
<polygon fill="#63b8ff" stroke="#63b8ff" points="263.08,-249.32 260.14,-239.14 256.09,-248.93 263.08,-249.32"/>
</a>
</g>
</g>
<!-- Node22 -->
<g id="Node000022" class="node">
<title>Node22</title>
<g id="a_Node000022"><a xlink:href="../../dd/d78/memberlist_8h.html" target="_top" xlink:title=" ">
<polygon fill="white" stroke="#666666" points="741,-459 659,-459 659,-440 741,-440 741,-459"/>
<text text-anchor="middle" x="700" y="-447" font-family="Helvetica,sans-Serif" font-size="10.00">memberlist.h</text>
</a>
</g>
</g>
<!-- Node20&#45;&gt;Node22 -->
<g id="edge35_Node000020_Node000022" class="edge">
<title>Node20&#45;&gt;Node22</title>
<g id="a_edge35_Node000020_Node000022"><a xlink:title=" ">
<path fill="none" stroke="#63b8ff" d="M678.29,-494.75C681.81,-487.57 686.91,-477.18 691.28,-468.27"/>
<polygon fill="#63b8ff" stroke="#63b8ff" points="694.52,-469.61 695.79,-459.09 688.24,-466.53 694.52,-469.61"/>
</a>
</g>
</g>
<!-- Node28 -->
<g id="Node000028" class="node">
<title>Node28</title>
<g id="a_Node000028"><a xlink:href="../../d5/d75/containers_8h.html" target="_top" xlink:title=" ">
<polygon fill="white" stroke="#666666" points="892.5,-294 815.5,-294 815.5,-275 892.5,-275 892.5,-294"/>
<text text-anchor="middle" x="854" y="-282" font-family="Helvetica,sans-Serif" font-size="10.00">containers.h</text>
</a>
</g>
</g>
<!-- Node20&#45;&gt;Node28 -->
<g id="edge73_Node000020_Node000028" class="edge">
<title>Node20&#45;&gt;Node28</title>
<g id="a_edge73_Node000020_Node000028"><a xlink:title=" ">
<path fill="none" stroke="#63b8ff" d="M702.29,-494.99C721.86,-487.93 747.42,-476.24 765,-459 811.45,-413.43 838.32,-338.49 848.83,-303.97"/>
<polygon fill="#63b8ff" stroke="#63b8ff" points="852.22,-304.85 851.67,-294.27 845.5,-302.88 852.22,-304.85"/>
</a>
</g>
</g>
<!-- Node22&#45;&gt;Node4 -->
<g id="edge36_Node000022_Node000004" class="edge">
<title>Node22&#45;&gt;Node4</title>
<g id="a_edge36_Node000022_Node000004"><a xlink:title=" ">
<path fill="none" stroke="#63b8ff" d="M658.99,-444.11C561.01,-432.9 316.89,-400.41 255,-349 212.32,-313.55 209.52,-292.8 196,-239 169.89,-135.08 361.8,-121.5 441.45,-120.3"/>
<polygon fill="#63b8ff" stroke="#63b8ff" points="441.5,-123.8 451.46,-120.21 441.43,-116.8 441.5,-123.8"/>
</a>
</g>
</g>
<!-- Node22&#45;&gt;Node5 -->
<g id="edge71_Node000022_Node000005" class="edge">
<title>Node22&#45;&gt;Node5</title>
<g id="a_edge71_Node000022_Node000005"><a xlink:title=" ">
<path fill="none" stroke="#63b8ff" d="M704.6,-439.86C718.07,-413.29 754.54,-331.17 723,-275 714.89,-260.56 699.99,-250.26 685.75,-243.22"/>
<polygon fill="#63b8ff" stroke="#63b8ff" points="687.12,-240 676.57,-239.06 684.23,-246.38 687.12,-240"/>
</a>
</g>
</g>
<!-- Node22&#45;&gt;Node9 -->
<g id="edge37_Node000022_Node000009" class="edge">
<title>Node22&#45;&gt;Node9</title>
<g id="a_edge37_Node000022_Node000009"><a xlink:title=" ">
<path fill="none" stroke="#63b8ff" d="M741.29,-440.61C836.43,-421.87 1063,-373.75 1063,-340.5 1063,-340.5 1063,-340.5 1063,-173.5 1063,-111.67 982.7,-84 931.2,-72.62"/>
<polygon fill="#63b8ff" stroke="#63b8ff" points="931.82,-69.17 921.32,-70.56 930.39,-76.03 931.82,-69.17"/>
</a>
</g>
</g>
<!-- Node22&#45;&gt;Node19 -->
<g id="edge70_Node000022_Node000019" class="edge">
<title>Node22&#45;&gt;Node19</title>
<g id="a_edge70_Node000022_Node000019"><a xlink:title=" ">
<path fill="none" stroke="#63b8ff" d="M721.44,-439.95C765.12,-421.18 863.57,-371.78 902,-294 910.81,-276.17 903.08,-233.53 892,-220 876.24,-200.75 850.95,-189.79 828.4,-183.56"/>
<polygon fill="#63b8ff" stroke="#63b8ff" points="829.15,-180.14 818.6,-181.09 827.44,-186.93 829.15,-180.14"/>
</a>
</g>
</g>
<!-- Node23 -->
<g id="Node000023" class="node">
<title>Node23</title>
<g id="a_Node000023"><a xlink:href="../../d4/d46/memberdef_8h.html" target="_top" xlink:title=" ">
<polygon fill="white" stroke="#666666" points="519,-404 437,-404 437,-385 519,-385 519,-404"/>
<text text-anchor="middle" x="478" y="-392" font-family="Helvetica,sans-Serif" font-size="10.00">memberdef.h</text>
</a>
</g>
</g>
<!-- Node22&#45;&gt;Node23 -->
<g id="edge38_Node000022_Node000023" class="edge">
<title>Node22&#45;&gt;Node23</title>
<g id="a_edge38_Node000022_Node000023"><a xlink:title=" ">
<path fill="none" stroke="#63b8ff" d="M664.33,-439.98C626.17,-430.87 565.53,-416.4 523.85,-406.45"/>
<polygon fill="#63b8ff" stroke="#63b8ff" points="524.49,-403 513.95,-404.08 522.86,-409.81 524.49,-403"/>
</a>
</g>
</g>
<!-- Node32 -->
<g id="Node000032" class="node">
<title>Node32</title>
<g id="a_Node000032"><a xlink:href="../../d9/d11/membergroup_8h.html" target="_top" xlink:title=" ">
<polygon fill="white" stroke="#666666" points="609.5,-294 514.5,-294 514.5,-275 609.5,-275 609.5,-294"/>
<text text-anchor="middle" x="562" y="-282" font-family="Helvetica,sans-Serif" font-size="10.00">membergroup.h</text>
</a>
</g>
</g>
<!-- Node22&#45;&gt;Node32 -->
<g id="edge72_Node000022_Node000032" class="edge">
<title>Node22&#45;&gt;Node32</title>
<g id="a_edge72_Node000022_Node000032"><a xlink:title=" ">
<path fill="none" stroke="#63b8ff" d="M692.58,-439.74C670.49,-413.65 604.9,-336.17 575.97,-302"/>
<polygon fill="#63b8ff" stroke="#63b8ff" points="578.59,-299.68 569.46,-294.31 573.25,-304.2 578.59,-299.68"/>
</a>
</g>
</g>
<!-- Node23&#45;&gt;Node2 -->
<g id="edge40_Node000023_Node000002" class="edge">
<title>Node23&#45;&gt;Node2</title>
<g id="a_edge40_Node000023_Node000002"><a xlink:title=" ">
<path fill="none" stroke="#63b8ff" d="M436.94,-389.37C380.78,-383.04 283.67,-369.48 255,-349 183.02,-297.57 160.41,-183.72 154.15,-139.02"/>
<polygon fill="#63b8ff" stroke="#63b8ff" points="157.61,-138.48 152.86,-129.01 150.66,-139.37 157.61,-138.48"/>
</a>
</g>
</g>
<!-- Node23&#45;&gt;Node3 -->
<g id="edge44_Node000023_Node000003" class="edge">
<title>Node23&#45;&gt;Node3</title>
<g id="a_edge44_Node000023_Node000003"><a xlink:title=" ">
<path fill="none" stroke="#63b8ff" d="M498.43,-384.84C517.59,-376.46 546.84,-363 571,-349 597.12,-333.86 625.46,-313.68 643.69,-300.17"/>
<polygon fill="#63b8ff" stroke="#63b8ff" points="645.85,-302.92 651.76,-294.12 641.66,-297.31 645.85,-302.92"/>
</a>
</g>
</g>
<!-- Node23&#45;&gt;Node4 -->
<g id="edge39_Node000023_Node000004" class="edge">
<title>Node23&#45;&gt;Node4</title>
<g id="a_edge39_Node000023_Node000004"><a xlink:title=" ">
<path fill="none" stroke="#63b8ff" d="M436.91,-392.51C395.33,-389.68 330.8,-380.09 285,-349 229.94,-311.62 171.07,-274.68 209,-220 262.17,-143.34 382.07,-125.64 441,-121.63"/>
<polygon fill="#63b8ff" stroke="#63b8ff" points="441.49,-125.11 451.26,-121.03 441.08,-118.12 441.49,-125.11"/>
</a>
</g>
</g>
<!-- Node23&#45;&gt;Node5 -->
<g id="edge43_Node000023_Node000005" class="edge">
<title>Node23&#45;&gt;Node5</title>
<g id="a_edge43_Node000023_Node000005"><a xlink:title=" ">
<path fill="none" stroke="#63b8ff" d="M519.16,-389.61C573.75,-381.96 667.87,-359.47 708,-294 719.83,-274.71 697.32,-256 676.98,-243.95"/>
<polygon fill="#63b8ff" stroke="#63b8ff" points="678.66,-240.87 668.22,-239.05 675.24,-246.98 678.66,-240.87"/>
</a>
</g>
</g>
<!-- Node24 -->
<g id="Node000024" class="node">
<title>Node24</title>
<g id="a_Node000024"><a xlink:title=" ">
<polygon fill="#e0e0e0" stroke="#999999" points="562,-349 506,-349 506,-330 562,-330 562,-349"/>
<text text-anchor="middle" x="534" y="-337" font-family="Helvetica,sans-Serif" font-size="10.00">optional</text>
</a>
</g>
</g>
<!-- Node23&#45;&gt;Node24 -->
<g id="edge41_Node000023_Node000024" class="edge">
<title>Node23&#45;&gt;Node24</title>
<g id="a_edge41_Node000023_Node000024"><a xlink:title=" ">
<path fill="none" stroke="#63b8ff" d="M487,-384.98C495.19,-377.23 507.51,-365.58 517.47,-356.14"/>
<polygon fill="#63b8ff" stroke="#63b8ff" points="519.98,-358.59 524.84,-349.17 515.17,-353.5 519.98,-358.59"/>
</a>
</g>
</g>
<!-- Node25 -->
<g id="Node000025" class="node">
<title>Node25</title>
<g id="a_Node000025"><a xlink:title=" ">
<polygon fill="#e0e0e0" stroke="#999999" points="366,-349 294,-349 294,-330 366,-330 366,-349"/>
<text text-anchor="middle" x="330" y="-337" font-family="Helvetica,sans-Serif" font-size="10.00">sys/types.h</text>
</a>
</g>
</g>
<!-- Node23&#45;&gt;Node25 -->
<g id="edge42_Node000023_Node000025" class="edge">
<title>Node23&#45;&gt;Node25</title>
<g id="a_edge42_Node000023_Node000025"><a xlink:title=" ">
<path fill="none" stroke="#63b8ff" d="M454.22,-384.98C429.77,-376.23 391.47,-362.51 363.85,-352.62"/>
<polygon fill="#63b8ff" stroke="#63b8ff" points="364.81,-349.25 354.21,-349.17 362.45,-355.84 364.81,-349.25"/>
</a>
</g>
</g>
<!-- Node26 -->
<g id="Node000026" class="node">
<title>Node26</title>
<g id="a_Node000026"><a xlink:href="../../df/d9b/arguments_8h.html" target="_top" xlink:title=" ">
<polygon fill="white" stroke="#666666" points="514,-184 436,-184 436,-165 514,-165 514,-184"/>
<text text-anchor="middle" x="475" y="-172" font-family="Helvetica,sans-Serif" font-size="10.00">arguments.h</text>
</a>
</g>
</g>
<!-- Node23&#45;&gt;Node26 -->
<g id="edge45_Node000023_Node000026" class="edge">
<title>Node23&#45;&gt;Node26</title>
<g id="a_edge45_Node000023_Node000026"><a xlink:title=" ">
<path fill="none" stroke="#63b8ff" d="M477.88,-384.95C477.44,-352.95 475.88,-239.68 475.26,-194.4"/>
<polygon fill="#63b8ff" stroke="#63b8ff" points="478.76,-194.17 475.12,-184.22 471.76,-194.27 478.76,-194.17"/>
</a>
</g>
</g>
<!-- Node27 -->
<g id="Node000027" class="node">
<title>Node27</title>
<g id="a_Node000027"><a xlink:href="../../d1/da6/classdef_8h.html" target="_top" xlink:title=" ">
<polygon fill="white" stroke="#666666" points="449.5,-349 384.5,-349 384.5,-330 449.5,-330 449.5,-349"/>
<text text-anchor="middle" x="417" y="-337" font-family="Helvetica,sans-Serif" font-size="10.00">classdef.h</text>
</a>
</g>
</g>
<!-- Node23&#45;&gt;Node27 -->
<g id="edge48_Node000023_Node000027" class="edge">
<title>Node23&#45;&gt;Node27</title>
<g id="a_edge48_Node000023_Node000027"><a xlink:title=" ">
<path fill="none" stroke="#63b8ff" d="M468.2,-384.98C459.18,-377.15 445.59,-365.34 434.68,-355.86"/>
<polygon fill="#63b8ff" stroke="#63b8ff" points="436.82,-353.09 426.98,-349.17 432.23,-358.37 436.82,-353.09"/>
</a>
</g>
</g>
<!-- Node26&#45;&gt;Node4 -->
<g id="edge46_Node000026_Node000004" class="edge">
<title>Node26&#45;&gt;Node4</title>
<g id="a_edge46_Node000026_Node000004"><a xlink:title=" ">
<path fill="none" stroke="#63b8ff" d="M475,-164.75C475,-157.8 475,-147.85 475,-139.13"/>
<polygon fill="#63b8ff" stroke="#63b8ff" points="478.5,-139.09 475,-129.09 471.5,-139.09 478.5,-139.09"/>
</a>
</g>
</g>
<!-- Node26&#45;&gt;Node6 -->
<g id="edge47_Node000026_Node000006" class="edge">
<title>Node26&#45;&gt;Node6</title>
<g id="a_edge47_Node000026_Node000006"><a xlink:title=" ">
<path fill="none" stroke="#63b8ff" d="M497.81,-164.98C521.17,-156.27 557.7,-142.63 584.17,-132.75"/>
<polygon fill="#63b8ff" stroke="#63b8ff" points="585.63,-135.95 593.77,-129.17 583.18,-129.39 585.63,-135.95"/>
</a>
</g>
</g>
<!-- Node27&#45;&gt;Node2 -->
<g id="edge49_Node000027_Node000002" class="edge">
<title>Node27&#45;&gt;Node2</title>
<g id="a_edge49_Node000027_Node000002"><a xlink:title=" ">
<path fill="none" stroke="#63b8ff" d="M384.47,-330.11C348.24,-320.47 292.24,-304.63 273,-294 215.95,-262.48 204.4,-242.67 176,-184 168.86,-169.25 162.39,-151.79 157.98,-138.91"/>
<polygon fill="#63b8ff" stroke="#63b8ff" points="161.27,-137.71 154.78,-129.33 154.63,-139.93 161.27,-137.71"/>
</a>
</g>
</g>
<!-- Node27&#45;&gt;Node3 -->
<g id="edge61_Node000027_Node000003" class="edge">
<title>Node27&#45;&gt;Node3</title>
<g id="a_edge61_Node000027_Node000003"><a xlink:title=" ">
<path fill="none" stroke="#63b8ff" d="M449.67,-331.46C492.74,-322.18 568.75,-305.81 617.45,-295.31"/>
<polygon fill="#63b8ff" stroke="#63b8ff" points="618.37,-298.7 627.41,-293.17 616.89,-291.85 618.37,-298.7"/>
</a>
</g>
</g>
<!-- Node27&#45;&gt;Node4 -->
<g id="edge50_Node000027_Node000004" class="edge">
<title>Node27&#45;&gt;Node4</title>
<g id="a_edge50_Node000027_Node000004"><a xlink:title=" ">
<path fill="none" stroke="#63b8ff" d="M384.27,-331.33C352.81,-322.54 311.57,-305 323,-275 347.71,-210.12 415.76,-158.5 451.84,-134.74"/>
<polygon fill="#63b8ff" stroke="#63b8ff" points="454.18,-137.4 460.69,-129.04 450.39,-131.51 454.18,-137.4"/>
</a>
</g>
</g>
<!-- Node27&#45;&gt;Node21 -->
<g id="edge51_Node000027_Node000021" class="edge">
<title>Node27&#45;&gt;Node21</title>
<g id="a_edge51_Node000027_Node000021"><a xlink:title=" ">
<path fill="none" stroke="#63b8ff" d="M384.46,-330.23C351.71,-321.37 304.06,-306.83 290,-294 277,-282.14 269.42,-263.31 265.29,-249.23"/>
<polygon fill="#63b8ff" stroke="#63b8ff" points="268.58,-247.98 262.68,-239.18 261.81,-249.73 268.58,-247.98"/>
</a>
</g>
</g>
<!-- Node27&#45;&gt;Node26 -->
<g id="edge62_Node000027_Node000026" class="edge">
<title>Node27&#45;&gt;Node26</title>
<g id="a_edge62_Node000027_Node000026"><a xlink:title=" ">
<path fill="none" stroke="#63b8ff" d="M420.12,-329.74C429.24,-304.09 456.04,-228.78 468.5,-193.78"/>
<polygon fill="#63b8ff" stroke="#63b8ff" points="471.81,-194.9 471.87,-184.31 465.22,-192.55 471.81,-194.9"/>
</a>
</g>
</g>
<!-- Node27&#45;&gt;Node28 -->
<g id="edge52_Node000027_Node000028" class="edge">
<title>Node27&#45;&gt;Node28</title>
<g id="a_edge52_Node000027_Node000028"><a xlink:title=" ">
<path fill="none" stroke="#63b8ff" d="M449.85,-334.52C526.03,-325.28 715.1,-302.35 805,-291.44"/>
<polygon fill="#63b8ff" stroke="#63b8ff" points="805.7,-294.88 815.2,-290.21 804.86,-287.93 805.7,-294.88"/>
</a>
</g>
</g>
<!-- Node27&#45;&gt;Node32 -->
<g id="edge63_Node000027_Node000032" class="edge">
<title>Node27&#45;&gt;Node32</title>
<g id="a_edge63_Node000027_Node000032"><a xlink:title=" ">
<path fill="none" stroke="#63b8ff" d="M440.3,-329.98C464.25,-321.23 501.78,-307.51 528.83,-297.62"/>
<polygon fill="#63b8ff" stroke="#63b8ff" points="530.09,-300.89 538.28,-294.17 527.69,-294.32 530.09,-300.89"/>
</a>
</g>
</g>
<!-- Node33 -->
<g id="Node000033" class="node">
<title>Node33</title>
<g id="a_Node000033"><a xlink:title=" ">
<polygon fill="#e0e0e0" stroke="#999999" points="419.5,-294 332.5,-294 332.5,-275 419.5,-275 419.5,-294"/>
<text text-anchor="middle" x="376" y="-282" font-family="Helvetica,sans-Serif" font-size="10.00">configvalues.h</text>
</a>
</g>
</g>
<!-- Node27&#45;&gt;Node33 -->
<g id="edge69_Node000027_Node000033" class="edge">
<title>Node27&#45;&gt;Node33</title>
<g id="a_edge69_Node000027_Node000033"><a xlink:title=" ">
<path fill="none" stroke="#63b8ff" d="M410.23,-329.75C404.44,-322.26 395.94,-311.28 388.86,-302.13"/>
<polygon fill="#63b8ff" stroke="#63b8ff" points="391.53,-299.86 382.64,-294.09 385.99,-304.14 391.53,-299.86"/>
</a>
</g>
</g>
<!-- Node28&#45;&gt;Node4 -->
<g id="edge53_Node000028_Node000004" class="edge">
<title>Node28&#45;&gt;Node4</title>
<g id="a_edge53_Node000028_Node000004"><a xlink:title=" ">
<path fill="none" stroke="#63b8ff" d="M840.58,-274.96C819.92,-262.03 778.87,-237.19 742,-220 660.25,-181.89 559.49,-147.59 508.29,-131.01"/>
<polygon fill="#63b8ff" stroke="#63b8ff" points="509.32,-127.66 498.73,-127.93 507.17,-134.32 509.32,-127.66"/>
</a>
</g>
</g>
<!-- Node28&#45;&gt;Node7 -->
<g id="edge54_Node000028_Node000007" class="edge">
<title>Node28&#45;&gt;Node7</title>
<g id="a_edge54_Node000028_Node000007"><a xlink:title=" ">
<path fill="none" stroke="#63b8ff" d="M881.56,-274.98C920.51,-261.03 987,-229.34 987,-175.5 987,-175.5 987,-175.5 987,-118.5 987,-51.04 892.39,-24.54 841.12,-15.13"/>
<polygon fill="#63b8ff" stroke="#63b8ff" points="841.63,-11.67 831.18,-13.42 840.45,-18.57 841.63,-11.67"/>
</a>
</g>
</g>
<!-- Node28&#45;&gt;Node8 -->
<g id="edge55_Node000028_Node000008" class="edge">
<title>Node28&#45;&gt;Node8</title>
<g id="a_edge55_Node000028_Node000008"><a xlink:title=" ">
<path fill="none" stroke="#63b8ff" d="M869.29,-274.97C881.71,-267.23 898.64,-254.63 908,-239 937.88,-189.1 963.7,-157.4 930,-110 920.18,-96.19 880.86,-83.82 848.36,-75.66"/>
<polygon fill="#63b8ff" stroke="#63b8ff" points="849.08,-72.23 838.54,-73.26 847.42,-79.03 849.08,-72.23"/>
</a>
</g>
</g>
<!-- Node28&#45;&gt;Node18 -->
<g id="edge59_Node000028_Node000018" class="edge">
<title>Node28&#45;&gt;Node18</title>
<g id="a_edge59_Node000028_Node000018"><a xlink:title=" ">
<path fill="none" stroke="#63b8ff" d="M864.71,-274.93C873.93,-266.8 886.59,-253.68 892,-239 904.55,-204.97 891.67,-162.34 882.16,-138.6"/>
<polygon fill="#63b8ff" stroke="#63b8ff" points="885.27,-136.96 878.14,-129.12 878.83,-139.7 885.27,-136.96"/>
</a>
</g>
</g>
<!-- Node28&#45;&gt;Node21 -->
<g id="edge58_Node000028_Node000021" class="edge">
<title>Node28&#45;&gt;Node21</title>
<g id="a_edge58_Node000028_Node000021"><a xlink:title=" ">
<path fill="none" stroke="#63b8ff" d="M815.09,-280.02C712.04,-270.81 431.91,-245.78 314.21,-235.26"/>
<polygon fill="#63b8ff" stroke="#63b8ff" points="314.28,-231.75 304.01,-234.34 313.65,-238.72 314.28,-231.75"/>
</a>
</g>
</g>
<!-- Node29 -->
<g id="Node000029" class="node">
<title>Node29</title>
<g id="a_Node000029"><a xlink:title=" ">
<polygon fill="#e0e0e0" stroke="#999999" points="821,-239 789,-239 789,-220 821,-220 821,-239"/>
<text text-anchor="middle" x="805" y="-227" font-family="Helvetica,sans-Serif" font-size="10.00">set</text>
</a>
</g>
</g>
<!-- Node28&#45;&gt;Node29 -->
<g id="edge56_Node000028_Node000029" class="edge">
<title>Node28&#45;&gt;Node29</title>
<g id="a_edge56_Node000028_Node000029"><a xlink:title=" ">
<path fill="none" stroke="#63b8ff" d="M845.91,-274.75C838.84,-267.11 828.41,-255.82 819.85,-246.56"/>
<polygon fill="#63b8ff" stroke="#63b8ff" points="822.3,-244.06 812.94,-239.09 817.16,-248.81 822.3,-244.06"/>
</a>
</g>
</g>
<!-- Node30 -->
<g id="Node000030" class="node">
<title>Node30</title>
<g id="a_Node000030"><a xlink:title=" ">
<polygon fill="#e0e0e0" stroke="#999999" points="733,-239 695,-239 695,-220 733,-220 733,-239"/>
<text text-anchor="middle" x="714" y="-227" font-family="Helvetica,sans-Serif" font-size="10.00">map</text>
</a>
</g>
</g>
<!-- Node28&#45;&gt;Node30 -->
<g id="edge57_Node000028_Node000030" class="edge">
<title>Node28&#45;&gt;Node30</title>
<g id="a_edge57_Node000028_Node000030"><a xlink:title=" ">
<path fill="none" stroke="#63b8ff" d="M831.51,-274.98C807.38,-265.85 769,-251.32 742.71,-241.37"/>
<polygon fill="#63b8ff" stroke="#63b8ff" points="743.87,-238.07 733.28,-237.8 741.4,-244.61 743.87,-238.07"/>
</a>
</g>
</g>
<!-- Node31 -->
<g id="Node000031" class="node">
<title>Node31</title>
<g id="a_Node000031"><a xlink:title=" ">
<polygon fill="#e0e0e0" stroke="#999999" points="882.5,-239 839.5,-239 839.5,-220 882.5,-220 882.5,-239"/>
<text text-anchor="middle" x="861" y="-227" font-family="Helvetica,sans-Serif" font-size="10.00">stack</text>
</a>
</g>
</g>
<!-- Node28&#45;&gt;Node31 -->
<g id="edge60_Node000028_Node000031" class="edge">
<title>Node28&#45;&gt;Node31</title>
<g id="a_edge60_Node000028_Node000031"><a xlink:title=" ">
<path fill="none" stroke="#63b8ff" d="M855.16,-274.75C856.07,-267.8 857.39,-257.85 858.54,-249.13"/>
<polygon fill="#63b8ff" stroke="#63b8ff" points="862.03,-249.46 859.87,-239.09 855.09,-248.54 862.03,-249.46"/>
</a>
</g>
</g>
<!-- Node32&#45;&gt;Node2 -->
<g id="edge66_Node000032_Node000002" class="edge">
<title>Node32&#45;&gt;Node2</title>
<g id="a_edge66_Node000032_Node000002"><a xlink:title=" ">
<path fill="none" stroke="#63b8ff" d="M540.53,-274.97C472.75,-248.02 263.04,-164.65 183.25,-132.92"/>
<polygon fill="#63b8ff" stroke="#63b8ff" points="184.33,-129.59 173.75,-129.15 181.75,-136.09 184.33,-129.59"/>
</a>
</g>
</g>
<!-- Node32&#45;&gt;Node4 -->
<g id="edge64_Node000032_Node000004" class="edge">
<title>Node32&#45;&gt;Node4</title>
<g id="a_edge64_Node000032_Node000004"><a xlink:title=" ">
<path fill="none" stroke="#63b8ff" d="M540.15,-275C508.41,-261.3 450.76,-231.04 427,-184 417.71,-165.62 435.5,-147.12 451.99,-134.87"/>
<polygon fill="#63b8ff" stroke="#63b8ff" points="454.13,-137.65 460.35,-129.07 450.14,-131.9 454.13,-137.65"/>
</a>
</g>
</g>
<!-- Node32&#45;&gt;Node5 -->
<g id="edge67_Node000032_Node000005" class="edge">
<title>Node32&#45;&gt;Node5</title>
<g id="a_edge67_Node000032_Node000005"><a xlink:title=" ">
<path fill="none" stroke="#63b8ff" d="M576.14,-274.98C589.79,-266.77 610.69,-254.18 626.78,-244.49"/>
<polygon fill="#63b8ff" stroke="#63b8ff" points="628.84,-247.33 635.6,-239.17 625.23,-241.33 628.84,-247.33"/>
</a>
</g>
</g>
<!-- Node32&#45;&gt;Node17 -->
<g id="edge68_Node000032_Node000017" class="edge">
<title>Node32&#45;&gt;Node17</title>
<g id="a_edge68_Node000032_Node000017"><a xlink:title=" ">
<path fill="none" stroke="#63b8ff" d="M564.81,-274.75C567.06,-267.72 570.3,-257.62 573.12,-248.84"/>
<polygon fill="#63b8ff" stroke="#63b8ff" points="576.52,-249.68 576.25,-239.09 569.86,-247.54 576.52,-249.68"/>
</a>
</g>
</g>
<!-- Node32&#45;&gt;Node30 -->
<g id="edge65_Node000032_Node000030" class="edge">
<title>Node32&#45;&gt;Node30</title>
<g id="a_edge65_Node000032_Node000030"><a xlink:title=" ">
<path fill="none" stroke="#63b8ff" d="M586.42,-274.98C613.33,-265.6 656.57,-250.53 685.13,-240.57"/>
<polygon fill="#63b8ff" stroke="#63b8ff" points="686.64,-243.75 694.93,-237.15 684.34,-237.14 686.64,-243.75"/>
</a>
</g>
</g>
</g>
</svg>

<g id="navigator" transform="translate(0 0)" fill="#404254">
  <rect fill="#f2f5e9" fill-opacity="0.5" stroke="#606060" stroke-width=".5" x="0" y="0" width="60" height="60"/>
  <use id="zoomplus" xlink:href="#zoomPlus" x="17" y="9" onmousedown="handleZoom(evt,'in')"/>
  <use id="zoomminus" xlink:href="#zoomMin" x="42" y="9" onmousedown="handleZoom(evt,'out')"/>
  <use id="reset" xlink:href="#resetDef" x="30" y="36" onmousedown="handleReset()"/>
   <use id="arrowup" xlink:href="#arrowUp" x="0" y="0" onmousedown="handlePan(0,-1)"/>
  <use id="arrowright" xlink:href="#arrowRight" x="0" y="0" onmousedown="handlePan(1,0)"/>
  <use id="arrowdown" xlink:href="#arrowDown" x="0" y="0" onmousedown="handlePan(0,1)"/>
  <use id="arrowleft" xlink:href="#arrowLeft" x="0" y="0" onmousedown="handlePan(-1,0)"/>
</g>
<svg viewBox="0 0 15 15" width="100%" height="30px" preserveAspectRatio="xMaxYMin meet">
 <g id="arrow_out" transform="scale(0.3 0.3)">
  <a xlink:href="conceptdef_8h__incl_org.svg" target="_base">
   <rect id="button" ry="5" rx="5" y="6" x="6" height="38" width="38"
        fill="#f2f5e9" fill-opacity="0.5" stroke="#606060" stroke-width="1.0"/>
   <path id="arrow"
     d="M 11.500037,31.436501 C 11.940474,20.09759 22.043105,11.32322 32.158766,21.979434 L 37.068811,17.246167 C 37.068811,17.246167 37.088388,32 37.088388,32 L 22.160133,31.978069 C 22.160133,31.978069 26.997745,27.140456 26.997745,27.140456 C 18.528582,18.264221 13.291696,25.230495 11.500037,31.436501 z"
     style="fill:#404040;"/>
  </a>
 </g>
</svg>

<style type='text/css'>
<![CDATA[
[data-mouse-over-selected='false'] { opacity: 0.7; }
[data-mouse-over-selected='true']  { opacity: 1.0; }
]]>
</style>
<script type="application/ecmascript"><![CDATA[
document.addEventListener('DOMContentLoaded', (event) => {
  highlightEdges();
  highlightAdjacentNodes();
});
]]></script>
</svg>
