<?xml version="1.0" encoding="UTF-8" standalone="no"?>
<!DOCTYPE svg PUBLIC "-//W3C//DTD SVG 1.1//EN"
 "http://www.w3.org/Graphics/SVG/1.1/DTD/svg11.dtd">
<!-- Generated by graphviz version 2.43.0 (0)
 -->
<!-- Title: src/rtfgen.h Pages: 1 -->
<svg width="4474pt" height="137pt"
 viewBox="0.00 0.00 4473.50 137.00" xmlns="http://www.w3.org/2000/svg" xmlns:xlink="http://www.w3.org/1999/xlink">
<g id="graph0" class="graph" transform="scale(1 1) rotate(0) translate(4 133)">
<title>src/rtfgen.h</title>
<!-- Node1 -->
<g id="Node000001" class="node">
<title>Node1</title>
<g id="a_Node000001"><a xlink:title=" ">
<polygon fill="#999999" stroke="#666666" points="2317,-129 2245,-129 2245,-110 2317,-110 2317,-129"/>
<text text-anchor="middle" x="2281" y="-117" font-family="Helvetica,sans-Serif" font-size="10.00">src/rtfgen.h</text>
</a>
</g>
</g>
<!-- Node2 -->
<g id="Node000002" class="node">
<title>Node2</title>
<g id="a_Node000002"><a xlink:href="../../dc/d98/doxygen_8cpp.html" target="_top" xlink:title=" ">
<polygon fill="white" stroke="#666666" points="96,-19 0,-19 0,0 96,0 96,-19"/>
<text text-anchor="middle" x="48" y="-7" font-family="Helvetica,sans-Serif" font-size="10.00">src/doxygen.cpp</text>
</a>
</g>
</g>
<!-- Node1&#45;&gt;Node2 -->
<g id="edge1_Node000001_Node000002" class="edge">
<title>Node1&#45;&gt;Node2</title>
<g id="a_edge1_Node000001_Node000002"><a xlink:title=" ">
<path fill="none" stroke="#63b8ff" d="M2234.62,-118.14C2003.91,-115.97 957.15,-101.8 105,-19 102.11,-18.72 99.15,-18.39 96.16,-18.04"/>
<polygon fill="#63b8ff" stroke="#63b8ff" points="2234.64,-121.64 2244.67,-118.23 2234.71,-114.64 2234.64,-121.64"/>
</a>
</g>
</g>
<!-- Node3 -->
<g id="Node000003" class="node">
<title>Node3</title>
<g id="a_Node000003"><a xlink:href="../../d2/db9/outputlist_8h.html" target="_top" xlink:title=" ">
<polygon fill="white" stroke="#666666" points="2289.5,-74 2200.5,-74 2200.5,-55 2289.5,-55 2289.5,-74"/>
<text text-anchor="middle" x="2245" y="-62" font-family="Helvetica,sans-Serif" font-size="10.00">src/outputlist.h</text>
</a>
</g>
</g>
<!-- Node1&#45;&gt;Node3 -->
<g id="edge2_Node000001_Node000003" class="edge">
<title>Node1&#45;&gt;Node3</title>
<g id="a_edge2_Node000001_Node000003"><a xlink:title=" ">
<path fill="none" stroke="#63b8ff" d="M2269.38,-101.39C2263.18,-92.27 2255.83,-81.45 2250.83,-74.09"/>
<polygon fill="#63b8ff" stroke="#63b8ff" points="2266.54,-103.44 2275.06,-109.75 2272.33,-99.51 2266.54,-103.44"/>
</a>
</g>
</g>
<!-- Node32 -->
<g id="Node000032" class="node">
<title>Node32</title>
<g id="a_Node000032"><a xlink:href="../../d0/d9c/rtfgen_8cpp.html" target="_top" xlink:title=" ">
<polygon fill="white" stroke="#666666" points="4465.5,-19 4382.5,-19 4382.5,0 4465.5,0 4465.5,-19"/>
<text text-anchor="middle" x="4424" y="-7" font-family="Helvetica,sans-Serif" font-size="10.00">src/rtfgen.cpp</text>
</a>
</g>
</g>
<!-- Node1&#45;&gt;Node32 -->
<g id="edge43_Node000001_Node000032" class="edge">
<title>Node1&#45;&gt;Node32</title>
<g id="a_edge43_Node000001_Node000032"><a xlink:title=" ">
<path fill="none" stroke="#63b8ff" d="M2290.73,-101.31C2300.48,-86 2317.02,-64.58 2338,-55 2440.9,-8 4261.36,-29.51 4374,-19 4376.72,-18.75 4379.51,-18.43 4382.32,-18.07"/>
<polygon fill="#63b8ff" stroke="#63b8ff" points="2287.73,-99.52 2285.57,-109.89 2293.72,-103.13 2287.73,-99.52"/>
</a>
</g>
</g>
<!-- Node42 -->
<g id="Node000042" class="node">
<title>Node42</title>
<g id="a_Node000042"><a xlink:href="../../de/d9a/rtfdocvisitor_8cpp.html" target="_top" xlink:title=" ">
<polygon fill="white" stroke="#666666" points="2459.5,-74 2346.5,-74 2346.5,-55 2459.5,-55 2459.5,-74"/>
<text text-anchor="middle" x="2403" y="-62" font-family="Helvetica,sans-Serif" font-size="10.00">src/rtfdocvisitor.cpp</text>
</a>
</g>
</g>
<!-- Node1&#45;&gt;Node42 -->
<g id="edge42_Node000001_Node000042" class="edge">
<title>Node1&#45;&gt;Node42</title>
<g id="a_edge42_Node000001_Node000042"><a xlink:title=" ">
<path fill="none" stroke="#63b8ff" d="M2310.01,-105.9C2332.54,-96.11 2363.2,-82.79 2383.04,-74.17"/>
<polygon fill="#63b8ff" stroke="#63b8ff" points="2308.38,-102.79 2300.6,-109.98 2311.17,-109.21 2308.38,-102.79"/>
</a>
</g>
</g>
<!-- Node3&#45;&gt;Node2 -->
<g id="edge11_Node000003_Node000002" class="edge">
<title>Node3&#45;&gt;Node2</title>
<g id="a_edge11_Node000003_Node000002"><a xlink:title=" ">
<path fill="none" stroke="#63b8ff" d="M2190.12,-63.31C1898.46,-62.13 527.69,-54.76 105,-19 102.11,-18.76 99.14,-18.46 96.15,-18.12"/>
<polygon fill="#63b8ff" stroke="#63b8ff" points="2190.42,-66.81 2200.43,-63.35 2190.45,-59.81 2190.42,-66.81"/>
</a>
</g>
</g>
<!-- Node4 -->
<g id="Node000004" class="node">
<title>Node4</title>
<g id="a_Node000004"><a xlink:href="../../de/d89/classdef_8cpp.html" target="_top" xlink:title=" ">
<polygon fill="white" stroke="#666666" points="208,-19 114,-19 114,0 208,0 208,-19"/>
<text text-anchor="middle" x="161" y="-7" font-family="Helvetica,sans-Serif" font-size="10.00">src/classdef.cpp</text>
</a>
</g>
</g>
<!-- Node3&#45;&gt;Node4 -->
<g id="edge3_Node000003_Node000004" class="edge">
<title>Node3&#45;&gt;Node4</title>
<g id="a_edge3_Node000003_Node000004"><a xlink:title=" ">
<path fill="none" stroke="#63b8ff" d="M2189.85,-63.25C1906.89,-61.83 616.01,-53.52 217,-19 214.06,-18.75 211.04,-18.43 208,-18.08"/>
<polygon fill="#63b8ff" stroke="#63b8ff" points="2190.24,-66.75 2200.26,-63.3 2190.27,-59.75 2190.24,-66.75"/>
</a>
</g>
</g>
<!-- Node5 -->
<g id="Node000005" class="node">
<title>Node5</title>
<g id="a_Node000005"><a xlink:href="../../d6/d10/classlist_8cpp.html" target="_top" xlink:title=" ">
<polygon fill="white" stroke="#666666" points="320,-19 226,-19 226,0 320,0 320,-19"/>
<text text-anchor="middle" x="273" y="-7" font-family="Helvetica,sans-Serif" font-size="10.00">src/classlist.cpp</text>
</a>
</g>
</g>
<!-- Node3&#45;&gt;Node5 -->
<g id="edge4_Node000003_Node000005" class="edge">
<title>Node3&#45;&gt;Node5</title>
<g id="a_edge4_Node000003_Node000005"><a xlink:title=" ">
<path fill="none" stroke="#63b8ff" d="M2190.25,-63.17C1917.63,-61.39 704.74,-51.75 329,-19 326.06,-18.74 323.04,-18.43 320,-18.08"/>
<polygon fill="#63b8ff" stroke="#63b8ff" points="2190.27,-66.67 2200.3,-63.24 2190.32,-59.67 2190.27,-66.67"/>
</a>
</g>
</g>
<!-- Node6 -->
<g id="Node000006" class="node">
<title>Node6</title>
<g id="a_Node000006"><a xlink:href="../../da/d1f/code_8l.html" target="_top" xlink:title=" ">
<polygon fill="white" stroke="#666666" points="401.5,-19 338.5,-19 338.5,0 401.5,0 401.5,-19"/>
<text text-anchor="middle" x="370" y="-7" font-family="Helvetica,sans-Serif" font-size="10.00">src/code.l</text>
</a>
</g>
</g>
<!-- Node3&#45;&gt;Node6 -->
<g id="edge5_Node000003_Node000006" class="edge">
<title>Node3&#45;&gt;Node6</title>
<g id="a_edge5_Node000003_Node000006"><a xlink:title=" ">
<path fill="none" stroke="#63b8ff" d="M2190.01,-63.5C1923.95,-63.3 768.52,-60.06 411,-19 407.97,-18.65 404.83,-18.19 401.69,-17.66"/>
<polygon fill="#63b8ff" stroke="#63b8ff" points="2190.19,-67 2200.19,-63.51 2190.19,-60 2190.19,-67"/>
</a>
</g>
</g>
<!-- Node7 -->
<g id="Node000007" class="node">
<title>Node7</title>
<g id="a_Node000007"><a xlink:href="../../dd/d4a/codefragment_8cpp.html" target="_top" xlink:title=" ">
<polygon fill="white" stroke="#666666" points="542,-19 420,-19 420,0 542,0 542,-19"/>
<text text-anchor="middle" x="481" y="-7" font-family="Helvetica,sans-Serif" font-size="10.00">src/codefragment.cpp</text>
</a>
</g>
</g>
<!-- Node3&#45;&gt;Node7 -->
<g id="edge6_Node000003_Node000007" class="edge">
<title>Node3&#45;&gt;Node7</title>
<g id="a_edge6_Node000003_Node000007"><a xlink:title=" ">
<path fill="none" stroke="#63b8ff" d="M2190.2,-63.94C1978.58,-65.25 1194.43,-66.41 551,-19 548.07,-18.78 545.07,-18.53 542.05,-18.26"/>
<polygon fill="#63b8ff" stroke="#63b8ff" points="2190.45,-67.44 2200.43,-63.88 2190.4,-60.44 2190.45,-67.44"/>
</a>
</g>
</g>
<!-- Node8 -->
<g id="Node000008" class="node">
<title>Node8</title>
<g id="a_Node000008"><a xlink:href="../../d8/d0a/conceptdef_8cpp.html" target="_top" xlink:title=" ">
<polygon fill="white" stroke="#666666" points="667.5,-19 560.5,-19 560.5,0 667.5,0 667.5,-19"/>
<text text-anchor="middle" x="614" y="-7" font-family="Helvetica,sans-Serif" font-size="10.00">src/conceptdef.cpp</text>
</a>
</g>
</g>
<!-- Node3&#45;&gt;Node8 -->
<g id="edge7_Node000003_Node000008" class="edge">
<title>Node3&#45;&gt;Node8</title>
<g id="a_edge7_Node000003_Node000008"><a xlink:title=" ">
<path fill="none" stroke="#63b8ff" d="M2190.04,-62.72C1948.54,-59.18 980.23,-43.69 677,-19 673.92,-18.75 670.76,-18.45 667.57,-18.12"/>
<polygon fill="#63b8ff" stroke="#63b8ff" points="2190.27,-66.22 2200.32,-62.87 2190.37,-59.23 2190.27,-66.22"/>
</a>
</g>
</g>
<!-- Node9 -->
<g id="Node000009" class="node">
<title>Node9</title>
<g id="a_Node000009"><a xlink:href="../../d3/dea/definition_8cpp.html" target="_top" xlink:title=" ">
<polygon fill="white" stroke="#666666" points="786,-19 686,-19 686,0 786,0 786,-19"/>
<text text-anchor="middle" x="736" y="-7" font-family="Helvetica,sans-Serif" font-size="10.00">src/definition.cpp</text>
</a>
</g>
</g>
<!-- Node3&#45;&gt;Node9 -->
<g id="edge8_Node000003_Node000009" class="edge">
<title>Node3&#45;&gt;Node9</title>
<g id="a_edge8_Node000003_Node000009"><a xlink:title=" ">
<path fill="none" stroke="#63b8ff" d="M2190.28,-64.03C1998.29,-65.43 1337.63,-66.26 795,-19 792.11,-18.75 789.15,-18.45 786.17,-18.12"/>
<polygon fill="#63b8ff" stroke="#63b8ff" points="2190.42,-67.53 2200.4,-63.95 2190.37,-60.53 2190.42,-67.53"/>
</a>
</g>
</g>
<!-- Node10 -->
<g id="Node000010" class="node">
<title>Node10</title>
<g id="a_Node000010"><a xlink:href="../../d8/d52/dirdef_8cpp.html" target="_top" xlink:title=" ">
<polygon fill="white" stroke="#666666" points="886,-19 804,-19 804,0 886,0 886,-19"/>
<text text-anchor="middle" x="845" y="-7" font-family="Helvetica,sans-Serif" font-size="10.00">src/dirdef.cpp</text>
</a>
</g>
</g>
<!-- Node3&#45;&gt;Node10 -->
<g id="edge9_Node000003_Node000010" class="edge">
<title>Node3&#45;&gt;Node10</title>
<g id="a_edge9_Node000003_Node000010"><a xlink:title=" ">
<path fill="none" stroke="#63b8ff" d="M2190.26,-62.69C1970.62,-59.27 1152.66,-45.03 895,-19 892.11,-18.71 889.13,-18.35 886.14,-17.95"/>
<polygon fill="#63b8ff" stroke="#63b8ff" points="2190.21,-66.19 2200.27,-62.84 2190.32,-59.19 2190.21,-66.19"/>
</a>
</g>
</g>
<!-- Node11 -->
<g id="Node000011" class="node">
<title>Node11</title>
<g id="a_Node000011"><a xlink:href="../../d8/d29/docbookgen_8cpp.html" target="_top" xlink:title=" ">
<polygon fill="white" stroke="#666666" points="1017.5,-19 904.5,-19 904.5,0 1017.5,0 1017.5,-19"/>
<text text-anchor="middle" x="961" y="-7" font-family="Helvetica,sans-Serif" font-size="10.00">src/docbookgen.cpp</text>
</a>
</g>
</g>
<!-- Node3&#45;&gt;Node11 -->
<g id="edge10_Node000003_Node000011" class="edge">
<title>Node3&#45;&gt;Node11</title>
<g id="a_edge10_Node000003_Node000011"><a xlink:title=" ">
<path fill="none" stroke="#63b8ff" d="M2190.35,-63.28C2018.7,-62.23 1475.2,-55.97 1027,-19 1024.01,-18.75 1020.94,-18.47 1017.85,-18.16"/>
<polygon fill="#63b8ff" stroke="#63b8ff" points="2190.38,-66.78 2200.4,-63.34 2190.42,-59.78 2190.38,-66.78"/>
</a>
</g>
</g>
<!-- Node12 -->
<g id="Node000012" class="node">
<title>Node12</title>
<g id="a_Node000012"><a xlink:href="../../d6/ddc/filedef_8cpp.html" target="_top" xlink:title=" ">
<polygon fill="white" stroke="#666666" points="1120,-19 1036,-19 1036,0 1120,0 1120,-19"/>
<text text-anchor="middle" x="1078" y="-7" font-family="Helvetica,sans-Serif" font-size="10.00">src/filedef.cpp</text>
</a>
</g>
</g>
<!-- Node3&#45;&gt;Node12 -->
<g id="edge12_Node000003_Node000012" class="edge">
<title>Node3&#45;&gt;Node12</title>
<g id="a_edge12_Node000003_Node000012"><a xlink:title=" ">
<path fill="none" stroke="#63b8ff" d="M2190.26,-63.74C2027.9,-63.93 1535.03,-60.77 1129,-19 1126.14,-18.71 1123.2,-18.35 1120.25,-17.96"/>
<polygon fill="#63b8ff" stroke="#63b8ff" points="2190.47,-67.24 2200.47,-63.72 2190.46,-60.24 2190.47,-67.24"/>
</a>
</g>
</g>
<!-- Node13 -->
<g id="Node000013" class="node">
<title>Node13</title>
<g id="a_Node000013"><a xlink:href="../../d9/d74/fileparser_8cpp.html" target="_top" xlink:title=" ">
<polygon fill="white" stroke="#666666" points="1237.5,-19 1138.5,-19 1138.5,0 1237.5,0 1237.5,-19"/>
<text text-anchor="middle" x="1188" y="-7" font-family="Helvetica,sans-Serif" font-size="10.00">src/fileparser.cpp</text>
</a>
</g>
</g>
<!-- Node3&#45;&gt;Node13 -->
<g id="edge13_Node000003_Node000013" class="edge">
<title>Node3&#45;&gt;Node13</title>
<g id="a_edge13_Node000003_Node000013"><a xlink:title=" ">
<path fill="none" stroke="#63b8ff" d="M2189.73,-62.94C2038.51,-61.01 1605.33,-52.72 1247,-19 1243.91,-18.71 1240.73,-18.37 1237.53,-18"/>
<polygon fill="#63b8ff" stroke="#63b8ff" points="2190.09,-66.45 2200.13,-63.07 2190.17,-59.45 2190.09,-66.45"/>
</a>
</g>
</g>
<!-- Node14 -->
<g id="Node000014" class="node">
<title>Node14</title>
<g id="a_Node000014"><a xlink:href="../../d9/d5b/fortrancode_8l.html" target="_top" xlink:title=" ">
<polygon fill="white" stroke="#666666" points="1352,-19 1256,-19 1256,0 1352,0 1352,-19"/>
<text text-anchor="middle" x="1304" y="-7" font-family="Helvetica,sans-Serif" font-size="10.00">src/fortrancode.l</text>
</a>
</g>
</g>
<!-- Node3&#45;&gt;Node14 -->
<g id="edge14_Node000003_Node000014" class="edge">
<title>Node3&#45;&gt;Node14</title>
<g id="a_edge14_Node000003_Node000014"><a xlink:title=" ">
<path fill="none" stroke="#63b8ff" d="M2189.88,-62.6C2050.64,-59.91 1673.59,-50.1 1361,-19 1358.11,-18.71 1355.15,-18.38 1352.16,-18.02"/>
<polygon fill="#63b8ff" stroke="#63b8ff" points="2190.21,-66.1 2200.27,-62.79 2190.34,-59.1 2190.21,-66.1"/>
</a>
</g>
</g>
<!-- Node15 -->
<g id="Node000015" class="node">
<title>Node15</title>
<g id="a_Node000015"><a xlink:href="../../db/d41/ftvhelp_8cpp.html" target="_top" xlink:title=" ">
<polygon fill="white" stroke="#666666" points="1458,-19 1370,-19 1370,0 1458,0 1458,-19"/>
<text text-anchor="middle" x="1414" y="-7" font-family="Helvetica,sans-Serif" font-size="10.00">src/ftvhelp.cpp</text>
</a>
</g>
</g>
<!-- Node3&#45;&gt;Node15 -->
<g id="edge15_Node000003_Node000015" class="edge">
<title>Node3&#45;&gt;Node15</title>
<g id="a_edge15_Node000003_Node000015"><a xlink:title=" ">
<path fill="none" stroke="#63b8ff" d="M2189.78,-62.34C2062.05,-59.21 1736.45,-48.75 1466,-19 1463.45,-18.72 1460.84,-18.4 1458.21,-18.05"/>
<polygon fill="#63b8ff" stroke="#63b8ff" points="2189.99,-65.84 2200.08,-62.58 2190.16,-58.84 2189.99,-65.84"/>
</a>
</g>
</g>
<!-- Node16 -->
<g id="Node000016" class="node">
<title>Node16</title>
<g id="a_Node000016"><a xlink:href="../../d6/d42/groupdef_8cpp.html" target="_top" xlink:title=" ">
<polygon fill="white" stroke="#666666" points="1572.5,-19 1475.5,-19 1475.5,0 1572.5,0 1572.5,-19"/>
<text text-anchor="middle" x="1524" y="-7" font-family="Helvetica,sans-Serif" font-size="10.00">src/groupdef.cpp</text>
</a>
</g>
</g>
<!-- Node3&#45;&gt;Node16 -->
<g id="edge16_Node000003_Node000016" class="edge">
<title>Node3&#45;&gt;Node16</title>
<g id="a_edge16_Node000003_Node000016"><a xlink:title=" ">
<path fill="none" stroke="#63b8ff" d="M2190.09,-61.27C2076.38,-56.34 1806.98,-43 1582,-19 1578.96,-18.68 1575.84,-18.31 1572.7,-17.92"/>
<polygon fill="#63b8ff" stroke="#63b8ff" points="2190.13,-64.78 2200.27,-61.71 2190.43,-57.79 2190.13,-64.78"/>
</a>
</g>
</g>
<!-- Node17 -->
<g id="Node000017" class="node">
<title>Node17</title>
<g id="a_Node000017"><a xlink:href="../../da/db0/htmldocvisitor_8cpp.html" target="_top" xlink:title=" ">
<polygon fill="white" stroke="#666666" points="1715,-19 1591,-19 1591,0 1715,0 1715,-19"/>
<text text-anchor="middle" x="1653" y="-7" font-family="Helvetica,sans-Serif" font-size="10.00">src/htmldocvisitor.cpp</text>
</a>
</g>
</g>
<!-- Node3&#45;&gt;Node17 -->
<g id="edge17_Node000003_Node000017" class="edge">
<title>Node3&#45;&gt;Node17</title>
<g id="a_edge17_Node000003_Node000017"><a xlink:title=" ">
<path fill="none" stroke="#63b8ff" d="M2190.12,-59.43C2095.07,-52.24 1893.74,-36.4 1724,-19 1721.16,-18.71 1718.26,-18.4 1715.32,-18.08"/>
<polygon fill="#63b8ff" stroke="#63b8ff" points="2190.11,-62.94 2200.35,-60.2 2190.64,-55.96 2190.11,-62.94"/>
</a>
</g>
</g>
<!-- Node18 -->
<g id="Node000018" class="node">
<title>Node18</title>
<g id="a_Node000018"><a xlink:href="../../d8/d6e/htmlgen_8cpp.html" target="_top" xlink:title=" ">
<polygon fill="white" stroke="#666666" points="1828.5,-19 1733.5,-19 1733.5,0 1828.5,0 1828.5,-19"/>
<text text-anchor="middle" x="1781" y="-7" font-family="Helvetica,sans-Serif" font-size="10.00">src/htmlgen.cpp</text>
</a>
</g>
</g>
<!-- Node3&#45;&gt;Node18 -->
<g id="edge18_Node000003_Node000018" class="edge">
<title>Node3&#45;&gt;Node18</title>
<g id="a_edge18_Node000003_Node000018"><a xlink:title=" ">
<path fill="none" stroke="#63b8ff" d="M2190.12,-58.25C2111.7,-50.59 1963.11,-35.44 1837,-19 1834.27,-18.64 1831.47,-18.26 1828.64,-17.87"/>
<polygon fill="#63b8ff" stroke="#63b8ff" points="2189.96,-61.75 2200.25,-59.24 2190.64,-54.79 2189.96,-61.75"/>
</a>
</g>
</g>
<!-- Node19 -->
<g id="Node000019" class="node">
<title>Node19</title>
<g id="a_Node000019"><a xlink:href="../../db/d14/index_8cpp.html" target="_top" xlink:title="This file contains functions for the various index pages.">
<polygon fill="white" stroke="#666666" points="1927.5,-19 1846.5,-19 1846.5,0 1927.5,0 1927.5,-19"/>
<text text-anchor="middle" x="1887" y="-7" font-family="Helvetica,sans-Serif" font-size="10.00">src/index.cpp</text>
</a>
</g>
</g>
<!-- Node3&#45;&gt;Node19 -->
<g id="edge19_Node000003_Node000019" class="edge">
<title>Node3&#45;&gt;Node19</title>
<g id="a_edge19_Node000003_Node000019"><a xlink:title=" ">
<path fill="none" stroke="#63b8ff" d="M2190.04,-55.98C2128.38,-47.45 2025.42,-32.9 1937,-19 1933.96,-18.52 1930.81,-18.01 1927.65,-17.5"/>
<polygon fill="#63b8ff" stroke="#63b8ff" points="2189.93,-59.5 2200.32,-57.4 2190.89,-52.56 2189.93,-59.5"/>
</a>
</g>
</g>
<!-- Node20 -->
<g id="Node000020" class="node">
<title>Node20</title>
<g id="a_Node000020"><a xlink:href="../../d1/d4e/latexdocvisitor_8cpp.html" target="_top" xlink:title=" ">
<polygon fill="white" stroke="#666666" points="2072,-19 1946,-19 1946,0 2072,0 2072,-19"/>
<text text-anchor="middle" x="2009" y="-7" font-family="Helvetica,sans-Serif" font-size="10.00">src/latexdocvisitor.cpp</text>
</a>
</g>
</g>
<!-- Node3&#45;&gt;Node20 -->
<g id="edge20_Node000003_Node000020" class="edge">
<title>Node3&#45;&gt;Node20</title>
<g id="a_edge20_Node000003_Node000020"><a xlink:title=" ">
<path fill="none" stroke="#63b8ff" d="M2197.15,-52.75C2152.92,-42.82 2088.07,-28.26 2047.21,-19.08"/>
<polygon fill="#63b8ff" stroke="#63b8ff" points="2196.56,-56.21 2207.08,-54.98 2198.09,-49.38 2196.56,-56.21"/>
</a>
</g>
</g>
<!-- Node21 -->
<g id="Node000021" class="node">
<title>Node21</title>
<g id="a_Node000021"><a xlink:href="../../d4/d42/latexgen_8cpp.html" target="_top" xlink:title=" ">
<polygon fill="white" stroke="#666666" points="2187.5,-19 2090.5,-19 2090.5,0 2187.5,0 2187.5,-19"/>
<text text-anchor="middle" x="2139" y="-7" font-family="Helvetica,sans-Serif" font-size="10.00">src/latexgen.cpp</text>
</a>
</g>
</g>
<!-- Node3&#45;&gt;Node21 -->
<g id="edge21_Node000003_Node000021" class="edge">
<title>Node3&#45;&gt;Node21</title>
<g id="a_edge21_Node000003_Node000021"><a xlink:title=" ">
<path fill="none" stroke="#63b8ff" d="M2219,-50.5C2199.5,-40.75 2173.35,-27.68 2156.34,-19.17"/>
<polygon fill="#63b8ff" stroke="#63b8ff" points="2217.46,-53.64 2227.97,-54.98 2220.59,-47.38 2217.46,-53.64"/>
</a>
</g>
</g>
<!-- Node22 -->
<g id="Node000022" class="node">
<title>Node22</title>
<g id="a_Node000022"><a xlink:href="../../d0/d7e/lexcode_8l.html" target="_top" xlink:title=" ">
<polygon fill="white" stroke="#666666" points="2284,-19 2206,-19 2206,0 2284,0 2284,-19"/>
<text text-anchor="middle" x="2245" y="-7" font-family="Helvetica,sans-Serif" font-size="10.00">src/lexcode.l</text>
</a>
</g>
</g>
<!-- Node3&#45;&gt;Node22 -->
<g id="edge22_Node000003_Node000022" class="edge">
<title>Node3&#45;&gt;Node22</title>
<g id="a_edge22_Node000003_Node000022"><a xlink:title=" ">
<path fill="none" stroke="#63b8ff" d="M2245,-44.66C2245,-35.93 2245,-25.99 2245,-19.09"/>
<polygon fill="#63b8ff" stroke="#63b8ff" points="2241.5,-44.75 2245,-54.75 2248.5,-44.75 2241.5,-44.75"/>
</a>
</g>
</g>
<!-- Node23 -->
<g id="Node000023" class="node">
<title>Node23</title>
<g id="a_Node000023"><a xlink:href="../../d7/de7/mangen_8cpp.html" target="_top" xlink:title=" ">
<polygon fill="white" stroke="#666666" points="2396,-19 2302,-19 2302,0 2396,0 2396,-19"/>
<text text-anchor="middle" x="2349" y="-7" font-family="Helvetica,sans-Serif" font-size="10.00">src/mangen.cpp</text>
</a>
</g>
</g>
<!-- Node3&#45;&gt;Node23 -->
<g id="edge23_Node000003_Node000023" class="edge">
<title>Node3&#45;&gt;Node23</title>
<g id="a_edge23_Node000003_Node000023"><a xlink:title=" ">
<path fill="none" stroke="#63b8ff" d="M2270.77,-50.37C2289.87,-40.63 2315.37,-27.64 2331.99,-19.17"/>
<polygon fill="#63b8ff" stroke="#63b8ff" points="2269.03,-47.33 2261.71,-54.98 2272.21,-53.56 2269.03,-47.33"/>
</a>
</g>
</g>
<!-- Node24 -->
<g id="Node000024" class="node">
<title>Node24</title>
<g id="a_Node000024"><a xlink:href="../../d0/d72/memberdef_8cpp.html" target="_top" xlink:title=" ">
<polygon fill="white" stroke="#666666" points="2524,-19 2414,-19 2414,0 2524,0 2524,-19"/>
<text text-anchor="middle" x="2469" y="-7" font-family="Helvetica,sans-Serif" font-size="10.00">src/memberdef.cpp</text>
</a>
</g>
</g>
<!-- Node3&#45;&gt;Node24 -->
<g id="edge24_Node000003_Node000024" class="edge">
<title>Node3&#45;&gt;Node24</title>
<g id="a_edge24_Node000003_Node000024"><a xlink:title=" ">
<path fill="none" stroke="#63b8ff" d="M2290.95,-52.63C2332.91,-42.7 2394.12,-28.22 2432.73,-19.08"/>
<polygon fill="#63b8ff" stroke="#63b8ff" points="2289.91,-49.28 2280.99,-54.98 2291.53,-56.09 2289.91,-49.28"/>
</a>
</g>
</g>
<!-- Node25 -->
<g id="Node000025" class="node">
<title>Node25</title>
<g id="a_Node000025"><a xlink:href="../../d6/d18/membergroup_8cpp.html" target="_top" xlink:title=" ">
<polygon fill="white" stroke="#666666" points="2665.5,-19 2542.5,-19 2542.5,0 2665.5,0 2665.5,-19"/>
<text text-anchor="middle" x="2604" y="-7" font-family="Helvetica,sans-Serif" font-size="10.00">src/membergroup.cpp</text>
</a>
</g>
</g>
<!-- Node3&#45;&gt;Node25 -->
<g id="edge25_Node000003_Node000025" class="edge">
<title>Node3&#45;&gt;Node25</title>
<g id="a_edge25_Node000003_Node000025"><a xlink:title=" ">
<path fill="none" stroke="#63b8ff" d="M2300.03,-55.38C2366.66,-45.54 2478.36,-29.05 2546.21,-19.03"/>
<polygon fill="#63b8ff" stroke="#63b8ff" points="2299.12,-51.97 2289.74,-56.89 2300.15,-58.9 2299.12,-51.97"/>
</a>
</g>
</g>
<!-- Node26 -->
<g id="Node000026" class="node">
<title>Node26</title>
<g id="a_Node000026"><a xlink:href="../../d0/d14/memberlist_8cpp.html" target="_top" xlink:title=" ">
<polygon fill="white" stroke="#666666" points="2794,-19 2684,-19 2684,0 2794,0 2794,-19"/>
<text text-anchor="middle" x="2739" y="-7" font-family="Helvetica,sans-Serif" font-size="10.00">src/memberlist.cpp</text>
</a>
</g>
</g>
<!-- Node3&#45;&gt;Node26 -->
<g id="edge26_Node000003_Node000026" class="edge">
<title>Node3&#45;&gt;Node26</title>
<g id="a_edge26_Node000003_Node000026"><a xlink:title=" ">
<path fill="none" stroke="#63b8ff" d="M2300.06,-55.48C2301.38,-55.32 2302.7,-55.16 2304,-55 2468.47,-35.18 2510.42,-37.91 2675,-19 2677.9,-18.67 2680.86,-18.31 2683.86,-17.95"/>
<polygon fill="#63b8ff" stroke="#63b8ff" points="2299.21,-52.07 2289.75,-56.83 2300.12,-59.01 2299.21,-52.07"/>
</a>
</g>
</g>
<!-- Node27 -->
<g id="Node000027" class="node">
<title>Node27</title>
<g id="a_Node000027"><a xlink:href="../../dd/d5c/moduledef_8cpp.html" target="_top" xlink:title=" ">
<polygon fill="white" stroke="#666666" points="2918,-19 2812,-19 2812,0 2918,0 2918,-19"/>
<text text-anchor="middle" x="2865" y="-7" font-family="Helvetica,sans-Serif" font-size="10.00">src/moduledef.cpp</text>
</a>
</g>
</g>
<!-- Node3&#45;&gt;Node27 -->
<g id="edge27_Node000003_Node000027" class="edge">
<title>Node3&#45;&gt;Node27</title>
<g id="a_edge27_Node000003_Node000027"><a xlink:title=" ">
<path fill="none" stroke="#63b8ff" d="M2300.05,-55.44C2301.38,-55.29 2302.7,-55.14 2304,-55 2525.07,-31.13 2581.85,-42.11 2803,-19 2805.92,-18.7 2808.91,-18.36 2811.93,-18"/>
<polygon fill="#63b8ff" stroke="#63b8ff" points="2299.23,-52.02 2289.74,-56.71 2300.09,-58.96 2299.23,-52.02"/>
</a>
</g>
</g>
<!-- Node28 -->
<g id="Node000028" class="node">
<title>Node28</title>
<g id="a_Node000028"><a xlink:href="../../d7/d1c/namespacedef_8cpp.html" target="_top" xlink:title=" ">
<polygon fill="white" stroke="#666666" points="3061.5,-19 2936.5,-19 2936.5,0 3061.5,0 3061.5,-19"/>
<text text-anchor="middle" x="2999" y="-7" font-family="Helvetica,sans-Serif" font-size="10.00">src/namespacedef.cpp</text>
</a>
</g>
</g>
<!-- Node3&#45;&gt;Node28 -->
<g id="edge28_Node000003_Node000028" class="edge">
<title>Node3&#45;&gt;Node28</title>
<g id="a_edge28_Node000003_Node000028"><a xlink:title=" ">
<path fill="none" stroke="#63b8ff" d="M2300.05,-55.42C2301.38,-55.27 2302.7,-55.13 2304,-55 2579.95,-27.2 2650.71,-43.27 2927,-19 2930.01,-18.74 2933.09,-18.45 2936.19,-18.14"/>
<polygon fill="#63b8ff" stroke="#63b8ff" points="2299.24,-51.99 2289.73,-56.65 2300.07,-58.94 2299.24,-51.99"/>
</a>
</g>
</g>
<!-- Node29 -->
<g id="Node000029" class="node">
<title>Node29</title>
<g id="a_Node000029"><a xlink:href="../../db/dd8/outputlist_8cpp.html" target="_top" xlink:title=" ">
<polygon fill="white" stroke="#666666" points="3180.5,-19 3079.5,-19 3079.5,0 3180.5,0 3180.5,-19"/>
<text text-anchor="middle" x="3130" y="-7" font-family="Helvetica,sans-Serif" font-size="10.00">src/outputlist.cpp</text>
</a>
</g>
</g>
<!-- Node3&#45;&gt;Node29 -->
<g id="edge29_Node000003_Node000029" class="edge">
<title>Node3&#45;&gt;Node29</title>
<g id="a_edge29_Node000003_Node000029"><a xlink:title=" ">
<path fill="none" stroke="#63b8ff" d="M2300.05,-55.4C2301.38,-55.26 2302.7,-55.12 2304,-55 2643.73,-22.63 2731.27,-51.37 3071,-19 3073.68,-18.74 3076.42,-18.45 3079.19,-18.14"/>
<polygon fill="#63b8ff" stroke="#63b8ff" points="2299.25,-51.97 2289.72,-56.6 2300.06,-58.92 2299.25,-51.97"/>
</a>
</g>
</g>
<!-- Node30 -->
<g id="Node000030" class="node">
<title>Node30</title>
<g id="a_Node000030"><a xlink:href="../../d9/db4/pagedef_8cpp.html" target="_top" xlink:title=" ">
<polygon fill="white" stroke="#666666" points="3291.5,-19 3198.5,-19 3198.5,0 3291.5,0 3291.5,-19"/>
<text text-anchor="middle" x="3245" y="-7" font-family="Helvetica,sans-Serif" font-size="10.00">src/pagedef.cpp</text>
</a>
</g>
</g>
<!-- Node3&#45;&gt;Node30 -->
<g id="edge30_Node000003_Node000030" class="edge">
<title>Node3&#45;&gt;Node30</title>
<g id="a_edge30_Node000003_Node000030"><a xlink:title=" ">
<path fill="none" stroke="#63b8ff" d="M2300.05,-55.39C2301.38,-55.25 2302.7,-55.12 2304,-55 2696.44,-18.85 2797.75,-57.16 3190,-19 3192.69,-18.74 3195.45,-18.43 3198.24,-18.09"/>
<polygon fill="#63b8ff" stroke="#63b8ff" points="2299.26,-51.95 2289.72,-56.57 2300.05,-58.91 2299.26,-51.95"/>
</a>
</g>
</g>
<!-- Node31 -->
<g id="Node000031" class="node">
<title>Node31</title>
<g id="a_Node000031"><a xlink:href="../../d3/ded/pycode_8l.html" target="_top" xlink:title=" ">
<polygon fill="white" stroke="#666666" points="3384.5,-19 3309.5,-19 3309.5,0 3384.5,0 3384.5,-19"/>
<text text-anchor="middle" x="3347" y="-7" font-family="Helvetica,sans-Serif" font-size="10.00">src/pycode.l</text>
</a>
</g>
</g>
<!-- Node3&#45;&gt;Node31 -->
<g id="edge31_Node000003_Node000031" class="edge">
<title>Node3&#45;&gt;Node31</title>
<g id="a_edge31_Node000003_Node000031"><a xlink:title=" ">
<path fill="none" stroke="#63b8ff" d="M2300.05,-55.38C2301.38,-55.24 2302.7,-55.12 2304,-55 2745.62,-15.33 2860.25,-67.41 3301,-19 3303.74,-18.7 3306.57,-18.33 3309.41,-17.91"/>
<polygon fill="#63b8ff" stroke="#63b8ff" points="2299.26,-51.94 2289.72,-56.54 2300.05,-58.9 2299.26,-51.94"/>
</a>
</g>
</g>
<!-- Node3&#45;&gt;Node32 -->
<g id="edge32_Node000003_Node000032" class="edge">
<title>Node3&#45;&gt;Node32</title>
<g id="a_edge32_Node000003_Node000032"><a xlink:title=" ">
<path fill="none" stroke="#63b8ff" d="M2300.04,-55.34C2301.37,-55.22 2302.69,-55.1 2304,-55 3221.18,18.75 3457.83,-104.35 4374,-19 4376.72,-18.75 4379.51,-18.43 4382.32,-18.07"/>
<polygon fill="#63b8ff" stroke="#63b8ff" points="2299.28,-51.91 2289.71,-56.46 2300.03,-58.87 2299.28,-51.91"/>
</a>
</g>
</g>
<!-- Node33 -->
<g id="Node000033" class="node">
<title>Node33</title>
<g id="a_Node000033"><a xlink:href="../../d2/dda/sqlcode_8l.html" target="_top" xlink:title=" ">
<polygon fill="white" stroke="#666666" points="3479.5,-19 3402.5,-19 3402.5,0 3479.5,0 3479.5,-19"/>
<text text-anchor="middle" x="3441" y="-7" font-family="Helvetica,sans-Serif" font-size="10.00">src/sqlcode.l</text>
</a>
</g>
</g>
<!-- Node3&#45;&gt;Node33 -->
<g id="edge33_Node000003_Node000033" class="edge">
<title>Node3&#45;&gt;Node33</title>
<g id="a_edge33_Node000003_Node000033"><a xlink:title=" ">
<path fill="none" stroke="#63b8ff" d="M2300.04,-55.37C2301.38,-55.24 2302.7,-55.12 2304,-55 2786.83,-12.38 2912.01,-70.27 3394,-19 3396.72,-18.71 3399.52,-18.35 3402.34,-17.95"/>
<polygon fill="#63b8ff" stroke="#63b8ff" points="2299.27,-51.94 2289.72,-56.53 2300.05,-58.89 2299.27,-51.94"/>
</a>
</g>
</g>
<!-- Node34 -->
<g id="Node000034" class="node">
<title>Node34</title>
<g id="a_Node000034"><a xlink:href="../../d8/df8/sqlite3gen_8cpp.html" target="_top" xlink:title=" ">
<polygon fill="white" stroke="#666666" points="3602.5,-19 3497.5,-19 3497.5,0 3602.5,0 3602.5,-19"/>
<text text-anchor="middle" x="3550" y="-7" font-family="Helvetica,sans-Serif" font-size="10.00">src/sqlite3gen.cpp</text>
</a>
</g>
</g>
<!-- Node3&#45;&gt;Node34 -->
<g id="edge34_Node000003_Node000034" class="edge">
<title>Node3&#45;&gt;Node34</title>
<g id="a_edge34_Node000003_Node000034"><a xlink:title=" ">
<path fill="none" stroke="#63b8ff" d="M2300.04,-55.37C2301.38,-55.24 2302.7,-55.11 2304,-55 2828.93,-9.36 2963.97,-63.42 3489,-19 3491.77,-18.77 3494.61,-18.49 3497.47,-18.19"/>
<polygon fill="#63b8ff" stroke="#63b8ff" points="2299.27,-51.93 2289.72,-56.52 2300.04,-58.89 2299.27,-51.93"/>
</a>
</g>
</g>
<!-- Node35 -->
<g id="Node000035" class="node">
<title>Node35</title>
<g id="a_Node000035"><a xlink:href="../../d7/d56/tooltip_8cpp.html" target="_top" xlink:title=" ">
<polygon fill="white" stroke="#666666" points="3707,-19 3621,-19 3621,0 3707,0 3707,-19"/>
<text text-anchor="middle" x="3664" y="-7" font-family="Helvetica,sans-Serif" font-size="10.00">src/tooltip.cpp</text>
</a>
</g>
</g>
<!-- Node3&#45;&gt;Node35 -->
<g id="edge35_Node000003_Node000035" class="edge">
<title>Node3&#45;&gt;Node35</title>
<g id="a_edge35_Node000003_Node000035"><a xlink:title=" ">
<path fill="none" stroke="#63b8ff" d="M2300.04,-55.36C2301.37,-55.23 2302.69,-55.11 2304,-55 2883.44,-5.45 3033.06,-74.03 3612,-19 3614.91,-18.72 3617.91,-18.38 3620.93,-18"/>
<polygon fill="#63b8ff" stroke="#63b8ff" points="2299.27,-51.93 2289.72,-56.5 2300.04,-58.88 2299.27,-51.93"/>
</a>
</g>
</g>
<!-- Node36 -->
<g id="Node000036" class="node">
<title>Node36</title>
<g id="a_Node000036"><a xlink:href="../../df/d2d/util_8cpp.html" target="_top" xlink:title=" ">
<polygon fill="white" stroke="#666666" points="3795,-19 3725,-19 3725,0 3795,0 3795,-19"/>
<text text-anchor="middle" x="3760" y="-7" font-family="Helvetica,sans-Serif" font-size="10.00">src/util.cpp</text>
</a>
</g>
</g>
<!-- Node3&#45;&gt;Node36 -->
<g id="edge36_Node000003_Node000036" class="edge">
<title>Node3&#45;&gt;Node36</title>
<g id="a_edge36_Node000003_Node000036"><a xlink:title=" ">
<path fill="none" stroke="#63b8ff" d="M2300.04,-55.36C2301.37,-55.23 2302.69,-55.11 2304,-55 2929.53,-2.15 3091.91,-86.77 3716,-19 3718.78,-18.7 3721.66,-18.31 3724.53,-17.87"/>
<polygon fill="#63b8ff" stroke="#63b8ff" points="2299.27,-51.92 2289.71,-56.49 2300.04,-58.88 2299.27,-51.92"/>
</a>
</g>
</g>
<!-- Node37 -->
<g id="Node000037" class="node">
<title>Node37</title>
<g id="a_Node000037"><a xlink:href="../../d5/d6a/vhdlcode_8l.html" target="_top" xlink:title=" ">
<polygon fill="white" stroke="#666666" points="3897,-19 3813,-19 3813,0 3897,0 3897,-19"/>
<text text-anchor="middle" x="3855" y="-7" font-family="Helvetica,sans-Serif" font-size="10.00">src/vhdlcode.l</text>
</a>
</g>
</g>
<!-- Node3&#45;&gt;Node37 -->
<g id="edge37_Node000003_Node000037" class="edge">
<title>Node3&#45;&gt;Node37</title>
<g id="a_edge37_Node000003_Node000037"><a xlink:title=" ">
<path fill="none" stroke="#63b8ff" d="M2300.04,-55.36C2301.37,-55.23 2302.69,-55.11 2304,-55 2968.53,0.64 3140.12,-81.97 3804,-19 3806.86,-18.73 3809.8,-18.39 3812.76,-18.01"/>
<polygon fill="#63b8ff" stroke="#63b8ff" points="2299.27,-51.92 2289.71,-56.49 2300.04,-58.88 2299.27,-51.92"/>
</a>
</g>
</g>
<!-- Node38 -->
<g id="Node000038" class="node">
<title>Node38</title>
<g id="a_Node000038"><a xlink:href="../../de/dea/vhdldocgen_8cpp.html" target="_top" xlink:title=" ">
<polygon fill="white" stroke="#666666" points="4025,-19 3915,-19 3915,0 4025,0 4025,-19"/>
<text text-anchor="middle" x="3970" y="-7" font-family="Helvetica,sans-Serif" font-size="10.00">src/vhdldocgen.cpp</text>
</a>
</g>
</g>
<!-- Node3&#45;&gt;Node38 -->
<g id="edge38_Node000003_Node000038" class="edge">
<title>Node3&#45;&gt;Node38</title>
<g id="a_edge38_Node000003_Node000038"><a xlink:title=" ">
<path fill="none" stroke="#63b8ff" d="M2300.04,-55.35C2301.37,-55.23 2302.69,-55.11 2304,-55 3013.74,3.88 3195.94,-73.96 3906,-19 3908.91,-18.78 3911.88,-18.51 3914.88,-18.21"/>
<polygon fill="#63b8ff" stroke="#63b8ff" points="2299.27,-51.92 2289.71,-56.48 2300.03,-58.88 2299.27,-51.92"/>
</a>
</g>
</g>
<!-- Node39 -->
<g id="Node000039" class="node">
<title>Node39</title>
<g id="a_Node000039"><a xlink:href="../../d1/d86/vhdljjparser_8cpp.html" target="_top" xlink:title=" ">
<polygon fill="white" stroke="#666666" points="4154.5,-19 4043.5,-19 4043.5,0 4154.5,0 4154.5,-19"/>
<text text-anchor="middle" x="4099" y="-7" font-family="Helvetica,sans-Serif" font-size="10.00">src/vhdljjparser.cpp</text>
</a>
</g>
</g>
<!-- Node3&#45;&gt;Node39 -->
<g id="edge39_Node000003_Node000039" class="edge">
<title>Node3&#45;&gt;Node39</title>
<g id="a_edge39_Node000003_Node000039"><a xlink:title=" ">
<path fill="none" stroke="#63b8ff" d="M2300.04,-55.35C2301.37,-55.22 2302.69,-55.11 2304,-55 3070.47,7.95 3267.13,-76.95 4034,-19 4037.06,-18.77 4040.2,-18.49 4043.37,-18.18"/>
<polygon fill="#63b8ff" stroke="#63b8ff" points="2299.28,-51.91 2289.71,-56.47 2300.03,-58.87 2299.28,-51.91"/>
</a>
</g>
</g>
<!-- Node40 -->
<g id="Node000040" class="node">
<title>Node40</title>
<g id="a_Node000040"><a xlink:href="../../dc/dc1/xmlcode_8l.html" target="_top" xlink:title=" ">
<polygon fill="white" stroke="#666666" points="4255,-19 4173,-19 4173,0 4255,0 4255,-19"/>
<text text-anchor="middle" x="4214" y="-7" font-family="Helvetica,sans-Serif" font-size="10.00">src/xmlcode.l</text>
</a>
</g>
</g>
<!-- Node3&#45;&gt;Node40 -->
<g id="edge40_Node000003_Node000040" class="edge">
<title>Node3&#45;&gt;Node40</title>
<g id="a_edge40_Node000003_Node000040"><a xlink:title=" ">
<path fill="none" stroke="#63b8ff" d="M2300.04,-55.35C2301.37,-55.22 2302.69,-55.11 2304,-55 3128.1,12.08 3340.82,-96.5 4164,-19 4166.89,-18.73 4169.87,-18.38 4172.86,-17.99"/>
<polygon fill="#63b8ff" stroke="#63b8ff" points="2299.28,-51.91 2289.71,-56.47 2300.03,-58.87 2299.28,-51.91"/>
</a>
</g>
</g>
<!-- Node41 -->
<g id="Node000041" class="node">
<title>Node41</title>
<g id="a_Node000041"><a xlink:href="../../d0/dc3/xmlgen_8cpp.html" target="_top" xlink:title=" ">
<polygon fill="white" stroke="#666666" points="4364.5,-19 4273.5,-19 4273.5,0 4364.5,0 4364.5,-19"/>
<text text-anchor="middle" x="4319" y="-7" font-family="Helvetica,sans-Serif" font-size="10.00">src/xmlgen.cpp</text>
</a>
</g>
</g>
<!-- Node3&#45;&gt;Node41 -->
<g id="edge41_Node000003_Node000041" class="edge">
<title>Node3&#45;&gt;Node41</title>
<g id="a_edge41_Node000003_Node000041"><a xlink:title=" ">
<path fill="none" stroke="#63b8ff" d="M2300.04,-55.35C2301.37,-55.22 2302.69,-55.11 2304,-55 3172.42,15.26 3395.95,-93.7 4264,-19 4267.08,-18.73 4270.25,-18.4 4273.44,-18.03"/>
<polygon fill="#63b8ff" stroke="#63b8ff" points="2299.28,-51.91 2289.71,-56.46 2300.03,-58.87 2299.28,-51.91"/>
</a>
</g>
</g>
</g>
</svg>
