<?xml version="1.0" encoding="UTF-8" standalone="no"?>
<!DOCTYPE svg PUBLIC "-//W3C//DTD SVG 1.1//EN"
 "http://www.w3.org/Graphics/SVG/1.1/DTD/svg11.dtd">
<!-- Generated by graphviz version 2.43.0 (0)
 -->
<!-- Title: TemplateNodeIf::GuardedNodes Pages: 1 -->
<svg width="179pt" height="160pt"
 viewBox="0.00 0.00 179.00 160.00" xmlns="http://www.w3.org/2000/svg" xmlns:xlink="http://www.w3.org/1999/xlink">
<g id="graph0" class="graph" transform="scale(1 1) rotate(0) translate(4 156)">
<title>TemplateNodeIf::GuardedNodes</title>
<!-- Node1 -->
<g id="Node000001" class="node">
<title>Node1</title>
<g id="a_Node000001"><a xlink:title=" ">
<polygon fill="#999999" stroke="#666666" points="171,-19 0,-19 0,0 171,0 171,-19"/>
<text text-anchor="middle" x="85.5" y="-7" font-family="Helvetica,sans-Serif" font-size="10.00">TemplateNodeIf::GuardedNodes</text>
</a>
</g>
</g>
<!-- Node2 -->
<g id="Node000002" class="node">
<title>Node2</title>
<g id="a_Node000002"><a xlink:href="../../df/daf/class_template_node_list.html" target="_top" xlink:title="Class representing a list of AST nodes in a template.">
<polygon fill="white" stroke="#666666" points="137.5,-85 33.5,-85 33.5,-66 137.5,-66 137.5,-85"/>
<text text-anchor="middle" x="85.5" y="-73" font-family="Helvetica,sans-Serif" font-size="10.00">TemplateNodeList</text>
</a>
</g>
</g>
<!-- Node2&#45;&gt;Node1 -->
<g id="edge1_Node000001_Node000002" class="edge">
<title>Node2&#45;&gt;Node1</title>
<g id="a_edge1_Node000001_Node000002"><a xlink:title=" ">
<path fill="none" stroke="#9a32cd" stroke-dasharray="5,2" d="M85.5,-55.58C85.5,-43.63 85.5,-28.72 85.5,-19.41"/>
<polygon fill="#9a32cd" stroke="#9a32cd" points="82,-55.87 85.5,-65.87 89,-55.87 82,-55.87"/>
</a>
</g>
<text text-anchor="middle" x="112.5" y="-40" font-family="Helvetica,sans-Serif" font-size="10.00" fill="grey"> trueNodes</text>
</g>
<!-- Node3 -->
<g id="Node000003" class="node">
<title>Node3</title>
<g id="a_Node000003"><a xlink:title=" ">
<polygon fill="white" stroke="#666666" points="160.5,-152 10.5,-152 10.5,-122 160.5,-122 160.5,-152"/>
<text text-anchor="start" x="18.5" y="-140" font-family="Helvetica,sans-Serif" font-size="10.00">std::vector&lt; TemplateNode</text>
<text text-anchor="middle" x="85.5" y="-129" font-family="Helvetica,sans-Serif" font-size="10.00">Ptr &gt;</text>
</a>
</g>
</g>
<!-- Node3&#45;&gt;Node2 -->
<g id="edge2_Node000002_Node000003" class="edge">
<title>Node3&#45;&gt;Node2</title>
<g id="a_edge2_Node000002_Node000003"><a xlink:title=" ">
<path fill="none" stroke="#63b8ff" d="M85.5,-111.79C85.5,-102.36 85.5,-92.15 85.5,-85.16"/>
<polygon fill="#63b8ff" stroke="#63b8ff" points="82,-111.9 85.5,-121.9 89,-111.9 82,-111.9"/>
</a>
</g>
</g>
</g>
</svg>
