<?xml version="1.0" encoding="UTF-8" standalone="no"?>
<!DOCTYPE svg PUBLIC "-//W3C//DTD SVG 1.1//EN"
 "http://www.w3.org/Graphics/SVG/1.1/DTD/svg11.dtd">
<!-- Generated by graphviz version 2.43.0 (0)
 -->
<!-- Title: CodeFragmentManager::Private::FragmentInfo Pages: 1 -->
<svg width="235pt" height="115pt"
 viewBox="0.00 0.00 234.50 115.00" xmlns="http://www.w3.org/2000/svg" xmlns:xlink="http://www.w3.org/1999/xlink">
<g id="graph0" class="graph" transform="scale(1 1) rotate(0) translate(4 111)">
<title>CodeFragmentManager::Private::FragmentInfo</title>
<!-- Node1 -->
<g id="Node000001" class="node">
<title>Node1</title>
<g id="a_Node000001"><a xlink:title=" ">
<polygon fill="#999999" stroke="#666666" points="155,-30 24,-30 24,0 155,0 155,-30"/>
<text text-anchor="start" x="32" y="-18" font-family="Helvetica,sans-Serif" font-size="10.00">CodeFragmentManager</text>
<text text-anchor="middle" x="89.5" y="-7" font-family="Helvetica,sans-Serif" font-size="10.00">::Private::FragmentInfo</text>
</a>
</g>
</g>
<!-- Node2 -->
<g id="Node000002" class="node">
<title>Node2</title>
<g id="a_Node000002"><a xlink:href="../../d9/d45/class_q_c_string.html" target="_top" xlink:title="This is an alternative implementation of QCString.">
<polygon fill="white" stroke="#666666" points="59,-107 0,-107 0,-88 59,-88 59,-107"/>
<text text-anchor="middle" x="29.5" y="-95" font-family="Helvetica,sans-Serif" font-size="10.00">QCString</text>
</a>
</g>
</g>
<!-- Node2&#45;&gt;Node1 -->
<g id="edge1_Node000001_Node000002" class="edge">
<title>Node2&#45;&gt;Node1</title>
<g id="a_edge1_Node000001_Node000002"><a xlink:title=" ">
<path fill="none" stroke="#9a32cd" stroke-dasharray="5,2" d="M25.65,-77.8C24.67,-68.24 25.15,-56.79 30.5,-48 35.05,-40.54 41.99,-34.7 49.54,-30.18"/>
<polygon fill="#9a32cd" stroke="#9a32cd" points="22.22,-78.57 27.24,-87.9 29.14,-77.47 22.22,-78.57"/>
</a>
</g>
<text text-anchor="middle" x="79.5" y="-62" font-family="Helvetica,sans-Serif" font-size="10.00" fill="grey"> fileContents</text>
<text text-anchor="middle" x="79.5" y="-51" font-family="Helvetica,sans-Serif" font-size="10.00" fill="grey">fileContentsTrimLeft</text>
</g>
<!-- Node3 -->
<g id="Node000003" class="node">
<title>Node3</title>
<g id="a_Node000003"><a xlink:href="../../db/d8e/class_output_code_list.html" target="_top" xlink:title="Class representing a list of different code generators.">
<polygon fill="white" stroke="#666666" points="196.5,-107 104.5,-107 104.5,-88 196.5,-88 196.5,-107"/>
<text text-anchor="middle" x="150.5" y="-95" font-family="Helvetica,sans-Serif" font-size="10.00">OutputCodeList</text>
</a>
</g>
</g>
<!-- Node3&#45;&gt;Node1 -->
<g id="edge2_Node000001_Node000003" class="edge">
<title>Node3&#45;&gt;Node1</title>
<g id="a_edge2_Node000001_Node000003"><a xlink:title=" ">
<path fill="none" stroke="#9a32cd" stroke-dasharray="5,2" d="M144.51,-78.25C140.82,-68.67 135.45,-57.06 128.5,-48 123.38,-41.33 116.62,-35.16 110.16,-30.06"/>
<polygon fill="#9a32cd" stroke="#9a32cd" points="141.32,-79.72 147.96,-87.98 147.91,-77.38 141.32,-79.72"/>
</a>
</g>
<text text-anchor="middle" x="183.5" y="-56.5" font-family="Helvetica,sans-Serif" font-size="10.00" fill="grey"> recorderCodeList</text>
</g>
</g>
</svg>
