<?xml version="1.0" encoding="UTF-8" standalone="no"?>
<!DOCTYPE svg PUBLIC "-//W3C//DTD SVG 1.1//EN"
 "http://www.w3.org/Graphics/SVG/1.1/DTD/svg11.dtd">
<!-- Generated by graphviz version 2.43.0 (0)
 -->
<!-- Title: SearchIndexExternal::SearchDocEntry Pages: 1 -->
<svg width="181pt" height="148pt"
 viewBox="0.00 0.00 180.50 148.00" xmlns="http://www.w3.org/2000/svg" xmlns:xlink="http://www.w3.org/1999/xlink">
<g id="graph0" class="graph" transform="scale(1 1) rotate(0) translate(4 144)">
<title>SearchIndexExternal::SearchDocEntry</title>
<!-- Node1 -->
<g id="Node000001" class="node">
<title>Node1</title>
<g id="a_Node000001"><a xlink:title=" ">
<polygon fill="#999999" stroke="#666666" points="126,-30 9,-30 9,0 126,0 126,-30"/>
<text text-anchor="start" x="17" y="-18" font-family="Helvetica,sans-Serif" font-size="10.00">SearchIndexExternal</text>
<text text-anchor="middle" x="67.5" y="-7" font-family="Helvetica,sans-Serif" font-size="10.00">::SearchDocEntry</text>
</a>
</g>
</g>
<!-- Node2 -->
<g id="Node000002" class="node">
<title>Node2</title>
<g id="a_Node000002"><a xlink:href="../../d9/d45/class_q_c_string.html" target="_top" xlink:title="This is an alternative implementation of QCString.">
<polygon fill="white" stroke="#666666" points="59,-140 0,-140 0,-121 59,-121 59,-140"/>
<text text-anchor="middle" x="29.5" y="-128" font-family="Helvetica,sans-Serif" font-size="10.00">QCString</text>
</a>
</g>
</g>
<!-- Node2&#45;&gt;Node1 -->
<g id="edge1_Node000001_Node000002" class="edge">
<title>Node2&#45;&gt;Node1</title>
<g id="a_edge1_Node000001_Node000002"><a xlink:title=" ">
<path fill="none" stroke="#9a32cd" stroke-dasharray="5,2" d="M35.58,-110.95C41.01,-94.42 49.22,-69.57 56.5,-48 58.49,-42.1 60.72,-35.6 62.65,-30.01"/>
<polygon fill="#9a32cd" stroke="#9a32cd" points="32.1,-110.33 32.31,-120.92 38.75,-112.51 32.1,-110.33"/>
</a>
</g>
<text text-anchor="middle" x="70.5" y="-95" font-family="Helvetica,sans-Serif" font-size="10.00" fill="grey"> args</text>
<text text-anchor="middle" x="70.5" y="-84" font-family="Helvetica,sans-Serif" font-size="10.00" fill="grey">extId</text>
<text text-anchor="middle" x="70.5" y="-73" font-family="Helvetica,sans-Serif" font-size="10.00" fill="grey">name</text>
<text text-anchor="middle" x="70.5" y="-62" font-family="Helvetica,sans-Serif" font-size="10.00" fill="grey">type</text>
<text text-anchor="middle" x="70.5" y="-51" font-family="Helvetica,sans-Serif" font-size="10.00" fill="grey">url</text>
</g>
<!-- Node3 -->
<g id="Node000003" class="node">
<title>Node3</title>
<g id="a_Node000003"><a xlink:href="../../d8/d33/class_grow_buf.html" target="_top" xlink:title="Class representing a string buffer optimised for growing.">
<polygon fill="white" stroke="#666666" points="136,-140 77,-140 77,-121 136,-121 136,-140"/>
<text text-anchor="middle" x="106.5" y="-128" font-family="Helvetica,sans-Serif" font-size="10.00">GrowBuf</text>
</a>
</g>
</g>
<!-- Node3&#45;&gt;Node1 -->
<g id="edge2_Node000001_Node000003" class="edge">
<title>Node3&#45;&gt;Node1</title>
<g id="a_edge2_Node000001_Node000003"><a xlink:title=" ">
<path fill="none" stroke="#9a32cd" stroke-dasharray="5,2" d="M102.66,-110.58C98.96,-93.81 92.72,-68.82 84.5,-48 82.1,-41.91 78.84,-35.49 75.82,-30.01"/>
<polygon fill="#9a32cd" stroke="#9a32cd" points="99.31,-111.67 104.81,-120.73 106.16,-110.22 99.31,-111.67"/>
</a>
</g>
<text text-anchor="middle" x="136.5" y="-78.5" font-family="Helvetica,sans-Serif" font-size="10.00" fill="grey"> importantText</text>
<text text-anchor="middle" x="136.5" y="-67.5" font-family="Helvetica,sans-Serif" font-size="10.00" fill="grey">normalText</text>
</g>
</g>
</svg>
