<?xml version="1.0" encoding="UTF-8" standalone="no"?>
<!DOCTYPE svg PUBLIC "-//W3C//DTD SVG 1.1//EN"
 "http://www.w3.org/Graphics/SVG/1.1/DTD/svg11.dtd">
<!-- Generated by graphviz version 2.43.0 (0)
 -->
<!-- Title: SymbolResolver::Private Pages: 1 -->
<svg width="280pt" height="160pt"
 viewBox="0.00 0.00 279.50 160.00" xmlns="http://www.w3.org/2000/svg" xmlns:xlink="http://www.w3.org/1999/xlink">
<g id="graph0" class="graph" transform="scale(1 1) rotate(0) translate(4 156)">
<title>SymbolResolver::Private</title>
<!-- Node1 -->
<g id="Node000001" class="node">
<title>Node1</title>
<g id="a_Node000001"><a xlink:title=" ">
<polygon fill="#999999" stroke="#666666" points="189,-19 52,-19 52,0 189,0 189,-19"/>
<text text-anchor="middle" x="120.5" y="-7" font-family="Helvetica,sans-Serif" font-size="10.00">SymbolResolver::Private</text>
</a>
</g>
</g>
<!-- Node2 -->
<g id="Node000002" class="node">
<title>Node2</title>
<g id="a_Node000002"><a xlink:href="../../d9/d45/class_q_c_string.html" target="_top" xlink:title="This is an alternative implementation of QCString.">
<polygon fill="white" stroke="#666666" points="59,-96 0,-96 0,-77 59,-77 59,-96"/>
<text text-anchor="middle" x="29.5" y="-84" font-family="Helvetica,sans-Serif" font-size="10.00">QCString</text>
</a>
</g>
</g>
<!-- Node2&#45;&gt;Node1 -->
<g id="edge1_Node000001_Node000002" class="edge">
<title>Node2&#45;&gt;Node1</title>
<g id="a_edge1_Node000001_Node000002"><a xlink:title=" ">
<path fill="none" stroke="#9a32cd" stroke-dasharray="5,2" d="M32.48,-66.92C34.96,-56.91 39.45,-44.99 47.5,-37 55.82,-28.74 66.92,-23.03 77.95,-19.09"/>
<polygon fill="#9a32cd" stroke="#9a32cd" points="29.04,-66.28 30.5,-76.78 35.9,-67.66 29.04,-66.28"/>
</a>
</g>
<text text-anchor="middle" x="81.5" y="-51" font-family="Helvetica,sans-Serif" font-size="10.00" fill="grey"> resolvedType</text>
<text text-anchor="middle" x="81.5" y="-40" font-family="Helvetica,sans-Serif" font-size="10.00" fill="grey">templateSpec</text>
</g>
<!-- Node3 -->
<g id="Node000003" class="node">
<title>Node3</title>
<g id="a_Node000003"><a xlink:href="../../da/d09/class_member_def.html" target="_top" xlink:title="A model of a class/file/namespace member symbol.">
<polygon fill="white" stroke="#666666" points="154.5,-96 80.5,-96 80.5,-77 154.5,-77 154.5,-96"/>
<text text-anchor="middle" x="117.5" y="-84" font-family="Helvetica,sans-Serif" font-size="10.00">MemberDef</text>
</a>
</g>
</g>
<!-- Node3&#45;&gt;Node1 -->
<g id="edge2_Node000001_Node000003" class="edge">
<title>Node3&#45;&gt;Node1</title>
<g id="a_edge2_Node000001_Node000003"><a xlink:title=" ">
<path fill="none" stroke="#9a32cd" stroke-dasharray="5,2" d="M118.26,-66.52C118.87,-51.24 119.7,-30.48 120.16,-19"/>
<polygon fill="#9a32cd" stroke="#9a32cd" points="114.75,-66.76 117.84,-76.9 121.74,-67.04 114.75,-66.76"/>
</a>
</g>
<text text-anchor="middle" x="141" y="-45.5" font-family="Helvetica,sans-Serif" font-size="10.00" fill="grey"> typeDef</text>
</g>
<!-- Node4 -->
<g id="Node000004" class="node">
<title>Node4</title>
<g id="a_Node000004"><a xlink:href="../../d5/dcc/class_definition.html" target="_top" xlink:title="The common base class of all entity definitions found in the sources.">
<polygon fill="white" stroke="#666666" points="149.5,-152 85.5,-152 85.5,-133 149.5,-133 149.5,-152"/>
<text text-anchor="middle" x="117.5" y="-140" font-family="Helvetica,sans-Serif" font-size="10.00">Definition</text>
</a>
</g>
</g>
<!-- Node4&#45;&gt;Node3 -->
<g id="edge3_Node000003_Node000004" class="edge">
<title>Node4&#45;&gt;Node3</title>
<g id="a_edge3_Node000003_Node000004"><a xlink:title=" ">
<path fill="none" stroke="#63b8ff" d="M117.5,-122.3C117.5,-113.41 117.5,-103.28 117.5,-96.25"/>
<polygon fill="#63b8ff" stroke="#63b8ff" points="114,-122.58 117.5,-132.58 121,-122.58 114,-122.58"/>
</a>
</g>
</g>
<!-- Node5 -->
<g id="Node000005" class="node">
<title>Node5</title>
<g id="a_Node000005"><a xlink:href="../../de/db0/class_file_def.html" target="_top" xlink:title="A model of a file symbol.">
<polygon fill="white" stroke="#666666" points="224,-96 173,-96 173,-77 224,-77 224,-96"/>
<text text-anchor="middle" x="198.5" y="-84" font-family="Helvetica,sans-Serif" font-size="10.00">FileDef</text>
</a>
</g>
</g>
<!-- Node4&#45;&gt;Node5 -->
<g id="edge6_Node000005_Node000004" class="edge">
<title>Node4&#45;&gt;Node5</title>
<g id="a_edge6_Node000005_Node000004"><a xlink:title=" ">
<path fill="none" stroke="#63b8ff" d="M139.07,-127.12C153.86,-117.26 173.01,-104.49 185.52,-96.15"/>
<polygon fill="#63b8ff" stroke="#63b8ff" points="136.89,-124.36 130.51,-132.82 140.78,-130.19 136.89,-124.36"/>
</a>
</g>
</g>
<!-- Node5&#45;&gt;Node1 -->
<g id="edge4_Node000001_Node000005" class="edge">
<title>Node5&#45;&gt;Node1</title>
<g id="a_edge4_Node000001_Node000005"><a xlink:title=" ">
<path fill="none" stroke="#9a32cd" stroke-dasharray="5,2" d="M189.49,-67.77C183.84,-57.88 175.87,-45.82 166.5,-37 158.71,-29.67 148.54,-23.54 139.74,-19.03"/>
<polygon fill="#9a32cd" stroke="#9a32cd" points="186.49,-69.6 194.32,-76.74 192.65,-66.27 186.49,-69.6"/>
</a>
</g>
<text text-anchor="middle" x="215" y="-45.5" font-family="Helvetica,sans-Serif" font-size="10.00" fill="grey"> m_fileScope</text>
</g>
<!-- Node6 -->
<g id="Node000006" class="node">
<title>Node6</title>
<g id="a_Node000006"><a xlink:href="../../d0/d46/class_definition_mutable.html" target="_top" xlink:title=" ">
<polygon fill="white" stroke="#666666" points="271.5,-152 167.5,-152 167.5,-133 271.5,-133 271.5,-152"/>
<text text-anchor="middle" x="219.5" y="-140" font-family="Helvetica,sans-Serif" font-size="10.00">DefinitionMutable</text>
</a>
</g>
</g>
<!-- Node6&#45;&gt;Node5 -->
<g id="edge5_Node000005_Node000006" class="edge">
<title>Node6&#45;&gt;Node5</title>
<g id="a_edge5_Node000005_Node000006"><a xlink:title=" ">
<path fill="none" stroke="#63b8ff" d="M212.38,-123.19C208.84,-114.09 204.73,-103.51 201.9,-96.25"/>
<polygon fill="#63b8ff" stroke="#63b8ff" points="209.15,-124.53 216.03,-132.58 215.67,-121.99 209.15,-124.53"/>
</a>
</g>
</g>
</g>
</svg>
