<?xml version="1.0" encoding="UTF-8" standalone="no"?>
<!DOCTYPE svg PUBLIC "-//W3C//DTD SVG 1.1//EN"
 "http://www.w3.org/Graphics/SVG/1.1/DTD/svg11.dtd">
<!-- Generated by graphviz version 2.43.0 (0)
 -->
<!-- Title: MemberList Pages: 1 -->
<svg width="359pt" height="149pt"
 viewBox="0.00 0.00 358.50 149.00" xmlns="http://www.w3.org/2000/svg" xmlns:xlink="http://www.w3.org/1999/xlink">

<svg id="main" version="1.1" xmlns="http://www.w3.org/2000/svg" xmlns:xlink="http://www.w3.org/1999/xlink" xml:space="preserve">

<style type="text/css"><![CDATA[
.node, .edge {opacity: 0.7;}
.node.selected, .edge.selected {opacity: 1;}
.edge:hover path { stroke: red; }
.edge:hover polygon { stroke: red; fill: red; }
]]></style>
<script type="application/ecmascript" xlink:href="../../svg.min.js"/>
<svg id="graph" class="graph">
<g id="graph0" class="graph" transform="scale(1 1) rotate(0) translate(4 145)">
<title>MemberList</title>
<!-- Node1 -->
<g id="Node000001" class="node">
<title>Node1</title>
<g id="a_Node000001"><a xlink:title="A list of MemberDef objects as shown in documentation sections.">
<polygon fill="#999999" stroke="#666666" points="193,-19 119,-19 119,0 193,0 193,-19"/>
<text text-anchor="middle" x="156" y="-7" font-family="Helvetica,sans-Serif" font-size="10.00">MemberList</text>
</a>
</g>
</g>
<!-- Node2 -->
<g id="Node000002" class="node">
<title>Node2</title>
<g id="a_Node000002"><a xlink:href="../../d1/d7d/class_member_vector.html" target="_top" xlink:title="A vector of MemberDef object.">
<polygon fill="white" stroke="#666666" points="88,-85 0,-85 0,-66 88,-66 88,-85"/>
<text text-anchor="middle" x="44" y="-73" font-family="Helvetica,sans-Serif" font-size="10.00">MemberVector</text>
</a>
</g>
</g>
<!-- Node2&#45;&gt;Node1 -->
<g id="edge1_Node000001_Node000002" class="edge">
<title>Node2&#45;&gt;Node1</title>
<g id="a_edge1_Node000001_Node000002"><a xlink:title=" ">
<path fill="none" stroke="#63b8ff" d="M67.87,-60.86C89.92,-48.26 122.02,-29.92 140.78,-19.2"/>
<polygon fill="#63b8ff" stroke="#63b8ff" points="66.05,-57.87 59.1,-65.87 69.52,-63.95 66.05,-57.87"/>
</a>
</g>
</g>
<!-- Node3 -->
<g id="Node000003" class="node">
<title>Node3</title>
<g id="a_Node000003"><a xlink:href="../../d4/d15/class_member_group_ref_list.html" target="_top" xlink:title=" ">
<polygon fill="white" stroke="#666666" points="226,-85 106,-85 106,-66 226,-66 226,-85"/>
<text text-anchor="middle" x="166" y="-73" font-family="Helvetica,sans-Serif" font-size="10.00">MemberGroupRefList</text>
</a>
</g>
</g>
<!-- Node3&#45;&gt;Node1 -->
<g id="edge2_Node000001_Node000003" class="edge">
<title>Node3&#45;&gt;Node1</title>
<g id="a_edge2_Node000001_Node000003"><a xlink:title=" ">
<path fill="none" stroke="#9a32cd" stroke-dasharray="5,2" d="M158.98,-56.15C158.18,-53.45 157.48,-50.68 157,-48 155.26,-38.26 155.23,-26.86 155.5,-19.21"/>
<polygon fill="#9a32cd" stroke="#9a32cd" points="155.75,-57.53 162.32,-65.84 162.37,-55.25 155.75,-57.53"/>
</a>
</g>
<text text-anchor="middle" x="218.5" y="-40" font-family="Helvetica,sans-Serif" font-size="10.00" fill="grey"> m_memberGroupRefList</text>
</g>
<!-- Node4 -->
<g id="Node000004" class="node">
<title>Node4</title>
<g id="a_Node000004"><a xlink:title=" ">
<polygon fill="white" stroke="#666666" points="250.5,-141 81.5,-141 81.5,-122 250.5,-122 250.5,-141"/>
<text text-anchor="middle" x="166" y="-129" font-family="Helvetica,sans-Serif" font-size="10.00">std::vector&lt; MemberGroup * &gt;</text>
</a>
</g>
</g>
<!-- Node4&#45;&gt;Node3 -->
<g id="edge3_Node000003_Node000004" class="edge">
<title>Node4&#45;&gt;Node3</title>
<g id="a_edge3_Node000003_Node000004"><a xlink:title=" ">
<path fill="none" stroke="#63b8ff" d="M166,-111.3C166,-102.41 166,-92.28 166,-85.25"/>
<polygon fill="#63b8ff" stroke="#63b8ff" points="162.5,-111.58 166,-121.58 169.5,-111.58 162.5,-111.58"/>
</a>
</g>
</g>
<!-- Node5 -->
<g id="Node000005" class="node">
<title>Node5</title>
<g id="a_Node000005"><a xlink:href="../../d0/dd9/class_member_list_type.html" target="_top" xlink:title="Wrapper class for the MemberListType type.">
<polygon fill="white" stroke="#666666" points="350.5,-85 253.5,-85 253.5,-66 350.5,-66 350.5,-85"/>
<text text-anchor="middle" x="302" y="-73" font-family="Helvetica,sans-Serif" font-size="10.00">MemberListType</text>
</a>
</g>
</g>
<!-- Node5&#45;&gt;Node1 -->
<g id="edge4_Node000001_Node000005" class="edge">
<title>Node5&#45;&gt;Node1</title>
<g id="a_edge4_Node000001_Node000005"><a xlink:title=" ">
<path fill="none" stroke="#9a32cd" stroke-dasharray="5,2" d="M295.15,-56.34C291.63,-49.31 286.66,-41.81 280,-37 254.75,-18.76 219.53,-12.59 193.07,-10.72"/>
<polygon fill="#9a32cd" stroke="#9a32cd" points="292.12,-58.14 299.29,-65.94 298.55,-55.37 292.12,-58.14"/>
</a>
</g>
<text text-anchor="middle" x="317" y="-40" font-family="Helvetica,sans-Serif" font-size="10.00" fill="grey"> m_listType</text>
</g>
</g>
</svg>
</svg>

<style type='text/css'>
<![CDATA[
[data-mouse-over-selected='false'] { opacity: 0.7; }
[data-mouse-over-selected='true']  { opacity: 1.0; }
]]>
</style>
<script type="application/ecmascript"><![CDATA[
document.addEventListener('DOMContentLoaded', (event) => {
  highlightEdges();
  highlightAdjacentNodes();
});
]]></script>
</svg>
