<?xml version="1.0" encoding="UTF-8" standalone="no"?>
<!DOCTYPE svg PUBLIC "-//W3C//DTD SVG 1.1//EN"
 "http://www.w3.org/Graphics/SVG/1.1/DTD/svg11.dtd">
<!-- Generated by graphviz version 2.43.0 (0)
 -->
<!-- Title: src/definitionimpl.h Pages: 1 -->
<svg width="846pt" height="357pt"
 viewBox="0.00 0.00 846.28 357.00" xmlns="http://www.w3.org/2000/svg" xmlns:xlink="http://www.w3.org/1999/xlink">
<g id="graph0" class="graph" transform="scale(1 1) rotate(0) translate(4 353)">
<title>src/definitionimpl.h</title>
<!-- Node1 -->
<g id="Node000001" class="node">
<title>Node1</title>
<g id="a_Node000001"><a xlink:title=" ">
<polygon fill="#999999" stroke="#666666" points="262.5,-349 152.5,-349 152.5,-330 262.5,-330 262.5,-349"/>
<text text-anchor="middle" x="207.5" y="-337" font-family="Helvetica,sans-Serif" font-size="10.00">src/definitionimpl.h</text>
</a>
</g>
</g>
<!-- Node2 -->
<g id="Node000002" class="node">
<title>Node2</title>
<g id="a_Node000002"><a xlink:title=" ">
<polygon fill="#e0e0e0" stroke="#999999" points="169.5,-129 111.5,-129 111.5,-110 169.5,-110 169.5,-129"/>
<text text-anchor="middle" x="140.5" y="-117" font-family="Helvetica,sans-Serif" font-size="10.00">memory</text>
</a>
</g>
</g>
<!-- Node1&#45;&gt;Node2 -->
<g id="edge1_Node000001_Node000002" class="edge">
<title>Node1&#45;&gt;Node2</title>
<g id="a_edge1_Node000001_Node000002"><a xlink:title=" ">
<path fill="none" stroke="#63b8ff" d="M204.87,-329.95C194.99,-297.81 159.93,-183.72 146.13,-138.83"/>
<polygon fill="#63b8ff" stroke="#63b8ff" points="149.46,-137.75 143.18,-129.22 142.77,-139.81 149.46,-137.75"/>
</a>
</g>
</g>
<!-- Node3 -->
<g id="Node000003" class="node">
<title>Node3</title>
<g id="a_Node000003"><a xlink:title=" ">
<polygon fill="#e0e0e0" stroke="#999999" points="93,-129 0,-129 0,-110 93,-110 93,-129"/>
<text text-anchor="middle" x="46.5" y="-117" font-family="Helvetica,sans-Serif" font-size="10.00">unordered_map</text>
</a>
</g>
</g>
<!-- Node1&#45;&gt;Node3 -->
<g id="edge2_Node000001_Node000003" class="edge">
<title>Node1&#45;&gt;Node3</title>
<g id="a_edge2_Node000001_Node000003"><a xlink:title=" ">
<path fill="none" stroke="#63b8ff" d="M201.19,-329.95C177.2,-297.47 91.4,-181.29 59,-137.43"/>
<polygon fill="#63b8ff" stroke="#63b8ff" points="61.7,-135.19 52.94,-129.22 56.07,-139.35 61.7,-135.19"/>
</a>
</g>
</g>
<!-- Node4 -->
<g id="Node000004" class="node">
<title>Node4</title>
<g id="a_Node000004"><a xlink:title=" ">
<polygon fill="#e0e0e0" stroke="#999999" points="568.5,-19 524.5,-19 524.5,0 568.5,0 568.5,-19"/>
<text text-anchor="middle" x="546.5" y="-7" font-family="Helvetica,sans-Serif" font-size="10.00">string</text>
</a>
</g>
</g>
<!-- Node1&#45;&gt;Node4 -->
<g id="edge3_Node000001_Node000004" class="edge">
<title>Node1&#45;&gt;Node4</title>
<g id="a_edge3_Node000001_Node000004"><a xlink:title=" ">
<path fill="none" stroke="#63b8ff" d="M262.58,-334.84C416.08,-323.9 837.5,-288.59 837.5,-230.5 837.5,-230.5 837.5,-230.5 837.5,-118.5 837.5,-89.04 840.63,-74.45 818.5,-55 800.68,-39.33 647.13,-21.22 578.92,-13.87"/>
<polygon fill="#63b8ff" stroke="#63b8ff" points="579.05,-10.36 568.74,-12.78 578.31,-17.32 579.05,-10.36"/>
</a>
</g>
</g>
<!-- Node5 -->
<g id="Node000005" class="node">
<title>Node5</title>
<g id="a_Node000005"><a xlink:href="../../df/da1/definition_8h.html" target="_top" xlink:title=" ">
<polygon fill="white" stroke="#666666" points="323,-294 252,-294 252,-275 323,-275 323,-294"/>
<text text-anchor="middle" x="287.5" y="-282" font-family="Helvetica,sans-Serif" font-size="10.00">definition.h</text>
</a>
</g>
</g>
<!-- Node1&#45;&gt;Node5 -->
<g id="edge4_Node000001_Node000005" class="edge">
<title>Node1&#45;&gt;Node5</title>
<g id="a_edge4_Node000001_Node000005"><a xlink:title=" ">
<path fill="none" stroke="#63b8ff" d="M220.35,-329.98C232.64,-321.84 251.41,-309.41 265.98,-299.76"/>
<polygon fill="#63b8ff" stroke="#63b8ff" points="268.01,-302.61 274.41,-294.17 264.14,-296.78 268.01,-302.61"/>
</a>
</g>
</g>
<!-- Node6 -->
<g id="Node000006" class="node">
<title>Node6</title>
<g id="a_Node000006"><a xlink:title=" ">
<polygon fill="#e0e0e0" stroke="#999999" points="349,-129 302,-129 302,-110 349,-110 349,-129"/>
<text text-anchor="middle" x="325.5" y="-117" font-family="Helvetica,sans-Serif" font-size="10.00">vector</text>
</a>
</g>
</g>
<!-- Node5&#45;&gt;Node6 -->
<g id="edge5_Node000005_Node000006" class="edge">
<title>Node5&#45;&gt;Node6</title>
<g id="a_edge5_Node000005_Node000006"><a xlink:title=" ">
<path fill="none" stroke="#63b8ff" d="M289.54,-274.74C295.5,-249.2 312.93,-174.43 321.13,-139.23"/>
<polygon fill="#63b8ff" stroke="#63b8ff" points="324.58,-139.84 323.45,-129.31 317.77,-138.25 324.58,-139.84"/>
</a>
</g>
</g>
<!-- Node7 -->
<g id="Node000007" class="node">
<title>Node7</title>
<g id="a_Node000007"><a xlink:href="../../d9/d49/types_8h.html" target="_top" xlink:title="This file contains a number of basic enums and types.">
<polygon fill="white" stroke="#666666" points="460,-184 407,-184 407,-165 460,-165 460,-184"/>
<text text-anchor="middle" x="433.5" y="-172" font-family="Helvetica,sans-Serif" font-size="10.00">types.h</text>
</a>
</g>
</g>
<!-- Node5&#45;&gt;Node7 -->
<g id="edge6_Node000005_Node000007" class="edge">
<title>Node5&#45;&gt;Node7</title>
<g id="a_edge6_Node000005_Node000007"><a xlink:title=" ">
<path fill="none" stroke="#63b8ff" d="M301.09,-274.99C314.8,-266.28 336.47,-252.19 354.5,-239 376.07,-223.22 399.85,-203.81 415.63,-190.64"/>
<polygon fill="#63b8ff" stroke="#63b8ff" points="418.1,-193.13 423.5,-184.02 413.6,-187.77 418.1,-193.13"/>
</a>
</g>
</g>
<!-- Node18 -->
<g id="Node000018" class="node">
<title>Node18</title>
<g id="a_Node000018"><a xlink:href="../../d1/d02/reflist_8h.html" target="_top" xlink:title=" ">
<polygon fill="white" stroke="#666666" points="287,-239 234,-239 234,-220 287,-220 287,-239"/>
<text text-anchor="middle" x="260.5" y="-227" font-family="Helvetica,sans-Serif" font-size="10.00">reflist.h</text>
</a>
</g>
</g>
<!-- Node5&#45;&gt;Node18 -->
<g id="edge20_Node000005_Node000018" class="edge">
<title>Node5&#45;&gt;Node18</title>
<g id="a_edge20_Node000005_Node000018"><a xlink:title=" ">
<path fill="none" stroke="#63b8ff" d="M283.04,-274.75C279.38,-267.57 274.09,-257.18 269.55,-248.27"/>
<polygon fill="#63b8ff" stroke="#63b8ff" points="272.53,-246.41 264.88,-239.09 266.3,-249.59 272.53,-246.41"/>
</a>
</g>
</g>
<!-- Node8 -->
<g id="Node000008" class="node">
<title>Node8</title>
<g id="a_Node000008"><a xlink:href="../../d7/d5c/qcstring_8h.html" target="_top" xlink:title=" ">
<polygon fill="white" stroke="#666666" points="466,-129 401,-129 401,-110 466,-110 466,-129"/>
<text text-anchor="middle" x="433.5" y="-117" font-family="Helvetica,sans-Serif" font-size="10.00">qcstring.h</text>
</a>
</g>
</g>
<!-- Node7&#45;&gt;Node8 -->
<g id="edge7_Node000007_Node000008" class="edge">
<title>Node7&#45;&gt;Node8</title>
<g id="a_edge7_Node000007_Node000008"><a xlink:title=" ">
<path fill="none" stroke="#63b8ff" d="M433.5,-164.75C433.5,-157.8 433.5,-147.85 433.5,-139.13"/>
<polygon fill="#63b8ff" stroke="#63b8ff" points="437,-139.09 433.5,-129.09 430,-139.09 437,-139.09"/>
</a>
</g>
</g>
<!-- Node8&#45;&gt;Node4 -->
<g id="edge8_Node000008_Node000004" class="edge">
<title>Node8&#45;&gt;Node4</title>
<g id="a_edge8_Node000008_Node000004"><a xlink:title=" ">
<path fill="none" stroke="#63b8ff" d="M420.02,-109.92C402.3,-97.57 375.02,-74.15 389.5,-55 404.51,-35.15 472.87,-21.58 514.28,-15.03"/>
<polygon fill="#63b8ff" stroke="#63b8ff" points="515.07,-18.45 524.43,-13.48 514.02,-11.53 515.07,-18.45"/>
</a>
</g>
</g>
<!-- Node9 -->
<g id="Node000009" class="node">
<title>Node9</title>
<g id="a_Node000009"><a xlink:title=" ">
<polygon fill="#e0e0e0" stroke="#999999" points="741,-74 668,-74 668,-55 741,-55 741,-74"/>
<text text-anchor="middle" x="704.5" y="-62" font-family="Helvetica,sans-Serif" font-size="10.00">string_view</text>
</a>
</g>
</g>
<!-- Node8&#45;&gt;Node9 -->
<g id="edge9_Node000008_Node000009" class="edge">
<title>Node8&#45;&gt;Node9</title>
<g id="a_edge9_Node000008_Node000009"><a xlink:title=" ">
<path fill="none" stroke="#63b8ff" d="M466.19,-112.11C513.93,-102.77 602.99,-85.35 657.68,-74.66"/>
<polygon fill="#63b8ff" stroke="#63b8ff" points="658.66,-78.03 667.8,-72.68 657.32,-71.16 658.66,-78.03"/>
</a>
</g>
</g>
<!-- Node10 -->
<g id="Node000010" class="node">
<title>Node10</title>
<g id="a_Node000010"><a xlink:title=" ">
<polygon fill="#e0e0e0" stroke="#999999" points="342.5,-74 278.5,-74 278.5,-55 342.5,-55 342.5,-74"/>
<text text-anchor="middle" x="310.5" y="-62" font-family="Helvetica,sans-Serif" font-size="10.00">algorithm</text>
</a>
</g>
</g>
<!-- Node8&#45;&gt;Node10 -->
<g id="edge10_Node000008_Node000010" class="edge">
<title>Node8&#45;&gt;Node10</title>
<g id="a_edge10_Node000008_Node000010"><a xlink:title=" ">
<path fill="none" stroke="#63b8ff" d="M413.74,-109.98C393.77,-101.38 362.7,-87.99 339.85,-78.15"/>
<polygon fill="#63b8ff" stroke="#63b8ff" points="341.19,-74.91 330.62,-74.17 338.42,-81.34 341.19,-74.91"/>
</a>
</g>
</g>
<!-- Node11 -->
<g id="Node000011" class="node">
<title>Node11</title>
<g id="a_Node000011"><a xlink:title=" ">
<polygon fill="#e0e0e0" stroke="#999999" points="260,-74 211,-74 211,-55 260,-55 260,-74"/>
<text text-anchor="middle" x="235.5" y="-62" font-family="Helvetica,sans-Serif" font-size="10.00">cctype</text>
</a>
</g>
</g>
<!-- Node8&#45;&gt;Node11 -->
<g id="edge11_Node000008_Node000011" class="edge">
<title>Node8&#45;&gt;Node11</title>
<g id="a_edge11_Node000008_Node000011"><a xlink:title=" ">
<path fill="none" stroke="#63b8ff" d="M401.69,-109.98C365.62,-100.33 307.01,-84.64 269.9,-74.71"/>
<polygon fill="#63b8ff" stroke="#63b8ff" points="270.61,-71.27 260.04,-72.07 268.8,-78.04 270.61,-71.27"/>
</a>
</g>
</g>
<!-- Node12 -->
<g id="Node000012" class="node">
<title>Node12</title>
<g id="a_Node000012"><a xlink:title=" ">
<polygon fill="#e0e0e0" stroke="#999999" points="809.5,-74 759.5,-74 759.5,-55 809.5,-55 809.5,-74"/>
<text text-anchor="middle" x="784.5" y="-62" font-family="Helvetica,sans-Serif" font-size="10.00">cstring</text>
</a>
</g>
</g>
<!-- Node8&#45;&gt;Node12 -->
<g id="edge12_Node000008_Node000012" class="edge">
<title>Node8&#45;&gt;Node12</title>
<g id="a_edge12_Node000008_Node000012"><a xlink:title=" ">
<path fill="none" stroke="#63b8ff" d="M466.09,-115.07C522.06,-108.94 640.21,-94.92 749.45,-74.02"/>
<polygon fill="#63b8ff" stroke="#63b8ff" points="750.16,-77.45 759.32,-72.11 748.83,-70.58 750.16,-77.45"/>
</a>
</g>
</g>
<!-- Node13 -->
<g id="Node000013" class="node">
<title>Node13</title>
<g id="a_Node000013"><a xlink:title=" ">
<polygon fill="#e0e0e0" stroke="#999999" points="444.5,-74 398.5,-74 398.5,-55 444.5,-55 444.5,-74"/>
<text text-anchor="middle" x="421.5" y="-62" font-family="Helvetica,sans-Serif" font-size="10.00">cstdio</text>
</a>
</g>
</g>
<!-- Node8&#45;&gt;Node13 -->
<g id="edge13_Node000008_Node000013" class="edge">
<title>Node8&#45;&gt;Node13</title>
<g id="a_edge13_Node000008_Node000013"><a xlink:title=" ">
<path fill="none" stroke="#63b8ff" d="M431.52,-109.75C429.93,-102.72 427.64,-92.62 425.65,-83.84"/>
<polygon fill="#63b8ff" stroke="#63b8ff" points="429.07,-83.07 423.44,-74.09 422.24,-84.62 429.07,-83.07"/>
</a>
</g>
</g>
<!-- Node14 -->
<g id="Node000014" class="node">
<title>Node14</title>
<g id="a_Node000014"><a xlink:title=" ">
<polygon fill="#e0e0e0" stroke="#999999" points="512,-74 463,-74 463,-55 512,-55 512,-74"/>
<text text-anchor="middle" x="487.5" y="-62" font-family="Helvetica,sans-Serif" font-size="10.00">cstdlib</text>
</a>
</g>
</g>
<!-- Node8&#45;&gt;Node14 -->
<g id="edge14_Node000008_Node000014" class="edge">
<title>Node8&#45;&gt;Node14</title>
<g id="a_edge14_Node000008_Node000014"><a xlink:title=" ">
<path fill="none" stroke="#63b8ff" d="M442.42,-109.75C450.28,-102.03 461.93,-90.6 471.42,-81.28"/>
<polygon fill="#63b8ff" stroke="#63b8ff" points="474.06,-83.59 478.75,-74.09 469.16,-78.6 474.06,-83.59"/>
</a>
</g>
</g>
<!-- Node15 -->
<g id="Node000015" class="node">
<title>Node15</title>
<g id="a_Node000015"><a xlink:title=" ">
<polygon fill="#e0e0e0" stroke="#999999" points="732.5,-19 682.5,-19 682.5,0 732.5,0 732.5,-19"/>
<text text-anchor="middle" x="707.5" y="-7" font-family="Helvetica,sans-Serif" font-size="10.00">cstdint</text>
</a>
</g>
</g>
<!-- Node8&#45;&gt;Node15 -->
<g id="edge15_Node000008_Node000015" class="edge">
<title>Node8&#45;&gt;Node15</title>
<g id="a_edge15_Node000008_Node000015"><a xlink:title=" ">
<path fill="none" stroke="#63b8ff" d="M466.25,-117.16C555.03,-113.2 795.2,-100.15 818.5,-74 844.15,-45.21 783.91,-26.26 742.51,-17.05"/>
<polygon fill="#63b8ff" stroke="#63b8ff" points="743.22,-13.62 732.71,-14.96 741.77,-20.47 743.22,-13.62"/>
</a>
</g>
</g>
<!-- Node16 -->
<g id="Node000016" class="node">
<title>Node16</title>
<g id="a_Node000016"><a xlink:title=" ">
<polygon fill="#e0e0e0" stroke="#999999" points="587,-74 530,-74 530,-55 587,-55 587,-74"/>
<text text-anchor="middle" x="558.5" y="-62" font-family="Helvetica,sans-Serif" font-size="10.00">ostream</text>
</a>
</g>
</g>
<!-- Node8&#45;&gt;Node16 -->
<g id="edge16_Node000008_Node000016" class="edge">
<title>Node8&#45;&gt;Node16</title>
<g id="a_edge16_Node000008_Node000016"><a xlink:title=" ">
<path fill="none" stroke="#63b8ff" d="M453.58,-109.98C473.87,-101.38 505.46,-87.99 528.67,-78.15"/>
<polygon fill="#63b8ff" stroke="#63b8ff" points="530.21,-81.3 538.05,-74.17 527.48,-74.85 530.21,-81.3"/>
</a>
</g>
</g>
<!-- Node17 -->
<g id="Node000017" class="node">
<title>Node17</title>
<g id="a_Node000017"><a xlink:href="../../db/d7c/utf8_8h.html" target="_top" xlink:title="Various UTF8 related helper functions.">
<polygon fill="white" stroke="#666666" points="650,-74 605,-74 605,-55 650,-55 650,-74"/>
<text text-anchor="middle" x="627.5" y="-62" font-family="Helvetica,sans-Serif" font-size="10.00">utf8.h</text>
</a>
</g>
</g>
<!-- Node8&#45;&gt;Node17 -->
<g id="edge17_Node000008_Node000017" class="edge">
<title>Node8&#45;&gt;Node17</title>
<g id="a_edge17_Node000008_Node000017"><a xlink:title=" ">
<path fill="none" stroke="#63b8ff" d="M464.75,-109.98C495.58,-101.57 544.31,-88.28 594.99,-74.41"/>
<polygon fill="#63b8ff" stroke="#63b8ff" points="596.09,-77.74 604.81,-71.72 594.24,-70.99 596.09,-77.74"/>
</a>
</g>
</g>
<!-- Node17&#45;&gt;Node4 -->
<g id="edge19_Node000017_Node000004" class="edge">
<title>Node17&#45;&gt;Node4</title>
<g id="a_edge19_Node000017_Node000004"><a xlink:title=" ">
<path fill="none" stroke="#63b8ff" d="M614.49,-54.98C602.04,-46.84 583.04,-34.41 568.29,-24.76"/>
<polygon fill="#63b8ff" stroke="#63b8ff" points="570.04,-21.72 559.75,-19.17 566.2,-27.57 570.04,-21.72"/>
</a>
</g>
</g>
<!-- Node17&#45;&gt;Node15 -->
<g id="edge18_Node000017_Node000015" class="edge">
<title>Node17&#45;&gt;Node15</title>
<g id="a_edge18_Node000017_Node000015"><a xlink:title=" ">
<path fill="none" stroke="#63b8ff" d="M640.35,-54.98C652.64,-46.84 671.41,-34.41 685.98,-24.76"/>
<polygon fill="#63b8ff" stroke="#63b8ff" points="688.01,-27.61 694.41,-19.17 684.14,-21.78 688.01,-27.61"/>
</a>
</g>
</g>
<!-- Node18&#45;&gt;Node2 -->
<g id="edge23_Node000018_Node000002" class="edge">
<title>Node18&#45;&gt;Node2</title>
<g id="a_edge23_Node000018_Node000002"><a xlink:title=" ">
<path fill="none" stroke="#63b8ff" d="M242.39,-219.97C226.77,-212.06 204.15,-199.22 187.5,-184 172.67,-170.45 159.43,-151.62 150.81,-137.99"/>
<polygon fill="#63b8ff" stroke="#63b8ff" points="153.6,-135.83 145.39,-129.13 147.62,-139.49 153.6,-135.83"/>
</a>
</g>
</g>
<!-- Node18&#45;&gt;Node3 -->
<g id="edge22_Node000018_Node000003" class="edge">
<title>Node18&#45;&gt;Node3</title>
<g id="a_edge22_Node000018_Node000003"><a xlink:title=" ">
<path fill="none" stroke="#63b8ff" d="M241.87,-219.84C223.03,-211.01 193.1,-196.84 167.5,-184 133.99,-167.2 95.74,-146.94 71.38,-133.9"/>
<polygon fill="#63b8ff" stroke="#63b8ff" points="72.92,-130.75 62.45,-129.11 69.61,-136.92 72.92,-130.75"/>
</a>
</g>
</g>
<!-- Node18&#45;&gt;Node6 -->
<g id="edge21_Node000018_Node000006" class="edge">
<title>Node18&#45;&gt;Node6</title>
<g id="a_edge21_Node000018_Node000006"><a xlink:title=" ">
<path fill="none" stroke="#63b8ff" d="M265.82,-219.66C276.54,-201.85 300.9,-161.37 314.96,-138.01"/>
<polygon fill="#63b8ff" stroke="#63b8ff" points="318.13,-139.53 320.29,-129.16 312.13,-135.92 318.13,-139.53"/>
</a>
</g>
</g>
<!-- Node18&#45;&gt;Node8 -->
<g id="edge24_Node000018_Node000008" class="edge">
<title>Node18&#45;&gt;Node8</title>
<g id="a_edge24_Node000018_Node000008"><a xlink:title=" ">
<path fill="none" stroke="#63b8ff" d="M274.36,-219.84C304.1,-201.28 374.25,-157.49 410.67,-134.75"/>
<polygon fill="#63b8ff" stroke="#63b8ff" points="412.94,-137.46 419.57,-129.2 409.23,-131.52 412.94,-137.46"/>
</a>
</g>
</g>
<!-- Node19 -->
<g id="Node000019" class="node">
<title>Node19</title>
<g id="a_Node000019"><a xlink:href="../../da/de1/linkedmap_8h.html" target="_top" xlink:title=" ">
<polygon fill="white" stroke="#666666" points="274,-184 197,-184 197,-165 274,-165 274,-184"/>
<text text-anchor="middle" x="235.5" y="-172" font-family="Helvetica,sans-Serif" font-size="10.00">linkedmap.h</text>
</a>
</g>
</g>
<!-- Node18&#45;&gt;Node19 -->
<g id="edge25_Node000018_Node000019" class="edge">
<title>Node18&#45;&gt;Node19</title>
<g id="a_edge25_Node000018_Node000019"><a xlink:title=" ">
<path fill="none" stroke="#63b8ff" d="M256.37,-219.75C252.99,-212.57 248.08,-202.18 243.88,-193.27"/>
<polygon fill="#63b8ff" stroke="#63b8ff" points="246.98,-191.64 239.55,-184.09 240.65,-194.63 246.98,-191.64"/>
</a>
</g>
</g>
<!-- Node19&#45;&gt;Node2 -->
<g id="edge28_Node000019_Node000002" class="edge">
<title>Node19&#45;&gt;Node2</title>
<g id="a_edge28_Node000019_Node000002"><a xlink:title=" ">
<path fill="none" stroke="#63b8ff" d="M220.24,-164.98C205.37,-156.69 182.52,-143.94 165.08,-134.22"/>
<polygon fill="#63b8ff" stroke="#63b8ff" points="166.48,-130.99 156.04,-129.17 163.07,-137.1 166.48,-130.99"/>
</a>
</g>
</g>
<!-- Node19&#45;&gt;Node3 -->
<g id="edge26_Node000019_Node000003" class="edge">
<title>Node19&#45;&gt;Node3</title>
<g id="a_edge26_Node000019_Node000003"><a xlink:title=" ">
<path fill="none" stroke="#63b8ff" d="M205.13,-164.98C173.13,-156.01 122.54,-141.82 87.12,-131.89"/>
<polygon fill="#63b8ff" stroke="#63b8ff" points="87.68,-128.41 77.1,-129.08 85.79,-135.15 87.68,-128.41"/>
</a>
</g>
</g>
<!-- Node19&#45;&gt;Node4 -->
<g id="edge29_Node000019_Node000004" class="edge">
<title>Node19&#45;&gt;Node4</title>
<g id="a_edge29_Node000019_Node000004"><a xlink:title=" ">
<path fill="none" stroke="#63b8ff" d="M228.29,-164.88C211.38,-143.57 172.67,-87.79 201.5,-55 222.01,-31.67 432.43,-17.1 514.23,-12.27"/>
<polygon fill="#63b8ff" stroke="#63b8ff" points="514.65,-15.75 524.44,-11.68 514.25,-8.77 514.65,-15.75"/>
</a>
</g>
</g>
<!-- Node19&#45;&gt;Node6 -->
<g id="edge27_Node000019_Node000006" class="edge">
<title>Node19&#45;&gt;Node6</title>
<g id="a_edge27_Node000019_Node000006"><a xlink:title=" ">
<path fill="none" stroke="#63b8ff" d="M249.96,-164.98C263.92,-156.77 285.29,-144.18 301.75,-134.49"/>
<polygon fill="#63b8ff" stroke="#63b8ff" points="303.94,-137.26 310.78,-129.17 300.38,-131.23 303.94,-137.26"/>
</a>
</g>
</g>
<!-- Node19&#45;&gt;Node8 -->
<g id="edge32_Node000019_Node000008" class="edge">
<title>Node19&#45;&gt;Node8</title>
<g id="a_edge32_Node000019_Node000008"><a xlink:title=" ">
<path fill="none" stroke="#63b8ff" d="M267.31,-164.98C300.99,-155.97 354.3,-141.7 391.42,-131.76"/>
<polygon fill="#63b8ff" stroke="#63b8ff" points="392.68,-135.05 401.44,-129.08 390.87,-128.29 392.68,-135.05"/>
</a>
</g>
</g>
<!-- Node19&#45;&gt;Node10 -->
<g id="edge30_Node000019_Node000010" class="edge">
<title>Node19&#45;&gt;Node10</title>
<g id="a_edge30_Node000019_Node000010"><a xlink:title=" ">
<path fill="none" stroke="#63b8ff" d="M241.64,-164.66C254.12,-146.69 282.62,-105.64 298.78,-82.38"/>
<polygon fill="#63b8ff" stroke="#63b8ff" points="301.66,-84.37 304.49,-74.16 295.91,-80.38 301.66,-84.37"/>
</a>
</g>
</g>
<!-- Node19&#45;&gt;Node11 -->
<g id="edge31_Node000019_Node000011" class="edge">
<title>Node19&#45;&gt;Node11</title>
<g id="a_edge31_Node000019_Node000011"><a xlink:title=" ">
<path fill="none" stroke="#63b8ff" d="M235.5,-164.66C235.5,-147.17 235.5,-107.8 235.5,-84.27"/>
<polygon fill="#63b8ff" stroke="#63b8ff" points="239,-84.16 235.5,-74.16 232,-84.16 239,-84.16"/>
</a>
</g>
</g>
</g>
</svg>
