<?xml version="1.0" encoding="UTF-8" standalone="no"?>
<!DOCTYPE svg PUBLIC "-//W3C//DTD SVG 1.1//EN"
 "http://www.w3.org/Graphics/SVG/1.1/DTD/svg11.dtd">
<!-- Generated by graphviz version 2.43.0 (0)
 -->
<!-- Title: DocHorRuler Pages: 1 -->
<svg width="1282pt" height="436pt"
 viewBox="0.00 0.00 1282.00 435.50" xmlns="http://www.w3.org/2000/svg" xmlns:xlink="http://www.w3.org/1999/xlink">
<g id="graph0" class="graph" transform="scale(1 1) rotate(0) translate(4 431.5)">
<title>DocHorRuler</title>
<!-- Node1 -->
<g id="Node000001" class="node">
<title>Node1</title>
<g id="a_Node000001"><a xlink:title="Node representing a horizontal ruler.">
<polygon fill="#999999" stroke="#666666" points="1274,-21.5 1196,-21.5 1196,-2.5 1274,-2.5 1274,-21.5"/>
<text text-anchor="middle" x="1235" y="-9.5" font-family="Helvetica,sans-Serif" font-size="10.00">DocHorRuler</text>
</a>
</g>
</g>
<!-- Node2 -->
<g id="Node000002" class="node">
<title>Node2</title>
<g id="a_Node000002"><a xlink:href="../../d9/d0e/class_doc_node.html" target="_top" xlink:title="Abstract node interface with type information.">
<polygon fill="white" stroke="#666666" points="1159,-113.5 1098,-113.5 1098,-94.5 1159,-94.5 1159,-113.5"/>
<text text-anchor="middle" x="1128.5" y="-101.5" font-family="Helvetica,sans-Serif" font-size="10.00">DocNode</text>
</a>
</g>
</g>
<!-- Node2&#45;&gt;Node1 -->
<g id="edge1_Node000001_Node000002" class="edge">
<title>Node2&#45;&gt;Node1</title>
<g id="a_edge1_Node000001_Node000002"><a xlink:title=" ">
<path fill="none" stroke="#63b8ff" d="M1148.3,-87.45C1170.04,-68.31 1205.11,-37.43 1222.9,-21.77"/>
<polygon fill="#63b8ff" stroke="#63b8ff" points="1145.88,-84.92 1140.68,-94.15 1150.5,-90.17 1145.88,-84.92"/>
</a>
</g>
</g>
<!-- Node3 -->
<g id="Node000003" class="node">
<title>Node3</title>
<g id="a_Node000003"><a xlink:href="../../da/d02/class_doc_parser.html" target="_top" xlink:title=" ">
<polygon fill="white" stroke="#666666" points="1013,-239.5 948,-239.5 948,-220.5 1013,-220.5 1013,-239.5"/>
<text text-anchor="middle" x="980.5" y="-227.5" font-family="Helvetica,sans-Serif" font-size="10.00">DocParser</text>
</a>
</g>
</g>
<!-- Node3&#45;&gt;Node2 -->
<g id="edge2_Node000002_Node000003" class="edge">
<title>Node3&#45;&gt;Node2</title>
<g id="a_edge2_Node000002_Node000003"><a xlink:title=" ">
<path fill="none" stroke="#9a32cd" stroke-dasharray="5,2" d="M1000.86,-213.3C1031.74,-186.65 1091.2,-135.33 1116.1,-113.84"/>
<polygon fill="#9a32cd" stroke="#9a32cd" points="998.24,-210.93 992.96,-220.11 1002.81,-216.23 998.24,-210.93"/>
</a>
</g>
<text text-anchor="middle" x="1055.5" y="-189" font-family="Helvetica,sans-Serif" font-size="10.00" fill="grey"> m_parser</text>
</g>
<!-- Node4 -->
<g id="Node000004" class="node">
<title>Node4</title>
<g id="a_Node000004"><a xlink:href="../../de/dad/class_i_doc_parser.html" target="_top" xlink:title="opaque parser interface">
<polygon fill="white" stroke="#666666" points="844,-253.5 776,-253.5 776,-234.5 844,-234.5 844,-253.5"/>
<text text-anchor="middle" x="810" y="-241.5" font-family="Helvetica,sans-Serif" font-size="10.00">IDocParser</text>
</a>
</g>
</g>
<!-- Node4&#45;&gt;Node3 -->
<g id="edge3_Node000003_Node000004" class="edge">
<title>Node4&#45;&gt;Node3</title>
<g id="a_edge3_Node000003_Node000004"><a xlink:title=" ">
<path fill="none" stroke="#63b8ff" d="M854.63,-240.37C883.86,-237.95 921.67,-234.8 947.99,-232.62"/>
<polygon fill="#63b8ff" stroke="#63b8ff" points="853.97,-236.92 844.29,-241.23 854.55,-243.89 853.97,-236.92"/>
</a>
</g>
</g>
<!-- Node5 -->
<g id="Node000005" class="node">
<title>Node5</title>
<g id="a_Node000005"><a xlink:href="../../d8/d7d/struct_doc_parser_context.html" target="_top" xlink:title="Parser&#39;s context to store all global variables.">
<polygon fill="white" stroke="#666666" points="862,-216.5 758,-216.5 758,-197.5 862,-197.5 862,-216.5"/>
<text text-anchor="middle" x="810" y="-204.5" font-family="Helvetica,sans-Serif" font-size="10.00">DocParserContext</text>
</a>
</g>
</g>
<!-- Node5&#45;&gt;Node3 -->
<g id="edge4_Node000003_Node000005" class="edge">
<title>Node5&#45;&gt;Node3</title>
<g id="a_edge4_Node000003_Node000005"><a xlink:title=" ">
<path fill="none" stroke="#9a32cd" stroke-dasharray="5,2" d="M872.25,-211.78C890.86,-213.61 911.32,-215.99 930,-219 935.82,-219.94 941.99,-221.14 947.92,-222.4"/>
<polygon fill="#9a32cd" stroke="#9a32cd" points="872.42,-208.28 862.13,-210.82 871.76,-215.25 872.42,-208.28"/>
</a>
</g>
<text text-anchor="middle" x="905" y="-222" font-family="Helvetica,sans-Serif" font-size="10.00" fill="grey"> context</text>
</g>
<!-- Node6 -->
<g id="Node000006" class="node">
<title>Node6</title>
<g id="a_Node000006"><a xlink:href="../../d5/dcc/class_definition.html" target="_top" xlink:title="The common base class of all entity definitions found in the sources.">
<polygon fill="white" stroke="#666666" points="292.5,-322.5 228.5,-322.5 228.5,-303.5 292.5,-303.5 292.5,-322.5"/>
<text text-anchor="middle" x="260.5" y="-310.5" font-family="Helvetica,sans-Serif" font-size="10.00">Definition</text>
</a>
</g>
</g>
<!-- Node6&#45;&gt;Node5 -->
<g id="edge5_Node000005_Node000006" class="edge">
<title>Node6&#45;&gt;Node5</title>
<g id="a_edge5_Node000005_Node000006"><a xlink:title=" ">
<path fill="none" stroke="#9a32cd" stroke-dasharray="5,2" d="M302.81,-316.33C372.69,-321.04 518.43,-326.81 639,-305 685.34,-296.62 705.74,-305.3 740,-273 756.28,-257.66 742.11,-241.74 758,-226 761.89,-222.14 766.64,-219.06 771.65,-216.59"/>
<polygon fill="#9a32cd" stroke="#9a32cd" points="302.88,-312.83 292.66,-315.62 302.39,-319.81 302.88,-312.83"/>
</a>
</g>
<text text-anchor="middle" x="579.5" y="-321" font-family="Helvetica,sans-Serif" font-size="10.00" fill="grey"> scope</text>
</g>
<!-- Node12 -->
<g id="Node000012" class="node">
<title>Node12</title>
<g id="a_Node000012"><a xlink:href="../../da/d09/class_member_def.html" target="_top" xlink:title="A model of a class/file/namespace member symbol.">
<polygon fill="white" stroke="#666666" points="616.5,-295.5 542.5,-295.5 542.5,-276.5 616.5,-276.5 616.5,-295.5"/>
<text text-anchor="middle" x="579.5" y="-283.5" font-family="Helvetica,sans-Serif" font-size="10.00">MemberDef</text>
</a>
</g>
</g>
<!-- Node6&#45;&gt;Node12 -->
<g id="edge12_Node000012_Node000006" class="edge">
<title>Node6&#45;&gt;Node12</title>
<g id="a_edge12_Node000012_Node000006"><a xlink:title=" ">
<path fill="none" stroke="#63b8ff" d="M303.04,-309.46C365.57,-304.14 482.84,-294.15 542.16,-289.1"/>
<polygon fill="#63b8ff" stroke="#63b8ff" points="302.43,-306 292.76,-310.34 303.02,-312.98 302.43,-306"/>
</a>
</g>
</g>
<!-- Node7 -->
<g id="Node000007" class="node">
<title>Node7</title>
<g id="a_Node000007"><a xlink:href="../../d9/d45/class_q_c_string.html" target="_top" xlink:title="This is an alternative implementation of QCString.">
<polygon fill="white" stroke="#666666" points="290,-129.5 231,-129.5 231,-110.5 290,-110.5 290,-129.5"/>
<text text-anchor="middle" x="260.5" y="-117.5" font-family="Helvetica,sans-Serif" font-size="10.00">QCString</text>
</a>
</g>
</g>
<!-- Node7&#45;&gt;Node5 -->
<g id="edge6_Node000005_Node000007" class="edge">
<title>Node7&#45;&gt;Node5</title>
<g id="a_edge6_Node000005_Node000007"><a xlink:title=" ">
<path fill="none" stroke="#9a32cd" stroke-dasharray="5,2" d="M291.93,-133.5C311.08,-141.39 336.54,-150.8 360,-156 481.51,-182.93 515.46,-164.9 639,-180 679.04,-184.9 724.13,-192.14 757.8,-197.89"/>
<polygon fill="#9a32cd" stroke="#9a32cd" points="293.11,-130.2 282.53,-129.54 290.39,-136.65 293.11,-130.2"/>
</a>
</g>
<text text-anchor="middle" x="579.5" y="-260" font-family="Helvetica,sans-Serif" font-size="10.00" fill="grey"> context</text>
<text text-anchor="middle" x="579.5" y="-249" font-family="Helvetica,sans-Serif" font-size="10.00" fill="grey">exampleName</text>
<text text-anchor="middle" x="579.5" y="-238" font-family="Helvetica,sans-Serif" font-size="10.00" fill="grey">fileName</text>
<text text-anchor="middle" x="579.5" y="-227" font-family="Helvetica,sans-Serif" font-size="10.00" fill="grey">includeFileName</text>
<text text-anchor="middle" x="579.5" y="-216" font-family="Helvetica,sans-Serif" font-size="10.00" fill="grey">includeFileText</text>
<text text-anchor="middle" x="579.5" y="-205" font-family="Helvetica,sans-Serif" font-size="10.00" fill="grey">prefix</text>
<text text-anchor="middle" x="579.5" y="-194" font-family="Helvetica,sans-Serif" font-size="10.00" fill="grey">relPath</text>
<text text-anchor="middle" x="579.5" y="-183" font-family="Helvetica,sans-Serif" font-size="10.00" fill="grey">searchUrl</text>
</g>
<!-- Node13 -->
<g id="Node000013" class="node">
<title>Node13</title>
<g id="a_Node000013"><a xlink:href="../../d6/df4/struct_token_info.html" target="_top" xlink:title="Data associated with a token used by the comment block parser.">
<polygon fill="white" stroke="#666666" points="611,-76.5 548,-76.5 548,-57.5 611,-57.5 611,-76.5"/>
<text text-anchor="middle" x="579.5" y="-64.5" font-family="Helvetica,sans-Serif" font-size="10.00">TokenInfo</text>
</a>
</g>
</g>
<!-- Node7&#45;&gt;Node13 -->
<g id="edge14_Node000013_Node000007" class="edge">
<title>Node7&#45;&gt;Node13</title>
<g id="a_edge14_Node000013_Node000007"><a xlink:title=" ">
<path fill="none" stroke="#9a32cd" stroke-dasharray="5,2" d="M282.97,-104.74C302.13,-92.11 331.5,-75.13 360,-68 425.32,-51.66 505.1,-57.5 547.89,-62.61"/>
<polygon fill="#9a32cd" stroke="#9a32cd" points="280.99,-101.85 274.67,-110.36 284.92,-107.65 280.99,-101.85"/>
</a>
</g>
<text text-anchor="middle" x="431" y="-148" font-family="Helvetica,sans-Serif" font-size="10.00" fill="grey"> attribsStr</text>
<text text-anchor="middle" x="431" y="-137" font-family="Helvetica,sans-Serif" font-size="10.00" fill="grey">chars</text>
<text text-anchor="middle" x="431" y="-126" font-family="Helvetica,sans-Serif" font-size="10.00" fill="grey">name</text>
<text text-anchor="middle" x="431" y="-115" font-family="Helvetica,sans-Serif" font-size="10.00" fill="grey">sectionId</text>
<text text-anchor="middle" x="431" y="-104" font-family="Helvetica,sans-Serif" font-size="10.00" fill="grey">simpleSectName</text>
<text text-anchor="middle" x="431" y="-93" font-family="Helvetica,sans-Serif" font-size="10.00" fill="grey">simpleSectText</text>
<text text-anchor="middle" x="431" y="-82" font-family="Helvetica,sans-Serif" font-size="10.00" fill="grey">text</text>
<text text-anchor="middle" x="431" y="-71" font-family="Helvetica,sans-Serif" font-size="10.00" fill="grey">verb</text>
</g>
<!-- Node8 -->
<g id="Node000008" class="node">
<title>Node8</title>
<g id="a_Node000008"><a xlink:href="../../d9/d82/class_iterable_stack.html" target="_top" xlink:title=" ">
<polygon fill="white" stroke="#666666" points="639,-391 520,-391 520,-361 639,-361 639,-391"/>
<text text-anchor="start" x="528" y="-379" font-family="Helvetica,sans-Serif" font-size="10.00">IterableStack&lt; const</text>
<text text-anchor="middle" x="579.5" y="-368" font-family="Helvetica,sans-Serif" font-size="10.00"> DocNodeVariant * &gt;</text>
</a>
</g>
</g>
<!-- Node8&#45;&gt;Node5 -->
<g id="edge7_Node000005_Node000008" class="edge">
<title>Node8&#45;&gt;Node5</title>
<g id="a_edge7_Node000005_Node000008"><a xlink:title=" ">
<path fill="none" stroke="#9a32cd" stroke-dasharray="5,2" d="M649.3,-380.13C681.11,-378.21 716.89,-369.98 740,-346 777.42,-307.17 724.02,-267.88 758,-226 761.1,-222.18 765.04,-219.13 769.35,-216.7"/>
<polygon fill="#9a32cd" stroke="#9a32cd" points="648.98,-376.64 639.13,-380.54 649.26,-383.63 648.98,-376.64"/>
</a>
</g>
<text text-anchor="middle" x="698.5" y="-393" font-family="Helvetica,sans-Serif" font-size="10.00" fill="grey"> initialStyleStack</text>
<text text-anchor="middle" x="698.5" y="-382" font-family="Helvetica,sans-Serif" font-size="10.00" fill="grey">styleStack</text>
</g>
<!-- Node9 -->
<g id="Node000009" class="node">
<title>Node9</title>
<g id="a_Node000009"><a xlink:title=" ">
<polygon fill="white" stroke="#666666" points="336,-427.5 185,-427.5 185,-386.5 336,-386.5 336,-427.5"/>
<text text-anchor="start" x="193" y="-415.5" font-family="Helvetica,sans-Serif" font-size="10.00">std::stack&lt; const DocNode</text>
<text text-anchor="start" x="193" y="-404.5" font-family="Helvetica,sans-Serif" font-size="10.00">Variant *, std::deque&lt;const</text>
<text text-anchor="middle" x="260.5" y="-393.5" font-family="Helvetica,sans-Serif" font-size="10.00"> DocNodeVariant *&gt; &gt;</text>
</a>
</g>
</g>
<!-- Node9&#45;&gt;Node8 -->
<g id="edge8_Node000008_Node000009" class="edge">
<title>Node9&#45;&gt;Node8</title>
<g id="a_edge8_Node000008_Node000009"><a xlink:title=" ">
<path fill="none" stroke="#63b8ff" d="M346.31,-400.49C392.41,-396.72 450.38,-391.62 502,-386 507.73,-385.38 513.69,-384.68 519.64,-383.95"/>
<polygon fill="#63b8ff" stroke="#63b8ff" points="345.75,-397.02 336.06,-401.32 346.31,-404 345.75,-397.02"/>
</a>
</g>
</g>
<!-- Node10 -->
<g id="Node000010" class="node">
<title>Node10</title>
<g id="a_Node000010"><a xlink:href="../../d9/d82/class_iterable_stack.html" target="_top" xlink:title=" ">
<polygon fill="white" stroke="#666666" points="342,-368.5 179,-368.5 179,-349.5 342,-349.5 342,-368.5"/>
<text text-anchor="middle" x="260.5" y="-356.5" font-family="Helvetica,sans-Serif" font-size="10.00">IterableStack&lt; T, Container &gt;</text>
</a>
</g>
</g>
<!-- Node10&#45;&gt;Node8 -->
<g id="edge9_Node000008_Node000010" class="edge">
<title>Node10&#45;&gt;Node8</title>
<g id="a_edge9_Node000008_Node000010"><a xlink:title=" ">
<path fill="none" stroke="orange" stroke-dasharray="5,2" d="M352.55,-363.88C406.37,-366.77 472.95,-370.34 519.85,-372.85"/>
<polygon fill="orange" stroke="orange" points="352.49,-360.37 342.31,-363.33 352.11,-367.36 352.49,-360.37"/>
</a>
</g>
<text text-anchor="middle" x="431" y="-374" font-family="Helvetica,sans-Serif" font-size="10.00" fill="grey"> &lt; const DocNodeVariant * &gt;</text>
</g>
<!-- Node11 -->
<g id="Node000011" class="node">
<title>Node11</title>
<g id="a_Node000011"><a xlink:title=" ">
<polygon fill="white" stroke="#666666" points="122,-374 20,-374 20,-344 122,-344 122,-374"/>
<text text-anchor="start" x="28" y="-362" font-family="Helvetica,sans-Serif" font-size="10.00">std::stack&lt; T, std</text>
<text text-anchor="middle" x="71" y="-351" font-family="Helvetica,sans-Serif" font-size="10.00">::deque&lt; T &gt; &gt;</text>
</a>
</g>
</g>
<!-- Node11&#45;&gt;Node10 -->
<g id="edge10_Node000010_Node000011" class="edge">
<title>Node11&#45;&gt;Node10</title>
<g id="a_edge10_Node000010_Node000011"><a xlink:title=" ">
<path fill="none" stroke="#63b8ff" d="M132.26,-359C147.04,-359 163.11,-359 178.69,-359"/>
<polygon fill="#63b8ff" stroke="#63b8ff" points="132.25,-355.5 122.25,-359 132.25,-362.5 132.25,-355.5"/>
</a>
</g>
</g>
<!-- Node12&#45;&gt;Node5 -->
<g id="edge11_Node000005_Node000012" class="edge">
<title>Node12&#45;&gt;Node5</title>
<g id="a_edge11_Node000005_Node000012"><a xlink:title=" ">
<path fill="none" stroke="#9a32cd" stroke-dasharray="5,2" d="M617.62,-273.17C663.46,-257.32 740.37,-230.73 781.34,-216.56"/>
<polygon fill="#9a32cd" stroke="#9a32cd" points="616.37,-269.9 608.06,-276.47 618.66,-276.51 616.37,-269.9"/>
</a>
</g>
<text text-anchor="middle" x="698.5" y="-261" font-family="Helvetica,sans-Serif" font-size="10.00" fill="grey"> memberDef</text>
</g>
<!-- Node13&#45;&gt;Node5 -->
<g id="edge13_Node000005_Node000013" class="edge">
<title>Node13&#45;&gt;Node5</title>
<g id="a_edge13_Node000005_Node000013"><a xlink:title=" ">
<path fill="none" stroke="#9a32cd" stroke-dasharray="5,2" d="M614.46,-80.35C647.8,-94.19 699.41,-117.62 740,-145 763.5,-160.85 787.3,-184.21 799.88,-197.26"/>
<polygon fill="#9a32cd" stroke="#9a32cd" points="615.73,-77.09 605.15,-76.54 613.07,-83.57 615.73,-77.09"/>
</a>
</g>
<text text-anchor="middle" x="698.5" y="-148" font-family="Helvetica,sans-Serif" font-size="10.00" fill="grey"> token</text>
</g>
<!-- Node14 -->
<g id="Node000014" class="node">
<title>Node14</title>
<g id="a_Node000014"><a xlink:href="../../db/d4d/class_html_attrib_list.html" target="_top" xlink:title="Class representing a list of HTML attributes.">
<polygon fill="white" stroke="#666666" points="303,-26.5 218,-26.5 218,-7.5 303,-7.5 303,-26.5"/>
<text text-anchor="middle" x="260.5" y="-14.5" font-family="Helvetica,sans-Serif" font-size="10.00">HtmlAttribList</text>
</a>
</g>
</g>
<!-- Node14&#45;&gt;Node1 -->
<g id="edge18_Node000001_Node000014" class="edge">
<title>Node14&#45;&gt;Node1</title>
<g id="a_edge18_Node000001_Node000014"><a xlink:title=" ">
<path fill="none" stroke="#9a32cd" stroke-dasharray="5,2" d="M313.03,-12.54C375.72,-7.5 484.79,0 578.5,0 578.5,0 578.5,0 1129.5,0 1151.6,0 1176.15,-2.68 1195.9,-5.51"/>
<polygon fill="#9a32cd" stroke="#9a32cd" points="312.68,-9.05 303,-13.35 313.25,-16.03 312.68,-9.05"/>
</a>
</g>
<text text-anchor="middle" x="905" y="-3" font-family="Helvetica,sans-Serif" font-size="10.00" fill="grey"> m_attribs</text>
</g>
<!-- Node14&#45;&gt;Node13 -->
<g id="edge15_Node000013_Node000014" class="edge">
<title>Node14&#45;&gt;Node13</title>
<g id="a_edge15_Node000013_Node000014"><a xlink:title=" ">
<path fill="none" stroke="#9a32cd" stroke-dasharray="5,2" d="M313.52,-15.68C362.76,-15.6 438.4,-18.51 502,-34 523.08,-39.13 545.72,-49.58 560.86,-57.35"/>
<polygon fill="#9a32cd" stroke="#9a32cd" points="313.41,-12.18 303.43,-15.74 313.45,-19.18 313.41,-12.18"/>
</a>
</g>
<text text-anchor="middle" x="431" y="-37" font-family="Helvetica,sans-Serif" font-size="10.00" fill="grey"> attribs</text>
</g>
<!-- Node15 -->
<g id="Node000015" class="node">
<title>Node15</title>
<g id="a_Node000015"><a xlink:title=" ">
<polygon fill="white" stroke="#666666" points="142,-26.5 0,-26.5 0,-7.5 142,-7.5 142,-26.5"/>
<text text-anchor="middle" x="71" y="-14.5" font-family="Helvetica,sans-Serif" font-size="10.00">std::vector&lt; HtmlAttrib &gt;</text>
</a>
</g>
</g>
<!-- Node15&#45;&gt;Node14 -->
<g id="edge16_Node000014_Node000015" class="edge">
<title>Node15&#45;&gt;Node14</title>
<g id="a_edge16_Node000014_Node000015"><a xlink:title=" ">
<path fill="none" stroke="#63b8ff" d="M152.35,-17C174.9,-17 198.5,-17 217.8,-17"/>
<polygon fill="#63b8ff" stroke="#63b8ff" points="152.08,-13.5 142.08,-17 152.08,-20.5 152.08,-13.5"/>
</a>
</g>
</g>
<!-- Node16 -->
<g id="Node000016" class="node">
<title>Node16</title>
<g id="a_Node000016"><a xlink:href="../../d1/d7f/class_doc_tokenizer.html" target="_top" xlink:title=" ">
<polygon fill="white" stroke="#666666" points="850.5,-290.5 769.5,-290.5 769.5,-271.5 850.5,-271.5 850.5,-290.5"/>
<text text-anchor="middle" x="810" y="-278.5" font-family="Helvetica,sans-Serif" font-size="10.00">DocTokenizer</text>
</a>
</g>
</g>
<!-- Node16&#45;&gt;Node3 -->
<g id="edge17_Node000003_Node000016" class="edge">
<title>Node16&#45;&gt;Node3</title>
<g id="a_edge17_Node000003_Node000016"><a xlink:title=" ">
<path fill="none" stroke="#9a32cd" stroke-dasharray="5,2" d="M860.67,-269.58C882.17,-264.25 907.51,-257.44 930,-250 939.15,-246.97 949.04,-243.1 957.55,-239.58"/>
<polygon fill="#9a32cd" stroke="#9a32cd" points="859.65,-266.23 850.77,-272 861.31,-273.03 859.65,-266.23"/>
</a>
</g>
<text text-anchor="middle" x="905" y="-267" font-family="Helvetica,sans-Serif" font-size="10.00" fill="grey"> tokenizer</text>
</g>
</g>
</svg>
