<?xml version="1.0" encoding="UTF-8" standalone="no"?>
<!DOCTYPE svg PUBLIC "-//W3C//DTD SVG 1.1//EN"
 "http://www.w3.org/Graphics/SVG/1.1/DTD/svg11.dtd">
<!-- Generated by graphviz version 2.43.0 (0)
 -->
<!-- Title: TemplateNodeWith Pages: 1 -->
<svg width="500pt" height="247pt"
 viewBox="0.00 0.00 499.50 247.00" xmlns="http://www.w3.org/2000/svg" xmlns:xlink="http://www.w3.org/1999/xlink">
<g id="graph0" class="graph" transform="scale(1 1) rotate(0) translate(4 243)">
<title>TemplateNodeWith</title>
<!-- Node1 -->
<g id="Node000001" class="node">
<title>Node1</title>
<g id="a_Node000001"><a xlink:title="Class representing an &#39;with&#39; tag in a template.">
<polygon fill="#999999" stroke="#666666" points="286.5,-19 176.5,-19 176.5,0 286.5,0 286.5,-19"/>
<text text-anchor="middle" x="231.5" y="-7" font-family="Helvetica,sans-Serif" font-size="10.00">TemplateNodeWith</text>
</a>
</g>
</g>
<!-- Node2 -->
<g id="Node000002" class="node">
<title>Node2</title>
<g id="a_Node000002"><a xlink:href="../../d8/d78/class_template_node_creator.html" target="_top" xlink:title=" ">
<polygon fill="white" stroke="#666666" points="230.5,-96 98.5,-96 98.5,-66 230.5,-66 230.5,-96"/>
<text text-anchor="start" x="106.5" y="-84" font-family="Helvetica,sans-Serif" font-size="10.00">TemplateNodeCreator</text>
<text text-anchor="middle" x="164.5" y="-73" font-family="Helvetica,sans-Serif" font-size="10.00">&lt; TemplateNodeWith &gt;</text>
</a>
</g>
</g>
<!-- Node2&#45;&gt;Node1 -->
<g id="edge1_Node000001_Node000002" class="edge">
<title>Node2&#45;&gt;Node1</title>
<g id="a_edge1_Node000001_Node000002"><a xlink:title=" ">
<path fill="none" stroke="#63b8ff" d="M185.16,-58.57C197.91,-45.34 213.59,-29.08 223.05,-19.27"/>
<polygon fill="#63b8ff" stroke="#63b8ff" points="182.48,-56.31 178.06,-65.94 187.52,-61.17 182.48,-56.31"/>
</a>
</g>
</g>
<!-- Node3 -->
<g id="Node000003" class="node">
<title>Node3</title>
<g id="a_Node000003"><a xlink:href="../../d6/d53/class_template_node.html" target="_top" xlink:title="Base class of all nodes in a template&#39;s AST.">
<polygon fill="white" stroke="#666666" points="87,-239 0,-239 0,-220 87,-220 87,-239"/>
<text text-anchor="middle" x="43.5" y="-227" font-family="Helvetica,sans-Serif" font-size="10.00">TemplateNode</text>
</a>
</g>
</g>
<!-- Node3&#45;&gt;Node2 -->
<g id="edge2_Node000002_Node000003" class="edge">
<title>Node3&#45;&gt;Node2</title>
<g id="a_edge2_Node000002_Node000003"><a xlink:title=" ">
<path fill="none" stroke="#63b8ff" d="M35.42,-210.19C28.64,-191.81 21.91,-163.38 34.5,-143 48.98,-119.57 75.18,-105 100.29,-96.01"/>
<polygon fill="#63b8ff" stroke="#63b8ff" points="32.28,-211.75 39.27,-219.71 38.77,-209.13 32.28,-211.75"/>
</a>
</g>
</g>
<!-- Node3&#45;&gt;Node3 -->
<g id="edge3_Node000003_Node000003" class="edge">
<title>Node3&#45;&gt;Node3</title>
<g id="a_edge3_Node000003_Node000003"><a xlink:title=" ">
<path fill="none" stroke="#9a32cd" stroke-dasharray="5,2" d="M97.32,-234.21C102.04,-233.22 105,-231.65 105,-229.5 105,-226.06 97.43,-224.1 87.17,-223.62"/>
<polygon fill="#9a32cd" stroke="#9a32cd" points="96.7,-230.76 87.17,-235.38 97.5,-237.72 96.7,-230.76"/>
</a>
</g>
<text text-anchor="middle" x="130" y="-227" font-family="Helvetica,sans-Serif" font-size="10.00" fill="grey"> m_parent</text>
</g>
<!-- Node5 -->
<g id="Node000005" class="node">
<title>Node5</title>
<g id="a_Node000005"><a xlink:href="../../d8/d78/class_template_node_creator.html" target="_top" xlink:title="Helper class for creating template AST tag nodes and returning the template for a given node.">
<polygon fill="white" stroke="#666666" points="195.5,-167.5 43.5,-167.5 43.5,-148.5 195.5,-148.5 195.5,-167.5"/>
<text text-anchor="middle" x="119.5" y="-155.5" font-family="Helvetica,sans-Serif" font-size="10.00">TemplateNodeCreator&lt; T &gt;</text>
</a>
</g>
</g>
<!-- Node3&#45;&gt;Node5 -->
<g id="edge6_Node000005_Node000003" class="edge">
<title>Node3&#45;&gt;Node5</title>
<g id="a_edge6_Node000005_Node000003"><a xlink:title=" ">
<path fill="none" stroke="#63b8ff" d="M60.54,-212.92C75.85,-198.92 97.76,-178.88 110.1,-167.59"/>
<polygon fill="#63b8ff" stroke="#63b8ff" points="57.84,-210.65 52.82,-219.98 62.56,-215.81 57.84,-210.65"/>
</a>
</g>
</g>
<!-- Node4 -->
<g id="Node000004" class="node">
<title>Node4</title>
<g id="a_Node000004"><a xlink:href="../../d9/d45/class_q_c_string.html" target="_top" xlink:title="This is an alternative implementation of QCString.">
<polygon fill="white" stroke="#666666" points="246,-239 187,-239 187,-220 246,-220 246,-239"/>
<text text-anchor="middle" x="216.5" y="-227" font-family="Helvetica,sans-Serif" font-size="10.00">QCString</text>
</a>
</g>
</g>
<!-- Node4&#45;&gt;Node2 -->
<g id="edge4_Node000002_Node000004" class="edge">
<title>Node4&#45;&gt;Node2</title>
<g id="a_edge4_Node000002_Node000004"><a xlink:title=" ">
<path fill="none" stroke="#9a32cd" stroke-dasharray="5,2" d="M222.02,-209.86C227.97,-185.96 234.45,-144.04 217.5,-114 213.33,-106.61 206.68,-100.73 199.49,-96.13"/>
<polygon fill="#9a32cd" stroke="#9a32cd" points="218.58,-209.17 219.34,-219.73 225.34,-211 218.58,-209.17"/>
</a>
</g>
<text text-anchor="middle" x="273.5" y="-155.5" font-family="Helvetica,sans-Serif" font-size="10.00" fill="grey"> m_templateName</text>
</g>
<!-- Node4&#45;&gt;Node5 -->
<g id="edge7_Node000005_Node000004" class="edge">
<title>Node4&#45;&gt;Node5</title>
<g id="a_edge7_Node000005_Node000004"><a xlink:title=" ">
<path fill="none" stroke="#9a32cd" stroke-dasharray="5,2" d="M176.9,-221.39C155.67,-216.74 132.47,-210.06 125.5,-202 117.32,-192.54 117.22,-177.27 118.17,-167.7"/>
<polygon fill="#9a32cd" stroke="#9a32cd" points="176.26,-224.83 186.77,-223.43 177.69,-217.97 176.26,-224.83"/>
</a>
</g>
<text text-anchor="middle" x="171.5" y="-194" font-family="Helvetica,sans-Serif" font-size="10.00" fill="grey"> m_templateName</text>
</g>
<!-- Node5&#45;&gt;Node2 -->
<g id="edge5_Node000002_Node000005" class="edge">
<title>Node5&#45;&gt;Node2</title>
<g id="a_edge5_Node000002_Node000005"><a xlink:title=" ">
<path fill="none" stroke="orange" stroke-dasharray="5,2" d="M103.57,-140.69C97.51,-132.46 93.2,-122.47 98.5,-114 103.23,-106.45 110.31,-100.63 118.1,-96.17"/>
<polygon fill="orange" stroke="orange" points="101.05,-143.13 110.2,-148.48 106.38,-138.59 101.05,-143.13"/>
</a>
</g>
<text text-anchor="middle" x="158" y="-117" font-family="Helvetica,sans-Serif" font-size="10.00" fill="grey"> &lt; TemplateNodeWith &gt;</text>
</g>
<!-- Node6 -->
<g id="Node000006" class="node">
<title>Node6</title>
<g id="a_Node000006"><a xlink:href="../../df/daf/class_template_node_list.html" target="_top" xlink:title="Class representing a list of AST nodes in a template.">
<polygon fill="white" stroke="#666666" points="410.5,-90.5 306.5,-90.5 306.5,-71.5 410.5,-71.5 410.5,-90.5"/>
<text text-anchor="middle" x="358.5" y="-78.5" font-family="Helvetica,sans-Serif" font-size="10.00">TemplateNodeList</text>
</a>
</g>
</g>
<!-- Node6&#45;&gt;Node1 -->
<g id="edge8_Node000001_Node000006" class="edge">
<title>Node6&#45;&gt;Node1</title>
<g id="a_edge8_Node000001_Node000006"><a xlink:title=" ">
<path fill="none" stroke="#9a32cd" stroke-dasharray="5,2" d="M333.84,-66.51C308.21,-52.48 268.88,-30.96 247.2,-19.09"/>
<polygon fill="#9a32cd" stroke="#9a32cd" points="332.47,-69.75 342.93,-71.48 335.84,-63.61 332.47,-69.75"/>
</a>
</g>
<text text-anchor="middle" x="322.5" y="-40" font-family="Helvetica,sans-Serif" font-size="10.00" fill="grey"> m_nodes</text>
</g>
<!-- Node7 -->
<g id="Node000007" class="node">
<title>Node7</title>
<g id="a_Node000007"><a xlink:title=" ">
<polygon fill="white" stroke="#666666" points="491.5,-173 341.5,-173 341.5,-143 491.5,-143 491.5,-173"/>
<text text-anchor="start" x="349.5" y="-161" font-family="Helvetica,sans-Serif" font-size="10.00">std::vector&lt; TemplateNode</text>
<text text-anchor="middle" x="416.5" y="-150" font-family="Helvetica,sans-Serif" font-size="10.00">Ptr &gt;</text>
</a>
</g>
</g>
<!-- Node7&#45;&gt;Node6 -->
<g id="edge9_Node000006_Node000007" class="edge">
<title>Node7&#45;&gt;Node6</title>
<g id="a_edge9_Node000006_Node000007"><a xlink:title=" ">
<path fill="none" stroke="#63b8ff" d="M399.31,-134.77C387.94,-120.07 373.67,-101.61 365.36,-90.87"/>
<polygon fill="#63b8ff" stroke="#63b8ff" points="396.7,-137.12 405.59,-142.89 402.24,-132.84 396.7,-137.12"/>
</a>
</g>
</g>
</g>
</svg>
