<?xml version="1.0" encoding="UTF-8" standalone="no"?>
<!DOCTYPE svg PUBLIC "-//W3C//DTD SVG 1.1//EN"
 "http://www.w3.org/Graphics/SVG/1.1/DTD/svg11.dtd">
<!-- Generated by graphviz version 2.43.0 (0)
 -->
<!-- Title: /home/runner/work/doxygen/doxygen/src/classlist.h Pages: 1 -->
<svg width="851pt" height="423pt"
 viewBox="0.00 0.00 851.48 423.00" xmlns="http://www.w3.org/2000/svg" xmlns:xlink="http://www.w3.org/1999/xlink">
<g id="graph0" class="graph" transform="scale(1 1) rotate(0) translate(4 419)">
<title>/home/runner/work/doxygen/doxygen/src/classlist.h</title>
<!-- Node1 -->
<g id="Node000001" class="node">
<title>Node1</title>
<g id="a_Node000001"><a xlink:title=" ">
<polygon fill="#999999" stroke="#666666" points="242,-415 88,-415 88,-385 242,-385 242,-415"/>
<text text-anchor="start" x="96" y="-403" font-family="Helvetica,sans-Serif" font-size="10.00">/home/runner/work/doxygen</text>
<text text-anchor="middle" x="165" y="-392" font-family="Helvetica,sans-Serif" font-size="10.00">/doxygen/src/classlist.h</text>
</a>
</g>
</g>
<!-- Node2 -->
<g id="Node000002" class="node">
<title>Node2</title>
<g id="a_Node000002"><a xlink:href="../../da/de1/linkedmap_8h.html" target="_top" xlink:title=" ">
<polygon fill="white" stroke="#666666" points="210.5,-184 133.5,-184 133.5,-165 210.5,-165 210.5,-184"/>
<text text-anchor="middle" x="172" y="-172" font-family="Helvetica,sans-Serif" font-size="10.00">linkedmap.h</text>
</a>
</g>
</g>
<!-- Node1&#45;&gt;Node2 -->
<g id="edge1_Node000001_Node000002" class="edge">
<title>Node1&#45;&gt;Node2</title>
<g id="a_edge1_Node000001_Node000002"><a xlink:title=" ">
<path fill="none" stroke="#63b8ff" d="M165.45,-384.68C166.67,-345.76 170.04,-238.07 171.41,-194.33"/>
<polygon fill="#63b8ff" stroke="#63b8ff" points="174.91,-194.34 171.73,-184.23 167.92,-194.12 174.91,-194.34"/>
</a>
</g>
</g>
<!-- Node16 -->
<g id="Node000016" class="node">
<title>Node16</title>
<g id="a_Node000016"><a xlink:href="../../d1/da6/classdef_8h.html" target="_top" xlink:title=" ">
<polygon fill="white" stroke="#666666" points="409.5,-349 344.5,-349 344.5,-330 409.5,-330 409.5,-349"/>
<text text-anchor="middle" x="377" y="-337" font-family="Helvetica,sans-Serif" font-size="10.00">classdef.h</text>
</a>
</g>
</g>
<!-- Node1&#45;&gt;Node16 -->
<g id="edge20_Node000001_Node000016" class="edge">
<title>Node1&#45;&gt;Node16</title>
<g id="a_edge20_Node000001_Node000016"><a xlink:title=" ">
<path fill="none" stroke="#63b8ff" d="M215.78,-384.99C252.68,-374.8 301.98,-361.2 336.3,-351.73"/>
<polygon fill="#63b8ff" stroke="#63b8ff" points="337.29,-355.09 346,-349.05 335.43,-348.34 337.29,-355.09"/>
</a>
</g>
</g>
<!-- Node3 -->
<g id="Node000003" class="node">
<title>Node3</title>
<g id="a_Node000003"><a xlink:title=" ">
<polygon fill="#e0e0e0" stroke="#999999" points="420.5,-129 327.5,-129 327.5,-110 420.5,-110 420.5,-129"/>
<text text-anchor="middle" x="374" y="-117" font-family="Helvetica,sans-Serif" font-size="10.00">unordered_map</text>
</a>
</g>
</g>
<!-- Node2&#45;&gt;Node3 -->
<g id="edge2_Node000002_Node000003" class="edge">
<title>Node2&#45;&gt;Node3</title>
<g id="a_edge2_Node000002_Node000003"><a xlink:title=" ">
<path fill="none" stroke="#63b8ff" d="M204.45,-164.98C238.96,-155.93 293.66,-141.58 331.56,-131.64"/>
<polygon fill="#63b8ff" stroke="#63b8ff" points="332.51,-135.01 341.29,-129.08 330.73,-128.23 332.51,-135.01"/>
</a>
</g>
</g>
<!-- Node4 -->
<g id="Node000004" class="node">
<title>Node4</title>
<g id="a_Node000004"><a xlink:title=" ">
<polygon fill="#e0e0e0" stroke="#999999" points="548.5,-129 501.5,-129 501.5,-110 548.5,-110 548.5,-129"/>
<text text-anchor="middle" x="525" y="-117" font-family="Helvetica,sans-Serif" font-size="10.00">vector</text>
</a>
</g>
</g>
<!-- Node2&#45;&gt;Node4 -->
<g id="edge3_Node000002_Node000004" class="edge">
<title>Node2&#45;&gt;Node4</title>
<g id="a_edge3_Node000002_Node000004"><a xlink:title=" ">
<path fill="none" stroke="#63b8ff" d="M210.79,-167.68C280.35,-157.23 425.18,-135.49 491.06,-125.6"/>
<polygon fill="#63b8ff" stroke="#63b8ff" points="491.93,-129 501.3,-124.06 490.89,-122.08 491.93,-129"/>
</a>
</g>
</g>
<!-- Node5 -->
<g id="Node000005" class="node">
<title>Node5</title>
<g id="a_Node000005"><a xlink:title=" ">
<polygon fill="#e0e0e0" stroke="#999999" points="58,-129 0,-129 0,-110 58,-110 58,-129"/>
<text text-anchor="middle" x="29" y="-117" font-family="Helvetica,sans-Serif" font-size="10.00">memory</text>
</a>
</g>
</g>
<!-- Node2&#45;&gt;Node5 -->
<g id="edge4_Node000002_Node000005" class="edge">
<title>Node2&#45;&gt;Node5</title>
<g id="a_edge4_Node000002_Node000005"><a xlink:title=" ">
<path fill="none" stroke="#63b8ff" d="M149.02,-164.98C125.5,-156.27 88.71,-142.63 62.06,-132.75"/>
<polygon fill="#63b8ff" stroke="#63b8ff" points="62.99,-129.36 52.39,-129.17 60.55,-135.93 62.99,-129.36"/>
</a>
</g>
</g>
<!-- Node6 -->
<g id="Node000006" class="node">
<title>Node6</title>
<g id="a_Node000006"><a xlink:title=" ">
<polygon fill="#e0e0e0" stroke="#999999" points="481,-19 437,-19 437,0 481,0 481,-19"/>
<text text-anchor="middle" x="459" y="-7" font-family="Helvetica,sans-Serif" font-size="10.00">string</text>
</a>
</g>
</g>
<!-- Node2&#45;&gt;Node6 -->
<g id="edge5_Node000002_Node000006" class="edge">
<title>Node2&#45;&gt;Node6</title>
<g id="a_edge5_Node000002_Node000006"><a xlink:title=" ">
<path fill="none" stroke="#63b8ff" d="M154.62,-164.8C127.77,-150.25 77.2,-118.18 57,-74 53.49,-66.32 51.37,-61.29 57,-55 81.56,-27.58 335.61,-15.22 426.71,-11.65"/>
<polygon fill="#63b8ff" stroke="#63b8ff" points="426.89,-15.15 436.74,-11.27 426.62,-8.15 426.89,-15.15"/>
</a>
</g>
</g>
<!-- Node7 -->
<g id="Node000007" class="node">
<title>Node7</title>
<g id="a_Node000007"><a xlink:title=" ">
<polygon fill="#e0e0e0" stroke="#999999" points="198,-74 134,-74 134,-55 198,-55 198,-74"/>
<text text-anchor="middle" x="166" y="-62" font-family="Helvetica,sans-Serif" font-size="10.00">algorithm</text>
</a>
</g>
</g>
<!-- Node2&#45;&gt;Node7 -->
<g id="edge6_Node000002_Node000007" class="edge">
<title>Node2&#45;&gt;Node7</title>
<g id="a_edge6_Node000002_Node000007"><a xlink:title=" ">
<path fill="none" stroke="#63b8ff" d="M171.51,-164.66C170.54,-147.17 168.35,-107.8 167.04,-84.27"/>
<polygon fill="#63b8ff" stroke="#63b8ff" points="170.53,-83.95 166.48,-74.16 163.54,-84.34 170.53,-83.95"/>
</a>
</g>
</g>
<!-- Node8 -->
<g id="Node000008" class="node">
<title>Node8</title>
<g id="a_Node000008"><a xlink:title=" ">
<polygon fill="#e0e0e0" stroke="#999999" points="115.5,-74 66.5,-74 66.5,-55 115.5,-55 115.5,-74"/>
<text text-anchor="middle" x="91" y="-62" font-family="Helvetica,sans-Serif" font-size="10.00">cctype</text>
</a>
</g>
</g>
<!-- Node2&#45;&gt;Node8 -->
<g id="edge7_Node000002_Node000008" class="edge">
<title>Node2&#45;&gt;Node8</title>
<g id="a_edge7_Node000002_Node000008"><a xlink:title=" ">
<path fill="none" stroke="#63b8ff" d="M165.37,-164.66C151.9,-146.69 121.11,-105.64 103.66,-82.38"/>
<polygon fill="#63b8ff" stroke="#63b8ff" points="106.29,-80.06 97.49,-74.16 100.69,-84.26 106.29,-80.06"/>
</a>
</g>
</g>
<!-- Node9 -->
<g id="Node000009" class="node">
<title>Node9</title>
<g id="a_Node000009"><a xlink:href="../../d7/d5c/qcstring_8h.html" target="_top" xlink:title=" ">
<polygon fill="white" stroke="#666666" points="309.5,-129 244.5,-129 244.5,-110 309.5,-110 309.5,-129"/>
<text text-anchor="middle" x="277" y="-117" font-family="Helvetica,sans-Serif" font-size="10.00">qcstring.h</text>
</a>
</g>
</g>
<!-- Node2&#45;&gt;Node9 -->
<g id="edge8_Node000002_Node000009" class="edge">
<title>Node2&#45;&gt;Node9</title>
<g id="a_edge8_Node000002_Node000009"><a xlink:title=" ">
<path fill="none" stroke="#63b8ff" d="M188.87,-164.98C205.61,-156.54 231.5,-143.47 250.89,-133.68"/>
<polygon fill="#63b8ff" stroke="#63b8ff" points="252.47,-136.8 259.82,-129.17 249.32,-130.55 252.47,-136.8"/>
</a>
</g>
</g>
<!-- Node9&#45;&gt;Node6 -->
<g id="edge9_Node000009_Node000006" class="edge">
<title>Node9&#45;&gt;Node6</title>
<g id="a_edge9_Node000009_Node000006"><a xlink:title=" ">
<path fill="none" stroke="#63b8ff" d="M309.63,-111.52C312.46,-110.98 315.28,-110.47 318,-110 376.8,-99.94 544.75,-118.92 584,-74 613.2,-40.59 537.42,-22.56 491.38,-14.95"/>
<polygon fill="#63b8ff" stroke="#63b8ff" points="491.64,-11.45 481.22,-13.36 490.56,-18.36 491.64,-11.45"/>
</a>
</g>
</g>
<!-- Node9&#45;&gt;Node7 -->
<g id="edge10_Node000009_Node000007" class="edge">
<title>Node9&#45;&gt;Node7</title>
<g id="a_edge10_Node000009_Node000007"><a xlink:title=" ">
<path fill="none" stroke="#63b8ff" d="M259.17,-109.98C241.39,-101.5 213.85,-88.35 193.32,-78.54"/>
<polygon fill="#63b8ff" stroke="#63b8ff" points="194.69,-75.32 184.16,-74.17 191.67,-81.64 194.69,-75.32"/>
</a>
</g>
</g>
<!-- Node9&#45;&gt;Node8 -->
<g id="edge11_Node000009_Node000008" class="edge">
<title>Node9&#45;&gt;Node8</title>
<g id="a_edge11_Node000009_Node000008"><a xlink:title=" ">
<path fill="none" stroke="#63b8ff" d="M247.12,-109.98C213.94,-100.53 160.46,-85.29 125.52,-75.34"/>
<polygon fill="#63b8ff" stroke="#63b8ff" points="126.33,-71.93 115.75,-72.55 124.41,-78.66 126.33,-71.93"/>
</a>
</g>
</g>
<!-- Node10 -->
<g id="Node000010" class="node">
<title>Node10</title>
<g id="a_Node000010"><a xlink:title=" ">
<polygon fill="#e0e0e0" stroke="#999999" points="368,-74 318,-74 318,-55 368,-55 368,-74"/>
<text text-anchor="middle" x="343" y="-62" font-family="Helvetica,sans-Serif" font-size="10.00">cstring</text>
</a>
</g>
</g>
<!-- Node9&#45;&gt;Node10 -->
<g id="edge12_Node000009_Node000010" class="edge">
<title>Node9&#45;&gt;Node10</title>
<g id="a_edge12_Node000009_Node000010"><a xlink:title=" ">
<path fill="none" stroke="#63b8ff" d="M287.6,-109.98C297.46,-102.07 312.35,-90.11 324.22,-80.58"/>
<polygon fill="#63b8ff" stroke="#63b8ff" points="326.6,-83.16 332.2,-74.17 322.21,-77.7 326.6,-83.16"/>
</a>
</g>
</g>
<!-- Node11 -->
<g id="Node000011" class="node">
<title>Node11</title>
<g id="a_Node000011"><a xlink:title=" ">
<polygon fill="#e0e0e0" stroke="#999999" points="432,-74 386,-74 386,-55 432,-55 432,-74"/>
<text text-anchor="middle" x="409" y="-62" font-family="Helvetica,sans-Serif" font-size="10.00">cstdio</text>
</a>
</g>
</g>
<!-- Node9&#45;&gt;Node11 -->
<g id="edge13_Node000009_Node000011" class="edge">
<title>Node9&#45;&gt;Node11</title>
<g id="a_edge13_Node000009_Node000011"><a xlink:title=" ">
<path fill="none" stroke="#63b8ff" d="M298.21,-109.98C319.73,-101.34 353.28,-87.87 377.83,-78.02"/>
<polygon fill="#63b8ff" stroke="#63b8ff" points="379.43,-81.14 387.41,-74.17 376.82,-74.65 379.43,-81.14"/>
</a>
</g>
</g>
<!-- Node12 -->
<g id="Node000012" class="node">
<title>Node12</title>
<g id="a_Node000012"><a xlink:title=" ">
<polygon fill="#e0e0e0" stroke="#999999" points="499.5,-74 450.5,-74 450.5,-55 499.5,-55 499.5,-74"/>
<text text-anchor="middle" x="475" y="-62" font-family="Helvetica,sans-Serif" font-size="10.00">cstdlib</text>
</a>
</g>
</g>
<!-- Node9&#45;&gt;Node12 -->
<g id="edge14_Node000009_Node000012" class="edge">
<title>Node9&#45;&gt;Node12</title>
<g id="a_edge14_Node000009_Node000012"><a xlink:title=" ">
<path fill="none" stroke="#63b8ff" d="M308.81,-109.98C344.88,-100.33 403.49,-84.64 440.6,-74.71"/>
<polygon fill="#63b8ff" stroke="#63b8ff" points="441.7,-78.04 450.46,-72.07 439.89,-71.27 441.7,-78.04"/>
</a>
</g>
</g>
<!-- Node13 -->
<g id="Node000013" class="node">
<title>Node13</title>
<g id="a_Node000013"><a xlink:title=" ">
<polygon fill="#e0e0e0" stroke="#999999" points="276,-19 226,-19 226,0 276,0 276,-19"/>
<text text-anchor="middle" x="251" y="-7" font-family="Helvetica,sans-Serif" font-size="10.00">cstdint</text>
</a>
</g>
</g>
<!-- Node9&#45;&gt;Node13 -->
<g id="edge15_Node000009_Node000013" class="edge">
<title>Node9&#45;&gt;Node13</title>
<g id="a_edge15_Node000009_Node000013"><a xlink:title=" ">
<path fill="none" stroke="#63b8ff" d="M268.25,-109.9C260.44,-101.56 249.55,-88.13 245,-74 240.32,-59.49 242.41,-42.22 245.34,-29.36"/>
<polygon fill="#63b8ff" stroke="#63b8ff" points="248.81,-29.93 247.98,-19.37 242.04,-28.14 248.81,-29.93"/>
</a>
</g>
</g>
<!-- Node14 -->
<g id="Node000014" class="node">
<title>Node14</title>
<g id="a_Node000014"><a xlink:title=" ">
<polygon fill="#e0e0e0" stroke="#999999" points="574.5,-74 517.5,-74 517.5,-55 574.5,-55 574.5,-74"/>
<text text-anchor="middle" x="546" y="-62" font-family="Helvetica,sans-Serif" font-size="10.00">ostream</text>
</a>
</g>
</g>
<!-- Node9&#45;&gt;Node14 -->
<g id="edge16_Node000009_Node000014" class="edge">
<title>Node9&#45;&gt;Node14</title>
<g id="a_edge16_Node000009_Node000014"><a xlink:title=" ">
<path fill="none" stroke="#63b8ff" d="M309.66,-111.67C312.48,-111.1 315.29,-110.54 318,-110 399.68,-93.84 422.79,-91.81 507.54,-74.24"/>
<polygon fill="#63b8ff" stroke="#63b8ff" points="508.27,-77.67 517.34,-72.2 506.84,-70.82 508.27,-77.67"/>
</a>
</g>
</g>
<!-- Node15 -->
<g id="Node000015" class="node">
<title>Node15</title>
<g id="a_Node000015"><a xlink:href="../../db/d7c/utf8_8h.html" target="_top" xlink:title="Various UTF8 related helper functions.">
<polygon fill="white" stroke="#666666" points="299.5,-74 254.5,-74 254.5,-55 299.5,-55 299.5,-74"/>
<text text-anchor="middle" x="277" y="-62" font-family="Helvetica,sans-Serif" font-size="10.00">utf8.h</text>
</a>
</g>
</g>
<!-- Node9&#45;&gt;Node15 -->
<g id="edge17_Node000009_Node000015" class="edge">
<title>Node9&#45;&gt;Node15</title>
<g id="a_edge17_Node000009_Node000015"><a xlink:title=" ">
<path fill="none" stroke="#63b8ff" d="M277,-109.75C277,-102.8 277,-92.85 277,-84.13"/>
<polygon fill="#63b8ff" stroke="#63b8ff" points="280.5,-84.09 277,-74.09 273.5,-84.09 280.5,-84.09"/>
</a>
</g>
</g>
<!-- Node15&#45;&gt;Node6 -->
<g id="edge19_Node000015_Node000006" class="edge">
<title>Node15&#45;&gt;Node6</title>
<g id="a_edge19_Node000015_Node000006"><a xlink:title=" ">
<path fill="none" stroke="#63b8ff" d="M299.68,-56.89C331.82,-47.54 390.76,-30.37 427.23,-19.75"/>
<polygon fill="#63b8ff" stroke="#63b8ff" points="428.26,-23.1 436.89,-16.94 426.31,-16.38 428.26,-23.1"/>
</a>
</g>
</g>
<!-- Node15&#45;&gt;Node13 -->
<g id="edge18_Node000015_Node000013" class="edge">
<title>Node15&#45;&gt;Node13</title>
<g id="a_edge18_Node000015_Node000013"><a xlink:title=" ">
<path fill="none" stroke="#63b8ff" d="M272.71,-54.75C269.19,-47.57 264.09,-37.18 259.72,-28.27"/>
<polygon fill="#63b8ff" stroke="#63b8ff" points="262.76,-26.53 255.21,-19.09 256.48,-29.61 262.76,-26.53"/>
</a>
</g>
</g>
<!-- Node16&#45;&gt;Node4 -->
<g id="edge22_Node000016_Node000004" class="edge">
<title>Node16&#45;&gt;Node4</title>
<g id="a_edge22_Node000016_Node000004"><a xlink:title=" ">
<path fill="none" stroke="#63b8ff" d="M409.83,-336.71C505.57,-330.7 780.8,-307.63 831,-239 901.43,-142.7 651.83,-124.66 558.69,-121.28"/>
<polygon fill="#63b8ff" stroke="#63b8ff" points="558.75,-117.78 548.64,-120.95 558.52,-124.77 558.75,-117.78"/>
</a>
</g>
</g>
<!-- Node16&#45;&gt;Node5 -->
<g id="edge21_Node000016_Node000005" class="edge">
<title>Node16&#45;&gt;Node5</title>
<g id="a_edge21_Node000016_Node000005"><a xlink:title=" ">
<path fill="none" stroke="#63b8ff" d="M344.36,-335.85C305.08,-331.56 238.04,-320.69 187,-294 122.31,-260.16 110.7,-240.93 65,-184 53.62,-169.82 43.69,-151.6 37.16,-138.31"/>
<polygon fill="#63b8ff" stroke="#63b8ff" points="40.31,-136.79 32.86,-129.26 33.99,-139.8 40.31,-136.79"/>
</a>
</g>
</g>
<!-- Node17 -->
<g id="Node000017" class="node">
<title>Node17</title>
<g id="a_Node000017"><a xlink:title=" ">
<polygon fill="#e0e0e0" stroke="#999999" points="563,-239 531,-239 531,-220 563,-220 563,-239"/>
<text text-anchor="middle" x="547" y="-227" font-family="Helvetica,sans-Serif" font-size="10.00">set</text>
</a>
</g>
</g>
<!-- Node16&#45;&gt;Node17 -->
<g id="edge23_Node000016_Node000017" class="edge">
<title>Node16&#45;&gt;Node17</title>
<g id="a_edge23_Node000016_Node000017"><a xlink:title=" ">
<path fill="none" stroke="#63b8ff" d="M390.62,-329.84C419.84,-311.28 488.78,-267.49 524.56,-244.75"/>
<polygon fill="#63b8ff" stroke="#63b8ff" points="526.75,-247.51 533.31,-239.2 522.99,-241.6 526.75,-247.51"/>
</a>
</g>
</g>
<!-- Node18 -->
<g id="Node000018" class="node">
<title>Node18</title>
<g id="a_Node000018"><a xlink:href="../../d5/d75/containers_8h.html" target="_top" xlink:title=" ">
<polygon fill="white" stroke="#666666" points="648.5,-294 571.5,-294 571.5,-275 648.5,-275 648.5,-294"/>
<text text-anchor="middle" x="610" y="-282" font-family="Helvetica,sans-Serif" font-size="10.00">containers.h</text>
</a>
</g>
</g>
<!-- Node16&#45;&gt;Node18 -->
<g id="edge24_Node000016_Node000018" class="edge">
<title>Node16&#45;&gt;Node18</title>
<g id="a_edge24_Node000016_Node000018"><a xlink:title=" ">
<path fill="none" stroke="#63b8ff" d="M409.89,-331.02C449.66,-321.97 516.9,-306.68 562.34,-296.34"/>
<polygon fill="#63b8ff" stroke="#63b8ff" points="563.29,-299.72 572.26,-294.08 561.73,-292.89 563.29,-299.72"/>
</a>
</g>
</g>
<!-- Node22 -->
<g id="Node000022" class="node">
<title>Node22</title>
<g id="a_Node000022"><a xlink:href="../../df/da1/definition_8h.html" target="_top" xlink:title=" ">
<polygon fill="white" stroke="#666666" points="380.5,-294 309.5,-294 309.5,-275 380.5,-275 380.5,-294"/>
<text text-anchor="middle" x="345" y="-282" font-family="Helvetica,sans-Serif" font-size="10.00">definition.h</text>
</a>
</g>
</g>
<!-- Node16&#45;&gt;Node22 -->
<g id="edge32_Node000016_Node000022" class="edge">
<title>Node16&#45;&gt;Node22</title>
<g id="a_edge32_Node000016_Node000022"><a xlink:title=" ">
<path fill="none" stroke="#63b8ff" d="M371.72,-329.75C367.29,-322.42 360.84,-311.73 355.38,-302.7"/>
<polygon fill="#63b8ff" stroke="#63b8ff" points="358.35,-300.84 350.19,-294.09 352.36,-304.46 358.35,-300.84"/>
</a>
</g>
</g>
<!-- Node25 -->
<g id="Node000025" class="node">
<title>Node25</title>
<g id="a_Node000025"><a xlink:href="../../df/d9b/arguments_8h.html" target="_top" xlink:title=" ">
<polygon fill="white" stroke="#666666" points="421,-184 343,-184 343,-165 421,-165 421,-184"/>
<text text-anchor="middle" x="382" y="-172" font-family="Helvetica,sans-Serif" font-size="10.00">arguments.h</text>
</a>
</g>
</g>
<!-- Node16&#45;&gt;Node25 -->
<g id="edge42_Node000016_Node000025" class="edge">
<title>Node16&#45;&gt;Node25</title>
<g id="a_edge42_Node000016_Node000025"><a xlink:title=" ">
<path fill="none" stroke="#63b8ff" d="M380.09,-329.77C383.05,-320.9 387.32,-306.69 389,-294 393.65,-258.89 388.9,-217.51 385.28,-194.1"/>
<polygon fill="#63b8ff" stroke="#63b8ff" points="388.72,-193.46 383.64,-184.16 381.81,-194.6 388.72,-193.46"/>
</a>
</g>
</g>
<!-- Node26 -->
<g id="Node000026" class="node">
<title>Node26</title>
<g id="a_Node000026"><a xlink:href="../../d9/d11/membergroup_8h.html" target="_top" xlink:title=" ">
<polygon fill="white" stroke="#666666" points="291.5,-294 196.5,-294 196.5,-275 291.5,-275 291.5,-294"/>
<text text-anchor="middle" x="244" y="-282" font-family="Helvetica,sans-Serif" font-size="10.00">membergroup.h</text>
</a>
</g>
</g>
<!-- Node16&#45;&gt;Node26 -->
<g id="edge45_Node000016_Node000026" class="edge">
<title>Node16&#45;&gt;Node26</title>
<g id="a_edge45_Node000016_Node000026"><a xlink:title=" ">
<path fill="none" stroke="#63b8ff" d="M355.63,-329.98C333.85,-321.3 299.84,-307.75 275.08,-297.88"/>
<polygon fill="#63b8ff" stroke="#63b8ff" points="276.34,-294.62 265.76,-294.17 273.75,-301.12 276.34,-294.62"/>
</a>
</g>
</g>
<!-- Node18&#45;&gt;Node3 -->
<g id="edge30_Node000018_Node000003" class="edge">
<title>Node18&#45;&gt;Node3</title>
<g id="a_edge30_Node000018_Node000003"><a xlink:title=" ">
<path fill="none" stroke="#63b8ff" d="M606.6,-274.64C601.11,-261.3 589.13,-235.91 572,-220 524.8,-176.15 454.63,-147.09 411.74,-132.24"/>
<polygon fill="#63b8ff" stroke="#63b8ff" points="412.83,-128.91 402.23,-129.03 410.58,-135.54 412.83,-128.91"/>
</a>
</g>
</g>
<!-- Node18&#45;&gt;Node4 -->
<g id="edge25_Node000018_Node000004" class="edge">
<title>Node18&#45;&gt;Node4</title>
<g id="a_edge25_Node000018_Node000004"><a xlink:title=" ">
<path fill="none" stroke="#63b8ff" d="M648.54,-284.44C718.51,-284.78 855.57,-278.28 814,-220 754.72,-136.9 621.34,-122.5 558.7,-120.48"/>
<polygon fill="#63b8ff" stroke="#63b8ff" points="558.65,-116.98 548.57,-120.25 558.48,-123.98 558.65,-116.98"/>
</a>
</g>
</g>
<!-- Node18&#45;&gt;Node6 -->
<g id="edge26_Node000018_Node000006" class="edge">
<title>Node18&#45;&gt;Node6</title>
<g id="a_edge26_Node000018_Node000006"><a xlink:title=" ">
<path fill="none" stroke="#63b8ff" d="M612.8,-274.89C622.86,-242.18 653.84,-124.04 601,-55 575.36,-21.49 524.64,-12.63 491.27,-10.6"/>
<polygon fill="#63b8ff" stroke="#63b8ff" points="491.25,-7.09 481.1,-10.16 490.94,-14.09 491.25,-7.09"/>
</a>
</g>
</g>
<!-- Node18&#45;&gt;Node17 -->
<g id="edge27_Node000018_Node000017" class="edge">
<title>Node18&#45;&gt;Node17</title>
<g id="a_edge27_Node000018_Node000017"><a xlink:title=" ">
<path fill="none" stroke="#63b8ff" d="M599.88,-274.98C590.56,-267.15 576.53,-255.34 565.26,-245.86"/>
<polygon fill="#63b8ff" stroke="#63b8ff" points="567.21,-242.93 557.31,-239.17 562.71,-248.29 567.21,-242.93"/>
</a>
</g>
</g>
<!-- Node19 -->
<g id="Node000019" class="node">
<title>Node19</title>
<g id="a_Node000019"><a xlink:title=" ">
<polygon fill="#e0e0e0" stroke="#999999" points="513,-239 475,-239 475,-220 513,-220 513,-239"/>
<text text-anchor="middle" x="494" y="-227" font-family="Helvetica,sans-Serif" font-size="10.00">map</text>
</a>
</g>
</g>
<!-- Node18&#45;&gt;Node19 -->
<g id="edge28_Node000018_Node000019" class="edge">
<title>Node18&#45;&gt;Node19</title>
<g id="a_edge28_Node000018_Node000019"><a xlink:title=" ">
<path fill="none" stroke="#63b8ff" d="M591.36,-274.98C572.7,-266.46 543.75,-253.23 522.26,-243.41"/>
<polygon fill="#63b8ff" stroke="#63b8ff" points="523.53,-240.14 512.98,-239.17 520.62,-246.51 523.53,-240.14"/>
</a>
</g>
</g>
<!-- Node20 -->
<g id="Node000020" class="node">
<title>Node20</title>
<g id="a_Node000020"><a xlink:title=" ">
<polygon fill="#e0e0e0" stroke="#999999" points="743,-239 657,-239 657,-220 743,-220 743,-239"/>
<text text-anchor="middle" x="700" y="-227" font-family="Helvetica,sans-Serif" font-size="10.00">unordered_set</text>
</a>
</g>
</g>
<!-- Node18&#45;&gt;Node20 -->
<g id="edge29_Node000018_Node000020" class="edge">
<title>Node18&#45;&gt;Node20</title>
<g id="a_edge29_Node000018_Node000020"><a xlink:title=" ">
<path fill="none" stroke="#63b8ff" d="M624.46,-274.98C638.42,-266.77 659.79,-254.18 676.25,-244.49"/>
<polygon fill="#63b8ff" stroke="#63b8ff" points="678.44,-247.26 685.28,-239.17 674.88,-241.23 678.44,-247.26"/>
</a>
</g>
</g>
<!-- Node21 -->
<g id="Node000021" class="node">
<title>Node21</title>
<g id="a_Node000021"><a xlink:title=" ">
<polygon fill="#e0e0e0" stroke="#999999" points="804.5,-239 761.5,-239 761.5,-220 804.5,-220 804.5,-239"/>
<text text-anchor="middle" x="783" y="-227" font-family="Helvetica,sans-Serif" font-size="10.00">stack</text>
</a>
</g>
</g>
<!-- Node18&#45;&gt;Node21 -->
<g id="edge31_Node000018_Node000021" class="edge">
<title>Node18&#45;&gt;Node21</title>
<g id="a_edge31_Node000018_Node000021"><a xlink:title=" ">
<path fill="none" stroke="#63b8ff" d="M637.8,-274.98C668.82,-265.48 718.93,-250.13 751.42,-240.18"/>
<polygon fill="#63b8ff" stroke="#63b8ff" points="752.76,-243.42 761.3,-237.15 750.71,-236.73 752.76,-243.42"/>
</a>
</g>
</g>
<!-- Node22&#45;&gt;Node4 -->
<g id="edge33_Node000022_Node000004" class="edge">
<title>Node22&#45;&gt;Node4</title>
<g id="a_edge33_Node000022_Node000004"><a xlink:title=" ">
<path fill="none" stroke="#63b8ff" d="M360.98,-274.95C384.07,-262.63 428.15,-239.26 466,-220 498.24,-203.59 519.9,-214.72 539,-184 547.55,-170.25 542.12,-151.97 535.7,-138.56"/>
<polygon fill="#63b8ff" stroke="#63b8ff" points="538.61,-136.57 530.81,-129.4 532.43,-139.87 538.61,-136.57"/>
</a>
</g>
</g>
<!-- Node23 -->
<g id="Node000023" class="node">
<title>Node23</title>
<g id="a_Node000023"><a xlink:href="../../d9/d49/types_8h.html" target="_top" xlink:title="This file contains a number of basic enums and types.">
<polygon fill="white" stroke="#666666" points="340.5,-239 287.5,-239 287.5,-220 340.5,-220 340.5,-239"/>
<text text-anchor="middle" x="314" y="-227" font-family="Helvetica,sans-Serif" font-size="10.00">types.h</text>
</a>
</g>
</g>
<!-- Node22&#45;&gt;Node23 -->
<g id="edge34_Node000022_Node000023" class="edge">
<title>Node22&#45;&gt;Node23</title>
<g id="a_edge34_Node000022_Node000023"><a xlink:title=" ">
<path fill="none" stroke="#63b8ff" d="M339.88,-274.75C335.64,-267.49 329.47,-256.95 324.22,-247.98"/>
<polygon fill="#63b8ff" stroke="#63b8ff" points="327.09,-245.95 319.02,-239.09 321.05,-249.49 327.09,-245.95"/>
</a>
</g>
</g>
<!-- Node24 -->
<g id="Node000024" class="node">
<title>Node24</title>
<g id="a_Node000024"><a xlink:href="../../d1/d02/reflist_8h.html" target="_top" xlink:title=" ">
<polygon fill="white" stroke="#666666" points="269.5,-239 216.5,-239 216.5,-220 269.5,-220 269.5,-239"/>
<text text-anchor="middle" x="243" y="-227" font-family="Helvetica,sans-Serif" font-size="10.00">reflist.h</text>
</a>
</g>
</g>
<!-- Node22&#45;&gt;Node24 -->
<g id="edge36_Node000022_Node000024" class="edge">
<title>Node22&#45;&gt;Node24</title>
<g id="a_edge36_Node000022_Node000024"><a xlink:title=" ">
<path fill="none" stroke="#63b8ff" d="M328.61,-274.98C312.43,-266.57 287.43,-253.59 268.62,-243.81"/>
<polygon fill="#63b8ff" stroke="#63b8ff" points="270.17,-240.68 259.69,-239.17 266.95,-246.89 270.17,-240.68"/>
</a>
</g>
</g>
<!-- Node23&#45;&gt;Node9 -->
<g id="edge35_Node000023_Node000009" class="edge">
<title>Node23&#45;&gt;Node9</title>
<g id="a_edge35_Node000023_Node000009"><a xlink:title=" ">
<path fill="none" stroke="#63b8ff" d="M310.97,-219.66C304.93,-202.01 291.25,-162.09 283.21,-138.64"/>
<polygon fill="#63b8ff" stroke="#63b8ff" points="286.52,-137.48 279.97,-129.16 279.9,-139.75 286.52,-137.48"/>
</a>
</g>
</g>
<!-- Node24&#45;&gt;Node2 -->
<g id="edge41_Node000024_Node000002" class="edge">
<title>Node24&#45;&gt;Node2</title>
<g id="a_edge41_Node000024_Node000002"><a xlink:title=" ">
<path fill="none" stroke="#63b8ff" d="M231.59,-219.98C220.89,-212 204.66,-199.88 191.84,-190.31"/>
<polygon fill="#63b8ff" stroke="#63b8ff" points="193.72,-187.35 183.61,-184.17 189.53,-192.96 193.72,-187.35"/>
</a>
</g>
</g>
<!-- Node24&#45;&gt;Node3 -->
<g id="edge38_Node000024_Node000003" class="edge">
<title>Node24&#45;&gt;Node3</title>
<g id="a_edge38_Node000024_Node000003"><a xlink:title=" ">
<path fill="none" stroke="#63b8ff" d="M253.72,-219.66C276.09,-201.22 327.97,-158.45 355.72,-135.57"/>
<polygon fill="#63b8ff" stroke="#63b8ff" points="358.01,-138.22 363.5,-129.16 353.56,-132.82 358.01,-138.22"/>
</a>
</g>
</g>
<!-- Node24&#45;&gt;Node4 -->
<g id="edge37_Node000024_Node000004" class="edge">
<title>Node24&#45;&gt;Node4</title>
<g id="a_edge37_Node000024_Node000004"><a xlink:title=" ">
<path fill="none" stroke="#63b8ff" d="M269.75,-221.99C272.53,-221.31 275.32,-220.64 278,-220 345.51,-203.81 366.35,-211.73 430,-184 458.91,-171.4 488.56,-149.96 506.87,-135.52"/>
<polygon fill="#63b8ff" stroke="#63b8ff" points="509.3,-138.06 514.9,-129.06 504.91,-132.6 509.3,-138.06"/>
</a>
</g>
</g>
<!-- Node24&#45;&gt;Node5 -->
<g id="edge39_Node000024_Node000005" class="edge">
<title>Node24&#45;&gt;Node5</title>
<g id="a_edge39_Node000024_Node000005"><a xlink:title=" ">
<path fill="none" stroke="#63b8ff" d="M216.25,-220.47C191.63,-212.62 154.43,-199.59 124,-184 96.23,-169.77 66.73,-149.06 48.1,-135.2"/>
<polygon fill="#63b8ff" stroke="#63b8ff" points="49.98,-132.23 39.89,-129.01 45.76,-137.82 49.98,-132.23"/>
</a>
</g>
</g>
<!-- Node24&#45;&gt;Node9 -->
<g id="edge40_Node000024_Node000009" class="edge">
<title>Node24&#45;&gt;Node9</title>
<g id="a_edge40_Node000024_Node000009"><a xlink:title=" ">
<path fill="none" stroke="#63b8ff" d="M245.78,-219.66C251.31,-202.09 263.79,-162.45 271.19,-138.95"/>
<polygon fill="#63b8ff" stroke="#63b8ff" points="274.61,-139.75 274.27,-129.16 267.93,-137.65 274.61,-139.75"/>
</a>
</g>
</g>
<!-- Node25&#45;&gt;Node4 -->
<g id="edge43_Node000025_Node000004" class="edge">
<title>Node25&#45;&gt;Node4</title>
<g id="a_edge43_Node000025_Node000004"><a xlink:title=" ">
<path fill="none" stroke="#63b8ff" d="M404.98,-164.98C428.5,-156.27 465.29,-142.63 491.94,-132.75"/>
<polygon fill="#63b8ff" stroke="#63b8ff" points="493.45,-135.93 501.61,-129.17 491.01,-129.36 493.45,-135.93"/>
</a>
</g>
</g>
<!-- Node25&#45;&gt;Node9 -->
<g id="edge44_Node000025_Node000009" class="edge">
<title>Node25&#45;&gt;Node9</title>
<g id="a_edge44_Node000025_Node000009"><a xlink:title=" ">
<path fill="none" stroke="#63b8ff" d="M365.13,-164.98C348.39,-156.54 322.5,-143.47 303.11,-133.68"/>
<polygon fill="#63b8ff" stroke="#63b8ff" points="304.68,-130.55 294.18,-129.17 301.53,-136.8 304.68,-130.55"/>
</a>
</g>
</g>
<!-- Node26&#45;&gt;Node4 -->
<g id="edge46_Node000026_Node000004" class="edge">
<title>Node26&#45;&gt;Node4</title>
<g id="a_edge46_Node000026_Node000004"><a xlink:title=" ">
<path fill="none" stroke="#63b8ff" d="M270.75,-274.93C313.5,-260.46 398.72,-228.37 461,-184 480.21,-170.31 498.99,-150.73 511.18,-136.94"/>
<polygon fill="#63b8ff" stroke="#63b8ff" points="513.97,-139.06 517.86,-129.21 508.68,-134.48 513.97,-139.06"/>
</a>
</g>
</g>
<!-- Node26&#45;&gt;Node5 -->
<g id="edge48_Node000026_Node000005" class="edge">
<title>Node26&#45;&gt;Node5</title>
<g id="a_edge48_Node000026_Node000005"><a xlink:title=" ">
<path fill="none" stroke="#63b8ff" d="M227.59,-274.86C198.1,-258.96 134.88,-223.08 88,-184 70.93,-169.77 53.93,-150.83 42.59,-137.35"/>
<polygon fill="#63b8ff" stroke="#63b8ff" points="45.08,-134.87 36.01,-129.38 39.68,-139.32 45.08,-134.87"/>
</a>
</g>
</g>
<!-- Node26&#45;&gt;Node19 -->
<g id="edge47_Node000026_Node000019" class="edge">
<title>Node26&#45;&gt;Node19</title>
<g id="a_edge47_Node000026_Node000019"><a xlink:title=" ">
<path fill="none" stroke="#63b8ff" d="M284.17,-274.98C334.77,-264.26 420.49,-246.08 465.09,-236.63"/>
<polygon fill="#63b8ff" stroke="#63b8ff" points="465.93,-240.03 474.98,-234.53 464.48,-233.18 465.93,-240.03"/>
</a>
</g>
</g>
<!-- Node26&#45;&gt;Node23 -->
<g id="edge49_Node000026_Node000023" class="edge">
<title>Node26&#45;&gt;Node23</title>
<g id="a_edge49_Node000026_Node000023"><a xlink:title=" ">
<path fill="none" stroke="#63b8ff" d="M255.25,-274.98C265.8,-267 281.8,-254.88 294.44,-245.31"/>
<polygon fill="#63b8ff" stroke="#63b8ff" points="296.69,-248 302.55,-239.17 292.46,-242.42 296.69,-248"/>
</a>
</g>
</g>
<!-- Node26&#45;&gt;Node24 -->
<g id="edge50_Node000026_Node000024" class="edge">
<title>Node26&#45;&gt;Node24</title>
<g id="a_edge50_Node000026_Node000024"><a xlink:title=" ">
<path fill="none" stroke="#63b8ff" d="M243.83,-274.75C243.7,-267.8 243.52,-257.85 243.35,-249.13"/>
<polygon fill="#63b8ff" stroke="#63b8ff" points="246.85,-249.02 243.16,-239.09 239.85,-249.15 246.85,-249.02"/>
</a>
</g>
</g>
</g>
</svg>
