<?xml version="1.0" encoding="UTF-8" standalone="no"?>
<!DOCTYPE svg PUBLIC "-//W3C//DTD SVG 1.1//EN"
 "http://www.w3.org/Graphics/SVG/1.1/DTD/svg11.dtd">
<!-- Generated by graphviz version 2.43.0 (0)
 -->
<!-- Title: NamespaceDefImpl Pages: 1 -->
<svg width="404pt" height="272pt"
 viewBox="0.00 0.00 404.00 272.00" xmlns="http://www.w3.org/2000/svg" xmlns:xlink="http://www.w3.org/1999/xlink">
<g id="graph0" class="graph" transform="scale(1 1) rotate(0) translate(4 268)">
<title>NamespaceDefImpl</title>
<!-- Node1 -->
<g id="Node000001" class="node">
<title>Node1</title>
<g id="a_Node000001"><a xlink:title=" ">
<polygon fill="#999999" stroke="#666666" points="265.5,-19 152.5,-19 152.5,0 265.5,0 265.5,-19"/>
<text text-anchor="middle" x="209" y="-7" font-family="Helvetica,sans-Serif" font-size="10.00">NamespaceDefImpl</text>
</a>
</g>
</g>
<!-- Node2 -->
<g id="Node000002" class="node">
<title>Node2</title>
<g id="a_Node000002"><a xlink:href="../../dd/d10/class_definition_mixin.html" target="_top" xlink:title=" ">
<polygon fill="white" stroke="#666666" points="289,-86 129,-86 129,-56 289,-56 289,-86"/>
<text text-anchor="start" x="137" y="-74" font-family="Helvetica,sans-Serif" font-size="10.00">DefinitionMixin&lt; Namespace</text>
<text text-anchor="middle" x="209" y="-63" font-family="Helvetica,sans-Serif" font-size="10.00">DefMutable &gt;</text>
</a>
</g>
</g>
<!-- Node2&#45;&gt;Node1 -->
<g id="edge1_Node000001_Node000002" class="edge">
<title>Node2&#45;&gt;Node1</title>
<g id="a_edge1_Node000001_Node000002"><a xlink:title=" ">
<path fill="none" stroke="#63b8ff" d="M209,-45.79C209,-36.36 209,-26.15 209,-19.16"/>
<polygon fill="#63b8ff" stroke="#63b8ff" points="205.5,-45.9 209,-55.9 212.5,-45.9 205.5,-45.9"/>
</a>
</g>
</g>
<!-- Node3 -->
<g id="Node000003" class="node">
<title>Node3</title>
<g id="a_Node000003"><a xlink:href="../../dd/dd5/class_namespace_def_mutable.html" target="_top" xlink:title=" ">
<polygon fill="white" stroke="#666666" points="199.5,-152 68.5,-152 68.5,-133 199.5,-133 199.5,-152"/>
<text text-anchor="middle" x="134" y="-140" font-family="Helvetica,sans-Serif" font-size="10.00">NamespaceDefMutable</text>
</a>
</g>
</g>
<!-- Node3&#45;&gt;Node2 -->
<g id="edge2_Node000002_Node000003" class="edge">
<title>Node3&#45;&gt;Node2</title>
<g id="a_edge2_Node000002_Node000003"><a xlink:title=" ">
<path fill="none" stroke="#63b8ff" d="M150.87,-125.87C163.73,-113.95 181.3,-97.67 193.74,-86.14"/>
<polygon fill="#63b8ff" stroke="#63b8ff" points="148.15,-123.61 143.2,-132.98 152.91,-128.75 148.15,-123.61"/>
</a>
</g>
</g>
<!-- Node4 -->
<g id="Node000004" class="node">
<title>Node4</title>
<g id="a_Node000004"><a xlink:href="../../d0/d46/class_definition_mutable.html" target="_top" xlink:title=" ">
<polygon fill="white" stroke="#666666" points="104,-208 0,-208 0,-189 104,-189 104,-208"/>
<text text-anchor="middle" x="52" y="-196" font-family="Helvetica,sans-Serif" font-size="10.00">DefinitionMutable</text>
</a>
</g>
</g>
<!-- Node4&#45;&gt;Node3 -->
<g id="edge3_Node000003_Node000004" class="edge">
<title>Node4&#45;&gt;Node3</title>
<g id="a_edge3_Node000003_Node000004"><a xlink:title=" ">
<path fill="none" stroke="#63b8ff" d="M73.83,-183.12C88.81,-173.26 108.2,-160.49 120.86,-152.15"/>
<polygon fill="#63b8ff" stroke="#63b8ff" points="71.6,-180.4 65.17,-188.82 75.45,-186.25 71.6,-180.4"/>
</a>
</g>
</g>
<!-- Node5 -->
<g id="Node000005" class="node">
<title>Node5</title>
<g id="a_Node000005"><a xlink:href="../../d0/d07/class_namespace_def.html" target="_top" xlink:title="An abstract interface of a namespace symbol.">
<polygon fill="white" stroke="#666666" points="214,-208 122,-208 122,-189 214,-189 214,-208"/>
<text text-anchor="middle" x="168" y="-196" font-family="Helvetica,sans-Serif" font-size="10.00">NamespaceDef</text>
</a>
</g>
</g>
<!-- Node5&#45;&gt;Node3 -->
<g id="edge4_Node000003_Node000005" class="edge">
<title>Node5&#45;&gt;Node3</title>
<g id="a_edge4_Node000003_Node000005"><a xlink:title=" ">
<path fill="none" stroke="#63b8ff" d="M157.02,-180.07C151.17,-170.77 144.23,-159.75 139.51,-152.25"/>
<polygon fill="#63b8ff" stroke="#63b8ff" points="154.1,-181.99 162.39,-188.58 160.02,-178.26 154.1,-181.99"/>
</a>
</g>
</g>
<!-- Node6 -->
<g id="Node000006" class="node">
<title>Node6</title>
<g id="a_Node000006"><a xlink:href="../../d5/dcc/class_definition.html" target="_top" xlink:title="The common base class of all entity definitions found in the sources.">
<polygon fill="white" stroke="#666666" points="200,-264 136,-264 136,-245 200,-245 200,-264"/>
<text text-anchor="middle" x="168" y="-252" font-family="Helvetica,sans-Serif" font-size="10.00">Definition</text>
</a>
</g>
</g>
<!-- Node6&#45;&gt;Node5 -->
<g id="edge5_Node000005_Node000006" class="edge">
<title>Node6&#45;&gt;Node5</title>
<g id="a_edge5_Node000005_Node000006"><a xlink:title=" ">
<path fill="none" stroke="#63b8ff" d="M168,-234.3C168,-225.41 168,-215.28 168,-208.25"/>
<polygon fill="#63b8ff" stroke="#63b8ff" points="164.5,-234.58 168,-244.58 171.5,-234.58 164.5,-234.58"/>
</a>
</g>
</g>
<!-- Node7 -->
<g id="Node000007" class="node">
<title>Node7</title>
<g id="a_Node000007"><a xlink:href="../../dd/d10/class_definition_mixin.html" target="_top" xlink:title=" ">
<polygon fill="white" stroke="#666666" points="354.5,-152 217.5,-152 217.5,-133 354.5,-133 354.5,-152"/>
<text text-anchor="middle" x="286" y="-140" font-family="Helvetica,sans-Serif" font-size="10.00">DefinitionMixin&lt; Base &gt;</text>
</a>
</g>
</g>
<!-- Node7&#45;&gt;Node2 -->
<g id="edge6_Node000002_Node000007" class="edge">
<title>Node7&#45;&gt;Node2</title>
<g id="a_edge6_Node000002_Node000007"><a xlink:title=" ">
<path fill="none" stroke="orange" stroke-dasharray="5,2" d="M269.06,-126.21C255.82,-114.26 237.56,-97.78 224.66,-86.14"/>
<polygon fill="orange" stroke="orange" points="266.79,-128.88 276.56,-132.98 271.48,-123.68 266.79,-128.88"/>
</a>
</g>
<text text-anchor="middle" x="325.5" y="-107" font-family="Helvetica,sans-Serif" font-size="10.00" fill="grey"> &lt; NamespaceDefMutable &gt;</text>
</g>
<!-- Node8 -->
<g id="Node000008" class="node">
<title>Node8</title>
<g id="a_Node000008"><a xlink:title=" ">
<polygon fill="white" stroke="#666666" points="306.5,-208 265.5,-208 265.5,-189 306.5,-189 306.5,-208"/>
<text text-anchor="middle" x="286" y="-196" font-family="Helvetica,sans-Serif" font-size="10.00">Base</text>
</a>
</g>
</g>
<!-- Node8&#45;&gt;Node7 -->
<g id="edge7_Node000007_Node000008" class="edge">
<title>Node8&#45;&gt;Node7</title>
<g id="a_edge7_Node000007_Node000008"><a xlink:title=" ">
<path fill="none" stroke="#63b8ff" d="M286,-178.3C286,-169.41 286,-159.28 286,-152.25"/>
<polygon fill="#63b8ff" stroke="#63b8ff" points="282.5,-178.58 286,-188.58 289.5,-178.58 282.5,-178.58"/>
</a>
</g>
</g>
</g>
</svg>
