<?xml version="1.0" encoding="UTF-8" standalone="no"?>
<!DOCTYPE svg PUBLIC "-//W3C//DTD SVG 1.1//EN"
 "http://www.w3.org/Graphics/SVG/1.1/DTD/svg11.dtd">
<!-- Generated by graphviz version 2.43.0 (0)
 -->
<!-- Title: src/membername.h Pages: 1 -->
<svg width="1108pt" height="467pt"
 viewBox="0.00 0.00 1108.09 467.00" xmlns="http://www.w3.org/2000/svg" xmlns:xlink="http://www.w3.org/1999/xlink">
<g id="graph0" class="graph" transform="scale(1 1) rotate(0) translate(4 463)">
<title>src/membername.h</title>
<!-- Node1 -->
<g id="Node000001" class="node">
<title>Node1</title>
<g id="a_Node000001"><a xlink:title=" ">
<polygon fill="#999999" stroke="#666666" points="534,-459 422,-459 422,-440 534,-440 534,-459"/>
<text text-anchor="middle" x="478" y="-447" font-family="Helvetica,sans-Serif" font-size="10.00">src/membername.h</text>
</a>
</g>
</g>
<!-- Node2 -->
<g id="Node000002" class="node">
<title>Node2</title>
<g id="a_Node000002"><a xlink:href="../../d4/d46/memberdef_8h.html" target="_top" xlink:title=" ">
<polygon fill="white" stroke="#666666" points="714,-404 632,-404 632,-385 714,-385 714,-404"/>
<text text-anchor="middle" x="673" y="-392" font-family="Helvetica,sans-Serif" font-size="10.00">memberdef.h</text>
</a>
</g>
</g>
<!-- Node1&#45;&gt;Node2 -->
<g id="edge1_Node000001_Node000002" class="edge">
<title>Node1&#45;&gt;Node2</title>
<g id="a_edge1_Node000001_Node000002"><a xlink:title=" ">
<path fill="none" stroke="#63b8ff" d="M509.33,-439.98C542.49,-430.97 595,-416.7 631.56,-406.76"/>
<polygon fill="#63b8ff" stroke="#63b8ff" points="632.69,-410.08 641.42,-404.08 630.86,-403.33 632.69,-410.08"/>
</a>
</g>
</g>
<!-- Node22 -->
<g id="Node000022" class="node">
<title>Node22</title>
<g id="a_Node000022"><a xlink:href="../../da/de1/linkedmap_8h.html" target="_top" xlink:title=" ">
<polygon fill="white" stroke="#666666" points="584.5,-184 507.5,-184 507.5,-165 584.5,-165 584.5,-184"/>
<text text-anchor="middle" x="546" y="-172" font-family="Helvetica,sans-Serif" font-size="10.00">linkedmap.h</text>
</a>
</g>
</g>
<!-- Node1&#45;&gt;Node22 -->
<g id="edge63_Node000001_Node000022" class="edge">
<title>Node1&#45;&gt;Node22</title>
<g id="a_edge63_Node000001_Node000022"><a xlink:title=" ">
<path fill="none" stroke="#63b8ff" d="M475.26,-439.74C469.48,-419.9 457.32,-370.17 467,-330 479.94,-276.29 514.88,-220.25 533.66,-192.78"/>
<polygon fill="#63b8ff" stroke="#63b8ff" points="536.72,-194.51 539.56,-184.3 530.98,-190.51 536.72,-194.51"/>
</a>
</g>
</g>
<!-- Node3 -->
<g id="Node000003" class="node">
<title>Node3</title>
<g id="a_Node000003"><a xlink:title=" ">
<polygon fill="#e0e0e0" stroke="#999999" points="744.5,-129 697.5,-129 697.5,-110 744.5,-110 744.5,-129"/>
<text text-anchor="middle" x="721" y="-117" font-family="Helvetica,sans-Serif" font-size="10.00">vector</text>
</a>
</g>
</g>
<!-- Node2&#45;&gt;Node3 -->
<g id="edge2_Node000002_Node000003" class="edge">
<title>Node2&#45;&gt;Node3</title>
<g id="a_edge2_Node000002_Node000003"><a xlink:title=" ">
<path fill="none" stroke="#63b8ff" d="M714.17,-389.64C789.64,-379.99 947.41,-347.16 1002,-239 1033.59,-176.41 946.61,-183.96 897,-165 871.18,-155.13 798.09,-137.89 754.65,-128.02"/>
<polygon fill="#63b8ff" stroke="#63b8ff" points="755.34,-124.58 744.81,-125.79 753.79,-131.41 755.34,-124.58"/>
</a>
</g>
</g>
<!-- Node4 -->
<g id="Node000004" class="node">
<title>Node4</title>
<g id="a_Node000004"><a xlink:title=" ">
<polygon fill="#e0e0e0" stroke="#999999" points="406,-129 348,-129 348,-110 406,-110 406,-129"/>
<text text-anchor="middle" x="377" y="-117" font-family="Helvetica,sans-Serif" font-size="10.00">memory</text>
</a>
</g>
</g>
<!-- Node2&#45;&gt;Node4 -->
<g id="edge3_Node000002_Node000004" class="edge">
<title>Node2&#45;&gt;Node4</title>
<g id="a_edge3_Node000002_Node000004"><a xlink:title=" ">
<path fill="none" stroke="#63b8ff" d="M631.57,-389.1C578.84,-382.75 491.62,-369.47 467,-349 400.8,-293.94 383.04,-183.55 378.49,-139.39"/>
<polygon fill="#63b8ff" stroke="#63b8ff" points="381.95,-138.87 377.56,-129.23 374.98,-139.5 381.95,-138.87"/>
</a>
</g>
</g>
<!-- Node5 -->
<g id="Node000005" class="node">
<title>Node5</title>
<g id="a_Node000005"><a xlink:title=" ">
<polygon fill="#e0e0e0" stroke="#999999" points="532,-349 476,-349 476,-330 532,-330 532,-349"/>
<text text-anchor="middle" x="504" y="-337" font-family="Helvetica,sans-Serif" font-size="10.00">optional</text>
</a>
</g>
</g>
<!-- Node2&#45;&gt;Node5 -->
<g id="edge4_Node000002_Node000005" class="edge">
<title>Node2&#45;&gt;Node5</title>
<g id="a_edge4_Node000002_Node000005"><a xlink:title=" ">
<path fill="none" stroke="#63b8ff" d="M645.85,-384.98C617.47,-376.09 572.77,-362.07 541.14,-352.15"/>
<polygon fill="#63b8ff" stroke="#63b8ff" points="541.95,-348.73 531.37,-349.08 539.86,-355.41 541.95,-348.73"/>
</a>
</g>
</g>
<!-- Node6 -->
<g id="Node000006" class="node">
<title>Node6</title>
<g id="a_Node000006"><a xlink:title=" ">
<polygon fill="#e0e0e0" stroke="#999999" points="622,-349 550,-349 550,-330 622,-330 622,-349"/>
<text text-anchor="middle" x="586" y="-337" font-family="Helvetica,sans-Serif" font-size="10.00">sys/types.h</text>
</a>
</g>
</g>
<!-- Node2&#45;&gt;Node6 -->
<g id="edge5_Node000002_Node000006" class="edge">
<title>Node2&#45;&gt;Node6</title>
<g id="a_edge5_Node000002_Node000006"><a xlink:title=" ">
<path fill="none" stroke="#63b8ff" d="M659.02,-384.98C645.53,-376.77 624.87,-364.18 608.96,-354.49"/>
<polygon fill="#63b8ff" stroke="#63b8ff" points="610.59,-351.38 600.23,-349.17 606.95,-357.36 610.59,-351.38"/>
</a>
</g>
</g>
<!-- Node7 -->
<g id="Node000007" class="node">
<title>Node7</title>
<g id="a_Node000007"><a xlink:href="../../d9/d49/types_8h.html" target="_top" xlink:title="This file contains a number of basic enums and types.">
<polygon fill="white" stroke="#666666" points="896.5,-239 843.5,-239 843.5,-220 896.5,-220 896.5,-239"/>
<text text-anchor="middle" x="870" y="-227" font-family="Helvetica,sans-Serif" font-size="10.00">types.h</text>
</a>
</g>
</g>
<!-- Node2&#45;&gt;Node7 -->
<g id="edge6_Node000002_Node000007" class="edge">
<title>Node2&#45;&gt;Node7</title>
<g id="a_edge6_Node000002_Node000007"><a xlink:title=" ">
<path fill="none" stroke="#63b8ff" d="M708.79,-384.98C752.08,-372.68 823.65,-345.54 860,-294 869.14,-281.03 871.22,-262.88 871.25,-249.3"/>
<polygon fill="#63b8ff" stroke="#63b8ff" points="874.74,-249.07 870.91,-239.19 867.75,-249.3 874.74,-249.07"/>
</a>
</g>
</g>
<!-- Node19 -->
<g id="Node000019" class="node">
<title>Node19</title>
<g id="a_Node000019"><a xlink:href="../../df/da1/definition_8h.html" target="_top" xlink:title=" ">
<polygon fill="white" stroke="#666666" points="850.5,-294 779.5,-294 779.5,-275 850.5,-275 850.5,-294"/>
<text text-anchor="middle" x="815" y="-282" font-family="Helvetica,sans-Serif" font-size="10.00">definition.h</text>
</a>
</g>
</g>
<!-- Node2&#45;&gt;Node19 -->
<g id="edge20_Node000002_Node000019" class="edge">
<title>Node2&#45;&gt;Node19</title>
<g id="a_edge20_Node000002_Node000019"><a xlink:title=" ">
<path fill="none" stroke="#63b8ff" d="M684.62,-384.66C708.98,-366.14 765.59,-323.08 795.57,-300.28"/>
<polygon fill="#63b8ff" stroke="#63b8ff" points="797.78,-303 803.62,-294.16 793.54,-297.43 797.78,-303"/>
</a>
</g>
</g>
<!-- Node24 -->
<g id="Node000024" class="node">
<title>Node24</title>
<g id="a_Node000024"><a xlink:href="../../df/d9b/arguments_8h.html" target="_top" xlink:title=" ">
<polygon fill="white" stroke="#666666" points="993,-239 915,-239 915,-220 993,-220 993,-239"/>
<text text-anchor="middle" x="954" y="-227" font-family="Helvetica,sans-Serif" font-size="10.00">arguments.h</text>
</a>
</g>
</g>
<!-- Node2&#45;&gt;Node24 -->
<g id="edge38_Node000002_Node000024" class="edge">
<title>Node2&#45;&gt;Node24</title>
<g id="a_edge38_Node000002_Node000024"><a xlink:title=" ">
<path fill="none" stroke="#63b8ff" d="M714.14,-386.31C745.79,-379.66 789.89,-367.89 825,-349 874.33,-322.47 919.45,-272.77 940.88,-246.98"/>
<polygon fill="#63b8ff" stroke="#63b8ff" points="943.61,-249.18 947.22,-239.22 938.18,-244.75 943.61,-249.18"/>
</a>
</g>
</g>
<!-- Node25 -->
<g id="Node000025" class="node">
<title>Node25</title>
<g id="a_Node000025"><a xlink:href="../../d1/da6/classdef_8h.html" target="_top" xlink:title=" ">
<polygon fill="white" stroke="#666666" points="705.5,-349 640.5,-349 640.5,-330 705.5,-330 705.5,-349"/>
<text text-anchor="middle" x="673" y="-337" font-family="Helvetica,sans-Serif" font-size="10.00">classdef.h</text>
</a>
</g>
</g>
<!-- Node2&#45;&gt;Node25 -->
<g id="edge41_Node000002_Node000025" class="edge">
<title>Node2&#45;&gt;Node25</title>
<g id="a_edge41_Node000002_Node000025"><a xlink:title=" ">
<path fill="none" stroke="#63b8ff" d="M673,-384.75C673,-377.8 673,-367.85 673,-359.13"/>
<polygon fill="#63b8ff" stroke="#63b8ff" points="676.5,-359.09 673,-349.09 669.5,-359.09 676.5,-359.09"/>
</a>
</g>
</g>
<!-- Node8 -->
<g id="Node000008" class="node">
<title>Node8</title>
<g id="a_Node000008"><a xlink:href="../../d7/d5c/qcstring_8h.html" target="_top" xlink:title=" ">
<polygon fill="white" stroke="#666666" points="833.5,-129 768.5,-129 768.5,-110 833.5,-110 833.5,-129"/>
<text text-anchor="middle" x="801" y="-117" font-family="Helvetica,sans-Serif" font-size="10.00">qcstring.h</text>
</a>
</g>
</g>
<!-- Node7&#45;&gt;Node8 -->
<g id="edge7_Node000007_Node000008" class="edge">
<title>Node7&#45;&gt;Node8</title>
<g id="a_edge7_Node000007_Node000008"><a xlink:title=" ">
<path fill="none" stroke="#63b8ff" d="M872.32,-219.63C875.18,-206.71 878.58,-182.38 869,-165 861.31,-151.04 847.17,-140.74 833.77,-133.58"/>
<polygon fill="#63b8ff" stroke="#63b8ff" points="835.22,-130.39 824.7,-129.13 832.13,-136.68 835.22,-130.39"/>
</a>
</g>
</g>
<!-- Node9 -->
<g id="Node000009" class="node">
<title>Node9</title>
<g id="a_Node000009"><a xlink:title=" ">
<polygon fill="#e0e0e0" stroke="#999999" points="621,-19 577,-19 577,0 621,0 621,-19"/>
<text text-anchor="middle" x="599" y="-7" font-family="Helvetica,sans-Serif" font-size="10.00">string</text>
</a>
</g>
</g>
<!-- Node8&#45;&gt;Node9 -->
<g id="edge8_Node000008_Node000009" class="edge">
<title>Node8&#45;&gt;Node9</title>
<g id="a_edge8_Node000008_Node000009"><a xlink:title=" ">
<path fill="none" stroke="#63b8ff" d="M791.59,-109.64C777.01,-96.29 747.65,-70.91 719,-55 690.66,-39.26 655.65,-27.01 630.77,-19.38"/>
<polygon fill="#63b8ff" stroke="#63b8ff" points="631.69,-16 621.11,-16.49 629.69,-22.71 631.69,-16"/>
</a>
</g>
</g>
<!-- Node10 -->
<g id="Node000010" class="node">
<title>Node10</title>
<g id="a_Node000010"><a xlink:title=" ">
<polygon fill="#e0e0e0" stroke="#999999" points="560.5,-74 487.5,-74 487.5,-55 560.5,-55 560.5,-74"/>
<text text-anchor="middle" x="524" y="-62" font-family="Helvetica,sans-Serif" font-size="10.00">string_view</text>
</a>
</g>
</g>
<!-- Node8&#45;&gt;Node10 -->
<g id="edge9_Node000008_Node000010" class="edge">
<title>Node8&#45;&gt;Node10</title>
<g id="a_edge9_Node000008_Node000010"><a xlink:title=" ">
<path fill="none" stroke="#63b8ff" d="M768.41,-112.26C719.54,-102.91 627.02,-85.21 570.9,-74.47"/>
<polygon fill="#63b8ff" stroke="#63b8ff" points="571.34,-70.99 560.86,-72.55 570.02,-77.87 571.34,-70.99"/>
</a>
</g>
</g>
<!-- Node11 -->
<g id="Node000011" class="node">
<title>Node11</title>
<g id="a_Node000011"><a xlink:title=" ">
<polygon fill="#e0e0e0" stroke="#999999" points="710,-74 646,-74 646,-55 710,-55 710,-74"/>
<text text-anchor="middle" x="678" y="-62" font-family="Helvetica,sans-Serif" font-size="10.00">algorithm</text>
</a>
</g>
</g>
<!-- Node8&#45;&gt;Node11 -->
<g id="edge10_Node000008_Node000011" class="edge">
<title>Node8&#45;&gt;Node11</title>
<g id="a_edge10_Node000008_Node000011"><a xlink:title=" ">
<path fill="none" stroke="#63b8ff" d="M781.24,-109.98C761.27,-101.38 730.2,-87.99 707.35,-78.15"/>
<polygon fill="#63b8ff" stroke="#63b8ff" points="708.69,-74.91 698.12,-74.17 705.92,-81.34 708.69,-74.91"/>
</a>
</g>
</g>
<!-- Node12 -->
<g id="Node000012" class="node">
<title>Node12</title>
<g id="a_Node000012"><a xlink:title=" ">
<polygon fill="#e0e0e0" stroke="#999999" points="627.5,-74 578.5,-74 578.5,-55 627.5,-55 627.5,-74"/>
<text text-anchor="middle" x="603" y="-62" font-family="Helvetica,sans-Serif" font-size="10.00">cctype</text>
</a>
</g>
</g>
<!-- Node8&#45;&gt;Node12 -->
<g id="edge11_Node000008_Node000012" class="edge">
<title>Node8&#45;&gt;Node12</title>
<g id="a_edge11_Node000008_Node000012"><a xlink:title=" ">
<path fill="none" stroke="#63b8ff" d="M769.19,-109.98C733.12,-100.33 674.51,-84.64 637.4,-74.71"/>
<polygon fill="#63b8ff" stroke="#63b8ff" points="638.11,-71.27 627.54,-72.07 636.3,-78.04 638.11,-71.27"/>
</a>
</g>
</g>
<!-- Node13 -->
<g id="Node000013" class="node">
<title>Node13</title>
<g id="a_Node000013"><a xlink:title=" ">
<polygon fill="#e0e0e0" stroke="#999999" points="1022,-74 972,-74 972,-55 1022,-55 1022,-74"/>
<text text-anchor="middle" x="997" y="-62" font-family="Helvetica,sans-Serif" font-size="10.00">cstring</text>
</a>
</g>
</g>
<!-- Node8&#45;&gt;Node13 -->
<g id="edge12_Node000008_Node000013" class="edge">
<title>Node8&#45;&gt;Node13</title>
<g id="a_edge12_Node000008_Node000013"><a xlink:title=" ">
<path fill="none" stroke="#63b8ff" d="M832.49,-109.98C867.9,-100.41 925.25,-84.9 962.03,-74.96"/>
<polygon fill="#63b8ff" stroke="#63b8ff" points="963.08,-78.3 971.82,-72.31 961.25,-71.54 963.08,-78.3"/>
</a>
</g>
</g>
<!-- Node14 -->
<g id="Node000014" class="node">
<title>Node14</title>
<g id="a_Node000014"><a xlink:title=" ">
<polygon fill="#e0e0e0" stroke="#999999" points="1086,-74 1040,-74 1040,-55 1086,-55 1086,-74"/>
<text text-anchor="middle" x="1063" y="-62" font-family="Helvetica,sans-Serif" font-size="10.00">cstdio</text>
</a>
</g>
</g>
<!-- Node8&#45;&gt;Node14 -->
<g id="edge13_Node000008_Node000014" class="edge">
<title>Node8&#45;&gt;Node14</title>
<g id="a_edge13_Node000008_Node000014"><a xlink:title=" ">
<path fill="none" stroke="#63b8ff" d="M833.52,-112.93C876.29,-105.45 953.98,-91.32 1029.78,-74.15"/>
<polygon fill="#63b8ff" stroke="#63b8ff" points="1031.01,-77.46 1039.97,-71.82 1029.45,-70.64 1031.01,-77.46"/>
</a>
</g>
</g>
<!-- Node15 -->
<g id="Node000015" class="node">
<title>Node15</title>
<g id="a_Node000015"><a xlink:title=" ">
<polygon fill="#e0e0e0" stroke="#999999" points="815.5,-74 766.5,-74 766.5,-55 815.5,-55 815.5,-74"/>
<text text-anchor="middle" x="791" y="-62" font-family="Helvetica,sans-Serif" font-size="10.00">cstdlib</text>
</a>
</g>
</g>
<!-- Node8&#45;&gt;Node15 -->
<g id="edge14_Node000008_Node000015" class="edge">
<title>Node8&#45;&gt;Node15</title>
<g id="a_edge14_Node000008_Node000015"><a xlink:title=" ">
<path fill="none" stroke="#63b8ff" d="M799.35,-109.75C798.04,-102.8 796.16,-92.85 794.52,-84.13"/>
<polygon fill="#63b8ff" stroke="#63b8ff" points="797.91,-83.27 792.62,-74.09 791.04,-84.56 797.91,-83.27"/>
</a>
</g>
</g>
<!-- Node16 -->
<g id="Node000016" class="node">
<title>Node16</title>
<g id="a_Node000016"><a xlink:title=" ">
<polygon fill="#e0e0e0" stroke="#999999" points="1047,-19 997,-19 997,0 1047,0 1047,-19"/>
<text text-anchor="middle" x="1022" y="-7" font-family="Helvetica,sans-Serif" font-size="10.00">cstdint</text>
</a>
</g>
</g>
<!-- Node8&#45;&gt;Node16 -->
<g id="edge15_Node000008_Node000016" class="edge">
<title>Node8&#45;&gt;Node16</title>
<g id="a_edge15_Node000008_Node000016"><a xlink:title=" ">
<path fill="none" stroke="#63b8ff" d="M833.52,-118.65C902.83,-118.22 1061.55,-112.89 1095,-74 1111.97,-54.26 1081.65,-35.15 1055.07,-23.14"/>
<polygon fill="#63b8ff" stroke="#63b8ff" points="1056.11,-19.78 1045.54,-19.05 1053.35,-26.21 1056.11,-19.78"/>
</a>
</g>
</g>
<!-- Node17 -->
<g id="Node000017" class="node">
<title>Node17</title>
<g id="a_Node000017"><a xlink:title=" ">
<polygon fill="#e0e0e0" stroke="#999999" points="890.5,-74 833.5,-74 833.5,-55 890.5,-55 890.5,-74"/>
<text text-anchor="middle" x="862" y="-62" font-family="Helvetica,sans-Serif" font-size="10.00">ostream</text>
</a>
</g>
</g>
<!-- Node8&#45;&gt;Node17 -->
<g id="edge16_Node000008_Node000017" class="edge">
<title>Node8&#45;&gt;Node17</title>
<g id="a_edge16_Node000008_Node000017"><a xlink:title=" ">
<path fill="none" stroke="#63b8ff" d="M810.8,-109.98C819.82,-102.15 833.41,-90.34 844.32,-80.86"/>
<polygon fill="#63b8ff" stroke="#63b8ff" points="846.77,-83.37 852.02,-74.17 842.18,-78.09 846.77,-83.37"/>
</a>
</g>
</g>
<!-- Node18 -->
<g id="Node000018" class="node">
<title>Node18</title>
<g id="a_Node000018"><a xlink:href="../../db/d7c/utf8_8h.html" target="_top" xlink:title="Various UTF8 related helper functions.">
<polygon fill="white" stroke="#666666" points="953.5,-74 908.5,-74 908.5,-55 953.5,-55 953.5,-74"/>
<text text-anchor="middle" x="931" y="-62" font-family="Helvetica,sans-Serif" font-size="10.00">utf8.h</text>
</a>
</g>
</g>
<!-- Node8&#45;&gt;Node18 -->
<g id="edge17_Node000008_Node000018" class="edge">
<title>Node8&#45;&gt;Node18</title>
<g id="a_edge17_Node000008_Node000018"><a xlink:title=" ">
<path fill="none" stroke="#63b8ff" d="M821.89,-109.98C843.08,-101.34 876.13,-87.87 900.3,-78.02"/>
<polygon fill="#63b8ff" stroke="#63b8ff" points="901.79,-81.19 909.73,-74.17 899.15,-74.7 901.79,-81.19"/>
</a>
</g>
</g>
<!-- Node18&#45;&gt;Node9 -->
<g id="edge19_Node000018_Node000009" class="edge">
<title>Node18&#45;&gt;Node9</title>
<g id="a_edge19_Node000018_Node000009"><a xlink:title=" ">
<path fill="none" stroke="#63b8ff" d="M908.39,-56.96C905.58,-56.25 902.73,-55.57 900,-55 803.07,-34.62 686.66,-20.22 631.3,-13.98"/>
<polygon fill="#63b8ff" stroke="#63b8ff" points="631.39,-10.47 621.07,-12.84 630.62,-17.42 631.39,-10.47"/>
</a>
</g>
</g>
<!-- Node18&#45;&gt;Node16 -->
<g id="edge18_Node000018_Node000016" class="edge">
<title>Node18&#45;&gt;Node16</title>
<g id="a_edge18_Node000018_Node000016"><a xlink:title=" ">
<path fill="none" stroke="#63b8ff" d="M945.62,-54.98C959.86,-46.69 981.75,-33.94 998.45,-24.22"/>
<polygon fill="#63b8ff" stroke="#63b8ff" points="1000.23,-27.23 1007.11,-19.17 996.71,-21.18 1000.23,-27.23"/>
</a>
</g>
</g>
<!-- Node19&#45;&gt;Node3 -->
<g id="edge21_Node000019_Node000003" class="edge">
<title>Node19&#45;&gt;Node3</title>
<g id="a_edge21_Node000019_Node000003"><a xlink:title=" ">
<path fill="none" stroke="#63b8ff" d="M818.11,-274.81C826.54,-250.6 848.34,-183.01 836,-165 826.43,-151.04 784.81,-137.35 754.38,-128.92"/>
<polygon fill="#63b8ff" stroke="#63b8ff" points="755.12,-125.49 744.55,-126.27 753.3,-132.25 755.12,-125.49"/>
</a>
</g>
</g>
<!-- Node19&#45;&gt;Node7 -->
<g id="edge22_Node000019_Node000007" class="edge">
<title>Node19&#45;&gt;Node7</title>
<g id="a_edge22_Node000019_Node000007"><a xlink:title=" ">
<path fill="none" stroke="#63b8ff" d="M824.08,-274.75C832.09,-267.03 843.96,-255.6 853.62,-246.28"/>
<polygon fill="#63b8ff" stroke="#63b8ff" points="856.31,-248.55 861.09,-239.09 851.46,-243.51 856.31,-248.55"/>
</a>
</g>
</g>
<!-- Node20 -->
<g id="Node000020" class="node">
<title>Node20</title>
<g id="a_Node000020"><a xlink:href="../../d1/d02/reflist_8h.html" target="_top" xlink:title=" ">
<polygon fill="white" stroke="#666666" points="694.5,-239 641.5,-239 641.5,-220 694.5,-220 694.5,-239"/>
<text text-anchor="middle" x="668" y="-227" font-family="Helvetica,sans-Serif" font-size="10.00">reflist.h</text>
</a>
</g>
</g>
<!-- Node19&#45;&gt;Node20 -->
<g id="edge23_Node000019_Node000020" class="edge">
<title>Node19&#45;&gt;Node20</title>
<g id="a_edge23_Node000019_Node000020"><a xlink:title=" ">
<path fill="none" stroke="#63b8ff" d="M791.38,-274.98C767.1,-266.23 729.05,-252.51 701.63,-242.62"/>
<polygon fill="#63b8ff" stroke="#63b8ff" points="702.64,-239.27 692.05,-239.17 700.27,-245.85 702.64,-239.27"/>
</a>
</g>
</g>
<!-- Node23 -->
<g id="Node000023" class="node">
<title>Node23</title>
<g id="a_Node000023"><a xlink:href="../../d7/dfc/construct_8h.html" target="_top" xlink:title=" ">
<polygon fill="white" stroke="#666666" points="826.5,-184 755.5,-184 755.5,-165 826.5,-165 826.5,-184"/>
<text text-anchor="middle" x="791" y="-172" font-family="Helvetica,sans-Serif" font-size="10.00">construct.h</text>
</a>
</g>
</g>
<!-- Node19&#45;&gt;Node23 -->
<g id="edge37_Node000019_Node000023" class="edge">
<title>Node19&#45;&gt;Node23</title>
<g id="a_edge37_Node000019_Node000023"><a xlink:title=" ">
<path fill="none" stroke="#63b8ff" d="M811.82,-274.74C808.69,-265.84 803.96,-251.62 801,-239 797.53,-224.19 794.92,-207.16 793.24,-194.46"/>
<polygon fill="#63b8ff" stroke="#63b8ff" points="796.67,-193.7 791.96,-184.21 789.72,-194.56 796.67,-193.7"/>
</a>
</g>
</g>
<!-- Node20&#45;&gt;Node3 -->
<g id="edge24_Node000020_Node000003" class="edge">
<title>Node20&#45;&gt;Node3</title>
<g id="a_edge24_Node000020_Node000003"><a xlink:title=" ">
<path fill="none" stroke="#63b8ff" d="M667.16,-219.77C666.32,-207.04 666.21,-182.93 675,-165 680.69,-153.39 690.72,-143.14 699.96,-135.41"/>
<polygon fill="#63b8ff" stroke="#63b8ff" points="702.36,-137.98 708.07,-129.06 698.04,-132.46 702.36,-137.98"/>
</a>
</g>
</g>
<!-- Node20&#45;&gt;Node4 -->
<g id="edge26_Node000020_Node000004" class="edge">
<title>Node20&#45;&gt;Node4</title>
<g id="a_edge26_Node000020_Node000004"><a xlink:title=" ">
<path fill="none" stroke="#63b8ff" d="M641.48,-224.88C604.49,-219.23 535.77,-206.57 481,-184 449.62,-171.07 416.73,-149.41 396.54,-135.04"/>
<polygon fill="#63b8ff" stroke="#63b8ff" points="398.36,-132.03 388.21,-129 394.26,-137.7 398.36,-132.03"/>
</a>
</g>
</g>
<!-- Node20&#45;&gt;Node8 -->
<g id="edge27_Node000020_Node000008" class="edge">
<title>Node20&#45;&gt;Node8</title>
<g id="a_edge27_Node000020_Node000008"><a xlink:title=" ">
<path fill="none" stroke="#63b8ff" d="M678.59,-219.86C693.58,-207.64 721.87,-184.59 746,-165 758.19,-155.11 771.92,-144 782.61,-135.35"/>
<polygon fill="#63b8ff" stroke="#63b8ff" points="784.87,-138.03 790.45,-129.02 780.47,-132.58 784.87,-138.03"/>
</a>
</g>
</g>
<!-- Node21 -->
<g id="Node000021" class="node">
<title>Node21</title>
<g id="a_Node000021"><a xlink:title=" ">
<polygon fill="#e0e0e0" stroke="#999999" points="517.5,-129 424.5,-129 424.5,-110 517.5,-110 517.5,-129"/>
<text text-anchor="middle" x="471" y="-117" font-family="Helvetica,sans-Serif" font-size="10.00">unordered_map</text>
</a>
</g>
</g>
<!-- Node20&#45;&gt;Node21 -->
<g id="edge25_Node000020_Node000021" class="edge">
<title>Node20&#45;&gt;Node21</title>
<g id="a_edge25_Node000020_Node000021"><a xlink:title=" ">
<path fill="none" stroke="#63b8ff" d="M641.41,-228.5C604.86,-227.1 538.98,-219.4 498,-184 484.84,-172.63 477.92,-153.73 474.4,-139.5"/>
<polygon fill="#63b8ff" stroke="#63b8ff" points="477.74,-138.38 472.25,-129.32 470.89,-139.83 477.74,-138.38"/>
</a>
</g>
</g>
<!-- Node20&#45;&gt;Node22 -->
<g id="edge28_Node000020_Node000022" class="edge">
<title>Node20&#45;&gt;Node22</title>
<g id="a_edge28_Node000020_Node000022"><a xlink:title=" ">
<path fill="none" stroke="#63b8ff" d="M648.4,-219.98C628.68,-211.42 598.05,-198.11 575.42,-188.28"/>
<polygon fill="#63b8ff" stroke="#63b8ff" points="576.52,-184.94 565.96,-184.17 573.74,-191.37 576.52,-184.94"/>
</a>
</g>
</g>
<!-- Node20&#45;&gt;Node23 -->
<g id="edge36_Node000020_Node000023" class="edge">
<title>Node20&#45;&gt;Node23</title>
<g id="a_edge36_Node000020_Node000023"><a xlink:title=" ">
<path fill="none" stroke="#63b8ff" d="M687.76,-219.98C707.73,-211.38 738.8,-197.99 761.65,-188.15"/>
<polygon fill="#63b8ff" stroke="#63b8ff" points="763.08,-191.34 770.88,-184.17 760.31,-184.91 763.08,-191.34"/>
</a>
</g>
</g>
<!-- Node22&#45;&gt;Node3 -->
<g id="edge30_Node000022_Node000003" class="edge">
<title>Node22&#45;&gt;Node3</title>
<g id="a_edge30_Node000022_Node000003"><a xlink:title=" ">
<path fill="none" stroke="#63b8ff" d="M574.12,-164.98C605.11,-155.6 654.93,-140.51 687.82,-130.55"/>
<polygon fill="#63b8ff" stroke="#63b8ff" points="688.89,-133.88 697.44,-127.63 686.86,-127.18 688.89,-133.88"/>
</a>
</g>
</g>
<!-- Node22&#45;&gt;Node4 -->
<g id="edge31_Node000022_Node000004" class="edge">
<title>Node22&#45;&gt;Node4</title>
<g id="a_edge31_Node000022_Node000004"><a xlink:title=" ">
<path fill="none" stroke="#63b8ff" d="M518.85,-164.98C490.47,-156.09 445.77,-142.07 414.14,-132.15"/>
<polygon fill="#63b8ff" stroke="#63b8ff" points="414.95,-128.73 404.37,-129.08 412.86,-135.41 414.95,-128.73"/>
</a>
</g>
</g>
<!-- Node22&#45;&gt;Node8 -->
<g id="edge35_Node000022_Node000008" class="edge">
<title>Node22&#45;&gt;Node8</title>
<g id="a_edge35_Node000022_Node000008"><a xlink:title=" ">
<path fill="none" stroke="#63b8ff" d="M584.73,-165.45C631.56,-155.72 710.1,-139.39 758.54,-129.33"/>
<polygon fill="#63b8ff" stroke="#63b8ff" points="759.32,-132.74 768.4,-127.28 757.89,-125.88 759.32,-132.74"/>
</a>
</g>
</g>
<!-- Node22&#45;&gt;Node9 -->
<g id="edge32_Node000022_Node000009" class="edge">
<title>Node22&#45;&gt;Node9</title>
<g id="a_edge32_Node000022_Node000009"><a xlink:title=" ">
<path fill="none" stroke="#63b8ff" d="M545,-164.95C543.14,-152.02 538.16,-127.17 526,-110 507.25,-83.52 459.44,-81.61 478,-55 497.85,-26.55 538.01,-16.24 566.61,-12.53"/>
<polygon fill="#63b8ff" stroke="#63b8ff" points="567.01,-16.01 576.57,-11.44 566.25,-9.05 567.01,-16.01"/>
</a>
</g>
</g>
<!-- Node22&#45;&gt;Node11 -->
<g id="edge33_Node000022_Node000011" class="edge">
<title>Node22&#45;&gt;Node11</title>
<g id="a_edge33_Node000022_Node000011"><a xlink:title=" ">
<path fill="none" stroke="#63b8ff" d="M556.8,-164.66C579.35,-146.22 631.62,-103.45 659.58,-80.57"/>
<polygon fill="#63b8ff" stroke="#63b8ff" points="661.89,-83.2 667.42,-74.16 657.46,-77.78 661.89,-83.2"/>
</a>
</g>
</g>
<!-- Node22&#45;&gt;Node12 -->
<g id="edge34_Node000022_Node000012" class="edge">
<title>Node22&#45;&gt;Node12</title>
<g id="a_edge34_Node000022_Node000012"><a xlink:title=" ">
<path fill="none" stroke="#63b8ff" d="M550.66,-164.66C560.06,-146.85 581.43,-106.37 593.76,-83.01"/>
<polygon fill="#63b8ff" stroke="#63b8ff" points="596.86,-84.64 598.43,-74.16 590.67,-81.37 596.86,-84.64"/>
</a>
</g>
</g>
<!-- Node22&#45;&gt;Node21 -->
<g id="edge29_Node000022_Node000021" class="edge">
<title>Node22&#45;&gt;Node21</title>
<g id="a_edge29_Node000022_Node000021"><a xlink:title=" ">
<path fill="none" stroke="#63b8ff" d="M533.95,-164.98C522.54,-156.92 505.17,-144.65 491.57,-135.03"/>
<polygon fill="#63b8ff" stroke="#63b8ff" points="493.46,-132.08 483.27,-129.17 489.42,-137.8 493.46,-132.08"/>
</a>
</g>
</g>
<!-- Node24&#45;&gt;Node3 -->
<g id="edge39_Node000024_Node000003" class="edge">
<title>Node24&#45;&gt;Node3</title>
<g id="a_edge39_Node000024_Node000003"><a xlink:title=" ">
<path fill="none" stroke="#63b8ff" d="M944.79,-219.88C929.94,-206.38 899.27,-180.25 869,-165 848.91,-154.87 791.61,-138.91 754.49,-129.11"/>
<polygon fill="#63b8ff" stroke="#63b8ff" points="755.16,-125.67 744.6,-126.52 753.38,-132.44 755.16,-125.67"/>
</a>
</g>
</g>
<!-- Node24&#45;&gt;Node8 -->
<g id="edge40_Node000024_Node000008" class="edge">
<title>Node24&#45;&gt;Node8</title>
<g id="a_edge40_Node000024_Node000008"><a xlink:title=" ">
<path fill="none" stroke="#63b8ff" d="M946.1,-219.94C933.86,-206.99 909.19,-182.11 885,-165 867.65,-152.73 846.51,-141.55 829.78,-133.46"/>
<polygon fill="#63b8ff" stroke="#63b8ff" points="831.03,-130.19 820.5,-129.07 828.04,-136.51 831.03,-130.19"/>
</a>
</g>
</g>
<!-- Node25&#45;&gt;Node3 -->
<g id="edge43_Node000025_Node000003" class="edge">
<title>Node25&#45;&gt;Node3</title>
<g id="a_edge43_Node000025_Node000003"><a xlink:title=" ">
<path fill="none" stroke="#63b8ff" d="M669.21,-329.89C664.26,-317.3 657.1,-293.37 665,-275 674.19,-253.63 692.22,-259.62 703,-239 719.81,-206.84 722.07,-163.51 721.8,-139.15"/>
<polygon fill="#63b8ff" stroke="#63b8ff" points="725.3,-139.02 721.53,-129.12 718.3,-139.21 725.3,-139.02"/>
</a>
</g>
</g>
<!-- Node25&#45;&gt;Node4 -->
<g id="edge42_Node000025_Node000004" class="edge">
<title>Node25&#45;&gt;Node4</title>
<g id="a_edge42_Node000025_Node000004"><a xlink:title=" ">
<path fill="none" stroke="#63b8ff" d="M640.43,-331.8C600.09,-323.1 534.09,-307.44 513,-294 449.85,-253.74 403.78,-173.66 385.57,-138.15"/>
<polygon fill="#63b8ff" stroke="#63b8ff" points="388.61,-136.4 381.01,-129.02 382.35,-139.53 388.61,-136.4"/>
</a>
</g>
</g>
<!-- Node25&#45;&gt;Node19 -->
<g id="edge54_Node000025_Node000019" class="edge">
<title>Node25&#45;&gt;Node19</title>
<g id="a_edge54_Node000025_Node000019"><a xlink:title=" ">
<path fill="none" stroke="#63b8ff" d="M695.81,-329.98C719.17,-321.27 755.7,-307.63 782.17,-297.75"/>
<polygon fill="#63b8ff" stroke="#63b8ff" points="783.63,-300.95 791.77,-294.17 781.18,-294.39 783.63,-300.95"/>
</a>
</g>
</g>
<!-- Node25&#45;&gt;Node24 -->
<g id="edge55_Node000025_Node000024" class="edge">
<title>Node25&#45;&gt;Node24</title>
<g id="a_edge55_Node000025_Node000024"><a xlink:title=" ">
<path fill="none" stroke="#63b8ff" d="M705.56,-334.38C743.79,-328.74 808.52,-316.61 860,-294 888.67,-281.41 917.98,-259.97 936.08,-245.52"/>
<polygon fill="#63b8ff" stroke="#63b8ff" points="938.47,-248.09 944.02,-239.06 934.05,-242.66 938.47,-248.09"/>
</a>
</g>
</g>
<!-- Node26 -->
<g id="Node000026" class="node">
<title>Node26</title>
<g id="a_Node000026"><a xlink:title=" ">
<polygon fill="#e0e0e0" stroke="#999999" points="86,-129 0,-129 0,-110 86,-110 86,-129"/>
<text text-anchor="middle" x="43" y="-117" font-family="Helvetica,sans-Serif" font-size="10.00">unordered_set</text>
</a>
</g>
</g>
<!-- Node25&#45;&gt;Node26 -->
<g id="edge44_Node000025_Node000026" class="edge">
<title>Node25&#45;&gt;Node26</title>
<g id="a_edge44_Node000025_Node000026"><a xlink:title=" ">
<path fill="none" stroke="#63b8ff" d="M640.47,-331.73C637.28,-331.12 634.08,-330.53 631,-330 520.39,-310.86 487.95,-328.1 381,-294 253.8,-253.45 116.45,-168.56 64.52,-134.8"/>
<polygon fill="#63b8ff" stroke="#63b8ff" points="66.12,-131.66 55.84,-129.11 62.28,-137.52 66.12,-131.66"/>
</a>
</g>
</g>
<!-- Node27 -->
<g id="Node000027" class="node">
<title>Node27</title>
<g id="a_Node000027"><a xlink:href="../../d5/d75/containers_8h.html" target="_top" xlink:title=" ">
<polygon fill="white" stroke="#666666" points="260.5,-184 183.5,-184 183.5,-165 260.5,-165 260.5,-184"/>
<text text-anchor="middle" x="222" y="-172" font-family="Helvetica,sans-Serif" font-size="10.00">containers.h</text>
</a>
</g>
</g>
<!-- Node25&#45;&gt;Node27 -->
<g id="edge45_Node000025_Node000027" class="edge">
<title>Node25&#45;&gt;Node27</title>
<g id="a_edge45_Node000025_Node000027"><a xlink:title=" ">
<path fill="none" stroke="#63b8ff" d="M640.46,-331.83C637.26,-331.2 634.07,-330.58 631,-330 540.54,-312.87 513.5,-325.52 427,-294 354.31,-267.52 277.72,-215.94 242.23,-190.47"/>
<polygon fill="#63b8ff" stroke="#63b8ff" points="243.89,-187.34 233.74,-184.3 239.78,-193.01 243.89,-187.34"/>
</a>
</g>
</g>
<!-- Node31 -->
<g id="Node000031" class="node">
<title>Node31</title>
<g id="a_Node000031"><a xlink:href="../../d9/d11/membergroup_8h.html" target="_top" xlink:title=" ">
<polygon fill="white" stroke="#666666" points="617.5,-294 522.5,-294 522.5,-275 617.5,-275 617.5,-294"/>
<text text-anchor="middle" x="570" y="-282" font-family="Helvetica,sans-Serif" font-size="10.00">membergroup.h</text>
</a>
</g>
</g>
<!-- Node25&#45;&gt;Node31 -->
<g id="edge56_Node000025_Node000031" class="edge">
<title>Node25&#45;&gt;Node31</title>
<g id="a_edge56_Node000025_Node000031"><a xlink:title=" ">
<path fill="none" stroke="#63b8ff" d="M656.45,-329.98C640.11,-321.57 614.87,-308.59 595.87,-298.81"/>
<polygon fill="#63b8ff" stroke="#63b8ff" points="597.34,-295.63 586.85,-294.17 594.14,-301.86 597.34,-295.63"/>
</a>
</g>
</g>
<!-- Node32 -->
<g id="Node000032" class="node">
<title>Node32</title>
<g id="a_Node000032"><a xlink:title=" ">
<polygon fill="#e0e0e0" stroke="#999999" points="761.5,-294 674.5,-294 674.5,-275 761.5,-275 761.5,-294"/>
<text text-anchor="middle" x="718" y="-282" font-family="Helvetica,sans-Serif" font-size="10.00">configvalues.h</text>
</a>
</g>
</g>
<!-- Node25&#45;&gt;Node32 -->
<g id="edge62_Node000025_Node000032" class="edge">
<title>Node25&#45;&gt;Node32</title>
<g id="a_edge62_Node000025_Node000032"><a xlink:title=" ">
<path fill="none" stroke="#63b8ff" d="M680.43,-329.75C686.85,-322.18 696.31,-311.05 704.12,-301.84"/>
<polygon fill="#63b8ff" stroke="#63b8ff" points="706.9,-303.98 710.71,-294.09 701.57,-299.45 706.9,-303.98"/>
</a>
</g>
</g>
<!-- Node27&#45;&gt;Node3 -->
<g id="edge46_Node000027_Node000003" class="edge">
<title>Node27&#45;&gt;Node3</title>
<g id="a_edge46_Node000027_Node000003"><a xlink:title=" ">
<path fill="none" stroke="#63b8ff" d="M260.74,-169.39C355.58,-159.31 598.15,-133.55 687.39,-124.07"/>
<polygon fill="#63b8ff" stroke="#63b8ff" points="687.92,-127.53 697.5,-123 687.18,-120.57 687.92,-127.53"/>
</a>
</g>
</g>
<!-- Node27&#45;&gt;Node9 -->
<g id="edge47_Node000027_Node000009" class="edge">
<title>Node27&#45;&gt;Node9</title>
<g id="a_edge47_Node000027_Node000009"><a xlink:title=" ">
<path fill="none" stroke="#63b8ff" d="M224.17,-164.7C228.01,-150.96 237.32,-124.49 255,-110 349.29,-32.73 500.95,-15.45 566.78,-11.6"/>
<polygon fill="#63b8ff" stroke="#63b8ff" points="567.15,-15.09 576.96,-11.07 566.79,-8.1 567.15,-15.09"/>
</a>
</g>
</g>
<!-- Node27&#45;&gt;Node10 -->
<g id="edge48_Node000027_Node000010" class="edge">
<title>Node27&#45;&gt;Node10</title>
<g id="a_edge48_Node000027_Node000010"><a xlink:title=" ">
<path fill="none" stroke="#63b8ff" d="M227.57,-164.88C237.11,-150.89 257.97,-123.48 283,-110 344.68,-76.78 426.72,-67.88 477.41,-65.77"/>
<polygon fill="#63b8ff" stroke="#63b8ff" points="477.55,-69.26 487.42,-65.42 477.3,-62.27 477.55,-69.26"/>
</a>
</g>
</g>
<!-- Node27&#45;&gt;Node21 -->
<g id="edge52_Node000027_Node000021" class="edge">
<title>Node27&#45;&gt;Node21</title>
<g id="a_edge52_Node000027_Node000021"><a xlink:title=" ">
<path fill="none" stroke="#63b8ff" d="M260.63,-165.28C303.78,-156.09 373.74,-141.2 421.02,-131.14"/>
<polygon fill="#63b8ff" stroke="#63b8ff" points="421.99,-134.51 431.04,-129.01 420.53,-127.66 421.99,-134.51"/>
</a>
</g>
</g>
<!-- Node27&#45;&gt;Node26 -->
<g id="edge51_Node000027_Node000026" class="edge">
<title>Node27&#45;&gt;Node26</title>
<g id="a_edge51_Node000027_Node000026"><a xlink:title=" ">
<path fill="none" stroke="#63b8ff" d="M193.24,-164.98C163.06,-156.05 115.43,-141.94 81.9,-132.02"/>
<polygon fill="#63b8ff" stroke="#63b8ff" points="82.57,-128.57 71.98,-129.08 80.58,-135.28 82.57,-128.57"/>
</a>
</g>
</g>
<!-- Node28 -->
<g id="Node000028" class="node">
<title>Node28</title>
<g id="a_Node000028"><a xlink:title=" ">
<polygon fill="#e0e0e0" stroke="#999999" points="136,-129 104,-129 104,-110 136,-110 136,-129"/>
<text text-anchor="middle" x="120" y="-117" font-family="Helvetica,sans-Serif" font-size="10.00">set</text>
</a>
</g>
</g>
<!-- Node27&#45;&gt;Node28 -->
<g id="edge49_Node000027_Node000028" class="edge">
<title>Node27&#45;&gt;Node28</title>
<g id="a_edge49_Node000027_Node000028"><a xlink:title=" ">
<path fill="none" stroke="#63b8ff" d="M205.61,-164.98C189.23,-156.47 163.83,-143.28 144.95,-133.46"/>
<polygon fill="#63b8ff" stroke="#63b8ff" points="146.5,-130.32 136.01,-128.82 143.27,-136.54 146.5,-130.32"/>
</a>
</g>
</g>
<!-- Node29 -->
<g id="Node000029" class="node">
<title>Node29</title>
<g id="a_Node000029"><a xlink:title=" ">
<polygon fill="#e0e0e0" stroke="#999999" points="330,-129 292,-129 292,-110 330,-110 330,-129"/>
<text text-anchor="middle" x="311" y="-117" font-family="Helvetica,sans-Serif" font-size="10.00">map</text>
</a>
</g>
</g>
<!-- Node27&#45;&gt;Node29 -->
<g id="edge50_Node000027_Node000029" class="edge">
<title>Node27&#45;&gt;Node29</title>
<g id="a_edge50_Node000027_Node000029"><a xlink:title=" ">
<path fill="none" stroke="#63b8ff" d="M236.3,-164.98C250.1,-156.77 271.24,-144.18 287.51,-134.49"/>
<polygon fill="#63b8ff" stroke="#63b8ff" points="289.64,-137.29 296.44,-129.17 286.06,-131.28 289.64,-137.29"/>
</a>
</g>
</g>
<!-- Node30 -->
<g id="Node000030" class="node">
<title>Node30</title>
<g id="a_Node000030"><a xlink:title=" ">
<polygon fill="#e0e0e0" stroke="#999999" points="197.5,-129 154.5,-129 154.5,-110 197.5,-110 197.5,-129"/>
<text text-anchor="middle" x="176" y="-117" font-family="Helvetica,sans-Serif" font-size="10.00">stack</text>
</a>
</g>
</g>
<!-- Node27&#45;&gt;Node30 -->
<g id="edge53_Node000027_Node000030" class="edge">
<title>Node27&#45;&gt;Node30</title>
<g id="a_edge53_Node000027_Node000030"><a xlink:title=" ">
<path fill="none" stroke="#63b8ff" d="M214.4,-164.75C207.84,-157.18 198.18,-146.05 190.19,-136.84"/>
<polygon fill="#63b8ff" stroke="#63b8ff" points="192.65,-134.35 183.45,-129.09 187.37,-138.94 192.65,-134.35"/>
</a>
</g>
</g>
<!-- Node31&#45;&gt;Node3 -->
<g id="edge57_Node000031_Node000003" class="edge">
<title>Node31&#45;&gt;Node3</title>
<g id="a_edge57_Node000031_Node000003"><a xlink:title=" ">
<path fill="none" stroke="#63b8ff" d="M575.96,-274.95C590.27,-254.73 628.17,-202.81 666,-165 676.83,-154.18 690.16,-143.34 700.98,-135.07"/>
<polygon fill="#63b8ff" stroke="#63b8ff" points="703.12,-137.84 709.03,-129.04 698.92,-132.24 703.12,-137.84"/>
</a>
</g>
</g>
<!-- Node31&#45;&gt;Node4 -->
<g id="edge59_Node000031_Node000004" class="edge">
<title>Node31&#45;&gt;Node4</title>
<g id="a_edge59_Node000031_Node000004"><a xlink:title=" ">
<path fill="none" stroke="#63b8ff" d="M558,-274.88C534.9,-258.13 482.94,-219.71 442,-184 424.28,-168.54 405.16,-149.56 392.27,-136.39"/>
<polygon fill="#63b8ff" stroke="#63b8ff" points="394.6,-133.77 385.13,-129.03 389.58,-138.64 394.6,-133.77"/>
</a>
</g>
</g>
<!-- Node31&#45;&gt;Node7 -->
<g id="edge60_Node000031_Node000007" class="edge">
<title>Node31&#45;&gt;Node7</title>
<g id="a_edge60_Node000031_Node000007"><a xlink:title=" ">
<path fill="none" stroke="#63b8ff" d="M617.54,-275.1C677.45,-264.52 779.14,-246.55 833.37,-236.97"/>
<polygon fill="#63b8ff" stroke="#63b8ff" points="834,-240.41 843.24,-235.23 832.79,-233.52 834,-240.41"/>
</a>
</g>
</g>
<!-- Node31&#45;&gt;Node20 -->
<g id="edge61_Node000031_Node000020" class="edge">
<title>Node31&#45;&gt;Node20</title>
<g id="a_edge61_Node000031_Node000020"><a xlink:title=" ">
<path fill="none" stroke="#63b8ff" d="M585.75,-274.98C601.23,-266.61 625.09,-253.7 643.14,-243.95"/>
<polygon fill="#63b8ff" stroke="#63b8ff" points="644.84,-247.01 651.97,-239.17 641.51,-240.85 644.84,-247.01"/>
</a>
</g>
</g>
<!-- Node31&#45;&gt;Node29 -->
<g id="edge58_Node000031_Node000029" class="edge">
<title>Node31&#45;&gt;Node29</title>
<g id="a_edge58_Node000031_Node000029"><a xlink:title=" ">
<path fill="none" stroke="#63b8ff" d="M551.63,-274.97C533.76,-266.47 506.02,-252.74 483,-239 425.75,-204.84 362.02,-158.62 330.64,-135.29"/>
<polygon fill="#63b8ff" stroke="#63b8ff" points="332.44,-132.26 322.33,-129.08 328.25,-137.87 332.44,-132.26"/>
</a>
</g>
</g>
</g>
</svg>
