<?xml version="1.0" encoding="UTF-8" standalone="no"?>
<!DOCTYPE svg PUBLIC "-//W3C//DTD SVG 1.1//EN"
 "http://www.w3.org/Graphics/SVG/1.1/DTD/svg11.dtd">
<!-- Generated by graphviz version 2.43.0 (0)
 -->
<!-- Title: src/membername.h Pages: 1 -->
<svg width="938pt" height="467pt"
 viewBox="0.00 0.00 938.31 467.00" xmlns="http://www.w3.org/2000/svg" xmlns:xlink="http://www.w3.org/1999/xlink">
<g id="graph0" class="graph" transform="scale(1 1) rotate(0) translate(4 463)">
<title>src/membername.h</title>
<!-- Node1 -->
<g id="Node000001" class="node">
<title>Node1</title>
<g id="a_Node000001"><a xlink:title=" ">
<polygon fill="#999999" stroke="#666666" points="498.7,-459 386.7,-459 386.7,-440 498.7,-440 498.7,-459"/>
<text text-anchor="middle" x="442.7" y="-447" font-family="Helvetica,sans-Serif" font-size="10.00">src/membername.h</text>
</a>
</g>
</g>
<!-- Node2 -->
<g id="Node000002" class="node">
<title>Node2</title>
<g id="a_Node000002"><a xlink:href="../../d4/d46/memberdef_8h.html" target="_top" xlink:title=" ">
<polygon fill="white" stroke="#666666" points="320.7,-404 238.7,-404 238.7,-385 320.7,-385 320.7,-404"/>
<text text-anchor="middle" x="279.7" y="-392" font-family="Helvetica,sans-Serif" font-size="10.00">memberdef.h</text>
</a>
</g>
</g>
<!-- Node1&#45;&gt;Node2 -->
<g id="edge1_Node000001_Node000002" class="edge">
<title>Node1&#45;&gt;Node2</title>
<g id="a_edge1_Node000001_Node000002"><a xlink:title=" ">
<path fill="none" stroke="#63b8ff" d="M416.51,-439.98C389.27,-431.13 346.4,-417.19 315.92,-407.28"/>
<polygon fill="#63b8ff" stroke="#63b8ff" points="316.69,-403.85 306.1,-404.08 314.53,-410.5 316.69,-403.85"/>
</a>
</g>
</g>
<!-- Node22 -->
<g id="Node000022" class="node">
<title>Node22</title>
<g id="a_Node000022"><a xlink:href="../../da/de1/linkedmap_8h.html" target="_top" xlink:title=" ">
<polygon fill="white" stroke="#666666" points="527.2,-184 450.2,-184 450.2,-165 527.2,-165 527.2,-184"/>
<text text-anchor="middle" x="488.7" y="-172" font-family="Helvetica,sans-Serif" font-size="10.00">linkedmap.h</text>
</a>
</g>
</g>
<!-- Node1&#45;&gt;Node22 -->
<g id="edge61_Node000001_Node000022" class="edge">
<title>Node1&#45;&gt;Node22</title>
<g id="a_edge61_Node000001_Node000022"><a xlink:title=" ">
<path fill="none" stroke="#63b8ff" d="M451.78,-439.85C473.98,-417.98 530.65,-357.68 550.7,-294 563.05,-254.77 528.64,-213.1 506.25,-191.15"/>
<polygon fill="#63b8ff" stroke="#63b8ff" points="508.61,-188.56 498.94,-184.24 503.81,-193.65 508.61,-188.56"/>
</a>
</g>
</g>
<!-- Node3 -->
<g id="Node000003" class="node">
<title>Node3</title>
<g id="a_Node000003"><a xlink:title=" ">
<polygon fill="#e0e0e0" stroke="#999999" points="323.2,-129 276.2,-129 276.2,-110 323.2,-110 323.2,-129"/>
<text text-anchor="middle" x="299.7" y="-117" font-family="Helvetica,sans-Serif" font-size="10.00">vector</text>
</a>
</g>
</g>
<!-- Node2&#45;&gt;Node3 -->
<g id="edge2_Node000002_Node000003" class="edge">
<title>Node2&#45;&gt;Node3</title>
<g id="a_edge2_Node000002_Node000003"><a xlink:title=" ">
<path fill="none" stroke="#63b8ff" d="M238.59,-393.52C167.86,-391.15 30.7,-375.03 30.7,-285.5 30.7,-285.5 30.7,-285.5 30.7,-228.5 30.7,-203.44 193.58,-151.99 265.86,-130.39"/>
<polygon fill="#63b8ff" stroke="#63b8ff" points="267.24,-133.63 275.83,-127.43 265.25,-126.92 267.24,-133.63"/>
</a>
</g>
</g>
<!-- Node4 -->
<g id="Node000004" class="node">
<title>Node4</title>
<g id="a_Node000004"><a xlink:title=" ">
<polygon fill="#e0e0e0" stroke="#999999" points="628.7,-129 570.7,-129 570.7,-110 628.7,-110 628.7,-129"/>
<text text-anchor="middle" x="599.7" y="-117" font-family="Helvetica,sans-Serif" font-size="10.00">memory</text>
</a>
</g>
</g>
<!-- Node2&#45;&gt;Node4 -->
<g id="edge3_Node000002_Node000004" class="edge">
<title>Node2&#45;&gt;Node4</title>
<g id="a_edge3_Node000002_Node000004"><a xlink:title=" ">
<path fill="none" stroke="#63b8ff" d="M320.83,-391.94C384.58,-387.17 506.57,-368.25 570.7,-294 609.86,-248.67 616.31,-224.53 609.7,-165 608.74,-156.34 606.76,-146.91 604.81,-138.97"/>
<polygon fill="#63b8ff" stroke="#63b8ff" points="608.19,-138.06 602.28,-129.27 601.42,-139.83 608.19,-138.06"/>
</a>
</g>
</g>
<!-- Node5 -->
<g id="Node000005" class="node">
<title>Node5</title>
<g id="a_Node000005"><a xlink:title=" ">
<polygon fill="#e0e0e0" stroke="#999999" points="307.7,-349 251.7,-349 251.7,-330 307.7,-330 307.7,-349"/>
<text text-anchor="middle" x="279.7" y="-337" font-family="Helvetica,sans-Serif" font-size="10.00">optional</text>
</a>
</g>
</g>
<!-- Node2&#45;&gt;Node5 -->
<g id="edge4_Node000002_Node000005" class="edge">
<title>Node2&#45;&gt;Node5</title>
<g id="a_edge4_Node000002_Node000005"><a xlink:title=" ">
<path fill="none" stroke="#63b8ff" d="M279.7,-384.75C279.7,-377.8 279.7,-367.85 279.7,-359.13"/>
<polygon fill="#63b8ff" stroke="#63b8ff" points="283.2,-359.09 279.7,-349.09 276.2,-359.09 283.2,-359.09"/>
</a>
</g>
</g>
<!-- Node6 -->
<g id="Node000006" class="node">
<title>Node6</title>
<g id="a_Node000006"><a xlink:title=" ">
<polygon fill="#e0e0e0" stroke="#999999" points="397.7,-349 325.7,-349 325.7,-330 397.7,-330 397.7,-349"/>
<text text-anchor="middle" x="361.7" y="-337" font-family="Helvetica,sans-Serif" font-size="10.00">sys/types.h</text>
</a>
</g>
</g>
<!-- Node2&#45;&gt;Node6 -->
<g id="edge5_Node000002_Node000006" class="edge">
<title>Node2&#45;&gt;Node6</title>
<g id="a_edge5_Node000002_Node000006"><a xlink:title=" ">
<path fill="none" stroke="#63b8ff" d="M292.88,-384.98C305.48,-376.84 324.71,-364.41 339.64,-354.76"/>
<polygon fill="#63b8ff" stroke="#63b8ff" points="341.79,-357.54 348.29,-349.17 337.99,-351.66 341.79,-357.54"/>
</a>
</g>
</g>
<!-- Node7 -->
<g id="Node000007" class="node">
<title>Node7</title>
<g id="a_Node000007"><a xlink:href="../../d9/d49/types_8h.html" target="_top" xlink:title="This file contains a number of basic enums and types.">
<polygon fill="white" stroke="#666666" points="208.2,-239 155.2,-239 155.2,-220 208.2,-220 208.2,-239"/>
<text text-anchor="middle" x="181.7" y="-227" font-family="Helvetica,sans-Serif" font-size="10.00">types.h</text>
</a>
</g>
</g>
<!-- Node2&#45;&gt;Node7 -->
<g id="edge6_Node000002_Node000007" class="edge">
<title>Node2&#45;&gt;Node7</title>
<g id="a_edge6_Node000002_Node000007"><a xlink:title=" ">
<path fill="none" stroke="#63b8ff" d="M268.42,-384.83C248.97,-369.14 209.6,-333.94 192.7,-294 186.64,-279.65 183.91,-262.13 182.69,-249.13"/>
<polygon fill="#63b8ff" stroke="#63b8ff" points="186.18,-248.78 181.96,-239.06 179.2,-249.29 186.18,-248.78"/>
</a>
</g>
</g>
<!-- Node19 -->
<g id="Node000019" class="node">
<title>Node19</title>
<g id="a_Node000019"><a xlink:href="../../df/da1/definition_8h.html" target="_top" xlink:title=" ">
<polygon fill="white" stroke="#666666" points="272.2,-294 201.2,-294 201.2,-275 272.2,-275 272.2,-294"/>
<text text-anchor="middle" x="236.7" y="-282" font-family="Helvetica,sans-Serif" font-size="10.00">definition.h</text>
</a>
</g>
</g>
<!-- Node2&#45;&gt;Node19 -->
<g id="edge20_Node000002_Node000019" class="edge">
<title>Node2&#45;&gt;Node19</title>
<g id="a_edge20_Node000002_Node000019"><a xlink:title=" ">
<path fill="none" stroke="#63b8ff" d="M269.59,-384.74C260.83,-376.49 248.64,-363.29 242.7,-349 236.79,-334.76 235.53,-317.23 235.62,-304.2"/>
<polygon fill="#63b8ff" stroke="#63b8ff" points="239.12,-304.21 235.95,-294.1 232.12,-303.98 239.12,-304.21"/>
</a>
</g>
</g>
<!-- Node23 -->
<g id="Node000023" class="node">
<title>Node23</title>
<g id="a_Node000023"><a xlink:href="../../df/d9b/arguments_8h.html" target="_top" xlink:title=" ">
<polygon fill="white" stroke="#666666" points="136.7,-239 58.7,-239 58.7,-220 136.7,-220 136.7,-239"/>
<text text-anchor="middle" x="97.7" y="-227" font-family="Helvetica,sans-Serif" font-size="10.00">arguments.h</text>
</a>
</g>
</g>
<!-- Node2&#45;&gt;Node23 -->
<g id="edge36_Node000002_Node000023" class="edge">
<title>Node2&#45;&gt;Node23</title>
<g id="a_edge36_Node000002_Node000023"><a xlink:title=" ">
<path fill="none" stroke="#63b8ff" d="M264.62,-384.88C250.27,-376.43 228.3,-362.82 210.7,-349 170.29,-317.25 130.6,-271.24 110.76,-246.95"/>
<polygon fill="#63b8ff" stroke="#63b8ff" points="113.4,-244.64 104.39,-239.05 107.95,-249.03 113.4,-244.64"/>
</a>
</g>
</g>
<!-- Node24 -->
<g id="Node000024" class="node">
<title>Node24</title>
<g id="a_Node000024"><a xlink:href="../../d1/da6/classdef_8h.html" target="_top" xlink:title=" ">
<polygon fill="white" stroke="#666666" points="481.2,-349 416.2,-349 416.2,-330 481.2,-330 481.2,-349"/>
<text text-anchor="middle" x="448.7" y="-337" font-family="Helvetica,sans-Serif" font-size="10.00">classdef.h</text>
</a>
</g>
</g>
<!-- Node2&#45;&gt;Node24 -->
<g id="edge39_Node000002_Node000024" class="edge">
<title>Node2&#45;&gt;Node24</title>
<g id="a_edge39_Node000002_Node000024"><a xlink:title=" ">
<path fill="none" stroke="#63b8ff" d="M306.86,-384.98C335.23,-376.09 379.94,-362.07 411.57,-352.15"/>
<polygon fill="#63b8ff" stroke="#63b8ff" points="412.84,-355.41 421.34,-349.08 410.75,-348.73 412.84,-355.41"/>
</a>
</g>
</g>
<!-- Node8 -->
<g id="Node000008" class="node">
<title>Node8</title>
<g id="a_Node000008"><a xlink:href="../../d7/d5c/qcstring_8h.html" target="_top" xlink:title=" ">
<polygon fill="white" stroke="#666666" points="247.2,-129 182.2,-129 182.2,-110 247.2,-110 247.2,-129"/>
<text text-anchor="middle" x="214.7" y="-117" font-family="Helvetica,sans-Serif" font-size="10.00">qcstring.h</text>
</a>
</g>
</g>
<!-- Node7&#45;&gt;Node8 -->
<g id="edge7_Node000007_Node000008" class="edge">
<title>Node7&#45;&gt;Node8</title>
<g id="a_edge7_Node000007_Node000008"><a xlink:title=" ">
<path fill="none" stroke="#63b8ff" d="M184.4,-219.66C189.77,-202.09 201.89,-162.45 209.07,-138.95"/>
<polygon fill="#63b8ff" stroke="#63b8ff" points="212.48,-139.74 212.06,-129.16 205.79,-137.7 212.48,-139.74"/>
</a>
</g>
</g>
<!-- Node9 -->
<g id="Node000009" class="node">
<title>Node9</title>
<g id="a_Node000009"><a xlink:title=" ">
<polygon fill="#e0e0e0" stroke="#999999" points="210.7,-19 166.7,-19 166.7,0 210.7,0 210.7,-19"/>
<text text-anchor="middle" x="188.7" y="-7" font-family="Helvetica,sans-Serif" font-size="10.00">string</text>
</a>
</g>
</g>
<!-- Node8&#45;&gt;Node9 -->
<g id="edge8_Node000008_Node000009" class="edge">
<title>Node8&#45;&gt;Node9</title>
<g id="a_edge8_Node000008_Node000009"><a xlink:title=" ">
<path fill="none" stroke="#63b8ff" d="M203.06,-109.73C193.4,-101.67 180.36,-88.74 174.7,-74 169.03,-59.19 173.79,-41.52 179.25,-28.58"/>
<polygon fill="#63b8ff" stroke="#63b8ff" points="182.5,-29.91 183.59,-19.37 176.17,-26.92 182.5,-29.91"/>
</a>
</g>
</g>
<!-- Node10 -->
<g id="Node000010" class="node">
<title>Node10</title>
<g id="a_Node000010"><a xlink:title=" ">
<polygon fill="#e0e0e0" stroke="#999999" points="799.2,-74 726.2,-74 726.2,-55 799.2,-55 799.2,-74"/>
<text text-anchor="middle" x="762.7" y="-62" font-family="Helvetica,sans-Serif" font-size="10.00">string_view</text>
</a>
</g>
</g>
<!-- Node8&#45;&gt;Node10 -->
<g id="edge9_Node000008_Node000010" class="edge">
<title>Node8&#45;&gt;Node10</title>
<g id="a_edge9_Node000008_Node000010"><a xlink:title=" ">
<path fill="none" stroke="#63b8ff" d="M247.45,-112.88C254.14,-111.84 261.14,-110.82 267.7,-110 431.84,-89.49 627.74,-74.74 715.78,-68.63"/>
<polygon fill="#63b8ff" stroke="#63b8ff" points="716.24,-72.11 725.97,-67.93 715.76,-65.12 716.24,-72.11"/>
</a>
</g>
</g>
<!-- Node11 -->
<g id="Node000011" class="node">
<title>Node11</title>
<g id="a_Node000011"><a xlink:title=" ">
<polygon fill="#e0e0e0" stroke="#999999" points="454.7,-74 390.7,-74 390.7,-55 454.7,-55 454.7,-74"/>
<text text-anchor="middle" x="422.7" y="-62" font-family="Helvetica,sans-Serif" font-size="10.00">algorithm</text>
</a>
</g>
</g>
<!-- Node8&#45;&gt;Node11 -->
<g id="edge10_Node000008_Node000011" class="edge">
<title>Node8&#45;&gt;Node11</title>
<g id="a_edge10_Node000008_Node000011"><a xlink:title=" ">
<path fill="none" stroke="#63b8ff" d="M247.66,-110.1C283.7,-100.92 341.54,-86.18 380.78,-76.18"/>
<polygon fill="#63b8ff" stroke="#63b8ff" points="381.76,-79.55 390.58,-73.68 380.03,-72.76 381.76,-79.55"/>
</a>
</g>
</g>
<!-- Node12 -->
<g id="Node000012" class="node">
<title>Node12</title>
<g id="a_Node000012"><a xlink:title=" ">
<polygon fill="#e0e0e0" stroke="#999999" points="522.2,-74 473.2,-74 473.2,-55 522.2,-55 522.2,-74"/>
<text text-anchor="middle" x="497.7" y="-62" font-family="Helvetica,sans-Serif" font-size="10.00">cctype</text>
</a>
</g>
</g>
<!-- Node8&#45;&gt;Node12 -->
<g id="edge11_Node000008_Node000012" class="edge">
<title>Node8&#45;&gt;Node12</title>
<g id="a_edge11_Node000008_Node000012"><a xlink:title=" ">
<path fill="none" stroke="#63b8ff" d="M247.23,-112.97C301.4,-103.72 408.74,-85.18 463.06,-73.99"/>
<polygon fill="#63b8ff" stroke="#63b8ff" points="463.8,-77.41 472.87,-71.92 462.36,-70.56 463.8,-77.41"/>
</a>
</g>
</g>
<!-- Node13 -->
<g id="Node000013" class="node">
<title>Node13</title>
<g id="a_Node000013"><a xlink:title=" ">
<polygon fill="#e0e0e0" stroke="#999999" points="63.7,-74 13.7,-74 13.7,-55 63.7,-55 63.7,-74"/>
<text text-anchor="middle" x="38.7" y="-62" font-family="Helvetica,sans-Serif" font-size="10.00">cstring</text>
</a>
</g>
</g>
<!-- Node8&#45;&gt;Node13 -->
<g id="edge12_Node000008_Node000013" class="edge">
<title>Node8&#45;&gt;Node13</title>
<g id="a_edge12_Node000008_Node000013"><a xlink:title=" ">
<path fill="none" stroke="#63b8ff" d="M186.43,-109.98C155.69,-100.73 106.56,-85.93 73.49,-75.97"/>
<polygon fill="#63b8ff" stroke="#63b8ff" points="74.36,-72.58 63.78,-73.05 72.34,-79.28 74.36,-72.58"/>
</a>
</g>
</g>
<!-- Node14 -->
<g id="Node000014" class="node">
<title>Node14</title>
<g id="a_Node000014"><a xlink:title=" ">
<polygon fill="#e0e0e0" stroke="#999999" points="229.7,-74 183.7,-74 183.7,-55 229.7,-55 229.7,-74"/>
<text text-anchor="middle" x="206.7" y="-62" font-family="Helvetica,sans-Serif" font-size="10.00">cstdio</text>
</a>
</g>
</g>
<!-- Node8&#45;&gt;Node14 -->
<g id="edge13_Node000008_Node000014" class="edge">
<title>Node8&#45;&gt;Node14</title>
<g id="a_edge13_Node000008_Node000014"><a xlink:title=" ">
<path fill="none" stroke="#63b8ff" d="M213.38,-109.75C212.33,-102.8 210.83,-92.85 209.52,-84.13"/>
<polygon fill="#63b8ff" stroke="#63b8ff" points="212.95,-83.45 208,-74.09 206.03,-84.5 212.95,-83.45"/>
</a>
</g>
</g>
<!-- Node15 -->
<g id="Node000015" class="node">
<title>Node15</title>
<g id="a_Node000015"><a xlink:title=" ">
<polygon fill="#e0e0e0" stroke="#999999" points="297.2,-74 248.2,-74 248.2,-55 297.2,-55 297.2,-74"/>
<text text-anchor="middle" x="272.7" y="-62" font-family="Helvetica,sans-Serif" font-size="10.00">cstdlib</text>
</a>
</g>
</g>
<!-- Node8&#45;&gt;Node15 -->
<g id="edge14_Node000008_Node000015" class="edge">
<title>Node8&#45;&gt;Node15</title>
<g id="a_edge14_Node000008_Node000015"><a xlink:title=" ">
<path fill="none" stroke="#63b8ff" d="M224.02,-109.98C232.51,-102.23 245.26,-90.58 255.59,-81.14"/>
<polygon fill="#63b8ff" stroke="#63b8ff" points="258.19,-83.5 263.22,-74.17 253.47,-78.33 258.19,-83.5"/>
</a>
</g>
</g>
<!-- Node16 -->
<g id="Node000016" class="node">
<title>Node16</title>
<g id="a_Node000016"><a xlink:title=" ">
<polygon fill="#e0e0e0" stroke="#999999" points="96.7,-19 46.7,-19 46.7,0 96.7,0 96.7,-19"/>
<text text-anchor="middle" x="71.7" y="-7" font-family="Helvetica,sans-Serif" font-size="10.00">cstdint</text>
</a>
</g>
</g>
<!-- Node8&#45;&gt;Node16 -->
<g id="edge15_Node000008_Node000016" class="edge">
<title>Node8&#45;&gt;Node16</title>
<g id="a_edge15_Node000008_Node000016"><a xlink:title=" ">
<path fill="none" stroke="#63b8ff" d="M181.94,-116.44C128.58,-112.34 26.64,-101.07 4.7,-74 -10.95,-54.68 16.99,-35.45 41.43,-23.3"/>
<polygon fill="#63b8ff" stroke="#63b8ff" points="42.97,-26.44 50.52,-19 39.99,-20.11 42.97,-26.44"/>
</a>
</g>
</g>
<!-- Node17 -->
<g id="Node000017" class="node">
<title>Node17</title>
<g id="a_Node000017"><a xlink:title=" ">
<polygon fill="#e0e0e0" stroke="#999999" points="372.2,-74 315.2,-74 315.2,-55 372.2,-55 372.2,-74"/>
<text text-anchor="middle" x="343.7" y="-62" font-family="Helvetica,sans-Serif" font-size="10.00">ostream</text>
</a>
</g>
</g>
<!-- Node8&#45;&gt;Node17 -->
<g id="edge16_Node000008_Node000017" class="edge">
<title>Node8&#45;&gt;Node17</title>
<g id="a_edge16_Node000008_Node000017"><a xlink:title=" ">
<path fill="none" stroke="#63b8ff" d="M235.43,-109.98C256.46,-101.34 289.25,-87.87 313.24,-78.02"/>
<polygon fill="#63b8ff" stroke="#63b8ff" points="314.68,-81.21 322.6,-74.17 312.02,-74.73 314.68,-81.21"/>
</a>
</g>
</g>
<!-- Node18 -->
<g id="Node000018" class="node">
<title>Node18</title>
<g id="a_Node000018"><a xlink:href="../../db/d7c/utf8_8h.html" target="_top" xlink:title="Various UTF8 related helper functions.">
<polygon fill="white" stroke="#666666" points="127.2,-74 82.2,-74 82.2,-55 127.2,-55 127.2,-74"/>
<text text-anchor="middle" x="104.7" y="-62" font-family="Helvetica,sans-Serif" font-size="10.00">utf8.h</text>
</a>
</g>
</g>
<!-- Node8&#45;&gt;Node18 -->
<g id="edge17_Node000008_Node000018" class="edge">
<title>Node8&#45;&gt;Node18</title>
<g id="a_edge17_Node000008_Node000018"><a xlink:title=" ">
<path fill="none" stroke="#63b8ff" d="M197.03,-109.98C179.41,-101.5 152.13,-88.35 131.78,-78.54"/>
<polygon fill="#63b8ff" stroke="#63b8ff" points="133.23,-75.36 122.7,-74.17 130.19,-81.66 133.23,-75.36"/>
</a>
</g>
</g>
<!-- Node18&#45;&gt;Node9 -->
<g id="edge19_Node000018_Node000009" class="edge">
<title>Node18&#45;&gt;Node9</title>
<g id="a_edge19_Node000018_Node000009"><a xlink:title=" ">
<path fill="none" stroke="#63b8ff" d="M118.2,-54.98C131.1,-46.84 150.81,-34.41 166.1,-24.76"/>
<polygon fill="#63b8ff" stroke="#63b8ff" points="168.37,-27.47 174.96,-19.17 164.64,-21.55 168.37,-27.47"/>
</a>
</g>
</g>
<!-- Node18&#45;&gt;Node16 -->
<g id="edge18_Node000018_Node000016" class="edge">
<title>Node18&#45;&gt;Node16</title>
<g id="a_edge18_Node000018_Node000016"><a xlink:title=" ">
<path fill="none" stroke="#63b8ff" d="M99.25,-54.75C94.69,-47.42 88.04,-36.73 82.41,-27.7"/>
<polygon fill="#63b8ff" stroke="#63b8ff" points="85.31,-25.73 77.05,-19.09 79.37,-29.43 85.31,-25.73"/>
</a>
</g>
</g>
<!-- Node19&#45;&gt;Node3 -->
<g id="edge21_Node000019_Node000003" class="edge">
<title>Node19&#45;&gt;Node3</title>
<g id="a_edge21_Node000019_Node000003"><a xlink:title=" ">
<path fill="none" stroke="#63b8ff" d="M236.34,-274.92C235.84,-254.62 236.67,-202.54 255.7,-165 261.42,-153.72 271.03,-143.5 279.82,-135.71"/>
<polygon fill="#63b8ff" stroke="#63b8ff" points="282.09,-138.37 287.52,-129.27 277.6,-133 282.09,-138.37"/>
</a>
</g>
</g>
<!-- Node19&#45;&gt;Node7 -->
<g id="edge22_Node000019_Node000007" class="edge">
<title>Node19&#45;&gt;Node7</title>
<g id="a_edge22_Node000019_Node000007"><a xlink:title=" ">
<path fill="none" stroke="#63b8ff" d="M227.62,-274.75C219.61,-267.03 207.75,-255.6 198.08,-246.28"/>
<polygon fill="#63b8ff" stroke="#63b8ff" points="200.25,-243.51 190.62,-239.09 195.39,-248.55 200.25,-243.51"/>
</a>
</g>
</g>
<!-- Node20 -->
<g id="Node000020" class="node">
<title>Node20</title>
<g id="a_Node000020"><a xlink:href="../../d1/d02/reflist_8h.html" target="_top" xlink:title=" ">
<polygon fill="white" stroke="#666666" points="415.2,-239 362.2,-239 362.2,-220 415.2,-220 415.2,-239"/>
<text text-anchor="middle" x="388.7" y="-227" font-family="Helvetica,sans-Serif" font-size="10.00">reflist.h</text>
</a>
</g>
</g>
<!-- Node19&#45;&gt;Node20 -->
<g id="edge23_Node000019_Node000020" class="edge">
<title>Node19&#45;&gt;Node20</title>
<g id="a_edge23_Node000019_Node000020"><a xlink:title=" ">
<path fill="none" stroke="#63b8ff" d="M261.12,-274.98C286.42,-266.16 326.16,-252.31 354.56,-242.41"/>
<polygon fill="#63b8ff" stroke="#63b8ff" points="355.8,-245.68 364.09,-239.08 353.5,-239.07 355.8,-245.68"/>
</a>
</g>
</g>
<!-- Node20&#45;&gt;Node3 -->
<g id="edge24_Node000020_Node000003" class="edge">
<title>Node20&#45;&gt;Node3</title>
<g id="a_edge24_Node000020_Node000003"><a xlink:title=" ">
<path fill="none" stroke="#63b8ff" d="M386.31,-219.95C382.38,-207.01 373.58,-182.14 359.7,-165 349.88,-152.87 336.04,-142.31 324.12,-134.53"/>
<polygon fill="#63b8ff" stroke="#63b8ff" points="325.82,-131.46 315.49,-129.14 322.12,-137.4 325.82,-131.46"/>
</a>
</g>
</g>
<!-- Node20&#45;&gt;Node4 -->
<g id="edge26_Node000020_Node000004" class="edge">
<title>Node20&#45;&gt;Node4</title>
<g id="a_edge26_Node000020_Node000004"><a xlink:title=" ">
<path fill="none" stroke="#63b8ff" d="M415.45,-224.57C446.4,-219.12 498.06,-207.2 536.7,-184 556.99,-171.82 575.45,-151.64 587.06,-137.3"/>
<polygon fill="#63b8ff" stroke="#63b8ff" points="589.96,-139.28 593.37,-129.25 584.45,-134.97 589.96,-139.28"/>
</a>
</g>
</g>
<!-- Node20&#45;&gt;Node8 -->
<g id="edge27_Node000020_Node000008" class="edge">
<title>Node20&#45;&gt;Node8</title>
<g id="a_edge27_Node000020_Node000008"><a xlink:title=" ">
<path fill="none" stroke="#63b8ff" d="M374.76,-219.84C344.85,-201.28 274.3,-157.49 237.67,-134.75"/>
<polygon fill="#63b8ff" stroke="#63b8ff" points="239.06,-131.5 228.71,-129.2 235.37,-137.44 239.06,-131.5"/>
</a>
</g>
</g>
<!-- Node21 -->
<g id="Node000021" class="node">
<title>Node21</title>
<g id="a_Node000021"><a xlink:title=" ">
<polygon fill="#e0e0e0" stroke="#999999" points="438.2,-129 345.2,-129 345.2,-110 438.2,-110 438.2,-129"/>
<text text-anchor="middle" x="391.7" y="-117" font-family="Helvetica,sans-Serif" font-size="10.00">unordered_map</text>
</a>
</g>
</g>
<!-- Node20&#45;&gt;Node21 -->
<g id="edge25_Node000020_Node000021" class="edge">
<title>Node20&#45;&gt;Node21</title>
<g id="a_edge25_Node000020_Node000021"><a xlink:title=" ">
<path fill="none" stroke="#63b8ff" d="M391.02,-219.71C393.25,-210.79 396.45,-196.55 397.7,-184 399.21,-168.98 397.41,-151.96 395.4,-139.32"/>
<polygon fill="#63b8ff" stroke="#63b8ff" points="398.78,-138.36 393.58,-129.13 391.89,-139.59 398.78,-138.36"/>
</a>
</g>
</g>
<!-- Node20&#45;&gt;Node22 -->
<g id="edge28_Node000020_Node000022" class="edge">
<title>Node20&#45;&gt;Node22</title>
<g id="a_edge28_Node000020_Node000022"><a xlink:title=" ">
<path fill="none" stroke="#63b8ff" d="M404.77,-219.98C420.57,-211.61 444.92,-198.7 463.33,-188.95"/>
<polygon fill="#63b8ff" stroke="#63b8ff" points="465.15,-191.95 472.34,-184.17 461.87,-185.76 465.15,-191.95"/>
</a>
</g>
</g>
<!-- Node22&#45;&gt;Node3 -->
<g id="edge30_Node000022_Node000003" class="edge">
<title>Node22&#45;&gt;Node3</title>
<g id="a_edge30_Node000022_Node000003"><a xlink:title=" ">
<path fill="none" stroke="#63b8ff" d="M458.34,-164.98C424.15,-155.4 368.75,-139.86 333.29,-129.92"/>
<polygon fill="#63b8ff" stroke="#63b8ff" points="333.99,-126.48 323.41,-127.15 332.1,-133.22 333.99,-126.48"/>
</a>
</g>
</g>
<!-- Node22&#45;&gt;Node4 -->
<g id="edge31_Node000022_Node000004" class="edge">
<title>Node22&#45;&gt;Node4</title>
<g id="a_edge31_Node000022_Node000004"><a xlink:title=" ">
<path fill="none" stroke="#63b8ff" d="M506.54,-164.98C524.31,-156.5 551.85,-143.35 572.38,-133.54"/>
<polygon fill="#63b8ff" stroke="#63b8ff" points="574.03,-136.64 581.54,-129.17 571.01,-130.32 574.03,-136.64"/>
</a>
</g>
</g>
<!-- Node22&#45;&gt;Node8 -->
<g id="edge35_Node000022_Node000008" class="edge">
<title>Node22&#45;&gt;Node8</title>
<g id="a_edge35_Node000022_Node000008"><a xlink:title=" ">
<path fill="none" stroke="#63b8ff" d="M450.03,-166.02C399.27,-156.2 310.46,-139.02 257.67,-128.81"/>
<polygon fill="#63b8ff" stroke="#63b8ff" points="258.09,-125.33 247.61,-126.86 256.76,-132.2 258.09,-125.33"/>
</a>
</g>
</g>
<!-- Node22&#45;&gt;Node9 -->
<g id="edge32_Node000022_Node000009" class="edge">
<title>Node22&#45;&gt;Node9</title>
<g id="a_edge32_Node000022_Node000009"><a xlink:title=" ">
<path fill="none" stroke="#63b8ff" d="M496.95,-164.97C516.37,-143.87 561.17,-88.54 531.7,-55 511.34,-31.82 302.6,-17.18 221.08,-12.3"/>
<polygon fill="#63b8ff" stroke="#63b8ff" points="221.08,-8.8 210.89,-11.71 220.67,-15.79 221.08,-8.8"/>
</a>
</g>
</g>
<!-- Node22&#45;&gt;Node11 -->
<g id="edge33_Node000022_Node000011" class="edge">
<title>Node22&#45;&gt;Node11</title>
<g id="a_edge33_Node000022_Node000011"><a xlink:title=" ">
<path fill="none" stroke="#63b8ff" d="M483.3,-164.66C472.37,-146.77 447.46,-106 433.21,-82.69"/>
<polygon fill="#63b8ff" stroke="#63b8ff" points="436.2,-80.87 427.99,-74.16 430.22,-84.52 436.2,-80.87"/>
</a>
</g>
</g>
<!-- Node22&#45;&gt;Node12 -->
<g id="edge34_Node000022_Node000012" class="edge">
<title>Node22&#45;&gt;Node12</title>
<g id="a_edge34_Node000022_Node000012"><a xlink:title=" ">
<path fill="none" stroke="#63b8ff" d="M489.44,-164.66C490.9,-147.17 494.18,-107.8 496.14,-84.27"/>
<polygon fill="#63b8ff" stroke="#63b8ff" points="499.64,-84.41 496.98,-74.16 492.66,-83.83 499.64,-84.41"/>
</a>
</g>
</g>
<!-- Node22&#45;&gt;Node21 -->
<g id="edge29_Node000022_Node000021" class="edge">
<title>Node22&#45;&gt;Node21</title>
<g id="a_edge29_Node000022_Node000021"><a xlink:title=" ">
<path fill="none" stroke="#63b8ff" d="M473.12,-164.98C457.94,-156.69 434.61,-143.94 416.81,-134.22"/>
<polygon fill="#63b8ff" stroke="#63b8ff" points="418.03,-130.89 407.57,-129.17 414.67,-137.04 418.03,-130.89"/>
</a>
</g>
</g>
<!-- Node23&#45;&gt;Node3 -->
<g id="edge37_Node000023_Node000003" class="edge">
<title>Node23&#45;&gt;Node3</title>
<g id="a_edge37_Node000023_Node000003"><a xlink:title=" ">
<path fill="none" stroke="#63b8ff" d="M113.89,-219.84C149.07,-201.04 232.68,-156.33 274.7,-133.87"/>
<polygon fill="#63b8ff" stroke="#63b8ff" points="276.55,-136.85 283.72,-129.05 273.25,-130.68 276.55,-136.85"/>
</a>
</g>
</g>
<!-- Node23&#45;&gt;Node8 -->
<g id="edge38_Node000023_Node000008" class="edge">
<title>Node23&#45;&gt;Node8</title>
<g id="a_edge38_Node000023_Node000008"><a xlink:title=" ">
<path fill="none" stroke="#63b8ff" d="M100.23,-219.66C104.42,-206.35 113.94,-181.01 129.7,-165 143.58,-150.91 162.86,-140.32 179.55,-133.01"/>
<polygon fill="#63b8ff" stroke="#63b8ff" points="181.12,-136.15 189.02,-129.09 178.44,-129.68 181.12,-136.15"/>
</a>
</g>
</g>
<!-- Node24&#45;&gt;Node3 -->
<g id="edge41_Node000024_Node000003" class="edge">
<title>Node24&#45;&gt;Node3</title>
<g id="a_edge41_Node000024_Node000003"><a xlink:title=" ">
<path fill="none" stroke="#63b8ff" d="M416.38,-329.92C386.05,-321.22 343.74,-307.2 332.7,-294 295.07,-248.98 295.26,-174.32 297.76,-139.48"/>
<polygon fill="#63b8ff" stroke="#63b8ff" points="301.26,-139.56 298.64,-129.3 294.29,-138.96 301.26,-139.56"/>
</a>
</g>
</g>
<!-- Node24&#45;&gt;Node4 -->
<g id="edge40_Node000024_Node000004" class="edge">
<title>Node24&#45;&gt;Node4</title>
<g id="a_edge40_Node000024_Node000004"><a xlink:title=" ">
<path fill="none" stroke="#63b8ff" d="M481.55,-331.88C504.01,-325.72 532.84,-314.31 550.7,-294 590.26,-249.02 598.06,-174.34 599.47,-139.49"/>
<polygon fill="#63b8ff" stroke="#63b8ff" points="602.98,-139.39 599.75,-129.3 595.98,-139.21 602.98,-139.39"/>
</a>
</g>
</g>
<!-- Node24&#45;&gt;Node19 -->
<g id="edge52_Node000024_Node000019" class="edge">
<title>Node24&#45;&gt;Node19</title>
<g id="a_edge52_Node000024_Node000019"><a xlink:title=" ">
<path fill="none" stroke="#63b8ff" d="M416.04,-330.33C379.75,-321.26 320.94,-306.56 280.63,-296.48"/>
<polygon fill="#63b8ff" stroke="#63b8ff" points="281.36,-293.06 270.81,-294.03 279.66,-299.85 281.36,-293.06"/>
</a>
</g>
</g>
<!-- Node24&#45;&gt;Node23 -->
<g id="edge53_Node000024_Node000023" class="edge">
<title>Node24&#45;&gt;Node23</title>
<g id="a_edge53_Node000024_Node000023"><a xlink:title=" ">
<path fill="none" stroke="#63b8ff" d="M416.16,-331.8C412.97,-331.18 409.78,-330.57 406.7,-330 311.87,-312.43 282.34,-329.59 192.7,-294 163.23,-282.3 133.53,-260.45 115.37,-245.69"/>
<polygon fill="#63b8ff" stroke="#63b8ff" points="117.36,-242.8 107.44,-239.09 112.88,-248.18 117.36,-242.8"/>
</a>
</g>
</g>
<!-- Node25 -->
<g id="Node000025" class="node">
<title>Node25</title>
<g id="a_Node000025"><a xlink:title=" ">
<polygon fill="#e0e0e0" stroke="#999999" points="788.7,-129 702.7,-129 702.7,-110 788.7,-110 788.7,-129"/>
<text text-anchor="middle" x="745.7" y="-117" font-family="Helvetica,sans-Serif" font-size="10.00">unordered_set</text>
</a>
</g>
</g>
<!-- Node24&#45;&gt;Node25 -->
<g id="edge42_Node000024_Node000025" class="edge">
<title>Node24&#45;&gt;Node25</title>
<g id="a_edge42_Node000024_Node000025"><a xlink:title=" ">
<path fill="none" stroke="#63b8ff" d="M481.26,-330.75C506.89,-323.71 542.81,-311.7 570.7,-294 641.67,-248.97 706.77,-170.88 733.22,-136.99"/>
<polygon fill="#63b8ff" stroke="#63b8ff" points="736.03,-139.07 739.36,-129.02 730.49,-134.8 736.03,-139.07"/>
</a>
</g>
</g>
<!-- Node26 -->
<g id="Node000026" class="node">
<title>Node26</title>
<g id="a_Node000026"><a xlink:href="../../d5/d75/containers_8h.html" target="_top" xlink:title=" ">
<polygon fill="white" stroke="#666666" points="851.2,-184 774.2,-184 774.2,-165 851.2,-165 851.2,-184"/>
<text text-anchor="middle" x="812.7" y="-172" font-family="Helvetica,sans-Serif" font-size="10.00">containers.h</text>
</a>
</g>
</g>
<!-- Node24&#45;&gt;Node26 -->
<g id="edge43_Node000024_Node000026" class="edge">
<title>Node24&#45;&gt;Node26</title>
<g id="a_edge43_Node000024_Node000026"><a xlink:title=" ">
<path fill="none" stroke="#63b8ff" d="M481.38,-337.73C552.07,-335.46 716.32,-326.72 759.7,-294 792.14,-269.54 805.17,-220.78 810.05,-194.06"/>
<polygon fill="#63b8ff" stroke="#63b8ff" points="813.52,-194.53 811.67,-184.1 806.61,-193.4 813.52,-194.53"/>
</a>
</g>
</g>
<!-- Node30 -->
<g id="Node000030" class="node">
<title>Node30</title>
<g id="a_Node000030"><a xlink:href="../../d9/d11/membergroup_8h.html" target="_top" xlink:title=" ">
<polygon fill="white" stroke="#666666" points="436.2,-294 341.2,-294 341.2,-275 436.2,-275 436.2,-294"/>
<text text-anchor="middle" x="388.7" y="-282" font-family="Helvetica,sans-Serif" font-size="10.00">membergroup.h</text>
</a>
</g>
</g>
<!-- Node24&#45;&gt;Node30 -->
<g id="edge54_Node000024_Node000030" class="edge">
<title>Node24&#45;&gt;Node30</title>
<g id="a_edge54_Node000024_Node000030"><a xlink:title=" ">
<path fill="none" stroke="#63b8ff" d="M439.06,-329.98C430.19,-322.15 416.83,-310.34 406.1,-300.86"/>
<polygon fill="#63b8ff" stroke="#63b8ff" points="408.33,-298.17 398.52,-294.17 403.7,-303.41 408.33,-298.17"/>
</a>
</g>
</g>
<!-- Node31 -->
<g id="Node000031" class="node">
<title>Node31</title>
<g id="a_Node000031"><a xlink:title=" ">
<polygon fill="#e0e0e0" stroke="#999999" points="541.2,-294 454.2,-294 454.2,-275 541.2,-275 541.2,-294"/>
<text text-anchor="middle" x="497.7" y="-282" font-family="Helvetica,sans-Serif" font-size="10.00">configvalues.h</text>
</a>
</g>
</g>
<!-- Node24&#45;&gt;Node31 -->
<g id="edge60_Node000024_Node000031" class="edge">
<title>Node24&#45;&gt;Node31</title>
<g id="a_edge60_Node000024_Node000031"><a xlink:title=" ">
<path fill="none" stroke="#63b8ff" d="M456.79,-329.75C463.86,-322.11 474.29,-310.82 482.85,-301.56"/>
<polygon fill="#63b8ff" stroke="#63b8ff" points="485.54,-303.81 489.76,-294.09 480.4,-299.06 485.54,-303.81"/>
</a>
</g>
</g>
<!-- Node26&#45;&gt;Node3 -->
<g id="edge44_Node000026_Node000003" class="edge">
<title>Node26&#45;&gt;Node3</title>
<g id="a_edge44_Node000026_Node000003"><a xlink:title=" ">
<path fill="none" stroke="#63b8ff" d="M773.92,-171.62C692.5,-167.29 497.93,-154.94 336.7,-129 335.63,-128.83 334.54,-128.64 333.44,-128.45"/>
<polygon fill="#63b8ff" stroke="#63b8ff" points="333.99,-124.98 323.5,-126.45 332.62,-131.85 333.99,-124.98"/>
</a>
</g>
</g>
<!-- Node26&#45;&gt;Node9 -->
<g id="edge45_Node000026_Node000009" class="edge">
<title>Node26&#45;&gt;Node9</title>
<g id="a_edge45_Node000026_Node000009"><a xlink:title=" ">
<path fill="none" stroke="#63b8ff" d="M851.48,-167.32C891.62,-159.08 945.85,-141.73 925.7,-110 894.91,-61.49 864.3,-69.52 808.7,-55 695.91,-25.53 331.89,-14.11 221.04,-11.26"/>
<polygon fill="#63b8ff" stroke="#63b8ff" points="220.91,-7.76 210.83,-11 220.73,-14.75 220.91,-7.76"/>
</a>
</g>
</g>
<!-- Node26&#45;&gt;Node10 -->
<g id="edge46_Node000026_Node000010" class="edge">
<title>Node26&#45;&gt;Node10</title>
<g id="a_edge46_Node000026_Node000010"><a xlink:title=" ">
<path fill="none" stroke="#63b8ff" d="M849.23,-164.97C884.31,-155 929.31,-136.43 909.7,-110 886.88,-79.24 843.39,-68.99 809.61,-65.92"/>
<polygon fill="#63b8ff" stroke="#63b8ff" points="809.7,-62.41 799.47,-65.18 809.19,-69.4 809.7,-62.41"/>
</a>
</g>
</g>
<!-- Node26&#45;&gt;Node21 -->
<g id="edge50_Node000026_Node000021" class="edge">
<title>Node26&#45;&gt;Node21</title>
<g id="a_edge50_Node000026_Node000021"><a xlink:title=" ">
<path fill="none" stroke="#63b8ff" d="M773.85,-168.61C699.15,-159.2 535.22,-138.57 448.34,-127.63"/>
<polygon fill="#63b8ff" stroke="#63b8ff" points="448.75,-124.15 438.39,-126.38 447.88,-131.1 448.75,-124.15"/>
</a>
</g>
</g>
<!-- Node26&#45;&gt;Node25 -->
<g id="edge49_Node000026_Node000025" class="edge">
<title>Node26&#45;&gt;Node25</title>
<g id="a_edge49_Node000026_Node000025"><a xlink:title=" ">
<path fill="none" stroke="#63b8ff" d="M801.94,-164.98C791.94,-157.07 776.82,-145.11 764.77,-135.58"/>
<polygon fill="#63b8ff" stroke="#63b8ff" points="766.68,-132.63 756.66,-129.17 762.34,-138.12 766.68,-132.63"/>
</a>
</g>
</g>
<!-- Node27 -->
<g id="Node000027" class="node">
<title>Node27</title>
<g id="a_Node000027"><a xlink:title=" ">
<polygon fill="#e0e0e0" stroke="#999999" points="838.7,-129 806.7,-129 806.7,-110 838.7,-110 838.7,-129"/>
<text text-anchor="middle" x="822.7" y="-117" font-family="Helvetica,sans-Serif" font-size="10.00">set</text>
</a>
</g>
</g>
<!-- Node26&#45;&gt;Node27 -->
<g id="edge47_Node000026_Node000027" class="edge">
<title>Node26&#45;&gt;Node27</title>
<g id="a_edge47_Node000026_Node000027"><a xlink:title=" ">
<path fill="none" stroke="#63b8ff" d="M814.35,-164.75C815.67,-157.8 817.54,-147.85 819.19,-139.13"/>
<polygon fill="#63b8ff" stroke="#63b8ff" points="822.67,-139.56 821.08,-129.09 815.79,-138.27 822.67,-139.56"/>
</a>
</g>
</g>
<!-- Node28 -->
<g id="Node000028" class="node">
<title>Node28</title>
<g id="a_Node000028"><a xlink:title=" ">
<polygon fill="#e0e0e0" stroke="#999999" points="684.7,-129 646.7,-129 646.7,-110 684.7,-110 684.7,-129"/>
<text text-anchor="middle" x="665.7" y="-117" font-family="Helvetica,sans-Serif" font-size="10.00">map</text>
</a>
</g>
</g>
<!-- Node26&#45;&gt;Node28 -->
<g id="edge48_Node000026_Node000028" class="edge">
<title>Node26&#45;&gt;Node28</title>
<g id="a_edge48_Node000026_Node000028"><a xlink:title=" ">
<path fill="none" stroke="#63b8ff" d="M789.09,-164.98C763.35,-155.71 722.18,-140.86 694.55,-130.9"/>
<polygon fill="#63b8ff" stroke="#63b8ff" points="695.63,-127.57 685.04,-127.47 693.26,-134.16 695.63,-127.57"/>
</a>
</g>
</g>
<!-- Node29 -->
<g id="Node000029" class="node">
<title>Node29</title>
<g id="a_Node000029"><a xlink:title=" ">
<polygon fill="#e0e0e0" stroke="#999999" points="900.2,-129 857.2,-129 857.2,-110 900.2,-110 900.2,-129"/>
<text text-anchor="middle" x="878.7" y="-117" font-family="Helvetica,sans-Serif" font-size="10.00">stack</text>
</a>
</g>
</g>
<!-- Node26&#45;&gt;Node29 -->
<g id="edge51_Node000026_Node000029" class="edge">
<title>Node26&#45;&gt;Node29</title>
<g id="a_edge51_Node000026_Node000029"><a xlink:title=" ">
<path fill="none" stroke="#63b8ff" d="M823.31,-164.98C833.16,-157.07 848.05,-145.11 859.92,-135.58"/>
<polygon fill="#63b8ff" stroke="#63b8ff" points="862.3,-138.16 867.91,-129.17 857.92,-132.7 862.3,-138.16"/>
</a>
</g>
</g>
<!-- Node30&#45;&gt;Node3 -->
<g id="edge55_Node000030_Node000003" class="edge">
<title>Node30&#45;&gt;Node3</title>
<g id="a_edge55_Node000030_Node000003"><a xlink:title=" ">
<path fill="none" stroke="#63b8ff" d="M380.79,-274.76C373.22,-266.11 361.78,-252.26 353.7,-239 333.21,-205.34 315.59,-162.58 306.43,-138.72"/>
<polygon fill="#63b8ff" stroke="#63b8ff" points="309.64,-137.31 302.84,-129.18 303.09,-139.78 309.64,-137.31"/>
</a>
</g>
</g>
<!-- Node30&#45;&gt;Node4 -->
<g id="edge57_Node000030_Node000004" class="edge">
<title>Node30&#45;&gt;Node4</title>
<g id="a_edge57_Node000030_Node000004"><a xlink:title=" ">
<path fill="none" stroke="#63b8ff" d="M411.27,-274.92C446.76,-260.54 516.24,-228.69 561.7,-184 574.99,-170.94 585.42,-152.3 591.96,-138.59"/>
<polygon fill="#63b8ff" stroke="#63b8ff" points="595.26,-139.8 596.19,-129.24 588.88,-136.91 595.26,-139.8"/>
</a>
</g>
</g>
<!-- Node30&#45;&gt;Node7 -->
<g id="edge58_Node000030_Node000007" class="edge">
<title>Node30&#45;&gt;Node7</title>
<g id="a_edge58_Node000030_Node000007"><a xlink:title=" ">
<path fill="none" stroke="#63b8ff" d="M355.45,-274.98C317.89,-265.37 256.96,-249.77 218.14,-239.83"/>
<polygon fill="#63b8ff" stroke="#63b8ff" points="218.85,-236.4 208.3,-237.31 217.12,-243.18 218.85,-236.4"/>
</a>
</g>
</g>
<!-- Node30&#45;&gt;Node20 -->
<g id="edge59_Node000030_Node000020" class="edge">
<title>Node30&#45;&gt;Node20</title>
<g id="a_edge59_Node000030_Node000020"><a xlink:title=" ">
<path fill="none" stroke="#63b8ff" d="M388.7,-274.75C388.7,-267.8 388.7,-257.85 388.7,-249.13"/>
<polygon fill="#63b8ff" stroke="#63b8ff" points="392.2,-249.09 388.7,-239.09 385.2,-249.09 392.2,-249.09"/>
</a>
</g>
</g>
<!-- Node30&#45;&gt;Node28 -->
<g id="edge56_Node000030_Node000028" class="edge">
<title>Node30&#45;&gt;Node28</title>
<g id="a_edge56_Node000030_Node000028"><a xlink:title=" ">
<path fill="none" stroke="#63b8ff" d="M422.06,-274.95C448.21,-267.49 485.02,-255.31 514.7,-239 568.46,-209.46 622.98,-161.13 649.38,-136.31"/>
<polygon fill="#63b8ff" stroke="#63b8ff" points="652.09,-138.56 656.92,-129.13 647.26,-133.49 652.09,-138.56"/>
</a>
</g>
</g>
</g>
</svg>
