<?xml version="1.0" encoding="UTF-8" standalone="no"?>
<!DOCTYPE svg PUBLIC "-//W3C//DTD SVG 1.1//EN"
 "http://www.w3.org/Graphics/SVG/1.1/DTD/svg11.dtd">
<!-- Generated by graphviz version 2.43.0 (0)
 -->
<!-- Title: /home/runner/work/doxygen/doxygen/src/membername.h Pages: 1 -->
<svg width="968pt" height="478pt"
 viewBox="0.00 0.00 968.30 478.00" xmlns="http://www.w3.org/2000/svg" xmlns:xlink="http://www.w3.org/1999/xlink">
<g id="graph0" class="graph" transform="scale(1 1) rotate(0) translate(4 474)">
<title>/home/runner/work/doxygen/doxygen/src/membername.h</title>
<!-- Node1 -->
<g id="Node000001" class="node">
<title>Node1</title>
<g id="a_Node000001"><a xlink:title=" ">
<polygon fill="#999999" stroke="#666666" points="775.97,-470 615.97,-470 615.97,-440 775.97,-440 775.97,-470"/>
<text text-anchor="start" x="623.97" y="-458" font-family="Helvetica,sans-Serif" font-size="10.00">/home/runner/work/doxygen</text>
<text text-anchor="middle" x="695.97" y="-447" font-family="Helvetica,sans-Serif" font-size="10.00">/doxygen/src/membername.h</text>
</a>
</g>
</g>
<!-- Node2 -->
<g id="Node000002" class="node">
<title>Node2</title>
<g id="a_Node000002"><a xlink:href="../../d4/d46/memberdef_8h.html" target="_top" xlink:title=" ">
<polygon fill="white" stroke="#666666" points="610.97,-404 528.97,-404 528.97,-385 610.97,-385 610.97,-404"/>
<text text-anchor="middle" x="569.97" y="-392" font-family="Helvetica,sans-Serif" font-size="10.00">memberdef.h</text>
</a>
</g>
</g>
<!-- Node1&#45;&gt;Node2 -->
<g id="edge1_Node000001_Node000002" class="edge">
<title>Node1&#45;&gt;Node2</title>
<g id="a_edge1_Node000001_Node000002"><a xlink:title=" ">
<path fill="none" stroke="#63b8ff" d="M665.79,-439.99C645.15,-430.4 617.98,-417.79 597.84,-408.44"/>
<polygon fill="#63b8ff" stroke="#63b8ff" points="599.13,-405.18 588.58,-404.14 596.18,-411.52 599.13,-405.18"/>
</a>
</g>
</g>
<!-- Node20 -->
<g id="Node000020" class="node">
<title>Node20</title>
<g id="a_Node000020"><a xlink:href="../../da/de1/linkedmap_8h.html" target="_top" xlink:title=" ">
<polygon fill="white" stroke="#666666" points="930.47,-184 853.47,-184 853.47,-165 930.47,-165 930.47,-184"/>
<text text-anchor="middle" x="891.97" y="-172" font-family="Helvetica,sans-Serif" font-size="10.00">linkedmap.h</text>
</a>
</g>
</g>
<!-- Node1&#45;&gt;Node20 -->
<g id="edge57_Node000001_Node000020" class="edge">
<title>Node1&#45;&gt;Node20</title>
<g id="a_edge57_Node000001_Node000020"><a xlink:title=" ">
<path fill="none" stroke="#63b8ff" d="M768.69,-439.96C820.85,-425.18 881.97,-396.01 881.97,-340.5 881.97,-340.5 881.97,-340.5 881.97,-283.5 881.97,-252.06 886.23,-215.68 889.19,-194.19"/>
<polygon fill="#63b8ff" stroke="#63b8ff" points="892.67,-194.55 890.63,-184.15 885.74,-193.56 892.67,-194.55"/>
</a>
</g>
</g>
<!-- Node3 -->
<g id="Node000003" class="node">
<title>Node3</title>
<g id="a_Node000003"><a xlink:title=" ">
<polygon fill="#e0e0e0" stroke="#999999" points="505.47,-129 458.47,-129 458.47,-110 505.47,-110 505.47,-129"/>
<text text-anchor="middle" x="481.97" y="-117" font-family="Helvetica,sans-Serif" font-size="10.00">vector</text>
</a>
</g>
</g>
<!-- Node2&#45;&gt;Node3 -->
<g id="edge2_Node000002_Node000003" class="edge">
<title>Node2&#45;&gt;Node3</title>
<g id="a_edge2_Node000002_Node000003"><a xlink:title=" ">
<path fill="none" stroke="#63b8ff" d="M528.71,-393.99C439.63,-392.44 233.75,-373.99 188.97,-239 182.12,-218.34 193.65,-170.2 198.97,-165 233.85,-130.95 381.23,-122.95 448.39,-121.08"/>
<polygon fill="#63b8ff" stroke="#63b8ff" points="448.54,-124.57 458.45,-120.82 448.36,-117.58 448.54,-124.57"/>
</a>
</g>
</g>
<!-- Node4 -->
<g id="Node000004" class="node">
<title>Node4</title>
<g id="a_Node000004"><a xlink:title=" ">
<polygon fill="#e0e0e0" stroke="#999999" points="105.97,-129 47.97,-129 47.97,-110 105.97,-110 105.97,-129"/>
<text text-anchor="middle" x="76.97" y="-117" font-family="Helvetica,sans-Serif" font-size="10.00">memory</text>
</a>
</g>
</g>
<!-- Node2&#45;&gt;Node4 -->
<g id="edge3_Node000002_Node000004" class="edge">
<title>Node2&#45;&gt;Node4</title>
<g id="a_edge3_Node000002_Node000004"><a xlink:title=" ">
<path fill="none" stroke="#63b8ff" d="M528.61,-392.81C407.42,-390.41 59.26,-380.79 19.97,-349 -2.92,-330.47 0.97,-314.96 0.97,-285.5 0.97,-285.5 0.97,-285.5 0.97,-228.5 0.97,-189.47 34.59,-154.58 57.11,-135.6"/>
<polygon fill="#63b8ff" stroke="#63b8ff" points="59.53,-138.14 65.1,-129.12 55.13,-132.7 59.53,-138.14"/>
</a>
</g>
</g>
<!-- Node5 -->
<g id="Node000005" class="node">
<title>Node5</title>
<g id="a_Node000005"><a xlink:title=" ">
<polygon fill="#e0e0e0" stroke="#999999" points="100.97,-349 28.97,-349 28.97,-330 100.97,-330 100.97,-349"/>
<text text-anchor="middle" x="64.97" y="-337" font-family="Helvetica,sans-Serif" font-size="10.00">sys/types.h</text>
</a>
</g>
</g>
<!-- Node2&#45;&gt;Node5 -->
<g id="edge4_Node000002_Node000005" class="edge">
<title>Node2&#45;&gt;Node5</title>
<g id="a_edge4_Node000002_Node000005"><a xlink:title=" ">
<path fill="none" stroke="#63b8ff" d="M528.77,-390.45C448.79,-384.33 267,-369.33 114.97,-349 113.7,-348.83 112.4,-348.65 111.1,-348.46"/>
<polygon fill="#63b8ff" stroke="#63b8ff" points="111.39,-344.97 100.98,-346.93 110.34,-351.89 111.39,-344.97"/>
</a>
</g>
</g>
<!-- Node6 -->
<g id="Node000006" class="node">
<title>Node6</title>
<g id="a_Node000006"><a xlink:href="../../d9/d49/types_8h.html" target="_top" xlink:title="This file contains a number of basic enums and types.">
<polygon fill="white" stroke="#666666" points="767.47,-239 714.47,-239 714.47,-220 767.47,-220 767.47,-239"/>
<text text-anchor="middle" x="740.97" y="-227" font-family="Helvetica,sans-Serif" font-size="10.00">types.h</text>
</a>
</g>
</g>
<!-- Node2&#45;&gt;Node6 -->
<g id="edge5_Node000002_Node000006" class="edge">
<title>Node2&#45;&gt;Node6</title>
<g id="a_edge5_Node000002_Node000006"><a xlink:title=" ">
<path fill="none" stroke="#63b8ff" d="M580.86,-384.9C601.79,-368.2 648.77,-329.86 684.97,-294 700.39,-278.73 716.66,-259.95 727.66,-246.79"/>
<polygon fill="#63b8ff" stroke="#63b8ff" points="730.39,-248.98 734.07,-239.04 725,-244.52 730.39,-248.98"/>
</a>
</g>
</g>
<!-- Node17 -->
<g id="Node000017" class="node">
<title>Node17</title>
<g id="a_Node000017"><a xlink:href="../../df/da1/definition_8h.html" target="_top" xlink:title=" ">
<polygon fill="white" stroke="#666666" points="675.47,-294 604.47,-294 604.47,-275 675.47,-275 675.47,-294"/>
<text text-anchor="middle" x="639.97" y="-282" font-family="Helvetica,sans-Serif" font-size="10.00">definition.h</text>
</a>
</g>
</g>
<!-- Node2&#45;&gt;Node17 -->
<g id="edge18_Node000002_Node000017" class="edge">
<title>Node2&#45;&gt;Node17</title>
<g id="a_edge18_Node000002_Node000017"><a xlink:title=" ">
<path fill="none" stroke="#63b8ff" d="M575.7,-384.66C587.3,-366.77 613.72,-326 628.83,-302.69"/>
<polygon fill="#63b8ff" stroke="#63b8ff" points="631.86,-304.45 634.36,-294.16 625.99,-300.65 631.86,-304.45"/>
</a>
</g>
</g>
<!-- Node21 -->
<g id="Node000021" class="node">
<title>Node21</title>
<g id="a_Node000021"><a xlink:href="../../df/d9b/arguments_8h.html" target="_top" xlink:title=" ">
<polygon fill="white" stroke="#666666" points="834.97,-184 756.97,-184 756.97,-165 834.97,-165 834.97,-184"/>
<text text-anchor="middle" x="795.97" y="-172" font-family="Helvetica,sans-Serif" font-size="10.00">arguments.h</text>
</a>
</g>
</g>
<!-- Node2&#45;&gt;Node21 -->
<g id="edge34_Node000002_Node000021" class="edge">
<title>Node2&#45;&gt;Node21</title>
<g id="a_edge34_Node000002_Node000021"><a xlink:title=" ">
<path fill="none" stroke="#63b8ff" d="M596.67,-384.87C646.82,-367 753.79,-320.66 794.97,-239 801.89,-225.29 801.58,-207.72 799.86,-194.53"/>
<polygon fill="#63b8ff" stroke="#63b8ff" points="803.24,-193.56 798.13,-184.28 796.34,-194.72 803.24,-193.56"/>
</a>
</g>
</g>
<!-- Node22 -->
<g id="Node000022" class="node">
<title>Node22</title>
<g id="a_Node000022"><a xlink:href="../../d1/da6/classdef_8h.html" target="_top" xlink:title=" ">
<polygon fill="white" stroke="#666666" points="527.47,-349 462.47,-349 462.47,-330 527.47,-330 527.47,-349"/>
<text text-anchor="middle" x="494.97" y="-337" font-family="Helvetica,sans-Serif" font-size="10.00">classdef.h</text>
</a>
</g>
</g>
<!-- Node2&#45;&gt;Node22 -->
<g id="edge37_Node000002_Node000022" class="edge">
<title>Node2&#45;&gt;Node22</title>
<g id="a_edge37_Node000002_Node000022"><a xlink:title=" ">
<path fill="none" stroke="#63b8ff" d="M557.92,-384.98C546.51,-376.92 529.14,-364.65 515.54,-355.03"/>
<polygon fill="#63b8ff" stroke="#63b8ff" points="517.43,-352.08 507.24,-349.17 513.39,-357.8 517.43,-352.08"/>
</a>
</g>
</g>
<!-- Node7 -->
<g id="Node000007" class="node">
<title>Node7</title>
<g id="a_Node000007"><a xlink:href="../../d7/d5c/qcstring_8h.html" target="_top" xlink:title=" ">
<polygon fill="white" stroke="#666666" points="761.47,-129 696.47,-129 696.47,-110 761.47,-110 761.47,-129"/>
<text text-anchor="middle" x="728.97" y="-117" font-family="Helvetica,sans-Serif" font-size="10.00">qcstring.h</text>
</a>
</g>
</g>
<!-- Node6&#45;&gt;Node7 -->
<g id="edge6_Node000006_Node000007" class="edge">
<title>Node6&#45;&gt;Node7</title>
<g id="a_edge6_Node000006_Node000007"><a xlink:title=" ">
<path fill="none" stroke="#63b8ff" d="M739.99,-219.66C738.05,-202.17 733.68,-162.8 731.06,-139.27"/>
<polygon fill="#63b8ff" stroke="#63b8ff" points="734.52,-138.71 729.94,-129.16 727.56,-139.48 734.52,-138.71"/>
</a>
</g>
</g>
<!-- Node8 -->
<g id="Node000008" class="node">
<title>Node8</title>
<g id="a_Node000008"><a xlink:title=" ">
<polygon fill="#e0e0e0" stroke="#999999" points="659.97,-19 615.97,-19 615.97,0 659.97,0 659.97,-19"/>
<text text-anchor="middle" x="637.97" y="-7" font-family="Helvetica,sans-Serif" font-size="10.00">string</text>
</a>
</g>
</g>
<!-- Node7&#45;&gt;Node8 -->
<g id="edge7_Node000007_Node000008" class="edge">
<title>Node7&#45;&gt;Node8</title>
<g id="a_edge7_Node000007_Node000008"><a xlink:title=" ">
<path fill="none" stroke="#63b8ff" d="M739.62,-109.9C753.87,-97.31 775.95,-73.39 762.97,-55 742.16,-25.5 699.97,-15.44 670.39,-12.08"/>
<polygon fill="#63b8ff" stroke="#63b8ff" points="670.4,-8.56 660.12,-11.12 669.75,-15.53 670.4,-8.56"/>
</a>
</g>
</g>
<!-- Node9 -->
<g id="Node000009" class="node">
<title>Node9</title>
<g id="a_Node000009"><a xlink:title=" ">
<polygon fill="#e0e0e0" stroke="#999999" points="873.97,-74 809.97,-74 809.97,-55 873.97,-55 873.97,-74"/>
<text text-anchor="middle" x="841.97" y="-62" font-family="Helvetica,sans-Serif" font-size="10.00">algorithm</text>
</a>
</g>
</g>
<!-- Node7&#45;&gt;Node9 -->
<g id="edge8_Node000007_Node000009" class="edge">
<title>Node7&#45;&gt;Node9</title>
<g id="a_edge8_Node000007_Node000009"><a xlink:title=" ">
<path fill="none" stroke="#63b8ff" d="M747.13,-109.98C765.23,-101.5 793.26,-88.35 814.16,-78.54"/>
<polygon fill="#63b8ff" stroke="#63b8ff" points="815.92,-81.59 823.49,-74.17 812.95,-75.25 815.92,-81.59"/>
</a>
</g>
</g>
<!-- Node10 -->
<g id="Node000010" class="node">
<title>Node10</title>
<g id="a_Node000010"><a xlink:title=" ">
<polygon fill="#e0e0e0" stroke="#999999" points="941.47,-74 892.47,-74 892.47,-55 941.47,-55 941.47,-74"/>
<text text-anchor="middle" x="916.97" y="-62" font-family="Helvetica,sans-Serif" font-size="10.00">cctype</text>
</a>
</g>
</g>
<!-- Node7&#45;&gt;Node10 -->
<g id="edge9_Node000007_Node000010" class="edge">
<title>Node7&#45;&gt;Node10</title>
<g id="a_edge9_Node000007_Node000010"><a xlink:title=" ">
<path fill="none" stroke="#63b8ff" d="M759.18,-109.98C792.81,-100.5 847.07,-85.21 882.38,-75.25"/>
<polygon fill="#63b8ff" stroke="#63b8ff" points="883.57,-78.55 892.25,-72.47 881.67,-71.82 883.57,-78.55"/>
</a>
</g>
</g>
<!-- Node11 -->
<g id="Node000011" class="node">
<title>Node11</title>
<g id="a_Node000011"><a xlink:title=" ">
<polygon fill="#e0e0e0" stroke="#999999" points="621.97,-74 571.97,-74 571.97,-55 621.97,-55 621.97,-74"/>
<text text-anchor="middle" x="596.97" y="-62" font-family="Helvetica,sans-Serif" font-size="10.00">cstring</text>
</a>
</g>
</g>
<!-- Node7&#45;&gt;Node11 -->
<g id="edge10_Node000007_Node000011" class="edge">
<title>Node7&#45;&gt;Node11</title>
<g id="a_edge10_Node000007_Node000011"><a xlink:title=" ">
<path fill="none" stroke="#63b8ff" d="M707.77,-109.98C686.24,-101.34 652.69,-87.87 628.15,-78.02"/>
<polygon fill="#63b8ff" stroke="#63b8ff" points="629.15,-74.65 618.57,-74.17 626.54,-81.14 629.15,-74.65"/>
</a>
</g>
</g>
<!-- Node12 -->
<g id="Node000012" class="node">
<title>Node12</title>
<g id="a_Node000012"><a xlink:title=" ">
<polygon fill="#e0e0e0" stroke="#999999" points="685.97,-74 639.97,-74 639.97,-55 685.97,-55 685.97,-74"/>
<text text-anchor="middle" x="662.97" y="-62" font-family="Helvetica,sans-Serif" font-size="10.00">cstdio</text>
</a>
</g>
</g>
<!-- Node7&#45;&gt;Node12 -->
<g id="edge11_Node000007_Node000012" class="edge">
<title>Node7&#45;&gt;Node12</title>
<g id="a_edge11_Node000007_Node000012"><a xlink:title=" ">
<path fill="none" stroke="#63b8ff" d="M718.37,-109.98C708.52,-102.07 693.62,-90.11 681.76,-80.58"/>
<polygon fill="#63b8ff" stroke="#63b8ff" points="683.76,-77.7 673.77,-74.17 679.38,-83.16 683.76,-77.7"/>
</a>
</g>
</g>
<!-- Node13 -->
<g id="Node000013" class="node">
<title>Node13</title>
<g id="a_Node000013"><a xlink:title=" ">
<polygon fill="#e0e0e0" stroke="#999999" points="753.47,-74 704.47,-74 704.47,-55 753.47,-55 753.47,-74"/>
<text text-anchor="middle" x="728.97" y="-62" font-family="Helvetica,sans-Serif" font-size="10.00">cstdlib</text>
</a>
</g>
</g>
<!-- Node7&#45;&gt;Node13 -->
<g id="edge12_Node000007_Node000013" class="edge">
<title>Node7&#45;&gt;Node13</title>
<g id="a_edge12_Node000007_Node000013"><a xlink:title=" ">
<path fill="none" stroke="#63b8ff" d="M728.97,-109.75C728.97,-102.8 728.97,-92.85 728.97,-84.13"/>
<polygon fill="#63b8ff" stroke="#63b8ff" points="732.47,-84.09 728.97,-74.09 725.47,-84.09 732.47,-84.09"/>
</a>
</g>
</g>
<!-- Node14 -->
<g id="Node000014" class="node">
<title>Node14</title>
<g id="a_Node000014"><a xlink:title=" ">
<polygon fill="#e0e0e0" stroke="#999999" points="454.97,-19 404.97,-19 404.97,0 454.97,0 454.97,-19"/>
<text text-anchor="middle" x="429.97" y="-7" font-family="Helvetica,sans-Serif" font-size="10.00">cstdint</text>
</a>
</g>
</g>
<!-- Node7&#45;&gt;Node14 -->
<g id="edge13_Node000007_Node000014" class="edge">
<title>Node7&#45;&gt;Node14</title>
<g id="a_edge13_Node000007_Node000014"><a xlink:title=" ">
<path fill="none" stroke="#63b8ff" d="M696.45,-111.71C693.26,-111.1 690.06,-110.52 686.97,-110 628.81,-100.14 462.76,-118.45 423.97,-74 413.3,-61.77 416.82,-42.71 421.78,-28.67"/>
<polygon fill="#63b8ff" stroke="#63b8ff" points="425.14,-29.68 425.64,-19.1 418.65,-27.06 425.14,-29.68"/>
</a>
</g>
</g>
<!-- Node15 -->
<g id="Node000015" class="node">
<title>Node15</title>
<g id="a_Node000015"><a xlink:title=" ">
<polygon fill="#e0e0e0" stroke="#999999" points="553.47,-74 496.47,-74 496.47,-55 553.47,-55 553.47,-74"/>
<text text-anchor="middle" x="524.97" y="-62" font-family="Helvetica,sans-Serif" font-size="10.00">ostream</text>
</a>
</g>
</g>
<!-- Node7&#45;&gt;Node15 -->
<g id="edge14_Node000007_Node000015" class="edge">
<title>Node7&#45;&gt;Node15</title>
<g id="a_edge14_Node000007_Node000015"><a xlink:title=" ">
<path fill="none" stroke="#63b8ff" d="M696.2,-109.98C660.01,-100.58 601.82,-85.46 563.48,-75.5"/>
<polygon fill="#63b8ff" stroke="#63b8ff" points="564.27,-72.09 553.71,-72.97 562.51,-78.87 564.27,-72.09"/>
</a>
</g>
</g>
<!-- Node16 -->
<g id="Node000016" class="node">
<title>Node16</title>
<g id="a_Node000016"><a xlink:href="../../db/d7c/utf8_8h.html" target="_top" xlink:title="Various UTF8 related helper functions.">
<polygon fill="white" stroke="#666666" points="478.47,-74 433.47,-74 433.47,-55 478.47,-55 478.47,-74"/>
<text text-anchor="middle" x="455.97" y="-62" font-family="Helvetica,sans-Serif" font-size="10.00">utf8.h</text>
</a>
</g>
</g>
<!-- Node7&#45;&gt;Node16 -->
<g id="edge15_Node000007_Node000016" class="edge">
<title>Node7&#45;&gt;Node16</title>
<g id="a_edge15_Node000007_Node000016"><a xlink:title=" ">
<path fill="none" stroke="#63b8ff" d="M696.43,-111.84C693.24,-111.21 690.04,-110.59 686.97,-110 601.38,-93.64 576.77,-93.92 488.51,-74.19"/>
<polygon fill="#63b8ff" stroke="#63b8ff" points="489.13,-70.75 478.6,-71.96 487.59,-77.57 489.13,-70.75"/>
</a>
</g>
</g>
<!-- Node16&#45;&gt;Node8 -->
<g id="edge17_Node000016_Node000008" class="edge">
<title>Node16&#45;&gt;Node8</title>
<g id="a_edge17_Node000016_Node000008"><a xlink:title=" ">
<path fill="none" stroke="#63b8ff" d="M478.66,-56.89C510.8,-47.54 569.73,-30.37 606.21,-19.75"/>
<polygon fill="#63b8ff" stroke="#63b8ff" points="607.24,-23.1 615.86,-16.94 605.28,-16.38 607.24,-23.1"/>
</a>
</g>
</g>
<!-- Node16&#45;&gt;Node14 -->
<g id="edge16_Node000016_Node000014" class="edge">
<title>Node16&#45;&gt;Node14</title>
<g id="a_edge16_Node000016_Node000014"><a xlink:title=" ">
<path fill="none" stroke="#63b8ff" d="M451.68,-54.75C448.16,-47.57 443.06,-37.18 438.69,-28.27"/>
<polygon fill="#63b8ff" stroke="#63b8ff" points="441.73,-26.53 434.19,-19.09 435.45,-29.61 441.73,-26.53"/>
</a>
</g>
</g>
<!-- Node17&#45;&gt;Node3 -->
<g id="edge19_Node000017_Node000003" class="edge">
<title>Node17&#45;&gt;Node3</title>
<g id="a_edge19_Node000017_Node000003"><a xlink:title=" ">
<path fill="none" stroke="#63b8ff" d="M631.48,-274.74C606.08,-248.53 530.45,-170.51 497.55,-136.57"/>
<polygon fill="#63b8ff" stroke="#63b8ff" points="499.98,-134.05 490.51,-129.31 494.96,-138.92 499.98,-134.05"/>
</a>
</g>
</g>
<!-- Node17&#45;&gt;Node6 -->
<g id="edge20_Node000017_Node000006" class="edge">
<title>Node17&#45;&gt;Node6</title>
<g id="a_edge20_Node000017_Node000006"><a xlink:title=" ">
<path fill="none" stroke="#63b8ff" d="M656.2,-274.98C672.16,-266.61 696.75,-253.7 715.35,-243.95"/>
<polygon fill="#63b8ff" stroke="#63b8ff" points="717.22,-246.92 724.45,-239.17 713.97,-240.72 717.22,-246.92"/>
</a>
</g>
</g>
<!-- Node18 -->
<g id="Node000018" class="node">
<title>Node18</title>
<g id="a_Node000018"><a xlink:href="../../d1/d02/reflist_8h.html" target="_top" xlink:title=" ">
<polygon fill="white" stroke="#666666" points="696.47,-239 643.47,-239 643.47,-220 696.47,-220 696.47,-239"/>
<text text-anchor="middle" x="669.97" y="-227" font-family="Helvetica,sans-Serif" font-size="10.00">reflist.h</text>
</a>
</g>
</g>
<!-- Node17&#45;&gt;Node18 -->
<g id="edge21_Node000017_Node000018" class="edge">
<title>Node17&#45;&gt;Node18</title>
<g id="a_edge21_Node000017_Node000018"><a xlink:title=" ">
<path fill="none" stroke="#63b8ff" d="M644.93,-274.75C649.04,-267.49 655,-256.95 660.08,-247.98"/>
<polygon fill="#63b8ff" stroke="#63b8ff" points="663.23,-249.52 665.11,-239.09 657.14,-246.07 663.23,-249.52"/>
</a>
</g>
</g>
<!-- Node18&#45;&gt;Node3 -->
<g id="edge22_Node000018_Node000003" class="edge">
<title>Node18&#45;&gt;Node3</title>
<g id="a_edge22_Node000018_Node000003"><a xlink:title=" ">
<path fill="none" stroke="#63b8ff" d="M660.91,-219.72C646.86,-206.49 618.57,-181.25 590.97,-165 567,-150.88 537.69,-139.19 515.51,-131.34"/>
<polygon fill="#63b8ff" stroke="#63b8ff" points="516.46,-127.97 505.86,-128.01 514.17,-134.58 516.46,-127.97"/>
</a>
</g>
</g>
<!-- Node18&#45;&gt;Node4 -->
<g id="edge24_Node000018_Node000004" class="edge">
<title>Node18&#45;&gt;Node4</title>
<g id="a_edge24_Node000018_Node000004"><a xlink:title=" ">
<path fill="none" stroke="#63b8ff" d="M643.34,-223.65C548.71,-206.42 228.38,-148.07 116.18,-127.64"/>
<polygon fill="#63b8ff" stroke="#63b8ff" points="116.76,-124.19 106.3,-125.84 115.51,-131.08 116.76,-124.19"/>
</a>
</g>
</g>
<!-- Node18&#45;&gt;Node7 -->
<g id="edge25_Node000018_Node000007" class="edge">
<title>Node18&#45;&gt;Node7</title>
<g id="a_edge25_Node000018_Node000007"><a xlink:title=" ">
<path fill="none" stroke="#63b8ff" d="M674.8,-219.66C684.53,-201.85 706.65,-161.37 719.41,-138.01"/>
<polygon fill="#63b8ff" stroke="#63b8ff" points="722.52,-139.61 724.24,-129.16 716.38,-136.26 722.52,-139.61"/>
</a>
</g>
</g>
<!-- Node19 -->
<g id="Node000019" class="node">
<title>Node19</title>
<g id="a_Node000019"><a xlink:title=" ">
<polygon fill="#e0e0e0" stroke="#999999" points="678.47,-129 585.47,-129 585.47,-110 678.47,-110 678.47,-129"/>
<text text-anchor="middle" x="631.97" y="-117" font-family="Helvetica,sans-Serif" font-size="10.00">unordered_map</text>
</a>
</g>
</g>
<!-- Node18&#45;&gt;Node19 -->
<g id="edge23_Node000018_Node000019" class="edge">
<title>Node18&#45;&gt;Node19</title>
<g id="a_edge23_Node000018_Node000019"><a xlink:title=" ">
<path fill="none" stroke="#63b8ff" d="M666.86,-219.66C660.65,-202.01 646.61,-162.09 638.36,-138.64"/>
<polygon fill="#63b8ff" stroke="#63b8ff" points="641.64,-137.43 635.02,-129.16 635.04,-139.75 641.64,-137.43"/>
</a>
</g>
</g>
<!-- Node18&#45;&gt;Node20 -->
<g id="edge26_Node000018_Node000020" class="edge">
<title>Node18&#45;&gt;Node20</title>
<g id="a_edge26_Node000018_Node000020"><a xlink:title=" ">
<path fill="none" stroke="#63b8ff" d="M696.75,-222.11C733.85,-213.25 801.39,-197.13 846.48,-186.36"/>
<polygon fill="#63b8ff" stroke="#63b8ff" points="847.39,-189.74 856.3,-184.02 845.76,-182.93 847.39,-189.74"/>
</a>
</g>
</g>
<!-- Node20&#45;&gt;Node3 -->
<g id="edge28_Node000020_Node000003" class="edge">
<title>Node20&#45;&gt;Node3</title>
<g id="a_edge28_Node000020_Node000003"><a xlink:title=" ">
<path fill="none" stroke="#63b8ff" d="M853.23,-166.46C850.1,-165.94 846.99,-165.45 843.97,-165 723.56,-146.95 579.79,-130.91 515.7,-124.04"/>
<polygon fill="#63b8ff" stroke="#63b8ff" points="516.07,-120.56 505.75,-122.98 515.32,-127.52 516.07,-120.56"/>
</a>
</g>
</g>
<!-- Node20&#45;&gt;Node4 -->
<g id="edge29_Node000020_Node000004" class="edge">
<title>Node20&#45;&gt;Node4</title>
<g id="a_edge29_Node000020_Node000004"><a xlink:title=" ">
<path fill="none" stroke="#63b8ff" d="M853.26,-166.24C850.12,-165.78 847,-165.35 843.97,-165 566.44,-132.49 229.51,-123.39 116.24,-121.15"/>
<polygon fill="#63b8ff" stroke="#63b8ff" points="116.05,-117.65 105.99,-120.96 115.92,-124.65 116.05,-117.65"/>
</a>
</g>
</g>
<!-- Node20&#45;&gt;Node7 -->
<g id="edge33_Node000020_Node000007" class="edge">
<title>Node20&#45;&gt;Node7</title>
<g id="a_edge33_Node000020_Node000007"><a xlink:title=" ">
<path fill="none" stroke="#63b8ff" d="M865.79,-164.98C838.54,-156.13 795.67,-142.19 765.19,-132.28"/>
<polygon fill="#63b8ff" stroke="#63b8ff" points="765.96,-128.85 755.37,-129.08 763.8,-135.5 765.96,-128.85"/>
</a>
</g>
</g>
<!-- Node20&#45;&gt;Node8 -->
<g id="edge30_Node000020_Node000008" class="edge">
<title>Node20&#45;&gt;Node8</title>
<g id="a_edge30_Node000020_Node000008"><a xlink:title=" ">
<path fill="none" stroke="#63b8ff" d="M902.45,-164.9C926.54,-144.1 981.55,-90.23 950.97,-55 914.87,-13.4 743,-9.68 670.43,-10.01"/>
<polygon fill="#63b8ff" stroke="#63b8ff" points="670.04,-6.51 660.07,-10.09 670.1,-13.51 670.04,-6.51"/>
</a>
</g>
</g>
<!-- Node20&#45;&gt;Node9 -->
<g id="edge31_Node000020_Node000009" class="edge">
<title>Node20&#45;&gt;Node9</title>
<g id="a_edge31_Node000020_Node000009"><a xlink:title=" ">
<path fill="none" stroke="#63b8ff" d="M887.88,-164.66C879.68,-146.93 861.06,-106.73 850.22,-83.32"/>
<polygon fill="#63b8ff" stroke="#63b8ff" points="853.36,-81.76 845.98,-74.16 847.01,-84.7 853.36,-81.76"/>
</a>
</g>
</g>
<!-- Node20&#45;&gt;Node10 -->
<g id="edge32_Node000020_Node000010" class="edge">
<title>Node20&#45;&gt;Node10</title>
<g id="a_edge32_Node000020_Node000010"><a xlink:title=" ">
<path fill="none" stroke="#63b8ff" d="M894.02,-164.66C898.09,-147.09 907.26,-107.45 912.7,-83.95"/>
<polygon fill="#63b8ff" stroke="#63b8ff" points="916.13,-84.69 914.97,-74.16 909.31,-83.11 916.13,-84.69"/>
</a>
</g>
</g>
<!-- Node20&#45;&gt;Node19 -->
<g id="edge27_Node000020_Node000019" class="edge">
<title>Node20&#45;&gt;Node19</title>
<g id="a_edge27_Node000020_Node000019"><a xlink:title=" ">
<path fill="none" stroke="#63b8ff" d="M853.33,-165.62C808.33,-156.45 733.81,-141.26 683.82,-131.07"/>
<polygon fill="#63b8ff" stroke="#63b8ff" points="684.35,-127.6 673.85,-129.04 682.95,-134.46 684.35,-127.6"/>
</a>
</g>
</g>
<!-- Node21&#45;&gt;Node3 -->
<g id="edge35_Node000021_Node000003" class="edge">
<title>Node21&#45;&gt;Node3</title>
<g id="a_edge35_Node000021_Node000003"><a xlink:title=" ">
<path fill="none" stroke="#63b8ff" d="M756.84,-166.89C694.65,-156.4 574.31,-136.09 515.7,-126.19"/>
<polygon fill="#63b8ff" stroke="#63b8ff" points="516.28,-122.74 505.83,-124.53 515.11,-129.64 516.28,-122.74"/>
</a>
</g>
</g>
<!-- Node21&#45;&gt;Node7 -->
<g id="edge36_Node000021_Node000007" class="edge">
<title>Node21&#45;&gt;Node7</title>
<g id="a_edge36_Node000021_Node000007"><a xlink:title=" ">
<path fill="none" stroke="#63b8ff" d="M785.21,-164.98C775.21,-157.07 760.09,-145.11 748.04,-135.58"/>
<polygon fill="#63b8ff" stroke="#63b8ff" points="749.95,-132.63 739.94,-129.17 745.61,-138.12 749.95,-132.63"/>
</a>
</g>
</g>
<!-- Node22&#45;&gt;Node3 -->
<g id="edge39_Node000022_Node000003" class="edge">
<title>Node22&#45;&gt;Node3</title>
<g id="a_edge39_Node000022_Node000003"><a xlink:title=" ">
<path fill="none" stroke="#63b8ff" d="M462.39,-339.39C398.26,-339.1 257,-327.9 200.97,-239 142.64,-146.45 361.55,-126.1 448.15,-121.69"/>
<polygon fill="#63b8ff" stroke="#63b8ff" points="448.44,-125.19 458.26,-121.22 448.11,-118.19 448.44,-125.19"/>
</a>
</g>
</g>
<!-- Node22&#45;&gt;Node4 -->
<g id="edge38_Node000022_Node000004" class="edge">
<title>Node22&#45;&gt;Node4</title>
<g id="a_edge38_Node000022_Node000004"><a xlink:title=" ">
<path fill="none" stroke="#63b8ff" d="M462.36,-335.76C400.64,-330.13 269.43,-315.92 229.97,-294 160.99,-255.66 107.75,-173.94 86.74,-138.04"/>
<polygon fill="#63b8ff" stroke="#63b8ff" points="89.69,-136.14 81.68,-129.2 83.61,-139.62 89.69,-136.14"/>
</a>
</g>
</g>
<!-- Node22&#45;&gt;Node17 -->
<g id="edge49_Node000022_Node000017" class="edge">
<title>Node22&#45;&gt;Node17</title>
<g id="a_edge49_Node000022_Node000017"><a xlink:title=" ">
<path fill="none" stroke="#63b8ff" d="M518.27,-329.98C542.23,-321.23 579.76,-307.51 606.81,-297.62"/>
<polygon fill="#63b8ff" stroke="#63b8ff" points="608.06,-300.89 616.25,-294.17 605.66,-294.32 608.06,-300.89"/>
</a>
</g>
</g>
<!-- Node22&#45;&gt;Node21 -->
<g id="edge50_Node000022_Node000021" class="edge">
<title>Node22&#45;&gt;Node21</title>
<g id="a_edge50_Node000022_Node000021"><a xlink:title=" ">
<path fill="none" stroke="#63b8ff" d="M527.5,-334.01C566.1,-327.99 631.9,-315.47 684.97,-294 729.14,-276.13 747.72,-276.59 776.97,-239 787.02,-226.09 791.77,-207.93 794.01,-194.34"/>
<polygon fill="#63b8ff" stroke="#63b8ff" points="797.5,-194.58 795.35,-184.21 790.57,-193.66 797.5,-194.58"/>
</a>
</g>
</g>
<!-- Node23 -->
<g id="Node000023" class="node">
<title>Node23</title>
<g id="a_Node000023"><a xlink:title=" ">
<polygon fill="#e0e0e0" stroke="#999999" points="454.97,-239 422.97,-239 422.97,-220 454.97,-220 454.97,-239"/>
<text text-anchor="middle" x="438.97" y="-227" font-family="Helvetica,sans-Serif" font-size="10.00">set</text>
</a>
</g>
</g>
<!-- Node22&#45;&gt;Node23 -->
<g id="edge40_Node000022_Node000023" class="edge">
<title>Node22&#45;&gt;Node23</title>
<g id="a_edge40_Node000022_Node000023"><a xlink:title=" ">
<path fill="none" stroke="#63b8ff" d="M490.39,-329.66C481.2,-311.93 460.35,-271.73 448.21,-248.32"/>
<polygon fill="#63b8ff" stroke="#63b8ff" points="451.17,-246.42 443.46,-239.16 444.96,-249.65 451.17,-246.42"/>
</a>
</g>
</g>
<!-- Node24 -->
<g id="Node000024" class="node">
<title>Node24</title>
<g id="a_Node000024"><a xlink:href="../../d5/d75/containers_8h.html" target="_top" xlink:title=" ">
<polygon fill="white" stroke="#666666" points="402.47,-294 325.47,-294 325.47,-275 402.47,-275 402.47,-294"/>
<text text-anchor="middle" x="363.97" y="-282" font-family="Helvetica,sans-Serif" font-size="10.00">containers.h</text>
</a>
</g>
</g>
<!-- Node22&#45;&gt;Node24 -->
<g id="edge41_Node000022_Node000024" class="edge">
<title>Node22&#45;&gt;Node24</title>
<g id="a_edge41_Node000022_Node000024"><a xlink:title=" ">
<path fill="none" stroke="#63b8ff" d="M473.93,-329.98C452.57,-321.34 419.27,-307.87 394.91,-298.02"/>
<polygon fill="#63b8ff" stroke="#63b8ff" points="395.99,-294.68 385.41,-294.17 393.36,-301.17 395.99,-294.68"/>
</a>
</g>
</g>
<!-- Node28 -->
<g id="Node000028" class="node">
<title>Node28</title>
<g id="a_Node000028"><a xlink:href="../../d9/d11/membergroup_8h.html" target="_top" xlink:title=" ">
<polygon fill="white" stroke="#666666" points="586.47,-294 491.47,-294 491.47,-275 586.47,-275 586.47,-294"/>
<text text-anchor="middle" x="538.97" y="-282" font-family="Helvetica,sans-Serif" font-size="10.00">membergroup.h</text>
</a>
</g>
</g>
<!-- Node22&#45;&gt;Node28 -->
<g id="edge51_Node000022_Node000028" class="edge">
<title>Node22&#45;&gt;Node28</title>
<g id="a_edge51_Node000022_Node000028"><a xlink:title=" ">
<path fill="none" stroke="#63b8ff" d="M502.24,-329.75C508.52,-322.18 517.76,-311.05 525.41,-301.84"/>
<polygon fill="#63b8ff" stroke="#63b8ff" points="528.15,-304.02 531.84,-294.09 522.76,-299.55 528.15,-304.02"/>
</a>
</g>
</g>
<!-- Node24&#45;&gt;Node3 -->
<g id="edge42_Node000024_Node000003" class="edge">
<title>Node24&#45;&gt;Node3</title>
<g id="a_edge42_Node000024_Node000003"><a xlink:title=" ">
<path fill="none" stroke="#63b8ff" d="M325.25,-281.46C270.38,-277.04 179.82,-263.14 209.97,-220 264.73,-141.66 388.14,-124.8 448.06,-121.31"/>
<polygon fill="#63b8ff" stroke="#63b8ff" points="448.32,-124.8 458.13,-120.82 447.97,-117.81 448.32,-124.8"/>
</a>
</g>
</g>
<!-- Node24&#45;&gt;Node8 -->
<g id="edge43_Node000024_Node000008" class="edge">
<title>Node24&#45;&gt;Node8</title>
<g id="a_edge43_Node000024_Node000008"><a xlink:title=" ">
<path fill="none" stroke="#63b8ff" d="M325.28,-278.25C221.91,-262.72 -47.15,-211.61 38.97,-110 76.23,-66.04 486.81,-24.59 605.82,-13.43"/>
<polygon fill="#63b8ff" stroke="#63b8ff" points="606.15,-16.91 615.78,-12.5 605.5,-9.94 606.15,-16.91"/>
</a>
</g>
</g>
<!-- Node24&#45;&gt;Node19 -->
<g id="edge47_Node000024_Node000019" class="edge">
<title>Node24&#45;&gt;Node19</title>
<g id="a_edge47_Node000024_Node000019"><a xlink:title=" ">
<path fill="none" stroke="#63b8ff" d="M369.06,-274.6C377.09,-261.22 393.89,-235.78 413.97,-220 469.29,-176.54 546.64,-147.08 592.79,-132.09"/>
<polygon fill="#63b8ff" stroke="#63b8ff" points="593.95,-135.39 602.42,-129.02 591.83,-128.72 593.95,-135.39"/>
</a>
</g>
</g>
<!-- Node24&#45;&gt;Node23 -->
<g id="edge44_Node000024_Node000023" class="edge">
<title>Node24&#45;&gt;Node23</title>
<g id="a_edge44_Node000024_Node000023"><a xlink:title=" ">
<path fill="none" stroke="#63b8ff" d="M376.02,-274.98C387.44,-266.92 404.81,-254.65 418.41,-245.03"/>
<polygon fill="#63b8ff" stroke="#63b8ff" points="420.56,-247.8 426.71,-239.17 416.52,-242.08 420.56,-247.8"/>
</a>
</g>
</g>
<!-- Node25 -->
<g id="Node000025" class="node">
<title>Node25</title>
<g id="a_Node000025"><a xlink:title=" ">
<polygon fill="#e0e0e0" stroke="#999999" points="510.97,-239 472.97,-239 472.97,-220 510.97,-220 510.97,-239"/>
<text text-anchor="middle" x="491.97" y="-227" font-family="Helvetica,sans-Serif" font-size="10.00">map</text>
</a>
</g>
</g>
<!-- Node24&#45;&gt;Node25 -->
<g id="edge45_Node000024_Node000025" class="edge">
<title>Node24&#45;&gt;Node25</title>
<g id="a_edge45_Node000024_Node000025"><a xlink:title=" ">
<path fill="none" stroke="#63b8ff" d="M384.54,-274.98C405.91,-266.14 439.5,-252.23 463.43,-242.32"/>
<polygon fill="#63b8ff" stroke="#63b8ff" points="464.82,-245.53 472.72,-238.47 462.14,-239.07 464.82,-245.53"/>
</a>
</g>
</g>
<!-- Node26 -->
<g id="Node000026" class="node">
<title>Node26</title>
<g id="a_Node000026"><a xlink:title=" ">
<polygon fill="#e0e0e0" stroke="#999999" points="304.97,-239 218.97,-239 218.97,-220 304.97,-220 304.97,-239"/>
<text text-anchor="middle" x="261.97" y="-227" font-family="Helvetica,sans-Serif" font-size="10.00">unordered_set</text>
</a>
</g>
</g>
<!-- Node24&#45;&gt;Node26 -->
<g id="edge46_Node000024_Node000026" class="edge">
<title>Node24&#45;&gt;Node26</title>
<g id="a_edge46_Node000024_Node000026"><a xlink:title=" ">
<path fill="none" stroke="#63b8ff" d="M347.59,-274.98C331.4,-266.57 306.41,-253.59 287.59,-243.81"/>
<polygon fill="#63b8ff" stroke="#63b8ff" points="289.15,-240.68 278.66,-239.17 285.92,-246.89 289.15,-240.68"/>
</a>
</g>
</g>
<!-- Node27 -->
<g id="Node000027" class="node">
<title>Node27</title>
<g id="a_Node000027"><a xlink:title=" ">
<polygon fill="#e0e0e0" stroke="#999999" points="366.47,-239 323.47,-239 323.47,-220 366.47,-220 366.47,-239"/>
<text text-anchor="middle" x="344.97" y="-227" font-family="Helvetica,sans-Serif" font-size="10.00">stack</text>
</a>
</g>
</g>
<!-- Node24&#45;&gt;Node27 -->
<g id="edge48_Node000024_Node000027" class="edge">
<title>Node24&#45;&gt;Node27</title>
<g id="a_edge48_Node000024_Node000027"><a xlink:title=" ">
<path fill="none" stroke="#63b8ff" d="M360.84,-274.75C358.29,-267.65 354.62,-257.4 351.45,-248.56"/>
<polygon fill="#63b8ff" stroke="#63b8ff" points="354.72,-247.32 348.05,-239.09 348.13,-249.68 354.72,-247.32"/>
</a>
</g>
</g>
<!-- Node28&#45;&gt;Node3 -->
<g id="edge52_Node000028_Node000003" class="edge">
<title>Node28&#45;&gt;Node3</title>
<g id="a_edge52_Node000028_Node000003"><a xlink:title=" ">
<path fill="none" stroke="#63b8ff" d="M544.69,-274.65C552.21,-261.77 563.35,-237.47 552.97,-220 535.92,-191.27 505.15,-212.04 486.97,-184 478.42,-170.8 477.83,-152.68 478.99,-139.17"/>
<polygon fill="#63b8ff" stroke="#63b8ff" points="482.48,-139.47 480.24,-129.12 475.53,-138.61 482.48,-139.47"/>
</a>
</g>
</g>
<!-- Node28&#45;&gt;Node4 -->
<g id="edge54_Node000028_Node000004" class="edge">
<title>Node28&#45;&gt;Node4</title>
<g id="a_edge54_Node000028_Node000004"><a xlink:title=" ">
<path fill="none" stroke="#63b8ff" d="M538.99,-274.68C538.5,-260.93 535.46,-234.44 519.97,-220 460.95,-164.95 212.87,-134.3 115.98,-124.24"/>
<polygon fill="#63b8ff" stroke="#63b8ff" points="116.31,-120.76 106.01,-123.23 115.6,-127.72 116.31,-120.76"/>
</a>
</g>
</g>
<!-- Node28&#45;&gt;Node6 -->
<g id="edge55_Node000028_Node000006" class="edge">
<title>Node28&#45;&gt;Node6</title>
<g id="a_edge55_Node000028_Node000006"><a xlink:title=" ">
<path fill="none" stroke="#63b8ff" d="M571.43,-274.98C607.72,-265.46 666.37,-250.08 704.29,-240.12"/>
<polygon fill="#63b8ff" stroke="#63b8ff" points="705.62,-243.39 714.4,-237.47 703.84,-236.62 705.62,-243.39"/>
</a>
</g>
</g>
<!-- Node28&#45;&gt;Node18 -->
<g id="edge56_Node000028_Node000018" class="edge">
<title>Node28&#45;&gt;Node18</title>
<g id="a_edge56_Node000028_Node000018"><a xlink:title=" ">
<path fill="none" stroke="#63b8ff" d="M560.02,-274.98C581.38,-266.34 614.68,-252.87 639.04,-243.02"/>
<polygon fill="#63b8ff" stroke="#63b8ff" points="640.59,-246.17 648.54,-239.17 637.96,-239.68 640.59,-246.17"/>
</a>
</g>
</g>
<!-- Node28&#45;&gt;Node25 -->
<g id="edge53_Node000028_Node000025" class="edge">
<title>Node28&#45;&gt;Node25</title>
<g id="a_edge53_Node000028_Node000025"><a xlink:title=" ">
<path fill="none" stroke="#63b8ff" d="M531.21,-274.75C524.51,-267.18 514.63,-256.05 506.47,-246.84"/>
<polygon fill="#63b8ff" stroke="#63b8ff" points="508.84,-244.25 499.59,-239.09 503.61,-248.89 508.84,-244.25"/>
</a>
</g>
</g>
</g>
</svg>
