<?xml version="1.0" encoding="UTF-8" standalone="no"?>
<!DOCTYPE svg PUBLIC "-//W3C//DTD SVG 1.1//EN"
 "http://www.w3.org/Graphics/SVG/1.1/DTD/svg11.dtd">
<!-- Generated by graphviz version 2.43.0 (0)
 -->
<!-- Title: /home/runner/work/doxygen/doxygen/src/dotrunner.h Pages: 1 -->
<svg width="4612pt" height="170pt"
 viewBox="0.00 0.00 4611.50 170.00" xmlns="http://www.w3.org/2000/svg" xmlns:xlink="http://www.w3.org/1999/xlink">
<g id="graph0" class="graph" transform="scale(1 1) rotate(0) translate(4 166)">
<title>/home/runner/work/doxygen/doxygen/src/dotrunner.h</title>
<!-- Node1 -->
<g id="Node000001" class="node">
<title>Node1</title>
<g id="a_Node000001"><a xlink:title=" ">
<polygon fill="#999999" stroke="#666666" points="618,-162 464,-162 464,-132 618,-132 618,-162"/>
<text text-anchor="start" x="472" y="-150" font-family="Helvetica,sans-Serif" font-size="10.00">/home/runner/work/doxygen</text>
<text text-anchor="middle" x="541" y="-139" font-family="Helvetica,sans-Serif" font-size="10.00">/doxygen/src/dotrunner.h</text>
</a>
</g>
</g>
<!-- Node2 -->
<g id="Node000002" class="node">
<title>Node2</title>
<g id="a_Node000002"><a xlink:href="../../de/d89/classdef_8cpp.html" target="_top" xlink:title=" ">
<polygon fill="white" stroke="#666666" points="154,-30 0,-30 0,0 154,0 154,-30"/>
<text text-anchor="start" x="8" y="-18" font-family="Helvetica,sans-Serif" font-size="10.00">/home/runner/work/doxygen</text>
<text text-anchor="middle" x="77" y="-7" font-family="Helvetica,sans-Serif" font-size="10.00">/doxygen/src/classdef.cpp</text>
</a>
</g>
</g>
<!-- Node1&#45;&gt;Node2 -->
<g id="edge1_Node000001_Node000002" class="edge">
<title>Node1&#45;&gt;Node2</title>
<g id="a_edge1_Node000001_Node000002"><a xlink:title=" ">
<path fill="none" stroke="#63b8ff" d="M481.15,-129.23C388.83,-103.37 213.37,-54.21 127.24,-30.08"/>
<polygon fill="#63b8ff" stroke="#63b8ff" points="480.33,-132.64 490.9,-131.96 482.22,-125.9 480.33,-132.64"/>
</a>
</g>
</g>
<!-- Node3 -->
<g id="Node000003" class="node">
<title>Node3</title>
<g id="a_Node000003"><a xlink:href="../../de/daa/dot_8cpp.html" target="_top" xlink:title=" ">
<polygon fill="white" stroke="#666666" points="326,-30 172,-30 172,0 326,0 326,-30"/>
<text text-anchor="start" x="180" y="-18" font-family="Helvetica,sans-Serif" font-size="10.00">/home/runner/work/doxygen</text>
<text text-anchor="middle" x="249" y="-7" font-family="Helvetica,sans-Serif" font-size="10.00">/doxygen/src/dot.cpp</text>
</a>
</g>
</g>
<!-- Node1&#45;&gt;Node3 -->
<g id="edge2_Node000001_Node000003" class="edge">
<title>Node1&#45;&gt;Node3</title>
<g id="a_edge2_Node000001_Node000003"><a xlink:title=" ">
<path fill="none" stroke="#63b8ff" d="M500.12,-127.8C441.33,-101.63 334.13,-53.9 280.84,-30.17"/>
<polygon fill="#63b8ff" stroke="#63b8ff" points="498.91,-131.09 509.47,-131.96 501.76,-124.7 498.91,-131.09"/>
</a>
</g>
</g>
<!-- Node4 -->
<g id="Node000004" class="node">
<title>Node4</title>
<g id="a_Node000004"><a xlink:href="../../d6/d4a/dot_8h.html" target="_top" xlink:title=" ">
<polygon fill="white" stroke="#666666" points="2260,-96 2106,-96 2106,-66 2260,-66 2260,-96"/>
<text text-anchor="start" x="2114" y="-84" font-family="Helvetica,sans-Serif" font-size="10.00">/home/runner/work/doxygen</text>
<text text-anchor="middle" x="2183" y="-73" font-family="Helvetica,sans-Serif" font-size="10.00">/doxygen/src/dot.h</text>
</a>
</g>
</g>
<!-- Node1&#45;&gt;Node4 -->
<g id="edge3_Node000001_Node000004" class="edge">
<title>Node1&#45;&gt;Node4</title>
<g id="a_edge3_Node000001_Node000004"><a xlink:title=" ">
<path fill="none" stroke="#63b8ff" d="M628.67,-142.58C917.02,-131.34 1833.11,-95.64 2105.74,-85.01"/>
<polygon fill="#63b8ff" stroke="#63b8ff" points="628.12,-139.1 618.27,-142.99 628.4,-146.1 628.12,-139.1"/>
</a>
</g>
</g>
<!-- Node10 -->
<g id="Node000010" class="node">
<title>Node10</title>
<g id="a_Node000010"><a xlink:href="../../d9/d92/dotfilepatcher_8cpp.html" target="_top" xlink:title=" ">
<polygon fill="white" stroke="#666666" points="513.5,-30 344.5,-30 344.5,0 513.5,0 513.5,-30"/>
<text text-anchor="start" x="352.5" y="-18" font-family="Helvetica,sans-Serif" font-size="10.00">/home/runner/work/doxygen</text>
<text text-anchor="middle" x="429" y="-7" font-family="Helvetica,sans-Serif" font-size="10.00">/doxygen/src/dotfilepatcher.cpp</text>
</a>
</g>
</g>
<!-- Node1&#45;&gt;Node10 -->
<g id="edge30_Node000001_Node000010" class="edge">
<title>Node1&#45;&gt;Node10</title>
<g id="a_edge30_Node000001_Node000010"><a xlink:title=" ">
<path fill="none" stroke="#63b8ff" d="M522.17,-124.15C499.11,-97.38 460.7,-52.79 441.18,-30.14"/>
<polygon fill="#63b8ff" stroke="#63b8ff" points="519.62,-126.55 528.8,-131.84 524.93,-121.98 519.62,-126.55"/>
</a>
</g>
</g>
<!-- Node11 -->
<g id="Node000011" class="node">
<title>Node11</title>
<g id="a_Node000011"><a xlink:href="../../de/d45/dotgraph_8cpp.html" target="_top" xlink:title=" ">
<polygon fill="white" stroke="#666666" points="686,-30 532,-30 532,0 686,0 686,-30"/>
<text text-anchor="start" x="540" y="-18" font-family="Helvetica,sans-Serif" font-size="10.00">/home/runner/work/doxygen</text>
<text text-anchor="middle" x="609" y="-7" font-family="Helvetica,sans-Serif" font-size="10.00">/doxygen/src/dotgraph.cpp</text>
</a>
</g>
</g>
<!-- Node1&#45;&gt;Node11 -->
<g id="edge31_Node000001_Node000011" class="edge">
<title>Node1&#45;&gt;Node11</title>
<g id="a_edge31_Node000001_Node000011"><a xlink:title=" ">
<path fill="none" stroke="#63b8ff" d="M553.16,-122.75C567.24,-95.84 589.96,-52.4 601.6,-30.14"/>
<polygon fill="#63b8ff" stroke="#63b8ff" points="549.94,-121.36 548.41,-131.84 556.14,-124.6 549.94,-121.36"/>
</a>
</g>
</g>
<!-- Node13 -->
<g id="Node000013" class="node">
<title>Node13</title>
<g id="a_Node000013"><a xlink:href="../../d1/dfe/dotrunner_8cpp.html" target="_top" xlink:title=" ">
<polygon fill="white" stroke="#666666" points="858,-30 704,-30 704,0 858,0 858,-30"/>
<text text-anchor="start" x="712" y="-18" font-family="Helvetica,sans-Serif" font-size="10.00">/home/runner/work/doxygen</text>
<text text-anchor="middle" x="781" y="-7" font-family="Helvetica,sans-Serif" font-size="10.00">/doxygen/src/dotrunner.cpp</text>
</a>
</g>
</g>
<!-- Node1&#45;&gt;Node13 -->
<g id="edge32_Node000001_Node000013" class="edge">
<title>Node1&#45;&gt;Node13</title>
<g id="a_edge32_Node000001_Node000013"><a xlink:title=" ">
<path fill="none" stroke="#63b8ff" d="M576.05,-127.02C624.68,-100.67 711.54,-53.62 754.89,-30.14"/>
<polygon fill="#63b8ff" stroke="#63b8ff" points="574.27,-124 567.14,-131.84 577.6,-130.15 574.27,-124"/>
</a>
</g>
</g>
<!-- Node4&#45;&gt;Node2 -->
<g id="edge4_Node000004_Node000002" class="edge">
<title>Node4&#45;&gt;Node2</title>
<g id="a_edge4_Node000004_Node000002"><a xlink:title=" ">
<path fill="none" stroke="#63b8ff" d="M2095.64,-79.43C1759.15,-76.98 546.62,-65.8 163,-30 160.14,-29.73 157.23,-29.43 154.29,-29.09"/>
<polygon fill="#63b8ff" stroke="#63b8ff" points="2095.79,-82.93 2105.82,-79.5 2095.84,-75.93 2095.79,-82.93"/>
</a>
</g>
</g>
<!-- Node4&#45;&gt;Node3 -->
<g id="edge10_Node000004_Node000003" class="edge">
<title>Node4&#45;&gt;Node3</title>
<g id="a_edge10_Node000004_Node000003"><a xlink:title=" ">
<path fill="none" stroke="#63b8ff" d="M2095.72,-79.2C1777.95,-76.02 683.2,-62.9 335,-30 332.14,-29.73 329.23,-29.42 326.29,-29.08"/>
<polygon fill="#63b8ff" stroke="#63b8ff" points="2095.76,-82.7 2105.79,-79.29 2095.83,-75.7 2095.76,-82.7"/>
</a>
</g>
</g>
<!-- Node5 -->
<g id="Node000005" class="node">
<title>Node5</title>
<g id="a_Node000005"><a xlink:href="../../db/d12/context_8cpp.html" target="_top" xlink:title=" ">
<polygon fill="white" stroke="#666666" points="2088,-30 1934,-30 1934,0 2088,0 2088,-30"/>
<text text-anchor="start" x="1942" y="-18" font-family="Helvetica,sans-Serif" font-size="10.00">/home/runner/work/doxygen</text>
<text text-anchor="middle" x="2011" y="-7" font-family="Helvetica,sans-Serif" font-size="10.00">/doxygen/src/context.cpp</text>
</a>
</g>
</g>
<!-- Node4&#45;&gt;Node5 -->
<g id="edge5_Node000004_Node000005" class="edge">
<title>Node4&#45;&gt;Node5</title>
<g id="a_edge5_Node000004_Node000005"><a xlink:title=" ">
<path fill="none" stroke="#63b8ff" d="M2135.85,-62.46C2108.41,-52.25 2074.29,-39.55 2048.66,-30.01"/>
<polygon fill="#63b8ff" stroke="#63b8ff" points="2134.66,-65.75 2145.25,-65.95 2137.1,-59.19 2134.66,-65.75"/>
</a>
</g>
</g>
<!-- Node6 -->
<g id="Node000006" class="node">
<title>Node6</title>
<g id="a_Node000006"><a xlink:href="../../d3/d17/defgen_8cpp.html" target="_top" xlink:title=" ">
<polygon fill="white" stroke="#666666" points="2260,-30 2106,-30 2106,0 2260,0 2260,-30"/>
<text text-anchor="start" x="2114" y="-18" font-family="Helvetica,sans-Serif" font-size="10.00">/home/runner/work/doxygen</text>
<text text-anchor="middle" x="2183" y="-7" font-family="Helvetica,sans-Serif" font-size="10.00">/doxygen/src/defgen.cpp</text>
</a>
</g>
</g>
<!-- Node4&#45;&gt;Node6 -->
<g id="edge6_Node000004_Node000006" class="edge">
<title>Node4&#45;&gt;Node6</title>
<g id="a_edge6_Node000004_Node000006"><a xlink:title=" ">
<path fill="none" stroke="#63b8ff" d="M2183,-55.54C2183,-46.96 2183,-37.61 2183,-30.16"/>
<polygon fill="#63b8ff" stroke="#63b8ff" points="2179.5,-55.8 2183,-65.8 2186.5,-55.8 2179.5,-55.8"/>
</a>
</g>
</g>
<!-- Node7 -->
<g id="Node000007" class="node">
<title>Node7</title>
<g id="a_Node000007"><a xlink:href="../../d8/d52/dirdef_8cpp.html" target="_top" xlink:title=" ">
<polygon fill="white" stroke="#666666" points="2432,-30 2278,-30 2278,0 2432,0 2432,-30"/>
<text text-anchor="start" x="2286" y="-18" font-family="Helvetica,sans-Serif" font-size="10.00">/home/runner/work/doxygen</text>
<text text-anchor="middle" x="2355" y="-7" font-family="Helvetica,sans-Serif" font-size="10.00">/doxygen/src/dirdef.cpp</text>
</a>
</g>
</g>
<!-- Node4&#45;&gt;Node7 -->
<g id="edge7_Node000004_Node000007" class="edge">
<title>Node4&#45;&gt;Node7</title>
<g id="a_edge7_Node000004_Node000007"><a xlink:title=" ">
<path fill="none" stroke="#63b8ff" d="M2230.15,-62.46C2257.59,-52.25 2291.71,-39.55 2317.34,-30.01"/>
<polygon fill="#63b8ff" stroke="#63b8ff" points="2228.9,-59.19 2220.75,-65.95 2231.34,-65.75 2228.9,-59.19"/>
</a>
</g>
</g>
<!-- Node8 -->
<g id="Node000008" class="node">
<title>Node8</title>
<g id="a_Node000008"><a xlink:href="../../d8/d29/docbookgen_8cpp.html" target="_top" xlink:title=" ">
<polygon fill="white" stroke="#666666" points="2611.5,-30 2450.5,-30 2450.5,0 2611.5,0 2611.5,-30"/>
<text text-anchor="start" x="2458.5" y="-18" font-family="Helvetica,sans-Serif" font-size="10.00">/home/runner/work/doxygen</text>
<text text-anchor="middle" x="2531" y="-7" font-family="Helvetica,sans-Serif" font-size="10.00">/doxygen/src/docbookgen.cpp</text>
</a>
</g>
</g>
<!-- Node4&#45;&gt;Node8 -->
<g id="edge8_Node000004_Node000008" class="edge">
<title>Node4&#45;&gt;Node8</title>
<g id="a_edge8_Node000004_Node000008"><a xlink:title=" ">
<path fill="none" stroke="#63b8ff" d="M2269.43,-64.11C2326.32,-53.64 2400.11,-40.07 2454.81,-30.01"/>
<polygon fill="#63b8ff" stroke="#63b8ff" points="2268.57,-60.7 2259.37,-65.95 2269.84,-67.59 2268.57,-60.7"/>
</a>
</g>
</g>
<!-- Node9 -->
<g id="Node000009" class="node">
<title>Node9</title>
<g id="a_Node000009"><a xlink:href="../../dc/d05/docbookvisitor_8cpp.html" target="_top" xlink:title=" ">
<polygon fill="white" stroke="#666666" points="2802.5,-30 2629.5,-30 2629.5,0 2802.5,0 2802.5,-30"/>
<text text-anchor="start" x="2637.5" y="-18" font-family="Helvetica,sans-Serif" font-size="10.00">/home/runner/work/doxygen</text>
<text text-anchor="middle" x="2716" y="-7" font-family="Helvetica,sans-Serif" font-size="10.00">/doxygen/src/docbookvisitor.cpp</text>
</a>
</g>
</g>
<!-- Node4&#45;&gt;Node9 -->
<g id="edge9_Node000004_Node000009" class="edge">
<title>Node4&#45;&gt;Node9</title>
<g id="a_edge9_Node000004_Node000009"><a xlink:title=" ">
<path fill="none" stroke="#63b8ff" d="M2270.23,-70.89C2358.7,-61.45 2499.52,-45.88 2621,-30 2623.73,-29.64 2626.5,-29.27 2629.29,-28.9"/>
<polygon fill="#63b8ff" stroke="#63b8ff" points="2269.81,-67.42 2260.24,-71.95 2270.55,-74.38 2269.81,-67.42"/>
</a>
</g>
</g>
<!-- Node4&#45;&gt;Node10 -->
<g id="edge11_Node000004_Node000010" class="edge">
<title>Node4&#45;&gt;Node10</title>
<g id="a_edge11_Node000004_Node000010"><a xlink:title=" ">
<path fill="none" stroke="#63b8ff" d="M2095.53,-78.73C1798.94,-74.2 832.72,-57.63 523,-30 519.96,-29.73 516.87,-29.42 513.75,-29.09"/>
<polygon fill="#63b8ff" stroke="#63b8ff" points="2095.75,-82.23 2105.8,-78.88 2095.85,-75.23 2095.75,-82.23"/>
</a>
</g>
</g>
<!-- Node4&#45;&gt;Node11 -->
<g id="edge12_Node000004_Node000011" class="edge">
<title>Node4&#45;&gt;Node11</title>
<g id="a_edge12_Node000004_Node000011"><a xlink:title=" ">
<path fill="none" stroke="#63b8ff" d="M2095.35,-78.53C1819.2,-73.66 969.3,-56.82 695,-30 692.14,-29.72 689.23,-29.4 686.29,-29.06"/>
<polygon fill="#63b8ff" stroke="#63b8ff" points="2095.66,-82.03 2105.72,-78.71 2095.78,-75.03 2095.66,-82.03"/>
</a>
</g>
</g>
<!-- Node12 -->
<g id="Node000012" class="node">
<title>Node12</title>
<g id="a_Node000012"><a xlink:href="../../d4/d33/dotlegendgraph_8cpp.html" target="_top" xlink:title=" ">
<polygon fill="white" stroke="#666666" points="2999.5,-30 2820.5,-30 2820.5,0 2999.5,0 2999.5,-30"/>
<text text-anchor="start" x="2828.5" y="-18" font-family="Helvetica,sans-Serif" font-size="10.00">/home/runner/work/doxygen</text>
<text text-anchor="middle" x="2910" y="-7" font-family="Helvetica,sans-Serif" font-size="10.00">/doxygen/src/dotlegendgraph.cpp</text>
</a>
</g>
</g>
<!-- Node4&#45;&gt;Node12 -->
<g id="edge13_Node000004_Node000012" class="edge">
<title>Node4&#45;&gt;Node12</title>
<g id="a_edge13_Node000004_Node000012"><a xlink:title=" ">
<path fill="none" stroke="#63b8ff" d="M2270.12,-74.8C2391.69,-67.16 2619,-51.44 2812,-30 2814.73,-29.7 2817.51,-29.38 2820.31,-29.04"/>
<polygon fill="#63b8ff" stroke="#63b8ff" points="2269.89,-71.31 2260.13,-75.43 2270.33,-78.3 2269.89,-71.31"/>
</a>
</g>
</g>
<!-- Node4&#45;&gt;Node13 -->
<g id="edge14_Node000004_Node000013" class="edge">
<title>Node4&#45;&gt;Node13</title>
<g id="a_edge14_Node000004_Node000013"><a xlink:title=" ">
<path fill="none" stroke="#63b8ff" d="M2095.52,-80.4C1883.97,-80.55 1328.1,-76.11 867,-30 864.14,-29.71 861.23,-29.39 858.3,-29.04"/>
<polygon fill="#63b8ff" stroke="#63b8ff" points="2095.64,-83.9 2105.64,-80.39 2095.64,-76.9 2095.64,-83.9"/>
</a>
</g>
</g>
<!-- Node14 -->
<g id="Node000014" class="node">
<title>Node14</title>
<g id="a_Node000014"><a xlink:href="../../dc/d98/doxygen_8cpp.html" target="_top" xlink:title=" ">
<polygon fill="white" stroke="#666666" points="3172,-30 3018,-30 3018,0 3172,0 3172,-30"/>
<text text-anchor="start" x="3026" y="-18" font-family="Helvetica,sans-Serif" font-size="10.00">/home/runner/work/doxygen</text>
<text text-anchor="middle" x="3095" y="-7" font-family="Helvetica,sans-Serif" font-size="10.00">/doxygen/src/doxygen.cpp</text>
</a>
</g>
</g>
<!-- Node4&#45;&gt;Node14 -->
<g id="edge15_Node000004_Node000014" class="edge">
<title>Node4&#45;&gt;Node14</title>
<g id="a_edge15_Node000004_Node000014"><a xlink:title=" ">
<path fill="none" stroke="#63b8ff" d="M2270.22,-77.61C2421.16,-72.84 2740.67,-59.89 3009,-30 3011.86,-29.68 3014.76,-29.33 3017.7,-28.96"/>
<polygon fill="#63b8ff" stroke="#63b8ff" points="2269.97,-74.12 2260.09,-77.93 2270.19,-81.12 2269.97,-74.12"/>
</a>
</g>
</g>
<!-- Node15 -->
<g id="Node000015" class="node">
<title>Node15</title>
<g id="a_Node000015"><a xlink:href="../../d6/ddc/filedef_8cpp.html" target="_top" xlink:title=" ">
<polygon fill="white" stroke="#666666" points="3344,-30 3190,-30 3190,0 3344,0 3344,-30"/>
<text text-anchor="start" x="3198" y="-18" font-family="Helvetica,sans-Serif" font-size="10.00">/home/runner/work/doxygen</text>
<text text-anchor="middle" x="3267" y="-7" font-family="Helvetica,sans-Serif" font-size="10.00">/doxygen/src/filedef.cpp</text>
</a>
</g>
</g>
<!-- Node4&#45;&gt;Node15 -->
<g id="edge16_Node000004_Node000015" class="edge">
<title>Node4&#45;&gt;Node15</title>
<g id="a_edge16_Node000004_Node000015"><a xlink:title=" ">
<path fill="none" stroke="#63b8ff" d="M2270.35,-78.89C2444.2,-75.96 2845.67,-65.58 3181,-30 3183.86,-29.7 3186.77,-29.36 3189.7,-29"/>
<polygon fill="#63b8ff" stroke="#63b8ff" points="2270.18,-75.39 2260.23,-79.06 2270.29,-82.39 2270.18,-75.39"/>
</a>
</g>
</g>
<!-- Node16 -->
<g id="Node000016" class="node">
<title>Node16</title>
<g id="a_Node000016"><a xlink:href="../../d6/d42/groupdef_8cpp.html" target="_top" xlink:title=" ">
<polygon fill="white" stroke="#666666" points="3516,-30 3362,-30 3362,0 3516,0 3516,-30"/>
<text text-anchor="start" x="3370" y="-18" font-family="Helvetica,sans-Serif" font-size="10.00">/home/runner/work/doxygen</text>
<text text-anchor="middle" x="3439" y="-7" font-family="Helvetica,sans-Serif" font-size="10.00">/doxygen/src/groupdef.cpp</text>
</a>
</g>
</g>
<!-- Node4&#45;&gt;Node16 -->
<g id="edge17_Node000004_Node000016" class="edge">
<title>Node4&#45;&gt;Node16</title>
<g id="a_edge17_Node000004_Node000016"><a xlink:title=" ">
<path fill="none" stroke="#63b8ff" d="M2270.41,-79.8C2465.28,-78.59 2949.89,-71.28 3353,-30 3355.86,-29.71 3358.77,-29.38 3361.7,-29.03"/>
<polygon fill="#63b8ff" stroke="#63b8ff" points="2270.21,-76.3 2260.23,-79.86 2270.25,-83.3 2270.21,-76.3"/>
</a>
</g>
</g>
<!-- Node17 -->
<g id="Node000017" class="node">
<title>Node17</title>
<g id="a_Node000017"><a xlink:href="../../da/db0/htmldocvisitor_8cpp.html" target="_top" xlink:title=" ">
<polygon fill="white" stroke="#666666" points="3706,-30 3534,-30 3534,0 3706,0 3706,-30"/>
<text text-anchor="start" x="3542" y="-18" font-family="Helvetica,sans-Serif" font-size="10.00">/home/runner/work/doxygen</text>
<text text-anchor="middle" x="3620" y="-7" font-family="Helvetica,sans-Serif" font-size="10.00">/doxygen/src/htmldocvisitor.cpp</text>
</a>
</g>
</g>
<!-- Node4&#45;&gt;Node17 -->
<g id="edge18_Node000004_Node000017" class="edge">
<title>Node4&#45;&gt;Node17</title>
<g id="a_edge18_Node000004_Node000017"><a xlink:title=" ">
<path fill="none" stroke="#63b8ff" d="M2270.6,-80.04C2485.04,-79.41 3053.3,-73.41 3525,-30 3527.91,-29.73 3530.86,-29.44 3533.84,-29.12"/>
<polygon fill="#63b8ff" stroke="#63b8ff" points="2270.34,-76.54 2260.35,-80.06 2270.36,-83.54 2270.34,-76.54"/>
</a>
</g>
</g>
<!-- Node18 -->
<g id="Node000018" class="node">
<title>Node18</title>
<g id="a_Node000018"><a xlink:href="../../d8/d6e/htmlgen_8cpp.html" target="_top" xlink:title=" ">
<polygon fill="white" stroke="#666666" points="3878,-30 3724,-30 3724,0 3878,0 3878,-30"/>
<text text-anchor="start" x="3732" y="-18" font-family="Helvetica,sans-Serif" font-size="10.00">/home/runner/work/doxygen</text>
<text text-anchor="middle" x="3801" y="-7" font-family="Helvetica,sans-Serif" font-size="10.00">/doxygen/src/htmlgen.cpp</text>
</a>
</g>
</g>
<!-- Node4&#45;&gt;Node18 -->
<g id="edge19_Node000004_Node000018" class="edge">
<title>Node4&#45;&gt;Node18</title>
<g id="a_edge19_Node000004_Node000018"><a xlink:title=" ">
<path fill="none" stroke="#63b8ff" d="M2270.37,-78.63C2551.62,-73.99 3431.62,-57.57 3715,-30 3717.86,-29.72 3720.77,-29.41 3723.71,-29.06"/>
<polygon fill="#63b8ff" stroke="#63b8ff" points="2270.16,-75.13 2260.22,-78.8 2270.28,-82.13 2270.16,-75.13"/>
</a>
</g>
</g>
<!-- Node19 -->
<g id="Node000019" class="node">
<title>Node19</title>
<g id="a_Node000019"><a xlink:href="../../db/d14/index_8cpp.html" target="_top" xlink:title="This file contains functions for the various index pages.">
<polygon fill="white" stroke="#666666" points="4050,-30 3896,-30 3896,0 4050,0 4050,-30"/>
<text text-anchor="start" x="3904" y="-18" font-family="Helvetica,sans-Serif" font-size="10.00">/home/runner/work/doxygen</text>
<text text-anchor="middle" x="3973" y="-7" font-family="Helvetica,sans-Serif" font-size="10.00">/doxygen/src/index.cpp</text>
</a>
</g>
</g>
<!-- Node4&#45;&gt;Node19 -->
<g id="edge20_Node000004_Node000019" class="edge">
<title>Node4&#45;&gt;Node19</title>
<g id="a_edge20_Node000004_Node000019"><a xlink:title=" ">
<path fill="none" stroke="#63b8ff" d="M2270.27,-78.96C2571.76,-75.15 3568.38,-60.47 3887,-30 3889.86,-29.73 3892.77,-29.42 3895.71,-29.08"/>
<polygon fill="#63b8ff" stroke="#63b8ff" points="2270.22,-75.46 2260.27,-79.09 2270.31,-82.46 2270.22,-75.46"/>
</a>
</g>
</g>
<!-- Node20 -->
<g id="Node000020" class="node">
<title>Node20</title>
<g id="a_Node000020"><a xlink:href="../../d1/d4e/latexdocvisitor_8cpp.html" target="_top" xlink:title=" ">
<polygon fill="white" stroke="#666666" points="4242,-30 4068,-30 4068,0 4242,0 4242,-30"/>
<text text-anchor="start" x="4076" y="-18" font-family="Helvetica,sans-Serif" font-size="10.00">/home/runner/work/doxygen</text>
<text text-anchor="middle" x="4155" y="-7" font-family="Helvetica,sans-Serif" font-size="10.00">/doxygen/src/latexdocvisitor.cpp</text>
</a>
</g>
</g>
<!-- Node4&#45;&gt;Node20 -->
<g id="edge21_Node000004_Node000020" class="edge">
<title>Node4&#45;&gt;Node20</title>
<g id="a_edge21_Node000004_Node000020"><a xlink:title=" ">
<path fill="none" stroke="#63b8ff" d="M2270.22,-79.05C2590.96,-75.32 3704.76,-60.44 4059,-30 4061.94,-29.75 4064.92,-29.46 4067.93,-29.16"/>
<polygon fill="#63b8ff" stroke="#63b8ff" points="2270.01,-75.55 2260.05,-79.16 2270.09,-82.55 2270.01,-75.55"/>
</a>
</g>
</g>
<!-- Node21 -->
<g id="Node000021" class="node">
<title>Node21</title>
<g id="a_Node000021"><a xlink:href="../../d4/d42/latexgen_8cpp.html" target="_top" xlink:title=" ">
<polygon fill="white" stroke="#666666" points="4414,-30 4260,-30 4260,0 4414,0 4414,-30"/>
<text text-anchor="start" x="4268" y="-18" font-family="Helvetica,sans-Serif" font-size="10.00">/home/runner/work/doxygen</text>
<text text-anchor="middle" x="4337" y="-7" font-family="Helvetica,sans-Serif" font-size="10.00">/doxygen/src/latexgen.cpp</text>
</a>
</g>
</g>
<!-- Node4&#45;&gt;Node21 -->
<g id="edge22_Node000004_Node000021" class="edge">
<title>Node4&#45;&gt;Node21</title>
<g id="a_edge22_Node000004_Node000021"><a xlink:title=" ">
<path fill="none" stroke="#63b8ff" d="M2270.15,-79.49C2611.41,-77.23 3857.39,-66.62 4251,-30 4253.86,-29.73 4256.77,-29.43 4259.71,-29.1"/>
<polygon fill="#63b8ff" stroke="#63b8ff" points="2270.06,-75.99 2260.08,-79.55 2270.1,-82.99 2270.06,-75.99"/>
</a>
</g>
</g>
<!-- Node22 -->
<g id="Node000022" class="node">
<title>Node22</title>
<g id="a_Node000022"><a xlink:href="../../d8/dde/mandocvisitor_8cpp.html" target="_top" xlink:title=" ">
<polygon fill="white" stroke="#666666" points="4603.5,-30 4432.5,-30 4432.5,0 4603.5,0 4603.5,-30"/>
<text text-anchor="start" x="4440.5" y="-18" font-family="Helvetica,sans-Serif" font-size="10.00">/home/runner/work/doxygen</text>
<text text-anchor="middle" x="4518" y="-7" font-family="Helvetica,sans-Serif" font-size="10.00">/doxygen/src/mandocvisitor.cpp</text>
</a>
</g>
</g>
<!-- Node4&#45;&gt;Node22 -->
<g id="edge23_Node000004_Node000022" class="edge">
<title>Node4&#45;&gt;Node22</title>
<g id="a_edge23_Node000004_Node000022"><a xlink:title=" ">
<path fill="none" stroke="#63b8ff" d="M2270.11,-79.5C2628.89,-77.22 3993.5,-66.3 4423,-30 4426.07,-29.74 4429.2,-29.44 4432.35,-29.12"/>
<polygon fill="#63b8ff" stroke="#63b8ff" points="2270.02,-76 2260.05,-79.56 2270.07,-83 2270.02,-76"/>
</a>
</g>
</g>
<!-- Node23 -->
<g id="Node000023" class="node">
<title>Node23</title>
<g id="a_Node000023"><a xlink:href="../../d0/d72/memberdef_8cpp.html" target="_top" xlink:title=" ">
<polygon fill="white" stroke="#666666" points="1034,-30 876,-30 876,0 1034,0 1034,-30"/>
<text text-anchor="start" x="884" y="-18" font-family="Helvetica,sans-Serif" font-size="10.00">/home/runner/work/doxygen</text>
<text text-anchor="middle" x="955" y="-7" font-family="Helvetica,sans-Serif" font-size="10.00">/doxygen/src/memberdef.cpp</text>
</a>
</g>
</g>
<!-- Node4&#45;&gt;Node23 -->
<g id="edge24_Node000004_Node000023" class="edge">
<title>Node4&#45;&gt;Node23</title>
<g id="a_edge24_Node000004_Node000023"><a xlink:title=" ">
<path fill="none" stroke="#63b8ff" d="M2095.52,-79.5C1904.29,-77.67 1434.88,-69.2 1044,-30 1040.73,-29.67 1037.4,-29.3 1034.04,-28.9"/>
<polygon fill="#63b8ff" stroke="#63b8ff" points="2095.76,-83 2105.79,-79.59 2095.82,-76 2095.76,-83"/>
</a>
</g>
</g>
<!-- Node24 -->
<g id="Node000024" class="node">
<title>Node24</title>
<g id="a_Node000024"><a xlink:href="../../de/d9a/rtfdocvisitor_8cpp.html" target="_top" xlink:title=" ">
<polygon fill="white" stroke="#666666" points="1213.5,-30 1052.5,-30 1052.5,0 1213.5,0 1213.5,-30"/>
<text text-anchor="start" x="1060.5" y="-18" font-family="Helvetica,sans-Serif" font-size="10.00">/home/runner/work/doxygen</text>
<text text-anchor="middle" x="1133" y="-7" font-family="Helvetica,sans-Serif" font-size="10.00">/doxygen/src/rtfdocvisitor.cpp</text>
</a>
</g>
</g>
<!-- Node4&#45;&gt;Node24 -->
<g id="edge25_Node000004_Node000024" class="edge">
<title>Node4&#45;&gt;Node24</title>
<g id="a_edge25_Node000004_Node000024"><a xlink:title=" ">
<path fill="none" stroke="#63b8ff" d="M2095.88,-78.44C1927.04,-74.77 1543.69,-63.21 1223,-30 1220.01,-29.69 1216.97,-29.35 1213.9,-28.98"/>
<polygon fill="#63b8ff" stroke="#63b8ff" points="2095.88,-81.94 2105.95,-78.66 2096.03,-74.95 2095.88,-81.94"/>
</a>
</g>
</g>
<!-- Node25 -->
<g id="Node000025" class="node">
<title>Node25</title>
<g id="a_Node000025"><a xlink:href="../../d0/d9c/rtfgen_8cpp.html" target="_top" xlink:title=" ">
<polygon fill="white" stroke="#666666" points="1386,-30 1232,-30 1232,0 1386,0 1386,-30"/>
<text text-anchor="start" x="1240" y="-18" font-family="Helvetica,sans-Serif" font-size="10.00">/home/runner/work/doxygen</text>
<text text-anchor="middle" x="1309" y="-7" font-family="Helvetica,sans-Serif" font-size="10.00">/doxygen/src/rtfgen.cpp</text>
</a>
</g>
</g>
<!-- Node4&#45;&gt;Node25 -->
<g id="edge26_Node000004_Node000025" class="edge">
<title>Node4&#45;&gt;Node25</title>
<g id="a_edge26_Node000004_Node000025"><a xlink:title=" ">
<path fill="none" stroke="#63b8ff" d="M2095.67,-77.26C1950.05,-72.05 1648.58,-58.62 1395,-30 1392.14,-29.68 1389.24,-29.33 1386.31,-28.95"/>
<polygon fill="#63b8ff" stroke="#63b8ff" points="2095.76,-80.76 2105.88,-77.62 2096.01,-73.77 2095.76,-80.76"/>
</a>
</g>
</g>
<!-- Node26 -->
<g id="Node000026" class="node">
<title>Node26</title>
<g id="a_Node000026"><a xlink:href="../../d8/df8/sqlite3gen_8cpp.html" target="_top" xlink:title=" ">
<polygon fill="white" stroke="#666666" points="1558,-30 1404,-30 1404,0 1558,0 1558,-30"/>
<text text-anchor="start" x="1412" y="-18" font-family="Helvetica,sans-Serif" font-size="10.00">/home/runner/work/doxygen</text>
<text text-anchor="middle" x="1481" y="-7" font-family="Helvetica,sans-Serif" font-size="10.00">/doxygen/src/sqlite3gen.cpp</text>
</a>
</g>
</g>
<!-- Node4&#45;&gt;Node26 -->
<g id="edge27_Node000004_Node000026" class="edge">
<title>Node4&#45;&gt;Node26</title>
<g id="a_edge27_Node000004_Node000026"><a xlink:title=" ">
<path fill="none" stroke="#63b8ff" d="M2095.78,-75.14C1976.22,-67.96 1754.84,-52.88 1567,-30 1564.15,-29.65 1561.24,-29.28 1558.31,-28.89"/>
<polygon fill="#63b8ff" stroke="#63b8ff" points="2095.78,-78.64 2105.97,-75.74 2096.2,-71.65 2095.78,-78.64"/>
</a>
</g>
</g>
<!-- Node27 -->
<g id="Node000027" class="node">
<title>Node27</title>
<g id="a_Node000027"><a xlink:href="../../dd/db6/xmldocvisitor_8cpp.html" target="_top" xlink:title=" ">
<polygon fill="white" stroke="#666666" points="1744,-30 1576,-30 1576,0 1744,0 1744,-30"/>
<text text-anchor="start" x="1584" y="-18" font-family="Helvetica,sans-Serif" font-size="10.00">/home/runner/work/doxygen</text>
<text text-anchor="middle" x="1660" y="-7" font-family="Helvetica,sans-Serif" font-size="10.00">/doxygen/src/xmldocvisitor.cpp</text>
</a>
</g>
</g>
<!-- Node4&#45;&gt;Node27 -->
<g id="edge28_Node000004_Node000027" class="edge">
<title>Node4&#45;&gt;Node27</title>
<g id="a_edge28_Node000004_Node000027"><a xlink:title=" ">
<path fill="none" stroke="#63b8ff" d="M2095.52,-70.7C2008.56,-61.25 1871.42,-45.79 1753,-30 1750.09,-29.61 1747.12,-29.21 1744.13,-28.79"/>
<polygon fill="#63b8ff" stroke="#63b8ff" points="2095.29,-74.2 2105.61,-71.79 2096.05,-67.24 2095.29,-74.2"/>
</a>
</g>
</g>
<!-- Node28 -->
<g id="Node000028" class="node">
<title>Node28</title>
<g id="a_Node000028"><a xlink:href="../../d0/dc3/xmlgen_8cpp.html" target="_top" xlink:title=" ">
<polygon fill="white" stroke="#666666" points="1916,-30 1762,-30 1762,0 1916,0 1916,-30"/>
<text text-anchor="start" x="1770" y="-18" font-family="Helvetica,sans-Serif" font-size="10.00">/home/runner/work/doxygen</text>
<text text-anchor="middle" x="1839" y="-7" font-family="Helvetica,sans-Serif" font-size="10.00">/doxygen/src/xmlgen.cpp</text>
</a>
</g>
</g>
<!-- Node4&#45;&gt;Node28 -->
<g id="edge29_Node000004_Node000028" class="edge">
<title>Node4&#45;&gt;Node28</title>
<g id="a_edge29_Node000004_Node000028"><a xlink:title=" ">
<path fill="none" stroke="#63b8ff" d="M2097.57,-64.11C2041.33,-53.64 1968.38,-40.07 1914.32,-30.01"/>
<polygon fill="#63b8ff" stroke="#63b8ff" points="2097.04,-67.57 2107.51,-65.95 2098.32,-60.68 2097.04,-67.57"/>
</a>
</g>
</g>
</g>
</svg>
