<?xml version="1.0" encoding="UTF-8" standalone="no"?>
<!DOCTYPE svg PUBLIC "-//W3C//DTD SVG 1.1//EN"
 "http://www.w3.org/Graphics/SVG/1.1/DTD/svg11.dtd">
<!-- Generated by graphviz version 2.43.0 (0)
 -->
<!-- Title: src/dotrunner.h Pages: 1 -->
<svg width="1747pt" height="137pt"
 viewBox="0.00 0.00 1747.00 137.00" xmlns="http://www.w3.org/2000/svg" xmlns:xlink="http://www.w3.org/1999/xlink">
<g id="page0,1_graph0" class="graph" transform="scale(1 1) rotate(0) translate(4 133)">
<title>src/dotrunner.h</title>
<!-- Node1 -->
<g id="Node000001" class="node">
<title>Node1</title>
<g id="a_Node000001"><a xlink:title=" ">
<polygon fill="#999999" stroke="#666666" points="313.5,-129 224.5,-129 224.5,-110 313.5,-110 313.5,-129"/>
<text text-anchor="middle" x="269" y="-117" font-family="Helvetica,sans-Serif" font-size="10.00">src/dotrunner.h</text>
</a>
</g>
</g>
<!-- Node2 -->
<g id="Node000002" class="node">
<title>Node2</title>
<g id="a_Node000002"><a xlink:href="../../de/d89/classdef_8cpp.html" target="_top" xlink:title=" ">
<polygon fill="white" stroke="#666666" points="94,-19 0,-19 0,0 94,0 94,-19"/>
<text text-anchor="middle" x="47" y="-7" font-family="Helvetica,sans-Serif" font-size="10.00">src/classdef.cpp</text>
</a>
</g>
</g>
<!-- Node1&#45;&gt;Node2 -->
<g id="edge1_Node000001_Node000002" class="edge">
<title>Node1&#45;&gt;Node2</title>
<g id="a_edge1_Node000001_Node000002"><a xlink:title=" ">
<path fill="none" stroke="#63b8ff" d="M242.12,-105.43C196.06,-83.02 103.26,-37.87 64.57,-19.05"/>
<polygon fill="#63b8ff" stroke="#63b8ff" points="240.68,-108.62 251.21,-109.84 243.75,-102.32 240.68,-108.62"/>
</a>
</g>
</g>
<!-- Node3 -->
<g id="Node000003" class="node">
<title>Node3</title>
<g id="a_Node000003"><a xlink:href="../../d6/d4a/dot_8h.html" target="_top" xlink:title=" ">
<polygon fill="white" stroke="#666666" points="850.5,-74 791.5,-74 791.5,-55 850.5,-55 850.5,-74"/>
<text text-anchor="middle" x="821" y="-62" font-family="Helvetica,sans-Serif" font-size="10.00">src/dot.h</text>
</a>
</g>
</g>
<!-- Node1&#45;&gt;Node3 -->
<g id="edge2_Node000001_Node000003" class="edge">
<title>Node1&#45;&gt;Node3</title>
<g id="a_edge2_Node000001_Node000003"><a xlink:title=" ">
<path fill="none" stroke="#63b8ff" d="M323.72,-113.25C438.89,-102.19 702.99,-76.83 791.48,-68.33"/>
<polygon fill="#63b8ff" stroke="#63b8ff" points="323.32,-109.77 313.7,-114.21 323.99,-116.74 323.32,-109.77"/>
</a>
</g>
</g>
<!-- Node6 -->
<g id="Node000006" class="node">
<title>Node6</title>
<g id="a_Node000006"><a xlink:href="../../d9/d92/dotfilepatcher_8cpp.html" target="_top" xlink:title=" ">
<polygon fill="white" stroke="#666666" points="233.5,-19 112.5,-19 112.5,0 233.5,0 233.5,-19"/>
<text text-anchor="middle" x="173" y="-7" font-family="Helvetica,sans-Serif" font-size="10.00">src/dotfilepatcher.cpp</text>
</a>
</g>
</g>
<!-- Node1&#45;&gt;Node6 -->
<g id="edge17_Node000001_Node000006" class="edge">
<title>Node1&#45;&gt;Node6</title>
<g id="a_edge17_Node000001_Node000006"><a xlink:title=" ">
<path fill="none" stroke="#63b8ff" d="M254.33,-102C233.65,-78.73 196.67,-37.13 180.7,-19.16"/>
<polygon fill="#63b8ff" stroke="#63b8ff" points="251.88,-104.51 261.14,-109.66 257.12,-99.86 251.88,-104.51"/>
</a>
</g>
</g>
<!-- Node9 -->
<g id="Node000009" class="node">
<title>Node9</title>
<g id="a_Node000009"><a xlink:href="../../d1/dfe/dotrunner_8cpp.html" target="_top" xlink:title=" ">
<polygon fill="white" stroke="#666666" points="352.5,-19 251.5,-19 251.5,0 352.5,0 352.5,-19"/>
<text text-anchor="middle" x="302" y="-7" font-family="Helvetica,sans-Serif" font-size="10.00">src/dotrunner.cpp</text>
</a>
</g>
</g>
<!-- Node1&#45;&gt;Node9 -->
<g id="edge18_Node000001_Node000009" class="edge">
<title>Node1&#45;&gt;Node9</title>
<g id="a_edge18_Node000001_Node000009"><a xlink:title=" ">
<path fill="none" stroke="#63b8ff" d="M274.71,-99.8C281.92,-76.2 294.03,-36.58 299.35,-19.16"/>
<polygon fill="#63b8ff" stroke="#63b8ff" points="271.28,-99.08 271.7,-109.66 277.97,-101.12 271.28,-99.08"/>
</a>
</g>
</g>
<!-- Node3&#45;&gt;Node2 -->
<g id="edge3_Node000003_Node000002" class="edge">
<title>Node3&#45;&gt;Node2</title>
<g id="a_edge3_Node000003_Node000002"><a xlink:title=" ">
<path fill="none" stroke="#63b8ff" d="M780.96,-62.27C671.89,-58.63 360.5,-46.47 103,-19 100.07,-18.69 97.05,-18.33 94.01,-17.95"/>
<polygon fill="#63b8ff" stroke="#63b8ff" points="781.06,-65.77 791.17,-62.6 781.29,-58.77 781.06,-65.77"/>
</a>
</g>
</g>
<!-- Node4 -->
<g id="Node000004" class="node">
<title>Node4</title>
<g id="a_Node000004"><a xlink:href="../../dc/d05/docbookvisitor_8cpp.html" target="_top" xlink:title=" ">
<polygon fill="white" stroke="#666666" points="767.5,-19 642.5,-19 642.5,0 767.5,0 767.5,-19"/>
<text text-anchor="middle" x="705" y="-7" font-family="Helvetica,sans-Serif" font-size="10.00">src/docbookvisitor.cpp</text>
</a>
</g>
</g>
<!-- Node3&#45;&gt;Node4 -->
<g id="edge4_Node000003_Node000004" class="edge">
<title>Node3&#45;&gt;Node4</title>
<g id="a_edge4_Node000003_Node000004"><a xlink:title=" ">
<path fill="none" stroke="#63b8ff" d="M793.13,-50.77C771.73,-40.99 742.76,-27.75 723.98,-19.17"/>
<polygon fill="#63b8ff" stroke="#63b8ff" points="791.81,-54.01 802.36,-54.98 794.72,-47.65 791.81,-54.01"/>
</a>
</g>
</g>
<!-- Node5 -->
<g id="Node000005" class="node">
<title>Node5</title>
<g id="a_Node000005"><a xlink:href="../../de/daa/dot_8cpp.html" target="_top" xlink:title=" ">
<polygon fill="white" stroke="#666666" points="856,-19 786,-19 786,0 856,0 856,-19"/>
<text text-anchor="middle" x="821" y="-7" font-family="Helvetica,sans-Serif" font-size="10.00">src/dot.cpp</text>
</a>
</g>
</g>
<!-- Node3&#45;&gt;Node5 -->
<g id="edge5_Node000003_Node000005" class="edge">
<title>Node3&#45;&gt;Node5</title>
<g id="a_edge5_Node000003_Node000005"><a xlink:title=" ">
<path fill="none" stroke="#63b8ff" d="M821,-44.66C821,-35.93 821,-25.99 821,-19.09"/>
<polygon fill="#63b8ff" stroke="#63b8ff" points="817.5,-44.75 821,-54.75 824.5,-44.75 817.5,-44.75"/>
</a>
</g>
</g>
<!-- Node3&#45;&gt;Node6 -->
<g id="edge6_Node000003_Node000006" class="edge">
<title>Node3&#45;&gt;Node6</title>
<g id="a_edge6_Node000003_Node000006"><a xlink:title=" ">
<path fill="none" stroke="#63b8ff" d="M781.25,-61.08C687.32,-55.21 444.37,-39.23 242,-19 239.24,-18.72 236.41,-18.43 233.56,-18.12"/>
<polygon fill="#63b8ff" stroke="#63b8ff" points="781.23,-64.58 791.43,-61.71 781.67,-57.59 781.23,-64.58"/>
</a>
</g>
</g>
<!-- Node7 -->
<g id="Node000007" class="node">
<title>Node7</title>
<g id="a_Node000007"><a xlink:href="../../de/d45/dotgraph_8cpp.html" target="_top" xlink:title=" ">
<polygon fill="white" stroke="#666666" points="972,-19 874,-19 874,0 972,0 972,-19"/>
<text text-anchor="middle" x="923" y="-7" font-family="Helvetica,sans-Serif" font-size="10.00">src/dotgraph.cpp</text>
</a>
</g>
</g>
<!-- Node3&#45;&gt;Node7 -->
<g id="edge7_Node000003_Node000007" class="edge">
<title>Node3&#45;&gt;Node7</title>
<g id="a_edge7_Node000003_Node000007"><a xlink:title=" ">
<path fill="none" stroke="#63b8ff" d="M846.27,-50.37C865.01,-40.63 890.02,-27.64 906.31,-19.17"/>
<polygon fill="#63b8ff" stroke="#63b8ff" points="844.65,-47.27 837.39,-54.98 847.88,-53.48 844.65,-47.27"/>
</a>
</g>
</g>
<!-- Node8 -->
<g id="Node000008" class="node">
<title>Node8</title>
<g id="a_Node000008"><a xlink:href="../../d4/d33/dotlegendgraph_8cpp.html" target="_top" xlink:title=" ">
<polygon fill="white" stroke="#666666" points="1121.5,-19 990.5,-19 990.5,0 1121.5,0 1121.5,-19"/>
<text text-anchor="middle" x="1056" y="-7" font-family="Helvetica,sans-Serif" font-size="10.00">src/dotlegendgraph.cpp</text>
</a>
</g>
</g>
<!-- Node3&#45;&gt;Node8 -->
<g id="edge8_Node000003_Node000008" class="edge">
<title>Node3&#45;&gt;Node8</title>
<g id="a_edge8_Node000003_Node000008"><a xlink:title=" ">
<path fill="none" stroke="#63b8ff" d="M860.78,-54.53C904.66,-44.63 974.75,-28.82 1017.93,-19.09"/>
<polygon fill="#63b8ff" stroke="#63b8ff" points="859.75,-51.17 850.76,-56.79 861.29,-58 859.75,-51.17"/>
</a>
</g>
</g>
<!-- Node3&#45;&gt;Node9 -->
<g id="edge9_Node000003_Node000009" class="edge">
<title>Node3&#45;&gt;Node9</title>
<g id="a_edge9_Node000003_Node000009"><a xlink:title=" ">
<path fill="none" stroke="#63b8ff" d="M781.34,-60.25C701.73,-53.59 516.83,-37.46 362,-19 358.97,-18.64 355.86,-18.25 352.72,-17.85"/>
<polygon fill="#63b8ff" stroke="#63b8ff" points="781.16,-63.74 791.42,-61.09 781.74,-56.77 781.16,-63.74"/>
</a>
</g>
</g>
<!-- Node10 -->
<g id="Node000010" class="node">
<title>Node10</title>
<g id="a_Node000010"><a xlink:href="../../dc/d98/doxygen_8cpp.html" target="_top" xlink:title=" ">
<polygon fill="white" stroke="#666666" points="1236,-19 1140,-19 1140,0 1236,0 1236,-19"/>
<text text-anchor="middle" x="1188" y="-7" font-family="Helvetica,sans-Serif" font-size="10.00">src/doxygen.cpp</text>
</a>
</g>
</g>
<!-- Node3&#45;&gt;Node10 -->
<g id="edge10_Node000003_Node000010" class="edge">
<title>Node3&#45;&gt;Node10</title>
<g id="a_edge10_Node000003_Node000010"><a xlink:title=" ">
<path fill="none" stroke="#63b8ff" d="M860.5,-57.9C919.42,-49.53 1033.81,-33.22 1131,-19 1133.87,-18.58 1136.82,-18.15 1139.8,-17.71"/>
<polygon fill="#63b8ff" stroke="#63b8ff" points="859.91,-54.45 850.5,-59.32 860.89,-61.38 859.91,-54.45"/>
</a>
</g>
</g>
<!-- Node11 -->
<g id="Node000011" class="node">
<title>Node11</title>
<g id="a_Node000011"><a xlink:href="../../d6/ddc/filedef_8cpp.html" target="_top" xlink:title=" ">
<polygon fill="white" stroke="#666666" points="1338,-19 1254,-19 1254,0 1338,0 1338,-19"/>
<text text-anchor="middle" x="1296" y="-7" font-family="Helvetica,sans-Serif" font-size="10.00">src/filedef.cpp</text>
</a>
</g>
</g>
<!-- Node3&#45;&gt;Node11 -->
<g id="edge11_Node000003_Node000011" class="edge">
<title>Node3&#45;&gt;Node11</title>
<g id="a_edge11_Node000003_Node000011"><a xlink:title=" ">
<path fill="none" stroke="#63b8ff" d="M860.6,-60.15C935.72,-53.62 1104.03,-38.13 1245,-19 1247.85,-18.61 1250.78,-18.19 1253.73,-17.75"/>
<polygon fill="#63b8ff" stroke="#63b8ff" points="860.29,-56.66 850.63,-61.01 860.9,-63.64 860.29,-56.66"/>
</a>
</g>
</g>
<!-- Node12 -->
<g id="Node000012" class="node">
<title>Node12</title>
<g id="a_Node000012"><a xlink:href="../../d6/d42/groupdef_8cpp.html" target="_top" xlink:title=" ">
<polygon fill="white" stroke="#666666" points="1452.5,-19 1355.5,-19 1355.5,0 1452.5,0 1452.5,-19"/>
<text text-anchor="middle" x="1404" y="-7" font-family="Helvetica,sans-Serif" font-size="10.00">src/groupdef.cpp</text>
</a>
</g>
</g>
<!-- Node3&#45;&gt;Node12 -->
<g id="edge12_Node000003_Node000012" class="edge">
<title>Node3&#45;&gt;Node12</title>
<g id="a_edge12_Node000003_Node000012"><a xlink:title=" ">
<path fill="none" stroke="#63b8ff" d="M860.79,-61C948.68,-55.29 1165.93,-40.14 1347,-19 1349.68,-18.69 1352.43,-18.35 1355.21,-17.98"/>
<polygon fill="#63b8ff" stroke="#63b8ff" points="860.48,-57.51 850.73,-61.65 860.93,-64.5 860.48,-57.51"/>
</a>
</g>
</g>
<!-- Node13 -->
<g id="Node000013" class="node">
<title>Node13</title>
<g id="a_Node000013"><a xlink:href="../../da/db0/htmldocvisitor_8cpp.html" target="_top" xlink:title=" ">
<polygon fill="white" stroke="#666666" points="1595,-19 1471,-19 1471,0 1595,0 1595,-19"/>
<text text-anchor="middle" x="1533" y="-7" font-family="Helvetica,sans-Serif" font-size="10.00">src/htmldocvisitor.cpp</text>
</a>
</g>
</g>
<!-- Node3&#45;&gt;Node13 -->
<g id="edge13_Node000003_Node000013" class="edge">
<title>Node3&#45;&gt;Node13</title>
<g id="a_edge13_Node000003_Node000013"><a xlink:title=" ">
<path fill="none" stroke="#63b8ff" d="M860.79,-61.43C961.55,-56.03 1234.87,-40.47 1462,-19 1464.84,-18.73 1467.75,-18.44 1470.68,-18.14"/>
<polygon fill="#63b8ff" stroke="#63b8ff" points="860.56,-57.94 850.76,-61.96 860.93,-64.93 860.56,-57.94"/>
</a>
</g>
</g>
<!-- Node14 -->
<g id="Node000014" class="node">
<title>Node14</title>
<g id="a_Node000014"><a xlink:href="../../d1/d4e/latexdocvisitor_8cpp.html" target="_top" xlink:title=" ">
<polygon fill="white" stroke="#666666" points="1739,-19 1613,-19 1613,0 1739,0 1739,-19"/>
<text text-anchor="middle" x="1676" y="-7" font-family="Helvetica,sans-Serif" font-size="10.00">src/latexdocvisitor.cpp</text>
</a>
</g>
</g>
<!-- Node3&#45;&gt;Node14 -->
<g id="edge14_Node000003_Node000014" class="edge">
<title>Node3&#45;&gt;Node14</title>
<g id="a_edge14_Node000003_Node000014"><a xlink:title=" ">
<path fill="none" stroke="#63b8ff" d="M860.65,-62.1C975.72,-57.85 1319.56,-43.85 1604,-19 1606.88,-18.75 1609.83,-18.47 1612.81,-18.18"/>
<polygon fill="#63b8ff" stroke="#63b8ff" points="860.42,-58.6 850.56,-62.47 860.68,-65.6 860.42,-58.6"/>
</a>
</g>
</g>
<!-- Node15 -->
<g id="Node000015" class="node">
<title>Node15</title>
<g id="a_Node000015"><a xlink:href="../../d8/dde/mandocvisitor_8cpp.html" target="_top" xlink:title=" ">
<polygon fill="white" stroke="#666666" points="493.5,-19 370.5,-19 370.5,0 493.5,0 493.5,-19"/>
<text text-anchor="middle" x="432" y="-7" font-family="Helvetica,sans-Serif" font-size="10.00">src/mandocvisitor.cpp</text>
</a>
</g>
</g>
<!-- Node3&#45;&gt;Node15 -->
<g id="edge15_Node000003_Node000015" class="edge">
<title>Node3&#45;&gt;Node15</title>
<g id="a_edge15_Node000003_Node000015"><a xlink:title=" ">
<path fill="none" stroke="#63b8ff" d="M781.17,-58.07C713.22,-48.82 574.47,-29.91 493.84,-18.92"/>
<polygon fill="#63b8ff" stroke="#63b8ff" points="781.06,-61.59 791.44,-59.47 782.01,-54.65 781.06,-61.59"/>
</a>
</g>
</g>
<!-- Node16 -->
<g id="Node000016" class="node">
<title>Node16</title>
<g id="a_Node000016"><a xlink:href="../../de/d9a/rtfdocvisitor_8cpp.html" target="_top" xlink:title=" ">
<polygon fill="white" stroke="#666666" points="624.5,-19 511.5,-19 511.5,0 624.5,0 624.5,-19"/>
<text text-anchor="middle" x="568" y="-7" font-family="Helvetica,sans-Serif" font-size="10.00">src/rtfdocvisitor.cpp</text>
</a>
</g>
</g>
<!-- Node3&#45;&gt;Node16 -->
<g id="edge16_Node000003_Node000016" class="edge">
<title>Node3&#45;&gt;Node16</title>
<g id="a_edge16_Node000003_Node000016"><a xlink:title=" ">
<path fill="none" stroke="#63b8ff" d="M781.65,-55.26C734.58,-45.4 656.19,-28.97 608.58,-19"/>
<polygon fill="#63b8ff" stroke="#63b8ff" points="780.98,-58.69 791.48,-57.32 782.41,-51.84 780.98,-58.69"/>
</a>
</g>
</g>
</g>
</svg>
