<?xml version="1.0" encoding="UTF-8" standalone="no"?>
<!DOCTYPE svg PUBLIC "-//W3C//DTD SVG 1.1//EN"
 "http://www.w3.org/Graphics/SVG/1.1/DTD/svg11.dtd">
<!-- Generated by graphviz version 2.43.0 (0)
 -->
<!-- Title: ClassHierarchyContext::Private Pages: 1 -->
<svg width="821pt" height="230pt"
 viewBox="0.00 0.00 821.00 229.50" xmlns="http://www.w3.org/2000/svg" xmlns:xlink="http://www.w3.org/1999/xlink">
<g id="graph0" class="graph" transform="scale(1 1) rotate(0) translate(4 225.5)">
<title>ClassHierarchyContext::Private</title>
<!-- Node1 -->
<g id="Node000001" class="node">
<title>Node1</title>
<g id="a_Node000001"><a xlink:title=" ">
<polygon fill="#999999" stroke="#666666" points="813,-120.5 685,-120.5 685,-90.5 813,-90.5 813,-120.5"/>
<text text-anchor="start" x="693" y="-108.5" font-family="Helvetica,sans-Serif" font-size="10.00">ClassHierarchyContext</text>
<text text-anchor="middle" x="749" y="-97.5" font-family="Helvetica,sans-Serif" font-size="10.00">::Private</text>
</a>
</g>
</g>
<!-- Node2 -->
<g id="Node000002" class="node">
<title>Node2</title>
<g id="a_Node000002"><a xlink:href="../../d7/dc1/class_cached_item.html" target="_top" xlink:title=" ">
<polygon fill="white" stroke="#666666" points="548.5,-221 369.5,-221 369.5,-180 548.5,-180 548.5,-221"/>
<text text-anchor="start" x="377.5" y="-209" font-family="Helvetica,sans-Serif" font-size="10.00">CachedItem&lt; int, ClassHierarchy</text>
<text text-anchor="start" x="377.5" y="-198" font-family="Helvetica,sans-Serif" font-size="10.00">Context::Private, &amp;Private</text>
<text text-anchor="middle" x="459" y="-187" font-family="Helvetica,sans-Serif" font-size="10.00">::createMaxDepth &gt;</text>
</a>
</g>
</g>
<!-- Node2&#45;&gt;Node1 -->
<g id="edge1_Node000001_Node000002" class="edge">
<title>Node2&#45;&gt;Node1</title>
<g id="a_edge1_Node000001_Node000002"><a xlink:title=" ">
<path fill="none" stroke="#9a32cd" stroke-dasharray="5,2" d="M552.01,-177.26C588.21,-167.34 629.91,-154.95 667,-141.5 683.78,-135.41 701.99,-127.45 716.88,-120.56"/>
<polygon fill="#9a32cd" stroke="#9a32cd" points="550.68,-173.99 541.95,-179.99 552.52,-180.75 550.68,-173.99"/>
</a>
</g>
<text text-anchor="middle" x="620.5" y="-172.5" font-family="Helvetica,sans-Serif" font-size="10.00" fill="grey"> m_maxDepth</text>
</g>
<!-- Node3 -->
<g id="Node000003" class="node">
<title>Node3</title>
<g id="a_Node000003"><a xlink:href="../../d7/dc1/class_cached_item.html" target="_top" xlink:title="Wrapper for data that needs to be cached.">
<polygon fill="white" stroke="#666666" points="139,-159.5 0,-159.5 0,-129.5 139,-129.5 139,-159.5"/>
<text text-anchor="start" x="8" y="-147.5" font-family="Helvetica,sans-Serif" font-size="10.00">CachedItem&lt; T, TOwner,</text>
<text text-anchor="middle" x="69.5" y="-136.5" font-family="Helvetica,sans-Serif" font-size="10.00"> creator &gt;</text>
</a>
</g>
</g>
<!-- Node3&#45;&gt;Node2 -->
<g id="edge2_Node000002_Node000003" class="edge">
<title>Node3&#45;&gt;Node2</title>
<g id="a_edge2_Node000002_Node000003"><a xlink:title=" ">
<path fill="none" stroke="orange" stroke-dasharray="5,2" d="M111.63,-163.59C125.73,-169.34 141.79,-175.04 157,-178.5 227.25,-194.48 308.87,-199.65 369.38,-201"/>
<polygon fill="orange" stroke="orange" points="112.79,-160.28 102.22,-159.63 110.08,-166.74 112.79,-160.28"/>
</a>
</g>
<text text-anchor="start" x="157" y="-213.5" font-family="Helvetica,sans-Serif" font-size="10.00" fill="grey"> &lt; int, ClassHierarchyContext</text>
<text text-anchor="middle" x="250.5" y="-202.5" font-family="Helvetica,sans-Serif" font-size="10.00" fill="grey">::Private, &amp;Private::createMaxDepth &gt;</text>
</g>
<!-- Node4 -->
<g id="Node000004" class="node">
<title>Node4</title>
<g id="a_Node000004"><a xlink:href="../../d7/dc1/class_cached_item.html" target="_top" xlink:title=" ">
<polygon fill="white" stroke="#666666" points="548.5,-162 369.5,-162 369.5,-121 548.5,-121 548.5,-162"/>
<text text-anchor="start" x="377.5" y="-150" font-family="Helvetica,sans-Serif" font-size="10.00">CachedItem&lt; int, ClassHierarchy</text>
<text text-anchor="start" x="377.5" y="-139" font-family="Helvetica,sans-Serif" font-size="10.00">Context::Private, &amp;Private</text>
<text text-anchor="middle" x="459" y="-128" font-family="Helvetica,sans-Serif" font-size="10.00">::createPreferredDepth &gt;</text>
</a>
</g>
</g>
<!-- Node3&#45;&gt;Node4 -->
<g id="edge4_Node000004_Node000003" class="edge">
<title>Node3&#45;&gt;Node4</title>
<g id="a_edge4_Node000004_Node000003"><a xlink:title=" ">
<path fill="none" stroke="orange" stroke-dasharray="5,2" d="M149.34,-143.89C213.17,-143.4 303.05,-142.7 369.37,-142.19"/>
<polygon fill="orange" stroke="orange" points="149.3,-140.39 139.33,-143.97 149.36,-147.39 149.3,-140.39"/>
</a>
</g>
<text text-anchor="start" x="165" y="-168.5" font-family="Helvetica,sans-Serif" font-size="10.00" fill="grey"> &lt; int, ClassHierarchyContext</text>
<text text-anchor="start" x="165" y="-157.5" font-family="Helvetica,sans-Serif" font-size="10.00" fill="grey">::Private, &amp;Private::createPreferred</text>
<text text-anchor="middle" x="250.5" y="-146.5" font-family="Helvetica,sans-Serif" font-size="10.00" fill="grey">Depth &gt;</text>
</g>
<!-- Node5 -->
<g id="Node000005" class="node">
<title>Node5</title>
<g id="a_Node000005"><a xlink:href="../../d7/dc1/class_cached_item.html" target="_top" xlink:title=" ">
<polygon fill="white" stroke="#666666" points="556,-103 362,-103 362,-62 556,-62 556,-103"/>
<text text-anchor="start" x="370" y="-91" font-family="Helvetica,sans-Serif" font-size="10.00">CachedItem&lt; TemplateVariant,</text>
<text text-anchor="start" x="370" y="-80" font-family="Helvetica,sans-Serif" font-size="10.00"> ClassHierarchyContext::</text>
<text text-anchor="middle" x="459" y="-69" font-family="Helvetica,sans-Serif" font-size="10.00">Private, &amp;Private::createDiagrams &gt;</text>
</a>
</g>
</g>
<!-- Node3&#45;&gt;Node5 -->
<g id="edge7_Node000005_Node000003" class="edge">
<title>Node3&#45;&gt;Node5</title>
<g id="a_edge7_Node000005_Node000003"><a xlink:title=" ">
<path fill="none" stroke="orange" stroke-dasharray="5,2" d="M105.56,-124.78C120.88,-117.1 139.36,-109.06 157,-104.5 223.96,-87.18 301.89,-81.88 361.68,-80.8"/>
<polygon fill="orange" stroke="orange" points="103.74,-121.79 96.46,-129.49 106.95,-128 103.74,-121.79"/>
</a>
</g>
<text text-anchor="start" x="158.5" y="-129.5" font-family="Helvetica,sans-Serif" font-size="10.00" fill="grey"> &lt; TemplateVariant,</text>
<text text-anchor="start" x="158.5" y="-118.5" font-family="Helvetica,sans-Serif" font-size="10.00" fill="grey"> ClassHierarchyContext</text>
<text text-anchor="middle" x="250.5" y="-107.5" font-family="Helvetica,sans-Serif" font-size="10.00" fill="grey">::Private, &amp;Private::createDiagrams &gt;</text>
</g>
<!-- Node4&#45;&gt;Node1 -->
<g id="edge3_Node000001_Node000004" class="edge">
<title>Node4&#45;&gt;Node1</title>
<g id="a_edge3_Node000001_Node000004"><a xlink:title=" ">
<path fill="none" stroke="#9a32cd" stroke-dasharray="5,2" d="M558.94,-129.13C600.58,-123.93 647.82,-118.02 684.66,-113.42"/>
<polygon fill="#9a32cd" stroke="#9a32cd" points="558.25,-125.69 548.76,-130.41 559.12,-132.64 558.25,-125.69"/>
</a>
</g>
<text text-anchor="middle" x="620.5" y="-129.5" font-family="Helvetica,sans-Serif" font-size="10.00" fill="grey"> m_preferredDepth</text>
</g>
<!-- Node5&#45;&gt;Node1 -->
<g id="edge5_Node000001_Node000005" class="edge">
<title>Node5&#45;&gt;Node1</title>
<g id="a_edge5_Node000001_Node000005"><a xlink:title=" ">
<path fill="none" stroke="#9a32cd" stroke-dasharray="5,2" d="M566.33,-90.99C606.17,-94.17 650.15,-97.69 684.86,-100.46"/>
<polygon fill="#9a32cd" stroke="#9a32cd" points="566.55,-87.5 556.3,-90.19 565.99,-94.48 566.55,-87.5"/>
</a>
</g>
<text text-anchor="middle" x="620.5" y="-101.5" font-family="Helvetica,sans-Serif" font-size="10.00" fill="grey"> m_diagrams</text>
</g>
<!-- Node6 -->
<g id="Node000006" class="node">
<title>Node6</title>
<g id="a_Node000006"><a xlink:href="../../d1/dba/class_template_variant.html" target="_top" xlink:title="Variant type which can hold one value of a fixed set of types.">
<polygon fill="white" stroke="#666666" points="117.5,-64 21.5,-64 21.5,-45 117.5,-45 117.5,-64"/>
<text text-anchor="middle" x="69.5" y="-52" font-family="Helvetica,sans-Serif" font-size="10.00">TemplateVariant</text>
</a>
</g>
</g>
<!-- Node6&#45;&gt;Node5 -->
<g id="edge6_Node000005_Node000006" class="edge">
<title>Node6&#45;&gt;Node5</title>
<g id="a_edge6_Node000005_Node000006"><a xlink:title=" ">
<path fill="none" stroke="#9a32cd" stroke-dasharray="5,2" d="M127.63,-50.93C183.12,-48.34 269.65,-46.68 344,-55.5 356.42,-56.97 369.45,-59.3 382.09,-61.98"/>
<polygon fill="#9a32cd" stroke="#9a32cd" points="127.46,-47.43 117.64,-51.42 127.8,-54.42 127.46,-47.43"/>
</a>
</g>
<text text-anchor="middle" x="250.5" y="-58.5" font-family="Helvetica,sans-Serif" font-size="10.00" fill="grey"> m_item</text>
</g>
<!-- Node7 -->
<g id="Node000007" class="node">
<title>Node7</title>
<g id="a_Node000007"><a xlink:href="../../d5/dbf/class_property_map.html" target="_top" xlink:title=" ">
<polygon fill="white" stroke="#666666" points="541,-34.5 377,-34.5 377,-4.5 541,-4.5 541,-34.5"/>
<text text-anchor="start" x="385" y="-22.5" font-family="Helvetica,sans-Serif" font-size="10.00">PropertyMap&lt; ClassHierarchy</text>
<text text-anchor="middle" x="459" y="-11.5" font-family="Helvetica,sans-Serif" font-size="10.00">Context::Private &gt;</text>
</a>
</g>
</g>
<!-- Node7&#45;&gt;Node1 -->
<g id="edge8_Node000001_Node000007" class="edge">
<title>Node7&#45;&gt;Node1</title>
<g id="a_edge8_Node000001_Node000007"><a xlink:title=" ">
<path fill="none" stroke="#9a32cd" stroke-dasharray="5,2" d="M528.99,-37.11C569.42,-47.77 621.36,-62.07 667,-76.5 680.39,-80.73 694.86,-85.77 707.83,-90.44"/>
<polygon fill="#9a32cd" stroke="#9a32cd" points="529.8,-33.7 519.23,-34.55 528.02,-40.47 529.8,-33.7"/>
</a>
</g>
<text text-anchor="middle" x="620.5" y="-79.5" font-family="Helvetica,sans-Serif" font-size="10.00" fill="grey"> s_inst</text>
</g>
<!-- Node8 -->
<g id="Node000008" class="node">
<title>Node8</title>
<g id="a_Node000008"><a xlink:href="../../d5/dbf/class_property_map.html" target="_top" xlink:title="Class representing a mapping of properties and the corresponding getter function.">
<polygon fill="white" stroke="#666666" points="123,-19 16,-19 16,0 123,0 123,-19"/>
<text text-anchor="middle" x="69.5" y="-7" font-family="Helvetica,sans-Serif" font-size="10.00">PropertyMap&lt; T &gt;</text>
</a>
</g>
</g>
<!-- Node8&#45;&gt;Node7 -->
<g id="edge9_Node000007_Node000008" class="edge">
<title>Node8&#45;&gt;Node7</title>
<g id="a_edge9_Node000007_Node000008"><a xlink:title=" ">
<path fill="none" stroke="orange" stroke-dasharray="5,2" d="M133.24,-8.39C188.69,-7.73 271.76,-7.52 344,-10.5 354.61,-10.94 365.77,-11.59 376.78,-12.34"/>
<polygon fill="orange" stroke="orange" points="133.17,-4.89 123.21,-8.52 133.26,-11.89 133.17,-4.89"/>
</a>
</g>
<text text-anchor="start" x="187" y="-24.5" font-family="Helvetica,sans-Serif" font-size="10.00" fill="grey"> &lt; ClassHierarchyContext</text>
<text text-anchor="middle" x="250.5" y="-13.5" font-family="Helvetica,sans-Serif" font-size="10.00" fill="grey">::Private &gt;</text>
</g>
</g>
</svg>
