<?xml version="1.0" encoding="UTF-8" standalone="no"?>
<!DOCTYPE svg PUBLIC "-//W3C//DTD SVG 1.1//EN"
 "http://www.w3.org/Graphics/SVG/1.1/DTD/svg11.dtd">
<!-- Generated by graphviz version 2.43.0 (0)
 -->
<!-- Title: /home/runner/work/doxygen/doxygen/src/textstream.h Pages: 1 -->
<svg width="585pt" height="203pt"
 viewBox="0.00 0.00 584.93 203.00" xmlns="http://www.w3.org/2000/svg" xmlns:xlink="http://www.w3.org/1999/xlink">
<g id="graph0" class="graph" transform="scale(1 1) rotate(0) translate(4 199)">
<title>/home/runner/work/doxygen/doxygen/src/textstream.h</title>
<!-- Node1 -->
<g id="Node000001" class="node">
<title>Node1</title>
<g id="a_Node000001"><a xlink:title=" ">
<polygon fill="#999999" stroke="#666666" points="306.74,-195 152.74,-195 152.74,-165 306.74,-165 306.74,-195"/>
<text text-anchor="start" x="160.74" y="-183" font-family="Helvetica,sans-Serif" font-size="10.00">/home/runner/work/doxygen</text>
<text text-anchor="middle" x="229.74" y="-172" font-family="Helvetica,sans-Serif" font-size="10.00">/doxygen/src/textstream.h</text>
</a>
</g>
</g>
<!-- Node2 -->
<g id="Node000002" class="node">
<title>Node2</title>
<g id="a_Node000002"><a xlink:title=" ">
<polygon fill="#e0e0e0" stroke="#999999" points="113.74,-19 69.74,-19 69.74,0 113.74,0 113.74,-19"/>
<text text-anchor="middle" x="91.74" y="-7" font-family="Helvetica,sans-Serif" font-size="10.00">string</text>
</a>
</g>
</g>
<!-- Node1&#45;&gt;Node2 -->
<g id="edge1_Node000001_Node000002" class="edge">
<title>Node1&#45;&gt;Node2</title>
<g id="a_edge1_Node000001_Node000002"><a xlink:title=" ">
<path fill="none" stroke="#63b8ff" d="M152.44,-176.81C111.24,-171.8 62.28,-159.19 28.74,-129 3.42,-106.21 -8.76,-84.23 8.74,-55 19.84,-36.45 41.62,-25.19 60.08,-18.64"/>
<polygon fill="#63b8ff" stroke="#63b8ff" points="61.2,-21.96 69.64,-15.55 59.04,-15.3 61.2,-21.96"/>
</a>
</g>
</g>
<!-- Node3 -->
<g id="Node000003" class="node">
<title>Node3</title>
<g id="a_Node000003"><a xlink:title=" ">
<polygon fill="#e0e0e0" stroke="#999999" points="97.74,-129 37.74,-129 37.74,-110 97.74,-110 97.74,-129"/>
<text text-anchor="middle" x="67.74" y="-117" font-family="Helvetica,sans-Serif" font-size="10.00">iostream</text>
</a>
</g>
</g>
<!-- Node1&#45;&gt;Node3 -->
<g id="edge2_Node000001_Node000003" class="edge">
<title>Node1&#45;&gt;Node3</title>
<g id="a_edge2_Node000001_Node000003"><a xlink:title=" ">
<path fill="none" stroke="#63b8ff" d="M190.94,-164.99C163.55,-155.1 127.22,-141.98 101.13,-132.56"/>
<polygon fill="#63b8ff" stroke="#63b8ff" points="102.26,-129.24 91.66,-129.14 99.88,-135.83 102.26,-129.24"/>
</a>
</g>
</g>
<!-- Node4 -->
<g id="Node000004" class="node">
<title>Node4</title>
<g id="a_Node000004"><a xlink:title=" ">
<polygon fill="#e0e0e0" stroke="#999999" points="171.74,-129 115.74,-129 115.74,-110 171.74,-110 171.74,-129"/>
<text text-anchor="middle" x="143.74" y="-117" font-family="Helvetica,sans-Serif" font-size="10.00">sstream</text>
</a>
</g>
</g>
<!-- Node1&#45;&gt;Node4 -->
<g id="edge3_Node000001_Node000004" class="edge">
<title>Node1&#45;&gt;Node4</title>
<g id="a_edge3_Node000001_Node000004"><a xlink:title=" ">
<path fill="none" stroke="#63b8ff" d="M208.92,-164.84C195.59,-155.77 178.35,-144.04 164.95,-134.92"/>
<polygon fill="#63b8ff" stroke="#63b8ff" points="166.61,-131.83 156.38,-129.09 162.67,-137.61 166.61,-131.83"/>
</a>
</g>
</g>
<!-- Node5 -->
<g id="Node000005" class="node">
<title>Node5</title>
<g id="a_Node000005"><a xlink:title=" ">
<polygon fill="#e0e0e0" stroke="#999999" points="496.74,-19 446.74,-19 446.74,0 496.74,0 496.74,-19"/>
<text text-anchor="middle" x="471.74" y="-7" font-family="Helvetica,sans-Serif" font-size="10.00">cstdint</text>
</a>
</g>
</g>
<!-- Node1&#45;&gt;Node5 -->
<g id="edge4_Node000001_Node000005" class="edge">
<title>Node1&#45;&gt;Node5</title>
<g id="a_edge4_Node000001_Node000005"><a xlink:title=" ">
<path fill="none" stroke="#63b8ff" d="M306.8,-167.29C399,-151.39 544.54,-119.63 572.74,-74 590.91,-44.61 542.51,-26.56 506.59,-17.55"/>
<polygon fill="#63b8ff" stroke="#63b8ff" points="507.39,-14.14 496.85,-15.25 505.78,-20.95 507.39,-14.14"/>
</a>
</g>
</g>
<!-- Node6 -->
<g id="Node000006" class="node">
<title>Node6</title>
<g id="a_Node000006"><a xlink:title=" ">
<polygon fill="#e0e0e0" stroke="#999999" points="63.74,-74 17.74,-74 17.74,-55 63.74,-55 63.74,-74"/>
<text text-anchor="middle" x="40.74" y="-62" font-family="Helvetica,sans-Serif" font-size="10.00">cstdio</text>
</a>
</g>
</g>
<!-- Node1&#45;&gt;Node6 -->
<g id="edge5_Node000001_Node000006" class="edge">
<title>Node1&#45;&gt;Node6</title>
<g id="a_edge5_Node000001_Node000006"><a xlink:title=" ">
<path fill="none" stroke="#63b8ff" d="M223.13,-164.74C215.19,-149.12 200.44,-124.38 180.74,-110 148.77,-86.66 104.11,-75.27 73.89,-69.91"/>
<polygon fill="#63b8ff" stroke="#63b8ff" points="74.29,-66.43 63.85,-68.26 73.15,-73.34 74.29,-66.43"/>
</a>
</g>
</g>
<!-- Node7 -->
<g id="Node000007" class="node">
<title>Node7</title>
<g id="a_Node000007"><a xlink:title=" ">
<polygon fill="#e0e0e0" stroke="#999999" points="366.24,-129 311.24,-129 311.24,-110 366.24,-110 366.24,-129"/>
<text text-anchor="middle" x="338.74" y="-117" font-family="Helvetica,sans-Serif" font-size="10.00">fstream</text>
</a>
</g>
</g>
<!-- Node1&#45;&gt;Node7 -->
<g id="edge6_Node000001_Node000007" class="edge">
<title>Node1&#45;&gt;Node7</title>
<g id="a_edge6_Node000001_Node000007"><a xlink:title=" ">
<path fill="none" stroke="#63b8ff" d="M255.85,-164.99C273.39,-155.58 296.36,-143.24 313.68,-133.95"/>
<polygon fill="#63b8ff" stroke="#63b8ff" points="315.49,-136.95 322.64,-129.14 312.18,-130.78 315.49,-136.95"/>
</a>
</g>
</g>
<!-- Node8 -->
<g id="Node000008" class="node">
<title>Node8</title>
<g id="a_Node000008"><a xlink:title=" ">
<polygon fill="#e0e0e0" stroke="#999999" points="453.24,-129 384.24,-129 384.24,-110 453.24,-110 453.24,-129"/>
<text text-anchor="middle" x="418.74" y="-117" font-family="Helvetica,sans-Serif" font-size="10.00">type_traits</text>
</a>
</g>
</g>
<!-- Node1&#45;&gt;Node8 -->
<g id="edge7_Node000001_Node000008" class="edge">
<title>Node1&#45;&gt;Node8</title>
<g id="a_edge7_Node000001_Node000008"><a xlink:title=" ">
<path fill="none" stroke="#63b8ff" d="M275.01,-164.99C307.49,-154.94 350.73,-141.55 381.27,-132.1"/>
<polygon fill="#63b8ff" stroke="#63b8ff" points="382.59,-135.35 391.11,-129.05 380.52,-128.67 382.59,-135.35"/>
</a>
</g>
</g>
<!-- Node9 -->
<g id="Node000009" class="node">
<title>Node9</title>
<g id="a_Node000009"><a xlink:href="../../d7/d5c/qcstring_8h.html" target="_top" xlink:title=" ">
<polygon fill="white" stroke="#666666" points="293.24,-129 228.24,-129 228.24,-110 293.24,-110 293.24,-129"/>
<text text-anchor="middle" x="260.74" y="-117" font-family="Helvetica,sans-Serif" font-size="10.00">qcstring.h</text>
</a>
</g>
</g>
<!-- Node1&#45;&gt;Node9 -->
<g id="edge8_Node000001_Node000009" class="edge">
<title>Node1&#45;&gt;Node9</title>
<g id="a_edge8_Node000001_Node000009"><a xlink:title=" ">
<path fill="none" stroke="#63b8ff" d="M237.24,-164.84C241.47,-156.87 246.78,-146.84 251.29,-138.33"/>
<polygon fill="#63b8ff" stroke="#63b8ff" points="254.51,-139.74 256.1,-129.27 248.32,-136.46 254.51,-139.74"/>
</a>
</g>
</g>
<!-- Node9&#45;&gt;Node2 -->
<g id="edge9_Node000009_Node000002" class="edge">
<title>Node9&#45;&gt;Node2</title>
<g id="a_edge9_Node000009_Node000002"><a xlink:title=" ">
<path fill="none" stroke="#63b8ff" d="M228.15,-112.47C189.5,-104.7 128.23,-90.25 111.74,-74 99.79,-62.22 94.96,-43.38 93.02,-29.27"/>
<polygon fill="#63b8ff" stroke="#63b8ff" points="96.49,-28.8 92,-19.2 89.52,-29.5 96.49,-28.8"/>
</a>
</g>
</g>
<!-- Node9&#45;&gt;Node5 -->
<g id="edge15_Node000009_Node000005" class="edge">
<title>Node9&#45;&gt;Node5</title>
<g id="a_edge15_Node000009_Node000005"><a xlink:title=" ">
<path fill="none" stroke="#63b8ff" d="M293.37,-111.83C346.61,-100.81 446.89,-79.49 452.74,-74 464.92,-62.56 469.4,-43.68 470.99,-29.47"/>
<polygon fill="#63b8ff" stroke="#63b8ff" points="474.49,-29.54 471.74,-19.3 467.51,-29.02 474.49,-29.54"/>
</a>
</g>
</g>
<!-- Node9&#45;&gt;Node6 -->
<g id="edge13_Node000009_Node000006" class="edge">
<title>Node9&#45;&gt;Node6</title>
<g id="a_edge13_Node000009_Node000006"><a xlink:title=" ">
<path fill="none" stroke="#63b8ff" d="M227.8,-110.57C186.25,-100.56 115.23,-83.44 73.68,-73.43"/>
<polygon fill="#63b8ff" stroke="#63b8ff" points="74.33,-69.99 63.78,-71.05 72.69,-76.8 74.33,-69.99"/>
</a>
</g>
</g>
<!-- Node10 -->
<g id="Node000010" class="node">
<title>Node10</title>
<g id="a_Node000010"><a xlink:title=" ">
<polygon fill="#e0e0e0" stroke="#999999" points="563.74,-74 499.74,-74 499.74,-55 563.74,-55 563.74,-74"/>
<text text-anchor="middle" x="531.74" y="-62" font-family="Helvetica,sans-Serif" font-size="10.00">algorithm</text>
</a>
</g>
</g>
<!-- Node9&#45;&gt;Node10 -->
<g id="edge10_Node000009_Node000010" class="edge">
<title>Node9&#45;&gt;Node10</title>
<g id="a_edge10_Node000009_Node000010"><a xlink:title=" ">
<path fill="none" stroke="#63b8ff" d="M293.29,-111.89C296.49,-111.25 299.68,-110.61 302.74,-110 367.93,-97.07 443.63,-82.43 489.59,-73.59"/>
<polygon fill="#63b8ff" stroke="#63b8ff" points="490.33,-77.01 499.49,-71.69 489.01,-70.14 490.33,-77.01"/>
</a>
</g>
</g>
<!-- Node11 -->
<g id="Node000011" class="node">
<title>Node11</title>
<g id="a_Node000011"><a xlink:title=" ">
<polygon fill="#e0e0e0" stroke="#999999" points="169.24,-74 120.24,-74 120.24,-55 169.24,-55 169.24,-74"/>
<text text-anchor="middle" x="144.74" y="-62" font-family="Helvetica,sans-Serif" font-size="10.00">cctype</text>
</a>
</g>
</g>
<!-- Node9&#45;&gt;Node11 -->
<g id="edge11_Node000009_Node000011" class="edge">
<title>Node9&#45;&gt;Node11</title>
<g id="a_edge11_Node000009_Node000011"><a xlink:title=" ">
<path fill="none" stroke="#63b8ff" d="M242.1,-109.98C223.44,-101.46 194.49,-88.23 173,-78.41"/>
<polygon fill="#63b8ff" stroke="#63b8ff" points="174.27,-75.14 163.72,-74.17 171.36,-81.51 174.27,-75.14"/>
</a>
</g>
</g>
<!-- Node12 -->
<g id="Node000012" class="node">
<title>Node12</title>
<g id="a_Node000012"><a xlink:title=" ">
<polygon fill="#e0e0e0" stroke="#999999" points="237.74,-74 187.74,-74 187.74,-55 237.74,-55 237.74,-74"/>
<text text-anchor="middle" x="212.74" y="-62" font-family="Helvetica,sans-Serif" font-size="10.00">cstring</text>
</a>
</g>
</g>
<!-- Node9&#45;&gt;Node12 -->
<g id="edge12_Node000009_Node000012" class="edge">
<title>Node9&#45;&gt;Node12</title>
<g id="a_edge12_Node000009_Node000012"><a xlink:title=" ">
<path fill="none" stroke="#63b8ff" d="M252.81,-109.75C245.89,-102.11 235.68,-90.82 227.29,-81.56"/>
<polygon fill="#63b8ff" stroke="#63b8ff" points="229.83,-79.15 220.52,-74.09 224.64,-83.85 229.83,-79.15"/>
</a>
</g>
</g>
<!-- Node13 -->
<g id="Node000013" class="node">
<title>Node13</title>
<g id="a_Node000013"><a xlink:title=" ">
<polygon fill="#e0e0e0" stroke="#999999" points="305.24,-74 256.24,-74 256.24,-55 305.24,-55 305.24,-74"/>
<text text-anchor="middle" x="280.74" y="-62" font-family="Helvetica,sans-Serif" font-size="10.00">cstdlib</text>
</a>
</g>
</g>
<!-- Node9&#45;&gt;Node13 -->
<g id="edge14_Node000009_Node000013" class="edge">
<title>Node9&#45;&gt;Node13</title>
<g id="a_edge14_Node000009_Node000013"><a xlink:title=" ">
<path fill="none" stroke="#63b8ff" d="M264.04,-109.75C266.72,-102.65 270.59,-92.4 273.93,-83.56"/>
<polygon fill="#63b8ff" stroke="#63b8ff" points="277.24,-84.68 277.5,-74.09 270.69,-82.21 277.24,-84.68"/>
</a>
</g>
</g>
<!-- Node14 -->
<g id="Node000014" class="node">
<title>Node14</title>
<g id="a_Node000014"><a xlink:title=" ">
<polygon fill="#e0e0e0" stroke="#999999" points="380.24,-74 323.24,-74 323.24,-55 380.24,-55 380.24,-74"/>
<text text-anchor="middle" x="351.74" y="-62" font-family="Helvetica,sans-Serif" font-size="10.00">ostream</text>
</a>
</g>
</g>
<!-- Node9&#45;&gt;Node14 -->
<g id="edge16_Node000009_Node000014" class="edge">
<title>Node9&#45;&gt;Node14</title>
<g id="a_edge16_Node000009_Node000014"><a xlink:title=" ">
<path fill="none" stroke="#63b8ff" d="M275.36,-109.98C289.6,-101.69 311.49,-88.94 328.19,-79.22"/>
<polygon fill="#63b8ff" stroke="#63b8ff" points="329.97,-82.23 336.85,-74.17 326.45,-76.18 329.97,-82.23"/>
</a>
</g>
</g>
<!-- Node15 -->
<g id="Node000015" class="node">
<title>Node15</title>
<g id="a_Node000015"><a xlink:href="../../db/d7c/utf8_8h.html" target="_top" xlink:title="Various UTF8 related helper functions.">
<polygon fill="white" stroke="#666666" points="443.24,-74 398.24,-74 398.24,-55 443.24,-55 443.24,-74"/>
<text text-anchor="middle" x="420.74" y="-62" font-family="Helvetica,sans-Serif" font-size="10.00">utf8.h</text>
</a>
</g>
</g>
<!-- Node9&#45;&gt;Node15 -->
<g id="edge17_Node000009_Node000015" class="edge">
<title>Node9&#45;&gt;Node15</title>
<g id="a_edge17_Node000009_Node000015"><a xlink:title=" ">
<path fill="none" stroke="#63b8ff" d="M286.45,-109.98C314.22,-100.78 358.54,-86.1 388.6,-76.15"/>
<polygon fill="#63b8ff" stroke="#63b8ff" points="389.81,-79.43 398.2,-72.97 387.61,-72.79 389.81,-79.43"/>
</a>
</g>
</g>
<!-- Node15&#45;&gt;Node2 -->
<g id="edge19_Node000015_Node000002" class="edge">
<title>Node15&#45;&gt;Node2</title>
<g id="a_edge19_Node000015_Node000002"><a xlink:title=" ">
<path fill="none" stroke="#63b8ff" d="M398.13,-56.97C395.32,-56.25 392.47,-55.58 389.74,-55 294.01,-34.8 179.1,-20.37 124.13,-14.05"/>
<polygon fill="#63b8ff" stroke="#63b8ff" points="124.29,-10.55 113.96,-12.9 123.5,-17.5 124.29,-10.55"/>
</a>
</g>
</g>
<!-- Node15&#45;&gt;Node5 -->
<g id="edge18_Node000015_Node000005" class="edge">
<title>Node15&#45;&gt;Node5</title>
<g id="a_edge18_Node000015_Node000005"><a xlink:title=" ">
<path fill="none" stroke="#63b8ff" d="M429.16,-54.75C436.51,-47.11 447.37,-35.82 456.28,-26.56"/>
<polygon fill="#63b8ff" stroke="#63b8ff" points="459.06,-28.72 463.48,-19.09 454.02,-23.87 459.06,-28.72"/>
</a>
</g>
</g>
</g>
</svg>
