<?xml version="1.0" encoding="UTF-8" standalone="no"?>
<!DOCTYPE svg PUBLIC "-//W3C//DTD SVG 1.1//EN"
 "http://www.w3.org/Graphics/SVG/1.1/DTD/svg11.dtd">
<!-- Generated by graphviz version 2.43.0 (0)
 -->
<!-- Title: TranslatorAdapter_1_6_0 Pages: 1 -->
<!--zoomable 962 -->

<svg id="main" version="1.1" xmlns="http://www.w3.org/2000/svg" xmlns:xlink="http://www.w3.org/1999/xlink" xml:space="preserve" onload="init(evt)">

<style type="text/css"><![CDATA[
.node, .edge {opacity: 0.7;}
.node.selected, .edge.selected {opacity: 1;}
.edge:hover path { stroke: red; }
.edge:hover polygon { stroke: red; fill: red; }
]]></style>

<defs>
  <circle id="rim" cx="0" cy="0" r="7"/>
  <circle id="rim2" cx="0" cy="0" r="3.5"/>
  <g id="zoomPlus">
    <use xlink:href="#rim" fill="#404040"><set attributeName="fill" to="#808080" begin="zoomplus.mouseover" end="zoomplus.mouseout"/></use>
    <path d="M-4,0h8M0,-4v8" fill="none" stroke="white" stroke-width="1.5" pointer-events="none"/>
  </g>
  <g id="zoomMin">
    <use xlink:href="#rim" fill="#404040"><set attributeName="fill" to="#808080" begin="zoomminus.mouseover" end="zoomminus.mouseout"/></use>
    <path d="M-4,0h8" fill="none" stroke="white" stroke-width="1.5" pointer-events="none"/>
  </g>
  <g id="arrowUp" transform="translate(30 24)">
    <use xlink:href="#rim"/>
    <path pointer-events="none" fill="none" stroke="white" stroke-width="1.5" d="M0,-3.0v7 M-2.5,-0.5L0,-3.0L2.5,-0.5"/>
  </g>
  <g id="arrowRight" transform="rotate(90) translate(36 -43)">
    <use xlink:href="#rim"/>
    <path pointer-events="none" fill="none" stroke="white" stroke-width="1.5" d="M0,-3.0v7 M-2.5,-0.5L0,-3.0L2.5,-0.5"/>
  </g>
  <g id="arrowDown" transform="rotate(180) translate(-30 -48)">
    <use xlink:href="#rim"/>
    <path pointer-events="none" fill="none" stroke="white" stroke-width="1.5" d="M0,-3.0v7 M-2.5,-0.5L0,-3.0L2.5,-0.5"/>
  </g>
  <g id="arrowLeft" transform="rotate(270) translate(-36 17)">
    <use xlink:href="#rim"/>
    <path pointer-events="none" fill="none" stroke="white" stroke-width="1.5" d="M0,-3.0v7 M-2.5,-0.5L0,-3.0L2.5,-0.5"/>
  </g>
  <g id="resetDef">
    <use xlink:href="#rim2" fill="#404040"><set attributeName="fill" to="#808080" begin="reset.mouseover" end="reset.mouseout"/></use>
  </g>
</defs>
<script type="application/ecmascript">
var viewWidth = 1117;
var viewHeight = 962;
var sectionId = 'dynsection-0';
</script>
<script type="application/ecmascript" xlink:href="../../svg.min.js"/>
<svg id="graph" class="graph">
<g id="viewport">
<title>TranslatorAdapter_1_6_0</title>
<!-- Node1 -->
<g id="Node000001" class="node">
<title>Node1</title>
<g id="a_Node000001"><a xlink:title="Adapter class for languages that only contain translations up to version 1.6.0.">
<polygon fill="#999999" stroke="#666666" points="702,-129 565,-129 565,-110 702,-110 702,-129"/>
<text text-anchor="middle" x="633.5" y="-117" font-family="Helvetica,sans-Serif" font-size="10.00">TranslatorAdapter_1_6_0</text>
</a>
</g>
</g>
<!-- Node17 -->
<g id="Node000017" class="node">
<title>Node17</title>
<g id="a_Node000017"><a xlink:href="../../d4/d2b/class_translator_adapter__1__4__6.html" target="_top" xlink:title="Adapter class for languages that only contain translations up to version 1.4.6.">
<polygon fill="white" stroke="#666666" points="307,-74 170,-74 170,-55 307,-55 307,-74"/>
<text text-anchor="middle" x="238.5" y="-62" font-family="Helvetica,sans-Serif" font-size="10.00">TranslatorAdapter_1_4_6</text>
</a>
</g>
</g>
<!-- Node1&#45;&gt;Node17 -->
<g id="edge16_Node000001_Node000017" class="edge">
<title>Node1&#45;&gt;Node17</title>
<g id="a_edge16_Node000001_Node000017"><a xlink:title=" ">
<path fill="none" stroke="#63b8ff" d="M559.84,-108.62C485.69,-98.67 372.5,-83.48 302.13,-74.04"/>
<polygon fill="#63b8ff" stroke="#63b8ff" points="559.66,-112.12 570.04,-109.98 560.59,-105.19 559.66,-112.12"/>
</a>
</g>
</g>
<!-- Node22 -->
<g id="Node000022" class="node">
<title>Node22</title>
<g id="a_Node000022"><a xlink:href="../../d3/d65/class_translator_afrikaans.html" target="_top" xlink:title=" ">
<polygon fill="white" stroke="#666666" points="435.5,-74 325.5,-74 325.5,-55 435.5,-55 435.5,-74"/>
<text text-anchor="middle" x="380.5" y="-62" font-family="Helvetica,sans-Serif" font-size="10.00">TranslatorAfrikaans</text>
</a>
</g>
</g>
<!-- Node1&#45;&gt;Node22 -->
<g id="edge21_Node000001_Node000022" class="edge">
<title>Node1&#45;&gt;Node22</title>
<g id="a_edge21_Node000001_Node000022"><a xlink:title=" ">
<path fill="none" stroke="#63b8ff" d="M582.8,-107.88C535.38,-97.94 465.45,-83.3 421.47,-74.08"/>
<polygon fill="#63b8ff" stroke="#63b8ff" points="582.35,-111.36 592.85,-109.98 583.78,-104.51 582.35,-111.36"/>
</a>
</g>
</g>
<!-- Node23 -->
<g id="Node000023" class="node">
<title>Node23</title>
<g id="a_Node000023"><a xlink:href="../../de/df7/class_translator_finnish.html" target="_top" xlink:title=" ">
<polygon fill="white" stroke="#666666" points="553,-74 454,-74 454,-55 553,-55 553,-74"/>
<text text-anchor="middle" x="503.5" y="-62" font-family="Helvetica,sans-Serif" font-size="10.00">TranslatorFinnish</text>
</a>
</g>
</g>
<!-- Node1&#45;&gt;Node23 -->
<g id="edge22_Node000001_Node000023" class="edge">
<title>Node1&#45;&gt;Node23</title>
<g id="a_edge22_Node000001_Node000023"><a xlink:title=" ">
<path fill="none" stroke="#63b8ff" d="M603.23,-106.16C579.16,-96.35 546.1,-82.87 524.77,-74.17"/>
<polygon fill="#63b8ff" stroke="#63b8ff" points="602.03,-109.45 612.61,-109.98 604.67,-102.97 602.03,-109.45"/>
</a>
</g>
</g>
<!-- Node24 -->
<g id="Node000024" class="node">
<title>Node24</title>
<g id="a_Node000024"><a xlink:href="../../d9/ddf/class_translator_macedonian.html" target="_top" xlink:title=" ">
<polygon fill="white" stroke="#666666" points="695.5,-74 571.5,-74 571.5,-55 695.5,-55 695.5,-74"/>
<text text-anchor="middle" x="633.5" y="-62" font-family="Helvetica,sans-Serif" font-size="10.00">TranslatorMacedonian</text>
</a>
</g>
</g>
<!-- Node1&#45;&gt;Node24 -->
<g id="edge23_Node000001_Node000024" class="edge">
<title>Node1&#45;&gt;Node24</title>
<g id="a_edge23_Node000001_Node000024"><a xlink:title=" ">
<path fill="none" stroke="#63b8ff" d="M633.5,-99.66C633.5,-90.93 633.5,-80.99 633.5,-74.09"/>
<polygon fill="#63b8ff" stroke="#63b8ff" points="630,-99.75 633.5,-109.75 637,-99.75 630,-99.75"/>
</a>
</g>
</g>
<!-- Node25 -->
<g id="Node000025" class="node">
<title>Node25</title>
<g id="a_Node000025"><a xlink:href="../../d5/d0a/class_translator_serbian.html" target="_top" xlink:title=" ">
<polygon fill="white" stroke="#666666" points="815,-74 714,-74 714,-55 815,-55 815,-74"/>
<text text-anchor="middle" x="764.5" y="-62" font-family="Helvetica,sans-Serif" font-size="10.00">TranslatorSerbian</text>
</a>
</g>
</g>
<!-- Node1&#45;&gt;Node25 -->
<g id="edge24_Node000001_Node000025" class="edge">
<title>Node1&#45;&gt;Node25</title>
<g id="a_edge24_Node000001_Node000025"><a xlink:title=" ">
<path fill="none" stroke="#63b8ff" d="M664,-106.16C688.25,-96.35 721.57,-82.87 743.07,-74.17"/>
<polygon fill="#63b8ff" stroke="#63b8ff" points="662.5,-102.99 654.55,-109.98 665.13,-109.48 662.5,-102.99"/>
</a>
</g>
</g>
<!-- Node26 -->
<g id="Node000026" class="node">
<title>Node26</title>
<g id="a_Node000026"><a xlink:href="../../dc/d03/class_translator_serbian_cyrillic.html" target="_top" xlink:title=" ">
<polygon fill="white" stroke="#666666" points="968,-74 833,-74 833,-55 968,-55 968,-74"/>
<text text-anchor="middle" x="900.5" y="-62" font-family="Helvetica,sans-Serif" font-size="10.00">TranslatorSerbianCyrillic</text>
</a>
</g>
</g>
<!-- Node1&#45;&gt;Node26 -->
<g id="edge25_Node000001_Node000026" class="edge">
<title>Node1&#45;&gt;Node26</title>
<g id="a_edge25_Node000001_Node000026"><a xlink:title=" ">
<path fill="none" stroke="#63b8ff" d="M686.38,-108C736.43,-98.07 810.66,-83.33 857.27,-74.08"/>
<polygon fill="#63b8ff" stroke="#63b8ff" points="685.53,-104.6 676.4,-109.98 686.89,-111.47 685.53,-104.6"/>
</a>
</g>
</g>
<!-- Node27 -->
<g id="Node000027" class="node">
<title>Node27</title>
<g id="a_Node000027"><a xlink:href="../../df/d20/class_translator_vietnamese.html" target="_top" xlink:title=" ">
<polygon fill="white" stroke="#666666" points="1109,-74 986,-74 986,-55 1109,-55 1109,-74"/>
<text text-anchor="middle" x="1047.5" y="-62" font-family="Helvetica,sans-Serif" font-size="10.00">TranslatorVietnamese</text>
</a>
</g>
</g>
<!-- Node1&#45;&gt;Node27 -->
<g id="edge26_Node000001_Node000027" class="edge">
<title>Node1&#45;&gt;Node27</title>
<g id="a_edge26_Node000001_Node000027"><a xlink:title=" ">
<path fill="none" stroke="#63b8ff" d="M709.97,-108.71C789.48,-98.53 912.37,-82.8 985.88,-73.39"/>
<polygon fill="#63b8ff" stroke="#63b8ff" points="709.49,-105.24 700.02,-109.98 710.38,-112.19 709.49,-105.24"/>
</a>
</g>
</g>
<!-- Node2 -->
<g id="Node000002" class="node">
<title>Node2</title>
<g id="a_Node000002"><a xlink:href="../../da/d24/class_translator_adapter__1__7__5.html" target="_top" xlink:title="Adapter class for languages that only contain translations up to version 1.7.5.">
<polygon fill="white" stroke="#666666" points="702,-184 565,-184 565,-165 702,-165 702,-184"/>
<text text-anchor="middle" x="633.5" y="-172" font-family="Helvetica,sans-Serif" font-size="10.00">TranslatorAdapter_1_7_5</text>
</a>
</g>
</g>
<!-- Node2&#45;&gt;Node1 -->
<g id="edge1_Node000001_Node000002" class="edge">
<title>Node2&#45;&gt;Node1</title>
<g id="a_edge1_Node000001_Node000002"><a xlink:title=" ">
<path fill="none" stroke="#63b8ff" d="M633.5,-154.66C633.5,-145.93 633.5,-135.99 633.5,-129.09"/>
<polygon fill="#63b8ff" stroke="#63b8ff" points="630,-154.75 633.5,-164.75 637,-154.75 630,-154.75"/>
</a>
</g>
</g>
<!-- Node3 -->
<g id="Node000003" class="node">
<title>Node3</title>
<g id="a_Node000003"><a xlink:href="../../de/d49/class_translator_adapter__1__8__0.html" target="_top" xlink:title="Adapter class for languages that only contain translations up to version 1.8.0.">
<polygon fill="white" stroke="#666666" points="702,-239 565,-239 565,-220 702,-220 702,-239"/>
<text text-anchor="middle" x="633.5" y="-227" font-family="Helvetica,sans-Serif" font-size="10.00">TranslatorAdapter_1_8_0</text>
</a>
</g>
</g>
<!-- Node3&#45;&gt;Node2 -->
<g id="edge2_Node000002_Node000003" class="edge">
<title>Node3&#45;&gt;Node2</title>
<g id="a_edge2_Node000002_Node000003"><a xlink:title=" ">
<path fill="none" stroke="#63b8ff" d="M633.5,-209.66C633.5,-200.93 633.5,-190.99 633.5,-184.09"/>
<polygon fill="#63b8ff" stroke="#63b8ff" points="630,-209.75 633.5,-219.75 637,-209.75 630,-209.75"/>
</a>
</g>
</g>
<!-- Node4 -->
<g id="Node000004" class="node">
<title>Node4</title>
<g id="a_Node000004"><a xlink:href="../../d2/d75/class_translator_adapter__1__8__2.html" target="_top" xlink:title=" ">
<polygon fill="white" stroke="#666666" points="702,-294 565,-294 565,-275 702,-275 702,-294"/>
<text text-anchor="middle" x="633.5" y="-282" font-family="Helvetica,sans-Serif" font-size="10.00">TranslatorAdapter_1_8_2</text>
</a>
</g>
</g>
<!-- Node4&#45;&gt;Node3 -->
<g id="edge3_Node000003_Node000004" class="edge">
<title>Node4&#45;&gt;Node3</title>
<g id="a_edge3_Node000003_Node000004"><a xlink:title=" ">
<path fill="none" stroke="#63b8ff" d="M633.5,-264.66C633.5,-255.93 633.5,-245.99 633.5,-239.09"/>
<polygon fill="#63b8ff" stroke="#63b8ff" points="630,-264.75 633.5,-274.75 637,-264.75 630,-264.75"/>
</a>
</g>
</g>
<!-- Node5 -->
<g id="Node000005" class="node">
<title>Node5</title>
<g id="a_Node000005"><a xlink:href="../../de/d2f/class_translator_adapter__1__8__4.html" target="_top" xlink:title=" ">
<polygon fill="white" stroke="#666666" points="702,-349 565,-349 565,-330 702,-330 702,-349"/>
<text text-anchor="middle" x="633.5" y="-337" font-family="Helvetica,sans-Serif" font-size="10.00">TranslatorAdapter_1_8_4</text>
</a>
</g>
</g>
<!-- Node5&#45;&gt;Node4 -->
<g id="edge4_Node000004_Node000005" class="edge">
<title>Node5&#45;&gt;Node4</title>
<g id="a_edge4_Node000004_Node000005"><a xlink:title=" ">
<path fill="none" stroke="#63b8ff" d="M633.5,-319.66C633.5,-310.93 633.5,-300.99 633.5,-294.09"/>
<polygon fill="#63b8ff" stroke="#63b8ff" points="630,-319.75 633.5,-329.75 637,-319.75 630,-319.75"/>
</a>
</g>
</g>
<!-- Node6 -->
<g id="Node000006" class="node">
<title>Node6</title>
<g id="a_Node000006"><a xlink:href="../../d4/d2e/class_translator_adapter__1__8__15.html" target="_top" xlink:title=" ">
<polygon fill="white" stroke="#666666" points="705,-404 562,-404 562,-385 705,-385 705,-404"/>
<text text-anchor="middle" x="633.5" y="-392" font-family="Helvetica,sans-Serif" font-size="10.00">TranslatorAdapter_1_8_15</text>
</a>
</g>
</g>
<!-- Node6&#45;&gt;Node5 -->
<g id="edge5_Node000005_Node000006" class="edge">
<title>Node6&#45;&gt;Node5</title>
<g id="a_edge5_Node000005_Node000006"><a xlink:title=" ">
<path fill="none" stroke="#63b8ff" d="M633.5,-374.66C633.5,-365.93 633.5,-355.99 633.5,-349.09"/>
<polygon fill="#63b8ff" stroke="#63b8ff" points="630,-374.75 633.5,-384.75 637,-374.75 630,-374.75"/>
</a>
</g>
</g>
<!-- Node7 -->
<g id="Node000007" class="node">
<title>Node7</title>
<g id="a_Node000007"><a xlink:href="../../de/dde/class_translator_adapter__1__8__19.html" target="_top" xlink:title=" ">
<polygon fill="white" stroke="#666666" points="705,-459 562,-459 562,-440 705,-440 705,-459"/>
<text text-anchor="middle" x="633.5" y="-447" font-family="Helvetica,sans-Serif" font-size="10.00">TranslatorAdapter_1_8_19</text>
</a>
</g>
</g>
<!-- Node7&#45;&gt;Node6 -->
<g id="edge6_Node000006_Node000007" class="edge">
<title>Node7&#45;&gt;Node6</title>
<g id="a_edge6_Node000006_Node000007"><a xlink:title=" ">
<path fill="none" stroke="#63b8ff" d="M633.5,-429.66C633.5,-420.93 633.5,-410.99 633.5,-404.09"/>
<polygon fill="#63b8ff" stroke="#63b8ff" points="630,-429.75 633.5,-439.75 637,-429.75 630,-429.75"/>
</a>
</g>
</g>
<!-- Node8 -->
<g id="Node000008" class="node">
<title>Node8</title>
<g id="a_Node000008"><a xlink:href="../../d3/d2e/class_translator_adapter__1__9__2.html" target="_top" xlink:title=" ">
<polygon fill="white" stroke="#666666" points="702,-514 565,-514 565,-495 702,-495 702,-514"/>
<text text-anchor="middle" x="633.5" y="-502" font-family="Helvetica,sans-Serif" font-size="10.00">TranslatorAdapter_1_9_2</text>
</a>
</g>
</g>
<!-- Node8&#45;&gt;Node7 -->
<g id="edge7_Node000007_Node000008" class="edge">
<title>Node8&#45;&gt;Node7</title>
<g id="a_edge7_Node000007_Node000008"><a xlink:title=" ">
<path fill="none" stroke="#63b8ff" d="M633.5,-484.66C633.5,-475.93 633.5,-465.99 633.5,-459.09"/>
<polygon fill="#63b8ff" stroke="#63b8ff" points="630,-484.75 633.5,-494.75 637,-484.75 630,-484.75"/>
</a>
</g>
</g>
<!-- Node9 -->
<g id="Node000009" class="node">
<title>Node9</title>
<g id="a_Node000009"><a xlink:href="../../d0/d33/class_translator_adapter__1__9__4.html" target="_top" xlink:title=" ">
<polygon fill="white" stroke="#666666" points="702,-569 565,-569 565,-550 702,-550 702,-569"/>
<text text-anchor="middle" x="633.5" y="-557" font-family="Helvetica,sans-Serif" font-size="10.00">TranslatorAdapter_1_9_4</text>
</a>
</g>
</g>
<!-- Node9&#45;&gt;Node8 -->
<g id="edge8_Node000008_Node000009" class="edge">
<title>Node9&#45;&gt;Node8</title>
<g id="a_edge8_Node000008_Node000009"><a xlink:title=" ">
<path fill="none" stroke="#63b8ff" d="M633.5,-539.66C633.5,-530.93 633.5,-520.99 633.5,-514.09"/>
<polygon fill="#63b8ff" stroke="#63b8ff" points="630,-539.75 633.5,-549.75 637,-539.75 630,-539.75"/>
</a>
</g>
</g>
<!-- Node10 -->
<g id="Node000010" class="node">
<title>Node10</title>
<g id="a_Node000010"><a xlink:href="../../dd/dba/class_translator_adapter__1__9__5.html" target="_top" xlink:title=" ">
<polygon fill="white" stroke="#666666" points="702,-624 565,-624 565,-605 702,-605 702,-624"/>
<text text-anchor="middle" x="633.5" y="-612" font-family="Helvetica,sans-Serif" font-size="10.00">TranslatorAdapter_1_9_5</text>
</a>
</g>
</g>
<!-- Node10&#45;&gt;Node9 -->
<g id="edge9_Node000009_Node000010" class="edge">
<title>Node10&#45;&gt;Node9</title>
<g id="a_edge9_Node000009_Node000010"><a xlink:title=" ">
<path fill="none" stroke="#63b8ff" d="M633.5,-594.66C633.5,-585.93 633.5,-575.99 633.5,-569.09"/>
<polygon fill="#63b8ff" stroke="#63b8ff" points="630,-594.75 633.5,-604.75 637,-594.75 630,-594.75"/>
</a>
</g>
</g>
<!-- Node11 -->
<g id="Node000011" class="node">
<title>Node11</title>
<g id="a_Node000011"><a xlink:href="../../db/d71/class_translator_adapter__1__9__6.html" target="_top" xlink:title=" ">
<polygon fill="white" stroke="#666666" points="702,-679 565,-679 565,-660 702,-660 702,-679"/>
<text text-anchor="middle" x="633.5" y="-667" font-family="Helvetica,sans-Serif" font-size="10.00">TranslatorAdapter_1_9_6</text>
</a>
</g>
</g>
<!-- Node11&#45;&gt;Node10 -->
<g id="edge10_Node000010_Node000011" class="edge">
<title>Node11&#45;&gt;Node10</title>
<g id="a_edge10_Node000010_Node000011"><a xlink:title=" ">
<path fill="none" stroke="#63b8ff" d="M633.5,-649.66C633.5,-640.93 633.5,-630.99 633.5,-624.09"/>
<polygon fill="#63b8ff" stroke="#63b8ff" points="630,-649.75 633.5,-659.75 637,-649.75 630,-649.75"/>
</a>
</g>
</g>
<!-- Node12 -->
<g id="Node000012" class="node">
<title>Node12</title>
<g id="a_Node000012"><a xlink:href="../../d7/d9d/class_translator_adapter__1__9__8.html" target="_top" xlink:title=" ">
<polygon fill="white" stroke="#666666" points="702,-734 565,-734 565,-715 702,-715 702,-734"/>
<text text-anchor="middle" x="633.5" y="-722" font-family="Helvetica,sans-Serif" font-size="10.00">TranslatorAdapter_1_9_8</text>
</a>
</g>
</g>
<!-- Node12&#45;&gt;Node11 -->
<g id="edge11_Node000011_Node000012" class="edge">
<title>Node12&#45;&gt;Node11</title>
<g id="a_edge11_Node000011_Node000012"><a xlink:title=" ">
<path fill="none" stroke="#63b8ff" d="M633.5,-704.66C633.5,-695.93 633.5,-685.99 633.5,-679.09"/>
<polygon fill="#63b8ff" stroke="#63b8ff" points="630,-704.75 633.5,-714.75 637,-704.75 630,-704.75"/>
</a>
</g>
</g>
<!-- Node13 -->
<g id="Node000013" class="node">
<title>Node13</title>
<g id="a_Node000013"><a xlink:href="../../de/d34/class_translator_adapter__1__10__0.html" target="_top" xlink:title=" ">
<polygon fill="white" stroke="#666666" points="705,-789 562,-789 562,-770 705,-770 705,-789"/>
<text text-anchor="middle" x="633.5" y="-777" font-family="Helvetica,sans-Serif" font-size="10.00">TranslatorAdapter_1_10_0</text>
</a>
</g>
</g>
<!-- Node13&#45;&gt;Node12 -->
<g id="edge12_Node000012_Node000013" class="edge">
<title>Node13&#45;&gt;Node12</title>
<g id="a_edge12_Node000012_Node000013"><a xlink:title=" ">
<path fill="none" stroke="#63b8ff" d="M633.5,-759.66C633.5,-750.93 633.5,-740.99 633.5,-734.09"/>
<polygon fill="#63b8ff" stroke="#63b8ff" points="630,-759.75 633.5,-769.75 637,-759.75 630,-759.75"/>
</a>
</g>
</g>
<!-- Node14 -->
<g id="Node000014" class="node">
<title>Node14</title>
<g id="a_Node000014"><a xlink:href="../../d8/d55/class_translator_adapter__1__11__0.html" target="_top" xlink:title=" ">
<polygon fill="white" stroke="#666666" points="705,-844 562,-844 562,-825 705,-825 705,-844"/>
<text text-anchor="middle" x="633.5" y="-832" font-family="Helvetica,sans-Serif" font-size="10.00">TranslatorAdapter_1_11_0</text>
</a>
</g>
</g>
<!-- Node14&#45;&gt;Node13 -->
<g id="edge13_Node000013_Node000014" class="edge">
<title>Node14&#45;&gt;Node13</title>
<g id="a_edge13_Node000013_Node000014"><a xlink:title=" ">
<path fill="none" stroke="#63b8ff" d="M633.5,-814.66C633.5,-805.93 633.5,-795.99 633.5,-789.09"/>
<polygon fill="#63b8ff" stroke="#63b8ff" points="630,-814.75 633.5,-824.75 637,-814.75 630,-814.75"/>
</a>
</g>
</g>
<!-- Node15 -->
<g id="Node000015" class="node">
<title>Node15</title>
<g id="a_Node000015"><a xlink:href="../../db/d6c/class_translator_adapter_base.html" target="_top" xlink:title="Base of the translator adapter tree.">
<polygon fill="white" stroke="#666666" points="697,-899 570,-899 570,-880 697,-880 697,-899"/>
<text text-anchor="middle" x="633.5" y="-887" font-family="Helvetica,sans-Serif" font-size="10.00">TranslatorAdapterBase</text>
</a>
</g>
</g>
<!-- Node15&#45;&gt;Node14 -->
<g id="edge14_Node000014_Node000015" class="edge">
<title>Node15&#45;&gt;Node14</title>
<g id="a_edge14_Node000014_Node000015"><a xlink:title=" ">
<path fill="none" stroke="#63b8ff" d="M633.5,-869.66C633.5,-860.93 633.5,-850.99 633.5,-844.09"/>
<polygon fill="#63b8ff" stroke="#63b8ff" points="630,-869.75 633.5,-879.75 637,-869.75 630,-869.75"/>
</a>
</g>
</g>
<!-- Node16 -->
<g id="Node000016" class="node">
<title>Node16</title>
<g id="a_Node000016"><a xlink:href="../../d8/dfb/class_translator.html" target="_top" xlink:title="Abstract base class for all translatable text fragments.">
<polygon fill="white" stroke="#666666" points="666,-954 601,-954 601,-935 666,-935 666,-954"/>
<text text-anchor="middle" x="633.5" y="-942" font-family="Helvetica,sans-Serif" font-size="10.00">Translator</text>
</a>
</g>
</g>
<!-- Node16&#45;&gt;Node15 -->
<g id="edge15_Node000015_Node000016" class="edge">
<title>Node16&#45;&gt;Node15</title>
<g id="a_edge15_Node000015_Node000016"><a xlink:title=" ">
<path fill="none" stroke="#63b8ff" d="M633.5,-924.66C633.5,-915.93 633.5,-905.99 633.5,-899.09"/>
<polygon fill="#63b8ff" stroke="#63b8ff" points="630,-924.75 633.5,-934.75 637,-924.75 630,-924.75"/>
</a>
</g>
</g>
<!-- Node18 -->
<g id="Node000018" class="node">
<title>Node18</title>
<g id="a_Node000018"><a xlink:href="../../d3/de9/class_translator_arabic.html" target="_top" xlink:title=" ">
<polygon fill="white" stroke="#666666" points="95,-19 0,-19 0,0 95,0 95,-19"/>
<text text-anchor="middle" x="47.5" y="-7" font-family="Helvetica,sans-Serif" font-size="10.00">TranslatorArabic</text>
</a>
</g>
</g>
<!-- Node17&#45;&gt;Node18 -->
<g id="edge17_Node000017_Node000018" class="edge">
<title>Node17&#45;&gt;Node18</title>
<g id="a_edge17_Node000017_Node000018"><a xlink:title=" ">
<path fill="none" stroke="#63b8ff" d="M197.72,-52.18C162,-42.27 110.87,-28.08 78.43,-19.08"/>
<polygon fill="#63b8ff" stroke="#63b8ff" points="197.24,-55.68 207.81,-54.98 199.11,-48.94 197.24,-55.68"/>
</a>
</g>
</g>
<!-- Node19 -->
<g id="Node000019" class="node">
<title>Node19</title>
<g id="a_Node000019"><a xlink:href="../../dc/d53/class_translator_lithuanian.html" target="_top" xlink:title=" ">
<polygon fill="white" stroke="#666666" points="229.5,-19 113.5,-19 113.5,0 229.5,0 229.5,-19"/>
<text text-anchor="middle" x="171.5" y="-7" font-family="Helvetica,sans-Serif" font-size="10.00">TranslatorLithuanian</text>
</a>
</g>
</g>
<!-- Node17&#45;&gt;Node19 -->
<g id="edge18_Node000017_Node000019" class="edge">
<title>Node17&#45;&gt;Node19</title>
<g id="a_edge18_Node000017_Node000019"><a xlink:title=" ">
<path fill="none" stroke="#63b8ff" d="M219.67,-48.6C207.66,-39.11 192.53,-27.13 182.46,-19.17"/>
<polygon fill="#63b8ff" stroke="#63b8ff" points="217.72,-51.53 227.74,-54.98 222.06,-46.04 217.72,-51.53"/>
</a>
</g>
</g>
<!-- Node20 -->
<g id="Node000020" class="node">
<title>Node20</title>
<g id="a_Node000020"><a xlink:href="../../dd/d38/class_translator_norwegian.html" target="_top" xlink:title=" ">
<polygon fill="white" stroke="#666666" points="365,-19 248,-19 248,0 365,0 365,-19"/>
<text text-anchor="middle" x="306.5" y="-7" font-family="Helvetica,sans-Serif" font-size="10.00">TranslatorNorwegian</text>
</a>
</g>
</g>
<!-- Node17&#45;&gt;Node20 -->
<g id="edge19_Node000017_Node000020" class="edge">
<title>Node17&#45;&gt;Node20</title>
<g id="a_edge19_Node000017_Node000020"><a xlink:title=" ">
<path fill="none" stroke="#63b8ff" d="M257.62,-48.6C269.8,-39.11 285.16,-27.13 295.38,-19.17"/>
<polygon fill="#63b8ff" stroke="#63b8ff" points="255.16,-46.08 249.43,-54.98 259.46,-51.6 255.16,-46.08"/>
</a>
</g>
</g>
<!-- Node21 -->
<g id="Node000021" class="node">
<title>Node21</title>
<g id="a_Node000021"><a xlink:href="../../dd/d0b/class_translator_slovene.html" target="_top" xlink:title=" ">
<polygon fill="white" stroke="#666666" points="487.5,-19 383.5,-19 383.5,0 487.5,0 487.5,-19"/>
<text text-anchor="middle" x="435.5" y="-7" font-family="Helvetica,sans-Serif" font-size="10.00">TranslatorSlovene</text>
</a>
</g>
</g>
<!-- Node17&#45;&gt;Node21 -->
<g id="edge20_Node000017_Node000021" class="edge">
<title>Node17&#45;&gt;Node21</title>
<g id="a_edge20_Node000017_Node000021"><a xlink:title=" ">
<path fill="none" stroke="#63b8ff" d="M280.09,-52.31C316.95,-42.39 370,-28.12 403.6,-19.08"/>
<polygon fill="#63b8ff" stroke="#63b8ff" points="278.9,-49.01 270.15,-54.98 280.72,-55.77 278.9,-49.01"/>
</a>
</g>
</g>
</g>
</svg>

<g id="navigator" transform="translate(0 0)" fill="#404254">
  <rect fill="#f2f5e9" fill-opacity="0.5" stroke="#606060" stroke-width=".5" x="0" y="0" width="60" height="60"/>
  <use id="zoomplus" xlink:href="#zoomPlus" x="17" y="9" onmousedown="handleZoom(evt,'in')"/>
  <use id="zoomminus" xlink:href="#zoomMin" x="42" y="9" onmousedown="handleZoom(evt,'out')"/>
  <use id="reset" xlink:href="#resetDef" x="30" y="36" onmousedown="handleReset()"/>
   <use id="arrowup" xlink:href="#arrowUp" x="0" y="0" onmousedown="handlePan(0,-1)"/>
  <use id="arrowright" xlink:href="#arrowRight" x="0" y="0" onmousedown="handlePan(1,0)"/>
  <use id="arrowdown" xlink:href="#arrowDown" x="0" y="0" onmousedown="handlePan(0,1)"/>
  <use id="arrowleft" xlink:href="#arrowLeft" x="0" y="0" onmousedown="handlePan(-1,0)"/>
</g>
<svg viewBox="0 0 15 15" width="100%" height="30px" preserveAspectRatio="xMaxYMin meet">
 <g id="arrow_out" transform="scale(0.3 0.3)">
  <a xlink:href="class_translator_adapter__1__6__0__inherit__graph_org.svg" target="_base">
   <rect id="button" ry="5" rx="5" y="6" x="6" height="38" width="38"
        fill="#f2f5e9" fill-opacity="0.5" stroke="#606060" stroke-width="1.0"/>
   <path id="arrow"
     d="M 11.500037,31.436501 C 11.940474,20.09759 22.043105,11.32322 32.158766,21.979434 L 37.068811,17.246167 C 37.068811,17.246167 37.088388,32 37.088388,32 L 22.160133,31.978069 C 22.160133,31.978069 26.997745,27.140456 26.997745,27.140456 C 18.528582,18.264221 13.291696,25.230495 11.500037,31.436501 z"
     style="fill:#404040;"/>
  </a>
 </g>
</svg>

<style type='text/css'>
<![CDATA[
[data-mouse-over-selected='false'] { opacity: 0.7; }
[data-mouse-over-selected='true']  { opacity: 1.0; }
]]>
</style>
<script type="application/ecmascript"><![CDATA[
document.addEventListener('DOMContentLoaded', (event) => {
  highlightEdges();
  highlightAdjacentNodes();
});
]]></script>
</svg>
