<?xml version="1.0" encoding="UTF-8" standalone="no"?>
<!DOCTYPE svg PUBLIC "-//W3C//DTD SVG 1.1//EN"
 "http://www.w3.org/Graphics/SVG/1.1/DTD/svg11.dtd">
<!-- Generated by graphviz version 2.43.0 (0)
 -->
<!-- Title: src/membergroup.h Pages: 1 -->
<svg width="836pt" height="302pt"
 viewBox="0.00 0.00 835.81 302.00" xmlns="http://www.w3.org/2000/svg" xmlns:xlink="http://www.w3.org/1999/xlink">
<g id="graph0" class="graph" transform="scale(1 1) rotate(0) translate(4 298)">
<title>src/membergroup.h</title>
<!-- Node1 -->
<g id="Node000001" class="node">
<title>Node1</title>
<g id="a_Node000001"><a xlink:title=" ">
<polygon fill="#999999" stroke="#666666" points="343,-294 231,-294 231,-275 343,-275 343,-294"/>
<text text-anchor="middle" x="287" y="-282" font-family="Helvetica,sans-Serif" font-size="10.00">src/membergroup.h</text>
</a>
</g>
</g>
<!-- Node2 -->
<g id="Node000002" class="node">
<title>Node2</title>
<g id="a_Node000002"><a xlink:title=" ">
<polygon fill="#e0e0e0" stroke="#999999" points="374.5,-129 327.5,-129 327.5,-110 374.5,-110 374.5,-129"/>
<text text-anchor="middle" x="351" y="-117" font-family="Helvetica,sans-Serif" font-size="10.00">vector</text>
</a>
</g>
</g>
<!-- Node1&#45;&gt;Node2 -->
<g id="edge1_Node000001_Node000002" class="edge">
<title>Node1&#45;&gt;Node2</title>
<g id="a_edge1_Node000001_Node000002"><a xlink:title=" ">
<path fill="none" stroke="#63b8ff" d="M295.3,-274.84C310.15,-258.63 340.59,-221.9 350,-184 353.62,-169.42 353.67,-152.36 352.92,-139.61"/>
<polygon fill="#63b8ff" stroke="#63b8ff" points="356.38,-138.98 352.09,-129.29 349.41,-139.54 356.38,-138.98"/>
</a>
</g>
</g>
<!-- Node3 -->
<g id="Node000003" class="node">
<title>Node3</title>
<g id="a_Node000003"><a xlink:title=" ">
<polygon fill="#e0e0e0" stroke="#999999" points="242,-239 204,-239 204,-220 242,-220 242,-239"/>
<text text-anchor="middle" x="223" y="-227" font-family="Helvetica,sans-Serif" font-size="10.00">map</text>
</a>
</g>
</g>
<!-- Node1&#45;&gt;Node3 -->
<g id="edge2_Node000001_Node000003" class="edge">
<title>Node1&#45;&gt;Node3</title>
<g id="a_edge2_Node000001_Node000003"><a xlink:title=" ">
<path fill="none" stroke="#63b8ff" d="M276.72,-274.98C267.16,-267.07 252.72,-255.11 241.22,-245.58"/>
<polygon fill="#63b8ff" stroke="#63b8ff" points="243.4,-242.85 233.47,-239.17 238.94,-248.24 243.4,-242.85"/>
</a>
</g>
</g>
<!-- Node4 -->
<g id="Node000004" class="node">
<title>Node4</title>
<g id="a_Node000004"><a xlink:title=" ">
<polygon fill="#e0e0e0" stroke="#999999" points="58,-129 0,-129 0,-110 58,-110 58,-129"/>
<text text-anchor="middle" x="29" y="-117" font-family="Helvetica,sans-Serif" font-size="10.00">memory</text>
</a>
</g>
</g>
<!-- Node1&#45;&gt;Node4 -->
<g id="edge3_Node000001_Node000004" class="edge">
<title>Node1&#45;&gt;Node4</title>
<g id="a_edge3_Node000001_Node000004"><a xlink:title=" ">
<path fill="none" stroke="#63b8ff" d="M264.56,-274.96C226.78,-259.97 149.01,-226.44 92,-184 73.22,-170.02 54.72,-150.49 42.68,-136.79"/>
<polygon fill="#63b8ff" stroke="#63b8ff" points="45.24,-134.41 36.07,-129.12 39.94,-138.98 45.24,-134.41"/>
</a>
</g>
</g>
<!-- Node5 -->
<g id="Node000005" class="node">
<title>Node5</title>
<g id="a_Node000005"><a xlink:href="../../d9/d49/types_8h.html" target="_top" xlink:title="This file contains a number of basic enums and types.">
<polygon fill="white" stroke="#666666" points="508.5,-184 455.5,-184 455.5,-165 508.5,-165 508.5,-184"/>
<text text-anchor="middle" x="482" y="-172" font-family="Helvetica,sans-Serif" font-size="10.00">types.h</text>
</a>
</g>
</g>
<!-- Node1&#45;&gt;Node5 -->
<g id="edge4_Node000001_Node000005" class="edge">
<title>Node1&#45;&gt;Node5</title>
<g id="a_edge4_Node000001_Node000005"><a xlink:title=" ">
<path fill="none" stroke="#63b8ff" d="M343.3,-277.05C374.52,-271.21 412.64,-260.09 441,-239 456.59,-227.41 467.86,-207.98 474.6,-193.66"/>
<polygon fill="#63b8ff" stroke="#63b8ff" points="477.88,-194.89 478.69,-184.32 471.47,-192.08 477.88,-194.89"/>
</a>
</g>
</g>
<!-- Node17 -->
<g id="Node000017" class="node">
<title>Node17</title>
<g id="a_Node000017"><a xlink:href="../../d1/d02/reflist_8h.html" target="_top" xlink:title=" ">
<polygon fill="white" stroke="#666666" points="313.5,-239 260.5,-239 260.5,-220 313.5,-220 313.5,-239"/>
<text text-anchor="middle" x="287" y="-227" font-family="Helvetica,sans-Serif" font-size="10.00">reflist.h</text>
</a>
</g>
</g>
<!-- Node1&#45;&gt;Node17 -->
<g id="edge18_Node000001_Node000017" class="edge">
<title>Node1&#45;&gt;Node17</title>
<g id="a_edge18_Node000001_Node000017"><a xlink:title=" ">
<path fill="none" stroke="#63b8ff" d="M287,-274.75C287,-267.8 287,-257.85 287,-249.13"/>
<polygon fill="#63b8ff" stroke="#63b8ff" points="290.5,-249.09 287,-239.09 283.5,-249.09 290.5,-249.09"/>
</a>
</g>
</g>
<!-- Node6 -->
<g id="Node000006" class="node">
<title>Node6</title>
<g id="a_Node000006"><a xlink:href="../../d7/d5c/qcstring_8h.html" target="_top" xlink:title=" ">
<polygon fill="white" stroke="#666666" points="514.5,-129 449.5,-129 449.5,-110 514.5,-110 514.5,-129"/>
<text text-anchor="middle" x="482" y="-117" font-family="Helvetica,sans-Serif" font-size="10.00">qcstring.h</text>
</a>
</g>
</g>
<!-- Node5&#45;&gt;Node6 -->
<g id="edge5_Node000005_Node000006" class="edge">
<title>Node5&#45;&gt;Node6</title>
<g id="a_edge5_Node000005_Node000006"><a xlink:title=" ">
<path fill="none" stroke="#63b8ff" d="M482,-164.75C482,-157.8 482,-147.85 482,-139.13"/>
<polygon fill="#63b8ff" stroke="#63b8ff" points="485.5,-139.09 482,-129.09 478.5,-139.09 485.5,-139.09"/>
</a>
</g>
</g>
<!-- Node7 -->
<g id="Node000007" class="node">
<title>Node7</title>
<g id="a_Node000007"><a xlink:title=" ">
<polygon fill="#e0e0e0" stroke="#999999" points="556,-19 512,-19 512,0 556,0 556,-19"/>
<text text-anchor="middle" x="534" y="-7" font-family="Helvetica,sans-Serif" font-size="10.00">string</text>
</a>
</g>
</g>
<!-- Node6&#45;&gt;Node7 -->
<g id="edge6_Node000006_Node000007" class="edge">
<title>Node6&#45;&gt;Node7</title>
<g id="a_edge6_Node000006_Node000007"><a xlink:title=" ">
<path fill="none" stroke="#63b8ff" d="M489.81,-109.9C497.22,-101.35 508.19,-87.59 515,-74 522.18,-59.68 527.17,-42.15 530.23,-29.14"/>
<polygon fill="#63b8ff" stroke="#63b8ff" points="533.71,-29.59 532.42,-19.07 526.87,-28.09 533.71,-29.59"/>
</a>
</g>
</g>
<!-- Node8 -->
<g id="Node000008" class="node">
<title>Node8</title>
<g id="a_Node000008"><a xlink:title=" ">
<polygon fill="#e0e0e0" stroke="#999999" points="437.5,-74 364.5,-74 364.5,-55 437.5,-55 437.5,-74"/>
<text text-anchor="middle" x="401" y="-62" font-family="Helvetica,sans-Serif" font-size="10.00">string_view</text>
</a>
</g>
</g>
<!-- Node6&#45;&gt;Node8 -->
<g id="edge7_Node000006_Node000008" class="edge">
<title>Node6&#45;&gt;Node8</title>
<g id="a_edge7_Node000006_Node000008"><a xlink:title=" ">
<path fill="none" stroke="#63b8ff" d="M468.99,-109.98C456.54,-101.84 437.54,-89.41 422.79,-79.76"/>
<polygon fill="#63b8ff" stroke="#63b8ff" points="424.54,-76.72 414.25,-74.17 420.7,-82.57 424.54,-76.72"/>
</a>
</g>
</g>
<!-- Node9 -->
<g id="Node000009" class="node">
<title>Node9</title>
<g id="a_Node000009"><a xlink:title=" ">
<polygon fill="#e0e0e0" stroke="#999999" points="346,-74 282,-74 282,-55 346,-55 346,-74"/>
<text text-anchor="middle" x="314" y="-62" font-family="Helvetica,sans-Serif" font-size="10.00">algorithm</text>
</a>
</g>
</g>
<!-- Node6&#45;&gt;Node9 -->
<g id="edge8_Node000006_Node000009" class="edge">
<title>Node6&#45;&gt;Node9</title>
<g id="a_edge8_Node000006_Node000009"><a xlink:title=" ">
<path fill="none" stroke="#63b8ff" d="M455.01,-109.98C426.8,-101.09 382.36,-87.07 350.92,-77.15"/>
<polygon fill="#63b8ff" stroke="#63b8ff" points="351.79,-73.75 341.2,-74.08 349.69,-80.43 351.79,-73.75"/>
</a>
</g>
</g>
<!-- Node10 -->
<g id="Node000010" class="node">
<title>Node10</title>
<g id="a_Node000010"><a xlink:title=" ">
<polygon fill="#e0e0e0" stroke="#999999" points="263.5,-74 214.5,-74 214.5,-55 263.5,-55 263.5,-74"/>
<text text-anchor="middle" x="239" y="-62" font-family="Helvetica,sans-Serif" font-size="10.00">cctype</text>
</a>
</g>
</g>
<!-- Node6&#45;&gt;Node10 -->
<g id="edge9_Node000006_Node000010" class="edge">
<title>Node6&#45;&gt;Node10</title>
<g id="a_edge9_Node000006_Node000010"><a xlink:title=" ">
<path fill="none" stroke="#63b8ff" d="M449.34,-111.92C410.07,-103.92 341.94,-89.79 273.89,-74.14"/>
<polygon fill="#63b8ff" stroke="#63b8ff" points="274.39,-70.66 263.86,-71.82 272.81,-77.48 274.39,-70.66"/>
</a>
</g>
</g>
<!-- Node11 -->
<g id="Node000011" class="node">
<title>Node11</title>
<g id="a_Node000011"><a xlink:title=" ">
<polygon fill="#e0e0e0" stroke="#999999" points="506,-74 456,-74 456,-55 506,-55 506,-74"/>
<text text-anchor="middle" x="481" y="-62" font-family="Helvetica,sans-Serif" font-size="10.00">cstring</text>
</a>
</g>
</g>
<!-- Node6&#45;&gt;Node11 -->
<g id="edge10_Node000006_Node000011" class="edge">
<title>Node6&#45;&gt;Node11</title>
<g id="a_edge10_Node000006_Node000011"><a xlink:title=" ">
<path fill="none" stroke="#63b8ff" d="M481.83,-109.75C481.7,-102.8 481.52,-92.85 481.35,-84.13"/>
<polygon fill="#63b8ff" stroke="#63b8ff" points="484.85,-84.02 481.16,-74.09 477.85,-84.15 484.85,-84.02"/>
</a>
</g>
</g>
<!-- Node12 -->
<g id="Node000012" class="node">
<title>Node12</title>
<g id="a_Node000012"><a xlink:title=" ">
<polygon fill="#e0e0e0" stroke="#999999" points="608,-74 562,-74 562,-55 608,-55 608,-74"/>
<text text-anchor="middle" x="585" y="-62" font-family="Helvetica,sans-Serif" font-size="10.00">cstdio</text>
</a>
</g>
</g>
<!-- Node6&#45;&gt;Node12 -->
<g id="edge11_Node000006_Node000012" class="edge">
<title>Node6&#45;&gt;Node12</title>
<g id="a_edge11_Node000006_Node000012"><a xlink:title=" ">
<path fill="none" stroke="#63b8ff" d="M498.55,-109.98C514.89,-101.57 540.13,-88.59 559.13,-78.81"/>
<polygon fill="#63b8ff" stroke="#63b8ff" points="560.86,-81.86 568.15,-74.17 557.66,-75.63 560.86,-81.86"/>
</a>
</g>
</g>
<!-- Node13 -->
<g id="Node000013" class="node">
<title>Node13</title>
<g id="a_Node000013"><a xlink:title=" ">
<polygon fill="#e0e0e0" stroke="#999999" points="675.5,-74 626.5,-74 626.5,-55 675.5,-55 675.5,-74"/>
<text text-anchor="middle" x="651" y="-62" font-family="Helvetica,sans-Serif" font-size="10.00">cstdlib</text>
</a>
</g>
</g>
<!-- Node6&#45;&gt;Node13 -->
<g id="edge12_Node000006_Node000013" class="edge">
<title>Node6&#45;&gt;Node13</title>
<g id="a_edge12_Node000006_Node000013"><a xlink:title=" ">
<path fill="none" stroke="#63b8ff" d="M509.15,-109.98C538.37,-100.82 584.9,-86.23 616.64,-76.27"/>
<polygon fill="#63b8ff" stroke="#63b8ff" points="617.89,-79.55 626.39,-73.22 615.8,-72.87 617.89,-79.55"/>
</a>
</g>
</g>
<!-- Node14 -->
<g id="Node000014" class="node">
<title>Node14</title>
<g id="a_Node000014"><a xlink:title=" ">
<polygon fill="#e0e0e0" stroke="#999999" points="804,-19 754,-19 754,0 804,0 804,-19"/>
<text text-anchor="middle" x="779" y="-7" font-family="Helvetica,sans-Serif" font-size="10.00">cstdint</text>
</a>
</g>
</g>
<!-- Node6&#45;&gt;Node14 -->
<g id="edge13_Node000006_Node000014" class="edge">
<title>Node6&#45;&gt;Node14</title>
<g id="a_edge13_Node000006_Node000014"><a xlink:title=" ">
<path fill="none" stroke="#63b8ff" d="M514.51,-116.66C595.79,-111.73 802.79,-97.02 823,-74 836.69,-58.41 817.77,-38.48 800.65,-25.14"/>
<polygon fill="#63b8ff" stroke="#63b8ff" points="802.67,-22.28 792.54,-19.17 798.52,-27.92 802.67,-22.28"/>
</a>
</g>
</g>
<!-- Node15 -->
<g id="Node000015" class="node">
<title>Node15</title>
<g id="a_Node000015"><a xlink:title=" ">
<polygon fill="#e0e0e0" stroke="#999999" points="813.5,-74 756.5,-74 756.5,-55 813.5,-55 813.5,-74"/>
<text text-anchor="middle" x="785" y="-62" font-family="Helvetica,sans-Serif" font-size="10.00">ostream</text>
</a>
</g>
</g>
<!-- Node6&#45;&gt;Node15 -->
<g id="edge14_Node000006_Node000015" class="edge">
<title>Node6&#45;&gt;Node15</title>
<g id="a_edge14_Node000006_Node000015"><a xlink:title=" ">
<path fill="none" stroke="#63b8ff" d="M514.88,-113.65C563.41,-106.35 657.31,-91.69 746.36,-74.23"/>
<polygon fill="#63b8ff" stroke="#63b8ff" points="747.22,-77.63 756.35,-72.26 745.86,-70.76 747.22,-77.63"/>
</a>
</g>
</g>
<!-- Node16 -->
<g id="Node000016" class="node">
<title>Node16</title>
<g id="a_Node000016"><a xlink:href="../../db/d7c/utf8_8h.html" target="_top" xlink:title="Various UTF8 related helper functions.">
<polygon fill="white" stroke="#666666" points="738.5,-74 693.5,-74 693.5,-55 738.5,-55 738.5,-74"/>
<text text-anchor="middle" x="716" y="-62" font-family="Helvetica,sans-Serif" font-size="10.00">utf8.h</text>
</a>
</g>
</g>
<!-- Node6&#45;&gt;Node16 -->
<g id="edge15_Node000006_Node000016" class="edge">
<title>Node6&#45;&gt;Node16</title>
<g id="a_edge15_Node000006_Node000016"><a xlink:title=" ">
<path fill="none" stroke="#63b8ff" d="M514.82,-111.85C553.09,-103.98 618.49,-90.16 683.36,-74.31"/>
<polygon fill="#63b8ff" stroke="#63b8ff" points="684.47,-77.64 693.35,-71.86 682.8,-70.85 684.47,-77.64"/>
</a>
</g>
</g>
<!-- Node16&#45;&gt;Node7 -->
<g id="edge17_Node000016_Node000007" class="edge">
<title>Node16&#45;&gt;Node7</title>
<g id="a_edge17_Node000016_Node000007"><a xlink:title=" ">
<path fill="none" stroke="#63b8ff" d="M693.32,-56.89C661.18,-47.54 602.24,-30.37 565.77,-19.75"/>
<polygon fill="#63b8ff" stroke="#63b8ff" points="566.69,-16.38 556.11,-16.94 564.74,-23.1 566.69,-16.38"/>
</a>
</g>
</g>
<!-- Node16&#45;&gt;Node14 -->
<g id="edge16_Node000016_Node000014" class="edge">
<title>Node16&#45;&gt;Node14</title>
<g id="a_edge16_Node000016_Node000014"><a xlink:title=" ">
<path fill="none" stroke="#63b8ff" d="M726.12,-54.98C735.44,-47.15 749.47,-35.34 760.74,-25.86"/>
<polygon fill="#63b8ff" stroke="#63b8ff" points="763.29,-28.29 768.69,-19.17 758.79,-22.93 763.29,-28.29"/>
</a>
</g>
</g>
<!-- Node17&#45;&gt;Node2 -->
<g id="edge19_Node000017_Node000002" class="edge">
<title>Node17&#45;&gt;Node2</title>
<g id="a_edge19_Node000017_Node000002"><a xlink:title=" ">
<path fill="none" stroke="#63b8ff" d="M298.28,-219.76C308.19,-211.52 322.36,-198.33 331,-184 339.39,-170.08 344.6,-152.29 347.59,-139.09"/>
<polygon fill="#63b8ff" stroke="#63b8ff" points="351.02,-139.75 349.6,-129.26 344.17,-138.35 351.02,-139.75"/>
</a>
</g>
</g>
<!-- Node17&#45;&gt;Node4 -->
<g id="edge21_Node000017_Node000004" class="edge">
<title>Node17&#45;&gt;Node4</title>
<g id="a_edge21_Node000017_Node000004"><a xlink:title=" ">
<path fill="none" stroke="#63b8ff" d="M260.36,-221.86C222.26,-212.2 154.24,-194.3 131,-184 100.57,-170.51 68.45,-149.17 48.57,-135"/>
<polygon fill="#63b8ff" stroke="#63b8ff" points="50.49,-132.08 40.34,-129.05 46.39,-137.75 50.49,-132.08"/>
</a>
</g>
</g>
<!-- Node17&#45;&gt;Node6 -->
<g id="edge22_Node000017_Node000006" class="edge">
<title>Node17&#45;&gt;Node6</title>
<g id="a_edge22_Node000017_Node000006"><a xlink:title=" ">
<path fill="none" stroke="#63b8ff" d="M302.63,-219.84C336.51,-201.08 416.96,-156.52 457.61,-134.01"/>
<polygon fill="#63b8ff" stroke="#63b8ff" points="459.52,-136.95 466.57,-129.05 456.12,-130.83 459.52,-136.95"/>
</a>
</g>
</g>
<!-- Node18 -->
<g id="Node000018" class="node">
<title>Node18</title>
<g id="a_Node000018"><a xlink:title=" ">
<polygon fill="#e0e0e0" stroke="#999999" points="169.5,-129 76.5,-129 76.5,-110 169.5,-110 169.5,-129"/>
<text text-anchor="middle" x="123" y="-117" font-family="Helvetica,sans-Serif" font-size="10.00">unordered_map</text>
</a>
</g>
</g>
<!-- Node17&#45;&gt;Node18 -->
<g id="edge20_Node000017_Node000018" class="edge">
<title>Node17&#45;&gt;Node18</title>
<g id="a_edge20_Node000017_Node000018"><a xlink:title=" ">
<path fill="none" stroke="#63b8ff" d="M260.47,-221.41C222.26,-211 155.4,-191.96 147,-184 134.58,-172.23 128.53,-153.39 125.62,-139.28"/>
<polygon fill="#63b8ff" stroke="#63b8ff" points="129.03,-138.47 123.89,-129.2 122.13,-139.65 129.03,-138.47"/>
</a>
</g>
</g>
<!-- Node19 -->
<g id="Node000019" class="node">
<title>Node19</title>
<g id="a_Node000019"><a xlink:href="../../da/de1/linkedmap_8h.html" target="_top" xlink:title=" ">
<polygon fill="white" stroke="#666666" points="233.5,-184 156.5,-184 156.5,-165 233.5,-165 233.5,-184"/>
<text text-anchor="middle" x="195" y="-172" font-family="Helvetica,sans-Serif" font-size="10.00">linkedmap.h</text>
</a>
</g>
</g>
<!-- Node17&#45;&gt;Node19 -->
<g id="edge23_Node000017_Node000019" class="edge">
<title>Node17&#45;&gt;Node19</title>
<g id="a_edge23_Node000017_Node000019"><a xlink:title=" ">
<path fill="none" stroke="#63b8ff" d="M272.22,-219.98C257.82,-211.69 235.69,-198.94 218.81,-189.22"/>
<polygon fill="#63b8ff" stroke="#63b8ff" points="220.46,-186.13 210.05,-184.17 216.97,-192.19 220.46,-186.13"/>
</a>
</g>
</g>
<!-- Node20 -->
<g id="Node000020" class="node">
<title>Node20</title>
<g id="a_Node000020"><a xlink:href="../../d7/dfc/construct_8h.html" target="_top" xlink:title=" ">
<polygon fill="white" stroke="#666666" points="322.5,-184 251.5,-184 251.5,-165 322.5,-165 322.5,-184"/>
<text text-anchor="middle" x="287" y="-172" font-family="Helvetica,sans-Serif" font-size="10.00">construct.h</text>
</a>
</g>
</g>
<!-- Node17&#45;&gt;Node20 -->
<g id="edge31_Node000017_Node000020" class="edge">
<title>Node17&#45;&gt;Node20</title>
<g id="a_edge31_Node000017_Node000020"><a xlink:title=" ">
<path fill="none" stroke="#63b8ff" d="M287,-219.75C287,-212.8 287,-202.85 287,-194.13"/>
<polygon fill="#63b8ff" stroke="#63b8ff" points="290.5,-194.09 287,-184.09 283.5,-194.09 290.5,-194.09"/>
</a>
</g>
</g>
<!-- Node19&#45;&gt;Node2 -->
<g id="edge25_Node000019_Node000002" class="edge">
<title>Node19&#45;&gt;Node2</title>
<g id="a_edge25_Node000019_Node000002"><a xlink:title=" ">
<path fill="none" stroke="#63b8ff" d="M220.06,-164.98C246.49,-156.01 288.27,-141.81 317.5,-131.88"/>
<polygon fill="#63b8ff" stroke="#63b8ff" points="318.93,-135.09 327.28,-128.56 316.68,-128.46 318.93,-135.09"/>
</a>
</g>
</g>
<!-- Node19&#45;&gt;Node4 -->
<g id="edge26_Node000019_Node000004" class="edge">
<title>Node19&#45;&gt;Node4</title>
<g id="a_edge26_Node000019_Node000004"><a xlink:title=" ">
<path fill="none" stroke="#63b8ff" d="M168.33,-164.98C140.46,-156.09 96.55,-142.07 65.48,-132.15"/>
<polygon fill="#63b8ff" stroke="#63b8ff" points="66.47,-128.79 55.88,-129.08 64.34,-135.46 66.47,-128.79"/>
</a>
</g>
</g>
<!-- Node19&#45;&gt;Node6 -->
<g id="edge30_Node000019_Node000006" class="edge">
<title>Node19&#45;&gt;Node6</title>
<g id="a_edge30_Node000019_Node000006"><a xlink:title=" ">
<path fill="none" stroke="#63b8ff" d="M233.71,-166.35C287.29,-156.46 383.73,-138.65 439.34,-128.38"/>
<polygon fill="#63b8ff" stroke="#63b8ff" points="440.03,-131.81 449.23,-126.55 438.76,-124.93 440.03,-131.81"/>
</a>
</g>
</g>
<!-- Node19&#45;&gt;Node7 -->
<g id="edge27_Node000019_Node000007" class="edge">
<title>Node19&#45;&gt;Node7</title>
<g id="a_edge27_Node000019_Node000007"><a xlink:title=" ">
<path fill="none" stroke="#63b8ff" d="M192.56,-164.92C186.97,-143.21 175.83,-85.67 205,-55 245.13,-12.8 426.88,-9.49 501.68,-9.97"/>
<polygon fill="#63b8ff" stroke="#63b8ff" points="501.88,-13.48 511.92,-10.07 501.95,-6.48 501.88,-13.48"/>
</a>
</g>
</g>
<!-- Node19&#45;&gt;Node9 -->
<g id="edge28_Node000019_Node000009" class="edge">
<title>Node19&#45;&gt;Node9</title>
<g id="a_edge28_Node000019_Node000009"><a xlink:title=" ">
<path fill="none" stroke="#63b8ff" d="M204.74,-164.66C224.89,-146.38 271.38,-104.18 296.74,-81.17"/>
<polygon fill="#63b8ff" stroke="#63b8ff" points="299.41,-83.47 304.46,-74.16 294.7,-78.29 299.41,-83.47"/>
</a>
</g>
</g>
<!-- Node19&#45;&gt;Node10 -->
<g id="edge29_Node000019_Node000010" class="edge">
<title>Node19&#45;&gt;Node10</title>
<g id="a_edge29_Node000019_Node000010"><a xlink:title=" ">
<path fill="none" stroke="#63b8ff" d="M198.6,-164.66C205.79,-147.01 222.06,-107.09 231.61,-83.64"/>
<polygon fill="#63b8ff" stroke="#63b8ff" points="234.94,-84.74 235.47,-74.16 228.46,-82.1 234.94,-84.74"/>
</a>
</g>
</g>
<!-- Node19&#45;&gt;Node18 -->
<g id="edge24_Node000019_Node000018" class="edge">
<title>Node19&#45;&gt;Node18</title>
<g id="a_edge24_Node000019_Node000018"><a xlink:title=" ">
<path fill="none" stroke="#63b8ff" d="M183.43,-164.98C172.58,-157 156.12,-144.88 143.12,-135.31"/>
<polygon fill="#63b8ff" stroke="#63b8ff" points="144.91,-132.28 134.78,-129.17 140.76,-137.92 144.91,-132.28"/>
</a>
</g>
</g>
</g>
</svg>
