<?xml version="1.0" encoding="UTF-8" standalone="no"?>
<!DOCTYPE svg PUBLIC "-//W3C//DTD SVG 1.1//EN"
 "http://www.w3.org/Graphics/SVG/1.1/DTD/svg11.dtd">
<!-- Generated by graphviz version 2.43.0 (0)
 -->
<!-- Title: preYY_state Pages: 1 -->
<svg width="486pt" height="280pt"
 viewBox="0.00 0.00 485.50 280.00" xmlns="http://www.w3.org/2000/svg" xmlns:xlink="http://www.w3.org/1999/xlink">
<g id="graph0" class="graph" transform="scale(1 1) rotate(0) translate(4 276)">
<title>preYY_state</title>
<!-- Node1 -->
<g id="Node000001" class="node">
<title>Node1</title>
<g id="a_Node000001"><a xlink:title=" ">
<polygon fill="#999999" stroke="#666666" points="212.5,-19 138.5,-19 138.5,0 212.5,0 212.5,-19"/>
<text text-anchor="middle" x="175.5" y="-7" font-family="Helvetica,sans-Serif" font-size="10.00">preYY_state</text>
</a>
</g>
</g>
<!-- Node2 -->
<g id="Node000002" class="node">
<title>Node2</title>
<g id="a_Node000002"><a xlink:href="../../d9/d45/class_q_c_string.html" target="_top" xlink:title="This is an alternative implementation of QCString.">
<polygon fill="white" stroke="#666666" points="59,-195 0,-195 0,-176 59,-176 59,-195"/>
<text text-anchor="middle" x="29.5" y="-183" font-family="Helvetica,sans-Serif" font-size="10.00">QCString</text>
</a>
</g>
</g>
<!-- Node2&#45;&gt;Node1 -->
<g id="edge1_Node000001_Node000002" class="edge">
<title>Node2&#45;&gt;Node1</title>
<g id="a_edge1_Node000001_Node000002"><a xlink:title=" ">
<path fill="none" stroke="#9a32cd" stroke-dasharray="5,2" d="M22.45,-166.15C12,-135.52 -3.24,-73.73 27.5,-37 41.36,-20.43 99.16,-14.21 138.29,-11.88"/>
<polygon fill="#9a32cd" stroke="#9a32cd" points="19.29,-167.71 25.99,-175.92 25.87,-165.33 19.29,-167.71"/>
</a>
</g>
<text text-anchor="middle" x="67.5" y="-150" font-family="Helvetica,sans-Serif" font-size="10.00" fill="grey"> blockName</text>
<text text-anchor="middle" x="67.5" y="-139" font-family="Helvetica,sans-Serif" font-size="10.00" fill="grey">defArgsStr</text>
<text text-anchor="middle" x="67.5" y="-128" font-family="Helvetica,sans-Serif" font-size="10.00" fill="grey">defExtraSpacing</text>
<text text-anchor="middle" x="67.5" y="-117" font-family="Helvetica,sans-Serif" font-size="10.00" fill="grey">defLitText</text>
<text text-anchor="middle" x="67.5" y="-106" font-family="Helvetica,sans-Serif" font-size="10.00" fill="grey">defName</text>
<text text-anchor="middle" x="67.5" y="-95" font-family="Helvetica,sans-Serif" font-size="10.00" fill="grey">defText</text>
<text text-anchor="middle" x="67.5" y="-84" font-family="Helvetica,sans-Serif" font-size="10.00" fill="grey">delimiter</text>
<text text-anchor="middle" x="67.5" y="-73" font-family="Helvetica,sans-Serif" font-size="10.00" fill="grey">fileName</text>
<text text-anchor="middle" x="67.5" y="-62" font-family="Helvetica,sans-Serif" font-size="10.00" fill="grey">guardExpr</text>
<text text-anchor="middle" x="67.5" y="-51" font-family="Helvetica,sans-Serif" font-size="10.00" fill="grey">guardName</text>
<text text-anchor="middle" x="67.5" y="-40" font-family="Helvetica,sans-Serif" font-size="10.00" fill="grey">...</text>
</g>
<!-- Node3 -->
<g id="Node000003" class="node">
<title>Node3</title>
<g id="a_Node000003"><a xlink:href="../../de/db0/class_file_def.html" target="_top" xlink:title="A model of a file symbol.">
<polygon fill="white" stroke="#666666" points="136,-195 85,-195 85,-176 136,-176 136,-195"/>
<text text-anchor="middle" x="110.5" y="-183" font-family="Helvetica,sans-Serif" font-size="10.00">FileDef</text>
</a>
</g>
</g>
<!-- Node3&#45;&gt;Node1 -->
<g id="edge2_Node000001_Node000003" class="edge">
<title>Node3&#45;&gt;Node1</title>
<g id="a_edge2_Node000001_Node000003"><a xlink:title=" ">
<path fill="none" stroke="#9a32cd" stroke-dasharray="5,2" d="M110.89,-165.46C111.93,-130.48 115.73,-57.65 129.5,-37 134.72,-29.18 143.08,-23.38 151.25,-19.24"/>
<polygon fill="#9a32cd" stroke="#9a32cd" points="107.38,-165.66 110.63,-175.75 114.38,-165.84 107.38,-165.66"/>
</a>
</g>
<text text-anchor="middle" x="161" y="-100.5" font-family="Helvetica,sans-Serif" font-size="10.00" fill="grey"> inputFileDef</text>
<text text-anchor="middle" x="161" y="-89.5" font-family="Helvetica,sans-Serif" font-size="10.00" fill="grey">yyFileDef</text>
</g>
<!-- Node4 -->
<g id="Node000004" class="node">
<title>Node4</title>
<g id="a_Node000004"><a xlink:href="../../d0/d46/class_definition_mutable.html" target="_top" xlink:title=" ">
<polygon fill="white" stroke="#666666" points="111.5,-266.5 7.5,-266.5 7.5,-247.5 111.5,-247.5 111.5,-266.5"/>
<text text-anchor="middle" x="59.5" y="-254.5" font-family="Helvetica,sans-Serif" font-size="10.00">DefinitionMutable</text>
</a>
</g>
</g>
<!-- Node4&#45;&gt;Node3 -->
<g id="edge3_Node000003_Node000004" class="edge">
<title>Node4&#45;&gt;Node3</title>
<g id="a_edge3_Node000003_Node000004"><a xlink:title=" ">
<path fill="none" stroke="#63b8ff" d="M71.8,-239.24C82.02,-225.31 96.14,-206.07 104.2,-195.09"/>
<polygon fill="#63b8ff" stroke="#63b8ff" points="68.85,-237.35 65.75,-247.48 74.49,-241.49 68.85,-237.35"/>
</a>
</g>
</g>
<!-- Node5 -->
<g id="Node000005" class="node">
<title>Node5</title>
<g id="a_Node000005"><a xlink:href="../../d5/dcc/class_definition.html" target="_top" xlink:title="The common base class of all entity definitions found in the sources.">
<polygon fill="white" stroke="#666666" points="193.5,-266.5 129.5,-266.5 129.5,-247.5 193.5,-247.5 193.5,-266.5"/>
<text text-anchor="middle" x="161.5" y="-254.5" font-family="Helvetica,sans-Serif" font-size="10.00">Definition</text>
</a>
</g>
</g>
<!-- Node5&#45;&gt;Node3 -->
<g id="edge4_Node000003_Node000005" class="edge">
<title>Node5&#45;&gt;Node3</title>
<g id="a_edge4_Node000003_Node000005"><a xlink:title=" ">
<path fill="none" stroke="#63b8ff" d="M149.2,-239.24C138.98,-225.31 124.86,-206.07 116.8,-195.09"/>
<polygon fill="#63b8ff" stroke="#63b8ff" points="146.51,-241.49 155.25,-247.48 152.15,-237.35 146.51,-241.49"/>
</a>
</g>
</g>
<!-- Node6 -->
<g id="Node000006" class="node">
<title>Node6</title>
<g id="a_Node000006"><a xlink:href="../../db/d82/class_const_expression_parser.html" target="_top" xlink:title="constant expression parser used for the C preprocessor">
<polygon fill="white" stroke="#666666" points="282.5,-195 154.5,-195 154.5,-176 282.5,-176 282.5,-195"/>
<text text-anchor="middle" x="218.5" y="-183" font-family="Helvetica,sans-Serif" font-size="10.00">ConstExpressionParser</text>
</a>
</g>
</g>
<!-- Node6&#45;&gt;Node1 -->
<g id="edge5_Node000001_Node000006" class="edge">
<title>Node6&#45;&gt;Node1</title>
<g id="a_edge5_Node000001_Node000006"><a xlink:title=" ">
<path fill="none" stroke="#9a32cd" stroke-dasharray="5,2" d="M218.75,-165.46C218.45,-136.5 215.24,-80.22 196.5,-37 193.6,-30.32 188.59,-23.9 184.18,-19.04"/>
<polygon fill="#9a32cd" stroke="#9a32cd" points="215.25,-165.76 218.73,-175.76 222.25,-165.77 215.25,-165.76"/>
</a>
</g>
<text text-anchor="middle" x="258.5" y="-95" font-family="Helvetica,sans-Serif" font-size="10.00" fill="grey"> constExpParser</text>
</g>
<!-- Node7 -->
<g id="Node000007" class="node">
<title>Node7</title>
<g id="a_Node000007"><a xlink:href="../../d0/d2c/class_linked_map.html" target="_top" xlink:title=" ">
<polygon fill="white" stroke="#666666" points="462,-195 301,-195 301,-176 462,-176 462,-195"/>
<text text-anchor="middle" x="381.5" y="-183" font-family="Helvetica,sans-Serif" font-size="10.00">LinkedMap&lt; PreIncludeInfo &gt;</text>
</a>
</g>
</g>
<!-- Node7&#45;&gt;Node1 -->
<g id="edge6_Node000001_Node000007" class="edge">
<title>Node7&#45;&gt;Node1</title>
<g id="a_edge6_Node000001_Node000007"><a xlink:title=" ">
<path fill="none" stroke="#9a32cd" stroke-dasharray="5,2" d="M376.96,-166.11C368.15,-134.45 345.58,-69.86 301.5,-37 275.96,-17.96 239.81,-11.91 212.78,-10.28"/>
<polygon fill="#9a32cd" stroke="#9a32cd" points="373.59,-167.05 379.52,-175.83 380.36,-165.27 373.59,-167.05"/>
</a>
</g>
<text text-anchor="middle" x="417" y="-95" font-family="Helvetica,sans-Serif" font-size="10.00" fill="grey"> includeRelations</text>
</g>
<!-- Node8 -->
<g id="Node000008" class="node">
<title>Node8</title>
<g id="a_Node000008"><a xlink:href="../../d0/d2c/class_linked_map.html" target="_top" xlink:title="Container class representing a vector of objects with keys.">
<polygon fill="white" stroke="#666666" points="441.5,-272 321.5,-272 321.5,-242 441.5,-242 441.5,-272"/>
<text text-anchor="start" x="329.5" y="-260" font-family="Helvetica,sans-Serif" font-size="10.00">LinkedMap&lt; T, Hash,</text>
<text text-anchor="middle" x="381.5" y="-249" font-family="Helvetica,sans-Serif" font-size="10.00"> KeyEqual, Map &gt;</text>
</a>
</g>
</g>
<!-- Node8&#45;&gt;Node7 -->
<g id="edge7_Node000007_Node000008" class="edge">
<title>Node8&#45;&gt;Node7</title>
<g id="a_edge7_Node000007_Node000008"><a xlink:title=" ">
<path fill="none" stroke="orange" stroke-dasharray="5,2" d="M381.5,-231.56C381.5,-218.95 381.5,-204.35 381.5,-195.27"/>
<polygon fill="orange" stroke="orange" points="378,-231.94 381.5,-241.94 385,-231.94 378,-231.94"/>
</a>
</g>
<text text-anchor="middle" x="429.5" y="-216" font-family="Helvetica,sans-Serif" font-size="10.00" fill="grey"> &lt; PreIncludeInfo &gt;</text>
</g>
</g>
</svg>
