<?xml version="1.0" encoding="UTF-8" standalone="no"?>
<!DOCTYPE svg PUBLIC "-//W3C//DTD SVG 1.1//EN"
 "http://www.w3.org/Graphics/SVG/1.1/DTD/svg11.dtd">
<!-- Generated by graphviz version 2.43.0 (0)
 -->
<!-- Title: /home/runner/work/doxygen/doxygen/src/arguments.cpp Pages: 1 -->
<svg width="541pt" height="258pt"
 viewBox="0.00 0.00 541.00 258.00" xmlns="http://www.w3.org/2000/svg" xmlns:xlink="http://www.w3.org/1999/xlink">
<g id="graph0" class="graph" transform="scale(1 1) rotate(0) translate(4 254)">
<title>/home/runner/work/doxygen/doxygen/src/arguments.cpp</title>
<!-- Node1 -->
<g id="Node000001" class="node">
<title>Node1</title>
<g id="a_Node000001"><a xlink:title=" ">
<polygon fill="#999999" stroke="#666666" points="246.5,-250 91.5,-250 91.5,-220 246.5,-220 246.5,-250"/>
<text text-anchor="start" x="99.5" y="-238" font-family="Helvetica,sans-Serif" font-size="10.00">/home/runner/work/doxygen</text>
<text text-anchor="middle" x="169" y="-227" font-family="Helvetica,sans-Serif" font-size="10.00">/doxygen/src/arguments.cpp</text>
</a>
</g>
</g>
<!-- Node2 -->
<g id="Node000002" class="node">
<title>Node2</title>
<g id="a_Node000002"><a xlink:title=" ">
<polygon fill="#e0e0e0" stroke="#999999" points="64,-74 0,-74 0,-55 64,-55 64,-74"/>
<text text-anchor="middle" x="32" y="-62" font-family="Helvetica,sans-Serif" font-size="10.00">algorithm</text>
</a>
</g>
</g>
<!-- Node1&#45;&gt;Node2 -->
<g id="edge1_Node000001_Node000002" class="edge">
<title>Node1&#45;&gt;Node2</title>
<g id="a_edge1_Node000001_Node000002"><a xlink:title=" ">
<path fill="none" stroke="#63b8ff" d="M157.56,-219.92C132.41,-188.99 72.43,-115.23 45.5,-82.1"/>
<polygon fill="#63b8ff" stroke="#63b8ff" points="48.14,-79.81 39.12,-74.25 42.71,-84.22 48.14,-79.81"/>
</a>
</g>
</g>
<!-- Node3 -->
<g id="Node000003" class="node">
<title>Node3</title>
<g id="a_Node000003"><a xlink:href="../../df/d9b/arguments_8h.html" target="_top" xlink:title=" ">
<polygon fill="white" stroke="#666666" points="313,-184 235,-184 235,-165 313,-165 313,-184"/>
<text text-anchor="middle" x="274" y="-172" font-family="Helvetica,sans-Serif" font-size="10.00">arguments.h</text>
</a>
</g>
</g>
<!-- Node1&#45;&gt;Node3 -->
<g id="edge2_Node000001_Node000003" class="edge">
<title>Node1&#45;&gt;Node3</title>
<g id="a_edge2_Node000001_Node000003"><a xlink:title=" ">
<path fill="none" stroke="#63b8ff" d="M194.15,-219.99C210.89,-210.66 232.77,-198.47 249.39,-189.21"/>
<polygon fill="#63b8ff" stroke="#63b8ff" points="251.46,-192.06 258.49,-184.14 248.05,-185.95 251.46,-192.06"/>
</a>
</g>
</g>
<!-- Node4 -->
<g id="Node000004" class="node">
<title>Node4</title>
<g id="a_Node000004"><a xlink:title=" ">
<polygon fill="#e0e0e0" stroke="#999999" points="371.5,-129 324.5,-129 324.5,-110 371.5,-110 371.5,-129"/>
<text text-anchor="middle" x="348" y="-117" font-family="Helvetica,sans-Serif" font-size="10.00">vector</text>
</a>
</g>
</g>
<!-- Node3&#45;&gt;Node4 -->
<g id="edge3_Node000003_Node000004" class="edge">
<title>Node3&#45;&gt;Node4</title>
<g id="a_edge3_Node000003_Node000004"><a xlink:title=" ">
<path fill="none" stroke="#63b8ff" d="M285.89,-164.98C297.15,-156.92 314.29,-144.65 327.71,-135.03"/>
<polygon fill="#63b8ff" stroke="#63b8ff" points="329.8,-137.84 335.89,-129.17 325.73,-132.15 329.8,-137.84"/>
</a>
</g>
</g>
<!-- Node5 -->
<g id="Node000005" class="node">
<title>Node5</title>
<g id="a_Node000005"><a xlink:href="../../d7/d5c/qcstring_8h.html" target="_top" xlink:title=" ">
<polygon fill="white" stroke="#666666" points="306.5,-129 241.5,-129 241.5,-110 306.5,-110 306.5,-129"/>
<text text-anchor="middle" x="274" y="-117" font-family="Helvetica,sans-Serif" font-size="10.00">qcstring.h</text>
</a>
</g>
</g>
<!-- Node3&#45;&gt;Node5 -->
<g id="edge4_Node000003_Node000005" class="edge">
<title>Node3&#45;&gt;Node5</title>
<g id="a_edge4_Node000003_Node000005"><a xlink:title=" ">
<path fill="none" stroke="#63b8ff" d="M274,-164.75C274,-157.8 274,-147.85 274,-139.13"/>
<polygon fill="#63b8ff" stroke="#63b8ff" points="277.5,-139.09 274,-129.09 270.5,-139.09 277.5,-139.09"/>
</a>
</g>
</g>
<!-- Node5&#45;&gt;Node2 -->
<g id="edge6_Node000005_Node000002" class="edge">
<title>Node5&#45;&gt;Node2</title>
<g id="a_edge6_Node000005_Node000002"><a xlink:title=" ">
<path fill="none" stroke="#63b8ff" d="M241.36,-111.35C198.09,-101.88 121.67,-85.14 74.1,-74.72"/>
<polygon fill="#63b8ff" stroke="#63b8ff" points="74.64,-71.26 64.12,-72.53 73.14,-78.09 74.64,-71.26"/>
</a>
</g>
</g>
<!-- Node6 -->
<g id="Node000006" class="node">
<title>Node6</title>
<g id="a_Node000006"><a xlink:title=" ">
<polygon fill="#e0e0e0" stroke="#999999" points="533,-19 489,-19 489,0 533,0 533,-19"/>
<text text-anchor="middle" x="511" y="-7" font-family="Helvetica,sans-Serif" font-size="10.00">string</text>
</a>
</g>
</g>
<!-- Node5&#45;&gt;Node6 -->
<g id="edge5_Node000005_Node000006" class="edge">
<title>Node5&#45;&gt;Node6</title>
<g id="a_edge5_Node000005_Node000006"><a xlink:title=" ">
<path fill="none" stroke="#63b8ff" d="M306.54,-111.84C309.74,-111.21 312.93,-110.58 316,-110 360.79,-101.48 488.72,-108.96 518,-74 528.44,-61.53 524.63,-42.52 519.46,-28.54"/>
<polygon fill="#63b8ff" stroke="#63b8ff" points="522.56,-26.89 515.46,-19.03 516.11,-29.61 522.56,-26.89"/>
</a>
</g>
</g>
<!-- Node7 -->
<g id="Node000007" class="node">
<title>Node7</title>
<g id="a_Node000007"><a xlink:title=" ">
<polygon fill="#e0e0e0" stroke="#999999" points="131.5,-74 82.5,-74 82.5,-55 131.5,-55 131.5,-74"/>
<text text-anchor="middle" x="107" y="-62" font-family="Helvetica,sans-Serif" font-size="10.00">cctype</text>
</a>
</g>
</g>
<!-- Node5&#45;&gt;Node7 -->
<g id="edge7_Node000005_Node000007" class="edge">
<title>Node5&#45;&gt;Node7</title>
<g id="a_edge7_Node000005_Node000007"><a xlink:title=" ">
<path fill="none" stroke="#63b8ff" d="M247.17,-109.98C218.38,-100.85 172.58,-86.31 141.22,-76.36"/>
<polygon fill="#63b8ff" stroke="#63b8ff" points="142.18,-72.99 131.59,-73.3 140.06,-79.66 142.18,-72.99"/>
</a>
</g>
</g>
<!-- Node8 -->
<g id="Node000008" class="node">
<title>Node8</title>
<g id="a_Node000008"><a xlink:title=" ">
<polygon fill="#e0e0e0" stroke="#999999" points="200,-74 150,-74 150,-55 200,-55 200,-74"/>
<text text-anchor="middle" x="175" y="-62" font-family="Helvetica,sans-Serif" font-size="10.00">cstring</text>
</a>
</g>
</g>
<!-- Node5&#45;&gt;Node8 -->
<g id="edge8_Node000005_Node000008" class="edge">
<title>Node5&#45;&gt;Node8</title>
<g id="a_edge8_Node000005_Node000008"><a xlink:title=" ">
<path fill="none" stroke="#63b8ff" d="M258.09,-109.98C242.45,-101.61 218.34,-88.7 200.12,-78.95"/>
<polygon fill="#63b8ff" stroke="#63b8ff" points="201.66,-75.8 191.2,-74.17 198.36,-81.98 201.66,-75.8"/>
</a>
</g>
</g>
<!-- Node9 -->
<g id="Node000009" class="node">
<title>Node9</title>
<g id="a_Node000009"><a xlink:title=" ">
<polygon fill="#e0e0e0" stroke="#999999" points="264,-74 218,-74 218,-55 264,-55 264,-74"/>
<text text-anchor="middle" x="241" y="-62" font-family="Helvetica,sans-Serif" font-size="10.00">cstdio</text>
</a>
</g>
</g>
<!-- Node5&#45;&gt;Node9 -->
<g id="edge9_Node000005_Node000009" class="edge">
<title>Node5&#45;&gt;Node9</title>
<g id="a_edge9_Node000005_Node000009"><a xlink:title=" ">
<path fill="none" stroke="#63b8ff" d="M268.55,-109.75C263.99,-102.42 257.33,-91.73 251.71,-82.7"/>
<polygon fill="#63b8ff" stroke="#63b8ff" points="254.6,-80.73 246.35,-74.09 248.66,-84.43 254.6,-80.73"/>
</a>
</g>
</g>
<!-- Node10 -->
<g id="Node000010" class="node">
<title>Node10</title>
<g id="a_Node000010"><a xlink:title=" ">
<polygon fill="#e0e0e0" stroke="#999999" points="331.5,-74 282.5,-74 282.5,-55 331.5,-55 331.5,-74"/>
<text text-anchor="middle" x="307" y="-62" font-family="Helvetica,sans-Serif" font-size="10.00">cstdlib</text>
</a>
</g>
</g>
<!-- Node5&#45;&gt;Node10 -->
<g id="edge10_Node000005_Node000010" class="edge">
<title>Node5&#45;&gt;Node10</title>
<g id="a_edge10_Node000005_Node000010"><a xlink:title=" ">
<path fill="none" stroke="#63b8ff" d="M279.45,-109.75C284.01,-102.42 290.67,-91.73 296.29,-82.7"/>
<polygon fill="#63b8ff" stroke="#63b8ff" points="299.34,-84.43 301.65,-74.09 293.4,-80.73 299.34,-84.43"/>
</a>
</g>
</g>
<!-- Node11 -->
<g id="Node000011" class="node">
<title>Node11</title>
<g id="a_Node000011"><a xlink:title=" ">
<polygon fill="#e0e0e0" stroke="#999999" points="441,-19 391,-19 391,0 441,0 441,-19"/>
<text text-anchor="middle" x="416" y="-7" font-family="Helvetica,sans-Serif" font-size="10.00">cstdint</text>
</a>
</g>
</g>
<!-- Node5&#45;&gt;Node11 -->
<g id="edge11_Node000005_Node000011" class="edge">
<title>Node5&#45;&gt;Node11</title>
<g id="a_edge11_Node000005_Node000011"><a xlink:title=" ">
<path fill="none" stroke="#63b8ff" d="M287.92,-109.92C301.7,-101.27 323.25,-87.34 341,-74 361.52,-58.58 383.83,-39.35 398.74,-26.11"/>
<polygon fill="#63b8ff" stroke="#63b8ff" points="401.47,-28.37 406.59,-19.09 396.8,-23.15 401.47,-28.37"/>
</a>
</g>
</g>
<!-- Node12 -->
<g id="Node000012" class="node">
<title>Node12</title>
<g id="a_Node000012"><a xlink:title=" ">
<polygon fill="#e0e0e0" stroke="#999999" points="445.5,-74 388.5,-74 388.5,-55 445.5,-55 445.5,-74"/>
<text text-anchor="middle" x="417" y="-62" font-family="Helvetica,sans-Serif" font-size="10.00">ostream</text>
</a>
</g>
</g>
<!-- Node5&#45;&gt;Node12 -->
<g id="edge12_Node000005_Node000012" class="edge">
<title>Node5&#45;&gt;Node12</title>
<g id="a_edge12_Node000005_Node000012"><a xlink:title=" ">
<path fill="none" stroke="#63b8ff" d="M296.98,-109.98C320.5,-101.27 357.29,-87.63 383.94,-77.75"/>
<polygon fill="#63b8ff" stroke="#63b8ff" points="385.45,-80.93 393.61,-74.17 383.01,-74.36 385.45,-80.93"/>
</a>
</g>
</g>
<!-- Node13 -->
<g id="Node000013" class="node">
<title>Node13</title>
<g id="a_Node000013"><a xlink:href="../../db/d7c/utf8_8h.html" target="_top" xlink:title="Various UTF8 related helper functions.">
<polygon fill="white" stroke="#666666" points="508.5,-74 463.5,-74 463.5,-55 508.5,-55 508.5,-74"/>
<text text-anchor="middle" x="486" y="-62" font-family="Helvetica,sans-Serif" font-size="10.00">utf8.h</text>
</a>
</g>
</g>
<!-- Node5&#45;&gt;Node13 -->
<g id="edge13_Node000005_Node000013" class="edge">
<title>Node5&#45;&gt;Node13</title>
<g id="a_edge13_Node000005_Node000013"><a xlink:title=" ">
<path fill="none" stroke="#63b8ff" d="M306.76,-110.72C341.09,-102.51 396.81,-89.01 453.49,-74.35"/>
<polygon fill="#63b8ff" stroke="#63b8ff" points="454.53,-77.69 463.33,-71.79 452.77,-70.92 454.53,-77.69"/>
</a>
</g>
</g>
<!-- Node13&#45;&gt;Node6 -->
<g id="edge15_Node000013_Node000006" class="edge">
<title>Node13&#45;&gt;Node6</title>
<g id="a_edge15_Node000013_Node000006"><a xlink:title=" ">
<path fill="none" stroke="#63b8ff" d="M490.13,-54.75C493.51,-47.57 498.42,-37.18 502.62,-28.27"/>
<polygon fill="#63b8ff" stroke="#63b8ff" points="505.85,-29.63 506.95,-19.09 499.52,-26.64 505.85,-29.63"/>
</a>
</g>
</g>
<!-- Node13&#45;&gt;Node11 -->
<g id="edge14_Node000013_Node000011" class="edge">
<title>Node13&#45;&gt;Node11</title>
<g id="a_edge14_Node000013_Node000011"><a xlink:title=" ">
<path fill="none" stroke="#63b8ff" d="M474.75,-54.98C464.2,-47 448.2,-34.88 435.56,-25.31"/>
<polygon fill="#63b8ff" stroke="#63b8ff" points="437.54,-22.42 427.45,-19.17 433.31,-28 437.54,-22.42"/>
</a>
</g>
</g>
</g>
</svg>
