<?xml version="1.0" encoding="UTF-8" standalone="no"?>
<!DOCTYPE svg PUBLIC "-//W3C//DTD SVG 1.1//EN"
 "http://www.w3.org/Graphics/SVG/1.1/DTD/svg11.dtd">
<!-- Generated by graphviz version 2.43.0 (0)
 -->
<!-- Title: PageDefImpl Pages: 1 -->
<svg width="324pt" height="205pt"
 viewBox="0.00 0.00 323.50 205.00" xmlns="http://www.w3.org/2000/svg" xmlns:xlink="http://www.w3.org/1999/xlink">
<g id="graph0" class="graph" transform="scale(1 1) rotate(0) translate(4 201)">
<title>PageDefImpl</title>
<!-- Node1 -->
<g id="Node000001" class="node">
<title>Node1</title>
<g id="a_Node000001"><a xlink:title=" ">
<polygon fill="#999999" stroke="#666666" points="228.5,-19 149.5,-19 149.5,0 228.5,0 228.5,-19"/>
<text text-anchor="middle" x="189" y="-7" font-family="Helvetica,sans-Serif" font-size="10.00">PageDefImpl</text>
</a>
</g>
</g>
<!-- Node2 -->
<g id="Node000002" class="node">
<title>Node2</title>
<g id="a_Node000002"><a xlink:href="../../dd/d10/class_definition_mixin.html" target="_top" xlink:title=" ">
<polygon fill="white" stroke="#666666" points="266,-75 112,-75 112,-56 266,-56 266,-75"/>
<text text-anchor="middle" x="189" y="-63" font-family="Helvetica,sans-Serif" font-size="10.00">DefinitionMixin&lt; PageDef &gt;</text>
</a>
</g>
</g>
<!-- Node2&#45;&gt;Node1 -->
<g id="edge1_Node000001_Node000002" class="edge">
<title>Node2&#45;&gt;Node1</title>
<g id="a_edge1_Node000001_Node000002"><a xlink:title=" ">
<path fill="none" stroke="#63b8ff" d="M189,-45.3C189,-36.41 189,-26.28 189,-19.25"/>
<polygon fill="#63b8ff" stroke="#63b8ff" points="185.5,-45.58 189,-55.58 192.5,-45.58 185.5,-45.58"/>
</a>
</g>
</g>
<!-- Node3 -->
<g id="Node000003" class="node">
<title>Node3</title>
<g id="a_Node000003"><a xlink:href="../../dd/d41/class_page_def.html" target="_top" xlink:title="A model of a page symbol.">
<polygon fill="white" stroke="#666666" points="160.5,-141 103.5,-141 103.5,-122 160.5,-122 160.5,-141"/>
<text text-anchor="middle" x="132" y="-129" font-family="Helvetica,sans-Serif" font-size="10.00">PageDef</text>
</a>
</g>
</g>
<!-- Node3&#45;&gt;Node2 -->
<g id="edge2_Node000002_Node000003" class="edge">
<title>Node3&#45;&gt;Node2</title>
<g id="a_edge2_Node000002_Node000003"><a xlink:title=" ">
<path fill="none" stroke="#63b8ff" d="M146.59,-114.12C157.56,-101.81 172.17,-85.39 181.07,-75.41"/>
<polygon fill="#63b8ff" stroke="#63b8ff" points="143.72,-112.07 139.69,-121.87 148.95,-116.73 143.72,-112.07"/>
</a>
</g>
</g>
<!-- Node4 -->
<g id="Node000004" class="node">
<title>Node4</title>
<g id="a_Node000004"><a xlink:href="../../d0/d46/class_definition_mutable.html" target="_top" xlink:title=" ">
<polygon fill="white" stroke="#666666" points="104,-197 0,-197 0,-178 104,-178 104,-197"/>
<text text-anchor="middle" x="52" y="-185" font-family="Helvetica,sans-Serif" font-size="10.00">DefinitionMutable</text>
</a>
</g>
</g>
<!-- Node4&#45;&gt;Node3 -->
<g id="edge3_Node000003_Node000004" class="edge">
<title>Node4&#45;&gt;Node3</title>
<g id="a_edge3_Node000003_Node000004"><a xlink:title=" ">
<path fill="none" stroke="#63b8ff" d="M73.3,-172.12C87.92,-162.26 106.83,-149.49 119.18,-141.15"/>
<polygon fill="#63b8ff" stroke="#63b8ff" points="71.18,-169.33 64.85,-177.82 75.1,-175.13 71.18,-169.33"/>
</a>
</g>
</g>
<!-- Node5 -->
<g id="Node000005" class="node">
<title>Node5</title>
<g id="a_Node000005"><a xlink:href="../../d5/dcc/class_definition.html" target="_top" xlink:title="The common base class of all entity definitions found in the sources.">
<polygon fill="white" stroke="#666666" points="186,-197 122,-197 122,-178 186,-178 186,-197"/>
<text text-anchor="middle" x="154" y="-185" font-family="Helvetica,sans-Serif" font-size="10.00">Definition</text>
</a>
</g>
</g>
<!-- Node5&#45;&gt;Node3 -->
<g id="edge4_Node000003_Node000005" class="edge">
<title>Node5&#45;&gt;Node3</title>
<g id="a_edge4_Node000003_Node000005"><a xlink:title=" ">
<path fill="none" stroke="#63b8ff" d="M146.54,-168.19C142.83,-159.09 138.52,-148.51 135.57,-141.25"/>
<polygon fill="#63b8ff" stroke="#63b8ff" points="143.35,-169.64 150.37,-177.58 149.84,-167 143.35,-169.64"/>
</a>
</g>
</g>
<!-- Node6 -->
<g id="Node000006" class="node">
<title>Node6</title>
<g id="a_Node000006"><a xlink:href="../../dd/d10/class_definition_mixin.html" target="_top" xlink:title=" ">
<polygon fill="white" stroke="#666666" points="315.5,-141 178.5,-141 178.5,-122 315.5,-122 315.5,-141"/>
<text text-anchor="middle" x="247" y="-129" font-family="Helvetica,sans-Serif" font-size="10.00">DefinitionMixin&lt; Base &gt;</text>
</a>
</g>
</g>
<!-- Node6&#45;&gt;Node2 -->
<g id="edge5_Node000002_Node000006" class="edge">
<title>Node6&#45;&gt;Node2</title>
<g id="a_edge5_Node000002_Node000006"><a xlink:title=" ">
<path fill="none" stroke="orange" stroke-dasharray="5,2" d="M232.16,-114.12C221,-101.81 206.12,-85.39 197.07,-75.41"/>
<polygon fill="orange" stroke="orange" points="229.87,-116.81 239.18,-121.87 235.06,-112.11 229.87,-116.81"/>
</a>
</g>
<text text-anchor="middle" x="255.5" y="-96" font-family="Helvetica,sans-Serif" font-size="10.00" fill="grey"> &lt; PageDef &gt;</text>
</g>
<!-- Node7 -->
<g id="Node000007" class="node">
<title>Node7</title>
<g id="a_Node000007"><a xlink:title=" ">
<polygon fill="white" stroke="#666666" points="267.5,-197 226.5,-197 226.5,-178 267.5,-178 267.5,-197"/>
<text text-anchor="middle" x="247" y="-185" font-family="Helvetica,sans-Serif" font-size="10.00">Base</text>
</a>
</g>
</g>
<!-- Node7&#45;&gt;Node6 -->
<g id="edge6_Node000006_Node000007" class="edge">
<title>Node7&#45;&gt;Node6</title>
<g id="a_edge6_Node000006_Node000007"><a xlink:title=" ">
<path fill="none" stroke="#63b8ff" d="M247,-167.3C247,-158.41 247,-148.28 247,-141.25"/>
<polygon fill="#63b8ff" stroke="#63b8ff" points="243.5,-167.58 247,-177.58 250.5,-167.58 243.5,-167.58"/>
</a>
</g>
</g>
</g>
</svg>
