<?xml version="1.0" encoding="UTF-8" standalone="no"?>
<!DOCTYPE svg PUBLIC "-//W3C//DTD SVG 1.1//EN"
 "http://www.w3.org/Graphics/SVG/1.1/DTD/svg11.dtd">
<!-- Generated by graphviz version 2.43.0 (0)
 -->
<!-- Title: TranslatorAdapter_1_10_0 Pages: 1 -->
<svg width="192pt" height="261pt"
 viewBox="0.00 0.00 191.50 261.00" xmlns="http://www.w3.org/2000/svg" xmlns:xlink="http://www.w3.org/1999/xlink">
<g id="graph0" class="graph" transform="scale(1 1) rotate(0) translate(4 257)">
<title>TranslatorAdapter_1_10_0</title>
<!-- Node1 -->
<g id="Node000001" class="node">
<title>Node1</title>
<g id="a_Node000001"><a xlink:title=" ">
<polygon fill="#999999" stroke="#666666" points="143,-19 0,-19 0,0 143,0 143,-19"/>
<text text-anchor="middle" x="71.5" y="-7" font-family="Helvetica,sans-Serif" font-size="10.00">TranslatorAdapter_1_10_0</text>
</a>
</g>
</g>
<!-- Node2 -->
<g id="Node000002" class="node">
<title>Node2</title>
<g id="a_Node000002"><a xlink:href="../../d8/d55/class_translator_adapter__1__11__0.html" target="_top" xlink:title=" ">
<polygon fill="white" stroke="#666666" points="143,-75 0,-75 0,-56 143,-56 143,-75"/>
<text text-anchor="middle" x="71.5" y="-63" font-family="Helvetica,sans-Serif" font-size="10.00">TranslatorAdapter_1_11_0</text>
</a>
</g>
</g>
<!-- Node2&#45;&gt;Node1 -->
<g id="edge1_Node000001_Node000002" class="edge">
<title>Node2&#45;&gt;Node1</title>
<g id="a_edge1_Node000001_Node000002"><a xlink:title=" ">
<path fill="none" stroke="#63b8ff" d="M71.5,-45.3C71.5,-36.41 71.5,-26.28 71.5,-19.25"/>
<polygon fill="#63b8ff" stroke="#63b8ff" points="68,-45.58 71.5,-55.58 75,-45.58 68,-45.58"/>
</a>
</g>
</g>
<!-- Node3 -->
<g id="Node000003" class="node">
<title>Node3</title>
<g id="a_Node000003"><a xlink:href="../../db/d6c/class_translator_adapter_base.html" target="_top" xlink:title="Base of the translator adapter tree.">
<polygon fill="white" stroke="#666666" points="135,-131 8,-131 8,-112 135,-112 135,-131"/>
<text text-anchor="middle" x="71.5" y="-119" font-family="Helvetica,sans-Serif" font-size="10.00">TranslatorAdapterBase</text>
</a>
</g>
</g>
<!-- Node3&#45;&gt;Node2 -->
<g id="edge2_Node000002_Node000003" class="edge">
<title>Node3&#45;&gt;Node2</title>
<g id="a_edge2_Node000002_Node000003"><a xlink:title=" ">
<path fill="none" stroke="#63b8ff" d="M71.5,-101.3C71.5,-92.41 71.5,-82.28 71.5,-75.25"/>
<polygon fill="#63b8ff" stroke="#63b8ff" points="68,-101.58 71.5,-111.58 75,-101.58 68,-101.58"/>
</a>
</g>
</g>
<!-- Node4 -->
<g id="Node000004" class="node">
<title>Node4</title>
<g id="a_Node000004"><a xlink:href="../../d8/dfb/class_translator.html" target="_top" xlink:title="Abstract base class for all translatable text fragments.">
<polygon fill="white" stroke="#666666" points="100,-253 35,-253 35,-234 100,-234 100,-253"/>
<text text-anchor="middle" x="67.5" y="-241" font-family="Helvetica,sans-Serif" font-size="10.00">Translator</text>
</a>
</g>
</g>
<!-- Node4&#45;&gt;Node3 -->
<g id="edge3_Node000003_Node000004" class="edge">
<title>Node4&#45;&gt;Node3</title>
<g id="a_edge3_Node000003_Node000004"><a xlink:title=" ">
<path fill="none" stroke="#63b8ff" d="M68.13,-223.65C69.01,-197.22 70.57,-150.26 71.21,-131.05"/>
<polygon fill="#63b8ff" stroke="#63b8ff" points="64.62,-223.76 67.79,-233.87 71.62,-223.99 64.62,-223.76"/>
</a>
</g>
</g>
<!-- Node5 -->
<g id="Node000005" class="node">
<title>Node5</title>
<g id="a_Node000005"><a xlink:href="../../d6/d78/class_translator_english.html" target="_top" xlink:title=" ">
<polygon fill="white" stroke="#666666" points="183.5,-197 83.5,-197 83.5,-178 183.5,-178 183.5,-197"/>
<text text-anchor="middle" x="133.5" y="-185" font-family="Helvetica,sans-Serif" font-size="10.00">TranslatorEnglish</text>
</a>
</g>
</g>
<!-- Node4&#45;&gt;Node5 -->
<g id="edge5_Node000005_Node000004" class="edge">
<title>Node4&#45;&gt;Node5</title>
<g id="a_edge5_Node000005_Node000004"><a xlink:title=" ">
<path fill="none" stroke="#63b8ff" d="M86.05,-227.32C97.88,-217.65 112.79,-205.45 122.7,-197.33"/>
<polygon fill="#63b8ff" stroke="#63b8ff" points="83.63,-224.78 78.1,-233.82 88.06,-230.2 83.63,-224.78"/>
</a>
</g>
</g>
<!-- Node5&#45;&gt;Node3 -->
<g id="edge4_Node000003_Node000005" class="edge">
<title>Node5&#45;&gt;Node3</title>
<g id="a_edge4_Node000003_Node000005"><a xlink:title=" ">
<path fill="none" stroke="#9a32cd" stroke-dasharray="5,2" d="M117.98,-170.48C106.01,-158.12 89.9,-141.49 80.13,-131.41"/>
<polygon fill="#9a32cd" stroke="#9a32cd" points="115.67,-173.12 125.14,-177.87 120.69,-168.25 115.67,-173.12"/>
</a>
</g>
<text text-anchor="middle" x="125" y="-152" font-family="Helvetica,sans-Serif" font-size="10.00" fill="grey"> english</text>
</g>
</g>
</svg>
