<?xml version="1.0" encoding="UTF-8" standalone="no"?>
<!DOCTYPE svg PUBLIC "-//W3C//DTD SVG 1.1//EN"
 "http://www.w3.org/Graphics/SVG/1.1/DTD/svg11.dtd">
<!-- Generated by graphviz version 2.43.0 (0)
 -->
<!-- Title: DirContext::Private::Cachable Pages: 1 -->
<!--zoomable 246 -->

<svg id="main" version="1.1" xmlns="http://www.w3.org/2000/svg" xmlns:xlink="http://www.w3.org/1999/xlink" xml:space="preserve" onload="init(evt)">
<style type="text/css"><![CDATA[
.node, .edge {opacity: 0.7;}
.node.selected, .edge.selected {opacity: 1;}
.edge:hover path { stroke: red; }
.edge:hover polygon { stroke: red; fill: red; }
]]></style>

<defs>
  <circle id="rim" cx="0" cy="0" r="7"/>
  <circle id="rim2" cx="0" cy="0" r="3.5"/>
  <g id="zoomPlus">
    <use xlink:href="#rim" fill="#404040"><set attributeName="fill" to="#808080" begin="zoomplus.mouseover" end="zoomplus.mouseout"/></use>
    <path d="M-4,0h8M0,-4v8" fill="none" stroke="white" stroke-width="1.5" pointer-events="none"/>
  </g>
  <g id="zoomMin">
    <use xlink:href="#rim" fill="#404040"><set attributeName="fill" to="#808080" begin="zoomminus.mouseover" end="zoomminus.mouseout"/></use>
    <path d="M-4,0h8" fill="none" stroke="white" stroke-width="1.5" pointer-events="none"/>
  </g>
  <g id="arrowUp" transform="translate(30 24)">
    <use xlink:href="#rim"/>
    <path pointer-events="none" fill="none" stroke="white" stroke-width="1.5" d="M0,-3.0v7 M-2.5,-0.5L0,-3.0L2.5,-0.5"/>
  </g>
  <g id="arrowRight" transform="rotate(90) translate(36 -43)">
    <use xlink:href="#rim"/>
    <path pointer-events="none" fill="none" stroke="white" stroke-width="1.5" d="M0,-3.0v7 M-2.5,-0.5L0,-3.0L2.5,-0.5"/>
  </g>
  <g id="arrowDown" transform="rotate(180) translate(-30 -48)">
    <use xlink:href="#rim"/>
    <path pointer-events="none" fill="none" stroke="white" stroke-width="1.5" d="M0,-3.0v7 M-2.5,-0.5L0,-3.0L2.5,-0.5"/>
  </g>
  <g id="arrowLeft" transform="rotate(270) translate(-36 17)">
    <use xlink:href="#rim"/>
    <path pointer-events="none" fill="none" stroke="white" stroke-width="1.5" d="M0,-3.0v7 M-2.5,-0.5L0,-3.0L2.5,-0.5"/>
  </g>
  <g id="resetDef">
    <use xlink:href="#rim2" fill="#404040"><set attributeName="fill" to="#808080" begin="reset.mouseover" end="reset.mouseout"/></use>
  </g>
</defs>
<script type="application/ecmascript">
var viewWidth = 733;
var viewHeight = 246;
var sectionId = 'dynsection-1';
</script>
<script type="application/ecmascript" xlink:href="../../svg.min.js"/>
<svg id="graph" class="graph">
<g id="viewport">
<title>DirContext::Private::Cachable</title>
<!-- Node1 -->
<g id="Node000001" class="node">
<title>Node1</title>
<g id="a_Node000001"><a xlink:title=" ">
<polygon fill="#999999" stroke="#666666" points="725,-123.5 615,-123.5 615,-93.5 725,-93.5 725,-123.5"/>
<text text-anchor="start" x="623" y="-111.5" font-family="Helvetica,sans-Serif" font-size="10.00">DirContext::Private</text>
<text text-anchor="middle" x="670" y="-100.5" font-family="Helvetica,sans-Serif" font-size="10.00">::Cachable</text>
</a>
</g>
</g>
<!-- Node2 -->
<g id="Node000002" class="node">
<title>Node2</title>
<g id="a_Node000002"><a xlink:title=" ">
<polygon fill="white" stroke="#666666" points="481,-218 368,-218 368,-177 481,-177 481,-218"/>
<text text-anchor="start" x="376" y="-206" font-family="Helvetica,sans-Serif" font-size="10.00">DefinitionContext&lt;</text>
<text text-anchor="start" x="376" y="-195" font-family="Helvetica,sans-Serif" font-size="10.00"> DirContext::Private</text>
<text text-anchor="middle" x="424.5" y="-184" font-family="Helvetica,sans-Serif" font-size="10.00"> &gt;::Cachable</text>
</a>
</g>
</g>
<!-- Node2&#45;&gt;Node1 -->
<g id="edge1_Node000001_Node000002" class="edge">
<title>Node2&#45;&gt;Node1</title>
<g id="a_edge1_Node000001_Node000002"><a xlink:title=" ">
<path fill="none" stroke="#63b8ff" d="M490.87,-176.76C523.05,-166.21 562.29,-152.82 597,-139.5 609.71,-134.63 623.47,-128.83 635.53,-123.57"/>
<polygon fill="#63b8ff" stroke="#63b8ff" points="489.55,-173.51 481.13,-179.94 491.72,-180.17 489.55,-173.51"/>
</a>
</g>
</g>
<!-- Node3 -->
<g id="Node000003" class="node">
<title>Node3</title>
<g id="a_Node000003"><a xlink:href="../../d7/dc1/class_cached_item.html" target="_top" xlink:title=" ">
<polygon fill="white" stroke="#666666" points="509,-100 340,-100 340,-59 509,-59 509,-100"/>
<text text-anchor="start" x="348" y="-88" font-family="Helvetica,sans-Serif" font-size="10.00">CachedItem&lt; TemplateVariant,</text>
<text text-anchor="start" x="348" y="-77" font-family="Helvetica,sans-Serif" font-size="10.00"> DirContext::Private, &amp;Private</text>
<text text-anchor="middle" x="424.5" y="-66" font-family="Helvetica,sans-Serif" font-size="10.00">::createDirs &gt;</text>
</a>
</g>
</g>
<!-- Node3&#45;&gt;Node1 -->
<g id="edge2_Node000001_Node000003" class="edge">
<title>Node3&#45;&gt;Node1</title>
<g id="a_edge2_Node000001_Node000003"><a xlink:title=" ">
<path fill="none" stroke="#9a32cd" stroke-dasharray="5,2" d="M519.02,-85.02C544.4,-87.1 571.81,-89.86 597,-93.5 602.81,-94.34 608.86,-95.36 614.87,-96.47"/>
<polygon fill="#9a32cd" stroke="#9a32cd" points="519.28,-81.53 509.04,-84.23 518.73,-88.51 519.28,-81.53"/>
</a>
</g>
<text text-anchor="middle" x="562" y="-96.5" font-family="Helvetica,sans-Serif" font-size="10.00" fill="grey"> dirs</text>
</g>
<!-- Node4 -->
<g id="Node000004" class="node">
<title>Node4</title>
<g id="a_Node000004"><a xlink:href="../../d1/dba/class_template_variant.html" target="_top" xlink:title="Variant type which can hold one value of a fixed set of types.">
<polygon fill="white" stroke="#666666" points="117.5,-215 21.5,-215 21.5,-196 117.5,-196 117.5,-215"/>
<text text-anchor="middle" x="69.5" y="-203" font-family="Helvetica,sans-Serif" font-size="10.00">TemplateVariant</text>
</a>
</g>
</g>
<!-- Node4&#45;&gt;Node3 -->
<g id="edge3_Node000003_Node000004" class="edge">
<title>Node4&#45;&gt;Node3</title>
<g id="a_edge3_Node000003_Node000004"><a xlink:title=" ">
<path fill="none" stroke="#9a32cd" stroke-dasharray="5,2" d="M123.1,-193.87C134.26,-191.59 146,-189.34 157,-187.5 193.46,-181.4 293.63,-190.19 322,-166.5 342.39,-149.47 321.58,-128.65 340,-109.5 343.42,-105.95 347.28,-102.81 351.44,-100.05"/>
<polygon fill="#9a32cd" stroke="#9a32cd" points="122.13,-190.49 113.05,-195.95 123.55,-197.35 122.13,-190.49"/>
</a>
</g>
<text text-anchor="middle" x="239.5" y="-190.5" font-family="Helvetica,sans-Serif" font-size="10.00" fill="grey"> m_item</text>
</g>
<!-- Node6 -->
<g id="Node000006" class="node">
<title>Node6</title>
<g id="a_Node000006"><a xlink:href="../../d7/dc1/class_cached_item.html" target="_top" xlink:title=" ">
<polygon fill="white" stroke="#666666" points="509,-159 340,-159 340,-118 509,-118 509,-159"/>
<text text-anchor="start" x="348" y="-147" font-family="Helvetica,sans-Serif" font-size="10.00">CachedItem&lt; TemplateVariant,</text>
<text text-anchor="start" x="348" y="-136" font-family="Helvetica,sans-Serif" font-size="10.00"> DirContext::Private, &amp;Private</text>
<text text-anchor="middle" x="424.5" y="-125" font-family="Helvetica,sans-Serif" font-size="10.00">::createFiles &gt;</text>
</a>
</g>
</g>
<!-- Node4&#45;&gt;Node6 -->
<g id="edge6_Node000006_Node000004" class="edge">
<title>Node4&#45;&gt;Node6</title>
<g id="a_edge6_Node000006_Node000004"><a xlink:title=" ">
<path fill="none" stroke="#9a32cd" stroke-dasharray="5,2" d="M115.41,-217.18C168.74,-228.37 258.45,-238.52 322,-200.5 336,-192.12 327.54,-179.03 340,-168.5 344.12,-165.02 348.67,-161.93 353.46,-159.19"/>
<polygon fill="#9a32cd" stroke="#9a32cd" points="116.09,-213.74 105.57,-215.01 114.59,-220.58 116.09,-213.74"/>
</a>
</g>
<text text-anchor="middle" x="239.5" y="-229.5" font-family="Helvetica,sans-Serif" font-size="10.00" fill="grey"> m_item</text>
</g>
<!-- Node5 -->
<g id="Node000005" class="node">
<title>Node5</title>
<g id="a_Node000005"><a xlink:href="../../d7/dc1/class_cached_item.html" target="_top" xlink:title="Wrapper for data that needs to be cached.">
<polygon fill="white" stroke="#666666" points="139,-91.5 0,-91.5 0,-61.5 139,-61.5 139,-91.5"/>
<text text-anchor="start" x="8" y="-79.5" font-family="Helvetica,sans-Serif" font-size="10.00">CachedItem&lt; T, TOwner,</text>
<text text-anchor="middle" x="69.5" y="-68.5" font-family="Helvetica,sans-Serif" font-size="10.00"> creator &gt;</text>
</a>
</g>
</g>
<!-- Node5&#45;&gt;Node3 -->
<g id="edge4_Node000003_Node000005" class="edge">
<title>Node5&#45;&gt;Node3</title>
<g id="a_edge4_Node000003_Node000005"><a xlink:title=" ">
<path fill="none" stroke="orange" stroke-dasharray="5,2" d="M149.1,-76.5C198.7,-76.57 264.1,-76.81 322,-77.5 327.82,-77.57 333.82,-77.65 339.86,-77.75"/>
<polygon fill="orange" stroke="orange" points="149.09,-73 139.09,-76.48 149.08,-80 149.09,-73"/>
</a>
</g>
<text text-anchor="start" x="183" y="-102.5" font-family="Helvetica,sans-Serif" font-size="10.00" fill="grey"> &lt; TemplateVariant,</text>
<text text-anchor="start" x="183" y="-91.5" font-family="Helvetica,sans-Serif" font-size="10.00" fill="grey"> DirContext::Private,</text>
<text text-anchor="middle" x="239.5" y="-80.5" font-family="Helvetica,sans-Serif" font-size="10.00" fill="grey"> &amp;Private::createDirs &gt;</text>
</g>
<!-- Node5&#45;&gt;Node6 -->
<g id="edge7_Node000006_Node000005" class="edge">
<title>Node5&#45;&gt;Node6</title>
<g id="a_edge7_Node000006_Node000005"><a xlink:title=" ">
<path fill="none" stroke="orange" stroke-dasharray="5,2" d="M112.05,-95.46C126.07,-101.14 141.97,-106.83 157,-110.5 190.56,-118.7 274.86,-126.81 339.74,-132.17"/>
<polygon fill="orange" stroke="orange" points="113.26,-92.17 102.68,-91.55 110.57,-98.63 113.26,-92.17"/>
</a>
</g>
<text text-anchor="start" x="181.5" y="-154.5" font-family="Helvetica,sans-Serif" font-size="10.00" fill="grey"> &lt; TemplateVariant,</text>
<text text-anchor="start" x="181.5" y="-143.5" font-family="Helvetica,sans-Serif" font-size="10.00" fill="grey"> DirContext::Private,</text>
<text text-anchor="middle" x="239.5" y="-132.5" font-family="Helvetica,sans-Serif" font-size="10.00" fill="grey"> &amp;Private::createFiles &gt;</text>
</g>
<!-- Node7 -->
<g id="Node000007" class="node">
<title>Node7</title>
<g id="a_Node000007"><a xlink:href="../../d7/dc1/class_cached_item.html" target="_top" xlink:title=" ">
<polygon fill="white" stroke="#666666" points="505,-41 344,-41 344,0 505,0 505,-41"/>
<text text-anchor="start" x="352" y="-29" font-family="Helvetica,sans-Serif" font-size="10.00">CachedItem&lt; DotDirDepsPtr,</text>
<text text-anchor="start" x="352" y="-18" font-family="Helvetica,sans-Serif" font-size="10.00"> DirContext::Private, &amp;Private</text>
<text text-anchor="middle" x="424.5" y="-7" font-family="Helvetica,sans-Serif" font-size="10.00">::createDirDepsGraph &gt;</text>
</a>
</g>
</g>
<!-- Node5&#45;&gt;Node7 -->
<g id="edge9_Node000007_Node000005" class="edge">
<title>Node5&#45;&gt;Node7</title>
<g id="a_edge9_Node000007_Node000005"><a xlink:title=" ">
<path fill="none" stroke="orange" stroke-dasharray="5,2" d="M109.35,-57.23C123.95,-50.82 140.91,-44.35 157,-40.5 218.6,-25.78 290.27,-21.07 343.77,-19.88"/>
<polygon fill="orange" stroke="orange" points="107.8,-54.09 100.13,-61.4 110.68,-60.46 107.8,-54.09"/>
</a>
</g>
<text text-anchor="start" x="157" y="-65.5" font-family="Helvetica,sans-Serif" font-size="10.00" fill="grey"> &lt; DotDirDepsPtr, DirContext</text>
<text text-anchor="start" x="157" y="-54.5" font-family="Helvetica,sans-Serif" font-size="10.00" fill="grey">::Private, &amp;Private::createDirDeps</text>
<text text-anchor="middle" x="239.5" y="-43.5" font-family="Helvetica,sans-Serif" font-size="10.00" fill="grey">Graph &gt;</text>
</g>
<!-- Node6&#45;&gt;Node1 -->
<g id="edge5_Node000001_Node000006" class="edge">
<title>Node6&#45;&gt;Node1</title>
<g id="a_edge5_Node000001_Node000006"><a xlink:title=" ">
<path fill="none" stroke="#9a32cd" stroke-dasharray="5,2" d="M519.24,-126.95C551.59,-122.97 586.73,-118.64 614.83,-115.17"/>
<polygon fill="#9a32cd" stroke="#9a32cd" points="518.8,-123.48 509.3,-128.18 519.65,-130.43 518.8,-123.48"/>
</a>
</g>
<text text-anchor="middle" x="562" y="-127.5" font-family="Helvetica,sans-Serif" font-size="10.00" fill="grey"> files</text>
</g>
<!-- Node7&#45;&gt;Node1 -->
<g id="edge8_Node000001_Node000007" class="edge">
<title>Node7&#45;&gt;Node1</title>
<g id="a_edge8_Node000001_Node000007"><a xlink:title=" ">
<path fill="none" stroke="#9a32cd" stroke-dasharray="5,2" d="M514.84,-43.66C541.62,-51.51 570.81,-60.98 597,-71.5 612.52,-77.73 629.17,-86.17 642.54,-93.41"/>
<polygon fill="#9a32cd" stroke="#9a32cd" points="515.68,-40.26 505.1,-40.84 513.73,-46.98 515.68,-40.26"/>
</a>
</g>
<text text-anchor="middle" x="562" y="-74.5" font-family="Helvetica,sans-Serif" font-size="10.00" fill="grey"> dirDepsGraph</text>
</g>
</g>
</svg>

<g id="navigator" transform="translate(0 0)" fill="#404254">
  <rect fill="#f2f5e9" fill-opacity="0.5" stroke="#606060" stroke-width=".5" x="0" y="0" width="60" height="60"/>
  <use id="zoomplus" xlink:href="#zoomPlus" x="17" y="9" onmousedown="handleZoom(evt,'in')"/>
  <use id="zoomminus" xlink:href="#zoomMin" x="42" y="9" onmousedown="handleZoom(evt,'out')"/>
  <use id="reset" xlink:href="#resetDef" x="30" y="36" onmousedown="handleReset()"/>
   <use id="arrowup" xlink:href="#arrowUp" x="0" y="0" onmousedown="handlePan(0,-1)"/>
  <use id="arrowright" xlink:href="#arrowRight" x="0" y="0" onmousedown="handlePan(1,0)"/>
  <use id="arrowdown" xlink:href="#arrowDown" x="0" y="0" onmousedown="handlePan(0,1)"/>
  <use id="arrowleft" xlink:href="#arrowLeft" x="0" y="0" onmousedown="handlePan(-1,0)"/>
</g>
<svg viewBox="0 0 15 15" width="100%" height="30px" preserveAspectRatio="xMaxYMin meet">
 <g id="arrow_out" transform="scale(0.3 0.3)">
  <a xlink:href="struct_dir_context_1_1_private_1_1_cachable__coll__graph_org.svg" target="_base">
   <rect id="button" ry="5" rx="5" y="6" x="6" height="38" width="38"
        fill="#f2f5e9" fill-opacity="0.5" stroke="#606060" stroke-width="1.0"/>
   <path id="arrow"
     d="M 11.500037,31.436501 C 11.940474,20.09759 22.043105,11.32322 32.158766,21.979434 L 37.068811,17.246167 C 37.068811,17.246167 37.088388,32 37.088388,32 L 22.160133,31.978069 C 22.160133,31.978069 26.997745,27.140456 26.997745,27.140456 C 18.528582,18.264221 13.291696,25.230495 11.500037,31.436501 z"
     style="fill:#404040;"/>
  </a>
 </g>
</svg>

<style type='text/css'>
<![CDATA[
[data-mouse-over-selected='false'] { opacity: 0.7; }
[data-mouse-over-selected='true']  { opacity: 1.0; }
]]>
</style>
<script type="application/ecmascript"><![CDATA[
document.addEventListener('DOMContentLoaded', (event) => {
  highlightEdges();
  highlightAdjacentNodes();
});
]]></script>
</svg>
