<?xml version="1.0" encoding="UTF-8" standalone="no"?>
<!DOCTYPE svg PUBLIC "-//W3C//DTD SVG 1.1//EN"
 "http://www.w3.org/Graphics/SVG/1.1/DTD/svg11.dtd">
<!-- Generated by graphviz version 2.43.0 (0)
 -->
<!-- Title: DocParamList Pages: 1 -->
<svg width="1543pt" height="397pt"
 viewBox="0.00 0.00 1543.00 397.00" xmlns="http://www.w3.org/2000/svg" xmlns:xlink="http://www.w3.org/1999/xlink">
<g id="graph0" class="graph" transform="scale(1 1) rotate(0) translate(4 393)">
<title>DocParamList</title>
<!-- Node1 -->
<g id="Node000001" class="node">
<title>Node1</title>
<g id="a_Node000001"><a xlink:title="Node representing a parameter list.">
<polygon fill="#999999" stroke="#666666" points="1535,-221.5 1452,-221.5 1452,-202.5 1535,-202.5 1535,-221.5"/>
<text text-anchor="middle" x="1493.5" y="-209.5" font-family="Helvetica,sans-Serif" font-size="10.00">DocParamList</text>
</a>
</g>
</g>
<!-- Node2 -->
<g id="Node000002" class="node">
<title>Node2</title>
<g id="a_Node000002"><a xlink:href="../../d9/d0e/class_doc_node.html" target="_top" xlink:title="Abstract node interface with type information.">
<polygon fill="white" stroke="#666666" points="1332.5,-247.5 1271.5,-247.5 1271.5,-228.5 1332.5,-228.5 1332.5,-247.5"/>
<text text-anchor="middle" x="1302" y="-235.5" font-family="Helvetica,sans-Serif" font-size="10.00">DocNode</text>
</a>
</g>
</g>
<!-- Node2&#45;&gt;Node1 -->
<g id="edge1_Node000001_Node000002" class="edge">
<title>Node2&#45;&gt;Node1</title>
<g id="a_edge1_Node000001_Node000002"><a xlink:title=" ">
<path fill="none" stroke="#63b8ff" d="M1342.73,-234.75C1368.77,-232.38 1403.51,-228.75 1434,-224 1439.84,-223.09 1445.98,-221.99 1451.99,-220.83"/>
<polygon fill="#63b8ff" stroke="#63b8ff" points="1342.15,-231.29 1332.5,-235.66 1342.77,-238.26 1342.15,-231.29"/>
</a>
</g>
</g>
<!-- Node3 -->
<g id="Node000003" class="node">
<title>Node3</title>
<g id="a_Node000003"><a xlink:href="../../da/d02/class_doc_parser.html" target="_top" xlink:title=" ">
<polygon fill="white" stroke="#666666" points="1123.5,-248.5 1058.5,-248.5 1058.5,-229.5 1123.5,-229.5 1123.5,-248.5"/>
<text text-anchor="middle" x="1091" y="-236.5" font-family="Helvetica,sans-Serif" font-size="10.00">DocParser</text>
</a>
</g>
</g>
<!-- Node3&#45;&gt;Node2 -->
<g id="edge2_Node000002_Node000003" class="edge">
<title>Node3&#45;&gt;Node2</title>
<g id="a_edge2_Node000002_Node000003"><a xlink:title=" ">
<path fill="none" stroke="#9a32cd" stroke-dasharray="5,2" d="M1133.89,-238.8C1174.6,-238.6 1235.39,-238.31 1271.33,-238.14"/>
<polygon fill="#9a32cd" stroke="#9a32cd" points="1133.73,-235.3 1123.74,-238.85 1133.76,-242.3 1133.73,-235.3"/>
</a>
</g>
<text text-anchor="middle" x="1220.5" y="-241" font-family="Helvetica,sans-Serif" font-size="10.00" fill="grey"> m_parser</text>
</g>
<!-- Node4 -->
<g id="Node000004" class="node">
<title>Node4</title>
<g id="a_Node000004"><a xlink:href="../../de/dad/class_i_doc_parser.html" target="_top" xlink:title="opaque parser interface">
<polygon fill="white" stroke="#666666" points="845,-286.5 777,-286.5 777,-267.5 845,-267.5 845,-286.5"/>
<text text-anchor="middle" x="811" y="-274.5" font-family="Helvetica,sans-Serif" font-size="10.00">IDocParser</text>
</a>
</g>
</g>
<!-- Node4&#45;&gt;Node3 -->
<g id="edge3_Node000003_Node000004" class="edge">
<title>Node4&#45;&gt;Node3</title>
<g id="a_edge3_Node000003_Node000004"><a xlink:title=" ">
<path fill="none" stroke="#63b8ff" d="M854.99,-271.46C890.22,-266.89 941.36,-260.17 986,-254 1010.21,-250.65 1037.57,-246.7 1058.15,-243.69"/>
<polygon fill="#63b8ff" stroke="#63b8ff" points="854.52,-267.99 845.05,-272.75 855.42,-274.94 854.52,-267.99"/>
</a>
</g>
</g>
<!-- Node5 -->
<g id="Node000005" class="node">
<title>Node5</title>
<g id="a_Node000005"><a xlink:href="../../d8/d7d/struct_doc_parser_context.html" target="_top" xlink:title="Parser&#39;s context to store all global variables.">
<polygon fill="white" stroke="#666666" points="863,-249.5 759,-249.5 759,-230.5 863,-230.5 863,-249.5"/>
<text text-anchor="middle" x="811" y="-237.5" font-family="Helvetica,sans-Serif" font-size="10.00">DocParserContext</text>
</a>
</g>
</g>
<!-- Node5&#45;&gt;Node3 -->
<g id="edge4_Node000003_Node000005" class="edge">
<title>Node5&#45;&gt;Node3</title>
<g id="a_edge4_Node000003_Node000005"><a xlink:title=" ">
<path fill="none" stroke="#9a32cd" stroke-dasharray="5,2" d="M873.32,-239.78C930.53,-239.57 1013.6,-239.27 1058.44,-239.11"/>
<polygon fill="#9a32cd" stroke="#9a32cd" points="873.3,-236.28 863.31,-239.82 873.33,-243.28 873.3,-236.28"/>
</a>
</g>
<text text-anchor="middle" x="933.5" y="-242" font-family="Helvetica,sans-Serif" font-size="10.00" fill="grey"> context</text>
</g>
<!-- Node6 -->
<g id="Node000006" class="node">
<title>Node6</title>
<g id="a_Node000006"><a xlink:href="../../d5/dcc/class_definition.html" target="_top" xlink:title="The common base class of all entity definitions found in the sources.">
<polygon fill="white" stroke="#666666" points="293,-382.5 229,-382.5 229,-363.5 293,-363.5 293,-382.5"/>
<text text-anchor="middle" x="261" y="-370.5" font-family="Helvetica,sans-Serif" font-size="10.00">Definition</text>
</a>
</g>
</g>
<!-- Node6&#45;&gt;Node5 -->
<g id="edge5_Node000005_Node000006" class="edge">
<title>Node6&#45;&gt;Node5</title>
<g id="a_edge5_Node000005_Node000006"><a xlink:title=" ">
<path fill="none" stroke="#9a32cd" stroke-dasharray="5,2" d="M303.5,-376.86C373.67,-382.31 519.89,-389.03 640,-364 686.95,-354.22 708.78,-361.52 741,-326 761.72,-303.16 738.25,-281.8 759,-259 762.56,-255.09 767,-251.98 771.77,-249.5"/>
<polygon fill="#9a32cd" stroke="#9a32cd" points="303.55,-373.35 293.3,-376.03 302.99,-380.33 303.55,-373.35"/>
</a>
</g>
<text text-anchor="middle" x="580.5" y="-381" font-family="Helvetica,sans-Serif" font-size="10.00" fill="grey"> scope</text>
</g>
<!-- Node12 -->
<g id="Node000012" class="node">
<title>Node12</title>
<g id="a_Node000012"><a xlink:href="../../da/d09/class_member_def.html" target="_top" xlink:title="A model of a class/file/namespace member symbol.">
<polygon fill="white" stroke="#666666" points="617.5,-354.5 543.5,-354.5 543.5,-335.5 617.5,-335.5 617.5,-354.5"/>
<text text-anchor="middle" x="580.5" y="-342.5" font-family="Helvetica,sans-Serif" font-size="10.00">MemberDef</text>
</a>
</g>
</g>
<!-- Node6&#45;&gt;Node12 -->
<g id="edge12_Node000012_Node000006" class="edge">
<title>Node6&#45;&gt;Node12</title>
<g id="a_edge12_Node000012_Node000006"><a xlink:title=" ">
<path fill="none" stroke="#63b8ff" d="M303.3,-369.36C365.81,-363.84 483.49,-353.47 543.02,-348.22"/>
<polygon fill="#63b8ff" stroke="#63b8ff" points="302.68,-365.9 293.02,-370.26 303.29,-372.87 302.68,-365.9"/>
</a>
</g>
</g>
<!-- Node7 -->
<g id="Node000007" class="node">
<title>Node7</title>
<g id="a_Node000007"><a xlink:href="../../d9/d45/class_q_c_string.html" target="_top" xlink:title="This is an alternative implementation of QCString.">
<polygon fill="white" stroke="#666666" points="290.5,-203.5 231.5,-203.5 231.5,-184.5 290.5,-184.5 290.5,-203.5"/>
<text text-anchor="middle" x="261" y="-191.5" font-family="Helvetica,sans-Serif" font-size="10.00">QCString</text>
</a>
</g>
</g>
<!-- Node7&#45;&gt;Node5 -->
<g id="edge6_Node000005_Node000007" class="edge">
<title>Node7&#45;&gt;Node5</title>
<g id="a_edge6_Node000005_Node000007"><a xlink:title=" ">
<path fill="none" stroke="#9a32cd" stroke-dasharray="5,2" d="M294.53,-207.08C313.57,-214.08 338.27,-222.05 361,-226 503.35,-250.71 674.8,-246.99 758.69,-243.05"/>
<polygon fill="#9a32cd" stroke="#9a32cd" points="295.73,-203.79 285.13,-203.53 293.25,-210.34 295.73,-203.79"/>
</a>
</g>
<text text-anchor="middle" x="580.5" y="-314" font-family="Helvetica,sans-Serif" font-size="10.00" fill="grey"> context</text>
<text text-anchor="middle" x="580.5" y="-303" font-family="Helvetica,sans-Serif" font-size="10.00" fill="grey">exampleName</text>
<text text-anchor="middle" x="580.5" y="-292" font-family="Helvetica,sans-Serif" font-size="10.00" fill="grey">fileName</text>
<text text-anchor="middle" x="580.5" y="-281" font-family="Helvetica,sans-Serif" font-size="10.00" fill="grey">includeFileName</text>
<text text-anchor="middle" x="580.5" y="-270" font-family="Helvetica,sans-Serif" font-size="10.00" fill="grey">includeFileText</text>
<text text-anchor="middle" x="580.5" y="-259" font-family="Helvetica,sans-Serif" font-size="10.00" fill="grey">relPath</text>
<text text-anchor="middle" x="580.5" y="-248" font-family="Helvetica,sans-Serif" font-size="10.00" fill="grey">searchUrl</text>
</g>
<!-- Node13 -->
<g id="Node000013" class="node">
<title>Node13</title>
<g id="a_Node000013"><a xlink:href="../../d6/df4/struct_token_info.html" target="_top" xlink:title="Data associated with a token used by the comment block parser.">
<polygon fill="white" stroke="#666666" points="612,-146.5 549,-146.5 549,-127.5 612,-127.5 612,-146.5"/>
<text text-anchor="middle" x="580.5" y="-134.5" font-family="Helvetica,sans-Serif" font-size="10.00">TokenInfo</text>
</a>
</g>
</g>
<!-- Node7&#45;&gt;Node13 -->
<g id="edge14_Node000013_Node000007" class="edge">
<title>Node7&#45;&gt;Node13</title>
<g id="a_edge14_Node000013_Node000007"><a xlink:title=" ">
<path fill="none" stroke="#9a32cd" stroke-dasharray="5,2" d="M282.43,-178.27C301.55,-164.62 331.51,-145.84 361,-138 426.08,-120.71 505.95,-126.92 548.82,-132.35"/>
<polygon fill="#9a32cd" stroke="#9a32cd" points="280.2,-175.57 274.21,-184.31 284.34,-181.21 280.2,-175.57"/>
</a>
</g>
<text text-anchor="middle" x="432" y="-218" font-family="Helvetica,sans-Serif" font-size="10.00" fill="grey"> attribsStr</text>
<text text-anchor="middle" x="432" y="-207" font-family="Helvetica,sans-Serif" font-size="10.00" fill="grey">chars</text>
<text text-anchor="middle" x="432" y="-196" font-family="Helvetica,sans-Serif" font-size="10.00" fill="grey">name</text>
<text text-anchor="middle" x="432" y="-185" font-family="Helvetica,sans-Serif" font-size="10.00" fill="grey">sectionId</text>
<text text-anchor="middle" x="432" y="-174" font-family="Helvetica,sans-Serif" font-size="10.00" fill="grey">simpleSectName</text>
<text text-anchor="middle" x="432" y="-163" font-family="Helvetica,sans-Serif" font-size="10.00" fill="grey">simpleSectText</text>
<text text-anchor="middle" x="432" y="-152" font-family="Helvetica,sans-Serif" font-size="10.00" fill="grey">text</text>
<text text-anchor="middle" x="432" y="-141" font-family="Helvetica,sans-Serif" font-size="10.00" fill="grey">verb</text>
</g>
<!-- Node8 -->
<g id="Node000008" class="node">
<title>Node8</title>
<g id="a_Node000008"><a xlink:href="../../d9/d82/class_iterable_stack.html" target="_top" xlink:title=" ">
<polygon fill="white" stroke="#666666" points="640,-78 521,-78 521,-48 640,-48 640,-78"/>
<text text-anchor="start" x="529" y="-66" font-family="Helvetica,sans-Serif" font-size="10.00">IterableStack&lt; const</text>
<text text-anchor="middle" x="580.5" y="-55" font-family="Helvetica,sans-Serif" font-size="10.00"> DocNodeVariant * &gt;</text>
</a>
</g>
</g>
<!-- Node8&#45;&gt;Node5 -->
<g id="edge7_Node000005_Node000008" class="edge">
<title>Node8&#45;&gt;Node5</title>
<g id="a_edge7_Node000005_Node000008"><a xlink:title=" ">
<path fill="none" stroke="#9a32cd" stroke-dasharray="5,2" d="M638.75,-81.76C673.21,-95.88 715.25,-118.6 741,-152 760.61,-177.44 737.3,-198.31 759,-222 762.11,-225.39 765.89,-228.15 769.99,-230.38"/>
<polygon fill="#9a32cd" stroke="#9a32cd" points="639.84,-78.43 629.25,-78.01 637.26,-84.94 639.84,-78.43"/>
</a>
</g>
<text text-anchor="middle" x="699.5" y="-166" font-family="Helvetica,sans-Serif" font-size="10.00" fill="grey"> initialStyleStack</text>
<text text-anchor="middle" x="699.5" y="-155" font-family="Helvetica,sans-Serif" font-size="10.00" fill="grey">styleStack</text>
</g>
<!-- Node9 -->
<g id="Node000009" class="node">
<title>Node9</title>
<g id="a_Node000009"><a xlink:title=" ">
<polygon fill="white" stroke="#666666" points="343,-83.5 179,-83.5 179,-42.5 343,-42.5 343,-83.5"/>
<text text-anchor="start" x="187" y="-71.5" font-family="Helvetica,sans-Serif" font-size="10.00">std::stack&lt; const DocNode</text>
<text text-anchor="start" x="187" y="-60.5" font-family="Helvetica,sans-Serif" font-size="10.00">Variant * , std::deque</text>
<text text-anchor="middle" x="261" y="-49.5" font-family="Helvetica,sans-Serif" font-size="10.00">&lt;const DocNodeVariant * &gt; &gt;</text>
</a>
</g>
</g>
<!-- Node9&#45;&gt;Node8 -->
<g id="edge8_Node000008_Node000009" class="edge">
<title>Node9&#45;&gt;Node8</title>
<g id="a_edge8_Node000008_Node000009"><a xlink:title=" ">
<path fill="none" stroke="#63b8ff" d="M353.61,-63C407.5,-63 474.05,-63 520.91,-63"/>
<polygon fill="#63b8ff" stroke="#63b8ff" points="353.35,-59.5 343.35,-63 353.35,-66.5 353.35,-59.5"/>
</a>
</g>
</g>
<!-- Node10 -->
<g id="Node000010" class="node">
<title>Node10</title>
<g id="a_Node000010"><a xlink:href="../../d9/d82/class_iterable_stack.html" target="_top" xlink:title=" ">
<polygon fill="white" stroke="#666666" points="342.5,-24.5 179.5,-24.5 179.5,-5.5 342.5,-5.5 342.5,-24.5"/>
<text text-anchor="middle" x="261" y="-12.5" font-family="Helvetica,sans-Serif" font-size="10.00">IterableStack&lt; T, Container &gt;</text>
</a>
</g>
</g>
<!-- Node10&#45;&gt;Node8 -->
<g id="edge9_Node000008_Node000010" class="edge">
<title>Node10&#45;&gt;Node8</title>
<g id="a_edge9_Node000008_Node000010"><a xlink:title=" ">
<path fill="none" stroke="orange" stroke-dasharray="5,2" d="M350.22,-25.84C395.91,-31.77 452.56,-39.61 503,-48 508.74,-48.96 514.71,-50.01 520.67,-51.11"/>
<polygon fill="orange" stroke="orange" points="350.41,-22.34 340.05,-24.53 349.52,-29.28 350.41,-22.34"/>
</a>
</g>
<text text-anchor="middle" x="432" y="-51" font-family="Helvetica,sans-Serif" font-size="10.00" fill="grey"> &lt; const DocNodeVariant * &gt;</text>
</g>
<!-- Node11 -->
<g id="Node000011" class="node">
<title>Node11</title>
<g id="a_Node000011"><a xlink:title=" ">
<polygon fill="white" stroke="#666666" points="122,-30 20,-30 20,0 122,0 122,-30"/>
<text text-anchor="start" x="28" y="-18" font-family="Helvetica,sans-Serif" font-size="10.00">std::stack&lt; T, std</text>
<text text-anchor="middle" x="71" y="-7" font-family="Helvetica,sans-Serif" font-size="10.00">::deque&lt; T &gt; &gt;</text>
</a>
</g>
</g>
<!-- Node11&#45;&gt;Node10 -->
<g id="edge10_Node000010_Node000011" class="edge">
<title>Node11&#45;&gt;Node10</title>
<g id="a_edge10_Node000010_Node000011"><a xlink:title=" ">
<path fill="none" stroke="#63b8ff" d="M132.48,-15C147.4,-15 163.62,-15 179.34,-15"/>
<polygon fill="#63b8ff" stroke="#63b8ff" points="132.38,-11.5 122.38,-15 132.38,-18.5 132.38,-11.5"/>
</a>
</g>
</g>
<!-- Node12&#45;&gt;Node5 -->
<g id="edge11_Node000005_Node000012" class="edge">
<title>Node12&#45;&gt;Node5</title>
<g id="a_edge11_Node000005_Node000012"><a xlink:title=" ">
<path fill="none" stroke="#9a32cd" stroke-dasharray="5,2" d="M615.69,-331.58C623.73,-328.26 632.21,-324.62 640,-321 694.09,-295.88 704.51,-283.23 759,-259 766.51,-255.66 774.81,-252.4 782.49,-249.54"/>
<polygon fill="#9a32cd" stroke="#9a32cd" points="614.14,-328.44 606.19,-335.45 616.77,-334.92 614.14,-328.44"/>
</a>
</g>
<text text-anchor="middle" x="699.5" y="-314" font-family="Helvetica,sans-Serif" font-size="10.00" fill="grey"> memberDef</text>
</g>
<!-- Node13&#45;&gt;Node5 -->
<g id="edge13_Node000005_Node000013" class="edge">
<title>Node13&#45;&gt;Node5</title>
<g id="a_edge13_Node000005_Node000013"><a xlink:title=" ">
<path fill="none" stroke="#9a32cd" stroke-dasharray="5,2" d="M608.85,-151.23C643.36,-168.92 704.76,-199.52 759,-222 766.11,-224.95 773.9,-227.85 781.2,-230.44"/>
<polygon fill="#9a32cd" stroke="#9a32cd" points="610.35,-148.07 599.86,-146.6 607.15,-154.29 610.35,-148.07"/>
</a>
</g>
<text text-anchor="middle" x="699.5" y="-216" font-family="Helvetica,sans-Serif" font-size="10.00" fill="grey"> token</text>
</g>
<!-- Node14 -->
<g id="Node000014" class="node">
<title>Node14</title>
<g id="a_Node000014"><a xlink:href="../../db/d4d/class_html_attrib_list.html" target="_top" xlink:title="Class representing a list of HTML attributes.">
<polygon fill="white" stroke="#666666" points="303.5,-120.5 218.5,-120.5 218.5,-101.5 303.5,-101.5 303.5,-120.5"/>
<text text-anchor="middle" x="261" y="-108.5" font-family="Helvetica,sans-Serif" font-size="10.00">HtmlAttribList</text>
</a>
</g>
</g>
<!-- Node14&#45;&gt;Node13 -->
<g id="edge15_Node000013_Node000014" class="edge">
<title>Node14&#45;&gt;Node13</title>
<g id="a_edge15_Node000013_Node000014"><a xlink:title=" ">
<path fill="none" stroke="#9a32cd" stroke-dasharray="5,2" d="M313.96,-102.63C363.18,-96.31 438.9,-90.76 503,-104 524.67,-108.48 547.77,-119.39 562.84,-127.45"/>
<polygon fill="#9a32cd" stroke="#9a32cd" points="313.32,-99.19 303.87,-103.99 314.25,-106.12 313.32,-99.19"/>
</a>
</g>
<text text-anchor="middle" x="432" y="-107" font-family="Helvetica,sans-Serif" font-size="10.00" fill="grey"> attribs</text>
</g>
<!-- Node15 -->
<g id="Node000015" class="node">
<title>Node15</title>
<g id="a_Node000015"><a xlink:title=" ">
<polygon fill="white" stroke="#666666" points="142,-120.5 0,-120.5 0,-101.5 142,-101.5 142,-120.5"/>
<text text-anchor="middle" x="71" y="-108.5" font-family="Helvetica,sans-Serif" font-size="10.00">std::vector&lt; HtmlAttrib &gt;</text>
</a>
</g>
</g>
<!-- Node15&#45;&gt;Node14 -->
<g id="edge16_Node000014_Node000015" class="edge">
<title>Node15&#45;&gt;Node14</title>
<g id="a_edge16_Node000014_Node000015"><a xlink:title=" ">
<path fill="none" stroke="#63b8ff" d="M152.05,-111C174.87,-111 198.82,-111 218.34,-111"/>
<polygon fill="#63b8ff" stroke="#63b8ff" points="152,-107.5 142,-111 152,-114.5 152,-107.5"/>
</a>
</g>
</g>
<!-- Node16 -->
<g id="Node000016" class="node">
<title>Node16</title>
<g id="a_Node000016"><a xlink:href="../../d1/d7f/class_doc_tokenizer.html" target="_top" xlink:title=" ">
<polygon fill="white" stroke="#666666" points="851.5,-212.5 770.5,-212.5 770.5,-193.5 851.5,-193.5 851.5,-212.5"/>
<text text-anchor="middle" x="811" y="-200.5" font-family="Helvetica,sans-Serif" font-size="10.00">DocTokenizer</text>
</a>
</g>
</g>
<!-- Node16&#45;&gt;Node3 -->
<g id="edge17_Node000003_Node000016" class="edge">
<title>Node16&#45;&gt;Node3</title>
<g id="a_edge17_Node000003_Node000016"><a xlink:title=" ">
<path fill="none" stroke="#9a32cd" stroke-dasharray="5,2" d="M862.14,-208.74C896.92,-212.8 944.31,-218.48 986,-224 1010.23,-227.21 1037.59,-231.17 1058.16,-234.21"/>
<polygon fill="#9a32cd" stroke="#9a32cd" points="862.11,-205.21 851.77,-207.53 861.3,-212.17 862.11,-205.21"/>
</a>
</g>
<text text-anchor="middle" x="933.5" y="-227" font-family="Helvetica,sans-Serif" font-size="10.00" fill="grey"> tokenizer</text>
</g>
<!-- Node17 -->
<g id="Node000017" class="node">
<title>Node17</title>
<g id="a_Node000017"><a xlink:href="../../d9/dd3/struct_doc_node_list.html" target="_top" xlink:title=" ">
<polygon fill="white" stroke="#666666" points="1341,-194.5 1263,-194.5 1263,-175.5 1341,-175.5 1341,-194.5"/>
<text text-anchor="middle" x="1302" y="-182.5" font-family="Helvetica,sans-Serif" font-size="10.00">DocNodeList</text>
</a>
</g>
</g>
<!-- Node17&#45;&gt;Node1 -->
<g id="edge18_Node000001_Node000017" class="edge">
<title>Node17&#45;&gt;Node1</title>
<g id="a_edge18_Node000001_Node000017"><a xlink:title=" ">
<path fill="none" stroke="#9a32cd" stroke-dasharray="5,2" d="M1351.56,-181.3C1376.47,-180.52 1407.14,-181.29 1434,-187 1448.48,-190.08 1463.83,-196.78 1475.17,-202.48"/>
<polygon fill="#9a32cd" stroke="#9a32cd" points="1351.12,-177.82 1341.27,-181.72 1351.41,-184.81 1351.12,-177.82"/>
</a>
</g>
<text text-anchor="middle" x="1396.5" y="-212" font-family="Helvetica,sans-Serif" font-size="10.00" fill="grey"> m_paragraphs</text>
<text text-anchor="middle" x="1396.5" y="-201" font-family="Helvetica,sans-Serif" font-size="10.00" fill="grey">m_paramTypes</text>
<text text-anchor="middle" x="1396.5" y="-190" font-family="Helvetica,sans-Serif" font-size="10.00" fill="grey">m_params</text>
</g>
<!-- Node18 -->
<g id="Node000018" class="node">
<title>Node18</title>
<g id="a_Node000018"><a xlink:href="../../d0/d08/class_grow_vector.html" target="_top" xlink:title=" ">
<polygon fill="white" stroke="#666666" points="1178,-175.5 1004,-175.5 1004,-156.5 1178,-156.5 1178,-175.5"/>
<text text-anchor="middle" x="1091" y="-163.5" font-family="Helvetica,sans-Serif" font-size="10.00">GrowVector&lt; DocNodeVariant &gt;</text>
</a>
</g>
</g>
<!-- Node18&#45;&gt;Node17 -->
<g id="edge19_Node000017_Node000018" class="edge">
<title>Node18&#45;&gt;Node17</title>
<g id="a_edge19_Node000017_Node000018"><a xlink:title=" ">
<path fill="none" stroke="#63b8ff" d="M1188.29,-174.75C1214.7,-177.15 1241.82,-179.62 1262.84,-181.53"/>
<polygon fill="#63b8ff" stroke="#63b8ff" points="1188.49,-171.26 1178.21,-173.84 1187.86,-178.23 1188.49,-171.26"/>
</a>
</g>
</g>
<!-- Node19 -->
<g id="Node000019" class="node">
<title>Node19</title>
<g id="a_Node000019"><a xlink:href="../../d0/d08/class_grow_vector.html" target="_top" xlink:title="std::vector like container optimised for pushing elements to the back.">
<polygon fill="white" stroke="#666666" points="861.5,-175.5 760.5,-175.5 760.5,-156.5 861.5,-156.5 861.5,-175.5"/>
<text text-anchor="middle" x="811" y="-163.5" font-family="Helvetica,sans-Serif" font-size="10.00">GrowVector&lt; T &gt;</text>
</a>
</g>
</g>
<!-- Node19&#45;&gt;Node18 -->
<g id="edge20_Node000018_Node000019" class="edge">
<title>Node19&#45;&gt;Node18</title>
<g id="a_edge20_Node000018_Node000019"><a xlink:title=" ">
<path fill="none" stroke="orange" stroke-dasharray="5,2" d="M871.73,-166C910.27,-166 961.03,-166 1003.9,-166"/>
<polygon fill="orange" stroke="orange" points="871.7,-162.5 861.7,-166 871.7,-169.5 871.7,-162.5"/>
</a>
</g>
<text text-anchor="middle" x="933.5" y="-169" font-family="Helvetica,sans-Serif" font-size="10.00" fill="grey"> &lt; DocNodeVariant &gt;</text>
</g>
</g>
</svg>
