<?xml version="1.0" encoding="UTF-8" standalone="no"?>
<!DOCTYPE svg PUBLIC "-//W3C//DTD SVG 1.1//EN"
 "http://www.w3.org/Graphics/SVG/1.1/DTD/svg11.dtd">
<!-- Generated by graphviz version 2.43.0 (0)
 -->
<!-- Title: /home/runner/work/doxygen/doxygen/src/docbookgen.h Pages: 1 -->
<svg width="6629pt" height="170pt"
 viewBox="0.00 0.00 6628.50 170.00" xmlns="http://www.w3.org/2000/svg" xmlns:xlink="http://www.w3.org/1999/xlink">
<g id="graph0" class="graph" transform="scale(1 1) rotate(0) translate(4 166)">
<title>/home/runner/work/doxygen/doxygen/src/docbookgen.h</title>
<!-- Node1 -->
<g id="Node000001" class="node">
<title>Node1</title>
<g id="a_Node000001"><a xlink:title=" ">
<polygon fill="#999999" stroke="#666666" points="2443.5,-162 2289.5,-162 2289.5,-132 2443.5,-132 2443.5,-162"/>
<text text-anchor="start" x="2297.5" y="-150" font-family="Helvetica,sans-Serif" font-size="10.00">/home/runner/work/doxygen</text>
<text text-anchor="middle" x="2366.5" y="-139" font-family="Helvetica,sans-Serif" font-size="10.00">/doxygen/src/docbookgen.h</text>
</a>
</g>
</g>
<!-- Node2 -->
<g id="Node000002" class="node">
<title>Node2</title>
<g id="a_Node000002"><a xlink:href="../../d8/d29/docbookgen_8cpp.html" target="_top" xlink:title=" ">
<polygon fill="white" stroke="#666666" points="161,-30 0,-30 0,0 161,0 161,-30"/>
<text text-anchor="start" x="8" y="-18" font-family="Helvetica,sans-Serif" font-size="10.00">/home/runner/work/doxygen</text>
<text text-anchor="middle" x="80.5" y="-7" font-family="Helvetica,sans-Serif" font-size="10.00">/doxygen/src/docbookgen.cpp</text>
</a>
</g>
</g>
<!-- Node1&#45;&gt;Node2 -->
<g id="edge1_Node000001_Node000002" class="edge">
<title>Node1&#45;&gt;Node2</title>
<g id="a_edge1_Node000001_Node000002"><a xlink:title=" ">
<path fill="none" stroke="#63b8ff" d="M2279.08,-144.56C2054.43,-140.51 1438.6,-127.22 926.5,-96 589.85,-75.47 505.32,-70.61 170.5,-30 167.52,-29.64 164.48,-29.25 161.42,-28.85"/>
<polygon fill="#63b8ff" stroke="#63b8ff" points="2279.1,-148.06 2289.16,-144.74 2279.23,-141.06 2279.1,-148.06"/>
</a>
</g>
</g>
<!-- Node3 -->
<g id="Node000003" class="node">
<title>Node3</title>
<g id="a_Node000003"><a xlink:href="../../dc/d05/docbookvisitor_8cpp.html" target="_top" xlink:title=" ">
<polygon fill="white" stroke="#666666" points="3431,-96 3258,-96 3258,-66 3431,-66 3431,-96"/>
<text text-anchor="start" x="3266" y="-84" font-family="Helvetica,sans-Serif" font-size="10.00">/home/runner/work/doxygen</text>
<text text-anchor="middle" x="3344.5" y="-73" font-family="Helvetica,sans-Serif" font-size="10.00">/doxygen/src/docbookvisitor.cpp</text>
</a>
</g>
</g>
<!-- Node1&#45;&gt;Node3 -->
<g id="edge2_Node000001_Node000003" class="edge">
<title>Node1&#45;&gt;Node3</title>
<g id="a_edge2_Node000001_Node000003"><a xlink:title=" ">
<path fill="none" stroke="#63b8ff" d="M2453.83,-143.6C2612.44,-138.68 2958.27,-125.33 3248.5,-96 3251.6,-95.69 3254.75,-95.35 3257.94,-94.98"/>
<polygon fill="#63b8ff" stroke="#63b8ff" points="2453.55,-140.11 2443.66,-143.91 2453.76,-147.11 2453.55,-140.11"/>
</a>
</g>
</g>
<!-- Node4 -->
<g id="Node000004" class="node">
<title>Node4</title>
<g id="a_Node000004"><a xlink:href="../../dc/d98/doxygen_8cpp.html" target="_top" xlink:title=" ">
<polygon fill="white" stroke="#666666" points="333.5,-30 179.5,-30 179.5,0 333.5,0 333.5,-30"/>
<text text-anchor="start" x="187.5" y="-18" font-family="Helvetica,sans-Serif" font-size="10.00">/home/runner/work/doxygen</text>
<text text-anchor="middle" x="256.5" y="-7" font-family="Helvetica,sans-Serif" font-size="10.00">/doxygen/src/doxygen.cpp</text>
</a>
</g>
</g>
<!-- Node1&#45;&gt;Node4 -->
<g id="edge3_Node000001_Node000004" class="edge">
<title>Node1&#45;&gt;Node4</title>
<g id="a_edge3_Node000001_Node000004"><a xlink:title=" ">
<path fill="none" stroke="#63b8ff" d="M2279.11,-141.53C1916.04,-122.89 536.67,-51.31 342.5,-30 339.64,-29.69 336.74,-29.34 333.8,-28.97"/>
<polygon fill="#63b8ff" stroke="#63b8ff" points="2279.13,-145.04 2289.3,-142.05 2279.49,-138.05 2279.13,-145.04"/>
</a>
</g>
</g>
<!-- Node5 -->
<g id="Node000005" class="node">
<title>Node5</title>
<g id="a_Node000005"><a xlink:href="../../d2/db9/outputlist_8h.html" target="_top" xlink:title=" ">
<polygon fill="white" stroke="#666666" points="3239.5,-96 3085.5,-96 3085.5,-66 3239.5,-66 3239.5,-96"/>
<text text-anchor="start" x="3093.5" y="-84" font-family="Helvetica,sans-Serif" font-size="10.00">/home/runner/work/doxygen</text>
<text text-anchor="middle" x="3162.5" y="-73" font-family="Helvetica,sans-Serif" font-size="10.00">/doxygen/src/outputlist.h</text>
</a>
</g>
</g>
<!-- Node1&#45;&gt;Node5 -->
<g id="edge4_Node000001_Node000005" class="edge">
<title>Node1&#45;&gt;Node5</title>
<g id="a_edge4_Node000001_Node000005"><a xlink:title=" ">
<path fill="none" stroke="#63b8ff" d="M2453.61,-139C2610.13,-126.41 2936.48,-100.17 3085.41,-88.2"/>
<polygon fill="#63b8ff" stroke="#63b8ff" points="2453.23,-135.51 2443.55,-139.81 2453.8,-142.49 2453.23,-135.51"/>
</a>
</g>
</g>
<!-- Node5&#45;&gt;Node2 -->
<g id="edge12_Node000005_Node000002" class="edge">
<title>Node5&#45;&gt;Node2</title>
<g id="a_edge12_Node000005_Node000002"><a xlink:title=" ">
<path fill="none" stroke="#63b8ff" d="M3075.31,-80.16C2646.28,-80.72 756.47,-80.23 170.5,-30 167.51,-29.74 164.46,-29.45 161.39,-29.12"/>
<polygon fill="#63b8ff" stroke="#63b8ff" points="3075.48,-83.66 3085.48,-80.15 3075.47,-76.66 3075.48,-83.66"/>
</a>
</g>
</g>
<!-- Node5&#45;&gt;Node4 -->
<g id="edge13_Node000005_Node000004" class="edge">
<title>Node5&#45;&gt;Node4</title>
<g id="a_edge13_Node000005_Node000004"><a xlink:title=" ">
<path fill="none" stroke="#63b8ff" d="M3075.3,-80.14C2661.41,-80.56 892.35,-79.37 342.5,-30 339.64,-29.74 336.73,-29.45 333.79,-29.12"/>
<polygon fill="#63b8ff" stroke="#63b8ff" points="3075.41,-83.64 3085.41,-80.13 3075.4,-76.64 3075.41,-83.64"/>
</a>
</g>
</g>
<!-- Node6 -->
<g id="Node000006" class="node">
<title>Node6</title>
<g id="a_Node000006"><a xlink:href="../../de/d89/classdef_8cpp.html" target="_top" xlink:title=" ">
<polygon fill="white" stroke="#666666" points="5758.5,-30 5604.5,-30 5604.5,0 5758.5,0 5758.5,-30"/>
<text text-anchor="start" x="5612.5" y="-18" font-family="Helvetica,sans-Serif" font-size="10.00">/home/runner/work/doxygen</text>
<text text-anchor="middle" x="5681.5" y="-7" font-family="Helvetica,sans-Serif" font-size="10.00">/doxygen/src/classdef.cpp</text>
</a>
</g>
</g>
<!-- Node5&#45;&gt;Node6 -->
<g id="edge5_Node000005_Node000006" class="edge">
<title>Node5&#45;&gt;Node6</title>
<g id="a_edge5_Node000005_Node000006"><a xlink:title=" ">
<path fill="none" stroke="#63b8ff" d="M3250.09,-66.07C4290.08,24.11 4560.2,-121.72 5595.5,-30 5598.36,-29.75 5601.27,-29.45 5604.21,-29.13"/>
<polygon fill="#63b8ff" stroke="#63b8ff" points="3249.41,-62.62 3239.75,-66.98 3250.02,-69.59 3249.41,-62.62"/>
</a>
</g>
</g>
<!-- Node7 -->
<g id="Node000007" class="node">
<title>Node7</title>
<g id="a_Node000007"><a xlink:href="../../d6/d10/classlist_8cpp.html" target="_top" xlink:title=" ">
<polygon fill="white" stroke="#666666" points="5930.5,-30 5776.5,-30 5776.5,0 5930.5,0 5930.5,-30"/>
<text text-anchor="start" x="5784.5" y="-18" font-family="Helvetica,sans-Serif" font-size="10.00">/home/runner/work/doxygen</text>
<text text-anchor="middle" x="5853.5" y="-7" font-family="Helvetica,sans-Serif" font-size="10.00">/doxygen/src/classlist.cpp</text>
</a>
</g>
</g>
<!-- Node5&#45;&gt;Node7 -->
<g id="edge6_Node000005_Node000007" class="edge">
<title>Node5&#45;&gt;Node7</title>
<g id="a_edge6_Node000005_Node000007"><a xlink:title=" ">
<path fill="none" stroke="#63b8ff" d="M3250.02,-66.08C4366.27,30.19 4655.99,-127.88 5767.5,-30 5770.36,-29.75 5773.27,-29.46 5776.21,-29.13"/>
<polygon fill="#63b8ff" stroke="#63b8ff" points="3249.41,-62.62 3239.75,-66.97 3250.01,-69.59 3249.41,-62.62"/>
</a>
</g>
</g>
<!-- Node8 -->
<g id="Node000008" class="node">
<title>Node8</title>
<g id="a_Node000008"><a xlink:href="../../da/d1f/code_8l.html" target="_top" xlink:title=" ">
<polygon fill="white" stroke="#666666" points="6102.5,-30 5948.5,-30 5948.5,0 6102.5,0 6102.5,-30"/>
<text text-anchor="start" x="5956.5" y="-18" font-family="Helvetica,sans-Serif" font-size="10.00">/home/runner/work/doxygen</text>
<text text-anchor="middle" x="6025.5" y="-7" font-family="Helvetica,sans-Serif" font-size="10.00">/doxygen/src/code.l</text>
</a>
</g>
</g>
<!-- Node5&#45;&gt;Node8 -->
<g id="edge7_Node000005_Node000008" class="edge">
<title>Node5&#45;&gt;Node8</title>
<g id="a_edge7_Node000005_Node000008"><a xlink:title=" ">
<path fill="none" stroke="#63b8ff" d="M3249.84,-66.1C4442.43,36.3 4751.74,-134.05 5939.5,-30 5942.36,-29.75 5945.28,-29.46 5948.21,-29.14"/>
<polygon fill="#63b8ff" stroke="#63b8ff" points="3249.41,-62.62 3239.75,-66.97 3250.01,-69.6 3249.41,-62.62"/>
</a>
</g>
</g>
<!-- Node9 -->
<g id="Node000009" class="node">
<title>Node9</title>
<g id="a_Node000009"><a xlink:href="../../d8/d0a/conceptdef_8cpp.html" target="_top" xlink:title=" ">
<polygon fill="white" stroke="#666666" points="6276,-30 6121,-30 6121,0 6276,0 6276,-30"/>
<text text-anchor="start" x="6129" y="-18" font-family="Helvetica,sans-Serif" font-size="10.00">/home/runner/work/doxygen</text>
<text text-anchor="middle" x="6198.5" y="-7" font-family="Helvetica,sans-Serif" font-size="10.00">/doxygen/src/conceptdef.cpp</text>
</a>
</g>
</g>
<!-- Node5&#45;&gt;Node9 -->
<g id="edge8_Node000005_Node000009" class="edge">
<title>Node5&#45;&gt;Node9</title>
<g id="a_edge8_Node000005_Node000009"><a xlink:title=" ">
<path fill="none" stroke="#63b8ff" d="M3249.72,-66.12C3899.52,-12.07 5481.05,-84.39 6111.5,-30 6114.55,-29.74 6117.65,-29.43 6120.78,-29.09"/>
<polygon fill="#63b8ff" stroke="#63b8ff" points="3249.42,-62.63 3239.75,-66.97 3250.01,-69.61 3249.42,-62.63"/>
</a>
</g>
</g>
<!-- Node10 -->
<g id="Node000010" class="node">
<title>Node10</title>
<g id="a_Node000010"><a xlink:href="../../db/d12/context_8cpp.html" target="_top" xlink:title=" ">
<polygon fill="white" stroke="#666666" points="6448.5,-30 6294.5,-30 6294.5,0 6448.5,0 6448.5,-30"/>
<text text-anchor="start" x="6302.5" y="-18" font-family="Helvetica,sans-Serif" font-size="10.00">/home/runner/work/doxygen</text>
<text text-anchor="middle" x="6371.5" y="-7" font-family="Helvetica,sans-Serif" font-size="10.00">/doxygen/src/context.cpp</text>
</a>
</g>
</g>
<!-- Node5&#45;&gt;Node10 -->
<g id="edge9_Node000005_Node000010" class="edge">
<title>Node5&#45;&gt;Node10</title>
<g id="a_edge9_Node000005_Node000010"><a xlink:title=" ">
<path fill="none" stroke="#63b8ff" d="M3249.81,-66.11C3938.23,-9.02 5616.6,-88.08 6285.5,-30 6288.36,-29.75 6291.28,-29.46 6294.21,-29.14"/>
<polygon fill="#63b8ff" stroke="#63b8ff" points="3249.42,-62.63 3239.75,-66.96 3250.01,-69.61 3249.42,-62.63"/>
</a>
</g>
</g>
<!-- Node11 -->
<g id="Node000011" class="node">
<title>Node11</title>
<g id="a_Node000011"><a xlink:href="../../d3/dea/definition_8cpp.html" target="_top" xlink:title=" ">
<polygon fill="white" stroke="#666666" points="6620.5,-30 6466.5,-30 6466.5,0 6620.5,0 6620.5,-30"/>
<text text-anchor="start" x="6474.5" y="-18" font-family="Helvetica,sans-Serif" font-size="10.00">/home/runner/work/doxygen</text>
<text text-anchor="middle" x="6543.5" y="-7" font-family="Helvetica,sans-Serif" font-size="10.00">/doxygen/src/definition.cpp</text>
</a>
</g>
</g>
<!-- Node5&#45;&gt;Node11 -->
<g id="edge10_Node000005_Node000011" class="edge">
<title>Node5&#45;&gt;Node11</title>
<g id="a_edge10_Node000005_Node000011"><a xlink:title=" ">
<path fill="none" stroke="#63b8ff" d="M3249.84,-66.11C3976.4,-6 5750.51,-91.16 6457.5,-30 6460.36,-29.75 6463.28,-29.46 6466.21,-29.14"/>
<polygon fill="#63b8ff" stroke="#63b8ff" points="3249.42,-62.63 3239.75,-66.96 3250.01,-69.61 3249.42,-62.63"/>
</a>
</g>
</g>
<!-- Node12 -->
<g id="Node000012" class="node">
<title>Node12</title>
<g id="a_Node000012"><a xlink:href="../../d8/d52/dirdef_8cpp.html" target="_top" xlink:title=" ">
<polygon fill="white" stroke="#666666" points="505.5,-30 351.5,-30 351.5,0 505.5,0 505.5,-30"/>
<text text-anchor="start" x="359.5" y="-18" font-family="Helvetica,sans-Serif" font-size="10.00">/home/runner/work/doxygen</text>
<text text-anchor="middle" x="428.5" y="-7" font-family="Helvetica,sans-Serif" font-size="10.00">/doxygen/src/dirdef.cpp</text>
</a>
</g>
</g>
<!-- Node5&#45;&gt;Node12 -->
<g id="edge11_Node000005_Node000012" class="edge">
<title>Node5&#45;&gt;Node12</title>
<g id="a_edge11_Node000005_Node000012"><a xlink:title=" ">
<path fill="none" stroke="#63b8ff" d="M3075.45,-80.03C2677.48,-79.88 1028.54,-76.46 514.5,-30 511.64,-29.74 508.73,-29.44 505.79,-29.11"/>
<polygon fill="#63b8ff" stroke="#63b8ff" points="3075.46,-83.53 3085.46,-80.03 3075.46,-76.53 3075.46,-83.53"/>
</a>
</g>
</g>
<!-- Node13 -->
<g id="Node000013" class="node">
<title>Node13</title>
<g id="a_Node000013"><a xlink:href="../../d6/ddc/filedef_8cpp.html" target="_top" xlink:title=" ">
<polygon fill="white" stroke="#666666" points="677.5,-30 523.5,-30 523.5,0 677.5,0 677.5,-30"/>
<text text-anchor="start" x="531.5" y="-18" font-family="Helvetica,sans-Serif" font-size="10.00">/home/runner/work/doxygen</text>
<text text-anchor="middle" x="600.5" y="-7" font-family="Helvetica,sans-Serif" font-size="10.00">/doxygen/src/filedef.cpp</text>
</a>
</g>
</g>
<!-- Node5&#45;&gt;Node13 -->
<g id="edge14_Node000005_Node000013" class="edge">
<title>Node5&#45;&gt;Node13</title>
<g id="a_edge14_Node000005_Node000013"><a xlink:title=" ">
<path fill="none" stroke="#63b8ff" d="M3075.23,-79.89C2693.02,-79.16 1164.64,-73.53 686.5,-30 683.64,-29.74 680.73,-29.44 677.79,-29.11"/>
<polygon fill="#63b8ff" stroke="#63b8ff" points="3075.38,-83.39 3085.39,-79.91 3075.4,-76.39 3075.38,-83.39"/>
</a>
</g>
</g>
<!-- Node14 -->
<g id="Node000014" class="node">
<title>Node14</title>
<g id="a_Node000014"><a xlink:href="../../d9/d74/fileparser_8cpp.html" target="_top" xlink:title=" ">
<polygon fill="white" stroke="#666666" points="849.5,-30 695.5,-30 695.5,0 849.5,0 849.5,-30"/>
<text text-anchor="start" x="703.5" y="-18" font-family="Helvetica,sans-Serif" font-size="10.00">/home/runner/work/doxygen</text>
<text text-anchor="middle" x="772.5" y="-7" font-family="Helvetica,sans-Serif" font-size="10.00">/doxygen/src/fileparser.cpp</text>
</a>
</g>
</g>
<!-- Node5&#45;&gt;Node14 -->
<g id="edge15_Node000005_Node000014" class="edge">
<title>Node5&#45;&gt;Node14</title>
<g id="a_edge15_Node000005_Node000014"><a xlink:title=" ">
<path fill="none" stroke="#63b8ff" d="M3075.04,-79.74C2709.28,-78.39 1300.85,-70.6 858.5,-30 855.64,-29.74 852.73,-29.44 849.79,-29.1"/>
<polygon fill="#63b8ff" stroke="#63b8ff" points="3075.28,-83.24 3085.29,-79.77 3075.31,-76.24 3075.28,-83.24"/>
</a>
</g>
</g>
<!-- Node15 -->
<g id="Node000015" class="node">
<title>Node15</title>
<g id="a_Node000015"><a xlink:href="../../d9/d5b/fortrancode_8l.html" target="_top" xlink:title=" ">
<polygon fill="white" stroke="#666666" points="1021.5,-30 867.5,-30 867.5,0 1021.5,0 1021.5,-30"/>
<text text-anchor="start" x="875.5" y="-18" font-family="Helvetica,sans-Serif" font-size="10.00">/home/runner/work/doxygen</text>
<text text-anchor="middle" x="944.5" y="-7" font-family="Helvetica,sans-Serif" font-size="10.00">/doxygen/src/fortrancode.l</text>
</a>
</g>
</g>
<!-- Node5&#45;&gt;Node15 -->
<g id="edge16_Node000005_Node000015" class="edge">
<title>Node5&#45;&gt;Node15</title>
<g id="a_edge16_Node000005_Node000015"><a xlink:title=" ">
<path fill="none" stroke="#63b8ff" d="M3075.27,-79.56C2727.25,-77.56 1437.31,-67.7 1030.5,-30 1027.64,-29.73 1024.73,-29.43 1021.79,-29.1"/>
<polygon fill="#63b8ff" stroke="#63b8ff" points="3075.27,-83.06 3085.29,-79.62 3075.31,-76.06 3075.27,-83.06"/>
</a>
</g>
</g>
<!-- Node16 -->
<g id="Node000016" class="node">
<title>Node16</title>
<g id="a_Node000016"><a xlink:href="../../db/d41/ftvhelp_8cpp.html" target="_top" xlink:title=" ">
<polygon fill="white" stroke="#666666" points="1193.5,-30 1039.5,-30 1039.5,0 1193.5,0 1193.5,-30"/>
<text text-anchor="start" x="1047.5" y="-18" font-family="Helvetica,sans-Serif" font-size="10.00">/home/runner/work/doxygen</text>
<text text-anchor="middle" x="1116.5" y="-7" font-family="Helvetica,sans-Serif" font-size="10.00">/doxygen/src/ftvhelp.cpp</text>
</a>
</g>
</g>
<!-- Node5&#45;&gt;Node16 -->
<g id="edge17_Node000005_Node000016" class="edge">
<title>Node5&#45;&gt;Node16</title>
<g id="a_edge17_Node000005_Node000016"><a xlink:title=" ">
<path fill="none" stroke="#63b8ff" d="M3075.03,-79.35C2744.78,-76.65 1573.7,-64.79 1202.5,-30 1199.64,-29.73 1196.73,-29.43 1193.79,-29.09"/>
<polygon fill="#63b8ff" stroke="#63b8ff" points="3075.46,-82.85 3085.49,-79.43 3075.52,-75.85 3075.46,-82.85"/>
</a>
</g>
</g>
<!-- Node17 -->
<g id="Node000017" class="node">
<title>Node17</title>
<g id="a_Node000017"><a xlink:href="../../d6/d42/groupdef_8cpp.html" target="_top" xlink:title=" ">
<polygon fill="white" stroke="#666666" points="1365.5,-30 1211.5,-30 1211.5,0 1365.5,0 1365.5,-30"/>
<text text-anchor="start" x="1219.5" y="-18" font-family="Helvetica,sans-Serif" font-size="10.00">/home/runner/work/doxygen</text>
<text text-anchor="middle" x="1288.5" y="-7" font-family="Helvetica,sans-Serif" font-size="10.00">/doxygen/src/groupdef.cpp</text>
</a>
</g>
</g>
<!-- Node5&#45;&gt;Node17 -->
<g id="edge18_Node000005_Node000017" class="edge">
<title>Node5&#45;&gt;Node17</title>
<g id="a_edge18_Node000005_Node000017"><a xlink:title=" ">
<path fill="none" stroke="#63b8ff" d="M3074.96,-79.1C2763.55,-75.66 1710.27,-61.88 1374.5,-30 1371.64,-29.73 1368.73,-29.42 1365.79,-29.08"/>
<polygon fill="#63b8ff" stroke="#63b8ff" points="3075.24,-82.6 3085.28,-79.21 3075.32,-75.6 3075.24,-82.6"/>
</a>
</g>
</g>
<!-- Node18 -->
<g id="Node000018" class="node">
<title>Node18</title>
<g id="a_Node000018"><a xlink:href="../../da/db0/htmldocvisitor_8cpp.html" target="_top" xlink:title=" ">
<polygon fill="white" stroke="#666666" points="1555.5,-30 1383.5,-30 1383.5,0 1555.5,0 1555.5,-30"/>
<text text-anchor="start" x="1391.5" y="-18" font-family="Helvetica,sans-Serif" font-size="10.00">/home/runner/work/doxygen</text>
<text text-anchor="middle" x="1469.5" y="-7" font-family="Helvetica,sans-Serif" font-size="10.00">/doxygen/src/htmldocvisitor.cpp</text>
</a>
</g>
</g>
<!-- Node5&#45;&gt;Node18 -->
<g id="edge19_Node000005_Node000018" class="edge">
<title>Node5&#45;&gt;Node18</title>
<g id="a_edge19_Node000005_Node000018"><a xlink:title=" ">
<path fill="none" stroke="#63b8ff" d="M3075.34,-78.6C2786.41,-73.73 1861.64,-56.45 1564.5,-30 1561.59,-29.74 1558.64,-29.45 1555.66,-29.14"/>
<polygon fill="#63b8ff" stroke="#63b8ff" points="3075.29,-82.1 3085.34,-78.76 3075.4,-75.1 3075.29,-82.1"/>
</a>
</g>
</g>
<!-- Node19 -->
<g id="Node000019" class="node">
<title>Node19</title>
<g id="a_Node000019"><a xlink:href="../../d8/d6e/htmlgen_8cpp.html" target="_top" xlink:title=" ">
<polygon fill="white" stroke="#666666" points="1727.5,-30 1573.5,-30 1573.5,0 1727.5,0 1727.5,-30"/>
<text text-anchor="start" x="1581.5" y="-18" font-family="Helvetica,sans-Serif" font-size="10.00">/home/runner/work/doxygen</text>
<text text-anchor="middle" x="1650.5" y="-7" font-family="Helvetica,sans-Serif" font-size="10.00">/doxygen/src/htmlgen.cpp</text>
</a>
</g>
</g>
<!-- Node5&#45;&gt;Node19 -->
<g id="edge20_Node000005_Node000019" class="edge">
<title>Node5&#45;&gt;Node19</title>
<g id="a_edge20_Node000005_Node000019"><a xlink:title=" ">
<path fill="none" stroke="#63b8ff" d="M3075.35,-80.77C2852.14,-81.9 2241.82,-79.79 1736.5,-30 1733.64,-29.72 1730.73,-29.4 1727.79,-29.06"/>
<polygon fill="#63b8ff" stroke="#63b8ff" points="3075.39,-84.27 3085.37,-80.71 3075.35,-77.27 3075.39,-84.27"/>
</a>
</g>
</g>
<!-- Node20 -->
<g id="Node000020" class="node">
<title>Node20</title>
<g id="a_Node000020"><a xlink:href="../../db/d14/index_8cpp.html" target="_top" xlink:title="This file contains functions for the various index pages.">
<polygon fill="white" stroke="#666666" points="1899.5,-30 1745.5,-30 1745.5,0 1899.5,0 1899.5,-30"/>
<text text-anchor="start" x="1753.5" y="-18" font-family="Helvetica,sans-Serif" font-size="10.00">/home/runner/work/doxygen</text>
<text text-anchor="middle" x="1822.5" y="-7" font-family="Helvetica,sans-Serif" font-size="10.00">/doxygen/src/index.cpp</text>
</a>
</g>
</g>
<!-- Node5&#45;&gt;Node20 -->
<g id="edge21_Node000005_Node000020" class="edge">
<title>Node5&#45;&gt;Node20</title>
<g id="a_edge21_Node000005_Node000020"><a xlink:title=" ">
<path fill="none" stroke="#63b8ff" d="M3075.13,-80.16C2870.61,-79.74 2344.99,-74.07 1908.5,-30 1905.64,-29.71 1902.73,-29.39 1899.8,-29.04"/>
<polygon fill="#63b8ff" stroke="#63b8ff" points="3075.21,-83.66 3085.22,-80.18 3075.22,-76.66 3075.21,-83.66"/>
</a>
</g>
</g>
<!-- Node21 -->
<g id="Node000021" class="node">
<title>Node21</title>
<g id="a_Node000021"><a xlink:href="../../d1/d4e/latexdocvisitor_8cpp.html" target="_top" xlink:title=" ">
<polygon fill="white" stroke="#666666" points="2091.5,-30 1917.5,-30 1917.5,0 2091.5,0 2091.5,-30"/>
<text text-anchor="start" x="1925.5" y="-18" font-family="Helvetica,sans-Serif" font-size="10.00">/home/runner/work/doxygen</text>
<text text-anchor="middle" x="2004.5" y="-7" font-family="Helvetica,sans-Serif" font-size="10.00">/doxygen/src/latexdocvisitor.cpp</text>
</a>
</g>
</g>
<!-- Node5&#45;&gt;Node21 -->
<g id="edge22_Node000005_Node000021" class="edge">
<title>Node5&#45;&gt;Node21</title>
<g id="a_edge22_Node000005_Node000021"><a xlink:title=" ">
<path fill="none" stroke="#63b8ff" d="M3075.32,-78.78C2893.64,-75.6 2461.37,-64.72 2100.5,-30 2097.57,-29.72 2094.58,-29.41 2091.58,-29.08"/>
<polygon fill="#63b8ff" stroke="#63b8ff" points="3075.3,-82.28 3085.36,-78.95 3075.42,-75.28 3075.3,-82.28"/>
</a>
</g>
</g>
<!-- Node22 -->
<g id="Node000022" class="node">
<title>Node22</title>
<g id="a_Node000022"><a xlink:href="../../d4/d42/latexgen_8cpp.html" target="_top" xlink:title=" ">
<polygon fill="white" stroke="#666666" points="2263.5,-30 2109.5,-30 2109.5,0 2263.5,0 2263.5,-30"/>
<text text-anchor="start" x="2117.5" y="-18" font-family="Helvetica,sans-Serif" font-size="10.00">/home/runner/work/doxygen</text>
<text text-anchor="middle" x="2186.5" y="-7" font-family="Helvetica,sans-Serif" font-size="10.00">/doxygen/src/latexgen.cpp</text>
</a>
</g>
</g>
<!-- Node5&#45;&gt;Node22 -->
<g id="edge23_Node000005_Node000022" class="edge">
<title>Node5&#45;&gt;Node22</title>
<g id="a_edge23_Node000005_Node000022"><a xlink:title=" ">
<path fill="none" stroke="#63b8ff" d="M3075.25,-78.14C2915.55,-74.07 2565.67,-62.01 2272.5,-30 2269.64,-29.69 2266.74,-29.35 2263.8,-28.98"/>
<polygon fill="#63b8ff" stroke="#63b8ff" points="3075.41,-81.65 3085.49,-78.4 3075.58,-74.65 3075.41,-81.65"/>
</a>
</g>
</g>
<!-- Node23 -->
<g id="Node000023" class="node">
<title>Node23</title>
<g id="a_Node000023"><a xlink:href="../../d0/d7e/lexcode_8l.html" target="_top" xlink:title=" ">
<polygon fill="white" stroke="#666666" points="2435.5,-30 2281.5,-30 2281.5,0 2435.5,0 2435.5,-30"/>
<text text-anchor="start" x="2289.5" y="-18" font-family="Helvetica,sans-Serif" font-size="10.00">/home/runner/work/doxygen</text>
<text text-anchor="middle" x="2358.5" y="-7" font-family="Helvetica,sans-Serif" font-size="10.00">/doxygen/src/lexcode.l</text>
</a>
</g>
</g>
<!-- Node5&#45;&gt;Node23 -->
<g id="edge24_Node000005_Node000023" class="edge">
<title>Node5&#45;&gt;Node23</title>
<g id="a_edge24_Node000005_Node000023"><a xlink:title=" ">
<path fill="none" stroke="#63b8ff" d="M3074.94,-76.5C2939.46,-70.49 2671.02,-56.27 2444.5,-30 2441.64,-29.67 2438.74,-29.31 2435.81,-28.93"/>
<polygon fill="#63b8ff" stroke="#63b8ff" points="3075.11,-80.01 3085.25,-76.95 3075.41,-73.02 3075.11,-80.01"/>
</a>
</g>
</g>
<!-- Node24 -->
<g id="Node000024" class="node">
<title>Node24</title>
<g id="a_Node000024"><a xlink:href="../../d7/de7/mangen_8cpp.html" target="_top" xlink:title=" ">
<polygon fill="white" stroke="#666666" points="2607.5,-30 2453.5,-30 2453.5,0 2607.5,0 2607.5,-30"/>
<text text-anchor="start" x="2461.5" y="-18" font-family="Helvetica,sans-Serif" font-size="10.00">/home/runner/work/doxygen</text>
<text text-anchor="middle" x="2530.5" y="-7" font-family="Helvetica,sans-Serif" font-size="10.00">/doxygen/src/mangen.cpp</text>
</a>
</g>
</g>
<!-- Node5&#45;&gt;Node24 -->
<g id="edge25_Node000005_Node000024" class="edge">
<title>Node5&#45;&gt;Node24</title>
<g id="a_edge25_Node000005_Node000024"><a xlink:title=" ">
<path fill="none" stroke="#63b8ff" d="M3075.27,-73.91C2967.31,-65.93 2777.96,-50.51 2616.5,-30 2613.65,-29.64 2610.75,-29.25 2607.82,-28.85"/>
<polygon fill="#63b8ff" stroke="#63b8ff" points="3075.23,-77.41 3085.46,-74.65 3075.74,-70.43 3075.23,-77.41"/>
</a>
</g>
</g>
<!-- Node25 -->
<g id="Node000025" class="node">
<title>Node25</title>
<g id="a_Node000025"><a xlink:href="../../d0/d72/memberdef_8cpp.html" target="_top" xlink:title=" ">
<polygon fill="white" stroke="#666666" points="2783.5,-30 2625.5,-30 2625.5,0 2783.5,0 2783.5,-30"/>
<text text-anchor="start" x="2633.5" y="-18" font-family="Helvetica,sans-Serif" font-size="10.00">/home/runner/work/doxygen</text>
<text text-anchor="middle" x="2704.5" y="-7" font-family="Helvetica,sans-Serif" font-size="10.00">/doxygen/src/memberdef.cpp</text>
</a>
</g>
</g>
<!-- Node5&#45;&gt;Node25 -->
<g id="edge26_Node000005_Node000025" class="edge">
<title>Node5&#45;&gt;Node25</title>
<g id="a_edge26_Node000005_Node000025"><a xlink:title=" ">
<path fill="none" stroke="#63b8ff" d="M3075.08,-68.69C3000.27,-58.88 2889.72,-44.09 2793.5,-30 2790.25,-29.52 2786.93,-29.03 2783.59,-28.53"/>
<polygon fill="#63b8ff" stroke="#63b8ff" points="3075.03,-72.21 3085.4,-70.04 3075.94,-65.27 3075.03,-72.21"/>
</a>
</g>
</g>
<!-- Node26 -->
<g id="Node000026" class="node">
<title>Node26</title>
<g id="a_Node000026"><a xlink:href="../../d6/d18/membergroup_8cpp.html" target="_top" xlink:title=" ">
<polygon fill="white" stroke="#666666" points="2973,-30 2802,-30 2802,0 2973,0 2973,-30"/>
<text text-anchor="start" x="2810" y="-18" font-family="Helvetica,sans-Serif" font-size="10.00">/home/runner/work/doxygen</text>
<text text-anchor="middle" x="2887.5" y="-7" font-family="Helvetica,sans-Serif" font-size="10.00">/doxygen/src/membergroup.cpp</text>
</a>
</g>
</g>
<!-- Node5&#45;&gt;Node26 -->
<g id="edge27_Node000005_Node000026" class="edge">
<title>Node5&#45;&gt;Node26</title>
<g id="a_edge27_Node000005_Node000026"><a xlink:title=" ">
<path fill="none" stroke="#63b8ff" d="M3092.24,-63.65C3047.56,-53.25 2990.3,-39.93 2947.71,-30.01"/>
<polygon fill="#63b8ff" stroke="#63b8ff" points="3091.62,-67.1 3102.15,-65.95 3093.2,-60.28 3091.62,-67.1"/>
</a>
</g>
</g>
<!-- Node27 -->
<g id="Node000027" class="node">
<title>Node27</title>
<g id="a_Node000027"><a xlink:href="../../d0/d14/memberlist_8cpp.html" target="_top" xlink:title=" ">
<polygon fill="white" stroke="#666666" points="3149.5,-30 2991.5,-30 2991.5,0 3149.5,0 3149.5,-30"/>
<text text-anchor="start" x="2999.5" y="-18" font-family="Helvetica,sans-Serif" font-size="10.00">/home/runner/work/doxygen</text>
<text text-anchor="middle" x="3070.5" y="-7" font-family="Helvetica,sans-Serif" font-size="10.00">/doxygen/src/memberlist.cpp</text>
</a>
</g>
</g>
<!-- Node5&#45;&gt;Node27 -->
<g id="edge28_Node000005_Node000027" class="edge">
<title>Node5&#45;&gt;Node27</title>
<g id="a_edge28_Node000005_Node000027"><a xlink:title=" ">
<path fill="none" stroke="#63b8ff" d="M3133.79,-60.03C3119.87,-50.34 3103.47,-38.94 3090.86,-30.16"/>
<polygon fill="#63b8ff" stroke="#63b8ff" points="3131.87,-62.96 3142.08,-65.8 3135.87,-57.21 3131.87,-62.96"/>
</a>
</g>
</g>
<!-- Node28 -->
<g id="Node000028" class="node">
<title>Node28</title>
<g id="a_Node000028"><a xlink:href="../../d7/d1c/namespacedef_8cpp.html" target="_top" xlink:title=" ">
<polygon fill="white" stroke="#666666" points="3341,-30 3168,-30 3168,0 3341,0 3341,-30"/>
<text text-anchor="start" x="3176" y="-18" font-family="Helvetica,sans-Serif" font-size="10.00">/home/runner/work/doxygen</text>
<text text-anchor="middle" x="3254.5" y="-7" font-family="Helvetica,sans-Serif" font-size="10.00">/doxygen/src/namespacedef.cpp</text>
</a>
</g>
</g>
<!-- Node5&#45;&gt;Node28 -->
<g id="edge29_Node000005_Node000028" class="edge">
<title>Node5&#45;&gt;Node28</title>
<g id="a_edge29_Node000005_Node000028"><a xlink:title=" ">
<path fill="none" stroke="#63b8ff" d="M3191.21,-60.03C3205.13,-50.34 3221.53,-38.94 3234.14,-30.16"/>
<polygon fill="#63b8ff" stroke="#63b8ff" points="3189.13,-57.21 3182.92,-65.8 3193.13,-62.96 3189.13,-57.21"/>
</a>
</g>
</g>
<!-- Node29 -->
<g id="Node000029" class="node">
<title>Node29</title>
<g id="a_Node000029"><a xlink:href="../../db/dd8/outputlist_8cpp.html" target="_top" xlink:title=" ">
<polygon fill="white" stroke="#666666" points="3513.5,-30 3359.5,-30 3359.5,0 3513.5,0 3513.5,-30"/>
<text text-anchor="start" x="3367.5" y="-18" font-family="Helvetica,sans-Serif" font-size="10.00">/home/runner/work/doxygen</text>
<text text-anchor="middle" x="3436.5" y="-7" font-family="Helvetica,sans-Serif" font-size="10.00">/doxygen/src/outputlist.cpp</text>
</a>
</g>
</g>
<!-- Node5&#45;&gt;Node29 -->
<g id="edge30_Node000005_Node000029" class="edge">
<title>Node5&#45;&gt;Node29</title>
<g id="a_edge30_Node000005_Node000029"><a xlink:title=" ">
<path fill="none" stroke="#63b8ff" d="M3232.51,-63.65C3277.03,-53.25 3334.07,-39.93 3376.51,-30.01"/>
<polygon fill="#63b8ff" stroke="#63b8ff" points="3231.57,-60.27 3222.63,-65.95 3233.16,-67.09 3231.57,-60.27"/>
</a>
</g>
</g>
<!-- Node30 -->
<g id="Node000030" class="node">
<title>Node30</title>
<g id="a_Node000030"><a xlink:href="../../d9/db4/pagedef_8cpp.html" target="_top" xlink:title=" ">
<polygon fill="white" stroke="#666666" points="3685.5,-30 3531.5,-30 3531.5,0 3685.5,0 3685.5,-30"/>
<text text-anchor="start" x="3539.5" y="-18" font-family="Helvetica,sans-Serif" font-size="10.00">/home/runner/work/doxygen</text>
<text text-anchor="middle" x="3608.5" y="-7" font-family="Helvetica,sans-Serif" font-size="10.00">/doxygen/src/pagedef.cpp</text>
</a>
</g>
</g>
<!-- Node5&#45;&gt;Node30 -->
<g id="edge31_Node000005_Node000030" class="edge">
<title>Node5&#45;&gt;Node30</title>
<g id="a_edge31_Node000005_Node000030"><a xlink:title=" ">
<path fill="none" stroke="#63b8ff" d="M3249.94,-65.97C3372.28,-48.24 3404.62,-47.36 3522.5,-30 3525.34,-29.58 3528.24,-29.15 3531.16,-28.7"/>
<polygon fill="#63b8ff" stroke="#63b8ff" points="3249.19,-62.54 3239.8,-67.44 3250.2,-69.46 3249.19,-62.54"/>
</a>
</g>
</g>
<!-- Node31 -->
<g id="Node000031" class="node">
<title>Node31</title>
<g id="a_Node000031"><a xlink:href="../../d3/ded/pycode_8l.html" target="_top" xlink:title=" ">
<polygon fill="white" stroke="#666666" points="3857.5,-30 3703.5,-30 3703.5,0 3857.5,0 3857.5,-30"/>
<text text-anchor="start" x="3711.5" y="-18" font-family="Helvetica,sans-Serif" font-size="10.00">/home/runner/work/doxygen</text>
<text text-anchor="middle" x="3780.5" y="-7" font-family="Helvetica,sans-Serif" font-size="10.00">/doxygen/src/pycode.l</text>
</a>
</g>
</g>
<!-- Node5&#45;&gt;Node31 -->
<g id="edge32_Node000005_Node000031" class="edge">
<title>Node5&#45;&gt;Node31</title>
<g id="a_edge32_Node000005_Node000031"><a xlink:title=" ">
<path fill="none" stroke="#63b8ff" d="M3249.94,-66.02C3448.23,-42.6 3500.8,-53.56 3694.5,-30 3697.35,-29.65 3700.26,-29.28 3703.19,-28.89"/>
<polygon fill="#63b8ff" stroke="#63b8ff" points="3249.29,-62.58 3239.78,-67.24 3250.12,-69.53 3249.29,-62.58"/>
</a>
</g>
</g>
<!-- Node32 -->
<g id="Node000032" class="node">
<title>Node32</title>
<g id="a_Node000032"><a xlink:href="../../d0/d9c/rtfgen_8cpp.html" target="_top" xlink:title=" ">
<polygon fill="white" stroke="#666666" points="4029.5,-30 3875.5,-30 3875.5,0 4029.5,0 4029.5,-30"/>
<text text-anchor="start" x="3883.5" y="-18" font-family="Helvetica,sans-Serif" font-size="10.00">/home/runner/work/doxygen</text>
<text text-anchor="middle" x="3952.5" y="-7" font-family="Helvetica,sans-Serif" font-size="10.00">/doxygen/src/rtfgen.cpp</text>
</a>
</g>
</g>
<!-- Node5&#45;&gt;Node32 -->
<g id="edge33_Node000005_Node000032" class="edge">
<title>Node5&#45;&gt;Node32</title>
<g id="a_edge33_Node000005_Node000032"><a xlink:title=" ">
<path fill="none" stroke="#63b8ff" d="M3250.03,-66.04C3524.32,-36.72 3596.8,-59.74 3866.5,-30 3869.36,-29.68 3872.26,-29.34 3875.2,-28.97"/>
<polygon fill="#63b8ff" stroke="#63b8ff" points="3249.33,-62.59 3239.77,-67.15 3250.08,-69.55 3249.33,-62.59"/>
</a>
</g>
</g>
<!-- Node33 -->
<g id="Node000033" class="node">
<title>Node33</title>
<g id="a_Node000033"><a xlink:href="../../d2/dda/sqlcode_8l.html" target="_top" xlink:title=" ">
<polygon fill="white" stroke="#666666" points="4201.5,-30 4047.5,-30 4047.5,0 4201.5,0 4201.5,-30"/>
<text text-anchor="start" x="4055.5" y="-18" font-family="Helvetica,sans-Serif" font-size="10.00">/home/runner/work/doxygen</text>
<text text-anchor="middle" x="4124.5" y="-7" font-family="Helvetica,sans-Serif" font-size="10.00">/doxygen/src/sqlcode.l</text>
</a>
</g>
</g>
<!-- Node5&#45;&gt;Node33 -->
<g id="edge34_Node000005_Node000033" class="edge">
<title>Node5&#45;&gt;Node33</title>
<g id="a_edge34_Node000005_Node000033"><a xlink:title=" ">
<path fill="none" stroke="#63b8ff" d="M3249.94,-66.06C3600.44,-30.74 3692.67,-65.92 4038.5,-30 4041.36,-29.7 4044.27,-29.37 4047.2,-29.02"/>
<polygon fill="#63b8ff" stroke="#63b8ff" points="3249.35,-62.6 3239.76,-67.1 3250.06,-69.57 3249.35,-62.6"/>
</a>
</g>
</g>
<!-- Node34 -->
<g id="Node000034" class="node">
<title>Node34</title>
<g id="a_Node000034"><a xlink:href="../../d8/df8/sqlite3gen_8cpp.html" target="_top" xlink:title=" ">
<polygon fill="white" stroke="#666666" points="4373.5,-30 4219.5,-30 4219.5,0 4373.5,0 4373.5,-30"/>
<text text-anchor="start" x="4227.5" y="-18" font-family="Helvetica,sans-Serif" font-size="10.00">/home/runner/work/doxygen</text>
<text text-anchor="middle" x="4296.5" y="-7" font-family="Helvetica,sans-Serif" font-size="10.00">/doxygen/src/sqlite3gen.cpp</text>
</a>
</g>
</g>
<!-- Node5&#45;&gt;Node34 -->
<g id="edge35_Node000005_Node000034" class="edge">
<title>Node5&#45;&gt;Node34</title>
<g id="a_edge35_Node000005_Node000034"><a xlink:title=" ">
<path fill="none" stroke="#63b8ff" d="M3249.9,-66.07C3676.58,-24.72 3788.52,-72.09 4210.5,-30 4213.36,-29.71 4216.27,-29.39 4219.2,-29.05"/>
<polygon fill="#63b8ff" stroke="#63b8ff" points="3249.37,-62.61 3239.76,-67.07 3250.05,-69.57 3249.37,-62.61"/>
</a>
</g>
</g>
<!-- Node35 -->
<g id="Node000035" class="node">
<title>Node35</title>
<g id="a_Node000035"><a xlink:href="../../d7/d56/tooltip_8cpp.html" target="_top" xlink:title=" ">
<polygon fill="white" stroke="#666666" points="4545.5,-30 4391.5,-30 4391.5,0 4545.5,0 4545.5,-30"/>
<text text-anchor="start" x="4399.5" y="-18" font-family="Helvetica,sans-Serif" font-size="10.00">/home/runner/work/doxygen</text>
<text text-anchor="middle" x="4468.5" y="-7" font-family="Helvetica,sans-Serif" font-size="10.00">/doxygen/src/tooltip.cpp</text>
</a>
</g>
</g>
<!-- Node5&#45;&gt;Node35 -->
<g id="edge36_Node000005_Node000035" class="edge">
<title>Node5&#45;&gt;Node35</title>
<g id="a_edge36_Node000005_Node000035"><a xlink:title=" ">
<path fill="none" stroke="#63b8ff" d="M3249.82,-66.08C3752.74,-18.68 3884.34,-78.26 4382.5,-30 4385.36,-29.72 4388.27,-29.41 4391.21,-29.07"/>
<polygon fill="#63b8ff" stroke="#63b8ff" points="3249.38,-62.61 3239.76,-67.04 3250.04,-69.58 3249.38,-62.61"/>
</a>
</g>
</g>
<!-- Node36 -->
<g id="Node000036" class="node">
<title>Node36</title>
<g id="a_Node000036"><a xlink:href="../../df/d2d/util_8cpp.html" target="_top" xlink:title=" ">
<polygon fill="white" stroke="#666666" points="4717.5,-30 4563.5,-30 4563.5,0 4717.5,0 4717.5,-30"/>
<text text-anchor="start" x="4571.5" y="-18" font-family="Helvetica,sans-Serif" font-size="10.00">/home/runner/work/doxygen</text>
<text text-anchor="middle" x="4640.5" y="-7" font-family="Helvetica,sans-Serif" font-size="10.00">/doxygen/src/util.cpp</text>
</a>
</g>
</g>
<!-- Node5&#45;&gt;Node36 -->
<g id="edge37_Node000005_Node000036" class="edge">
<title>Node5&#45;&gt;Node36</title>
<g id="a_edge37_Node000005_Node000036"><a xlink:title=" ">
<path fill="none" stroke="#63b8ff" d="M3250.03,-66.07C3828.95,-12.64 3980.25,-84.42 4554.5,-30 4557.36,-29.73 4560.27,-29.42 4563.21,-29.08"/>
<polygon fill="#63b8ff" stroke="#63b8ff" points="3249.39,-62.61 3239.75,-67.03 3250.04,-69.58 3249.39,-62.61"/>
</a>
</g>
</g>
<!-- Node37 -->
<g id="Node000037" class="node">
<title>Node37</title>
<g id="a_Node000037"><a xlink:href="../../d5/d6a/vhdlcode_8l.html" target="_top" xlink:title=" ">
<polygon fill="white" stroke="#666666" points="4889.5,-30 4735.5,-30 4735.5,0 4889.5,0 4889.5,-30"/>
<text text-anchor="start" x="4743.5" y="-18" font-family="Helvetica,sans-Serif" font-size="10.00">/home/runner/work/doxygen</text>
<text text-anchor="middle" x="4812.5" y="-7" font-family="Helvetica,sans-Serif" font-size="10.00">/doxygen/src/vhdlcode.l</text>
</a>
</g>
</g>
<!-- Node5&#45;&gt;Node37 -->
<g id="edge38_Node000005_Node000037" class="edge">
<title>Node5&#45;&gt;Node37</title>
<g id="a_edge38_Node000005_Node000037"><a xlink:title=" ">
<path fill="none" stroke="#63b8ff" d="M3249.92,-66.08C3905.11,-6.57 4076.04,-90.58 4726.5,-30 4729.36,-29.73 4732.27,-29.43 4735.21,-29.09"/>
<polygon fill="#63b8ff" stroke="#63b8ff" points="3249.39,-62.62 3239.75,-67.01 3250.03,-69.59 3249.39,-62.62"/>
</a>
</g>
</g>
<!-- Node38 -->
<g id="Node000038" class="node">
<title>Node38</title>
<g id="a_Node000038"><a xlink:href="../../de/dea/vhdldocgen_8cpp.html" target="_top" xlink:title=" ">
<polygon fill="white" stroke="#666666" points="5065.5,-30 4907.5,-30 4907.5,0 5065.5,0 5065.5,-30"/>
<text text-anchor="start" x="4915.5" y="-18" font-family="Helvetica,sans-Serif" font-size="10.00">/home/runner/work/doxygen</text>
<text text-anchor="middle" x="4986.5" y="-7" font-family="Helvetica,sans-Serif" font-size="10.00">/doxygen/src/vhdldocgen.cpp</text>
</a>
</g>
</g>
<!-- Node5&#45;&gt;Node38 -->
<g id="edge39_Node000005_Node000038" class="edge">
<title>Node5&#45;&gt;Node38</title>
<g id="a_edge39_Node000005_Node000038"><a xlink:title=" ">
<path fill="none" stroke="#63b8ff" d="M3249.74,-66.1C3981.27,-0.47 4171.69,-95.44 4898.5,-30 4901.43,-29.74 4904.41,-29.43 4907.41,-29.1"/>
<polygon fill="#63b8ff" stroke="#63b8ff" points="3249.4,-62.62 3239.75,-67 3250.03,-69.59 3249.4,-62.62"/>
</a>
</g>
</g>
<!-- Node39 -->
<g id="Node000039" class="node">
<title>Node39</title>
<g id="a_Node000039"><a xlink:href="../../d1/d86/vhdljjparser_8cpp.html" target="_top" xlink:title=" ">
<polygon fill="white" stroke="#666666" points="5242,-30 5083,-30 5083,0 5242,0 5242,-30"/>
<text text-anchor="start" x="5091" y="-18" font-family="Helvetica,sans-Serif" font-size="10.00">/home/runner/work/doxygen</text>
<text text-anchor="middle" x="5162.5" y="-7" font-family="Helvetica,sans-Serif" font-size="10.00">/doxygen/src/vhdljjparser.cpp</text>
</a>
</g>
</g>
<!-- Node5&#45;&gt;Node39 -->
<g id="edge40_Node000005_Node000039" class="edge">
<title>Node5&#45;&gt;Node39</title>
<g id="a_edge40_Node000005_Node000039"><a xlink:title=" ">
<path fill="none" stroke="#63b8ff" d="M3249.9,-66.09C4059.26,5.73 4269.78,-101.6 5074.5,-30 5077.27,-29.75 5080.09,-29.47 5082.94,-29.16"/>
<polygon fill="#63b8ff" stroke="#63b8ff" points="3249.4,-62.62 3239.75,-66.99 3250.02,-69.59 3249.4,-62.62"/>
</a>
</g>
</g>
<!-- Node40 -->
<g id="Node000040" class="node">
<title>Node40</title>
<g id="a_Node000040"><a xlink:href="../../dc/dc1/xmlcode_8l.html" target="_top" xlink:title=" ">
<polygon fill="white" stroke="#666666" points="5414.5,-30 5260.5,-30 5260.5,0 5414.5,0 5414.5,-30"/>
<text text-anchor="start" x="5268.5" y="-18" font-family="Helvetica,sans-Serif" font-size="10.00">/home/runner/work/doxygen</text>
<text text-anchor="middle" x="5337.5" y="-7" font-family="Helvetica,sans-Serif" font-size="10.00">/doxygen/src/xmlcode.l</text>
</a>
</g>
</g>
<!-- Node5&#45;&gt;Node40 -->
<g id="edge41_Node000005_Node000040" class="edge">
<title>Node5&#45;&gt;Node40</title>
<g id="a_edge41_Node000005_Node000040"><a xlink:title=" ">
<path fill="none" stroke="#63b8ff" d="M3249.9,-66.09C4137.66,11.97 4368.51,-109.4 5251.5,-30 5254.36,-29.74 5257.27,-29.45 5260.21,-29.12"/>
<polygon fill="#63b8ff" stroke="#63b8ff" points="3249.4,-62.62 3239.75,-66.99 3250.02,-69.59 3249.4,-62.62"/>
</a>
</g>
</g>
<!-- Node41 -->
<g id="Node000041" class="node">
<title>Node41</title>
<g id="a_Node000041"><a xlink:href="../../d0/dc3/xmlgen_8cpp.html" target="_top" xlink:title=" ">
<polygon fill="white" stroke="#666666" points="5586.5,-30 5432.5,-30 5432.5,0 5586.5,0 5586.5,-30"/>
<text text-anchor="start" x="5440.5" y="-18" font-family="Helvetica,sans-Serif" font-size="10.00">/home/runner/work/doxygen</text>
<text text-anchor="middle" x="5509.5" y="-7" font-family="Helvetica,sans-Serif" font-size="10.00">/doxygen/src/xmlgen.cpp</text>
</a>
</g>
</g>
<!-- Node5&#45;&gt;Node41 -->
<g id="edge42_Node000005_Node000041" class="edge">
<title>Node5&#45;&gt;Node41</title>
<g id="a_edge42_Node000005_Node000041"><a xlink:title=" ">
<path fill="none" stroke="#63b8ff" d="M3250.05,-66.08C4213.88,18.03 4464.37,-115.56 5423.5,-30 5426.36,-29.74 5429.27,-29.45 5432.21,-29.12"/>
<polygon fill="#63b8ff" stroke="#63b8ff" points="3249.4,-62.62 3239.75,-66.98 3250.02,-69.59 3249.4,-62.62"/>
</a>
</g>
</g>
</g>
</svg>
