<?xml version="1.0" encoding="UTF-8" standalone="no"?>
<!DOCTYPE svg PUBLIC "-//W3C//DTD SVG 1.1//EN"
 "http://www.w3.org/Graphics/SVG/1.1/DTD/svg11.dtd">
<!-- Generated by graphviz version 2.43.0 (0)
 -->
<!-- Title: /home/runner/work/doxygen/doxygen/src/utf8.cpp Pages: 1 -->
<svg width="691pt" height="258pt"
 viewBox="0.00 0.00 691.10 258.00" xmlns="http://www.w3.org/2000/svg" xmlns:xlink="http://www.w3.org/1999/xlink">
<g id="graph0" class="graph" transform="scale(1 1) rotate(0) translate(4 254)">
<title>/home/runner/work/doxygen/doxygen/src/utf8.cpp</title>
<!-- Node1 -->
<g id="Node000001" class="node">
<title>Node1</title>
<g id="a_Node000001"><a xlink:title=" ">
<polygon fill="#999999" stroke="#666666" points="156.37,-250 2.37,-250 2.37,-220 156.37,-220 156.37,-250"/>
<text text-anchor="start" x="10.37" y="-238" font-family="Helvetica,sans-Serif" font-size="10.00">/home/runner/work/doxygen</text>
<text text-anchor="middle" x="79.37" y="-227" font-family="Helvetica,sans-Serif" font-size="10.00">/doxygen/src/utf8.cpp</text>
</a>
</g>
</g>
<!-- Node2 -->
<g id="Node000002" class="node">
<title>Node2</title>
<g id="a_Node000002"><a xlink:title=" ">
<polygon fill="#e0e0e0" stroke="#999999" points="87.37,-19 37.37,-19 37.37,0 87.37,0 87.37,-19"/>
<text text-anchor="middle" x="62.37" y="-7" font-family="Helvetica,sans-Serif" font-size="10.00">cstdint</text>
</a>
</g>
</g>
<!-- Node1&#45;&gt;Node2 -->
<g id="edge1_Node000001_Node000002" class="edge">
<title>Node1&#45;&gt;Node2</title>
<g id="a_edge1_Node000001_Node000002"><a xlink:title=" ">
<path fill="none" stroke="#63b8ff" d="M69.8,-219.82C52.26,-192.85 15.53,-131.71 2.37,-74 0.49,-65.77 -1.43,-62.54 2.37,-55 9.06,-41.71 21.81,-31.39 33.84,-24.05"/>
<polygon fill="#63b8ff" stroke="#63b8ff" points="35.78,-26.97 42.78,-19.02 32.35,-20.87 35.78,-26.97"/>
</a>
</g>
</g>
<!-- Node3 -->
<g id="Node000003" class="node">
<title>Node3</title>
<g id="a_Node000003"><a xlink:title=" ">
<polygon fill="#e0e0e0" stroke="#999999" points="163.37,-129 107.37,-129 107.37,-110 163.37,-110 163.37,-129"/>
<text text-anchor="middle" x="135.37" y="-117" font-family="Helvetica,sans-Serif" font-size="10.00">sstream</text>
</a>
</g>
</g>
<!-- Node1&#45;&gt;Node3 -->
<g id="edge2_Node000001_Node000003" class="edge">
<title>Node1&#45;&gt;Node3</title>
<g id="a_edge2_Node000001_Node000003"><a xlink:title=" ">
<path fill="none" stroke="#63b8ff" d="M86.46,-219.63C96.67,-198.93 115.49,-160.78 126.57,-138.32"/>
<polygon fill="#63b8ff" stroke="#63b8ff" points="129.77,-139.75 131.06,-129.23 123.5,-136.65 129.77,-139.75"/>
</a>
</g>
</g>
<!-- Node4 -->
<g id="Node000004" class="node">
<title>Node4</title>
<g id="a_Node000004"><a xlink:href="../../db/d7c/utf8_8h.html" target="_top" xlink:title="Various UTF8 related helper functions.">
<polygon fill="white" stroke="#666666" points="206.87,-74 161.87,-74 161.87,-55 206.87,-55 206.87,-74"/>
<text text-anchor="middle" x="184.37" y="-62" font-family="Helvetica,sans-Serif" font-size="10.00">utf8.h</text>
</a>
</g>
</g>
<!-- Node1&#45;&gt;Node4 -->
<g id="edge3_Node000001_Node000004" class="edge">
<title>Node1&#45;&gt;Node4</title>
<g id="a_edge3_Node000001_Node000004"><a xlink:title=" ">
<path fill="none" stroke="#63b8ff" d="M77.66,-219.84C75.45,-195.09 74.36,-143.44 98.37,-110 111.25,-92.06 133.56,-80.81 152.23,-74.11"/>
<polygon fill="#63b8ff" stroke="#63b8ff" points="153.47,-77.39 161.87,-70.93 151.27,-70.74 153.47,-77.39"/>
</a>
</g>
</g>
<!-- Node6 -->
<g id="Node000006" class="node">
<title>Node6</title>
<g id="a_Node000006"><a xlink:href="../../db/dca/caseconvert_8h.html" target="_top" xlink:title=" ">
<polygon fill="white" stroke="#666666" points="104.87,-74 19.87,-74 19.87,-55 104.87,-55 104.87,-74"/>
<text text-anchor="middle" x="62.37" y="-62" font-family="Helvetica,sans-Serif" font-size="10.00">caseconvert.h</text>
</a>
</g>
</g>
<!-- Node1&#45;&gt;Node6 -->
<g id="edge6_Node000001_Node000006" class="edge">
<title>Node1&#45;&gt;Node6</title>
<g id="a_edge6_Node000001_Node000006"><a xlink:title=" ">
<path fill="none" stroke="#63b8ff" d="M74.36,-219.76C71.14,-209.87 67.22,-196.3 65.37,-184 60.14,-149.18 60.56,-107.97 61.41,-84.47"/>
<polygon fill="#63b8ff" stroke="#63b8ff" points="64.92,-84.33 61.86,-74.19 57.93,-84.03 64.92,-84.33"/>
</a>
</g>
</g>
<!-- Node7 -->
<g id="Node000007" class="node">
<title>Node7</title>
<g id="a_Node000007"><a xlink:href="../../d4/d7d/textstream_8h.html" target="_top" xlink:title=" ">
<polygon fill="white" stroke="#666666" points="393.37,-184 313.37,-184 313.37,-165 393.37,-165 393.37,-184"/>
<text text-anchor="middle" x="353.37" y="-172" font-family="Helvetica,sans-Serif" font-size="10.00">textstream.h</text>
</a>
</g>
</g>
<!-- Node1&#45;&gt;Node7 -->
<g id="edge9_Node000001_Node000007" class="edge">
<title>Node1&#45;&gt;Node7</title>
<g id="a_edge9_Node000001_Node000007"><a xlink:title=" ">
<path fill="none" stroke="#63b8ff" d="M145,-219.99C193.61,-209.61 258.87,-195.68 303.31,-186.19"/>
<polygon fill="#63b8ff" stroke="#63b8ff" points="304.26,-189.56 313.3,-184.05 302.79,-182.72 304.26,-189.56"/>
</a>
</g>
</g>
<!-- Node4&#45;&gt;Node2 -->
<g id="edge4_Node000004_Node000002" class="edge">
<title>Node4&#45;&gt;Node2</title>
<g id="a_edge4_Node000004_Node000002"><a xlink:title=" ">
<path fill="none" stroke="#63b8ff" d="M164.77,-54.98C145.05,-46.42 114.41,-33.11 91.78,-23.28"/>
<polygon fill="#63b8ff" stroke="#63b8ff" points="92.89,-19.94 82.33,-19.17 90.1,-26.37 92.89,-19.94"/>
</a>
</g>
</g>
<!-- Node5 -->
<g id="Node000005" class="node">
<title>Node5</title>
<g id="a_Node000005"><a xlink:title=" ">
<polygon fill="#e0e0e0" stroke="#999999" points="412.37,-19 368.37,-19 368.37,0 412.37,0 412.37,-19"/>
<text text-anchor="middle" x="390.37" y="-7" font-family="Helvetica,sans-Serif" font-size="10.00">string</text>
</a>
</g>
</g>
<!-- Node4&#45;&gt;Node5 -->
<g id="edge5_Node000004_Node000005" class="edge">
<title>Node4&#45;&gt;Node5</title>
<g id="a_edge5_Node000004_Node000005"><a xlink:title=" ">
<path fill="none" stroke="#63b8ff" d="M207.09,-57.44C210.2,-56.61 213.36,-55.78 216.37,-55 265.72,-42.13 323.05,-27.54 358.01,-18.68"/>
<polygon fill="#63b8ff" stroke="#63b8ff" points="359.27,-21.97 368.1,-16.12 357.55,-15.19 359.27,-21.97"/>
</a>
</g>
</g>
<!-- Node6&#45;&gt;Node2 -->
<g id="edge7_Node000006_Node000002" class="edge">
<title>Node6&#45;&gt;Node2</title>
<g id="a_edge7_Node000006_Node000002"><a xlink:title=" ">
<path fill="none" stroke="#63b8ff" d="M62.37,-54.75C62.37,-47.8 62.37,-37.85 62.37,-29.13"/>
<polygon fill="#63b8ff" stroke="#63b8ff" points="65.87,-29.09 62.37,-19.09 58.87,-29.09 65.87,-29.09"/>
</a>
</g>
</g>
<!-- Node6&#45;&gt;Node5 -->
<g id="edge8_Node000006_Node000005" class="edge">
<title>Node6&#45;&gt;Node5</title>
<g id="a_edge8_Node000006_Node000005"><a xlink:title=" ">
<path fill="none" stroke="#63b8ff" d="M104.91,-56.63C171.46,-45.87 298.73,-25.31 358.22,-15.69"/>
<polygon fill="#63b8ff" stroke="#63b8ff" points="358.86,-19.14 368.18,-14.09 357.75,-12.23 358.86,-19.14"/>
</a>
</g>
</g>
<!-- Node7&#45;&gt;Node2 -->
<g id="edge13_Node000007_Node000002" class="edge">
<title>Node7&#45;&gt;Node2</title>
<g id="a_edge13_Node000007_Node000002"><a xlink:title=" ">
<path fill="none" stroke="#63b8ff" d="M331.63,-164.93C297.91,-151.85 230.81,-126.68 172.37,-110 101.44,-89.76 56.52,-131.53 10.37,-74 -3.39,-56.84 18.34,-37.29 37.78,-24.47"/>
<polygon fill="#63b8ff" stroke="#63b8ff" points="39.78,-27.35 46.41,-19.08 36.07,-21.41 39.78,-27.35"/>
</a>
</g>
</g>
<!-- Node7&#45;&gt;Node3 -->
<g id="edge12_Node000007_Node000003" class="edge">
<title>Node7&#45;&gt;Node3</title>
<g id="a_edge12_Node000007_Node000003"><a xlink:title=" ">
<path fill="none" stroke="#63b8ff" d="M318.34,-164.98C278.62,-155.33 214.08,-139.64 173.22,-129.7"/>
<polygon fill="#63b8ff" stroke="#63b8ff" points="173.92,-126.27 163.38,-127.31 172.27,-133.07 173.92,-126.27"/>
</a>
</g>
</g>
<!-- Node7&#45;&gt;Node5 -->
<g id="edge10_Node000007_Node000005" class="edge">
<title>Node7&#45;&gt;Node5</title>
<g id="a_edge10_Node000007_Node000005"><a xlink:title=" ">
<path fill="none" stroke="#63b8ff" d="M393.58,-171.42C443.53,-167.68 530.54,-157.34 599.37,-129 639.27,-112.57 659.28,-112.19 679.37,-74 683.3,-66.53 684.87,-61.41 679.37,-55 646.58,-16.78 491.05,-11.07 422.71,-10.44"/>
<polygon fill="#63b8ff" stroke="#63b8ff" points="422.54,-6.94 412.52,-10.38 422.5,-13.94 422.54,-6.94"/>
</a>
</g>
</g>
<!-- Node8 -->
<g id="Node000008" class="node">
<title>Node8</title>
<g id="a_Node000008"><a xlink:title=" ">
<polygon fill="#e0e0e0" stroke="#999999" points="590.37,-129 530.37,-129 530.37,-110 590.37,-110 590.37,-129"/>
<text text-anchor="middle" x="560.37" y="-117" font-family="Helvetica,sans-Serif" font-size="10.00">iostream</text>
</a>
</g>
</g>
<!-- Node7&#45;&gt;Node8 -->
<g id="edge11_Node000007_Node000008" class="edge">
<title>Node7&#45;&gt;Node8</title>
<g id="a_edge11_Node000007_Node000008"><a xlink:title=" ">
<path fill="none" stroke="#63b8ff" d="M386.63,-164.98C423.03,-155.66 481.39,-140.72 520.29,-130.76"/>
<polygon fill="#63b8ff" stroke="#63b8ff" points="521.4,-134.09 530.22,-128.22 519.67,-127.31 521.4,-134.09"/>
</a>
</g>
</g>
<!-- Node9 -->
<g id="Node000009" class="node">
<title>Node9</title>
<g id="a_Node000009"><a xlink:title=" ">
<polygon fill="#e0e0e0" stroke="#999999" points="670.37,-74 624.37,-74 624.37,-55 670.37,-55 670.37,-74"/>
<text text-anchor="middle" x="647.37" y="-62" font-family="Helvetica,sans-Serif" font-size="10.00">cstdio</text>
</a>
</g>
</g>
<!-- Node7&#45;&gt;Node9 -->
<g id="edge14_Node000007_Node000009" class="edge">
<title>Node7&#45;&gt;Node9</title>
<g id="a_edge14_Node000007_Node000009"><a xlink:title=" ">
<path fill="none" stroke="#63b8ff" d="M361.47,-165C375.13,-151.19 404.23,-124.02 434.37,-110 450.5,-102.5 558.2,-81.94 613.99,-71.61"/>
<polygon fill="#63b8ff" stroke="#63b8ff" points="614.9,-75 624.1,-69.74 613.63,-68.12 614.9,-75"/>
</a>
</g>
</g>
<!-- Node10 -->
<g id="Node000010" class="node">
<title>Node10</title>
<g id="a_Node000010"><a xlink:title=" ">
<polygon fill="#e0e0e0" stroke="#999999" points="302.87,-129 247.87,-129 247.87,-110 302.87,-110 302.87,-129"/>
<text text-anchor="middle" x="275.37" y="-117" font-family="Helvetica,sans-Serif" font-size="10.00">fstream</text>
</a>
</g>
</g>
<!-- Node7&#45;&gt;Node10 -->
<g id="edge15_Node000007_Node000010" class="edge">
<title>Node7&#45;&gt;Node10</title>
<g id="a_edge15_Node000007_Node000010"><a xlink:title=" ">
<path fill="none" stroke="#63b8ff" d="M340.84,-164.98C328.97,-156.92 310.9,-144.65 296.76,-135.03"/>
<polygon fill="#63b8ff" stroke="#63b8ff" points="298.37,-131.9 288.13,-129.17 294.43,-137.69 298.37,-131.9"/>
</a>
</g>
</g>
<!-- Node11 -->
<g id="Node000011" class="node">
<title>Node11</title>
<g id="a_Node000011"><a xlink:title=" ">
<polygon fill="#e0e0e0" stroke="#999999" points="511.87,-129 442.87,-129 442.87,-110 511.87,-110 511.87,-129"/>
<text text-anchor="middle" x="477.37" y="-117" font-family="Helvetica,sans-Serif" font-size="10.00">type_traits</text>
</a>
</g>
</g>
<!-- Node7&#45;&gt;Node11 -->
<g id="edge16_Node000007_Node000011" class="edge">
<title>Node7&#45;&gt;Node11</title>
<g id="a_edge16_Node000007_Node000011"><a xlink:title=" ">
<path fill="none" stroke="#63b8ff" d="M373.29,-164.98C393.42,-156.38 424.75,-142.99 447.78,-133.15"/>
<polygon fill="#63b8ff" stroke="#63b8ff" points="449.26,-136.32 457.08,-129.17 446.51,-129.88 449.26,-136.32"/>
</a>
</g>
</g>
<!-- Node12 -->
<g id="Node000012" class="node">
<title>Node12</title>
<g id="a_Node000012"><a xlink:href="../../d7/d5c/qcstring_8h.html" target="_top" xlink:title=" ">
<polygon fill="white" stroke="#666666" points="385.87,-129 320.87,-129 320.87,-110 385.87,-110 385.87,-129"/>
<text text-anchor="middle" x="353.37" y="-117" font-family="Helvetica,sans-Serif" font-size="10.00">qcstring.h</text>
</a>
</g>
</g>
<!-- Node7&#45;&gt;Node12 -->
<g id="edge17_Node000007_Node000012" class="edge">
<title>Node7&#45;&gt;Node12</title>
<g id="a_edge17_Node000007_Node000012"><a xlink:title=" ">
<path fill="none" stroke="#63b8ff" d="M353.37,-164.75C353.37,-157.8 353.37,-147.85 353.37,-139.13"/>
<polygon fill="#63b8ff" stroke="#63b8ff" points="356.87,-139.09 353.37,-129.09 349.87,-139.09 356.87,-139.09"/>
</a>
</g>
</g>
<!-- Node12&#45;&gt;Node2 -->
<g id="edge24_Node000012_Node000002" class="edge">
<title>Node12&#45;&gt;Node2</title>
<g id="a_edge24_Node000012_Node000002"><a xlink:title=" ">
<path fill="none" stroke="#63b8ff" d="M320.59,-111.55C265.85,-99.91 161.04,-77.37 153.37,-74 125.33,-61.68 97.02,-40.17 79.59,-25.64"/>
<polygon fill="#63b8ff" stroke="#63b8ff" points="81.84,-22.95 71.96,-19.13 77.3,-28.28 81.84,-22.95"/>
</a>
</g>
</g>
<!-- Node12&#45;&gt;Node4 -->
<g id="edge26_Node000012_Node000004" class="edge">
<title>Node12&#45;&gt;Node4</title>
<g id="a_edge26_Node000012_Node000004"><a xlink:title=" ">
<path fill="none" stroke="#63b8ff" d="M326.22,-109.98C296.41,-100.64 248.58,-85.64 216.82,-75.68"/>
<polygon fill="#63b8ff" stroke="#63b8ff" points="217.71,-72.29 207.12,-72.63 215.61,-78.97 217.71,-72.29"/>
</a>
</g>
</g>
<!-- Node12&#45;&gt;Node5 -->
<g id="edge18_Node000012_Node000005" class="edge">
<title>Node12&#45;&gt;Node5</title>
<g id="a_edge18_Node000012_Node000005"><a xlink:title=" ">
<path fill="none" stroke="#63b8ff" d="M385.88,-112.59C447.25,-101.36 574.32,-77.72 577.37,-74 620.14,-21.89 486.89,-12.37 422.78,-10.75"/>
<polygon fill="#63b8ff" stroke="#63b8ff" points="422.47,-7.25 412.4,-10.55 422.33,-14.25 422.47,-7.25"/>
</a>
</g>
</g>
<!-- Node12&#45;&gt;Node9 -->
<g id="edge22_Node000012_Node000009" class="edge">
<title>Node12&#45;&gt;Node9</title>
<g id="a_edge22_Node000012_Node000009"><a xlink:title=" ">
<path fill="none" stroke="#63b8ff" d="M385.98,-112.56C390.8,-111.7 395.71,-110.82 400.37,-110 493.63,-93.57 517.52,-92.61 610.37,-74 611.64,-73.75 612.94,-73.48 614.24,-73.21"/>
<polygon fill="#63b8ff" stroke="#63b8ff" points="615.3,-76.56 624.32,-71.01 613.8,-69.72 615.3,-76.56"/>
</a>
</g>
</g>
<!-- Node13 -->
<g id="Node000013" class="node">
<title>Node13</title>
<g id="a_Node000013"><a xlink:title=" ">
<polygon fill="#e0e0e0" stroke="#999999" points="364.37,-74 300.37,-74 300.37,-55 364.37,-55 364.37,-74"/>
<text text-anchor="middle" x="332.37" y="-62" font-family="Helvetica,sans-Serif" font-size="10.00">algorithm</text>
</a>
</g>
</g>
<!-- Node12&#45;&gt;Node13 -->
<g id="edge19_Node000012_Node000013" class="edge">
<title>Node12&#45;&gt;Node13</title>
<g id="a_edge19_Node000012_Node000013"><a xlink:title=" ">
<path fill="none" stroke="#63b8ff" d="M349.9,-109.75C347.09,-102.65 343.03,-92.4 339.52,-83.56"/>
<polygon fill="#63b8ff" stroke="#63b8ff" points="342.71,-82.1 335.77,-74.09 336.2,-84.68 342.71,-82.1"/>
</a>
</g>
</g>
<!-- Node14 -->
<g id="Node000014" class="node">
<title>Node14</title>
<g id="a_Node000014"><a xlink:title=" ">
<polygon fill="#e0e0e0" stroke="#999999" points="431.87,-74 382.87,-74 382.87,-55 431.87,-55 431.87,-74"/>
<text text-anchor="middle" x="407.37" y="-62" font-family="Helvetica,sans-Serif" font-size="10.00">cctype</text>
</a>
</g>
</g>
<!-- Node12&#45;&gt;Node14 -->
<g id="edge20_Node000012_Node000014" class="edge">
<title>Node12&#45;&gt;Node14</title>
<g id="a_edge20_Node000012_Node000014"><a xlink:title=" ">
<path fill="none" stroke="#63b8ff" d="M362.28,-109.75C370.15,-102.03 381.8,-90.6 391.29,-81.28"/>
<polygon fill="#63b8ff" stroke="#63b8ff" points="393.93,-83.59 398.62,-74.09 389.03,-78.6 393.93,-83.59"/>
</a>
</g>
</g>
<!-- Node15 -->
<g id="Node000015" class="node">
<title>Node15</title>
<g id="a_Node000015"><a xlink:title=" ">
<polygon fill="#e0e0e0" stroke="#999999" points="500.37,-74 450.37,-74 450.37,-55 500.37,-55 500.37,-74"/>
<text text-anchor="middle" x="475.37" y="-62" font-family="Helvetica,sans-Serif" font-size="10.00">cstring</text>
</a>
</g>
</g>
<!-- Node12&#45;&gt;Node15 -->
<g id="edge21_Node000012_Node000015" class="edge">
<title>Node12&#45;&gt;Node15</title>
<g id="a_edge21_Node000012_Node000015"><a xlink:title=" ">
<path fill="none" stroke="#63b8ff" d="M372.97,-109.98C392.68,-101.42 423.32,-88.11 445.95,-78.28"/>
<polygon fill="#63b8ff" stroke="#63b8ff" points="447.63,-81.37 455.41,-74.17 444.84,-74.94 447.63,-81.37"/>
</a>
</g>
</g>
<!-- Node16 -->
<g id="Node000016" class="node">
<title>Node16</title>
<g id="a_Node000016"><a xlink:title=" ">
<polygon fill="#e0e0e0" stroke="#999999" points="567.87,-74 518.87,-74 518.87,-55 567.87,-55 567.87,-74"/>
<text text-anchor="middle" x="543.37" y="-62" font-family="Helvetica,sans-Serif" font-size="10.00">cstdlib</text>
</a>
</g>
</g>
<!-- Node12&#45;&gt;Node16 -->
<g id="edge23_Node000012_Node000016" class="edge">
<title>Node12&#45;&gt;Node16</title>
<g id="a_edge23_Node000012_Node000016"><a xlink:title=" ">
<path fill="none" stroke="#63b8ff" d="M383.89,-109.98C417.98,-100.48 473.03,-85.12 508.71,-75.17"/>
<polygon fill="#63b8ff" stroke="#63b8ff" points="509.98,-78.45 518.67,-72.39 508.09,-71.71 509.98,-78.45"/>
</a>
</g>
</g>
<!-- Node17 -->
<g id="Node000017" class="node">
<title>Node17</title>
<g id="a_Node000017"><a xlink:title=" ">
<polygon fill="#e0e0e0" stroke="#999999" points="281.87,-74 224.87,-74 224.87,-55 281.87,-55 281.87,-74"/>
<text text-anchor="middle" x="253.37" y="-62" font-family="Helvetica,sans-Serif" font-size="10.00">ostream</text>
</a>
</g>
</g>
<!-- Node12&#45;&gt;Node17 -->
<g id="edge25_Node000012_Node000017" class="edge">
<title>Node12&#45;&gt;Node17</title>
<g id="a_edge25_Node000012_Node000017"><a xlink:title=" ">
<path fill="none" stroke="#63b8ff" d="M337.3,-109.98C321.5,-101.61 297.15,-88.7 278.74,-78.95"/>
<polygon fill="#63b8ff" stroke="#63b8ff" points="280.2,-75.76 269.73,-74.17 276.92,-81.95 280.2,-75.76"/>
</a>
</g>
</g>
</g>
</svg>
