<?xml version="1.0" encoding="UTF-8" standalone="no"?>
<!DOCTYPE svg PUBLIC "-//W3C//DTD SVG 1.1//EN"
 "http://www.w3.org/Graphics/SVG/1.1/DTD/svg11.dtd">
<!-- Generated by graphviz version 2.43.0 (0)
 -->
<!-- Title: src/utf8.cpp Pages: 1 -->
<!--zoomable 247 -->

<svg id="main" version="1.1" xmlns="http://www.w3.org/2000/svg" xmlns:xlink="http://www.w3.org/1999/xlink" xml:space="preserve" onload="init(evt)">

<style type="text/css"><![CDATA[
.node, .edge {opacity: 0.7;}
.node.selected, .edge.selected {opacity: 1;}
.edge:hover path { stroke: red; }
.edge:hover polygon { stroke: red; fill: red; }
]]></style>

<defs>
  <circle id="rim" cx="0" cy="0" r="7"/>
  <circle id="rim2" cx="0" cy="0" r="3.5"/>
  <g id="zoomPlus">
    <use xlink:href="#rim" fill="#404040"><set attributeName="fill" to="#808080" begin="zoomplus.mouseover" end="zoomplus.mouseout"/></use>
    <path d="M-4,0h8M0,-4v8" fill="none" stroke="white" stroke-width="1.5" pointer-events="none"/>
  </g>
  <g id="zoomMin">
    <use xlink:href="#rim" fill="#404040"><set attributeName="fill" to="#808080" begin="zoomminus.mouseover" end="zoomminus.mouseout"/></use>
    <path d="M-4,0h8" fill="none" stroke="white" stroke-width="1.5" pointer-events="none"/>
  </g>
  <g id="arrowUp" transform="translate(30 24)">
    <use xlink:href="#rim"/>
    <path pointer-events="none" fill="none" stroke="white" stroke-width="1.5" d="M0,-3.0v7 M-2.5,-0.5L0,-3.0L2.5,-0.5"/>
  </g>
  <g id="arrowRight" transform="rotate(90) translate(36 -43)">
    <use xlink:href="#rim"/>
    <path pointer-events="none" fill="none" stroke="white" stroke-width="1.5" d="M0,-3.0v7 M-2.5,-0.5L0,-3.0L2.5,-0.5"/>
  </g>
  <g id="arrowDown" transform="rotate(180) translate(-30 -48)">
    <use xlink:href="#rim"/>
    <path pointer-events="none" fill="none" stroke="white" stroke-width="1.5" d="M0,-3.0v7 M-2.5,-0.5L0,-3.0L2.5,-0.5"/>
  </g>
  <g id="arrowLeft" transform="rotate(270) translate(-36 17)">
    <use xlink:href="#rim"/>
    <path pointer-events="none" fill="none" stroke="white" stroke-width="1.5" d="M0,-3.0v7 M-2.5,-0.5L0,-3.0L2.5,-0.5"/>
  </g>
  <g id="resetDef">
    <use xlink:href="#rim2" fill="#404040"><set attributeName="fill" to="#808080" begin="reset.mouseover" end="reset.mouseout"/></use>
  </g>
</defs>
<script type="application/ecmascript">
var viewWidth = 817;
var viewHeight = 247;
var sectionId = 'dynsection-0';
</script>
<script type="application/ecmascript" xlink:href="../../svg.min.js"/>
<svg id="graph" class="graph">
<g id="viewport">
<title>src/utf8.cpp</title>
<!-- Node1 -->
<g id="Node000001" class="node">
<title>Node1</title>
<g id="a_Node000001"><a xlink:title=" ">
<polygon fill="#999999" stroke="#666666" points="463.29,-239 389.29,-239 389.29,-220 463.29,-220 463.29,-239"/>
<text text-anchor="middle" x="426.29" y="-227" font-family="Helvetica,sans-Serif" font-size="10.00">src/utf8.cpp</text>
</a>
</g>
</g>
<!-- Node2 -->
<g id="Node000002" class="node">
<title>Node2</title>
<g id="a_Node000002"><a xlink:title=" ">
<polygon fill="#e0e0e0" stroke="#999999" points="90.29,-19 40.29,-19 40.29,0 90.29,0 90.29,-19"/>
<text text-anchor="middle" x="65.29" y="-7" font-family="Helvetica,sans-Serif" font-size="10.00">cstdint</text>
</a>
</g>
</g>
<!-- Node1&#45;&gt;Node2 -->
<g id="edge1_Node000001_Node000002" class="edge">
<title>Node1&#45;&gt;Node2</title>
<g id="a_edge1_Node000001_Node000002"><a xlink:title=" ">
<path fill="none" stroke="#63b8ff" d="M389,-225.49C295.4,-217.09 54.74,-189.86 8.29,-129 -16.95,-95.92 22.65,-49.87 47.55,-26.09"/>
<polygon fill="#63b8ff" stroke="#63b8ff" points="50.05,-28.55 55.02,-19.2 45.3,-23.41 50.05,-28.55"/>
</a>
</g>
</g>
<!-- Node3 -->
<g id="Node000003" class="node">
<title>Node3</title>
<g id="a_Node000003"><a xlink:title=" ">
<polygon fill="#e0e0e0" stroke="#999999" points="73.29,-129 17.29,-129 17.29,-110 73.29,-110 73.29,-129"/>
<text text-anchor="middle" x="45.29" y="-117" font-family="Helvetica,sans-Serif" font-size="10.00">sstream</text>
</a>
</g>
</g>
<!-- Node1&#45;&gt;Node3 -->
<g id="edge2_Node000001_Node000003" class="edge">
<title>Node1&#45;&gt;Node3</title>
<g id="a_edge2_Node000001_Node000003"><a xlink:title=" ">
<path fill="none" stroke="#63b8ff" d="M396.08,-219.94C327.33,-200.45 159.3,-152.82 83.49,-131.33"/>
<polygon fill="#63b8ff" stroke="#63b8ff" points="84.01,-127.84 73.43,-128.48 82.1,-134.57 84.01,-127.84"/>
</a>
</g>
</g>
<!-- Node4 -->
<g id="Node000004" class="node">
<title>Node4</title>
<g id="a_Node000004"><a xlink:href="../../db/d7c/utf8_8h.html" target="_top" xlink:title="Various UTF8 related helper functions.">
<polygon fill="white" stroke="#666666" points="692.79,-74 647.79,-74 647.79,-55 692.79,-55 692.79,-74"/>
<text text-anchor="middle" x="670.29" y="-62" font-family="Helvetica,sans-Serif" font-size="10.00">utf8.h</text>
</a>
</g>
</g>
<!-- Node1&#45;&gt;Node4 -->
<g id="edge3_Node000001_Node000004" class="edge">
<title>Node1&#45;&gt;Node4</title>
<g id="a_edge3_Node000001_Node000004"><a xlink:title=" ">
<path fill="none" stroke="#63b8ff" d="M463.48,-222.67C514.29,-212.7 604.73,-187.48 654.29,-129 664.75,-116.67 668.52,-98.45 669.82,-84.68"/>
<polygon fill="#63b8ff" stroke="#63b8ff" points="673.33,-84.58 670.41,-74.39 666.34,-84.18 673.33,-84.58"/>
</a>
</g>
</g>
<!-- Node6 -->
<g id="Node000006" class="node">
<title>Node6</title>
<g id="a_Node000006"><a xlink:href="../../db/dca/caseconvert_8h.html" target="_top" xlink:title=" ">
<polygon fill="white" stroke="#666666" points="795.79,-74 710.79,-74 710.79,-55 795.79,-55 795.79,-74"/>
<text text-anchor="middle" x="753.29" y="-62" font-family="Helvetica,sans-Serif" font-size="10.00">caseconvert.h</text>
</a>
</g>
</g>
<!-- Node1&#45;&gt;Node6 -->
<g id="edge6_Node000001_Node000006" class="edge">
<title>Node1&#45;&gt;Node6</title>
<g id="a_edge6_Node000001_Node000006"><a xlink:title=" ">
<path fill="none" stroke="#63b8ff" d="M463.46,-224.63C502.1,-219.47 563.48,-208.03 611.29,-184 664.36,-157.33 714.88,-107.33 738.82,-81.64"/>
<polygon fill="#63b8ff" stroke="#63b8ff" points="741.45,-83.95 745.63,-74.22 736.3,-79.22 741.45,-83.95"/>
</a>
</g>
</g>
<!-- Node7 -->
<g id="Node000007" class="node">
<title>Node7</title>
<g id="a_Node000007"><a xlink:href="../../d4/d7d/textstream_8h.html" target="_top" xlink:title=" ">
<polygon fill="white" stroke="#666666" points="466.29,-184 386.29,-184 386.29,-165 466.29,-165 466.29,-184"/>
<text text-anchor="middle" x="426.29" y="-172" font-family="Helvetica,sans-Serif" font-size="10.00">textstream.h</text>
</a>
</g>
</g>
<!-- Node1&#45;&gt;Node7 -->
<g id="edge9_Node000001_Node000007" class="edge">
<title>Node1&#45;&gt;Node7</title>
<g id="a_edge9_Node000001_Node000007"><a xlink:title=" ">
<path fill="none" stroke="#63b8ff" d="M426.29,-219.75C426.29,-212.8 426.29,-202.85 426.29,-194.13"/>
<polygon fill="#63b8ff" stroke="#63b8ff" points="429.79,-194.09 426.29,-184.09 422.79,-194.09 429.79,-194.09"/>
</a>
</g>
</g>
<!-- Node4&#45;&gt;Node2 -->
<g id="edge4_Node000004_Node000002" class="edge">
<title>Node4&#45;&gt;Node2</title>
<g id="a_edge4_Node000004_Node000002"><a xlink:title=" ">
<path fill="none" stroke="#63b8ff" d="M647.68,-56.95C644.55,-56.2 641.35,-55.52 638.29,-55 436.73,-20.7 190.71,-12.8 100.55,-11.01"/>
<polygon fill="#63b8ff" stroke="#63b8ff" points="100.41,-7.51 90.34,-10.82 100.28,-14.51 100.41,-7.51"/>
</a>
</g>
</g>
<!-- Node5 -->
<g id="Node000005" class="node">
<title>Node5</title>
<g id="a_Node000005"><a xlink:title=" ">
<polygon fill="#e0e0e0" stroke="#999999" points="733.29,-19 689.29,-19 689.29,0 733.29,0 733.29,-19"/>
<text text-anchor="middle" x="711.29" y="-7" font-family="Helvetica,sans-Serif" font-size="10.00">string</text>
</a>
</g>
</g>
<!-- Node4&#45;&gt;Node5 -->
<g id="edge5_Node000004_Node000005" class="edge">
<title>Node4&#45;&gt;Node5</title>
<g id="a_edge5_Node000004_Node000005"><a xlink:title=" ">
<path fill="none" stroke="#63b8ff" d="M677.06,-54.75C682.86,-47.26 691.35,-36.28 698.43,-27.13"/>
<polygon fill="#63b8ff" stroke="#63b8ff" points="701.3,-29.14 704.65,-19.09 695.76,-24.86 701.3,-29.14"/>
</a>
</g>
</g>
<!-- Node6&#45;&gt;Node2 -->
<g id="edge7_Node000006_Node000002" class="edge">
<title>Node6&#45;&gt;Node2</title>
<g id="a_edge7_Node000006_Node000002"><a xlink:title=" ">
<path fill="none" stroke="#63b8ff" d="M710.77,-56.22C707.57,-55.77 704.38,-55.36 701.29,-55 473.19,-28.43 197.08,-15.7 100.6,-11.83"/>
<polygon fill="#63b8ff" stroke="#63b8ff" points="100.65,-8.33 90.52,-11.43 100.37,-15.32 100.65,-8.33"/>
</a>
</g>
</g>
<!-- Node6&#45;&gt;Node5 -->
<g id="edge8_Node000006_Node000005" class="edge">
<title>Node6&#45;&gt;Node5</title>
<g id="a_edge8_Node000006_Node000005"><a xlink:title=" ">
<path fill="none" stroke="#63b8ff" d="M746.36,-54.75C740.43,-47.26 731.72,-36.28 724.47,-27.13"/>
<polygon fill="#63b8ff" stroke="#63b8ff" points="727.05,-24.75 718.1,-19.09 721.57,-29.1 727.05,-24.75"/>
</a>
</g>
</g>
<!-- Node7&#45;&gt;Node2 -->
<g id="edge13_Node000007_Node000002" class="edge">
<title>Node7&#45;&gt;Node2</title>
<g id="a_edge13_Node000007_Node000002"><a xlink:title=" ">
<path fill="none" stroke="#63b8ff" d="M386.19,-168.4C301.26,-156.69 107.86,-124.9 69.29,-74 59.81,-61.48 59.63,-43.28 61.34,-29.57"/>
<polygon fill="#63b8ff" stroke="#63b8ff" points="64.85,-29.78 63.06,-19.33 57.95,-28.61 64.85,-29.78"/>
</a>
</g>
</g>
<!-- Node7&#45;&gt;Node3 -->
<g id="edge12_Node000007_Node000003" class="edge">
<title>Node7&#45;&gt;Node3</title>
<g id="a_edge12_Node000007_Node000003"><a xlink:title=" ">
<path fill="none" stroke="#63b8ff" d="M386.24,-169.15C322.67,-162.04 194.88,-146.93 87.29,-129 86.19,-128.82 85.08,-128.63 83.95,-128.43"/>
<polygon fill="#63b8ff" stroke="#63b8ff" points="84.18,-124.91 73.71,-126.53 82.9,-131.79 84.18,-124.91"/>
</a>
</g>
</g>
<!-- Node7&#45;&gt;Node5 -->
<g id="edge10_Node000007_Node000005" class="edge">
<title>Node7&#45;&gt;Node5</title>
<g id="a_edge10_Node000007_Node000005"><a xlink:title=" ">
<path fill="none" stroke="#63b8ff" d="M466.4,-169.36C555.54,-159.22 765.34,-129.77 804.29,-74 823.06,-47.13 777.36,-28.22 743.58,-18.37"/>
<polygon fill="#63b8ff" stroke="#63b8ff" points="744.14,-14.89 733.57,-15.6 742.27,-21.64 744.14,-14.89"/>
</a>
</g>
</g>
<!-- Node8 -->
<g id="Node000008" class="node">
<title>Node8</title>
<g id="a_Node000008"><a xlink:title=" ">
<polygon fill="#e0e0e0" stroke="#999999" points="628.29,-129 568.29,-129 568.29,-110 628.29,-110 628.29,-129"/>
<text text-anchor="middle" x="598.29" y="-117" font-family="Helvetica,sans-Serif" font-size="10.00">iostream</text>
</a>
</g>
</g>
<!-- Node7&#45;&gt;Node8 -->
<g id="edge11_Node000007_Node000008" class="edge">
<title>Node7&#45;&gt;Node8</title>
<g id="a_edge11_Node000007_Node000008"><a xlink:title=" ">
<path fill="none" stroke="#63b8ff" d="M453.93,-164.98C482.81,-156.09 528.31,-142.07 560.5,-132.15"/>
<polygon fill="#63b8ff" stroke="#63b8ff" points="561.92,-135.37 570.44,-129.08 559.85,-128.68 561.92,-135.37"/>
</a>
</g>
</g>
<!-- Node9 -->
<g id="Node000009" class="node">
<title>Node9</title>
<g id="a_Node000009"><a xlink:title=" ">
<polygon fill="#e0e0e0" stroke="#999999" points="629.29,-74 583.29,-74 583.29,-55 629.29,-55 629.29,-74"/>
<text text-anchor="middle" x="606.29" y="-62" font-family="Helvetica,sans-Serif" font-size="10.00">cstdio</text>
</a>
</g>
</g>
<!-- Node7&#45;&gt;Node9 -->
<g id="edge14_Node000007_Node000009" class="edge">
<title>Node7&#45;&gt;Node9</title>
<g id="a_edge14_Node000007_Node000009"><a xlink:title=" ">
<path fill="none" stroke="#63b8ff" d="M466.35,-170.91C521.44,-166.41 616.19,-155.02 637.29,-129 649.05,-114.5 635.88,-94.81 623.27,-81.22"/>
<polygon fill="#63b8ff" stroke="#63b8ff" points="625.63,-78.63 616.09,-74 620.66,-83.56 625.63,-78.63"/>
</a>
</g>
</g>
<!-- Node10 -->
<g id="Node000010" class="node">
<title>Node10</title>
<g id="a_Node000010"><a xlink:title=" ">
<polygon fill="#e0e0e0" stroke="#999999" points="373.79,-129 318.79,-129 318.79,-110 373.79,-110 373.79,-129"/>
<text text-anchor="middle" x="346.29" y="-117" font-family="Helvetica,sans-Serif" font-size="10.00">fstream</text>
</a>
</g>
</g>
<!-- Node7&#45;&gt;Node10 -->
<g id="edge15_Node000007_Node000010" class="edge">
<title>Node7&#45;&gt;Node10</title>
<g id="a_edge15_Node000007_Node000010"><a xlink:title=" ">
<path fill="none" stroke="#63b8ff" d="M413.44,-164.98C401.15,-156.84 382.39,-144.41 367.82,-134.76"/>
<polygon fill="#63b8ff" stroke="#63b8ff" points="369.65,-131.78 359.38,-129.17 365.78,-137.61 369.65,-131.78"/>
</a>
</g>
</g>
<!-- Node11 -->
<g id="Node000011" class="node">
<title>Node11</title>
<g id="a_Node000011"><a xlink:title=" ">
<polygon fill="#e0e0e0" stroke="#999999" points="460.79,-129 391.79,-129 391.79,-110 460.79,-110 460.79,-129"/>
<text text-anchor="middle" x="426.29" y="-117" font-family="Helvetica,sans-Serif" font-size="10.00">type_traits</text>
</a>
</g>
</g>
<!-- Node7&#45;&gt;Node11 -->
<g id="edge16_Node000007_Node000011" class="edge">
<title>Node7&#45;&gt;Node11</title>
<g id="a_edge16_Node000007_Node000011"><a xlink:title=" ">
<path fill="none" stroke="#63b8ff" d="M426.29,-164.75C426.29,-157.8 426.29,-147.85 426.29,-139.13"/>
<polygon fill="#63b8ff" stroke="#63b8ff" points="429.79,-139.09 426.29,-129.09 422.79,-139.09 429.79,-139.09"/>
</a>
</g>
</g>
<!-- Node12 -->
<g id="Node000012" class="node">
<title>Node12</title>
<g id="a_Node000012"><a xlink:href="../../d7/d5c/qcstring_8h.html" target="_top" xlink:title=" ">
<polygon fill="white" stroke="#666666" points="300.79,-129 235.79,-129 235.79,-110 300.79,-110 300.79,-129"/>
<text text-anchor="middle" x="268.29" y="-117" font-family="Helvetica,sans-Serif" font-size="10.00">qcstring.h</text>
</a>
</g>
</g>
<!-- Node7&#45;&gt;Node12 -->
<g id="edge17_Node000007_Node000012" class="edge">
<title>Node7&#45;&gt;Node12</title>
<g id="a_edge17_Node000007_Node000012"><a xlink:title=" ">
<path fill="none" stroke="#63b8ff" d="M400.91,-164.98C374.5,-156.13 332.95,-142.19 303.4,-132.28"/>
<polygon fill="#63b8ff" stroke="#63b8ff" points="304.47,-128.94 293.88,-129.08 302.25,-135.58 304.47,-128.94"/>
</a>
</g>
</g>
<!-- Node19 -->
<g id="Node000019" class="node">
<title>Node19</title>
<g id="a_Node000019"><a xlink:href="../../d7/dfc/construct_8h.html" target="_top" xlink:title=" ">
<polygon fill="white" stroke="#666666" points="549.79,-129 478.79,-129 478.79,-110 549.79,-110 549.79,-129"/>
<text text-anchor="middle" x="514.29" y="-117" font-family="Helvetica,sans-Serif" font-size="10.00">construct.h</text>
</a>
</g>
</g>
<!-- Node7&#45;&gt;Node19 -->
<g id="edge28_Node000007_Node000019" class="edge">
<title>Node7&#45;&gt;Node19</title>
<g id="a_edge28_Node000007_Node000019"><a xlink:title=" ">
<path fill="none" stroke="#63b8ff" d="M440.43,-164.98C454.08,-156.77 474.98,-144.18 491.07,-134.49"/>
<polygon fill="#63b8ff" stroke="#63b8ff" points="493.14,-137.33 499.9,-129.17 489.53,-131.33 493.14,-137.33"/>
</a>
</g>
</g>
<!-- Node12&#45;&gt;Node2 -->
<g id="edge25_Node000012_Node000002" class="edge">
<title>Node12&#45;&gt;Node2</title>
<g id="a_edge25_Node000012_Node000002"><a xlink:title=" ">
<path fill="none" stroke="#63b8ff" d="M235.73,-114.55C188.92,-108.23 105.88,-94.46 84.29,-74 72.17,-62.51 67.69,-43.63 66.08,-29.43"/>
<polygon fill="#63b8ff" stroke="#63b8ff" points="69.55,-29 65.31,-19.29 62.57,-29.52 69.55,-29"/>
</a>
</g>
</g>
<!-- Node12&#45;&gt;Node4 -->
<g id="edge27_Node000012_Node000004" class="edge">
<title>Node12&#45;&gt;Node4</title>
<g id="a_edge27_Node000012_Node000004"><a xlink:title=" ">
<path fill="none" stroke="#63b8ff" d="M300.92,-111.44C303.74,-110.92 306.56,-110.43 309.29,-110 451.32,-87.56 491.88,-100.35 637.46,-73.85"/>
<polygon fill="#63b8ff" stroke="#63b8ff" points="638.47,-77.22 647.66,-71.96 637.19,-70.34 638.47,-77.22"/>
</a>
</g>
</g>
<!-- Node12&#45;&gt;Node5 -->
<g id="edge18_Node000012_Node000005" class="edge">
<title>Node12&#45;&gt;Node5</title>
<g id="a_edge18_Node000012_Node000005"><a xlink:title=" ">
<path fill="none" stroke="#63b8ff" d="M300.94,-111.59C303.76,-111.04 306.58,-110.5 309.29,-110 409.34,-91.67 438.3,-104.61 535.29,-74 553.68,-68.2 556.41,-62.22 574.29,-55 609.61,-40.74 651.39,-27.7 679.45,-19.47"/>
<polygon fill="#63b8ff" stroke="#63b8ff" points="680.5,-22.81 689.13,-16.67 678.55,-16.09 680.5,-22.81"/>
</a>
</g>
</g>
<!-- Node12&#45;&gt;Node9 -->
<g id="edge23_Node000012_Node000009" class="edge">
<title>Node12&#45;&gt;Node9</title>
<g id="a_edge23_Node000012_Node000009"><a xlink:title=" ">
<path fill="none" stroke="#63b8ff" d="M300.93,-111.53C303.75,-110.99 306.57,-110.47 309.29,-110 424.25,-90.15 454.56,-95.08 569.29,-74 570.57,-73.77 571.87,-73.52 573.18,-73.26"/>
<polygon fill="#63b8ff" stroke="#63b8ff" points="574.21,-76.62 583.27,-71.12 572.76,-69.77 574.21,-76.62"/>
</a>
</g>
</g>
<!-- Node13 -->
<g id="Node000013" class="node">
<title>Node13</title>
<g id="a_Node000013"><a xlink:title=" ">
<polygon fill="#e0e0e0" stroke="#999999" points="526.79,-74 453.79,-74 453.79,-55 526.79,-55 526.79,-74"/>
<text text-anchor="middle" x="490.29" y="-62" font-family="Helvetica,sans-Serif" font-size="10.00">string_view</text>
</a>
</g>
</g>
<!-- Node12&#45;&gt;Node13 -->
<g id="edge19_Node000012_Node000013" class="edge">
<title>Node12&#45;&gt;Node13</title>
<g id="a_edge19_Node000012_Node000013"><a xlink:title=" ">
<path fill="none" stroke="#63b8ff" d="M301.05,-110.68C339.01,-101.62 401.82,-86.62 444.58,-76.41"/>
<polygon fill="#63b8ff" stroke="#63b8ff" points="445.54,-79.78 454.46,-74.06 443.92,-72.97 445.54,-79.78"/>
</a>
</g>
</g>
<!-- Node14 -->
<g id="Node000014" class="node">
<title>Node14</title>
<g id="a_Node000014"><a xlink:title=" ">
<polygon fill="#e0e0e0" stroke="#999999" points="157.29,-74 93.29,-74 93.29,-55 157.29,-55 157.29,-74"/>
<text text-anchor="middle" x="125.29" y="-62" font-family="Helvetica,sans-Serif" font-size="10.00">algorithm</text>
</a>
</g>
</g>
<!-- Node12&#45;&gt;Node14 -->
<g id="edge20_Node000012_Node000014" class="edge">
<title>Node12&#45;&gt;Node14</title>
<g id="a_edge20_Node000012_Node000014"><a xlink:title=" ">
<path fill="none" stroke="#63b8ff" d="M245.32,-109.98C221.8,-101.27 185.01,-87.63 158.36,-77.75"/>
<polygon fill="#63b8ff" stroke="#63b8ff" points="159.28,-74.36 148.69,-74.17 156.85,-80.93 159.28,-74.36"/>
</a>
</g>
</g>
<!-- Node15 -->
<g id="Node000015" class="node">
<title>Node15</title>
<g id="a_Node000015"><a xlink:title=" ">
<polygon fill="#e0e0e0" stroke="#999999" points="224.79,-74 175.79,-74 175.79,-55 224.79,-55 224.79,-74"/>
<text text-anchor="middle" x="200.29" y="-62" font-family="Helvetica,sans-Serif" font-size="10.00">cctype</text>
</a>
</g>
</g>
<!-- Node12&#45;&gt;Node15 -->
<g id="edge21_Node000012_Node000015" class="edge">
<title>Node12&#45;&gt;Node15</title>
<g id="a_edge21_Node000012_Node000015"><a xlink:title=" ">
<path fill="none" stroke="#63b8ff" d="M257.37,-109.98C247.22,-102.07 231.87,-90.11 219.65,-80.58"/>
<polygon fill="#63b8ff" stroke="#63b8ff" points="221.46,-77.56 211.42,-74.17 217.15,-83.08 221.46,-77.56"/>
</a>
</g>
</g>
<!-- Node16 -->
<g id="Node000016" class="node">
<title>Node16</title>
<g id="a_Node000016"><a xlink:title=" ">
<polygon fill="#e0e0e0" stroke="#999999" points="293.29,-74 243.29,-74 243.29,-55 293.29,-55 293.29,-74"/>
<text text-anchor="middle" x="268.29" y="-62" font-family="Helvetica,sans-Serif" font-size="10.00">cstring</text>
</a>
</g>
</g>
<!-- Node12&#45;&gt;Node16 -->
<g id="edge22_Node000012_Node000016" class="edge">
<title>Node12&#45;&gt;Node16</title>
<g id="a_edge22_Node000012_Node000016"><a xlink:title=" ">
<path fill="none" stroke="#63b8ff" d="M268.29,-109.75C268.29,-102.8 268.29,-92.85 268.29,-84.13"/>
<polygon fill="#63b8ff" stroke="#63b8ff" points="271.79,-84.09 268.29,-74.09 264.79,-84.09 271.79,-84.09"/>
</a>
</g>
</g>
<!-- Node17 -->
<g id="Node000017" class="node">
<title>Node17</title>
<g id="a_Node000017"><a xlink:title=" ">
<polygon fill="#e0e0e0" stroke="#999999" points="360.79,-74 311.79,-74 311.79,-55 360.79,-55 360.79,-74"/>
<text text-anchor="middle" x="336.29" y="-62" font-family="Helvetica,sans-Serif" font-size="10.00">cstdlib</text>
</a>
</g>
</g>
<!-- Node12&#45;&gt;Node17 -->
<g id="edge24_Node000012_Node000017" class="edge">
<title>Node12&#45;&gt;Node17</title>
<g id="a_edge24_Node000012_Node000017"><a xlink:title=" ">
<path fill="none" stroke="#63b8ff" d="M279.22,-109.98C289.37,-102.07 304.72,-90.11 316.94,-80.58"/>
<polygon fill="#63b8ff" stroke="#63b8ff" points="319.43,-83.08 325.17,-74.17 315.13,-77.56 319.43,-83.08"/>
</a>
</g>
</g>
<!-- Node18 -->
<g id="Node000018" class="node">
<title>Node18</title>
<g id="a_Node000018"><a xlink:title=" ">
<polygon fill="#e0e0e0" stroke="#999999" points="435.79,-74 378.79,-74 378.79,-55 435.79,-55 435.79,-74"/>
<text text-anchor="middle" x="407.29" y="-62" font-family="Helvetica,sans-Serif" font-size="10.00">ostream</text>
</a>
</g>
</g>
<!-- Node12&#45;&gt;Node18 -->
<g id="edge26_Node000012_Node000018" class="edge">
<title>Node12&#45;&gt;Node18</title>
<g id="a_edge26_Node000012_Node000018"><a xlink:title=" ">
<path fill="none" stroke="#63b8ff" d="M290.63,-109.98C313.49,-101.27 349.25,-87.63 375.16,-77.75"/>
<polygon fill="#63b8ff" stroke="#63b8ff" points="376.46,-81 384.55,-74.17 373.96,-74.46 376.46,-81"/>
</a>
</g>
</g>
</g>
</svg>

<g id="navigator" transform="translate(0 0)" fill="#404254">
  <rect fill="#f2f5e9" fill-opacity="0.5" stroke="#606060" stroke-width=".5" x="0" y="0" width="60" height="60"/>
  <use id="zoomplus" xlink:href="#zoomPlus" x="17" y="9" onmousedown="handleZoom(evt,'in')"/>
  <use id="zoomminus" xlink:href="#zoomMin" x="42" y="9" onmousedown="handleZoom(evt,'out')"/>
  <use id="reset" xlink:href="#resetDef" x="30" y="36" onmousedown="handleReset()"/>
   <use id="arrowup" xlink:href="#arrowUp" x="0" y="0" onmousedown="handlePan(0,-1)"/>
  <use id="arrowright" xlink:href="#arrowRight" x="0" y="0" onmousedown="handlePan(1,0)"/>
  <use id="arrowdown" xlink:href="#arrowDown" x="0" y="0" onmousedown="handlePan(0,1)"/>
  <use id="arrowleft" xlink:href="#arrowLeft" x="0" y="0" onmousedown="handlePan(-1,0)"/>
</g>
<svg viewBox="0 0 15 15" width="100%" height="30px" preserveAspectRatio="xMaxYMin meet">
 <g id="arrow_out" transform="scale(0.3 0.3)">
  <a xlink:href="utf8_8cpp__incl_org.svg" target="_base">
   <rect id="button" ry="5" rx="5" y="6" x="6" height="38" width="38"
        fill="#f2f5e9" fill-opacity="0.5" stroke="#606060" stroke-width="1.0"/>
   <path id="arrow"
     d="M 11.500037,31.436501 C 11.940474,20.09759 22.043105,11.32322 32.158766,21.979434 L 37.068811,17.246167 C 37.068811,17.246167 37.088388,32 37.088388,32 L 22.160133,31.978069 C 22.160133,31.978069 26.997745,27.140456 26.997745,27.140456 C 18.528582,18.264221 13.291696,25.230495 11.500037,31.436501 z"
     style="fill:#404040;"/>
  </a>
 </g>
</svg>

<style type='text/css'>
<![CDATA[
[data-mouse-over-selected='false'] { opacity: 0.7; }
[data-mouse-over-selected='true']  { opacity: 1.0; }
]]>
</style>
<script type="application/ecmascript"><![CDATA[
document.addEventListener('DOMContentLoaded', (event) => {
  highlightEdges();
  highlightAdjacentNodes();
});
]]></script>
</svg>
