<?xml version="1.0" encoding="UTF-8" standalone="no"?>
<!DOCTYPE svg PUBLIC "-//W3C//DTD SVG 1.1//EN"
 "http://www.w3.org/Graphics/SVG/1.1/DTD/svg11.dtd">
<!-- Generated by graphviz version 2.43.0 (0)
 -->
<!-- Title: XMLCodeParser::Private Pages: 1 -->
<svg width="508pt" height="328pt"
 viewBox="0.00 0.00 508.00 328.00" xmlns="http://www.w3.org/2000/svg" xmlns:xlink="http://www.w3.org/1999/xlink">
<g id="graph0" class="graph" transform="scale(1 1) rotate(0) translate(4 324)">
<title>XMLCodeParser::Private</title>
<!-- Node1 -->
<g id="Node000001" class="node">
<title>Node1</title>
<g id="a_Node000001"><a xlink:title=" ">
<polygon fill="#999999" stroke="#666666" points="302.5,-19 169.5,-19 169.5,0 302.5,0 302.5,-19"/>
<text text-anchor="middle" x="236" y="-7" font-family="Helvetica,sans-Serif" font-size="10.00">XMLCodeParser::Private</text>
</a>
</g>
</g>
<!-- Node2 -->
<g id="Node000002" class="node">
<title>Node2</title>
<g id="a_Node000002"><a xlink:href="../../d1/d7e/structxmlcode_y_y__state.html" target="_top" xlink:title=" ">
<polygon fill="white" stroke="#666666" points="286.5,-85 185.5,-85 185.5,-66 286.5,-66 286.5,-85"/>
<text text-anchor="middle" x="236" y="-73" font-family="Helvetica,sans-Serif" font-size="10.00">xmlcodeYY_state</text>
</a>
</g>
</g>
<!-- Node2&#45;&gt;Node1 -->
<g id="edge1_Node000001_Node000002" class="edge">
<title>Node2&#45;&gt;Node1</title>
<g id="a_edge1_Node000001_Node000002"><a xlink:title=" ">
<path fill="none" stroke="#9a32cd" stroke-dasharray="5,2" d="M236,-55.58C236,-43.63 236,-28.72 236,-19.41"/>
<polygon fill="#9a32cd" stroke="#9a32cd" points="232.5,-55.87 236,-65.87 239.5,-55.87 232.5,-55.87"/>
</a>
</g>
<text text-anchor="middle" x="250" y="-40" font-family="Helvetica,sans-Serif" font-size="10.00" fill="grey"> state</text>
</g>
<!-- Node3 -->
<g id="Node000003" class="node">
<title>Node3</title>
<g id="a_Node000003"><a xlink:href="../../db/d8e/class_output_code_list.html" target="_top" xlink:title="Class representing a list of different code generators.">
<polygon fill="white" stroke="#666666" points="92,-262.5 0,-262.5 0,-243.5 92,-243.5 92,-262.5"/>
<text text-anchor="middle" x="46" y="-250.5" font-family="Helvetica,sans-Serif" font-size="10.00">OutputCodeList</text>
</a>
</g>
</g>
<!-- Node3&#45;&gt;Node2 -->
<g id="edge2_Node000002_Node000003" class="edge">
<title>Node3&#45;&gt;Node2</title>
<g id="a_edge2_Node000002_Node000003"><a xlink:title=" ">
<path fill="none" stroke="#9a32cd" stroke-dasharray="5,2" d="M47.51,-233.12C51.13,-201.15 63.23,-136.57 103,-103 115.41,-92.52 153.09,-85.64 185.19,-81.52"/>
<polygon fill="#9a32cd" stroke="#9a32cd" points="44,-233.01 46.52,-243.3 50.97,-233.68 44,-233.01"/>
</a>
</g>
<text text-anchor="middle" x="116.5" y="-161" font-family="Helvetica,sans-Serif" font-size="10.00" fill="grey"> code</text>
</g>
<!-- Node4 -->
<g id="Node000004" class="node">
<title>Node4</title>
<g id="a_Node000004"><a xlink:href="../../d9/d45/class_q_c_string.html" target="_top" xlink:title="This is an alternative implementation of QCString.">
<polygon fill="white" stroke="#666666" points="169.5,-262.5 110.5,-262.5 110.5,-243.5 169.5,-243.5 169.5,-262.5"/>
<text text-anchor="middle" x="140" y="-250.5" font-family="Helvetica,sans-Serif" font-size="10.00">QCString</text>
</a>
</g>
</g>
<!-- Node4&#45;&gt;Node2 -->
<g id="edge3_Node000002_Node000004" class="edge">
<title>Node4&#45;&gt;Node2</title>
<g id="a_edge3_Node000002_Node000004"><a xlink:title=" ">
<path fill="none" stroke="#9a32cd" stroke-dasharray="5,2" d="M136.63,-233.21C132.24,-202.37 128.35,-140.66 159,-103 165.78,-94.67 175.32,-88.95 185.39,-85.02"/>
<polygon fill="#9a32cd" stroke="#9a32cd" points="133.23,-234.09 138.27,-243.41 140.14,-232.98 133.23,-234.09"/>
</a>
</g>
<text text-anchor="middle" x="195.5" y="-216" font-family="Helvetica,sans-Serif" font-size="10.00" fill="grey"> CurrScope</text>
<text text-anchor="middle" x="195.5" y="-205" font-family="Helvetica,sans-Serif" font-size="10.00" fill="grey">args</text>
<text text-anchor="middle" x="195.5" y="-194" font-family="Helvetica,sans-Serif" font-size="10.00" fill="grey">classScope</text>
<text text-anchor="middle" x="195.5" y="-183" font-family="Helvetica,sans-Serif" font-size="10.00" fill="grey">curClassName</text>
<text text-anchor="middle" x="195.5" y="-172" font-family="Helvetica,sans-Serif" font-size="10.00" fill="grey">exampleFile</text>
<text text-anchor="middle" x="195.5" y="-161" font-family="Helvetica,sans-Serif" font-size="10.00" fill="grey">exampleName</text>
<text text-anchor="middle" x="195.5" y="-150" font-family="Helvetica,sans-Serif" font-size="10.00" fill="grey">fileName</text>
<text text-anchor="middle" x="195.5" y="-139" font-family="Helvetica,sans-Serif" font-size="10.00" fill="grey">name</text>
<text text-anchor="middle" x="195.5" y="-128" font-family="Helvetica,sans-Serif" font-size="10.00" fill="grey">parmName</text>
<text text-anchor="middle" x="195.5" y="-117" font-family="Helvetica,sans-Serif" font-size="10.00" fill="grey">parmType</text>
<text text-anchor="middle" x="195.5" y="-106" font-family="Helvetica,sans-Serif" font-size="10.00" fill="grey">...</text>
</g>
<!-- Node5 -->
<g id="Node000005" class="node">
<title>Node5</title>
<g id="a_Node000005"><a xlink:href="../../d5/dcc/class_definition.html" target="_top" xlink:title="The common base class of all entity definitions found in the sources.">
<polygon fill="white" stroke="#666666" points="366,-320 302,-320 302,-301 366,-301 366,-320"/>
<text text-anchor="middle" x="334" y="-308" font-family="Helvetica,sans-Serif" font-size="10.00">Definition</text>
</a>
</g>
</g>
<!-- Node5&#45;&gt;Node2 -->
<g id="edge4_Node000002_Node000005" class="edge">
<title>Node5&#45;&gt;Node2</title>
<g id="a_edge4_Node000002_Node000005"><a xlink:title=" ">
<path fill="none" stroke="#9a32cd" stroke-dasharray="5,2" d="M357.99,-295.45C380.34,-280.81 412.22,-255.62 426,-224 447.49,-174.7 461.3,-143.57 426,-103 408.29,-82.65 336.91,-77.44 286.88,-76.36"/>
<polygon fill="#9a32cd" stroke="#9a32cd" points="355.96,-292.59 349.36,-300.88 359.69,-298.51 355.96,-292.59"/>
</a>
</g>
<text text-anchor="middle" x="457.5" y="-256" font-family="Helvetica,sans-Serif" font-size="10.00" fill="grey"> currentDefinition</text>
<text text-anchor="middle" x="457.5" y="-245" font-family="Helvetica,sans-Serif" font-size="10.00" fill="grey">searchCtx</text>
</g>
<!-- Node6 -->
<g id="Node000006" class="node">
<title>Node6</title>
<g id="a_Node000006"><a xlink:href="../../de/db0/class_file_def.html" target="_top" xlink:title="A model of a file symbol.">
<polygon fill="white" stroke="#666666" points="261.5,-262.5 210.5,-262.5 210.5,-243.5 261.5,-243.5 261.5,-262.5"/>
<text text-anchor="middle" x="236" y="-250.5" font-family="Helvetica,sans-Serif" font-size="10.00">FileDef</text>
</a>
</g>
</g>
<!-- Node5&#45;&gt;Node6 -->
<g id="edge7_Node000006_Node000005" class="edge">
<title>Node5&#45;&gt;Node6</title>
<g id="a_edge7_Node000006_Node000005"><a xlink:title=" ">
<path fill="none" stroke="#63b8ff" d="M309.76,-295.77C291.43,-285.39 266.84,-271.47 251.2,-262.61"/>
<polygon fill="#63b8ff" stroke="#63b8ff" points="308.26,-298.95 318.69,-300.83 311.71,-292.85 308.26,-298.95"/>
</a>
</g>
</g>
<!-- Node8 -->
<g id="Node000008" class="node">
<title>Node8</title>
<g id="a_Node000008"><a xlink:href="../../da/d09/class_member_def.html" target="_top" xlink:title="A model of a class/file/namespace member symbol.">
<polygon fill="white" stroke="#666666" points="368,-262.5 294,-262.5 294,-243.5 368,-243.5 368,-262.5"/>
<text text-anchor="middle" x="331" y="-250.5" font-family="Helvetica,sans-Serif" font-size="10.00">MemberDef</text>
</a>
</g>
</g>
<!-- Node5&#45;&gt;Node8 -->
<g id="edge9_Node000008_Node000005" class="edge">
<title>Node5&#45;&gt;Node8</title>
<g id="a_edge9_Node000008_Node000005"><a xlink:title=" ">
<path fill="none" stroke="#63b8ff" d="M332.99,-290.75C332.48,-281.3 331.88,-270.28 331.48,-262.79"/>
<polygon fill="#63b8ff" stroke="#63b8ff" points="329.5,-291.03 333.53,-300.83 336.49,-290.65 329.5,-291.03"/>
</a>
</g>
</g>
<!-- Node6&#45;&gt;Node2 -->
<g id="edge5_Node000002_Node000006" class="edge">
<title>Node6&#45;&gt;Node2</title>
<g id="a_edge5_Node000002_Node000006"><a xlink:title=" ">
<path fill="none" stroke="#9a32cd" stroke-dasharray="5,2" d="M236,-232.9C236,-195.14 236,-112.26 236,-85.22"/>
<polygon fill="#9a32cd" stroke="#9a32cd" points="232.5,-233.06 236,-243.06 239.5,-233.06 232.5,-233.06"/>
</a>
</g>
<text text-anchor="middle" x="271" y="-161" font-family="Helvetica,sans-Serif" font-size="10.00" fill="grey"> sourceFileDef</text>
</g>
<!-- Node7 -->
<g id="Node000007" class="node">
<title>Node7</title>
<g id="a_Node000007"><a xlink:href="../../d0/d46/class_definition_mutable.html" target="_top" xlink:title=" ">
<polygon fill="white" stroke="#666666" points="284,-320 180,-320 180,-301 284,-301 284,-320"/>
<text text-anchor="middle" x="232" y="-308" font-family="Helvetica,sans-Serif" font-size="10.00">DefinitionMutable</text>
</a>
</g>
</g>
<!-- Node7&#45;&gt;Node6 -->
<g id="edge6_Node000006_Node000007" class="edge">
<title>Node7&#45;&gt;Node6</title>
<g id="a_edge6_Node000006_Node000007"><a xlink:title=" ">
<path fill="none" stroke="#63b8ff" d="M233.35,-290.75C234.03,-281.3 234.83,-270.28 235.37,-262.79"/>
<polygon fill="#63b8ff" stroke="#63b8ff" points="229.85,-290.6 232.62,-300.83 236.83,-291.11 229.85,-290.6"/>
</a>
</g>
</g>
<!-- Node8&#45;&gt;Node2 -->
<g id="edge8_Node000002_Node000008" class="edge">
<title>Node8&#45;&gt;Node2</title>
<g id="a_edge8_Node000002_Node000008"><a xlink:title=" ">
<path fill="none" stroke="#9a32cd" stroke-dasharray="5,2" d="M330.27,-233.01C328.54,-197.44 323.04,-122.57 307,-103 300.16,-94.66 290.42,-88.94 280.33,-85.02"/>
<polygon fill="#9a32cd" stroke="#9a32cd" points="326.79,-233.6 330.72,-243.43 333.79,-233.29 326.79,-233.6"/>
</a>
</g>
<text text-anchor="middle" x="378" y="-161" font-family="Helvetica,sans-Serif" font-size="10.00" fill="grey"> currentMemberDef</text>
</g>
</g>
</svg>
