<?xml version="1.0" encoding="UTF-8" standalone="no"?>
<!DOCTYPE svg PUBLIC "-//W3C//DTD SVG 1.1//EN"
 "http://www.w3.org/Graphics/SVG/1.1/DTD/svg11.dtd">
<!-- Generated by graphviz version 2.43.0 (0)
 -->
<!-- Title: /home/runner/work/doxygen/doxygen/src/markdown.h Pages: 1 -->
<svg width="1021pt" height="313pt"
 viewBox="0.00 0.00 1020.50 313.00" xmlns="http://www.w3.org/2000/svg" xmlns:xlink="http://www.w3.org/1999/xlink">
<g id="graph0" class="graph" transform="scale(1 1) rotate(0) translate(4 309)">
<title>/home/runner/work/doxygen/doxygen/src/markdown.h</title>
<!-- Node1 -->
<g id="Node000001" class="node">
<title>Node1</title>
<g id="a_Node000001"><a xlink:title=" ">
<polygon fill="#999999" stroke="#666666" points="466,-305 312,-305 312,-275 466,-275 466,-305"/>
<text text-anchor="start" x="320" y="-293" font-family="Helvetica,sans-Serif" font-size="10.00">/home/runner/work/doxygen</text>
<text text-anchor="middle" x="389" y="-282" font-family="Helvetica,sans-Serif" font-size="10.00">/doxygen/src/markdown.h</text>
</a>
</g>
</g>
<!-- Node2 -->
<g id="Node000002" class="node">
<title>Node2</title>
<g id="a_Node000002"><a xlink:title=" ">
<polygon fill="#e0e0e0" stroke="#999999" points="306.5,-184 241.5,-184 241.5,-165 306.5,-165 306.5,-184"/>
<text text-anchor="middle" x="274" y="-172" font-family="Helvetica,sans-Serif" font-size="10.00">functional</text>
</a>
</g>
</g>
<!-- Node1&#45;&gt;Node2 -->
<g id="edge1_Node000001_Node000002" class="edge">
<title>Node1&#45;&gt;Node2</title>
<g id="a_edge1_Node000001_Node000002"><a xlink:title=" ">
<path fill="none" stroke="#63b8ff" d="M374.44,-274.63C352.9,-253.37 312.71,-213.71 290.25,-191.54"/>
<polygon fill="#63b8ff" stroke="#63b8ff" points="292.42,-188.76 282.84,-184.23 287.5,-193.75 292.42,-188.76"/>
</a>
</g>
</g>
<!-- Node3 -->
<g id="Node000003" class="node">
<title>Node3</title>
<g id="a_Node000003"><a xlink:href="../../d7/d5c/qcstring_8h.html" target="_top" xlink:title=" ">
<polygon fill="white" stroke="#666666" points="242.5,-129 177.5,-129 177.5,-110 242.5,-110 242.5,-129"/>
<text text-anchor="middle" x="210" y="-117" font-family="Helvetica,sans-Serif" font-size="10.00">qcstring.h</text>
</a>
</g>
</g>
<!-- Node1&#45;&gt;Node3 -->
<g id="edge2_Node000001_Node000003" class="edge">
<title>Node1&#45;&gt;Node3</title>
<g id="a_edge2_Node000001_Node000003"><a xlink:title=" ">
<path fill="none" stroke="#63b8ff" d="M356.12,-274.86C320.73,-258.07 265.06,-226.83 232,-184 221.86,-170.87 216.2,-152.73 213.17,-139.21"/>
<polygon fill="#63b8ff" stroke="#63b8ff" points="216.55,-138.28 211.2,-129.14 209.68,-139.62 216.55,-138.28"/>
</a>
</g>
</g>
<!-- Node13 -->
<g id="Node000013" class="node">
<title>Node13</title>
<g id="a_Node000013"><a xlink:href="../../da/d55/parserintf_8h.html" target="_top" xlink:title=" ">
<polygon fill="white" stroke="#666666" points="464,-239 392,-239 392,-220 464,-220 464,-239"/>
<text text-anchor="middle" x="428" y="-227" font-family="Helvetica,sans-Serif" font-size="10.00">parserintf.h</text>
</a>
</g>
</g>
<!-- Node1&#45;&gt;Node13 -->
<g id="edge14_Node000001_Node000013" class="edge">
<title>Node1&#45;&gt;Node13</title>
<g id="a_edge14_Node000001_Node000013"><a xlink:title=" ">
<path fill="none" stroke="#63b8ff" d="M398.44,-274.84C403.87,-266.69 410.73,-256.4 416.48,-247.78"/>
<polygon fill="#63b8ff" stroke="#63b8ff" points="419.52,-249.53 422.16,-239.27 413.7,-245.65 419.52,-249.53"/>
</a>
</g>
</g>
<!-- Node23 -->
<g id="Node000023" class="node">
<title>Node23</title>
<g id="a_Node000023"><a xlink:href="../../dd/d72/growbuf_8h.html" target="_top" xlink:title=" ">
<polygon fill="white" stroke="#666666" points="900.5,-239 835.5,-239 835.5,-220 900.5,-220 900.5,-239"/>
<text text-anchor="middle" x="868" y="-227" font-family="Helvetica,sans-Serif" font-size="10.00">growbuf.h</text>
</a>
</g>
</g>
<!-- Node1&#45;&gt;Node23 -->
<g id="edge29_Node000001_Node000023" class="edge">
<title>Node1&#45;&gt;Node23</title>
<g id="a_edge29_Node000001_Node000023"><a xlink:title=" ">
<path fill="none" stroke="#63b8ff" d="M466.23,-279.57C568.16,-267.12 744.13,-245.63 825.04,-235.75"/>
<polygon fill="#63b8ff" stroke="#63b8ff" points="825.84,-239.17 835.34,-234.49 824.99,-232.23 825.84,-239.17"/>
</a>
</g>
</g>
<!-- Node4 -->
<g id="Node000004" class="node">
<title>Node4</title>
<g id="a_Node000004"><a xlink:title=" ">
<polygon fill="#e0e0e0" stroke="#999999" points="626,-19 582,-19 582,0 626,0 626,-19"/>
<text text-anchor="middle" x="604" y="-7" font-family="Helvetica,sans-Serif" font-size="10.00">string</text>
</a>
</g>
</g>
<!-- Node3&#45;&gt;Node4 -->
<g id="edge3_Node000003_Node000004" class="edge">
<title>Node3&#45;&gt;Node4</title>
<g id="a_edge3_Node000003_Node000004"><a xlink:title=" ">
<path fill="none" stroke="#63b8ff" d="M242.72,-111.02C274.86,-103.26 325.05,-90.02 367,-74 385.01,-67.12 387.8,-61.38 406,-55 462.92,-35.04 532.26,-21.88 571.95,-15.34"/>
<polygon fill="#63b8ff" stroke="#63b8ff" points="572.54,-18.8 581.85,-13.75 571.43,-11.88 572.54,-18.8"/>
</a>
</g>
</g>
<!-- Node5 -->
<g id="Node000005" class="node">
<title>Node5</title>
<g id="a_Node000005"><a xlink:title=" ">
<polygon fill="#e0e0e0" stroke="#999999" points="479,-74 415,-74 415,-55 479,-55 479,-74"/>
<text text-anchor="middle" x="447" y="-62" font-family="Helvetica,sans-Serif" font-size="10.00">algorithm</text>
</a>
</g>
</g>
<!-- Node3&#45;&gt;Node5 -->
<g id="edge4_Node000003_Node000005" class="edge">
<title>Node3&#45;&gt;Node5</title>
<g id="a_edge4_Node000003_Node000005"><a xlink:title=" ">
<path fill="none" stroke="#63b8ff" d="M242.95,-111.13C285.17,-101.69 358.4,-85.31 404.69,-74.96"/>
<polygon fill="#63b8ff" stroke="#63b8ff" points="405.71,-78.32 414.71,-72.72 404.18,-71.49 405.71,-78.32"/>
</a>
</g>
</g>
<!-- Node6 -->
<g id="Node000006" class="node">
<title>Node6</title>
<g id="a_Node000006"><a xlink:title=" ">
<polygon fill="#e0e0e0" stroke="#999999" points="546.5,-74 497.5,-74 497.5,-55 546.5,-55 546.5,-74"/>
<text text-anchor="middle" x="522" y="-62" font-family="Helvetica,sans-Serif" font-size="10.00">cctype</text>
</a>
</g>
</g>
<!-- Node3&#45;&gt;Node6 -->
<g id="edge5_Node000003_Node000006" class="edge">
<title>Node3&#45;&gt;Node6</title>
<g id="a_edge5_Node000003_Node000006"><a xlink:title=" ">
<path fill="none" stroke="#63b8ff" d="M242.53,-111.76C245.73,-111.14 248.92,-110.55 252,-110 353.31,-92.03 382.24,-94.7 487.13,-74"/>
<polygon fill="#63b8ff" stroke="#63b8ff" points="488.06,-77.38 497.18,-71.99 486.69,-70.52 488.06,-77.38"/>
</a>
</g>
</g>
<!-- Node7 -->
<g id="Node000007" class="node">
<title>Node7</title>
<g id="a_Node000007"><a xlink:title=" ">
<polygon fill="#e0e0e0" stroke="#999999" points="50,-74 0,-74 0,-55 50,-55 50,-74"/>
<text text-anchor="middle" x="25" y="-62" font-family="Helvetica,sans-Serif" font-size="10.00">cstring</text>
</a>
</g>
</g>
<!-- Node3&#45;&gt;Node7 -->
<g id="edge6_Node000003_Node000007" class="edge">
<title>Node3&#45;&gt;Node7</title>
<g id="a_edge6_Node000003_Node000007"><a xlink:title=" ">
<path fill="none" stroke="#63b8ff" d="M180.28,-109.98C147.46,-100.58 94.69,-85.46 59.92,-75.51"/>
<polygon fill="#63b8ff" stroke="#63b8ff" points="60.77,-72.11 50.19,-72.72 58.84,-78.84 60.77,-72.11"/>
</a>
</g>
</g>
<!-- Node8 -->
<g id="Node000008" class="node">
<title>Node8</title>
<g id="a_Node000008"><a xlink:title=" ">
<polygon fill="#e0e0e0" stroke="#999999" points="114,-74 68,-74 68,-55 114,-55 114,-74"/>
<text text-anchor="middle" x="91" y="-62" font-family="Helvetica,sans-Serif" font-size="10.00">cstdio</text>
</a>
</g>
</g>
<!-- Node3&#45;&gt;Node8 -->
<g id="edge7_Node000003_Node000008" class="edge">
<title>Node3&#45;&gt;Node8</title>
<g id="a_edge7_Node000003_Node000008"><a xlink:title=" ">
<path fill="none" stroke="#63b8ff" d="M190.88,-109.98C171.65,-101.42 141.77,-88.11 119.69,-78.28"/>
<polygon fill="#63b8ff" stroke="#63b8ff" points="121.03,-75.04 110.47,-74.17 118.18,-81.44 121.03,-75.04"/>
</a>
</g>
</g>
<!-- Node9 -->
<g id="Node000009" class="node">
<title>Node9</title>
<g id="a_Node000009"><a xlink:title=" ">
<polygon fill="#e0e0e0" stroke="#999999" points="181.5,-74 132.5,-74 132.5,-55 181.5,-55 181.5,-74"/>
<text text-anchor="middle" x="157" y="-62" font-family="Helvetica,sans-Serif" font-size="10.00">cstdlib</text>
</a>
</g>
</g>
<!-- Node3&#45;&gt;Node9 -->
<g id="edge8_Node000003_Node000009" class="edge">
<title>Node3&#45;&gt;Node9</title>
<g id="a_edge8_Node000003_Node000009"><a xlink:title=" ">
<path fill="none" stroke="#63b8ff" d="M201.25,-109.75C193.53,-102.03 182.1,-90.6 172.78,-81.28"/>
<polygon fill="#63b8ff" stroke="#63b8ff" points="175.14,-78.69 165.59,-74.09 170.19,-83.64 175.14,-78.69"/>
</a>
</g>
</g>
<!-- Node10 -->
<g id="Node000010" class="node">
<title>Node10</title>
<g id="a_Node000010"><a xlink:title=" ">
<polygon fill="#e0e0e0" stroke="#999999" points="298,-19 248,-19 248,0 298,0 298,-19"/>
<text text-anchor="middle" x="273" y="-7" font-family="Helvetica,sans-Serif" font-size="10.00">cstdint</text>
</a>
</g>
</g>
<!-- Node3&#45;&gt;Node10 -->
<g id="edge9_Node000003_Node000010" class="edge">
<title>Node3&#45;&gt;Node10</title>
<g id="a_edge9_Node000003_Node000010"><a xlink:title=" ">
<path fill="none" stroke="#63b8ff" d="M211.24,-109.74C213.33,-96.97 218.44,-72.82 229,-55 235.53,-43.98 245.38,-33.67 254.11,-25.76"/>
<polygon fill="#63b8ff" stroke="#63b8ff" points="256.4,-28.4 261.68,-19.21 251.82,-23.11 256.4,-28.4"/>
</a>
</g>
</g>
<!-- Node11 -->
<g id="Node000011" class="node">
<title>Node11</title>
<g id="a_Node000011"><a xlink:title=" ">
<polygon fill="#e0e0e0" stroke="#999999" points="295.5,-74 238.5,-74 238.5,-55 295.5,-55 295.5,-74"/>
<text text-anchor="middle" x="267" y="-62" font-family="Helvetica,sans-Serif" font-size="10.00">ostream</text>
</a>
</g>
</g>
<!-- Node3&#45;&gt;Node11 -->
<g id="edge10_Node000003_Node000011" class="edge">
<title>Node3&#45;&gt;Node11</title>
<g id="a_edge10_Node000003_Node000011"><a xlink:title=" ">
<path fill="none" stroke="#63b8ff" d="M219.16,-109.98C227.5,-102.23 240.03,-90.58 250.18,-81.14"/>
<polygon fill="#63b8ff" stroke="#63b8ff" points="252.74,-83.54 257.68,-74.17 247.97,-78.42 252.74,-83.54"/>
</a>
</g>
</g>
<!-- Node12 -->
<g id="Node000012" class="node">
<title>Node12</title>
<g id="a_Node000012"><a xlink:href="../../db/d7c/utf8_8h.html" target="_top" xlink:title="Various UTF8 related helper functions.">
<polygon fill="white" stroke="#666666" points="358.5,-74 313.5,-74 313.5,-55 358.5,-55 358.5,-74"/>
<text text-anchor="middle" x="336" y="-62" font-family="Helvetica,sans-Serif" font-size="10.00">utf8.h</text>
</a>
</g>
</g>
<!-- Node3&#45;&gt;Node12 -->
<g id="edge11_Node000003_Node000012" class="edge">
<title>Node3&#45;&gt;Node12</title>
<g id="a_edge11_Node000003_Node000012"><a xlink:title=" ">
<path fill="none" stroke="#63b8ff" d="M230.24,-109.98C250.7,-101.38 282.53,-87.99 305.93,-78.15"/>
<polygon fill="#63b8ff" stroke="#63b8ff" points="307.53,-81.27 315.39,-74.17 304.81,-74.82 307.53,-81.27"/>
</a>
</g>
</g>
<!-- Node12&#45;&gt;Node4 -->
<g id="edge13_Node000012_Node000004" class="edge">
<title>Node12&#45;&gt;Node4</title>
<g id="a_edge13_Node000012_Node000004"><a xlink:title=" ">
<path fill="none" stroke="#63b8ff" d="M358.67,-58.16C363.4,-57.08 368.36,-55.98 373,-55 443.85,-40.04 527.35,-24.46 572.01,-16.29"/>
<polygon fill="#63b8ff" stroke="#63b8ff" points="572.76,-19.71 581.97,-14.47 571.51,-12.83 572.76,-19.71"/>
</a>
</g>
</g>
<!-- Node12&#45;&gt;Node10 -->
<g id="edge12_Node000012_Node000010" class="edge">
<title>Node12&#45;&gt;Node10</title>
<g id="a_edge12_Node000012_Node000010"><a xlink:title=" ">
<path fill="none" stroke="#63b8ff" d="M325.88,-54.98C316.56,-47.15 302.53,-35.34 291.26,-25.86"/>
<polygon fill="#63b8ff" stroke="#63b8ff" points="293.21,-22.93 283.31,-19.17 288.71,-28.29 293.21,-22.93"/>
</a>
</g>
</g>
<!-- Node13&#45;&gt;Node2 -->
<g id="edge15_Node000013_Node000002" class="edge">
<title>Node13&#45;&gt;Node2</title>
<g id="a_edge15_Node000013_Node000002"><a xlink:title=" ">
<path fill="none" stroke="#63b8ff" d="M403.26,-219.98C377.63,-211.16 337.37,-197.31 308.59,-187.41"/>
<polygon fill="#63b8ff" stroke="#63b8ff" points="309.53,-184.03 298.94,-184.08 307.25,-190.65 309.53,-184.03"/>
</a>
</g>
</g>
<!-- Node13&#45;&gt;Node4 -->
<g id="edge18_Node000013_Node000004" class="edge">
<title>Node13&#45;&gt;Node4</title>
<g id="a_edge18_Node000013_Node000004"><a xlink:title=" ">
<path fill="none" stroke="#63b8ff" d="M464.07,-222.58C539.04,-209.43 707.38,-175.28 739,-129 771.76,-81.06 685.47,-40.18 635.96,-21.44"/>
<polygon fill="#63b8ff" stroke="#63b8ff" points="636.9,-18.05 626.31,-17.89 634.48,-24.62 636.9,-18.05"/>
</a>
</g>
</g>
<!-- Node14 -->
<g id="Node000014" class="node">
<title>Node14</title>
<g id="a_Node000014"><a xlink:title=" ">
<polygon fill="#e0e0e0" stroke="#999999" points="383,-184 325,-184 325,-165 383,-165 383,-184"/>
<text text-anchor="middle" x="354" y="-172" font-family="Helvetica,sans-Serif" font-size="10.00">memory</text>
</a>
</g>
</g>
<!-- Node13&#45;&gt;Node14 -->
<g id="edge16_Node000013_Node000014" class="edge">
<title>Node13&#45;&gt;Node14</title>
<g id="a_edge16_Node000013_Node000014"><a xlink:title=" ">
<path fill="none" stroke="#63b8ff" d="M416.11,-219.98C404.85,-211.92 387.71,-199.65 374.29,-190.03"/>
<polygon fill="#63b8ff" stroke="#63b8ff" points="376.27,-187.15 366.11,-184.17 372.2,-192.84 376.27,-187.15"/>
</a>
</g>
</g>
<!-- Node15 -->
<g id="Node000015" class="node">
<title>Node15</title>
<g id="a_Node000015"><a xlink:title=" ">
<polygon fill="#e0e0e0" stroke="#999999" points="299,-129 261,-129 261,-110 299,-110 299,-129"/>
<text text-anchor="middle" x="280" y="-117" font-family="Helvetica,sans-Serif" font-size="10.00">map</text>
</a>
</g>
</g>
<!-- Node13&#45;&gt;Node15 -->
<g id="edge17_Node000013_Node000015" class="edge">
<title>Node13&#45;&gt;Node15</title>
<g id="a_edge17_Node000013_Node000015"><a xlink:title=" ">
<path fill="none" stroke="#63b8ff" d="M439.15,-219.72C454.06,-206.93 477.09,-182.74 463,-165 420.9,-112 379.99,-144.22 308.98,-128.89"/>
<polygon fill="#63b8ff" stroke="#63b8ff" points="309.77,-125.48 299.23,-126.52 308.12,-132.28 309.77,-125.48"/>
</a>
</g>
</g>
<!-- Node16 -->
<g id="Node000016" class="node">
<title>Node16</title>
<g id="a_Node000016"><a xlink:href="../../d9/d49/types_8h.html" target="_top" xlink:title="This file contains a number of basic enums and types.">
<polygon fill="white" stroke="#666666" points="454.5,-184 401.5,-184 401.5,-165 454.5,-165 454.5,-184"/>
<text text-anchor="middle" x="428" y="-172" font-family="Helvetica,sans-Serif" font-size="10.00">types.h</text>
</a>
</g>
</g>
<!-- Node13&#45;&gt;Node16 -->
<g id="edge19_Node000013_Node000016" class="edge">
<title>Node13&#45;&gt;Node16</title>
<g id="a_edge19_Node000013_Node000016"><a xlink:title=" ">
<path fill="none" stroke="#63b8ff" d="M428,-219.75C428,-212.8 428,-202.85 428,-194.13"/>
<polygon fill="#63b8ff" stroke="#63b8ff" points="431.5,-194.09 428,-184.09 424.5,-194.09 431.5,-194.09"/>
</a>
</g>
</g>
<!-- Node17 -->
<g id="Node000017" class="node">
<title>Node17</title>
<g id="a_Node000017"><a xlink:href="../../d5/d75/containers_8h.html" target="_top" xlink:title=" ">
<polygon fill="white" stroke="#666666" points="589.5,-184 512.5,-184 512.5,-165 589.5,-165 589.5,-184"/>
<text text-anchor="middle" x="551" y="-172" font-family="Helvetica,sans-Serif" font-size="10.00">containers.h</text>
</a>
</g>
</g>
<!-- Node13&#45;&gt;Node17 -->
<g id="edge21_Node000013_Node000017" class="edge">
<title>Node13&#45;&gt;Node17</title>
<g id="a_edge21_Node000013_Node000017"><a xlink:title=" ">
<path fill="none" stroke="#63b8ff" d="M447.76,-219.98C467.73,-211.38 498.8,-197.99 521.65,-188.15"/>
<polygon fill="#63b8ff" stroke="#63b8ff" points="523.08,-191.34 530.88,-184.17 520.31,-184.91 523.08,-191.34"/>
</a>
</g>
</g>
<!-- Node16&#45;&gt;Node3 -->
<g id="edge20_Node000016_Node000003" class="edge">
<title>Node16&#45;&gt;Node3</title>
<g id="a_edge20_Node000016_Node000003"><a xlink:title=" ">
<path fill="none" stroke="#63b8ff" d="M401.27,-167C364.14,-157.97 296.56,-141.55 252.48,-130.83"/>
<polygon fill="#63b8ff" stroke="#63b8ff" points="253.18,-127.4 242.64,-128.43 251.53,-134.2 253.18,-127.4"/>
</a>
</g>
</g>
<!-- Node17&#45;&gt;Node4 -->
<g id="edge23_Node000017_Node000004" class="edge">
<title>Node17&#45;&gt;Node4</title>
<g id="a_edge23_Node000017_Node000004"><a xlink:title=" ">
<path fill="none" stroke="#63b8ff" d="M559.48,-164.75C567.15,-156.31 578.12,-142.8 584,-129 598.12,-95.84 602.29,-53.48 603.51,-29.43"/>
<polygon fill="#63b8ff" stroke="#63b8ff" points="607.02,-29.34 603.9,-19.22 600.02,-29.07 607.02,-29.34"/>
</a>
</g>
</g>
<!-- Node17&#45;&gt;Node15 -->
<g id="edge25_Node000017_Node000015" class="edge">
<title>Node17&#45;&gt;Node15</title>
<g id="a_edge25_Node000017_Node000015"><a xlink:title=" ">
<path fill="none" stroke="#63b8ff" d="M512.29,-166.96C457.69,-157.66 359.83,-140.63 309.01,-128.97"/>
<polygon fill="#63b8ff" stroke="#63b8ff" points="309.74,-125.55 299.2,-126.64 308.12,-132.36 309.74,-125.55"/>
</a>
</g>
</g>
<!-- Node18 -->
<g id="Node000018" class="node">
<title>Node18</title>
<g id="a_Node000018"><a xlink:title=" ">
<polygon fill="#e0e0e0" stroke="#999999" points="679.5,-129 632.5,-129 632.5,-110 679.5,-110 679.5,-129"/>
<text text-anchor="middle" x="656" y="-117" font-family="Helvetica,sans-Serif" font-size="10.00">vector</text>
</a>
</g>
</g>
<!-- Node17&#45;&gt;Node18 -->
<g id="edge22_Node000017_Node000018" class="edge">
<title>Node17&#45;&gt;Node18</title>
<g id="a_edge22_Node000017_Node000018"><a xlink:title=" ">
<path fill="none" stroke="#63b8ff" d="M567.87,-164.98C584.61,-156.54 610.5,-143.47 629.89,-133.68"/>
<polygon fill="#63b8ff" stroke="#63b8ff" points="631.47,-136.8 638.82,-129.17 628.32,-130.55 631.47,-136.8"/>
</a>
</g>
</g>
<!-- Node19 -->
<g id="Node000019" class="node">
<title>Node19</title>
<g id="a_Node000019"><a xlink:title=" ">
<polygon fill="#e0e0e0" stroke="#999999" points="730,-129 698,-129 698,-110 730,-110 730,-129"/>
<text text-anchor="middle" x="714" y="-117" font-family="Helvetica,sans-Serif" font-size="10.00">set</text>
</a>
</g>
</g>
<!-- Node17&#45;&gt;Node19 -->
<g id="edge24_Node000017_Node000019" class="edge">
<title>Node17&#45;&gt;Node19</title>
<g id="a_edge24_Node000017_Node000019"><a xlink:title=" ">
<path fill="none" stroke="#63b8ff" d="M577.27,-164.98C604.85,-156.04 649.48,-141.55 688,-129 688.1,-128.97 688.2,-128.94 688.3,-128.9"/>
<polygon fill="#63b8ff" stroke="#63b8ff" points="689.35,-132.24 697.77,-125.81 687.18,-125.59 689.35,-132.24"/>
</a>
</g>
</g>
<!-- Node20 -->
<g id="Node000020" class="node">
<title>Node20</title>
<g id="a_Node000020"><a xlink:title=" ">
<polygon fill="#e0e0e0" stroke="#999999" points="403,-129 317,-129 317,-110 403,-110 403,-129"/>
<text text-anchor="middle" x="360" y="-117" font-family="Helvetica,sans-Serif" font-size="10.00">unordered_set</text>
</a>
</g>
</g>
<!-- Node17&#45;&gt;Node20 -->
<g id="edge26_Node000017_Node000020" class="edge">
<title>Node17&#45;&gt;Node20</title>
<g id="a_edge26_Node000017_Node000020"><a xlink:title=" ">
<path fill="none" stroke="#63b8ff" d="M520.31,-164.98C487.83,-155.97 436.4,-141.7 400.59,-131.76"/>
<polygon fill="#63b8ff" stroke="#63b8ff" points="401.5,-128.38 390.93,-129.08 399.63,-135.13 401.5,-128.38"/>
</a>
</g>
</g>
<!-- Node21 -->
<g id="Node000021" class="node">
<title>Node21</title>
<g id="a_Node000021"><a xlink:title=" ">
<polygon fill="#e0e0e0" stroke="#999999" points="514.5,-129 421.5,-129 421.5,-110 514.5,-110 514.5,-129"/>
<text text-anchor="middle" x="468" y="-117" font-family="Helvetica,sans-Serif" font-size="10.00">unordered_map</text>
</a>
</g>
</g>
<!-- Node17&#45;&gt;Node21 -->
<g id="edge27_Node000017_Node000021" class="edge">
<title>Node17&#45;&gt;Node21</title>
<g id="a_edge27_Node000017_Node000021"><a xlink:title=" ">
<path fill="none" stroke="#63b8ff" d="M537.66,-164.98C524.91,-156.84 505.45,-144.41 490.33,-134.76"/>
<polygon fill="#63b8ff" stroke="#63b8ff" points="491.89,-131.6 481.58,-129.17 488.12,-137.5 491.89,-131.6"/>
</a>
</g>
</g>
<!-- Node22 -->
<g id="Node000022" class="node">
<title>Node22</title>
<g id="a_Node000022"><a xlink:title=" ">
<polygon fill="#e0e0e0" stroke="#999999" points="575.5,-129 532.5,-129 532.5,-110 575.5,-110 575.5,-129"/>
<text text-anchor="middle" x="554" y="-117" font-family="Helvetica,sans-Serif" font-size="10.00">stack</text>
</a>
</g>
</g>
<!-- Node17&#45;&gt;Node22 -->
<g id="edge28_Node000017_Node000022" class="edge">
<title>Node17&#45;&gt;Node22</title>
<g id="a_edge28_Node000017_Node000022"><a xlink:title=" ">
<path fill="none" stroke="#63b8ff" d="M551.5,-164.75C551.89,-157.8 552.45,-147.85 552.95,-139.13"/>
<polygon fill="#63b8ff" stroke="#63b8ff" points="556.44,-139.27 553.51,-129.09 549.45,-138.88 556.44,-139.27"/>
</a>
</g>
</g>
<!-- Node23&#45;&gt;Node4 -->
<g id="edge33_Node000023_Node000004" class="edge">
<title>Node23&#45;&gt;Node4</title>
<g id="a_edge33_Node000023_Node000004"><a xlink:title=" ">
<path fill="none" stroke="#63b8ff" d="M866.85,-219.69C864.86,-206.86 859.89,-182.62 849,-165 811.48,-104.28 793.05,-91.98 732,-55 701.8,-36.71 663.02,-24.57 636.09,-17.66"/>
<polygon fill="#63b8ff" stroke="#63b8ff" points="636.6,-14.17 626.05,-15.18 634.92,-20.97 636.6,-14.17"/>
</a>
</g>
</g>
<!-- Node24 -->
<g id="Node000024" class="node">
<title>Node24</title>
<g id="a_Node000024"><a xlink:title=" ">
<polygon fill="#e0e0e0" stroke="#999999" points="941.5,-184 896.5,-184 896.5,-165 941.5,-165 941.5,-184"/>
<text text-anchor="middle" x="919" y="-172" font-family="Helvetica,sans-Serif" font-size="10.00">utility</text>
</a>
</g>
</g>
<!-- Node23&#45;&gt;Node24 -->
<g id="edge30_Node000023_Node000024" class="edge">
<title>Node23&#45;&gt;Node24</title>
<g id="a_edge30_Node000023_Node000024"><a xlink:title=" ">
<path fill="none" stroke="#63b8ff" d="M876.42,-219.75C883.77,-212.11 894.63,-200.82 903.54,-191.56"/>
<polygon fill="#63b8ff" stroke="#63b8ff" points="906.32,-193.72 910.74,-184.09 901.28,-188.87 906.32,-193.72"/>
</a>
</g>
</g>
<!-- Node25 -->
<g id="Node000025" class="node">
<title>Node25</title>
<g id="a_Node000025"><a xlink:title=" ">
<polygon fill="#e0e0e0" stroke="#999999" points="1012.5,-184 959.5,-184 959.5,-165 1012.5,-165 1012.5,-184"/>
<text text-anchor="middle" x="986" y="-172" font-family="Helvetica,sans-Serif" font-size="10.00">stdlib.h</text>
</a>
</g>
</g>
<!-- Node23&#45;&gt;Node25 -->
<g id="edge31_Node000023_Node000025" class="edge">
<title>Node23&#45;&gt;Node25</title>
<g id="a_edge31_Node000023_Node000025"><a xlink:title=" ">
<path fill="none" stroke="#63b8ff" d="M886.96,-219.98C906.03,-211.42 935.66,-198.11 957.55,-188.28"/>
<polygon fill="#63b8ff" stroke="#63b8ff" points="959.01,-191.46 966.7,-184.17 956.14,-185.07 959.01,-191.46"/>
</a>
</g>
</g>
<!-- Node26 -->
<g id="Node000026" class="node">
<title>Node26</title>
<g id="a_Node000026"><a xlink:title=" ">
<polygon fill="#e0e0e0" stroke="#999999" points="839.5,-184 786.5,-184 786.5,-165 839.5,-165 839.5,-184"/>
<text text-anchor="middle" x="813" y="-172" font-family="Helvetica,sans-Serif" font-size="10.00">string.h</text>
</a>
</g>
</g>
<!-- Node23&#45;&gt;Node26 -->
<g id="edge32_Node000023_Node000026" class="edge">
<title>Node23&#45;&gt;Node26</title>
<g id="a_edge32_Node000023_Node000026"><a xlink:title=" ">
<path fill="none" stroke="#63b8ff" d="M858.92,-219.75C850.91,-212.03 839.04,-200.6 829.38,-191.28"/>
<polygon fill="#63b8ff" stroke="#63b8ff" points="831.54,-188.51 821.91,-184.09 826.69,-193.55 831.54,-188.51"/>
</a>
</g>
</g>
</g>
</svg>
