<?xml version="1.0" encoding="UTF-8" standalone="no"?>
<!DOCTYPE svg PUBLIC "-//W3C//DTD SVG 1.1//EN"
 "http://www.w3.org/Graphics/SVG/1.1/DTD/svg11.dtd">
<!-- Generated by graphviz version 2.43.0 (0)
 -->
<!-- Title: DotNode Pages: 1 -->
<svg width="288pt" height="217pt"
 viewBox="0.00 0.00 287.50 217.00" xmlns="http://www.w3.org/2000/svg" xmlns:xlink="http://www.w3.org/1999/xlink">
<g id="graph0" class="graph" transform="scale(1 1) rotate(0) translate(4 213)">
<title>DotNode</title>
<!-- Node1 -->
<g id="Node000001" class="node">
<title>Node1</title>
<g id="a_Node000001"><a xlink:title="A node in a dot graph.">
<polygon fill="#999999" stroke="#666666" points="182,-19 123,-19 123,0 182,0 182,-19"/>
<text text-anchor="middle" x="152.5" y="-7" font-family="Helvetica,sans-Serif" font-size="10.00">DotNode</text>
</a>
</g>
</g>
<!-- Node2 -->
<g id="Node000002" class="node">
<title>Node2</title>
<g id="a_Node000002"><a xlink:href="../../d0/d32/class_dot_graph.html" target="_top" xlink:title="A dot graph.">
<polygon fill="white" stroke="#666666" points="101,-92 38,-92 38,-73 101,-73 101,-92"/>
<text text-anchor="middle" x="69.5" y="-80" font-family="Helvetica,sans-Serif" font-size="10.00">DotGraph</text>
</a>
</g>
</g>
<!-- Node2&#45;&gt;Node1 -->
<g id="edge1_Node000001_Node000002" class="edge">
<title>Node2&#45;&gt;Node1</title>
<g id="a_edge1_Node000001_Node000002"><a xlink:title=" ">
<path fill="none" stroke="#9a32cd" stroke-dasharray="5,2" d="M75.57,-63.39C79.3,-54.5 84.85,-44.2 92.5,-37 101.04,-28.96 112.42,-23.1 122.98,-18.97"/>
<polygon fill="#9a32cd" stroke="#9a32cd" points="72.24,-62.3 72.01,-72.89 78.8,-64.75 72.24,-62.3"/>
</a>
</g>
<text text-anchor="middle" x="115.5" y="-40" font-family="Helvetica,sans-Serif" font-size="10.00" fill="grey"> m_graph</text>
</g>
<!-- Node3 -->
<g id="Node000003" class="node">
<title>Node3</title>
<g id="a_Node000003"><a xlink:href="../../d2/dc2/class_dir.html" target="_top" xlink:title="Class representing a directory in the file system.">
<polygon fill="white" stroke="#666666" points="31,-209 0,-209 0,-190 31,-190 31,-209"/>
<text text-anchor="middle" x="15.5" y="-197" font-family="Helvetica,sans-Serif" font-size="10.00">Dir</text>
</a>
</g>
</g>
<!-- Node3&#45;&gt;Node2 -->
<g id="edge2_Node000002_Node000003" class="edge">
<title>Node3&#45;&gt;Node2</title>
<g id="a_edge2_Node000002_Node000003"><a xlink:title=" ">
<path fill="none" stroke="#9a32cd" stroke-dasharray="5,2" d="M14.15,-179.97C13.73,-162.58 15.35,-136.4 26.5,-117 32.63,-106.33 43.62,-97.86 52.96,-92.11"/>
<polygon fill="#9a32cd" stroke="#9a32cd" points="10.65,-180.16 14.64,-189.98 17.65,-179.82 10.65,-180.16"/>
</a>
</g>
<text text-anchor="middle" x="42" y="-142" font-family="Helvetica,sans-Serif" font-size="10.00" fill="grey"> m_dir</text>
</g>
<!-- Node4 -->
<g id="Node000004" class="node">
<title>Node4</title>
<g id="a_Node000004"><a xlink:href="../../d9/d45/class_q_c_string.html" target="_top" xlink:title="This is an alternative implementation of QCString.">
<polygon fill="white" stroke="#666666" points="145,-209 86,-209 86,-190 145,-190 145,-209"/>
<text text-anchor="middle" x="115.5" y="-197" font-family="Helvetica,sans-Serif" font-size="10.00">QCString</text>
</a>
</g>
</g>
<!-- Node4&#45;&gt;Node1 -->
<g id="edge4_Node000001_Node000004" class="edge">
<title>Node4&#45;&gt;Node1</title>
<g id="a_edge4_Node000001_Node000004"><a xlink:title=" ">
<path fill="none" stroke="#9a32cd" stroke-dasharray="5,2" d="M132.37,-182.16C134.8,-179.01 136.99,-175.58 138.5,-172 161.44,-117.84 156.25,-44.47 153.58,-19.36"/>
<polygon fill="#9a32cd" stroke="#9a32cd" points="129.69,-179.91 125.66,-189.71 134.92,-184.56 129.69,-179.91"/>
</a>
</g>
<text text-anchor="middle" x="180" y="-91" font-family="Helvetica,sans-Serif" font-size="10.00" fill="grey"> m_label</text>
<text text-anchor="middle" x="180" y="-80" font-family="Helvetica,sans-Serif" font-size="10.00" fill="grey">m_tooltip</text>
<text text-anchor="middle" x="180" y="-69" font-family="Helvetica,sans-Serif" font-size="10.00" fill="grey">m_url</text>
</g>
<!-- Node4&#45;&gt;Node2 -->
<g id="edge3_Node000002_Node000004" class="edge">
<title>Node4&#45;&gt;Node2</title>
<g id="a_edge3_Node000002_Node000004"><a xlink:title=" ">
<path fill="none" stroke="#9a32cd" stroke-dasharray="5,2" d="M82.38,-184.57C77.64,-181.16 73.4,-177 70.5,-172 55.56,-146.2 62.69,-108.68 67.02,-92.02"/>
<polygon fill="#9a32cd" stroke="#9a32cd" points="80.9,-187.77 91.27,-189.96 84.53,-181.78 80.9,-187.77"/>
</a>
</g>
<text text-anchor="middle" x="104.5" y="-164" font-family="Helvetica,sans-Serif" font-size="10.00" fill="grey"> m_absPath</text>
<text text-anchor="middle" x="104.5" y="-153" font-family="Helvetica,sans-Serif" font-size="10.00" fill="grey">m_baseName</text>
<text text-anchor="middle" x="104.5" y="-142" font-family="Helvetica,sans-Serif" font-size="10.00" fill="grey">m_fileName</text>
<text text-anchor="middle" x="104.5" y="-131" font-family="Helvetica,sans-Serif" font-size="10.00" fill="grey">m_relPath</text>
<text text-anchor="middle" x="104.5" y="-120" font-family="Helvetica,sans-Serif" font-size="10.00" fill="grey">m_theGraph</text>
</g>
<!-- Node5 -->
<g id="Node000005" class="node">
<title>Node5</title>
<g id="a_Node000005"><a xlink:href="../../d1/dcf/class_class_def.html" target="_top" xlink:title="A abstract class representing of a compound symbol.">
<polygon fill="white" stroke="#666666" points="277.5,-92 217.5,-92 217.5,-73 277.5,-73 277.5,-92"/>
<text text-anchor="middle" x="247.5" y="-80" font-family="Helvetica,sans-Serif" font-size="10.00">ClassDef</text>
</a>
</g>
</g>
<!-- Node5&#45;&gt;Node1 -->
<g id="edge5_Node000001_Node000005" class="edge">
<title>Node5&#45;&gt;Node1</title>
<g id="a_edge5_Node000001_Node000005"><a xlink:title=" ">
<path fill="none" stroke="#9a32cd" stroke-dasharray="5,2" d="M227.73,-66.72C208.43,-52.3 179.74,-30.86 163.95,-19.06"/>
<polygon fill="#9a32cd" stroke="#9a32cd" points="225.75,-69.61 235.85,-72.79 229.94,-64 225.75,-69.61"/>
</a>
</g>
<text text-anchor="middle" x="231" y="-40" font-family="Helvetica,sans-Serif" font-size="10.00" fill="grey"> m_classDef</text>
</g>
<!-- Node6 -->
<g id="Node000006" class="node">
<title>Node6</title>
<g id="a_Node000006"><a xlink:href="../../d5/dcc/class_definition.html" target="_top" xlink:title="The common base class of all entity definitions found in the sources.">
<polygon fill="white" stroke="#666666" points="279.5,-209 215.5,-209 215.5,-190 279.5,-190 279.5,-209"/>
<text text-anchor="middle" x="247.5" y="-197" font-family="Helvetica,sans-Serif" font-size="10.00">Definition</text>
</a>
</g>
</g>
<!-- Node6&#45;&gt;Node5 -->
<g id="edge6_Node000005_Node000006" class="edge">
<title>Node6&#45;&gt;Node5</title>
<g id="a_edge6_Node000005_Node000006"><a xlink:title=" ">
<path fill="none" stroke="#63b8ff" d="M247.5,-179.75C247.5,-154.56 247.5,-110.82 247.5,-92.24"/>
<polygon fill="#63b8ff" stroke="#63b8ff" points="244,-179.86 247.5,-189.86 251,-179.86 244,-179.86"/>
</a>
</g>
</g>
</g>
</svg>
