<?xml version="1.0" encoding="UTF-8" standalone="no"?>
<!DOCTYPE svg PUBLIC "-//W3C//DTD SVG 1.1//EN"
 "http://www.w3.org/Graphics/SVG/1.1/DTD/svg11.dtd">
<!-- Generated by graphviz version 2.43.0 (0)
 -->
<!-- Title: fmt::formatter&lt; Specifier &gt; Pages: 1 -->
<svg width="159pt" height="160pt"
 viewBox="0.00 0.00 159.00 160.00" xmlns="http://www.w3.org/2000/svg" xmlns:xlink="http://www.w3.org/1999/xlink">
<g id="graph0" class="graph" transform="scale(1 1) rotate(0) translate(4 156)">
<title>fmt::formatter&lt; Specifier &gt;</title>
<!-- Node1 -->
<g id="Node000001" class="node">
<title>Node1</title>
<g id="a_Node000001"><a xlink:title="adds support for formatting Specifier">
<polygon fill="#999999" stroke="#666666" points="151,-19 0,-19 0,0 151,0 151,-19"/>
<text text-anchor="middle" x="75.5" y="-7" font-family="Helvetica,sans-Serif" font-size="10.00">fmt::formatter&lt; Specifier &gt;</text>
</a>
</g>
</g>
<!-- Node2 -->
<g id="Node000002" class="node">
<title>Node2</title>
<g id="a_Node000002"><a xlink:href="../../db/d75/structfmt_1_1formatter.html" target="_top" xlink:title=" ">
<polygon fill="white" stroke="#666666" points="132,-86 19,-86 19,-56 132,-56 132,-86"/>
<text text-anchor="start" x="27" y="-74" font-family="Helvetica,sans-Serif" font-size="10.00">fmt::formatter&lt; std</text>
<text text-anchor="middle" x="75.5" y="-63" font-family="Helvetica,sans-Serif" font-size="10.00">::string &gt;</text>
</a>
</g>
</g>
<!-- Node2&#45;&gt;Node1 -->
<g id="edge1_Node000001_Node000002" class="edge">
<title>Node2&#45;&gt;Node1</title>
<g id="a_edge1_Node000001_Node000002"><a xlink:title=" ">
<path fill="none" stroke="#63b8ff" d="M75.5,-45.79C75.5,-36.36 75.5,-26.15 75.5,-19.16"/>
<polygon fill="#63b8ff" stroke="#63b8ff" points="72,-45.9 75.5,-55.9 79,-45.9 72,-45.9"/>
</a>
</g>
</g>
<!-- Node3 -->
<g id="Node000003" class="node">
<title>Node3</title>
<g id="a_Node000003"><a xlink:href="../../db/d75/structfmt_1_1formatter.html" target="_top" xlink:title=" ">
<polygon fill="white" stroke="#666666" points="133,-152 18,-152 18,-133 133,-133 133,-152"/>
<text text-anchor="middle" x="75.5" y="-140" font-family="Helvetica,sans-Serif" font-size="10.00">fmt::formatter&lt; T &gt;</text>
</a>
</g>
</g>
<!-- Node3&#45;&gt;Node2 -->
<g id="edge2_Node000002_Node000003" class="edge">
<title>Node3&#45;&gt;Node2</title>
<g id="a_edge2_Node000002_Node000003"><a xlink:title=" ">
<path fill="none" stroke="orange" stroke-dasharray="5,2" d="M75.5,-122.71C75.5,-111.19 75.5,-96.68 75.5,-86.14"/>
<polygon fill="orange" stroke="orange" points="72,-122.98 75.5,-132.98 79,-122.98 72,-122.98"/>
</a>
</g>
<text text-anchor="middle" x="113" y="-107" font-family="Helvetica,sans-Serif" font-size="10.00" fill="grey"> &lt; std::string &gt;</text>
</g>
</g>
</svg>
