<?xml version="1.0" encoding="UTF-8" standalone="no"?>
<!DOCTYPE svg PUBLIC "-//W3C//DTD SVG 1.1//EN"
 "http://www.w3.org/Graphics/SVG/1.1/DTD/svg11.dtd">
<!-- Generated by graphviz version 2.43.0 (0)
 -->
<!-- Title: /home/runner/work/doxygen/doxygen/vhdlparser/VhdlParser.h Pages: 1 -->
<svg width="469pt" height="247pt"
 viewBox="0.00 0.00 468.50 247.00" xmlns="http://www.w3.org/2000/svg" xmlns:xlink="http://www.w3.org/1999/xlink">
<g id="graph0" class="graph" transform="scale(1 1) rotate(0) translate(4 243)">
<title>/home/runner/work/doxygen/doxygen/vhdlparser/VhdlParser.h</title>
<!-- Node1 -->
<g id="Node000001" class="node">
<title>Node1</title>
<g id="a_Node000001"><a xlink:title=" ">
<polygon fill="#999999" stroke="#666666" points="275.5,-239 96.5,-239 96.5,-209 275.5,-209 275.5,-239"/>
<text text-anchor="start" x="104.5" y="-227" font-family="Helvetica,sans-Serif" font-size="10.00">/home/runner/work/doxygen</text>
<text text-anchor="middle" x="186" y="-216" font-family="Helvetica,sans-Serif" font-size="10.00">/doxygen/vhdlparser/VhdlParser.h</text>
</a>
</g>
</g>
<!-- Node2 -->
<g id="Node000002" class="node">
<title>Node2</title>
<g id="a_Node000002"><a xlink:href="../../de/dea/vhdldocgen_8cpp.html" target="_top" xlink:title=" ">
<polygon fill="white" stroke="#666666" points="158,-173 0,-173 0,-143 158,-143 158,-173"/>
<text text-anchor="start" x="8" y="-161" font-family="Helvetica,sans-Serif" font-size="10.00">/home/runner/work/doxygen</text>
<text text-anchor="middle" x="79" y="-150" font-family="Helvetica,sans-Serif" font-size="10.00">/doxygen/src/vhdldocgen.cpp</text>
</a>
</g>
</g>
<!-- Node1&#45;&gt;Node2 -->
<g id="edge1_Node000001_Node000002" class="edge">
<title>Node1&#45;&gt;Node2</title>
<g id="a_edge1_Node000001_Node000002"><a xlink:title=" ">
<path fill="none" stroke="#63b8ff" d="M153.72,-203.69C137.21,-193.82 117.47,-182.01 102.43,-173.01"/>
<polygon fill="#63b8ff" stroke="#63b8ff" points="152.14,-206.83 162.52,-208.95 155.73,-200.82 152.14,-206.83"/>
</a>
</g>
</g>
<!-- Node3 -->
<g id="Node000003" class="node">
<title>Node3</title>
<g id="a_Node000003"><a xlink:href="../../d2/dc3/_vhdl_parser_error_handler_8hpp.html" target="_top" xlink:title=" ">
<polygon fill="white" stroke="#666666" points="271.5,-107 100.5,-107 100.5,-66 271.5,-66 271.5,-107"/>
<text text-anchor="start" x="108.5" y="-95" font-family="Helvetica,sans-Serif" font-size="10.00">/home/runner/work/doxygen</text>
<text text-anchor="start" x="108.5" y="-84" font-family="Helvetica,sans-Serif" font-size="10.00">/doxygen/vhdlparser/VhdlParser</text>
<text text-anchor="middle" x="186" y="-73" font-family="Helvetica,sans-Serif" font-size="10.00">ErrorHandler.hpp</text>
</a>
</g>
</g>
<!-- Node1&#45;&gt;Node3 -->
<g id="edge2_Node000001_Node000003" class="edge">
<title>Node1&#45;&gt;Node3</title>
<g id="a_edge2_Node000001_Node000003"><a xlink:title=" ">
<path fill="none" stroke="#63b8ff" d="M186,-198.54C186,-172.38 186,-131.39 186,-107.21"/>
<polygon fill="#63b8ff" stroke="#63b8ff" points="182.5,-198.76 186,-208.76 189.5,-198.76 182.5,-198.76"/>
</a>
</g>
</g>
<!-- Node5 -->
<g id="Node000005" class="node">
<title>Node5</title>
<g id="a_Node000005"><a xlink:href="../../d9/d48/vhdlstring_8h.html" target="_top" xlink:title=" ">
<polygon fill="white" stroke="#666666" points="390.5,-173 213.5,-173 213.5,-143 390.5,-143 390.5,-173"/>
<text text-anchor="start" x="221.5" y="-161" font-family="Helvetica,sans-Serif" font-size="10.00">/home/runner/work/doxygen</text>
<text text-anchor="middle" x="302" y="-150" font-family="Helvetica,sans-Serif" font-size="10.00">/doxygen/vhdlparser/vhdlstring.h</text>
</a>
</g>
</g>
<!-- Node1&#45;&gt;Node5 -->
<g id="edge4_Node000001_Node000005" class="edge">
<title>Node1&#45;&gt;Node5</title>
<g id="a_edge4_Node000001_Node000005"><a xlink:title=" ">
<path fill="none" stroke="#63b8ff" d="M220.49,-203.97C238.5,-194.03 260.15,-182.09 276.6,-173.01"/>
<polygon fill="#63b8ff" stroke="#63b8ff" points="218.52,-201.06 211.46,-208.95 221.9,-207.19 218.52,-201.06"/>
</a>
</g>
</g>
<!-- Node4 -->
<g id="Node000004" class="node">
<title>Node4</title>
<g id="a_Node000004"><a xlink:href="../../d1/d86/vhdljjparser_8cpp.html" target="_top" xlink:title=" ">
<polygon fill="white" stroke="#666666" points="359.5,-30 200.5,-30 200.5,0 359.5,0 359.5,-30"/>
<text text-anchor="start" x="208.5" y="-18" font-family="Helvetica,sans-Serif" font-size="10.00">/home/runner/work/doxygen</text>
<text text-anchor="middle" x="280" y="-7" font-family="Helvetica,sans-Serif" font-size="10.00">/doxygen/src/vhdljjparser.cpp</text>
</a>
</g>
</g>
<!-- Node3&#45;&gt;Node4 -->
<g id="edge3_Node000003_Node000004" class="edge">
<title>Node3&#45;&gt;Node4</title>
<g id="a_edge3_Node000003_Node000004"><a xlink:title=" ">
<path fill="none" stroke="#63b8ff" d="M220.67,-59.87C234.27,-49.81 249.36,-38.66 260.91,-30.11"/>
<polygon fill="#63b8ff" stroke="#63b8ff" points="218.39,-57.2 212.43,-65.96 222.56,-62.82 218.39,-57.2"/>
</a>
</g>
</g>
<!-- Node5&#45;&gt;Node3 -->
<g id="edge5_Node000005_Node000003" class="edge">
<title>Node5&#45;&gt;Node3</title>
<g id="a_edge5_Node000005_Node000003"><a xlink:title=" ">
<path fill="none" stroke="#63b8ff" d="M269.59,-137.58C253.69,-128.06 234.6,-116.62 218.67,-107.07"/>
<polygon fill="#63b8ff" stroke="#63b8ff" points="268.15,-140.8 278.53,-142.94 271.75,-134.79 268.15,-140.8"/>
</a>
</g>
</g>
<!-- Node6 -->
<g id="Node000006" class="node">
<title>Node6</title>
<g id="a_Node000006"><a xlink:href="../../d7/dad/_vhdl_parser_token_manager_8h.html" target="_top" xlink:title=" ">
<polygon fill="white" stroke="#666666" points="460.5,-107 289.5,-107 289.5,-66 460.5,-66 460.5,-107"/>
<text text-anchor="start" x="297.5" y="-95" font-family="Helvetica,sans-Serif" font-size="10.00">/home/runner/work/doxygen</text>
<text text-anchor="start" x="297.5" y="-84" font-family="Helvetica,sans-Serif" font-size="10.00">/doxygen/vhdlparser/VhdlParser</text>
<text text-anchor="middle" x="375" y="-73" font-family="Helvetica,sans-Serif" font-size="10.00">TokenManager.h</text>
</a>
</g>
</g>
<!-- Node5&#45;&gt;Node6 -->
<g id="edge6_Node000005_Node000006" class="edge">
<title>Node5&#45;&gt;Node6</title>
<g id="a_edge6_Node000005_Node000006"><a xlink:title=" ">
<path fill="none" stroke="#63b8ff" d="M324.1,-135.96C333.74,-126.78 344.98,-116.08 354.44,-107.07"/>
<polygon fill="#63b8ff" stroke="#63b8ff" points="321.6,-133.51 316.77,-142.94 326.43,-138.58 321.6,-133.51"/>
</a>
</g>
</g>
<!-- Node6&#45;&gt;Node4 -->
<g id="edge7_Node000006_Node000004" class="edge">
<title>Node6&#45;&gt;Node4</title>
<g id="a_edge7_Node000006_Node000004"><a xlink:title=" ">
<path fill="none" stroke="#63b8ff" d="M339.96,-59.87C326.22,-49.81 310.97,-38.66 299.29,-30.11"/>
<polygon fill="#63b8ff" stroke="#63b8ff" points="338.15,-62.88 348.28,-65.96 342.28,-57.23 338.15,-62.88"/>
</a>
</g>
</g>
</g>
</svg>
