<?xml version="1.0" encoding="UTF-8" standalone="no"?>
<!DOCTYPE svg PUBLIC "-//W3C//DTD SVG 1.1//EN"
 "http://www.w3.org/Graphics/SVG/1.1/DTD/svg11.dtd">
<!-- Generated by graphviz version 2.43.0 (0)
 -->
<!-- Title: /home/runner/work/doxygen/doxygen/src/commentscan.h Pages: 1 -->
<svg width="1383pt" height="104pt"
 viewBox="0.00 0.00 1382.50 104.00" xmlns="http://www.w3.org/2000/svg" xmlns:xlink="http://www.w3.org/1999/xlink">
<g id="graph0" class="graph" transform="scale(1 1) rotate(0) translate(4 100)">
<title>/home/runner/work/doxygen/doxygen/src/commentscan.h</title>
<!-- Node1 -->
<g id="Node000001" class="node">
<title>Node1</title>
<g id="a_Node000001"><a xlink:title="Interface for the comment block scanner.">
<polygon fill="#999999" stroke="#666666" points="767,-96 607,-96 607,-66 767,-66 767,-96"/>
<text text-anchor="start" x="615" y="-84" font-family="Helvetica,sans-Serif" font-size="10.00">/home/runner/work/doxygen</text>
<text text-anchor="middle" x="687" y="-73" font-family="Helvetica,sans-Serif" font-size="10.00">/doxygen/src/commentscan.h</text>
</a>
</g>
</g>
<!-- Node2 -->
<g id="Node000002" class="node">
<title>Node2</title>
<g id="a_Node000002"><a xlink:href="../../d5/d0b/cite_8cpp.html" target="_top" xlink:title=" ">
<polygon fill="white" stroke="#666666" points="154,-30 0,-30 0,0 154,0 154,-30"/>
<text text-anchor="start" x="8" y="-18" font-family="Helvetica,sans-Serif" font-size="10.00">/home/runner/work/doxygen</text>
<text text-anchor="middle" x="77" y="-7" font-family="Helvetica,sans-Serif" font-size="10.00">/doxygen/src/cite.cpp</text>
</a>
</g>
</g>
<!-- Node1&#45;&gt;Node2 -->
<g id="edge1_Node000001_Node000002" class="edge">
<title>Node1&#45;&gt;Node2</title>
<g id="a_edge1_Node000001_Node000002"><a xlink:title=" ">
<path fill="none" stroke="#63b8ff" d="M596.72,-73.21C492.13,-64.93 314.75,-49.57 163,-30 160.15,-29.63 157.25,-29.24 154.32,-28.83"/>
<polygon fill="#63b8ff" stroke="#63b8ff" points="596.67,-76.72 606.92,-74.02 597.22,-69.74 596.67,-76.72"/>
</a>
</g>
</g>
<!-- Node3 -->
<g id="Node000003" class="node">
<title>Node3</title>
<g id="a_Node000003"><a xlink:href="../../d7/d5f/commentscan_8l.html" target="_top" xlink:title=" ">
<polygon fill="white" stroke="#666666" points="329.5,-30 172.5,-30 172.5,0 329.5,0 329.5,-30"/>
<text text-anchor="start" x="180.5" y="-18" font-family="Helvetica,sans-Serif" font-size="10.00">/home/runner/work/doxygen</text>
<text text-anchor="middle" x="251" y="-7" font-family="Helvetica,sans-Serif" font-size="10.00">/doxygen/src/commentscan.l</text>
</a>
</g>
</g>
<!-- Node1&#45;&gt;Node3 -->
<g id="edge2_Node000001_Node000003" class="edge">
<title>Node1&#45;&gt;Node3</title>
<g id="a_edge2_Node000001_Node000003"><a xlink:title=" ">
<path fill="none" stroke="#63b8ff" d="M596.63,-67.4C526.36,-57.5 426.43,-43.23 339,-30 335.94,-29.54 332.82,-29.06 329.67,-28.58"/>
<polygon fill="#63b8ff" stroke="#63b8ff" points="596.39,-70.9 606.78,-68.82 597.37,-63.97 596.39,-70.9"/>
</a>
</g>
</g>
<!-- Node4 -->
<g id="Node000004" class="node">
<title>Node4</title>
<g id="a_Node000004"><a xlink:href="../../dd/d00/fortranscanner_8l.html" target="_top" xlink:title=" ">
<polygon fill="white" stroke="#666666" points="506,-30 348,-30 348,0 506,0 506,-30"/>
<text text-anchor="start" x="356" y="-18" font-family="Helvetica,sans-Serif" font-size="10.00">/home/runner/work/doxygen</text>
<text text-anchor="middle" x="427" y="-7" font-family="Helvetica,sans-Serif" font-size="10.00">/doxygen/src/fortranscanner.l</text>
</a>
</g>
</g>
<!-- Node1&#45;&gt;Node4 -->
<g id="edge3_Node000001_Node000004" class="edge">
<title>Node1&#45;&gt;Node4</title>
<g id="a_edge3_Node000001_Node000004"><a xlink:title=" ">
<path fill="none" stroke="#63b8ff" d="M620.04,-63.52C577.87,-53.14 524.03,-39.88 483.93,-30.01"/>
<polygon fill="#63b8ff" stroke="#63b8ff" points="619.4,-66.96 629.94,-65.95 621.07,-60.17 619.4,-66.96"/>
</a>
</g>
</g>
<!-- Node5 -->
<g id="Node000005" class="node">
<title>Node5</title>
<g id="a_Node000005"><a xlink:href="../../de/d04/markdown_8cpp.html" target="_top" xlink:title=" ">
<polygon fill="white" stroke="#666666" points="678,-30 524,-30 524,0 678,0 678,-30"/>
<text text-anchor="start" x="532" y="-18" font-family="Helvetica,sans-Serif" font-size="10.00">/home/runner/work/doxygen</text>
<text text-anchor="middle" x="601" y="-7" font-family="Helvetica,sans-Serif" font-size="10.00">/doxygen/src/markdown.cpp</text>
</a>
</g>
</g>
<!-- Node1&#45;&gt;Node5 -->
<g id="edge4_Node000001_Node000005" class="edge">
<title>Node1&#45;&gt;Node5</title>
<g id="a_edge4_Node000001_Node000005"><a xlink:title=" ">
<path fill="none" stroke="#63b8ff" d="M659.79,-59.75C646.86,-50.13 631.71,-38.86 620.03,-30.16"/>
<polygon fill="#63b8ff" stroke="#63b8ff" points="657.8,-62.63 667.91,-65.8 661.98,-57.02 657.8,-62.63"/>
</a>
</g>
</g>
<!-- Node6 -->
<g id="Node000006" class="node">
<title>Node6</title>
<g id="a_Node000006"><a xlink:href="../../de/d2b/pyscanner_8l.html" target="_top" xlink:title=" ">
<polygon fill="white" stroke="#666666" points="850,-30 696,-30 696,0 850,0 850,-30"/>
<text text-anchor="start" x="704" y="-18" font-family="Helvetica,sans-Serif" font-size="10.00">/home/runner/work/doxygen</text>
<text text-anchor="middle" x="773" y="-7" font-family="Helvetica,sans-Serif" font-size="10.00">/doxygen/src/pyscanner.l</text>
</a>
</g>
</g>
<!-- Node1&#45;&gt;Node6 -->
<g id="edge5_Node000001_Node000006" class="edge">
<title>Node1&#45;&gt;Node6</title>
<g id="a_edge5_Node000001_Node000006"><a xlink:title=" ">
<path fill="none" stroke="#63b8ff" d="M714.21,-59.75C727.14,-50.13 742.29,-38.86 753.97,-30.16"/>
<polygon fill="#63b8ff" stroke="#63b8ff" points="712.02,-57.02 706.09,-65.8 716.2,-62.63 712.02,-57.02"/>
</a>
</g>
</g>
<!-- Node7 -->
<g id="Node000007" class="node">
<title>Node7</title>
<g id="a_Node000007"><a xlink:href="../../da/d11/scanner_8l.html" target="_top" xlink:title=" ">
<polygon fill="white" stroke="#666666" points="1022,-30 868,-30 868,0 1022,0 1022,-30"/>
<text text-anchor="start" x="876" y="-18" font-family="Helvetica,sans-Serif" font-size="10.00">/home/runner/work/doxygen</text>
<text text-anchor="middle" x="945" y="-7" font-family="Helvetica,sans-Serif" font-size="10.00">/doxygen/src/scanner.l</text>
</a>
</g>
</g>
<!-- Node1&#45;&gt;Node7 -->
<g id="edge6_Node000001_Node000007" class="edge">
<title>Node1&#45;&gt;Node7</title>
<g id="a_edge6_Node000001_Node000007"><a xlink:title=" ">
<path fill="none" stroke="#63b8ff" d="M753.45,-63.52C795.29,-53.14 848.72,-39.88 888.51,-30.01"/>
<polygon fill="#63b8ff" stroke="#63b8ff" points="752.48,-60.15 743.62,-65.95 754.17,-66.94 752.48,-60.15"/>
</a>
</g>
</g>
<!-- Node8 -->
<g id="Node000008" class="node">
<title>Node8</title>
<g id="a_Node000008"><a xlink:href="../../de/dea/vhdldocgen_8cpp.html" target="_top" xlink:title=" ">
<polygon fill="white" stroke="#666666" points="1198,-30 1040,-30 1040,0 1198,0 1198,-30"/>
<text text-anchor="start" x="1048" y="-18" font-family="Helvetica,sans-Serif" font-size="10.00">/home/runner/work/doxygen</text>
<text text-anchor="middle" x="1119" y="-7" font-family="Helvetica,sans-Serif" font-size="10.00">/doxygen/src/vhdldocgen.cpp</text>
</a>
</g>
</g>
<!-- Node1&#45;&gt;Node8 -->
<g id="edge7_Node000001_Node000008" class="edge">
<title>Node1&#45;&gt;Node8</title>
<g id="a_edge7_Node000001_Node000008"><a xlink:title=" ">
<path fill="none" stroke="#63b8ff" d="M777.35,-67.21C846.76,-57.29 944.99,-43.09 1031,-30 1033.91,-29.56 1036.87,-29.1 1039.85,-28.64"/>
<polygon fill="#63b8ff" stroke="#63b8ff" points="776.73,-63.76 767.33,-68.64 777.72,-70.69 776.73,-63.76"/>
</a>
</g>
</g>
<!-- Node9 -->
<g id="Node000009" class="node">
<title>Node9</title>
<g id="a_Node000009"><a xlink:href="../../d1/d86/vhdljjparser_8cpp.html" target="_top" xlink:title=" ">
<polygon fill="white" stroke="#666666" points="1374.5,-30 1215.5,-30 1215.5,0 1374.5,0 1374.5,-30"/>
<text text-anchor="start" x="1223.5" y="-18" font-family="Helvetica,sans-Serif" font-size="10.00">/home/runner/work/doxygen</text>
<text text-anchor="middle" x="1295" y="-7" font-family="Helvetica,sans-Serif" font-size="10.00">/doxygen/src/vhdljjparser.cpp</text>
</a>
</g>
</g>
<!-- Node1&#45;&gt;Node9 -->
<g id="edge8_Node000001_Node000009" class="edge">
<title>Node1&#45;&gt;Node9</title>
<g id="a_edge8_Node000001_Node000009"><a xlink:title=" ">
<path fill="none" stroke="#63b8ff" d="M777.48,-73.01C881.37,-64.59 1056.81,-49.15 1207,-30 1209.76,-29.65 1212.57,-29.28 1215.41,-28.89"/>
<polygon fill="#63b8ff" stroke="#63b8ff" points="777.03,-69.53 767.35,-73.83 777.59,-76.51 777.03,-69.53"/>
</a>
</g>
</g>
</g>
</svg>
