<?xml version="1.0" encoding="UTF-8" standalone="no"?>
<!DOCTYPE svg PUBLIC "-//W3C//DTD SVG 1.1//EN"
 "http://www.w3.org/Graphics/SVG/1.1/DTD/svg11.dtd">
<!-- Generated by graphviz version 2.43.0 (0)
 -->
<!-- Title: LexCodeParser::Private Pages: 1 -->
<svg width="646pt" height="284pt"
 viewBox="0.00 0.00 646.00 284.00" xmlns="http://www.w3.org/2000/svg" xmlns:xlink="http://www.w3.org/1999/xlink">
<g id="graph0" class="graph" transform="scale(1 1) rotate(0) translate(4 280)">
<title>LexCodeParser::Private</title>
<!-- Node1 -->
<g id="Node000001" class="node">
<title>Node1</title>
<g id="a_Node000001"><a xlink:title=" ">
<polygon fill="#999999" stroke="#666666" points="354.5,-19 225.5,-19 225.5,0 354.5,0 354.5,-19"/>
<text text-anchor="middle" x="290" y="-7" font-family="Helvetica,sans-Serif" font-size="10.00">LexCodeParser::Private</text>
</a>
</g>
</g>
<!-- Node2 -->
<g id="Node000002" class="node">
<title>Node2</title>
<g id="a_Node000002"><a xlink:href="../../d1/d06/structlexcode_y_y__state.html" target="_top" xlink:title=" ">
<polygon fill="white" stroke="#666666" points="338.5,-85 241.5,-85 241.5,-66 338.5,-66 338.5,-85"/>
<text text-anchor="middle" x="290" y="-73" font-family="Helvetica,sans-Serif" font-size="10.00">lexcodeYY_state</text>
</a>
</g>
</g>
<!-- Node2&#45;&gt;Node1 -->
<g id="edge1_Node000001_Node000002" class="edge">
<title>Node2&#45;&gt;Node1</title>
<g id="a_edge1_Node000001_Node000002"><a xlink:title=" ">
<path fill="none" stroke="#9a32cd" stroke-dasharray="5,2" d="M290,-55.58C290,-43.63 290,-28.72 290,-19.41"/>
<polygon fill="#9a32cd" stroke="#9a32cd" points="286.5,-55.87 290,-65.87 293.5,-55.87 286.5,-55.87"/>
</a>
</g>
<text text-anchor="middle" x="304" y="-40" font-family="Helvetica,sans-Serif" font-size="10.00" fill="grey"> state</text>
</g>
<!-- Node3 -->
<g id="Node000003" class="node">
<title>Node3</title>
<g id="a_Node000003"><a xlink:href="../../db/d8e/class_output_code_list.html" target="_top" xlink:title="Class representing a list of different code generators.">
<polygon fill="white" stroke="#666666" points="92,-218.5 0,-218.5 0,-199.5 92,-199.5 92,-218.5"/>
<text text-anchor="middle" x="46" y="-206.5" font-family="Helvetica,sans-Serif" font-size="10.00">OutputCodeList</text>
</a>
</g>
</g>
<!-- Node3&#45;&gt;Node2 -->
<g id="edge2_Node000002_Node000003" class="edge">
<title>Node3&#45;&gt;Node2</title>
<g id="a_edge2_Node000002_Node000003"><a xlink:title=" ">
<path fill="none" stroke="#9a32cd" stroke-dasharray="5,2" d="M52.01,-189.74C60.97,-165.6 80.27,-123.73 112,-103 132.73,-89.46 196.02,-82.53 241.23,-79.21"/>
<polygon fill="#9a32cd" stroke="#9a32cd" points="48.61,-188.84 48.61,-199.44 55.22,-191.15 48.61,-188.84"/>
</a>
</g>
<text text-anchor="middle" x="125.5" y="-139" font-family="Helvetica,sans-Serif" font-size="10.00" fill="grey"> code</text>
</g>
<!-- Node4 -->
<g id="Node000004" class="node">
<title>Node4</title>
<g id="a_Node000004"><a xlink:href="../../d0/d53/class_c_code_parser.html" target="_top" xlink:title=" ">
<polygon fill="white" stroke="#666666" points="188,-218.5 110,-218.5 110,-199.5 188,-199.5 188,-218.5"/>
<text text-anchor="middle" x="149" y="-206.5" font-family="Helvetica,sans-Serif" font-size="10.00">CCodeParser</text>
</a>
</g>
</g>
<!-- Node4&#45;&gt;Node2 -->
<g id="edge3_Node000002_Node000004" class="edge">
<title>Node4&#45;&gt;Node2</title>
<g id="a_edge3_Node000002_Node000004"><a xlink:title=" ">
<path fill="none" stroke="#9a32cd" stroke-dasharray="5,2" d="M144.98,-189.34C141.15,-166.05 138.72,-126.44 160,-103 170.91,-90.98 209.24,-84.16 241.48,-80.46"/>
<polygon fill="#9a32cd" stroke="#9a32cd" points="141.57,-190.15 146.88,-199.32 148.45,-188.84 141.57,-190.15"/>
</a>
</g>
<text text-anchor="middle" x="191" y="-139" font-family="Helvetica,sans-Serif" font-size="10.00" fill="grey"> ccodeParser</text>
</g>
<!-- Node5 -->
<g id="Node000005" class="node">
<title>Node5</title>
<g id="a_Node000005"><a xlink:href="../../d4/d65/class_code_parser_interface.html" target="_top" xlink:title="Abstract interface for code parsers.">
<polygon fill="white" stroke="#666666" points="206.5,-276 91.5,-276 91.5,-257 206.5,-257 206.5,-276"/>
<text text-anchor="middle" x="149" y="-264" font-family="Helvetica,sans-Serif" font-size="10.00">CodeParserInterface</text>
</a>
</g>
</g>
<!-- Node5&#45;&gt;Node4 -->
<g id="edge4_Node000004_Node000005" class="edge">
<title>Node5&#45;&gt;Node4</title>
<g id="a_edge4_Node000004_Node000005"><a xlink:title=" ">
<path fill="none" stroke="#63b8ff" d="M149,-246.75C149,-237.3 149,-226.28 149,-218.79"/>
<polygon fill="#63b8ff" stroke="#63b8ff" points="145.5,-246.83 149,-256.83 152.5,-246.83 145.5,-246.83"/>
</a>
</g>
</g>
<!-- Node6 -->
<g id="Node000006" class="node">
<title>Node6</title>
<g id="a_Node000006"><a xlink:href="../../d9/d45/class_q_c_string.html" target="_top" xlink:title="This is an alternative implementation of QCString.">
<polygon fill="white" stroke="#666666" points="265.5,-218.5 206.5,-218.5 206.5,-199.5 265.5,-199.5 265.5,-218.5"/>
<text text-anchor="middle" x="236" y="-206.5" font-family="Helvetica,sans-Serif" font-size="10.00">QCString</text>
</a>
</g>
</g>
<!-- Node6&#45;&gt;Node2 -->
<g id="edge5_Node000002_Node000006" class="edge">
<title>Node6&#45;&gt;Node2</title>
<g id="a_edge5_Node000002_Node000006"><a xlink:title=" ">
<path fill="none" stroke="#9a32cd" stroke-dasharray="5,2" d="M230.47,-189.41C225,-167.08 219.59,-129.34 236,-103 241.14,-94.76 249.67,-89.01 258.45,-85.02"/>
<polygon fill="#9a32cd" stroke="#9a32cd" points="227.15,-190.54 233.15,-199.28 233.91,-188.71 227.15,-190.54"/>
</a>
</g>
<text text-anchor="middle" x="280" y="-172" font-family="Helvetica,sans-Serif" font-size="10.00" fill="grey"> CCodeBuffer</text>
<text text-anchor="middle" x="280" y="-161" font-family="Helvetica,sans-Serif" font-size="10.00" fill="grey">classScope</text>
<text text-anchor="middle" x="280" y="-150" font-family="Helvetica,sans-Serif" font-size="10.00" fill="grey">delimiter</text>
<text text-anchor="middle" x="280" y="-139" font-family="Helvetica,sans-Serif" font-size="10.00" fill="grey">docBlockName</text>
<text text-anchor="middle" x="280" y="-128" font-family="Helvetica,sans-Serif" font-size="10.00" fill="grey">exampleName</text>
<text text-anchor="middle" x="280" y="-117" font-family="Helvetica,sans-Serif" font-size="10.00" fill="grey">fileName</text>
<text text-anchor="middle" x="280" y="-106" font-family="Helvetica,sans-Serif" font-size="10.00" fill="grey">rulesPatternBuffer</text>
</g>
<!-- Node7 -->
<g id="Node000007" class="node">
<title>Node7</title>
<g id="a_Node000007"><a xlink:href="../../d5/dcc/class_definition.html" target="_top" xlink:title="The common base class of all entity definitions found in the sources.">
<polygon fill="white" stroke="#666666" points="489,-276 425,-276 425,-257 489,-257 489,-276"/>
<text text-anchor="middle" x="457" y="-264" font-family="Helvetica,sans-Serif" font-size="10.00">Definition</text>
</a>
</g>
</g>
<!-- Node7&#45;&gt;Node2 -->
<g id="edge6_Node000002_Node000007" class="edge">
<title>Node7&#45;&gt;Node2</title>
<g id="a_edge6_Node000002_Node000007"><a xlink:title=" ">
<path fill="none" stroke="#9a32cd" stroke-dasharray="5,2" d="M458.13,-246.66C459.99,-208.4 461.83,-123.51 443,-103 429.19,-87.96 378.14,-81.44 338.77,-78.62"/>
<polygon fill="#9a32cd" stroke="#9a32cd" points="454.62,-246.74 457.57,-256.91 461.61,-247.12 454.62,-246.74"/>
</a>
</g>
<text text-anchor="middle" x="502.5" y="-212" font-family="Helvetica,sans-Serif" font-size="10.00" fill="grey"> currentDefinition</text>
<text text-anchor="middle" x="502.5" y="-201" font-family="Helvetica,sans-Serif" font-size="10.00" fill="grey">searchCtx</text>
</g>
<!-- Node8 -->
<g id="Node000008" class="node">
<title>Node8</title>
<g id="a_Node000008"><a xlink:href="../../de/db0/class_file_def.html" target="_top" xlink:title="A model of a file symbol.">
<polygon fill="white" stroke="#666666" points="611.5,-218.5 560.5,-218.5 560.5,-199.5 611.5,-199.5 611.5,-218.5"/>
<text text-anchor="middle" x="586" y="-206.5" font-family="Helvetica,sans-Serif" font-size="10.00">FileDef</text>
</a>
</g>
</g>
<!-- Node7&#45;&gt;Node8 -->
<g id="edge9_Node000008_Node000007" class="edge">
<title>Node7&#45;&gt;Node8</title>
<g id="a_edge9_Node000008_Node000007"><a xlink:title=" ">
<path fill="none" stroke="#63b8ff" d="M486.32,-252.89C510.63,-242.43 544.55,-227.83 565.89,-218.65"/>
<polygon fill="#63b8ff" stroke="#63b8ff" points="484.68,-249.78 476.87,-256.95 487.44,-256.21 484.68,-249.78"/>
</a>
</g>
</g>
<!-- Node10 -->
<g id="Node000010" class="node">
<title>Node10</title>
<g id="a_Node000010"><a xlink:href="../../da/d09/class_member_def.html" target="_top" xlink:title="A model of a class/file/namespace member symbol.">
<polygon fill="white" stroke="#666666" points="402,-218.5 328,-218.5 328,-199.5 402,-199.5 402,-218.5"/>
<text text-anchor="middle" x="365" y="-206.5" font-family="Helvetica,sans-Serif" font-size="10.00">MemberDef</text>
</a>
</g>
</g>
<!-- Node7&#45;&gt;Node10 -->
<g id="edge11_Node000010_Node000007" class="edge">
<title>Node7&#45;&gt;Node10</title>
<g id="a_edge11_Node000010_Node000007"><a xlink:title=" ">
<path fill="none" stroke="#63b8ff" d="M433.77,-251.48C416.62,-241.14 393.82,-227.39 379.27,-218.61"/>
<polygon fill="#63b8ff" stroke="#63b8ff" points="432.25,-254.66 442.62,-256.83 435.87,-248.67 432.25,-254.66"/>
</a>
</g>
</g>
<!-- Node8&#45;&gt;Node2 -->
<g id="edge7_Node000002_Node000008" class="edge">
<title>Node8&#45;&gt;Node2</title>
<g id="a_edge7_Node000002_Node000008"><a xlink:title=" ">
<path fill="none" stroke="#9a32cd" stroke-dasharray="5,2" d="M573.24,-191.25C553.96,-167.29 514.97,-123.85 471,-103 429.25,-83.21 376.49,-77.35 338.72,-75.99"/>
<polygon fill="#9a32cd" stroke="#9a32cd" points="570.7,-193.68 579.63,-199.38 576.21,-189.36 570.7,-193.68"/>
</a>
</g>
<text text-anchor="middle" x="598" y="-139" font-family="Helvetica,sans-Serif" font-size="10.00" fill="grey"> sourceFileDef</text>
</g>
<!-- Node9 -->
<g id="Node000009" class="node">
<title>Node9</title>
<g id="a_Node000009"><a xlink:href="../../d0/d46/class_definition_mutable.html" target="_top" xlink:title=" ">
<polygon fill="white" stroke="#666666" points="638,-276 534,-276 534,-257 638,-257 638,-276"/>
<text text-anchor="middle" x="586" y="-264" font-family="Helvetica,sans-Serif" font-size="10.00">DefinitionMutable</text>
</a>
</g>
</g>
<!-- Node9&#45;&gt;Node8 -->
<g id="edge8_Node000008_Node000009" class="edge">
<title>Node9&#45;&gt;Node8</title>
<g id="a_edge8_Node000008_Node000009"><a xlink:title=" ">
<path fill="none" stroke="#63b8ff" d="M586,-246.75C586,-237.3 586,-226.28 586,-218.79"/>
<polygon fill="#63b8ff" stroke="#63b8ff" points="582.5,-246.83 586,-256.83 589.5,-246.83 582.5,-246.83"/>
</a>
</g>
</g>
<!-- Node10&#45;&gt;Node2 -->
<g id="edge10_Node000002_Node000010" class="edge">
<title>Node10&#45;&gt;Node2</title>
<g id="a_edge10_Node000002_Node000010"><a xlink:title=" ">
<path fill="none" stroke="#9a32cd" stroke-dasharray="5,2" d="M352.79,-190.65C350.68,-187.22 348.64,-183.57 347,-180 332.08,-147.55 344.15,-132.49 324,-103 319.1,-95.83 311.66,-89.72 304.99,-85.18"/>
<polygon fill="#9a32cd" stroke="#9a32cd" points="349.89,-192.62 358.32,-199.04 355.74,-188.76 349.89,-192.62"/>
</a>
</g>
<text text-anchor="middle" x="395" y="-139" font-family="Helvetica,sans-Serif" font-size="10.00" fill="grey"> currentMemberDef</text>
</g>
</g>
</svg>
