<?xml version="1.0" encoding="UTF-8" standalone="no"?>
<!DOCTYPE svg PUBLIC "-//W3C//DTD SVG 1.1//EN"
 "http://www.w3.org/Graphics/SVG/1.1/DTD/svg11.dtd">
<!-- Generated by graphviz version 2.43.0 (0)
 -->
<!-- Title: CommentScanner::Private Pages: 1 -->
<!--zoomable 536 -->

<svg id="main" version="1.1" xmlns="http://www.w3.org/2000/svg" xmlns:xlink="http://www.w3.org/1999/xlink" xml:space="preserve" onload="init(evt)">

<style type="text/css"><![CDATA[
.node, .edge {opacity: 0.7;}
.node.selected, .edge.selected {opacity: 1;}
.edge:hover path { stroke: red; }
.edge:hover polygon { stroke: red; fill: red; }
]]></style>

<defs>
  <circle id="rim" cx="0" cy="0" r="7"/>
  <circle id="rim2" cx="0" cy="0" r="3.5"/>
  <g id="zoomPlus">
    <use xlink:href="#rim" fill="#404040"><set attributeName="fill" to="#808080" begin="zoomplus.mouseover" end="zoomplus.mouseout"/></use>
    <path d="M-4,0h8M0,-4v8" fill="none" stroke="white" stroke-width="1.5" pointer-events="none"/>
  </g>
  <g id="zoomMin">
    <use xlink:href="#rim" fill="#404040"><set attributeName="fill" to="#808080" begin="zoomminus.mouseover" end="zoomminus.mouseout"/></use>
    <path d="M-4,0h8" fill="none" stroke="white" stroke-width="1.5" pointer-events="none"/>
  </g>
  <g id="arrowUp" transform="translate(30 24)">
    <use xlink:href="#rim"/>
    <path pointer-events="none" fill="none" stroke="white" stroke-width="1.5" d="M0,-3.0v7 M-2.5,-0.5L0,-3.0L2.5,-0.5"/>
  </g>
  <g id="arrowRight" transform="rotate(90) translate(36 -43)">
    <use xlink:href="#rim"/>
    <path pointer-events="none" fill="none" stroke="white" stroke-width="1.5" d="M0,-3.0v7 M-2.5,-0.5L0,-3.0L2.5,-0.5"/>
  </g>
  <g id="arrowDown" transform="rotate(180) translate(-30 -48)">
    <use xlink:href="#rim"/>
    <path pointer-events="none" fill="none" stroke="white" stroke-width="1.5" d="M0,-3.0v7 M-2.5,-0.5L0,-3.0L2.5,-0.5"/>
  </g>
  <g id="arrowLeft" transform="rotate(270) translate(-36 17)">
    <use xlink:href="#rim"/>
    <path pointer-events="none" fill="none" stroke="white" stroke-width="1.5" d="M0,-3.0v7 M-2.5,-0.5L0,-3.0L2.5,-0.5"/>
  </g>
  <g id="resetDef">
    <use xlink:href="#rim2" fill="#404040"><set attributeName="fill" to="#808080" begin="reset.mouseover" end="reset.mouseout"/></use>
  </g>
</defs>
<script type="application/ecmascript">
var viewWidth = 1239;
var viewHeight = 536;
var sectionId = 'dynsection-0';
</script>
<script type="application/ecmascript" xlink:href="../../svg.min.js"/>
<svg id="graph" class="graph">
<g id="viewport">
<title>CommentScanner::Private</title>
<!-- Node1 -->
<g id="Node000001" class="node">
<title>Node1</title>
<g id="a_Node000001"><a xlink:title=" ">
<polygon fill="#999999" stroke="#666666" points="329.5,-19 185.5,-19 185.5,0 329.5,0 329.5,-19"/>
<text text-anchor="middle" x="257.5" y="-7" font-family="Helvetica,sans-Serif" font-size="10.00">CommentScanner::Private</text>
</a>
</g>
</g>
<!-- Node2 -->
<g id="Node000002" class="node">
<title>Node2</title>
<g id="a_Node000002"><a xlink:href="../../d4/de8/structcommentscan_y_y__state.html" target="_top" xlink:title=" ">
<polygon fill="white" stroke="#666666" points="321.5,-85 193.5,-85 193.5,-66 321.5,-66 321.5,-85"/>
<text text-anchor="middle" x="257.5" y="-73" font-family="Helvetica,sans-Serif" font-size="10.00">commentscanYY_state</text>
</a>
</g>
</g>
<!-- Node2&#45;&gt;Node1 -->
<g id="edge1_Node000001_Node000002" class="edge">
<title>Node2&#45;&gt;Node1</title>
<g id="a_edge1_Node000001_Node000002"><a xlink:title=" ">
<path fill="none" stroke="#9a32cd" stroke-dasharray="5,2" d="M257.5,-55.58C257.5,-43.63 257.5,-28.72 257.5,-19.41"/>
<polygon fill="#9a32cd" stroke="#9a32cd" points="254,-55.87 257.5,-65.87 261,-55.87 254,-55.87"/>
</a>
</g>
<text text-anchor="middle" x="272" y="-40" font-family="Helvetica,sans-Serif" font-size="10.00" fill="grey"> extra</text>
</g>
<!-- Node3 -->
<g id="Node000003" class="node">
<title>Node3</title>
<g id="a_Node000003"><a xlink:href="../../d5/d79/class_outline_parser_interface.html" target="_top" xlink:title="Abstract interface for outline parsers.">
<polygon fill="white" stroke="#666666" points="125,-151 0,-151 0,-132 125,-132 125,-151"/>
<text text-anchor="middle" x="62.5" y="-139" font-family="Helvetica,sans-Serif" font-size="10.00">OutlineParserInterface</text>
</a>
</g>
</g>
<!-- Node3&#45;&gt;Node2 -->
<g id="edge2_Node000002_Node000003" class="edge">
<title>Node3&#45;&gt;Node2</title>
<g id="a_edge2_Node000002_Node000003"><a xlink:title=" ">
<path fill="none" stroke="#9a32cd" stroke-dasharray="5,2" d="M69.21,-122.14C72.71,-115.08 77.7,-107.61 84.5,-103 101.98,-91.14 151.48,-84.35 193.07,-80.62"/>
<polygon fill="#9a32cd" stroke="#9a32cd" points="65.79,-121.25 65.13,-131.82 72.24,-123.97 65.79,-121.25"/>
</a>
</g>
<text text-anchor="middle" x="112" y="-106" font-family="Helvetica,sans-Serif" font-size="10.00" fill="grey"> langParser</text>
</g>
<!-- Node4 -->
<g id="Node000004" class="node">
<title>Node4</title>
<g id="a_Node000004"><a xlink:href="../../d9/d45/class_q_c_string.html" target="_top" xlink:title="This is an alternative implementation of QCString.">
<polygon fill="white" stroke="#666666" points="768,-528 709,-528 709,-509 768,-509 768,-528"/>
<text text-anchor="middle" x="738.5" y="-516" font-family="Helvetica,sans-Serif" font-size="10.00">QCString</text>
</a>
</g>
</g>
<!-- Node4&#45;&gt;Node2 -->
<g id="edge3_Node000002_Node000004" class="edge">
<title>Node4&#45;&gt;Node2</title>
<g id="a_edge3_Node000002_Node000004"><a xlink:title=" ">
<path fill="none" stroke="#9a32cd" stroke-dasharray="5,2" d="M698.69,-517.67C581.3,-517.25 240.47,-509.02 172.5,-429 97.69,-340.93 129.23,-276.55 171.5,-169 186.34,-131.25 224.64,-99.75 244.75,-85.19"/>
<polygon fill="#9a32cd" stroke="#9a32cd" points="698.69,-521.17 708.7,-517.69 698.7,-514.17 698.69,-521.17"/>
</a>
</g>
<text text-anchor="middle" x="211.5" y="-282" font-family="Helvetica,sans-Serif" font-size="10.00" fill="grey"> anchorTitle</text>
<text text-anchor="middle" x="211.5" y="-271" font-family="Helvetica,sans-Serif" font-size="10.00" fill="grey">blockName</text>
<text text-anchor="middle" x="211.5" y="-260" font-family="Helvetica,sans-Serif" font-size="10.00" fill="grey">copyDocArg</text>
<text text-anchor="middle" x="211.5" y="-249" font-family="Helvetica,sans-Serif" font-size="10.00" fill="grey">currentCmd</text>
<text text-anchor="middle" x="211.5" y="-238" font-family="Helvetica,sans-Serif" font-size="10.00" fill="grey">fileName</text>
<text text-anchor="middle" x="211.5" y="-227" font-family="Helvetica,sans-Serif" font-size="10.00" fill="grey">formulaEnv</text>
<text text-anchor="middle" x="211.5" y="-216" font-family="Helvetica,sans-Serif" font-size="10.00" fill="grey">formulaPostText</text>
<text text-anchor="middle" x="211.5" y="-205" font-family="Helvetica,sans-Serif" font-size="10.00" fill="grey">formulaPreText</text>
<text text-anchor="middle" x="211.5" y="-194" font-family="Helvetica,sans-Serif" font-size="10.00" fill="grey">formulaText</text>
<text text-anchor="middle" x="211.5" y="-183" font-family="Helvetica,sans-Serif" font-size="10.00" fill="grey">functionProto</text>
<text text-anchor="middle" x="211.5" y="-172" font-family="Helvetica,sans-Serif" font-size="10.00" fill="grey">...</text>
</g>
<!-- Node6 -->
<g id="Node000006" class="node">
<title>Node6</title>
<g id="a_Node000006"><a xlink:href="../../d4/dd7/class_entry.html" target="_top" xlink:title="Represents an unstructured piece of information, about an entity found in the sources.">
<polygon fill="white" stroke="#666666" points="595.5,-151 553.5,-151 553.5,-132 595.5,-132 595.5,-151"/>
<text text-anchor="middle" x="574.5" y="-139" font-family="Helvetica,sans-Serif" font-size="10.00">Entry</text>
</a>
</g>
</g>
<!-- Node4&#45;&gt;Node6 -->
<g id="edge7_Node000006_Node000004" class="edge">
<title>Node4&#45;&gt;Node6</title>
<g id="a_edge7_Node000006_Node000004"><a xlink:title=" ">
<path fill="none" stroke="#9a32cd" stroke-dasharray="5,2" d="M698.59,-514.05C647.98,-507.29 562.61,-487.39 523.5,-429 493.57,-384.32 515.49,-361.18 523.5,-308 532.81,-246.16 560.66,-175.55 570.78,-151.25"/>
<polygon fill="#9a32cd" stroke="#9a32cd" points="698.48,-517.56 708.83,-515.3 699.33,-510.62 698.48,-517.56"/>
</a>
</g>
<text text-anchor="middle" x="552.5" y="-421" font-family="Helvetica,sans-Serif" font-size="10.00" fill="grey"> args</text>
<text text-anchor="middle" x="552.5" y="-410" font-family="Helvetica,sans-Serif" font-size="10.00" fill="grey">bitfields</text>
<text text-anchor="middle" x="552.5" y="-399" font-family="Helvetica,sans-Serif" font-size="10.00" fill="grey">brief</text>
<text text-anchor="middle" x="552.5" y="-388" font-family="Helvetica,sans-Serif" font-size="10.00" fill="grey">briefFile</text>
<text text-anchor="middle" x="552.5" y="-377" font-family="Helvetica,sans-Serif" font-size="10.00" fill="grey">doc</text>
<text text-anchor="middle" x="552.5" y="-366" font-family="Helvetica,sans-Serif" font-size="10.00" fill="grey">docFile</text>
<text text-anchor="middle" x="552.5" y="-355" font-family="Helvetica,sans-Serif" font-size="10.00" fill="grey">exception</text>
<text text-anchor="middle" x="552.5" y="-344" font-family="Helvetica,sans-Serif" font-size="10.00" fill="grey">fileName</text>
<text text-anchor="middle" x="552.5" y="-333" font-family="Helvetica,sans-Serif" font-size="10.00" fill="grey">id</text>
<text text-anchor="middle" x="552.5" y="-322" font-family="Helvetica,sans-Serif" font-size="10.00" fill="grey">inbodyDocs</text>
<text text-anchor="middle" x="552.5" y="-311" font-family="Helvetica,sans-Serif" font-size="10.00" fill="grey">...</text>
</g>
<!-- Node7 -->
<g id="Node000007" class="node">
<title>Node7</title>
<g id="a_Node000007"><a xlink:href="../../d3/dc3/struct_tag_info.html" target="_top" xlink:title="This struct is used to capture the tag file information for an Entry.">
<polygon fill="white" stroke="#666666" points="808.5,-378 756.5,-378 756.5,-359 808.5,-359 808.5,-378"/>
<text text-anchor="middle" x="782.5" y="-366" font-family="Helvetica,sans-Serif" font-size="10.00">TagInfo</text>
</a>
</g>
</g>
<!-- Node4&#45;&gt;Node7 -->
<g id="edge9_Node000007_Node000004" class="edge">
<title>Node4&#45;&gt;Node7</title>
<g id="a_edge9_Node000007_Node000004"><a xlink:title=" ">
<path fill="none" stroke="#9a32cd" stroke-dasharray="5,2" d="M736.29,-498.49C735.21,-484.1 734.97,-463.99 739.5,-447 741.47,-439.6 766.36,-396.88 777.35,-378.22"/>
<polygon fill="#9a32cd" stroke="#9a32cd" points="732.83,-499.01 737.26,-508.63 739.79,-498.34 732.83,-499.01"/>
</a>
</g>
<text text-anchor="middle" x="762.5" y="-477.5" font-family="Helvetica,sans-Serif" font-size="10.00" fill="grey"> anchor</text>
<text text-anchor="middle" x="762.5" y="-466.5" font-family="Helvetica,sans-Serif" font-size="10.00" fill="grey">fileName</text>
<text text-anchor="middle" x="762.5" y="-455.5" font-family="Helvetica,sans-Serif" font-size="10.00" fill="grey">tagName</text>
</g>
<!-- Node10 -->
<g id="Node000010" class="node">
<title>Node10</title>
<g id="a_Node000010"><a xlink:href="../../d7/df8/class_argument_list.html" target="_top" xlink:title="This class represents an function or template argument list.">
<polygon fill="white" stroke="#666666" points="908.5,-378 826.5,-378 826.5,-359 908.5,-359 908.5,-378"/>
<text text-anchor="middle" x="867.5" y="-366" font-family="Helvetica,sans-Serif" font-size="10.00">ArgumentList</text>
</a>
</g>
</g>
<!-- Node4&#45;&gt;Node10 -->
<g id="edge13_Node000010_Node000004" class="edge">
<title>Node4&#45;&gt;Node10</title>
<g id="a_edge13_Node000010_Node000004"><a xlink:title=" ">
<path fill="none" stroke="#9a32cd" stroke-dasharray="5,2" d="M768.37,-504.09C774.51,-500.44 780.6,-496.06 785.5,-491 800.85,-475.15 796.66,-465.62 808.5,-447 825.19,-420.74 848.37,-392.19 860.08,-378.21"/>
<polygon fill="#9a32cd" stroke="#9a32cd" points="766.57,-501.09 759.45,-508.93 769.91,-507.24 766.57,-501.09"/>
</a>
</g>
<text text-anchor="middle" x="862.5" y="-466.5" font-family="Helvetica,sans-Serif" font-size="10.00" fill="grey"> m_trailingReturnType</text>
</g>
<!-- Node16 -->
<g id="Node000016" class="node">
<title>Node16</title>
<g id="a_Node000016"><a xlink:href="../../d1/d05/class_doc_group.html" target="_top" xlink:title=" ">
<polygon fill="white" stroke="#666666" points="972,-239 907,-239 907,-220 972,-220 972,-239"/>
<text text-anchor="middle" x="939.5" y="-227" font-family="Helvetica,sans-Serif" font-size="10.00">DocGroup</text>
</a>
</g>
</g>
<!-- Node4&#45;&gt;Node16 -->
<g id="edge21_Node000016_Node000004" class="edge">
<title>Node4&#45;&gt;Node16</title>
<g id="a_edge21_Node000016_Node000004"><a xlink:title=" ">
<path fill="none" stroke="#9a32cd" stroke-dasharray="5,2" d="M778.23,-517.11C824.86,-515.74 898.18,-510.45 916.5,-491 985.61,-417.63 952.15,-275.61 942.05,-239.18"/>
<polygon fill="#9a32cd" stroke="#9a32cd" points="778.05,-513.61 768.14,-517.36 778.23,-520.61 778.05,-513.61"/>
</a>
</g>
<text text-anchor="middle" x="1004" y="-483" font-family="Helvetica,sans-Serif" font-size="10.00" fill="grey"> m_compoundName</text>
<text text-anchor="middle" x="1004" y="-472" font-family="Helvetica,sans-Serif" font-size="10.00" fill="grey">m_memberGroupDocs</text>
<text text-anchor="middle" x="1004" y="-461" font-family="Helvetica,sans-Serif" font-size="10.00" fill="grey">m_memberGroupHeader</text>
<text text-anchor="middle" x="1004" y="-450" font-family="Helvetica,sans-Serif" font-size="10.00" fill="grey">m_memberGroupRelates</text>
</g>
<!-- Node5 -->
<g id="Node000005" class="node">
<title>Node5</title>
<g id="a_Node000005"><a xlink:href="../../d0/d32/class_entry_type.html" target="_top" xlink:title="Wrapper class for the Entry type.">
<polygon fill="white" stroke="#666666" points="346,-378 281,-378 281,-359 346,-359 346,-378"/>
<text text-anchor="middle" x="313.5" y="-366" font-family="Helvetica,sans-Serif" font-size="10.00">EntryType</text>
</a>
</g>
</g>
<!-- Node5&#45;&gt;Node2 -->
<g id="edge4_Node000002_Node000005" class="edge">
<title>Node5&#45;&gt;Node2</title>
<g id="a_edge4_Node000002_Node000005"><a xlink:title=" ">
<path fill="none" stroke="#9a32cd" stroke-dasharray="5,2" d="M301.61,-350.7C291.62,-335.59 277.97,-312.4 271.5,-290 249.35,-213.27 254.53,-114.83 256.76,-85.27"/>
<polygon fill="#9a32cd" stroke="#9a32cd" points="298.73,-352.69 307.26,-358.98 304.51,-348.74 298.73,-352.69"/>
</a>
</g>
<text text-anchor="middle" x="311.5" y="-139" font-family="Helvetica,sans-Serif" font-size="10.00" fill="grey"> currentMakeEntryType</text>
</g>
<!-- Node5&#45;&gt;Node6 -->
<g id="edge6_Node000006_Node000005" class="edge">
<title>Node5&#45;&gt;Node6</title>
<g id="a_edge6_Node000006_Node000005"><a xlink:title=" ">
<path fill="none" stroke="#9a32cd" stroke-dasharray="5,2" d="M315.26,-348.54C319.82,-301.32 332.57,-181.37 345.5,-169 374.93,-140.85 502.28,-140.71 553.27,-141.84"/>
<polygon fill="#9a32cd" stroke="#9a32cd" points="311.76,-348.35 314.3,-358.63 318.73,-349.01 311.76,-348.35"/>
</a>
</g>
<text text-anchor="middle" x="365" y="-227" font-family="Helvetica,sans-Serif" font-size="10.00" fill="grey"> section</text>
</g>
<!-- Node6&#45;&gt;Node2 -->
<g id="edge5_Node000002_Node000006" class="edge">
<title>Node6&#45;&gt;Node2</title>
<g id="a_edge5_Node000002_Node000006"><a xlink:title=" ">
<path fill="none" stroke="#9a32cd" stroke-dasharray="5,2" d="M543.31,-134.2C486.13,-122.66 364.49,-98.1 299.88,-85.06"/>
<polygon fill="#9a32cd" stroke="#9a32cd" points="542.71,-137.65 553.21,-136.2 544.1,-130.79 542.71,-137.65"/>
</a>
</g>
<text text-anchor="middle" x="454.5" y="-106" font-family="Helvetica,sans-Serif" font-size="10.00" fill="grey"> current</text>
</g>
<!-- Node6&#45;&gt;Node6 -->
<g id="edge16_Node000006_Node000006" class="edge">
<title>Node6&#45;&gt;Node6</title>
<g id="a_edge16_Node000006_Node000006"><a xlink:title=" ">
<path fill="none" stroke="#9a32cd" stroke-dasharray="5,2" d="M605.91,-146.91C610.45,-146.04 613.5,-144.24 613.5,-141.5 613.5,-137 605.27,-135.03 595.76,-135.59"/>
<polygon fill="#9a32cd" stroke="#9a32cd" points="605.58,-143.42 595.76,-147.41 605.92,-150.41 605.58,-143.42"/>
</a>
</g>
<text text-anchor="middle" x="638.5" y="-139" font-family="Helvetica,sans-Serif" font-size="10.00" fill="grey"> m_parent</text>
</g>
<!-- Node7&#45;&gt;Node6 -->
<g id="edge8_Node000006_Node000007" class="edge">
<title>Node7&#45;&gt;Node6</title>
<g id="a_edge8_Node000006_Node000007"><a xlink:title=" ">
<path fill="none" stroke="#9a32cd" stroke-dasharray="5,2" d="M777.97,-348.97C774.2,-333.29 768.77,-310.23 764.5,-290 753.19,-236.44 780.79,-207.11 741.5,-169 721.06,-149.17 635.69,-144.18 595.54,-142.92"/>
<polygon fill="#9a32cd" stroke="#9a32cd" points="774.63,-350.03 780.39,-358.92 781.43,-348.38 774.63,-350.03"/>
</a>
</g>
<text text-anchor="middle" x="795" y="-227" font-family="Helvetica,sans-Serif" font-size="10.00" fill="grey"> tagInfoData</text>
</g>
<!-- Node8 -->
<g id="Node000008" class="node">
<title>Node8</title>
<g id="a_Node000008"><a xlink:href="../../d7/dc8/class_type_specifier.html" target="_top" xlink:title="Wrapper class for a number of boolean properties.">
<polygon fill="white" stroke="#666666" points="263,-378 182,-378 182,-359 263,-359 263,-378"/>
<text text-anchor="middle" x="222.5" y="-366" font-family="Helvetica,sans-Serif" font-size="10.00">TypeSpecifier</text>
</a>
</g>
</g>
<!-- Node8&#45;&gt;Node6 -->
<g id="edge10_Node000006_Node000008" class="edge">
<title>Node8&#45;&gt;Node6</title>
<g id="a_edge10_Node000006_Node000008"><a xlink:title=" ">
<path fill="none" stroke="#9a32cd" stroke-dasharray="5,2" d="M226.39,-348.92C236.18,-304.07 263.16,-191.9 292.5,-169 312.95,-153.04 491.26,-145.39 553.32,-143.19"/>
<polygon fill="#9a32cd" stroke="#9a32cd" points="222.95,-348.27 224.28,-358.78 229.8,-349.73 222.95,-348.27"/>
</a>
</g>
<text text-anchor="middle" x="305.5" y="-227" font-family="Helvetica,sans-Serif" font-size="10.00" fill="grey"> spec</text>
</g>
<!-- Node9 -->
<g id="Node000009" class="node">
<title>Node9</title>
<g id="a_Node000009"><a xlink:href="../../d7/d80/class_command_overrides.html" target="_top" xlink:title=" ">
<polygon fill="white" stroke="#666666" points="478.5,-378 364.5,-378 364.5,-359 478.5,-359 478.5,-378"/>
<text text-anchor="middle" x="421.5" y="-366" font-family="Helvetica,sans-Serif" font-size="10.00">CommandOverrides</text>
</a>
</g>
</g>
<!-- Node9&#45;&gt;Node6 -->
<g id="edge11_Node000006_Node000009" class="edge">
<title>Node9&#45;&gt;Node6</title>
<g id="a_edge11_Node000006_Node000009"><a xlink:title=" ">
<path fill="none" stroke="#9a32cd" stroke-dasharray="5,2" d="M413.24,-349.24C397.25,-310.81 367.36,-220.89 411.5,-169 429.47,-147.87 513.4,-143.54 553.31,-142.69"/>
<polygon fill="#9a32cd" stroke="#9a32cd" points="410.12,-350.85 417.31,-358.63 416.55,-348.07 410.12,-350.85"/>
</a>
</g>
<text text-anchor="middle" x="461.5" y="-227" font-family="Helvetica,sans-Serif" font-size="10.00" fill="grey"> commandOverrides</text>
</g>
<!-- Node10&#45;&gt;Node6 -->
<g id="edge12_Node000006_Node000010" class="edge">
<title>Node10&#45;&gt;Node6</title>
<g id="a_edge12_Node000006_Node000010"><a xlink:title=" ">
<path fill="none" stroke="#9a32cd" stroke-dasharray="5,2" d="M861.29,-349.1C856.21,-333.51 849.13,-310.49 844.5,-290 838.5,-263.45 845.23,-187.75 825.5,-169 808.95,-153.26 652.86,-145.58 595.51,-143.27"/>
<polygon fill="#9a32cd" stroke="#9a32cd" points="858.1,-350.61 864.57,-359 864.74,-348.4 858.1,-350.61"/>
</a>
</g>
<text text-anchor="middle" x="871.5" y="-232.5" font-family="Helvetica,sans-Serif" font-size="10.00" fill="grey"> argList</text>
<text text-anchor="middle" x="871.5" y="-221.5" font-family="Helvetica,sans-Serif" font-size="10.00" fill="grey">typeConstr</text>
</g>
<!-- Node11 -->
<g id="Node000011" class="node">
<title>Node11</title>
<g id="a_Node000011"><a xlink:href="../../d3/d30/class_text_stream.html" target="_top" xlink:title="Text streaming class that buffers data.">
<polygon fill="white" stroke="#666666" points="662.5,-378 590.5,-378 590.5,-359 662.5,-359 662.5,-378"/>
<text text-anchor="middle" x="626.5" y="-366" font-family="Helvetica,sans-Serif" font-size="10.00">TextStream</text>
</a>
</g>
</g>
<!-- Node11&#45;&gt;Node6 -->
<g id="edge14_Node000006_Node000011" class="edge">
<title>Node11&#45;&gt;Node6</title>
<g id="a_edge14_Node000006_Node000011"><a xlink:title=" ">
<path fill="none" stroke="#9a32cd" stroke-dasharray="5,2" d="M622.26,-349.14C611.61,-303.09 584.09,-183.99 576.48,-151.05"/>
<polygon fill="#9a32cd" stroke="#9a32cd" points="618.86,-350 624.53,-358.95 625.68,-348.42 618.86,-350"/>
</a>
</g>
<text text-anchor="middle" x="632" y="-232.5" font-family="Helvetica,sans-Serif" font-size="10.00" fill="grey"> initializer</text>
<text text-anchor="middle" x="632" y="-221.5" font-family="Helvetica,sans-Serif" font-size="10.00" fill="grey">program</text>
</g>
<!-- Node12 -->
<g id="Node000012" class="node">
<title>Node12</title>
<g id="a_Node000012"><a xlink:href="../../da/d1d/class_local_toc.html" target="_top" xlink:title=" ">
<polygon fill="white" stroke="#666666" points="738.5,-378 680.5,-378 680.5,-359 738.5,-359 738.5,-378"/>
<text text-anchor="middle" x="709.5" y="-366" font-family="Helvetica,sans-Serif" font-size="10.00">LocalToc</text>
</a>
</g>
</g>
<!-- Node12&#45;&gt;Node6 -->
<g id="edge15_Node000006_Node000012" class="edge">
<title>Node12&#45;&gt;Node6</title>
<g id="a_edge15_Node000006_Node000012"><a xlink:title=" ">
<path fill="none" stroke="#9a32cd" stroke-dasharray="5,2" d="M707.24,-348.78C701.53,-304.52 685.23,-195.17 660.5,-169 643.66,-151.17 615.13,-145.24 595.58,-143.32"/>
<polygon fill="#9a32cd" stroke="#9a32cd" points="703.8,-349.49 708.51,-358.98 710.75,-348.63 703.8,-349.49"/>
</a>
</g>
<text text-anchor="middle" x="719" y="-227" font-family="Helvetica,sans-Serif" font-size="10.00" fill="grey"> localToc</text>
</g>
<!-- Node13 -->
<g id="Node000013" class="node">
<title>Node13</title>
<g id="a_Node000013"><a xlink:href="../../de/db0/class_file_def.html" target="_top" xlink:title="A model of a file symbol.">
<polygon fill="white" stroke="#666666" points="1102,-378 1051,-378 1051,-359 1102,-359 1102,-378"/>
<text text-anchor="middle" x="1076.5" y="-366" font-family="Helvetica,sans-Serif" font-size="10.00">FileDef</text>
</a>
</g>
</g>
<!-- Node13&#45;&gt;Node6 -->
<g id="edge17_Node000006_Node000013" class="edge">
<title>Node13&#45;&gt;Node6</title>
<g id="a_edge17_Node000006_Node000013"><a xlink:title=" ">
<path fill="none" stroke="#9a32cd" stroke-dasharray="5,2" d="M1073.86,-348.86C1067.01,-308.17 1044.56,-211.65 981.5,-169 965.39,-158.1 677.04,-146.39 595.7,-143.29"/>
<polygon fill="#9a32cd" stroke="#9a32cd" points="1070.41,-349.42 1075.4,-358.76 1077.32,-348.34 1070.41,-349.42"/>
</a>
</g>
<text text-anchor="middle" x="1084" y="-227" font-family="Helvetica,sans-Serif" font-size="10.00" fill="grey"> m_fileDef</text>
</g>
<!-- Node14 -->
<g id="Node000014" class="node">
<title>Node14</title>
<g id="a_Node000014"><a xlink:href="../../d0/d46/class_definition_mutable.html" target="_top" xlink:title=" ">
<polygon fill="white" stroke="#666666" points="1230.5,-528 1126.5,-528 1126.5,-509 1230.5,-509 1230.5,-528"/>
<text text-anchor="middle" x="1178.5" y="-516" font-family="Helvetica,sans-Serif" font-size="10.00">DefinitionMutable</text>
</a>
</g>
</g>
<!-- Node14&#45;&gt;Node13 -->
<g id="edge18_Node000013_Node000014" class="edge">
<title>Node14&#45;&gt;Node13</title>
<g id="a_edge18_Node000013_Node000014"><a xlink:title=" ">
<path fill="none" stroke="#63b8ff" d="M1166.71,-500.4C1144.85,-468.68 1098.77,-401.82 1082.42,-378.08"/>
<polygon fill="#63b8ff" stroke="#63b8ff" points="1163.87,-502.44 1172.42,-508.69 1169.63,-498.47 1163.87,-502.44"/>
</a>
</g>
</g>
<!-- Node15 -->
<g id="Node000015" class="node">
<title>Node15</title>
<g id="a_Node000015"><a xlink:href="../../d5/dcc/class_definition.html" target="_top" xlink:title="The common base class of all entity definitions found in the sources.">
<polygon fill="white" stroke="#666666" points="1108.5,-528 1044.5,-528 1044.5,-509 1108.5,-509 1108.5,-528"/>
<text text-anchor="middle" x="1076.5" y="-516" font-family="Helvetica,sans-Serif" font-size="10.00">Definition</text>
</a>
</g>
</g>
<!-- Node15&#45;&gt;Node13 -->
<g id="edge19_Node000013_Node000015" class="edge">
<title>Node15&#45;&gt;Node13</title>
<g id="a_edge19_Node000013_Node000015"><a xlink:title=" ">
<path fill="none" stroke="#63b8ff" d="M1076.5,-498.31C1076.5,-465.83 1076.5,-401.31 1076.5,-378.08"/>
<polygon fill="#63b8ff" stroke="#63b8ff" points="1073,-498.69 1076.5,-508.69 1080,-498.69 1073,-498.69"/>
</a>
</g>
</g>
<!-- Node16&#45;&gt;Node2 -->
<g id="edge20_Node000002_Node000016" class="edge">
<title>Node16&#45;&gt;Node2</title>
<g id="a_edge20_Node000002_Node000016"><a xlink:title=" ">
<path fill="none" stroke="#9a32cd" stroke-dasharray="5,2" d="M933.14,-210.61C927.33,-196.96 917.35,-178.88 902.5,-169 743.34,-63.13 666.95,-128.49 477.5,-103 425.08,-95.95 365.5,-88.82 321.58,-83.74"/>
<polygon fill="#9a32cd" stroke="#9a32cd" points="929.9,-211.92 936.79,-219.97 936.42,-209.38 929.9,-211.92"/>
</a>
</g>
<text text-anchor="middle" x="894.5" y="-139" font-family="Helvetica,sans-Serif" font-size="10.00" fill="grey"> docGroup</text>
</g>
</g>
</svg>

<g id="navigator" transform="translate(0 0)" fill="#404254">
  <rect fill="#f2f5e9" fill-opacity="0.5" stroke="#606060" stroke-width=".5" x="0" y="0" width="60" height="60"/>
  <use id="zoomplus" xlink:href="#zoomPlus" x="17" y="9" onmousedown="handleZoom(evt,'in')"/>
  <use id="zoomminus" xlink:href="#zoomMin" x="42" y="9" onmousedown="handleZoom(evt,'out')"/>
  <use id="reset" xlink:href="#resetDef" x="30" y="36" onmousedown="handleReset()"/>
   <use id="arrowup" xlink:href="#arrowUp" x="0" y="0" onmousedown="handlePan(0,-1)"/>
  <use id="arrowright" xlink:href="#arrowRight" x="0" y="0" onmousedown="handlePan(1,0)"/>
  <use id="arrowdown" xlink:href="#arrowDown" x="0" y="0" onmousedown="handlePan(0,1)"/>
  <use id="arrowleft" xlink:href="#arrowLeft" x="0" y="0" onmousedown="handlePan(-1,0)"/>
</g>
<svg viewBox="0 0 15 15" width="100%" height="30px" preserveAspectRatio="xMaxYMin meet">
 <g id="arrow_out" transform="scale(0.3 0.3)">
  <a xlink:href="struct_comment_scanner_1_1_private__coll__graph_org.svg" target="_base">
   <rect id="button" ry="5" rx="5" y="6" x="6" height="38" width="38"
        fill="#f2f5e9" fill-opacity="0.5" stroke="#606060" stroke-width="1.0"/>
   <path id="arrow"
     d="M 11.500037,31.436501 C 11.940474,20.09759 22.043105,11.32322 32.158766,21.979434 L 37.068811,17.246167 C 37.068811,17.246167 37.088388,32 37.088388,32 L 22.160133,31.978069 C 22.160133,31.978069 26.997745,27.140456 26.997745,27.140456 C 18.528582,18.264221 13.291696,25.230495 11.500037,31.436501 z"
     style="fill:#404040;"/>
  </a>
 </g>
</svg>

<style type='text/css'>
<![CDATA[
[data-mouse-over-selected='false'] { opacity: 0.7; }
[data-mouse-over-selected='true']  { opacity: 1.0; }
]]>
</style>
<script type="application/ecmascript"><![CDATA[
document.addEventListener('DOMContentLoaded', (event) => {
  highlightEdges();
  highlightAdjacentNodes();
});
]]></script>
</svg>
