<?xml version="1.0" encoding="UTF-8" standalone="no"?>
<!DOCTYPE svg PUBLIC "-//W3C//DTD SVG 1.1//EN"
 "http://www.w3.org/Graphics/SVG/1.1/DTD/svg11.dtd">
<!-- Generated by graphviz version 2.43.0 (0)
 -->
<!-- Title: ConfigBool Pages: 1 -->
<svg width="210pt" height="204pt"
 viewBox="0.00 0.00 209.50 204.00" xmlns="http://www.w3.org/2000/svg" xmlns:xlink="http://www.w3.org/1999/xlink">
<g id="graph0" class="graph" transform="scale(1 1) rotate(0) translate(4 200)">
<title>ConfigBool</title>
<!-- Node1 -->
<g id="Node000001" class="node">
<title>Node1</title>
<g id="a_Node000001"><a xlink:title="Class representing a Boolean type option.">
<polygon fill="#999999" stroke="#666666" points="87,-19 18,-19 18,0 87,0 87,-19"/>
<text text-anchor="middle" x="52.5" y="-7" font-family="Helvetica,sans-Serif" font-size="10.00">ConfigBool</text>
</a>
</g>
</g>
<!-- Node2 -->
<g id="Node000002" class="node">
<title>Node2</title>
<g id="a_Node000002"><a xlink:href="../../d2/dd3/class_config_option.html" target="_top" xlink:title="Abstract base class for any configuration option.">
<polygon fill="white" stroke="#666666" points="185.5,-75 105.5,-75 105.5,-56 185.5,-56 185.5,-75"/>
<text text-anchor="middle" x="145.5" y="-63" font-family="Helvetica,sans-Serif" font-size="10.00">ConfigOption</text>
</a>
</g>
</g>
<!-- Node2&#45;&gt;Node1 -->
<g id="edge1_Node000001_Node000002" class="edge">
<title>Node2&#45;&gt;Node1</title>
<g id="a_edge1_Node000001_Node000002"><a xlink:title=" ">
<path fill="none" stroke="#63b8ff" d="M121.69,-50.68C104.58,-40.74 82.03,-27.65 67.4,-19.15"/>
<polygon fill="#63b8ff" stroke="#63b8ff" points="120.15,-53.83 130.56,-55.82 123.67,-47.78 120.15,-53.83"/>
</a>
</g>
</g>
<!-- Node3 -->
<g id="Node000003" class="node">
<title>Node3</title>
<g id="a_Node000003"><a xlink:href="../../d9/d45/class_q_c_string.html" target="_top" xlink:title="This is an alternative implementation of QCString.">
<polygon fill="white" stroke="#666666" points="59,-196 0,-196 0,-177 59,-177 59,-196"/>
<text text-anchor="middle" x="29.5" y="-184" font-family="Helvetica,sans-Serif" font-size="10.00">QCString</text>
</a>
</g>
</g>
<!-- Node3&#45;&gt;Node1 -->
<g id="edge3_Node000001_Node000003" class="edge">
<title>Node3&#45;&gt;Node1</title>
<g id="a_edge3_Node000001_Node000003"><a xlink:title=" ">
<path fill="none" stroke="#9a32cd" stroke-dasharray="5,2" d="M24.62,-166.95C18.76,-141.38 11.06,-94.14 22.5,-56 26.8,-41.68 37.22,-27.71 44.57,-19.1"/>
<polygon fill="#9a32cd" stroke="#9a32cd" points="21.25,-167.9 27.04,-176.78 28.05,-166.23 21.25,-167.9"/>
</a>
</g>
<text text-anchor="middle" x="59.5" y="-63" font-family="Helvetica,sans-Serif" font-size="10.00" fill="grey"> m_valueString</text>
</g>
<!-- Node3&#45;&gt;Node2 -->
<g id="edge2_Node000002_Node000003" class="edge">
<title>Node3&#45;&gt;Node2</title>
<g id="a_edge2_Node000002_Node000003"><a xlink:title=" ">
<path fill="none" stroke="#9a32cd" stroke-dasharray="5,2" d="M45.02,-169.58C69.79,-144.17 117.47,-95.26 136.92,-75.3"/>
<polygon fill="#9a32cd" stroke="#9a32cd" points="42.32,-167.34 37.84,-176.94 47.33,-172.22 42.32,-167.34"/>
</a>
</g>
<text text-anchor="middle" x="159" y="-151" font-family="Helvetica,sans-Serif" font-size="10.00" fill="grey"> m_dependency</text>
<text text-anchor="middle" x="159" y="-140" font-family="Helvetica,sans-Serif" font-size="10.00" fill="grey">m_doc</text>
<text text-anchor="middle" x="159" y="-129" font-family="Helvetica,sans-Serif" font-size="10.00" fill="grey">m_encoding</text>
<text text-anchor="middle" x="159" y="-118" font-family="Helvetica,sans-Serif" font-size="10.00" fill="grey">m_name</text>
<text text-anchor="middle" x="159" y="-107" font-family="Helvetica,sans-Serif" font-size="10.00" fill="grey">m_spaces</text>
<text text-anchor="middle" x="159" y="-96" font-family="Helvetica,sans-Serif" font-size="10.00" fill="grey">m_userComment</text>
</g>
</g>
</svg>
