<?xml version="1.0" encoding="UTF-8" standalone="no"?>
<!DOCTYPE svg PUBLIC "-//W3C//DTD SVG 1.1//EN"
 "http://www.w3.org/Graphics/SVG/1.1/DTD/svg11.dtd">
<!-- Generated by graphviz version 2.43.0 (0)
 -->
<!-- Title: /home/runner/work/doxygen/doxygen/src/symbolresolver.h Pages: 1 -->
<svg width="967pt" height="423pt"
 viewBox="0.00 0.00 967.00 423.00" xmlns="http://www.w3.org/2000/svg" xmlns:xlink="http://www.w3.org/1999/xlink">
<g id="graph0" class="graph" transform="scale(1 1) rotate(0) translate(4 419)">
<title>/home/runner/work/doxygen/doxygen/src/symbolresolver.h</title>
<!-- Node1 -->
<g id="Node000001" class="node">
<title>Node1</title>
<g id="a_Node000001"><a xlink:title=" ">
<polygon fill="#999999" stroke="#666666" points="563,-415 397,-415 397,-385 563,-385 563,-415"/>
<text text-anchor="start" x="405" y="-403" font-family="Helvetica,sans-Serif" font-size="10.00">/home/runner/work/doxygen</text>
<text text-anchor="middle" x="480" y="-392" font-family="Helvetica,sans-Serif" font-size="10.00">/doxygen/src/symbolresolver.h</text>
</a>
</g>
</g>
<!-- Node2 -->
<g id="Node000002" class="node">
<title>Node2</title>
<g id="a_Node000002"><a xlink:title=" ">
<polygon fill="#e0e0e0" stroke="#999999" points="752,-129 694,-129 694,-110 752,-110 752,-129"/>
<text text-anchor="middle" x="723" y="-117" font-family="Helvetica,sans-Serif" font-size="10.00">memory</text>
</a>
</g>
</g>
<!-- Node1&#45;&gt;Node2 -->
<g id="edge1_Node000001_Node000002" class="edge">
<title>Node1&#45;&gt;Node2</title>
<g id="a_edge1_Node000001_Node000002"><a xlink:title=" ">
<path fill="none" stroke="#63b8ff" d="M563.16,-396.25C700.33,-389.42 959,-365.89 959,-285.5 959,-285.5 959,-285.5 959,-228.5 959,-143.17 829.86,-124.99 762.64,-121.3"/>
<polygon fill="#63b8ff" stroke="#63b8ff" points="762.56,-117.79 752.41,-120.82 762.24,-124.78 762.56,-117.79"/>
</a>
</g>
</g>
<!-- Node3 -->
<g id="Node000003" class="node">
<title>Node3</title>
<g id="a_Node000003"><a xlink:href="../../d7/d5c/qcstring_8h.html" target="_top" xlink:title=" ">
<polygon fill="white" stroke="#666666" points="360.5,-129 295.5,-129 295.5,-110 360.5,-110 360.5,-129"/>
<text text-anchor="middle" x="328" y="-117" font-family="Helvetica,sans-Serif" font-size="10.00">qcstring.h</text>
</a>
</g>
</g>
<!-- Node1&#45;&gt;Node3 -->
<g id="edge2_Node000001_Node000003" class="edge">
<title>Node1&#45;&gt;Node3</title>
<g id="a_edge2_Node000001_Node000003"><a xlink:title=" ">
<path fill="none" stroke="#63b8ff" d="M445.05,-384.97C409.98,-368.8 357.85,-338.6 334,-294 307.05,-243.59 316.74,-172.66 323.57,-139.27"/>
<polygon fill="#63b8ff" stroke="#63b8ff" points="327.07,-139.64 325.8,-129.12 320.23,-138.13 327.07,-139.64"/>
</a>
</g>
</g>
<!-- Node13 -->
<g id="Node000013" class="node">
<title>Node13</title>
<g id="a_Node000013"><a xlink:href="../../d1/da6/classdef_8h.html" target="_top" xlink:title=" ">
<polygon fill="white" stroke="#666666" points="512.5,-349 447.5,-349 447.5,-330 512.5,-330 512.5,-349"/>
<text text-anchor="middle" x="480" y="-337" font-family="Helvetica,sans-Serif" font-size="10.00">classdef.h</text>
</a>
</g>
</g>
<!-- Node1&#45;&gt;Node13 -->
<g id="edge14_Node000001_Node000013" class="edge">
<title>Node1&#45;&gt;Node13</title>
<g id="a_edge14_Node000001_Node000013"><a xlink:title=" ">
<path fill="none" stroke="#63b8ff" d="M480,-384.84C480,-377.21 480,-367.7 480,-359.45"/>
<polygon fill="#63b8ff" stroke="#63b8ff" points="483.5,-359.27 480,-349.27 476.5,-359.27 483.5,-359.27"/>
</a>
</g>
</g>
<!-- Node4 -->
<g id="Node000004" class="node">
<title>Node4</title>
<g id="a_Node000004"><a xlink:title=" ">
<polygon fill="#e0e0e0" stroke="#999999" points="492,-19 448,-19 448,0 492,0 492,-19"/>
<text text-anchor="middle" x="470" y="-7" font-family="Helvetica,sans-Serif" font-size="10.00">string</text>
</a>
</g>
</g>
<!-- Node3&#45;&gt;Node4 -->
<g id="edge3_Node000003_Node000004" class="edge">
<title>Node3&#45;&gt;Node4</title>
<g id="a_edge3_Node000003_Node000004"><a xlink:title=" ">
<path fill="none" stroke="#63b8ff" d="M336.28,-109.66C348.6,-96.79 372.79,-72.51 396,-55 411.31,-43.45 429.81,-32.32 444.48,-24.09"/>
<polygon fill="#63b8ff" stroke="#63b8ff" points="446.43,-27.01 453.49,-19.12 443.05,-20.88 446.43,-27.01"/>
</a>
</g>
</g>
<!-- Node5 -->
<g id="Node000005" class="node">
<title>Node5</title>
<g id="a_Node000005"><a xlink:title=" ">
<polygon fill="#e0e0e0" stroke="#999999" points="536,-74 472,-74 472,-55 536,-55 536,-74"/>
<text text-anchor="middle" x="504" y="-62" font-family="Helvetica,sans-Serif" font-size="10.00">algorithm</text>
</a>
</g>
</g>
<!-- Node3&#45;&gt;Node5 -->
<g id="edge4_Node000003_Node000005" class="edge">
<title>Node3&#45;&gt;Node5</title>
<g id="a_edge4_Node000003_Node000005"><a xlink:title=" ">
<path fill="none" stroke="#63b8ff" d="M356.28,-109.98C385.95,-101.05 432.79,-86.94 465.75,-77.02"/>
<polygon fill="#63b8ff" stroke="#63b8ff" points="466.93,-80.32 475.5,-74.08 464.92,-73.61 466.93,-80.32"/>
</a>
</g>
</g>
<!-- Node6 -->
<g id="Node000006" class="node">
<title>Node6</title>
<g id="a_Node000006"><a xlink:title=" ">
<polygon fill="#e0e0e0" stroke="#999999" points="453.5,-74 404.5,-74 404.5,-55 453.5,-55 453.5,-74"/>
<text text-anchor="middle" x="429" y="-62" font-family="Helvetica,sans-Serif" font-size="10.00">cctype</text>
</a>
</g>
</g>
<!-- Node3&#45;&gt;Node6 -->
<g id="edge5_Node000003_Node000006" class="edge">
<title>Node3&#45;&gt;Node6</title>
<g id="a_edge5_Node000003_Node000006"><a xlink:title=" ">
<path fill="none" stroke="#63b8ff" d="M344.23,-109.98C360.18,-101.61 384.78,-88.7 403.38,-78.95"/>
<polygon fill="#63b8ff" stroke="#63b8ff" points="405.25,-81.92 412.48,-74.17 402,-75.72 405.25,-81.92"/>
</a>
</g>
</g>
<!-- Node7 -->
<g id="Node000007" class="node">
<title>Node7</title>
<g id="a_Node000007"><a xlink:title=" ">
<polygon fill="#e0e0e0" stroke="#999999" points="141,-74 91,-74 91,-55 141,-55 141,-74"/>
<text text-anchor="middle" x="116" y="-62" font-family="Helvetica,sans-Serif" font-size="10.00">cstring</text>
</a>
</g>
</g>
<!-- Node3&#45;&gt;Node7 -->
<g id="edge6_Node000003_Node000007" class="edge">
<title>Node3&#45;&gt;Node7</title>
<g id="a_edge6_Node000003_Node000007"><a xlink:title=" ">
<path fill="none" stroke="#63b8ff" d="M295.34,-110.33C256.23,-100.56 191.01,-84.25 150.92,-74.23"/>
<polygon fill="#63b8ff" stroke="#63b8ff" points="151.61,-70.8 141.06,-71.77 149.91,-77.59 151.61,-70.8"/>
</a>
</g>
</g>
<!-- Node8 -->
<g id="Node000008" class="node">
<title>Node8</title>
<g id="a_Node000008"><a xlink:title=" ">
<polygon fill="#e0e0e0" stroke="#999999" points="205,-74 159,-74 159,-55 205,-55 205,-74"/>
<text text-anchor="middle" x="182" y="-62" font-family="Helvetica,sans-Serif" font-size="10.00">cstdio</text>
</a>
</g>
</g>
<!-- Node3&#45;&gt;Node8 -->
<g id="edge7_Node000003_Node000008" class="edge">
<title>Node3&#45;&gt;Node8</title>
<g id="a_edge7_Node000003_Node000008"><a xlink:title=" ">
<path fill="none" stroke="#63b8ff" d="M304.54,-109.98C280.28,-101.18 242.18,-87.35 214.91,-77.45"/>
<polygon fill="#63b8ff" stroke="#63b8ff" points="215.99,-74.12 205.4,-73.99 213.6,-80.7 215.99,-74.12"/>
</a>
</g>
</g>
<!-- Node9 -->
<g id="Node000009" class="node">
<title>Node9</title>
<g id="a_Node000009"><a xlink:title=" ">
<polygon fill="#e0e0e0" stroke="#999999" points="272.5,-74 223.5,-74 223.5,-55 272.5,-55 272.5,-74"/>
<text text-anchor="middle" x="248" y="-62" font-family="Helvetica,sans-Serif" font-size="10.00">cstdlib</text>
</a>
</g>
</g>
<!-- Node3&#45;&gt;Node9 -->
<g id="edge8_Node000003_Node000009" class="edge">
<title>Node3&#45;&gt;Node9</title>
<g id="a_edge8_Node000003_Node000009"><a xlink:title=" ">
<path fill="none" stroke="#63b8ff" d="M315.15,-109.98C302.86,-101.84 284.09,-89.41 269.52,-79.76"/>
<polygon fill="#63b8ff" stroke="#63b8ff" points="271.36,-76.78 261.09,-74.17 267.49,-82.61 271.36,-76.78"/>
</a>
</g>
</g>
<!-- Node10 -->
<g id="Node000010" class="node">
<title>Node10</title>
<g id="a_Node000010"><a xlink:title=" ">
<polygon fill="#e0e0e0" stroke="#999999" points="50,-19 0,-19 0,0 50,0 50,-19"/>
<text text-anchor="middle" x="25" y="-7" font-family="Helvetica,sans-Serif" font-size="10.00">cstdint</text>
</a>
</g>
</g>
<!-- Node3&#45;&gt;Node10 -->
<g id="edge9_Node000003_Node000010" class="edge">
<title>Node3&#45;&gt;Node10</title>
<g id="a_edge9_Node000003_Node000010"><a xlink:title=" ">
<path fill="none" stroke="#63b8ff" d="M295.4,-116.21C219.5,-110.54 36.03,-94.8 18,-74 7.35,-61.71 11.2,-42.67 16.43,-28.64"/>
<polygon fill="#63b8ff" stroke="#63b8ff" points="19.8,-29.66 20.48,-19.08 13.35,-26.92 19.8,-29.66"/>
</a>
</g>
</g>
<!-- Node11 -->
<g id="Node000011" class="node">
<title>Node11</title>
<g id="a_Node000011"><a xlink:title=" ">
<polygon fill="#e0e0e0" stroke="#999999" points="347.5,-74 290.5,-74 290.5,-55 347.5,-55 347.5,-74"/>
<text text-anchor="middle" x="319" y="-62" font-family="Helvetica,sans-Serif" font-size="10.00">ostream</text>
</a>
</g>
</g>
<!-- Node3&#45;&gt;Node11 -->
<g id="edge10_Node000003_Node000011" class="edge">
<title>Node3&#45;&gt;Node11</title>
<g id="a_edge10_Node000003_Node000011"><a xlink:title=" ">
<path fill="none" stroke="#63b8ff" d="M326.51,-109.75C325.33,-102.8 323.64,-92.85 322.16,-84.13"/>
<polygon fill="#63b8ff" stroke="#63b8ff" points="325.58,-83.36 320.46,-74.09 318.68,-84.53 325.58,-83.36"/>
</a>
</g>
</g>
<!-- Node12 -->
<g id="Node000012" class="node">
<title>Node12</title>
<g id="a_Node000012"><a xlink:href="../../db/d7c/utf8_8h.html" target="_top" xlink:title="Various UTF8 related helper functions.">
<polygon fill="white" stroke="#666666" points="72.5,-74 27.5,-74 27.5,-55 72.5,-55 72.5,-74"/>
<text text-anchor="middle" x="50" y="-62" font-family="Helvetica,sans-Serif" font-size="10.00">utf8.h</text>
</a>
</g>
</g>
<!-- Node3&#45;&gt;Node12 -->
<g id="edge11_Node000003_Node000012" class="edge">
<title>Node3&#45;&gt;Node12</title>
<g id="a_edge11_Node000003_Node000012"><a xlink:title=" ">
<path fill="none" stroke="#63b8ff" d="M295.2,-113.43C249.73,-106.22 164.8,-92.06 82.67,-73.99"/>
<polygon fill="#63b8ff" stroke="#63b8ff" points="83.19,-70.52 72.67,-71.76 81.67,-77.35 83.19,-70.52"/>
</a>
</g>
</g>
<!-- Node12&#45;&gt;Node4 -->
<g id="edge13_Node000012_Node000004" class="edge">
<title>Node12&#45;&gt;Node4</title>
<g id="a_edge13_Node000012_Node000004"><a xlink:title=" ">
<path fill="none" stroke="#63b8ff" d="M72.63,-57.05C75.76,-56.29 78.95,-55.58 82,-55 212.63,-30.29 370.78,-17.33 437.65,-12.61"/>
<polygon fill="#63b8ff" stroke="#63b8ff" points="438.22,-16.08 447.95,-11.9 437.74,-9.1 438.22,-16.08"/>
</a>
</g>
</g>
<!-- Node12&#45;&gt;Node10 -->
<g id="edge12_Node000012_Node000010" class="edge">
<title>Node12&#45;&gt;Node10</title>
<g id="a_edge12_Node000012_Node000010"><a xlink:title=" ">
<path fill="none" stroke="#63b8ff" d="M45.87,-54.75C42.49,-47.57 37.58,-37.18 33.38,-28.27"/>
<polygon fill="#63b8ff" stroke="#63b8ff" points="36.48,-26.64 29.05,-19.09 30.15,-29.63 36.48,-26.64"/>
</a>
</g>
</g>
<!-- Node13&#45;&gt;Node2 -->
<g id="edge15_Node000013_Node000002" class="edge">
<title>Node13&#45;&gt;Node2</title>
<g id="a_edge15_Node000013_Node000002"><a xlink:title=" ">
<path fill="none" stroke="#63b8ff" d="M512.52,-336.18C603.42,-328.94 856.44,-303.24 902,-239 942.73,-181.58 825.9,-144.38 761.85,-128.82"/>
<polygon fill="#63b8ff" stroke="#63b8ff" points="762.59,-125.4 752.05,-126.51 760.98,-132.21 762.59,-125.4"/>
</a>
</g>
</g>
<!-- Node14 -->
<g id="Node000014" class="node">
<title>Node14</title>
<g id="a_Node000014"><a xlink:title=" ">
<polygon fill="#e0e0e0" stroke="#999999" points="194.5,-129 147.5,-129 147.5,-110 194.5,-110 194.5,-129"/>
<text text-anchor="middle" x="171" y="-117" font-family="Helvetica,sans-Serif" font-size="10.00">vector</text>
</a>
</g>
</g>
<!-- Node13&#45;&gt;Node14 -->
<g id="edge16_Node000013_Node000014" class="edge">
<title>Node13&#45;&gt;Node14</title>
<g id="a_edge16_Node000013_Node000014"><a xlink:title=" ">
<path fill="none" stroke="#63b8ff" d="M447.36,-339.03C378.67,-338.31 218.19,-326.72 129,-239 104.87,-215.27 95.78,-195.23 111,-165 117.69,-151.71 130.44,-141.39 142.47,-134.05"/>
<polygon fill="#63b8ff" stroke="#63b8ff" points="144.42,-136.97 151.42,-129.02 140.99,-130.87 144.42,-136.97"/>
</a>
</g>
</g>
<!-- Node15 -->
<g id="Node000015" class="node">
<title>Node15</title>
<g id="a_Node000015"><a xlink:title=" ">
<polygon fill="#e0e0e0" stroke="#999999" points="893,-239 861,-239 861,-220 893,-220 893,-239"/>
<text text-anchor="middle" x="877" y="-227" font-family="Helvetica,sans-Serif" font-size="10.00">set</text>
</a>
</g>
</g>
<!-- Node13&#45;&gt;Node15 -->
<g id="edge17_Node000013_Node000015" class="edge">
<title>Node13&#45;&gt;Node15</title>
<g id="a_edge17_Node000013_Node000015"><a xlink:title=" ">
<path fill="none" stroke="#63b8ff" d="M512.72,-333.52C556.34,-326.53 635.76,-312.54 702,-294 756.16,-278.84 817.54,-254.95 851.31,-241.21"/>
<polygon fill="#63b8ff" stroke="#63b8ff" points="852.94,-244.32 860.86,-237.29 850.28,-237.84 852.94,-244.32"/>
</a>
</g>
</g>
<!-- Node16 -->
<g id="Node000016" class="node">
<title>Node16</title>
<g id="a_Node000016"><a xlink:href="../../d5/d75/containers_8h.html" target="_top" xlink:title=" ">
<polygon fill="white" stroke="#666666" points="692.5,-294 615.5,-294 615.5,-275 692.5,-275 692.5,-294"/>
<text text-anchor="middle" x="654" y="-282" font-family="Helvetica,sans-Serif" font-size="10.00">containers.h</text>
</a>
</g>
</g>
<!-- Node13&#45;&gt;Node16 -->
<g id="edge18_Node000013_Node000016" class="edge">
<title>Node13&#45;&gt;Node16</title>
<g id="a_edge18_Node000013_Node000016"><a xlink:title=" ">
<path fill="none" stroke="#63b8ff" d="M507.96,-329.98C537.3,-321.05 583.6,-306.94 616.19,-297.02"/>
<polygon fill="#63b8ff" stroke="#63b8ff" points="617.28,-300.34 625.82,-294.08 615.24,-293.65 617.28,-300.34"/>
</a>
</g>
</g>
<!-- Node21 -->
<g id="Node000021" class="node">
<title>Node21</title>
<g id="a_Node000021"><a xlink:href="../../df/da1/definition_8h.html" target="_top" xlink:title=" ">
<polygon fill="white" stroke="#666666" points="414.5,-294 343.5,-294 343.5,-275 414.5,-275 414.5,-294"/>
<text text-anchor="middle" x="379" y="-282" font-family="Helvetica,sans-Serif" font-size="10.00">definition.h</text>
</a>
</g>
</g>
<!-- Node13&#45;&gt;Node21 -->
<g id="edge26_Node000013_Node000021" class="edge">
<title>Node13&#45;&gt;Node21</title>
<g id="a_edge26_Node000013_Node000021"><a xlink:title=" ">
<path fill="none" stroke="#63b8ff" d="M463.77,-329.98C447.82,-321.61 423.22,-308.7 404.62,-298.95"/>
<polygon fill="#63b8ff" stroke="#63b8ff" points="406,-295.72 395.52,-294.17 402.75,-301.92 406,-295.72"/>
</a>
</g>
</g>
<!-- Node25 -->
<g id="Node000025" class="node">
<title>Node25</title>
<g id="a_Node000025"><a xlink:href="../../df/d9b/arguments_8h.html" target="_top" xlink:title=" ">
<polygon fill="white" stroke="#666666" points="277,-184 199,-184 199,-165 277,-165 277,-184"/>
<text text-anchor="middle" x="238" y="-172" font-family="Helvetica,sans-Serif" font-size="10.00">arguments.h</text>
</a>
</g>
</g>
<!-- Node13&#45;&gt;Node25 -->
<g id="edge43_Node000013_Node000025" class="edge">
<title>Node13&#45;&gt;Node25</title>
<g id="a_edge43_Node000013_Node000025"><a xlink:title=" ">
<path fill="none" stroke="#63b8ff" d="M447.46,-334.21C416.2,-328.86 368.72,-317.39 334,-294 294.26,-267.23 262.73,-219.09 247.66,-193.17"/>
<polygon fill="#63b8ff" stroke="#63b8ff" points="250.52,-191.11 242.55,-184.12 244.43,-194.55 250.52,-191.11"/>
</a>
</g>
</g>
<!-- Node26 -->
<g id="Node000026" class="node">
<title>Node26</title>
<g id="a_Node000026"><a xlink:href="../../d9/d11/membergroup_8h.html" target="_top" xlink:title=" ">
<polygon fill="white" stroke="#666666" points="527.5,-294 432.5,-294 432.5,-275 527.5,-275 527.5,-294"/>
<text text-anchor="middle" x="480" y="-282" font-family="Helvetica,sans-Serif" font-size="10.00">membergroup.h</text>
</a>
</g>
</g>
<!-- Node13&#45;&gt;Node26 -->
<g id="edge46_Node000013_Node000026" class="edge">
<title>Node13&#45;&gt;Node26</title>
<g id="a_edge46_Node000013_Node000026"><a xlink:title=" ">
<path fill="none" stroke="#63b8ff" d="M480,-329.75C480,-322.8 480,-312.85 480,-304.13"/>
<polygon fill="#63b8ff" stroke="#63b8ff" points="483.5,-304.09 480,-294.09 476.5,-304.09 483.5,-304.09"/>
</a>
</g>
</g>
<!-- Node16&#45;&gt;Node4 -->
<g id="edge20_Node000016_Node000004" class="edge">
<title>Node16&#45;&gt;Node4</title>
<g id="a_edge20_Node000016_Node000004"><a xlink:title=" ">
<path fill="none" stroke="#63b8ff" d="M691.9,-274.98C736.37,-264.69 805.17,-247.66 814,-239 835.03,-218.37 833,-204.96 833,-175.5 833,-175.5 833,-175.5 833,-118.5 833,-49.79 591.04,-21.29 502.21,-13.14"/>
<polygon fill="#63b8ff" stroke="#63b8ff" points="502.43,-9.64 492.16,-12.24 501.81,-16.61 502.43,-9.64"/>
</a>
</g>
</g>
<!-- Node16&#45;&gt;Node14 -->
<g id="edge19_Node000016_Node000014" class="edge">
<title>Node16&#45;&gt;Node14</title>
<g id="a_edge19_Node000016_Node000014"><a xlink:title=" ">
<path fill="none" stroke="#63b8ff" d="M618.19,-274.93C586.81,-266.98 540.23,-254.13 501,-239 483.01,-232.06 480.46,-225.56 462,-220 403.62,-202.42 236.4,-223.55 190,-184 177.15,-173.04 172.79,-153.78 171.41,-139.33"/>
<polygon fill="#63b8ff" stroke="#63b8ff" points="174.88,-138.82 170.83,-129.03 167.89,-139.21 174.88,-138.82"/>
</a>
</g>
</g>
<!-- Node16&#45;&gt;Node15 -->
<g id="edge21_Node000016_Node000015" class="edge">
<title>Node16&#45;&gt;Node15</title>
<g id="a_edge21_Node000016_Node000015"><a xlink:title=" ">
<path fill="none" stroke="#63b8ff" d="M692.59,-275.19C731.64,-266.65 793.71,-252.68 847,-239 848.27,-238.67 849.56,-238.33 850.87,-237.99"/>
<polygon fill="#63b8ff" stroke="#63b8ff" points="852.14,-241.27 860.85,-235.23 850.28,-234.52 852.14,-241.27"/>
</a>
</g>
</g>
<!-- Node17 -->
<g id="Node000017" class="node">
<title>Node17</title>
<g id="a_Node000017"><a xlink:title=" ">
<polygon fill="#e0e0e0" stroke="#999999" points="453,-239 415,-239 415,-220 453,-220 453,-239"/>
<text text-anchor="middle" x="434" y="-227" font-family="Helvetica,sans-Serif" font-size="10.00">map</text>
</a>
</g>
</g>
<!-- Node16&#45;&gt;Node17 -->
<g id="edge22_Node000016_Node000017" class="edge">
<title>Node16&#45;&gt;Node17</title>
<g id="a_edge22_Node000016_Node000017"><a xlink:title=" ">
<path fill="none" stroke="#63b8ff" d="M617.05,-274.92C579.29,-266.1 518.99,-251.88 467,-239 465.74,-238.69 464.45,-238.37 463.16,-238.04"/>
<polygon fill="#63b8ff" stroke="#63b8ff" points="463.73,-234.58 453.18,-235.5 462.01,-241.36 463.73,-234.58"/>
</a>
</g>
</g>
<!-- Node18 -->
<g id="Node000018" class="node">
<title>Node18</title>
<g id="a_Node000018"><a xlink:title=" ">
<polygon fill="#e0e0e0" stroke="#999999" points="805,-239 719,-239 719,-220 805,-220 805,-239"/>
<text text-anchor="middle" x="762" y="-227" font-family="Helvetica,sans-Serif" font-size="10.00">unordered_set</text>
</a>
</g>
</g>
<!-- Node16&#45;&gt;Node18 -->
<g id="edge23_Node000016_Node000018" class="edge">
<title>Node16&#45;&gt;Node18</title>
<g id="a_edge23_Node000016_Node000018"><a xlink:title=" ">
<path fill="none" stroke="#63b8ff" d="M671.35,-274.98C688.57,-266.54 715.2,-253.47 735.15,-243.68"/>
<polygon fill="#63b8ff" stroke="#63b8ff" points="736.9,-246.72 744.33,-239.17 733.81,-240.43 736.9,-246.72"/>
</a>
</g>
</g>
<!-- Node19 -->
<g id="Node000019" class="node">
<title>Node19</title>
<g id="a_Node000019"><a xlink:title=" ">
<polygon fill="#e0e0e0" stroke="#999999" points="675.5,-129 582.5,-129 582.5,-110 675.5,-110 675.5,-129"/>
<text text-anchor="middle" x="629" y="-117" font-family="Helvetica,sans-Serif" font-size="10.00">unordered_map</text>
</a>
</g>
</g>
<!-- Node16&#45;&gt;Node19 -->
<g id="edge24_Node000016_Node000019" class="edge">
<title>Node16&#45;&gt;Node19</title>
<g id="a_edge24_Node000016_Node000019"><a xlink:title=" ">
<path fill="none" stroke="#63b8ff" d="M652.66,-274.74C648.74,-249.2 637.27,-174.43 631.87,-139.23"/>
<polygon fill="#63b8ff" stroke="#63b8ff" points="635.33,-138.66 630.35,-129.31 628.41,-139.72 635.33,-138.66"/>
</a>
</g>
</g>
<!-- Node20 -->
<g id="Node000020" class="node">
<title>Node20</title>
<g id="a_Node000020"><a xlink:title=" ">
<polygon fill="#e0e0e0" stroke="#999999" points="700.5,-239 657.5,-239 657.5,-220 700.5,-220 700.5,-239"/>
<text text-anchor="middle" x="679" y="-227" font-family="Helvetica,sans-Serif" font-size="10.00">stack</text>
</a>
</g>
</g>
<!-- Node16&#45;&gt;Node20 -->
<g id="edge25_Node000016_Node000020" class="edge">
<title>Node16&#45;&gt;Node20</title>
<g id="a_edge25_Node000016_Node000020"><a xlink:title=" ">
<path fill="none" stroke="#63b8ff" d="M658.13,-274.75C661.51,-267.57 666.42,-257.18 670.62,-248.27"/>
<polygon fill="#63b8ff" stroke="#63b8ff" points="673.85,-249.63 674.95,-239.09 667.52,-246.64 673.85,-249.63"/>
</a>
</g>
</g>
<!-- Node21&#45;&gt;Node14 -->
<g id="edge27_Node000021_Node000014" class="edge">
<title>Node21&#45;&gt;Node14</title>
<g id="a_edge27_Node000021_Node000014"><a xlink:title=" ">
<path fill="none" stroke="#63b8ff" d="M343.25,-284.31C296.63,-283.68 214.3,-276.71 157,-239 126.12,-218.68 103.54,-198.58 119,-165 124.75,-152.52 135.91,-142.24 146.42,-134.71"/>
<polygon fill="#63b8ff" stroke="#63b8ff" points="148.57,-137.49 154.97,-129.05 144.7,-131.65 148.57,-137.49"/>
</a>
</g>
</g>
<!-- Node22 -->
<g id="Node000022" class="node">
<title>Node22</title>
<g id="a_Node000022"><a xlink:href="../../d9/d49/types_8h.html" target="_top" xlink:title="This file contains a number of basic enums and types.">
<polygon fill="white" stroke="#666666" points="396.5,-239 343.5,-239 343.5,-220 396.5,-220 396.5,-239"/>
<text text-anchor="middle" x="370" y="-227" font-family="Helvetica,sans-Serif" font-size="10.00">types.h</text>
</a>
</g>
</g>
<!-- Node21&#45;&gt;Node22 -->
<g id="edge28_Node000021_Node000022" class="edge">
<title>Node21&#45;&gt;Node22</title>
<g id="a_edge28_Node000021_Node000022"><a xlink:title=" ">
<path fill="none" stroke="#63b8ff" d="M377.51,-274.75C376.33,-267.8 374.64,-257.85 373.16,-249.13"/>
<polygon fill="#63b8ff" stroke="#63b8ff" points="376.58,-248.36 371.46,-239.09 369.68,-249.53 376.58,-248.36"/>
</a>
</g>
</g>
<!-- Node23 -->
<g id="Node000023" class="node">
<title>Node23</title>
<g id="a_Node000023"><a xlink:href="../../d1/d02/reflist_8h.html" target="_top" xlink:title=" ">
<polygon fill="white" stroke="#666666" points="562.5,-239 509.5,-239 509.5,-220 562.5,-220 562.5,-239"/>
<text text-anchor="middle" x="536" y="-227" font-family="Helvetica,sans-Serif" font-size="10.00">reflist.h</text>
</a>
</g>
</g>
<!-- Node21&#45;&gt;Node23 -->
<g id="edge30_Node000021_Node000023" class="edge">
<title>Node21&#45;&gt;Node23</title>
<g id="a_edge30_Node000021_Node000023"><a xlink:title=" ">
<path fill="none" stroke="#63b8ff" d="M404.22,-274.98C430.36,-266.16 471.4,-252.31 500.73,-242.41"/>
<polygon fill="#63b8ff" stroke="#63b8ff" points="502.22,-245.6 510.58,-239.08 499.98,-238.96 502.22,-245.6"/>
</a>
</g>
</g>
<!-- Node22&#45;&gt;Node3 -->
<g id="edge29_Node000022_Node000003" class="edge">
<title>Node22&#45;&gt;Node3</title>
<g id="a_edge29_Node000022_Node000003"><a xlink:title=" ">
<path fill="none" stroke="#63b8ff" d="M369.28,-219.99C368,-207.52 364.7,-183.74 357,-165 352.98,-155.21 346.73,-145.25 341.06,-137.24"/>
<polygon fill="#63b8ff" stroke="#63b8ff" points="343.83,-135.09 335.06,-129.15 338.21,-139.26 343.83,-135.09"/>
</a>
</g>
</g>
<!-- Node23&#45;&gt;Node2 -->
<g id="edge33_Node000023_Node000002" class="edge">
<title>Node23&#45;&gt;Node2</title>
<g id="a_edge33_Node000023_Node000002"><a xlink:title=" ">
<path fill="none" stroke="#63b8ff" d="M550.99,-219.84C583.35,-201.16 659.98,-156.9 699.11,-134.3"/>
<polygon fill="#63b8ff" stroke="#63b8ff" points="701.29,-137.08 708.2,-129.05 697.79,-131.02 701.29,-137.08"/>
</a>
</g>
</g>
<!-- Node23&#45;&gt;Node3 -->
<g id="edge34_Node000023_Node000003" class="edge">
<title>Node23&#45;&gt;Node3</title>
<g id="a_edge34_Node000023_Node000003"><a xlink:title=" ">
<path fill="none" stroke="#63b8ff" d="M516.06,-219.98C496.27,-211.37 465.2,-197.47 439,-184 407.9,-168.01 373.05,-147.66 350.84,-134.37"/>
<polygon fill="#63b8ff" stroke="#63b8ff" points="352.52,-131.29 342.14,-129.14 348.91,-137.29 352.52,-131.29"/>
</a>
</g>
</g>
<!-- Node23&#45;&gt;Node14 -->
<g id="edge31_Node000023_Node000014" class="edge">
<title>Node23&#45;&gt;Node14</title>
<g id="a_edge31_Node000023_Node000014"><a xlink:title=" ">
<path fill="none" stroke="#63b8ff" d="M509.46,-220.65C444.25,-201.35 276.33,-151.67 204.45,-130.4"/>
<polygon fill="#63b8ff" stroke="#63b8ff" points="205.15,-126.95 194.57,-127.47 203.16,-133.67 205.15,-126.95"/>
</a>
</g>
</g>
<!-- Node23&#45;&gt;Node19 -->
<g id="edge32_Node000023_Node000019" class="edge">
<title>Node23&#45;&gt;Node19</title>
<g id="a_edge32_Node000023_Node000019"><a xlink:title=" ">
<path fill="none" stroke="#63b8ff" d="M540.59,-219.74C547.5,-206.95 561.46,-182.79 577,-165 586.53,-154.1 598.77,-143.49 608.98,-135.37"/>
<polygon fill="#63b8ff" stroke="#63b8ff" points="611.21,-138.06 616.98,-129.18 606.93,-132.53 611.21,-138.06"/>
</a>
</g>
</g>
<!-- Node24 -->
<g id="Node000024" class="node">
<title>Node24</title>
<g id="a_Node000024"><a xlink:href="../../da/de1/linkedmap_8h.html" target="_top" xlink:title=" ">
<polygon fill="white" stroke="#666666" points="524.5,-184 447.5,-184 447.5,-165 524.5,-165 524.5,-184"/>
<text text-anchor="middle" x="486" y="-172" font-family="Helvetica,sans-Serif" font-size="10.00">linkedmap.h</text>
</a>
</g>
</g>
<!-- Node23&#45;&gt;Node24 -->
<g id="edge35_Node000023_Node000024" class="edge">
<title>Node23&#45;&gt;Node24</title>
<g id="a_edge35_Node000023_Node000024"><a xlink:title=" ">
<path fill="none" stroke="#63b8ff" d="M527.74,-219.75C520.54,-212.11 509.89,-200.82 501.15,-191.56"/>
<polygon fill="#63b8ff" stroke="#63b8ff" points="503.51,-188.96 494.1,-184.09 498.42,-193.76 503.51,-188.96"/>
</a>
</g>
</g>
<!-- Node24&#45;&gt;Node2 -->
<g id="edge38_Node000024_Node000002" class="edge">
<title>Node24&#45;&gt;Node2</title>
<g id="a_edge38_Node000024_Node000002"><a xlink:title=" ">
<path fill="none" stroke="#63b8ff" d="M524.08,-164.98C568.02,-155.16 639.9,-139.08 684.17,-129.18"/>
<polygon fill="#63b8ff" stroke="#63b8ff" points="684.98,-132.59 693.98,-126.99 683.46,-125.76 684.98,-132.59"/>
</a>
</g>
</g>
<!-- Node24&#45;&gt;Node3 -->
<g id="edge42_Node000024_Node000003" class="edge">
<title>Node24&#45;&gt;Node3</title>
<g id="a_edge42_Node000024_Node000003"><a xlink:title=" ">
<path fill="none" stroke="#63b8ff" d="M460.61,-164.98C434.2,-156.13 392.65,-142.19 363.11,-132.28"/>
<polygon fill="#63b8ff" stroke="#63b8ff" points="364.18,-128.94 353.58,-129.08 361.95,-135.58 364.18,-128.94"/>
</a>
</g>
</g>
<!-- Node24&#45;&gt;Node4 -->
<g id="edge39_Node000024_Node000004" class="edge">
<title>Node24&#45;&gt;Node4</title>
<g id="a_edge39_Node000024_Node000004"><a xlink:title=" ">
<path fill="none" stroke="#63b8ff" d="M496.17,-165C518.45,-145.3 567.86,-95.14 545,-55 535.69,-38.66 517.76,-27.7 501.76,-20.74"/>
<polygon fill="#63b8ff" stroke="#63b8ff" points="502.73,-17.36 492.15,-16.92 500.15,-23.87 502.73,-17.36"/>
</a>
</g>
</g>
<!-- Node24&#45;&gt;Node5 -->
<g id="edge40_Node000024_Node000005" class="edge">
<title>Node24&#45;&gt;Node5</title>
<g id="a_edge40_Node000024_Node000005"><a xlink:title=" ">
<path fill="none" stroke="#63b8ff" d="M487.47,-164.66C490.39,-147.17 496.95,-107.8 500.87,-84.27"/>
<polygon fill="#63b8ff" stroke="#63b8ff" points="504.37,-84.6 502.56,-74.16 497.46,-83.45 504.37,-84.6"/>
</a>
</g>
</g>
<!-- Node24&#45;&gt;Node6 -->
<g id="edge41_Node000024_Node000006" class="edge">
<title>Node24&#45;&gt;Node6</title>
<g id="a_edge41_Node000024_Node000006"><a xlink:title=" ">
<path fill="none" stroke="#63b8ff" d="M481.34,-164.66C471.94,-146.85 450.57,-106.37 438.24,-83.01"/>
<polygon fill="#63b8ff" stroke="#63b8ff" points="441.33,-81.37 433.57,-74.16 435.14,-84.64 441.33,-81.37"/>
</a>
</g>
</g>
<!-- Node24&#45;&gt;Node14 -->
<g id="edge37_Node000024_Node000014" class="edge">
<title>Node24&#45;&gt;Node14</title>
<g id="a_edge37_Node000024_Node000014"><a xlink:title=" ">
<path fill="none" stroke="#63b8ff" d="M447.37,-167C385.07,-156.52 263.44,-136.05 204.55,-126.14"/>
<polygon fill="#63b8ff" stroke="#63b8ff" points="205.09,-122.69 194.64,-124.48 203.92,-129.59 205.09,-122.69"/>
</a>
</g>
</g>
<!-- Node24&#45;&gt;Node19 -->
<g id="edge36_Node000024_Node000019" class="edge">
<title>Node24&#45;&gt;Node19</title>
<g id="a_edge36_Node000024_Node000019"><a xlink:title=" ">
<path fill="none" stroke="#63b8ff" d="M508.98,-164.98C532.5,-156.27 569.29,-142.63 595.94,-132.75"/>
<polygon fill="#63b8ff" stroke="#63b8ff" points="597.45,-135.93 605.61,-129.17 595.01,-129.36 597.45,-135.93"/>
</a>
</g>
</g>
<!-- Node25&#45;&gt;Node3 -->
<g id="edge45_Node000025_Node000003" class="edge">
<title>Node25&#45;&gt;Node3</title>
<g id="a_edge45_Node000025_Node000003"><a xlink:title=" ">
<path fill="none" stroke="#63b8ff" d="M252.46,-164.98C266.42,-156.77 287.79,-144.18 304.25,-134.49"/>
<polygon fill="#63b8ff" stroke="#63b8ff" points="306.44,-137.26 313.28,-129.17 302.88,-131.23 306.44,-137.26"/>
</a>
</g>
</g>
<!-- Node25&#45;&gt;Node14 -->
<g id="edge44_Node000025_Node000014" class="edge">
<title>Node25&#45;&gt;Node14</title>
<g id="a_edge44_Node000025_Node000014"><a xlink:title=" ">
<path fill="none" stroke="#63b8ff" d="M227.24,-164.98C217.23,-157.07 202.11,-145.11 190.07,-135.58"/>
<polygon fill="#63b8ff" stroke="#63b8ff" points="191.97,-132.63 181.96,-129.17 187.63,-138.12 191.97,-132.63"/>
</a>
</g>
</g>
<!-- Node26&#45;&gt;Node2 -->
<g id="edge49_Node000026_Node000002" class="edge">
<title>Node26&#45;&gt;Node2</title>
<g id="a_edge49_Node000026_Node000002"><a xlink:title=" ">
<path fill="none" stroke="#63b8ff" d="M500.75,-274.95C519.83,-266.74 548.62,-253.49 572,-239 623.89,-206.84 678.83,-160.04 705.89,-136.01"/>
<polygon fill="#63b8ff" stroke="#63b8ff" points="708.54,-138.33 713.66,-129.05 703.87,-133.11 708.54,-138.33"/>
</a>
</g>
</g>
<!-- Node26&#45;&gt;Node14 -->
<g id="edge47_Node000026_Node000014" class="edge">
<title>Node26&#45;&gt;Node14</title>
<g id="a_edge47_Node000026_Node000014"><a xlink:title=" ">
<path fill="none" stroke="#63b8ff" d="M432.29,-275.85C350.69,-261.69 189.92,-228.71 157,-184 147.2,-170.69 153.19,-151.82 160.12,-138.12"/>
<polygon fill="#63b8ff" stroke="#63b8ff" points="163.28,-139.64 165.11,-129.2 157.17,-136.22 163.28,-139.64"/>
</a>
</g>
</g>
<!-- Node26&#45;&gt;Node17 -->
<g id="edge48_Node000026_Node000017" class="edge">
<title>Node26&#45;&gt;Node17</title>
<g id="a_edge48_Node000026_Node000017"><a xlink:title=" ">
<path fill="none" stroke="#63b8ff" d="M472.4,-274.75C465.84,-267.18 456.18,-256.05 448.19,-246.84"/>
<polygon fill="#63b8ff" stroke="#63b8ff" points="450.65,-244.35 441.45,-239.09 445.37,-248.94 450.65,-244.35"/>
</a>
</g>
</g>
<!-- Node26&#45;&gt;Node22 -->
<g id="edge50_Node000026_Node000022" class="edge">
<title>Node26&#45;&gt;Node22</title>
<g id="a_edge50_Node000026_Node000022"><a xlink:title=" ">
<path fill="none" stroke="#63b8ff" d="M462.33,-274.98C444.71,-266.5 417.42,-253.35 397.07,-243.54"/>
<polygon fill="#63b8ff" stroke="#63b8ff" points="398.52,-240.36 387.99,-239.17 395.48,-246.66 398.52,-240.36"/>
</a>
</g>
</g>
<!-- Node26&#45;&gt;Node23 -->
<g id="edge51_Node000026_Node000023" class="edge">
<title>Node26&#45;&gt;Node23</title>
<g id="a_edge51_Node000026_Node000023"><a xlink:title=" ">
<path fill="none" stroke="#63b8ff" d="M489,-274.98C497.19,-267.23 509.51,-255.58 519.47,-246.14"/>
<polygon fill="#63b8ff" stroke="#63b8ff" points="521.98,-248.59 526.84,-239.17 517.17,-243.5 521.98,-248.59"/>
</a>
</g>
</g>
</g>
</svg>
